<?xml version="1.0" encoding="utf-8" standalone="no"?>
<!DOCTYPE svg PUBLIC "-//W3C//DTD SVG 1.1//EN"
  "http://www.w3.org/Graphics/SVG/1.1/DTD/svg11.dtd">
<svg xmlns:xlink="http://www.w3.org/1999/xlink" width="436.6745pt" height="171.7234pt" viewBox="0 0 436.6745 171.7234" xmlns="http://www.w3.org/2000/svg" version="1.1">
 <metadata>
  <rdf:RDF xmlns:dc="http://purl.org/dc/elements/1.1/" xmlns:cc="http://creativecommons.org/ns#" xmlns:rdf="http://www.w3.org/1999/02/22-rdf-syntax-ns#">
   <cc:Work>
    <dc:type rdf:resource="http://purl.org/dc/dcmitype/StillImage"/>
    <dc:date>2024-11-13T10:46:36.440302</dc:date>
    <dc:format>image/svg+xml</dc:format>
    <dc:creator>
     <cc:Agent>
      <dc:title>Matplotlib v3.8.2, https://matplotlib.org/</dc:title>
     </cc:Agent>
    </dc:creator>
   </cc:Work>
  </rdf:RDF>
 </metadata>
 <defs>
  <style type="text/css">*{stroke-linejoin: round; stroke-linecap: butt}</style>
 </defs>
 <g id="figure_1">
  <g id="patch_1">
   <path d="M 0 171.7234 
L 436.6745 171.7234 
L 436.6745 0 
L 0 0 
z
" style="fill: #ffffff"/>
  </g>
  <g id="axes_1">
   <g id="patch_2">
    <path d="M 40.0225 138.0384 
L 237.5545 138.0384 
L 237.5545 7.2 
L 40.0225 7.2 
z
" style="fill: #ffffff"/>
   </g>
   <g id="matplotlib.axis_1">
    <g id="xtick_1">
     <g id="line2d_1">
      <path d="M 49.001227 138.0384 
L 49.001227 7.2 
" clip-path="url(#p14da6a9187)" style="fill: none; stroke: #d9d9d9; stroke-width: 0.8; stroke-linecap: square"/>
     </g>
     <g id="line2d_2">
      <defs>
       <path id="m6c85da6e0b" d="M 0 0 
L 0 3.5 
" style="stroke: #000000; stroke-width: 0.8"/>
      </defs>
      <g>
       <use xlink:href="#m6c85da6e0b" x="49.001227" y="138.0384" style="stroke: #000000; stroke-width: 0.8"/>
      </g>
     </g>
     <g id="text_1">
      <!-- $\mathdefault{10^{-1}}$ -->
      <g transform="translate(39.601227 151.11715) scale(0.08 -0.08)">
       <defs>
        <path id="DejaVuSans-31" d="M 794 531 
L 1825 531 
L 1825 4091 
L 703 3866 
L 703 4441 
L 1819 4666 
L 2450 4666 
L 2450 531 
L 3481 531 
L 3481 0 
L 794 0 
L 794 531 
z
" transform="scale(0.015625)"/>
        <path id="DejaVuSans-30" d="M 2034 4250 
Q 1547 4250 1301 3770 
Q 1056 3291 1056 2328 
Q 1056 1369 1301 889 
Q 1547 409 2034 409 
Q 2525 409 2770 889 
Q 3016 1369 3016 2328 
Q 3016 3291 2770 3770 
Q 2525 4250 2034 4250 
z
M 2034 4750 
Q 2819 4750 3233 4129 
Q 3647 3509 3647 2328 
Q 3647 1150 3233 529 
Q 2819 -91 2034 -91 
Q 1250 -91 836 529 
Q 422 1150 422 2328 
Q 422 3509 836 4129 
Q 1250 4750 2034 4750 
z
" transform="scale(0.015625)"/>
        <path id="DejaVuSans-2212" d="M 678 2272 
L 4684 2272 
L 4684 1741 
L 678 1741 
L 678 2272 
z
" transform="scale(0.015625)"/>
       </defs>
       <use xlink:href="#DejaVuSans-31" transform="translate(0 0.684375)"/>
       <use xlink:href="#DejaVuSans-30" transform="translate(63.623047 0.684375)"/>
       <use xlink:href="#DejaVuSans-2212" transform="translate(128.203125 38.965625) scale(0.7)"/>
       <use xlink:href="#DejaVuSans-31" transform="translate(186.855469 38.965625) scale(0.7)"/>
      </g>
     </g>
    </g>
    <g id="xtick_2">
     <g id="line2d_3">
      <path d="M 161.091003 138.0384 
L 161.091003 7.2 
" clip-path="url(#p14da6a9187)" style="fill: none; stroke: #d9d9d9; stroke-width: 0.8; stroke-linecap: square"/>
     </g>
     <g id="line2d_4">
      <g>
       <use xlink:href="#m6c85da6e0b" x="161.091003" y="138.0384" style="stroke: #000000; stroke-width: 0.8"/>
      </g>
     </g>
     <g id="text_2">
      <!-- $\mathdefault{10^{0}}$ -->
      <g transform="translate(154.051003 151.11715) scale(0.08 -0.08)">
       <use xlink:href="#DejaVuSans-31" transform="translate(0 0.765625)"/>
       <use xlink:href="#DejaVuSans-30" transform="translate(63.623047 0.765625)"/>
       <use xlink:href="#DejaVuSans-30" transform="translate(128.203125 39.046875) scale(0.7)"/>
      </g>
     </g>
    </g>
    <g id="xtick_3">
     <g id="line2d_5">
      <path d="M 43.87228 138.0384 
L 43.87228 7.2 
" clip-path="url(#p14da6a9187)" style="fill: none; stroke-dasharray: 2.96,1.28; stroke-dashoffset: 0; stroke: #f2f2f2; stroke-width: 0.8"/>
     </g>
     <g id="line2d_6">
      <defs>
       <path id="m7a92b2e03a" d="M 0 0 
L 0 2 
" style="stroke: #000000; stroke-width: 0.6"/>
      </defs>
      <g>
       <use xlink:href="#m7a92b2e03a" x="43.87228" y="138.0384" style="stroke: #000000; stroke-width: 0.6"/>
      </g>
     </g>
    </g>
    <g id="xtick_4">
     <g id="line2d_7">
      <path d="M 82.743612 138.0384 
L 82.743612 7.2 
" clip-path="url(#p14da6a9187)" style="fill: none; stroke-dasharray: 2.96,1.28; stroke-dashoffset: 0; stroke: #f2f2f2; stroke-width: 0.8"/>
     </g>
     <g id="line2d_8">
      <g>
       <use xlink:href="#m7a92b2e03a" x="82.743612" y="138.0384" style="stroke: #000000; stroke-width: 0.6"/>
      </g>
     </g>
    </g>
    <g id="xtick_5">
     <g id="line2d_9">
      <path d="M 102.481642 138.0384 
L 102.481642 7.2 
" clip-path="url(#p14da6a9187)" style="fill: none; stroke-dasharray: 2.96,1.28; stroke-dashoffset: 0; stroke: #f2f2f2; stroke-width: 0.8"/>
     </g>
     <g id="line2d_10">
      <g>
       <use xlink:href="#m7a92b2e03a" x="102.481642" y="138.0384" style="stroke: #000000; stroke-width: 0.6"/>
      </g>
     </g>
    </g>
    <g id="xtick_6">
     <g id="line2d_11">
      <path d="M 116.485997 138.0384 
L 116.485997 7.2 
" clip-path="url(#p14da6a9187)" style="fill: none; stroke-dasharray: 2.96,1.28; stroke-dashoffset: 0; stroke: #f2f2f2; stroke-width: 0.8"/>
     </g>
     <g id="line2d_12">
      <g>
       <use xlink:href="#m7a92b2e03a" x="116.485997" y="138.0384" style="stroke: #000000; stroke-width: 0.6"/>
      </g>
     </g>
    </g>
    <g id="xtick_7">
     <g id="line2d_13">
      <path d="M 127.348618 138.0384 
L 127.348618 7.2 
" clip-path="url(#p14da6a9187)" style="fill: none; stroke-dasharray: 2.96,1.28; stroke-dashoffset: 0; stroke: #f2f2f2; stroke-width: 0.8"/>
     </g>
     <g id="line2d_14">
      <g>
       <use xlink:href="#m7a92b2e03a" x="127.348618" y="138.0384" style="stroke: #000000; stroke-width: 0.6"/>
      </g>
     </g>
    </g>
    <g id="xtick_8">
     <g id="line2d_15">
      <path d="M 136.224027 138.0384 
L 136.224027 7.2 
" clip-path="url(#p14da6a9187)" style="fill: none; stroke-dasharray: 2.96,1.28; stroke-dashoffset: 0; stroke: #f2f2f2; stroke-width: 0.8"/>
     </g>
     <g id="line2d_16">
      <g>
       <use xlink:href="#m7a92b2e03a" x="136.224027" y="138.0384" style="stroke: #000000; stroke-width: 0.6"/>
      </g>
     </g>
    </g>
    <g id="xtick_9">
     <g id="line2d_17">
      <path d="M 143.728077 138.0384 
L 143.728077 7.2 
" clip-path="url(#p14da6a9187)" style="fill: none; stroke-dasharray: 2.96,1.28; stroke-dashoffset: 0; stroke: #f2f2f2; stroke-width: 0.8"/>
     </g>
     <g id="line2d_18">
      <g>
       <use xlink:href="#m7a92b2e03a" x="143.728077" y="138.0384" style="stroke: #000000; stroke-width: 0.6"/>
      </g>
     </g>
    </g>
    <g id="xtick_10">
     <g id="line2d_19">
      <path d="M 150.228382 138.0384 
L 150.228382 7.2 
" clip-path="url(#p14da6a9187)" style="fill: none; stroke-dasharray: 2.96,1.28; stroke-dashoffset: 0; stroke: #f2f2f2; stroke-width: 0.8"/>
     </g>
     <g id="line2d_20">
      <g>
       <use xlink:href="#m7a92b2e03a" x="150.228382" y="138.0384" style="stroke: #000000; stroke-width: 0.6"/>
      </g>
     </g>
    </g>
    <g id="xtick_11">
     <g id="line2d_21">
      <path d="M 155.962056 138.0384 
L 155.962056 7.2 
" clip-path="url(#p14da6a9187)" style="fill: none; stroke-dasharray: 2.96,1.28; stroke-dashoffset: 0; stroke: #f2f2f2; stroke-width: 0.8"/>
     </g>
     <g id="line2d_22">
      <g>
       <use xlink:href="#m7a92b2e03a" x="155.962056" y="138.0384" style="stroke: #000000; stroke-width: 0.6"/>
      </g>
     </g>
    </g>
    <g id="xtick_12">
     <g id="line2d_23">
      <path d="M 194.833388 138.0384 
L 194.833388 7.2 
" clip-path="url(#p14da6a9187)" style="fill: none; stroke-dasharray: 2.96,1.28; stroke-dashoffset: 0; stroke: #f2f2f2; stroke-width: 0.8"/>
     </g>
     <g id="line2d_24">
      <g>
       <use xlink:href="#m7a92b2e03a" x="194.833388" y="138.0384" style="stroke: #000000; stroke-width: 0.6"/>
      </g>
     </g>
    </g>
    <g id="xtick_13">
     <g id="line2d_25">
      <path d="M 214.571418 138.0384 
L 214.571418 7.2 
" clip-path="url(#p14da6a9187)" style="fill: none; stroke-dasharray: 2.96,1.28; stroke-dashoffset: 0; stroke: #f2f2f2; stroke-width: 0.8"/>
     </g>
     <g id="line2d_26">
      <g>
       <use xlink:href="#m7a92b2e03a" x="214.571418" y="138.0384" style="stroke: #000000; stroke-width: 0.6"/>
      </g>
     </g>
    </g>
    <g id="xtick_14">
     <g id="line2d_27">
      <path d="M 228.575773 138.0384 
L 228.575773 7.2 
" clip-path="url(#p14da6a9187)" style="fill: none; stroke-dasharray: 2.96,1.28; stroke-dashoffset: 0; stroke: #f2f2f2; stroke-width: 0.8"/>
     </g>
     <g id="line2d_28">
      <g>
       <use xlink:href="#m7a92b2e03a" x="228.575773" y="138.0384" style="stroke: #000000; stroke-width: 0.6"/>
      </g>
     </g>
    </g>
    <g id="text_3">
     <!-- Period, T (s) -->
     <g transform="translate(114.856 162.85965) scale(0.08 -0.08)">
      <defs>
       <path id="DejaVuSans-50" d="M 1259 4147 
L 1259 2394 
L 2053 2394 
Q 2494 2394 2734 2622 
Q 2975 2850 2975 3272 
Q 2975 3691 2734 3919 
Q 2494 4147 2053 4147 
L 1259 4147 
z
M 628 4666 
L 2053 4666 
Q 2838 4666 3239 4311 
Q 3641 3956 3641 3272 
Q 3641 2581 3239 2228 
Q 2838 1875 2053 1875 
L 1259 1875 
L 1259 0 
L 628 0 
L 628 4666 
z
" transform="scale(0.015625)"/>
       <path id="DejaVuSans-65" d="M 3597 1894 
L 3597 1613 
L 953 1613 
Q 991 1019 1311 708 
Q 1631 397 2203 397 
Q 2534 397 2845 478 
Q 3156 559 3463 722 
L 3463 178 
Q 3153 47 2828 -22 
Q 2503 -91 2169 -91 
Q 1331 -91 842 396 
Q 353 884 353 1716 
Q 353 2575 817 3079 
Q 1281 3584 2069 3584 
Q 2775 3584 3186 3129 
Q 3597 2675 3597 1894 
z
M 3022 2063 
Q 3016 2534 2758 2815 
Q 2500 3097 2075 3097 
Q 1594 3097 1305 2825 
Q 1016 2553 972 2059 
L 3022 2063 
z
" transform="scale(0.015625)"/>
       <path id="DejaVuSans-72" d="M 2631 2963 
Q 2534 3019 2420 3045 
Q 2306 3072 2169 3072 
Q 1681 3072 1420 2755 
Q 1159 2438 1159 1844 
L 1159 0 
L 581 0 
L 581 3500 
L 1159 3500 
L 1159 2956 
Q 1341 3275 1631 3429 
Q 1922 3584 2338 3584 
Q 2397 3584 2469 3576 
Q 2541 3569 2628 3553 
L 2631 2963 
z
" transform="scale(0.015625)"/>
       <path id="DejaVuSans-69" d="M 603 3500 
L 1178 3500 
L 1178 0 
L 603 0 
L 603 3500 
z
M 603 4863 
L 1178 4863 
L 1178 4134 
L 603 4134 
L 603 4863 
z
" transform="scale(0.015625)"/>
       <path id="DejaVuSans-6f" d="M 1959 3097 
Q 1497 3097 1228 2736 
Q 959 2375 959 1747 
Q 959 1119 1226 758 
Q 1494 397 1959 397 
Q 2419 397 2687 759 
Q 2956 1122 2956 1747 
Q 2956 2369 2687 2733 
Q 2419 3097 1959 3097 
z
M 1959 3584 
Q 2709 3584 3137 3096 
Q 3566 2609 3566 1747 
Q 3566 888 3137 398 
Q 2709 -91 1959 -91 
Q 1206 -91 779 398 
Q 353 888 353 1747 
Q 353 2609 779 3096 
Q 1206 3584 1959 3584 
z
" transform="scale(0.015625)"/>
       <path id="DejaVuSans-64" d="M 2906 2969 
L 2906 4863 
L 3481 4863 
L 3481 0 
L 2906 0 
L 2906 525 
Q 2725 213 2448 61 
Q 2172 -91 1784 -91 
Q 1150 -91 751 415 
Q 353 922 353 1747 
Q 353 2572 751 3078 
Q 1150 3584 1784 3584 
Q 2172 3584 2448 3432 
Q 2725 3281 2906 2969 
z
M 947 1747 
Q 947 1113 1208 752 
Q 1469 391 1925 391 
Q 2381 391 2643 752 
Q 2906 1113 2906 1747 
Q 2906 2381 2643 2742 
Q 2381 3103 1925 3103 
Q 1469 3103 1208 2742 
Q 947 2381 947 1747 
z
" transform="scale(0.015625)"/>
       <path id="DejaVuSans-2c" d="M 750 794 
L 1409 794 
L 1409 256 
L 897 -744 
L 494 -744 
L 750 256 
L 750 794 
z
" transform="scale(0.015625)"/>
       <path id="DejaVuSans-20" transform="scale(0.015625)"/>
       <path id="DejaVuSans-54" d="M -19 4666 
L 3928 4666 
L 3928 4134 
L 2272 4134 
L 2272 0 
L 1638 0 
L 1638 4134 
L -19 4134 
L -19 4666 
z
" transform="scale(0.015625)"/>
       <path id="DejaVuSans-28" d="M 1984 4856 
Q 1566 4138 1362 3434 
Q 1159 2731 1159 2009 
Q 1159 1288 1364 580 
Q 1569 -128 1984 -844 
L 1484 -844 
Q 1016 -109 783 600 
Q 550 1309 550 2009 
Q 550 2706 781 3412 
Q 1013 4119 1484 4856 
L 1984 4856 
z
" transform="scale(0.015625)"/>
       <path id="DejaVuSans-73" d="M 2834 3397 
L 2834 2853 
Q 2591 2978 2328 3040 
Q 2066 3103 1784 3103 
Q 1356 3103 1142 2972 
Q 928 2841 928 2578 
Q 928 2378 1081 2264 
Q 1234 2150 1697 2047 
L 1894 2003 
Q 2506 1872 2764 1633 
Q 3022 1394 3022 966 
Q 3022 478 2636 193 
Q 2250 -91 1575 -91 
Q 1294 -91 989 -36 
Q 684 19 347 128 
L 347 722 
Q 666 556 975 473 
Q 1284 391 1588 391 
Q 1994 391 2212 530 
Q 2431 669 2431 922 
Q 2431 1156 2273 1281 
Q 2116 1406 1581 1522 
L 1381 1569 
Q 847 1681 609 1914 
Q 372 2147 372 2553 
Q 372 3047 722 3315 
Q 1072 3584 1716 3584 
Q 2034 3584 2315 3537 
Q 2597 3491 2834 3397 
z
" transform="scale(0.015625)"/>
       <path id="DejaVuSans-29" d="M 513 4856 
L 1013 4856 
Q 1481 4119 1714 3412 
Q 1947 2706 1947 2009 
Q 1947 1309 1714 600 
Q 1481 -109 1013 -844 
L 513 -844 
Q 928 -128 1133 580 
Q 1338 1288 1338 2009 
Q 1338 2731 1133 3434 
Q 928 4138 513 4856 
z
" transform="scale(0.015625)"/>
      </defs>
      <use xlink:href="#DejaVuSans-50"/>
      <use xlink:href="#DejaVuSans-65" x="56.677734"/>
      <use xlink:href="#DejaVuSans-72" x="118.201172"/>
      <use xlink:href="#DejaVuSans-69" x="159.314453"/>
      <use xlink:href="#DejaVuSans-6f" x="187.097656"/>
      <use xlink:href="#DejaVuSans-64" x="248.279297"/>
      <use xlink:href="#DejaVuSans-2c" x="311.755859"/>
      <use xlink:href="#DejaVuSans-20" x="343.542969"/>
      <use xlink:href="#DejaVuSans-54" x="375.330078"/>
      <use xlink:href="#DejaVuSans-20" x="436.414062"/>
      <use xlink:href="#DejaVuSans-28" x="468.201172"/>
      <use xlink:href="#DejaVuSans-73" x="507.214844"/>
      <use xlink:href="#DejaVuSans-29" x="559.314453"/>
     </g>
    </g>
   </g>
   <g id="matplotlib.axis_2">
    <g id="ytick_1">
     <g id="line2d_29">
      <path d="M 40.0225 98.847013 
L 237.5545 98.847013 
" clip-path="url(#p14da6a9187)" style="fill: none; stroke: #d9d9d9; stroke-width: 0.8; stroke-linecap: square"/>
     </g>
     <g id="line2d_30">
      <defs>
       <path id="m669ba0f7f2" d="M 0 0 
L -3.5 0 
" style="stroke: #000000; stroke-width: 0.8"/>
      </defs>
      <g>
       <use xlink:href="#m669ba0f7f2" x="40.0225" y="98.847013" style="stroke: #000000; stroke-width: 0.8"/>
      </g>
     </g>
     <g id="text_4">
      <!-- $\mathdefault{10^{2}}$ -->
      <g transform="translate(18.9425 101.886388) scale(0.08 -0.08)">
       <defs>
        <path id="DejaVuSans-32" d="M 1228 531 
L 3431 531 
L 3431 0 
L 469 0 
L 469 531 
Q 828 903 1448 1529 
Q 2069 2156 2228 2338 
Q 2531 2678 2651 2914 
Q 2772 3150 2772 3378 
Q 2772 3750 2511 3984 
Q 2250 4219 1831 4219 
Q 1534 4219 1204 4116 
Q 875 4013 500 3803 
L 500 4441 
Q 881 4594 1212 4672 
Q 1544 4750 1819 4750 
Q 2544 4750 2975 4387 
Q 3406 4025 3406 3419 
Q 3406 3131 3298 2873 
Q 3191 2616 2906 2266 
Q 2828 2175 2409 1742 
Q 1991 1309 1228 531 
z
" transform="scale(0.015625)"/>
       </defs>
       <use xlink:href="#DejaVuSans-31" transform="translate(0 0.765625)"/>
       <use xlink:href="#DejaVuSans-30" transform="translate(63.623047 0.765625)"/>
       <use xlink:href="#DejaVuSans-32" transform="translate(128.203125 39.046875) scale(0.7)"/>
      </g>
     </g>
    </g>
    <g id="ytick_2">
     <g id="line2d_31">
      <path d="M 40.0225 129.35001 
L 237.5545 129.35001 
" clip-path="url(#p14da6a9187)" style="fill: none; stroke-dasharray: 2.96,1.28; stroke-dashoffset: 0; stroke: #f2f2f2; stroke-width: 0.8"/>
     </g>
     <g id="line2d_32">
      <defs>
       <path id="me6d50bb028" d="M 0 0 
L -2 0 
" style="stroke: #000000; stroke-width: 0.6"/>
      </defs>
      <g>
       <use xlink:href="#me6d50bb028" x="40.0225" y="129.35001" style="stroke: #000000; stroke-width: 0.6"/>
      </g>
     </g>
    </g>
    <g id="ytick_3">
     <g id="line2d_33">
      <path d="M 40.0225 121.326672 
L 237.5545 121.326672 
" clip-path="url(#p14da6a9187)" style="fill: none; stroke-dasharray: 2.96,1.28; stroke-dashoffset: 0; stroke: #f2f2f2; stroke-width: 0.8"/>
     </g>
     <g id="line2d_34">
      <g>
       <use xlink:href="#me6d50bb028" x="40.0225" y="121.326672" style="stroke: #000000; stroke-width: 0.6"/>
      </g>
     </g>
    </g>
    <g id="ytick_4">
     <g id="line2d_35">
      <path d="M 40.0225 114.543037 
L 237.5545 114.543037 
" clip-path="url(#p14da6a9187)" style="fill: none; stroke-dasharray: 2.96,1.28; stroke-dashoffset: 0; stroke: #f2f2f2; stroke-width: 0.8"/>
     </g>
     <g id="line2d_36">
      <g>
       <use xlink:href="#me6d50bb028" x="40.0225" y="114.543037" style="stroke: #000000; stroke-width: 0.6"/>
      </g>
     </g>
    </g>
    <g id="ytick_5">
     <g id="line2d_37">
      <path d="M 40.0225 108.666785 
L 237.5545 108.666785 
" clip-path="url(#p14da6a9187)" style="fill: none; stroke-dasharray: 2.96,1.28; stroke-dashoffset: 0; stroke: #f2f2f2; stroke-width: 0.8"/>
     </g>
     <g id="line2d_38">
      <g>
       <use xlink:href="#me6d50bb028" x="40.0225" y="108.666785" style="stroke: #000000; stroke-width: 0.6"/>
      </g>
     </g>
    </g>
    <g id="ytick_6">
     <g id="line2d_39">
      <path d="M 40.0225 103.483563 
L 237.5545 103.483563 
" clip-path="url(#p14da6a9187)" style="fill: none; stroke-dasharray: 2.96,1.28; stroke-dashoffset: 0; stroke: #f2f2f2; stroke-width: 0.8"/>
     </g>
     <g id="line2d_40">
      <g>
       <use xlink:href="#me6d50bb028" x="40.0225" y="103.483563" style="stroke: #000000; stroke-width: 0.6"/>
      </g>
     </g>
    </g>
    <g id="ytick_7">
     <g id="line2d_41">
      <path d="M 40.0225 68.344017 
L 237.5545 68.344017 
" clip-path="url(#p14da6a9187)" style="fill: none; stroke-dasharray: 2.96,1.28; stroke-dashoffset: 0; stroke: #f2f2f2; stroke-width: 0.8"/>
     </g>
     <g id="line2d_42">
      <g>
       <use xlink:href="#me6d50bb028" x="40.0225" y="68.344017" style="stroke: #000000; stroke-width: 0.6"/>
      </g>
     </g>
    </g>
    <g id="ytick_8">
     <g id="line2d_43">
      <path d="M 40.0225 50.500908 
L 237.5545 50.500908 
" clip-path="url(#p14da6a9187)" style="fill: none; stroke-dasharray: 2.96,1.28; stroke-dashoffset: 0; stroke: #f2f2f2; stroke-width: 0.8"/>
     </g>
     <g id="line2d_44">
      <g>
       <use xlink:href="#me6d50bb028" x="40.0225" y="50.500908" style="stroke: #000000; stroke-width: 0.6"/>
      </g>
     </g>
    </g>
    <g id="ytick_9">
     <g id="line2d_45">
      <path d="M 40.0225 37.84102 
L 237.5545 37.84102 
" clip-path="url(#p14da6a9187)" style="fill: none; stroke-dasharray: 2.96,1.28; stroke-dashoffset: 0; stroke: #f2f2f2; stroke-width: 0.8"/>
     </g>
     <g id="line2d_46">
      <g>
       <use xlink:href="#me6d50bb028" x="40.0225" y="37.84102" style="stroke: #000000; stroke-width: 0.6"/>
      </g>
     </g>
    </g>
    <g id="ytick_10">
     <g id="line2d_47">
      <path d="M 40.0225 28.021249 
L 237.5545 28.021249 
" clip-path="url(#p14da6a9187)" style="fill: none; stroke-dasharray: 2.96,1.28; stroke-dashoffset: 0; stroke: #f2f2f2; stroke-width: 0.8"/>
     </g>
     <g id="line2d_48">
      <g>
       <use xlink:href="#me6d50bb028" x="40.0225" y="28.021249" style="stroke: #000000; stroke-width: 0.6"/>
      </g>
     </g>
    </g>
    <g id="ytick_11">
     <g id="line2d_49">
      <path d="M 40.0225 19.997911 
L 237.5545 19.997911 
" clip-path="url(#p14da6a9187)" style="fill: none; stroke-dasharray: 2.96,1.28; stroke-dashoffset: 0; stroke: #f2f2f2; stroke-width: 0.8"/>
     </g>
     <g id="line2d_50">
      <g>
       <use xlink:href="#me6d50bb028" x="40.0225" y="19.997911" style="stroke: #000000; stroke-width: 0.6"/>
      </g>
     </g>
    </g>
    <g id="ytick_12">
     <g id="line2d_51">
      <path d="M 40.0225 13.214276 
L 237.5545 13.214276 
" clip-path="url(#p14da6a9187)" style="fill: none; stroke-dasharray: 2.96,1.28; stroke-dashoffset: 0; stroke: #f2f2f2; stroke-width: 0.8"/>
     </g>
     <g id="line2d_52">
      <g>
       <use xlink:href="#me6d50bb028" x="40.0225" y="13.214276" style="stroke: #000000; stroke-width: 0.6"/>
      </g>
     </g>
    </g>
    <g id="ytick_13">
     <g id="line2d_53">
      <path d="M 40.0225 7.338024 
L 237.5545 7.338024 
" clip-path="url(#p14da6a9187)" style="fill: none; stroke-dasharray: 2.96,1.28; stroke-dashoffset: 0; stroke: #f2f2f2; stroke-width: 0.8"/>
     </g>
     <g id="line2d_54">
      <g>
       <use xlink:href="#me6d50bb028" x="40.0225" y="7.338024" style="stroke: #000000; stroke-width: 0.6"/>
      </g>
     </g>
    </g>
    <g id="text_5">
     <!-- Spectral acceleration, SA (g) -->
     <g transform="translate(13.27875 129.871075) rotate(-90) scale(0.08 -0.08)">
      <defs>
       <path id="DejaVuSans-53" d="M 3425 4513 
L 3425 3897 
Q 3066 4069 2747 4153 
Q 2428 4238 2131 4238 
Q 1616 4238 1336 4038 
Q 1056 3838 1056 3469 
Q 1056 3159 1242 3001 
Q 1428 2844 1947 2747 
L 2328 2669 
Q 3034 2534 3370 2195 
Q 3706 1856 3706 1288 
Q 3706 609 3251 259 
Q 2797 -91 1919 -91 
Q 1588 -91 1214 -16 
Q 841 59 441 206 
L 441 856 
Q 825 641 1194 531 
Q 1563 422 1919 422 
Q 2459 422 2753 634 
Q 3047 847 3047 1241 
Q 3047 1584 2836 1778 
Q 2625 1972 2144 2069 
L 1759 2144 
Q 1053 2284 737 2584 
Q 422 2884 422 3419 
Q 422 4038 858 4394 
Q 1294 4750 2059 4750 
Q 2388 4750 2728 4690 
Q 3069 4631 3425 4513 
z
" transform="scale(0.015625)"/>
       <path id="DejaVuSans-70" d="M 1159 525 
L 1159 -1331 
L 581 -1331 
L 581 3500 
L 1159 3500 
L 1159 2969 
Q 1341 3281 1617 3432 
Q 1894 3584 2278 3584 
Q 2916 3584 3314 3078 
Q 3713 2572 3713 1747 
Q 3713 922 3314 415 
Q 2916 -91 2278 -91 
Q 1894 -91 1617 61 
Q 1341 213 1159 525 
z
M 3116 1747 
Q 3116 2381 2855 2742 
Q 2594 3103 2138 3103 
Q 1681 3103 1420 2742 
Q 1159 2381 1159 1747 
Q 1159 1113 1420 752 
Q 1681 391 2138 391 
Q 2594 391 2855 752 
Q 3116 1113 3116 1747 
z
" transform="scale(0.015625)"/>
       <path id="DejaVuSans-63" d="M 3122 3366 
L 3122 2828 
Q 2878 2963 2633 3030 
Q 2388 3097 2138 3097 
Q 1578 3097 1268 2742 
Q 959 2388 959 1747 
Q 959 1106 1268 751 
Q 1578 397 2138 397 
Q 2388 397 2633 464 
Q 2878 531 3122 666 
L 3122 134 
Q 2881 22 2623 -34 
Q 2366 -91 2075 -91 
Q 1284 -91 818 406 
Q 353 903 353 1747 
Q 353 2603 823 3093 
Q 1294 3584 2113 3584 
Q 2378 3584 2631 3529 
Q 2884 3475 3122 3366 
z
" transform="scale(0.015625)"/>
       <path id="DejaVuSans-74" d="M 1172 4494 
L 1172 3500 
L 2356 3500 
L 2356 3053 
L 1172 3053 
L 1172 1153 
Q 1172 725 1289 603 
Q 1406 481 1766 481 
L 2356 481 
L 2356 0 
L 1766 0 
Q 1100 0 847 248 
Q 594 497 594 1153 
L 594 3053 
L 172 3053 
L 172 3500 
L 594 3500 
L 594 4494 
L 1172 4494 
z
" transform="scale(0.015625)"/>
       <path id="DejaVuSans-61" d="M 2194 1759 
Q 1497 1759 1228 1600 
Q 959 1441 959 1056 
Q 959 750 1161 570 
Q 1363 391 1709 391 
Q 2188 391 2477 730 
Q 2766 1069 2766 1631 
L 2766 1759 
L 2194 1759 
z
M 3341 1997 
L 3341 0 
L 2766 0 
L 2766 531 
Q 2569 213 2275 61 
Q 1981 -91 1556 -91 
Q 1019 -91 701 211 
Q 384 513 384 1019 
Q 384 1609 779 1909 
Q 1175 2209 1959 2209 
L 2766 2209 
L 2766 2266 
Q 2766 2663 2505 2880 
Q 2244 3097 1772 3097 
Q 1472 3097 1187 3025 
Q 903 2953 641 2809 
L 641 3341 
Q 956 3463 1253 3523 
Q 1550 3584 1831 3584 
Q 2591 3584 2966 3190 
Q 3341 2797 3341 1997 
z
" transform="scale(0.015625)"/>
       <path id="DejaVuSans-6c" d="M 603 4863 
L 1178 4863 
L 1178 0 
L 603 0 
L 603 4863 
z
" transform="scale(0.015625)"/>
       <path id="DejaVuSans-6e" d="M 3513 2113 
L 3513 0 
L 2938 0 
L 2938 2094 
Q 2938 2591 2744 2837 
Q 2550 3084 2163 3084 
Q 1697 3084 1428 2787 
Q 1159 2491 1159 1978 
L 1159 0 
L 581 0 
L 581 3500 
L 1159 3500 
L 1159 2956 
Q 1366 3272 1645 3428 
Q 1925 3584 2291 3584 
Q 2894 3584 3203 3211 
Q 3513 2838 3513 2113 
z
" transform="scale(0.015625)"/>
       <path id="DejaVuSans-41" d="M 2188 4044 
L 1331 1722 
L 3047 1722 
L 2188 4044 
z
M 1831 4666 
L 2547 4666 
L 4325 0 
L 3669 0 
L 3244 1197 
L 1141 1197 
L 716 0 
L 50 0 
L 1831 4666 
z
" transform="scale(0.015625)"/>
       <path id="DejaVuSans-67" d="M 2906 1791 
Q 2906 2416 2648 2759 
Q 2391 3103 1925 3103 
Q 1463 3103 1205 2759 
Q 947 2416 947 1791 
Q 947 1169 1205 825 
Q 1463 481 1925 481 
Q 2391 481 2648 825 
Q 2906 1169 2906 1791 
z
M 3481 434 
Q 3481 -459 3084 -895 
Q 2688 -1331 1869 -1331 
Q 1566 -1331 1297 -1286 
Q 1028 -1241 775 -1147 
L 775 -588 
Q 1028 -725 1275 -790 
Q 1522 -856 1778 -856 
Q 2344 -856 2625 -561 
Q 2906 -266 2906 331 
L 2906 616 
Q 2728 306 2450 153 
Q 2172 0 1784 0 
Q 1141 0 747 490 
Q 353 981 353 1791 
Q 353 2603 747 3093 
Q 1141 3584 1784 3584 
Q 2172 3584 2450 3431 
Q 2728 3278 2906 2969 
L 2906 3500 
L 3481 3500 
L 3481 434 
z
" transform="scale(0.015625)"/>
      </defs>
      <use xlink:href="#DejaVuSans-53"/>
      <use xlink:href="#DejaVuSans-70" x="63.476562"/>
      <use xlink:href="#DejaVuSans-65" x="126.953125"/>
      <use xlink:href="#DejaVuSans-63" x="188.476562"/>
      <use xlink:href="#DejaVuSans-74" x="243.457031"/>
      <use xlink:href="#DejaVuSans-72" x="282.666016"/>
      <use xlink:href="#DejaVuSans-61" x="323.779297"/>
      <use xlink:href="#DejaVuSans-6c" x="385.058594"/>
      <use xlink:href="#DejaVuSans-20" x="412.841797"/>
      <use xlink:href="#DejaVuSans-61" x="444.628906"/>
      <use xlink:href="#DejaVuSans-63" x="505.908203"/>
      <use xlink:href="#DejaVuSans-63" x="560.888672"/>
      <use xlink:href="#DejaVuSans-65" x="615.869141"/>
      <use xlink:href="#DejaVuSans-6c" x="677.392578"/>
      <use xlink:href="#DejaVuSans-65" x="705.175781"/>
      <use xlink:href="#DejaVuSans-72" x="766.699219"/>
      <use xlink:href="#DejaVuSans-61" x="807.8125"/>
      <use xlink:href="#DejaVuSans-74" x="869.091797"/>
      <use xlink:href="#DejaVuSans-69" x="908.300781"/>
      <use xlink:href="#DejaVuSans-6f" x="936.083984"/>
      <use xlink:href="#DejaVuSans-6e" x="997.265625"/>
      <use xlink:href="#DejaVuSans-2c" x="1060.644531"/>
      <use xlink:href="#DejaVuSans-20" x="1092.431641"/>
      <use xlink:href="#DejaVuSans-53" x="1124.21875"/>
      <use xlink:href="#DejaVuSans-41" x="1189.570312"/>
      <use xlink:href="#DejaVuSans-20" x="1257.978516"/>
      <use xlink:href="#DejaVuSans-28" x="1289.765625"/>
      <use xlink:href="#DejaVuSans-67" x="1328.779297"/>
      <use xlink:href="#DejaVuSans-29" x="1392.255859"/>
     </g>
    </g>
   </g>
   <g id="line2d_55">
    <path d="M 49.001227 97.070297 
L 68.739257 78.114069 
L 82.743612 69.342799 
L 93.606234 61.789951 
L 102.481642 57.715272 
L 116.485997 53.751101 
L 126.760926 53.164569 
L 127.348618 52.923259 
L 147.086648 55.388071 
L 161.091003 48.924013 
L 173.862888 51.355819 
L 180.829033 54.977253 
L 194.833388 45.265139 
L 214.571418 48.211434 
L 228.575773 58.346597 
" clip-path="url(#p14da6a9187)" style="fill: none; stroke: #b2b2b2; stroke-width: 0.8; stroke-linecap: square"/>
   </g>
   <g id="line2d_56">
    <path d="M 49.001227 126.321404 
L 68.739257 104.056181 
L 82.743612 92.731261 
L 93.606234 81.294164 
L 102.481642 72.464444 
L 116.485997 62.323284 
L 126.760926 53.164569 
L 127.348618 52.530957 
L 147.086648 39.785139 
L 161.091003 33.132036 
L 173.862888 30.459028 
L 180.829033 29.747727 
L 194.833388 30.038158 
L 214.571418 31.142235 
L 228.575773 42.609128 
" clip-path="url(#p14da6a9187)" style="fill: none; stroke: #b2b2b2; stroke-width: 0.8; stroke-linecap: square"/>
   </g>
   <g id="line2d_57">
    <path d="M 49.001227 122.910461 
L 68.739257 100.860083 
L 82.743612 93.13165 
L 93.606234 81.187004 
L 102.481642 72.249368 
L 116.485997 62.229525 
L 126.760926 53.164569 
L 127.348618 52.506689 
L 147.086648 38.882405 
L 161.091003 32.515986 
L 173.862888 30.952136 
L 180.829033 31.807644 
L 194.833388 37.454468 
L 214.571418 31.317946 
L 228.575773 39.754264 
" clip-path="url(#p14da6a9187)" style="fill: none; stroke: #b2b2b2; stroke-width: 0.8; stroke-linecap: square"/>
   </g>
   <g id="line2d_58">
    <path d="M 49.001227 117.522641 
L 68.739257 103.220312 
L 82.743612 93.061179 
L 93.606234 82.792828 
L 102.481642 75.757041 
L 116.485997 66.050167 
L 126.760926 53.164569 
L 127.348618 52.643026 
L 147.086648 44.912685 
L 161.091003 37.509604 
L 173.862888 34.853672 
L 180.829033 33.995431 
L 194.833388 37.409717 
L 214.571418 34.480404 
L 228.575773 40.988916 
" clip-path="url(#p14da6a9187)" style="fill: none; stroke: #b2b2b2; stroke-width: 0.8; stroke-linecap: square"/>
   </g>
   <g id="line2d_59">
    <path d="M 49.001227 124.103592 
L 68.739257 103.177522 
L 82.743612 92.300157 
L 93.606234 81.18059 
L 102.481642 73.468479 
L 116.485997 62.292875 
L 126.760926 53.164569 
L 127.348618 52.656576 
L 147.086648 38.144316 
L 161.091003 29.363138 
L 173.862888 23.711199 
L 180.829033 21.791483 
L 194.833388 23.940194 
L 214.571418 32.332169 
L 228.575773 29.340374 
" clip-path="url(#p14da6a9187)" style="fill: none; stroke: #b2b2b2; stroke-width: 0.8; stroke-linecap: square"/>
   </g>
   <g id="line2d_60">
    <path d="M 49.001227 124.13779 
L 68.739257 103.176783 
L 82.743612 92.263032 
L 93.606234 81.099323 
L 102.481642 73.36366 
L 116.485997 62.197102 
L 126.760926 53.164569 
L 127.348618 52.664857 
L 147.086648 38.775196 
L 161.091003 31.26462 
L 173.862888 28.461406 
L 180.829033 27.384236 
L 194.833388 28.511311 
L 214.571418 25.108292 
L 228.575773 22.13419 
" clip-path="url(#p14da6a9187)" style="fill: none; stroke: #b2b2b2; stroke-width: 0.8; stroke-linecap: square"/>
   </g>
   <g id="line2d_61">
    <path d="M 49.001227 121.818021 
L 68.739257 100.999193 
L 82.743612 90.213519 
L 93.606234 79.25731 
L 102.481642 71.758073 
L 116.485997 61.227457 
L 126.760926 53.164569 
L 127.348618 52.731138 
L 147.086648 42.016133 
L 161.091003 38.512314 
L 173.862888 39.711536 
L 180.829033 40.663746 
L 194.833388 32.117138 
L 214.571418 34.812387 
L 228.575773 35.90234 
" clip-path="url(#p14da6a9187)" style="fill: none; stroke: #b2b2b2; stroke-width: 0.8; stroke-linecap: square"/>
   </g>
   <g id="line2d_62">
    <path d="M 49.001227 122.521881 
L 68.739257 100.516647 
L 82.743612 89.468091 
L 93.606234 78.481757 
L 102.481642 70.191552 
L 116.485997 60.964277 
L 126.760926 53.164569 
L 127.348618 52.652922 
L 147.086648 44.963479 
L 161.091003 47.392282 
L 173.862888 56.508578 
L 180.829033 53.047037 
L 194.833388 44.064168 
L 214.571418 37.853798 
L 228.575773 40.762888 
" clip-path="url(#p14da6a9187)" style="fill: none; stroke: #b2b2b2; stroke-width: 0.8; stroke-linecap: square"/>
   </g>
   <g id="line2d_63">
    <path d="M 49.001227 121.844692 
L 68.739257 101.009597 
L 82.743612 90.23152 
L 93.606234 79.297503 
L 102.481642 71.811424 
L 116.485997 61.247392 
L 126.760926 53.164569 
L 127.348618 52.7351 
L 147.086648 43.073748 
L 161.091003 42.616264 
L 173.862888 40.576713 
L 180.829033 36.733781 
L 194.833388 34.375928 
L 214.571418 36.334788 
L 228.575773 36.798966 
" clip-path="url(#p14da6a9187)" style="fill: none; stroke: #b2b2b2; stroke-width: 0.8; stroke-linecap: square"/>
   </g>
   <g id="line2d_64">
    <path d="M 49.001227 111.183341 
L 68.739257 90.483336 
L 82.743612 79.787562 
L 93.606234 77.963781 
L 102.481642 71.352889 
L 116.485997 61.142672 
L 126.760926 53.164569 
L 127.348618 52.73606 
L 147.086648 42.327447 
L 161.091003 39.33017 
L 173.862888 38.023326 
L 180.829033 34.236114 
L 194.833388 33.350855 
L 214.571418 32.447099 
L 228.575773 29.559846 
" clip-path="url(#p14da6a9187)" style="fill: none; stroke: #b2b2b2; stroke-width: 0.8; stroke-linecap: square"/>
   </g>
   <g id="line2d_65">
    <path d="M 49.001227 124.717533 
L 68.739257 102.557634 
L 82.743612 91.350226 
L 93.606234 80.120512 
L 102.481642 71.524942 
L 116.485997 61.772344 
L 126.760926 53.164569 
L 127.348618 52.579751 
L 147.086648 42.187285 
L 161.091003 39.432285 
L 173.862888 39.016588 
L 180.829033 38.570268 
L 194.833388 31.392797 
L 214.571418 40.459716 
L 228.575773 48.148697 
" clip-path="url(#p14da6a9187)" style="fill: none; stroke: #b2b2b2; stroke-width: 0.8; stroke-linecap: square"/>
   </g>
   <g id="line2d_66">
    <path d="M 49.001227 123.218423 
L 68.739257 101.108542 
L 82.743612 89.972842 
L 93.606234 78.879654 
L 102.481642 70.499238 
L 116.485997 61.170048 
L 126.760926 53.164569 
L 127.348618 52.629079 
L 147.086648 43.04806 
L 161.091003 41.002926 
L 173.862888 44.060833 
L 180.829033 45.87075 
L 194.833388 42.882737 
L 214.571418 38.465148 
L 228.575773 40.933079 
" clip-path="url(#p14da6a9187)" style="fill: none; stroke: #b2b2b2; stroke-width: 0.8; stroke-linecap: square"/>
   </g>
   <g id="line2d_67">
    <path d="M 49.001227 124.104996 
L 68.739257 103.110017 
L 82.743612 92.180319 
L 93.606234 81.00416 
L 102.481642 73.267482 
L 116.485997 62.125007 
L 126.760926 53.164569 
L 127.348618 52.670944 
L 147.086648 39.166021 
L 161.091003 32.029703 
L 173.862888 28.442998 
L 180.829033 27.051797 
L 194.833388 21.62132 
L 214.571418 23.499267 
L 228.575773 13.1472 
" clip-path="url(#p14da6a9187)" style="fill: none; stroke: #b2b2b2; stroke-width: 0.8; stroke-linecap: square"/>
   </g>
   <g id="line2d_68">
    <path d="M 49.001227 124.489025 
L 68.739257 102.459929 
L 82.743612 91.382127 
L 93.606234 80.297441 
L 102.481642 71.819723 
L 116.485997 62.096481 
L 126.760926 53.164569 
L 127.348618 52.538786 
L 147.086648 38.300971 
L 161.091003 31.116864 
L 173.862888 29.835375 
L 180.829033 31.167764 
L 194.833388 31.38079 
L 214.571418 33.436331 
L 228.575773 46.557464 
" clip-path="url(#p14da6a9187)" style="fill: none; stroke: #b2b2b2; stroke-width: 0.8; stroke-linecap: square"/>
   </g>
   <g id="line2d_69">
    <path d="M 49.001227 109.888027 
L 68.739257 89.863973 
L 82.743612 79.801987 
L 93.606234 76.504747 
L 102.481642 69.491472 
L 116.485997 59.737306 
L 126.760926 53.164569 
L 127.348618 52.848883 
L 147.086648 49.250172 
L 161.091003 50.468218 
L 173.862888 45.175104 
L 180.829033 42.977668 
L 194.833388 44.531065 
L 214.571418 42.746619 
L 228.575773 39.509327 
" clip-path="url(#p14da6a9187)" style="fill: none; stroke: #b2b2b2; stroke-width: 0.8; stroke-linecap: square"/>
   </g>
   <g id="line2d_70">
    <path d="M 49.001227 125.371575 
L 68.739257 103.145103 
L 82.743612 91.873794 
L 93.606234 80.545927 
L 102.481642 71.85625 
L 116.485997 61.963365 
L 126.760926 53.164569 
L 127.348618 52.564421 
L 147.086648 40.666102 
L 161.091003 34.699276 
L 173.862888 33.361954 
L 180.829033 32.402517 
L 194.833388 35.095806 
L 214.571418 27.963996 
L 228.575773 36.492615 
" clip-path="url(#p14da6a9187)" style="fill: none; stroke: #b2b2b2; stroke-width: 0.8; stroke-linecap: square"/>
   </g>
   <g id="line2d_71">
    <path d="M 49.001227 106.147007 
L 68.739257 86.410371 
L 82.743612 76.781411 
L 93.606234 67.777367 
L 102.481642 62.334199 
L 116.485997 56.456909 
L 126.760926 53.164569 
L 127.348618 53.048028 
L 147.086648 48.629219 
L 161.091003 38.663936 
L 173.862888 34.244223 
L 180.829033 34.863621 
L 194.833388 33.965094 
L 214.571418 25.459966 
L 228.575773 26.558832 
" clip-path="url(#p14da6a9187)" style="fill: none; stroke: #b2b2b2; stroke-width: 0.8; stroke-linecap: square"/>
   </g>
   <g id="line2d_72">
    <path d="M 49.001227 121.724284 
L 68.739257 99.821595 
L 82.743612 92.143377 
L 93.606234 80.297499 
L 102.481642 71.380983 
L 116.485997 61.466783 
L 126.760926 53.164569 
L 127.348618 52.603872 
L 147.086648 43.793175 
L 161.091003 44.626409 
L 173.862888 43.626458 
L 180.829033 31.518786 
L 194.833388 31.393126 
L 214.571418 36.19965 
L 228.575773 30.610314 
" clip-path="url(#p14da6a9187)" style="fill: none; stroke: #b2b2b2; stroke-width: 0.8; stroke-linecap: square"/>
   </g>
   <g id="line2d_73">
    <path d="M 49.001227 123.283395 
L 68.739257 101.393837 
L 82.743612 90.476204 
L 93.606234 79.624722 
L 102.481642 71.055002 
L 116.485997 61.425508 
L 126.760926 53.164569 
L 127.348618 52.613557 
L 147.086648 42.045944 
L 161.091003 35.725527 
L 173.862888 34.250556 
L 180.829033 35.110333 
L 194.833388 34.696601 
L 214.571418 26.952247 
L 228.575773 32.768206 
" clip-path="url(#p14da6a9187)" style="fill: none; stroke: #b2b2b2; stroke-width: 0.8; stroke-linecap: square"/>
   </g>
   <g id="line2d_74">
    <path d="M 49.001227 125.341361 
L 68.739257 103.164435 
L 82.743612 91.935877 
L 93.606234 80.64916 
L 102.481642 71.978052 
L 116.485997 62.056909 
L 126.760926 53.164569 
L 127.348618 52.553722 
L 147.086648 39.172044 
L 161.091003 31.355374 
L 173.862888 28.180585 
L 180.829033 29.536242 
L 194.833388 39.524764 
L 214.571418 33.954705 
L 228.575773 31.551168 
" clip-path="url(#p14da6a9187)" style="fill: none; stroke: #b2b2b2; stroke-width: 0.8; stroke-linecap: square"/>
   </g>
   <g id="line2d_75">
    <path d="M 49.001227 109.814478 
L 68.739257 88.618287 
L 82.743612 78.47551 
L 93.606234 69.134262 
L 102.481642 63.092786 
L 116.485997 58.3331 
L 126.760926 53.164569 
L 127.348618 52.7732 
L 147.086648 45.947228 
L 161.091003 42.945172 
L 173.862888 37.865973 
L 180.829033 38.725998 
L 194.833388 31.635489 
L 214.571418 35.589973 
L 228.575773 35.161629 
" clip-path="url(#p14da6a9187)" style="fill: none; stroke: #b2b2b2; stroke-width: 0.8; stroke-linecap: square"/>
   </g>
   <g id="line2d_76">
    <path d="M 49.001227 122.072979 
L 68.739257 100.135861 
L 82.743612 89.144842 
L 93.606234 78.275744 
L 102.481642 70.017326 
L 116.485997 60.869766 
L 126.760926 53.164569 
L 127.348618 52.65714 
L 147.086648 44.62379 
L 161.091003 44.149696 
L 173.862888 43.948325 
L 180.829033 45.722955 
L 194.833388 43.889298 
L 214.571418 38.632444 
L 228.575773 49.806061 
" clip-path="url(#p14da6a9187)" style="fill: none; stroke: #b2b2b2; stroke-width: 0.8; stroke-linecap: square"/>
   </g>
   <g id="line2d_77">
    <path d="M 49.001227 117.294326 
L 68.739257 96.531812 
L 82.743612 91.132102 
L 93.606234 80.304841 
L 102.481642 72.844225 
L 116.485997 62.073395 
L 126.760926 53.164569 
L 127.348618 52.663397 
L 147.086648 37.92236 
L 161.091003 30.622944 
L 173.862888 33.615155 
L 180.829033 28.593915 
L 194.833388 22.283826 
L 214.571418 26.409363 
L 228.575773 26.138739 
" clip-path="url(#p14da6a9187)" style="fill: none; stroke: #b2b2b2; stroke-width: 0.8; stroke-linecap: square"/>
   </g>
   <g id="line2d_78">
    <path d="M 49.001227 125.793479 
L 68.739257 103.557723 
L 82.743612 92.269024 
L 93.606234 80.911669 
L 102.481642 72.180291 
L 116.485997 62.176712 
L 126.760926 53.164569 
L 127.348618 52.542761 
L 147.086648 40.174102 
L 161.091003 34.111088 
L 173.862888 33.112448 
L 180.829033 35.328503 
L 194.833388 31.579727 
L 214.571418 36.192373 
L 228.575773 36.423209 
" clip-path="url(#p14da6a9187)" style="fill: none; stroke: #b2b2b2; stroke-width: 0.8; stroke-linecap: square"/>
   </g>
   <g id="line2d_79">
    <path d="M 49.001227 122.602738 
L 68.739257 101.768745 
L 82.743612 90.981548 
L 93.606234 80.010855 
L 102.481642 72.464421 
L 116.485997 61.69352 
L 126.760926 53.164569 
L 127.348618 52.698423 
L 147.086648 40.162575 
L 161.091003 33.157647 
L 173.862888 30.45513 
L 180.829033 29.304079 
L 194.833388 26.519943 
L 214.571418 23.593551 
L 228.575773 22.781785 
" clip-path="url(#p14da6a9187)" style="fill: none; stroke: #b2b2b2; stroke-width: 0.8; stroke-linecap: square"/>
   </g>
   <g id="line2d_80">
    <path d="M 49.001227 123.647745 
L 68.739257 101.662464 
L 82.743612 90.619577 
L 93.606234 79.649428 
L 102.481642 71.310548 
L 116.485997 61.795233 
L 126.760926 53.164569 
L 127.348618 52.568341 
L 147.086648 41.41984 
L 161.091003 38.317894 
L 173.862888 40.965068 
L 180.829033 45.014007 
L 194.833388 43.417692 
L 214.571418 42.79743 
L 228.575773 50.330268 
" clip-path="url(#p14da6a9187)" style="fill: none; stroke: #b2b2b2; stroke-width: 0.8; stroke-linecap: square"/>
   </g>
   <g id="line2d_81">
    <path d="M 49.001227 113.636378 
L 68.739257 93.491782 
L 82.743612 83.347244 
L 93.606234 73.337561 
L 102.481642 66.709436 
L 116.485997 58.129586 
L 126.760926 53.164569 
L 127.348618 52.960242 
L 147.086648 53.943443 
L 161.091003 55.622716 
L 173.862888 53.262734 
L 180.829033 55.986887 
L 194.833388 50.586713 
L 214.571418 46.961093 
L 228.575773 46.942006 
" clip-path="url(#p14da6a9187)" style="fill: none; stroke: #b2b2b2; stroke-width: 0.8; stroke-linecap: square"/>
   </g>
   <g id="line2d_82">
    <path d="M 49.001227 124.361792 
L 68.739257 102.383467 
L 82.743612 91.188749 
L 93.606234 79.954624 
L 102.481642 71.353309 
L 116.485997 61.623219 
L 126.760926 53.164569 
L 127.348618 52.596213 
L 147.086648 42.807645 
L 161.091003 42.606633 
L 173.862888 39.058592 
L 180.829033 35.790518 
L 194.833388 37.826266 
L 214.571418 41.765148 
L 228.575773 48.472367 
" clip-path="url(#p14da6a9187)" style="fill: none; stroke: #b2b2b2; stroke-width: 0.8; stroke-linecap: square"/>
   </g>
   <g id="line2d_83">
    <path d="M 49.001227 114.9897 
L 68.739257 94.592833 
L 82.743612 88.589201 
L 93.606234 77.877177 
L 102.481642 70.526032 
L 116.485997 60.416318 
L 126.760926 53.164569 
L 127.348618 52.789568 
L 147.086648 46.846056 
L 161.091003 44.283598 
L 173.862888 45.880356 
L 180.829033 45.180384 
L 194.833388 44.403783 
L 214.571418 49.446604 
L 228.575773 46.66082 
" clip-path="url(#p14da6a9187)" style="fill: none; stroke: #b2b2b2; stroke-width: 0.8; stroke-linecap: square"/>
   </g>
   <g id="line2d_84">
    <path d="M 49.001227 119.568629 
L 68.739257 101.294906 
L 82.743612 90.002979 
L 93.606234 80.39381 
L 102.481642 72.610711 
L 116.485997 61.308053 
L 126.760926 53.164569 
L 127.348618 52.663892 
L 147.086648 40.327691 
L 161.091003 35.633036 
L 173.862888 35.642331 
L 180.829033 34.946846 
L 194.833388 31.366412 
L 214.571418 27.058816 
L 228.575773 36.70444 
" clip-path="url(#p14da6a9187)" style="fill: none; stroke: #b2b2b2; stroke-width: 0.8; stroke-linecap: square"/>
   </g>
   <g id="line2d_85">
    <path d="M 49.001227 124.559512 
L 68.739257 102.512574 
L 82.743612 91.402059 
L 93.606234 80.314134 
L 102.481642 71.857993 
L 116.485997 62.069243 
L 126.760926 53.164569 
L 127.348618 52.560017 
L 147.086648 40.455853 
L 161.091003 34.447567 
L 173.862888 33.531725 
L 180.829033 35.107804 
L 194.833388 38.086463 
L 214.571418 33.623251 
L 228.575773 38.165751 
" clip-path="url(#p14da6a9187)" style="fill: none; stroke: #b2b2b2; stroke-width: 0.8; stroke-linecap: square"/>
   </g>
   <g id="line2d_86">
    <path d="M 49.001227 123.883481 
L 68.739257 102.086508 
L 82.743612 90.913345 
L 93.606234 79.757133 
L 102.481642 71.230726 
L 116.485997 61.614255 
L 126.760926 53.164569 
L 127.348618 52.594356 
L 147.086648 42.310501 
L 161.091003 40.094611 
L 173.862888 43.118007 
L 180.829033 46.031274 
L 194.833388 48.82498 
L 214.571418 46.952044 
L 228.575773 51.617559 
" clip-path="url(#p14da6a9187)" style="fill: none; stroke: #b2b2b2; stroke-width: 0.8; stroke-linecap: square"/>
   </g>
   <g id="line2d_87">
    <path d="M 49.001227 119.791284 
L 68.739257 97.95296 
L 82.743612 87.078568 
L 93.606234 76.410639 
L 102.481642 68.486986 
L 116.485997 59.963787 
L 126.760926 53.164569 
L 127.348618 52.7331 
L 147.086648 47.126972 
L 161.091003 46.467217 
L 173.862888 41.408137 
L 180.829033 42.548693 
L 194.833388 45.481307 
L 214.571418 38.202048 
L 228.575773 44.069584 
" clip-path="url(#p14da6a9187)" style="fill: none; stroke: #b2b2b2; stroke-width: 0.8; stroke-linecap: square"/>
   </g>
   <g id="line2d_88">
    <path d="M 49.001227 125.407111 
L 68.739257 103.182141 
L 82.743612 91.908979 
L 93.606234 80.577387 
L 102.481642 71.881408 
L 116.485997 61.977298 
L 126.760926 53.164569 
L 127.348618 52.562749 
L 147.086648 41.203125 
L 161.091003 37.498105 
L 173.862888 41.564946 
L 180.829033 42.608214 
L 194.833388 43.904846 
L 214.571418 44.315708 
L 228.575773 42.95983 
" clip-path="url(#p14da6a9187)" style="fill: none; stroke: #b2b2b2; stroke-width: 0.8; stroke-linecap: square"/>
   </g>
   <g id="line2d_89">
    <path d="M 49.001227 115.85172 
L 68.739257 94.655763 
L 82.743612 84.380647 
L 93.606234 74.507688 
L 102.481642 67.275454 
L 116.485997 59.400715 
L 126.760926 53.164569 
L 127.348618 52.768093 
L 147.086648 47.144675 
L 161.091003 41.194905 
L 173.862888 39.701519 
L 180.829033 39.359218 
L 194.833388 45.013859 
L 214.571418 39.351568 
L 228.575773 39.142487 
" clip-path="url(#p14da6a9187)" style="fill: none; stroke: #b2b2b2; stroke-width: 0.8; stroke-linecap: square"/>
   </g>
   <g id="line2d_90">
    <path d="M 49.001227 123.492112 
L 68.739257 102.614941 
L 82.743612 91.779505 
L 93.606234 80.721663 
L 102.481642 73.071516 
L 116.485997 62.043362 
L 126.760926 53.164569 
L 127.348618 52.675364 
L 147.086648 39.412197 
L 161.091003 32.718458 
L 173.862888 30.081377 
L 180.829033 28.857776 
L 194.833388 20.668206 
L 214.571418 15.418902 
L 228.575773 18.129234 
" clip-path="url(#p14da6a9187)" style="fill: none; stroke: #b2b2b2; stroke-width: 0.8; stroke-linecap: square"/>
   </g>
   <g id="line2d_91">
    <path d="M 49.001227 120.624122 
L 68.739257 98.662109 
L 82.743612 87.681964 
L 93.606234 76.856601 
L 102.481642 68.800209 
L 116.485997 60.098778 
L 126.760926 53.164569 
L 127.348618 52.7254 
L 147.086648 47.331976 
L 161.091003 44.201872 
L 173.862888 45.809655 
L 180.829033 44.176262 
L 194.833388 43.451459 
L 214.571418 36.778154 
L 228.575773 38.769505 
" clip-path="url(#p14da6a9187)" style="fill: none; stroke: #b2b2b2; stroke-width: 0.8; stroke-linecap: square"/>
   </g>
   <g id="line2d_92">
    <path d="M 49.001227 122.732518 
L 68.739257 100.662372 
L 82.743612 89.550152 
L 93.606234 78.515842 
L 102.481642 70.181333 
L 116.485997 60.943601 
L 126.760926 53.164569 
L 127.348618 52.650845 
L 147.086648 44.671151 
L 161.091003 44.394055 
L 173.862888 46.879512 
L 180.829033 47.890989 
L 194.833388 48.537824 
L 214.571418 48.076829 
L 228.575773 50.997252 
" clip-path="url(#p14da6a9187)" style="fill: none; stroke: #b2b2b2; stroke-width: 0.8; stroke-linecap: square"/>
   </g>
   <g id="line2d_93">
    <path d="M 49.001227 112.184127 
L 68.739257 92.175652 
L 82.743612 82.075497 
L 93.606234 72.273215 
L 102.481642 65.987217 
L 116.485997 58.035299 
L 126.760926 53.164569 
L 127.348618 52.895943 
L 147.086648 49.188951 
L 161.091003 49.525066 
L 173.862888 48.256385 
L 180.829033 49.023474 
L 194.833388 54.957153 
L 214.571418 50.558765 
L 228.575773 54.559841 
" clip-path="url(#p14da6a9187)" style="fill: none; stroke: #b2b2b2; stroke-width: 0.8; stroke-linecap: square"/>
   </g>
   <g id="line2d_94">
    <path d="M 49.001227 125.987472 
L 68.739257 103.878619 
L 82.743612 92.702356 
L 93.606234 81.489352 
L 102.481642 72.838402 
L 116.485997 62.75242 
L 126.760926 53.164569 
L 127.348618 52.480202 
L 147.086648 42.134495 
L 161.091003 32.07925 
L 173.862888 26.026036 
L 180.829033 24.758565 
L 194.833388 30.129203 
L 214.571418 28.790838 
L 228.575773 31.107514 
" clip-path="url(#p14da6a9187)" style="fill: none; stroke: #b2b2b2; stroke-width: 0.8; stroke-linecap: square"/>
   </g>
   <g id="line2d_95">
    <path d="M 49.001227 120.343546 
L 68.739257 98.440048 
L 82.743612 87.487307 
L 93.606234 76.698831 
L 102.481642 68.671585 
L 116.485997 60.010517 
L 126.760926 53.164569 
L 127.348618 52.732597 
L 147.086648 47.539039 
L 161.091003 50.483525 
L 173.862888 52.19445 
L 180.829033 52.409906 
L 194.833388 55.664057 
L 214.571418 57.019915 
L 228.575773 53.098537 
" clip-path="url(#p14da6a9187)" style="fill: none; stroke: #b2b2b2; stroke-width: 0.8; stroke-linecap: square"/>
   </g>
   <g id="line2d_96">
    <path d="M 49.001227 122.22696 
L 68.739257 103.658242 
L 82.743612 92.006712 
L 93.606234 81.887191 
L 102.481642 73.782449 
L 116.485997 61.952875 
L 126.760926 53.164569 
L 127.348618 52.61484 
L 147.086648 37.760487 
L 161.091003 29.987397 
L 173.862888 23.602834 
L 180.829033 21.176115 
L 194.833388 18.85447 
L 214.571418 13.296919 
L 228.575773 20.385191 
" clip-path="url(#p14da6a9187)" style="fill: none; stroke: #b2b2b2; stroke-width: 0.8; stroke-linecap: square"/>
   </g>
   <g id="line2d_97">
    <path d="M 49.001227 117.439808 
L 68.739257 95.743868 
L 82.743612 85.036757 
L 93.606234 74.698157 
L 102.481642 67.160235 
L 116.485997 59.276927 
L 126.760926 53.164569 
L 127.348618 52.77774 
L 147.086648 43.646835 
L 161.091003 38.260537 
L 173.862888 35.530281 
L 180.829033 35.793096 
L 194.833388 32.624688 
L 214.571418 33.728163 
L 228.575773 55.490267 
" clip-path="url(#p14da6a9187)" style="fill: none; stroke: #b2b2b2; stroke-width: 0.8; stroke-linecap: square"/>
   </g>
   <g id="line2d_98">
    <path d="M 49.001227 123.211656 
L 68.739257 101.426948 
L 82.743612 90.589774 
L 93.606234 79.758574 
L 102.481642 71.206294 
L 116.485997 61.549414 
L 126.760926 53.164569 
L 127.348618 52.602001 
L 147.086648 42.995759 
L 161.091003 41.908003 
L 173.862888 41.473236 
L 180.829033 43.894741 
L 194.833388 47.227934 
L 214.571418 52.019632 
L 228.575773 43.921394 
" clip-path="url(#p14da6a9187)" style="fill: none; stroke: #b2b2b2; stroke-width: 0.8; stroke-linecap: square"/>
   </g>
   <g id="line2d_99">
    <path d="M 49.001227 118.640495 
L 68.739257 101.168051 
L 82.743612 86.890659 
L 93.606234 78.078329 
L 102.481642 71.080725 
L 116.485997 59.908315 
L 126.760926 53.164569 
L 127.348618 52.667749 
L 147.086648 44.737322 
L 161.091003 44.136544 
L 173.862888 46.037164 
L 180.829033 42.722844 
L 194.833388 40.222632 
L 214.571418 40.013945 
L 228.575773 39.042337 
" clip-path="url(#p14da6a9187)" style="fill: none; stroke: #b2b2b2; stroke-width: 0.8; stroke-linecap: square"/>
   </g>
   <g id="line2d_100">
    <path d="M 49.001227 121.762863 
L 68.739257 99.629788 
L 82.743612 88.463169 
L 93.606234 77.371636 
L 102.481642 69.046661 
L 116.485997 60.061171 
L 126.760926 53.164569 
L 127.348618 52.746244 
L 147.086648 48.066696 
L 161.091003 44.74413 
L 173.862888 46.250422 
L 180.829033 50.573603 
L 194.833388 59.421223 
L 214.571418 63.175942 
L 228.575773 54.064531 
" clip-path="url(#p14da6a9187)" style="fill: none; stroke: #b2b2b2; stroke-width: 0.8; stroke-linecap: square"/>
   </g>
   <g id="line2d_101">
    <path d="M 49.001227 114.465847 
L 68.739257 94.303008 
L 82.743612 84.109401 
L 93.606234 74.119806 
L 102.481642 67.62403 
L 116.485997 59.080876 
L 126.760926 53.164569 
L 127.348618 52.86683 
L 147.086648 46.880143 
L 161.091003 45.363953 
L 173.862888 46.001629 
L 180.829033 45.258643 
L 194.833388 39.858346 
L 214.571418 28.762026 
L 228.575773 26.583266 
" clip-path="url(#p14da6a9187)" style="fill: none; stroke: #b2b2b2; stroke-width: 0.8; stroke-linecap: square"/>
   </g>
   <g id="line2d_102">
    <path d="M 49.001227 120.09248 
L 68.739257 101.634753 
L 82.743612 90.124021 
L 93.606234 80.214107 
L 102.481642 72.371914 
L 116.485997 61.172083 
L 126.760926 53.164569 
L 127.348618 52.67346 
L 147.086648 40.498716 
L 161.091003 35.722138 
L 173.862888 32.717624 
L 180.829033 33.916686 
L 194.833388 34.917816 
L 214.571418 47.326781 
L 228.575773 53.522777 
" clip-path="url(#p14da6a9187)" style="fill: none; stroke: #b2b2b2; stroke-width: 0.8; stroke-linecap: square"/>
   </g>
   <g id="line2d_103">
    <path d="M 49.001227 122.843549 
L 68.739257 100.92008 
L 82.743612 89.791216 
L 93.606234 78.642121 
L 102.481642 70.165632 
L 116.485997 60.737182 
L 126.760926 53.164569 
L 127.348618 52.689917 
L 147.086648 43.865763 
L 161.091003 38.547162 
L 173.862888 41.136203 
L 180.829033 41.171075 
L 194.833388 38.106198 
L 214.571418 40.628238 
L 228.575773 40.285497 
" clip-path="url(#p14da6a9187)" style="fill: none; stroke: #b2b2b2; stroke-width: 0.8; stroke-linecap: square"/>
   </g>
   <g id="line2d_104">
    <path d="M 49.001227 113.552003 
L 68.739257 92.162443 
L 82.743612 81.76534 
L 93.606234 71.842696 
L 102.481642 64.787745 
L 116.485997 57.68252 
L 126.760926 53.164569 
L 127.348618 52.92992 
L 147.086648 49.550897 
L 161.091003 47.467913 
L 173.862888 43.768397 
L 180.829033 43.11394 
L 194.833388 51.491101 
L 214.571418 49.030919 
L 228.575773 44.34975 
" clip-path="url(#p14da6a9187)" style="fill: none; stroke: #b2b2b2; stroke-width: 0.8; stroke-linecap: square"/>
   </g>
   <g id="line2d_105">
    <path d="M 49.001227 120.136319 
L 68.739257 98.979662 
L 82.743612 88.074319 
L 93.606234 79.048389 
L 102.481642 70.021429 
L 116.485997 60.619718 
L 126.760926 53.164569 
L 127.348618 52.701294 
L 147.086648 43.58699 
L 161.091003 39.553558 
L 173.862888 38.764246 
L 180.829033 38.228321 
L 194.833388 37.877438 
L 214.571418 36.976773 
L 228.575773 39.338834 
" clip-path="url(#p14da6a9187)" style="fill: none; stroke: #ff0000; stroke-width: 2; stroke-linecap: square"/>
   </g>
   <g id="line2d_106">
    <path d="M 49.001227 108.181439 
L 68.739257 88.30552 
L 82.743612 78.745895 
L 93.606234 70.97292 
L 102.481642 63.463151 
L 116.485997 56.757496 
L 126.760926 53.164569 
L 127.348618 51.749817 
L 147.086648 35.502886 
L 161.091003 26.850211 
L 173.862888 23.355044 
L 180.829033 21.353034 
L 194.833388 19.603729 
L 214.571418 17.14762 
L 228.575773 18.476368 
" clip-path="url(#p14da6a9187)" style="fill: none; stroke-dasharray: 7.4,3.2; stroke-dashoffset: 0; stroke: #ff0000; stroke-width: 2"/>
   </g>
   <g id="line2d_107">
    <path d="M 49.001227 132.0912 
L 68.739257 109.653804 
L 82.743612 97.402744 
L 93.606234 87.123858 
L 102.481642 76.579707 
L 116.485997 64.48194 
L 126.760926 53.16457 
L 127.348618 53.652772 
L 147.086648 51.671094 
L 161.091003 52.256906 
L 173.862888 54.173449 
L 180.829033 55.103608 
L 194.833388 56.151147 
L 214.571418 56.805927 
L 228.575773 60.2013 
" clip-path="url(#p14da6a9187)" style="fill: none; stroke-dasharray: 7.4,3.2; stroke-dashoffset: 0; stroke: #ff0000; stroke-width: 2"/>
   </g>
   <g id="line2d_108">
    <path d="M 49.001227 120.011893 
L 68.739257 99.003158 
L 82.743612 88.438343 
L 93.606234 78.092609 
L 102.481642 70.319143 
L 116.485997 60.848921 
L 126.760926 53.164569 
L 127.348618 52.685843 
L 147.086648 43.504478 
L 161.091003 39.607476 
L 173.862888 38.674075 
L 180.829033 38.368824 
L 194.833388 37.879282 
L 214.571418 36.973912 
L 228.575773 39.243157 
" clip-path="url(#p14da6a9187)" style="fill: none; stroke: #0000ff; stroke-width: 2; stroke-linecap: square"/>
   </g>
   <g id="line2d_109">
    <path d="M 49.001227 108.348715 
L 68.739257 88.36158 
L 82.743612 78.5992 
L 93.606234 70.187957 
L 102.481642 63.899419 
L 116.485997 57.129612 
L 126.760926 53.164569 
L 127.348618 52.4398 
L 147.086648 35.476484 
L 161.091003 26.945157 
L 173.862888 23.157711 
L 180.829033 21.481987 
L 194.833388 19.372948 
L 214.571418 17.176842 
L 228.575773 18.318543 
" clip-path="url(#p14da6a9187)" style="fill: none; stroke-dasharray: 7.4,3.2; stroke-dashoffset: 0; stroke: #0000ff; stroke-width: 2"/>
   </g>
   <g id="line2d_110">
    <path d="M 49.001227 131.675071 
L 68.739257 109.644736 
L 82.743612 98.277485 
L 93.606234 85.997262 
L 102.481642 76.738867 
L 116.485997 64.56823 
L 126.760926 53.164569 
L 127.348618 52.931887 
L 147.086648 51.532472 
L 161.091003 52.269794 
L 173.862888 54.190439 
L 180.829033 55.255661 
L 194.833388 56.385616 
L 214.571418 56.770981 
L 228.575773 60.167771 
" clip-path="url(#p14da6a9187)" style="fill: none; stroke-dasharray: 7.4,3.2; stroke-dashoffset: 0; stroke: #0000ff; stroke-width: 2"/>
   </g>
   <g id="patch_3">
    <path d="M 40.0225 138.0384 
L 40.0225 7.2 
" style="fill: none; stroke: #000000; stroke-width: 0.8; stroke-linejoin: miter; stroke-linecap: square"/>
   </g>
   <g id="patch_4">
    <path d="M 237.5545 138.0384 
L 237.5545 7.2 
" style="fill: none; stroke: #000000; stroke-width: 0.8; stroke-linejoin: miter; stroke-linecap: square"/>
   </g>
   <g id="patch_5">
    <path d="M 40.0225 138.0384 
L 237.5545 138.0384 
" style="fill: none; stroke: #000000; stroke-width: 0.8; stroke-linejoin: miter; stroke-linecap: square"/>
   </g>
   <g id="patch_6">
    <path d="M 40.0225 7.2 
L 237.5545 7.2 
" style="fill: none; stroke: #000000; stroke-width: 0.8; stroke-linejoin: miter; stroke-linecap: square"/>
   </g>
   <g id="legend_1">
    <g id="patch_7">
     <path d="M 243.1545 104.47295 
L 427.8745 104.47295 
Q 429.4745 104.47295 429.4745 102.87295 
L 429.4745 42.36545 
Q 429.4745 40.76545 427.8745 40.76545 
L 243.1545 40.76545 
Q 241.5545 40.76545 241.5545 42.36545 
L 241.5545 102.87295 
Q 241.5545 104.47295 243.1545 104.47295 
z
" style="fill: #ffffff; opacity: 0.8; stroke: #cccccc; stroke-linejoin: miter"/>
    </g>
    <g id="line2d_111">
     <path d="M 244.7545 47.2442 
L 252.7545 47.2442 
L 260.7545 47.2442 
" style="fill: none; stroke: #b2b2b2; stroke-width: 0.8; stroke-linecap: square"/>
    </g>
    <g id="text_6">
     <!-- Individual selected GMs -->
     <g transform="translate(267.1545 50.0442) scale(0.08 -0.08)">
      <defs>
       <path id="DejaVuSans-49" d="M 628 4666 
L 1259 4666 
L 1259 0 
L 628 0 
L 628 4666 
z
" transform="scale(0.015625)"/>
       <path id="DejaVuSans-76" d="M 191 3500 
L 800 3500 
L 1894 563 
L 2988 3500 
L 3597 3500 
L 2284 0 
L 1503 0 
L 191 3500 
z
" transform="scale(0.015625)"/>
       <path id="DejaVuSans-75" d="M 544 1381 
L 544 3500 
L 1119 3500 
L 1119 1403 
Q 1119 906 1312 657 
Q 1506 409 1894 409 
Q 2359 409 2629 706 
Q 2900 1003 2900 1516 
L 2900 3500 
L 3475 3500 
L 3475 0 
L 2900 0 
L 2900 538 
Q 2691 219 2414 64 
Q 2138 -91 1772 -91 
Q 1169 -91 856 284 
Q 544 659 544 1381 
z
M 1991 3584 
L 1991 3584 
z
" transform="scale(0.015625)"/>
       <path id="DejaVuSans-47" d="M 3809 666 
L 3809 1919 
L 2778 1919 
L 2778 2438 
L 4434 2438 
L 4434 434 
Q 4069 175 3628 42 
Q 3188 -91 2688 -91 
Q 1594 -91 976 548 
Q 359 1188 359 2328 
Q 359 3472 976 4111 
Q 1594 4750 2688 4750 
Q 3144 4750 3555 4637 
Q 3966 4525 4313 4306 
L 4313 3634 
Q 3963 3931 3569 4081 
Q 3175 4231 2741 4231 
Q 1884 4231 1454 3753 
Q 1025 3275 1025 2328 
Q 1025 1384 1454 906 
Q 1884 428 2741 428 
Q 3075 428 3337 486 
Q 3600 544 3809 666 
z
" transform="scale(0.015625)"/>
       <path id="DejaVuSans-4d" d="M 628 4666 
L 1569 4666 
L 2759 1491 
L 3956 4666 
L 4897 4666 
L 4897 0 
L 4281 0 
L 4281 4097 
L 3078 897 
L 2444 897 
L 1241 4097 
L 1241 0 
L 628 0 
L 628 4666 
z
" transform="scale(0.015625)"/>
      </defs>
      <use xlink:href="#DejaVuSans-49"/>
      <use xlink:href="#DejaVuSans-6e" x="29.492188"/>
      <use xlink:href="#DejaVuSans-64" x="92.871094"/>
      <use xlink:href="#DejaVuSans-69" x="156.347656"/>
      <use xlink:href="#DejaVuSans-76" x="184.130859"/>
      <use xlink:href="#DejaVuSans-69" x="243.310547"/>
      <use xlink:href="#DejaVuSans-64" x="271.09375"/>
      <use xlink:href="#DejaVuSans-75" x="334.570312"/>
      <use xlink:href="#DejaVuSans-61" x="397.949219"/>
      <use xlink:href="#DejaVuSans-6c" x="459.228516"/>
      <use xlink:href="#DejaVuSans-20" x="487.011719"/>
      <use xlink:href="#DejaVuSans-73" x="518.798828"/>
      <use xlink:href="#DejaVuSans-65" x="570.898438"/>
      <use xlink:href="#DejaVuSans-6c" x="632.421875"/>
      <use xlink:href="#DejaVuSans-65" x="660.205078"/>
      <use xlink:href="#DejaVuSans-63" x="721.728516"/>
      <use xlink:href="#DejaVuSans-74" x="776.708984"/>
      <use xlink:href="#DejaVuSans-65" x="815.917969"/>
      <use xlink:href="#DejaVuSans-64" x="877.441406"/>
      <use xlink:href="#DejaVuSans-20" x="940.917969"/>
      <use xlink:href="#DejaVuSans-47" x="972.705078"/>
      <use xlink:href="#DejaVuSans-4d" x="1050.195312"/>
      <use xlink:href="#DejaVuSans-73" x="1136.474609"/>
     </g>
    </g>
    <g id="line2d_112">
     <path d="M 244.7545 58.9867 
L 252.7545 58.9867 
L 260.7545 58.9867 
" style="fill: none; stroke: #ff0000; stroke-width: 2; stroke-linecap: square"/>
    </g>
    <g id="text_7">
     <!-- GCIM median -->
     <g transform="translate(267.1545 61.7867) scale(0.08 -0.08)">
      <defs>
       <path id="DejaVuSans-43" d="M 4122 4306 
L 4122 3641 
Q 3803 3938 3442 4084 
Q 3081 4231 2675 4231 
Q 1875 4231 1450 3742 
Q 1025 3253 1025 2328 
Q 1025 1406 1450 917 
Q 1875 428 2675 428 
Q 3081 428 3442 575 
Q 3803 722 4122 1019 
L 4122 359 
Q 3791 134 3420 21 
Q 3050 -91 2638 -91 
Q 1578 -91 968 557 
Q 359 1206 359 2328 
Q 359 3453 968 4101 
Q 1578 4750 2638 4750 
Q 3056 4750 3426 4639 
Q 3797 4528 4122 4306 
z
" transform="scale(0.015625)"/>
       <path id="DejaVuSans-6d" d="M 3328 2828 
Q 3544 3216 3844 3400 
Q 4144 3584 4550 3584 
Q 5097 3584 5394 3201 
Q 5691 2819 5691 2113 
L 5691 0 
L 5113 0 
L 5113 2094 
Q 5113 2597 4934 2840 
Q 4756 3084 4391 3084 
Q 3944 3084 3684 2787 
Q 3425 2491 3425 1978 
L 3425 0 
L 2847 0 
L 2847 2094 
Q 2847 2600 2669 2842 
Q 2491 3084 2119 3084 
Q 1678 3084 1418 2786 
Q 1159 2488 1159 1978 
L 1159 0 
L 581 0 
L 581 3500 
L 1159 3500 
L 1159 2956 
Q 1356 3278 1631 3431 
Q 1906 3584 2284 3584 
Q 2666 3584 2933 3390 
Q 3200 3197 3328 2828 
z
" transform="scale(0.015625)"/>
      </defs>
      <use xlink:href="#DejaVuSans-47"/>
      <use xlink:href="#DejaVuSans-43" x="77.490234"/>
      <use xlink:href="#DejaVuSans-49" x="147.314453"/>
      <use xlink:href="#DejaVuSans-4d" x="176.806641"/>
      <use xlink:href="#DejaVuSans-20" x="263.085938"/>
      <use xlink:href="#DejaVuSans-6d" x="294.873047"/>
      <use xlink:href="#DejaVuSans-65" x="392.285156"/>
      <use xlink:href="#DejaVuSans-64" x="453.808594"/>
      <use xlink:href="#DejaVuSans-69" x="517.285156"/>
      <use xlink:href="#DejaVuSans-61" x="545.068359"/>
      <use xlink:href="#DejaVuSans-6e" x="606.347656"/>
     </g>
    </g>
    <g id="line2d_113">
     <path d="M 244.7545 72.01045 
L 252.7545 72.01045 
L 260.7545 72.01045 
" style="fill: none; stroke-dasharray: 7.4,3.2; stroke-dashoffset: 0; stroke: #ff0000; stroke-width: 2"/>
    </g>
    <g id="text_8">
     <!-- GCIM $16^{th}$ and $84^{th}$ percentiles -->
     <g transform="translate(267.1545 74.81045) scale(0.08 -0.08)">
      <defs>
       <path id="DejaVuSans-36" d="M 2113 2584 
Q 1688 2584 1439 2293 
Q 1191 2003 1191 1497 
Q 1191 994 1439 701 
Q 1688 409 2113 409 
Q 2538 409 2786 701 
Q 3034 994 3034 1497 
Q 3034 2003 2786 2293 
Q 2538 2584 2113 2584 
z
M 3366 4563 
L 3366 3988 
Q 3128 4100 2886 4159 
Q 2644 4219 2406 4219 
Q 1781 4219 1451 3797 
Q 1122 3375 1075 2522 
Q 1259 2794 1537 2939 
Q 1816 3084 2150 3084 
Q 2853 3084 3261 2657 
Q 3669 2231 3669 1497 
Q 3669 778 3244 343 
Q 2819 -91 2113 -91 
Q 1303 -91 875 529 
Q 447 1150 447 2328 
Q 447 3434 972 4092 
Q 1497 4750 2381 4750 
Q 2619 4750 2861 4703 
Q 3103 4656 3366 4563 
z
" transform="scale(0.015625)"/>
       <path id="DejaVuSans-Oblique-74" d="M 2706 3500 
L 2619 3053 
L 1472 3053 
L 1100 1153 
Q 1081 1047 1072 975 
Q 1063 903 1063 863 
Q 1063 663 1183 572 
Q 1303 481 1569 481 
L 2150 481 
L 2053 0 
L 1503 0 
Q 991 0 739 200 
Q 488 400 488 806 
Q 488 878 497 964 
Q 506 1050 525 1153 
L 897 3053 
L 409 3053 
L 500 3500 
L 978 3500 
L 1172 4494 
L 1747 4494 
L 1556 3500 
L 2706 3500 
z
" transform="scale(0.015625)"/>
       <path id="DejaVuSans-Oblique-68" d="M 3566 2113 
L 3156 0 
L 2578 0 
L 2988 2091 
Q 3016 2238 3031 2350 
Q 3047 2463 3047 2528 
Q 3047 2791 2881 2937 
Q 2716 3084 2419 3084 
Q 1956 3084 1617 2771 
Q 1278 2459 1178 1941 
L 800 0 
L 225 0 
L 1172 4863 
L 1747 4863 
L 1375 2950 
Q 1594 3244 1934 3414 
Q 2275 3584 2650 3584 
Q 3113 3584 3367 3334 
Q 3622 3084 3622 2631 
Q 3622 2519 3608 2391 
Q 3594 2263 3566 2113 
z
" transform="scale(0.015625)"/>
       <path id="DejaVuSans-38" d="M 2034 2216 
Q 1584 2216 1326 1975 
Q 1069 1734 1069 1313 
Q 1069 891 1326 650 
Q 1584 409 2034 409 
Q 2484 409 2743 651 
Q 3003 894 3003 1313 
Q 3003 1734 2745 1975 
Q 2488 2216 2034 2216 
z
M 1403 2484 
Q 997 2584 770 2862 
Q 544 3141 544 3541 
Q 544 4100 942 4425 
Q 1341 4750 2034 4750 
Q 2731 4750 3128 4425 
Q 3525 4100 3525 3541 
Q 3525 3141 3298 2862 
Q 3072 2584 2669 2484 
Q 3125 2378 3379 2068 
Q 3634 1759 3634 1313 
Q 3634 634 3220 271 
Q 2806 -91 2034 -91 
Q 1263 -91 848 271 
Q 434 634 434 1313 
Q 434 1759 690 2068 
Q 947 2378 1403 2484 
z
M 1172 3481 
Q 1172 3119 1398 2916 
Q 1625 2713 2034 2713 
Q 2441 2713 2670 2916 
Q 2900 3119 2900 3481 
Q 2900 3844 2670 4047 
Q 2441 4250 2034 4250 
Q 1625 4250 1398 4047 
Q 1172 3844 1172 3481 
z
" transform="scale(0.015625)"/>
       <path id="DejaVuSans-34" d="M 2419 4116 
L 825 1625 
L 2419 1625 
L 2419 4116 
z
M 2253 4666 
L 3047 4666 
L 3047 1625 
L 3713 1625 
L 3713 1100 
L 3047 1100 
L 3047 0 
L 2419 0 
L 2419 1100 
L 313 1100 
L 313 1709 
L 2253 4666 
z
" transform="scale(0.015625)"/>
      </defs>
      <use xlink:href="#DejaVuSans-47" transform="translate(0 0.529687)"/>
      <use xlink:href="#DejaVuSans-43" transform="translate(77.490234 0.529687)"/>
      <use xlink:href="#DejaVuSans-49" transform="translate(147.314453 0.529687)"/>
      <use xlink:href="#DejaVuSans-4d" transform="translate(176.806641 0.529687)"/>
      <use xlink:href="#DejaVuSans-20" transform="translate(263.085938 0.529687)"/>
      <use xlink:href="#DejaVuSans-31" transform="translate(294.873047 0.529687)"/>
      <use xlink:href="#DejaVuSans-36" transform="translate(358.496094 0.529687)"/>
      <use xlink:href="#DejaVuSans-Oblique-74" transform="translate(423.076172 38.810937) scale(0.7)"/>
      <use xlink:href="#DejaVuSans-Oblique-68" transform="translate(450.522461 38.810937) scale(0.7)"/>
      <use xlink:href="#DejaVuSans-20" transform="translate(497.62207 0.529687)"/>
      <use xlink:href="#DejaVuSans-61" transform="translate(529.40918 0.529687)"/>
      <use xlink:href="#DejaVuSans-6e" transform="translate(590.688477 0.529687)"/>
      <use xlink:href="#DejaVuSans-64" transform="translate(654.067383 0.529687)"/>
      <use xlink:href="#DejaVuSans-20" transform="translate(717.543945 0.529687)"/>
      <use xlink:href="#DejaVuSans-38" transform="translate(749.331055 0.529687)"/>
      <use xlink:href="#DejaVuSans-34" transform="translate(812.954102 0.529687)"/>
      <use xlink:href="#DejaVuSans-Oblique-74" transform="translate(877.53418 38.810937) scale(0.7)"/>
      <use xlink:href="#DejaVuSans-Oblique-68" transform="translate(904.980469 38.810937) scale(0.7)"/>
      <use xlink:href="#DejaVuSans-20" transform="translate(952.080078 0.529687)"/>
      <use xlink:href="#DejaVuSans-70" transform="translate(983.867188 0.529687)"/>
      <use xlink:href="#DejaVuSans-65" transform="translate(1047.34375 0.529687)"/>
      <use xlink:href="#DejaVuSans-72" transform="translate(1108.867188 0.529687)"/>
      <use xlink:href="#DejaVuSans-63" transform="translate(1149.980469 0.529687)"/>
      <use xlink:href="#DejaVuSans-65" transform="translate(1204.960938 0.529687)"/>
      <use xlink:href="#DejaVuSans-6e" transform="translate(1266.484375 0.529687)"/>
      <use xlink:href="#DejaVuSans-74" transform="translate(1329.863281 0.529687)"/>
      <use xlink:href="#DejaVuSans-69" transform="translate(1369.072266 0.529687)"/>
      <use xlink:href="#DejaVuSans-6c" transform="translate(1396.855469 0.529687)"/>
      <use xlink:href="#DejaVuSans-65" transform="translate(1424.638672 0.529687)"/>
      <use xlink:href="#DejaVuSans-73" transform="translate(1486.162109 0.529687)"/>
     </g>
    </g>
    <g id="line2d_114">
     <path d="M 244.7545 83.7692 
L 252.7545 83.7692 
L 260.7545 83.7692 
" style="fill: none; stroke: #0000ff; stroke-width: 2; stroke-linecap: square"/>
    </g>
    <g id="text_9">
     <!-- Selected GMs median -->
     <g transform="translate(267.1545 86.5692) scale(0.08 -0.08)">
      <use xlink:href="#DejaVuSans-53"/>
      <use xlink:href="#DejaVuSans-65" x="63.476562"/>
      <use xlink:href="#DejaVuSans-6c" x="125"/>
      <use xlink:href="#DejaVuSans-65" x="152.783203"/>
      <use xlink:href="#DejaVuSans-63" x="214.306641"/>
      <use xlink:href="#DejaVuSans-74" x="269.287109"/>
      <use xlink:href="#DejaVuSans-65" x="308.496094"/>
      <use xlink:href="#DejaVuSans-64" x="370.019531"/>
      <use xlink:href="#DejaVuSans-20" x="433.496094"/>
      <use xlink:href="#DejaVuSans-47" x="465.283203"/>
      <use xlink:href="#DejaVuSans-4d" x="542.773438"/>
      <use xlink:href="#DejaVuSans-73" x="629.052734"/>
      <use xlink:href="#DejaVuSans-20" x="681.152344"/>
      <use xlink:href="#DejaVuSans-6d" x="712.939453"/>
      <use xlink:href="#DejaVuSans-65" x="810.351562"/>
      <use xlink:href="#DejaVuSans-64" x="871.875"/>
      <use xlink:href="#DejaVuSans-69" x="935.351562"/>
      <use xlink:href="#DejaVuSans-61" x="963.134766"/>
      <use xlink:href="#DejaVuSans-6e" x="1024.414062"/>
     </g>
    </g>
    <g id="line2d_115">
     <path d="M 244.7545 96.79295 
L 252.7545 96.79295 
L 260.7545 96.79295 
" style="fill: none; stroke-dasharray: 7.4,3.2; stroke-dashoffset: 0; stroke: #0000ff; stroke-width: 2"/>
    </g>
    <g id="text_10">
     <!-- Selected GMs, $16^{th}$ and $84^{th}$ percentiles -->
     <g transform="translate(267.1545 99.59295) scale(0.08 -0.08)">
      <use xlink:href="#DejaVuSans-53" transform="translate(0 0.529687)"/>
      <use xlink:href="#DejaVuSans-65" transform="translate(63.476562 0.529687)"/>
      <use xlink:href="#DejaVuSans-6c" transform="translate(125 0.529687)"/>
      <use xlink:href="#DejaVuSans-65" transform="translate(152.783203 0.529687)"/>
      <use xlink:href="#DejaVuSans-63" transform="translate(214.306641 0.529687)"/>
      <use xlink:href="#DejaVuSans-74" transform="translate(269.287109 0.529687)"/>
      <use xlink:href="#DejaVuSans-65" transform="translate(308.496094 0.529687)"/>
      <use xlink:href="#DejaVuSans-64" transform="translate(370.019531 0.529687)"/>
      <use xlink:href="#DejaVuSans-20" transform="translate(433.496094 0.529687)"/>
      <use xlink:href="#DejaVuSans-47" transform="translate(465.283203 0.529687)"/>
      <use xlink:href="#DejaVuSans-4d" transform="translate(542.773438 0.529687)"/>
      <use xlink:href="#DejaVuSans-73" transform="translate(629.052734 0.529687)"/>
      <use xlink:href="#DejaVuSans-2c" transform="translate(681.152344 0.529687)"/>
      <use xlink:href="#DejaVuSans-20" transform="translate(712.939453 0.529687)"/>
      <use xlink:href="#DejaVuSans-31" transform="translate(744.726562 0.529687)"/>
      <use xlink:href="#DejaVuSans-36" transform="translate(808.349609 0.529687)"/>
      <use xlink:href="#DejaVuSans-Oblique-74" transform="translate(872.929688 38.810937) scale(0.7)"/>
      <use xlink:href="#DejaVuSans-Oblique-68" transform="translate(900.375977 38.810937) scale(0.7)"/>
      <use xlink:href="#DejaVuSans-20" transform="translate(947.475586 0.529687)"/>
      <use xlink:href="#DejaVuSans-61" transform="translate(979.262695 0.529687)"/>
      <use xlink:href="#DejaVuSans-6e" transform="translate(1040.541992 0.529687)"/>
      <use xlink:href="#DejaVuSans-64" transform="translate(1103.920898 0.529687)"/>
      <use xlink:href="#DejaVuSans-20" transform="translate(1167.397461 0.529687)"/>
      <use xlink:href="#DejaVuSans-38" transform="translate(1199.18457 0.529687)"/>
      <use xlink:href="#DejaVuSans-34" transform="translate(1262.807617 0.529687)"/>
      <use xlink:href="#DejaVuSans-Oblique-74" transform="translate(1327.387695 38.810937) scale(0.7)"/>
      <use xlink:href="#DejaVuSans-Oblique-68" transform="translate(1354.833984 38.810937) scale(0.7)"/>
      <use xlink:href="#DejaVuSans-20" transform="translate(1401.933594 0.529687)"/>
      <use xlink:href="#DejaVuSans-70" transform="translate(1433.720703 0.529687)"/>
      <use xlink:href="#DejaVuSans-65" transform="translate(1497.197266 0.529687)"/>
      <use xlink:href="#DejaVuSans-72" transform="translate(1558.720703 0.529687)"/>
      <use xlink:href="#DejaVuSans-63" transform="translate(1599.833984 0.529687)"/>
      <use xlink:href="#DejaVuSans-65" transform="translate(1654.814453 0.529687)"/>
      <use xlink:href="#DejaVuSans-6e" transform="translate(1716.337891 0.529687)"/>
      <use xlink:href="#DejaVuSans-74" transform="translate(1779.716797 0.529687)"/>
      <use xlink:href="#DejaVuSans-69" transform="translate(1818.925781 0.529687)"/>
      <use xlink:href="#DejaVuSans-6c" transform="translate(1846.708984 0.529687)"/>
      <use xlink:href="#DejaVuSans-65" transform="translate(1874.492188 0.529687)"/>
      <use xlink:href="#DejaVuSans-73" transform="translate(1936.015625 0.529687)"/>
     </g>
    </g>
   </g>
  </g>
 </g>
 <defs>
  <clipPath id="p14da6a9187">
   <rect x="40.0225" y="7.2" width="197.532" height="130.8384"/>
  </clipPath>
 </defs>
</svg>
