<?xml version="1.0" encoding="utf-8" standalone="no"?>
<!DOCTYPE svg PUBLIC "-//W3C//DTD SVG 1.1//EN"
  "http://www.w3.org/Graphics/SVG/1.1/DTD/svg11.dtd">
<svg xmlns:xlink="http://www.w3.org/1999/xlink" width="441.3945pt" height="171.7234pt" viewBox="0 0 441.3945 171.7234" xmlns="http://www.w3.org/2000/svg" version="1.1">
 <metadata>
  <rdf:RDF xmlns:dc="http://purl.org/dc/elements/1.1/" xmlns:cc="http://creativecommons.org/ns#" xmlns:rdf="http://www.w3.org/1999/02/22-rdf-syntax-ns#">
   <cc:Work>
    <dc:type rdf:resource="http://purl.org/dc/dcmitype/StillImage"/>
    <dc:date>2024-11-11T18:45:55.583158</dc:date>
    <dc:format>image/svg+xml</dc:format>
    <dc:creator>
     <cc:Agent>
      <dc:title>Matplotlib v3.8.2, https://matplotlib.org/</dc:title>
     </cc:Agent>
    </dc:creator>
   </cc:Work>
  </rdf:RDF>
 </metadata>
 <defs>
  <style type="text/css">*{stroke-linejoin: round; stroke-linecap: butt}</style>
 </defs>
 <g id="figure_1">
  <g id="patch_1">
   <path d="M 0 171.7234 
L 441.3945 171.7234 
L 441.3945 0 
L 0 0 
z
" style="fill: #ffffff"/>
  </g>
  <g id="axes_1">
   <g id="patch_2">
    <path d="M 44.7425 138.0384 
L 242.2745 138.0384 
L 242.2745 7.2 
L 44.7425 7.2 
z
" style="fill: #ffffff"/>
   </g>
   <g id="matplotlib.axis_1">
    <g id="xtick_1">
     <g id="line2d_1">
      <path d="M 53.721227 138.0384 
L 53.721227 7.2 
" clip-path="url(#pca3b5475a3)" style="fill: none; stroke: #d9d9d9; stroke-width: 0.8; stroke-linecap: square"/>
     </g>
     <g id="line2d_2">
      <defs>
       <path id="m3b2beef59e" d="M 0 0 
L 0 3.5 
" style="stroke: #000000; stroke-width: 0.8"/>
      </defs>
      <g>
       <use xlink:href="#m3b2beef59e" x="53.721227" y="138.0384" style="stroke: #000000; stroke-width: 0.8"/>
      </g>
     </g>
     <g id="text_1">
      <!-- $\mathdefault{10^{-1}}$ -->
      <g transform="translate(44.321227 151.11715) scale(0.08 -0.08)">
       <defs>
        <path id="DejaVuSans-31" d="M 794 531 
L 1825 531 
L 1825 4091 
L 703 3866 
L 703 4441 
L 1819 4666 
L 2450 4666 
L 2450 531 
L 3481 531 
L 3481 0 
L 794 0 
L 794 531 
z
" transform="scale(0.015625)"/>
        <path id="DejaVuSans-30" d="M 2034 4250 
Q 1547 4250 1301 3770 
Q 1056 3291 1056 2328 
Q 1056 1369 1301 889 
Q 1547 409 2034 409 
Q 2525 409 2770 889 
Q 3016 1369 3016 2328 
Q 3016 3291 2770 3770 
Q 2525 4250 2034 4250 
z
M 2034 4750 
Q 2819 4750 3233 4129 
Q 3647 3509 3647 2328 
Q 3647 1150 3233 529 
Q 2819 -91 2034 -91 
Q 1250 -91 836 529 
Q 422 1150 422 2328 
Q 422 3509 836 4129 
Q 1250 4750 2034 4750 
z
" transform="scale(0.015625)"/>
        <path id="DejaVuSans-2212" d="M 678 2272 
L 4684 2272 
L 4684 1741 
L 678 1741 
L 678 2272 
z
" transform="scale(0.015625)"/>
       </defs>
       <use xlink:href="#DejaVuSans-31" transform="translate(0 0.684375)"/>
       <use xlink:href="#DejaVuSans-30" transform="translate(63.623047 0.684375)"/>
       <use xlink:href="#DejaVuSans-2212" transform="translate(128.203125 38.965625) scale(0.7)"/>
       <use xlink:href="#DejaVuSans-31" transform="translate(186.855469 38.965625) scale(0.7)"/>
      </g>
     </g>
    </g>
    <g id="xtick_2">
     <g id="line2d_3">
      <path d="M 165.811003 138.0384 
L 165.811003 7.2 
" clip-path="url(#pca3b5475a3)" style="fill: none; stroke: #d9d9d9; stroke-width: 0.8; stroke-linecap: square"/>
     </g>
     <g id="line2d_4">
      <g>
       <use xlink:href="#m3b2beef59e" x="165.811003" y="138.0384" style="stroke: #000000; stroke-width: 0.8"/>
      </g>
     </g>
     <g id="text_2">
      <!-- $\mathdefault{10^{0}}$ -->
      <g transform="translate(158.771003 151.11715) scale(0.08 -0.08)">
       <use xlink:href="#DejaVuSans-31" transform="translate(0 0.765625)"/>
       <use xlink:href="#DejaVuSans-30" transform="translate(63.623047 0.765625)"/>
       <use xlink:href="#DejaVuSans-30" transform="translate(128.203125 39.046875) scale(0.7)"/>
      </g>
     </g>
    </g>
    <g id="xtick_3">
     <g id="line2d_5">
      <path d="M 48.59228 138.0384 
L 48.59228 7.2 
" clip-path="url(#pca3b5475a3)" style="fill: none; stroke-dasharray: 2.96,1.28; stroke-dashoffset: 0; stroke: #f2f2f2; stroke-width: 0.8"/>
     </g>
     <g id="line2d_6">
      <defs>
       <path id="me19788b7b9" d="M 0 0 
L 0 2 
" style="stroke: #000000; stroke-width: 0.6"/>
      </defs>
      <g>
       <use xlink:href="#me19788b7b9" x="48.59228" y="138.0384" style="stroke: #000000; stroke-width: 0.6"/>
      </g>
     </g>
    </g>
    <g id="xtick_4">
     <g id="line2d_7">
      <path d="M 87.463612 138.0384 
L 87.463612 7.2 
" clip-path="url(#pca3b5475a3)" style="fill: none; stroke-dasharray: 2.96,1.28; stroke-dashoffset: 0; stroke: #f2f2f2; stroke-width: 0.8"/>
     </g>
     <g id="line2d_8">
      <g>
       <use xlink:href="#me19788b7b9" x="87.463612" y="138.0384" style="stroke: #000000; stroke-width: 0.6"/>
      </g>
     </g>
    </g>
    <g id="xtick_5">
     <g id="line2d_9">
      <path d="M 107.201642 138.0384 
L 107.201642 7.2 
" clip-path="url(#pca3b5475a3)" style="fill: none; stroke-dasharray: 2.96,1.28; stroke-dashoffset: 0; stroke: #f2f2f2; stroke-width: 0.8"/>
     </g>
     <g id="line2d_10">
      <g>
       <use xlink:href="#me19788b7b9" x="107.201642" y="138.0384" style="stroke: #000000; stroke-width: 0.6"/>
      </g>
     </g>
    </g>
    <g id="xtick_6">
     <g id="line2d_11">
      <path d="M 121.205997 138.0384 
L 121.205997 7.2 
" clip-path="url(#pca3b5475a3)" style="fill: none; stroke-dasharray: 2.96,1.28; stroke-dashoffset: 0; stroke: #f2f2f2; stroke-width: 0.8"/>
     </g>
     <g id="line2d_12">
      <g>
       <use xlink:href="#me19788b7b9" x="121.205997" y="138.0384" style="stroke: #000000; stroke-width: 0.6"/>
      </g>
     </g>
    </g>
    <g id="xtick_7">
     <g id="line2d_13">
      <path d="M 132.068618 138.0384 
L 132.068618 7.2 
" clip-path="url(#pca3b5475a3)" style="fill: none; stroke-dasharray: 2.96,1.28; stroke-dashoffset: 0; stroke: #f2f2f2; stroke-width: 0.8"/>
     </g>
     <g id="line2d_14">
      <g>
       <use xlink:href="#me19788b7b9" x="132.068618" y="138.0384" style="stroke: #000000; stroke-width: 0.6"/>
      </g>
     </g>
    </g>
    <g id="xtick_8">
     <g id="line2d_15">
      <path d="M 140.944027 138.0384 
L 140.944027 7.2 
" clip-path="url(#pca3b5475a3)" style="fill: none; stroke-dasharray: 2.96,1.28; stroke-dashoffset: 0; stroke: #f2f2f2; stroke-width: 0.8"/>
     </g>
     <g id="line2d_16">
      <g>
       <use xlink:href="#me19788b7b9" x="140.944027" y="138.0384" style="stroke: #000000; stroke-width: 0.6"/>
      </g>
     </g>
    </g>
    <g id="xtick_9">
     <g id="line2d_17">
      <path d="M 148.448077 138.0384 
L 148.448077 7.2 
" clip-path="url(#pca3b5475a3)" style="fill: none; stroke-dasharray: 2.96,1.28; stroke-dashoffset: 0; stroke: #f2f2f2; stroke-width: 0.8"/>
     </g>
     <g id="line2d_18">
      <g>
       <use xlink:href="#me19788b7b9" x="148.448077" y="138.0384" style="stroke: #000000; stroke-width: 0.6"/>
      </g>
     </g>
    </g>
    <g id="xtick_10">
     <g id="line2d_19">
      <path d="M 154.948382 138.0384 
L 154.948382 7.2 
" clip-path="url(#pca3b5475a3)" style="fill: none; stroke-dasharray: 2.96,1.28; stroke-dashoffset: 0; stroke: #f2f2f2; stroke-width: 0.8"/>
     </g>
     <g id="line2d_20">
      <g>
       <use xlink:href="#me19788b7b9" x="154.948382" y="138.0384" style="stroke: #000000; stroke-width: 0.6"/>
      </g>
     </g>
    </g>
    <g id="xtick_11">
     <g id="line2d_21">
      <path d="M 160.682056 138.0384 
L 160.682056 7.2 
" clip-path="url(#pca3b5475a3)" style="fill: none; stroke-dasharray: 2.96,1.28; stroke-dashoffset: 0; stroke: #f2f2f2; stroke-width: 0.8"/>
     </g>
     <g id="line2d_22">
      <g>
       <use xlink:href="#me19788b7b9" x="160.682056" y="138.0384" style="stroke: #000000; stroke-width: 0.6"/>
      </g>
     </g>
    </g>
    <g id="xtick_12">
     <g id="line2d_23">
      <path d="M 199.553388 138.0384 
L 199.553388 7.2 
" clip-path="url(#pca3b5475a3)" style="fill: none; stroke-dasharray: 2.96,1.28; stroke-dashoffset: 0; stroke: #f2f2f2; stroke-width: 0.8"/>
     </g>
     <g id="line2d_24">
      <g>
       <use xlink:href="#me19788b7b9" x="199.553388" y="138.0384" style="stroke: #000000; stroke-width: 0.6"/>
      </g>
     </g>
    </g>
    <g id="xtick_13">
     <g id="line2d_25">
      <path d="M 219.291418 138.0384 
L 219.291418 7.2 
" clip-path="url(#pca3b5475a3)" style="fill: none; stroke-dasharray: 2.96,1.28; stroke-dashoffset: 0; stroke: #f2f2f2; stroke-width: 0.8"/>
     </g>
     <g id="line2d_26">
      <g>
       <use xlink:href="#me19788b7b9" x="219.291418" y="138.0384" style="stroke: #000000; stroke-width: 0.6"/>
      </g>
     </g>
    </g>
    <g id="xtick_14">
     <g id="line2d_27">
      <path d="M 233.295773 138.0384 
L 233.295773 7.2 
" clip-path="url(#pca3b5475a3)" style="fill: none; stroke-dasharray: 2.96,1.28; stroke-dashoffset: 0; stroke: #f2f2f2; stroke-width: 0.8"/>
     </g>
     <g id="line2d_28">
      <g>
       <use xlink:href="#me19788b7b9" x="233.295773" y="138.0384" style="stroke: #000000; stroke-width: 0.6"/>
      </g>
     </g>
    </g>
    <g id="text_3">
     <!-- Period, T (s) -->
     <g transform="translate(119.576 162.85965) scale(0.08 -0.08)">
      <defs>
       <path id="DejaVuSans-50" d="M 1259 4147 
L 1259 2394 
L 2053 2394 
Q 2494 2394 2734 2622 
Q 2975 2850 2975 3272 
Q 2975 3691 2734 3919 
Q 2494 4147 2053 4147 
L 1259 4147 
z
M 628 4666 
L 2053 4666 
Q 2838 4666 3239 4311 
Q 3641 3956 3641 3272 
Q 3641 2581 3239 2228 
Q 2838 1875 2053 1875 
L 1259 1875 
L 1259 0 
L 628 0 
L 628 4666 
z
" transform="scale(0.015625)"/>
       <path id="DejaVuSans-65" d="M 3597 1894 
L 3597 1613 
L 953 1613 
Q 991 1019 1311 708 
Q 1631 397 2203 397 
Q 2534 397 2845 478 
Q 3156 559 3463 722 
L 3463 178 
Q 3153 47 2828 -22 
Q 2503 -91 2169 -91 
Q 1331 -91 842 396 
Q 353 884 353 1716 
Q 353 2575 817 3079 
Q 1281 3584 2069 3584 
Q 2775 3584 3186 3129 
Q 3597 2675 3597 1894 
z
M 3022 2063 
Q 3016 2534 2758 2815 
Q 2500 3097 2075 3097 
Q 1594 3097 1305 2825 
Q 1016 2553 972 2059 
L 3022 2063 
z
" transform="scale(0.015625)"/>
       <path id="DejaVuSans-72" d="M 2631 2963 
Q 2534 3019 2420 3045 
Q 2306 3072 2169 3072 
Q 1681 3072 1420 2755 
Q 1159 2438 1159 1844 
L 1159 0 
L 581 0 
L 581 3500 
L 1159 3500 
L 1159 2956 
Q 1341 3275 1631 3429 
Q 1922 3584 2338 3584 
Q 2397 3584 2469 3576 
Q 2541 3569 2628 3553 
L 2631 2963 
z
" transform="scale(0.015625)"/>
       <path id="DejaVuSans-69" d="M 603 3500 
L 1178 3500 
L 1178 0 
L 603 0 
L 603 3500 
z
M 603 4863 
L 1178 4863 
L 1178 4134 
L 603 4134 
L 603 4863 
z
" transform="scale(0.015625)"/>
       <path id="DejaVuSans-6f" d="M 1959 3097 
Q 1497 3097 1228 2736 
Q 959 2375 959 1747 
Q 959 1119 1226 758 
Q 1494 397 1959 397 
Q 2419 397 2687 759 
Q 2956 1122 2956 1747 
Q 2956 2369 2687 2733 
Q 2419 3097 1959 3097 
z
M 1959 3584 
Q 2709 3584 3137 3096 
Q 3566 2609 3566 1747 
Q 3566 888 3137 398 
Q 2709 -91 1959 -91 
Q 1206 -91 779 398 
Q 353 888 353 1747 
Q 353 2609 779 3096 
Q 1206 3584 1959 3584 
z
" transform="scale(0.015625)"/>
       <path id="DejaVuSans-64" d="M 2906 2969 
L 2906 4863 
L 3481 4863 
L 3481 0 
L 2906 0 
L 2906 525 
Q 2725 213 2448 61 
Q 2172 -91 1784 -91 
Q 1150 -91 751 415 
Q 353 922 353 1747 
Q 353 2572 751 3078 
Q 1150 3584 1784 3584 
Q 2172 3584 2448 3432 
Q 2725 3281 2906 2969 
z
M 947 1747 
Q 947 1113 1208 752 
Q 1469 391 1925 391 
Q 2381 391 2643 752 
Q 2906 1113 2906 1747 
Q 2906 2381 2643 2742 
Q 2381 3103 1925 3103 
Q 1469 3103 1208 2742 
Q 947 2381 947 1747 
z
" transform="scale(0.015625)"/>
       <path id="DejaVuSans-2c" d="M 750 794 
L 1409 794 
L 1409 256 
L 897 -744 
L 494 -744 
L 750 256 
L 750 794 
z
" transform="scale(0.015625)"/>
       <path id="DejaVuSans-20" transform="scale(0.015625)"/>
       <path id="DejaVuSans-54" d="M -19 4666 
L 3928 4666 
L 3928 4134 
L 2272 4134 
L 2272 0 
L 1638 0 
L 1638 4134 
L -19 4134 
L -19 4666 
z
" transform="scale(0.015625)"/>
       <path id="DejaVuSans-28" d="M 1984 4856 
Q 1566 4138 1362 3434 
Q 1159 2731 1159 2009 
Q 1159 1288 1364 580 
Q 1569 -128 1984 -844 
L 1484 -844 
Q 1016 -109 783 600 
Q 550 1309 550 2009 
Q 550 2706 781 3412 
Q 1013 4119 1484 4856 
L 1984 4856 
z
" transform="scale(0.015625)"/>
       <path id="DejaVuSans-73" d="M 2834 3397 
L 2834 2853 
Q 2591 2978 2328 3040 
Q 2066 3103 1784 3103 
Q 1356 3103 1142 2972 
Q 928 2841 928 2578 
Q 928 2378 1081 2264 
Q 1234 2150 1697 2047 
L 1894 2003 
Q 2506 1872 2764 1633 
Q 3022 1394 3022 966 
Q 3022 478 2636 193 
Q 2250 -91 1575 -91 
Q 1294 -91 989 -36 
Q 684 19 347 128 
L 347 722 
Q 666 556 975 473 
Q 1284 391 1588 391 
Q 1994 391 2212 530 
Q 2431 669 2431 922 
Q 2431 1156 2273 1281 
Q 2116 1406 1581 1522 
L 1381 1569 
Q 847 1681 609 1914 
Q 372 2147 372 2553 
Q 372 3047 722 3315 
Q 1072 3584 1716 3584 
Q 2034 3584 2315 3537 
Q 2597 3491 2834 3397 
z
" transform="scale(0.015625)"/>
       <path id="DejaVuSans-29" d="M 513 4856 
L 1013 4856 
Q 1481 4119 1714 3412 
Q 1947 2706 1947 2009 
Q 1947 1309 1714 600 
Q 1481 -109 1013 -844 
L 513 -844 
Q 928 -128 1133 580 
Q 1338 1288 1338 2009 
Q 1338 2731 1133 3434 
Q 928 4138 513 4856 
z
" transform="scale(0.015625)"/>
      </defs>
      <use xlink:href="#DejaVuSans-50"/>
      <use xlink:href="#DejaVuSans-65" x="56.677734"/>
      <use xlink:href="#DejaVuSans-72" x="118.201172"/>
      <use xlink:href="#DejaVuSans-69" x="159.314453"/>
      <use xlink:href="#DejaVuSans-6f" x="187.097656"/>
      <use xlink:href="#DejaVuSans-64" x="248.279297"/>
      <use xlink:href="#DejaVuSans-2c" x="311.755859"/>
      <use xlink:href="#DejaVuSans-20" x="343.542969"/>
      <use xlink:href="#DejaVuSans-54" x="375.330078"/>
      <use xlink:href="#DejaVuSans-20" x="436.414062"/>
      <use xlink:href="#DejaVuSans-28" x="468.201172"/>
      <use xlink:href="#DejaVuSans-73" x="507.214844"/>
      <use xlink:href="#DejaVuSans-29" x="559.314453"/>
     </g>
    </g>
   </g>
   <g id="matplotlib.axis_2">
    <g id="ytick_1">
     <g id="line2d_29">
      <path d="M 44.7425 124.632089 
L 242.2745 124.632089 
" clip-path="url(#pca3b5475a3)" style="fill: none; stroke: #d9d9d9; stroke-width: 0.8; stroke-linecap: square"/>
     </g>
     <g id="line2d_30">
      <defs>
       <path id="mf5be6925c8" d="M 0 0 
L -3.5 0 
" style="stroke: #000000; stroke-width: 0.8"/>
      </defs>
      <g>
       <use xlink:href="#mf5be6925c8" x="44.7425" y="124.632089" style="stroke: #000000; stroke-width: 0.8"/>
      </g>
     </g>
     <g id="text_4">
      <!-- $\mathdefault{10^{-1}}$ -->
      <g transform="translate(18.9425 127.671464) scale(0.08 -0.08)">
       <use xlink:href="#DejaVuSans-31" transform="translate(0 0.684375)"/>
       <use xlink:href="#DejaVuSans-30" transform="translate(63.623047 0.684375)"/>
       <use xlink:href="#DejaVuSans-2212" transform="translate(128.203125 38.965625) scale(0.7)"/>
       <use xlink:href="#DejaVuSans-31" transform="translate(186.855469 38.965625) scale(0.7)"/>
      </g>
     </g>
    </g>
    <g id="ytick_2">
     <g id="line2d_31">
      <path d="M 44.7425 58.161742 
L 242.2745 58.161742 
" clip-path="url(#pca3b5475a3)" style="fill: none; stroke: #d9d9d9; stroke-width: 0.8; stroke-linecap: square"/>
     </g>
     <g id="line2d_32">
      <g>
       <use xlink:href="#mf5be6925c8" x="44.7425" y="58.161742" style="stroke: #000000; stroke-width: 0.8"/>
      </g>
     </g>
     <g id="text_5">
      <!-- $\mathdefault{10^{0}}$ -->
      <g transform="translate(23.6625 61.201117) scale(0.08 -0.08)">
       <use xlink:href="#DejaVuSans-31" transform="translate(0 0.765625)"/>
       <use xlink:href="#DejaVuSans-30" transform="translate(63.623047 0.765625)"/>
       <use xlink:href="#DejaVuSans-30" transform="translate(128.203125 39.046875) scale(0.7)"/>
      </g>
     </g>
    </g>
    <g id="ytick_3">
     <g id="line2d_33">
      <path d="M 44.7425 134.928477 
L 242.2745 134.928477 
" clip-path="url(#pca3b5475a3)" style="fill: none; stroke-dasharray: 2.96,1.28; stroke-dashoffset: 0; stroke: #f2f2f2; stroke-width: 0.8"/>
     </g>
     <g id="line2d_34">
      <defs>
       <path id="m360fe4f874" d="M 0 0 
L -2 0 
" style="stroke: #000000; stroke-width: 0.6"/>
      </defs>
      <g>
       <use xlink:href="#m360fe4f874" x="44.7425" y="134.928477" style="stroke: #000000; stroke-width: 0.6"/>
      </g>
     </g>
    </g>
    <g id="ytick_4">
     <g id="line2d_35">
      <path d="M 44.7425 131.073732 
L 242.2745 131.073732 
" clip-path="url(#pca3b5475a3)" style="fill: none; stroke-dasharray: 2.96,1.28; stroke-dashoffset: 0; stroke: #f2f2f2; stroke-width: 0.8"/>
     </g>
     <g id="line2d_36">
      <g>
       <use xlink:href="#m360fe4f874" x="44.7425" y="131.073732" style="stroke: #000000; stroke-width: 0.6"/>
      </g>
     </g>
    </g>
    <g id="ytick_5">
     <g id="line2d_37">
      <path d="M 44.7425 127.673606 
L 242.2745 127.673606 
" clip-path="url(#pca3b5475a3)" style="fill: none; stroke-dasharray: 2.96,1.28; stroke-dashoffset: 0; stroke: #f2f2f2; stroke-width: 0.8"/>
     </g>
     <g id="line2d_38">
      <g>
       <use xlink:href="#m360fe4f874" x="44.7425" y="127.673606" style="stroke: #000000; stroke-width: 0.6"/>
      </g>
     </g>
    </g>
    <g id="ytick_6">
     <g id="line2d_39">
      <path d="M 44.7425 104.622521 
L 242.2745 104.622521 
" clip-path="url(#pca3b5475a3)" style="fill: none; stroke-dasharray: 2.96,1.28; stroke-dashoffset: 0; stroke: #f2f2f2; stroke-width: 0.8"/>
     </g>
     <g id="line2d_40">
      <g>
       <use xlink:href="#m360fe4f874" x="44.7425" y="104.622521" style="stroke: #000000; stroke-width: 0.6"/>
      </g>
     </g>
    </g>
    <g id="ytick_7">
     <g id="line2d_41">
      <path d="M 44.7425 92.917674 
L 242.2745 92.917674 
" clip-path="url(#pca3b5475a3)" style="fill: none; stroke-dasharray: 2.96,1.28; stroke-dashoffset: 0; stroke: #f2f2f2; stroke-width: 0.8"/>
     </g>
     <g id="line2d_42">
      <g>
       <use xlink:href="#m360fe4f874" x="44.7425" y="92.917674" style="stroke: #000000; stroke-width: 0.6"/>
      </g>
     </g>
    </g>
    <g id="ytick_8">
     <g id="line2d_43">
      <path d="M 44.7425 84.612953 
L 242.2745 84.612953 
" clip-path="url(#pca3b5475a3)" style="fill: none; stroke-dasharray: 2.96,1.28; stroke-dashoffset: 0; stroke: #f2f2f2; stroke-width: 0.8"/>
     </g>
     <g id="line2d_44">
      <g>
       <use xlink:href="#m360fe4f874" x="44.7425" y="84.612953" style="stroke: #000000; stroke-width: 0.6"/>
      </g>
     </g>
    </g>
    <g id="ytick_9">
     <g id="line2d_45">
      <path d="M 44.7425 78.17131 
L 242.2745 78.17131 
" clip-path="url(#pca3b5475a3)" style="fill: none; stroke-dasharray: 2.96,1.28; stroke-dashoffset: 0; stroke: #f2f2f2; stroke-width: 0.8"/>
     </g>
     <g id="line2d_46">
      <g>
       <use xlink:href="#m360fe4f874" x="44.7425" y="78.17131" style="stroke: #000000; stroke-width: 0.6"/>
      </g>
     </g>
    </g>
    <g id="ytick_10">
     <g id="line2d_47">
      <path d="M 44.7425 72.908106 
L 242.2745 72.908106 
" clip-path="url(#pca3b5475a3)" style="fill: none; stroke-dasharray: 2.96,1.28; stroke-dashoffset: 0; stroke: #f2f2f2; stroke-width: 0.8"/>
     </g>
     <g id="line2d_48">
      <g>
       <use xlink:href="#m360fe4f874" x="44.7425" y="72.908106" style="stroke: #000000; stroke-width: 0.6"/>
      </g>
     </g>
    </g>
    <g id="ytick_11">
     <g id="line2d_49">
      <path d="M 44.7425 68.458129 
L 242.2745 68.458129 
" clip-path="url(#pca3b5475a3)" style="fill: none; stroke-dasharray: 2.96,1.28; stroke-dashoffset: 0; stroke: #f2f2f2; stroke-width: 0.8"/>
     </g>
     <g id="line2d_50">
      <g>
       <use xlink:href="#m360fe4f874" x="44.7425" y="68.458129" style="stroke: #000000; stroke-width: 0.6"/>
      </g>
     </g>
    </g>
    <g id="ytick_12">
     <g id="line2d_51">
      <path d="M 44.7425 64.603384 
L 242.2745 64.603384 
" clip-path="url(#pca3b5475a3)" style="fill: none; stroke-dasharray: 2.96,1.28; stroke-dashoffset: 0; stroke: #f2f2f2; stroke-width: 0.8"/>
     </g>
     <g id="line2d_52">
      <g>
       <use xlink:href="#m360fe4f874" x="44.7425" y="64.603384" style="stroke: #000000; stroke-width: 0.6"/>
      </g>
     </g>
    </g>
    <g id="ytick_13">
     <g id="line2d_53">
      <path d="M 44.7425 61.203258 
L 242.2745 61.203258 
" clip-path="url(#pca3b5475a3)" style="fill: none; stroke-dasharray: 2.96,1.28; stroke-dashoffset: 0; stroke: #f2f2f2; stroke-width: 0.8"/>
     </g>
     <g id="line2d_54">
      <g>
       <use xlink:href="#m360fe4f874" x="44.7425" y="61.203258" style="stroke: #000000; stroke-width: 0.6"/>
      </g>
     </g>
    </g>
    <g id="ytick_14">
     <g id="line2d_55">
      <path d="M 44.7425 38.152174 
L 242.2745 38.152174 
" clip-path="url(#pca3b5475a3)" style="fill: none; stroke-dasharray: 2.96,1.28; stroke-dashoffset: 0; stroke: #f2f2f2; stroke-width: 0.8"/>
     </g>
     <g id="line2d_56">
      <g>
       <use xlink:href="#m360fe4f874" x="44.7425" y="38.152174" style="stroke: #000000; stroke-width: 0.6"/>
      </g>
     </g>
    </g>
    <g id="ytick_15">
     <g id="line2d_57">
      <path d="M 44.7425 26.447327 
L 242.2745 26.447327 
" clip-path="url(#pca3b5475a3)" style="fill: none; stroke-dasharray: 2.96,1.28; stroke-dashoffset: 0; stroke: #f2f2f2; stroke-width: 0.8"/>
     </g>
     <g id="line2d_58">
      <g>
       <use xlink:href="#m360fe4f874" x="44.7425" y="26.447327" style="stroke: #000000; stroke-width: 0.6"/>
      </g>
     </g>
    </g>
    <g id="ytick_16">
     <g id="line2d_59">
      <path d="M 44.7425 18.142605 
L 242.2745 18.142605 
" clip-path="url(#pca3b5475a3)" style="fill: none; stroke-dasharray: 2.96,1.28; stroke-dashoffset: 0; stroke: #f2f2f2; stroke-width: 0.8"/>
     </g>
     <g id="line2d_60">
      <g>
       <use xlink:href="#m360fe4f874" x="44.7425" y="18.142605" style="stroke: #000000; stroke-width: 0.6"/>
      </g>
     </g>
    </g>
    <g id="ytick_17">
     <g id="line2d_61">
      <path d="M 44.7425 11.700963 
L 242.2745 11.700963 
" clip-path="url(#pca3b5475a3)" style="fill: none; stroke-dasharray: 2.96,1.28; stroke-dashoffset: 0; stroke: #f2f2f2; stroke-width: 0.8"/>
     </g>
     <g id="line2d_62">
      <g>
       <use xlink:href="#m360fe4f874" x="44.7425" y="11.700963" style="stroke: #000000; stroke-width: 0.6"/>
      </g>
     </g>
    </g>
    <g id="text_6">
     <!-- Spectral acceleration, SA (g) -->
     <g transform="translate(13.27875 129.871075) rotate(-90) scale(0.08 -0.08)">
      <defs>
       <path id="DejaVuSans-53" d="M 3425 4513 
L 3425 3897 
Q 3066 4069 2747 4153 
Q 2428 4238 2131 4238 
Q 1616 4238 1336 4038 
Q 1056 3838 1056 3469 
Q 1056 3159 1242 3001 
Q 1428 2844 1947 2747 
L 2328 2669 
Q 3034 2534 3370 2195 
Q 3706 1856 3706 1288 
Q 3706 609 3251 259 
Q 2797 -91 1919 -91 
Q 1588 -91 1214 -16 
Q 841 59 441 206 
L 441 856 
Q 825 641 1194 531 
Q 1563 422 1919 422 
Q 2459 422 2753 634 
Q 3047 847 3047 1241 
Q 3047 1584 2836 1778 
Q 2625 1972 2144 2069 
L 1759 2144 
Q 1053 2284 737 2584 
Q 422 2884 422 3419 
Q 422 4038 858 4394 
Q 1294 4750 2059 4750 
Q 2388 4750 2728 4690 
Q 3069 4631 3425 4513 
z
" transform="scale(0.015625)"/>
       <path id="DejaVuSans-70" d="M 1159 525 
L 1159 -1331 
L 581 -1331 
L 581 3500 
L 1159 3500 
L 1159 2969 
Q 1341 3281 1617 3432 
Q 1894 3584 2278 3584 
Q 2916 3584 3314 3078 
Q 3713 2572 3713 1747 
Q 3713 922 3314 415 
Q 2916 -91 2278 -91 
Q 1894 -91 1617 61 
Q 1341 213 1159 525 
z
M 3116 1747 
Q 3116 2381 2855 2742 
Q 2594 3103 2138 3103 
Q 1681 3103 1420 2742 
Q 1159 2381 1159 1747 
Q 1159 1113 1420 752 
Q 1681 391 2138 391 
Q 2594 391 2855 752 
Q 3116 1113 3116 1747 
z
" transform="scale(0.015625)"/>
       <path id="DejaVuSans-63" d="M 3122 3366 
L 3122 2828 
Q 2878 2963 2633 3030 
Q 2388 3097 2138 3097 
Q 1578 3097 1268 2742 
Q 959 2388 959 1747 
Q 959 1106 1268 751 
Q 1578 397 2138 397 
Q 2388 397 2633 464 
Q 2878 531 3122 666 
L 3122 134 
Q 2881 22 2623 -34 
Q 2366 -91 2075 -91 
Q 1284 -91 818 406 
Q 353 903 353 1747 
Q 353 2603 823 3093 
Q 1294 3584 2113 3584 
Q 2378 3584 2631 3529 
Q 2884 3475 3122 3366 
z
" transform="scale(0.015625)"/>
       <path id="DejaVuSans-74" d="M 1172 4494 
L 1172 3500 
L 2356 3500 
L 2356 3053 
L 1172 3053 
L 1172 1153 
Q 1172 725 1289 603 
Q 1406 481 1766 481 
L 2356 481 
L 2356 0 
L 1766 0 
Q 1100 0 847 248 
Q 594 497 594 1153 
L 594 3053 
L 172 3053 
L 172 3500 
L 594 3500 
L 594 4494 
L 1172 4494 
z
" transform="scale(0.015625)"/>
       <path id="DejaVuSans-61" d="M 2194 1759 
Q 1497 1759 1228 1600 
Q 959 1441 959 1056 
Q 959 750 1161 570 
Q 1363 391 1709 391 
Q 2188 391 2477 730 
Q 2766 1069 2766 1631 
L 2766 1759 
L 2194 1759 
z
M 3341 1997 
L 3341 0 
L 2766 0 
L 2766 531 
Q 2569 213 2275 61 
Q 1981 -91 1556 -91 
Q 1019 -91 701 211 
Q 384 513 384 1019 
Q 384 1609 779 1909 
Q 1175 2209 1959 2209 
L 2766 2209 
L 2766 2266 
Q 2766 2663 2505 2880 
Q 2244 3097 1772 3097 
Q 1472 3097 1187 3025 
Q 903 2953 641 2809 
L 641 3341 
Q 956 3463 1253 3523 
Q 1550 3584 1831 3584 
Q 2591 3584 2966 3190 
Q 3341 2797 3341 1997 
z
" transform="scale(0.015625)"/>
       <path id="DejaVuSans-6c" d="M 603 4863 
L 1178 4863 
L 1178 0 
L 603 0 
L 603 4863 
z
" transform="scale(0.015625)"/>
       <path id="DejaVuSans-6e" d="M 3513 2113 
L 3513 0 
L 2938 0 
L 2938 2094 
Q 2938 2591 2744 2837 
Q 2550 3084 2163 3084 
Q 1697 3084 1428 2787 
Q 1159 2491 1159 1978 
L 1159 0 
L 581 0 
L 581 3500 
L 1159 3500 
L 1159 2956 
Q 1366 3272 1645 3428 
Q 1925 3584 2291 3584 
Q 2894 3584 3203 3211 
Q 3513 2838 3513 2113 
z
" transform="scale(0.015625)"/>
       <path id="DejaVuSans-41" d="M 2188 4044 
L 1331 1722 
L 3047 1722 
L 2188 4044 
z
M 1831 4666 
L 2547 4666 
L 4325 0 
L 3669 0 
L 3244 1197 
L 1141 1197 
L 716 0 
L 50 0 
L 1831 4666 
z
" transform="scale(0.015625)"/>
       <path id="DejaVuSans-67" d="M 2906 1791 
Q 2906 2416 2648 2759 
Q 2391 3103 1925 3103 
Q 1463 3103 1205 2759 
Q 947 2416 947 1791 
Q 947 1169 1205 825 
Q 1463 481 1925 481 
Q 2391 481 2648 825 
Q 2906 1169 2906 1791 
z
M 3481 434 
Q 3481 -459 3084 -895 
Q 2688 -1331 1869 -1331 
Q 1566 -1331 1297 -1286 
Q 1028 -1241 775 -1147 
L 775 -588 
Q 1028 -725 1275 -790 
Q 1522 -856 1778 -856 
Q 2344 -856 2625 -561 
Q 2906 -266 2906 331 
L 2906 616 
Q 2728 306 2450 153 
Q 2172 0 1784 0 
Q 1141 0 747 490 
Q 353 981 353 1791 
Q 353 2603 747 3093 
Q 1141 3584 1784 3584 
Q 2172 3584 2450 3431 
Q 2728 3278 2906 2969 
L 2906 3500 
L 3481 3500 
L 3481 434 
z
" transform="scale(0.015625)"/>
      </defs>
      <use xlink:href="#DejaVuSans-53"/>
      <use xlink:href="#DejaVuSans-70" x="63.476562"/>
      <use xlink:href="#DejaVuSans-65" x="126.953125"/>
      <use xlink:href="#DejaVuSans-63" x="188.476562"/>
      <use xlink:href="#DejaVuSans-74" x="243.457031"/>
      <use xlink:href="#DejaVuSans-72" x="282.666016"/>
      <use xlink:href="#DejaVuSans-61" x="323.779297"/>
      <use xlink:href="#DejaVuSans-6c" x="385.058594"/>
      <use xlink:href="#DejaVuSans-20" x="412.841797"/>
      <use xlink:href="#DejaVuSans-61" x="444.628906"/>
      <use xlink:href="#DejaVuSans-63" x="505.908203"/>
      <use xlink:href="#DejaVuSans-63" x="560.888672"/>
      <use xlink:href="#DejaVuSans-65" x="615.869141"/>
      <use xlink:href="#DejaVuSans-6c" x="677.392578"/>
      <use xlink:href="#DejaVuSans-65" x="705.175781"/>
      <use xlink:href="#DejaVuSans-72" x="766.699219"/>
      <use xlink:href="#DejaVuSans-61" x="807.8125"/>
      <use xlink:href="#DejaVuSans-74" x="869.091797"/>
      <use xlink:href="#DejaVuSans-69" x="908.300781"/>
      <use xlink:href="#DejaVuSans-6f" x="936.083984"/>
      <use xlink:href="#DejaVuSans-6e" x="997.265625"/>
      <use xlink:href="#DejaVuSans-2c" x="1060.644531"/>
      <use xlink:href="#DejaVuSans-20" x="1092.431641"/>
      <use xlink:href="#DejaVuSans-53" x="1124.21875"/>
      <use xlink:href="#DejaVuSans-41" x="1189.570312"/>
      <use xlink:href="#DejaVuSans-20" x="1257.978516"/>
      <use xlink:href="#DejaVuSans-28" x="1289.765625"/>
      <use xlink:href="#DejaVuSans-67" x="1328.779297"/>
      <use xlink:href="#DejaVuSans-29" x="1392.255859"/>
     </g>
    </g>
   </g>
   <g id="line2d_63">
    <path d="M 53.721227 24.921217 
L 73.459257 26.053526 
L 87.463612 30.203951 
L 98.326234 33.017032 
L 107.201642 38.673332 
L 121.205997 40.204621 
L 131.480926 42.506084 
L 132.068618 42.347498 
L 151.806648 46.227034 
L 165.811003 51.630525 
L 178.582888 55.168248 
L 185.549033 58.142908 
L 199.553388 60.339382 
L 219.291418 67.472614 
L 233.295773 74.319947 
" clip-path="url(#pca3b5475a3)" style="fill: none; stroke: #b2b2b2; stroke-width: 0.8; stroke-linecap: square"/>
   </g>
   <g id="line2d_64">
    <path d="M 53.721227 35.049486 
L 73.459257 34.691821 
L 87.463612 37.559473 
L 98.326234 40.583252 
L 107.201642 42.180275 
L 121.205997 40.73066 
L 131.480926 42.506084 
L 132.068618 42.535319 
L 151.806648 53.070944 
L 165.811003 58.716334 
L 178.582888 67.504153 
L 185.549033 73.75519 
L 199.553388 87.578784 
L 219.291418 110.404502 
L 233.295773 130.099621 
" clip-path="url(#pca3b5475a3)" style="fill: none; stroke: #b2b2b2; stroke-width: 0.8; stroke-linecap: square"/>
   </g>
   <g id="line2d_65">
    <path d="M 53.721227 49.261701 
L 73.459257 45.682743 
L 87.463612 45.83555 
L 98.326234 46.821684 
L 107.201642 44.108365 
L 121.205997 41.807137 
L 131.480926 42.506084 
L 132.068618 42.850699 
L 151.806648 50.710207 
L 165.811003 52.348234 
L 178.582888 61.560861 
L 185.549033 68.405372 
L 199.553388 84.716014 
L 219.291418 108.772415 
L 233.295773 126.510792 
" clip-path="url(#pca3b5475a3)" style="fill: none; stroke: #b2b2b2; stroke-width: 0.8; stroke-linecap: square"/>
   </g>
   <g id="line2d_66">
    <path d="M 53.721227 41.041359 
L 73.459257 39.184498 
L 87.463612 39.328311 
L 98.326234 39.974354 
L 107.201642 40.74676 
L 121.205997 41.532834 
L 131.480926 42.506084 
L 132.068618 42.57479 
L 151.806648 45.645654 
L 165.811003 48.479613 
L 178.582888 55.943068 
L 185.549033 62.46989 
L 199.553388 77.540533 
L 219.291418 99.148416 
L 233.295773 117.30829 
" clip-path="url(#pca3b5475a3)" style="fill: none; stroke: #b2b2b2; stroke-width: 0.8; stroke-linecap: square"/>
   </g>
   <g id="line2d_67">
    <path d="M 53.721227 54.658015 
L 73.459257 47.983323 
L 87.463612 43.603894 
L 98.326234 40.308892 
L 107.201642 38.349881 
L 121.205997 38.043964 
L 131.480926 42.506084 
L 132.068618 43.053158 
L 151.806648 48.948103 
L 165.811003 61.435453 
L 178.582888 70.86545 
L 185.549033 77.630305 
L 199.553388 92.012905 
L 219.291418 104.07939 
L 233.295773 113.156078 
" clip-path="url(#pca3b5475a3)" style="fill: none; stroke: #b2b2b2; stroke-width: 0.8; stroke-linecap: square"/>
   </g>
   <g id="line2d_68">
    <path d="M 53.721227 58.235346 
L 73.459257 52.495638 
L 87.463612 50.716427 
L 98.326234 50.848411 
L 107.201642 46.782668 
L 121.205997 43.471731 
L 131.480926 42.506084 
L 132.068618 42.606765 
L 151.806648 45.271983 
L 165.811003 46.951413 
L 178.582888 54.984756 
L 185.549033 58.523192 
L 199.553388 72.215932 
L 219.291418 90.878631 
L 233.295773 108.751132 
" clip-path="url(#pca3b5475a3)" style="fill: none; stroke: #b2b2b2; stroke-width: 0.8; stroke-linecap: square"/>
   </g>
   <g id="line2d_69">
    <path d="M 53.721227 59.112196 
L 73.459257 51.528355 
L 87.463612 48.131676 
L 98.326234 45.699441 
L 107.201642 44.283328 
L 121.205997 43.144599 
L 131.480926 42.506084 
L 132.068618 42.641188 
L 151.806648 49.740107 
L 165.811003 50.45001 
L 178.582888 52.464024 
L 185.549033 55.734192 
L 199.553388 63.010482 
L 219.291418 84.797388 
L 233.295773 101.434859 
" clip-path="url(#pca3b5475a3)" style="fill: none; stroke: #b2b2b2; stroke-width: 0.8; stroke-linecap: square"/>
   </g>
   <g id="line2d_70">
    <path d="M 53.721227 48.961231 
L 73.459257 43.535955 
L 87.463612 43.254805 
L 98.326234 42.676974 
L 107.201642 41.99752 
L 121.205997 40.762025 
L 131.480926 42.506084 
L 132.068618 42.471846 
L 151.806648 48.155504 
L 165.811003 52.026891 
L 178.582888 63.274997 
L 185.549033 70.605091 
L 199.553388 80.837916 
L 219.291418 97.200913 
L 233.295773 112.112242 
" clip-path="url(#pca3b5475a3)" style="fill: none; stroke: #b2b2b2; stroke-width: 0.8; stroke-linecap: square"/>
   </g>
   <g id="line2d_71">
    <path d="M 53.721227 41.556453 
L 73.459257 38.553786 
L 87.463612 35.428103 
L 98.326234 37.265037 
L 107.201642 37.330473 
L 121.205997 39.076865 
L 131.480926 42.506084 
L 132.068618 42.519981 
L 151.806648 51.104544 
L 165.811003 55.22736 
L 178.582888 60.127894 
L 185.549033 64.353664 
L 199.553388 71.540449 
L 219.291418 88.147169 
L 233.295773 104.741325 
" clip-path="url(#pca3b5475a3)" style="fill: none; stroke: #b2b2b2; stroke-width: 0.8; stroke-linecap: square"/>
   </g>
   <g id="line2d_72">
    <path d="M 53.721227 43.115539 
L 73.459257 41.717203 
L 87.463612 39.011676 
L 98.326234 36.534032 
L 107.201642 37.551366 
L 121.205997 41.305954 
L 131.480926 42.506084 
L 132.068618 42.732474 
L 151.806648 49.649753 
L 165.811003 53.142575 
L 178.582888 61.705379 
L 185.549033 67.247124 
L 199.553388 77.442617 
L 219.291418 90.809572 
L 233.295773 99.645922 
" clip-path="url(#pca3b5475a3)" style="fill: none; stroke: #b2b2b2; stroke-width: 0.8; stroke-linecap: square"/>
   </g>
   <g id="line2d_73">
    <path d="M 53.721227 28.390311 
L 73.459257 32.512729 
L 87.463612 32.074459 
L 98.326234 32.207842 
L 107.201642 33.528619 
L 121.205997 37.954229 
L 131.480926 42.506084 
L 132.068618 42.448702 
L 151.806648 54.170123 
L 165.811003 55.439638 
L 178.582888 62.165208 
L 185.549033 68.176926 
L 199.553388 74.124047 
L 219.291418 89.749238 
L 233.295773 106.553786 
" clip-path="url(#pca3b5475a3)" style="fill: none; stroke: #b2b2b2; stroke-width: 0.8; stroke-linecap: square"/>
   </g>
   <g id="line2d_74">
    <path d="M 53.721227 31.604531 
L 73.459257 29.911049 
L 87.463612 28.751321 
L 98.326234 28.437534 
L 107.201642 31.120334 
L 121.205997 38.587686 
L 131.480926 42.506084 
L 132.068618 42.589844 
L 151.806648 52.771926 
L 165.811003 61.172688 
L 178.582888 72.043926 
L 185.549033 77.574581 
L 199.553388 87.122195 
L 219.291418 99.602732 
L 233.295773 114.236726 
" clip-path="url(#pca3b5475a3)" style="fill: none; stroke: #b2b2b2; stroke-width: 0.8; stroke-linecap: square"/>
   </g>
   <g id="line2d_75">
    <path d="M 53.721227 49.978164 
L 73.459257 43.350339 
L 87.463612 39.450078 
L 98.326234 39.004516 
L 107.201642 38.937913 
L 121.205997 38.867315 
L 131.480926 42.506084 
L 132.068618 43.106146 
L 151.806648 47.931457 
L 165.811003 55.991156 
L 178.582888 62.38959 
L 185.549033 68.624801 
L 199.553388 79.773439 
L 219.291418 95.134323 
L 233.295773 109.702868 
" clip-path="url(#pca3b5475a3)" style="fill: none; stroke: #b2b2b2; stroke-width: 0.8; stroke-linecap: square"/>
   </g>
   <g id="line2d_76">
    <path d="M 53.721227 63.857611 
L 73.459257 60.023371 
L 87.463612 53.89869 
L 98.326234 50.400243 
L 107.201642 46.842191 
L 121.205997 43.311389 
L 131.480926 42.506084 
L 132.068618 42.573873 
L 151.806648 50.205905 
L 165.811003 59.097512 
L 178.582888 68.668146 
L 185.549033 74.663399 
L 199.553388 86.44876 
L 219.291418 104.071465 
L 233.295773 116.307564 
" clip-path="url(#pca3b5475a3)" style="fill: none; stroke: #b2b2b2; stroke-width: 0.8; stroke-linecap: square"/>
   </g>
   <g id="line2d_77">
    <path d="M 53.721227 44.58833 
L 73.459257 40.129379 
L 87.463612 37.517177 
L 98.326234 35.385124 
L 107.201642 37.49242 
L 121.205997 38.467452 
L 131.480926 42.506084 
L 132.068618 42.925198 
L 151.806648 56.254238 
L 165.811003 67.616826 
L 178.582888 78.687966 
L 185.549033 86.482957 
L 199.553388 97.58232 
L 219.291418 118.176942 
L 233.295773 132.0912 
" clip-path="url(#pca3b5475a3)" style="fill: none; stroke: #b2b2b2; stroke-width: 0.8; stroke-linecap: square"/>
   </g>
   <g id="line2d_78">
    <path d="M 53.721227 35.796943 
L 73.459257 36.002709 
L 87.463612 37.524539 
L 98.326234 37.211912 
L 107.201642 36.329458 
L 121.205997 40.41502 
L 131.480926 42.506084 
L 132.068618 42.693336 
L 151.806648 50.652705 
L 165.811003 61.59879 
L 178.582888 71.361807 
L 185.549033 75.928827 
L 199.553388 93.233909 
L 219.291418 110.459374 
L 233.295773 122.511235 
" clip-path="url(#pca3b5475a3)" style="fill: none; stroke: #b2b2b2; stroke-width: 0.8; stroke-linecap: square"/>
   </g>
   <g id="line2d_79">
    <path d="M 53.721227 40.386722 
L 73.459257 38.81927 
L 87.463612 38.089885 
L 98.326234 41.345213 
L 107.201642 40.080367 
L 121.205997 40.669665 
L 131.480926 42.506084 
L 132.068618 42.892357 
L 151.806648 47.259674 
L 165.811003 55.126356 
L 178.582888 59.889042 
L 185.549033 62.520689 
L 199.553388 70.809154 
L 219.291418 83.259668 
L 233.295773 94.413699 
" clip-path="url(#pca3b5475a3)" style="fill: none; stroke: #b2b2b2; stroke-width: 0.8; stroke-linecap: square"/>
   </g>
   <g id="line2d_80">
    <path d="M 53.721227 29.832738 
L 73.459257 29.247568 
L 87.463612 33.451154 
L 98.326234 32.252759 
L 107.201642 34.724003 
L 121.205997 38.396994 
L 131.480926 42.506084 
L 132.068618 42.746152 
L 151.806648 51.434502 
L 165.811003 60.387624 
L 178.582888 63.327883 
L 185.549033 65.426008 
L 199.553388 69.485818 
L 219.291418 72.765441 
L 233.295773 82.975795 
" clip-path="url(#pca3b5475a3)" style="fill: none; stroke: #b2b2b2; stroke-width: 0.8; stroke-linecap: square"/>
   </g>
   <g id="line2d_81">
    <path d="M 53.721227 48.846626 
L 73.459257 43.365191 
L 87.463612 38.709596 
L 98.326234 37.556356 
L 107.201642 39.032337 
L 121.205997 40.906533 
L 131.480926 42.506084 
L 132.068618 42.565756 
L 151.806648 48.198668 
L 165.811003 53.991288 
L 178.582888 58.620834 
L 185.549033 62.349414 
L 199.553388 72.066986 
L 219.291418 91.887215 
L 233.295773 103.780931 
" clip-path="url(#pca3b5475a3)" style="fill: none; stroke: #b2b2b2; stroke-width: 0.8; stroke-linecap: square"/>
   </g>
   <g id="line2d_82">
    <path d="M 53.721227 59.772178 
L 73.459257 54.977701 
L 87.463612 52.139785 
L 98.326234 48.510154 
L 107.201642 46.066224 
L 121.205997 44.434672 
L 131.480926 42.506084 
L 132.068618 42.437034 
L 151.806648 39.400274 
L 165.811003 42.69704 
L 178.582888 45.396922 
L 185.549033 46.295154 
L 199.553388 54.022603 
L 219.291418 73.267679 
L 233.295773 89.891916 
" clip-path="url(#pca3b5475a3)" style="fill: none; stroke: #b2b2b2; stroke-width: 0.8; stroke-linecap: square"/>
   </g>
   <g id="line2d_83">
    <path d="M 53.721227 64.085207 
L 73.459257 58.822222 
L 87.463612 55.658189 
L 98.326234 53.635496 
L 107.201642 50.794222 
L 121.205997 45.195377 
L 131.480926 42.506084 
L 132.068618 42.545634 
L 151.806648 41.973463 
L 165.811003 42.361985 
L 178.582888 47.290261 
L 185.549033 49.604222 
L 199.553388 57.891872 
L 219.291418 75.34343 
L 233.295773 90.348991 
" clip-path="url(#pca3b5475a3)" style="fill: none; stroke: #b2b2b2; stroke-width: 0.8; stroke-linecap: square"/>
   </g>
   <g id="line2d_84">
    <path d="M 53.721227 28.750419 
L 73.459257 25.597459 
L 87.463612 27.533306 
L 98.326234 28.562156 
L 107.201642 32.20107 
L 121.205997 39.537797 
L 131.480926 42.506084 
L 132.068618 42.783761 
L 151.806648 52.690272 
L 165.811003 58.444885 
L 178.582888 66.961443 
L 185.549033 73.19801 
L 199.553388 80.57911 
L 219.291418 102.83048 
L 233.295773 117.051557 
" clip-path="url(#pca3b5475a3)" style="fill: none; stroke: #b2b2b2; stroke-width: 0.8; stroke-linecap: square"/>
   </g>
   <g id="line2d_85">
    <path d="M 53.721227 47.311402 
L 73.459257 48.146914 
L 87.463612 47.534668 
L 98.326234 47.264835 
L 107.201642 45.342115 
L 121.205997 42.426324 
L 131.480926 42.506084 
L 132.068618 42.417188 
L 151.806648 42.37275 
L 165.811003 46.936183 
L 178.582888 55.95735 
L 185.549033 61.46792 
L 199.553388 72.725127 
L 219.291418 94.513811 
L 233.295773 107.768275 
" clip-path="url(#pca3b5475a3)" style="fill: none; stroke: #b2b2b2; stroke-width: 0.8; stroke-linecap: square"/>
   </g>
   <g id="line2d_86">
    <path d="M 53.721227 54.160271 
L 73.459257 48.33111 
L 87.463612 46.107116 
L 98.326234 43.804955 
L 107.201642 40.019083 
L 121.205997 39.571992 
L 131.480926 42.506084 
L 132.068618 42.478451 
L 151.806648 41.073814 
L 165.811003 45.433475 
L 178.582888 50.88524 
L 185.549033 54.520912 
L 199.553388 66.213337 
L 219.291418 84.456706 
L 233.295773 99.981081 
" clip-path="url(#pca3b5475a3)" style="fill: none; stroke: #b2b2b2; stroke-width: 0.8; stroke-linecap: square"/>
   </g>
   <g id="line2d_87">
    <path d="M 53.721227 41.961648 
L 73.459257 45.197269 
L 87.463612 43.720379 
L 98.326234 43.398538 
L 107.201642 40.74783 
L 121.205997 41.202942 
L 131.480926 42.506084 
L 132.068618 42.259891 
L 151.806648 49.889361 
L 165.811003 55.175179 
L 178.582888 58.77764 
L 185.549033 63.229247 
L 199.553388 69.367382 
L 219.291418 82.682918 
L 233.295773 96.585183 
" clip-path="url(#pca3b5475a3)" style="fill: none; stroke: #b2b2b2; stroke-width: 0.8; stroke-linecap: square"/>
   </g>
   <g id="line2d_88">
    <path d="M 53.721227 43.256503 
L 73.459257 36.681679 
L 87.463612 32.971893 
L 98.326234 36.162021 
L 107.201642 36.213566 
L 121.205997 38.693049 
L 131.480926 42.506084 
L 132.068618 42.894569 
L 151.806648 55.609503 
L 165.811003 64.460642 
L 178.582888 74.478921 
L 185.549033 77.745883 
L 199.553388 91.938937 
L 219.291418 100.78525 
L 233.295773 116.084179 
" clip-path="url(#pca3b5475a3)" style="fill: none; stroke: #b2b2b2; stroke-width: 0.8; stroke-linecap: square"/>
   </g>
   <g id="line2d_89">
    <path d="M 53.721227 50.94172 
L 73.459257 46.59178 
L 87.463612 43.77592 
L 98.326234 43.432992 
L 107.201642 42.417669 
L 121.205997 41.160521 
L 131.480926 42.506084 
L 132.068618 42.384245 
L 151.806648 46.081758 
L 165.811003 51.747643 
L 178.582888 56.632768 
L 185.549033 61.358112 
L 199.553388 65.905133 
L 219.291418 78.49823 
L 233.295773 91.002269 
" clip-path="url(#pca3b5475a3)" style="fill: none; stroke: #b2b2b2; stroke-width: 0.8; stroke-linecap: square"/>
   </g>
   <g id="line2d_90">
    <path d="M 53.721227 64.075508 
L 73.459257 56.737384 
L 87.463612 53.440064 
L 98.326234 49.743483 
L 107.201642 46.931624 
L 121.205997 45.973828 
L 131.480926 42.506084 
L 132.068618 42.493623 
L 151.806648 43.694088 
L 165.811003 46.272332 
L 178.582888 51.491069 
L 185.549033 55.07308 
L 199.553388 65.409252 
L 219.291418 82.853148 
L 233.295773 96.276237 
" clip-path="url(#pca3b5475a3)" style="fill: none; stroke: #b2b2b2; stroke-width: 0.8; stroke-linecap: square"/>
   </g>
   <g id="line2d_91">
    <path d="M 53.721227 44.252358 
L 73.459257 41.667602 
L 87.463612 38.307729 
L 98.326234 35.562321 
L 107.201642 36.745015 
L 121.205997 40.464958 
L 131.480926 42.506084 
L 132.068618 42.667973 
L 151.806648 50.107935 
L 165.811003 53.231263 
L 178.582888 60.696388 
L 185.549033 66.410107 
L 199.553388 75.922078 
L 219.291418 98.24229 
L 233.295773 111.967282 
" clip-path="url(#pca3b5475a3)" style="fill: none; stroke: #b2b2b2; stroke-width: 0.8; stroke-linecap: square"/>
   </g>
   <g id="line2d_92">
    <path d="M 53.721227 40.165397 
L 73.459257 38.590122 
L 87.463612 37.38025 
L 98.326234 38.287315 
L 107.201642 40.852347 
L 121.205997 42.031028 
L 131.480926 42.506084 
L 132.068618 42.520881 
L 151.806648 48.594307 
L 165.811003 57.64081 
L 178.582888 69.211775 
L 185.549033 74.642096 
L 199.553388 88.842232 
L 219.291418 111.551388 
L 233.295773 127.971256 
" clip-path="url(#pca3b5475a3)" style="fill: none; stroke: #b2b2b2; stroke-width: 0.8; stroke-linecap: square"/>
   </g>
   <g id="line2d_93">
    <path d="M 53.721227 46.446148 
L 73.459257 44.015577 
L 87.463612 40.624225 
L 98.326234 43.496978 
L 107.201642 44.043165 
L 121.205997 42.403079 
L 131.480926 42.506084 
L 132.068618 42.273255 
L 151.806648 49.964146 
L 165.811003 51.424076 
L 178.582888 56.99033 
L 185.549033 62.305332 
L 199.553388 74.057808 
L 219.291418 89.822859 
L 233.295773 99.862549 
" clip-path="url(#pca3b5475a3)" style="fill: none; stroke: #b2b2b2; stroke-width: 0.8; stroke-linecap: square"/>
   </g>
   <g id="line2d_94">
    <path d="M 53.721227 49.247275 
L 73.459257 44.769791 
L 87.463612 43.803562 
L 98.326234 42.465956 
L 107.201642 42.776144 
L 121.205997 40.467003 
L 131.480926 42.506084 
L 132.068618 42.286214 
L 151.806648 44.274299 
L 165.811003 51.121312 
L 178.582888 58.46619 
L 185.549033 63.850866 
L 199.553388 74.231581 
L 219.291418 86.989412 
L 233.295773 99.632497 
" clip-path="url(#pca3b5475a3)" style="fill: none; stroke: #b2b2b2; stroke-width: 0.8; stroke-linecap: square"/>
   </g>
   <g id="line2d_95">
    <path d="M 53.721227 37.557386 
L 73.459257 35.057299 
L 87.463612 34.017176 
L 98.326234 33.560123 
L 107.201642 33.385258 
L 121.205997 38.594516 
L 131.480926 42.506084 
L 132.068618 42.894281 
L 151.806648 55.882668 
L 165.811003 66.384908 
L 178.582888 73.006234 
L 185.549033 77.672805 
L 199.553388 84.248005 
L 219.291418 89.949931 
L 233.295773 100.22417 
" clip-path="url(#pca3b5475a3)" style="fill: none; stroke: #b2b2b2; stroke-width: 0.8; stroke-linecap: square"/>
   </g>
   <g id="line2d_96">
    <path d="M 53.721227 30.14472 
L 73.459257 28.907884 
L 87.463612 31.646237 
L 98.326234 33.498758 
L 107.201642 34.975916 
L 121.205997 39.202058 
L 131.480926 42.506084 
L 132.068618 42.576812 
L 151.806648 49.024877 
L 165.811003 55.474299 
L 178.582888 63.808531 
L 185.549033 68.893853 
L 199.553388 76.721842 
L 219.291418 83.204008 
L 233.295773 96.020353 
" clip-path="url(#pca3b5475a3)" style="fill: none; stroke: #b2b2b2; stroke-width: 0.8; stroke-linecap: square"/>
   </g>
   <g id="line2d_97">
    <path d="M 53.721227 45.88563 
L 73.459257 41.651194 
L 87.463612 40.597919 
L 98.326234 38.170562 
L 107.201642 41.433241 
L 121.205997 42.616555 
L 131.480926 42.506084 
L 132.068618 42.381947 
L 151.806648 48.925003 
L 165.811003 54.202909 
L 178.582888 56.839233 
L 185.549033 59.023457 
L 199.553388 67.223968 
L 219.291418 76.080426 
L 233.295773 88.417885 
" clip-path="url(#pca3b5475a3)" style="fill: none; stroke: #b2b2b2; stroke-width: 0.8; stroke-linecap: square"/>
   </g>
   <g id="line2d_98">
    <path d="M 53.721227 41.534202 
L 73.459257 39.2126 
L 87.463612 35.257333 
L 98.326234 39.181075 
L 107.201642 40.036217 
L 121.205997 41.243647 
L 131.480926 42.506084 
L 132.068618 42.333004 
L 151.806648 52.004432 
L 165.811003 58.535577 
L 178.582888 65.810927 
L 185.549033 73.028914 
L 199.553388 75.023505 
L 219.291418 88.790903 
L 233.295773 101.069808 
" clip-path="url(#pca3b5475a3)" style="fill: none; stroke: #b2b2b2; stroke-width: 0.8; stroke-linecap: square"/>
   </g>
   <g id="line2d_99">
    <path d="M 53.721227 56.581173 
L 73.459257 52.7551 
L 87.463612 48.985901 
L 98.326234 47.758094 
L 107.201642 44.993658 
L 121.205997 42.518915 
L 131.480926 42.506084 
L 132.068618 42.204539 
L 151.806648 39.886283 
L 165.811003 46.467787 
L 178.582888 56.909849 
L 185.549033 60.616085 
L 199.553388 74.547611 
L 219.291418 96.442805 
L 233.295773 110.276556 
" clip-path="url(#pca3b5475a3)" style="fill: none; stroke: #b2b2b2; stroke-width: 0.8; stroke-linecap: square"/>
   </g>
   <g id="line2d_100">
    <path d="M 53.721227 36.94076 
L 73.459257 34.156218 
L 87.463612 32.534544 
L 98.326234 34.067823 
L 107.201642 34.850044 
L 121.205997 39.189577 
L 131.480926 42.506084 
L 132.068618 42.598032 
L 151.806648 50.761627 
L 165.811003 55.866468 
L 178.582888 59.889364 
L 185.549033 62.421691 
L 199.553388 72.488183 
L 219.291418 90.509226 
L 233.295773 106.604771 
" clip-path="url(#pca3b5475a3)" style="fill: none; stroke: #b2b2b2; stroke-width: 0.8; stroke-linecap: square"/>
   </g>
   <g id="line2d_101">
    <path d="M 53.721227 57.14576 
L 73.459257 53.440741 
L 87.463612 50.434443 
L 98.326234 47.101128 
L 107.201642 44.133458 
L 121.205997 42.222735 
L 131.480926 42.506084 
L 132.068618 42.390904 
L 151.806648 47.779801 
L 165.811003 52.607139 
L 178.582888 57.628029 
L 185.549033 60.929158 
L 199.553388 73.695151 
L 219.291418 92.675128 
L 233.295773 107.932564 
" clip-path="url(#pca3b5475a3)" style="fill: none; stroke: #b2b2b2; stroke-width: 0.8; stroke-linecap: square"/>
   </g>
   <g id="line2d_102">
    <path d="M 53.721227 33.650379 
L 73.459257 30.494007 
L 87.463612 31.328835 
L 98.326234 34.320453 
L 107.201642 35.402947 
L 121.205997 41.410971 
L 131.480926 42.506084 
L 132.068618 42.866108 
L 151.806648 47.69883 
L 165.811003 55.141135 
L 178.582888 62.79934 
L 185.549033 65.676397 
L 199.553388 68.755714 
L 219.291418 80.764823 
L 233.295773 92.052597 
" clip-path="url(#pca3b5475a3)" style="fill: none; stroke: #b2b2b2; stroke-width: 0.8; stroke-linecap: square"/>
   </g>
   <g id="line2d_103">
    <path d="M 53.721227 45.180583 
L 73.459257 41.16383 
L 87.463612 35.277741 
L 98.326234 34.414721 
L 107.201642 36.475219 
L 121.205997 42.030694 
L 131.480926 42.506084 
L 132.068618 42.553167 
L 151.806648 51.797817 
L 165.811003 59.243633 
L 178.582888 65.881141 
L 185.549033 68.507673 
L 199.553388 79.073262 
L 219.291418 93.490545 
L 233.295773 107.818486 
" clip-path="url(#pca3b5475a3)" style="fill: none; stroke: #b2b2b2; stroke-width: 0.8; stroke-linecap: square"/>
   </g>
   <g id="line2d_104">
    <path d="M 53.721227 30.175138 
L 73.459257 27.83095 
L 87.463612 26.028239 
L 98.326234 28.195275 
L 107.201642 28.871114 
L 121.205997 34.992748 
L 131.480926 42.506084 
L 132.068618 43.013229 
L 151.806648 56.7146 
L 165.811003 65.633284 
L 178.582888 73.983783 
L 185.549033 76.325382 
L 199.553388 84.385379 
L 219.291418 91.376575 
L 233.295773 98.771022 
" clip-path="url(#pca3b5475a3)" style="fill: none; stroke: #b2b2b2; stroke-width: 0.8; stroke-linecap: square"/>
   </g>
   <g id="line2d_105">
    <path d="M 53.721227 45.498386 
L 73.459257 40.118055 
L 87.463612 38.127501 
L 98.326234 39.18795 
L 107.201642 38.866708 
L 121.205997 38.415916 
L 131.480926 42.506084 
L 132.068618 42.662505 
L 151.806648 51.816334 
L 165.811003 57.673915 
L 178.582888 63.95365 
L 185.549033 65.702377 
L 199.553388 77.230745 
L 219.291418 92.542876 
L 233.295773 108.662636 
" clip-path="url(#pca3b5475a3)" style="fill: none; stroke: #b2b2b2; stroke-width: 0.8; stroke-linecap: square"/>
   </g>
   <g id="line2d_106">
    <path d="M 53.721227 40.050034 
L 73.459257 32.934468 
L 87.463612 36.397799 
L 98.326234 37.497009 
L 107.201642 37.302233 
L 121.205997 39.469244 
L 131.480926 42.506084 
L 132.068618 43.296034 
L 151.806648 52.308491 
L 165.811003 60.291913 
L 178.582888 66.548811 
L 185.549033 72.976282 
L 199.553388 79.773109 
L 219.291418 92.715084 
L 233.295773 106.4805 
" clip-path="url(#pca3b5475a3)" style="fill: none; stroke: #b2b2b2; stroke-width: 0.8; stroke-linecap: square"/>
   </g>
   <g id="line2d_107">
    <path d="M 53.721227 15.005215 
L 73.459257 13.33138 
L 87.463612 13.1472 
L 98.326234 18.328301 
L 107.201642 22.59332 
L 121.205997 34.922852 
L 131.480926 42.506084 
L 132.068618 42.87634 
L 151.806648 55.82964 
L 165.811003 68.621864 
L 178.582888 83.361485 
L 185.549033 85.998561 
L 199.553388 94.353042 
L 219.291418 105.033529 
L 233.295773 118.944701 
" clip-path="url(#pca3b5475a3)" style="fill: none; stroke: #b2b2b2; stroke-width: 0.8; stroke-linecap: square"/>
   </g>
   <g id="line2d_108">
    <path d="M 53.721227 45.759683 
L 73.459257 37.576989 
L 87.463612 34.559171 
L 98.326234 34.651342 
L 107.201642 33.566032 
L 121.205997 38.743543 
L 131.480926 42.506084 
L 132.068618 42.490709 
L 151.806648 51.005023 
L 165.811003 58.057895 
L 178.582888 63.614927 
L 185.549033 68.88872 
L 199.553388 78.476087 
L 219.291418 100.708234 
L 233.295773 113.789267 
" clip-path="url(#pca3b5475a3)" style="fill: none; stroke: #b2b2b2; stroke-width: 0.8; stroke-linecap: square"/>
   </g>
   <g id="line2d_109">
    <path d="M 53.721227 33.562939 
L 73.459257 32.164289 
L 87.463612 33.000638 
L 98.326234 35.130197 
L 107.201642 36.372245 
L 121.205997 38.447245 
L 131.480926 42.506084 
L 132.068618 43.06564 
L 151.806648 56.132608 
L 165.811003 66.786319 
L 178.582888 78.46189 
L 185.549033 85.056071 
L 199.553388 96.36429 
L 219.291418 114.593103 
L 233.295773 126.11466 
" clip-path="url(#pca3b5475a3)" style="fill: none; stroke: #b2b2b2; stroke-width: 0.8; stroke-linecap: square"/>
   </g>
   <g id="line2d_110">
    <path d="M 53.721227 53.228145 
L 73.459257 50.190272 
L 87.463612 46.954835 
L 98.326234 43.957626 
L 107.201642 41.642626 
L 121.205997 42.10174 
L 131.480926 42.506084 
L 132.068618 42.54045 
L 151.806648 46.283705 
L 165.811003 53.724885 
L 178.582888 61.752105 
L 185.549033 66.594894 
L 199.553388 79.880548 
L 219.291418 99.781147 
L 233.295773 119.202537 
" clip-path="url(#pca3b5475a3)" style="fill: none; stroke: #b2b2b2; stroke-width: 0.8; stroke-linecap: square"/>
   </g>
   <g id="line2d_111">
    <path d="M 53.721227 56.454184 
L 73.459257 49.928218 
L 87.463612 44.795935 
L 98.326234 43.88906 
L 107.201642 41.584264 
L 121.205997 39.341866 
L 131.480926 42.506084 
L 132.068618 42.471771 
L 151.806648 44.820365 
L 165.811003 49.607189 
L 178.582888 54.634731 
L 185.549033 55.524771 
L 199.553388 60.864096 
L 219.291418 78.668203 
L 233.295773 93.30347 
" clip-path="url(#pca3b5475a3)" style="fill: none; stroke: #b2b2b2; stroke-width: 0.8; stroke-linecap: square"/>
   </g>
   <g id="line2d_112">
    <path d="M 53.721227 52.502562 
L 73.459257 47.567073 
L 87.463612 43.228916 
L 98.326234 41.675416 
L 107.201642 41.70611 
L 121.205997 42.383405 
L 131.480926 42.506084 
L 132.068618 42.631142 
L 151.806648 48.507831 
L 165.811003 57.797924 
L 178.582888 65.552413 
L 185.549033 70.032395 
L 199.553388 78.116342 
L 219.291418 93.566052 
L 233.295773 102.979628 
" clip-path="url(#pca3b5475a3)" style="fill: none; stroke: #b2b2b2; stroke-width: 0.8; stroke-linecap: square"/>
   </g>
   <g id="line2d_113">
    <path d="M 53.721227 44.435019 
L 73.459257 41.055448 
L 87.463612 39.378348 
L 98.326234 39.338482 
L 107.201642 39.320324 
L 121.205997 40.599778 
L 131.480926 42.506084 
L 132.068618 42.648846 
L 151.806648 49.098029 
L 165.811003 55.504986 
L 178.582888 62.47475 
L 185.549033 67.109729 
L 199.553388 76.652561 
L 219.291418 92.602788 
L 233.295773 106.247799 
" clip-path="url(#pca3b5475a3)" style="fill: none; stroke: #ff0000; stroke-width: 2; stroke-linecap: square"/>
   </g>
   <g id="line2d_114">
    <path d="M 53.721227 22.745996 
L 73.459257 22.11483 
L 87.463612 23.261835 
L 98.326234 25.823405 
L 107.201642 28.915352 
L 121.205997 36.250887 
L 131.480926 42.506084 
L 132.068618 41.571293 
L 151.806648 40.720555 
L 165.811003 42.907865 
L 178.582888 46.710891 
L 185.549033 49.694586 
L 199.553388 56.733524 
L 219.291418 69.978493 
L 233.295773 81.614532 
" clip-path="url(#pca3b5475a3)" style="fill: none; stroke-dasharray: 7.4,3.2; stroke-dashoffset: 0; stroke: #ff0000; stroke-width: 2"/>
   </g>
   <g id="line2d_115">
    <path d="M 53.721227 66.124041 
L 73.459257 59.996065 
L 87.463612 55.494861 
L 98.326234 52.853558 
L 107.201642 49.725297 
L 121.205997 44.948669 
L 131.480926 42.506085 
L 132.068618 43.726399 
L 151.806648 57.475502 
L 165.811003 68.102106 
L 178.582888 78.238609 
L 185.549033 84.524871 
L 199.553388 96.571599 
L 219.291418 115.227082 
L 233.295773 130.881065 
" clip-path="url(#pca3b5475a3)" style="fill: none; stroke-dasharray: 7.4,3.2; stroke-dashoffset: 0; stroke: #ff0000; stroke-width: 2"/>
   </g>
   <g id="line2d_116">
    <path d="M 53.721227 44.409549 
L 73.459257 41.067913 
L 87.463612 39.437164 
L 98.326234 39.328854 
L 107.201642 39.268646 
L 121.205997 40.581349 
L 131.480926 42.506084 
L 132.068618 42.623288 
L 151.806648 49.206179 
L 165.811003 55.397923 
L 178.582888 62.568519 
L 185.549033 67.043699 
L 199.553388 76.724179 
L 219.291418 92.590952 
L 233.295773 106.274858 
" clip-path="url(#pca3b5475a3)" style="fill: none; stroke: #0000ff; stroke-width: 2; stroke-linecap: square"/>
   </g>
   <g id="line2d_117">
    <path d="M 53.721227 22.701755 
L 73.459257 22.164884 
L 87.463612 23.239608 
L 98.326234 25.824148 
L 107.201642 29.005394 
L 121.205997 36.166138 
L 131.480926 42.506084 
L 132.068618 42.141101 
L 151.806648 40.762864 
L 165.811003 42.909653 
L 178.582888 46.76978 
L 185.549033 49.647359 
L 199.553388 56.809441 
L 219.291418 70.012143 
L 233.295773 81.625544 
" clip-path="url(#pca3b5475a3)" style="fill: none; stroke-dasharray: 7.4,3.2; stroke-dashoffset: 0; stroke: #0000ff; stroke-width: 2"/>
   </g>
   <g id="line2d_118">
    <path d="M 53.721227 66.117342 
L 73.459257 59.970942 
L 87.463612 55.634721 
L 98.326234 52.833561 
L 107.201642 49.531897 
L 121.205997 44.996561 
L 131.480926 42.506084 
L 132.068618 43.105476 
L 151.806648 57.649494 
L 165.811003 67.886193 
L 178.582888 78.367259 
L 185.549033 84.440039 
L 199.553388 96.638918 
L 219.291418 115.169761 
L 233.295773 130.924171 
" clip-path="url(#pca3b5475a3)" style="fill: none; stroke-dasharray: 7.4,3.2; stroke-dashoffset: 0; stroke: #0000ff; stroke-width: 2"/>
   </g>
   <g id="patch_3">
    <path d="M 44.7425 138.0384 
L 44.7425 7.2 
" style="fill: none; stroke: #000000; stroke-width: 0.8; stroke-linejoin: miter; stroke-linecap: square"/>
   </g>
   <g id="patch_4">
    <path d="M 242.2745 138.0384 
L 242.2745 7.2 
" style="fill: none; stroke: #000000; stroke-width: 0.8; stroke-linejoin: miter; stroke-linecap: square"/>
   </g>
   <g id="patch_5">
    <path d="M 44.7425 138.0384 
L 242.2745 138.0384 
" style="fill: none; stroke: #000000; stroke-width: 0.8; stroke-linejoin: miter; stroke-linecap: square"/>
   </g>
   <g id="patch_6">
    <path d="M 44.7425 7.2 
L 242.2745 7.2 
" style="fill: none; stroke: #000000; stroke-width: 0.8; stroke-linejoin: miter; stroke-linecap: square"/>
   </g>
   <g id="legend_1">
    <g id="patch_7">
     <path d="M 247.8745 104.47295 
L 432.5945 104.47295 
Q 434.1945 104.47295 434.1945 102.87295 
L 434.1945 42.36545 
Q 434.1945 40.76545 432.5945 40.76545 
L 247.8745 40.76545 
Q 246.2745 40.76545 246.2745 42.36545 
L 246.2745 102.87295 
Q 246.2745 104.47295 247.8745 104.47295 
z
" style="fill: #ffffff; opacity: 0.8; stroke: #cccccc; stroke-linejoin: miter"/>
    </g>
    <g id="line2d_119">
     <path d="M 249.4745 47.2442 
L 257.4745 47.2442 
L 265.4745 47.2442 
" style="fill: none; stroke: #b2b2b2; stroke-width: 0.8; stroke-linecap: square"/>
    </g>
    <g id="text_7">
     <!-- Individual selected GMs -->
     <g transform="translate(271.8745 50.0442) scale(0.08 -0.08)">
      <defs>
       <path id="DejaVuSans-49" d="M 628 4666 
L 1259 4666 
L 1259 0 
L 628 0 
L 628 4666 
z
" transform="scale(0.015625)"/>
       <path id="DejaVuSans-76" d="M 191 3500 
L 800 3500 
L 1894 563 
L 2988 3500 
L 3597 3500 
L 2284 0 
L 1503 0 
L 191 3500 
z
" transform="scale(0.015625)"/>
       <path id="DejaVuSans-75" d="M 544 1381 
L 544 3500 
L 1119 3500 
L 1119 1403 
Q 1119 906 1312 657 
Q 1506 409 1894 409 
Q 2359 409 2629 706 
Q 2900 1003 2900 1516 
L 2900 3500 
L 3475 3500 
L 3475 0 
L 2900 0 
L 2900 538 
Q 2691 219 2414 64 
Q 2138 -91 1772 -91 
Q 1169 -91 856 284 
Q 544 659 544 1381 
z
M 1991 3584 
L 1991 3584 
z
" transform="scale(0.015625)"/>
       <path id="DejaVuSans-47" d="M 3809 666 
L 3809 1919 
L 2778 1919 
L 2778 2438 
L 4434 2438 
L 4434 434 
Q 4069 175 3628 42 
Q 3188 -91 2688 -91 
Q 1594 -91 976 548 
Q 359 1188 359 2328 
Q 359 3472 976 4111 
Q 1594 4750 2688 4750 
Q 3144 4750 3555 4637 
Q 3966 4525 4313 4306 
L 4313 3634 
Q 3963 3931 3569 4081 
Q 3175 4231 2741 4231 
Q 1884 4231 1454 3753 
Q 1025 3275 1025 2328 
Q 1025 1384 1454 906 
Q 1884 428 2741 428 
Q 3075 428 3337 486 
Q 3600 544 3809 666 
z
" transform="scale(0.015625)"/>
       <path id="DejaVuSans-4d" d="M 628 4666 
L 1569 4666 
L 2759 1491 
L 3956 4666 
L 4897 4666 
L 4897 0 
L 4281 0 
L 4281 4097 
L 3078 897 
L 2444 897 
L 1241 4097 
L 1241 0 
L 628 0 
L 628 4666 
z
" transform="scale(0.015625)"/>
      </defs>
      <use xlink:href="#DejaVuSans-49"/>
      <use xlink:href="#DejaVuSans-6e" x="29.492188"/>
      <use xlink:href="#DejaVuSans-64" x="92.871094"/>
      <use xlink:href="#DejaVuSans-69" x="156.347656"/>
      <use xlink:href="#DejaVuSans-76" x="184.130859"/>
      <use xlink:href="#DejaVuSans-69" x="243.310547"/>
      <use xlink:href="#DejaVuSans-64" x="271.09375"/>
      <use xlink:href="#DejaVuSans-75" x="334.570312"/>
      <use xlink:href="#DejaVuSans-61" x="397.949219"/>
      <use xlink:href="#DejaVuSans-6c" x="459.228516"/>
      <use xlink:href="#DejaVuSans-20" x="487.011719"/>
      <use xlink:href="#DejaVuSans-73" x="518.798828"/>
      <use xlink:href="#DejaVuSans-65" x="570.898438"/>
      <use xlink:href="#DejaVuSans-6c" x="632.421875"/>
      <use xlink:href="#DejaVuSans-65" x="660.205078"/>
      <use xlink:href="#DejaVuSans-63" x="721.728516"/>
      <use xlink:href="#DejaVuSans-74" x="776.708984"/>
      <use xlink:href="#DejaVuSans-65" x="815.917969"/>
      <use xlink:href="#DejaVuSans-64" x="877.441406"/>
      <use xlink:href="#DejaVuSans-20" x="940.917969"/>
      <use xlink:href="#DejaVuSans-47" x="972.705078"/>
      <use xlink:href="#DejaVuSans-4d" x="1050.195312"/>
      <use xlink:href="#DejaVuSans-73" x="1136.474609"/>
     </g>
    </g>
    <g id="line2d_120">
     <path d="M 249.4745 58.9867 
L 257.4745 58.9867 
L 265.4745 58.9867 
" style="fill: none; stroke: #ff0000; stroke-width: 2; stroke-linecap: square"/>
    </g>
    <g id="text_8">
     <!-- GCIM median -->
     <g transform="translate(271.8745 61.7867) scale(0.08 -0.08)">
      <defs>
       <path id="DejaVuSans-43" d="M 4122 4306 
L 4122 3641 
Q 3803 3938 3442 4084 
Q 3081 4231 2675 4231 
Q 1875 4231 1450 3742 
Q 1025 3253 1025 2328 
Q 1025 1406 1450 917 
Q 1875 428 2675 428 
Q 3081 428 3442 575 
Q 3803 722 4122 1019 
L 4122 359 
Q 3791 134 3420 21 
Q 3050 -91 2638 -91 
Q 1578 -91 968 557 
Q 359 1206 359 2328 
Q 359 3453 968 4101 
Q 1578 4750 2638 4750 
Q 3056 4750 3426 4639 
Q 3797 4528 4122 4306 
z
" transform="scale(0.015625)"/>
       <path id="DejaVuSans-6d" d="M 3328 2828 
Q 3544 3216 3844 3400 
Q 4144 3584 4550 3584 
Q 5097 3584 5394 3201 
Q 5691 2819 5691 2113 
L 5691 0 
L 5113 0 
L 5113 2094 
Q 5113 2597 4934 2840 
Q 4756 3084 4391 3084 
Q 3944 3084 3684 2787 
Q 3425 2491 3425 1978 
L 3425 0 
L 2847 0 
L 2847 2094 
Q 2847 2600 2669 2842 
Q 2491 3084 2119 3084 
Q 1678 3084 1418 2786 
Q 1159 2488 1159 1978 
L 1159 0 
L 581 0 
L 581 3500 
L 1159 3500 
L 1159 2956 
Q 1356 3278 1631 3431 
Q 1906 3584 2284 3584 
Q 2666 3584 2933 3390 
Q 3200 3197 3328 2828 
z
" transform="scale(0.015625)"/>
      </defs>
      <use xlink:href="#DejaVuSans-47"/>
      <use xlink:href="#DejaVuSans-43" x="77.490234"/>
      <use xlink:href="#DejaVuSans-49" x="147.314453"/>
      <use xlink:href="#DejaVuSans-4d" x="176.806641"/>
      <use xlink:href="#DejaVuSans-20" x="263.085938"/>
      <use xlink:href="#DejaVuSans-6d" x="294.873047"/>
      <use xlink:href="#DejaVuSans-65" x="392.285156"/>
      <use xlink:href="#DejaVuSans-64" x="453.808594"/>
      <use xlink:href="#DejaVuSans-69" x="517.285156"/>
      <use xlink:href="#DejaVuSans-61" x="545.068359"/>
      <use xlink:href="#DejaVuSans-6e" x="606.347656"/>
     </g>
    </g>
    <g id="line2d_121">
     <path d="M 249.4745 72.01045 
L 257.4745 72.01045 
L 265.4745 72.01045 
" style="fill: none; stroke-dasharray: 7.4,3.2; stroke-dashoffset: 0; stroke: #ff0000; stroke-width: 2"/>
    </g>
    <g id="text_9">
     <!-- GCIM $16^{th}$ and $84^{th}$ percentiles -->
     <g transform="translate(271.8745 74.81045) scale(0.08 -0.08)">
      <defs>
       <path id="DejaVuSans-36" d="M 2113 2584 
Q 1688 2584 1439 2293 
Q 1191 2003 1191 1497 
Q 1191 994 1439 701 
Q 1688 409 2113 409 
Q 2538 409 2786 701 
Q 3034 994 3034 1497 
Q 3034 2003 2786 2293 
Q 2538 2584 2113 2584 
z
M 3366 4563 
L 3366 3988 
Q 3128 4100 2886 4159 
Q 2644 4219 2406 4219 
Q 1781 4219 1451 3797 
Q 1122 3375 1075 2522 
Q 1259 2794 1537 2939 
Q 1816 3084 2150 3084 
Q 2853 3084 3261 2657 
Q 3669 2231 3669 1497 
Q 3669 778 3244 343 
Q 2819 -91 2113 -91 
Q 1303 -91 875 529 
Q 447 1150 447 2328 
Q 447 3434 972 4092 
Q 1497 4750 2381 4750 
Q 2619 4750 2861 4703 
Q 3103 4656 3366 4563 
z
" transform="scale(0.015625)"/>
       <path id="DejaVuSans-Oblique-74" d="M 2706 3500 
L 2619 3053 
L 1472 3053 
L 1100 1153 
Q 1081 1047 1072 975 
Q 1063 903 1063 863 
Q 1063 663 1183 572 
Q 1303 481 1569 481 
L 2150 481 
L 2053 0 
L 1503 0 
Q 991 0 739 200 
Q 488 400 488 806 
Q 488 878 497 964 
Q 506 1050 525 1153 
L 897 3053 
L 409 3053 
L 500 3500 
L 978 3500 
L 1172 4494 
L 1747 4494 
L 1556 3500 
L 2706 3500 
z
" transform="scale(0.015625)"/>
       <path id="DejaVuSans-Oblique-68" d="M 3566 2113 
L 3156 0 
L 2578 0 
L 2988 2091 
Q 3016 2238 3031 2350 
Q 3047 2463 3047 2528 
Q 3047 2791 2881 2937 
Q 2716 3084 2419 3084 
Q 1956 3084 1617 2771 
Q 1278 2459 1178 1941 
L 800 0 
L 225 0 
L 1172 4863 
L 1747 4863 
L 1375 2950 
Q 1594 3244 1934 3414 
Q 2275 3584 2650 3584 
Q 3113 3584 3367 3334 
Q 3622 3084 3622 2631 
Q 3622 2519 3608 2391 
Q 3594 2263 3566 2113 
z
" transform="scale(0.015625)"/>
       <path id="DejaVuSans-38" d="M 2034 2216 
Q 1584 2216 1326 1975 
Q 1069 1734 1069 1313 
Q 1069 891 1326 650 
Q 1584 409 2034 409 
Q 2484 409 2743 651 
Q 3003 894 3003 1313 
Q 3003 1734 2745 1975 
Q 2488 2216 2034 2216 
z
M 1403 2484 
Q 997 2584 770 2862 
Q 544 3141 544 3541 
Q 544 4100 942 4425 
Q 1341 4750 2034 4750 
Q 2731 4750 3128 4425 
Q 3525 4100 3525 3541 
Q 3525 3141 3298 2862 
Q 3072 2584 2669 2484 
Q 3125 2378 3379 2068 
Q 3634 1759 3634 1313 
Q 3634 634 3220 271 
Q 2806 -91 2034 -91 
Q 1263 -91 848 271 
Q 434 634 434 1313 
Q 434 1759 690 2068 
Q 947 2378 1403 2484 
z
M 1172 3481 
Q 1172 3119 1398 2916 
Q 1625 2713 2034 2713 
Q 2441 2713 2670 2916 
Q 2900 3119 2900 3481 
Q 2900 3844 2670 4047 
Q 2441 4250 2034 4250 
Q 1625 4250 1398 4047 
Q 1172 3844 1172 3481 
z
" transform="scale(0.015625)"/>
       <path id="DejaVuSans-34" d="M 2419 4116 
L 825 1625 
L 2419 1625 
L 2419 4116 
z
M 2253 4666 
L 3047 4666 
L 3047 1625 
L 3713 1625 
L 3713 1100 
L 3047 1100 
L 3047 0 
L 2419 0 
L 2419 1100 
L 313 1100 
L 313 1709 
L 2253 4666 
z
" transform="scale(0.015625)"/>
      </defs>
      <use xlink:href="#DejaVuSans-47" transform="translate(0 0.529687)"/>
      <use xlink:href="#DejaVuSans-43" transform="translate(77.490234 0.529687)"/>
      <use xlink:href="#DejaVuSans-49" transform="translate(147.314453 0.529687)"/>
      <use xlink:href="#DejaVuSans-4d" transform="translate(176.806641 0.529687)"/>
      <use xlink:href="#DejaVuSans-20" transform="translate(263.085938 0.529687)"/>
      <use xlink:href="#DejaVuSans-31" transform="translate(294.873047 0.529687)"/>
      <use xlink:href="#DejaVuSans-36" transform="translate(358.496094 0.529687)"/>
      <use xlink:href="#DejaVuSans-Oblique-74" transform="translate(423.076172 38.810937) scale(0.7)"/>
      <use xlink:href="#DejaVuSans-Oblique-68" transform="translate(450.522461 38.810937) scale(0.7)"/>
      <use xlink:href="#DejaVuSans-20" transform="translate(497.62207 0.529687)"/>
      <use xlink:href="#DejaVuSans-61" transform="translate(529.40918 0.529687)"/>
      <use xlink:href="#DejaVuSans-6e" transform="translate(590.688477 0.529687)"/>
      <use xlink:href="#DejaVuSans-64" transform="translate(654.067383 0.529687)"/>
      <use xlink:href="#DejaVuSans-20" transform="translate(717.543945 0.529687)"/>
      <use xlink:href="#DejaVuSans-38" transform="translate(749.331055 0.529687)"/>
      <use xlink:href="#DejaVuSans-34" transform="translate(812.954102 0.529687)"/>
      <use xlink:href="#DejaVuSans-Oblique-74" transform="translate(877.53418 38.810937) scale(0.7)"/>
      <use xlink:href="#DejaVuSans-Oblique-68" transform="translate(904.980469 38.810937) scale(0.7)"/>
      <use xlink:href="#DejaVuSans-20" transform="translate(952.080078 0.529687)"/>
      <use xlink:href="#DejaVuSans-70" transform="translate(983.867188 0.529687)"/>
      <use xlink:href="#DejaVuSans-65" transform="translate(1047.34375 0.529687)"/>
      <use xlink:href="#DejaVuSans-72" transform="translate(1108.867188 0.529687)"/>
      <use xlink:href="#DejaVuSans-63" transform="translate(1149.980469 0.529687)"/>
      <use xlink:href="#DejaVuSans-65" transform="translate(1204.960938 0.529687)"/>
      <use xlink:href="#DejaVuSans-6e" transform="translate(1266.484375 0.529687)"/>
      <use xlink:href="#DejaVuSans-74" transform="translate(1329.863281 0.529687)"/>
      <use xlink:href="#DejaVuSans-69" transform="translate(1369.072266 0.529687)"/>
      <use xlink:href="#DejaVuSans-6c" transform="translate(1396.855469 0.529687)"/>
      <use xlink:href="#DejaVuSans-65" transform="translate(1424.638672 0.529687)"/>
      <use xlink:href="#DejaVuSans-73" transform="translate(1486.162109 0.529687)"/>
     </g>
    </g>
    <g id="line2d_122">
     <path d="M 249.4745 83.7692 
L 257.4745 83.7692 
L 265.4745 83.7692 
" style="fill: none; stroke: #0000ff; stroke-width: 2; stroke-linecap: square"/>
    </g>
    <g id="text_10">
     <!-- Selected GMs median -->
     <g transform="translate(271.8745 86.5692) scale(0.08 -0.08)">
      <use xlink:href="#DejaVuSans-53"/>
      <use xlink:href="#DejaVuSans-65" x="63.476562"/>
      <use xlink:href="#DejaVuSans-6c" x="125"/>
      <use xlink:href="#DejaVuSans-65" x="152.783203"/>
      <use xlink:href="#DejaVuSans-63" x="214.306641"/>
      <use xlink:href="#DejaVuSans-74" x="269.287109"/>
      <use xlink:href="#DejaVuSans-65" x="308.496094"/>
      <use xlink:href="#DejaVuSans-64" x="370.019531"/>
      <use xlink:href="#DejaVuSans-20" x="433.496094"/>
      <use xlink:href="#DejaVuSans-47" x="465.283203"/>
      <use xlink:href="#DejaVuSans-4d" x="542.773438"/>
      <use xlink:href="#DejaVuSans-73" x="629.052734"/>
      <use xlink:href="#DejaVuSans-20" x="681.152344"/>
      <use xlink:href="#DejaVuSans-6d" x="712.939453"/>
      <use xlink:href="#DejaVuSans-65" x="810.351562"/>
      <use xlink:href="#DejaVuSans-64" x="871.875"/>
      <use xlink:href="#DejaVuSans-69" x="935.351562"/>
      <use xlink:href="#DejaVuSans-61" x="963.134766"/>
      <use xlink:href="#DejaVuSans-6e" x="1024.414062"/>
     </g>
    </g>
    <g id="line2d_123">
     <path d="M 249.4745 96.79295 
L 257.4745 96.79295 
L 265.4745 96.79295 
" style="fill: none; stroke-dasharray: 7.4,3.2; stroke-dashoffset: 0; stroke: #0000ff; stroke-width: 2"/>
    </g>
    <g id="text_11">
     <!-- Selected GMs, $16^{th}$ and $84^{th}$ percentiles -->
     <g transform="translate(271.8745 99.59295) scale(0.08 -0.08)">
      <use xlink:href="#DejaVuSans-53" transform="translate(0 0.529687)"/>
      <use xlink:href="#DejaVuSans-65" transform="translate(63.476562 0.529687)"/>
      <use xlink:href="#DejaVuSans-6c" transform="translate(125 0.529687)"/>
      <use xlink:href="#DejaVuSans-65" transform="translate(152.783203 0.529687)"/>
      <use xlink:href="#DejaVuSans-63" transform="translate(214.306641 0.529687)"/>
      <use xlink:href="#DejaVuSans-74" transform="translate(269.287109 0.529687)"/>
      <use xlink:href="#DejaVuSans-65" transform="translate(308.496094 0.529687)"/>
      <use xlink:href="#DejaVuSans-64" transform="translate(370.019531 0.529687)"/>
      <use xlink:href="#DejaVuSans-20" transform="translate(433.496094 0.529687)"/>
      <use xlink:href="#DejaVuSans-47" transform="translate(465.283203 0.529687)"/>
      <use xlink:href="#DejaVuSans-4d" transform="translate(542.773438 0.529687)"/>
      <use xlink:href="#DejaVuSans-73" transform="translate(629.052734 0.529687)"/>
      <use xlink:href="#DejaVuSans-2c" transform="translate(681.152344 0.529687)"/>
      <use xlink:href="#DejaVuSans-20" transform="translate(712.939453 0.529687)"/>
      <use xlink:href="#DejaVuSans-31" transform="translate(744.726562 0.529687)"/>
      <use xlink:href="#DejaVuSans-36" transform="translate(808.349609 0.529687)"/>
      <use xlink:href="#DejaVuSans-Oblique-74" transform="translate(872.929688 38.810937) scale(0.7)"/>
      <use xlink:href="#DejaVuSans-Oblique-68" transform="translate(900.375977 38.810937) scale(0.7)"/>
      <use xlink:href="#DejaVuSans-20" transform="translate(947.475586 0.529687)"/>
      <use xlink:href="#DejaVuSans-61" transform="translate(979.262695 0.529687)"/>
      <use xlink:href="#DejaVuSans-6e" transform="translate(1040.541992 0.529687)"/>
      <use xlink:href="#DejaVuSans-64" transform="translate(1103.920898 0.529687)"/>
      <use xlink:href="#DejaVuSans-20" transform="translate(1167.397461 0.529687)"/>
      <use xlink:href="#DejaVuSans-38" transform="translate(1199.18457 0.529687)"/>
      <use xlink:href="#DejaVuSans-34" transform="translate(1262.807617 0.529687)"/>
      <use xlink:href="#DejaVuSans-Oblique-74" transform="translate(1327.387695 38.810937) scale(0.7)"/>
      <use xlink:href="#DejaVuSans-Oblique-68" transform="translate(1354.833984 38.810937) scale(0.7)"/>
      <use xlink:href="#DejaVuSans-20" transform="translate(1401.933594 0.529687)"/>
      <use xlink:href="#DejaVuSans-70" transform="translate(1433.720703 0.529687)"/>
      <use xlink:href="#DejaVuSans-65" transform="translate(1497.197266 0.529687)"/>
      <use xlink:href="#DejaVuSans-72" transform="translate(1558.720703 0.529687)"/>
      <use xlink:href="#DejaVuSans-63" transform="translate(1599.833984 0.529687)"/>
      <use xlink:href="#DejaVuSans-65" transform="translate(1654.814453 0.529687)"/>
      <use xlink:href="#DejaVuSans-6e" transform="translate(1716.337891 0.529687)"/>
      <use xlink:href="#DejaVuSans-74" transform="translate(1779.716797 0.529687)"/>
      <use xlink:href="#DejaVuSans-69" transform="translate(1818.925781 0.529687)"/>
      <use xlink:href="#DejaVuSans-6c" transform="translate(1846.708984 0.529687)"/>
      <use xlink:href="#DejaVuSans-65" transform="translate(1874.492188 0.529687)"/>
      <use xlink:href="#DejaVuSans-73" transform="translate(1936.015625 0.529687)"/>
     </g>
    </g>
   </g>
  </g>
 </g>
 <defs>
  <clipPath id="pca3b5475a3">
   <rect x="44.7425" y="7.2" width="197.532" height="130.8384"/>
  </clipPath>
 </defs>
</svg>
