<?xml version="1.0" encoding="utf-8" standalone="no"?>
<!DOCTYPE svg PUBLIC "-//W3C//DTD SVG 1.1//EN"
  "http://www.w3.org/Graphics/SVG/1.1/DTD/svg11.dtd">
<svg xmlns:xlink="http://www.w3.org/1999/xlink" width="441.3945pt" height="171.7234pt" viewBox="0 0 441.3945 171.7234" xmlns="http://www.w3.org/2000/svg" version="1.1">
 <metadata>
  <rdf:RDF xmlns:dc="http://purl.org/dc/elements/1.1/" xmlns:cc="http://creativecommons.org/ns#" xmlns:rdf="http://www.w3.org/1999/02/22-rdf-syntax-ns#">
   <cc:Work>
    <dc:type rdf:resource="http://purl.org/dc/dcmitype/StillImage"/>
    <dc:date>2024-11-11T18:45:53.246587</dc:date>
    <dc:format>image/svg+xml</dc:format>
    <dc:creator>
     <cc:Agent>
      <dc:title>Matplotlib v3.8.2, https://matplotlib.org/</dc:title>
     </cc:Agent>
    </dc:creator>
   </cc:Work>
  </rdf:RDF>
 </metadata>
 <defs>
  <style type="text/css">*{stroke-linejoin: round; stroke-linecap: butt}</style>
 </defs>
 <g id="figure_1">
  <g id="patch_1">
   <path d="M 0 171.7234 
L 441.3945 171.7234 
L 441.3945 0 
L 0 0 
z
" style="fill: #ffffff"/>
  </g>
  <g id="axes_1">
   <g id="patch_2">
    <path d="M 44.7425 138.0384 
L 242.2745 138.0384 
L 242.2745 7.2 
L 44.7425 7.2 
z
" style="fill: #ffffff"/>
   </g>
   <g id="matplotlib.axis_1">
    <g id="xtick_1">
     <g id="line2d_1">
      <path d="M 53.721227 138.0384 
L 53.721227 7.2 
" clip-path="url(#pbbdbd515d0)" style="fill: none; stroke: #d9d9d9; stroke-width: 0.8; stroke-linecap: square"/>
     </g>
     <g id="line2d_2">
      <defs>
       <path id="mf9f8c8c52d" d="M 0 0 
L 0 3.5 
" style="stroke: #000000; stroke-width: 0.8"/>
      </defs>
      <g>
       <use xlink:href="#mf9f8c8c52d" x="53.721227" y="138.0384" style="stroke: #000000; stroke-width: 0.8"/>
      </g>
     </g>
     <g id="text_1">
      <!-- $\mathdefault{10^{-1}}$ -->
      <g transform="translate(44.321227 151.11715) scale(0.08 -0.08)">
       <defs>
        <path id="DejaVuSans-31" d="M 794 531 
L 1825 531 
L 1825 4091 
L 703 3866 
L 703 4441 
L 1819 4666 
L 2450 4666 
L 2450 531 
L 3481 531 
L 3481 0 
L 794 0 
L 794 531 
z
" transform="scale(0.015625)"/>
        <path id="DejaVuSans-30" d="M 2034 4250 
Q 1547 4250 1301 3770 
Q 1056 3291 1056 2328 
Q 1056 1369 1301 889 
Q 1547 409 2034 409 
Q 2525 409 2770 889 
Q 3016 1369 3016 2328 
Q 3016 3291 2770 3770 
Q 2525 4250 2034 4250 
z
M 2034 4750 
Q 2819 4750 3233 4129 
Q 3647 3509 3647 2328 
Q 3647 1150 3233 529 
Q 2819 -91 2034 -91 
Q 1250 -91 836 529 
Q 422 1150 422 2328 
Q 422 3509 836 4129 
Q 1250 4750 2034 4750 
z
" transform="scale(0.015625)"/>
        <path id="DejaVuSans-2212" d="M 678 2272 
L 4684 2272 
L 4684 1741 
L 678 1741 
L 678 2272 
z
" transform="scale(0.015625)"/>
       </defs>
       <use xlink:href="#DejaVuSans-31" transform="translate(0 0.684375)"/>
       <use xlink:href="#DejaVuSans-30" transform="translate(63.623047 0.684375)"/>
       <use xlink:href="#DejaVuSans-2212" transform="translate(128.203125 38.965625) scale(0.7)"/>
       <use xlink:href="#DejaVuSans-31" transform="translate(186.855469 38.965625) scale(0.7)"/>
      </g>
     </g>
    </g>
    <g id="xtick_2">
     <g id="line2d_3">
      <path d="M 165.811003 138.0384 
L 165.811003 7.2 
" clip-path="url(#pbbdbd515d0)" style="fill: none; stroke: #d9d9d9; stroke-width: 0.8; stroke-linecap: square"/>
     </g>
     <g id="line2d_4">
      <g>
       <use xlink:href="#mf9f8c8c52d" x="165.811003" y="138.0384" style="stroke: #000000; stroke-width: 0.8"/>
      </g>
     </g>
     <g id="text_2">
      <!-- $\mathdefault{10^{0}}$ -->
      <g transform="translate(158.771003 151.11715) scale(0.08 -0.08)">
       <use xlink:href="#DejaVuSans-31" transform="translate(0 0.765625)"/>
       <use xlink:href="#DejaVuSans-30" transform="translate(63.623047 0.765625)"/>
       <use xlink:href="#DejaVuSans-30" transform="translate(128.203125 39.046875) scale(0.7)"/>
      </g>
     </g>
    </g>
    <g id="xtick_3">
     <g id="line2d_5">
      <path d="M 48.59228 138.0384 
L 48.59228 7.2 
" clip-path="url(#pbbdbd515d0)" style="fill: none; stroke-dasharray: 2.96,1.28; stroke-dashoffset: 0; stroke: #f2f2f2; stroke-width: 0.8"/>
     </g>
     <g id="line2d_6">
      <defs>
       <path id="me339331455" d="M 0 0 
L 0 2 
" style="stroke: #000000; stroke-width: 0.6"/>
      </defs>
      <g>
       <use xlink:href="#me339331455" x="48.59228" y="138.0384" style="stroke: #000000; stroke-width: 0.6"/>
      </g>
     </g>
    </g>
    <g id="xtick_4">
     <g id="line2d_7">
      <path d="M 87.463612 138.0384 
L 87.463612 7.2 
" clip-path="url(#pbbdbd515d0)" style="fill: none; stroke-dasharray: 2.96,1.28; stroke-dashoffset: 0; stroke: #f2f2f2; stroke-width: 0.8"/>
     </g>
     <g id="line2d_8">
      <g>
       <use xlink:href="#me339331455" x="87.463612" y="138.0384" style="stroke: #000000; stroke-width: 0.6"/>
      </g>
     </g>
    </g>
    <g id="xtick_5">
     <g id="line2d_9">
      <path d="M 107.201642 138.0384 
L 107.201642 7.2 
" clip-path="url(#pbbdbd515d0)" style="fill: none; stroke-dasharray: 2.96,1.28; stroke-dashoffset: 0; stroke: #f2f2f2; stroke-width: 0.8"/>
     </g>
     <g id="line2d_10">
      <g>
       <use xlink:href="#me339331455" x="107.201642" y="138.0384" style="stroke: #000000; stroke-width: 0.6"/>
      </g>
     </g>
    </g>
    <g id="xtick_6">
     <g id="line2d_11">
      <path d="M 121.205997 138.0384 
L 121.205997 7.2 
" clip-path="url(#pbbdbd515d0)" style="fill: none; stroke-dasharray: 2.96,1.28; stroke-dashoffset: 0; stroke: #f2f2f2; stroke-width: 0.8"/>
     </g>
     <g id="line2d_12">
      <g>
       <use xlink:href="#me339331455" x="121.205997" y="138.0384" style="stroke: #000000; stroke-width: 0.6"/>
      </g>
     </g>
    </g>
    <g id="xtick_7">
     <g id="line2d_13">
      <path d="M 132.068618 138.0384 
L 132.068618 7.2 
" clip-path="url(#pbbdbd515d0)" style="fill: none; stroke-dasharray: 2.96,1.28; stroke-dashoffset: 0; stroke: #f2f2f2; stroke-width: 0.8"/>
     </g>
     <g id="line2d_14">
      <g>
       <use xlink:href="#me339331455" x="132.068618" y="138.0384" style="stroke: #000000; stroke-width: 0.6"/>
      </g>
     </g>
    </g>
    <g id="xtick_8">
     <g id="line2d_15">
      <path d="M 140.944027 138.0384 
L 140.944027 7.2 
" clip-path="url(#pbbdbd515d0)" style="fill: none; stroke-dasharray: 2.96,1.28; stroke-dashoffset: 0; stroke: #f2f2f2; stroke-width: 0.8"/>
     </g>
     <g id="line2d_16">
      <g>
       <use xlink:href="#me339331455" x="140.944027" y="138.0384" style="stroke: #000000; stroke-width: 0.6"/>
      </g>
     </g>
    </g>
    <g id="xtick_9">
     <g id="line2d_17">
      <path d="M 148.448077 138.0384 
L 148.448077 7.2 
" clip-path="url(#pbbdbd515d0)" style="fill: none; stroke-dasharray: 2.96,1.28; stroke-dashoffset: 0; stroke: #f2f2f2; stroke-width: 0.8"/>
     </g>
     <g id="line2d_18">
      <g>
       <use xlink:href="#me339331455" x="148.448077" y="138.0384" style="stroke: #000000; stroke-width: 0.6"/>
      </g>
     </g>
    </g>
    <g id="xtick_10">
     <g id="line2d_19">
      <path d="M 154.948382 138.0384 
L 154.948382 7.2 
" clip-path="url(#pbbdbd515d0)" style="fill: none; stroke-dasharray: 2.96,1.28; stroke-dashoffset: 0; stroke: #f2f2f2; stroke-width: 0.8"/>
     </g>
     <g id="line2d_20">
      <g>
       <use xlink:href="#me339331455" x="154.948382" y="138.0384" style="stroke: #000000; stroke-width: 0.6"/>
      </g>
     </g>
    </g>
    <g id="xtick_11">
     <g id="line2d_21">
      <path d="M 160.682056 138.0384 
L 160.682056 7.2 
" clip-path="url(#pbbdbd515d0)" style="fill: none; stroke-dasharray: 2.96,1.28; stroke-dashoffset: 0; stroke: #f2f2f2; stroke-width: 0.8"/>
     </g>
     <g id="line2d_22">
      <g>
       <use xlink:href="#me339331455" x="160.682056" y="138.0384" style="stroke: #000000; stroke-width: 0.6"/>
      </g>
     </g>
    </g>
    <g id="xtick_12">
     <g id="line2d_23">
      <path d="M 199.553388 138.0384 
L 199.553388 7.2 
" clip-path="url(#pbbdbd515d0)" style="fill: none; stroke-dasharray: 2.96,1.28; stroke-dashoffset: 0; stroke: #f2f2f2; stroke-width: 0.8"/>
     </g>
     <g id="line2d_24">
      <g>
       <use xlink:href="#me339331455" x="199.553388" y="138.0384" style="stroke: #000000; stroke-width: 0.6"/>
      </g>
     </g>
    </g>
    <g id="xtick_13">
     <g id="line2d_25">
      <path d="M 219.291418 138.0384 
L 219.291418 7.2 
" clip-path="url(#pbbdbd515d0)" style="fill: none; stroke-dasharray: 2.96,1.28; stroke-dashoffset: 0; stroke: #f2f2f2; stroke-width: 0.8"/>
     </g>
     <g id="line2d_26">
      <g>
       <use xlink:href="#me339331455" x="219.291418" y="138.0384" style="stroke: #000000; stroke-width: 0.6"/>
      </g>
     </g>
    </g>
    <g id="xtick_14">
     <g id="line2d_27">
      <path d="M 233.295773 138.0384 
L 233.295773 7.2 
" clip-path="url(#pbbdbd515d0)" style="fill: none; stroke-dasharray: 2.96,1.28; stroke-dashoffset: 0; stroke: #f2f2f2; stroke-width: 0.8"/>
     </g>
     <g id="line2d_28">
      <g>
       <use xlink:href="#me339331455" x="233.295773" y="138.0384" style="stroke: #000000; stroke-width: 0.6"/>
      </g>
     </g>
    </g>
    <g id="text_3">
     <!-- Period, T (s) -->
     <g transform="translate(119.576 162.85965) scale(0.08 -0.08)">
      <defs>
       <path id="DejaVuSans-50" d="M 1259 4147 
L 1259 2394 
L 2053 2394 
Q 2494 2394 2734 2622 
Q 2975 2850 2975 3272 
Q 2975 3691 2734 3919 
Q 2494 4147 2053 4147 
L 1259 4147 
z
M 628 4666 
L 2053 4666 
Q 2838 4666 3239 4311 
Q 3641 3956 3641 3272 
Q 3641 2581 3239 2228 
Q 2838 1875 2053 1875 
L 1259 1875 
L 1259 0 
L 628 0 
L 628 4666 
z
" transform="scale(0.015625)"/>
       <path id="DejaVuSans-65" d="M 3597 1894 
L 3597 1613 
L 953 1613 
Q 991 1019 1311 708 
Q 1631 397 2203 397 
Q 2534 397 2845 478 
Q 3156 559 3463 722 
L 3463 178 
Q 3153 47 2828 -22 
Q 2503 -91 2169 -91 
Q 1331 -91 842 396 
Q 353 884 353 1716 
Q 353 2575 817 3079 
Q 1281 3584 2069 3584 
Q 2775 3584 3186 3129 
Q 3597 2675 3597 1894 
z
M 3022 2063 
Q 3016 2534 2758 2815 
Q 2500 3097 2075 3097 
Q 1594 3097 1305 2825 
Q 1016 2553 972 2059 
L 3022 2063 
z
" transform="scale(0.015625)"/>
       <path id="DejaVuSans-72" d="M 2631 2963 
Q 2534 3019 2420 3045 
Q 2306 3072 2169 3072 
Q 1681 3072 1420 2755 
Q 1159 2438 1159 1844 
L 1159 0 
L 581 0 
L 581 3500 
L 1159 3500 
L 1159 2956 
Q 1341 3275 1631 3429 
Q 1922 3584 2338 3584 
Q 2397 3584 2469 3576 
Q 2541 3569 2628 3553 
L 2631 2963 
z
" transform="scale(0.015625)"/>
       <path id="DejaVuSans-69" d="M 603 3500 
L 1178 3500 
L 1178 0 
L 603 0 
L 603 3500 
z
M 603 4863 
L 1178 4863 
L 1178 4134 
L 603 4134 
L 603 4863 
z
" transform="scale(0.015625)"/>
       <path id="DejaVuSans-6f" d="M 1959 3097 
Q 1497 3097 1228 2736 
Q 959 2375 959 1747 
Q 959 1119 1226 758 
Q 1494 397 1959 397 
Q 2419 397 2687 759 
Q 2956 1122 2956 1747 
Q 2956 2369 2687 2733 
Q 2419 3097 1959 3097 
z
M 1959 3584 
Q 2709 3584 3137 3096 
Q 3566 2609 3566 1747 
Q 3566 888 3137 398 
Q 2709 -91 1959 -91 
Q 1206 -91 779 398 
Q 353 888 353 1747 
Q 353 2609 779 3096 
Q 1206 3584 1959 3584 
z
" transform="scale(0.015625)"/>
       <path id="DejaVuSans-64" d="M 2906 2969 
L 2906 4863 
L 3481 4863 
L 3481 0 
L 2906 0 
L 2906 525 
Q 2725 213 2448 61 
Q 2172 -91 1784 -91 
Q 1150 -91 751 415 
Q 353 922 353 1747 
Q 353 2572 751 3078 
Q 1150 3584 1784 3584 
Q 2172 3584 2448 3432 
Q 2725 3281 2906 2969 
z
M 947 1747 
Q 947 1113 1208 752 
Q 1469 391 1925 391 
Q 2381 391 2643 752 
Q 2906 1113 2906 1747 
Q 2906 2381 2643 2742 
Q 2381 3103 1925 3103 
Q 1469 3103 1208 2742 
Q 947 2381 947 1747 
z
" transform="scale(0.015625)"/>
       <path id="DejaVuSans-2c" d="M 750 794 
L 1409 794 
L 1409 256 
L 897 -744 
L 494 -744 
L 750 256 
L 750 794 
z
" transform="scale(0.015625)"/>
       <path id="DejaVuSans-20" transform="scale(0.015625)"/>
       <path id="DejaVuSans-54" d="M -19 4666 
L 3928 4666 
L 3928 4134 
L 2272 4134 
L 2272 0 
L 1638 0 
L 1638 4134 
L -19 4134 
L -19 4666 
z
" transform="scale(0.015625)"/>
       <path id="DejaVuSans-28" d="M 1984 4856 
Q 1566 4138 1362 3434 
Q 1159 2731 1159 2009 
Q 1159 1288 1364 580 
Q 1569 -128 1984 -844 
L 1484 -844 
Q 1016 -109 783 600 
Q 550 1309 550 2009 
Q 550 2706 781 3412 
Q 1013 4119 1484 4856 
L 1984 4856 
z
" transform="scale(0.015625)"/>
       <path id="DejaVuSans-73" d="M 2834 3397 
L 2834 2853 
Q 2591 2978 2328 3040 
Q 2066 3103 1784 3103 
Q 1356 3103 1142 2972 
Q 928 2841 928 2578 
Q 928 2378 1081 2264 
Q 1234 2150 1697 2047 
L 1894 2003 
Q 2506 1872 2764 1633 
Q 3022 1394 3022 966 
Q 3022 478 2636 193 
Q 2250 -91 1575 -91 
Q 1294 -91 989 -36 
Q 684 19 347 128 
L 347 722 
Q 666 556 975 473 
Q 1284 391 1588 391 
Q 1994 391 2212 530 
Q 2431 669 2431 922 
Q 2431 1156 2273 1281 
Q 2116 1406 1581 1522 
L 1381 1569 
Q 847 1681 609 1914 
Q 372 2147 372 2553 
Q 372 3047 722 3315 
Q 1072 3584 1716 3584 
Q 2034 3584 2315 3537 
Q 2597 3491 2834 3397 
z
" transform="scale(0.015625)"/>
       <path id="DejaVuSans-29" d="M 513 4856 
L 1013 4856 
Q 1481 4119 1714 3412 
Q 1947 2706 1947 2009 
Q 1947 1309 1714 600 
Q 1481 -109 1013 -844 
L 513 -844 
Q 928 -128 1133 580 
Q 1338 1288 1338 2009 
Q 1338 2731 1133 3434 
Q 928 4138 513 4856 
z
" transform="scale(0.015625)"/>
      </defs>
      <use xlink:href="#DejaVuSans-50"/>
      <use xlink:href="#DejaVuSans-65" x="56.677734"/>
      <use xlink:href="#DejaVuSans-72" x="118.201172"/>
      <use xlink:href="#DejaVuSans-69" x="159.314453"/>
      <use xlink:href="#DejaVuSans-6f" x="187.097656"/>
      <use xlink:href="#DejaVuSans-64" x="248.279297"/>
      <use xlink:href="#DejaVuSans-2c" x="311.755859"/>
      <use xlink:href="#DejaVuSans-20" x="343.542969"/>
      <use xlink:href="#DejaVuSans-54" x="375.330078"/>
      <use xlink:href="#DejaVuSans-20" x="436.414062"/>
      <use xlink:href="#DejaVuSans-28" x="468.201172"/>
      <use xlink:href="#DejaVuSans-73" x="507.214844"/>
      <use xlink:href="#DejaVuSans-29" x="559.314453"/>
     </g>
    </g>
   </g>
   <g id="matplotlib.axis_2">
    <g id="ytick_1">
     <g id="line2d_29">
      <path d="M 44.7425 112.98631 
L 242.2745 112.98631 
" clip-path="url(#pbbdbd515d0)" style="fill: none; stroke: #d9d9d9; stroke-width: 0.8; stroke-linecap: square"/>
     </g>
     <g id="line2d_30">
      <defs>
       <path id="m3377cca88d" d="M 0 0 
L -3.5 0 
" style="stroke: #000000; stroke-width: 0.8"/>
      </defs>
      <g>
       <use xlink:href="#m3377cca88d" x="44.7425" y="112.98631" style="stroke: #000000; stroke-width: 0.8"/>
      </g>
     </g>
     <g id="text_4">
      <!-- $\mathdefault{10^{-2}}$ -->
      <g transform="translate(18.9425 116.025685) scale(0.08 -0.08)">
       <defs>
        <path id="DejaVuSans-32" d="M 1228 531 
L 3431 531 
L 3431 0 
L 469 0 
L 469 531 
Q 828 903 1448 1529 
Q 2069 2156 2228 2338 
Q 2531 2678 2651 2914 
Q 2772 3150 2772 3378 
Q 2772 3750 2511 3984 
Q 2250 4219 1831 4219 
Q 1534 4219 1204 4116 
Q 875 4013 500 3803 
L 500 4441 
Q 881 4594 1212 4672 
Q 1544 4750 1819 4750 
Q 2544 4750 2975 4387 
Q 3406 4025 3406 3419 
Q 3406 3131 3298 2873 
Q 3191 2616 2906 2266 
Q 2828 2175 2409 1742 
Q 1991 1309 1228 531 
z
" transform="scale(0.015625)"/>
       </defs>
       <use xlink:href="#DejaVuSans-31" transform="translate(0 0.765625)"/>
       <use xlink:href="#DejaVuSans-30" transform="translate(63.623047 0.765625)"/>
       <use xlink:href="#DejaVuSans-2212" transform="translate(128.203125 39.046875) scale(0.7)"/>
       <use xlink:href="#DejaVuSans-32" transform="translate(186.855469 39.046875) scale(0.7)"/>
      </g>
     </g>
    </g>
    <g id="ytick_2">
     <g id="line2d_31">
      <path d="M 44.7425 55.75189 
L 242.2745 55.75189 
" clip-path="url(#pbbdbd515d0)" style="fill: none; stroke: #d9d9d9; stroke-width: 0.8; stroke-linecap: square"/>
     </g>
     <g id="line2d_32">
      <g>
       <use xlink:href="#m3377cca88d" x="44.7425" y="55.75189" style="stroke: #000000; stroke-width: 0.8"/>
      </g>
     </g>
     <g id="text_5">
      <!-- $\mathdefault{10^{-1}}$ -->
      <g transform="translate(18.9425 58.791265) scale(0.08 -0.08)">
       <use xlink:href="#DejaVuSans-31" transform="translate(0 0.684375)"/>
       <use xlink:href="#DejaVuSans-30" transform="translate(63.623047 0.684375)"/>
       <use xlink:href="#DejaVuSans-2212" transform="translate(128.203125 38.965625) scale(0.7)"/>
       <use xlink:href="#DejaVuSans-31" transform="translate(186.855469 38.965625) scale(0.7)"/>
      </g>
     </g>
    </g>
    <g id="ytick_3">
     <g id="line2d_33">
      <path d="M 44.7425 135.762175 
L 242.2745 135.762175 
" clip-path="url(#pbbdbd515d0)" style="fill: none; stroke-dasharray: 2.96,1.28; stroke-dashoffset: 0; stroke: #f2f2f2; stroke-width: 0.8"/>
     </g>
     <g id="line2d_34">
      <defs>
       <path id="ma79fe62e20" d="M 0 0 
L -2 0 
" style="stroke: #000000; stroke-width: 0.6"/>
      </defs>
      <g>
       <use xlink:href="#ma79fe62e20" x="44.7425" y="135.762175" style="stroke: #000000; stroke-width: 0.6"/>
      </g>
     </g>
    </g>
    <g id="ytick_4">
     <g id="line2d_35">
      <path d="M 44.7425 130.215587 
L 242.2745 130.215587 
" clip-path="url(#pbbdbd515d0)" style="fill: none; stroke-dasharray: 2.96,1.28; stroke-dashoffset: 0; stroke: #f2f2f2; stroke-width: 0.8"/>
     </g>
     <g id="line2d_36">
      <g>
       <use xlink:href="#ma79fe62e20" x="44.7425" y="130.215587" style="stroke: #000000; stroke-width: 0.6"/>
      </g>
     </g>
    </g>
    <g id="ytick_5">
     <g id="line2d_37">
      <path d="M 44.7425 125.683694 
L 242.2745 125.683694 
" clip-path="url(#pbbdbd515d0)" style="fill: none; stroke-dasharray: 2.96,1.28; stroke-dashoffset: 0; stroke: #f2f2f2; stroke-width: 0.8"/>
     </g>
     <g id="line2d_38">
      <g>
       <use xlink:href="#ma79fe62e20" x="44.7425" y="125.683694" style="stroke: #000000; stroke-width: 0.6"/>
      </g>
     </g>
    </g>
    <g id="ytick_6">
     <g id="line2d_39">
      <path d="M 44.7425 121.852034 
L 242.2745 121.852034 
" clip-path="url(#pbbdbd515d0)" style="fill: none; stroke-dasharray: 2.96,1.28; stroke-dashoffset: 0; stroke: #f2f2f2; stroke-width: 0.8"/>
     </g>
     <g id="line2d_40">
      <g>
       <use xlink:href="#ma79fe62e20" x="44.7425" y="121.852034" style="stroke: #000000; stroke-width: 0.6"/>
      </g>
     </g>
    </g>
    <g id="ytick_7">
     <g id="line2d_41">
      <path d="M 44.7425 118.532898 
L 242.2745 118.532898 
" clip-path="url(#pbbdbd515d0)" style="fill: none; stroke-dasharray: 2.96,1.28; stroke-dashoffset: 0; stroke: #f2f2f2; stroke-width: 0.8"/>
     </g>
     <g id="line2d_42">
      <g>
       <use xlink:href="#ma79fe62e20" x="44.7425" y="118.532898" style="stroke: #000000; stroke-width: 0.6"/>
      </g>
     </g>
    </g>
    <g id="ytick_8">
     <g id="line2d_43">
      <path d="M 44.7425 115.605213 
L 242.2745 115.605213 
" clip-path="url(#pbbdbd515d0)" style="fill: none; stroke-dasharray: 2.96,1.28; stroke-dashoffset: 0; stroke: #f2f2f2; stroke-width: 0.8"/>
     </g>
     <g id="line2d_44">
      <g>
       <use xlink:href="#ma79fe62e20" x="44.7425" y="115.605213" style="stroke: #000000; stroke-width: 0.6"/>
      </g>
     </g>
    </g>
    <g id="ytick_9">
     <g id="line2d_45">
      <path d="M 44.7425 95.757033 
L 242.2745 95.757033 
" clip-path="url(#pbbdbd515d0)" style="fill: none; stroke-dasharray: 2.96,1.28; stroke-dashoffset: 0; stroke: #f2f2f2; stroke-width: 0.8"/>
     </g>
     <g id="line2d_46">
      <g>
       <use xlink:href="#ma79fe62e20" x="44.7425" y="95.757033" style="stroke: #000000; stroke-width: 0.6"/>
      </g>
     </g>
    </g>
    <g id="ytick_10">
     <g id="line2d_47">
      <path d="M 44.7425 85.678552 
L 242.2745 85.678552 
" clip-path="url(#pbbdbd515d0)" style="fill: none; stroke-dasharray: 2.96,1.28; stroke-dashoffset: 0; stroke: #f2f2f2; stroke-width: 0.8"/>
     </g>
     <g id="line2d_48">
      <g>
       <use xlink:href="#ma79fe62e20" x="44.7425" y="85.678552" style="stroke: #000000; stroke-width: 0.6"/>
      </g>
     </g>
    </g>
    <g id="ytick_11">
     <g id="line2d_49">
      <path d="M 44.7425 78.527756 
L 242.2745 78.527756 
" clip-path="url(#pbbdbd515d0)" style="fill: none; stroke-dasharray: 2.96,1.28; stroke-dashoffset: 0; stroke: #f2f2f2; stroke-width: 0.8"/>
     </g>
     <g id="line2d_50">
      <g>
       <use xlink:href="#ma79fe62e20" x="44.7425" y="78.527756" style="stroke: #000000; stroke-width: 0.6"/>
      </g>
     </g>
    </g>
    <g id="ytick_12">
     <g id="line2d_51">
      <path d="M 44.7425 72.981168 
L 242.2745 72.981168 
" clip-path="url(#pbbdbd515d0)" style="fill: none; stroke-dasharray: 2.96,1.28; stroke-dashoffset: 0; stroke: #f2f2f2; stroke-width: 0.8"/>
     </g>
     <g id="line2d_52">
      <g>
       <use xlink:href="#ma79fe62e20" x="44.7425" y="72.981168" style="stroke: #000000; stroke-width: 0.6"/>
      </g>
     </g>
    </g>
    <g id="ytick_13">
     <g id="line2d_53">
      <path d="M 44.7425 68.449275 
L 242.2745 68.449275 
" clip-path="url(#pbbdbd515d0)" style="fill: none; stroke-dasharray: 2.96,1.28; stroke-dashoffset: 0; stroke: #f2f2f2; stroke-width: 0.8"/>
     </g>
     <g id="line2d_54">
      <g>
       <use xlink:href="#ma79fe62e20" x="44.7425" y="68.449275" style="stroke: #000000; stroke-width: 0.6"/>
      </g>
     </g>
    </g>
    <g id="ytick_14">
     <g id="line2d_55">
      <path d="M 44.7425 64.617614 
L 242.2745 64.617614 
" clip-path="url(#pbbdbd515d0)" style="fill: none; stroke-dasharray: 2.96,1.28; stroke-dashoffset: 0; stroke: #f2f2f2; stroke-width: 0.8"/>
     </g>
     <g id="line2d_56">
      <g>
       <use xlink:href="#ma79fe62e20" x="44.7425" y="64.617614" style="stroke: #000000; stroke-width: 0.6"/>
      </g>
     </g>
    </g>
    <g id="ytick_15">
     <g id="line2d_57">
      <path d="M 44.7425 61.298479 
L 242.2745 61.298479 
" clip-path="url(#pbbdbd515d0)" style="fill: none; stroke-dasharray: 2.96,1.28; stroke-dashoffset: 0; stroke: #f2f2f2; stroke-width: 0.8"/>
     </g>
     <g id="line2d_58">
      <g>
       <use xlink:href="#ma79fe62e20" x="44.7425" y="61.298479" style="stroke: #000000; stroke-width: 0.6"/>
      </g>
     </g>
    </g>
    <g id="ytick_16">
     <g id="line2d_59">
      <path d="M 44.7425 58.370794 
L 242.2745 58.370794 
" clip-path="url(#pbbdbd515d0)" style="fill: none; stroke-dasharray: 2.96,1.28; stroke-dashoffset: 0; stroke: #f2f2f2; stroke-width: 0.8"/>
     </g>
     <g id="line2d_60">
      <g>
       <use xlink:href="#ma79fe62e20" x="44.7425" y="58.370794" style="stroke: #000000; stroke-width: 0.6"/>
      </g>
     </g>
    </g>
    <g id="ytick_17">
     <g id="line2d_61">
      <path d="M 44.7425 38.522613 
L 242.2745 38.522613 
" clip-path="url(#pbbdbd515d0)" style="fill: none; stroke-dasharray: 2.96,1.28; stroke-dashoffset: 0; stroke: #f2f2f2; stroke-width: 0.8"/>
     </g>
     <g id="line2d_62">
      <g>
       <use xlink:href="#ma79fe62e20" x="44.7425" y="38.522613" style="stroke: #000000; stroke-width: 0.6"/>
      </g>
     </g>
    </g>
    <g id="ytick_18">
     <g id="line2d_63">
      <path d="M 44.7425 28.444132 
L 242.2745 28.444132 
" clip-path="url(#pbbdbd515d0)" style="fill: none; stroke-dasharray: 2.96,1.28; stroke-dashoffset: 0; stroke: #f2f2f2; stroke-width: 0.8"/>
     </g>
     <g id="line2d_64">
      <g>
       <use xlink:href="#ma79fe62e20" x="44.7425" y="28.444132" style="stroke: #000000; stroke-width: 0.6"/>
      </g>
     </g>
    </g>
    <g id="ytick_19">
     <g id="line2d_65">
      <path d="M 44.7425 21.293336 
L 242.2745 21.293336 
" clip-path="url(#pbbdbd515d0)" style="fill: none; stroke-dasharray: 2.96,1.28; stroke-dashoffset: 0; stroke: #f2f2f2; stroke-width: 0.8"/>
     </g>
     <g id="line2d_66">
      <g>
       <use xlink:href="#ma79fe62e20" x="44.7425" y="21.293336" style="stroke: #000000; stroke-width: 0.6"/>
      </g>
     </g>
    </g>
    <g id="ytick_20">
     <g id="line2d_67">
      <path d="M 44.7425 15.746748 
L 242.2745 15.746748 
" clip-path="url(#pbbdbd515d0)" style="fill: none; stroke-dasharray: 2.96,1.28; stroke-dashoffset: 0; stroke: #f2f2f2; stroke-width: 0.8"/>
     </g>
     <g id="line2d_68">
      <g>
       <use xlink:href="#ma79fe62e20" x="44.7425" y="15.746748" style="stroke: #000000; stroke-width: 0.6"/>
      </g>
     </g>
    </g>
    <g id="ytick_21">
     <g id="line2d_69">
      <path d="M 44.7425 11.214855 
L 242.2745 11.214855 
" clip-path="url(#pbbdbd515d0)" style="fill: none; stroke-dasharray: 2.96,1.28; stroke-dashoffset: 0; stroke: #f2f2f2; stroke-width: 0.8"/>
     </g>
     <g id="line2d_70">
      <g>
       <use xlink:href="#ma79fe62e20" x="44.7425" y="11.214855" style="stroke: #000000; stroke-width: 0.6"/>
      </g>
     </g>
    </g>
    <g id="ytick_22">
     <g id="line2d_71">
      <path d="M 44.7425 7.383195 
L 242.2745 7.383195 
" clip-path="url(#pbbdbd515d0)" style="fill: none; stroke-dasharray: 2.96,1.28; stroke-dashoffset: 0; stroke: #f2f2f2; stroke-width: 0.8"/>
     </g>
     <g id="line2d_72">
      <g>
       <use xlink:href="#ma79fe62e20" x="44.7425" y="7.383195" style="stroke: #000000; stroke-width: 0.6"/>
      </g>
     </g>
    </g>
    <g id="text_6">
     <!-- Spectral acceleration, SA (g) -->
     <g transform="translate(13.27875 129.871075) rotate(-90) scale(0.08 -0.08)">
      <defs>
       <path id="DejaVuSans-53" d="M 3425 4513 
L 3425 3897 
Q 3066 4069 2747 4153 
Q 2428 4238 2131 4238 
Q 1616 4238 1336 4038 
Q 1056 3838 1056 3469 
Q 1056 3159 1242 3001 
Q 1428 2844 1947 2747 
L 2328 2669 
Q 3034 2534 3370 2195 
Q 3706 1856 3706 1288 
Q 3706 609 3251 259 
Q 2797 -91 1919 -91 
Q 1588 -91 1214 -16 
Q 841 59 441 206 
L 441 856 
Q 825 641 1194 531 
Q 1563 422 1919 422 
Q 2459 422 2753 634 
Q 3047 847 3047 1241 
Q 3047 1584 2836 1778 
Q 2625 1972 2144 2069 
L 1759 2144 
Q 1053 2284 737 2584 
Q 422 2884 422 3419 
Q 422 4038 858 4394 
Q 1294 4750 2059 4750 
Q 2388 4750 2728 4690 
Q 3069 4631 3425 4513 
z
" transform="scale(0.015625)"/>
       <path id="DejaVuSans-70" d="M 1159 525 
L 1159 -1331 
L 581 -1331 
L 581 3500 
L 1159 3500 
L 1159 2969 
Q 1341 3281 1617 3432 
Q 1894 3584 2278 3584 
Q 2916 3584 3314 3078 
Q 3713 2572 3713 1747 
Q 3713 922 3314 415 
Q 2916 -91 2278 -91 
Q 1894 -91 1617 61 
Q 1341 213 1159 525 
z
M 3116 1747 
Q 3116 2381 2855 2742 
Q 2594 3103 2138 3103 
Q 1681 3103 1420 2742 
Q 1159 2381 1159 1747 
Q 1159 1113 1420 752 
Q 1681 391 2138 391 
Q 2594 391 2855 752 
Q 3116 1113 3116 1747 
z
" transform="scale(0.015625)"/>
       <path id="DejaVuSans-63" d="M 3122 3366 
L 3122 2828 
Q 2878 2963 2633 3030 
Q 2388 3097 2138 3097 
Q 1578 3097 1268 2742 
Q 959 2388 959 1747 
Q 959 1106 1268 751 
Q 1578 397 2138 397 
Q 2388 397 2633 464 
Q 2878 531 3122 666 
L 3122 134 
Q 2881 22 2623 -34 
Q 2366 -91 2075 -91 
Q 1284 -91 818 406 
Q 353 903 353 1747 
Q 353 2603 823 3093 
Q 1294 3584 2113 3584 
Q 2378 3584 2631 3529 
Q 2884 3475 3122 3366 
z
" transform="scale(0.015625)"/>
       <path id="DejaVuSans-74" d="M 1172 4494 
L 1172 3500 
L 2356 3500 
L 2356 3053 
L 1172 3053 
L 1172 1153 
Q 1172 725 1289 603 
Q 1406 481 1766 481 
L 2356 481 
L 2356 0 
L 1766 0 
Q 1100 0 847 248 
Q 594 497 594 1153 
L 594 3053 
L 172 3053 
L 172 3500 
L 594 3500 
L 594 4494 
L 1172 4494 
z
" transform="scale(0.015625)"/>
       <path id="DejaVuSans-61" d="M 2194 1759 
Q 1497 1759 1228 1600 
Q 959 1441 959 1056 
Q 959 750 1161 570 
Q 1363 391 1709 391 
Q 2188 391 2477 730 
Q 2766 1069 2766 1631 
L 2766 1759 
L 2194 1759 
z
M 3341 1997 
L 3341 0 
L 2766 0 
L 2766 531 
Q 2569 213 2275 61 
Q 1981 -91 1556 -91 
Q 1019 -91 701 211 
Q 384 513 384 1019 
Q 384 1609 779 1909 
Q 1175 2209 1959 2209 
L 2766 2209 
L 2766 2266 
Q 2766 2663 2505 2880 
Q 2244 3097 1772 3097 
Q 1472 3097 1187 3025 
Q 903 2953 641 2809 
L 641 3341 
Q 956 3463 1253 3523 
Q 1550 3584 1831 3584 
Q 2591 3584 2966 3190 
Q 3341 2797 3341 1997 
z
" transform="scale(0.015625)"/>
       <path id="DejaVuSans-6c" d="M 603 4863 
L 1178 4863 
L 1178 0 
L 603 0 
L 603 4863 
z
" transform="scale(0.015625)"/>
       <path id="DejaVuSans-6e" d="M 3513 2113 
L 3513 0 
L 2938 0 
L 2938 2094 
Q 2938 2591 2744 2837 
Q 2550 3084 2163 3084 
Q 1697 3084 1428 2787 
Q 1159 2491 1159 1978 
L 1159 0 
L 581 0 
L 581 3500 
L 1159 3500 
L 1159 2956 
Q 1366 3272 1645 3428 
Q 1925 3584 2291 3584 
Q 2894 3584 3203 3211 
Q 3513 2838 3513 2113 
z
" transform="scale(0.015625)"/>
       <path id="DejaVuSans-41" d="M 2188 4044 
L 1331 1722 
L 3047 1722 
L 2188 4044 
z
M 1831 4666 
L 2547 4666 
L 4325 0 
L 3669 0 
L 3244 1197 
L 1141 1197 
L 716 0 
L 50 0 
L 1831 4666 
z
" transform="scale(0.015625)"/>
       <path id="DejaVuSans-67" d="M 2906 1791 
Q 2906 2416 2648 2759 
Q 2391 3103 1925 3103 
Q 1463 3103 1205 2759 
Q 947 2416 947 1791 
Q 947 1169 1205 825 
Q 1463 481 1925 481 
Q 2391 481 2648 825 
Q 2906 1169 2906 1791 
z
M 3481 434 
Q 3481 -459 3084 -895 
Q 2688 -1331 1869 -1331 
Q 1566 -1331 1297 -1286 
Q 1028 -1241 775 -1147 
L 775 -588 
Q 1028 -725 1275 -790 
Q 1522 -856 1778 -856 
Q 2344 -856 2625 -561 
Q 2906 -266 2906 331 
L 2906 616 
Q 2728 306 2450 153 
Q 2172 0 1784 0 
Q 1141 0 747 490 
Q 353 981 353 1791 
Q 353 2603 747 3093 
Q 1141 3584 1784 3584 
Q 2172 3584 2450 3431 
Q 2728 3278 2906 2969 
L 2906 3500 
L 3481 3500 
L 3481 434 
z
" transform="scale(0.015625)"/>
      </defs>
      <use xlink:href="#DejaVuSans-53"/>
      <use xlink:href="#DejaVuSans-70" x="63.476562"/>
      <use xlink:href="#DejaVuSans-65" x="126.953125"/>
      <use xlink:href="#DejaVuSans-63" x="188.476562"/>
      <use xlink:href="#DejaVuSans-74" x="243.457031"/>
      <use xlink:href="#DejaVuSans-72" x="282.666016"/>
      <use xlink:href="#DejaVuSans-61" x="323.779297"/>
      <use xlink:href="#DejaVuSans-6c" x="385.058594"/>
      <use xlink:href="#DejaVuSans-20" x="412.841797"/>
      <use xlink:href="#DejaVuSans-61" x="444.628906"/>
      <use xlink:href="#DejaVuSans-63" x="505.908203"/>
      <use xlink:href="#DejaVuSans-63" x="560.888672"/>
      <use xlink:href="#DejaVuSans-65" x="615.869141"/>
      <use xlink:href="#DejaVuSans-6c" x="677.392578"/>
      <use xlink:href="#DejaVuSans-65" x="705.175781"/>
      <use xlink:href="#DejaVuSans-72" x="766.699219"/>
      <use xlink:href="#DejaVuSans-61" x="807.8125"/>
      <use xlink:href="#DejaVuSans-74" x="869.091797"/>
      <use xlink:href="#DejaVuSans-69" x="908.300781"/>
      <use xlink:href="#DejaVuSans-6f" x="936.083984"/>
      <use xlink:href="#DejaVuSans-6e" x="997.265625"/>
      <use xlink:href="#DejaVuSans-2c" x="1060.644531"/>
      <use xlink:href="#DejaVuSans-20" x="1092.431641"/>
      <use xlink:href="#DejaVuSans-53" x="1124.21875"/>
      <use xlink:href="#DejaVuSans-41" x="1189.570312"/>
      <use xlink:href="#DejaVuSans-20" x="1257.978516"/>
      <use xlink:href="#DejaVuSans-28" x="1289.765625"/>
      <use xlink:href="#DejaVuSans-67" x="1328.779297"/>
      <use xlink:href="#DejaVuSans-29" x="1392.255859"/>
     </g>
    </g>
   </g>
   <g id="line2d_73">
    <path d="M 53.721227 27.72689 
L 73.459257 30.71721 
L 87.463612 31.837737 
L 98.326234 37.390214 
L 107.201642 37.099917 
L 121.205997 38.325221 
L 131.480926 42.56228 
L 132.068618 42.898066 
L 151.806648 49.078575 
L 165.811003 56.93478 
L 178.582888 64.27736 
L 185.549033 71.738107 
L 199.553388 84.209577 
L 219.291418 104.814542 
L 233.295773 119.998749 
" clip-path="url(#pbbdbd515d0)" style="fill: none; stroke: #b2b2b2; stroke-width: 0.8; stroke-linecap: square"/>
   </g>
   <g id="line2d_74">
    <path d="M 53.721227 28.959894 
L 73.459257 28.925338 
L 87.463612 30.847298 
L 98.326234 34.510461 
L 107.201642 37.083188 
L 121.205997 38.602995 
L 131.480926 42.56228 
L 132.068618 42.535586 
L 151.806648 48.050146 
L 165.811003 55.949897 
L 178.582888 64.20339 
L 185.549033 65.155716 
L 199.553388 68.203384 
L 219.291418 80.360575 
L 233.295773 92.715959 
" clip-path="url(#pbbdbd515d0)" style="fill: none; stroke: #b2b2b2; stroke-width: 0.8; stroke-linecap: square"/>
   </g>
   <g id="line2d_75">
    <path d="M 53.721227 20.065959 
L 73.459257 24.590887 
L 87.463612 29.523774 
L 98.326234 31.601136 
L 107.201642 33.716838 
L 121.205997 37.946963 
L 131.480926 42.56228 
L 132.068618 42.994489 
L 151.806648 52.030812 
L 165.811003 56.926702 
L 178.582888 63.662639 
L 185.549033 70.15613 
L 199.553388 78.906449 
L 219.291418 96.965484 
L 233.295773 114.399105 
" clip-path="url(#pbbdbd515d0)" style="fill: none; stroke: #b2b2b2; stroke-width: 0.8; stroke-linecap: square"/>
   </g>
   <g id="line2d_76">
    <path d="M 53.721227 39.138061 
L 73.459257 36.750391 
L 87.463612 37.367642 
L 98.326234 37.580976 
L 107.201642 40.819989 
L 121.205997 41.249045 
L 131.480926 42.56228 
L 132.068618 42.691874 
L 151.806648 50.202414 
L 165.811003 54.712857 
L 178.582888 63.330997 
L 185.549033 68.610481 
L 199.553388 76.165419 
L 219.291418 88.481296 
L 233.295773 101.375651 
" clip-path="url(#pbbdbd515d0)" style="fill: none; stroke: #b2b2b2; stroke-width: 0.8; stroke-linecap: square"/>
   </g>
   <g id="line2d_77">
    <path d="M 53.721227 35.162482 
L 73.459257 33.549142 
L 87.463612 36.201441 
L 98.326234 39.756981 
L 107.201642 39.201382 
L 121.205997 41.103961 
L 131.480926 42.56228 
L 132.068618 42.644972 
L 151.806648 50.004011 
L 165.811003 54.981603 
L 178.582888 62.927132 
L 185.549033 69.430963 
L 199.553388 84.005744 
L 219.291418 108.181623 
L 233.295773 123.839363 
" clip-path="url(#pbbdbd515d0)" style="fill: none; stroke: #b2b2b2; stroke-width: 0.8; stroke-linecap: square"/>
   </g>
   <g id="line2d_78">
    <path d="M 53.721227 15.527565 
L 73.459257 19.093449 
L 87.463612 24.582632 
L 98.326234 29.762118 
L 107.201642 32.662801 
L 121.205997 37.727953 
L 131.480926 42.56228 
L 132.068618 42.746117 
L 151.806648 51.148401 
L 165.811003 60.591242 
L 178.582888 65.555281 
L 185.549033 67.855605 
L 199.553388 73.332672 
L 219.291418 84.307965 
L 233.295773 95.855076 
" clip-path="url(#pbbdbd515d0)" style="fill: none; stroke: #b2b2b2; stroke-width: 0.8; stroke-linecap: square"/>
   </g>
   <g id="line2d_79">
    <path d="M 53.721227 34.719752 
L 73.459257 34.042217 
L 87.463612 36.664974 
L 98.326234 38.425671 
L 107.201642 38.375698 
L 121.205997 39.890241 
L 131.480926 42.56228 
L 132.068618 42.815244 
L 151.806648 50.134126 
L 165.811003 56.228746 
L 178.582888 63.488193 
L 185.549033 70.066649 
L 199.553388 80.45101 
L 219.291418 96.7962 
L 233.295773 109.495817 
" clip-path="url(#pbbdbd515d0)" style="fill: none; stroke: #b2b2b2; stroke-width: 0.8; stroke-linecap: square"/>
   </g>
   <g id="line2d_80">
    <path d="M 53.721227 37.447815 
L 73.459257 36.309125 
L 87.463612 37.806573 
L 98.326234 38.588804 
L 107.201642 39.644533 
L 121.205997 40.222601 
L 131.480926 42.56228 
L 132.068618 42.245371 
L 151.806648 51.658094 
L 165.811003 57.729126 
L 178.582888 62.255011 
L 185.549033 64.670938 
L 199.553388 73.712144 
L 219.291418 80.652226 
L 233.295773 91.156877 
" clip-path="url(#pbbdbd515d0)" style="fill: none; stroke: #b2b2b2; stroke-width: 0.8; stroke-linecap: square"/>
   </g>
   <g id="line2d_81">
    <path d="M 53.721227 24.867336 
L 73.459257 26.410487 
L 87.463612 30.719087 
L 98.326234 31.295585 
L 107.201642 33.489928 
L 121.205997 39.138599 
L 131.480926 42.56228 
L 132.068618 43.010023 
L 151.806648 48.943869 
L 165.811003 56.114674 
L 178.582888 63.293733 
L 185.549033 65.934721 
L 199.553388 77.082355 
L 219.291418 94.509261 
L 233.295773 109.516464 
" clip-path="url(#pbbdbd515d0)" style="fill: none; stroke: #b2b2b2; stroke-width: 0.8; stroke-linecap: square"/>
   </g>
   <g id="line2d_82">
    <path d="M 53.721227 25.936919 
L 73.459257 21.843692 
L 87.463612 22.882329 
L 98.326234 27.777022 
L 107.201642 32.152716 
L 121.205997 38.353049 
L 131.480926 42.56228 
L 132.068618 42.681784 
L 151.806648 52.46149 
L 165.811003 62.35926 
L 178.582888 70.461525 
L 185.549033 76.253454 
L 199.553388 90.140025 
L 219.291418 102.065627 
L 233.295773 113.055937 
" clip-path="url(#pbbdbd515d0)" style="fill: none; stroke: #b2b2b2; stroke-width: 0.8; stroke-linecap: square"/>
   </g>
   <g id="line2d_83">
    <path d="M 53.721227 37.613883 
L 73.459257 40.110923 
L 87.463612 39.08242 
L 98.326234 38.914781 
L 107.201642 38.489985 
L 121.205997 40.735253 
L 131.480926 42.56228 
L 132.068618 42.557347 
L 151.806648 49.218413 
L 165.811003 51.163191 
L 178.582888 58.847872 
L 185.549033 59.167427 
L 199.553388 66.001722 
L 219.291418 78.6633 
L 233.295773 89.433907 
" clip-path="url(#pbbdbd515d0)" style="fill: none; stroke: #b2b2b2; stroke-width: 0.8; stroke-linecap: square"/>
   </g>
   <g id="line2d_84">
    <path d="M 53.721227 22.860445 
L 73.459257 20.074657 
L 87.463612 23.364198 
L 98.326234 28.006096 
L 107.201642 30.618333 
L 121.205997 37.487441 
L 131.480926 42.56228 
L 132.068618 42.64509 
L 151.806648 49.671079 
L 165.811003 55.27928 
L 178.582888 56.683717 
L 185.549033 61.034913 
L 199.553388 70.365771 
L 219.291418 87.242938 
L 233.295773 100.822214 
" clip-path="url(#pbbdbd515d0)" style="fill: none; stroke: #b2b2b2; stroke-width: 0.8; stroke-linecap: square"/>
   </g>
   <g id="line2d_85">
    <path d="M 53.721227 19.229782 
L 73.459257 18.952758 
L 87.463612 21.594544 
L 98.326234 25.114511 
L 107.201642 27.657036 
L 121.205997 37.010906 
L 131.480926 42.56228 
L 132.068618 42.869678 
L 151.806648 55.468765 
L 165.811003 65.984121 
L 178.582888 75.466897 
L 185.549033 81.848406 
L 199.553388 95.287123 
L 219.291418 113.847146 
L 233.295773 126.523066 
" clip-path="url(#pbbdbd515d0)" style="fill: none; stroke: #b2b2b2; stroke-width: 0.8; stroke-linecap: square"/>
   </g>
   <g id="line2d_86">
    <path d="M 53.721227 24.155589 
L 73.459257 22.219974 
L 87.463612 23.616587 
L 98.326234 26.079313 
L 107.201642 30.340126 
L 121.205997 38.577016 
L 131.480926 42.56228 
L 132.068618 42.857098 
L 151.806648 53.815409 
L 165.811003 64.986361 
L 178.582888 74.687265 
L 185.549033 77.267251 
L 199.553388 90.301796 
L 219.291418 101.739721 
L 233.295773 110.46856 
" clip-path="url(#pbbdbd515d0)" style="fill: none; stroke: #b2b2b2; stroke-width: 0.8; stroke-linecap: square"/>
   </g>
   <g id="line2d_87">
    <path d="M 53.721227 38.070377 
L 73.459257 39.164304 
L 87.463612 41.049047 
L 98.326234 42.31996 
L 107.201642 41.532674 
L 121.205997 40.430789 
L 131.480926 42.56228 
L 132.068618 42.753102 
L 151.806648 50.143647 
L 165.811003 58.197356 
L 178.582888 69.116557 
L 185.549033 75.99087 
L 199.553388 89.979987 
L 219.291418 109.858428 
L 233.295773 124.947273 
" clip-path="url(#pbbdbd515d0)" style="fill: none; stroke: #b2b2b2; stroke-width: 0.8; stroke-linecap: square"/>
   </g>
   <g id="line2d_88">
    <path d="M 53.721227 51.521115 
L 73.459257 49.5913 
L 87.463612 50.329691 
L 98.326234 50.211822 
L 107.201642 48.71492 
L 121.205997 43.407934 
L 131.480926 42.56228 
L 132.068618 42.731735 
L 151.806648 44.659696 
L 165.811003 51.311286 
L 178.582888 60.032303 
L 185.549033 65.747807 
L 199.553388 70.476226 
L 219.291418 84.819684 
L 233.295773 93.740656 
" clip-path="url(#pbbdbd515d0)" style="fill: none; stroke: #b2b2b2; stroke-width: 0.8; stroke-linecap: square"/>
   </g>
   <g id="line2d_89">
    <path d="M 53.721227 43.08594 
L 73.459257 40.170616 
L 87.463612 38.911638 
L 98.326234 40.318379 
L 107.201642 40.303541 
L 121.205997 39.606521 
L 131.480926 42.56228 
L 132.068618 42.810687 
L 151.806648 51.86903 
L 165.811003 61.976764 
L 178.582888 70.751268 
L 185.549033 76.253446 
L 199.553388 87.643617 
L 219.291418 100.714924 
L 233.295773 112.754291 
" clip-path="url(#pbbdbd515d0)" style="fill: none; stroke: #b2b2b2; stroke-width: 0.8; stroke-linecap: square"/>
   </g>
   <g id="line2d_90">
    <path d="M 53.721227 33.331254 
L 73.459257 33.412038 
L 87.463612 32.34211 
L 98.326234 33.970019 
L 107.201642 35.723377 
L 121.205997 39.053096 
L 131.480926 42.56228 
L 132.068618 42.910699 
L 151.806648 52.598043 
L 165.811003 59.951908 
L 178.582888 68.415167 
L 185.549033 75.917995 
L 199.553388 89.249384 
L 219.291418 106.614282 
L 233.295773 120.027312 
" clip-path="url(#pbbdbd515d0)" style="fill: none; stroke: #b2b2b2; stroke-width: 0.8; stroke-linecap: square"/>
   </g>
   <g id="line2d_91">
    <path d="M 53.721227 31.510939 
L 73.459257 31.075869 
L 87.463612 30.672388 
L 98.326234 30.498466 
L 107.201642 30.413193 
L 121.205997 38.016575 
L 131.480926 42.56228 
L 132.068618 42.598283 
L 151.806648 50.557017 
L 165.811003 57.206911 
L 178.582888 61.096942 
L 185.549033 64.938736 
L 199.553388 75.003839 
L 219.291418 87.287825 
L 233.295773 102.233336 
" clip-path="url(#pbbdbd515d0)" style="fill: none; stroke: #b2b2b2; stroke-width: 0.8; stroke-linecap: square"/>
   </g>
   <g id="line2d_92">
    <path d="M 53.721227 36.74542 
L 73.459257 34.133559 
L 87.463612 31.346435 
L 98.326234 32.354421 
L 107.201642 34.40901 
L 121.205997 38.687953 
L 131.480926 42.56228 
L 132.068618 42.424962 
L 151.806648 45.420152 
L 165.811003 47.369628 
L 178.582888 54.681746 
L 185.549033 61.397722 
L 199.553388 73.810698 
L 219.291418 89.900908 
L 233.295773 102.015154 
" clip-path="url(#pbbdbd515d0)" style="fill: none; stroke: #b2b2b2; stroke-width: 0.8; stroke-linecap: square"/>
   </g>
   <g id="line2d_93">
    <path d="M 53.721227 36.476434 
L 73.459257 34.019233 
L 87.463612 31.690519 
L 98.326234 32.046396 
L 107.201642 34.532777 
L 121.205997 39.900177 
L 131.480926 42.56228 
L 132.068618 42.750512 
L 151.806648 53.404626 
L 165.811003 64.63801 
L 178.582888 73.65872 
L 185.549033 77.333743 
L 199.553388 85.236675 
L 219.291418 98.263777 
L 233.295773 107.085688 
" clip-path="url(#pbbdbd515d0)" style="fill: none; stroke: #b2b2b2; stroke-width: 0.8; stroke-linecap: square"/>
   </g>
   <g id="line2d_94">
    <path d="M 53.721227 27.584471 
L 73.459257 27.857535 
L 87.463612 29.901615 
L 98.326234 34.167397 
L 107.201642 38.277727 
L 121.205997 39.828212 
L 131.480926 42.56228 
L 132.068618 42.753661 
L 151.806648 51.384544 
L 165.811003 55.923817 
L 178.582888 61.220992 
L 185.549033 67.684261 
L 199.553388 74.847206 
L 219.291418 92.125624 
L 233.295773 103.648681 
" clip-path="url(#pbbdbd515d0)" style="fill: none; stroke: #b2b2b2; stroke-width: 0.8; stroke-linecap: square"/>
   </g>
   <g id="line2d_95">
    <path d="M 53.721227 20.71846 
L 73.459257 21.311171 
L 87.463612 23.35366 
L 98.326234 26.830921 
L 107.201642 29.908029 
L 121.205997 38.116809 
L 131.480926 42.56228 
L 132.068618 42.953 
L 151.806648 50.415617 
L 165.811003 58.265235 
L 178.582888 69.405935 
L 185.549033 74.172811 
L 199.553388 84.760636 
L 219.291418 101.951704 
L 233.295773 115.052604 
" clip-path="url(#pbbdbd515d0)" style="fill: none; stroke: #b2b2b2; stroke-width: 0.8; stroke-linecap: square"/>
   </g>
   <g id="line2d_96">
    <path d="M 53.721227 13.235291 
L 73.459257 15.565797 
L 87.463612 20.911424 
L 98.326234 23.104445 
L 107.201642 27.682159 
L 121.205997 36.848205 
L 131.480926 42.56228 
L 132.068618 42.895773 
L 151.806648 58.965098 
L 165.811003 70.382759 
L 178.582888 82.26009 
L 185.549033 88.931158 
L 199.553388 99.625811 
L 219.291418 115.559543 
L 233.295773 127.415231 
" clip-path="url(#pbbdbd515d0)" style="fill: none; stroke: #b2b2b2; stroke-width: 0.8; stroke-linecap: square"/>
   </g>
   <g id="line2d_97">
    <path d="M 53.721227 36.507838 
L 73.459257 29.863838 
L 87.463612 26.051844 
L 98.326234 26.825071 
L 107.201642 29.634018 
L 121.205997 39.017959 
L 131.480926 42.56228 
L 132.068618 42.807379 
L 151.806648 56.092267 
L 165.811003 64.151327 
L 178.582888 76.051497 
L 185.549033 78.551531 
L 199.553388 85.347898 
L 219.291418 105.000507 
L 233.295773 121.205666 
" clip-path="url(#pbbdbd515d0)" style="fill: none; stroke: #b2b2b2; stroke-width: 0.8; stroke-linecap: square"/>
   </g>
   <g id="line2d_98">
    <path d="M 53.721227 24.132722 
L 73.459257 25.213016 
L 87.463612 25.860869 
L 98.326234 27.850289 
L 107.201642 30.26989 
L 121.205997 36.809988 
L 131.480926 42.56228 
L 132.068618 42.691886 
L 151.806648 55.350232 
L 165.811003 66.074804 
L 178.582888 77.226449 
L 185.549033 82.380552 
L 199.553388 92.481815 
L 219.291418 103.727781 
L 233.295773 115.405071 
" clip-path="url(#pbbdbd515d0)" style="fill: none; stroke: #b2b2b2; stroke-width: 0.8; stroke-linecap: square"/>
   </g>
   <g id="line2d_99">
    <path d="M 53.721227 32.500458 
L 73.459257 28.321858 
L 87.463612 25.945155 
L 98.326234 25.589685 
L 107.201642 28.939959 
L 121.205997 36.591657 
L 131.480926 42.56228 
L 132.068618 42.724294 
L 151.806648 57.065864 
L 165.811003 68.272955 
L 178.582888 78.996213 
L 185.549033 84.928191 
L 199.553388 95.983115 
L 219.291418 106.79826 
L 233.295773 114.485652 
" clip-path="url(#pbbdbd515d0)" style="fill: none; stroke: #b2b2b2; stroke-width: 0.8; stroke-linecap: square"/>
   </g>
   <g id="line2d_100">
    <path d="M 53.721227 31.325696 
L 73.459257 25.869242 
L 87.463612 27.301148 
L 98.326234 29.114466 
L 107.201642 31.172567 
L 121.205997 38.185769 
L 131.480926 42.56228 
L 132.068618 43.03589 
L 151.806648 52.440976 
L 165.811003 63.437731 
L 178.582888 70.226256 
L 185.549033 73.520951 
L 199.553388 86.678672 
L 219.291418 100.140089 
L 233.295773 115.85253 
" clip-path="url(#pbbdbd515d0)" style="fill: none; stroke: #b2b2b2; stroke-width: 0.8; stroke-linecap: square"/>
   </g>
   <g id="line2d_101">
    <path d="M 53.721227 18.54467 
L 73.459257 18.941506 
L 87.463612 24.371924 
L 98.326234 26.411234 
L 107.201642 30.436078 
L 121.205997 35.003438 
L 131.480926 42.56228 
L 132.068618 43.192718 
L 151.806648 57.650375 
L 165.811003 69.300582 
L 178.582888 78.656255 
L 185.549033 82.76615 
L 199.553388 92.225287 
L 219.291418 108.55238 
L 233.295773 119.46892 
" clip-path="url(#pbbdbd515d0)" style="fill: none; stroke: #b2b2b2; stroke-width: 0.8; stroke-linecap: square"/>
   </g>
   <g id="line2d_102">
    <path d="M 53.721227 47.504135 
L 73.459257 39.691837 
L 87.463612 38.529527 
L 98.326234 37.388095 
L 107.201642 37.946446 
L 121.205997 39.600555 
L 131.480926 42.56228 
L 132.068618 43.015266 
L 151.806648 49.366909 
L 165.811003 55.344628 
L 178.582888 58.64785 
L 185.549033 62.702606 
L 199.553388 72.611156 
L 219.291418 90.283768 
L 233.295773 105.644176 
" clip-path="url(#pbbdbd515d0)" style="fill: none; stroke: #b2b2b2; stroke-width: 0.8; stroke-linecap: square"/>
   </g>
   <g id="line2d_103">
    <path d="M 53.721227 44.902182 
L 73.459257 43.174199 
L 87.463612 42.16795 
L 98.326234 40.901647 
L 107.201642 41.364629 
L 121.205997 41.181266 
L 131.480926 42.56228 
L 132.068618 42.644473 
L 151.806648 47.49032 
L 165.811003 54.009108 
L 178.582888 59.872859 
L 185.549033 65.276743 
L 199.553388 75.700073 
L 219.291418 97.031277 
L 233.295773 111.963212 
" clip-path="url(#pbbdbd515d0)" style="fill: none; stroke: #b2b2b2; stroke-width: 0.8; stroke-linecap: square"/>
   </g>
   <g id="line2d_104">
    <path d="M 53.721227 31.423925 
L 73.459257 30.405221 
L 87.463612 31.222728 
L 98.326234 32.764159 
L 107.201642 33.878673 
L 121.205997 38.894503 
L 131.480926 42.56228 
L 132.068618 42.452896 
L 151.806648 45.779737 
L 165.811003 53.948578 
L 178.582888 61.626058 
L 185.549033 64.127785 
L 199.553388 75.861227 
L 219.291418 88.998837 
L 233.295773 103.964853 
" clip-path="url(#pbbdbd515d0)" style="fill: none; stroke: #b2b2b2; stroke-width: 0.8; stroke-linecap: square"/>
   </g>
   <g id="line2d_105">
    <path d="M 53.721227 25.152115 
L 73.459257 29.798947 
L 87.463612 34.295965 
L 98.326234 36.783068 
L 107.201642 37.667614 
L 121.205997 40.305176 
L 131.480926 42.56228 
L 132.068618 42.457168 
L 151.806648 49.888718 
L 165.811003 55.643519 
L 178.582888 65.560206 
L 185.549033 71.928009 
L 199.553388 81.803749 
L 219.291418 97.491552 
L 233.295773 110.706229 
" clip-path="url(#pbbdbd515d0)" style="fill: none; stroke: #b2b2b2; stroke-width: 0.8; stroke-linecap: square"/>
   </g>
   <g id="line2d_106">
    <path d="M 53.721227 27.958971 
L 73.459257 27.922312 
L 87.463612 30.599975 
L 98.326234 33.100148 
L 107.201642 34.923703 
L 121.205997 39.810093 
L 131.480926 42.56228 
L 132.068618 42.557451 
L 151.806648 50.169403 
L 165.811003 55.595341 
L 178.582888 60.846148 
L 185.549033 66.013096 
L 199.553388 76.12736 
L 219.291418 87.546104 
L 233.295773 98.824643 
" clip-path="url(#pbbdbd515d0)" style="fill: none; stroke: #b2b2b2; stroke-width: 0.8; stroke-linecap: square"/>
   </g>
   <g id="line2d_107">
    <path d="M 53.721227 35.981333 
L 73.459257 31.125486 
L 87.463612 29.544613 
L 98.326234 32.359853 
L 107.201642 33.597651 
L 121.205997 38.647263 
L 131.480926 42.56228 
L 132.068618 43.240579 
L 151.806648 55.846128 
L 165.811003 61.93816 
L 178.582888 69.090392 
L 185.549033 74.604183 
L 199.553388 86.809531 
L 219.291418 105.026174 
L 233.295773 118.21673 
" clip-path="url(#pbbdbd515d0)" style="fill: none; stroke: #b2b2b2; stroke-width: 0.8; stroke-linecap: square"/>
   </g>
   <g id="line2d_108">
    <path d="M 53.721227 46.844408 
L 73.459257 44.582898 
L 87.463612 41.016816 
L 98.326234 40.103059 
L 107.201642 39.46451 
L 121.205997 41.051962 
L 131.480926 42.56228 
L 132.068618 42.260264 
L 151.806648 47.971335 
L 165.811003 56.209498 
L 178.582888 68.487894 
L 185.549033 72.858712 
L 199.553388 85.779688 
L 219.291418 109.007397 
L 233.295773 128.76604 
" clip-path="url(#pbbdbd515d0)" style="fill: none; stroke: #b2b2b2; stroke-width: 0.8; stroke-linecap: square"/>
   </g>
   <g id="line2d_109">
    <path d="M 53.721227 31.089641 
L 73.459257 29.158223 
L 87.463612 29.910632 
L 98.326234 29.992479 
L 107.201642 31.770779 
L 121.205997 38.443194 
L 131.480926 42.56228 
L 132.068618 42.475976 
L 151.806648 50.917132 
L 165.811003 63.587845 
L 178.582888 71.135057 
L 185.549033 76.250727 
L 199.553388 85.56575 
L 219.291418 101.024463 
L 233.295773 114.779679 
" clip-path="url(#pbbdbd515d0)" style="fill: none; stroke: #b2b2b2; stroke-width: 0.8; stroke-linecap: square"/>
   </g>
   <g id="line2d_110">
    <path d="M 53.721227 45.513368 
L 73.459257 43.228865 
L 87.463612 42.781565 
L 98.326234 40.529426 
L 107.201642 39.568567 
L 121.205997 40.24254 
L 131.480926 42.56228 
L 132.068618 42.726277 
L 151.806648 50.627065 
L 165.811003 54.915169 
L 178.582888 63.685759 
L 185.549033 68.154429 
L 199.553388 76.710736 
L 219.291418 92.077005 
L 233.295773 105.412044 
" clip-path="url(#pbbdbd515d0)" style="fill: none; stroke: #b2b2b2; stroke-width: 0.8; stroke-linecap: square"/>
   </g>
   <g id="line2d_111">
    <path d="M 53.721227 37.447257 
L 73.459257 37.292823 
L 87.463612 36.264583 
L 98.326234 35.55109 
L 107.201642 36.750081 
L 121.205997 40.123222 
L 131.480926 42.56228 
L 132.068618 42.592872 
L 151.806648 53.22823 
L 165.811003 62.804949 
L 178.582888 75.049519 
L 185.549033 80.68187 
L 199.553388 89.014527 
L 219.291418 107.727417 
L 233.295773 117.975898 
" clip-path="url(#pbbdbd515d0)" style="fill: none; stroke: #b2b2b2; stroke-width: 0.8; stroke-linecap: square"/>
   </g>
   <g id="line2d_112">
    <path d="M 53.721227 44.870005 
L 73.459257 41.664397 
L 87.463612 39.162026 
L 98.326234 38.376215 
L 107.201642 38.54729 
L 121.205997 40.645865 
L 131.480926 42.56228 
L 132.068618 42.701659 
L 151.806648 50.291196 
L 165.811003 56.303746 
L 178.582888 60.823488 
L 185.549033 63.523371 
L 199.553388 74.832132 
L 219.291418 92.432879 
L 233.295773 104.446461 
" clip-path="url(#pbbdbd515d0)" style="fill: none; stroke: #b2b2b2; stroke-width: 0.8; stroke-linecap: square"/>
   </g>
   <g id="line2d_113">
    <path d="M 53.721227 13.721202 
L 73.459257 13.707475 
L 87.463612 17.548781 
L 98.326234 25.168711 
L 107.201642 30.376801 
L 121.205997 35.853636 
L 131.480926 42.56228 
L 132.068618 43.151985 
L 151.806648 56.679015 
L 165.811003 65.043794 
L 178.582888 74.939669 
L 185.549033 82.929001 
L 199.553388 93.994162 
L 219.291418 116.392399 
L 233.295773 129.035922 
" clip-path="url(#pbbdbd515d0)" style="fill: none; stroke: #b2b2b2; stroke-width: 0.8; stroke-linecap: square"/>
   </g>
   <g id="line2d_114">
    <path d="M 53.721227 51.739308 
L 73.459257 47.678954 
L 87.463612 46.648917 
L 98.326234 46.15068 
L 107.201642 44.94882 
L 121.205997 44.090096 
L 131.480926 42.56228 
L 132.068618 42.5082 
L 151.806648 44.659958 
L 165.811003 49.195842 
L 178.582888 54.802906 
L 185.549033 57.65388 
L 199.553388 65.123107 
L 219.291418 81.423103 
L 233.295773 91.781514 
" clip-path="url(#pbbdbd515d0)" style="fill: none; stroke: #b2b2b2; stroke-width: 0.8; stroke-linecap: square"/>
   </g>
   <g id="line2d_115">
    <path d="M 53.721227 31.337661 
L 73.459257 29.138065 
L 87.463612 29.992229 
L 98.326234 33.157001 
L 107.201642 36.340919 
L 121.205997 39.921616 
L 131.480926 42.56228 
L 132.068618 42.566308 
L 151.806648 60.792732 
L 165.811003 71.182034 
L 178.582888 80.999452 
L 185.549033 86.761088 
L 199.553388 98.222297 
L 219.291418 110.380018 
L 233.295773 120.691895 
" clip-path="url(#pbbdbd515d0)" style="fill: none; stroke: #b2b2b2; stroke-width: 0.8; stroke-linecap: square"/>
   </g>
   <g id="line2d_116">
    <path d="M 53.721227 27.748418 
L 73.459257 25.191977 
L 87.463612 27.778672 
L 98.326234 31.094596 
L 107.201642 33.071594 
L 121.205997 37.523259 
L 131.480926 42.56228 
L 132.068618 42.610719 
L 151.806648 45.496813 
L 165.811003 53.094471 
L 178.582888 63.988918 
L 185.549033 68.96396 
L 199.553388 78.74345 
L 219.291418 93.051074 
L 233.295773 102.150018 
" clip-path="url(#pbbdbd515d0)" style="fill: none; stroke: #b2b2b2; stroke-width: 0.8; stroke-linecap: square"/>
   </g>
   <g id="line2d_117">
    <path d="M 53.721227 26.295848 
L 73.459257 27.380714 
L 87.463612 29.488482 
L 98.326234 30.626052 
L 107.201642 34.912918 
L 121.205997 37.909779 
L 131.480926 42.56228 
L 132.068618 43.059735 
L 151.806648 53.177699 
L 165.811003 60.897251 
L 178.582888 66.108783 
L 185.549033 73.602577 
L 199.553388 83.838749 
L 219.291418 104.513399 
L 233.295773 118.852475 
" clip-path="url(#pbbdbd515d0)" style="fill: none; stroke: #b2b2b2; stroke-width: 0.8; stroke-linecap: square"/>
   </g>
   <g id="line2d_118">
    <path d="M 53.721227 33.988056 
L 73.459257 31.651375 
L 87.463612 33.978793 
L 98.326234 34.372627 
L 107.201642 36.273453 
L 121.205997 39.097585 
L 131.480926 42.56228 
L 132.068618 42.566361 
L 151.806648 48.743676 
L 165.811003 54.347407 
L 178.582888 59.602675 
L 185.549033 66.918353 
L 199.553388 77.005839 
L 219.291418 93.653685 
L 233.295773 106.637638 
" clip-path="url(#pbbdbd515d0)" style="fill: none; stroke: #b2b2b2; stroke-width: 0.8; stroke-linecap: square"/>
   </g>
   <g id="line2d_119">
    <path d="M 53.721227 33.638389 
L 73.459257 31.777228 
L 87.463612 28.987469 
L 98.326234 30.025044 
L 107.201642 32.659224 
L 121.205997 34.295161 
L 131.480926 42.56228 
L 132.068618 43.159998 
L 151.806648 54.398385 
L 165.811003 64.551282 
L 178.582888 74.373623 
L 185.549033 82.184001 
L 199.553388 92.604769 
L 219.291418 106.839743 
L 233.295773 119.73225 
" clip-path="url(#pbbdbd515d0)" style="fill: none; stroke: #b2b2b2; stroke-width: 0.8; stroke-linecap: square"/>
   </g>
   <g id="line2d_120">
    <path d="M 53.721227 40.480377 
L 73.459257 37.583071 
L 87.463612 37.322945 
L 98.326234 38.755174 
L 107.201642 39.344362 
L 121.205997 41.673328 
L 131.480926 42.56228 
L 132.068618 43.197102 
L 151.806648 49.020042 
L 165.811003 59.352495 
L 178.582888 67.874637 
L 185.549033 75.247681 
L 199.553388 87.407512 
L 219.291418 107.187461 
L 233.295773 122.19589 
" clip-path="url(#pbbdbd515d0)" style="fill: none; stroke: #b2b2b2; stroke-width: 0.8; stroke-linecap: square"/>
   </g>
   <g id="line2d_121">
    <path d="M 53.721227 22.815741 
L 73.459257 25.657047 
L 87.463612 27.799507 
L 98.326234 29.76053 
L 107.201642 33.86707 
L 121.205997 39.246014 
L 131.480926 42.56228 
L 132.068618 42.972386 
L 151.806648 54.587071 
L 165.811003 59.407732 
L 178.582888 66.840319 
L 185.549033 69.730767 
L 199.553388 75.468668 
L 219.291418 90.214792 
L 233.295773 98.542785 
" clip-path="url(#pbbdbd515d0)" style="fill: none; stroke: #b2b2b2; stroke-width: 0.8; stroke-linecap: square"/>
   </g>
   <g id="line2d_122">
    <path d="M 53.721227 24.925992 
L 73.459257 25.2577 
L 87.463612 26.403105 
L 98.326234 26.762184 
L 107.201642 29.816034 
L 121.205997 37.039534 
L 131.480926 42.56228 
L 132.068618 43.047649 
L 151.806648 54.447049 
L 165.811003 64.662168 
L 178.582888 71.400321 
L 185.549033 77.057261 
L 199.553388 89.399238 
L 219.291418 106.532665 
L 233.295773 121.215806 
" clip-path="url(#pbbdbd515d0)" style="fill: none; stroke: #b2b2b2; stroke-width: 0.8; stroke-linecap: square"/>
   </g>
   <g id="line2d_123">
    <path d="M 53.721227 31.878372 
L 73.459257 30.865774 
L 87.463612 31.785365 
L 98.326234 33.517424 
L 107.201642 35.24489 
L 121.205997 39.066212 
L 131.480926 42.56228 
L 132.068618 42.780973 
L 151.806648 51.531075 
L 165.811003 59.221249 
L 178.582888 67.005312 
L 185.549033 72.197126 
L 199.553388 82.33151 
L 219.291418 98.112943 
L 233.295773 110.880679 
" clip-path="url(#pbbdbd515d0)" style="fill: none; stroke: #ff0000; stroke-width: 2; stroke-linecap: square"/>
   </g>
   <g id="line2d_124">
    <path d="M 53.721227 13.202998 
L 73.459257 14.556919 
L 87.463612 17.908211 
L 98.326234 21.880242 
L 107.201642 26.285669 
L 121.205997 35.32159 
L 131.480926 42.562279 
L 132.068618 41.853144 
L 151.806648 44.317636 
L 165.811003 48.374474 
L 178.582888 53.431811 
L 185.549033 57.201784 
L 199.553388 65.180185 
L 219.291418 78.632251 
L 233.295773 89.670158 
" clip-path="url(#pbbdbd515d0)" style="fill: none; stroke-dasharray: 7.4,3.2; stroke-dashoffset: 0; stroke: #ff0000; stroke-width: 2"/>
   </g>
   <g id="line2d_125">
    <path d="M 53.721227 50.553747 
L 73.459257 47.174629 
L 87.463612 45.66252 
L 98.326234 45.154607 
L 107.201642 44.204112 
L 121.205997 42.810833 
L 131.480926 42.562281 
L 132.068618 43.708802 
L 151.806648 58.744514 
L 165.811003 70.068024 
L 178.582888 80.578812 
L 185.549033 87.192468 
L 199.553388 99.482836 
L 219.291418 117.593635 
L 233.295773 132.0912 
" clip-path="url(#pbbdbd515d0)" style="fill: none; stroke-dasharray: 7.4,3.2; stroke-dashoffset: 0; stroke: #ff0000; stroke-width: 2"/>
   </g>
   <g id="line2d_126">
    <path d="M 53.721227 31.881636 
L 73.459257 30.823399 
L 87.463612 31.75152 
L 98.326234 33.40277 
L 107.201642 35.207871 
L 121.205997 39.029439 
L 131.480926 42.56228 
L 132.068618 42.763853 
L 151.806648 51.469628 
L 165.811003 59.168759 
L 178.582888 67.133879 
L 185.549033 72.137536 
L 199.553388 82.282796 
L 219.291418 98.175577 
L 233.295773 110.910619 
" clip-path="url(#pbbdbd515d0)" style="fill: none; stroke: #0000ff; stroke-width: 2; stroke-linecap: square"/>
   </g>
   <g id="line2d_127">
    <path d="M 53.721227 13.1472 
L 73.459257 14.506093 
L 87.463612 17.945039 
L 98.326234 21.744664 
L 107.201642 26.189507 
L 121.205997 35.310692 
L 131.480926 42.56228 
L 132.068618 42.288178 
L 151.806648 44.265091 
L 165.811003 48.298967 
L 178.582888 53.438602 
L 185.549033 57.238829 
L 199.553388 65.122867 
L 219.291418 78.632414 
L 233.295773 89.768339 
" clip-path="url(#pbbdbd515d0)" style="fill: none; stroke-dasharray: 7.4,3.2; stroke-dashoffset: 0; stroke: #0000ff; stroke-width: 2"/>
   </g>
   <g id="line2d_128">
    <path d="M 53.721227 50.616071 
L 73.459257 47.140705 
L 87.463612 45.558 
L 98.326234 45.060875 
L 107.201642 44.226234 
L 121.205997 42.748187 
L 131.480926 42.56228 
L 132.068618 43.239528 
L 151.806648 58.674165 
L 165.811003 70.03855 
L 178.582888 80.829156 
L 185.549033 87.036243 
L 199.553388 99.442724 
L 219.291418 117.71874 
L 233.295773 132.0529 
" clip-path="url(#pbbdbd515d0)" style="fill: none; stroke-dasharray: 7.4,3.2; stroke-dashoffset: 0; stroke: #0000ff; stroke-width: 2"/>
   </g>
   <g id="patch_3">
    <path d="M 44.7425 138.0384 
L 44.7425 7.2 
" style="fill: none; stroke: #000000; stroke-width: 0.8; stroke-linejoin: miter; stroke-linecap: square"/>
   </g>
   <g id="patch_4">
    <path d="M 242.2745 138.0384 
L 242.2745 7.2 
" style="fill: none; stroke: #000000; stroke-width: 0.8; stroke-linejoin: miter; stroke-linecap: square"/>
   </g>
   <g id="patch_5">
    <path d="M 44.7425 138.0384 
L 242.2745 138.0384 
" style="fill: none; stroke: #000000; stroke-width: 0.8; stroke-linejoin: miter; stroke-linecap: square"/>
   </g>
   <g id="patch_6">
    <path d="M 44.7425 7.2 
L 242.2745 7.2 
" style="fill: none; stroke: #000000; stroke-width: 0.8; stroke-linejoin: miter; stroke-linecap: square"/>
   </g>
   <g id="legend_1">
    <g id="patch_7">
     <path d="M 247.8745 104.47295 
L 432.5945 104.47295 
Q 434.1945 104.47295 434.1945 102.87295 
L 434.1945 42.36545 
Q 434.1945 40.76545 432.5945 40.76545 
L 247.8745 40.76545 
Q 246.2745 40.76545 246.2745 42.36545 
L 246.2745 102.87295 
Q 246.2745 104.47295 247.8745 104.47295 
z
" style="fill: #ffffff; opacity: 0.8; stroke: #cccccc; stroke-linejoin: miter"/>
    </g>
    <g id="line2d_129">
     <path d="M 249.4745 47.2442 
L 257.4745 47.2442 
L 265.4745 47.2442 
" style="fill: none; stroke: #b2b2b2; stroke-width: 0.8; stroke-linecap: square"/>
    </g>
    <g id="text_7">
     <!-- Individual selected GMs -->
     <g transform="translate(271.8745 50.0442) scale(0.08 -0.08)">
      <defs>
       <path id="DejaVuSans-49" d="M 628 4666 
L 1259 4666 
L 1259 0 
L 628 0 
L 628 4666 
z
" transform="scale(0.015625)"/>
       <path id="DejaVuSans-76" d="M 191 3500 
L 800 3500 
L 1894 563 
L 2988 3500 
L 3597 3500 
L 2284 0 
L 1503 0 
L 191 3500 
z
" transform="scale(0.015625)"/>
       <path id="DejaVuSans-75" d="M 544 1381 
L 544 3500 
L 1119 3500 
L 1119 1403 
Q 1119 906 1312 657 
Q 1506 409 1894 409 
Q 2359 409 2629 706 
Q 2900 1003 2900 1516 
L 2900 3500 
L 3475 3500 
L 3475 0 
L 2900 0 
L 2900 538 
Q 2691 219 2414 64 
Q 2138 -91 1772 -91 
Q 1169 -91 856 284 
Q 544 659 544 1381 
z
M 1991 3584 
L 1991 3584 
z
" transform="scale(0.015625)"/>
       <path id="DejaVuSans-47" d="M 3809 666 
L 3809 1919 
L 2778 1919 
L 2778 2438 
L 4434 2438 
L 4434 434 
Q 4069 175 3628 42 
Q 3188 -91 2688 -91 
Q 1594 -91 976 548 
Q 359 1188 359 2328 
Q 359 3472 976 4111 
Q 1594 4750 2688 4750 
Q 3144 4750 3555 4637 
Q 3966 4525 4313 4306 
L 4313 3634 
Q 3963 3931 3569 4081 
Q 3175 4231 2741 4231 
Q 1884 4231 1454 3753 
Q 1025 3275 1025 2328 
Q 1025 1384 1454 906 
Q 1884 428 2741 428 
Q 3075 428 3337 486 
Q 3600 544 3809 666 
z
" transform="scale(0.015625)"/>
       <path id="DejaVuSans-4d" d="M 628 4666 
L 1569 4666 
L 2759 1491 
L 3956 4666 
L 4897 4666 
L 4897 0 
L 4281 0 
L 4281 4097 
L 3078 897 
L 2444 897 
L 1241 4097 
L 1241 0 
L 628 0 
L 628 4666 
z
" transform="scale(0.015625)"/>
      </defs>
      <use xlink:href="#DejaVuSans-49"/>
      <use xlink:href="#DejaVuSans-6e" x="29.492188"/>
      <use xlink:href="#DejaVuSans-64" x="92.871094"/>
      <use xlink:href="#DejaVuSans-69" x="156.347656"/>
      <use xlink:href="#DejaVuSans-76" x="184.130859"/>
      <use xlink:href="#DejaVuSans-69" x="243.310547"/>
      <use xlink:href="#DejaVuSans-64" x="271.09375"/>
      <use xlink:href="#DejaVuSans-75" x="334.570312"/>
      <use xlink:href="#DejaVuSans-61" x="397.949219"/>
      <use xlink:href="#DejaVuSans-6c" x="459.228516"/>
      <use xlink:href="#DejaVuSans-20" x="487.011719"/>
      <use xlink:href="#DejaVuSans-73" x="518.798828"/>
      <use xlink:href="#DejaVuSans-65" x="570.898438"/>
      <use xlink:href="#DejaVuSans-6c" x="632.421875"/>
      <use xlink:href="#DejaVuSans-65" x="660.205078"/>
      <use xlink:href="#DejaVuSans-63" x="721.728516"/>
      <use xlink:href="#DejaVuSans-74" x="776.708984"/>
      <use xlink:href="#DejaVuSans-65" x="815.917969"/>
      <use xlink:href="#DejaVuSans-64" x="877.441406"/>
      <use xlink:href="#DejaVuSans-20" x="940.917969"/>
      <use xlink:href="#DejaVuSans-47" x="972.705078"/>
      <use xlink:href="#DejaVuSans-4d" x="1050.195312"/>
      <use xlink:href="#DejaVuSans-73" x="1136.474609"/>
     </g>
    </g>
    <g id="line2d_130">
     <path d="M 249.4745 58.9867 
L 257.4745 58.9867 
L 265.4745 58.9867 
" style="fill: none; stroke: #ff0000; stroke-width: 2; stroke-linecap: square"/>
    </g>
    <g id="text_8">
     <!-- GCIM median -->
     <g transform="translate(271.8745 61.7867) scale(0.08 -0.08)">
      <defs>
       <path id="DejaVuSans-43" d="M 4122 4306 
L 4122 3641 
Q 3803 3938 3442 4084 
Q 3081 4231 2675 4231 
Q 1875 4231 1450 3742 
Q 1025 3253 1025 2328 
Q 1025 1406 1450 917 
Q 1875 428 2675 428 
Q 3081 428 3442 575 
Q 3803 722 4122 1019 
L 4122 359 
Q 3791 134 3420 21 
Q 3050 -91 2638 -91 
Q 1578 -91 968 557 
Q 359 1206 359 2328 
Q 359 3453 968 4101 
Q 1578 4750 2638 4750 
Q 3056 4750 3426 4639 
Q 3797 4528 4122 4306 
z
" transform="scale(0.015625)"/>
       <path id="DejaVuSans-6d" d="M 3328 2828 
Q 3544 3216 3844 3400 
Q 4144 3584 4550 3584 
Q 5097 3584 5394 3201 
Q 5691 2819 5691 2113 
L 5691 0 
L 5113 0 
L 5113 2094 
Q 5113 2597 4934 2840 
Q 4756 3084 4391 3084 
Q 3944 3084 3684 2787 
Q 3425 2491 3425 1978 
L 3425 0 
L 2847 0 
L 2847 2094 
Q 2847 2600 2669 2842 
Q 2491 3084 2119 3084 
Q 1678 3084 1418 2786 
Q 1159 2488 1159 1978 
L 1159 0 
L 581 0 
L 581 3500 
L 1159 3500 
L 1159 2956 
Q 1356 3278 1631 3431 
Q 1906 3584 2284 3584 
Q 2666 3584 2933 3390 
Q 3200 3197 3328 2828 
z
" transform="scale(0.015625)"/>
      </defs>
      <use xlink:href="#DejaVuSans-47"/>
      <use xlink:href="#DejaVuSans-43" x="77.490234"/>
      <use xlink:href="#DejaVuSans-49" x="147.314453"/>
      <use xlink:href="#DejaVuSans-4d" x="176.806641"/>
      <use xlink:href="#DejaVuSans-20" x="263.085938"/>
      <use xlink:href="#DejaVuSans-6d" x="294.873047"/>
      <use xlink:href="#DejaVuSans-65" x="392.285156"/>
      <use xlink:href="#DejaVuSans-64" x="453.808594"/>
      <use xlink:href="#DejaVuSans-69" x="517.285156"/>
      <use xlink:href="#DejaVuSans-61" x="545.068359"/>
      <use xlink:href="#DejaVuSans-6e" x="606.347656"/>
     </g>
    </g>
    <g id="line2d_131">
     <path d="M 249.4745 72.01045 
L 257.4745 72.01045 
L 265.4745 72.01045 
" style="fill: none; stroke-dasharray: 7.4,3.2; stroke-dashoffset: 0; stroke: #ff0000; stroke-width: 2"/>
    </g>
    <g id="text_9">
     <!-- GCIM $16^{th}$ and $84^{th}$ percentiles -->
     <g transform="translate(271.8745 74.81045) scale(0.08 -0.08)">
      <defs>
       <path id="DejaVuSans-36" d="M 2113 2584 
Q 1688 2584 1439 2293 
Q 1191 2003 1191 1497 
Q 1191 994 1439 701 
Q 1688 409 2113 409 
Q 2538 409 2786 701 
Q 3034 994 3034 1497 
Q 3034 2003 2786 2293 
Q 2538 2584 2113 2584 
z
M 3366 4563 
L 3366 3988 
Q 3128 4100 2886 4159 
Q 2644 4219 2406 4219 
Q 1781 4219 1451 3797 
Q 1122 3375 1075 2522 
Q 1259 2794 1537 2939 
Q 1816 3084 2150 3084 
Q 2853 3084 3261 2657 
Q 3669 2231 3669 1497 
Q 3669 778 3244 343 
Q 2819 -91 2113 -91 
Q 1303 -91 875 529 
Q 447 1150 447 2328 
Q 447 3434 972 4092 
Q 1497 4750 2381 4750 
Q 2619 4750 2861 4703 
Q 3103 4656 3366 4563 
z
" transform="scale(0.015625)"/>
       <path id="DejaVuSans-Oblique-74" d="M 2706 3500 
L 2619 3053 
L 1472 3053 
L 1100 1153 
Q 1081 1047 1072 975 
Q 1063 903 1063 863 
Q 1063 663 1183 572 
Q 1303 481 1569 481 
L 2150 481 
L 2053 0 
L 1503 0 
Q 991 0 739 200 
Q 488 400 488 806 
Q 488 878 497 964 
Q 506 1050 525 1153 
L 897 3053 
L 409 3053 
L 500 3500 
L 978 3500 
L 1172 4494 
L 1747 4494 
L 1556 3500 
L 2706 3500 
z
" transform="scale(0.015625)"/>
       <path id="DejaVuSans-Oblique-68" d="M 3566 2113 
L 3156 0 
L 2578 0 
L 2988 2091 
Q 3016 2238 3031 2350 
Q 3047 2463 3047 2528 
Q 3047 2791 2881 2937 
Q 2716 3084 2419 3084 
Q 1956 3084 1617 2771 
Q 1278 2459 1178 1941 
L 800 0 
L 225 0 
L 1172 4863 
L 1747 4863 
L 1375 2950 
Q 1594 3244 1934 3414 
Q 2275 3584 2650 3584 
Q 3113 3584 3367 3334 
Q 3622 3084 3622 2631 
Q 3622 2519 3608 2391 
Q 3594 2263 3566 2113 
z
" transform="scale(0.015625)"/>
       <path id="DejaVuSans-38" d="M 2034 2216 
Q 1584 2216 1326 1975 
Q 1069 1734 1069 1313 
Q 1069 891 1326 650 
Q 1584 409 2034 409 
Q 2484 409 2743 651 
Q 3003 894 3003 1313 
Q 3003 1734 2745 1975 
Q 2488 2216 2034 2216 
z
M 1403 2484 
Q 997 2584 770 2862 
Q 544 3141 544 3541 
Q 544 4100 942 4425 
Q 1341 4750 2034 4750 
Q 2731 4750 3128 4425 
Q 3525 4100 3525 3541 
Q 3525 3141 3298 2862 
Q 3072 2584 2669 2484 
Q 3125 2378 3379 2068 
Q 3634 1759 3634 1313 
Q 3634 634 3220 271 
Q 2806 -91 2034 -91 
Q 1263 -91 848 271 
Q 434 634 434 1313 
Q 434 1759 690 2068 
Q 947 2378 1403 2484 
z
M 1172 3481 
Q 1172 3119 1398 2916 
Q 1625 2713 2034 2713 
Q 2441 2713 2670 2916 
Q 2900 3119 2900 3481 
Q 2900 3844 2670 4047 
Q 2441 4250 2034 4250 
Q 1625 4250 1398 4047 
Q 1172 3844 1172 3481 
z
" transform="scale(0.015625)"/>
       <path id="DejaVuSans-34" d="M 2419 4116 
L 825 1625 
L 2419 1625 
L 2419 4116 
z
M 2253 4666 
L 3047 4666 
L 3047 1625 
L 3713 1625 
L 3713 1100 
L 3047 1100 
L 3047 0 
L 2419 0 
L 2419 1100 
L 313 1100 
L 313 1709 
L 2253 4666 
z
" transform="scale(0.015625)"/>
      </defs>
      <use xlink:href="#DejaVuSans-47" transform="translate(0 0.529687)"/>
      <use xlink:href="#DejaVuSans-43" transform="translate(77.490234 0.529687)"/>
      <use xlink:href="#DejaVuSans-49" transform="translate(147.314453 0.529687)"/>
      <use xlink:href="#DejaVuSans-4d" transform="translate(176.806641 0.529687)"/>
      <use xlink:href="#DejaVuSans-20" transform="translate(263.085938 0.529687)"/>
      <use xlink:href="#DejaVuSans-31" transform="translate(294.873047 0.529687)"/>
      <use xlink:href="#DejaVuSans-36" transform="translate(358.496094 0.529687)"/>
      <use xlink:href="#DejaVuSans-Oblique-74" transform="translate(423.076172 38.810937) scale(0.7)"/>
      <use xlink:href="#DejaVuSans-Oblique-68" transform="translate(450.522461 38.810937) scale(0.7)"/>
      <use xlink:href="#DejaVuSans-20" transform="translate(497.62207 0.529687)"/>
      <use xlink:href="#DejaVuSans-61" transform="translate(529.40918 0.529687)"/>
      <use xlink:href="#DejaVuSans-6e" transform="translate(590.688477 0.529687)"/>
      <use xlink:href="#DejaVuSans-64" transform="translate(654.067383 0.529687)"/>
      <use xlink:href="#DejaVuSans-20" transform="translate(717.543945 0.529687)"/>
      <use xlink:href="#DejaVuSans-38" transform="translate(749.331055 0.529687)"/>
      <use xlink:href="#DejaVuSans-34" transform="translate(812.954102 0.529687)"/>
      <use xlink:href="#DejaVuSans-Oblique-74" transform="translate(877.53418 38.810937) scale(0.7)"/>
      <use xlink:href="#DejaVuSans-Oblique-68" transform="translate(904.980469 38.810937) scale(0.7)"/>
      <use xlink:href="#DejaVuSans-20" transform="translate(952.080078 0.529687)"/>
      <use xlink:href="#DejaVuSans-70" transform="translate(983.867188 0.529687)"/>
      <use xlink:href="#DejaVuSans-65" transform="translate(1047.34375 0.529687)"/>
      <use xlink:href="#DejaVuSans-72" transform="translate(1108.867188 0.529687)"/>
      <use xlink:href="#DejaVuSans-63" transform="translate(1149.980469 0.529687)"/>
      <use xlink:href="#DejaVuSans-65" transform="translate(1204.960938 0.529687)"/>
      <use xlink:href="#DejaVuSans-6e" transform="translate(1266.484375 0.529687)"/>
      <use xlink:href="#DejaVuSans-74" transform="translate(1329.863281 0.529687)"/>
      <use xlink:href="#DejaVuSans-69" transform="translate(1369.072266 0.529687)"/>
      <use xlink:href="#DejaVuSans-6c" transform="translate(1396.855469 0.529687)"/>
      <use xlink:href="#DejaVuSans-65" transform="translate(1424.638672 0.529687)"/>
      <use xlink:href="#DejaVuSans-73" transform="translate(1486.162109 0.529687)"/>
     </g>
    </g>
    <g id="line2d_132">
     <path d="M 249.4745 83.7692 
L 257.4745 83.7692 
L 265.4745 83.7692 
" style="fill: none; stroke: #0000ff; stroke-width: 2; stroke-linecap: square"/>
    </g>
    <g id="text_10">
     <!-- Selected GMs median -->
     <g transform="translate(271.8745 86.5692) scale(0.08 -0.08)">
      <use xlink:href="#DejaVuSans-53"/>
      <use xlink:href="#DejaVuSans-65" x="63.476562"/>
      <use xlink:href="#DejaVuSans-6c" x="125"/>
      <use xlink:href="#DejaVuSans-65" x="152.783203"/>
      <use xlink:href="#DejaVuSans-63" x="214.306641"/>
      <use xlink:href="#DejaVuSans-74" x="269.287109"/>
      <use xlink:href="#DejaVuSans-65" x="308.496094"/>
      <use xlink:href="#DejaVuSans-64" x="370.019531"/>
      <use xlink:href="#DejaVuSans-20" x="433.496094"/>
      <use xlink:href="#DejaVuSans-47" x="465.283203"/>
      <use xlink:href="#DejaVuSans-4d" x="542.773438"/>
      <use xlink:href="#DejaVuSans-73" x="629.052734"/>
      <use xlink:href="#DejaVuSans-20" x="681.152344"/>
      <use xlink:href="#DejaVuSans-6d" x="712.939453"/>
      <use xlink:href="#DejaVuSans-65" x="810.351562"/>
      <use xlink:href="#DejaVuSans-64" x="871.875"/>
      <use xlink:href="#DejaVuSans-69" x="935.351562"/>
      <use xlink:href="#DejaVuSans-61" x="963.134766"/>
      <use xlink:href="#DejaVuSans-6e" x="1024.414062"/>
     </g>
    </g>
    <g id="line2d_133">
     <path d="M 249.4745 96.79295 
L 257.4745 96.79295 
L 265.4745 96.79295 
" style="fill: none; stroke-dasharray: 7.4,3.2; stroke-dashoffset: 0; stroke: #0000ff; stroke-width: 2"/>
    </g>
    <g id="text_11">
     <!-- Selected GMs, $16^{th}$ and $84^{th}$ percentiles -->
     <g transform="translate(271.8745 99.59295) scale(0.08 -0.08)">
      <use xlink:href="#DejaVuSans-53" transform="translate(0 0.529687)"/>
      <use xlink:href="#DejaVuSans-65" transform="translate(63.476562 0.529687)"/>
      <use xlink:href="#DejaVuSans-6c" transform="translate(125 0.529687)"/>
      <use xlink:href="#DejaVuSans-65" transform="translate(152.783203 0.529687)"/>
      <use xlink:href="#DejaVuSans-63" transform="translate(214.306641 0.529687)"/>
      <use xlink:href="#DejaVuSans-74" transform="translate(269.287109 0.529687)"/>
      <use xlink:href="#DejaVuSans-65" transform="translate(308.496094 0.529687)"/>
      <use xlink:href="#DejaVuSans-64" transform="translate(370.019531 0.529687)"/>
      <use xlink:href="#DejaVuSans-20" transform="translate(433.496094 0.529687)"/>
      <use xlink:href="#DejaVuSans-47" transform="translate(465.283203 0.529687)"/>
      <use xlink:href="#DejaVuSans-4d" transform="translate(542.773438 0.529687)"/>
      <use xlink:href="#DejaVuSans-73" transform="translate(629.052734 0.529687)"/>
      <use xlink:href="#DejaVuSans-2c" transform="translate(681.152344 0.529687)"/>
      <use xlink:href="#DejaVuSans-20" transform="translate(712.939453 0.529687)"/>
      <use xlink:href="#DejaVuSans-31" transform="translate(744.726562 0.529687)"/>
      <use xlink:href="#DejaVuSans-36" transform="translate(808.349609 0.529687)"/>
      <use xlink:href="#DejaVuSans-Oblique-74" transform="translate(872.929688 38.810937) scale(0.7)"/>
      <use xlink:href="#DejaVuSans-Oblique-68" transform="translate(900.375977 38.810937) scale(0.7)"/>
      <use xlink:href="#DejaVuSans-20" transform="translate(947.475586 0.529687)"/>
      <use xlink:href="#DejaVuSans-61" transform="translate(979.262695 0.529687)"/>
      <use xlink:href="#DejaVuSans-6e" transform="translate(1040.541992 0.529687)"/>
      <use xlink:href="#DejaVuSans-64" transform="translate(1103.920898 0.529687)"/>
      <use xlink:href="#DejaVuSans-20" transform="translate(1167.397461 0.529687)"/>
      <use xlink:href="#DejaVuSans-38" transform="translate(1199.18457 0.529687)"/>
      <use xlink:href="#DejaVuSans-34" transform="translate(1262.807617 0.529687)"/>
      <use xlink:href="#DejaVuSans-Oblique-74" transform="translate(1327.387695 38.810937) scale(0.7)"/>
      <use xlink:href="#DejaVuSans-Oblique-68" transform="translate(1354.833984 38.810937) scale(0.7)"/>
      <use xlink:href="#DejaVuSans-20" transform="translate(1401.933594 0.529687)"/>
      <use xlink:href="#DejaVuSans-70" transform="translate(1433.720703 0.529687)"/>
      <use xlink:href="#DejaVuSans-65" transform="translate(1497.197266 0.529687)"/>
      <use xlink:href="#DejaVuSans-72" transform="translate(1558.720703 0.529687)"/>
      <use xlink:href="#DejaVuSans-63" transform="translate(1599.833984 0.529687)"/>
      <use xlink:href="#DejaVuSans-65" transform="translate(1654.814453 0.529687)"/>
      <use xlink:href="#DejaVuSans-6e" transform="translate(1716.337891 0.529687)"/>
      <use xlink:href="#DejaVuSans-74" transform="translate(1779.716797 0.529687)"/>
      <use xlink:href="#DejaVuSans-69" transform="translate(1818.925781 0.529687)"/>
      <use xlink:href="#DejaVuSans-6c" transform="translate(1846.708984 0.529687)"/>
      <use xlink:href="#DejaVuSans-65" transform="translate(1874.492188 0.529687)"/>
      <use xlink:href="#DejaVuSans-73" transform="translate(1936.015625 0.529687)"/>
     </g>
    </g>
   </g>
  </g>
 </g>
 <defs>
  <clipPath id="pbbdbd515d0">
   <rect x="44.7425" y="7.2" width="197.532" height="130.8384"/>
  </clipPath>
 </defs>
</svg>
