<?xml version="1.0" encoding="utf-8" standalone="no"?>
<!DOCTYPE svg PUBLIC "-//W3C//DTD SVG 1.1//EN"
  "http://www.w3.org/Graphics/SVG/1.1/DTD/svg11.dtd">
<svg xmlns:xlink="http://www.w3.org/1999/xlink" width="441.3945pt" height="171.7234pt" viewBox="0 0 441.3945 171.7234" xmlns="http://www.w3.org/2000/svg" version="1.1">
 <metadata>
  <rdf:RDF xmlns:dc="http://purl.org/dc/elements/1.1/" xmlns:cc="http://creativecommons.org/ns#" xmlns:rdf="http://www.w3.org/1999/02/22-rdf-syntax-ns#">
   <cc:Work>
    <dc:type rdf:resource="http://purl.org/dc/dcmitype/StillImage"/>
    <dc:date>2024-11-05T20:41:01.504037</dc:date>
    <dc:format>image/svg+xml</dc:format>
    <dc:creator>
     <cc:Agent>
      <dc:title>Matplotlib v3.8.2, https://matplotlib.org/</dc:title>
     </cc:Agent>
    </dc:creator>
   </cc:Work>
  </rdf:RDF>
 </metadata>
 <defs>
  <style type="text/css">*{stroke-linejoin: round; stroke-linecap: butt}</style>
 </defs>
 <g id="figure_1">
  <g id="patch_1">
   <path d="M 0 171.7234 
L 441.3945 171.7234 
L 441.3945 0 
L 0 0 
z
" style="fill: #ffffff"/>
  </g>
  <g id="axes_1">
   <g id="patch_2">
    <path d="M 44.7425 138.0384 
L 242.2745 138.0384 
L 242.2745 7.2 
L 44.7425 7.2 
z
" style="fill: #ffffff"/>
   </g>
   <g id="matplotlib.axis_1">
    <g id="xtick_1">
     <g id="line2d_1">
      <path d="M 53.721227 138.0384 
L 53.721227 7.2 
" clip-path="url(#pa1c1b24114)" style="fill: none; stroke: #d9d9d9; stroke-width: 0.8; stroke-linecap: square"/>
     </g>
     <g id="line2d_2">
      <defs>
       <path id="m4dd1da29c2" d="M 0 0 
L 0 3.5 
" style="stroke: #000000; stroke-width: 0.8"/>
      </defs>
      <g>
       <use xlink:href="#m4dd1da29c2" x="53.721227" y="138.0384" style="stroke: #000000; stroke-width: 0.8"/>
      </g>
     </g>
     <g id="text_1">
      <!-- $\mathdefault{10^{-1}}$ -->
      <g transform="translate(44.321227 151.11715) scale(0.08 -0.08)">
       <defs>
        <path id="DejaVuSans-31" d="M 794 531 
L 1825 531 
L 1825 4091 
L 703 3866 
L 703 4441 
L 1819 4666 
L 2450 4666 
L 2450 531 
L 3481 531 
L 3481 0 
L 794 0 
L 794 531 
z
" transform="scale(0.015625)"/>
        <path id="DejaVuSans-30" d="M 2034 4250 
Q 1547 4250 1301 3770 
Q 1056 3291 1056 2328 
Q 1056 1369 1301 889 
Q 1547 409 2034 409 
Q 2525 409 2770 889 
Q 3016 1369 3016 2328 
Q 3016 3291 2770 3770 
Q 2525 4250 2034 4250 
z
M 2034 4750 
Q 2819 4750 3233 4129 
Q 3647 3509 3647 2328 
Q 3647 1150 3233 529 
Q 2819 -91 2034 -91 
Q 1250 -91 836 529 
Q 422 1150 422 2328 
Q 422 3509 836 4129 
Q 1250 4750 2034 4750 
z
" transform="scale(0.015625)"/>
        <path id="DejaVuSans-2212" d="M 678 2272 
L 4684 2272 
L 4684 1741 
L 678 1741 
L 678 2272 
z
" transform="scale(0.015625)"/>
       </defs>
       <use xlink:href="#DejaVuSans-31" transform="translate(0 0.684375)"/>
       <use xlink:href="#DejaVuSans-30" transform="translate(63.623047 0.684375)"/>
       <use xlink:href="#DejaVuSans-2212" transform="translate(128.203125 38.965625) scale(0.7)"/>
       <use xlink:href="#DejaVuSans-31" transform="translate(186.855469 38.965625) scale(0.7)"/>
      </g>
     </g>
    </g>
    <g id="xtick_2">
     <g id="line2d_3">
      <path d="M 159.417352 138.0384 
L 159.417352 7.2 
" clip-path="url(#pa1c1b24114)" style="fill: none; stroke: #d9d9d9; stroke-width: 0.8; stroke-linecap: square"/>
     </g>
     <g id="line2d_4">
      <g>
       <use xlink:href="#m4dd1da29c2" x="159.417352" y="138.0384" style="stroke: #000000; stroke-width: 0.8"/>
      </g>
     </g>
     <g id="text_2">
      <!-- $\mathdefault{10^{0}}$ -->
      <g transform="translate(152.377352 151.11715) scale(0.08 -0.08)">
       <use xlink:href="#DejaVuSans-31" transform="translate(0 0.765625)"/>
       <use xlink:href="#DejaVuSans-30" transform="translate(63.623047 0.765625)"/>
       <use xlink:href="#DejaVuSans-30" transform="translate(128.203125 39.046875) scale(0.7)"/>
      </g>
     </g>
    </g>
    <g id="xtick_3">
     <g id="line2d_5">
      <path d="M 48.884838 138.0384 
L 48.884838 7.2 
" clip-path="url(#pa1c1b24114)" style="fill: none; stroke-dasharray: 2.96,1.28; stroke-dashoffset: 0; stroke: #f2f2f2; stroke-width: 0.8"/>
     </g>
     <g id="line2d_6">
      <defs>
       <path id="m39abec77d8" d="M 0 0 
L 0 2 
" style="stroke: #000000; stroke-width: 0.6"/>
      </defs>
      <g>
       <use xlink:href="#m39abec77d8" x="48.884838" y="138.0384" style="stroke: #000000; stroke-width: 0.6"/>
      </g>
     </g>
    </g>
    <g id="xtick_4">
     <g id="line2d_7">
      <path d="M 85.538931 138.0384 
L 85.538931 7.2 
" clip-path="url(#pa1c1b24114)" style="fill: none; stroke-dasharray: 2.96,1.28; stroke-dashoffset: 0; stroke: #f2f2f2; stroke-width: 0.8"/>
     </g>
     <g id="line2d_8">
      <g>
       <use xlink:href="#m39abec77d8" x="85.538931" y="138.0384" style="stroke: #000000; stroke-width: 0.6"/>
      </g>
     </g>
    </g>
    <g id="xtick_5">
     <g id="line2d_9">
      <path d="M 104.151095 138.0384 
L 104.151095 7.2 
" clip-path="url(#pa1c1b24114)" style="fill: none; stroke-dasharray: 2.96,1.28; stroke-dashoffset: 0; stroke: #f2f2f2; stroke-width: 0.8"/>
     </g>
     <g id="line2d_10">
      <g>
       <use xlink:href="#m39abec77d8" x="104.151095" y="138.0384" style="stroke: #000000; stroke-width: 0.6"/>
      </g>
     </g>
    </g>
    <g id="xtick_6">
     <g id="line2d_11">
      <path d="M 117.356635 138.0384 
L 117.356635 7.2 
" clip-path="url(#pa1c1b24114)" style="fill: none; stroke-dasharray: 2.96,1.28; stroke-dashoffset: 0; stroke: #f2f2f2; stroke-width: 0.8"/>
     </g>
     <g id="line2d_12">
      <g>
       <use xlink:href="#m39abec77d8" x="117.356635" y="138.0384" style="stroke: #000000; stroke-width: 0.6"/>
      </g>
     </g>
    </g>
    <g id="xtick_7">
     <g id="line2d_13">
      <path d="M 127.599648 138.0384 
L 127.599648 7.2 
" clip-path="url(#pa1c1b24114)" style="fill: none; stroke-dasharray: 2.96,1.28; stroke-dashoffset: 0; stroke: #f2f2f2; stroke-width: 0.8"/>
     </g>
     <g id="line2d_14">
      <g>
       <use xlink:href="#m39abec77d8" x="127.599648" y="138.0384" style="stroke: #000000; stroke-width: 0.6"/>
      </g>
     </g>
    </g>
    <g id="xtick_8">
     <g id="line2d_15">
      <path d="M 135.968799 138.0384 
L 135.968799 7.2 
" clip-path="url(#pa1c1b24114)" style="fill: none; stroke-dasharray: 2.96,1.28; stroke-dashoffset: 0; stroke: #f2f2f2; stroke-width: 0.8"/>
     </g>
     <g id="line2d_16">
      <g>
       <use xlink:href="#m39abec77d8" x="135.968799" y="138.0384" style="stroke: #000000; stroke-width: 0.6"/>
      </g>
     </g>
    </g>
    <g id="xtick_9">
     <g id="line2d_17">
      <path d="M 143.044815 138.0384 
L 143.044815 7.2 
" clip-path="url(#pa1c1b24114)" style="fill: none; stroke-dasharray: 2.96,1.28; stroke-dashoffset: 0; stroke: #f2f2f2; stroke-width: 0.8"/>
     </g>
     <g id="line2d_18">
      <g>
       <use xlink:href="#m39abec77d8" x="143.044815" y="138.0384" style="stroke: #000000; stroke-width: 0.6"/>
      </g>
     </g>
    </g>
    <g id="xtick_10">
     <g id="line2d_19">
      <path d="M 149.174339 138.0384 
L 149.174339 7.2 
" clip-path="url(#pa1c1b24114)" style="fill: none; stroke-dasharray: 2.96,1.28; stroke-dashoffset: 0; stroke: #f2f2f2; stroke-width: 0.8"/>
     </g>
     <g id="line2d_20">
      <g>
       <use xlink:href="#m39abec77d8" x="149.174339" y="138.0384" style="stroke: #000000; stroke-width: 0.6"/>
      </g>
     </g>
    </g>
    <g id="xtick_11">
     <g id="line2d_21">
      <path d="M 154.580963 138.0384 
L 154.580963 7.2 
" clip-path="url(#pa1c1b24114)" style="fill: none; stroke-dasharray: 2.96,1.28; stroke-dashoffset: 0; stroke: #f2f2f2; stroke-width: 0.8"/>
     </g>
     <g id="line2d_22">
      <g>
       <use xlink:href="#m39abec77d8" x="154.580963" y="138.0384" style="stroke: #000000; stroke-width: 0.6"/>
      </g>
     </g>
    </g>
    <g id="xtick_12">
     <g id="line2d_23">
      <path d="M 191.235056 138.0384 
L 191.235056 7.2 
" clip-path="url(#pa1c1b24114)" style="fill: none; stroke-dasharray: 2.96,1.28; stroke-dashoffset: 0; stroke: #f2f2f2; stroke-width: 0.8"/>
     </g>
     <g id="line2d_24">
      <g>
       <use xlink:href="#m39abec77d8" x="191.235056" y="138.0384" style="stroke: #000000; stroke-width: 0.6"/>
      </g>
     </g>
    </g>
    <g id="xtick_13">
     <g id="line2d_25">
      <path d="M 209.84722 138.0384 
L 209.84722 7.2 
" clip-path="url(#pa1c1b24114)" style="fill: none; stroke-dasharray: 2.96,1.28; stroke-dashoffset: 0; stroke: #f2f2f2; stroke-width: 0.8"/>
     </g>
     <g id="line2d_26">
      <g>
       <use xlink:href="#m39abec77d8" x="209.84722" y="138.0384" style="stroke: #000000; stroke-width: 0.6"/>
      </g>
     </g>
    </g>
    <g id="xtick_14">
     <g id="line2d_27">
      <path d="M 223.05276 138.0384 
L 223.05276 7.2 
" clip-path="url(#pa1c1b24114)" style="fill: none; stroke-dasharray: 2.96,1.28; stroke-dashoffset: 0; stroke: #f2f2f2; stroke-width: 0.8"/>
     </g>
     <g id="line2d_28">
      <g>
       <use xlink:href="#m39abec77d8" x="223.05276" y="138.0384" style="stroke: #000000; stroke-width: 0.6"/>
      </g>
     </g>
    </g>
    <g id="xtick_15">
     <g id="line2d_29">
      <path d="M 233.295773 138.0384 
L 233.295773 7.2 
" clip-path="url(#pa1c1b24114)" style="fill: none; stroke-dasharray: 2.96,1.28; stroke-dashoffset: 0; stroke: #f2f2f2; stroke-width: 0.8"/>
     </g>
     <g id="line2d_30">
      <g>
       <use xlink:href="#m39abec77d8" x="233.295773" y="138.0384" style="stroke: #000000; stroke-width: 0.6"/>
      </g>
     </g>
    </g>
    <g id="xtick_16">
     <g id="line2d_31">
      <path d="M 241.664924 138.0384 
L 241.664924 7.2 
" clip-path="url(#pa1c1b24114)" style="fill: none; stroke-dasharray: 2.96,1.28; stroke-dashoffset: 0; stroke: #f2f2f2; stroke-width: 0.8"/>
     </g>
     <g id="line2d_32">
      <g>
       <use xlink:href="#m39abec77d8" x="241.664924" y="138.0384" style="stroke: #000000; stroke-width: 0.6"/>
      </g>
     </g>
    </g>
    <g id="text_3">
     <!-- Period, T (s) -->
     <g transform="translate(119.576 162.85965) scale(0.08 -0.08)">
      <defs>
       <path id="DejaVuSans-50" d="M 1259 4147 
L 1259 2394 
L 2053 2394 
Q 2494 2394 2734 2622 
Q 2975 2850 2975 3272 
Q 2975 3691 2734 3919 
Q 2494 4147 2053 4147 
L 1259 4147 
z
M 628 4666 
L 2053 4666 
Q 2838 4666 3239 4311 
Q 3641 3956 3641 3272 
Q 3641 2581 3239 2228 
Q 2838 1875 2053 1875 
L 1259 1875 
L 1259 0 
L 628 0 
L 628 4666 
z
" transform="scale(0.015625)"/>
       <path id="DejaVuSans-65" d="M 3597 1894 
L 3597 1613 
L 953 1613 
Q 991 1019 1311 708 
Q 1631 397 2203 397 
Q 2534 397 2845 478 
Q 3156 559 3463 722 
L 3463 178 
Q 3153 47 2828 -22 
Q 2503 -91 2169 -91 
Q 1331 -91 842 396 
Q 353 884 353 1716 
Q 353 2575 817 3079 
Q 1281 3584 2069 3584 
Q 2775 3584 3186 3129 
Q 3597 2675 3597 1894 
z
M 3022 2063 
Q 3016 2534 2758 2815 
Q 2500 3097 2075 3097 
Q 1594 3097 1305 2825 
Q 1016 2553 972 2059 
L 3022 2063 
z
" transform="scale(0.015625)"/>
       <path id="DejaVuSans-72" d="M 2631 2963 
Q 2534 3019 2420 3045 
Q 2306 3072 2169 3072 
Q 1681 3072 1420 2755 
Q 1159 2438 1159 1844 
L 1159 0 
L 581 0 
L 581 3500 
L 1159 3500 
L 1159 2956 
Q 1341 3275 1631 3429 
Q 1922 3584 2338 3584 
Q 2397 3584 2469 3576 
Q 2541 3569 2628 3553 
L 2631 2963 
z
" transform="scale(0.015625)"/>
       <path id="DejaVuSans-69" d="M 603 3500 
L 1178 3500 
L 1178 0 
L 603 0 
L 603 3500 
z
M 603 4863 
L 1178 4863 
L 1178 4134 
L 603 4134 
L 603 4863 
z
" transform="scale(0.015625)"/>
       <path id="DejaVuSans-6f" d="M 1959 3097 
Q 1497 3097 1228 2736 
Q 959 2375 959 1747 
Q 959 1119 1226 758 
Q 1494 397 1959 397 
Q 2419 397 2687 759 
Q 2956 1122 2956 1747 
Q 2956 2369 2687 2733 
Q 2419 3097 1959 3097 
z
M 1959 3584 
Q 2709 3584 3137 3096 
Q 3566 2609 3566 1747 
Q 3566 888 3137 398 
Q 2709 -91 1959 -91 
Q 1206 -91 779 398 
Q 353 888 353 1747 
Q 353 2609 779 3096 
Q 1206 3584 1959 3584 
z
" transform="scale(0.015625)"/>
       <path id="DejaVuSans-64" d="M 2906 2969 
L 2906 4863 
L 3481 4863 
L 3481 0 
L 2906 0 
L 2906 525 
Q 2725 213 2448 61 
Q 2172 -91 1784 -91 
Q 1150 -91 751 415 
Q 353 922 353 1747 
Q 353 2572 751 3078 
Q 1150 3584 1784 3584 
Q 2172 3584 2448 3432 
Q 2725 3281 2906 2969 
z
M 947 1747 
Q 947 1113 1208 752 
Q 1469 391 1925 391 
Q 2381 391 2643 752 
Q 2906 1113 2906 1747 
Q 2906 2381 2643 2742 
Q 2381 3103 1925 3103 
Q 1469 3103 1208 2742 
Q 947 2381 947 1747 
z
" transform="scale(0.015625)"/>
       <path id="DejaVuSans-2c" d="M 750 794 
L 1409 794 
L 1409 256 
L 897 -744 
L 494 -744 
L 750 256 
L 750 794 
z
" transform="scale(0.015625)"/>
       <path id="DejaVuSans-20" transform="scale(0.015625)"/>
       <path id="DejaVuSans-54" d="M -19 4666 
L 3928 4666 
L 3928 4134 
L 2272 4134 
L 2272 0 
L 1638 0 
L 1638 4134 
L -19 4134 
L -19 4666 
z
" transform="scale(0.015625)"/>
       <path id="DejaVuSans-28" d="M 1984 4856 
Q 1566 4138 1362 3434 
Q 1159 2731 1159 2009 
Q 1159 1288 1364 580 
Q 1569 -128 1984 -844 
L 1484 -844 
Q 1016 -109 783 600 
Q 550 1309 550 2009 
Q 550 2706 781 3412 
Q 1013 4119 1484 4856 
L 1984 4856 
z
" transform="scale(0.015625)"/>
       <path id="DejaVuSans-73" d="M 2834 3397 
L 2834 2853 
Q 2591 2978 2328 3040 
Q 2066 3103 1784 3103 
Q 1356 3103 1142 2972 
Q 928 2841 928 2578 
Q 928 2378 1081 2264 
Q 1234 2150 1697 2047 
L 1894 2003 
Q 2506 1872 2764 1633 
Q 3022 1394 3022 966 
Q 3022 478 2636 193 
Q 2250 -91 1575 -91 
Q 1294 -91 989 -36 
Q 684 19 347 128 
L 347 722 
Q 666 556 975 473 
Q 1284 391 1588 391 
Q 1994 391 2212 530 
Q 2431 669 2431 922 
Q 2431 1156 2273 1281 
Q 2116 1406 1581 1522 
L 1381 1569 
Q 847 1681 609 1914 
Q 372 2147 372 2553 
Q 372 3047 722 3315 
Q 1072 3584 1716 3584 
Q 2034 3584 2315 3537 
Q 2597 3491 2834 3397 
z
" transform="scale(0.015625)"/>
       <path id="DejaVuSans-29" d="M 513 4856 
L 1013 4856 
Q 1481 4119 1714 3412 
Q 1947 2706 1947 2009 
Q 1947 1309 1714 600 
Q 1481 -109 1013 -844 
L 513 -844 
Q 928 -128 1133 580 
Q 1338 1288 1338 2009 
Q 1338 2731 1133 3434 
Q 928 4138 513 4856 
z
" transform="scale(0.015625)"/>
      </defs>
      <use xlink:href="#DejaVuSans-50"/>
      <use xlink:href="#DejaVuSans-65" x="56.677734"/>
      <use xlink:href="#DejaVuSans-72" x="118.201172"/>
      <use xlink:href="#DejaVuSans-69" x="159.314453"/>
      <use xlink:href="#DejaVuSans-6f" x="187.097656"/>
      <use xlink:href="#DejaVuSans-64" x="248.279297"/>
      <use xlink:href="#DejaVuSans-2c" x="311.755859"/>
      <use xlink:href="#DejaVuSans-20" x="343.542969"/>
      <use xlink:href="#DejaVuSans-54" x="375.330078"/>
      <use xlink:href="#DejaVuSans-20" x="436.414062"/>
      <use xlink:href="#DejaVuSans-28" x="468.201172"/>
      <use xlink:href="#DejaVuSans-73" x="507.214844"/>
      <use xlink:href="#DejaVuSans-29" x="559.314453"/>
     </g>
    </g>
   </g>
   <g id="matplotlib.axis_2">
    <g id="ytick_1">
     <g id="line2d_33">
      <path d="M 44.7425 113.114218 
L 242.2745 113.114218 
" clip-path="url(#pa1c1b24114)" style="fill: none; stroke: #d9d9d9; stroke-width: 0.8; stroke-linecap: square"/>
     </g>
     <g id="line2d_34">
      <defs>
       <path id="mc6a3b8ae4c" d="M 0 0 
L -3.5 0 
" style="stroke: #000000; stroke-width: 0.8"/>
      </defs>
      <g>
       <use xlink:href="#mc6a3b8ae4c" x="44.7425" y="113.114218" style="stroke: #000000; stroke-width: 0.8"/>
      </g>
     </g>
     <g id="text_4">
      <!-- $\mathdefault{10^{-1}}$ -->
      <g transform="translate(18.9425 116.153593) scale(0.08 -0.08)">
       <use xlink:href="#DejaVuSans-31" transform="translate(0 0.684375)"/>
       <use xlink:href="#DejaVuSans-30" transform="translate(63.623047 0.684375)"/>
       <use xlink:href="#DejaVuSans-2212" transform="translate(128.203125 38.965625) scale(0.7)"/>
       <use xlink:href="#DejaVuSans-31" transform="translate(186.855469 38.965625) scale(0.7)"/>
      </g>
     </g>
    </g>
    <g id="ytick_2">
     <g id="line2d_35">
      <path d="M 44.7425 64.840045 
L 242.2745 64.840045 
" clip-path="url(#pa1c1b24114)" style="fill: none; stroke: #d9d9d9; stroke-width: 0.8; stroke-linecap: square"/>
     </g>
     <g id="line2d_36">
      <g>
       <use xlink:href="#mc6a3b8ae4c" x="44.7425" y="64.840045" style="stroke: #000000; stroke-width: 0.8"/>
      </g>
     </g>
     <g id="text_5">
      <!-- $\mathdefault{10^{0}}$ -->
      <g transform="translate(23.6625 67.87942) scale(0.08 -0.08)">
       <use xlink:href="#DejaVuSans-31" transform="translate(0 0.765625)"/>
       <use xlink:href="#DejaVuSans-30" transform="translate(63.623047 0.765625)"/>
       <use xlink:href="#DejaVuSans-30" transform="translate(128.203125 39.046875) scale(0.7)"/>
      </g>
     </g>
    </g>
    <g id="ytick_3">
     <g id="line2d_37">
      <path d="M 44.7425 16.565872 
L 242.2745 16.565872 
" clip-path="url(#pa1c1b24114)" style="fill: none; stroke: #d9d9d9; stroke-width: 0.8; stroke-linecap: square"/>
     </g>
     <g id="line2d_38">
      <g>
       <use xlink:href="#mc6a3b8ae4c" x="44.7425" y="16.565872" style="stroke: #000000; stroke-width: 0.8"/>
      </g>
     </g>
     <g id="text_6">
      <!-- $\mathdefault{10^{1}}$ -->
      <g transform="translate(23.6625 19.605247) scale(0.08 -0.08)">
       <use xlink:href="#DejaVuSans-31" transform="translate(0 0.684375)"/>
       <use xlink:href="#DejaVuSans-30" transform="translate(63.623047 0.684375)"/>
       <use xlink:href="#DejaVuSans-31" transform="translate(128.203125 38.965625) scale(0.7)"/>
      </g>
     </g>
    </g>
    <g id="ytick_4">
     <g id="line2d_39">
      <path d="M 44.7425 132.324443 
L 242.2745 132.324443 
" clip-path="url(#pa1c1b24114)" style="fill: none; stroke-dasharray: 2.96,1.28; stroke-dashoffset: 0; stroke: #f2f2f2; stroke-width: 0.8"/>
     </g>
     <g id="line2d_40">
      <defs>
       <path id="m247931f5c7" d="M 0 0 
L -2 0 
" style="stroke: #000000; stroke-width: 0.6"/>
      </defs>
      <g>
       <use xlink:href="#m247931f5c7" x="44.7425" y="132.324443" style="stroke: #000000; stroke-width: 0.6"/>
      </g>
     </g>
    </g>
    <g id="ytick_5">
     <g id="line2d_41">
      <path d="M 44.7425 127.646192 
L 242.2745 127.646192 
" clip-path="url(#pa1c1b24114)" style="fill: none; stroke-dasharray: 2.96,1.28; stroke-dashoffset: 0; stroke: #f2f2f2; stroke-width: 0.8"/>
     </g>
     <g id="line2d_42">
      <g>
       <use xlink:href="#m247931f5c7" x="44.7425" y="127.646192" style="stroke: #000000; stroke-width: 0.6"/>
      </g>
     </g>
    </g>
    <g id="ytick_6">
     <g id="line2d_43">
      <path d="M 44.7425 123.823783 
L 242.2745 123.823783 
" clip-path="url(#pa1c1b24114)" style="fill: none; stroke-dasharray: 2.96,1.28; stroke-dashoffset: 0; stroke: #f2f2f2; stroke-width: 0.8"/>
     </g>
     <g id="line2d_44">
      <g>
       <use xlink:href="#m247931f5c7" x="44.7425" y="123.823783" style="stroke: #000000; stroke-width: 0.6"/>
      </g>
     </g>
    </g>
    <g id="ytick_7">
     <g id="line2d_45">
      <path d="M 44.7425 120.591982 
L 242.2745 120.591982 
" clip-path="url(#pa1c1b24114)" style="fill: none; stroke-dasharray: 2.96,1.28; stroke-dashoffset: 0; stroke: #f2f2f2; stroke-width: 0.8"/>
     </g>
     <g id="line2d_46">
      <g>
       <use xlink:href="#m247931f5c7" x="44.7425" y="120.591982" style="stroke: #000000; stroke-width: 0.6"/>
      </g>
     </g>
    </g>
    <g id="ytick_8">
     <g id="line2d_47">
      <path d="M 44.7425 117.792469 
L 242.2745 117.792469 
" clip-path="url(#pa1c1b24114)" style="fill: none; stroke-dasharray: 2.96,1.28; stroke-dashoffset: 0; stroke: #f2f2f2; stroke-width: 0.8"/>
     </g>
     <g id="line2d_48">
      <g>
       <use xlink:href="#m247931f5c7" x="44.7425" y="117.792469" style="stroke: #000000; stroke-width: 0.6"/>
      </g>
     </g>
    </g>
    <g id="ytick_9">
     <g id="line2d_49">
      <path d="M 44.7425 115.323123 
L 242.2745 115.323123 
" clip-path="url(#pa1c1b24114)" style="fill: none; stroke-dasharray: 2.96,1.28; stroke-dashoffset: 0; stroke: #f2f2f2; stroke-width: 0.8"/>
     </g>
     <g id="line2d_50">
      <g>
       <use xlink:href="#m247931f5c7" x="44.7425" y="115.323123" style="stroke: #000000; stroke-width: 0.6"/>
      </g>
     </g>
    </g>
    <g id="ytick_10">
     <g id="line2d_51">
      <path d="M 44.7425 98.582244 
L 242.2745 98.582244 
" clip-path="url(#pa1c1b24114)" style="fill: none; stroke-dasharray: 2.96,1.28; stroke-dashoffset: 0; stroke: #f2f2f2; stroke-width: 0.8"/>
     </g>
     <g id="line2d_52">
      <g>
       <use xlink:href="#m247931f5c7" x="44.7425" y="98.582244" style="stroke: #000000; stroke-width: 0.6"/>
      </g>
     </g>
    </g>
    <g id="ytick_11">
     <g id="line2d_53">
      <path d="M 44.7425 90.081584 
L 242.2745 90.081584 
" clip-path="url(#pa1c1b24114)" style="fill: none; stroke-dasharray: 2.96,1.28; stroke-dashoffset: 0; stroke: #f2f2f2; stroke-width: 0.8"/>
     </g>
     <g id="line2d_54">
      <g>
       <use xlink:href="#m247931f5c7" x="44.7425" y="90.081584" style="stroke: #000000; stroke-width: 0.6"/>
      </g>
     </g>
    </g>
    <g id="ytick_12">
     <g id="line2d_55">
      <path d="M 44.7425 84.05027 
L 242.2745 84.05027 
" clip-path="url(#pa1c1b24114)" style="fill: none; stroke-dasharray: 2.96,1.28; stroke-dashoffset: 0; stroke: #f2f2f2; stroke-width: 0.8"/>
     </g>
     <g id="line2d_56">
      <g>
       <use xlink:href="#m247931f5c7" x="44.7425" y="84.05027" style="stroke: #000000; stroke-width: 0.6"/>
      </g>
     </g>
    </g>
    <g id="ytick_13">
     <g id="line2d_57">
      <path d="M 44.7425 79.372019 
L 242.2745 79.372019 
" clip-path="url(#pa1c1b24114)" style="fill: none; stroke-dasharray: 2.96,1.28; stroke-dashoffset: 0; stroke: #f2f2f2; stroke-width: 0.8"/>
     </g>
     <g id="line2d_58">
      <g>
       <use xlink:href="#m247931f5c7" x="44.7425" y="79.372019" style="stroke: #000000; stroke-width: 0.6"/>
      </g>
     </g>
    </g>
    <g id="ytick_14">
     <g id="line2d_59">
      <path d="M 44.7425 75.54961 
L 242.2745 75.54961 
" clip-path="url(#pa1c1b24114)" style="fill: none; stroke-dasharray: 2.96,1.28; stroke-dashoffset: 0; stroke: #f2f2f2; stroke-width: 0.8"/>
     </g>
     <g id="line2d_60">
      <g>
       <use xlink:href="#m247931f5c7" x="44.7425" y="75.54961" style="stroke: #000000; stroke-width: 0.6"/>
      </g>
     </g>
    </g>
    <g id="ytick_15">
     <g id="line2d_61">
      <path d="M 44.7425 72.317809 
L 242.2745 72.317809 
" clip-path="url(#pa1c1b24114)" style="fill: none; stroke-dasharray: 2.96,1.28; stroke-dashoffset: 0; stroke: #f2f2f2; stroke-width: 0.8"/>
     </g>
     <g id="line2d_62">
      <g>
       <use xlink:href="#m247931f5c7" x="44.7425" y="72.317809" style="stroke: #000000; stroke-width: 0.6"/>
      </g>
     </g>
    </g>
    <g id="ytick_16">
     <g id="line2d_63">
      <path d="M 44.7425 69.518296 
L 242.2745 69.518296 
" clip-path="url(#pa1c1b24114)" style="fill: none; stroke-dasharray: 2.96,1.28; stroke-dashoffset: 0; stroke: #f2f2f2; stroke-width: 0.8"/>
     </g>
     <g id="line2d_64">
      <g>
       <use xlink:href="#m247931f5c7" x="44.7425" y="69.518296" style="stroke: #000000; stroke-width: 0.6"/>
      </g>
     </g>
    </g>
    <g id="ytick_17">
     <g id="line2d_65">
      <path d="M 44.7425 67.04895 
L 242.2745 67.04895 
" clip-path="url(#pa1c1b24114)" style="fill: none; stroke-dasharray: 2.96,1.28; stroke-dashoffset: 0; stroke: #f2f2f2; stroke-width: 0.8"/>
     </g>
     <g id="line2d_66">
      <g>
       <use xlink:href="#m247931f5c7" x="44.7425" y="67.04895" style="stroke: #000000; stroke-width: 0.6"/>
      </g>
     </g>
    </g>
    <g id="ytick_18">
     <g id="line2d_67">
      <path d="M 44.7425 50.308071 
L 242.2745 50.308071 
" clip-path="url(#pa1c1b24114)" style="fill: none; stroke-dasharray: 2.96,1.28; stroke-dashoffset: 0; stroke: #f2f2f2; stroke-width: 0.8"/>
     </g>
     <g id="line2d_68">
      <g>
       <use xlink:href="#m247931f5c7" x="44.7425" y="50.308071" style="stroke: #000000; stroke-width: 0.6"/>
      </g>
     </g>
    </g>
    <g id="ytick_19">
     <g id="line2d_69">
      <path d="M 44.7425 41.807411 
L 242.2745 41.807411 
" clip-path="url(#pa1c1b24114)" style="fill: none; stroke-dasharray: 2.96,1.28; stroke-dashoffset: 0; stroke: #f2f2f2; stroke-width: 0.8"/>
     </g>
     <g id="line2d_70">
      <g>
       <use xlink:href="#m247931f5c7" x="44.7425" y="41.807411" style="stroke: #000000; stroke-width: 0.6"/>
      </g>
     </g>
    </g>
    <g id="ytick_20">
     <g id="line2d_71">
      <path d="M 44.7425 35.776097 
L 242.2745 35.776097 
" clip-path="url(#pa1c1b24114)" style="fill: none; stroke-dasharray: 2.96,1.28; stroke-dashoffset: 0; stroke: #f2f2f2; stroke-width: 0.8"/>
     </g>
     <g id="line2d_72">
      <g>
       <use xlink:href="#m247931f5c7" x="44.7425" y="35.776097" style="stroke: #000000; stroke-width: 0.6"/>
      </g>
     </g>
    </g>
    <g id="ytick_21">
     <g id="line2d_73">
      <path d="M 44.7425 31.097846 
L 242.2745 31.097846 
" clip-path="url(#pa1c1b24114)" style="fill: none; stroke-dasharray: 2.96,1.28; stroke-dashoffset: 0; stroke: #f2f2f2; stroke-width: 0.8"/>
     </g>
     <g id="line2d_74">
      <g>
       <use xlink:href="#m247931f5c7" x="44.7425" y="31.097846" style="stroke: #000000; stroke-width: 0.6"/>
      </g>
     </g>
    </g>
    <g id="ytick_22">
     <g id="line2d_75">
      <path d="M 44.7425 27.275437 
L 242.2745 27.275437 
" clip-path="url(#pa1c1b24114)" style="fill: none; stroke-dasharray: 2.96,1.28; stroke-dashoffset: 0; stroke: #f2f2f2; stroke-width: 0.8"/>
     </g>
     <g id="line2d_76">
      <g>
       <use xlink:href="#m247931f5c7" x="44.7425" y="27.275437" style="stroke: #000000; stroke-width: 0.6"/>
      </g>
     </g>
    </g>
    <g id="ytick_23">
     <g id="line2d_77">
      <path d="M 44.7425 24.043636 
L 242.2745 24.043636 
" clip-path="url(#pa1c1b24114)" style="fill: none; stroke-dasharray: 2.96,1.28; stroke-dashoffset: 0; stroke: #f2f2f2; stroke-width: 0.8"/>
     </g>
     <g id="line2d_78">
      <g>
       <use xlink:href="#m247931f5c7" x="44.7425" y="24.043636" style="stroke: #000000; stroke-width: 0.6"/>
      </g>
     </g>
    </g>
    <g id="ytick_24">
     <g id="line2d_79">
      <path d="M 44.7425 21.244123 
L 242.2745 21.244123 
" clip-path="url(#pa1c1b24114)" style="fill: none; stroke-dasharray: 2.96,1.28; stroke-dashoffset: 0; stroke: #f2f2f2; stroke-width: 0.8"/>
     </g>
     <g id="line2d_80">
      <g>
       <use xlink:href="#m247931f5c7" x="44.7425" y="21.244123" style="stroke: #000000; stroke-width: 0.6"/>
      </g>
     </g>
    </g>
    <g id="ytick_25">
     <g id="line2d_81">
      <path d="M 44.7425 18.774777 
L 242.2745 18.774777 
" clip-path="url(#pa1c1b24114)" style="fill: none; stroke-dasharray: 2.96,1.28; stroke-dashoffset: 0; stroke: #f2f2f2; stroke-width: 0.8"/>
     </g>
     <g id="line2d_82">
      <g>
       <use xlink:href="#m247931f5c7" x="44.7425" y="18.774777" style="stroke: #000000; stroke-width: 0.6"/>
      </g>
     </g>
    </g>
    <g id="text_7">
     <!-- Spectral acceleration, SA (g) -->
     <g transform="translate(13.27875 129.871075) rotate(-90) scale(0.08 -0.08)">
      <defs>
       <path id="DejaVuSans-53" d="M 3425 4513 
L 3425 3897 
Q 3066 4069 2747 4153 
Q 2428 4238 2131 4238 
Q 1616 4238 1336 4038 
Q 1056 3838 1056 3469 
Q 1056 3159 1242 3001 
Q 1428 2844 1947 2747 
L 2328 2669 
Q 3034 2534 3370 2195 
Q 3706 1856 3706 1288 
Q 3706 609 3251 259 
Q 2797 -91 1919 -91 
Q 1588 -91 1214 -16 
Q 841 59 441 206 
L 441 856 
Q 825 641 1194 531 
Q 1563 422 1919 422 
Q 2459 422 2753 634 
Q 3047 847 3047 1241 
Q 3047 1584 2836 1778 
Q 2625 1972 2144 2069 
L 1759 2144 
Q 1053 2284 737 2584 
Q 422 2884 422 3419 
Q 422 4038 858 4394 
Q 1294 4750 2059 4750 
Q 2388 4750 2728 4690 
Q 3069 4631 3425 4513 
z
" transform="scale(0.015625)"/>
       <path id="DejaVuSans-70" d="M 1159 525 
L 1159 -1331 
L 581 -1331 
L 581 3500 
L 1159 3500 
L 1159 2969 
Q 1341 3281 1617 3432 
Q 1894 3584 2278 3584 
Q 2916 3584 3314 3078 
Q 3713 2572 3713 1747 
Q 3713 922 3314 415 
Q 2916 -91 2278 -91 
Q 1894 -91 1617 61 
Q 1341 213 1159 525 
z
M 3116 1747 
Q 3116 2381 2855 2742 
Q 2594 3103 2138 3103 
Q 1681 3103 1420 2742 
Q 1159 2381 1159 1747 
Q 1159 1113 1420 752 
Q 1681 391 2138 391 
Q 2594 391 2855 752 
Q 3116 1113 3116 1747 
z
" transform="scale(0.015625)"/>
       <path id="DejaVuSans-63" d="M 3122 3366 
L 3122 2828 
Q 2878 2963 2633 3030 
Q 2388 3097 2138 3097 
Q 1578 3097 1268 2742 
Q 959 2388 959 1747 
Q 959 1106 1268 751 
Q 1578 397 2138 397 
Q 2388 397 2633 464 
Q 2878 531 3122 666 
L 3122 134 
Q 2881 22 2623 -34 
Q 2366 -91 2075 -91 
Q 1284 -91 818 406 
Q 353 903 353 1747 
Q 353 2603 823 3093 
Q 1294 3584 2113 3584 
Q 2378 3584 2631 3529 
Q 2884 3475 3122 3366 
z
" transform="scale(0.015625)"/>
       <path id="DejaVuSans-74" d="M 1172 4494 
L 1172 3500 
L 2356 3500 
L 2356 3053 
L 1172 3053 
L 1172 1153 
Q 1172 725 1289 603 
Q 1406 481 1766 481 
L 2356 481 
L 2356 0 
L 1766 0 
Q 1100 0 847 248 
Q 594 497 594 1153 
L 594 3053 
L 172 3053 
L 172 3500 
L 594 3500 
L 594 4494 
L 1172 4494 
z
" transform="scale(0.015625)"/>
       <path id="DejaVuSans-61" d="M 2194 1759 
Q 1497 1759 1228 1600 
Q 959 1441 959 1056 
Q 959 750 1161 570 
Q 1363 391 1709 391 
Q 2188 391 2477 730 
Q 2766 1069 2766 1631 
L 2766 1759 
L 2194 1759 
z
M 3341 1997 
L 3341 0 
L 2766 0 
L 2766 531 
Q 2569 213 2275 61 
Q 1981 -91 1556 -91 
Q 1019 -91 701 211 
Q 384 513 384 1019 
Q 384 1609 779 1909 
Q 1175 2209 1959 2209 
L 2766 2209 
L 2766 2266 
Q 2766 2663 2505 2880 
Q 2244 3097 1772 3097 
Q 1472 3097 1187 3025 
Q 903 2953 641 2809 
L 641 3341 
Q 956 3463 1253 3523 
Q 1550 3584 1831 3584 
Q 2591 3584 2966 3190 
Q 3341 2797 3341 1997 
z
" transform="scale(0.015625)"/>
       <path id="DejaVuSans-6c" d="M 603 4863 
L 1178 4863 
L 1178 0 
L 603 0 
L 603 4863 
z
" transform="scale(0.015625)"/>
       <path id="DejaVuSans-6e" d="M 3513 2113 
L 3513 0 
L 2938 0 
L 2938 2094 
Q 2938 2591 2744 2837 
Q 2550 3084 2163 3084 
Q 1697 3084 1428 2787 
Q 1159 2491 1159 1978 
L 1159 0 
L 581 0 
L 581 3500 
L 1159 3500 
L 1159 2956 
Q 1366 3272 1645 3428 
Q 1925 3584 2291 3584 
Q 2894 3584 3203 3211 
Q 3513 2838 3513 2113 
z
" transform="scale(0.015625)"/>
       <path id="DejaVuSans-41" d="M 2188 4044 
L 1331 1722 
L 3047 1722 
L 2188 4044 
z
M 1831 4666 
L 2547 4666 
L 4325 0 
L 3669 0 
L 3244 1197 
L 1141 1197 
L 716 0 
L 50 0 
L 1831 4666 
z
" transform="scale(0.015625)"/>
       <path id="DejaVuSans-67" d="M 2906 1791 
Q 2906 2416 2648 2759 
Q 2391 3103 1925 3103 
Q 1463 3103 1205 2759 
Q 947 2416 947 1791 
Q 947 1169 1205 825 
Q 1463 481 1925 481 
Q 2391 481 2648 825 
Q 2906 1169 2906 1791 
z
M 3481 434 
Q 3481 -459 3084 -895 
Q 2688 -1331 1869 -1331 
Q 1566 -1331 1297 -1286 
Q 1028 -1241 775 -1147 
L 775 -588 
Q 1028 -725 1275 -790 
Q 1522 -856 1778 -856 
Q 2344 -856 2625 -561 
Q 2906 -266 2906 331 
L 2906 616 
Q 2728 306 2450 153 
Q 2172 0 1784 0 
Q 1141 0 747 490 
Q 353 981 353 1791 
Q 353 2603 747 3093 
Q 1141 3584 1784 3584 
Q 2172 3584 2450 3431 
Q 2728 3278 2906 2969 
L 2906 3500 
L 3481 3500 
L 3481 434 
z
" transform="scale(0.015625)"/>
      </defs>
      <use xlink:href="#DejaVuSans-53"/>
      <use xlink:href="#DejaVuSans-70" x="63.476562"/>
      <use xlink:href="#DejaVuSans-65" x="126.953125"/>
      <use xlink:href="#DejaVuSans-63" x="188.476562"/>
      <use xlink:href="#DejaVuSans-74" x="243.457031"/>
      <use xlink:href="#DejaVuSans-72" x="282.666016"/>
      <use xlink:href="#DejaVuSans-61" x="323.779297"/>
      <use xlink:href="#DejaVuSans-6c" x="385.058594"/>
      <use xlink:href="#DejaVuSans-20" x="412.841797"/>
      <use xlink:href="#DejaVuSans-61" x="444.628906"/>
      <use xlink:href="#DejaVuSans-63" x="505.908203"/>
      <use xlink:href="#DejaVuSans-63" x="560.888672"/>
      <use xlink:href="#DejaVuSans-65" x="615.869141"/>
      <use xlink:href="#DejaVuSans-6c" x="677.392578"/>
      <use xlink:href="#DejaVuSans-65" x="705.175781"/>
      <use xlink:href="#DejaVuSans-72" x="766.699219"/>
      <use xlink:href="#DejaVuSans-61" x="807.8125"/>
      <use xlink:href="#DejaVuSans-74" x="869.091797"/>
      <use xlink:href="#DejaVuSans-69" x="908.300781"/>
      <use xlink:href="#DejaVuSans-6f" x="936.083984"/>
      <use xlink:href="#DejaVuSans-6e" x="997.265625"/>
      <use xlink:href="#DejaVuSans-2c" x="1060.644531"/>
      <use xlink:href="#DejaVuSans-20" x="1092.431641"/>
      <use xlink:href="#DejaVuSans-53" x="1124.21875"/>
      <use xlink:href="#DejaVuSans-41" x="1189.570312"/>
      <use xlink:href="#DejaVuSans-20" x="1257.978516"/>
      <use xlink:href="#DejaVuSans-28" x="1289.765625"/>
      <use xlink:href="#DejaVuSans-67" x="1328.779297"/>
      <use xlink:href="#DejaVuSans-29" x="1392.255859"/>
     </g>
    </g>
   </g>
   <g id="line2d_83">
    <path d="M 53.721227 66.22811 
L 72.333391 62.91879 
L 85.538931 57.883209 
L 95.781944 56.870396 
L 104.151095 55.223433 
L 117.356635 44.445812 
L 127.045477 38.515795 
L 127.599648 38.672196 
L 146.211812 55.079066 
L 159.417352 52.12975 
L 171.460723 61.256646 
L 178.029516 60.552651 
L 191.235056 71.762617 
L 209.84722 77.662467 
L 223.05276 99.878807 
L 233.295773 107.302277 
" clip-path="url(#pa1c1b24114)" style="fill: none; stroke: #b2b2b2; stroke-width: 0.8; stroke-linecap: square"/>
   </g>
   <g id="line2d_84">
    <path d="M 53.721227 36.552941 
L 72.333391 38.300262 
L 85.538931 33.026693 
L 95.781944 41.95542 
L 104.151095 34.758119 
L 117.356635 38.331553 
L 127.045477 38.515795 
L 127.599648 39.601224 
L 146.211812 63.749759 
L 159.417352 71.821982 
L 171.460723 66.932676 
L 178.029516 73.513154 
L 191.235056 80.405053 
L 209.84722 102.485127 
L 223.05276 99.549619 
L 233.295773 102.587703 
" clip-path="url(#pa1c1b24114)" style="fill: none; stroke: #b2b2b2; stroke-width: 0.8; stroke-linecap: square"/>
   </g>
   <g id="line2d_85">
    <path d="M 53.721227 25.809885 
L 72.333391 14.775203 
L 85.538931 14.784227 
L 95.781944 13.1472 
L 104.151095 26.437623 
L 117.356635 33.66475 
L 127.045477 38.515795 
L 127.599648 39.845688 
L 146.211812 36.916701 
L 159.417352 44.621974 
L 171.460723 47.136686 
L 178.029516 50.165306 
L 191.235056 58.28755 
L 209.84722 72.349763 
L 223.05276 86.706476 
L 233.295773 90.044359 
" clip-path="url(#pa1c1b24114)" style="fill: none; stroke: #b2b2b2; stroke-width: 0.8; stroke-linecap: square"/>
   </g>
   <g id="line2d_86">
    <path d="M 53.721227 56.814623 
L 72.333391 55.446141 
L 85.538931 59.001919 
L 95.781944 47.177836 
L 104.151095 42.370136 
L 117.356635 43.184318 
L 127.045477 38.515795 
L 127.599648 38.848542 
L 146.211812 46.909871 
L 159.417352 47.18972 
L 171.460723 62.170062 
L 178.029516 60.095116 
L 191.235056 67.931431 
L 209.84722 75.749932 
L 223.05276 81.73994 
L 233.295773 96.743858 
" clip-path="url(#pa1c1b24114)" style="fill: none; stroke: #b2b2b2; stroke-width: 0.8; stroke-linecap: square"/>
   </g>
   <g id="line2d_87">
    <path d="M 53.721227 53.848402 
L 72.333391 50.19251 
L 85.538931 46.766537 
L 95.781944 44.150155 
L 104.151095 42.042532 
L 117.356635 38.642497 
L 127.045477 38.515795 
L 127.599648 38.103036 
L 146.211812 31.639397 
L 159.417352 43.028104 
L 171.460723 48.983716 
L 178.029516 43.471388 
L 191.235056 62.570032 
L 209.84722 84.958367 
L 223.05276 98.319774 
L 233.295773 109.653653 
" clip-path="url(#pa1c1b24114)" style="fill: none; stroke: #b2b2b2; stroke-width: 0.8; stroke-linecap: square"/>
   </g>
   <g id="line2d_88">
    <path d="M 53.721227 54.596999 
L 72.333391 49.825555 
L 85.538931 39.542838 
L 95.781944 44.005414 
L 104.151095 43.106142 
L 117.356635 42.43237 
L 127.045477 38.515795 
L 127.599648 38.306025 
L 146.211812 46.988572 
L 159.417352 46.376659 
L 171.460723 55.723799 
L 178.029516 65.937627 
L 191.235056 78.315484 
L 209.84722 82.897895 
L 223.05276 87.40445 
L 233.295773 100.071961 
" clip-path="url(#pa1c1b24114)" style="fill: none; stroke: #b2b2b2; stroke-width: 0.8; stroke-linecap: square"/>
   </g>
   <g id="line2d_89">
    <path d="M 53.721227 56.205031 
L 72.333391 55.875988 
L 85.538931 51.763347 
L 95.781944 45.365152 
L 104.151095 38.532626 
L 117.356635 41.682814 
L 127.045477 38.515795 
L 127.599648 38.731398 
L 146.211812 41.018712 
L 159.417352 62.047895 
L 171.460723 58.31181 
L 178.029516 66.598611 
L 191.235056 85.869371 
L 209.84722 105.116054 
L 223.05276 109.522655 
L 233.295773 107.109039 
" clip-path="url(#pa1c1b24114)" style="fill: none; stroke: #b2b2b2; stroke-width: 0.8; stroke-linecap: square"/>
   </g>
   <g id="line2d_90">
    <path d="M 53.721227 57.509522 
L 72.333391 50.829031 
L 85.538931 51.4479 
L 95.781944 44.015799 
L 104.151095 42.671606 
L 117.356635 40.232362 
L 127.045477 38.515795 
L 127.599648 37.560842 
L 146.211812 46.37329 
L 159.417352 48.338885 
L 171.460723 67.707633 
L 178.029516 72.093768 
L 191.235056 76.667357 
L 209.84722 77.614507 
L 223.05276 90.729599 
L 233.295773 93.445651 
" clip-path="url(#pa1c1b24114)" style="fill: none; stroke: #b2b2b2; stroke-width: 0.8; stroke-linecap: square"/>
   </g>
   <g id="line2d_91">
    <path d="M 53.721227 59.22794 
L 72.333391 56.978004 
L 85.538931 51.66119 
L 95.781944 45.466992 
L 104.151095 41.73266 
L 117.356635 37.143947 
L 127.045477 38.515795 
L 127.599648 39.432699 
L 146.211812 48.829773 
L 159.417352 57.335341 
L 171.460723 56.216854 
L 178.029516 58.421109 
L 191.235056 77.424563 
L 209.84722 101.452092 
L 223.05276 104.629115 
L 233.295773 110.217953 
" clip-path="url(#pa1c1b24114)" style="fill: none; stroke: #b2b2b2; stroke-width: 0.8; stroke-linecap: square"/>
   </g>
   <g id="line2d_92">
    <path d="M 53.721227 66.214506 
L 72.333391 63.959839 
L 85.538931 54.632679 
L 95.781944 51.669807 
L 104.151095 45.56035 
L 117.356635 43.99298 
L 127.045477 38.515795 
L 127.599648 37.783321 
L 146.211812 52.355569 
L 159.417352 67.174508 
L 171.460723 78.698296 
L 178.029516 87.255153 
L 191.235056 100.870018 
L 209.84722 111.736787 
L 223.05276 116.598837 
L 233.295773 124.00228 
" clip-path="url(#pa1c1b24114)" style="fill: none; stroke: #b2b2b2; stroke-width: 0.8; stroke-linecap: square"/>
   </g>
   <g id="line2d_93">
    <path d="M 53.721227 48.31941 
L 72.333391 41.140139 
L 85.538931 37.547249 
L 95.781944 38.385637 
L 104.151095 38.387129 
L 117.356635 42.753441 
L 127.045477 38.515795 
L 127.599648 37.400563 
L 146.211812 31.659896 
L 159.417352 50.727123 
L 171.460723 56.464628 
L 178.029516 60.568916 
L 191.235056 82.142902 
L 209.84722 91.347383 
L 223.05276 100.728219 
L 233.295773 109.608892 
" clip-path="url(#pa1c1b24114)" style="fill: none; stroke: #b2b2b2; stroke-width: 0.8; stroke-linecap: square"/>
   </g>
   <g id="line2d_94">
    <path d="M 53.721227 52.136882 
L 72.333391 42.797911 
L 85.538931 42.821882 
L 95.781944 45.098852 
L 104.151095 47.345557 
L 117.356635 36.445552 
L 127.045477 38.515795 
L 127.599648 38.875339 
L 146.211812 61.784541 
L 159.417352 66.380249 
L 171.460723 67.321645 
L 178.029516 79.388875 
L 191.235056 81.868504 
L 209.84722 77.189978 
L 223.05276 88.927392 
L 233.295773 108.594299 
" clip-path="url(#pa1c1b24114)" style="fill: none; stroke: #b2b2b2; stroke-width: 0.8; stroke-linecap: square"/>
   </g>
   <g id="line2d_95">
    <path d="M 53.721227 37.018666 
L 72.333391 36.317367 
L 85.538931 40.542779 
L 95.781944 41.849087 
L 104.151095 35.420679 
L 117.356635 36.291662 
L 127.045477 38.515795 
L 127.599648 38.736554 
L 146.211812 53.621975 
L 159.417352 63.932324 
L 171.460723 71.831013 
L 178.029516 76.370111 
L 191.235056 95.043012 
L 209.84722 109.776789 
L 223.05276 106.522832 
L 233.295773 112.402354 
" clip-path="url(#pa1c1b24114)" style="fill: none; stroke: #b2b2b2; stroke-width: 0.8; stroke-linecap: square"/>
   </g>
   <g id="line2d_96">
    <path d="M 53.721227 52.843893 
L 72.333391 48.67037 
L 85.538931 44.819106 
L 95.781944 45.063676 
L 104.151095 34.63887 
L 117.356635 38.819881 
L 127.045477 38.515795 
L 127.599648 38.784478 
L 146.211812 48.625905 
L 159.417352 46.846912 
L 171.460723 67.507816 
L 178.029516 67.380202 
L 191.235056 76.596181 
L 209.84722 75.433701 
L 223.05276 83.643518 
L 233.295773 98.177032 
" clip-path="url(#pa1c1b24114)" style="fill: none; stroke: #b2b2b2; stroke-width: 0.8; stroke-linecap: square"/>
   </g>
   <g id="line2d_97">
    <path d="M 53.721227 49.284267 
L 72.333391 45.88094 
L 85.538931 43.597852 
L 95.781944 42.994099 
L 104.151095 41.166211 
L 117.356635 36.941267 
L 127.045477 38.515795 
L 127.599648 39.136262 
L 146.211812 36.626403 
L 159.417352 32.177293 
L 171.460723 44.670177 
L 178.029516 50.674004 
L 191.235056 60.675363 
L 209.84722 80.05501 
L 223.05276 91.57703 
L 233.295773 102.252296 
" clip-path="url(#pa1c1b24114)" style="fill: none; stroke: #b2b2b2; stroke-width: 0.8; stroke-linecap: square"/>
   </g>
   <g id="line2d_98">
    <path d="M 53.721227 58.665443 
L 72.333391 55.002192 
L 85.538931 43.715586 
L 95.781944 34.307042 
L 104.151095 34.429271 
L 117.356635 44.100159 
L 127.045477 38.515795 
L 127.599648 38.210309 
L 146.211812 52.539062 
L 159.417352 61.305169 
L 171.460723 65.553051 
L 178.029516 73.810369 
L 191.235056 88.801487 
L 209.84722 106.916113 
L 223.05276 122.3664 
L 233.295773 132.0912 
" clip-path="url(#pa1c1b24114)" style="fill: none; stroke: #b2b2b2; stroke-width: 0.8; stroke-linecap: square"/>
   </g>
   <g id="line2d_99">
    <path d="M 53.721227 52.819726 
L 72.333391 47.329775 
L 85.538931 45.527486 
L 95.781944 40.052673 
L 104.151095 43.007325 
L 117.356635 37.872012 
L 127.045477 38.515795 
L 127.599648 38.91877 
L 146.211812 47.31224 
L 159.417352 61.760781 
L 171.460723 73.426652 
L 178.029516 66.340555 
L 191.235056 76.500402 
L 209.84722 105.524211 
L 223.05276 108.331556 
L 233.295773 120.271677 
" clip-path="url(#pa1c1b24114)" style="fill: none; stroke: #b2b2b2; stroke-width: 0.8; stroke-linecap: square"/>
   </g>
   <g id="line2d_100">
    <path d="M 53.721227 59.081644 
L 72.333391 51.322883 
L 85.538931 52.968798 
L 95.781944 43.162993 
L 104.151095 47.483889 
L 117.356635 48.447074 
L 127.045477 38.515795 
L 127.599648 38.059059 
L 146.211812 50.865597 
L 159.417352 51.779766 
L 171.460723 56.07538 
L 178.029516 66.997014 
L 191.235056 71.555978 
L 209.84722 75.968891 
L 223.05276 79.580611 
L 233.295773 77.920262 
" clip-path="url(#pa1c1b24114)" style="fill: none; stroke: #b2b2b2; stroke-width: 0.8; stroke-linecap: square"/>
   </g>
   <g id="line2d_101">
    <path d="M 53.721227 64.052548 
L 72.333391 57.04092 
L 85.538931 52.114308 
L 95.781944 49.680186 
L 104.151095 47.795814 
L 117.356635 39.964594 
L 127.045477 38.515795 
L 127.599648 38.664906 
L 146.211812 56.935751 
L 159.417352 50.222286 
L 171.460723 54.112798 
L 178.029516 59.124761 
L 191.235056 65.360592 
L 209.84722 73.553401 
L 223.05276 79.455803 
L 233.295773 91.032103 
" clip-path="url(#pa1c1b24114)" style="fill: none; stroke: #b2b2b2; stroke-width: 0.8; stroke-linecap: square"/>
   </g>
   <g id="line2d_102">
    <path d="M 53.721227 52.638488 
L 72.333391 48.485918 
L 85.538931 48.556799 
L 95.781944 50.548494 
L 104.151095 42.692617 
L 117.356635 39.466846 
L 127.045477 38.515795 
L 127.599648 38.417773 
L 146.211812 36.551007 
L 159.417352 33.120216 
L 171.460723 43.652706 
L 178.029516 46.365485 
L 191.235056 53.074638 
L 209.84722 78.779292 
L 223.05276 95.172974 
L 233.295773 109.09795 
" clip-path="url(#pa1c1b24114)" style="fill: none; stroke: #b2b2b2; stroke-width: 0.8; stroke-linecap: square"/>
   </g>
   <g id="line2d_103">
    <path d="M 53.721227 53.247459 
L 72.333391 48.370817 
L 85.538931 35.445626 
L 95.781944 40.387538 
L 104.151095 39.42389 
L 117.356635 35.988992 
L 127.045477 38.515795 
L 127.599648 38.243351 
L 146.211812 58.487245 
L 159.417352 64.646522 
L 171.460723 61.984349 
L 178.029516 72.032439 
L 191.235056 76.123149 
L 209.84722 84.36168 
L 223.05276 99.185484 
L 233.295773 109.616304 
" clip-path="url(#pa1c1b24114)" style="fill: none; stroke: #b2b2b2; stroke-width: 0.8; stroke-linecap: square"/>
   </g>
   <g id="line2d_104">
    <path d="M 53.721227 42.349619 
L 72.333391 40.217621 
L 85.538931 44.276277 
L 95.781944 48.999962 
L 104.151095 43.839156 
L 117.356635 45.116766 
L 127.045477 38.515795 
L 127.599648 38.133327 
L 146.211812 39.832247 
L 159.417352 45.57122 
L 171.460723 47.90153 
L 178.029516 60.030842 
L 191.235056 56.09139 
L 209.84722 72.966633 
L 223.05276 79.134364 
L 233.295773 75.266631 
" clip-path="url(#pa1c1b24114)" style="fill: none; stroke: #b2b2b2; stroke-width: 0.8; stroke-linecap: square"/>
   </g>
   <g id="line2d_105">
    <path d="M 53.721227 53.568144 
L 72.333391 46.75352 
L 85.538931 44.496526 
L 95.781944 44.262206 
L 104.151095 44.552462 
L 117.356635 36.653898 
L 127.045477 38.515795 
L 127.599648 38.275963 
L 146.211812 53.946874 
L 159.417352 66.997954 
L 171.460723 74.440582 
L 178.029516 67.750793 
L 191.235056 70.54426 
L 209.84722 88.633807 
L 223.05276 101.353548 
L 233.295773 111.664632 
" clip-path="url(#pa1c1b24114)" style="fill: none; stroke: #b2b2b2; stroke-width: 0.8; stroke-linecap: square"/>
   </g>
   <g id="line2d_106">
    <path d="M 53.721227 27.150296 
L 72.333391 25.341787 
L 85.538931 27.263185 
L 95.781944 23.419038 
L 104.151095 26.854445 
L 117.356635 39.114097 
L 127.045477 38.515795 
L 127.599648 38.671398 
L 146.211812 47.431086 
L 159.417352 54.251379 
L 171.460723 61.669331 
L 178.029516 65.317179 
L 191.235056 78.517234 
L 209.84722 83.369752 
L 223.05276 85.078824 
L 233.295773 93.10639 
" clip-path="url(#pa1c1b24114)" style="fill: none; stroke: #b2b2b2; stroke-width: 0.8; stroke-linecap: square"/>
   </g>
   <g id="line2d_107">
    <path d="M 53.721227 54.779693 
L 72.333391 43.197913 
L 85.538931 45.250084 
L 95.781944 33.588866 
L 104.151095 29.314389 
L 117.356635 32.401668 
L 127.045477 38.515795 
L 127.599648 39.340715 
L 146.211812 59.193892 
L 159.417352 61.015596 
L 171.460723 69.002006 
L 178.029516 67.633763 
L 191.235056 79.913739 
L 209.84722 91.836657 
L 223.05276 90.788923 
L 233.295773 98.851713 
" clip-path="url(#pa1c1b24114)" style="fill: none; stroke: #b2b2b2; stroke-width: 0.8; stroke-linecap: square"/>
   </g>
   <g id="line2d_108">
    <path d="M 53.721227 52.628503 
L 72.333391 51.264035 
L 85.538931 38.648515 
L 95.781944 32.306347 
L 104.151095 33.870027 
L 117.356635 37.590117 
L 127.045477 38.515795 
L 127.599648 37.238983 
L 146.211812 45.966538 
L 159.417352 47.894385 
L 171.460723 60.016797 
L 178.029516 73.526877 
L 191.235056 63.107277 
L 209.84722 82.103784 
L 223.05276 95.769473 
L 233.295773 107.143955 
" clip-path="url(#pa1c1b24114)" style="fill: none; stroke: #b2b2b2; stroke-width: 0.8; stroke-linecap: square"/>
   </g>
   <g id="line2d_109">
    <path d="M 53.721227 35.425873 
L 72.333391 32.503295 
L 85.538931 31.502494 
L 95.781944 34.438311 
L 104.151095 40.820863 
L 117.356635 29.671934 
L 127.045477 38.515795 
L 127.599648 38.907441 
L 146.211812 48.704544 
L 159.417352 53.996291 
L 171.460723 65.35392 
L 178.029516 69.48442 
L 191.235056 76.973688 
L 209.84722 90.880463 
L 223.05276 103.95793 
L 233.295773 115.843708 
" clip-path="url(#pa1c1b24114)" style="fill: none; stroke: #b2b2b2; stroke-width: 0.8; stroke-linecap: square"/>
   </g>
   <g id="line2d_110">
    <path d="M 53.721227 50.664204 
L 72.333391 43.264001 
L 85.538931 40.438703 
L 95.781944 40.900964 
L 104.151095 40.827846 
L 117.356635 37.520898 
L 127.045477 38.515795 
L 127.599648 39.934397 
L 146.211812 44.729889 
L 159.417352 68.170889 
L 171.460723 74.281435 
L 178.029516 74.644846 
L 191.235056 75.186252 
L 209.84722 95.301347 
L 223.05276 108.215386 
L 233.295773 105.836132 
" clip-path="url(#pa1c1b24114)" style="fill: none; stroke: #b2b2b2; stroke-width: 0.8; stroke-linecap: square"/>
   </g>
   <g id="line2d_111">
    <path d="M 53.721227 55.802211 
L 72.333391 56.727921 
L 85.538931 50.74425 
L 95.781944 49.932293 
L 104.151095 46.217371 
L 117.356635 41.896091 
L 127.045477 38.515795 
L 127.599648 39.001693 
L 146.211812 42.900115 
L 159.417352 41.481199 
L 171.460723 42.298848 
L 178.029516 49.33479 
L 191.235056 63.013486 
L 209.84722 81.993659 
L 223.05276 93.570979 
L 233.295773 102.031246 
" clip-path="url(#pa1c1b24114)" style="fill: none; stroke: #b2b2b2; stroke-width: 0.8; stroke-linecap: square"/>
   </g>
   <g id="line2d_112">
    <path d="M 53.721227 56.293697 
L 72.333391 50.471109 
L 85.538931 46.706979 
L 95.781944 50.945647 
L 104.151095 49.512297 
L 117.356635 39.627943 
L 127.045477 38.515795 
L 127.599648 38.99149 
L 146.211812 45.451052 
L 159.417352 52.186423 
L 171.460723 53.579922 
L 178.029516 59.620246 
L 191.235056 70.039064 
L 209.84722 83.194866 
L 223.05276 97.22719 
L 233.295773 111.264396 
" clip-path="url(#pa1c1b24114)" style="fill: none; stroke: #b2b2b2; stroke-width: 0.8; stroke-linecap: square"/>
   </g>
   <g id="line2d_113">
    <path d="M 53.721227 49.088544 
L 72.333391 47.563097 
L 85.538931 42.055828 
L 95.781944 36.195721 
L 104.151095 31.904834 
L 117.356635 36.449169 
L 127.045477 38.515795 
L 127.599648 38.729577 
L 146.211812 48.802395 
L 159.417352 59.788114 
L 171.460723 79.83828 
L 178.029516 81.808159 
L 191.235056 89.067086 
L 209.84722 97.007108 
L 223.05276 107.459932 
L 233.295773 119.652536 
" clip-path="url(#pa1c1b24114)" style="fill: none; stroke: #b2b2b2; stroke-width: 0.8; stroke-linecap: square"/>
   </g>
   <g id="line2d_114">
    <path d="M 53.721227 58.059796 
L 72.333391 55.691323 
L 85.538931 50.241858 
L 95.781944 52.178024 
L 104.151095 47.443596 
L 117.356635 48.556805 
L 127.045477 38.515795 
L 127.599648 38.508959 
L 146.211812 48.148899 
L 159.417352 50.638257 
L 171.460723 58.072117 
L 178.029516 66.314888 
L 191.235056 73.538311 
L 209.84722 88.966923 
L 223.05276 104.59416 
L 233.295773 115.657903 
" clip-path="url(#pa1c1b24114)" style="fill: none; stroke: #b2b2b2; stroke-width: 0.8; stroke-linecap: square"/>
   </g>
   <g id="line2d_115">
    <path d="M 53.721227 19.44356 
L 72.333391 21.634706 
L 85.538931 14.683419 
L 95.781944 24.028738 
L 104.151095 18.391422 
L 117.356635 28.891218 
L 127.045477 38.515795 
L 127.599648 38.896591 
L 146.211812 45.944068 
L 159.417352 53.396519 
L 171.460723 61.537904 
L 178.029516 73.365345 
L 191.235056 75.99074 
L 209.84722 91.176375 
L 223.05276 111.11868 
L 233.295773 122.693539 
" clip-path="url(#pa1c1b24114)" style="fill: none; stroke: #b2b2b2; stroke-width: 0.8; stroke-linecap: square"/>
   </g>
   <g id="line2d_116">
    <path d="M 53.721227 48.69568 
L 72.333391 48.479325 
L 85.538931 44.311774 
L 95.781944 45.884013 
L 104.151095 43.994198 
L 117.356635 34.323526 
L 127.045477 38.515795 
L 127.599648 39.177417 
L 146.211812 54.084646 
L 159.417352 59.225254 
L 171.460723 63.996009 
L 178.029516 60.702891 
L 191.235056 68.381983 
L 209.84722 88.856013 
L 223.05276 99.967106 
L 233.295773 110.875508 
" clip-path="url(#pa1c1b24114)" style="fill: none; stroke: #b2b2b2; stroke-width: 0.8; stroke-linecap: square"/>
   </g>
   <g id="line2d_117">
    <path d="M 53.721227 55.748243 
L 72.333391 46.864353 
L 85.538931 43.314903 
L 95.781944 44.76867 
L 104.151095 37.030031 
L 117.356635 44.450536 
L 127.045477 38.515795 
L 127.599648 38.213361 
L 146.211812 58.51379 
L 159.417352 65.674963 
L 171.460723 65.058212 
L 178.029516 70.984877 
L 191.235056 85.268761 
L 209.84722 91.114377 
L 223.05276 90.459853 
L 233.295773 97.42364 
" clip-path="url(#pa1c1b24114)" style="fill: none; stroke: #b2b2b2; stroke-width: 0.8; stroke-linecap: square"/>
   </g>
   <g id="line2d_118">
    <path d="M 53.721227 38.599895 
L 72.333391 30.471911 
L 85.538931 35.069622 
L 95.781944 29.849264 
L 104.151095 32.884903 
L 117.356635 36.86256 
L 127.045477 38.515795 
L 127.599648 38.465079 
L 146.211812 51.540037 
L 159.417352 58.010426 
L 171.460723 59.96756 
L 178.029516 63.88865 
L 191.235056 79.474807 
L 209.84722 90.560484 
L 223.05276 93.478643 
L 233.295773 95.450808 
" clip-path="url(#pa1c1b24114)" style="fill: none; stroke: #b2b2b2; stroke-width: 0.8; stroke-linecap: square"/>
   </g>
   <g id="line2d_119">
    <path d="M 53.721227 49.689539 
L 72.333391 51.702961 
L 85.538931 47.429266 
L 95.781944 38.702327 
L 104.151095 39.389721 
L 117.356635 46.542315 
L 127.045477 38.515795 
L 127.599648 38.222528 
L 146.211812 41.971193 
L 159.417352 44.474425 
L 171.460723 45.338903 
L 178.029516 48.263994 
L 191.235056 58.647461 
L 209.84722 68.956555 
L 223.05276 79.451304 
L 233.295773 91.288464 
" clip-path="url(#pa1c1b24114)" style="fill: none; stroke: #b2b2b2; stroke-width: 0.8; stroke-linecap: square"/>
   </g>
   <g id="line2d_120">
    <path d="M 53.721227 58.459894 
L 72.333391 57.876784 
L 85.538931 45.976001 
L 95.781944 42.827494 
L 104.151095 39.638349 
L 117.356635 40.341777 
L 127.045477 38.515795 
L 127.599648 37.517511 
L 146.211812 49.65048 
L 159.417352 51.066293 
L 171.460723 62.69119 
L 178.029516 69.319726 
L 191.235056 87.695483 
L 209.84722 89.84725 
L 223.05276 104.065137 
L 233.295773 110.787358 
" clip-path="url(#pa1c1b24114)" style="fill: none; stroke: #b2b2b2; stroke-width: 0.8; stroke-linecap: square"/>
   </g>
   <g id="line2d_121">
    <path d="M 53.721227 45.320155 
L 72.333391 25.940779 
L 85.538931 32.977629 
L 95.781944 37.482589 
L 104.151095 40.380112 
L 117.356635 37.046015 
L 127.045477 38.515795 
L 127.599648 39.445874 
L 146.211812 50.230771 
L 159.417352 72.198672 
L 171.460723 83.694268 
L 178.029516 88.86319 
L 191.235056 91.262748 
L 209.84722 110.578387 
L 223.05276 115.66636 
L 233.295773 119.683167 
" clip-path="url(#pa1c1b24114)" style="fill: none; stroke: #b2b2b2; stroke-width: 0.8; stroke-linecap: square"/>
   </g>
   <g id="line2d_122">
    <path d="M 53.721227 33.01673 
L 72.333391 34.265359 
L 85.538931 28.819922 
L 95.781944 31.410722 
L 104.151095 24.647817 
L 117.356635 38.042974 
L 127.045477 38.515795 
L 127.599648 37.571893 
L 146.211812 39.30502 
L 159.417352 59.905989 
L 171.460723 62.474685 
L 178.029516 65.57355 
L 191.235056 65.531472 
L 209.84722 78.72497 
L 223.05276 88.398016 
L 233.295773 101.614215 
" clip-path="url(#pa1c1b24114)" style="fill: none; stroke: #b2b2b2; stroke-width: 0.8; stroke-linecap: square"/>
   </g>
   <g id="line2d_123">
    <path d="M 53.721227 56.026518 
L 72.333391 50.601309 
L 85.538931 44.925966 
L 95.781944 39.345263 
L 104.151095 34.925242 
L 117.356635 39.156736 
L 127.045477 38.515795 
L 127.599648 39.740531 
L 146.211812 48.831961 
L 159.417352 57.837594 
L 171.460723 61.932626 
L 178.029516 68.389169 
L 191.235056 63.991768 
L 209.84722 72.342435 
L 223.05276 83.958274 
L 233.295773 97.397672 
" clip-path="url(#pa1c1b24114)" style="fill: none; stroke: #b2b2b2; stroke-width: 0.8; stroke-linecap: square"/>
   </g>
   <g id="line2d_124">
    <path d="M 53.721227 59.864939 
L 72.333391 50.717893 
L 85.538931 53.142241 
L 95.781944 56.51734 
L 104.151095 55.089978 
L 117.356635 42.606355 
L 127.045477 38.515795 
L 127.599648 38.101854 
L 146.211812 44.790419 
L 159.417352 56.614442 
L 171.460723 69.225603 
L 178.029516 66.968048 
L 191.235056 80.611324 
L 209.84722 91.698266 
L 223.05276 105.912397 
L 233.295773 114.216815 
" clip-path="url(#pa1c1b24114)" style="fill: none; stroke: #b2b2b2; stroke-width: 0.8; stroke-linecap: square"/>
   </g>
   <g id="line2d_125">
    <path d="M 53.721227 46.674531 
L 72.333391 44.290406 
L 85.538931 42.015129 
L 95.781944 47.329167 
L 104.151095 44.090043 
L 117.356635 41.364426 
L 127.045477 38.515795 
L 127.599648 38.71444 
L 146.211812 49.236816 
L 159.417352 50.470976 
L 171.460723 41.625381 
L 178.029516 44.281784 
L 191.235056 55.79504 
L 209.84722 69.447454 
L 223.05276 75.396051 
L 233.295773 82.717187 
" clip-path="url(#pa1c1b24114)" style="fill: none; stroke: #b2b2b2; stroke-width: 0.8; stroke-linecap: square"/>
   </g>
   <g id="line2d_126">
    <path d="M 53.721227 30.057338 
L 72.333391 28.291012 
L 85.538931 25.497957 
L 95.781944 26.819471 
L 104.151095 26.926042 
L 117.356635 31.286181 
L 127.045477 38.515795 
L 127.599648 38.597368 
L 146.211812 46.231936 
L 159.417352 68.292023 
L 171.460723 72.161372 
L 178.029516 74.643343 
L 191.235056 77.0423 
L 209.84722 88.865999 
L 223.05276 96.806994 
L 233.295773 103.314795 
" clip-path="url(#pa1c1b24114)" style="fill: none; stroke: #b2b2b2; stroke-width: 0.8; stroke-linecap: square"/>
   </g>
   <g id="line2d_127">
    <path d="M 53.721227 39.880164 
L 72.333391 26.694284 
L 85.538931 32.545283 
L 95.781944 38.778388 
L 104.151095 33.766995 
L 117.356635 29.270146 
L 127.045477 38.515795 
L 127.599648 39.744911 
L 146.211812 48.60623 
L 159.417352 44.950567 
L 171.460723 55.391714 
L 178.029516 58.819106 
L 191.235056 68.51227 
L 209.84722 83.779553 
L 223.05276 94.875355 
L 233.295773 109.220019 
" clip-path="url(#pa1c1b24114)" style="fill: none; stroke: #b2b2b2; stroke-width: 0.8; stroke-linecap: square"/>
   </g>
   <g id="line2d_128">
    <path d="M 53.721227 41.529835 
L 72.333391 38.040063 
L 85.538931 35.063694 
L 95.781944 32.111697 
L 104.151095 31.331242 
L 117.356635 30.894934 
L 127.045477 38.515795 
L 127.599648 38.129057 
L 146.211812 41.174407 
L 159.417352 54.281369 
L 171.460723 55.748888 
L 178.029516 59.38572 
L 191.235056 66.09385 
L 209.84722 79.852607 
L 223.05276 96.13139 
L 233.295773 107.18605 
" clip-path="url(#pa1c1b24114)" style="fill: none; stroke: #b2b2b2; stroke-width: 0.8; stroke-linecap: square"/>
   </g>
   <g id="line2d_129">
    <path d="M 53.721227 69.242684 
L 72.333391 66.230505 
L 85.538931 65.442675 
L 95.781944 63.803498 
L 104.151095 61.493719 
L 117.356635 52.910689 
L 127.045477 38.515795 
L 127.599648 37.387305 
L 146.211812 59.118348 
L 159.417352 60.322691 
L 171.460723 68.046539 
L 178.029516 60.153368 
L 191.235056 79.349944 
L 209.84722 85.917824 
L 223.05276 109.592846 
L 233.295773 108.15899 
" clip-path="url(#pa1c1b24114)" style="fill: none; stroke: #b2b2b2; stroke-width: 0.8; stroke-linecap: square"/>
   </g>
   <g id="line2d_130">
    <path d="M 53.721227 49.113341 
L 72.333391 44.768227 
L 85.538931 45.660261 
L 95.781944 41.638519 
L 104.151095 41.579484 
L 117.356635 33.82625 
L 127.045477 38.515795 
L 127.599648 38.14005 
L 146.211812 50.916479 
L 159.417352 61.826749 
L 171.460723 73.585519 
L 178.029516 85.697116 
L 191.235056 91.907286 
L 209.84722 103.213722 
L 223.05276 119.772347 
L 233.295773 126.841038 
" clip-path="url(#pa1c1b24114)" style="fill: none; stroke: #b2b2b2; stroke-width: 0.8; stroke-linecap: square"/>
   </g>
   <g id="line2d_131">
    <path d="M 53.721227 50.222951 
L 72.333391 44.193196 
L 85.538931 37.278414 
L 95.781944 38.749335 
L 104.151095 34.973313 
L 117.356635 35.40267 
L 127.045477 38.515795 
L 127.599648 38.748641 
L 146.211812 44.899427 
L 159.417352 57.469998 
L 171.460723 68.756684 
L 178.029516 67.312655 
L 191.235056 67.455026 
L 209.84722 72.744665 
L 223.05276 83.699736 
L 233.295773 89.61453 
" clip-path="url(#pa1c1b24114)" style="fill: none; stroke: #b2b2b2; stroke-width: 0.8; stroke-linecap: square"/>
   </g>
   <g id="line2d_132">
    <path d="M 53.721227 31.626215 
L 72.333391 28.783884 
L 85.538931 37.969302 
L 95.781944 36.958833 
L 104.151095 41.735336 
L 117.356635 35.56195 
L 127.045477 38.515795 
L 127.599648 40.746929 
L 146.211812 44.94287 
L 159.417352 58.297915 
L 171.460723 61.38182 
L 178.029516 70.044932 
L 191.235056 85.608632 
L 209.84722 92.552627 
L 223.05276 96.43497 
L 233.295773 107.136723 
" clip-path="url(#pa1c1b24114)" style="fill: none; stroke: #b2b2b2; stroke-width: 0.8; stroke-linecap: square"/>
   </g>
   <g id="line2d_133">
    <path d="M 53.721227 49.963075 
L 72.333391 45.146851 
L 85.538931 42.319415 
L 95.781944 40.967699 
L 104.151095 39.638849 
L 117.356635 38.821459 
L 127.045477 38.515795 
L 127.599648 38.731639 
L 146.211812 47.924953 
L 159.417352 55.039387 
L 171.460723 61.59237 
L 178.029516 65.533967 
L 191.235056 74.728017 
L 209.84722 86.936969 
L 223.05276 96.750053 
L 233.295773 105.298172 
" clip-path="url(#pa1c1b24114)" style="fill: none; stroke: #ff0000; stroke-width: 2; stroke-linecap: square"/>
   </g>
   <g id="line2d_134">
    <path d="M 53.721227 27.929539 
L 72.333391 22.951807 
L 85.538931 22.140856 
L 95.781944 22.829785 
L 104.151095 23.922846 
L 117.356635 28.724939 
L 127.045477 38.515794 
L 127.599648 36.159802 
L 146.211812 33.749809 
L 159.417352 37.205253 
L 171.460723 41.572381 
L 178.029516 44.854503 
L 191.235056 53.397489 
L 209.84722 64.566285 
L 223.05276 74.368807 
L 233.295773 82.149321 
" clip-path="url(#pa1c1b24114)" style="fill: none; stroke-dasharray: 7.4,3.2; stroke-dashoffset: 0; stroke: #ff0000; stroke-width: 2"/>
   </g>
   <g id="line2d_135">
    <path d="M 53.721227 71.996611 
L 72.333391 67.341895 
L 85.538931 62.497975 
L 95.781944 59.105612 
L 104.151095 55.354852 
L 117.356635 48.917979 
L 127.045477 38.515795 
L 127.599648 41.303475 
L 146.211812 62.100097 
L 159.417352 72.87352 
L 171.460723 81.61236 
L 178.029516 86.21343 
L 191.235056 96.058545 
L 209.84722 109.307653 
L 223.05276 119.131299 
L 233.295773 128.447024 
" clip-path="url(#pa1c1b24114)" style="fill: none; stroke-dasharray: 7.4,3.2; stroke-dashoffset: 0; stroke: #ff0000; stroke-width: 2"/>
   </g>
   <g id="line2d_136">
    <path d="M 53.721227 49.442784 
L 72.333391 45.086063 
L 85.538931 42.438323 
L 95.781944 41.390543 
L 104.151095 39.633034 
L 117.356635 38.884511 
L 127.045477 38.515795 
L 127.599648 38.632552 
L 146.211812 47.999335 
L 159.417352 55.185441 
L 171.460723 61.696161 
L 178.029516 65.785618 
L 191.235056 74.649167 
L 209.84722 87.14828 
L 223.05276 96.858145 
L 233.295773 105.283657 
" clip-path="url(#pa1c1b24114)" style="fill: none; stroke: #0000ff; stroke-width: 2; stroke-linecap: square"/>
   </g>
   <g id="line2d_137">
    <path d="M 53.721227 27.561525 
L 72.333391 22.595216 
L 85.538931 22.535365 
L 95.781944 23.368496 
L 104.151095 23.610157 
L 117.356635 28.793202 
L 127.045477 38.515795 
L 127.599648 37.191655 
L 146.211812 33.844872 
L 159.417352 36.971207 
L 171.460723 41.957855 
L 178.029516 45.173882 
L 191.235056 53.083651 
L 209.84722 64.411192 
L 223.05276 74.325303 
L 233.295773 81.801644 
" clip-path="url(#pa1c1b24114)" style="fill: none; stroke-dasharray: 7.4,3.2; stroke-dashoffset: 0; stroke: #0000ff; stroke-width: 2"/>
   </g>
   <g id="line2d_138">
    <path d="M 53.721227 71.324042 
L 72.333391 67.576909 
L 85.538931 62.341282 
L 95.781944 59.41259 
L 104.151095 55.655912 
L 117.356635 48.975819 
L 127.045477 38.515795 
L 127.599648 40.07345 
L 146.211812 62.153798 
L 159.417352 73.399674 
L 171.460723 81.434467 
L 178.029516 86.397353 
L 191.235056 96.214684 
L 209.84722 109.885368 
L 223.05276 119.390988 
L 233.295773 128.765671 
" clip-path="url(#pa1c1b24114)" style="fill: none; stroke-dasharray: 7.4,3.2; stroke-dashoffset: 0; stroke: #0000ff; stroke-width: 2"/>
   </g>
   <g id="patch_3">
    <path d="M 44.7425 138.0384 
L 44.7425 7.2 
" style="fill: none; stroke: #000000; stroke-width: 0.8; stroke-linejoin: miter; stroke-linecap: square"/>
   </g>
   <g id="patch_4">
    <path d="M 242.2745 138.0384 
L 242.2745 7.2 
" style="fill: none; stroke: #000000; stroke-width: 0.8; stroke-linejoin: miter; stroke-linecap: square"/>
   </g>
   <g id="patch_5">
    <path d="M 44.7425 138.0384 
L 242.2745 138.0384 
" style="fill: none; stroke: #000000; stroke-width: 0.8; stroke-linejoin: miter; stroke-linecap: square"/>
   </g>
   <g id="patch_6">
    <path d="M 44.7425 7.2 
L 242.2745 7.2 
" style="fill: none; stroke: #000000; stroke-width: 0.8; stroke-linejoin: miter; stroke-linecap: square"/>
   </g>
   <g id="legend_1">
    <g id="patch_7">
     <path d="M 247.8745 104.47295 
L 432.5945 104.47295 
Q 434.1945 104.47295 434.1945 102.87295 
L 434.1945 42.36545 
Q 434.1945 40.76545 432.5945 40.76545 
L 247.8745 40.76545 
Q 246.2745 40.76545 246.2745 42.36545 
L 246.2745 102.87295 
Q 246.2745 104.47295 247.8745 104.47295 
z
" style="fill: #ffffff; opacity: 0.8; stroke: #cccccc; stroke-linejoin: miter"/>
    </g>
    <g id="line2d_139">
     <path d="M 249.4745 47.2442 
L 257.4745 47.2442 
L 265.4745 47.2442 
" style="fill: none; stroke: #b2b2b2; stroke-width: 0.8; stroke-linecap: square"/>
    </g>
    <g id="text_8">
     <!-- Individual selected GMs -->
     <g transform="translate(271.8745 50.0442) scale(0.08 -0.08)">
      <defs>
       <path id="DejaVuSans-49" d="M 628 4666 
L 1259 4666 
L 1259 0 
L 628 0 
L 628 4666 
z
" transform="scale(0.015625)"/>
       <path id="DejaVuSans-76" d="M 191 3500 
L 800 3500 
L 1894 563 
L 2988 3500 
L 3597 3500 
L 2284 0 
L 1503 0 
L 191 3500 
z
" transform="scale(0.015625)"/>
       <path id="DejaVuSans-75" d="M 544 1381 
L 544 3500 
L 1119 3500 
L 1119 1403 
Q 1119 906 1312 657 
Q 1506 409 1894 409 
Q 2359 409 2629 706 
Q 2900 1003 2900 1516 
L 2900 3500 
L 3475 3500 
L 3475 0 
L 2900 0 
L 2900 538 
Q 2691 219 2414 64 
Q 2138 -91 1772 -91 
Q 1169 -91 856 284 
Q 544 659 544 1381 
z
M 1991 3584 
L 1991 3584 
z
" transform="scale(0.015625)"/>
       <path id="DejaVuSans-47" d="M 3809 666 
L 3809 1919 
L 2778 1919 
L 2778 2438 
L 4434 2438 
L 4434 434 
Q 4069 175 3628 42 
Q 3188 -91 2688 -91 
Q 1594 -91 976 548 
Q 359 1188 359 2328 
Q 359 3472 976 4111 
Q 1594 4750 2688 4750 
Q 3144 4750 3555 4637 
Q 3966 4525 4313 4306 
L 4313 3634 
Q 3963 3931 3569 4081 
Q 3175 4231 2741 4231 
Q 1884 4231 1454 3753 
Q 1025 3275 1025 2328 
Q 1025 1384 1454 906 
Q 1884 428 2741 428 
Q 3075 428 3337 486 
Q 3600 544 3809 666 
z
" transform="scale(0.015625)"/>
       <path id="DejaVuSans-4d" d="M 628 4666 
L 1569 4666 
L 2759 1491 
L 3956 4666 
L 4897 4666 
L 4897 0 
L 4281 0 
L 4281 4097 
L 3078 897 
L 2444 897 
L 1241 4097 
L 1241 0 
L 628 0 
L 628 4666 
z
" transform="scale(0.015625)"/>
      </defs>
      <use xlink:href="#DejaVuSans-49"/>
      <use xlink:href="#DejaVuSans-6e" x="29.492188"/>
      <use xlink:href="#DejaVuSans-64" x="92.871094"/>
      <use xlink:href="#DejaVuSans-69" x="156.347656"/>
      <use xlink:href="#DejaVuSans-76" x="184.130859"/>
      <use xlink:href="#DejaVuSans-69" x="243.310547"/>
      <use xlink:href="#DejaVuSans-64" x="271.09375"/>
      <use xlink:href="#DejaVuSans-75" x="334.570312"/>
      <use xlink:href="#DejaVuSans-61" x="397.949219"/>
      <use xlink:href="#DejaVuSans-6c" x="459.228516"/>
      <use xlink:href="#DejaVuSans-20" x="487.011719"/>
      <use xlink:href="#DejaVuSans-73" x="518.798828"/>
      <use xlink:href="#DejaVuSans-65" x="570.898438"/>
      <use xlink:href="#DejaVuSans-6c" x="632.421875"/>
      <use xlink:href="#DejaVuSans-65" x="660.205078"/>
      <use xlink:href="#DejaVuSans-63" x="721.728516"/>
      <use xlink:href="#DejaVuSans-74" x="776.708984"/>
      <use xlink:href="#DejaVuSans-65" x="815.917969"/>
      <use xlink:href="#DejaVuSans-64" x="877.441406"/>
      <use xlink:href="#DejaVuSans-20" x="940.917969"/>
      <use xlink:href="#DejaVuSans-47" x="972.705078"/>
      <use xlink:href="#DejaVuSans-4d" x="1050.195312"/>
      <use xlink:href="#DejaVuSans-73" x="1136.474609"/>
     </g>
    </g>
    <g id="line2d_140">
     <path d="M 249.4745 58.9867 
L 257.4745 58.9867 
L 265.4745 58.9867 
" style="fill: none; stroke: #ff0000; stroke-width: 2; stroke-linecap: square"/>
    </g>
    <g id="text_9">
     <!-- GCIM median -->
     <g transform="translate(271.8745 61.7867) scale(0.08 -0.08)">
      <defs>
       <path id="DejaVuSans-43" d="M 4122 4306 
L 4122 3641 
Q 3803 3938 3442 4084 
Q 3081 4231 2675 4231 
Q 1875 4231 1450 3742 
Q 1025 3253 1025 2328 
Q 1025 1406 1450 917 
Q 1875 428 2675 428 
Q 3081 428 3442 575 
Q 3803 722 4122 1019 
L 4122 359 
Q 3791 134 3420 21 
Q 3050 -91 2638 -91 
Q 1578 -91 968 557 
Q 359 1206 359 2328 
Q 359 3453 968 4101 
Q 1578 4750 2638 4750 
Q 3056 4750 3426 4639 
Q 3797 4528 4122 4306 
z
" transform="scale(0.015625)"/>
       <path id="DejaVuSans-6d" d="M 3328 2828 
Q 3544 3216 3844 3400 
Q 4144 3584 4550 3584 
Q 5097 3584 5394 3201 
Q 5691 2819 5691 2113 
L 5691 0 
L 5113 0 
L 5113 2094 
Q 5113 2597 4934 2840 
Q 4756 3084 4391 3084 
Q 3944 3084 3684 2787 
Q 3425 2491 3425 1978 
L 3425 0 
L 2847 0 
L 2847 2094 
Q 2847 2600 2669 2842 
Q 2491 3084 2119 3084 
Q 1678 3084 1418 2786 
Q 1159 2488 1159 1978 
L 1159 0 
L 581 0 
L 581 3500 
L 1159 3500 
L 1159 2956 
Q 1356 3278 1631 3431 
Q 1906 3584 2284 3584 
Q 2666 3584 2933 3390 
Q 3200 3197 3328 2828 
z
" transform="scale(0.015625)"/>
      </defs>
      <use xlink:href="#DejaVuSans-47"/>
      <use xlink:href="#DejaVuSans-43" x="77.490234"/>
      <use xlink:href="#DejaVuSans-49" x="147.314453"/>
      <use xlink:href="#DejaVuSans-4d" x="176.806641"/>
      <use xlink:href="#DejaVuSans-20" x="263.085938"/>
      <use xlink:href="#DejaVuSans-6d" x="294.873047"/>
      <use xlink:href="#DejaVuSans-65" x="392.285156"/>
      <use xlink:href="#DejaVuSans-64" x="453.808594"/>
      <use xlink:href="#DejaVuSans-69" x="517.285156"/>
      <use xlink:href="#DejaVuSans-61" x="545.068359"/>
      <use xlink:href="#DejaVuSans-6e" x="606.347656"/>
     </g>
    </g>
    <g id="line2d_141">
     <path d="M 249.4745 72.01045 
L 257.4745 72.01045 
L 265.4745 72.01045 
" style="fill: none; stroke-dasharray: 7.4,3.2; stroke-dashoffset: 0; stroke: #ff0000; stroke-width: 2"/>
    </g>
    <g id="text_10">
     <!-- GCIM $16^{th}$ and $84^{th}$ percentiles -->
     <g transform="translate(271.8745 74.81045) scale(0.08 -0.08)">
      <defs>
       <path id="DejaVuSans-36" d="M 2113 2584 
Q 1688 2584 1439 2293 
Q 1191 2003 1191 1497 
Q 1191 994 1439 701 
Q 1688 409 2113 409 
Q 2538 409 2786 701 
Q 3034 994 3034 1497 
Q 3034 2003 2786 2293 
Q 2538 2584 2113 2584 
z
M 3366 4563 
L 3366 3988 
Q 3128 4100 2886 4159 
Q 2644 4219 2406 4219 
Q 1781 4219 1451 3797 
Q 1122 3375 1075 2522 
Q 1259 2794 1537 2939 
Q 1816 3084 2150 3084 
Q 2853 3084 3261 2657 
Q 3669 2231 3669 1497 
Q 3669 778 3244 343 
Q 2819 -91 2113 -91 
Q 1303 -91 875 529 
Q 447 1150 447 2328 
Q 447 3434 972 4092 
Q 1497 4750 2381 4750 
Q 2619 4750 2861 4703 
Q 3103 4656 3366 4563 
z
" transform="scale(0.015625)"/>
       <path id="DejaVuSans-Oblique-74" d="M 2706 3500 
L 2619 3053 
L 1472 3053 
L 1100 1153 
Q 1081 1047 1072 975 
Q 1063 903 1063 863 
Q 1063 663 1183 572 
Q 1303 481 1569 481 
L 2150 481 
L 2053 0 
L 1503 0 
Q 991 0 739 200 
Q 488 400 488 806 
Q 488 878 497 964 
Q 506 1050 525 1153 
L 897 3053 
L 409 3053 
L 500 3500 
L 978 3500 
L 1172 4494 
L 1747 4494 
L 1556 3500 
L 2706 3500 
z
" transform="scale(0.015625)"/>
       <path id="DejaVuSans-Oblique-68" d="M 3566 2113 
L 3156 0 
L 2578 0 
L 2988 2091 
Q 3016 2238 3031 2350 
Q 3047 2463 3047 2528 
Q 3047 2791 2881 2937 
Q 2716 3084 2419 3084 
Q 1956 3084 1617 2771 
Q 1278 2459 1178 1941 
L 800 0 
L 225 0 
L 1172 4863 
L 1747 4863 
L 1375 2950 
Q 1594 3244 1934 3414 
Q 2275 3584 2650 3584 
Q 3113 3584 3367 3334 
Q 3622 3084 3622 2631 
Q 3622 2519 3608 2391 
Q 3594 2263 3566 2113 
z
" transform="scale(0.015625)"/>
       <path id="DejaVuSans-38" d="M 2034 2216 
Q 1584 2216 1326 1975 
Q 1069 1734 1069 1313 
Q 1069 891 1326 650 
Q 1584 409 2034 409 
Q 2484 409 2743 651 
Q 3003 894 3003 1313 
Q 3003 1734 2745 1975 
Q 2488 2216 2034 2216 
z
M 1403 2484 
Q 997 2584 770 2862 
Q 544 3141 544 3541 
Q 544 4100 942 4425 
Q 1341 4750 2034 4750 
Q 2731 4750 3128 4425 
Q 3525 4100 3525 3541 
Q 3525 3141 3298 2862 
Q 3072 2584 2669 2484 
Q 3125 2378 3379 2068 
Q 3634 1759 3634 1313 
Q 3634 634 3220 271 
Q 2806 -91 2034 -91 
Q 1263 -91 848 271 
Q 434 634 434 1313 
Q 434 1759 690 2068 
Q 947 2378 1403 2484 
z
M 1172 3481 
Q 1172 3119 1398 2916 
Q 1625 2713 2034 2713 
Q 2441 2713 2670 2916 
Q 2900 3119 2900 3481 
Q 2900 3844 2670 4047 
Q 2441 4250 2034 4250 
Q 1625 4250 1398 4047 
Q 1172 3844 1172 3481 
z
" transform="scale(0.015625)"/>
       <path id="DejaVuSans-34" d="M 2419 4116 
L 825 1625 
L 2419 1625 
L 2419 4116 
z
M 2253 4666 
L 3047 4666 
L 3047 1625 
L 3713 1625 
L 3713 1100 
L 3047 1100 
L 3047 0 
L 2419 0 
L 2419 1100 
L 313 1100 
L 313 1709 
L 2253 4666 
z
" transform="scale(0.015625)"/>
      </defs>
      <use xlink:href="#DejaVuSans-47" transform="translate(0 0.529687)"/>
      <use xlink:href="#DejaVuSans-43" transform="translate(77.490234 0.529687)"/>
      <use xlink:href="#DejaVuSans-49" transform="translate(147.314453 0.529687)"/>
      <use xlink:href="#DejaVuSans-4d" transform="translate(176.806641 0.529687)"/>
      <use xlink:href="#DejaVuSans-20" transform="translate(263.085938 0.529687)"/>
      <use xlink:href="#DejaVuSans-31" transform="translate(294.873047 0.529687)"/>
      <use xlink:href="#DejaVuSans-36" transform="translate(358.496094 0.529687)"/>
      <use xlink:href="#DejaVuSans-Oblique-74" transform="translate(423.076172 38.810937) scale(0.7)"/>
      <use xlink:href="#DejaVuSans-Oblique-68" transform="translate(450.522461 38.810937) scale(0.7)"/>
      <use xlink:href="#DejaVuSans-20" transform="translate(497.62207 0.529687)"/>
      <use xlink:href="#DejaVuSans-61" transform="translate(529.40918 0.529687)"/>
      <use xlink:href="#DejaVuSans-6e" transform="translate(590.688477 0.529687)"/>
      <use xlink:href="#DejaVuSans-64" transform="translate(654.067383 0.529687)"/>
      <use xlink:href="#DejaVuSans-20" transform="translate(717.543945 0.529687)"/>
      <use xlink:href="#DejaVuSans-38" transform="translate(749.331055 0.529687)"/>
      <use xlink:href="#DejaVuSans-34" transform="translate(812.954102 0.529687)"/>
      <use xlink:href="#DejaVuSans-Oblique-74" transform="translate(877.53418 38.810937) scale(0.7)"/>
      <use xlink:href="#DejaVuSans-Oblique-68" transform="translate(904.980469 38.810937) scale(0.7)"/>
      <use xlink:href="#DejaVuSans-20" transform="translate(952.080078 0.529687)"/>
      <use xlink:href="#DejaVuSans-70" transform="translate(983.867188 0.529687)"/>
      <use xlink:href="#DejaVuSans-65" transform="translate(1047.34375 0.529687)"/>
      <use xlink:href="#DejaVuSans-72" transform="translate(1108.867188 0.529687)"/>
      <use xlink:href="#DejaVuSans-63" transform="translate(1149.980469 0.529687)"/>
      <use xlink:href="#DejaVuSans-65" transform="translate(1204.960938 0.529687)"/>
      <use xlink:href="#DejaVuSans-6e" transform="translate(1266.484375 0.529687)"/>
      <use xlink:href="#DejaVuSans-74" transform="translate(1329.863281 0.529687)"/>
      <use xlink:href="#DejaVuSans-69" transform="translate(1369.072266 0.529687)"/>
      <use xlink:href="#DejaVuSans-6c" transform="translate(1396.855469 0.529687)"/>
      <use xlink:href="#DejaVuSans-65" transform="translate(1424.638672 0.529687)"/>
      <use xlink:href="#DejaVuSans-73" transform="translate(1486.162109 0.529687)"/>
     </g>
    </g>
    <g id="line2d_142">
     <path d="M 249.4745 83.7692 
L 257.4745 83.7692 
L 265.4745 83.7692 
" style="fill: none; stroke: #0000ff; stroke-width: 2; stroke-linecap: square"/>
    </g>
    <g id="text_11">
     <!-- Selected GMs median -->
     <g transform="translate(271.8745 86.5692) scale(0.08 -0.08)">
      <use xlink:href="#DejaVuSans-53"/>
      <use xlink:href="#DejaVuSans-65" x="63.476562"/>
      <use xlink:href="#DejaVuSans-6c" x="125"/>
      <use xlink:href="#DejaVuSans-65" x="152.783203"/>
      <use xlink:href="#DejaVuSans-63" x="214.306641"/>
      <use xlink:href="#DejaVuSans-74" x="269.287109"/>
      <use xlink:href="#DejaVuSans-65" x="308.496094"/>
      <use xlink:href="#DejaVuSans-64" x="370.019531"/>
      <use xlink:href="#DejaVuSans-20" x="433.496094"/>
      <use xlink:href="#DejaVuSans-47" x="465.283203"/>
      <use xlink:href="#DejaVuSans-4d" x="542.773438"/>
      <use xlink:href="#DejaVuSans-73" x="629.052734"/>
      <use xlink:href="#DejaVuSans-20" x="681.152344"/>
      <use xlink:href="#DejaVuSans-6d" x="712.939453"/>
      <use xlink:href="#DejaVuSans-65" x="810.351562"/>
      <use xlink:href="#DejaVuSans-64" x="871.875"/>
      <use xlink:href="#DejaVuSans-69" x="935.351562"/>
      <use xlink:href="#DejaVuSans-61" x="963.134766"/>
      <use xlink:href="#DejaVuSans-6e" x="1024.414062"/>
     </g>
    </g>
    <g id="line2d_143">
     <path d="M 249.4745 96.79295 
L 257.4745 96.79295 
L 265.4745 96.79295 
" style="fill: none; stroke-dasharray: 7.4,3.2; stroke-dashoffset: 0; stroke: #0000ff; stroke-width: 2"/>
    </g>
    <g id="text_12">
     <!-- Selected GMs, $16^{th}$ and $84^{th}$ percentiles -->
     <g transform="translate(271.8745 99.59295) scale(0.08 -0.08)">
      <use xlink:href="#DejaVuSans-53" transform="translate(0 0.529687)"/>
      <use xlink:href="#DejaVuSans-65" transform="translate(63.476562 0.529687)"/>
      <use xlink:href="#DejaVuSans-6c" transform="translate(125 0.529687)"/>
      <use xlink:href="#DejaVuSans-65" transform="translate(152.783203 0.529687)"/>
      <use xlink:href="#DejaVuSans-63" transform="translate(214.306641 0.529687)"/>
      <use xlink:href="#DejaVuSans-74" transform="translate(269.287109 0.529687)"/>
      <use xlink:href="#DejaVuSans-65" transform="translate(308.496094 0.529687)"/>
      <use xlink:href="#DejaVuSans-64" transform="translate(370.019531 0.529687)"/>
      <use xlink:href="#DejaVuSans-20" transform="translate(433.496094 0.529687)"/>
      <use xlink:href="#DejaVuSans-47" transform="translate(465.283203 0.529687)"/>
      <use xlink:href="#DejaVuSans-4d" transform="translate(542.773438 0.529687)"/>
      <use xlink:href="#DejaVuSans-73" transform="translate(629.052734 0.529687)"/>
      <use xlink:href="#DejaVuSans-2c" transform="translate(681.152344 0.529687)"/>
      <use xlink:href="#DejaVuSans-20" transform="translate(712.939453 0.529687)"/>
      <use xlink:href="#DejaVuSans-31" transform="translate(744.726562 0.529687)"/>
      <use xlink:href="#DejaVuSans-36" transform="translate(808.349609 0.529687)"/>
      <use xlink:href="#DejaVuSans-Oblique-74" transform="translate(872.929688 38.810937) scale(0.7)"/>
      <use xlink:href="#DejaVuSans-Oblique-68" transform="translate(900.375977 38.810937) scale(0.7)"/>
      <use xlink:href="#DejaVuSans-20" transform="translate(947.475586 0.529687)"/>
      <use xlink:href="#DejaVuSans-61" transform="translate(979.262695 0.529687)"/>
      <use xlink:href="#DejaVuSans-6e" transform="translate(1040.541992 0.529687)"/>
      <use xlink:href="#DejaVuSans-64" transform="translate(1103.920898 0.529687)"/>
      <use xlink:href="#DejaVuSans-20" transform="translate(1167.397461 0.529687)"/>
      <use xlink:href="#DejaVuSans-38" transform="translate(1199.18457 0.529687)"/>
      <use xlink:href="#DejaVuSans-34" transform="translate(1262.807617 0.529687)"/>
      <use xlink:href="#DejaVuSans-Oblique-74" transform="translate(1327.387695 38.810937) scale(0.7)"/>
      <use xlink:href="#DejaVuSans-Oblique-68" transform="translate(1354.833984 38.810937) scale(0.7)"/>
      <use xlink:href="#DejaVuSans-20" transform="translate(1401.933594 0.529687)"/>
      <use xlink:href="#DejaVuSans-70" transform="translate(1433.720703 0.529687)"/>
      <use xlink:href="#DejaVuSans-65" transform="translate(1497.197266 0.529687)"/>
      <use xlink:href="#DejaVuSans-72" transform="translate(1558.720703 0.529687)"/>
      <use xlink:href="#DejaVuSans-63" transform="translate(1599.833984 0.529687)"/>
      <use xlink:href="#DejaVuSans-65" transform="translate(1654.814453 0.529687)"/>
      <use xlink:href="#DejaVuSans-6e" transform="translate(1716.337891 0.529687)"/>
      <use xlink:href="#DejaVuSans-74" transform="translate(1779.716797 0.529687)"/>
      <use xlink:href="#DejaVuSans-69" transform="translate(1818.925781 0.529687)"/>
      <use xlink:href="#DejaVuSans-6c" transform="translate(1846.708984 0.529687)"/>
      <use xlink:href="#DejaVuSans-65" transform="translate(1874.492188 0.529687)"/>
      <use xlink:href="#DejaVuSans-73" transform="translate(1936.015625 0.529687)"/>
     </g>
    </g>
   </g>
  </g>
 </g>
 <defs>
  <clipPath id="pa1c1b24114">
   <rect x="44.7425" y="7.2" width="197.532" height="130.8384"/>
  </clipPath>
 </defs>
</svg>
