<?xml version="1.0" encoding="utf-8" standalone="no"?>
<!DOCTYPE svg PUBLIC "-//W3C//DTD SVG 1.1//EN"
  "http://www.w3.org/Graphics/SVG/1.1/DTD/svg11.dtd">
<svg xmlns:xlink="http://www.w3.org/1999/xlink" width="441.3945pt" height="171.7234pt" viewBox="0 0 441.3945 171.7234" xmlns="http://www.w3.org/2000/svg" version="1.1">
 <metadata>
  <rdf:RDF xmlns:dc="http://purl.org/dc/elements/1.1/" xmlns:cc="http://creativecommons.org/ns#" xmlns:rdf="http://www.w3.org/1999/02/22-rdf-syntax-ns#">
   <cc:Work>
    <dc:type rdf:resource="http://purl.org/dc/dcmitype/StillImage"/>
    <dc:date>2024-11-05T20:44:49.646843</dc:date>
    <dc:format>image/svg+xml</dc:format>
    <dc:creator>
     <cc:Agent>
      <dc:title>Matplotlib v3.8.2, https://matplotlib.org/</dc:title>
     </cc:Agent>
    </dc:creator>
   </cc:Work>
  </rdf:RDF>
 </metadata>
 <defs>
  <style type="text/css">*{stroke-linejoin: round; stroke-linecap: butt}</style>
 </defs>
 <g id="figure_1">
  <g id="patch_1">
   <path d="M 0 171.7234 
L 441.3945 171.7234 
L 441.3945 0 
L 0 0 
z
" style="fill: #ffffff"/>
  </g>
  <g id="axes_1">
   <g id="patch_2">
    <path d="M 44.7425 138.0384 
L 242.2745 138.0384 
L 242.2745 7.2 
L 44.7425 7.2 
z
" style="fill: #ffffff"/>
   </g>
   <g id="matplotlib.axis_1">
    <g id="xtick_1">
     <g id="line2d_1">
      <path d="M 53.721227 138.0384 
L 53.721227 7.2 
" clip-path="url(#pcadaf6f6cc)" style="fill: none; stroke: #d9d9d9; stroke-width: 0.8; stroke-linecap: square"/>
     </g>
     <g id="line2d_2">
      <defs>
       <path id="meb91adf4cc" d="M 0 0 
L 0 3.5 
" style="stroke: #000000; stroke-width: 0.8"/>
      </defs>
      <g>
       <use xlink:href="#meb91adf4cc" x="53.721227" y="138.0384" style="stroke: #000000; stroke-width: 0.8"/>
      </g>
     </g>
     <g id="text_1">
      <!-- $\mathdefault{10^{-1}}$ -->
      <g transform="translate(44.321227 151.11715) scale(0.08 -0.08)">
       <defs>
        <path id="DejaVuSans-31" d="M 794 531 
L 1825 531 
L 1825 4091 
L 703 3866 
L 703 4441 
L 1819 4666 
L 2450 4666 
L 2450 531 
L 3481 531 
L 3481 0 
L 794 0 
L 794 531 
z
" transform="scale(0.015625)"/>
        <path id="DejaVuSans-30" d="M 2034 4250 
Q 1547 4250 1301 3770 
Q 1056 3291 1056 2328 
Q 1056 1369 1301 889 
Q 1547 409 2034 409 
Q 2525 409 2770 889 
Q 3016 1369 3016 2328 
Q 3016 3291 2770 3770 
Q 2525 4250 2034 4250 
z
M 2034 4750 
Q 2819 4750 3233 4129 
Q 3647 3509 3647 2328 
Q 3647 1150 3233 529 
Q 2819 -91 2034 -91 
Q 1250 -91 836 529 
Q 422 1150 422 2328 
Q 422 3509 836 4129 
Q 1250 4750 2034 4750 
z
" transform="scale(0.015625)"/>
        <path id="DejaVuSans-2212" d="M 678 2272 
L 4684 2272 
L 4684 1741 
L 678 1741 
L 678 2272 
z
" transform="scale(0.015625)"/>
       </defs>
       <use xlink:href="#DejaVuSans-31" transform="translate(0 0.684375)"/>
       <use xlink:href="#DejaVuSans-30" transform="translate(63.623047 0.684375)"/>
       <use xlink:href="#DejaVuSans-2212" transform="translate(128.203125 38.965625) scale(0.7)"/>
       <use xlink:href="#DejaVuSans-31" transform="translate(186.855469 38.965625) scale(0.7)"/>
      </g>
     </g>
    </g>
    <g id="xtick_2">
     <g id="line2d_3">
      <path d="M 159.417352 138.0384 
L 159.417352 7.2 
" clip-path="url(#pcadaf6f6cc)" style="fill: none; stroke: #d9d9d9; stroke-width: 0.8; stroke-linecap: square"/>
     </g>
     <g id="line2d_4">
      <g>
       <use xlink:href="#meb91adf4cc" x="159.417352" y="138.0384" style="stroke: #000000; stroke-width: 0.8"/>
      </g>
     </g>
     <g id="text_2">
      <!-- $\mathdefault{10^{0}}$ -->
      <g transform="translate(152.377352 151.11715) scale(0.08 -0.08)">
       <use xlink:href="#DejaVuSans-31" transform="translate(0 0.765625)"/>
       <use xlink:href="#DejaVuSans-30" transform="translate(63.623047 0.765625)"/>
       <use xlink:href="#DejaVuSans-30" transform="translate(128.203125 39.046875) scale(0.7)"/>
      </g>
     </g>
    </g>
    <g id="xtick_3">
     <g id="line2d_5">
      <path d="M 48.884838 138.0384 
L 48.884838 7.2 
" clip-path="url(#pcadaf6f6cc)" style="fill: none; stroke-dasharray: 2.96,1.28; stroke-dashoffset: 0; stroke: #f2f2f2; stroke-width: 0.8"/>
     </g>
     <g id="line2d_6">
      <defs>
       <path id="m96ed75d7b5" d="M 0 0 
L 0 2 
" style="stroke: #000000; stroke-width: 0.6"/>
      </defs>
      <g>
       <use xlink:href="#m96ed75d7b5" x="48.884838" y="138.0384" style="stroke: #000000; stroke-width: 0.6"/>
      </g>
     </g>
    </g>
    <g id="xtick_4">
     <g id="line2d_7">
      <path d="M 85.538931 138.0384 
L 85.538931 7.2 
" clip-path="url(#pcadaf6f6cc)" style="fill: none; stroke-dasharray: 2.96,1.28; stroke-dashoffset: 0; stroke: #f2f2f2; stroke-width: 0.8"/>
     </g>
     <g id="line2d_8">
      <g>
       <use xlink:href="#m96ed75d7b5" x="85.538931" y="138.0384" style="stroke: #000000; stroke-width: 0.6"/>
      </g>
     </g>
    </g>
    <g id="xtick_5">
     <g id="line2d_9">
      <path d="M 104.151095 138.0384 
L 104.151095 7.2 
" clip-path="url(#pcadaf6f6cc)" style="fill: none; stroke-dasharray: 2.96,1.28; stroke-dashoffset: 0; stroke: #f2f2f2; stroke-width: 0.8"/>
     </g>
     <g id="line2d_10">
      <g>
       <use xlink:href="#m96ed75d7b5" x="104.151095" y="138.0384" style="stroke: #000000; stroke-width: 0.6"/>
      </g>
     </g>
    </g>
    <g id="xtick_6">
     <g id="line2d_11">
      <path d="M 117.356635 138.0384 
L 117.356635 7.2 
" clip-path="url(#pcadaf6f6cc)" style="fill: none; stroke-dasharray: 2.96,1.28; stroke-dashoffset: 0; stroke: #f2f2f2; stroke-width: 0.8"/>
     </g>
     <g id="line2d_12">
      <g>
       <use xlink:href="#m96ed75d7b5" x="117.356635" y="138.0384" style="stroke: #000000; stroke-width: 0.6"/>
      </g>
     </g>
    </g>
    <g id="xtick_7">
     <g id="line2d_13">
      <path d="M 127.599648 138.0384 
L 127.599648 7.2 
" clip-path="url(#pcadaf6f6cc)" style="fill: none; stroke-dasharray: 2.96,1.28; stroke-dashoffset: 0; stroke: #f2f2f2; stroke-width: 0.8"/>
     </g>
     <g id="line2d_14">
      <g>
       <use xlink:href="#m96ed75d7b5" x="127.599648" y="138.0384" style="stroke: #000000; stroke-width: 0.6"/>
      </g>
     </g>
    </g>
    <g id="xtick_8">
     <g id="line2d_15">
      <path d="M 135.968799 138.0384 
L 135.968799 7.2 
" clip-path="url(#pcadaf6f6cc)" style="fill: none; stroke-dasharray: 2.96,1.28; stroke-dashoffset: 0; stroke: #f2f2f2; stroke-width: 0.8"/>
     </g>
     <g id="line2d_16">
      <g>
       <use xlink:href="#m96ed75d7b5" x="135.968799" y="138.0384" style="stroke: #000000; stroke-width: 0.6"/>
      </g>
     </g>
    </g>
    <g id="xtick_9">
     <g id="line2d_17">
      <path d="M 143.044815 138.0384 
L 143.044815 7.2 
" clip-path="url(#pcadaf6f6cc)" style="fill: none; stroke-dasharray: 2.96,1.28; stroke-dashoffset: 0; stroke: #f2f2f2; stroke-width: 0.8"/>
     </g>
     <g id="line2d_18">
      <g>
       <use xlink:href="#m96ed75d7b5" x="143.044815" y="138.0384" style="stroke: #000000; stroke-width: 0.6"/>
      </g>
     </g>
    </g>
    <g id="xtick_10">
     <g id="line2d_19">
      <path d="M 149.174339 138.0384 
L 149.174339 7.2 
" clip-path="url(#pcadaf6f6cc)" style="fill: none; stroke-dasharray: 2.96,1.28; stroke-dashoffset: 0; stroke: #f2f2f2; stroke-width: 0.8"/>
     </g>
     <g id="line2d_20">
      <g>
       <use xlink:href="#m96ed75d7b5" x="149.174339" y="138.0384" style="stroke: #000000; stroke-width: 0.6"/>
      </g>
     </g>
    </g>
    <g id="xtick_11">
     <g id="line2d_21">
      <path d="M 154.580963 138.0384 
L 154.580963 7.2 
" clip-path="url(#pcadaf6f6cc)" style="fill: none; stroke-dasharray: 2.96,1.28; stroke-dashoffset: 0; stroke: #f2f2f2; stroke-width: 0.8"/>
     </g>
     <g id="line2d_22">
      <g>
       <use xlink:href="#m96ed75d7b5" x="154.580963" y="138.0384" style="stroke: #000000; stroke-width: 0.6"/>
      </g>
     </g>
    </g>
    <g id="xtick_12">
     <g id="line2d_23">
      <path d="M 191.235056 138.0384 
L 191.235056 7.2 
" clip-path="url(#pcadaf6f6cc)" style="fill: none; stroke-dasharray: 2.96,1.28; stroke-dashoffset: 0; stroke: #f2f2f2; stroke-width: 0.8"/>
     </g>
     <g id="line2d_24">
      <g>
       <use xlink:href="#m96ed75d7b5" x="191.235056" y="138.0384" style="stroke: #000000; stroke-width: 0.6"/>
      </g>
     </g>
    </g>
    <g id="xtick_13">
     <g id="line2d_25">
      <path d="M 209.84722 138.0384 
L 209.84722 7.2 
" clip-path="url(#pcadaf6f6cc)" style="fill: none; stroke-dasharray: 2.96,1.28; stroke-dashoffset: 0; stroke: #f2f2f2; stroke-width: 0.8"/>
     </g>
     <g id="line2d_26">
      <g>
       <use xlink:href="#m96ed75d7b5" x="209.84722" y="138.0384" style="stroke: #000000; stroke-width: 0.6"/>
      </g>
     </g>
    </g>
    <g id="xtick_14">
     <g id="line2d_27">
      <path d="M 223.05276 138.0384 
L 223.05276 7.2 
" clip-path="url(#pcadaf6f6cc)" style="fill: none; stroke-dasharray: 2.96,1.28; stroke-dashoffset: 0; stroke: #f2f2f2; stroke-width: 0.8"/>
     </g>
     <g id="line2d_28">
      <g>
       <use xlink:href="#m96ed75d7b5" x="223.05276" y="138.0384" style="stroke: #000000; stroke-width: 0.6"/>
      </g>
     </g>
    </g>
    <g id="xtick_15">
     <g id="line2d_29">
      <path d="M 233.295773 138.0384 
L 233.295773 7.2 
" clip-path="url(#pcadaf6f6cc)" style="fill: none; stroke-dasharray: 2.96,1.28; stroke-dashoffset: 0; stroke: #f2f2f2; stroke-width: 0.8"/>
     </g>
     <g id="line2d_30">
      <g>
       <use xlink:href="#m96ed75d7b5" x="233.295773" y="138.0384" style="stroke: #000000; stroke-width: 0.6"/>
      </g>
     </g>
    </g>
    <g id="xtick_16">
     <g id="line2d_31">
      <path d="M 241.664924 138.0384 
L 241.664924 7.2 
" clip-path="url(#pcadaf6f6cc)" style="fill: none; stroke-dasharray: 2.96,1.28; stroke-dashoffset: 0; stroke: #f2f2f2; stroke-width: 0.8"/>
     </g>
     <g id="line2d_32">
      <g>
       <use xlink:href="#m96ed75d7b5" x="241.664924" y="138.0384" style="stroke: #000000; stroke-width: 0.6"/>
      </g>
     </g>
    </g>
    <g id="text_3">
     <!-- Period, T (s) -->
     <g transform="translate(119.576 162.85965) scale(0.08 -0.08)">
      <defs>
       <path id="DejaVuSans-50" d="M 1259 4147 
L 1259 2394 
L 2053 2394 
Q 2494 2394 2734 2622 
Q 2975 2850 2975 3272 
Q 2975 3691 2734 3919 
Q 2494 4147 2053 4147 
L 1259 4147 
z
M 628 4666 
L 2053 4666 
Q 2838 4666 3239 4311 
Q 3641 3956 3641 3272 
Q 3641 2581 3239 2228 
Q 2838 1875 2053 1875 
L 1259 1875 
L 1259 0 
L 628 0 
L 628 4666 
z
" transform="scale(0.015625)"/>
       <path id="DejaVuSans-65" d="M 3597 1894 
L 3597 1613 
L 953 1613 
Q 991 1019 1311 708 
Q 1631 397 2203 397 
Q 2534 397 2845 478 
Q 3156 559 3463 722 
L 3463 178 
Q 3153 47 2828 -22 
Q 2503 -91 2169 -91 
Q 1331 -91 842 396 
Q 353 884 353 1716 
Q 353 2575 817 3079 
Q 1281 3584 2069 3584 
Q 2775 3584 3186 3129 
Q 3597 2675 3597 1894 
z
M 3022 2063 
Q 3016 2534 2758 2815 
Q 2500 3097 2075 3097 
Q 1594 3097 1305 2825 
Q 1016 2553 972 2059 
L 3022 2063 
z
" transform="scale(0.015625)"/>
       <path id="DejaVuSans-72" d="M 2631 2963 
Q 2534 3019 2420 3045 
Q 2306 3072 2169 3072 
Q 1681 3072 1420 2755 
Q 1159 2438 1159 1844 
L 1159 0 
L 581 0 
L 581 3500 
L 1159 3500 
L 1159 2956 
Q 1341 3275 1631 3429 
Q 1922 3584 2338 3584 
Q 2397 3584 2469 3576 
Q 2541 3569 2628 3553 
L 2631 2963 
z
" transform="scale(0.015625)"/>
       <path id="DejaVuSans-69" d="M 603 3500 
L 1178 3500 
L 1178 0 
L 603 0 
L 603 3500 
z
M 603 4863 
L 1178 4863 
L 1178 4134 
L 603 4134 
L 603 4863 
z
" transform="scale(0.015625)"/>
       <path id="DejaVuSans-6f" d="M 1959 3097 
Q 1497 3097 1228 2736 
Q 959 2375 959 1747 
Q 959 1119 1226 758 
Q 1494 397 1959 397 
Q 2419 397 2687 759 
Q 2956 1122 2956 1747 
Q 2956 2369 2687 2733 
Q 2419 3097 1959 3097 
z
M 1959 3584 
Q 2709 3584 3137 3096 
Q 3566 2609 3566 1747 
Q 3566 888 3137 398 
Q 2709 -91 1959 -91 
Q 1206 -91 779 398 
Q 353 888 353 1747 
Q 353 2609 779 3096 
Q 1206 3584 1959 3584 
z
" transform="scale(0.015625)"/>
       <path id="DejaVuSans-64" d="M 2906 2969 
L 2906 4863 
L 3481 4863 
L 3481 0 
L 2906 0 
L 2906 525 
Q 2725 213 2448 61 
Q 2172 -91 1784 -91 
Q 1150 -91 751 415 
Q 353 922 353 1747 
Q 353 2572 751 3078 
Q 1150 3584 1784 3584 
Q 2172 3584 2448 3432 
Q 2725 3281 2906 2969 
z
M 947 1747 
Q 947 1113 1208 752 
Q 1469 391 1925 391 
Q 2381 391 2643 752 
Q 2906 1113 2906 1747 
Q 2906 2381 2643 2742 
Q 2381 3103 1925 3103 
Q 1469 3103 1208 2742 
Q 947 2381 947 1747 
z
" transform="scale(0.015625)"/>
       <path id="DejaVuSans-2c" d="M 750 794 
L 1409 794 
L 1409 256 
L 897 -744 
L 494 -744 
L 750 256 
L 750 794 
z
" transform="scale(0.015625)"/>
       <path id="DejaVuSans-20" transform="scale(0.015625)"/>
       <path id="DejaVuSans-54" d="M -19 4666 
L 3928 4666 
L 3928 4134 
L 2272 4134 
L 2272 0 
L 1638 0 
L 1638 4134 
L -19 4134 
L -19 4666 
z
" transform="scale(0.015625)"/>
       <path id="DejaVuSans-28" d="M 1984 4856 
Q 1566 4138 1362 3434 
Q 1159 2731 1159 2009 
Q 1159 1288 1364 580 
Q 1569 -128 1984 -844 
L 1484 -844 
Q 1016 -109 783 600 
Q 550 1309 550 2009 
Q 550 2706 781 3412 
Q 1013 4119 1484 4856 
L 1984 4856 
z
" transform="scale(0.015625)"/>
       <path id="DejaVuSans-73" d="M 2834 3397 
L 2834 2853 
Q 2591 2978 2328 3040 
Q 2066 3103 1784 3103 
Q 1356 3103 1142 2972 
Q 928 2841 928 2578 
Q 928 2378 1081 2264 
Q 1234 2150 1697 2047 
L 1894 2003 
Q 2506 1872 2764 1633 
Q 3022 1394 3022 966 
Q 3022 478 2636 193 
Q 2250 -91 1575 -91 
Q 1294 -91 989 -36 
Q 684 19 347 128 
L 347 722 
Q 666 556 975 473 
Q 1284 391 1588 391 
Q 1994 391 2212 530 
Q 2431 669 2431 922 
Q 2431 1156 2273 1281 
Q 2116 1406 1581 1522 
L 1381 1569 
Q 847 1681 609 1914 
Q 372 2147 372 2553 
Q 372 3047 722 3315 
Q 1072 3584 1716 3584 
Q 2034 3584 2315 3537 
Q 2597 3491 2834 3397 
z
" transform="scale(0.015625)"/>
       <path id="DejaVuSans-29" d="M 513 4856 
L 1013 4856 
Q 1481 4119 1714 3412 
Q 1947 2706 1947 2009 
Q 1947 1309 1714 600 
Q 1481 -109 1013 -844 
L 513 -844 
Q 928 -128 1133 580 
Q 1338 1288 1338 2009 
Q 1338 2731 1133 3434 
Q 928 4138 513 4856 
z
" transform="scale(0.015625)"/>
      </defs>
      <use xlink:href="#DejaVuSans-50"/>
      <use xlink:href="#DejaVuSans-65" x="56.677734"/>
      <use xlink:href="#DejaVuSans-72" x="118.201172"/>
      <use xlink:href="#DejaVuSans-69" x="159.314453"/>
      <use xlink:href="#DejaVuSans-6f" x="187.097656"/>
      <use xlink:href="#DejaVuSans-64" x="248.279297"/>
      <use xlink:href="#DejaVuSans-2c" x="311.755859"/>
      <use xlink:href="#DejaVuSans-20" x="343.542969"/>
      <use xlink:href="#DejaVuSans-54" x="375.330078"/>
      <use xlink:href="#DejaVuSans-20" x="436.414062"/>
      <use xlink:href="#DejaVuSans-28" x="468.201172"/>
      <use xlink:href="#DejaVuSans-73" x="507.214844"/>
      <use xlink:href="#DejaVuSans-29" x="559.314453"/>
     </g>
    </g>
   </g>
   <g id="matplotlib.axis_2">
    <g id="ytick_1">
     <g id="line2d_33">
      <path d="M 44.7425 106.592432 
L 242.2745 106.592432 
" clip-path="url(#pcadaf6f6cc)" style="fill: none; stroke: #d9d9d9; stroke-width: 0.8; stroke-linecap: square"/>
     </g>
     <g id="line2d_34">
      <defs>
       <path id="m90248ebb92" d="M 0 0 
L -3.5 0 
" style="stroke: #000000; stroke-width: 0.8"/>
      </defs>
      <g>
       <use xlink:href="#m90248ebb92" x="44.7425" y="106.592432" style="stroke: #000000; stroke-width: 0.8"/>
      </g>
     </g>
     <g id="text_4">
      <!-- $\mathdefault{10^{-1}}$ -->
      <g transform="translate(18.9425 109.631807) scale(0.08 -0.08)">
       <use xlink:href="#DejaVuSans-31" transform="translate(0 0.684375)"/>
       <use xlink:href="#DejaVuSans-30" transform="translate(63.623047 0.684375)"/>
       <use xlink:href="#DejaVuSans-2212" transform="translate(128.203125 38.965625) scale(0.7)"/>
       <use xlink:href="#DejaVuSans-31" transform="translate(186.855469 38.965625) scale(0.7)"/>
      </g>
     </g>
    </g>
    <g id="ytick_2">
     <g id="line2d_35">
      <path d="M 44.7425 53.228275 
L 242.2745 53.228275 
" clip-path="url(#pcadaf6f6cc)" style="fill: none; stroke: #d9d9d9; stroke-width: 0.8; stroke-linecap: square"/>
     </g>
     <g id="line2d_36">
      <g>
       <use xlink:href="#m90248ebb92" x="44.7425" y="53.228275" style="stroke: #000000; stroke-width: 0.8"/>
      </g>
     </g>
     <g id="text_5">
      <!-- $\mathdefault{10^{0}}$ -->
      <g transform="translate(23.6625 56.26765) scale(0.08 -0.08)">
       <use xlink:href="#DejaVuSans-31" transform="translate(0 0.765625)"/>
       <use xlink:href="#DejaVuSans-30" transform="translate(63.623047 0.765625)"/>
       <use xlink:href="#DejaVuSans-30" transform="translate(128.203125 39.046875) scale(0.7)"/>
      </g>
     </g>
    </g>
    <g id="ytick_3">
     <g id="line2d_37">
      <path d="M 44.7425 134.495416 
L 242.2745 134.495416 
" clip-path="url(#pcadaf6f6cc)" style="fill: none; stroke-dasharray: 2.96,1.28; stroke-dashoffset: 0; stroke: #f2f2f2; stroke-width: 0.8"/>
     </g>
     <g id="line2d_38">
      <defs>
       <path id="md49d986ceb" d="M 0 0 
L -2 0 
" style="stroke: #000000; stroke-width: 0.6"/>
      </defs>
      <g>
       <use xlink:href="#md49d986ceb" x="44.7425" y="134.495416" style="stroke: #000000; stroke-width: 0.6"/>
      </g>
     </g>
    </g>
    <g id="ytick_4">
     <g id="line2d_39">
      <path d="M 44.7425 127.828166 
L 242.2745 127.828166 
" clip-path="url(#pcadaf6f6cc)" style="fill: none; stroke-dasharray: 2.96,1.28; stroke-dashoffset: 0; stroke: #f2f2f2; stroke-width: 0.8"/>
     </g>
     <g id="line2d_40">
      <g>
       <use xlink:href="#md49d986ceb" x="44.7425" y="127.828166" style="stroke: #000000; stroke-width: 0.6"/>
      </g>
     </g>
    </g>
    <g id="ytick_5">
     <g id="line2d_41">
      <path d="M 44.7425 122.656645 
L 242.2745 122.656645 
" clip-path="url(#pcadaf6f6cc)" style="fill: none; stroke-dasharray: 2.96,1.28; stroke-dashoffset: 0; stroke: #f2f2f2; stroke-width: 0.8"/>
     </g>
     <g id="line2d_42">
      <g>
       <use xlink:href="#md49d986ceb" x="44.7425" y="122.656645" style="stroke: #000000; stroke-width: 0.6"/>
      </g>
     </g>
    </g>
    <g id="ytick_6">
     <g id="line2d_43">
      <path d="M 44.7425 118.431204 
L 242.2745 118.431204 
" clip-path="url(#pcadaf6f6cc)" style="fill: none; stroke-dasharray: 2.96,1.28; stroke-dashoffset: 0; stroke: #f2f2f2; stroke-width: 0.8"/>
     </g>
     <g id="line2d_44">
      <g>
       <use xlink:href="#md49d986ceb" x="44.7425" y="118.431204" style="stroke: #000000; stroke-width: 0.6"/>
      </g>
     </g>
    </g>
    <g id="ytick_7">
     <g id="line2d_45">
      <path d="M 44.7425 114.858645 
L 242.2745 114.858645 
" clip-path="url(#pcadaf6f6cc)" style="fill: none; stroke-dasharray: 2.96,1.28; stroke-dashoffset: 0; stroke: #f2f2f2; stroke-width: 0.8"/>
     </g>
     <g id="line2d_46">
      <g>
       <use xlink:href="#md49d986ceb" x="44.7425" y="114.858645" style="stroke: #000000; stroke-width: 0.6"/>
      </g>
     </g>
    </g>
    <g id="ytick_8">
     <g id="line2d_47">
      <path d="M 44.7425 111.763954 
L 242.2745 111.763954 
" clip-path="url(#pcadaf6f6cc)" style="fill: none; stroke-dasharray: 2.96,1.28; stroke-dashoffset: 0; stroke: #f2f2f2; stroke-width: 0.8"/>
     </g>
     <g id="line2d_48">
      <g>
       <use xlink:href="#md49d986ceb" x="44.7425" y="111.763954" style="stroke: #000000; stroke-width: 0.6"/>
      </g>
     </g>
    </g>
    <g id="ytick_9">
     <g id="line2d_49">
      <path d="M 44.7425 109.034242 
L 242.2745 109.034242 
" clip-path="url(#pcadaf6f6cc)" style="fill: none; stroke-dasharray: 2.96,1.28; stroke-dashoffset: 0; stroke: #f2f2f2; stroke-width: 0.8"/>
     </g>
     <g id="line2d_50">
      <g>
       <use xlink:href="#md49d986ceb" x="44.7425" y="109.034242" style="stroke: #000000; stroke-width: 0.6"/>
      </g>
     </g>
    </g>
    <g id="ytick_10">
     <g id="line2d_51">
      <path d="M 44.7425 90.52822 
L 242.2745 90.52822 
" clip-path="url(#pcadaf6f6cc)" style="fill: none; stroke-dasharray: 2.96,1.28; stroke-dashoffset: 0; stroke: #f2f2f2; stroke-width: 0.8"/>
     </g>
     <g id="line2d_52">
      <g>
       <use xlink:href="#md49d986ceb" x="44.7425" y="90.52822" style="stroke: #000000; stroke-width: 0.6"/>
      </g>
     </g>
    </g>
    <g id="ytick_11">
     <g id="line2d_53">
      <path d="M 44.7425 81.131259 
L 242.2745 81.131259 
" clip-path="url(#pcadaf6f6cc)" style="fill: none; stroke-dasharray: 2.96,1.28; stroke-dashoffset: 0; stroke: #f2f2f2; stroke-width: 0.8"/>
     </g>
     <g id="line2d_54">
      <g>
       <use xlink:href="#md49d986ceb" x="44.7425" y="81.131259" style="stroke: #000000; stroke-width: 0.6"/>
      </g>
     </g>
    </g>
    <g id="ytick_12">
     <g id="line2d_55">
      <path d="M 44.7425 74.464008 
L 242.2745 74.464008 
" clip-path="url(#pcadaf6f6cc)" style="fill: none; stroke-dasharray: 2.96,1.28; stroke-dashoffset: 0; stroke: #f2f2f2; stroke-width: 0.8"/>
     </g>
     <g id="line2d_56">
      <g>
       <use xlink:href="#md49d986ceb" x="44.7425" y="74.464008" style="stroke: #000000; stroke-width: 0.6"/>
      </g>
     </g>
    </g>
    <g id="ytick_13">
     <g id="line2d_57">
      <path d="M 44.7425 69.292487 
L 242.2745 69.292487 
" clip-path="url(#pcadaf6f6cc)" style="fill: none; stroke-dasharray: 2.96,1.28; stroke-dashoffset: 0; stroke: #f2f2f2; stroke-width: 0.8"/>
     </g>
     <g id="line2d_58">
      <g>
       <use xlink:href="#md49d986ceb" x="44.7425" y="69.292487" style="stroke: #000000; stroke-width: 0.6"/>
      </g>
     </g>
    </g>
    <g id="ytick_14">
     <g id="line2d_59">
      <path d="M 44.7425 65.067047 
L 242.2745 65.067047 
" clip-path="url(#pcadaf6f6cc)" style="fill: none; stroke-dasharray: 2.96,1.28; stroke-dashoffset: 0; stroke: #f2f2f2; stroke-width: 0.8"/>
     </g>
     <g id="line2d_60">
      <g>
       <use xlink:href="#md49d986ceb" x="44.7425" y="65.067047" style="stroke: #000000; stroke-width: 0.6"/>
      </g>
     </g>
    </g>
    <g id="ytick_15">
     <g id="line2d_61">
      <path d="M 44.7425 61.494488 
L 242.2745 61.494488 
" clip-path="url(#pcadaf6f6cc)" style="fill: none; stroke-dasharray: 2.96,1.28; stroke-dashoffset: 0; stroke: #f2f2f2; stroke-width: 0.8"/>
     </g>
     <g id="line2d_62">
      <g>
       <use xlink:href="#md49d986ceb" x="44.7425" y="61.494488" style="stroke: #000000; stroke-width: 0.6"/>
      </g>
     </g>
    </g>
    <g id="ytick_16">
     <g id="line2d_63">
      <path d="M 44.7425 58.399796 
L 242.2745 58.399796 
" clip-path="url(#pcadaf6f6cc)" style="fill: none; stroke-dasharray: 2.96,1.28; stroke-dashoffset: 0; stroke: #f2f2f2; stroke-width: 0.8"/>
     </g>
     <g id="line2d_64">
      <g>
       <use xlink:href="#md49d986ceb" x="44.7425" y="58.399796" style="stroke: #000000; stroke-width: 0.6"/>
      </g>
     </g>
    </g>
    <g id="ytick_17">
     <g id="line2d_65">
      <path d="M 44.7425 55.670085 
L 242.2745 55.670085 
" clip-path="url(#pcadaf6f6cc)" style="fill: none; stroke-dasharray: 2.96,1.28; stroke-dashoffset: 0; stroke: #f2f2f2; stroke-width: 0.8"/>
     </g>
     <g id="line2d_66">
      <g>
       <use xlink:href="#md49d986ceb" x="44.7425" y="55.670085" style="stroke: #000000; stroke-width: 0.6"/>
      </g>
     </g>
    </g>
    <g id="ytick_18">
     <g id="line2d_67">
      <path d="M 44.7425 37.164063 
L 242.2745 37.164063 
" clip-path="url(#pcadaf6f6cc)" style="fill: none; stroke-dasharray: 2.96,1.28; stroke-dashoffset: 0; stroke: #f2f2f2; stroke-width: 0.8"/>
     </g>
     <g id="line2d_68">
      <g>
       <use xlink:href="#md49d986ceb" x="44.7425" y="37.164063" style="stroke: #000000; stroke-width: 0.6"/>
      </g>
     </g>
    </g>
    <g id="ytick_19">
     <g id="line2d_69">
      <path d="M 44.7425 27.767101 
L 242.2745 27.767101 
" clip-path="url(#pcadaf6f6cc)" style="fill: none; stroke-dasharray: 2.96,1.28; stroke-dashoffset: 0; stroke: #f2f2f2; stroke-width: 0.8"/>
     </g>
     <g id="line2d_70">
      <g>
       <use xlink:href="#md49d986ceb" x="44.7425" y="27.767101" style="stroke: #000000; stroke-width: 0.6"/>
      </g>
     </g>
    </g>
    <g id="ytick_20">
     <g id="line2d_71">
      <path d="M 44.7425 21.099851 
L 242.2745 21.099851 
" clip-path="url(#pcadaf6f6cc)" style="fill: none; stroke-dasharray: 2.96,1.28; stroke-dashoffset: 0; stroke: #f2f2f2; stroke-width: 0.8"/>
     </g>
     <g id="line2d_72">
      <g>
       <use xlink:href="#md49d986ceb" x="44.7425" y="21.099851" style="stroke: #000000; stroke-width: 0.6"/>
      </g>
     </g>
    </g>
    <g id="ytick_21">
     <g id="line2d_73">
      <path d="M 44.7425 15.92833 
L 242.2745 15.92833 
" clip-path="url(#pcadaf6f6cc)" style="fill: none; stroke-dasharray: 2.96,1.28; stroke-dashoffset: 0; stroke: #f2f2f2; stroke-width: 0.8"/>
     </g>
     <g id="line2d_74">
      <g>
       <use xlink:href="#md49d986ceb" x="44.7425" y="15.92833" style="stroke: #000000; stroke-width: 0.6"/>
      </g>
     </g>
    </g>
    <g id="ytick_22">
     <g id="line2d_75">
      <path d="M 44.7425 11.702889 
L 242.2745 11.702889 
" clip-path="url(#pcadaf6f6cc)" style="fill: none; stroke-dasharray: 2.96,1.28; stroke-dashoffset: 0; stroke: #f2f2f2; stroke-width: 0.8"/>
     </g>
     <g id="line2d_76">
      <g>
       <use xlink:href="#md49d986ceb" x="44.7425" y="11.702889" style="stroke: #000000; stroke-width: 0.6"/>
      </g>
     </g>
    </g>
    <g id="ytick_23">
     <g id="line2d_77">
      <path d="M 44.7425 8.13033 
L 242.2745 8.13033 
" clip-path="url(#pcadaf6f6cc)" style="fill: none; stroke-dasharray: 2.96,1.28; stroke-dashoffset: 0; stroke: #f2f2f2; stroke-width: 0.8"/>
     </g>
     <g id="line2d_78">
      <g>
       <use xlink:href="#md49d986ceb" x="44.7425" y="8.13033" style="stroke: #000000; stroke-width: 0.6"/>
      </g>
     </g>
    </g>
    <g id="text_6">
     <!-- Spectral acceleration, SA (g) -->
     <g transform="translate(13.27875 129.871075) rotate(-90) scale(0.08 -0.08)">
      <defs>
       <path id="DejaVuSans-53" d="M 3425 4513 
L 3425 3897 
Q 3066 4069 2747 4153 
Q 2428 4238 2131 4238 
Q 1616 4238 1336 4038 
Q 1056 3838 1056 3469 
Q 1056 3159 1242 3001 
Q 1428 2844 1947 2747 
L 2328 2669 
Q 3034 2534 3370 2195 
Q 3706 1856 3706 1288 
Q 3706 609 3251 259 
Q 2797 -91 1919 -91 
Q 1588 -91 1214 -16 
Q 841 59 441 206 
L 441 856 
Q 825 641 1194 531 
Q 1563 422 1919 422 
Q 2459 422 2753 634 
Q 3047 847 3047 1241 
Q 3047 1584 2836 1778 
Q 2625 1972 2144 2069 
L 1759 2144 
Q 1053 2284 737 2584 
Q 422 2884 422 3419 
Q 422 4038 858 4394 
Q 1294 4750 2059 4750 
Q 2388 4750 2728 4690 
Q 3069 4631 3425 4513 
z
" transform="scale(0.015625)"/>
       <path id="DejaVuSans-70" d="M 1159 525 
L 1159 -1331 
L 581 -1331 
L 581 3500 
L 1159 3500 
L 1159 2969 
Q 1341 3281 1617 3432 
Q 1894 3584 2278 3584 
Q 2916 3584 3314 3078 
Q 3713 2572 3713 1747 
Q 3713 922 3314 415 
Q 2916 -91 2278 -91 
Q 1894 -91 1617 61 
Q 1341 213 1159 525 
z
M 3116 1747 
Q 3116 2381 2855 2742 
Q 2594 3103 2138 3103 
Q 1681 3103 1420 2742 
Q 1159 2381 1159 1747 
Q 1159 1113 1420 752 
Q 1681 391 2138 391 
Q 2594 391 2855 752 
Q 3116 1113 3116 1747 
z
" transform="scale(0.015625)"/>
       <path id="DejaVuSans-63" d="M 3122 3366 
L 3122 2828 
Q 2878 2963 2633 3030 
Q 2388 3097 2138 3097 
Q 1578 3097 1268 2742 
Q 959 2388 959 1747 
Q 959 1106 1268 751 
Q 1578 397 2138 397 
Q 2388 397 2633 464 
Q 2878 531 3122 666 
L 3122 134 
Q 2881 22 2623 -34 
Q 2366 -91 2075 -91 
Q 1284 -91 818 406 
Q 353 903 353 1747 
Q 353 2603 823 3093 
Q 1294 3584 2113 3584 
Q 2378 3584 2631 3529 
Q 2884 3475 3122 3366 
z
" transform="scale(0.015625)"/>
       <path id="DejaVuSans-74" d="M 1172 4494 
L 1172 3500 
L 2356 3500 
L 2356 3053 
L 1172 3053 
L 1172 1153 
Q 1172 725 1289 603 
Q 1406 481 1766 481 
L 2356 481 
L 2356 0 
L 1766 0 
Q 1100 0 847 248 
Q 594 497 594 1153 
L 594 3053 
L 172 3053 
L 172 3500 
L 594 3500 
L 594 4494 
L 1172 4494 
z
" transform="scale(0.015625)"/>
       <path id="DejaVuSans-61" d="M 2194 1759 
Q 1497 1759 1228 1600 
Q 959 1441 959 1056 
Q 959 750 1161 570 
Q 1363 391 1709 391 
Q 2188 391 2477 730 
Q 2766 1069 2766 1631 
L 2766 1759 
L 2194 1759 
z
M 3341 1997 
L 3341 0 
L 2766 0 
L 2766 531 
Q 2569 213 2275 61 
Q 1981 -91 1556 -91 
Q 1019 -91 701 211 
Q 384 513 384 1019 
Q 384 1609 779 1909 
Q 1175 2209 1959 2209 
L 2766 2209 
L 2766 2266 
Q 2766 2663 2505 2880 
Q 2244 3097 1772 3097 
Q 1472 3097 1187 3025 
Q 903 2953 641 2809 
L 641 3341 
Q 956 3463 1253 3523 
Q 1550 3584 1831 3584 
Q 2591 3584 2966 3190 
Q 3341 2797 3341 1997 
z
" transform="scale(0.015625)"/>
       <path id="DejaVuSans-6c" d="M 603 4863 
L 1178 4863 
L 1178 0 
L 603 0 
L 603 4863 
z
" transform="scale(0.015625)"/>
       <path id="DejaVuSans-6e" d="M 3513 2113 
L 3513 0 
L 2938 0 
L 2938 2094 
Q 2938 2591 2744 2837 
Q 2550 3084 2163 3084 
Q 1697 3084 1428 2787 
Q 1159 2491 1159 1978 
L 1159 0 
L 581 0 
L 581 3500 
L 1159 3500 
L 1159 2956 
Q 1366 3272 1645 3428 
Q 1925 3584 2291 3584 
Q 2894 3584 3203 3211 
Q 3513 2838 3513 2113 
z
" transform="scale(0.015625)"/>
       <path id="DejaVuSans-41" d="M 2188 4044 
L 1331 1722 
L 3047 1722 
L 2188 4044 
z
M 1831 4666 
L 2547 4666 
L 4325 0 
L 3669 0 
L 3244 1197 
L 1141 1197 
L 716 0 
L 50 0 
L 1831 4666 
z
" transform="scale(0.015625)"/>
       <path id="DejaVuSans-67" d="M 2906 1791 
Q 2906 2416 2648 2759 
Q 2391 3103 1925 3103 
Q 1463 3103 1205 2759 
Q 947 2416 947 1791 
Q 947 1169 1205 825 
Q 1463 481 1925 481 
Q 2391 481 2648 825 
Q 2906 1169 2906 1791 
z
M 3481 434 
Q 3481 -459 3084 -895 
Q 2688 -1331 1869 -1331 
Q 1566 -1331 1297 -1286 
Q 1028 -1241 775 -1147 
L 775 -588 
Q 1028 -725 1275 -790 
Q 1522 -856 1778 -856 
Q 2344 -856 2625 -561 
Q 2906 -266 2906 331 
L 2906 616 
Q 2728 306 2450 153 
Q 2172 0 1784 0 
Q 1141 0 747 490 
Q 353 981 353 1791 
Q 353 2603 747 3093 
Q 1141 3584 1784 3584 
Q 2172 3584 2450 3431 
Q 2728 3278 2906 2969 
L 2906 3500 
L 3481 3500 
L 3481 434 
z
" transform="scale(0.015625)"/>
      </defs>
      <use xlink:href="#DejaVuSans-53"/>
      <use xlink:href="#DejaVuSans-70" x="63.476562"/>
      <use xlink:href="#DejaVuSans-65" x="126.953125"/>
      <use xlink:href="#DejaVuSans-63" x="188.476562"/>
      <use xlink:href="#DejaVuSans-74" x="243.457031"/>
      <use xlink:href="#DejaVuSans-72" x="282.666016"/>
      <use xlink:href="#DejaVuSans-61" x="323.779297"/>
      <use xlink:href="#DejaVuSans-6c" x="385.058594"/>
      <use xlink:href="#DejaVuSans-20" x="412.841797"/>
      <use xlink:href="#DejaVuSans-61" x="444.628906"/>
      <use xlink:href="#DejaVuSans-63" x="505.908203"/>
      <use xlink:href="#DejaVuSans-63" x="560.888672"/>
      <use xlink:href="#DejaVuSans-65" x="615.869141"/>
      <use xlink:href="#DejaVuSans-6c" x="677.392578"/>
      <use xlink:href="#DejaVuSans-65" x="705.175781"/>
      <use xlink:href="#DejaVuSans-72" x="766.699219"/>
      <use xlink:href="#DejaVuSans-61" x="807.8125"/>
      <use xlink:href="#DejaVuSans-74" x="869.091797"/>
      <use xlink:href="#DejaVuSans-69" x="908.300781"/>
      <use xlink:href="#DejaVuSans-6f" x="936.083984"/>
      <use xlink:href="#DejaVuSans-6e" x="997.265625"/>
      <use xlink:href="#DejaVuSans-2c" x="1060.644531"/>
      <use xlink:href="#DejaVuSans-20" x="1092.431641"/>
      <use xlink:href="#DejaVuSans-53" x="1124.21875"/>
      <use xlink:href="#DejaVuSans-41" x="1189.570312"/>
      <use xlink:href="#DejaVuSans-20" x="1257.978516"/>
      <use xlink:href="#DejaVuSans-28" x="1289.765625"/>
      <use xlink:href="#DejaVuSans-67" x="1328.779297"/>
      <use xlink:href="#DejaVuSans-29" x="1392.255859"/>
     </g>
    </g>
   </g>
   <g id="line2d_79">
    <path d="M 53.721227 54.563818 
L 72.333391 51.614178 
L 85.538931 54.911323 
L 95.781944 52.072821 
L 104.151095 47.995031 
L 117.356635 46.032781 
L 127.045477 41.763314 
L 127.599648 41.229598 
L 146.211812 35.42684 
L 159.417352 22.539075 
L 171.460723 34.349589 
L 178.029516 47.767776 
L 191.235056 71.145539 
L 209.84722 83.41192 
L 223.05276 93.401545 
L 233.295773 105.686203 
" clip-path="url(#pcadaf6f6cc)" style="fill: none; stroke: #b2b2b2; stroke-width: 0.8; stroke-linecap: square"/>
   </g>
   <g id="line2d_80">
    <path d="M 53.721227 66.002727 
L 72.333391 65.781731 
L 85.538931 54.31967 
L 95.781944 60.258939 
L 104.151095 52.888498 
L 117.356635 55.714723 
L 127.045477 41.763314 
L 127.599648 41.354276 
L 146.211812 74.489757 
L 159.417352 72.458953 
L 171.460723 65.045544 
L 178.029516 68.356378 
L 191.235056 84.807852 
L 209.84722 106.247507 
L 223.05276 120.072959 
L 233.295773 126.184564 
" clip-path="url(#pcadaf6f6cc)" style="fill: none; stroke: #b2b2b2; stroke-width: 0.8; stroke-linecap: square"/>
   </g>
   <g id="line2d_81">
    <path d="M 53.721227 60.494777 
L 72.333391 55.621029 
L 85.538931 47.393976 
L 95.781944 44.732652 
L 104.151095 44.343217 
L 117.356635 37.532636 
L 127.045477 41.763314 
L 127.599648 43.397419 
L 146.211812 59.717819 
L 159.417352 60.644579 
L 171.460723 66.147915 
L 178.029516 61.827734 
L 191.235056 57.447268 
L 209.84722 59.466813 
L 223.05276 77.848505 
L 233.295773 85.540973 
" clip-path="url(#pcadaf6f6cc)" style="fill: none; stroke: #b2b2b2; stroke-width: 0.8; stroke-linecap: square"/>
   </g>
   <g id="line2d_82">
    <path d="M 53.721227 58.048271 
L 72.333391 52.657441 
L 85.538931 38.369429 
L 95.781944 43.832412 
L 104.151095 42.767158 
L 117.356635 38.970088 
L 127.045477 41.763314 
L 127.599648 41.462144 
L 146.211812 63.840535 
L 159.417352 70.649241 
L 171.460723 67.706371 
L 178.029516 78.813923 
L 191.235056 83.335953 
L 209.84722 92.443147 
L 223.05276 108.82996 
L 233.295773 120.360596 
" clip-path="url(#pcadaf6f6cc)" style="fill: none; stroke: #b2b2b2; stroke-width: 0.8; stroke-linecap: square"/>
   </g>
   <g id="line2d_83">
    <path d="M 53.721227 60.045247 
L 72.333391 48.720338 
L 85.538931 47.607856 
L 95.781944 36.723014 
L 104.151095 54.148267 
L 117.356635 48.966141 
L 127.045477 41.763314 
L 127.599648 41.412198 
L 146.211812 55.146529 
L 159.417352 64.355571 
L 171.460723 61.955379 
L 178.029516 62.378549 
L 191.235056 77.380265 
L 209.84722 101.806258 
L 223.05276 115.44539 
L 233.295773 126.381186 
" clip-path="url(#pcadaf6f6cc)" style="fill: none; stroke: #b2b2b2; stroke-width: 0.8; stroke-linecap: square"/>
   </g>
   <g id="line2d_84">
    <path d="M 53.721227 54.923732 
L 72.333391 46.306454 
L 85.538931 35.628218 
L 95.781944 33.986978 
L 104.151095 32.983937 
L 117.356635 40.561056 
L 127.045477 41.763314 
L 127.599648 41.582642 
L 146.211812 57.280006 
L 159.417352 72.284913 
L 171.460723 78.96425 
L 178.029516 85.660712 
L 191.235056 96.365028 
L 209.84722 106.702651 
L 223.05276 108.519667 
L 233.295773 102.124614 
" clip-path="url(#pcadaf6f6cc)" style="fill: none; stroke: #b2b2b2; stroke-width: 0.8; stroke-linecap: square"/>
   </g>
   <g id="line2d_85">
    <path d="M 53.721227 53.450844 
L 72.333391 51.764555 
L 85.538931 45.676605 
L 95.781944 39.198614 
L 104.151095 34.455299 
L 117.356635 39.478786 
L 127.045477 41.763314 
L 127.599648 41.999637 
L 146.211812 53.134524 
L 159.417352 65.278567 
L 171.460723 87.442804 
L 178.029516 89.620385 
L 191.235056 97.644687 
L 209.84722 106.421898 
L 223.05276 117.976858 
L 233.295773 131.455039 
" clip-path="url(#pcadaf6f6cc)" style="fill: none; stroke: #b2b2b2; stroke-width: 0.8; stroke-linecap: square"/>
   </g>
   <g id="line2d_86">
    <path d="M 53.721227 56.476786 
L 72.333391 57.337044 
L 85.538931 56.153675 
L 95.781944 53.279734 
L 104.151095 41.349988 
L 117.356635 40.012167 
L 127.045477 41.763314 
L 127.599648 42.768706 
L 146.211812 39.900061 
L 159.417352 58.551191 
L 171.460723 51.355377 
L 178.029516 48.387205 
L 191.235056 66.44973 
L 209.84722 83.54769 
L 223.05276 88.833132 
L 233.295773 97.105622 
" clip-path="url(#pcadaf6f6cc)" style="fill: none; stroke: #b2b2b2; stroke-width: 0.8; stroke-linecap: square"/>
   </g>
   <g id="line2d_87">
    <path d="M 53.721227 61.711355 
L 72.333391 56.106452 
L 85.538931 57.043908 
L 95.781944 52.668207 
L 104.151095 46.296693 
L 117.356635 46.15775 
L 127.045477 41.763314 
L 127.599648 42.445277 
L 146.211812 59.887668 
L 159.417352 50.956785 
L 171.460723 66.384947 
L 178.029516 66.5611 
L 191.235056 75.942261 
L 209.84722 93.668219 
L 223.05276 86.193843 
L 233.295773 86.162037 
" clip-path="url(#pcadaf6f6cc)" style="fill: none; stroke: #b2b2b2; stroke-width: 0.8; stroke-linecap: square"/>
   </g>
   <g id="line2d_88">
    <path d="M 53.721227 25.537231 
L 72.333391 22.053186 
L 85.538931 24.681925 
L 95.781944 25.813531 
L 104.151095 29.13623 
L 117.356635 36.757263 
L 127.045477 41.763314 
L 127.599648 42.044968 
L 146.211812 52.091234 
L 159.417352 69.164434 
L 171.460723 87.055474 
L 178.029516 93.419899 
L 191.235056 103.432813 
L 209.84722 98.177999 
L 223.05276 98.326807 
L 233.295773 107.525022 
" clip-path="url(#pcadaf6f6cc)" style="fill: none; stroke: #b2b2b2; stroke-width: 0.8; stroke-linecap: square"/>
   </g>
   <g id="line2d_89">
    <path d="M 53.721227 61.775197 
L 72.333391 58.49788 
L 85.538931 49.643312 
L 95.781944 51.255746 
L 104.151095 55.230567 
L 117.356635 46.344635 
L 127.045477 41.763314 
L 127.599648 40.466823 
L 146.211812 57.777271 
L 159.417352 61.200964 
L 171.460723 55.565544 
L 178.029516 58.709875 
L 191.235056 78.147219 
L 209.84722 97.689327 
L 223.05276 109.550914 
L 233.295773 117.932709 
" clip-path="url(#pcadaf6f6cc)" style="fill: none; stroke: #b2b2b2; stroke-width: 0.8; stroke-linecap: square"/>
   </g>
   <g id="line2d_90">
    <path d="M 53.721227 13.1472 
L 72.333391 27.276733 
L 85.538931 28.336776 
L 95.781944 29.126396 
L 104.151095 28.564393 
L 117.356635 41.279695 
L 127.045477 41.763314 
L 127.599648 42.659975 
L 146.211812 47.692245 
L 159.417352 49.75875 
L 171.460723 63.043565 
L 178.029516 63.87235 
L 191.235056 61.938209 
L 209.84722 85.428289 
L 223.05276 98.665358 
L 233.295773 93.35514 
" clip-path="url(#pcadaf6f6cc)" style="fill: none; stroke: #b2b2b2; stroke-width: 0.8; stroke-linecap: square"/>
   </g>
   <g id="line2d_91">
    <path d="M 53.721227 45.098008 
L 72.333391 36.740596 
L 85.538931 43.860349 
L 95.781944 43.010649 
L 104.151095 38.876358 
L 117.356635 31.48245 
L 127.045477 41.763314 
L 127.599648 43.233163 
L 146.211812 38.640597 
L 159.417352 47.029314 
L 171.460723 48.94655 
L 178.029516 52.031287 
L 191.235056 68.23651 
L 209.84722 78.953797 
L 223.05276 102.671004 
L 233.295773 115.827035 
" clip-path="url(#pcadaf6f6cc)" style="fill: none; stroke: #b2b2b2; stroke-width: 0.8; stroke-linecap: square"/>
   </g>
   <g id="line2d_92">
    <path d="M 53.721227 59.7025 
L 72.333391 48.301957 
L 85.538931 47.497928 
L 95.781944 40.552283 
L 104.151095 50.557585 
L 117.356635 44.959555 
L 127.045477 41.763314 
L 127.599648 41.263881 
L 146.211812 44.549985 
L 159.417352 43.367947 
L 171.460723 41.183826 
L 178.029516 46.799487 
L 191.235056 67.165169 
L 209.84722 75.546602 
L 223.05276 85.279957 
L 233.295773 83.29388 
" clip-path="url(#pcadaf6f6cc)" style="fill: none; stroke: #b2b2b2; stroke-width: 0.8; stroke-linecap: square"/>
   </g>
   <g id="line2d_93">
    <path d="M 53.721227 44.267066 
L 72.333391 40.341657 
L 85.538931 32.119837 
L 95.781944 36.874884 
L 104.151095 38.573841 
L 117.356635 37.331182 
L 127.045477 41.763314 
L 127.599648 42.5753 
L 146.211812 39.551953 
L 159.417352 44.00277 
L 171.460723 47.591424 
L 178.029516 52.775599 
L 191.235056 66.135978 
L 209.84722 78.547499 
L 223.05276 88.207743 
L 233.295773 99.780001 
" clip-path="url(#pcadaf6f6cc)" style="fill: none; stroke: #b2b2b2; stroke-width: 0.8; stroke-linecap: square"/>
   </g>
   <g id="line2d_94">
    <path d="M 53.721227 26.671625 
L 72.333391 32.769513 
L 85.538931 33.148339 
L 95.781944 37.243098 
L 104.151095 28.80527 
L 117.356635 35.049262 
L 127.045477 41.763314 
L 127.599648 41.707016 
L 146.211812 38.15298 
L 159.417352 43.446171 
L 171.460723 58.758707 
L 178.029516 51.993924 
L 191.235056 74.90463 
L 209.84722 79.399455 
L 223.05276 74.760901 
L 233.295773 86.904274 
" clip-path="url(#pcadaf6f6cc)" style="fill: none; stroke: #b2b2b2; stroke-width: 0.8; stroke-linecap: square"/>
   </g>
   <g id="line2d_95">
    <path d="M 53.721227 59.579347 
L 72.333391 44.027 
L 85.538931 49.660164 
L 95.781944 42.135768 
L 104.151095 41.141601 
L 117.356635 43.686385 
L 127.045477 41.763314 
L 127.599648 42.358288 
L 146.211812 50.222884 
L 159.417352 58.777246 
L 171.460723 58.518588 
L 178.029516 55.848329 
L 191.235056 62.011026 
L 209.84722 76.466775 
L 223.05276 90.9692 
L 233.295773 111.293949 
" clip-path="url(#pcadaf6f6cc)" style="fill: none; stroke: #b2b2b2; stroke-width: 0.8; stroke-linecap: square"/>
   </g>
   <g id="line2d_96">
    <path d="M 53.721227 56.09485 
L 72.333391 47.472865 
L 85.538931 39.206731 
L 95.781944 35.343156 
L 104.151095 43.222037 
L 117.356635 36.911344 
L 127.045477 41.763314 
L 127.599648 41.929754 
L 146.211812 38.612118 
L 159.417352 45.876162 
L 171.460723 52.955306 
L 178.029516 57.203996 
L 191.235056 64.196535 
L 209.84722 71.93235 
L 223.05276 81.728641 
L 233.295773 91.778211 
" clip-path="url(#pcadaf6f6cc)" style="fill: none; stroke: #b2b2b2; stroke-width: 0.8; stroke-linecap: square"/>
   </g>
   <g id="line2d_97">
    <path d="M 53.721227 37.532092 
L 72.333391 21.932799 
L 85.538931 21.235556 
L 95.781944 27.763722 
L 104.151095 30.651381 
L 117.356635 42.032655 
L 127.045477 41.763314 
L 127.599648 41.35653 
L 146.211812 40.338994 
L 159.417352 45.671128 
L 171.460723 48.866519 
L 178.029516 59.750918 
L 191.235056 77.829755 
L 209.84722 87.046056 
L 223.05276 96.159692 
L 233.295773 108.008282 
" clip-path="url(#pcadaf6f6cc)" style="fill: none; stroke: #b2b2b2; stroke-width: 0.8; stroke-linecap: square"/>
   </g>
   <g id="line2d_98">
    <path d="M 53.721227 41.814183 
L 72.333391 28.895028 
L 85.538931 22.136308 
L 95.781944 25.318121 
L 104.151095 33.34063 
L 117.356635 29.68785 
L 127.045477 41.763314 
L 127.599648 41.636501 
L 146.211812 54.383565 
L 159.417352 56.11175 
L 171.460723 65.320269 
L 178.029516 65.461239 
L 191.235056 71.347667 
L 209.84722 88.014296 
L 223.05276 98.561709 
L 233.295773 96.393767 
" clip-path="url(#pcadaf6f6cc)" style="fill: none; stroke: #b2b2b2; stroke-width: 0.8; stroke-linecap: square"/>
   </g>
   <g id="line2d_99">
    <path d="M 53.721227 45.155726 
L 72.333391 36.245993 
L 85.538931 31.746781 
L 95.781944 27.029596 
L 104.151095 32.801823 
L 117.356635 44.260392 
L 127.045477 41.763314 
L 127.599648 42.482447 
L 146.211812 55.166901 
L 159.417352 51.409509 
L 171.460723 68.44435 
L 178.029516 62.506218 
L 191.235056 75.83506 
L 209.84722 87.067251 
L 223.05276 103.508238 
L 233.295773 109.815416 
" clip-path="url(#pcadaf6f6cc)" style="fill: none; stroke: #b2b2b2; stroke-width: 0.8; stroke-linecap: square"/>
   </g>
   <g id="line2d_100">
    <path d="M 53.721227 39.120083 
L 72.333391 37.204425 
L 85.538931 37.276662 
L 95.781944 40.129407 
L 104.151095 51.194842 
L 117.356635 45.393115 
L 127.045477 41.763314 
L 127.599648 40.918319 
L 146.211812 50.049065 
L 159.417352 69.572377 
L 171.460723 76.054094 
L 178.029516 85.427062 
L 191.235056 82.689707 
L 209.84722 79.128899 
L 223.05276 92.823216 
L 233.295773 105.105463 
" clip-path="url(#pcadaf6f6cc)" style="fill: none; stroke: #b2b2b2; stroke-width: 0.8; stroke-linecap: square"/>
   </g>
   <g id="line2d_101">
    <path d="M 53.721227 46.533963 
L 72.333391 35.888753 
L 85.538931 29.593947 
L 95.781944 28.182617 
L 104.151095 35.288125 
L 117.356635 30.544342 
L 127.045477 41.763314 
L 127.599648 43.908904 
L 146.211812 54.281867 
L 159.417352 62.069059 
L 171.460723 71.918609 
L 178.029516 82.223352 
L 191.235056 92.253783 
L 209.84722 96.052336 
L 223.05276 97.925378 
L 233.295773 107.258453 
" clip-path="url(#pcadaf6f6cc)" style="fill: none; stroke: #b2b2b2; stroke-width: 0.8; stroke-linecap: square"/>
   </g>
   <g id="line2d_102">
    <path d="M 53.721227 30.59502 
L 72.333391 20.212136 
L 85.538931 16.752092 
L 95.781944 28.268326 
L 104.151095 22.044344 
L 117.356635 36.090244 
L 127.045477 41.763314 
L 127.599648 42.884964 
L 146.211812 54.862938 
L 159.417352 63.247865 
L 171.460723 67.065944 
L 178.029516 66.9887 
L 191.235056 89.439863 
L 209.84722 104.923317 
L 223.05276 96.395169 
L 233.295773 111.840571 
" clip-path="url(#pcadaf6f6cc)" style="fill: none; stroke: #b2b2b2; stroke-width: 0.8; stroke-linecap: square"/>
   </g>
   <g id="line2d_103">
    <path d="M 53.721227 50.1609 
L 72.333391 51.86736 
L 85.538931 43.764032 
L 95.781944 46.547439 
L 104.151095 42.053218 
L 117.356635 40.402308 
L 127.045477 41.763314 
L 127.599648 41.971187 
L 146.211812 52.82661 
L 159.417352 51.992546 
L 171.460723 60.812673 
L 178.029516 61.883327 
L 191.235056 72.452857 
L 209.84722 72.945063 
L 223.05276 90.623427 
L 233.295773 106.529184 
" clip-path="url(#pcadaf6f6cc)" style="fill: none; stroke: #b2b2b2; stroke-width: 0.8; stroke-linecap: square"/>
   </g>
   <g id="line2d_104">
    <path d="M 53.721227 56.238011 
L 72.333391 54.388415 
L 85.538931 48.591296 
L 95.781944 50.19813 
L 104.151095 47.00191 
L 117.356635 43.663705 
L 127.045477 41.763314 
L 127.599648 40.538625 
L 146.211812 40.052534 
L 159.417352 47.512035 
L 171.460723 38.031574 
L 178.029516 41.295058 
L 191.235056 66.460227 
L 209.84722 64.738444 
L 223.05276 87.324551 
L 233.295773 106.199485 
" clip-path="url(#pcadaf6f6cc)" style="fill: none; stroke: #b2b2b2; stroke-width: 0.8; stroke-linecap: square"/>
   </g>
   <g id="line2d_105">
    <path d="M 53.721227 55.105436 
L 72.333391 50.718572 
L 85.538931 58.069868 
L 95.781944 54.48783 
L 104.151095 48.871043 
L 117.356635 46.43721 
L 127.045477 41.763314 
L 127.599648 41.66356 
L 146.211812 53.964355 
L 159.417352 62.140649 
L 171.460723 62.488883 
L 178.029516 56.899336 
L 191.235056 64.448206 
L 209.84722 76.126915 
L 223.05276 86.196272 
L 233.295773 97.563082 
" clip-path="url(#pcadaf6f6cc)" style="fill: none; stroke: #b2b2b2; stroke-width: 0.8; stroke-linecap: square"/>
   </g>
   <g id="line2d_106">
    <path d="M 53.721227 29.199447 
L 72.333391 27.200251 
L 85.538931 29.324239 
L 95.781944 25.074769 
L 104.151095 28.872402 
L 117.356635 42.424701 
L 127.045477 41.763314 
L 127.599648 41.935324 
L 146.211812 51.618625 
L 159.417352 59.158044 
L 171.460723 67.358138 
L 178.029516 71.390612 
L 191.235056 85.982468 
L 209.84722 91.346631 
L 223.05276 93.235906 
L 233.295773 102.109891 
" clip-path="url(#pcadaf6f6cc)" style="fill: none; stroke: #b2b2b2; stroke-width: 0.8; stroke-linecap: square"/>
   </g>
   <g id="line2d_107">
    <path d="M 53.721227 53.016557 
L 72.333391 52.77739 
L 85.538931 48.170416 
L 95.781944 49.908431 
L 104.151095 47.819355 
L 117.356635 37.129016 
L 127.045477 41.763314 
L 127.599648 42.494697 
L 146.211812 58.97373 
L 159.417352 64.65636 
L 171.460723 69.930139 
L 178.029516 66.289797 
L 191.235056 74.778565 
L 209.84722 97.411359 
L 223.05276 109.693995 
L 233.295773 121.752569 
" clip-path="url(#pcadaf6f6cc)" style="fill: none; stroke: #b2b2b2; stroke-width: 0.8; stroke-linecap: square"/>
   </g>
   <g id="line2d_108">
    <path d="M 53.721227 39.022599 
L 72.333391 27.093098 
L 85.538931 32.698775 
L 95.781944 28.592539 
L 104.151095 25.678198 
L 117.356635 25.697384 
L 127.045477 41.763314 
L 127.599648 42.211008 
L 146.211812 51.536575 
L 159.417352 44.507754 
L 171.460723 46.586371 
L 178.029516 48.800548 
L 191.235056 56.837859 
L 209.84722 71.833128 
L 223.05276 81.876063 
L 233.295773 95.622665 
" clip-path="url(#pcadaf6f6cc)" style="fill: none; stroke: #b2b2b2; stroke-width: 0.8; stroke-linecap: square"/>
   </g>
   <g id="line2d_109">
    <path d="M 53.721227 37.924408 
L 72.333391 24.520667 
L 85.538931 27.888445 
L 95.781944 36.320123 
L 104.151095 33.753594 
L 117.356635 37.120058 
L 127.045477 41.763314 
L 127.599648 41.850629 
L 146.211812 42.456313 
L 159.417352 52.93309 
L 171.460723 49.400385 
L 178.029516 50.106634 
L 191.235056 52.604318 
L 209.84722 78.693367 
L 223.05276 84.484111 
L 233.295773 94.340967 
" clip-path="url(#pcadaf6f6cc)" style="fill: none; stroke: #b2b2b2; stroke-width: 0.8; stroke-linecap: square"/>
   </g>
   <g id="line2d_110">
    <path d="M 53.721227 45.306114 
L 72.333391 40.566343 
L 85.538931 38.495971 
L 95.781944 38.765072 
L 104.151095 35.138419 
L 117.356635 44.381538 
L 127.045477 41.763314 
L 127.599648 42.211216 
L 146.211812 53.203184 
L 159.417352 59.985521 
L 171.460723 64.402298 
L 178.029516 63.464059 
L 191.235056 67.33333 
L 209.84722 73.120536 
L 223.05276 81.420015 
L 233.295773 96.57101 
" clip-path="url(#pcadaf6f6cc)" style="fill: none; stroke: #b2b2b2; stroke-width: 0.8; stroke-linecap: square"/>
   </g>
   <g id="line2d_111">
    <path d="M 53.721227 42.277542 
L 72.333391 31.890084 
L 85.538931 30.555254 
L 95.781944 30.397981 
L 104.151095 27.489422 
L 117.356635 37.965812 
L 127.045477 41.763314 
L 127.599648 43.253991 
L 146.211812 54.30532 
L 159.417352 65.223098 
L 171.460723 68.52902 
L 178.029516 74.24237 
L 191.235056 72.43875 
L 209.84722 91.199358 
L 223.05276 84.12421 
L 233.295773 86.925901 
" clip-path="url(#pcadaf6f6cc)" style="fill: none; stroke: #b2b2b2; stroke-width: 0.8; stroke-linecap: square"/>
   </g>
   <g id="line2d_112">
    <path d="M 53.721227 59.540106 
L 72.333391 54.265565 
L 85.538931 42.898648 
L 95.781944 47.831754 
L 104.151095 46.837664 
L 117.356635 46.09285 
L 127.045477 41.763314 
L 127.599648 41.531426 
L 146.211812 51.129453 
L 159.417352 50.45302 
L 171.460723 60.785714 
L 178.029516 72.076479 
L 191.235056 85.759446 
L 209.84722 90.825022 
L 223.05276 95.806744 
L 233.295773 109.809906 
" clip-path="url(#pcadaf6f6cc)" style="fill: none; stroke: #b2b2b2; stroke-width: 0.8; stroke-linecap: square"/>
   </g>
   <g id="line2d_113">
    <path d="M 53.721227 59.765171 
L 72.333391 56.752131 
L 85.538931 57.979921 
L 95.781944 47.566616 
L 104.151095 50.24388 
L 117.356635 42.216452 
L 127.045477 41.763314 
L 127.599648 42.72328 
L 146.211812 45.779854 
L 159.417352 57.856724 
L 171.460723 54.146486 
L 178.029516 62.996546 
L 191.235056 73.3998 
L 209.84722 74.172345 
L 223.05276 81.53177 
L 233.295773 89.617095 
" clip-path="url(#pcadaf6f6cc)" style="fill: none; stroke: #b2b2b2; stroke-width: 0.8; stroke-linecap: square"/>
   </g>
   <g id="line2d_114">
    <path d="M 53.721227 25.272327 
L 72.333391 19.040121 
L 85.538931 25.79533 
L 95.781944 25.281993 
L 104.151095 39.980703 
L 117.356635 45.80234 
L 127.045477 41.763314 
L 127.599648 42.012173 
L 146.211812 52.322676 
L 159.417352 53.948304 
L 171.460723 53.69964 
L 178.029516 62.300989 
L 191.235056 65.293982 
L 209.84722 60.538185 
L 223.05276 76.808042 
L 233.295773 78.920908 
" clip-path="url(#pcadaf6f6cc)" style="fill: none; stroke: #b2b2b2; stroke-width: 0.8; stroke-linecap: square"/>
   </g>
   <g id="line2d_115">
    <path d="M 53.721227 44.549787 
L 72.333391 42.843739 
L 85.538931 37.933707 
L 95.781944 37.166972 
L 104.151095 38.274865 
L 117.356635 37.119412 
L 127.045477 41.763314 
L 127.599648 43.431637 
L 146.211812 43.750104 
L 159.417352 54.425449 
L 171.460723 66.166985 
L 178.029516 69.367493 
L 191.235056 68.74726 
L 209.84722 87.734028 
L 223.05276 93.50893 
L 233.295773 101.809068 
" clip-path="url(#pcadaf6f6cc)" style="fill: none; stroke: #b2b2b2; stroke-width: 0.8; stroke-linecap: square"/>
   </g>
   <g id="line2d_116">
    <path d="M 53.721227 32.413006 
L 72.333391 30.46044 
L 85.538931 27.372887 
L 95.781944 28.833741 
L 104.151095 28.951549 
L 117.356635 33.771416 
L 127.045477 41.763314 
L 127.599648 41.853489 
L 146.211812 50.293038 
L 159.417352 74.67912 
L 171.460723 78.95645 
L 178.029516 81.700118 
L 191.235056 84.352019 
L 209.84722 97.422398 
L 223.05276 106.200684 
L 233.295773 113.394661 
" clip-path="url(#pcadaf6f6cc)" style="fill: none; stroke: #b2b2b2; stroke-width: 0.8; stroke-linecap: square"/>
   </g>
   <g id="line2d_117">
    <path d="M 53.721227 64.638775 
L 72.333391 64.269417 
L 85.538931 60.577297 
L 95.781944 62.961507 
L 104.151095 56.973408 
L 117.356635 51.324658 
L 127.045477 41.763314 
L 127.599648 41.0907 
L 146.211812 44.324712 
L 159.417352 47.972463 
L 171.460723 51.070469 
L 178.029516 52.368381 
L 191.235056 52.255065 
L 209.84722 79.319683 
L 223.05276 106.173471 
L 233.295773 100.573517 
" clip-path="url(#pcadaf6f6cc)" style="fill: none; stroke: #b2b2b2; stroke-width: 0.8; stroke-linecap: square"/>
   </g>
   <g id="line2d_118">
    <path d="M 53.721227 33.887844 
L 72.333391 36.256952 
L 85.538931 34.787128 
L 95.781944 28.212354 
L 104.151095 32.155635 
L 117.356635 38.68289 
L 127.045477 41.763314 
L 127.599648 42.444212 
L 146.211812 51.054222 
L 159.417352 56.049292 
L 171.460723 66.378386 
L 178.029516 72.749116 
L 191.235056 86.368295 
L 209.84722 95.575012 
L 223.05276 116.810896 
L 233.295773 127.268534 
" clip-path="url(#pcadaf6f6cc)" style="fill: none; stroke: #b2b2b2; stroke-width: 0.8; stroke-linecap: square"/>
   </g>
   <g id="line2d_119">
    <path d="M 53.721227 52.237168 
L 72.333391 42.52983 
L 85.538931 38.539657 
L 95.781944 44.266588 
L 104.151095 36.760649 
L 117.356635 42.92046 
L 127.045477 41.763314 
L 127.599648 41.076036 
L 146.211812 45.799254 
L 159.417352 55.397629 
L 171.460723 65.527454 
L 178.029516 68.85854 
L 191.235056 86.34685 
L 209.84722 104.199774 
L 223.05276 124.060235 
L 233.295773 132.0912 
" clip-path="url(#pcadaf6f6cc)" style="fill: none; stroke: #b2b2b2; stroke-width: 0.8; stroke-linecap: square"/>
   </g>
   <g id="line2d_120">
    <path d="M 53.721227 56.938065 
L 72.333391 46.594167 
L 85.538931 41.992671 
L 95.781944 46.033189 
L 104.151095 39.075759 
L 117.356635 48.190264 
L 127.045477 41.763314 
L 127.599648 40.709843 
L 146.211812 43.177063 
L 159.417352 44.564423 
L 171.460723 59.701075 
L 178.029516 62.210469 
L 191.235056 58.707033 
L 209.84722 72.058395 
L 223.05276 78.560957 
L 233.295773 90.795523 
" clip-path="url(#pcadaf6f6cc)" style="fill: none; stroke: #b2b2b2; stroke-width: 0.8; stroke-linecap: square"/>
   </g>
   <g id="line2d_121">
    <path d="M 53.721227 51.757657 
L 72.333391 52.378689 
L 85.538931 49.956631 
L 95.781944 36.175739 
L 104.151095 35.287662 
L 117.356635 37.950256 
L 127.045477 41.763314 
L 127.599648 41.481272 
L 146.211812 48.960495 
L 159.417352 47.146858 
L 171.460723 46.727715 
L 178.029516 53.435873 
L 191.235056 66.18627 
L 209.84722 83.47348 
L 223.05276 94.567433 
L 233.295773 111.563935 
" clip-path="url(#pcadaf6f6cc)" style="fill: none; stroke: #b2b2b2; stroke-width: 0.8; stroke-linecap: square"/>
   </g>
   <g id="line2d_122">
    <path d="M 53.721227 49.438034 
L 72.333391 50.929133 
L 85.538931 42.8687 
L 95.781944 44.774334 
L 104.151095 44.025937 
L 117.356635 43.674109 
L 127.045477 41.763314 
L 127.599648 41.350644 
L 146.211812 30.733965 
L 159.417352 37.172914 
L 171.460723 47.939546 
L 178.029516 53.897498 
L 191.235056 54.55585 
L 209.84722 57.209714 
L 223.05276 78.460729 
L 233.295773 96.399039 
" clip-path="url(#pcadaf6f6cc)" style="fill: none; stroke: #b2b2b2; stroke-width: 0.8; stroke-linecap: square"/>
   </g>
   <g id="line2d_123">
    <path d="M 53.721227 51.01424 
L 72.333391 46.980182 
L 85.538931 42.9695 
L 95.781944 44.854928 
L 104.151095 42.393971 
L 117.356635 42.320845 
L 127.045477 41.763314 
L 127.599648 41.621405 
L 146.211812 48.742832 
L 159.417352 59.495126 
L 171.460723 64.506578 
L 178.029516 69.916814 
L 191.235056 82.608688 
L 209.84722 91.821127 
L 223.05276 101.170731 
L 233.295773 95.106983 
" clip-path="url(#pcadaf6f6cc)" style="fill: none; stroke: #b2b2b2; stroke-width: 0.8; stroke-linecap: square"/>
   </g>
   <g id="line2d_124">
    <path d="M 53.721227 52.704622 
L 72.333391 41.806717 
L 85.538931 40.632089 
L 95.781944 35.737737 
L 104.151095 32.270365 
L 117.356635 40.380611 
L 127.045477 41.763314 
L 127.599648 42.059082 
L 146.211812 43.60704 
L 159.417352 52.066982 
L 171.460723 64.669353 
L 178.029516 64.528801 
L 191.235056 61.365462 
L 209.84722 83.307385 
L 223.05276 84.383328 
L 233.295773 103.989263 
" clip-path="url(#pcadaf6f6cc)" style="fill: none; stroke: #b2b2b2; stroke-width: 0.8; stroke-linecap: square"/>
   </g>
   <g id="line2d_125">
    <path d="M 53.721227 44.385333 
L 72.333391 45.494313 
L 85.538931 50.376823 
L 95.781944 54.349079 
L 104.151095 50.067739 
L 117.356635 43.738055 
L 127.045477 41.763314 
L 127.599648 41.717016 
L 146.211812 45.765476 
L 159.417352 49.287856 
L 171.460723 62.657629 
L 178.029516 70.550174 
L 191.235056 62.100425 
L 209.84722 86.088611 
L 223.05276 82.313914 
L 233.295773 94.804718 
" clip-path="url(#pcadaf6f6cc)" style="fill: none; stroke: #b2b2b2; stroke-width: 0.8; stroke-linecap: square"/>
   </g>
   <g id="line2d_126">
    <path d="M 53.721227 53.439376 
L 72.333391 50.732983 
L 85.538931 47.798099 
L 95.781944 50.626435 
L 104.151095 43.869598 
L 117.356635 38.418338 
L 127.045477 41.763314 
L 127.599648 42.247625 
L 146.211812 46.092024 
L 159.417352 54.454406 
L 171.460723 55.962189 
L 178.029516 68.76102 
L 191.235056 66.102178 
L 209.84722 99.72365 
L 223.05276 103.976014 
L 233.295773 113.200228 
" clip-path="url(#pcadaf6f6cc)" style="fill: none; stroke: #b2b2b2; stroke-width: 0.8; stroke-linecap: square"/>
   </g>
   <g id="line2d_127">
    <path d="M 53.721227 64.612162 
L 72.333391 59.74496 
L 85.538931 56.590977 
L 95.781944 54.580437 
L 104.151095 47.426731 
L 117.356635 45.094242 
L 127.045477 41.763314 
L 127.599648 41.255047 
L 146.211812 46.045914 
L 159.417352 56.888224 
L 171.460723 64.073126 
L 178.029516 68.248117 
L 191.235056 67.741745 
L 209.84722 76.872098 
L 223.05276 86.838909 
L 233.295773 90.849469 
" clip-path="url(#pcadaf6f6cc)" style="fill: none; stroke: #b2b2b2; stroke-width: 0.8; stroke-linecap: square"/>
   </g>
   <g id="line2d_128">
    <path d="M 53.721227 64.353485 
L 72.333391 63.041522 
L 85.538931 56.412386 
L 95.781944 53.223675 
L 104.151095 52.041232 
L 117.356635 51.608059 
L 127.045477 41.763314 
L 127.599648 41.183184 
L 146.211812 54.11887 
L 159.417352 48.775702 
L 171.460723 62.855052 
L 178.029516 65.429204 
L 191.235056 77.166088 
L 209.84722 82.321508 
L 223.05276 95.313723 
L 233.295773 106.478947 
" clip-path="url(#pcadaf6f6cc)" style="fill: none; stroke: #b2b2b2; stroke-width: 0.8; stroke-linecap: square"/>
   </g>
   <g id="line2d_129">
    <path d="M 53.721227 48.46833 
L 72.333391 43.507911 
L 85.538931 41.292867 
L 95.781944 40.795669 
L 104.151095 40.309081 
L 117.356635 41.042665 
L 127.045477 41.763314 
L 127.599648 41.918524 
L 146.211812 49.291828 
L 159.417352 55.150265 
L 171.460723 60.949066 
L 178.029516 64.487929 
L 191.235056 73.064809 
L 209.84722 85.070224 
L 223.05276 94.947838 
L 233.295773 103.936793 
" clip-path="url(#pcadaf6f6cc)" style="fill: none; stroke: #ff0000; stroke-width: 2; stroke-linecap: square"/>
   </g>
   <g id="line2d_130">
    <path d="M 53.721227 24.111598 
L 72.333391 18.972642 
L 85.538931 18.986699 
L 95.781944 20.74531 
L 104.151095 22.935998 
L 117.356635 29.881577 
L 127.045477 41.763314 
L 127.599648 39.075516 
L 146.211812 33.62207 
L 159.417352 35.435716 
L 171.460723 38.818187 
L 178.029516 41.628042 
L 191.235056 49.485209 
L 209.84722 60.340796 
L 223.05276 70.206734 
L 233.295773 78.347148 
" clip-path="url(#pcadaf6f6cc)" style="fill: none; stroke-dasharray: 7.4,3.2; stroke-dashoffset: 0; stroke: #ff0000; stroke-width: 2"/>
   </g>
   <g id="line2d_131">
    <path d="M 53.721227 72.825062 
L 72.333391 68.04318 
L 85.538931 63.599035 
L 95.781944 60.846027 
L 104.151095 57.682165 
L 117.356635 52.203753 
L 127.045477 41.763315 
L 127.599648 44.761533 
L 146.211812 64.961587 
L 159.417352 74.864814 
L 171.460723 83.079945 
L 178.029516 87.347816 
L 191.235056 96.644408 
L 209.84722 109.799653 
L 223.05276 119.688943 
L 233.295773 129.526438 
" clip-path="url(#pcadaf6f6cc)" style="fill: none; stroke-dasharray: 7.4,3.2; stroke-dashoffset: 0; stroke: #ff0000; stroke-width: 2"/>
   </g>
   <g id="line2d_132">
    <path d="M 53.721227 48.550796 
L 72.333391 43.778256 
L 85.538931 41.140842 
L 95.781944 40.751401 
L 104.151095 40.19944 
L 117.356635 41.19527 
L 127.045477 41.763314 
L 127.599648 41.939941 
L 146.211812 49.316651 
L 159.417352 55.143358 
L 171.460723 60.880085 
L 178.029516 64.363067 
L 191.235056 73.169511 
L 209.84722 85.163351 
L 223.05276 94.762417 
L 233.295773 103.828015 
" clip-path="url(#pcadaf6f6cc)" style="fill: none; stroke: #0000ff; stroke-width: 2; stroke-linecap: square"/>
   </g>
   <g id="line2d_133">
    <path d="M 53.721227 24.337593 
L 72.333391 19.213361 
L 85.538931 19.079403 
L 95.781944 20.456335 
L 104.151095 22.852462 
L 117.356635 29.745174 
L 127.045477 41.763314 
L 127.599648 40.41947 
L 146.211812 33.597128 
L 159.417352 35.273839 
L 171.460723 38.693307 
L 178.029516 41.453573 
L 191.235056 49.42435 
L 209.84722 60.301418 
L 223.05276 70.192009 
L 233.295773 78.197929 
" clip-path="url(#pcadaf6f6cc)" style="fill: none; stroke-dasharray: 7.4,3.2; stroke-dashoffset: 0; stroke: #0000ff; stroke-width: 2"/>
   </g>
   <g id="line2d_134">
    <path d="M 53.721227 72.764 
L 72.333391 68.34315 
L 85.538931 63.202282 
L 95.781944 61.046468 
L 104.151095 57.546419 
L 117.356635 52.645366 
L 127.045477 41.763314 
L 127.599648 43.460411 
L 146.211812 65.036175 
L 159.417352 75.012878 
L 171.460723 83.066863 
L 178.029516 87.272561 
L 191.235056 96.914671 
L 209.84722 110.025285 
L 223.05276 119.332825 
L 233.295773 129.458101 
" clip-path="url(#pcadaf6f6cc)" style="fill: none; stroke-dasharray: 7.4,3.2; stroke-dashoffset: 0; stroke: #0000ff; stroke-width: 2"/>
   </g>
   <g id="patch_3">
    <path d="M 44.7425 138.0384 
L 44.7425 7.2 
" style="fill: none; stroke: #000000; stroke-width: 0.8; stroke-linejoin: miter; stroke-linecap: square"/>
   </g>
   <g id="patch_4">
    <path d="M 242.2745 138.0384 
L 242.2745 7.2 
" style="fill: none; stroke: #000000; stroke-width: 0.8; stroke-linejoin: miter; stroke-linecap: square"/>
   </g>
   <g id="patch_5">
    <path d="M 44.7425 138.0384 
L 242.2745 138.0384 
" style="fill: none; stroke: #000000; stroke-width: 0.8; stroke-linejoin: miter; stroke-linecap: square"/>
   </g>
   <g id="patch_6">
    <path d="M 44.7425 7.2 
L 242.2745 7.2 
" style="fill: none; stroke: #000000; stroke-width: 0.8; stroke-linejoin: miter; stroke-linecap: square"/>
   </g>
   <g id="legend_1">
    <g id="patch_7">
     <path d="M 247.8745 104.47295 
L 432.5945 104.47295 
Q 434.1945 104.47295 434.1945 102.87295 
L 434.1945 42.36545 
Q 434.1945 40.76545 432.5945 40.76545 
L 247.8745 40.76545 
Q 246.2745 40.76545 246.2745 42.36545 
L 246.2745 102.87295 
Q 246.2745 104.47295 247.8745 104.47295 
z
" style="fill: #ffffff; opacity: 0.8; stroke: #cccccc; stroke-linejoin: miter"/>
    </g>
    <g id="line2d_135">
     <path d="M 249.4745 47.2442 
L 257.4745 47.2442 
L 265.4745 47.2442 
" style="fill: none; stroke: #b2b2b2; stroke-width: 0.8; stroke-linecap: square"/>
    </g>
    <g id="text_7">
     <!-- Individual selected GMs -->
     <g transform="translate(271.8745 50.0442) scale(0.08 -0.08)">
      <defs>
       <path id="DejaVuSans-49" d="M 628 4666 
L 1259 4666 
L 1259 0 
L 628 0 
L 628 4666 
z
" transform="scale(0.015625)"/>
       <path id="DejaVuSans-76" d="M 191 3500 
L 800 3500 
L 1894 563 
L 2988 3500 
L 3597 3500 
L 2284 0 
L 1503 0 
L 191 3500 
z
" transform="scale(0.015625)"/>
       <path id="DejaVuSans-75" d="M 544 1381 
L 544 3500 
L 1119 3500 
L 1119 1403 
Q 1119 906 1312 657 
Q 1506 409 1894 409 
Q 2359 409 2629 706 
Q 2900 1003 2900 1516 
L 2900 3500 
L 3475 3500 
L 3475 0 
L 2900 0 
L 2900 538 
Q 2691 219 2414 64 
Q 2138 -91 1772 -91 
Q 1169 -91 856 284 
Q 544 659 544 1381 
z
M 1991 3584 
L 1991 3584 
z
" transform="scale(0.015625)"/>
       <path id="DejaVuSans-47" d="M 3809 666 
L 3809 1919 
L 2778 1919 
L 2778 2438 
L 4434 2438 
L 4434 434 
Q 4069 175 3628 42 
Q 3188 -91 2688 -91 
Q 1594 -91 976 548 
Q 359 1188 359 2328 
Q 359 3472 976 4111 
Q 1594 4750 2688 4750 
Q 3144 4750 3555 4637 
Q 3966 4525 4313 4306 
L 4313 3634 
Q 3963 3931 3569 4081 
Q 3175 4231 2741 4231 
Q 1884 4231 1454 3753 
Q 1025 3275 1025 2328 
Q 1025 1384 1454 906 
Q 1884 428 2741 428 
Q 3075 428 3337 486 
Q 3600 544 3809 666 
z
" transform="scale(0.015625)"/>
       <path id="DejaVuSans-4d" d="M 628 4666 
L 1569 4666 
L 2759 1491 
L 3956 4666 
L 4897 4666 
L 4897 0 
L 4281 0 
L 4281 4097 
L 3078 897 
L 2444 897 
L 1241 4097 
L 1241 0 
L 628 0 
L 628 4666 
z
" transform="scale(0.015625)"/>
      </defs>
      <use xlink:href="#DejaVuSans-49"/>
      <use xlink:href="#DejaVuSans-6e" x="29.492188"/>
      <use xlink:href="#DejaVuSans-64" x="92.871094"/>
      <use xlink:href="#DejaVuSans-69" x="156.347656"/>
      <use xlink:href="#DejaVuSans-76" x="184.130859"/>
      <use xlink:href="#DejaVuSans-69" x="243.310547"/>
      <use xlink:href="#DejaVuSans-64" x="271.09375"/>
      <use xlink:href="#DejaVuSans-75" x="334.570312"/>
      <use xlink:href="#DejaVuSans-61" x="397.949219"/>
      <use xlink:href="#DejaVuSans-6c" x="459.228516"/>
      <use xlink:href="#DejaVuSans-20" x="487.011719"/>
      <use xlink:href="#DejaVuSans-73" x="518.798828"/>
      <use xlink:href="#DejaVuSans-65" x="570.898438"/>
      <use xlink:href="#DejaVuSans-6c" x="632.421875"/>
      <use xlink:href="#DejaVuSans-65" x="660.205078"/>
      <use xlink:href="#DejaVuSans-63" x="721.728516"/>
      <use xlink:href="#DejaVuSans-74" x="776.708984"/>
      <use xlink:href="#DejaVuSans-65" x="815.917969"/>
      <use xlink:href="#DejaVuSans-64" x="877.441406"/>
      <use xlink:href="#DejaVuSans-20" x="940.917969"/>
      <use xlink:href="#DejaVuSans-47" x="972.705078"/>
      <use xlink:href="#DejaVuSans-4d" x="1050.195312"/>
      <use xlink:href="#DejaVuSans-73" x="1136.474609"/>
     </g>
    </g>
    <g id="line2d_136">
     <path d="M 249.4745 58.9867 
L 257.4745 58.9867 
L 265.4745 58.9867 
" style="fill: none; stroke: #ff0000; stroke-width: 2; stroke-linecap: square"/>
    </g>
    <g id="text_8">
     <!-- GCIM median -->
     <g transform="translate(271.8745 61.7867) scale(0.08 -0.08)">
      <defs>
       <path id="DejaVuSans-43" d="M 4122 4306 
L 4122 3641 
Q 3803 3938 3442 4084 
Q 3081 4231 2675 4231 
Q 1875 4231 1450 3742 
Q 1025 3253 1025 2328 
Q 1025 1406 1450 917 
Q 1875 428 2675 428 
Q 3081 428 3442 575 
Q 3803 722 4122 1019 
L 4122 359 
Q 3791 134 3420 21 
Q 3050 -91 2638 -91 
Q 1578 -91 968 557 
Q 359 1206 359 2328 
Q 359 3453 968 4101 
Q 1578 4750 2638 4750 
Q 3056 4750 3426 4639 
Q 3797 4528 4122 4306 
z
" transform="scale(0.015625)"/>
       <path id="DejaVuSans-6d" d="M 3328 2828 
Q 3544 3216 3844 3400 
Q 4144 3584 4550 3584 
Q 5097 3584 5394 3201 
Q 5691 2819 5691 2113 
L 5691 0 
L 5113 0 
L 5113 2094 
Q 5113 2597 4934 2840 
Q 4756 3084 4391 3084 
Q 3944 3084 3684 2787 
Q 3425 2491 3425 1978 
L 3425 0 
L 2847 0 
L 2847 2094 
Q 2847 2600 2669 2842 
Q 2491 3084 2119 3084 
Q 1678 3084 1418 2786 
Q 1159 2488 1159 1978 
L 1159 0 
L 581 0 
L 581 3500 
L 1159 3500 
L 1159 2956 
Q 1356 3278 1631 3431 
Q 1906 3584 2284 3584 
Q 2666 3584 2933 3390 
Q 3200 3197 3328 2828 
z
" transform="scale(0.015625)"/>
      </defs>
      <use xlink:href="#DejaVuSans-47"/>
      <use xlink:href="#DejaVuSans-43" x="77.490234"/>
      <use xlink:href="#DejaVuSans-49" x="147.314453"/>
      <use xlink:href="#DejaVuSans-4d" x="176.806641"/>
      <use xlink:href="#DejaVuSans-20" x="263.085938"/>
      <use xlink:href="#DejaVuSans-6d" x="294.873047"/>
      <use xlink:href="#DejaVuSans-65" x="392.285156"/>
      <use xlink:href="#DejaVuSans-64" x="453.808594"/>
      <use xlink:href="#DejaVuSans-69" x="517.285156"/>
      <use xlink:href="#DejaVuSans-61" x="545.068359"/>
      <use xlink:href="#DejaVuSans-6e" x="606.347656"/>
     </g>
    </g>
    <g id="line2d_137">
     <path d="M 249.4745 72.01045 
L 257.4745 72.01045 
L 265.4745 72.01045 
" style="fill: none; stroke-dasharray: 7.4,3.2; stroke-dashoffset: 0; stroke: #ff0000; stroke-width: 2"/>
    </g>
    <g id="text_9">
     <!-- GCIM $16^{th}$ and $84^{th}$ percentiles -->
     <g transform="translate(271.8745 74.81045) scale(0.08 -0.08)">
      <defs>
       <path id="DejaVuSans-36" d="M 2113 2584 
Q 1688 2584 1439 2293 
Q 1191 2003 1191 1497 
Q 1191 994 1439 701 
Q 1688 409 2113 409 
Q 2538 409 2786 701 
Q 3034 994 3034 1497 
Q 3034 2003 2786 2293 
Q 2538 2584 2113 2584 
z
M 3366 4563 
L 3366 3988 
Q 3128 4100 2886 4159 
Q 2644 4219 2406 4219 
Q 1781 4219 1451 3797 
Q 1122 3375 1075 2522 
Q 1259 2794 1537 2939 
Q 1816 3084 2150 3084 
Q 2853 3084 3261 2657 
Q 3669 2231 3669 1497 
Q 3669 778 3244 343 
Q 2819 -91 2113 -91 
Q 1303 -91 875 529 
Q 447 1150 447 2328 
Q 447 3434 972 4092 
Q 1497 4750 2381 4750 
Q 2619 4750 2861 4703 
Q 3103 4656 3366 4563 
z
" transform="scale(0.015625)"/>
       <path id="DejaVuSans-Oblique-74" d="M 2706 3500 
L 2619 3053 
L 1472 3053 
L 1100 1153 
Q 1081 1047 1072 975 
Q 1063 903 1063 863 
Q 1063 663 1183 572 
Q 1303 481 1569 481 
L 2150 481 
L 2053 0 
L 1503 0 
Q 991 0 739 200 
Q 488 400 488 806 
Q 488 878 497 964 
Q 506 1050 525 1153 
L 897 3053 
L 409 3053 
L 500 3500 
L 978 3500 
L 1172 4494 
L 1747 4494 
L 1556 3500 
L 2706 3500 
z
" transform="scale(0.015625)"/>
       <path id="DejaVuSans-Oblique-68" d="M 3566 2113 
L 3156 0 
L 2578 0 
L 2988 2091 
Q 3016 2238 3031 2350 
Q 3047 2463 3047 2528 
Q 3047 2791 2881 2937 
Q 2716 3084 2419 3084 
Q 1956 3084 1617 2771 
Q 1278 2459 1178 1941 
L 800 0 
L 225 0 
L 1172 4863 
L 1747 4863 
L 1375 2950 
Q 1594 3244 1934 3414 
Q 2275 3584 2650 3584 
Q 3113 3584 3367 3334 
Q 3622 3084 3622 2631 
Q 3622 2519 3608 2391 
Q 3594 2263 3566 2113 
z
" transform="scale(0.015625)"/>
       <path id="DejaVuSans-38" d="M 2034 2216 
Q 1584 2216 1326 1975 
Q 1069 1734 1069 1313 
Q 1069 891 1326 650 
Q 1584 409 2034 409 
Q 2484 409 2743 651 
Q 3003 894 3003 1313 
Q 3003 1734 2745 1975 
Q 2488 2216 2034 2216 
z
M 1403 2484 
Q 997 2584 770 2862 
Q 544 3141 544 3541 
Q 544 4100 942 4425 
Q 1341 4750 2034 4750 
Q 2731 4750 3128 4425 
Q 3525 4100 3525 3541 
Q 3525 3141 3298 2862 
Q 3072 2584 2669 2484 
Q 3125 2378 3379 2068 
Q 3634 1759 3634 1313 
Q 3634 634 3220 271 
Q 2806 -91 2034 -91 
Q 1263 -91 848 271 
Q 434 634 434 1313 
Q 434 1759 690 2068 
Q 947 2378 1403 2484 
z
M 1172 3481 
Q 1172 3119 1398 2916 
Q 1625 2713 2034 2713 
Q 2441 2713 2670 2916 
Q 2900 3119 2900 3481 
Q 2900 3844 2670 4047 
Q 2441 4250 2034 4250 
Q 1625 4250 1398 4047 
Q 1172 3844 1172 3481 
z
" transform="scale(0.015625)"/>
       <path id="DejaVuSans-34" d="M 2419 4116 
L 825 1625 
L 2419 1625 
L 2419 4116 
z
M 2253 4666 
L 3047 4666 
L 3047 1625 
L 3713 1625 
L 3713 1100 
L 3047 1100 
L 3047 0 
L 2419 0 
L 2419 1100 
L 313 1100 
L 313 1709 
L 2253 4666 
z
" transform="scale(0.015625)"/>
      </defs>
      <use xlink:href="#DejaVuSans-47" transform="translate(0 0.529687)"/>
      <use xlink:href="#DejaVuSans-43" transform="translate(77.490234 0.529687)"/>
      <use xlink:href="#DejaVuSans-49" transform="translate(147.314453 0.529687)"/>
      <use xlink:href="#DejaVuSans-4d" transform="translate(176.806641 0.529687)"/>
      <use xlink:href="#DejaVuSans-20" transform="translate(263.085938 0.529687)"/>
      <use xlink:href="#DejaVuSans-31" transform="translate(294.873047 0.529687)"/>
      <use xlink:href="#DejaVuSans-36" transform="translate(358.496094 0.529687)"/>
      <use xlink:href="#DejaVuSans-Oblique-74" transform="translate(423.076172 38.810937) scale(0.7)"/>
      <use xlink:href="#DejaVuSans-Oblique-68" transform="translate(450.522461 38.810937) scale(0.7)"/>
      <use xlink:href="#DejaVuSans-20" transform="translate(497.62207 0.529687)"/>
      <use xlink:href="#DejaVuSans-61" transform="translate(529.40918 0.529687)"/>
      <use xlink:href="#DejaVuSans-6e" transform="translate(590.688477 0.529687)"/>
      <use xlink:href="#DejaVuSans-64" transform="translate(654.067383 0.529687)"/>
      <use xlink:href="#DejaVuSans-20" transform="translate(717.543945 0.529687)"/>
      <use xlink:href="#DejaVuSans-38" transform="translate(749.331055 0.529687)"/>
      <use xlink:href="#DejaVuSans-34" transform="translate(812.954102 0.529687)"/>
      <use xlink:href="#DejaVuSans-Oblique-74" transform="translate(877.53418 38.810937) scale(0.7)"/>
      <use xlink:href="#DejaVuSans-Oblique-68" transform="translate(904.980469 38.810937) scale(0.7)"/>
      <use xlink:href="#DejaVuSans-20" transform="translate(952.080078 0.529687)"/>
      <use xlink:href="#DejaVuSans-70" transform="translate(983.867188 0.529687)"/>
      <use xlink:href="#DejaVuSans-65" transform="translate(1047.34375 0.529687)"/>
      <use xlink:href="#DejaVuSans-72" transform="translate(1108.867188 0.529687)"/>
      <use xlink:href="#DejaVuSans-63" transform="translate(1149.980469 0.529687)"/>
      <use xlink:href="#DejaVuSans-65" transform="translate(1204.960938 0.529687)"/>
      <use xlink:href="#DejaVuSans-6e" transform="translate(1266.484375 0.529687)"/>
      <use xlink:href="#DejaVuSans-74" transform="translate(1329.863281 0.529687)"/>
      <use xlink:href="#DejaVuSans-69" transform="translate(1369.072266 0.529687)"/>
      <use xlink:href="#DejaVuSans-6c" transform="translate(1396.855469 0.529687)"/>
      <use xlink:href="#DejaVuSans-65" transform="translate(1424.638672 0.529687)"/>
      <use xlink:href="#DejaVuSans-73" transform="translate(1486.162109 0.529687)"/>
     </g>
    </g>
    <g id="line2d_138">
     <path d="M 249.4745 83.7692 
L 257.4745 83.7692 
L 265.4745 83.7692 
" style="fill: none; stroke: #0000ff; stroke-width: 2; stroke-linecap: square"/>
    </g>
    <g id="text_10">
     <!-- Selected GMs median -->
     <g transform="translate(271.8745 86.5692) scale(0.08 -0.08)">
      <use xlink:href="#DejaVuSans-53"/>
      <use xlink:href="#DejaVuSans-65" x="63.476562"/>
      <use xlink:href="#DejaVuSans-6c" x="125"/>
      <use xlink:href="#DejaVuSans-65" x="152.783203"/>
      <use xlink:href="#DejaVuSans-63" x="214.306641"/>
      <use xlink:href="#DejaVuSans-74" x="269.287109"/>
      <use xlink:href="#DejaVuSans-65" x="308.496094"/>
      <use xlink:href="#DejaVuSans-64" x="370.019531"/>
      <use xlink:href="#DejaVuSans-20" x="433.496094"/>
      <use xlink:href="#DejaVuSans-47" x="465.283203"/>
      <use xlink:href="#DejaVuSans-4d" x="542.773438"/>
      <use xlink:href="#DejaVuSans-73" x="629.052734"/>
      <use xlink:href="#DejaVuSans-20" x="681.152344"/>
      <use xlink:href="#DejaVuSans-6d" x="712.939453"/>
      <use xlink:href="#DejaVuSans-65" x="810.351562"/>
      <use xlink:href="#DejaVuSans-64" x="871.875"/>
      <use xlink:href="#DejaVuSans-69" x="935.351562"/>
      <use xlink:href="#DejaVuSans-61" x="963.134766"/>
      <use xlink:href="#DejaVuSans-6e" x="1024.414062"/>
     </g>
    </g>
    <g id="line2d_139">
     <path d="M 249.4745 96.79295 
L 257.4745 96.79295 
L 265.4745 96.79295 
" style="fill: none; stroke-dasharray: 7.4,3.2; stroke-dashoffset: 0; stroke: #0000ff; stroke-width: 2"/>
    </g>
    <g id="text_11">
     <!-- Selected GMs, $16^{th}$ and $84^{th}$ percentiles -->
     <g transform="translate(271.8745 99.59295) scale(0.08 -0.08)">
      <use xlink:href="#DejaVuSans-53" transform="translate(0 0.529687)"/>
      <use xlink:href="#DejaVuSans-65" transform="translate(63.476562 0.529687)"/>
      <use xlink:href="#DejaVuSans-6c" transform="translate(125 0.529687)"/>
      <use xlink:href="#DejaVuSans-65" transform="translate(152.783203 0.529687)"/>
      <use xlink:href="#DejaVuSans-63" transform="translate(214.306641 0.529687)"/>
      <use xlink:href="#DejaVuSans-74" transform="translate(269.287109 0.529687)"/>
      <use xlink:href="#DejaVuSans-65" transform="translate(308.496094 0.529687)"/>
      <use xlink:href="#DejaVuSans-64" transform="translate(370.019531 0.529687)"/>
      <use xlink:href="#DejaVuSans-20" transform="translate(433.496094 0.529687)"/>
      <use xlink:href="#DejaVuSans-47" transform="translate(465.283203 0.529687)"/>
      <use xlink:href="#DejaVuSans-4d" transform="translate(542.773438 0.529687)"/>
      <use xlink:href="#DejaVuSans-73" transform="translate(629.052734 0.529687)"/>
      <use xlink:href="#DejaVuSans-2c" transform="translate(681.152344 0.529687)"/>
      <use xlink:href="#DejaVuSans-20" transform="translate(712.939453 0.529687)"/>
      <use xlink:href="#DejaVuSans-31" transform="translate(744.726562 0.529687)"/>
      <use xlink:href="#DejaVuSans-36" transform="translate(808.349609 0.529687)"/>
      <use xlink:href="#DejaVuSans-Oblique-74" transform="translate(872.929688 38.810937) scale(0.7)"/>
      <use xlink:href="#DejaVuSans-Oblique-68" transform="translate(900.375977 38.810937) scale(0.7)"/>
      <use xlink:href="#DejaVuSans-20" transform="translate(947.475586 0.529687)"/>
      <use xlink:href="#DejaVuSans-61" transform="translate(979.262695 0.529687)"/>
      <use xlink:href="#DejaVuSans-6e" transform="translate(1040.541992 0.529687)"/>
      <use xlink:href="#DejaVuSans-64" transform="translate(1103.920898 0.529687)"/>
      <use xlink:href="#DejaVuSans-20" transform="translate(1167.397461 0.529687)"/>
      <use xlink:href="#DejaVuSans-38" transform="translate(1199.18457 0.529687)"/>
      <use xlink:href="#DejaVuSans-34" transform="translate(1262.807617 0.529687)"/>
      <use xlink:href="#DejaVuSans-Oblique-74" transform="translate(1327.387695 38.810937) scale(0.7)"/>
      <use xlink:href="#DejaVuSans-Oblique-68" transform="translate(1354.833984 38.810937) scale(0.7)"/>
      <use xlink:href="#DejaVuSans-20" transform="translate(1401.933594 0.529687)"/>
      <use xlink:href="#DejaVuSans-70" transform="translate(1433.720703 0.529687)"/>
      <use xlink:href="#DejaVuSans-65" transform="translate(1497.197266 0.529687)"/>
      <use xlink:href="#DejaVuSans-72" transform="translate(1558.720703 0.529687)"/>
      <use xlink:href="#DejaVuSans-63" transform="translate(1599.833984 0.529687)"/>
      <use xlink:href="#DejaVuSans-65" transform="translate(1654.814453 0.529687)"/>
      <use xlink:href="#DejaVuSans-6e" transform="translate(1716.337891 0.529687)"/>
      <use xlink:href="#DejaVuSans-74" transform="translate(1779.716797 0.529687)"/>
      <use xlink:href="#DejaVuSans-69" transform="translate(1818.925781 0.529687)"/>
      <use xlink:href="#DejaVuSans-6c" transform="translate(1846.708984 0.529687)"/>
      <use xlink:href="#DejaVuSans-65" transform="translate(1874.492188 0.529687)"/>
      <use xlink:href="#DejaVuSans-73" transform="translate(1936.015625 0.529687)"/>
     </g>
    </g>
   </g>
  </g>
 </g>
 <defs>
  <clipPath id="pcadaf6f6cc">
   <rect x="44.7425" y="7.2" width="197.532" height="130.8384"/>
  </clipPath>
 </defs>
</svg>
