<?xml version="1.0" encoding="utf-8" standalone="no"?>
<!DOCTYPE svg PUBLIC "-//W3C//DTD SVG 1.1//EN"
  "http://www.w3.org/Graphics/SVG/1.1/DTD/svg11.dtd">
<svg xmlns:xlink="http://www.w3.org/1999/xlink" width="441.3945pt" height="171.7234pt" viewBox="0 0 441.3945 171.7234" xmlns="http://www.w3.org/2000/svg" version="1.1">
 <metadata>
  <rdf:RDF xmlns:dc="http://purl.org/dc/elements/1.1/" xmlns:cc="http://creativecommons.org/ns#" xmlns:rdf="http://www.w3.org/1999/02/22-rdf-syntax-ns#">
   <cc:Work>
    <dc:type rdf:resource="http://purl.org/dc/dcmitype/StillImage"/>
    <dc:date>2024-11-05T20:41:01.144691</dc:date>
    <dc:format>image/svg+xml</dc:format>
    <dc:creator>
     <cc:Agent>
      <dc:title>Matplotlib v3.8.2, https://matplotlib.org/</dc:title>
     </cc:Agent>
    </dc:creator>
   </cc:Work>
  </rdf:RDF>
 </metadata>
 <defs>
  <style type="text/css">*{stroke-linejoin: round; stroke-linecap: butt}</style>
 </defs>
 <g id="figure_1">
  <g id="patch_1">
   <path d="M 0 171.7234 
L 441.3945 171.7234 
L 441.3945 0 
L 0 0 
z
" style="fill: #ffffff"/>
  </g>
  <g id="axes_1">
   <g id="patch_2">
    <path d="M 44.7425 138.0384 
L 242.2745 138.0384 
L 242.2745 7.2 
L 44.7425 7.2 
z
" style="fill: #ffffff"/>
   </g>
   <g id="matplotlib.axis_1">
    <g id="xtick_1">
     <g id="line2d_1">
      <path d="M 53.721227 138.0384 
L 53.721227 7.2 
" clip-path="url(#pf7da4be76f)" style="fill: none; stroke: #d9d9d9; stroke-width: 0.8; stroke-linecap: square"/>
     </g>
     <g id="line2d_2">
      <defs>
       <path id="ma305ff3035" d="M 0 0 
L 0 3.5 
" style="stroke: #000000; stroke-width: 0.8"/>
      </defs>
      <g>
       <use xlink:href="#ma305ff3035" x="53.721227" y="138.0384" style="stroke: #000000; stroke-width: 0.8"/>
      </g>
     </g>
     <g id="text_1">
      <!-- $\mathdefault{10^{-1}}$ -->
      <g transform="translate(44.321227 151.11715) scale(0.08 -0.08)">
       <defs>
        <path id="DejaVuSans-31" d="M 794 531 
L 1825 531 
L 1825 4091 
L 703 3866 
L 703 4441 
L 1819 4666 
L 2450 4666 
L 2450 531 
L 3481 531 
L 3481 0 
L 794 0 
L 794 531 
z
" transform="scale(0.015625)"/>
        <path id="DejaVuSans-30" d="M 2034 4250 
Q 1547 4250 1301 3770 
Q 1056 3291 1056 2328 
Q 1056 1369 1301 889 
Q 1547 409 2034 409 
Q 2525 409 2770 889 
Q 3016 1369 3016 2328 
Q 3016 3291 2770 3770 
Q 2525 4250 2034 4250 
z
M 2034 4750 
Q 2819 4750 3233 4129 
Q 3647 3509 3647 2328 
Q 3647 1150 3233 529 
Q 2819 -91 2034 -91 
Q 1250 -91 836 529 
Q 422 1150 422 2328 
Q 422 3509 836 4129 
Q 1250 4750 2034 4750 
z
" transform="scale(0.015625)"/>
        <path id="DejaVuSans-2212" d="M 678 2272 
L 4684 2272 
L 4684 1741 
L 678 1741 
L 678 2272 
z
" transform="scale(0.015625)"/>
       </defs>
       <use xlink:href="#DejaVuSans-31" transform="translate(0 0.684375)"/>
       <use xlink:href="#DejaVuSans-30" transform="translate(63.623047 0.684375)"/>
       <use xlink:href="#DejaVuSans-2212" transform="translate(128.203125 38.965625) scale(0.7)"/>
       <use xlink:href="#DejaVuSans-31" transform="translate(186.855469 38.965625) scale(0.7)"/>
      </g>
     </g>
    </g>
    <g id="xtick_2">
     <g id="line2d_3">
      <path d="M 159.417352 138.0384 
L 159.417352 7.2 
" clip-path="url(#pf7da4be76f)" style="fill: none; stroke: #d9d9d9; stroke-width: 0.8; stroke-linecap: square"/>
     </g>
     <g id="line2d_4">
      <g>
       <use xlink:href="#ma305ff3035" x="159.417352" y="138.0384" style="stroke: #000000; stroke-width: 0.8"/>
      </g>
     </g>
     <g id="text_2">
      <!-- $\mathdefault{10^{0}}$ -->
      <g transform="translate(152.377352 151.11715) scale(0.08 -0.08)">
       <use xlink:href="#DejaVuSans-31" transform="translate(0 0.765625)"/>
       <use xlink:href="#DejaVuSans-30" transform="translate(63.623047 0.765625)"/>
       <use xlink:href="#DejaVuSans-30" transform="translate(128.203125 39.046875) scale(0.7)"/>
      </g>
     </g>
    </g>
    <g id="xtick_3">
     <g id="line2d_5">
      <path d="M 48.884838 138.0384 
L 48.884838 7.2 
" clip-path="url(#pf7da4be76f)" style="fill: none; stroke-dasharray: 2.96,1.28; stroke-dashoffset: 0; stroke: #f2f2f2; stroke-width: 0.8"/>
     </g>
     <g id="line2d_6">
      <defs>
       <path id="m90ac2cee29" d="M 0 0 
L 0 2 
" style="stroke: #000000; stroke-width: 0.6"/>
      </defs>
      <g>
       <use xlink:href="#m90ac2cee29" x="48.884838" y="138.0384" style="stroke: #000000; stroke-width: 0.6"/>
      </g>
     </g>
    </g>
    <g id="xtick_4">
     <g id="line2d_7">
      <path d="M 85.538931 138.0384 
L 85.538931 7.2 
" clip-path="url(#pf7da4be76f)" style="fill: none; stroke-dasharray: 2.96,1.28; stroke-dashoffset: 0; stroke: #f2f2f2; stroke-width: 0.8"/>
     </g>
     <g id="line2d_8">
      <g>
       <use xlink:href="#m90ac2cee29" x="85.538931" y="138.0384" style="stroke: #000000; stroke-width: 0.6"/>
      </g>
     </g>
    </g>
    <g id="xtick_5">
     <g id="line2d_9">
      <path d="M 104.151095 138.0384 
L 104.151095 7.2 
" clip-path="url(#pf7da4be76f)" style="fill: none; stroke-dasharray: 2.96,1.28; stroke-dashoffset: 0; stroke: #f2f2f2; stroke-width: 0.8"/>
     </g>
     <g id="line2d_10">
      <g>
       <use xlink:href="#m90ac2cee29" x="104.151095" y="138.0384" style="stroke: #000000; stroke-width: 0.6"/>
      </g>
     </g>
    </g>
    <g id="xtick_6">
     <g id="line2d_11">
      <path d="M 117.356635 138.0384 
L 117.356635 7.2 
" clip-path="url(#pf7da4be76f)" style="fill: none; stroke-dasharray: 2.96,1.28; stroke-dashoffset: 0; stroke: #f2f2f2; stroke-width: 0.8"/>
     </g>
     <g id="line2d_12">
      <g>
       <use xlink:href="#m90ac2cee29" x="117.356635" y="138.0384" style="stroke: #000000; stroke-width: 0.6"/>
      </g>
     </g>
    </g>
    <g id="xtick_7">
     <g id="line2d_13">
      <path d="M 127.599648 138.0384 
L 127.599648 7.2 
" clip-path="url(#pf7da4be76f)" style="fill: none; stroke-dasharray: 2.96,1.28; stroke-dashoffset: 0; stroke: #f2f2f2; stroke-width: 0.8"/>
     </g>
     <g id="line2d_14">
      <g>
       <use xlink:href="#m90ac2cee29" x="127.599648" y="138.0384" style="stroke: #000000; stroke-width: 0.6"/>
      </g>
     </g>
    </g>
    <g id="xtick_8">
     <g id="line2d_15">
      <path d="M 135.968799 138.0384 
L 135.968799 7.2 
" clip-path="url(#pf7da4be76f)" style="fill: none; stroke-dasharray: 2.96,1.28; stroke-dashoffset: 0; stroke: #f2f2f2; stroke-width: 0.8"/>
     </g>
     <g id="line2d_16">
      <g>
       <use xlink:href="#m90ac2cee29" x="135.968799" y="138.0384" style="stroke: #000000; stroke-width: 0.6"/>
      </g>
     </g>
    </g>
    <g id="xtick_9">
     <g id="line2d_17">
      <path d="M 143.044815 138.0384 
L 143.044815 7.2 
" clip-path="url(#pf7da4be76f)" style="fill: none; stroke-dasharray: 2.96,1.28; stroke-dashoffset: 0; stroke: #f2f2f2; stroke-width: 0.8"/>
     </g>
     <g id="line2d_18">
      <g>
       <use xlink:href="#m90ac2cee29" x="143.044815" y="138.0384" style="stroke: #000000; stroke-width: 0.6"/>
      </g>
     </g>
    </g>
    <g id="xtick_10">
     <g id="line2d_19">
      <path d="M 149.174339 138.0384 
L 149.174339 7.2 
" clip-path="url(#pf7da4be76f)" style="fill: none; stroke-dasharray: 2.96,1.28; stroke-dashoffset: 0; stroke: #f2f2f2; stroke-width: 0.8"/>
     </g>
     <g id="line2d_20">
      <g>
       <use xlink:href="#m90ac2cee29" x="149.174339" y="138.0384" style="stroke: #000000; stroke-width: 0.6"/>
      </g>
     </g>
    </g>
    <g id="xtick_11">
     <g id="line2d_21">
      <path d="M 154.580963 138.0384 
L 154.580963 7.2 
" clip-path="url(#pf7da4be76f)" style="fill: none; stroke-dasharray: 2.96,1.28; stroke-dashoffset: 0; stroke: #f2f2f2; stroke-width: 0.8"/>
     </g>
     <g id="line2d_22">
      <g>
       <use xlink:href="#m90ac2cee29" x="154.580963" y="138.0384" style="stroke: #000000; stroke-width: 0.6"/>
      </g>
     </g>
    </g>
    <g id="xtick_12">
     <g id="line2d_23">
      <path d="M 191.235056 138.0384 
L 191.235056 7.2 
" clip-path="url(#pf7da4be76f)" style="fill: none; stroke-dasharray: 2.96,1.28; stroke-dashoffset: 0; stroke: #f2f2f2; stroke-width: 0.8"/>
     </g>
     <g id="line2d_24">
      <g>
       <use xlink:href="#m90ac2cee29" x="191.235056" y="138.0384" style="stroke: #000000; stroke-width: 0.6"/>
      </g>
     </g>
    </g>
    <g id="xtick_13">
     <g id="line2d_25">
      <path d="M 209.84722 138.0384 
L 209.84722 7.2 
" clip-path="url(#pf7da4be76f)" style="fill: none; stroke-dasharray: 2.96,1.28; stroke-dashoffset: 0; stroke: #f2f2f2; stroke-width: 0.8"/>
     </g>
     <g id="line2d_26">
      <g>
       <use xlink:href="#m90ac2cee29" x="209.84722" y="138.0384" style="stroke: #000000; stroke-width: 0.6"/>
      </g>
     </g>
    </g>
    <g id="xtick_14">
     <g id="line2d_27">
      <path d="M 223.05276 138.0384 
L 223.05276 7.2 
" clip-path="url(#pf7da4be76f)" style="fill: none; stroke-dasharray: 2.96,1.28; stroke-dashoffset: 0; stroke: #f2f2f2; stroke-width: 0.8"/>
     </g>
     <g id="line2d_28">
      <g>
       <use xlink:href="#m90ac2cee29" x="223.05276" y="138.0384" style="stroke: #000000; stroke-width: 0.6"/>
      </g>
     </g>
    </g>
    <g id="xtick_15">
     <g id="line2d_29">
      <path d="M 233.295773 138.0384 
L 233.295773 7.2 
" clip-path="url(#pf7da4be76f)" style="fill: none; stroke-dasharray: 2.96,1.28; stroke-dashoffset: 0; stroke: #f2f2f2; stroke-width: 0.8"/>
     </g>
     <g id="line2d_30">
      <g>
       <use xlink:href="#m90ac2cee29" x="233.295773" y="138.0384" style="stroke: #000000; stroke-width: 0.6"/>
      </g>
     </g>
    </g>
    <g id="xtick_16">
     <g id="line2d_31">
      <path d="M 241.664924 138.0384 
L 241.664924 7.2 
" clip-path="url(#pf7da4be76f)" style="fill: none; stroke-dasharray: 2.96,1.28; stroke-dashoffset: 0; stroke: #f2f2f2; stroke-width: 0.8"/>
     </g>
     <g id="line2d_32">
      <g>
       <use xlink:href="#m90ac2cee29" x="241.664924" y="138.0384" style="stroke: #000000; stroke-width: 0.6"/>
      </g>
     </g>
    </g>
    <g id="text_3">
     <!-- Period, T (s) -->
     <g transform="translate(119.576 162.85965) scale(0.08 -0.08)">
      <defs>
       <path id="DejaVuSans-50" d="M 1259 4147 
L 1259 2394 
L 2053 2394 
Q 2494 2394 2734 2622 
Q 2975 2850 2975 3272 
Q 2975 3691 2734 3919 
Q 2494 4147 2053 4147 
L 1259 4147 
z
M 628 4666 
L 2053 4666 
Q 2838 4666 3239 4311 
Q 3641 3956 3641 3272 
Q 3641 2581 3239 2228 
Q 2838 1875 2053 1875 
L 1259 1875 
L 1259 0 
L 628 0 
L 628 4666 
z
" transform="scale(0.015625)"/>
       <path id="DejaVuSans-65" d="M 3597 1894 
L 3597 1613 
L 953 1613 
Q 991 1019 1311 708 
Q 1631 397 2203 397 
Q 2534 397 2845 478 
Q 3156 559 3463 722 
L 3463 178 
Q 3153 47 2828 -22 
Q 2503 -91 2169 -91 
Q 1331 -91 842 396 
Q 353 884 353 1716 
Q 353 2575 817 3079 
Q 1281 3584 2069 3584 
Q 2775 3584 3186 3129 
Q 3597 2675 3597 1894 
z
M 3022 2063 
Q 3016 2534 2758 2815 
Q 2500 3097 2075 3097 
Q 1594 3097 1305 2825 
Q 1016 2553 972 2059 
L 3022 2063 
z
" transform="scale(0.015625)"/>
       <path id="DejaVuSans-72" d="M 2631 2963 
Q 2534 3019 2420 3045 
Q 2306 3072 2169 3072 
Q 1681 3072 1420 2755 
Q 1159 2438 1159 1844 
L 1159 0 
L 581 0 
L 581 3500 
L 1159 3500 
L 1159 2956 
Q 1341 3275 1631 3429 
Q 1922 3584 2338 3584 
Q 2397 3584 2469 3576 
Q 2541 3569 2628 3553 
L 2631 2963 
z
" transform="scale(0.015625)"/>
       <path id="DejaVuSans-69" d="M 603 3500 
L 1178 3500 
L 1178 0 
L 603 0 
L 603 3500 
z
M 603 4863 
L 1178 4863 
L 1178 4134 
L 603 4134 
L 603 4863 
z
" transform="scale(0.015625)"/>
       <path id="DejaVuSans-6f" d="M 1959 3097 
Q 1497 3097 1228 2736 
Q 959 2375 959 1747 
Q 959 1119 1226 758 
Q 1494 397 1959 397 
Q 2419 397 2687 759 
Q 2956 1122 2956 1747 
Q 2956 2369 2687 2733 
Q 2419 3097 1959 3097 
z
M 1959 3584 
Q 2709 3584 3137 3096 
Q 3566 2609 3566 1747 
Q 3566 888 3137 398 
Q 2709 -91 1959 -91 
Q 1206 -91 779 398 
Q 353 888 353 1747 
Q 353 2609 779 3096 
Q 1206 3584 1959 3584 
z
" transform="scale(0.015625)"/>
       <path id="DejaVuSans-64" d="M 2906 2969 
L 2906 4863 
L 3481 4863 
L 3481 0 
L 2906 0 
L 2906 525 
Q 2725 213 2448 61 
Q 2172 -91 1784 -91 
Q 1150 -91 751 415 
Q 353 922 353 1747 
Q 353 2572 751 3078 
Q 1150 3584 1784 3584 
Q 2172 3584 2448 3432 
Q 2725 3281 2906 2969 
z
M 947 1747 
Q 947 1113 1208 752 
Q 1469 391 1925 391 
Q 2381 391 2643 752 
Q 2906 1113 2906 1747 
Q 2906 2381 2643 2742 
Q 2381 3103 1925 3103 
Q 1469 3103 1208 2742 
Q 947 2381 947 1747 
z
" transform="scale(0.015625)"/>
       <path id="DejaVuSans-2c" d="M 750 794 
L 1409 794 
L 1409 256 
L 897 -744 
L 494 -744 
L 750 256 
L 750 794 
z
" transform="scale(0.015625)"/>
       <path id="DejaVuSans-20" transform="scale(0.015625)"/>
       <path id="DejaVuSans-54" d="M -19 4666 
L 3928 4666 
L 3928 4134 
L 2272 4134 
L 2272 0 
L 1638 0 
L 1638 4134 
L -19 4134 
L -19 4666 
z
" transform="scale(0.015625)"/>
       <path id="DejaVuSans-28" d="M 1984 4856 
Q 1566 4138 1362 3434 
Q 1159 2731 1159 2009 
Q 1159 1288 1364 580 
Q 1569 -128 1984 -844 
L 1484 -844 
Q 1016 -109 783 600 
Q 550 1309 550 2009 
Q 550 2706 781 3412 
Q 1013 4119 1484 4856 
L 1984 4856 
z
" transform="scale(0.015625)"/>
       <path id="DejaVuSans-73" d="M 2834 3397 
L 2834 2853 
Q 2591 2978 2328 3040 
Q 2066 3103 1784 3103 
Q 1356 3103 1142 2972 
Q 928 2841 928 2578 
Q 928 2378 1081 2264 
Q 1234 2150 1697 2047 
L 1894 2003 
Q 2506 1872 2764 1633 
Q 3022 1394 3022 966 
Q 3022 478 2636 193 
Q 2250 -91 1575 -91 
Q 1294 -91 989 -36 
Q 684 19 347 128 
L 347 722 
Q 666 556 975 473 
Q 1284 391 1588 391 
Q 1994 391 2212 530 
Q 2431 669 2431 922 
Q 2431 1156 2273 1281 
Q 2116 1406 1581 1522 
L 1381 1569 
Q 847 1681 609 1914 
Q 372 2147 372 2553 
Q 372 3047 722 3315 
Q 1072 3584 1716 3584 
Q 2034 3584 2315 3537 
Q 2597 3491 2834 3397 
z
" transform="scale(0.015625)"/>
       <path id="DejaVuSans-29" d="M 513 4856 
L 1013 4856 
Q 1481 4119 1714 3412 
Q 1947 2706 1947 2009 
Q 1947 1309 1714 600 
Q 1481 -109 1013 -844 
L 513 -844 
Q 928 -128 1133 580 
Q 1338 1288 1338 2009 
Q 1338 2731 1133 3434 
Q 928 4138 513 4856 
z
" transform="scale(0.015625)"/>
      </defs>
      <use xlink:href="#DejaVuSans-50"/>
      <use xlink:href="#DejaVuSans-65" x="56.677734"/>
      <use xlink:href="#DejaVuSans-72" x="118.201172"/>
      <use xlink:href="#DejaVuSans-69" x="159.314453"/>
      <use xlink:href="#DejaVuSans-6f" x="187.097656"/>
      <use xlink:href="#DejaVuSans-64" x="248.279297"/>
      <use xlink:href="#DejaVuSans-2c" x="311.755859"/>
      <use xlink:href="#DejaVuSans-20" x="343.542969"/>
      <use xlink:href="#DejaVuSans-54" x="375.330078"/>
      <use xlink:href="#DejaVuSans-20" x="436.414062"/>
      <use xlink:href="#DejaVuSans-28" x="468.201172"/>
      <use xlink:href="#DejaVuSans-73" x="507.214844"/>
      <use xlink:href="#DejaVuSans-29" x="559.314453"/>
     </g>
    </g>
   </g>
   <g id="matplotlib.axis_2">
    <g id="ytick_1">
     <g id="line2d_33">
      <path d="M 44.7425 114.908052 
L 242.2745 114.908052 
" clip-path="url(#pf7da4be76f)" style="fill: none; stroke: #d9d9d9; stroke-width: 0.8; stroke-linecap: square"/>
     </g>
     <g id="line2d_34">
      <defs>
       <path id="m506ef7ace8" d="M 0 0 
L -3.5 0 
" style="stroke: #000000; stroke-width: 0.8"/>
      </defs>
      <g>
       <use xlink:href="#m506ef7ace8" x="44.7425" y="114.908052" style="stroke: #000000; stroke-width: 0.8"/>
      </g>
     </g>
     <g id="text_4">
      <!-- $\mathdefault{10^{-1}}$ -->
      <g transform="translate(18.9425 117.947427) scale(0.08 -0.08)">
       <use xlink:href="#DejaVuSans-31" transform="translate(0 0.684375)"/>
       <use xlink:href="#DejaVuSans-30" transform="translate(63.623047 0.684375)"/>
       <use xlink:href="#DejaVuSans-2212" transform="translate(128.203125 38.965625) scale(0.7)"/>
       <use xlink:href="#DejaVuSans-31" transform="translate(186.855469 38.965625) scale(0.7)"/>
      </g>
     </g>
    </g>
    <g id="ytick_2">
     <g id="line2d_35">
      <path d="M 44.7425 66.028752 
L 242.2745 66.028752 
" clip-path="url(#pf7da4be76f)" style="fill: none; stroke: #d9d9d9; stroke-width: 0.8; stroke-linecap: square"/>
     </g>
     <g id="line2d_36">
      <g>
       <use xlink:href="#m506ef7ace8" x="44.7425" y="66.028752" style="stroke: #000000; stroke-width: 0.8"/>
      </g>
     </g>
     <g id="text_5">
      <!-- $\mathdefault{10^{0}}$ -->
      <g transform="translate(23.6625 69.068127) scale(0.08 -0.08)">
       <use xlink:href="#DejaVuSans-31" transform="translate(0 0.765625)"/>
       <use xlink:href="#DejaVuSans-30" transform="translate(63.623047 0.765625)"/>
       <use xlink:href="#DejaVuSans-30" transform="translate(128.203125 39.046875) scale(0.7)"/>
      </g>
     </g>
    </g>
    <g id="ytick_3">
     <g id="line2d_37">
      <path d="M 44.7425 17.149451 
L 242.2745 17.149451 
" clip-path="url(#pf7da4be76f)" style="fill: none; stroke: #d9d9d9; stroke-width: 0.8; stroke-linecap: square"/>
     </g>
     <g id="line2d_38">
      <g>
       <use xlink:href="#m506ef7ace8" x="44.7425" y="17.149451" style="stroke: #000000; stroke-width: 0.8"/>
      </g>
     </g>
     <g id="text_6">
      <!-- $\mathdefault{10^{1}}$ -->
      <g transform="translate(23.6625 20.188826) scale(0.08 -0.08)">
       <use xlink:href="#DejaVuSans-31" transform="translate(0 0.684375)"/>
       <use xlink:href="#DejaVuSans-30" transform="translate(63.623047 0.684375)"/>
       <use xlink:href="#DejaVuSans-31" transform="translate(128.203125 38.965625) scale(0.7)"/>
      </g>
     </g>
    </g>
    <g id="ytick_4">
     <g id="line2d_39">
      <path d="M 44.7425 134.359081 
L 242.2745 134.359081 
" clip-path="url(#pf7da4be76f)" style="fill: none; stroke-dasharray: 2.96,1.28; stroke-dashoffset: 0; stroke: #f2f2f2; stroke-width: 0.8"/>
     </g>
     <g id="line2d_40">
      <defs>
       <path id="mde3f0d7cfc" d="M 0 0 
L -2 0 
" style="stroke: #000000; stroke-width: 0.6"/>
      </defs>
      <g>
       <use xlink:href="#mde3f0d7cfc" x="44.7425" y="134.359081" style="stroke: #000000; stroke-width: 0.6"/>
      </g>
     </g>
    </g>
    <g id="ytick_5">
     <g id="line2d_41">
      <path d="M 44.7425 129.622187 
L 242.2745 129.622187 
" clip-path="url(#pf7da4be76f)" style="fill: none; stroke-dasharray: 2.96,1.28; stroke-dashoffset: 0; stroke: #f2f2f2; stroke-width: 0.8"/>
     </g>
     <g id="line2d_42">
      <g>
       <use xlink:href="#mde3f0d7cfc" x="44.7425" y="129.622187" style="stroke: #000000; stroke-width: 0.6"/>
      </g>
     </g>
    </g>
    <g id="ytick_6">
     <g id="line2d_43">
      <path d="M 44.7425 125.751863 
L 242.2745 125.751863 
" clip-path="url(#pf7da4be76f)" style="fill: none; stroke-dasharray: 2.96,1.28; stroke-dashoffset: 0; stroke: #f2f2f2; stroke-width: 0.8"/>
     </g>
     <g id="line2d_44">
      <g>
       <use xlink:href="#mde3f0d7cfc" x="44.7425" y="125.751863" style="stroke: #000000; stroke-width: 0.6"/>
      </g>
     </g>
    </g>
    <g id="ytick_7">
     <g id="line2d_45">
      <path d="M 44.7425 122.479551 
L 242.2745 122.479551 
" clip-path="url(#pf7da4be76f)" style="fill: none; stroke-dasharray: 2.96,1.28; stroke-dashoffset: 0; stroke: #f2f2f2; stroke-width: 0.8"/>
     </g>
     <g id="line2d_46">
      <g>
       <use xlink:href="#mde3f0d7cfc" x="44.7425" y="122.479551" style="stroke: #000000; stroke-width: 0.6"/>
      </g>
     </g>
    </g>
    <g id="ytick_8">
     <g id="line2d_47">
      <path d="M 44.7425 119.644945 
L 242.2745 119.644945 
" clip-path="url(#pf7da4be76f)" style="fill: none; stroke-dasharray: 2.96,1.28; stroke-dashoffset: 0; stroke: #f2f2f2; stroke-width: 0.8"/>
     </g>
     <g id="line2d_48">
      <g>
       <use xlink:href="#mde3f0d7cfc" x="44.7425" y="119.644945" style="stroke: #000000; stroke-width: 0.6"/>
      </g>
     </g>
    </g>
    <g id="ytick_9">
     <g id="line2d_49">
      <path d="M 44.7425 117.144646 
L 242.2745 117.144646 
" clip-path="url(#pf7da4be76f)" style="fill: none; stroke-dasharray: 2.96,1.28; stroke-dashoffset: 0; stroke: #f2f2f2; stroke-width: 0.8"/>
     </g>
     <g id="line2d_50">
      <g>
       <use xlink:href="#mde3f0d7cfc" x="44.7425" y="117.144646" style="stroke: #000000; stroke-width: 0.6"/>
      </g>
     </g>
    </g>
    <g id="ytick_10">
     <g id="line2d_51">
      <path d="M 44.7425 100.193916 
L 242.2745 100.193916 
" clip-path="url(#pf7da4be76f)" style="fill: none; stroke-dasharray: 2.96,1.28; stroke-dashoffset: 0; stroke: #f2f2f2; stroke-width: 0.8"/>
     </g>
     <g id="line2d_52">
      <g>
       <use xlink:href="#mde3f0d7cfc" x="44.7425" y="100.193916" style="stroke: #000000; stroke-width: 0.6"/>
      </g>
     </g>
    </g>
    <g id="ytick_11">
     <g id="line2d_53">
      <path d="M 44.7425 91.586699 
L 242.2745 91.586699 
" clip-path="url(#pf7da4be76f)" style="fill: none; stroke-dasharray: 2.96,1.28; stroke-dashoffset: 0; stroke: #f2f2f2; stroke-width: 0.8"/>
     </g>
     <g id="line2d_54">
      <g>
       <use xlink:href="#mde3f0d7cfc" x="44.7425" y="91.586699" style="stroke: #000000; stroke-width: 0.6"/>
      </g>
     </g>
    </g>
    <g id="ytick_12">
     <g id="line2d_55">
      <path d="M 44.7425 85.479781 
L 242.2745 85.479781 
" clip-path="url(#pf7da4be76f)" style="fill: none; stroke-dasharray: 2.96,1.28; stroke-dashoffset: 0; stroke: #f2f2f2; stroke-width: 0.8"/>
     </g>
     <g id="line2d_56">
      <g>
       <use xlink:href="#mde3f0d7cfc" x="44.7425" y="85.479781" style="stroke: #000000; stroke-width: 0.6"/>
      </g>
     </g>
    </g>
    <g id="ytick_13">
     <g id="line2d_57">
      <path d="M 44.7425 80.742887 
L 242.2745 80.742887 
" clip-path="url(#pf7da4be76f)" style="fill: none; stroke-dasharray: 2.96,1.28; stroke-dashoffset: 0; stroke: #f2f2f2; stroke-width: 0.8"/>
     </g>
     <g id="line2d_58">
      <g>
       <use xlink:href="#mde3f0d7cfc" x="44.7425" y="80.742887" style="stroke: #000000; stroke-width: 0.6"/>
      </g>
     </g>
    </g>
    <g id="ytick_14">
     <g id="line2d_59">
      <path d="M 44.7425 76.872563 
L 242.2745 76.872563 
" clip-path="url(#pf7da4be76f)" style="fill: none; stroke-dasharray: 2.96,1.28; stroke-dashoffset: 0; stroke: #f2f2f2; stroke-width: 0.8"/>
     </g>
     <g id="line2d_60">
      <g>
       <use xlink:href="#mde3f0d7cfc" x="44.7425" y="76.872563" style="stroke: #000000; stroke-width: 0.6"/>
      </g>
     </g>
    </g>
    <g id="ytick_15">
     <g id="line2d_61">
      <path d="M 44.7425 73.600251 
L 242.2745 73.600251 
" clip-path="url(#pf7da4be76f)" style="fill: none; stroke-dasharray: 2.96,1.28; stroke-dashoffset: 0; stroke: #f2f2f2; stroke-width: 0.8"/>
     </g>
     <g id="line2d_62">
      <g>
       <use xlink:href="#mde3f0d7cfc" x="44.7425" y="73.600251" style="stroke: #000000; stroke-width: 0.6"/>
      </g>
     </g>
    </g>
    <g id="ytick_16">
     <g id="line2d_63">
      <path d="M 44.7425 70.765645 
L 242.2745 70.765645 
" clip-path="url(#pf7da4be76f)" style="fill: none; stroke-dasharray: 2.96,1.28; stroke-dashoffset: 0; stroke: #f2f2f2; stroke-width: 0.8"/>
     </g>
     <g id="line2d_64">
      <g>
       <use xlink:href="#mde3f0d7cfc" x="44.7425" y="70.765645" style="stroke: #000000; stroke-width: 0.6"/>
      </g>
     </g>
    </g>
    <g id="ytick_17">
     <g id="line2d_65">
      <path d="M 44.7425 68.265346 
L 242.2745 68.265346 
" clip-path="url(#pf7da4be76f)" style="fill: none; stroke-dasharray: 2.96,1.28; stroke-dashoffset: 0; stroke: #f2f2f2; stroke-width: 0.8"/>
     </g>
     <g id="line2d_66">
      <g>
       <use xlink:href="#mde3f0d7cfc" x="44.7425" y="68.265346" style="stroke: #000000; stroke-width: 0.6"/>
      </g>
     </g>
    </g>
    <g id="ytick_18">
     <g id="line2d_67">
      <path d="M 44.7425 51.314616 
L 242.2745 51.314616 
" clip-path="url(#pf7da4be76f)" style="fill: none; stroke-dasharray: 2.96,1.28; stroke-dashoffset: 0; stroke: #f2f2f2; stroke-width: 0.8"/>
     </g>
     <g id="line2d_68">
      <g>
       <use xlink:href="#mde3f0d7cfc" x="44.7425" y="51.314616" style="stroke: #000000; stroke-width: 0.6"/>
      </g>
     </g>
    </g>
    <g id="ytick_19">
     <g id="line2d_69">
      <path d="M 44.7425 42.707399 
L 242.2745 42.707399 
" clip-path="url(#pf7da4be76f)" style="fill: none; stroke-dasharray: 2.96,1.28; stroke-dashoffset: 0; stroke: #f2f2f2; stroke-width: 0.8"/>
     </g>
     <g id="line2d_70">
      <g>
       <use xlink:href="#mde3f0d7cfc" x="44.7425" y="42.707399" style="stroke: #000000; stroke-width: 0.6"/>
      </g>
     </g>
    </g>
    <g id="ytick_20">
     <g id="line2d_71">
      <path d="M 44.7425 36.600481 
L 242.2745 36.600481 
" clip-path="url(#pf7da4be76f)" style="fill: none; stroke-dasharray: 2.96,1.28; stroke-dashoffset: 0; stroke: #f2f2f2; stroke-width: 0.8"/>
     </g>
     <g id="line2d_72">
      <g>
       <use xlink:href="#mde3f0d7cfc" x="44.7425" y="36.600481" style="stroke: #000000; stroke-width: 0.6"/>
      </g>
     </g>
    </g>
    <g id="ytick_21">
     <g id="line2d_73">
      <path d="M 44.7425 31.863587 
L 242.2745 31.863587 
" clip-path="url(#pf7da4be76f)" style="fill: none; stroke-dasharray: 2.96,1.28; stroke-dashoffset: 0; stroke: #f2f2f2; stroke-width: 0.8"/>
     </g>
     <g id="line2d_74">
      <g>
       <use xlink:href="#mde3f0d7cfc" x="44.7425" y="31.863587" style="stroke: #000000; stroke-width: 0.6"/>
      </g>
     </g>
    </g>
    <g id="ytick_22">
     <g id="line2d_75">
      <path d="M 44.7425 27.993263 
L 242.2745 27.993263 
" clip-path="url(#pf7da4be76f)" style="fill: none; stroke-dasharray: 2.96,1.28; stroke-dashoffset: 0; stroke: #f2f2f2; stroke-width: 0.8"/>
     </g>
     <g id="line2d_76">
      <g>
       <use xlink:href="#mde3f0d7cfc" x="44.7425" y="27.993263" style="stroke: #000000; stroke-width: 0.6"/>
      </g>
     </g>
    </g>
    <g id="ytick_23">
     <g id="line2d_77">
      <path d="M 44.7425 24.720951 
L 242.2745 24.720951 
" clip-path="url(#pf7da4be76f)" style="fill: none; stroke-dasharray: 2.96,1.28; stroke-dashoffset: 0; stroke: #f2f2f2; stroke-width: 0.8"/>
     </g>
     <g id="line2d_78">
      <g>
       <use xlink:href="#mde3f0d7cfc" x="44.7425" y="24.720951" style="stroke: #000000; stroke-width: 0.6"/>
      </g>
     </g>
    </g>
    <g id="ytick_24">
     <g id="line2d_79">
      <path d="M 44.7425 21.886345 
L 242.2745 21.886345 
" clip-path="url(#pf7da4be76f)" style="fill: none; stroke-dasharray: 2.96,1.28; stroke-dashoffset: 0; stroke: #f2f2f2; stroke-width: 0.8"/>
     </g>
     <g id="line2d_80">
      <g>
       <use xlink:href="#mde3f0d7cfc" x="44.7425" y="21.886345" style="stroke: #000000; stroke-width: 0.6"/>
      </g>
     </g>
    </g>
    <g id="ytick_25">
     <g id="line2d_81">
      <path d="M 44.7425 19.386046 
L 242.2745 19.386046 
" clip-path="url(#pf7da4be76f)" style="fill: none; stroke-dasharray: 2.96,1.28; stroke-dashoffset: 0; stroke: #f2f2f2; stroke-width: 0.8"/>
     </g>
     <g id="line2d_82">
      <g>
       <use xlink:href="#mde3f0d7cfc" x="44.7425" y="19.386046" style="stroke: #000000; stroke-width: 0.6"/>
      </g>
     </g>
    </g>
    <g id="text_7">
     <!-- Spectral acceleration, SA (g) -->
     <g transform="translate(13.27875 129.871075) rotate(-90) scale(0.08 -0.08)">
      <defs>
       <path id="DejaVuSans-53" d="M 3425 4513 
L 3425 3897 
Q 3066 4069 2747 4153 
Q 2428 4238 2131 4238 
Q 1616 4238 1336 4038 
Q 1056 3838 1056 3469 
Q 1056 3159 1242 3001 
Q 1428 2844 1947 2747 
L 2328 2669 
Q 3034 2534 3370 2195 
Q 3706 1856 3706 1288 
Q 3706 609 3251 259 
Q 2797 -91 1919 -91 
Q 1588 -91 1214 -16 
Q 841 59 441 206 
L 441 856 
Q 825 641 1194 531 
Q 1563 422 1919 422 
Q 2459 422 2753 634 
Q 3047 847 3047 1241 
Q 3047 1584 2836 1778 
Q 2625 1972 2144 2069 
L 1759 2144 
Q 1053 2284 737 2584 
Q 422 2884 422 3419 
Q 422 4038 858 4394 
Q 1294 4750 2059 4750 
Q 2388 4750 2728 4690 
Q 3069 4631 3425 4513 
z
" transform="scale(0.015625)"/>
       <path id="DejaVuSans-70" d="M 1159 525 
L 1159 -1331 
L 581 -1331 
L 581 3500 
L 1159 3500 
L 1159 2969 
Q 1341 3281 1617 3432 
Q 1894 3584 2278 3584 
Q 2916 3584 3314 3078 
Q 3713 2572 3713 1747 
Q 3713 922 3314 415 
Q 2916 -91 2278 -91 
Q 1894 -91 1617 61 
Q 1341 213 1159 525 
z
M 3116 1747 
Q 3116 2381 2855 2742 
Q 2594 3103 2138 3103 
Q 1681 3103 1420 2742 
Q 1159 2381 1159 1747 
Q 1159 1113 1420 752 
Q 1681 391 2138 391 
Q 2594 391 2855 752 
Q 3116 1113 3116 1747 
z
" transform="scale(0.015625)"/>
       <path id="DejaVuSans-63" d="M 3122 3366 
L 3122 2828 
Q 2878 2963 2633 3030 
Q 2388 3097 2138 3097 
Q 1578 3097 1268 2742 
Q 959 2388 959 1747 
Q 959 1106 1268 751 
Q 1578 397 2138 397 
Q 2388 397 2633 464 
Q 2878 531 3122 666 
L 3122 134 
Q 2881 22 2623 -34 
Q 2366 -91 2075 -91 
Q 1284 -91 818 406 
Q 353 903 353 1747 
Q 353 2603 823 3093 
Q 1294 3584 2113 3584 
Q 2378 3584 2631 3529 
Q 2884 3475 3122 3366 
z
" transform="scale(0.015625)"/>
       <path id="DejaVuSans-74" d="M 1172 4494 
L 1172 3500 
L 2356 3500 
L 2356 3053 
L 1172 3053 
L 1172 1153 
Q 1172 725 1289 603 
Q 1406 481 1766 481 
L 2356 481 
L 2356 0 
L 1766 0 
Q 1100 0 847 248 
Q 594 497 594 1153 
L 594 3053 
L 172 3053 
L 172 3500 
L 594 3500 
L 594 4494 
L 1172 4494 
z
" transform="scale(0.015625)"/>
       <path id="DejaVuSans-61" d="M 2194 1759 
Q 1497 1759 1228 1600 
Q 959 1441 959 1056 
Q 959 750 1161 570 
Q 1363 391 1709 391 
Q 2188 391 2477 730 
Q 2766 1069 2766 1631 
L 2766 1759 
L 2194 1759 
z
M 3341 1997 
L 3341 0 
L 2766 0 
L 2766 531 
Q 2569 213 2275 61 
Q 1981 -91 1556 -91 
Q 1019 -91 701 211 
Q 384 513 384 1019 
Q 384 1609 779 1909 
Q 1175 2209 1959 2209 
L 2766 2209 
L 2766 2266 
Q 2766 2663 2505 2880 
Q 2244 3097 1772 3097 
Q 1472 3097 1187 3025 
Q 903 2953 641 2809 
L 641 3341 
Q 956 3463 1253 3523 
Q 1550 3584 1831 3584 
Q 2591 3584 2966 3190 
Q 3341 2797 3341 1997 
z
" transform="scale(0.015625)"/>
       <path id="DejaVuSans-6c" d="M 603 4863 
L 1178 4863 
L 1178 0 
L 603 0 
L 603 4863 
z
" transform="scale(0.015625)"/>
       <path id="DejaVuSans-6e" d="M 3513 2113 
L 3513 0 
L 2938 0 
L 2938 2094 
Q 2938 2591 2744 2837 
Q 2550 3084 2163 3084 
Q 1697 3084 1428 2787 
Q 1159 2491 1159 1978 
L 1159 0 
L 581 0 
L 581 3500 
L 1159 3500 
L 1159 2956 
Q 1366 3272 1645 3428 
Q 1925 3584 2291 3584 
Q 2894 3584 3203 3211 
Q 3513 2838 3513 2113 
z
" transform="scale(0.015625)"/>
       <path id="DejaVuSans-41" d="M 2188 4044 
L 1331 1722 
L 3047 1722 
L 2188 4044 
z
M 1831 4666 
L 2547 4666 
L 4325 0 
L 3669 0 
L 3244 1197 
L 1141 1197 
L 716 0 
L 50 0 
L 1831 4666 
z
" transform="scale(0.015625)"/>
       <path id="DejaVuSans-67" d="M 2906 1791 
Q 2906 2416 2648 2759 
Q 2391 3103 1925 3103 
Q 1463 3103 1205 2759 
Q 947 2416 947 1791 
Q 947 1169 1205 825 
Q 1463 481 1925 481 
Q 2391 481 2648 825 
Q 2906 1169 2906 1791 
z
M 3481 434 
Q 3481 -459 3084 -895 
Q 2688 -1331 1869 -1331 
Q 1566 -1331 1297 -1286 
Q 1028 -1241 775 -1147 
L 775 -588 
Q 1028 -725 1275 -790 
Q 1522 -856 1778 -856 
Q 2344 -856 2625 -561 
Q 2906 -266 2906 331 
L 2906 616 
Q 2728 306 2450 153 
Q 2172 0 1784 0 
Q 1141 0 747 490 
Q 353 981 353 1791 
Q 353 2603 747 3093 
Q 1141 3584 1784 3584 
Q 2172 3584 2450 3431 
Q 2728 3278 2906 2969 
L 2906 3500 
L 3481 3500 
L 3481 434 
z
" transform="scale(0.015625)"/>
      </defs>
      <use xlink:href="#DejaVuSans-53"/>
      <use xlink:href="#DejaVuSans-70" x="63.476562"/>
      <use xlink:href="#DejaVuSans-65" x="126.953125"/>
      <use xlink:href="#DejaVuSans-63" x="188.476562"/>
      <use xlink:href="#DejaVuSans-74" x="243.457031"/>
      <use xlink:href="#DejaVuSans-72" x="282.666016"/>
      <use xlink:href="#DejaVuSans-61" x="323.779297"/>
      <use xlink:href="#DejaVuSans-6c" x="385.058594"/>
      <use xlink:href="#DejaVuSans-20" x="412.841797"/>
      <use xlink:href="#DejaVuSans-61" x="444.628906"/>
      <use xlink:href="#DejaVuSans-63" x="505.908203"/>
      <use xlink:href="#DejaVuSans-63" x="560.888672"/>
      <use xlink:href="#DejaVuSans-65" x="615.869141"/>
      <use xlink:href="#DejaVuSans-6c" x="677.392578"/>
      <use xlink:href="#DejaVuSans-65" x="705.175781"/>
      <use xlink:href="#DejaVuSans-72" x="766.699219"/>
      <use xlink:href="#DejaVuSans-61" x="807.8125"/>
      <use xlink:href="#DejaVuSans-74" x="869.091797"/>
      <use xlink:href="#DejaVuSans-69" x="908.300781"/>
      <use xlink:href="#DejaVuSans-6f" x="936.083984"/>
      <use xlink:href="#DejaVuSans-6e" x="997.265625"/>
      <use xlink:href="#DejaVuSans-2c" x="1060.644531"/>
      <use xlink:href="#DejaVuSans-20" x="1092.431641"/>
      <use xlink:href="#DejaVuSans-53" x="1124.21875"/>
      <use xlink:href="#DejaVuSans-41" x="1189.570312"/>
      <use xlink:href="#DejaVuSans-20" x="1257.978516"/>
      <use xlink:href="#DejaVuSans-28" x="1289.765625"/>
      <use xlink:href="#DejaVuSans-67" x="1328.779297"/>
      <use xlink:href="#DejaVuSans-29" x="1392.255859"/>
     </g>
    </g>
   </g>
   <g id="line2d_83">
    <path d="M 53.721227 41.366528 
L 72.333391 43.135752 
L 85.538931 37.796078 
L 95.781944 46.836729 
L 104.151095 39.549208 
L 117.356635 43.167436 
L 127.045477 43.353987 
L 127.599648 44.453022 
L 146.211812 68.904265 
L 159.417352 77.077674 
L 171.460723 72.12708 
L 178.029516 78.790046 
L 191.235056 85.768336 
L 209.84722 108.125188 
L 223.05276 105.152883 
L 233.295773 108.22905 
" clip-path="url(#pf7da4be76f)" style="fill: none; stroke: #b2b2b2; stroke-width: 0.8; stroke-linecap: square"/>
   </g>
   <g id="line2d_84">
    <path d="M 53.721227 60.153784 
L 72.333391 48.091486 
L 85.538931 43.061006 
L 95.781944 43.275414 
L 104.151095 45.655107 
L 117.356635 41.602835 
L 127.045477 43.353987 
L 127.599648 43.247424 
L 146.211812 57.233444 
L 159.417352 48.545909 
L 171.460723 60.193498 
L 178.029516 68.116347 
L 191.235056 71.647768 
L 209.84722 87.491938 
L 223.05276 100.381491 
L 233.295773 104.994055 
" clip-path="url(#pf7da4be76f)" style="fill: none; stroke: #b2b2b2; stroke-width: 0.8; stroke-linecap: square"/>
   </g>
   <g id="line2d_85">
    <path d="M 53.721227 14.139304 
L 72.333391 18.181123 
L 85.538931 13.1472 
L 95.781944 32.304956 
L 104.151095 37.662723 
L 117.356635 39.433514 
L 127.045477 43.353987 
L 127.599648 44.71718 
L 146.211812 55.31612 
L 159.417352 68.212105 
L 171.460723 64.659897 
L 178.029516 75.123655 
L 191.235056 80.801984 
L 209.84722 95.474529 
L 223.05276 107.725884 
L 233.295773 114.340877 
" clip-path="url(#pf7da4be76f)" style="fill: none; stroke: #b2b2b2; stroke-width: 0.8; stroke-linecap: square"/>
   </g>
   <g id="line2d_86">
    <path d="M 53.721227 54.509211 
L 72.333391 49.227133 
L 85.538931 43.737303 
L 95.781944 46.583785 
L 104.151095 49.838081 
L 117.356635 42.079843 
L 127.045477 43.353987 
L 127.599648 43.276603 
L 146.211812 36.819059 
L 159.417352 37.933683 
L 171.460723 48.565703 
L 178.029516 55.641403 
L 191.235056 66.161229 
L 209.84722 90.721863 
L 223.05276 99.330161 
L 233.295773 106.023405 
" clip-path="url(#pf7da4be76f)" style="fill: none; stroke: #b2b2b2; stroke-width: 0.8; stroke-linecap: square"/>
   </g>
   <g id="line2d_87">
    <path d="M 53.721227 69.885513 
L 72.333391 70.438773 
L 85.538931 63.730712 
L 95.781944 64.291449 
L 104.151095 57.068789 
L 117.356635 50.080083 
L 127.045477 43.353987 
L 127.599648 43.466737 
L 146.211812 60.051184 
L 159.417352 57.970279 
L 171.460723 53.557611 
L 178.029516 60.645281 
L 191.235056 69.186028 
L 209.84722 86.200641 
L 223.05276 104.657509 
L 233.295773 97.036257 
" clip-path="url(#pf7da4be76f)" style="fill: none; stroke: #b2b2b2; stroke-width: 0.8; stroke-linecap: square"/>
   </g>
   <g id="line2d_88">
    <path d="M 53.721227 57.137226 
L 72.333391 55.073135 
L 85.538931 46.187653 
L 95.781944 41.79561 
L 104.151095 39.50478 
L 117.356635 49.520811 
L 127.045477 43.353987 
L 127.599648 43.022244 
L 146.211812 40.120334 
L 159.417352 50.170619 
L 171.460723 53.01399 
L 178.029516 59.125652 
L 191.235056 71.19293 
L 209.84722 89.102162 
L 223.05276 93.636246 
L 233.295773 105.551523 
" clip-path="url(#pf7da4be76f)" style="fill: none; stroke: #b2b2b2; stroke-width: 0.8; stroke-linecap: square"/>
   </g>
   <g id="line2d_89">
    <path d="M 53.721227 53.280492 
L 72.333391 46.011228 
L 85.538931 42.3733 
L 95.781944 43.222197 
L 104.151095 43.223708 
L 117.356635 47.644753 
L 127.045477 43.353987 
L 127.599648 42.224775 
L 146.211812 36.412148 
L 159.417352 55.718387 
L 171.460723 61.527813 
L 178.029516 65.683549 
L 191.235056 87.527969 
L 209.84722 96.84783 
L 223.05276 106.346257 
L 233.295773 115.338252 
" clip-path="url(#pf7da4be76f)" style="fill: none; stroke: #b2b2b2; stroke-width: 0.8; stroke-linecap: square"/>
   </g>
   <g id="line2d_90">
    <path d="M 53.721227 60.511211 
L 72.333391 56.047065 
L 85.538931 48.511434 
L 95.781944 46.073774 
L 104.151095 45.717068 
L 117.356635 39.478866 
L 127.045477 43.353987 
L 127.599648 44.850758 
L 146.211812 59.79955 
L 159.417352 60.648423 
L 171.460723 65.689245 
L 178.029516 61.732143 
L 191.235056 57.719822 
L 209.84722 59.569639 
L 223.05276 76.406488 
L 233.295773 83.452462 
" clip-path="url(#pf7da4be76f)" style="fill: none; stroke: #b2b2b2; stroke-width: 0.8; stroke-linecap: square"/>
   </g>
   <g id="line2d_91">
    <path d="M 53.721227 55.736953 
L 72.333391 54.418324 
L 85.538931 46.395383 
L 95.781944 44.778547 
L 104.151095 44.709104 
L 117.356635 45.85488 
L 127.045477 43.353987 
L 127.599648 43.66471 
L 146.211812 47.856357 
L 159.417352 55.987819 
L 171.460723 62.612074 
L 178.029516 69.885199 
L 191.235056 85.491026 
L 209.84722 94.360489 
L 223.05276 108.760226 
L 233.295773 109.482782 
" clip-path="url(#pf7da4be76f)" style="fill: none; stroke: #b2b2b2; stroke-width: 0.8; stroke-linecap: square"/>
   </g>
   <g id="line2d_92">
    <path d="M 53.721227 61.264962 
L 72.333391 60.931793 
L 85.538931 56.7676 
L 95.781944 50.289202 
L 104.151095 43.371029 
L 117.356635 46.560705 
L 127.045477 43.353987 
L 127.599648 43.572293 
L 146.211812 45.888279 
L 159.417352 67.181067 
L 171.460723 63.398149 
L 178.029516 71.788828 
L 191.235056 91.301151 
L 209.84722 110.789095 
L 223.05276 115.250933 
L 233.295773 112.807062 
" clip-path="url(#pf7da4be76f)" style="fill: none; stroke: #b2b2b2; stroke-width: 0.8; stroke-linecap: square"/>
   </g>
   <g id="line2d_93">
    <path d="M 53.721227 58.605843 
L 72.333391 47.546904 
L 85.538931 52.1987 
L 95.781944 43.266776 
L 104.151095 45.16216 
L 117.356635 44.826832 
L 127.045477 43.353987 
L 127.599648 42.705467 
L 146.211812 58.820617 
L 159.417352 78.683447 
L 171.460723 85.776297 
L 178.029516 89.875274 
L 191.235056 97.660834 
L 209.84722 98.502177 
L 223.05276 109.195187 
L 233.295773 118.217524 
" clip-path="url(#pf7da4be76f)" style="fill: none; stroke: #b2b2b2; stroke-width: 0.8; stroke-linecap: square"/>
   </g>
   <g id="line2d_94">
    <path d="M 53.721227 61.263553 
L 72.333391 56.043953 
L 85.538931 58.686112 
L 95.781944 50.805482 
L 104.151095 46.640499 
L 117.356635 42.35414 
L 127.045477 43.353987 
L 127.599648 43.774547 
L 146.211812 47.527062 
L 159.417352 50.74503 
L 171.460723 61.393753 
L 178.029516 64.475383 
L 191.235056 80.134828 
L 209.84722 97.80952 
L 223.05276 112.827288 
L 233.295773 125.172357 
" clip-path="url(#pf7da4be76f)" style="fill: none; stroke: #b2b2b2; stroke-width: 0.8; stroke-linecap: square"/>
   </g>
   <g id="line2d_95">
    <path d="M 53.721227 46.127738 
L 72.333391 43.126066 
L 85.538931 45.970649 
L 95.781944 33.325672 
L 104.151095 40.669999 
L 117.356635 42.438327 
L 127.045477 43.353987 
L 127.599648 42.562979 
L 146.211812 58.136204 
L 159.417352 65.626363 
L 171.460723 72.813273 
L 178.029516 78.689099 
L 191.235056 93.559017 
L 209.84722 110.232209 
L 223.05276 120.556289 
L 233.295773 128.534774 
" clip-path="url(#pf7da4be76f)" style="fill: none; stroke: #b2b2b2; stroke-width: 0.8; stroke-linecap: square"/>
   </g>
   <g id="line2d_96">
    <path d="M 53.721227 59.992809 
L 72.333391 59.358193 
L 85.538931 52.82587 
L 95.781944 52.350604 
L 104.151095 46.577438 
L 117.356635 44.112268 
L 127.045477 43.353987 
L 127.599648 43.705732 
L 146.211812 54.986386 
L 159.417352 62.891607 
L 171.460723 67.458899 
L 178.029516 68.70386 
L 191.235056 67.938128 
L 209.84722 91.044752 
L 223.05276 100.947564 
L 233.295773 108.604692 
" clip-path="url(#pf7da4be76f)" style="fill: none; stroke: #b2b2b2; stroke-width: 0.8; stroke-linecap: square"/>
   </g>
   <g id="line2d_97">
    <path d="M 53.721227 40.697015 
L 72.333391 37.000804 
L 85.538931 39.151842 
L 95.781944 35.585847 
L 104.151095 41.71001 
L 117.356635 42.355729 
L 127.045477 43.353987 
L 127.599648 42.581571 
L 146.211812 40.939393 
L 159.417352 43.799119 
L 171.460723 56.829454 
L 178.029516 56.87872 
L 191.235056 71.518288 
L 209.84722 84.53516 
L 223.05276 92.673903 
L 233.295773 107.772144 
" clip-path="url(#pf7da4be76f)" style="fill: none; stroke: #b2b2b2; stroke-width: 0.8; stroke-linecap: square"/>
   </g>
   <g id="line2d_98">
    <path d="M 53.721227 68.70972 
L 72.333391 61.489105 
L 85.538931 57.002291 
L 95.781944 56.389769 
L 104.151095 57.352773 
L 117.356635 48.202844 
L 127.045477 43.353987 
L 127.599648 43.195466 
L 146.211812 40.794183 
L 159.417352 48.48219 
L 171.460723 68.759153 
L 178.029516 69.587741 
L 191.235056 90.737352 
L 209.84722 100.296706 
L 223.05276 108.852486 
L 233.295773 125.478593 
" clip-path="url(#pf7da4be76f)" style="fill: none; stroke: #b2b2b2; stroke-width: 0.8; stroke-linecap: square"/>
   </g>
   <g id="line2d_99">
    <path d="M 53.721227 58.59502 
L 72.333391 51.694974 
L 85.538931 49.409688 
L 95.781944 49.172431 
L 104.151095 49.466325 
L 117.356635 41.468751 
L 127.045477 43.353987 
L 127.599648 43.111149 
L 146.211812 58.978498 
L 159.417352 72.193176 
L 171.460723 79.729099 
L 178.029516 72.955452 
L 191.235056 75.783935 
L 209.84722 94.10024 
L 223.05276 106.979425 
L 233.295773 117.419761 
" clip-path="url(#pf7da4be76f)" style="fill: none; stroke: #b2b2b2; stroke-width: 0.8; stroke-linecap: square"/>
   </g>
   <g id="line2d_100">
    <path d="M 53.721227 68.947427 
L 72.333391 60.85104 
L 85.538931 59.831837 
L 95.781944 61.108053 
L 104.151095 51.578637 
L 117.356635 60.855529 
L 127.045477 43.353987 
L 127.599648 42.979411 
L 146.211812 64.890499 
L 159.417352 69.601603 
L 171.460723 73.284986 
L 178.029516 81.2647 
L 191.235056 71.514102 
L 209.84722 85.2942 
L 223.05276 87.488378 
L 233.295773 98.873649 
" clip-path="url(#pf7da4be76f)" style="fill: none; stroke: #b2b2b2; stroke-width: 0.8; stroke-linecap: square"/>
   </g>
   <g id="line2d_101">
    <path d="M 53.721227 69.210849 
L 72.333391 62.111328 
L 85.538931 57.12296 
L 95.781944 54.658326 
L 104.151095 52.750333 
L 117.356635 44.820947 
L 127.045477 43.353987 
L 127.599648 43.504967 
L 146.211812 62.004841 
L 159.417352 55.207221 
L 171.460723 59.146501 
L 178.029516 64.221291 
L 191.235056 70.53529 
L 209.84722 78.830797 
L 223.05276 84.807187 
L 233.295773 96.528598 
" clip-path="url(#pf7da4be76f)" style="fill: none; stroke: #b2b2b2; stroke-width: 0.8; stroke-linecap: square"/>
   </g>
   <g id="line2d_102">
    <path d="M 53.721227 62.482976 
L 72.333391 59.563304 
L 85.538931 55.534696 
L 95.781944 55.360456 
L 104.151095 48.434027 
L 117.356635 48.092689 
L 127.045477 43.353987 
L 127.599648 44.159348 
L 146.211812 47.549127 
L 159.417352 42.569737 
L 171.460723 51.784135 
L 178.029516 57.27002 
L 191.235056 69.209687 
L 209.84722 81.165029 
L 223.05276 84.241223 
L 233.295773 99.530732 
" clip-path="url(#pf7da4be76f)" style="fill: none; stroke: #b2b2b2; stroke-width: 0.8; stroke-linecap: square"/>
   </g>
   <g id="line2d_103">
    <path d="M 53.721227 46.444117 
L 72.333391 45.531765 
L 85.538931 45.723355 
L 95.781944 49.771468 
L 104.151095 49.659861 
L 117.356635 48.102077 
L 127.045477 43.353987 
L 127.599648 43.714782 
L 146.211812 53.585157 
L 159.417352 63.726521 
L 171.460723 56.040582 
L 178.029516 55.60443 
L 191.235056 69.621841 
L 209.84722 84.169965 
L 223.05276 87.954356 
L 233.295773 91.385657 
" clip-path="url(#pf7da4be76f)" style="fill: none; stroke: #b2b2b2; stroke-width: 0.8; stroke-linecap: square"/>
   </g>
   <g id="line2d_104">
    <path d="M 53.721227 56.481065 
L 72.333391 48.583693 
L 85.538931 41.012265 
L 95.781944 37.473395 
L 104.151095 44.690116 
L 117.356635 38.909789 
L 127.045477 43.353987 
L 127.599648 43.506439 
L 146.211812 40.467625 
L 159.417352 47.121181 
L 171.460723 53.605375 
L 178.029516 57.496996 
L 191.235056 63.901863 
L 209.84722 70.987542 
L 223.05276 79.960528 
L 233.295773 89.165507 
" clip-path="url(#pf7da4be76f)" style="fill: none; stroke: #b2b2b2; stroke-width: 0.8; stroke-linecap: square"/>
   </g>
   <g id="line2d_105">
    <path d="M 53.721227 57.643601 
L 72.333391 56.262029 
L 85.538931 43.488371 
L 95.781944 37.066703 
L 104.151095 38.649983 
L 117.356635 42.416705 
L 127.045477 43.353987 
L 127.599648 42.06117 
L 146.211812 50.898127 
L 159.417352 52.850139 
L 171.460723 65.124509 
L 178.029516 78.803941 
L 191.235056 68.253729 
L 209.84722 87.488361 
L 223.05276 101.325352 
L 233.295773 112.842416 
" clip-path="url(#pf7da4be76f)" style="fill: none; stroke: #b2b2b2; stroke-width: 0.8; stroke-linecap: square"/>
   </g>
   <g id="line2d_106">
    <path d="M 53.721227 37.78599 
L 72.333391 39.050271 
L 85.538931 33.536575 
L 95.781944 36.15985 
L 104.151095 29.312171 
L 117.356635 42.875239 
L 127.045477 43.353987 
L 127.599648 42.398253 
L 146.211812 44.153105 
L 159.417352 65.012312 
L 171.460723 67.613207 
L 178.029516 70.750917 
L 191.235056 70.708311 
L 209.84722 84.067192 
L 223.05276 93.861492 
L 233.295773 107.243359 
" clip-path="url(#pf7da4be76f)" style="fill: none; stroke: #b2b2b2; stroke-width: 0.8; stroke-linecap: square"/>
   </g>
   <g id="line2d_107">
    <path d="M 53.721227 47.952571 
L 72.333391 40.255142 
L 85.538931 38.827345 
L 95.781944 42.046125 
L 104.151095 32.366212 
L 117.356635 43.456677 
L 127.045477 43.353987 
L 127.599648 42.402597 
L 146.211812 61.982367 
L 159.417352 71.213139 
L 171.460723 72.332258 
L 178.029516 70.725692 
L 191.235056 81.341235 
L 209.84722 94.509393 
L 223.05276 107.141685 
L 233.295773 117.113205 
" clip-path="url(#pf7da4be76f)" style="fill: none; stroke: #b2b2b2; stroke-width: 0.8; stroke-linecap: square"/>
   </g>
   <g id="line2d_108">
    <path d="M 53.721227 53.811998 
L 72.333391 44.39426 
L 85.538931 41.300534 
L 95.781944 39.450983 
L 104.151095 34.338774 
L 117.356635 39.441807 
L 127.045477 43.353987 
L 127.599648 43.63007 
L 146.211812 51.61694 
L 159.417352 60.115865 
L 171.460723 67.294661 
L 178.029516 69.878715 
L 191.235056 88.283982 
L 209.84722 91.210085 
L 223.05276 90.591979 
L 233.295773 109.334666 
" clip-path="url(#pf7da4be76f)" style="fill: none; stroke: #b2b2b2; stroke-width: 0.8; stroke-linecap: square"/>
   </g>
   <g id="line2d_109">
    <path d="M 53.721227 40.225332 
L 72.333391 37.266119 
L 85.538931 36.252773 
L 95.781944 39.225391 
L 104.151095 45.687949 
L 117.356635 34.399266 
L 127.045477 43.353987 
L 127.599648 43.750543 
L 146.211812 53.670454 
L 159.417352 59.028534 
L 171.460723 70.528533 
L 178.029516 74.710811 
L 191.235056 82.293958 
L 209.84722 96.375058 
L 223.05276 109.616454 
L 233.295773 121.651222 
" clip-path="url(#pf7da4be76f)" style="fill: none; stroke: #b2b2b2; stroke-width: 0.8; stroke-linecap: square"/>
   </g>
   <g id="line2d_110">
    <path d="M 53.721227 48.244777 
L 72.333391 46.406646 
L 85.538931 48.059271 
L 95.781944 52.589649 
L 104.151095 42.988414 
L 117.356635 45.572418 
L 127.045477 43.353987 
L 127.599648 43.328224 
L 146.211812 54.213279 
L 159.417352 56.837177 
L 171.460723 70.388821 
L 178.029516 68.262043 
L 191.235056 86.697747 
L 209.84722 106.940956 
L 223.05276 119.639711 
L 233.295773 123.175113 
" clip-path="url(#pf7da4be76f)" style="fill: none; stroke: #b2b2b2; stroke-width: 0.8; stroke-linecap: square"/>
   </g>
   <g id="line2d_111">
    <path d="M 53.721227 60.857092 
L 72.333391 61.794406 
L 85.538931 55.735729 
L 95.781944 54.913593 
L 104.151095 51.152104 
L 117.356635 46.776655 
L 127.045477 43.353987 
L 127.599648 43.845975 
L 146.211812 47.793265 
L 159.417352 46.356563 
L 171.460723 47.184461 
L 178.029516 54.3086 
L 191.235056 68.158762 
L 209.84722 87.376856 
L 223.05276 99.099299 
L 233.295773 107.665618 
" clip-path="url(#pf7da4be76f)" style="fill: none; stroke: #b2b2b2; stroke-width: 0.8; stroke-linecap: square"/>
   </g>
   <g id="line2d_112">
    <path d="M 53.721227 60.728574 
L 72.333391 60.903946 
L 85.538931 54.537028 
L 95.781944 55.374703 
L 104.151095 54.708425 
L 117.356635 43.867732 
L 127.045477 43.353987 
L 127.599648 43.758356 
L 146.211812 55.317956 
L 159.417352 62.767863 
L 171.460723 61.321005 
L 178.029516 56.138596 
L 191.235056 71.533066 
L 209.84722 90.237617 
L 223.05276 98.303794 
L 233.295773 116.25297 
" clip-path="url(#pf7da4be76f)" style="fill: none; stroke: #b2b2b2; stroke-width: 0.8; stroke-linecap: square"/>
   </g>
   <g id="line2d_113">
    <path d="M 53.721227 54.059268 
L 72.333391 52.514699 
L 85.538931 46.938395 
L 95.781944 41.004831 
L 104.151095 36.660156 
L 117.356635 41.261456 
L 127.045477 43.353987 
L 127.599648 43.570449 
L 146.211812 53.769532 
L 159.417352 64.89296 
L 171.460723 85.194458 
L 178.029516 87.18903 
L 191.235056 94.538949 
L 209.84722 102.578501 
L 223.05276 113.162354 
L 233.295773 125.507795 
" clip-path="url(#pf7da4be76f)" style="fill: none; stroke: #b2b2b2; stroke-width: 0.8; stroke-linecap: square"/>
   </g>
   <g id="line2d_114">
    <path d="M 53.721227 61.084211 
L 72.333391 55.590995 
L 85.538931 49.844511 
L 95.781944 44.193853 
L 104.151095 39.718426 
L 117.356635 44.002963 
L 127.045477 43.353987 
L 127.599648 44.594075 
L 146.211812 53.799468 
L 159.417352 62.917989 
L 171.460723 67.064353 
L 178.029516 73.60183 
L 191.235056 69.149307 
L 209.84722 77.604651 
L 223.05276 89.366097 
L 233.295773 102.973961 
" clip-path="url(#pf7da4be76f)" style="fill: none; stroke: #b2b2b2; stroke-width: 0.8; stroke-linecap: square"/>
   </g>
   <g id="line2d_115">
    <path d="M 53.721227 28.704666 
L 72.333391 21.427261 
L 85.538931 20.434642 
L 95.781944 24.407041 
L 104.151095 23.703584 
L 117.356635 33.661649 
L 127.045477 43.353987 
L 127.599648 44.631148 
L 146.211812 51.872828 
L 159.417352 62.611103 
L 171.460723 67.878155 
L 178.029516 79.178054 
L 191.235056 82.870151 
L 209.84722 95.810968 
L 223.05276 107.732786 
L 233.295773 130.448053 
" clip-path="url(#pf7da4be76f)" style="fill: none; stroke: #b2b2b2; stroke-width: 0.8; stroke-linecap: square"/>
   </g>
   <g id="line2d_116">
    <path d="M 53.721227 59.637131 
L 72.333391 51.095733 
L 85.538931 45.602229 
L 95.781944 48.827741 
L 104.151095 53.113476 
L 117.356635 48.739943 
L 127.045477 43.353987 
L 127.599648 44.101359 
L 146.211812 47.572143 
L 159.417352 55.840486 
L 171.460723 59.466087 
L 178.029516 62.690581 
L 191.235056 69.417609 
L 209.84722 93.383288 
L 223.05276 103.190702 
L 233.295773 112.584022 
" clip-path="url(#pf7da4be76f)" style="fill: none; stroke: #b2b2b2; stroke-width: 0.8; stroke-linecap: square"/>
   </g>
   <g id="line2d_117">
    <path d="M 53.721227 48.770778 
L 72.333391 40.286633 
L 85.538931 44.469456 
L 95.781944 40.231313 
L 104.151095 44.807132 
L 117.356635 38.038059 
L 127.045477 43.353987 
L 127.599648 43.412435 
L 146.211812 55.089262 
L 159.417352 59.280216 
L 171.460723 54.375684 
L 178.029516 59.748261 
L 191.235056 77.393368 
L 209.84722 96.218902 
L 223.05276 104.197247 
L 233.295773 102.074119 
" clip-path="url(#pf7da4be76f)" style="fill: none; stroke: #b2b2b2; stroke-width: 0.8; stroke-linecap: square"/>
   </g>
   <g id="line2d_118">
    <path d="M 53.721227 43.761979 
L 72.333391 33.667462 
L 85.538931 35.254761 
L 95.781944 35.111348 
L 104.151095 37.916849 
L 117.356635 41.836012 
L 127.045477 43.353987 
L 127.599648 42.67668 
L 146.211812 60.129022 
L 159.417352 65.057939 
L 171.460723 68.60476 
L 178.029516 78.625065 
L 191.235056 83.558302 
L 209.84722 85.040559 
L 223.05276 89.954372 
L 233.295773 90.727728 
" clip-path="url(#pf7da4be76f)" style="fill: none; stroke: #b2b2b2; stroke-width: 0.8; stroke-linecap: square"/>
   </g>
   <g id="line2d_119">
    <path d="M 53.721227 58.639299 
L 72.333391 53.080634 
L 85.538931 47.800294 
L 95.781944 41.946356 
L 104.151095 39.931552 
L 117.356635 41.25645 
L 127.045477 43.353987 
L 127.599648 43.64973 
L 146.211812 40.426442 
L 159.417352 53.515394 
L 171.460723 52.997778 
L 178.029516 53.987197 
L 191.235056 63.857833 
L 209.84722 63.606553 
L 223.05276 76.38518 
L 233.295773 93.523426 
" clip-path="url(#pf7da4be76f)" style="fill: none; stroke: #b2b2b2; stroke-width: 0.8; stroke-linecap: square"/>
   </g>
   <g id="line2d_120">
    <path d="M 53.721227 58.887097 
L 72.333391 56.793871 
L 85.538931 51.187088 
L 95.781944 52.245038 
L 104.151095 43.462005 
L 117.356635 42.348783 
L 127.045477 43.353987 
L 127.599648 43.066917 
L 146.211812 46.338672 
L 159.417352 54.306639 
L 171.460723 64.736974 
L 178.029516 78.620871 
L 191.235056 85.022949 
L 209.84722 97.200727 
L 223.05276 92.0287 
L 233.295773 97.768341 
" clip-path="url(#pf7da4be76f)" style="fill: none; stroke: #b2b2b2; stroke-width: 0.8; stroke-linecap: square"/>
   </g>
   <g id="line2d_121">
    <path d="M 53.721227 50.243641 
L 72.333391 30.62134 
L 85.538931 37.746398 
L 95.781944 42.307829 
L 104.151095 45.241673 
L 117.356635 41.865783 
L 127.045477 43.353987 
L 127.599648 44.295724 
L 146.211812 55.215813 
L 159.417352 77.459086 
L 171.460723 89.098782 
L 178.029516 94.332497 
L 191.235056 96.762135 
L 209.84722 116.3199 
L 223.05276 121.471651 
L 233.295773 125.53881 
" clip-path="url(#pf7da4be76f)" style="fill: none; stroke: #b2b2b2; stroke-width: 0.8; stroke-linecap: square"/>
   </g>
   <g id="line2d_122">
    <path d="M 53.721227 39.345974 
L 72.333391 41.257545 
L 85.538931 40.030256 
L 95.781944 40.610095 
L 104.151095 44.037608 
L 117.356635 45.408114 
L 127.045477 43.353987 
L 127.599648 42.909833 
L 146.211812 57.028907 
L 159.417352 62.134027 
L 171.460723 66.733097 
L 178.029516 72.607667 
L 191.235056 73.755541 
L 209.84722 74.503998 
L 223.05276 90.173016 
L 233.295773 96.172049 
" clip-path="url(#pf7da4be76f)" style="fill: none; stroke: #b2b2b2; stroke-width: 0.8; stroke-linecap: square"/>
   </g>
   <g id="line2d_123">
    <path d="M 53.721227 62.585804 
L 72.333391 55.821572 
L 85.538931 56.448199 
L 95.781944 48.922935 
L 104.151095 47.561892 
L 117.356635 45.092071 
L 127.045477 43.353987 
L 127.599648 42.387064 
L 146.211812 51.309977 
L 159.417352 53.300212 
L 171.460723 72.911751 
L 178.029516 77.352867 
L 191.235056 81.983787 
L 209.84722 82.94281 
L 223.05276 96.222302 
L 233.295773 98.972401 
" clip-path="url(#pf7da4be76f)" style="fill: none; stroke: #b2b2b2; stroke-width: 0.8; stroke-linecap: square"/>
   </g>
   <g id="line2d_124">
    <path d="M 53.721227 64.970748 
L 72.333391 55.709041 
L 85.538931 58.163779 
L 95.781944 61.581185 
L 104.151095 60.135931 
L 117.356635 47.495823 
L 127.045477 43.353987 
L 127.599648 42.934858 
L 146.211812 49.707265 
L 159.417352 61.679505 
L 171.460723 74.448749 
L 178.029516 72.162895 
L 191.235056 85.977192 
L 209.84722 97.203111 
L 223.05276 111.59542 
L 233.295773 120.003936 
" clip-path="url(#pf7da4be76f)" style="fill: none; stroke: #b2b2b2; stroke-width: 0.8; stroke-linecap: square"/>
   </g>
   <g id="line2d_125">
    <path d="M 53.721227 51.751821 
L 72.333391 46.101445 
L 85.538931 50.310289 
L 95.781944 44.965222 
L 104.151095 41.54787 
L 117.356635 42.285357 
L 127.045477 43.353987 
L 127.599648 43.607124 
L 146.211812 53.589971 
L 159.417352 45.27122 
L 171.460723 40.840792 
L 178.029516 41.901538 
L 191.235056 51.990854 
L 209.84722 72.120885 
L 223.05276 85.103887 
L 233.295773 96.850094 
" clip-path="url(#pf7da4be76f)" style="fill: none; stroke: #b2b2b2; stroke-width: 0.8; stroke-linecap: square"/>
   </g>
   <g id="line2d_126">
    <path d="M 53.721227 47.723699 
L 72.333391 37.973138 
L 85.538931 32.207364 
L 95.781944 30.914646 
L 104.151095 37.422989 
L 117.356635 33.077885 
L 127.045477 43.353987 
L 127.599648 45.319256 
L 146.211812 54.82045 
L 159.417352 61.953187 
L 171.460723 70.974955 
L 178.029516 80.413662 
L 191.235056 89.60111 
L 209.84722 93.080424 
L 223.05276 94.79605 
L 233.295773 103.344751 
" clip-path="url(#pf7da4be76f)" style="fill: none; stroke: #b2b2b2; stroke-width: 0.8; stroke-linecap: square"/>
   </g>
   <g id="line2d_127">
    <path d="M 53.721227 31.846019 
L 72.333391 30.01484 
L 85.538931 31.960323 
L 95.781944 28.067989 
L 104.151095 31.54646 
L 117.356635 43.959789 
L 127.045477 43.353987 
L 127.599648 43.511541 
L 146.211812 52.381033 
L 159.417352 59.28682 
L 171.460723 66.797757 
L 178.029516 70.491333 
L 191.235056 83.856853 
L 209.84722 88.770198 
L 223.05276 90.500694 
L 233.295773 98.628887 
" clip-path="url(#pf7da4be76f)" style="fill: none; stroke: #b2b2b2; stroke-width: 0.8; stroke-linecap: square"/>
   </g>
   <g id="line2d_128">
    <path d="M 53.721227 52.50838 
L 72.333391 53.077219 
L 85.538931 50.858717 
L 95.781944 38.236006 
L 104.151095 37.422565 
L 117.356635 39.861387 
L 127.045477 43.353987 
L 127.599648 43.095648 
L 146.211812 49.946299 
L 159.417352 48.285085 
L 171.460723 47.901167 
L 178.029516 54.045555 
L 191.235056 65.724376 
L 209.84722 81.558726 
L 223.05276 91.720316 
L 233.295773 107.288389 
" clip-path="url(#pf7da4be76f)" style="fill: none; stroke: #b2b2b2; stroke-width: 0.8; stroke-linecap: square"/>
   </g>
   <g id="line2d_129">
    <path d="M 53.721227 74.466044 
L 72.333391 71.416107 
L 85.538931 70.618401 
L 95.781944 68.958677 
L 104.151095 66.619945 
L 117.356635 57.929325 
L 127.045477 43.353987 
L 127.599648 42.211351 
L 146.211812 64.214798 
L 159.417352 65.434237 
L 171.460723 73.254905 
L 178.029516 65.262791 
L 191.235056 84.700001 
L 209.84722 91.350211 
L 223.05276 115.322004 
L 233.295773 113.870175 
" clip-path="url(#pf7da4be76f)" style="fill: none; stroke: #b2b2b2; stroke-width: 0.8; stroke-linecap: square"/>
   </g>
   <g id="line2d_130">
    <path d="M 53.721227 44.721435 
L 72.333391 45.932497 
L 85.538931 41.694479 
L 95.781944 34.875018 
L 104.151095 30.565045 
L 117.356635 41.599864 
L 127.045477 43.353987 
L 127.599648 43.833215 
L 146.211812 60.144968 
L 159.417352 67.203 
L 171.460723 75.033489 
L 178.029516 82.35019 
L 191.235056 101.19968 
L 209.84722 101.850145 
L 223.05276 112.945732 
L 233.295773 125.869873 
" clip-path="url(#pf7da4be76f)" style="fill: none; stroke: #b2b2b2; stroke-width: 0.8; stroke-linecap: square"/>
   </g>
   <g id="line2d_131">
    <path d="M 53.721227 56.871311 
L 72.333391 52.232954 
L 85.538931 57.936941 
L 95.781944 48.013845 
L 104.151095 40.519346 
L 117.356635 31.960617 
L 127.045477 43.353987 
L 127.599648 43.828213 
L 146.211812 45.394843 
L 159.417352 58.757269 
L 171.460723 70.94854 
L 178.029516 71.776166 
L 191.235056 77.598183 
L 209.84722 76.871218 
L 223.05276 85.257814 
L 233.295773 82.834967 
" clip-path="url(#pf7da4be76f)" style="fill: none; stroke: #b2b2b2; stroke-width: 0.8; stroke-linecap: square"/>
   </g>
   <g id="line2d_132">
    <path d="M 53.721227 52.682673 
L 72.333391 48.128355 
L 85.538931 40.716351 
L 95.781944 47.171801 
L 104.151095 44.162803 
L 117.356635 39.856109 
L 127.045477 43.353987 
L 127.599648 43.350508 
L 146.211812 48.451622 
L 159.417352 63.940699 
L 171.460723 73.135852 
L 178.029516 77.599976 
L 191.235056 90.957182 
L 209.84722 86.966869 
L 223.05276 102.815363 
L 233.295773 114.879884 
" clip-path="url(#pf7da4be76f)" style="fill: none; stroke: #b2b2b2; stroke-width: 0.8; stroke-linecap: square"/>
   </g>
   <g id="line2d_133">
    <path d="M 53.721227 53.602261 
L 72.333391 48.807719 
L 85.538931 46.150306 
L 95.781944 45.006637 
L 104.151095 43.882811 
L 117.356635 43.424613 
L 127.045477 43.353987 
L 127.599648 43.553718 
L 146.211812 52.232833 
L 159.417352 58.983746 
L 171.460723 65.292768 
L 178.029516 69.09911 
L 191.235056 78.050383 
L 209.84722 90.075957 
L 223.05276 99.793127 
L 233.295773 108.344489 
" clip-path="url(#pf7da4be76f)" style="fill: none; stroke: #ff0000; stroke-width: 2; stroke-linecap: square"/>
   </g>
   <g id="line2d_134">
    <path d="M 53.721227 31.29253 
L 72.333391 26.334455 
L 85.538931 25.718804 
L 95.781944 26.641361 
L 104.151095 27.969805 
L 117.356635 33.201532 
L 127.045477 43.353986 
L 127.599648 40.949643 
L 146.211812 37.880001 
L 159.417352 40.926057 
L 171.460723 45.021823 
L 178.029516 48.160425 
L 191.235056 56.452473 
L 209.84722 67.424851 
L 223.05276 77.131327 
L 233.295773 84.905462 
" clip-path="url(#pf7da4be76f)" style="fill: none; stroke-dasharray: 7.4,3.2; stroke-dashoffset: 0; stroke: #ff0000; stroke-width: 2"/>
   </g>
   <g id="line2d_135">
    <path d="M 53.721227 75.911992 
L 72.333391 71.280982 
L 85.538931 66.581808 
L 95.781944 63.371913 
L 104.151095 59.795817 
L 117.356635 53.647695 
L 127.045477 43.353987 
L 127.599648 46.157793 
L 146.211812 66.585666 
L 159.417352 77.041434 
L 171.460723 85.563712 
L 178.029516 90.037795 
L 191.235056 99.648294 
L 209.84722 112.727063 
L 223.05276 122.454927 
L 233.295773 131.783516 
" clip-path="url(#pf7da4be76f)" style="fill: none; stroke-dasharray: 7.4,3.2; stroke-dashoffset: 0; stroke: #ff0000; stroke-width: 2"/>
   </g>
   <g id="line2d_136">
    <path d="M 53.721227 53.521105 
L 72.333391 49.070662 
L 85.538931 46.362769 
L 95.781944 45.162794 
L 104.151095 43.925862 
L 117.356635 43.446152 
L 127.045477 43.353987 
L 127.599648 43.443198 
L 146.211812 52.158583 
L 159.417352 59.148036 
L 171.460723 65.123042 
L 178.029516 69.221448 
L 191.235056 78.321991 
L 209.84722 90.176797 
L 223.05276 99.753067 
L 233.295773 108.381599 
" clip-path="url(#pf7da4be76f)" style="fill: none; stroke: #0000ff; stroke-width: 2; stroke-linecap: square"/>
   </g>
   <g id="line2d_137">
    <path d="M 53.721227 31.044426 
L 72.333391 27.023389 
L 85.538931 25.645495 
L 95.781944 26.747755 
L 104.151095 27.904426 
L 117.356635 33.09447 
L 127.045477 43.353987 
L 127.599648 42.00182 
L 146.211812 37.343789 
L 159.417352 40.985898 
L 171.460723 45.054423 
L 178.029516 48.257968 
L 191.235056 56.569408 
L 209.84722 67.466651 
L 223.05276 76.798337 
L 233.295773 84.671998 
" clip-path="url(#pf7da4be76f)" style="fill: none; stroke-dasharray: 7.4,3.2; stroke-dashoffset: 0; stroke: #0000ff; stroke-width: 2"/>
   </g>
   <g id="line2d_138">
    <path d="M 53.721227 75.997783 
L 72.333391 71.117936 
L 85.538931 67.080042 
L 95.781944 63.577834 
L 104.151095 59.947298 
L 117.356635 53.797834 
L 127.045477 43.353987 
L 127.599648 44.884577 
L 146.211812 66.973377 
L 159.417352 77.310175 
L 171.460723 85.191662 
L 178.029516 90.184928 
L 191.235056 100.074575 
L 209.84722 112.886942 
L 223.05276 122.707797 
L 233.295773 132.0912 
" clip-path="url(#pf7da4be76f)" style="fill: none; stroke-dasharray: 7.4,3.2; stroke-dashoffset: 0; stroke: #0000ff; stroke-width: 2"/>
   </g>
   <g id="patch_3">
    <path d="M 44.7425 138.0384 
L 44.7425 7.2 
" style="fill: none; stroke: #000000; stroke-width: 0.8; stroke-linejoin: miter; stroke-linecap: square"/>
   </g>
   <g id="patch_4">
    <path d="M 242.2745 138.0384 
L 242.2745 7.2 
" style="fill: none; stroke: #000000; stroke-width: 0.8; stroke-linejoin: miter; stroke-linecap: square"/>
   </g>
   <g id="patch_5">
    <path d="M 44.7425 138.0384 
L 242.2745 138.0384 
" style="fill: none; stroke: #000000; stroke-width: 0.8; stroke-linejoin: miter; stroke-linecap: square"/>
   </g>
   <g id="patch_6">
    <path d="M 44.7425 7.2 
L 242.2745 7.2 
" style="fill: none; stroke: #000000; stroke-width: 0.8; stroke-linejoin: miter; stroke-linecap: square"/>
   </g>
   <g id="legend_1">
    <g id="patch_7">
     <path d="M 247.8745 104.47295 
L 432.5945 104.47295 
Q 434.1945 104.47295 434.1945 102.87295 
L 434.1945 42.36545 
Q 434.1945 40.76545 432.5945 40.76545 
L 247.8745 40.76545 
Q 246.2745 40.76545 246.2745 42.36545 
L 246.2745 102.87295 
Q 246.2745 104.47295 247.8745 104.47295 
z
" style="fill: #ffffff; opacity: 0.8; stroke: #cccccc; stroke-linejoin: miter"/>
    </g>
    <g id="line2d_139">
     <path d="M 249.4745 47.2442 
L 257.4745 47.2442 
L 265.4745 47.2442 
" style="fill: none; stroke: #b2b2b2; stroke-width: 0.8; stroke-linecap: square"/>
    </g>
    <g id="text_8">
     <!-- Individual selected GMs -->
     <g transform="translate(271.8745 50.0442) scale(0.08 -0.08)">
      <defs>
       <path id="DejaVuSans-49" d="M 628 4666 
L 1259 4666 
L 1259 0 
L 628 0 
L 628 4666 
z
" transform="scale(0.015625)"/>
       <path id="DejaVuSans-76" d="M 191 3500 
L 800 3500 
L 1894 563 
L 2988 3500 
L 3597 3500 
L 2284 0 
L 1503 0 
L 191 3500 
z
" transform="scale(0.015625)"/>
       <path id="DejaVuSans-75" d="M 544 1381 
L 544 3500 
L 1119 3500 
L 1119 1403 
Q 1119 906 1312 657 
Q 1506 409 1894 409 
Q 2359 409 2629 706 
Q 2900 1003 2900 1516 
L 2900 3500 
L 3475 3500 
L 3475 0 
L 2900 0 
L 2900 538 
Q 2691 219 2414 64 
Q 2138 -91 1772 -91 
Q 1169 -91 856 284 
Q 544 659 544 1381 
z
M 1991 3584 
L 1991 3584 
z
" transform="scale(0.015625)"/>
       <path id="DejaVuSans-47" d="M 3809 666 
L 3809 1919 
L 2778 1919 
L 2778 2438 
L 4434 2438 
L 4434 434 
Q 4069 175 3628 42 
Q 3188 -91 2688 -91 
Q 1594 -91 976 548 
Q 359 1188 359 2328 
Q 359 3472 976 4111 
Q 1594 4750 2688 4750 
Q 3144 4750 3555 4637 
Q 3966 4525 4313 4306 
L 4313 3634 
Q 3963 3931 3569 4081 
Q 3175 4231 2741 4231 
Q 1884 4231 1454 3753 
Q 1025 3275 1025 2328 
Q 1025 1384 1454 906 
Q 1884 428 2741 428 
Q 3075 428 3337 486 
Q 3600 544 3809 666 
z
" transform="scale(0.015625)"/>
       <path id="DejaVuSans-4d" d="M 628 4666 
L 1569 4666 
L 2759 1491 
L 3956 4666 
L 4897 4666 
L 4897 0 
L 4281 0 
L 4281 4097 
L 3078 897 
L 2444 897 
L 1241 4097 
L 1241 0 
L 628 0 
L 628 4666 
z
" transform="scale(0.015625)"/>
      </defs>
      <use xlink:href="#DejaVuSans-49"/>
      <use xlink:href="#DejaVuSans-6e" x="29.492188"/>
      <use xlink:href="#DejaVuSans-64" x="92.871094"/>
      <use xlink:href="#DejaVuSans-69" x="156.347656"/>
      <use xlink:href="#DejaVuSans-76" x="184.130859"/>
      <use xlink:href="#DejaVuSans-69" x="243.310547"/>
      <use xlink:href="#DejaVuSans-64" x="271.09375"/>
      <use xlink:href="#DejaVuSans-75" x="334.570312"/>
      <use xlink:href="#DejaVuSans-61" x="397.949219"/>
      <use xlink:href="#DejaVuSans-6c" x="459.228516"/>
      <use xlink:href="#DejaVuSans-20" x="487.011719"/>
      <use xlink:href="#DejaVuSans-73" x="518.798828"/>
      <use xlink:href="#DejaVuSans-65" x="570.898438"/>
      <use xlink:href="#DejaVuSans-6c" x="632.421875"/>
      <use xlink:href="#DejaVuSans-65" x="660.205078"/>
      <use xlink:href="#DejaVuSans-63" x="721.728516"/>
      <use xlink:href="#DejaVuSans-74" x="776.708984"/>
      <use xlink:href="#DejaVuSans-65" x="815.917969"/>
      <use xlink:href="#DejaVuSans-64" x="877.441406"/>
      <use xlink:href="#DejaVuSans-20" x="940.917969"/>
      <use xlink:href="#DejaVuSans-47" x="972.705078"/>
      <use xlink:href="#DejaVuSans-4d" x="1050.195312"/>
      <use xlink:href="#DejaVuSans-73" x="1136.474609"/>
     </g>
    </g>
    <g id="line2d_140">
     <path d="M 249.4745 58.9867 
L 257.4745 58.9867 
L 265.4745 58.9867 
" style="fill: none; stroke: #ff0000; stroke-width: 2; stroke-linecap: square"/>
    </g>
    <g id="text_9">
     <!-- GCIM median -->
     <g transform="translate(271.8745 61.7867) scale(0.08 -0.08)">
      <defs>
       <path id="DejaVuSans-43" d="M 4122 4306 
L 4122 3641 
Q 3803 3938 3442 4084 
Q 3081 4231 2675 4231 
Q 1875 4231 1450 3742 
Q 1025 3253 1025 2328 
Q 1025 1406 1450 917 
Q 1875 428 2675 428 
Q 3081 428 3442 575 
Q 3803 722 4122 1019 
L 4122 359 
Q 3791 134 3420 21 
Q 3050 -91 2638 -91 
Q 1578 -91 968 557 
Q 359 1206 359 2328 
Q 359 3453 968 4101 
Q 1578 4750 2638 4750 
Q 3056 4750 3426 4639 
Q 3797 4528 4122 4306 
z
" transform="scale(0.015625)"/>
       <path id="DejaVuSans-6d" d="M 3328 2828 
Q 3544 3216 3844 3400 
Q 4144 3584 4550 3584 
Q 5097 3584 5394 3201 
Q 5691 2819 5691 2113 
L 5691 0 
L 5113 0 
L 5113 2094 
Q 5113 2597 4934 2840 
Q 4756 3084 4391 3084 
Q 3944 3084 3684 2787 
Q 3425 2491 3425 1978 
L 3425 0 
L 2847 0 
L 2847 2094 
Q 2847 2600 2669 2842 
Q 2491 3084 2119 3084 
Q 1678 3084 1418 2786 
Q 1159 2488 1159 1978 
L 1159 0 
L 581 0 
L 581 3500 
L 1159 3500 
L 1159 2956 
Q 1356 3278 1631 3431 
Q 1906 3584 2284 3584 
Q 2666 3584 2933 3390 
Q 3200 3197 3328 2828 
z
" transform="scale(0.015625)"/>
      </defs>
      <use xlink:href="#DejaVuSans-47"/>
      <use xlink:href="#DejaVuSans-43" x="77.490234"/>
      <use xlink:href="#DejaVuSans-49" x="147.314453"/>
      <use xlink:href="#DejaVuSans-4d" x="176.806641"/>
      <use xlink:href="#DejaVuSans-20" x="263.085938"/>
      <use xlink:href="#DejaVuSans-6d" x="294.873047"/>
      <use xlink:href="#DejaVuSans-65" x="392.285156"/>
      <use xlink:href="#DejaVuSans-64" x="453.808594"/>
      <use xlink:href="#DejaVuSans-69" x="517.285156"/>
      <use xlink:href="#DejaVuSans-61" x="545.068359"/>
      <use xlink:href="#DejaVuSans-6e" x="606.347656"/>
     </g>
    </g>
    <g id="line2d_141">
     <path d="M 249.4745 72.01045 
L 257.4745 72.01045 
L 265.4745 72.01045 
" style="fill: none; stroke-dasharray: 7.4,3.2; stroke-dashoffset: 0; stroke: #ff0000; stroke-width: 2"/>
    </g>
    <g id="text_10">
     <!-- GCIM $16^{th}$ and $84^{th}$ percentiles -->
     <g transform="translate(271.8745 74.81045) scale(0.08 -0.08)">
      <defs>
       <path id="DejaVuSans-36" d="M 2113 2584 
Q 1688 2584 1439 2293 
Q 1191 2003 1191 1497 
Q 1191 994 1439 701 
Q 1688 409 2113 409 
Q 2538 409 2786 701 
Q 3034 994 3034 1497 
Q 3034 2003 2786 2293 
Q 2538 2584 2113 2584 
z
M 3366 4563 
L 3366 3988 
Q 3128 4100 2886 4159 
Q 2644 4219 2406 4219 
Q 1781 4219 1451 3797 
Q 1122 3375 1075 2522 
Q 1259 2794 1537 2939 
Q 1816 3084 2150 3084 
Q 2853 3084 3261 2657 
Q 3669 2231 3669 1497 
Q 3669 778 3244 343 
Q 2819 -91 2113 -91 
Q 1303 -91 875 529 
Q 447 1150 447 2328 
Q 447 3434 972 4092 
Q 1497 4750 2381 4750 
Q 2619 4750 2861 4703 
Q 3103 4656 3366 4563 
z
" transform="scale(0.015625)"/>
       <path id="DejaVuSans-Oblique-74" d="M 2706 3500 
L 2619 3053 
L 1472 3053 
L 1100 1153 
Q 1081 1047 1072 975 
Q 1063 903 1063 863 
Q 1063 663 1183 572 
Q 1303 481 1569 481 
L 2150 481 
L 2053 0 
L 1503 0 
Q 991 0 739 200 
Q 488 400 488 806 
Q 488 878 497 964 
Q 506 1050 525 1153 
L 897 3053 
L 409 3053 
L 500 3500 
L 978 3500 
L 1172 4494 
L 1747 4494 
L 1556 3500 
L 2706 3500 
z
" transform="scale(0.015625)"/>
       <path id="DejaVuSans-Oblique-68" d="M 3566 2113 
L 3156 0 
L 2578 0 
L 2988 2091 
Q 3016 2238 3031 2350 
Q 3047 2463 3047 2528 
Q 3047 2791 2881 2937 
Q 2716 3084 2419 3084 
Q 1956 3084 1617 2771 
Q 1278 2459 1178 1941 
L 800 0 
L 225 0 
L 1172 4863 
L 1747 4863 
L 1375 2950 
Q 1594 3244 1934 3414 
Q 2275 3584 2650 3584 
Q 3113 3584 3367 3334 
Q 3622 3084 3622 2631 
Q 3622 2519 3608 2391 
Q 3594 2263 3566 2113 
z
" transform="scale(0.015625)"/>
       <path id="DejaVuSans-38" d="M 2034 2216 
Q 1584 2216 1326 1975 
Q 1069 1734 1069 1313 
Q 1069 891 1326 650 
Q 1584 409 2034 409 
Q 2484 409 2743 651 
Q 3003 894 3003 1313 
Q 3003 1734 2745 1975 
Q 2488 2216 2034 2216 
z
M 1403 2484 
Q 997 2584 770 2862 
Q 544 3141 544 3541 
Q 544 4100 942 4425 
Q 1341 4750 2034 4750 
Q 2731 4750 3128 4425 
Q 3525 4100 3525 3541 
Q 3525 3141 3298 2862 
Q 3072 2584 2669 2484 
Q 3125 2378 3379 2068 
Q 3634 1759 3634 1313 
Q 3634 634 3220 271 
Q 2806 -91 2034 -91 
Q 1263 -91 848 271 
Q 434 634 434 1313 
Q 434 1759 690 2068 
Q 947 2378 1403 2484 
z
M 1172 3481 
Q 1172 3119 1398 2916 
Q 1625 2713 2034 2713 
Q 2441 2713 2670 2916 
Q 2900 3119 2900 3481 
Q 2900 3844 2670 4047 
Q 2441 4250 2034 4250 
Q 1625 4250 1398 4047 
Q 1172 3844 1172 3481 
z
" transform="scale(0.015625)"/>
       <path id="DejaVuSans-34" d="M 2419 4116 
L 825 1625 
L 2419 1625 
L 2419 4116 
z
M 2253 4666 
L 3047 4666 
L 3047 1625 
L 3713 1625 
L 3713 1100 
L 3047 1100 
L 3047 0 
L 2419 0 
L 2419 1100 
L 313 1100 
L 313 1709 
L 2253 4666 
z
" transform="scale(0.015625)"/>
      </defs>
      <use xlink:href="#DejaVuSans-47" transform="translate(0 0.529687)"/>
      <use xlink:href="#DejaVuSans-43" transform="translate(77.490234 0.529687)"/>
      <use xlink:href="#DejaVuSans-49" transform="translate(147.314453 0.529687)"/>
      <use xlink:href="#DejaVuSans-4d" transform="translate(176.806641 0.529687)"/>
      <use xlink:href="#DejaVuSans-20" transform="translate(263.085938 0.529687)"/>
      <use xlink:href="#DejaVuSans-31" transform="translate(294.873047 0.529687)"/>
      <use xlink:href="#DejaVuSans-36" transform="translate(358.496094 0.529687)"/>
      <use xlink:href="#DejaVuSans-Oblique-74" transform="translate(423.076172 38.810937) scale(0.7)"/>
      <use xlink:href="#DejaVuSans-Oblique-68" transform="translate(450.522461 38.810937) scale(0.7)"/>
      <use xlink:href="#DejaVuSans-20" transform="translate(497.62207 0.529687)"/>
      <use xlink:href="#DejaVuSans-61" transform="translate(529.40918 0.529687)"/>
      <use xlink:href="#DejaVuSans-6e" transform="translate(590.688477 0.529687)"/>
      <use xlink:href="#DejaVuSans-64" transform="translate(654.067383 0.529687)"/>
      <use xlink:href="#DejaVuSans-20" transform="translate(717.543945 0.529687)"/>
      <use xlink:href="#DejaVuSans-38" transform="translate(749.331055 0.529687)"/>
      <use xlink:href="#DejaVuSans-34" transform="translate(812.954102 0.529687)"/>
      <use xlink:href="#DejaVuSans-Oblique-74" transform="translate(877.53418 38.810937) scale(0.7)"/>
      <use xlink:href="#DejaVuSans-Oblique-68" transform="translate(904.980469 38.810937) scale(0.7)"/>
      <use xlink:href="#DejaVuSans-20" transform="translate(952.080078 0.529687)"/>
      <use xlink:href="#DejaVuSans-70" transform="translate(983.867188 0.529687)"/>
      <use xlink:href="#DejaVuSans-65" transform="translate(1047.34375 0.529687)"/>
      <use xlink:href="#DejaVuSans-72" transform="translate(1108.867188 0.529687)"/>
      <use xlink:href="#DejaVuSans-63" transform="translate(1149.980469 0.529687)"/>
      <use xlink:href="#DejaVuSans-65" transform="translate(1204.960938 0.529687)"/>
      <use xlink:href="#DejaVuSans-6e" transform="translate(1266.484375 0.529687)"/>
      <use xlink:href="#DejaVuSans-74" transform="translate(1329.863281 0.529687)"/>
      <use xlink:href="#DejaVuSans-69" transform="translate(1369.072266 0.529687)"/>
      <use xlink:href="#DejaVuSans-6c" transform="translate(1396.855469 0.529687)"/>
      <use xlink:href="#DejaVuSans-65" transform="translate(1424.638672 0.529687)"/>
      <use xlink:href="#DejaVuSans-73" transform="translate(1486.162109 0.529687)"/>
     </g>
    </g>
    <g id="line2d_142">
     <path d="M 249.4745 83.7692 
L 257.4745 83.7692 
L 265.4745 83.7692 
" style="fill: none; stroke: #0000ff; stroke-width: 2; stroke-linecap: square"/>
    </g>
    <g id="text_11">
     <!-- Selected GMs median -->
     <g transform="translate(271.8745 86.5692) scale(0.08 -0.08)">
      <use xlink:href="#DejaVuSans-53"/>
      <use xlink:href="#DejaVuSans-65" x="63.476562"/>
      <use xlink:href="#DejaVuSans-6c" x="125"/>
      <use xlink:href="#DejaVuSans-65" x="152.783203"/>
      <use xlink:href="#DejaVuSans-63" x="214.306641"/>
      <use xlink:href="#DejaVuSans-74" x="269.287109"/>
      <use xlink:href="#DejaVuSans-65" x="308.496094"/>
      <use xlink:href="#DejaVuSans-64" x="370.019531"/>
      <use xlink:href="#DejaVuSans-20" x="433.496094"/>
      <use xlink:href="#DejaVuSans-47" x="465.283203"/>
      <use xlink:href="#DejaVuSans-4d" x="542.773438"/>
      <use xlink:href="#DejaVuSans-73" x="629.052734"/>
      <use xlink:href="#DejaVuSans-20" x="681.152344"/>
      <use xlink:href="#DejaVuSans-6d" x="712.939453"/>
      <use xlink:href="#DejaVuSans-65" x="810.351562"/>
      <use xlink:href="#DejaVuSans-64" x="871.875"/>
      <use xlink:href="#DejaVuSans-69" x="935.351562"/>
      <use xlink:href="#DejaVuSans-61" x="963.134766"/>
      <use xlink:href="#DejaVuSans-6e" x="1024.414062"/>
     </g>
    </g>
    <g id="line2d_143">
     <path d="M 249.4745 96.79295 
L 257.4745 96.79295 
L 265.4745 96.79295 
" style="fill: none; stroke-dasharray: 7.4,3.2; stroke-dashoffset: 0; stroke: #0000ff; stroke-width: 2"/>
    </g>
    <g id="text_12">
     <!-- Selected GMs, $16^{th}$ and $84^{th}$ percentiles -->
     <g transform="translate(271.8745 99.59295) scale(0.08 -0.08)">
      <use xlink:href="#DejaVuSans-53" transform="translate(0 0.529687)"/>
      <use xlink:href="#DejaVuSans-65" transform="translate(63.476562 0.529687)"/>
      <use xlink:href="#DejaVuSans-6c" transform="translate(125 0.529687)"/>
      <use xlink:href="#DejaVuSans-65" transform="translate(152.783203 0.529687)"/>
      <use xlink:href="#DejaVuSans-63" transform="translate(214.306641 0.529687)"/>
      <use xlink:href="#DejaVuSans-74" transform="translate(269.287109 0.529687)"/>
      <use xlink:href="#DejaVuSans-65" transform="translate(308.496094 0.529687)"/>
      <use xlink:href="#DejaVuSans-64" transform="translate(370.019531 0.529687)"/>
      <use xlink:href="#DejaVuSans-20" transform="translate(433.496094 0.529687)"/>
      <use xlink:href="#DejaVuSans-47" transform="translate(465.283203 0.529687)"/>
      <use xlink:href="#DejaVuSans-4d" transform="translate(542.773438 0.529687)"/>
      <use xlink:href="#DejaVuSans-73" transform="translate(629.052734 0.529687)"/>
      <use xlink:href="#DejaVuSans-2c" transform="translate(681.152344 0.529687)"/>
      <use xlink:href="#DejaVuSans-20" transform="translate(712.939453 0.529687)"/>
      <use xlink:href="#DejaVuSans-31" transform="translate(744.726562 0.529687)"/>
      <use xlink:href="#DejaVuSans-36" transform="translate(808.349609 0.529687)"/>
      <use xlink:href="#DejaVuSans-Oblique-74" transform="translate(872.929688 38.810937) scale(0.7)"/>
      <use xlink:href="#DejaVuSans-Oblique-68" transform="translate(900.375977 38.810937) scale(0.7)"/>
      <use xlink:href="#DejaVuSans-20" transform="translate(947.475586 0.529687)"/>
      <use xlink:href="#DejaVuSans-61" transform="translate(979.262695 0.529687)"/>
      <use xlink:href="#DejaVuSans-6e" transform="translate(1040.541992 0.529687)"/>
      <use xlink:href="#DejaVuSans-64" transform="translate(1103.920898 0.529687)"/>
      <use xlink:href="#DejaVuSans-20" transform="translate(1167.397461 0.529687)"/>
      <use xlink:href="#DejaVuSans-38" transform="translate(1199.18457 0.529687)"/>
      <use xlink:href="#DejaVuSans-34" transform="translate(1262.807617 0.529687)"/>
      <use xlink:href="#DejaVuSans-Oblique-74" transform="translate(1327.387695 38.810937) scale(0.7)"/>
      <use xlink:href="#DejaVuSans-Oblique-68" transform="translate(1354.833984 38.810937) scale(0.7)"/>
      <use xlink:href="#DejaVuSans-20" transform="translate(1401.933594 0.529687)"/>
      <use xlink:href="#DejaVuSans-70" transform="translate(1433.720703 0.529687)"/>
      <use xlink:href="#DejaVuSans-65" transform="translate(1497.197266 0.529687)"/>
      <use xlink:href="#DejaVuSans-72" transform="translate(1558.720703 0.529687)"/>
      <use xlink:href="#DejaVuSans-63" transform="translate(1599.833984 0.529687)"/>
      <use xlink:href="#DejaVuSans-65" transform="translate(1654.814453 0.529687)"/>
      <use xlink:href="#DejaVuSans-6e" transform="translate(1716.337891 0.529687)"/>
      <use xlink:href="#DejaVuSans-74" transform="translate(1779.716797 0.529687)"/>
      <use xlink:href="#DejaVuSans-69" transform="translate(1818.925781 0.529687)"/>
      <use xlink:href="#DejaVuSans-6c" transform="translate(1846.708984 0.529687)"/>
      <use xlink:href="#DejaVuSans-65" transform="translate(1874.492188 0.529687)"/>
      <use xlink:href="#DejaVuSans-73" transform="translate(1936.015625 0.529687)"/>
     </g>
    </g>
   </g>
  </g>
 </g>
 <defs>
  <clipPath id="pf7da4be76f">
   <rect x="44.7425" y="7.2" width="197.532" height="130.8384"/>
  </clipPath>
 </defs>
</svg>
