<?xml version="1.0" encoding="utf-8" standalone="no"?>
<!DOCTYPE svg PUBLIC "-//W3C//DTD SVG 1.1//EN"
  "http://www.w3.org/Graphics/SVG/1.1/DTD/svg11.dtd">
<svg xmlns:xlink="http://www.w3.org/1999/xlink" width="441.3945pt" height="171.7234pt" viewBox="0 0 441.3945 171.7234" xmlns="http://www.w3.org/2000/svg" version="1.1">
 <metadata>
  <rdf:RDF xmlns:dc="http://purl.org/dc/elements/1.1/" xmlns:cc="http://creativecommons.org/ns#" xmlns:rdf="http://www.w3.org/1999/02/22-rdf-syntax-ns#">
   <cc:Work>
    <dc:type rdf:resource="http://purl.org/dc/dcmitype/StillImage"/>
    <dc:date>2024-11-05T20:40:59.070465</dc:date>
    <dc:format>image/svg+xml</dc:format>
    <dc:creator>
     <cc:Agent>
      <dc:title>Matplotlib v3.8.2, https://matplotlib.org/</dc:title>
     </cc:Agent>
    </dc:creator>
   </cc:Work>
  </rdf:RDF>
 </metadata>
 <defs>
  <style type="text/css">*{stroke-linejoin: round; stroke-linecap: butt}</style>
 </defs>
 <g id="figure_1">
  <g id="patch_1">
   <path d="M 0 171.7234 
L 441.3945 171.7234 
L 441.3945 0 
L 0 0 
z
" style="fill: #ffffff"/>
  </g>
  <g id="axes_1">
   <g id="patch_2">
    <path d="M 44.7425 138.0384 
L 242.2745 138.0384 
L 242.2745 7.2 
L 44.7425 7.2 
z
" style="fill: #ffffff"/>
   </g>
   <g id="matplotlib.axis_1">
    <g id="xtick_1">
     <g id="line2d_1">
      <path d="M 53.721227 138.0384 
L 53.721227 7.2 
" clip-path="url(#pf4e881d65f)" style="fill: none; stroke: #d9d9d9; stroke-width: 0.8; stroke-linecap: square"/>
     </g>
     <g id="line2d_2">
      <defs>
       <path id="m6b93c50407" d="M 0 0 
L 0 3.5 
" style="stroke: #000000; stroke-width: 0.8"/>
      </defs>
      <g>
       <use xlink:href="#m6b93c50407" x="53.721227" y="138.0384" style="stroke: #000000; stroke-width: 0.8"/>
      </g>
     </g>
     <g id="text_1">
      <!-- $\mathdefault{10^{-1}}$ -->
      <g transform="translate(44.321227 151.11715) scale(0.08 -0.08)">
       <defs>
        <path id="DejaVuSans-31" d="M 794 531 
L 1825 531 
L 1825 4091 
L 703 3866 
L 703 4441 
L 1819 4666 
L 2450 4666 
L 2450 531 
L 3481 531 
L 3481 0 
L 794 0 
L 794 531 
z
" transform="scale(0.015625)"/>
        <path id="DejaVuSans-30" d="M 2034 4250 
Q 1547 4250 1301 3770 
Q 1056 3291 1056 2328 
Q 1056 1369 1301 889 
Q 1547 409 2034 409 
Q 2525 409 2770 889 
Q 3016 1369 3016 2328 
Q 3016 3291 2770 3770 
Q 2525 4250 2034 4250 
z
M 2034 4750 
Q 2819 4750 3233 4129 
Q 3647 3509 3647 2328 
Q 3647 1150 3233 529 
Q 2819 -91 2034 -91 
Q 1250 -91 836 529 
Q 422 1150 422 2328 
Q 422 3509 836 4129 
Q 1250 4750 2034 4750 
z
" transform="scale(0.015625)"/>
        <path id="DejaVuSans-2212" d="M 678 2272 
L 4684 2272 
L 4684 1741 
L 678 1741 
L 678 2272 
z
" transform="scale(0.015625)"/>
       </defs>
       <use xlink:href="#DejaVuSans-31" transform="translate(0 0.684375)"/>
       <use xlink:href="#DejaVuSans-30" transform="translate(63.623047 0.684375)"/>
       <use xlink:href="#DejaVuSans-2212" transform="translate(128.203125 38.965625) scale(0.7)"/>
       <use xlink:href="#DejaVuSans-31" transform="translate(186.855469 38.965625) scale(0.7)"/>
      </g>
     </g>
    </g>
    <g id="xtick_2">
     <g id="line2d_3">
      <path d="M 159.417352 138.0384 
L 159.417352 7.2 
" clip-path="url(#pf4e881d65f)" style="fill: none; stroke: #d9d9d9; stroke-width: 0.8; stroke-linecap: square"/>
     </g>
     <g id="line2d_4">
      <g>
       <use xlink:href="#m6b93c50407" x="159.417352" y="138.0384" style="stroke: #000000; stroke-width: 0.8"/>
      </g>
     </g>
     <g id="text_2">
      <!-- $\mathdefault{10^{0}}$ -->
      <g transform="translate(152.377352 151.11715) scale(0.08 -0.08)">
       <use xlink:href="#DejaVuSans-31" transform="translate(0 0.765625)"/>
       <use xlink:href="#DejaVuSans-30" transform="translate(63.623047 0.765625)"/>
       <use xlink:href="#DejaVuSans-30" transform="translate(128.203125 39.046875) scale(0.7)"/>
      </g>
     </g>
    </g>
    <g id="xtick_3">
     <g id="line2d_5">
      <path d="M 48.884838 138.0384 
L 48.884838 7.2 
" clip-path="url(#pf4e881d65f)" style="fill: none; stroke-dasharray: 2.96,1.28; stroke-dashoffset: 0; stroke: #f2f2f2; stroke-width: 0.8"/>
     </g>
     <g id="line2d_6">
      <defs>
       <path id="mb33e3da516" d="M 0 0 
L 0 2 
" style="stroke: #000000; stroke-width: 0.6"/>
      </defs>
      <g>
       <use xlink:href="#mb33e3da516" x="48.884838" y="138.0384" style="stroke: #000000; stroke-width: 0.6"/>
      </g>
     </g>
    </g>
    <g id="xtick_4">
     <g id="line2d_7">
      <path d="M 85.538931 138.0384 
L 85.538931 7.2 
" clip-path="url(#pf4e881d65f)" style="fill: none; stroke-dasharray: 2.96,1.28; stroke-dashoffset: 0; stroke: #f2f2f2; stroke-width: 0.8"/>
     </g>
     <g id="line2d_8">
      <g>
       <use xlink:href="#mb33e3da516" x="85.538931" y="138.0384" style="stroke: #000000; stroke-width: 0.6"/>
      </g>
     </g>
    </g>
    <g id="xtick_5">
     <g id="line2d_9">
      <path d="M 104.151095 138.0384 
L 104.151095 7.2 
" clip-path="url(#pf4e881d65f)" style="fill: none; stroke-dasharray: 2.96,1.28; stroke-dashoffset: 0; stroke: #f2f2f2; stroke-width: 0.8"/>
     </g>
     <g id="line2d_10">
      <g>
       <use xlink:href="#mb33e3da516" x="104.151095" y="138.0384" style="stroke: #000000; stroke-width: 0.6"/>
      </g>
     </g>
    </g>
    <g id="xtick_6">
     <g id="line2d_11">
      <path d="M 117.356635 138.0384 
L 117.356635 7.2 
" clip-path="url(#pf4e881d65f)" style="fill: none; stroke-dasharray: 2.96,1.28; stroke-dashoffset: 0; stroke: #f2f2f2; stroke-width: 0.8"/>
     </g>
     <g id="line2d_12">
      <g>
       <use xlink:href="#mb33e3da516" x="117.356635" y="138.0384" style="stroke: #000000; stroke-width: 0.6"/>
      </g>
     </g>
    </g>
    <g id="xtick_7">
     <g id="line2d_13">
      <path d="M 127.599648 138.0384 
L 127.599648 7.2 
" clip-path="url(#pf4e881d65f)" style="fill: none; stroke-dasharray: 2.96,1.28; stroke-dashoffset: 0; stroke: #f2f2f2; stroke-width: 0.8"/>
     </g>
     <g id="line2d_14">
      <g>
       <use xlink:href="#mb33e3da516" x="127.599648" y="138.0384" style="stroke: #000000; stroke-width: 0.6"/>
      </g>
     </g>
    </g>
    <g id="xtick_8">
     <g id="line2d_15">
      <path d="M 135.968799 138.0384 
L 135.968799 7.2 
" clip-path="url(#pf4e881d65f)" style="fill: none; stroke-dasharray: 2.96,1.28; stroke-dashoffset: 0; stroke: #f2f2f2; stroke-width: 0.8"/>
     </g>
     <g id="line2d_16">
      <g>
       <use xlink:href="#mb33e3da516" x="135.968799" y="138.0384" style="stroke: #000000; stroke-width: 0.6"/>
      </g>
     </g>
    </g>
    <g id="xtick_9">
     <g id="line2d_17">
      <path d="M 143.044815 138.0384 
L 143.044815 7.2 
" clip-path="url(#pf4e881d65f)" style="fill: none; stroke-dasharray: 2.96,1.28; stroke-dashoffset: 0; stroke: #f2f2f2; stroke-width: 0.8"/>
     </g>
     <g id="line2d_18">
      <g>
       <use xlink:href="#mb33e3da516" x="143.044815" y="138.0384" style="stroke: #000000; stroke-width: 0.6"/>
      </g>
     </g>
    </g>
    <g id="xtick_10">
     <g id="line2d_19">
      <path d="M 149.174339 138.0384 
L 149.174339 7.2 
" clip-path="url(#pf4e881d65f)" style="fill: none; stroke-dasharray: 2.96,1.28; stroke-dashoffset: 0; stroke: #f2f2f2; stroke-width: 0.8"/>
     </g>
     <g id="line2d_20">
      <g>
       <use xlink:href="#mb33e3da516" x="149.174339" y="138.0384" style="stroke: #000000; stroke-width: 0.6"/>
      </g>
     </g>
    </g>
    <g id="xtick_11">
     <g id="line2d_21">
      <path d="M 154.580963 138.0384 
L 154.580963 7.2 
" clip-path="url(#pf4e881d65f)" style="fill: none; stroke-dasharray: 2.96,1.28; stroke-dashoffset: 0; stroke: #f2f2f2; stroke-width: 0.8"/>
     </g>
     <g id="line2d_22">
      <g>
       <use xlink:href="#mb33e3da516" x="154.580963" y="138.0384" style="stroke: #000000; stroke-width: 0.6"/>
      </g>
     </g>
    </g>
    <g id="xtick_12">
     <g id="line2d_23">
      <path d="M 191.235056 138.0384 
L 191.235056 7.2 
" clip-path="url(#pf4e881d65f)" style="fill: none; stroke-dasharray: 2.96,1.28; stroke-dashoffset: 0; stroke: #f2f2f2; stroke-width: 0.8"/>
     </g>
     <g id="line2d_24">
      <g>
       <use xlink:href="#mb33e3da516" x="191.235056" y="138.0384" style="stroke: #000000; stroke-width: 0.6"/>
      </g>
     </g>
    </g>
    <g id="xtick_13">
     <g id="line2d_25">
      <path d="M 209.84722 138.0384 
L 209.84722 7.2 
" clip-path="url(#pf4e881d65f)" style="fill: none; stroke-dasharray: 2.96,1.28; stroke-dashoffset: 0; stroke: #f2f2f2; stroke-width: 0.8"/>
     </g>
     <g id="line2d_26">
      <g>
       <use xlink:href="#mb33e3da516" x="209.84722" y="138.0384" style="stroke: #000000; stroke-width: 0.6"/>
      </g>
     </g>
    </g>
    <g id="xtick_14">
     <g id="line2d_27">
      <path d="M 223.05276 138.0384 
L 223.05276 7.2 
" clip-path="url(#pf4e881d65f)" style="fill: none; stroke-dasharray: 2.96,1.28; stroke-dashoffset: 0; stroke: #f2f2f2; stroke-width: 0.8"/>
     </g>
     <g id="line2d_28">
      <g>
       <use xlink:href="#mb33e3da516" x="223.05276" y="138.0384" style="stroke: #000000; stroke-width: 0.6"/>
      </g>
     </g>
    </g>
    <g id="xtick_15">
     <g id="line2d_29">
      <path d="M 233.295773 138.0384 
L 233.295773 7.2 
" clip-path="url(#pf4e881d65f)" style="fill: none; stroke-dasharray: 2.96,1.28; stroke-dashoffset: 0; stroke: #f2f2f2; stroke-width: 0.8"/>
     </g>
     <g id="line2d_30">
      <g>
       <use xlink:href="#mb33e3da516" x="233.295773" y="138.0384" style="stroke: #000000; stroke-width: 0.6"/>
      </g>
     </g>
    </g>
    <g id="xtick_16">
     <g id="line2d_31">
      <path d="M 241.664924 138.0384 
L 241.664924 7.2 
" clip-path="url(#pf4e881d65f)" style="fill: none; stroke-dasharray: 2.96,1.28; stroke-dashoffset: 0; stroke: #f2f2f2; stroke-width: 0.8"/>
     </g>
     <g id="line2d_32">
      <g>
       <use xlink:href="#mb33e3da516" x="241.664924" y="138.0384" style="stroke: #000000; stroke-width: 0.6"/>
      </g>
     </g>
    </g>
    <g id="text_3">
     <!-- Period, T (s) -->
     <g transform="translate(119.576 162.85965) scale(0.08 -0.08)">
      <defs>
       <path id="DejaVuSans-50" d="M 1259 4147 
L 1259 2394 
L 2053 2394 
Q 2494 2394 2734 2622 
Q 2975 2850 2975 3272 
Q 2975 3691 2734 3919 
Q 2494 4147 2053 4147 
L 1259 4147 
z
M 628 4666 
L 2053 4666 
Q 2838 4666 3239 4311 
Q 3641 3956 3641 3272 
Q 3641 2581 3239 2228 
Q 2838 1875 2053 1875 
L 1259 1875 
L 1259 0 
L 628 0 
L 628 4666 
z
" transform="scale(0.015625)"/>
       <path id="DejaVuSans-65" d="M 3597 1894 
L 3597 1613 
L 953 1613 
Q 991 1019 1311 708 
Q 1631 397 2203 397 
Q 2534 397 2845 478 
Q 3156 559 3463 722 
L 3463 178 
Q 3153 47 2828 -22 
Q 2503 -91 2169 -91 
Q 1331 -91 842 396 
Q 353 884 353 1716 
Q 353 2575 817 3079 
Q 1281 3584 2069 3584 
Q 2775 3584 3186 3129 
Q 3597 2675 3597 1894 
z
M 3022 2063 
Q 3016 2534 2758 2815 
Q 2500 3097 2075 3097 
Q 1594 3097 1305 2825 
Q 1016 2553 972 2059 
L 3022 2063 
z
" transform="scale(0.015625)"/>
       <path id="DejaVuSans-72" d="M 2631 2963 
Q 2534 3019 2420 3045 
Q 2306 3072 2169 3072 
Q 1681 3072 1420 2755 
Q 1159 2438 1159 1844 
L 1159 0 
L 581 0 
L 581 3500 
L 1159 3500 
L 1159 2956 
Q 1341 3275 1631 3429 
Q 1922 3584 2338 3584 
Q 2397 3584 2469 3576 
Q 2541 3569 2628 3553 
L 2631 2963 
z
" transform="scale(0.015625)"/>
       <path id="DejaVuSans-69" d="M 603 3500 
L 1178 3500 
L 1178 0 
L 603 0 
L 603 3500 
z
M 603 4863 
L 1178 4863 
L 1178 4134 
L 603 4134 
L 603 4863 
z
" transform="scale(0.015625)"/>
       <path id="DejaVuSans-6f" d="M 1959 3097 
Q 1497 3097 1228 2736 
Q 959 2375 959 1747 
Q 959 1119 1226 758 
Q 1494 397 1959 397 
Q 2419 397 2687 759 
Q 2956 1122 2956 1747 
Q 2956 2369 2687 2733 
Q 2419 3097 1959 3097 
z
M 1959 3584 
Q 2709 3584 3137 3096 
Q 3566 2609 3566 1747 
Q 3566 888 3137 398 
Q 2709 -91 1959 -91 
Q 1206 -91 779 398 
Q 353 888 353 1747 
Q 353 2609 779 3096 
Q 1206 3584 1959 3584 
z
" transform="scale(0.015625)"/>
       <path id="DejaVuSans-64" d="M 2906 2969 
L 2906 4863 
L 3481 4863 
L 3481 0 
L 2906 0 
L 2906 525 
Q 2725 213 2448 61 
Q 2172 -91 1784 -91 
Q 1150 -91 751 415 
Q 353 922 353 1747 
Q 353 2572 751 3078 
Q 1150 3584 1784 3584 
Q 2172 3584 2448 3432 
Q 2725 3281 2906 2969 
z
M 947 1747 
Q 947 1113 1208 752 
Q 1469 391 1925 391 
Q 2381 391 2643 752 
Q 2906 1113 2906 1747 
Q 2906 2381 2643 2742 
Q 2381 3103 1925 3103 
Q 1469 3103 1208 2742 
Q 947 2381 947 1747 
z
" transform="scale(0.015625)"/>
       <path id="DejaVuSans-2c" d="M 750 794 
L 1409 794 
L 1409 256 
L 897 -744 
L 494 -744 
L 750 256 
L 750 794 
z
" transform="scale(0.015625)"/>
       <path id="DejaVuSans-20" transform="scale(0.015625)"/>
       <path id="DejaVuSans-54" d="M -19 4666 
L 3928 4666 
L 3928 4134 
L 2272 4134 
L 2272 0 
L 1638 0 
L 1638 4134 
L -19 4134 
L -19 4666 
z
" transform="scale(0.015625)"/>
       <path id="DejaVuSans-28" d="M 1984 4856 
Q 1566 4138 1362 3434 
Q 1159 2731 1159 2009 
Q 1159 1288 1364 580 
Q 1569 -128 1984 -844 
L 1484 -844 
Q 1016 -109 783 600 
Q 550 1309 550 2009 
Q 550 2706 781 3412 
Q 1013 4119 1484 4856 
L 1984 4856 
z
" transform="scale(0.015625)"/>
       <path id="DejaVuSans-73" d="M 2834 3397 
L 2834 2853 
Q 2591 2978 2328 3040 
Q 2066 3103 1784 3103 
Q 1356 3103 1142 2972 
Q 928 2841 928 2578 
Q 928 2378 1081 2264 
Q 1234 2150 1697 2047 
L 1894 2003 
Q 2506 1872 2764 1633 
Q 3022 1394 3022 966 
Q 3022 478 2636 193 
Q 2250 -91 1575 -91 
Q 1294 -91 989 -36 
Q 684 19 347 128 
L 347 722 
Q 666 556 975 473 
Q 1284 391 1588 391 
Q 1994 391 2212 530 
Q 2431 669 2431 922 
Q 2431 1156 2273 1281 
Q 2116 1406 1581 1522 
L 1381 1569 
Q 847 1681 609 1914 
Q 372 2147 372 2553 
Q 372 3047 722 3315 
Q 1072 3584 1716 3584 
Q 2034 3584 2315 3537 
Q 2597 3491 2834 3397 
z
" transform="scale(0.015625)"/>
       <path id="DejaVuSans-29" d="M 513 4856 
L 1013 4856 
Q 1481 4119 1714 3412 
Q 1947 2706 1947 2009 
Q 1947 1309 1714 600 
Q 1481 -109 1013 -844 
L 513 -844 
Q 928 -128 1133 580 
Q 1338 1288 1338 2009 
Q 1338 2731 1133 3434 
Q 928 4138 513 4856 
z
" transform="scale(0.015625)"/>
      </defs>
      <use xlink:href="#DejaVuSans-50"/>
      <use xlink:href="#DejaVuSans-65" x="56.677734"/>
      <use xlink:href="#DejaVuSans-72" x="118.201172"/>
      <use xlink:href="#DejaVuSans-69" x="159.314453"/>
      <use xlink:href="#DejaVuSans-6f" x="187.097656"/>
      <use xlink:href="#DejaVuSans-64" x="248.279297"/>
      <use xlink:href="#DejaVuSans-2c" x="311.755859"/>
      <use xlink:href="#DejaVuSans-20" x="343.542969"/>
      <use xlink:href="#DejaVuSans-54" x="375.330078"/>
      <use xlink:href="#DejaVuSans-20" x="436.414062"/>
      <use xlink:href="#DejaVuSans-28" x="468.201172"/>
      <use xlink:href="#DejaVuSans-73" x="507.214844"/>
      <use xlink:href="#DejaVuSans-29" x="559.314453"/>
     </g>
    </g>
   </g>
   <g id="matplotlib.axis_2">
    <g id="ytick_1">
     <g id="line2d_33">
      <path d="M 44.7425 95.170182 
L 242.2745 95.170182 
" clip-path="url(#pf4e881d65f)" style="fill: none; stroke: #d9d9d9; stroke-width: 0.8; stroke-linecap: square"/>
     </g>
     <g id="line2d_34">
      <defs>
       <path id="me47fa88e80" d="M 0 0 
L -3.5 0 
" style="stroke: #000000; stroke-width: 0.8"/>
      </defs>
      <g>
       <use xlink:href="#me47fa88e80" x="44.7425" y="95.170182" style="stroke: #000000; stroke-width: 0.8"/>
      </g>
     </g>
     <g id="text_4">
      <!-- $\mathdefault{10^{-1}}$ -->
      <g transform="translate(18.9425 98.209557) scale(0.08 -0.08)">
       <use xlink:href="#DejaVuSans-31" transform="translate(0 0.684375)"/>
       <use xlink:href="#DejaVuSans-30" transform="translate(63.623047 0.684375)"/>
       <use xlink:href="#DejaVuSans-2212" transform="translate(128.203125 38.965625) scale(0.7)"/>
       <use xlink:href="#DejaVuSans-31" transform="translate(186.855469 38.965625) scale(0.7)"/>
      </g>
     </g>
    </g>
    <g id="ytick_2">
     <g id="line2d_35">
      <path d="M 44.7425 42.880681 
L 242.2745 42.880681 
" clip-path="url(#pf4e881d65f)" style="fill: none; stroke: #d9d9d9; stroke-width: 0.8; stroke-linecap: square"/>
     </g>
     <g id="line2d_36">
      <g>
       <use xlink:href="#me47fa88e80" x="44.7425" y="42.880681" style="stroke: #000000; stroke-width: 0.8"/>
      </g>
     </g>
     <g id="text_5">
      <!-- $\mathdefault{10^{0}}$ -->
      <g transform="translate(23.6625 45.920056) scale(0.08 -0.08)">
       <use xlink:href="#DejaVuSans-31" transform="translate(0 0.765625)"/>
       <use xlink:href="#DejaVuSans-30" transform="translate(63.623047 0.765625)"/>
       <use xlink:href="#DejaVuSans-30" transform="translate(128.203125 39.046875) scale(0.7)"/>
      </g>
     </g>
    </g>
    <g id="ytick_3">
     <g id="line2d_37">
      <path d="M 44.7425 131.718974 
L 242.2745 131.718974 
" clip-path="url(#pf4e881d65f)" style="fill: none; stroke-dasharray: 2.96,1.28; stroke-dashoffset: 0; stroke: #f2f2f2; stroke-width: 0.8"/>
     </g>
     <g id="line2d_38">
      <defs>
       <path id="m6177e65004" d="M 0 0 
L -2 0 
" style="stroke: #000000; stroke-width: 0.6"/>
      </defs>
      <g>
       <use xlink:href="#m6177e65004" x="44.7425" y="131.718974" style="stroke: #000000; stroke-width: 0.6"/>
      </g>
     </g>
    </g>
    <g id="ytick_4">
     <g id="line2d_39">
      <path d="M 44.7425 122.51125 
L 242.2745 122.51125 
" clip-path="url(#pf4e881d65f)" style="fill: none; stroke-dasharray: 2.96,1.28; stroke-dashoffset: 0; stroke: #f2f2f2; stroke-width: 0.8"/>
     </g>
     <g id="line2d_40">
      <g>
       <use xlink:href="#m6177e65004" x="44.7425" y="122.51125" style="stroke: #000000; stroke-width: 0.6"/>
      </g>
     </g>
    </g>
    <g id="ytick_5">
     <g id="line2d_41">
      <path d="M 44.7425 115.978266 
L 242.2745 115.978266 
" clip-path="url(#pf4e881d65f)" style="fill: none; stroke-dasharray: 2.96,1.28; stroke-dashoffset: 0; stroke: #f2f2f2; stroke-width: 0.8"/>
     </g>
     <g id="line2d_42">
      <g>
       <use xlink:href="#m6177e65004" x="44.7425" y="115.978266" style="stroke: #000000; stroke-width: 0.6"/>
      </g>
     </g>
    </g>
    <g id="ytick_6">
     <g id="line2d_43">
      <path d="M 44.7425 110.91089 
L 242.2745 110.91089 
" clip-path="url(#pf4e881d65f)" style="fill: none; stroke-dasharray: 2.96,1.28; stroke-dashoffset: 0; stroke: #f2f2f2; stroke-width: 0.8"/>
     </g>
     <g id="line2d_44">
      <g>
       <use xlink:href="#m6177e65004" x="44.7425" y="110.91089" style="stroke: #000000; stroke-width: 0.6"/>
      </g>
     </g>
    </g>
    <g id="ytick_7">
     <g id="line2d_45">
      <path d="M 44.7425 106.770542 
L 242.2745 106.770542 
" clip-path="url(#pf4e881d65f)" style="fill: none; stroke-dasharray: 2.96,1.28; stroke-dashoffset: 0; stroke: #f2f2f2; stroke-width: 0.8"/>
     </g>
     <g id="line2d_46">
      <g>
       <use xlink:href="#m6177e65004" x="44.7425" y="106.770542" style="stroke: #000000; stroke-width: 0.6"/>
      </g>
     </g>
    </g>
    <g id="ytick_8">
     <g id="line2d_47">
      <path d="M 44.7425 103.269928 
L 242.2745 103.269928 
" clip-path="url(#pf4e881d65f)" style="fill: none; stroke-dasharray: 2.96,1.28; stroke-dashoffset: 0; stroke: #f2f2f2; stroke-width: 0.8"/>
     </g>
     <g id="line2d_48">
      <g>
       <use xlink:href="#m6177e65004" x="44.7425" y="103.269928" style="stroke: #000000; stroke-width: 0.6"/>
      </g>
     </g>
    </g>
    <g id="ytick_9">
     <g id="line2d_49">
      <path d="M 44.7425 100.237558 
L 242.2745 100.237558 
" clip-path="url(#pf4e881d65f)" style="fill: none; stroke-dasharray: 2.96,1.28; stroke-dashoffset: 0; stroke: #f2f2f2; stroke-width: 0.8"/>
     </g>
     <g id="line2d_50">
      <g>
       <use xlink:href="#m6177e65004" x="44.7425" y="100.237558" style="stroke: #000000; stroke-width: 0.6"/>
      </g>
     </g>
    </g>
    <g id="ytick_10">
     <g id="line2d_51">
      <path d="M 44.7425 97.562818 
L 242.2745 97.562818 
" clip-path="url(#pf4e881d65f)" style="fill: none; stroke-dasharray: 2.96,1.28; stroke-dashoffset: 0; stroke: #f2f2f2; stroke-width: 0.8"/>
     </g>
     <g id="line2d_52">
      <g>
       <use xlink:href="#m6177e65004" x="44.7425" y="97.562818" style="stroke: #000000; stroke-width: 0.6"/>
      </g>
     </g>
    </g>
    <g id="ytick_11">
     <g id="line2d_53">
      <path d="M 44.7425 79.429474 
L 242.2745 79.429474 
" clip-path="url(#pf4e881d65f)" style="fill: none; stroke-dasharray: 2.96,1.28; stroke-dashoffset: 0; stroke: #f2f2f2; stroke-width: 0.8"/>
     </g>
     <g id="line2d_54">
      <g>
       <use xlink:href="#m6177e65004" x="44.7425" y="79.429474" style="stroke: #000000; stroke-width: 0.6"/>
      </g>
     </g>
    </g>
    <g id="ytick_12">
     <g id="line2d_55">
      <path d="M 44.7425 70.221749 
L 242.2745 70.221749 
" clip-path="url(#pf4e881d65f)" style="fill: none; stroke-dasharray: 2.96,1.28; stroke-dashoffset: 0; stroke: #f2f2f2; stroke-width: 0.8"/>
     </g>
     <g id="line2d_56">
      <g>
       <use xlink:href="#m6177e65004" x="44.7425" y="70.221749" style="stroke: #000000; stroke-width: 0.6"/>
      </g>
     </g>
    </g>
    <g id="ytick_13">
     <g id="line2d_57">
      <path d="M 44.7425 63.688765 
L 242.2745 63.688765 
" clip-path="url(#pf4e881d65f)" style="fill: none; stroke-dasharray: 2.96,1.28; stroke-dashoffset: 0; stroke: #f2f2f2; stroke-width: 0.8"/>
     </g>
     <g id="line2d_58">
      <g>
       <use xlink:href="#m6177e65004" x="44.7425" y="63.688765" style="stroke: #000000; stroke-width: 0.6"/>
      </g>
     </g>
    </g>
    <g id="ytick_14">
     <g id="line2d_59">
      <path d="M 44.7425 58.621389 
L 242.2745 58.621389 
" clip-path="url(#pf4e881d65f)" style="fill: none; stroke-dasharray: 2.96,1.28; stroke-dashoffset: 0; stroke: #f2f2f2; stroke-width: 0.8"/>
     </g>
     <g id="line2d_60">
      <g>
       <use xlink:href="#m6177e65004" x="44.7425" y="58.621389" style="stroke: #000000; stroke-width: 0.6"/>
      </g>
     </g>
    </g>
    <g id="ytick_15">
     <g id="line2d_61">
      <path d="M 44.7425 54.481041 
L 242.2745 54.481041 
" clip-path="url(#pf4e881d65f)" style="fill: none; stroke-dasharray: 2.96,1.28; stroke-dashoffset: 0; stroke: #f2f2f2; stroke-width: 0.8"/>
     </g>
     <g id="line2d_62">
      <g>
       <use xlink:href="#m6177e65004" x="44.7425" y="54.481041" style="stroke: #000000; stroke-width: 0.6"/>
      </g>
     </g>
    </g>
    <g id="ytick_16">
     <g id="line2d_63">
      <path d="M 44.7425 50.980427 
L 242.2745 50.980427 
" clip-path="url(#pf4e881d65f)" style="fill: none; stroke-dasharray: 2.96,1.28; stroke-dashoffset: 0; stroke: #f2f2f2; stroke-width: 0.8"/>
     </g>
     <g id="line2d_64">
      <g>
       <use xlink:href="#m6177e65004" x="44.7425" y="50.980427" style="stroke: #000000; stroke-width: 0.6"/>
      </g>
     </g>
    </g>
    <g id="ytick_17">
     <g id="line2d_65">
      <path d="M 44.7425 47.948057 
L 242.2745 47.948057 
" clip-path="url(#pf4e881d65f)" style="fill: none; stroke-dasharray: 2.96,1.28; stroke-dashoffset: 0; stroke: #f2f2f2; stroke-width: 0.8"/>
     </g>
     <g id="line2d_66">
      <g>
       <use xlink:href="#m6177e65004" x="44.7425" y="47.948057" style="stroke: #000000; stroke-width: 0.6"/>
      </g>
     </g>
    </g>
    <g id="ytick_18">
     <g id="line2d_67">
      <path d="M 44.7425 45.273317 
L 242.2745 45.273317 
" clip-path="url(#pf4e881d65f)" style="fill: none; stroke-dasharray: 2.96,1.28; stroke-dashoffset: 0; stroke: #f2f2f2; stroke-width: 0.8"/>
     </g>
     <g id="line2d_68">
      <g>
       <use xlink:href="#m6177e65004" x="44.7425" y="45.273317" style="stroke: #000000; stroke-width: 0.6"/>
      </g>
     </g>
    </g>
    <g id="ytick_19">
     <g id="line2d_69">
      <path d="M 44.7425 27.139973 
L 242.2745 27.139973 
" clip-path="url(#pf4e881d65f)" style="fill: none; stroke-dasharray: 2.96,1.28; stroke-dashoffset: 0; stroke: #f2f2f2; stroke-width: 0.8"/>
     </g>
     <g id="line2d_70">
      <g>
       <use xlink:href="#m6177e65004" x="44.7425" y="27.139973" style="stroke: #000000; stroke-width: 0.6"/>
      </g>
     </g>
    </g>
    <g id="ytick_20">
     <g id="line2d_71">
      <path d="M 44.7425 17.932249 
L 242.2745 17.932249 
" clip-path="url(#pf4e881d65f)" style="fill: none; stroke-dasharray: 2.96,1.28; stroke-dashoffset: 0; stroke: #f2f2f2; stroke-width: 0.8"/>
     </g>
     <g id="line2d_72">
      <g>
       <use xlink:href="#m6177e65004" x="44.7425" y="17.932249" style="stroke: #000000; stroke-width: 0.6"/>
      </g>
     </g>
    </g>
    <g id="ytick_21">
     <g id="line2d_73">
      <path d="M 44.7425 11.399264 
L 242.2745 11.399264 
" clip-path="url(#pf4e881d65f)" style="fill: none; stroke-dasharray: 2.96,1.28; stroke-dashoffset: 0; stroke: #f2f2f2; stroke-width: 0.8"/>
     </g>
     <g id="line2d_74">
      <g>
       <use xlink:href="#m6177e65004" x="44.7425" y="11.399264" style="stroke: #000000; stroke-width: 0.6"/>
      </g>
     </g>
    </g>
    <g id="text_6">
     <!-- Spectral acceleration, SA (g) -->
     <g transform="translate(13.27875 129.871075) rotate(-90) scale(0.08 -0.08)">
      <defs>
       <path id="DejaVuSans-53" d="M 3425 4513 
L 3425 3897 
Q 3066 4069 2747 4153 
Q 2428 4238 2131 4238 
Q 1616 4238 1336 4038 
Q 1056 3838 1056 3469 
Q 1056 3159 1242 3001 
Q 1428 2844 1947 2747 
L 2328 2669 
Q 3034 2534 3370 2195 
Q 3706 1856 3706 1288 
Q 3706 609 3251 259 
Q 2797 -91 1919 -91 
Q 1588 -91 1214 -16 
Q 841 59 441 206 
L 441 856 
Q 825 641 1194 531 
Q 1563 422 1919 422 
Q 2459 422 2753 634 
Q 3047 847 3047 1241 
Q 3047 1584 2836 1778 
Q 2625 1972 2144 2069 
L 1759 2144 
Q 1053 2284 737 2584 
Q 422 2884 422 3419 
Q 422 4038 858 4394 
Q 1294 4750 2059 4750 
Q 2388 4750 2728 4690 
Q 3069 4631 3425 4513 
z
" transform="scale(0.015625)"/>
       <path id="DejaVuSans-70" d="M 1159 525 
L 1159 -1331 
L 581 -1331 
L 581 3500 
L 1159 3500 
L 1159 2969 
Q 1341 3281 1617 3432 
Q 1894 3584 2278 3584 
Q 2916 3584 3314 3078 
Q 3713 2572 3713 1747 
Q 3713 922 3314 415 
Q 2916 -91 2278 -91 
Q 1894 -91 1617 61 
Q 1341 213 1159 525 
z
M 3116 1747 
Q 3116 2381 2855 2742 
Q 2594 3103 2138 3103 
Q 1681 3103 1420 2742 
Q 1159 2381 1159 1747 
Q 1159 1113 1420 752 
Q 1681 391 2138 391 
Q 2594 391 2855 752 
Q 3116 1113 3116 1747 
z
" transform="scale(0.015625)"/>
       <path id="DejaVuSans-63" d="M 3122 3366 
L 3122 2828 
Q 2878 2963 2633 3030 
Q 2388 3097 2138 3097 
Q 1578 3097 1268 2742 
Q 959 2388 959 1747 
Q 959 1106 1268 751 
Q 1578 397 2138 397 
Q 2388 397 2633 464 
Q 2878 531 3122 666 
L 3122 134 
Q 2881 22 2623 -34 
Q 2366 -91 2075 -91 
Q 1284 -91 818 406 
Q 353 903 353 1747 
Q 353 2603 823 3093 
Q 1294 3584 2113 3584 
Q 2378 3584 2631 3529 
Q 2884 3475 3122 3366 
z
" transform="scale(0.015625)"/>
       <path id="DejaVuSans-74" d="M 1172 4494 
L 1172 3500 
L 2356 3500 
L 2356 3053 
L 1172 3053 
L 1172 1153 
Q 1172 725 1289 603 
Q 1406 481 1766 481 
L 2356 481 
L 2356 0 
L 1766 0 
Q 1100 0 847 248 
Q 594 497 594 1153 
L 594 3053 
L 172 3053 
L 172 3500 
L 594 3500 
L 594 4494 
L 1172 4494 
z
" transform="scale(0.015625)"/>
       <path id="DejaVuSans-61" d="M 2194 1759 
Q 1497 1759 1228 1600 
Q 959 1441 959 1056 
Q 959 750 1161 570 
Q 1363 391 1709 391 
Q 2188 391 2477 730 
Q 2766 1069 2766 1631 
L 2766 1759 
L 2194 1759 
z
M 3341 1997 
L 3341 0 
L 2766 0 
L 2766 531 
Q 2569 213 2275 61 
Q 1981 -91 1556 -91 
Q 1019 -91 701 211 
Q 384 513 384 1019 
Q 384 1609 779 1909 
Q 1175 2209 1959 2209 
L 2766 2209 
L 2766 2266 
Q 2766 2663 2505 2880 
Q 2244 3097 1772 3097 
Q 1472 3097 1187 3025 
Q 903 2953 641 2809 
L 641 3341 
Q 956 3463 1253 3523 
Q 1550 3584 1831 3584 
Q 2591 3584 2966 3190 
Q 3341 2797 3341 1997 
z
" transform="scale(0.015625)"/>
       <path id="DejaVuSans-6c" d="M 603 4863 
L 1178 4863 
L 1178 0 
L 603 0 
L 603 4863 
z
" transform="scale(0.015625)"/>
       <path id="DejaVuSans-6e" d="M 3513 2113 
L 3513 0 
L 2938 0 
L 2938 2094 
Q 2938 2591 2744 2837 
Q 2550 3084 2163 3084 
Q 1697 3084 1428 2787 
Q 1159 2491 1159 1978 
L 1159 0 
L 581 0 
L 581 3500 
L 1159 3500 
L 1159 2956 
Q 1366 3272 1645 3428 
Q 1925 3584 2291 3584 
Q 2894 3584 3203 3211 
Q 3513 2838 3513 2113 
z
" transform="scale(0.015625)"/>
       <path id="DejaVuSans-41" d="M 2188 4044 
L 1331 1722 
L 3047 1722 
L 2188 4044 
z
M 1831 4666 
L 2547 4666 
L 4325 0 
L 3669 0 
L 3244 1197 
L 1141 1197 
L 716 0 
L 50 0 
L 1831 4666 
z
" transform="scale(0.015625)"/>
       <path id="DejaVuSans-67" d="M 2906 1791 
Q 2906 2416 2648 2759 
Q 2391 3103 1925 3103 
Q 1463 3103 1205 2759 
Q 947 2416 947 1791 
Q 947 1169 1205 825 
Q 1463 481 1925 481 
Q 2391 481 2648 825 
Q 2906 1169 2906 1791 
z
M 3481 434 
Q 3481 -459 3084 -895 
Q 2688 -1331 1869 -1331 
Q 1566 -1331 1297 -1286 
Q 1028 -1241 775 -1147 
L 775 -588 
Q 1028 -725 1275 -790 
Q 1522 -856 1778 -856 
Q 2344 -856 2625 -561 
Q 2906 -266 2906 331 
L 2906 616 
Q 2728 306 2450 153 
Q 2172 0 1784 0 
Q 1141 0 747 490 
Q 353 981 353 1791 
Q 353 2603 747 3093 
Q 1141 3584 1784 3584 
Q 2172 3584 2450 3431 
Q 2728 3278 2906 2969 
L 2906 3500 
L 3481 3500 
L 3481 434 
z
" transform="scale(0.015625)"/>
      </defs>
      <use xlink:href="#DejaVuSans-53"/>
      <use xlink:href="#DejaVuSans-70" x="63.476562"/>
      <use xlink:href="#DejaVuSans-65" x="126.953125"/>
      <use xlink:href="#DejaVuSans-63" x="188.476562"/>
      <use xlink:href="#DejaVuSans-74" x="243.457031"/>
      <use xlink:href="#DejaVuSans-72" x="282.666016"/>
      <use xlink:href="#DejaVuSans-61" x="323.779297"/>
      <use xlink:href="#DejaVuSans-6c" x="385.058594"/>
      <use xlink:href="#DejaVuSans-20" x="412.841797"/>
      <use xlink:href="#DejaVuSans-61" x="444.628906"/>
      <use xlink:href="#DejaVuSans-63" x="505.908203"/>
      <use xlink:href="#DejaVuSans-63" x="560.888672"/>
      <use xlink:href="#DejaVuSans-65" x="615.869141"/>
      <use xlink:href="#DejaVuSans-6c" x="677.392578"/>
      <use xlink:href="#DejaVuSans-65" x="705.175781"/>
      <use xlink:href="#DejaVuSans-72" x="766.699219"/>
      <use xlink:href="#DejaVuSans-61" x="807.8125"/>
      <use xlink:href="#DejaVuSans-74" x="869.091797"/>
      <use xlink:href="#DejaVuSans-69" x="908.300781"/>
      <use xlink:href="#DejaVuSans-6f" x="936.083984"/>
      <use xlink:href="#DejaVuSans-6e" x="997.265625"/>
      <use xlink:href="#DejaVuSans-2c" x="1060.644531"/>
      <use xlink:href="#DejaVuSans-20" x="1092.431641"/>
      <use xlink:href="#DejaVuSans-53" x="1124.21875"/>
      <use xlink:href="#DejaVuSans-41" x="1189.570312"/>
      <use xlink:href="#DejaVuSans-20" x="1257.978516"/>
      <use xlink:href="#DejaVuSans-28" x="1289.765625"/>
      <use xlink:href="#DejaVuSans-67" x="1328.779297"/>
      <use xlink:href="#DejaVuSans-29" x="1392.255859"/>
     </g>
    </g>
   </g>
   <g id="line2d_75">
    <path d="M 53.721227 59.405713 
L 72.333391 49.838168 
L 85.538931 46.453025 
L 95.781944 40.974914 
L 104.151095 36.341636 
L 117.356635 52.66479 
L 127.045477 57.730724 
L 127.599648 58.145315 
L 146.211812 50.635094 
L 159.417352 50.122773 
L 171.460723 37.283624 
L 178.029516 40.017879 
L 191.235056 64.2653 
L 209.84722 83.727051 
L 223.05276 97.350137 
L 233.295773 117.587178 
" clip-path="url(#pf4e881d65f)" style="fill: none; stroke: #b2b2b2; stroke-width: 0.8; stroke-linecap: square"/>
   </g>
   <g id="line2d_76">
    <path d="M 53.721227 58.489966 
L 72.333391 56.857548 
L 85.538931 58.832455 
L 95.781944 56.80857 
L 104.151095 64.261052 
L 117.356635 56.52136 
L 127.045477 57.730724 
L 127.599648 56.90673 
L 146.211812 62.423336 
L 159.417352 55.643315 
L 171.460723 58.601834 
L 178.029516 52.005558 
L 191.235056 55.754515 
L 209.84722 73.836045 
L 223.05276 90.690203 
L 233.295773 83.509938 
" clip-path="url(#pf4e881d65f)" style="fill: none; stroke: #b2b2b2; stroke-width: 0.8; stroke-linecap: square"/>
   </g>
   <g id="line2d_77">
    <path d="M 53.721227 40.889197 
L 72.333391 37.99895 
L 85.538931 36.71421 
L 95.781944 30.614556 
L 104.151095 39.190188 
L 117.356635 48.839496 
L 127.045477 57.730724 
L 127.599648 58.013927 
L 146.211812 67.888615 
L 159.417352 70.049499 
L 171.460723 74.11012 
L 178.029516 73.827754 
L 191.235056 74.34008 
L 209.84722 83.501627 
L 223.05276 78.816138 
L 233.295773 90.164912 
" clip-path="url(#pf4e881d65f)" style="fill: none; stroke: #b2b2b2; stroke-width: 0.8; stroke-linecap: square"/>
   </g>
   <g id="line2d_78">
    <path d="M 53.721227 51.717122 
L 72.333391 48.323313 
L 85.538931 51.54175 
L 95.781944 52.617138 
L 104.151095 60.697621 
L 117.356635 59.218591 
L 127.045477 57.730724 
L 127.599648 59.334454 
L 146.211812 72.69142 
L 159.417352 76.082134 
L 171.460723 86.337443 
L 178.029516 80.263302 
L 191.235056 77.954242 
L 209.84722 91.324248 
L 223.05276 92.266982 
L 233.295773 95.222394 
" clip-path="url(#pf4e881d65f)" style="fill: none; stroke: #b2b2b2; stroke-width: 0.8; stroke-linecap: square"/>
   </g>
   <g id="line2d_79">
    <path d="M 53.721227 66.933396 
L 72.333391 65.340503 
L 85.538931 61.326762 
L 95.781944 63.619943 
L 104.151095 69.201457 
L 117.356635 59.237145 
L 127.045477 57.730724 
L 127.599648 58.425437 
L 146.211812 80.773238 
L 159.417352 77.475348 
L 171.460723 72.346328 
L 178.029516 72.221393 
L 191.235056 70.55402 
L 209.84722 90.387784 
L 223.05276 103.559182 
L 233.295773 101.349182 
" clip-path="url(#pf4e881d65f)" style="fill: none; stroke: #b2b2b2; stroke-width: 0.8; stroke-linecap: square"/>
   </g>
   <g id="line2d_80">
    <path d="M 53.721227 52.617992 
L 72.333391 52.743182 
L 85.538931 53.450788 
L 95.781944 44.615783 
L 104.151095 43.176102 
L 117.356635 55.425461 
L 127.045477 57.730724 
L 127.599648 57.619273 
L 146.211812 62.754577 
L 159.417352 65.107622 
L 171.460723 56.688172 
L 178.029516 57.894276 
L 191.235056 59.655489 
L 209.84722 68.534135 
L 223.05276 76.335956 
L 233.295773 82.433406 
" clip-path="url(#pf4e881d65f)" style="fill: none; stroke: #b2b2b2; stroke-width: 0.8; stroke-linecap: square"/>
   </g>
   <g id="line2d_81">
    <path d="M 53.721227 48.902206 
L 72.333391 45.003938 
L 85.538931 48.575301 
L 95.781944 60.103763 
L 104.151095 59.236261 
L 117.356635 61.568924 
L 127.045477 57.730724 
L 127.599648 59.136599 
L 146.211812 57.708188 
L 159.417352 66.87861 
L 171.460723 49.90393 
L 178.029516 63.721083 
L 191.235056 78.478714 
L 209.84722 76.139947 
L 223.05276 81.247963 
L 233.295773 93.022362 
" clip-path="url(#pf4e881d65f)" style="fill: none; stroke: #b2b2b2; stroke-width: 0.8; stroke-linecap: square"/>
   </g>
   <g id="line2d_82">
    <path d="M 53.721227 40.094441 
L 72.333391 25.311517 
L 85.538931 32.608246 
L 95.781944 32.438215 
L 104.151095 37.236894 
L 117.356635 41.074472 
L 127.045477 57.730724 
L 127.599648 58.529177 
L 146.211812 64.110707 
L 159.417352 68.58556 
L 171.460723 65.526503 
L 178.029516 77.967476 
L 191.235056 77.392683 
L 209.84722 92.000014 
L 223.05276 102.726688 
L 233.295773 96.801983 
" clip-path="url(#pf4e881d65f)" style="fill: none; stroke: #b2b2b2; stroke-width: 0.8; stroke-linecap: square"/>
   </g>
   <g id="line2d_83">
    <path d="M 53.721227 53.969127 
L 72.333391 40.835313 
L 85.538931 44.13527 
L 95.781944 52.397149 
L 104.151095 49.882306 
L 117.356635 53.180975 
L 127.045477 57.730724 
L 127.599648 57.816281 
L 146.211812 58.409767 
L 159.417352 68.675561 
L 171.460723 65.213998 
L 178.029516 65.906025 
L 191.235056 68.35341 
L 209.84722 93.917074 
L 223.05276 99.591202 
L 233.295773 109.24956 
" clip-path="url(#pf4e881d65f)" style="fill: none; stroke: #b2b2b2; stroke-width: 0.8; stroke-linecap: square"/>
   </g>
   <g id="line2d_84">
    <path d="M 53.721227 51.527194 
L 72.333391 47.08792 
L 85.538931 56.91676 
L 95.781944 54.490384 
L 104.151095 69.196532 
L 117.356635 58.552854 
L 127.045477 57.730724 
L 127.599648 56.641066 
L 146.211812 67.122572 
L 159.417352 81.965679 
L 171.460723 82.423015 
L 178.029516 94.959842 
L 191.235056 95.15539 
L 209.84722 98.810852 
L 223.05276 95.324715 
L 233.295773 98.961018 
" clip-path="url(#pf4e881d65f)" style="fill: none; stroke: #b2b2b2; stroke-width: 0.8; stroke-linecap: square"/>
   </g>
   <g id="line2d_85">
    <path d="M 53.721227 42.395247 
L 72.333391 38.389455 
L 85.538931 48.895343 
L 95.781944 57.74046 
L 104.151095 52.496201 
L 117.356635 52.332617 
L 127.045477 57.730724 
L 127.599648 58.987106 
L 146.211812 61.444724 
L 159.417352 68.062035 
L 171.460723 63.573868 
L 178.029516 70.703934 
L 191.235056 69.815309 
L 209.84722 72.495389 
L 223.05276 74.774149 
L 233.295773 94.590171 
" clip-path="url(#pf4e881d65f)" style="fill: none; stroke: #b2b2b2; stroke-width: 0.8; stroke-linecap: square"/>
   </g>
   <g id="line2d_86">
    <path d="M 53.721227 27.518319 
L 72.333391 32.960412 
L 85.538931 43.478623 
L 95.781944 43.815541 
L 104.151095 47.274026 
L 117.356635 53.1167 
L 127.045477 57.730724 
L 127.599648 57.585865 
L 146.211812 53.042144 
L 159.417352 54.557037 
L 171.460723 56.455104 
L 178.029516 56.23844 
L 191.235056 71.133689 
L 209.84722 72.415334 
L 223.05276 95.957261 
L 233.295773 112.890421 
" clip-path="url(#pf4e881d65f)" style="fill: none; stroke: #b2b2b2; stroke-width: 0.8; stroke-linecap: square"/>
   </g>
   <g id="line2d_87">
    <path d="M 53.721227 52.701113 
L 72.333391 56.119123 
L 85.538931 50.974841 
L 95.781944 52.900237 
L 104.151095 49.870054 
L 117.356635 58.915403 
L 127.045477 57.730724 
L 127.599648 57.516719 
L 146.211812 53.695117 
L 159.417352 59.251099 
L 171.460723 62.207301 
L 178.029516 59.162319 
L 191.235056 59.11815 
L 209.84722 65.852892 
L 223.05276 68.858134 
L 233.295773 68.941309 
" clip-path="url(#pf4e881d65f)" style="fill: none; stroke: #b2b2b2; stroke-width: 0.8; stroke-linecap: square"/>
   </g>
   <g id="line2d_88">
    <path d="M 53.721227 65.063679 
L 72.333391 55.705868 
L 85.538931 57.798424 
L 95.781944 63.51399 
L 104.151095 62.587972 
L 117.356635 67.112489 
L 127.045477 57.730724 
L 127.599648 56.991132 
L 146.211812 56.393468 
L 159.417352 60.172878 
L 171.460723 64.47795 
L 178.029516 69.096672 
L 191.235056 74.809843 
L 209.84722 103.472431 
L 223.05276 111.083831 
L 233.295773 109.543628 
" clip-path="url(#pf4e881d65f)" style="fill: none; stroke: #b2b2b2; stroke-width: 0.8; stroke-linecap: square"/>
   </g>
   <g id="line2d_89">
    <path d="M 53.721227 56.185056 
L 72.333391 49.58776 
L 85.538931 39.770064 
L 95.781944 30.611161 
L 104.151095 40.815813 
L 117.356635 51.649157 
L 127.045477 57.730724 
L 127.599648 59.115081 
L 146.211812 67.908101 
L 159.417352 76.508876 
L 171.460723 73.257216 
L 178.029516 70.375852 
L 191.235056 76.227638 
L 209.84722 84.846662 
L 223.05276 102.721541 
L 233.295773 110.082581 
" clip-path="url(#pf4e881d65f)" style="fill: none; stroke: #b2b2b2; stroke-width: 0.8; stroke-linecap: square"/>
   </g>
   <g id="line2d_90">
    <path d="M 53.721227 63.31353 
L 72.333391 60.016051 
L 85.538931 58.714313 
L 95.781944 57.564815 
L 104.151095 51.667087 
L 117.356635 55.858389 
L 127.045477 57.730724 
L 127.599648 59.182419 
L 146.211812 58.845449 
L 159.417352 67.664413 
L 171.460723 61.84595 
L 178.029516 62.91336 
L 191.235056 70.497363 
L 209.84722 81.957238 
L 223.05276 95.776471 
L 233.295773 106.599379 
" clip-path="url(#pf4e881d65f)" style="fill: none; stroke: #b2b2b2; stroke-width: 0.8; stroke-linecap: square"/>
   </g>
   <g id="line2d_91">
    <path d="M 53.721227 33.758873 
L 72.333391 32.693317 
L 85.538931 29.509995 
L 95.781944 44.428544 
L 104.151095 50.194089 
L 117.356635 56.484843 
L 127.045477 57.730724 
L 127.599648 59.809969 
L 146.211812 69.556502 
L 159.417352 73.149468 
L 171.460723 85.072703 
L 178.029516 86.482156 
L 191.235056 86.648609 
L 209.84722 94.886773 
L 223.05276 110.404595 
L 233.295773 118.463358 
" clip-path="url(#pf4e881d65f)" style="fill: none; stroke: #b2b2b2; stroke-width: 0.8; stroke-linecap: square"/>
   </g>
   <g id="line2d_92">
    <path d="M 53.721227 77.306526 
L 72.333391 73.992962 
L 85.538931 67.884217 
L 95.781944 61.00401 
L 104.151095 61.873742 
L 117.356635 57.928019 
L 127.045477 57.730724 
L 127.599648 57.813953 
L 146.211812 65.351363 
L 159.417352 67.686881 
L 171.460723 77.992757 
L 178.029516 89.042297 
L 191.235056 96.274759 
L 209.84722 101.406038 
L 223.05276 105.882141 
L 233.295773 105.111576 
" clip-path="url(#pf4e881d65f)" style="fill: none; stroke: #b2b2b2; stroke-width: 0.8; stroke-linecap: square"/>
   </g>
   <g id="line2d_93">
    <path d="M 53.721227 76.796502 
L 72.333391 67.222911 
L 85.538931 63.709201 
L 95.781944 66.422131 
L 104.151095 60.282779 
L 117.356635 63.148787 
L 127.045477 57.730724 
L 127.599648 59.266268 
L 146.211812 58.588345 
L 159.417352 65.364008 
L 171.460723 57.866026 
L 178.029516 71.107161 
L 191.235056 67.555722 
L 209.84722 85.391883 
L 223.05276 95.260176 
L 233.295773 99.76396 
" clip-path="url(#pf4e881d65f)" style="fill: none; stroke: #b2b2b2; stroke-width: 0.8; stroke-linecap: square"/>
   </g>
   <g id="line2d_94">
    <path d="M 53.721227 67.641544 
L 72.333391 58.195388 
L 85.538931 60.481152 
L 95.781944 60.465165 
L 104.151095 51.525013 
L 117.356635 59.358365 
L 127.045477 57.730724 
L 127.599648 57.544015 
L 146.211812 68.036718 
L 159.417352 69.910867 
L 171.460723 78.248349 
L 178.029516 85.190789 
L 191.235056 90.180536 
L 209.84722 84.949911 
L 223.05276 87.732333 
L 233.295773 94.313786 
" clip-path="url(#pf4e881d65f)" style="fill: none; stroke: #b2b2b2; stroke-width: 0.8; stroke-linecap: square"/>
   </g>
   <g id="line2d_95">
    <path d="M 53.721227 23.443278 
L 72.333391 13.1472 
L 85.538931 18.217714 
L 95.781944 32.351802 
L 104.151095 43.395575 
L 117.356635 50.417833 
L 127.045477 57.730724 
L 127.599648 58.343601 
L 146.211812 62.57294 
L 159.417352 69.935852 
L 171.460723 79.530466 
L 178.029516 87.088429 
L 191.235056 85.866646 
L 209.84722 95.093024 
L 223.05276 107.5209 
L 233.295773 118.139899 
" clip-path="url(#pf4e881d65f)" style="fill: none; stroke: #b2b2b2; stroke-width: 0.8; stroke-linecap: square"/>
   </g>
   <g id="line2d_96">
    <path d="M 53.721227 51.310725 
L 72.333391 47.088258 
L 85.538931 43.85538 
L 95.781944 48.035361 
L 104.151095 48.505623 
L 117.356635 46.427643 
L 127.045477 57.730724 
L 127.599648 57.535138 
L 146.211812 61.053311 
L 159.417352 60.536986 
L 171.460723 62.929022 
L 178.029516 67.46367 
L 191.235056 68.416387 
L 209.84722 83.44084 
L 223.05276 86.882124 
L 233.295773 94.933426 
" clip-path="url(#pf4e881d65f)" style="fill: none; stroke: #b2b2b2; stroke-width: 0.8; stroke-linecap: square"/>
   </g>
   <g id="line2d_97">
    <path d="M 53.721227 68.748674 
L 72.333391 62.602014 
L 85.538931 63.656204 
L 95.781944 61.037508 
L 104.151095 62.598472 
L 117.356635 64.469113 
L 127.045477 57.730724 
L 127.599648 56.868396 
L 146.211812 57.638002 
L 159.417352 63.121674 
L 171.460723 66.091468 
L 178.029516 69.621106 
L 191.235056 78.715361 
L 209.84722 90.647625 
L 223.05276 100.404556 
L 233.295773 106.360267 
" clip-path="url(#pf4e881d65f)" style="fill: none; stroke: #b2b2b2; stroke-width: 0.8; stroke-linecap: square"/>
   </g>
   <g id="line2d_98">
    <path d="M 53.721227 49.638796 
L 72.333391 47.227532 
L 85.538931 40.155887 
L 95.781944 43.923838 
L 104.151095 49.774151 
L 117.356635 54.440212 
L 127.045477 57.730724 
L 127.599648 58.843405 
L 146.211812 78.146117 
L 159.417352 84.851984 
L 171.460723 90.663744 
L 178.029516 91.341972 
L 191.235056 108.685649 
L 209.84722 120.007274 
L 223.05276 112.283136 
L 233.295773 132.0912 
" clip-path="url(#pf4e881d65f)" style="fill: none; stroke: #b2b2b2; stroke-width: 0.8; stroke-linecap: square"/>
   </g>
   <g id="line2d_99">
    <path d="M 53.721227 59.69299 
L 72.333391 54.53384 
L 85.538931 48.281465 
L 95.781944 62.339029 
L 104.151095 57.485291 
L 117.356635 58.716209 
L 127.045477 57.730724 
L 127.599648 57.381825 
L 146.211812 69.980516 
L 159.417352 55.65257 
L 171.460723 66.378204 
L 178.029516 64.101514 
L 191.235056 68.065533 
L 209.84722 75.295046 
L 223.05276 97.050471 
L 233.295773 109.397808 
" clip-path="url(#pf4e881d65f)" style="fill: none; stroke: #b2b2b2; stroke-width: 0.8; stroke-linecap: square"/>
   </g>
   <g id="line2d_100">
    <path d="M 53.721227 75.41599 
L 72.333391 72.428932 
L 85.538931 62.403576 
L 95.781944 63.100874 
L 104.151095 61.466498 
L 117.356635 52.257504 
L 127.045477 57.730724 
L 127.599648 59.094191 
L 146.211812 48.790451 
L 159.417352 65.356485 
L 171.460723 68.750497 
L 178.029516 71.191116 
L 191.235056 79.326367 
L 209.84722 81.38847 
L 223.05276 92.737567 
L 233.295773 113.554626 
" clip-path="url(#pf4e881d65f)" style="fill: none; stroke: #b2b2b2; stroke-width: 0.8; stroke-linecap: square"/>
   </g>
   <g id="line2d_101">
    <path d="M 53.721227 34.591195 
L 72.333391 38.239735 
L 85.538931 44.170917 
L 95.781944 47.429709 
L 104.151095 46.516535 
L 117.356635 52.534043 
L 127.045477 57.730724 
L 127.599648 57.72396 
L 146.211812 61.534518 
L 159.417352 67.104215 
L 171.460723 77.873894 
L 178.029516 74.900143 
L 191.235056 71.370097 
L 209.84722 78.923497 
L 223.05276 81.357934 
L 233.295773 91.924296 
" clip-path="url(#pf4e881d65f)" style="fill: none; stroke: #b2b2b2; stroke-width: 0.8; stroke-linecap: square"/>
   </g>
   <g id="line2d_102">
    <path d="M 53.721227 54.347885 
L 72.333391 42.385284 
L 85.538931 44.752611 
L 95.781944 44.125859 
L 104.151095 52.143555 
L 117.356635 59.178397 
L 127.045477 57.730724 
L 127.599648 58.863844 
L 146.211812 65.639915 
L 159.417352 66.744253 
L 171.460723 80.990599 
L 178.029516 83.003439 
L 191.235056 86.568915 
L 209.84722 107.929209 
L 223.05276 111.37102 
L 233.295773 109.212125 
" clip-path="url(#pf4e881d65f)" style="fill: none; stroke: #b2b2b2; stroke-width: 0.8; stroke-linecap: square"/>
   </g>
   <g id="line2d_103">
    <path d="M 53.721227 52.194804 
L 72.333391 45.807021 
L 85.538931 45.942309 
L 95.781944 45.891054 
L 104.151095 55.692257 
L 117.356635 51.821701 
L 127.045477 57.730724 
L 127.599648 58.77741 
L 146.211812 58.313902 
L 159.417352 59.190917 
L 171.460723 62.84559 
L 178.029516 54.641496 
L 191.235056 63.098887 
L 209.84722 75.144445 
L 223.05276 82.51278 
L 233.295773 95.085904 
" clip-path="url(#pf4e881d65f)" style="fill: none; stroke: #b2b2b2; stroke-width: 0.8; stroke-linecap: square"/>
   </g>
   <g id="line2d_104">
    <path d="M 53.721227 42.351181 
L 72.333391 44.310074 
L 85.538931 40.841651 
L 95.781944 37.416069 
L 104.151095 44.967959 
L 117.356635 48.727576 
L 127.045477 57.730724 
L 127.599648 57.711493 
L 146.211812 65.647039 
L 159.417352 62.474998 
L 171.460723 59.224629 
L 178.029516 65.380796 
L 191.235056 88.551561 
L 209.84722 83.923771 
L 223.05276 81.743703 
L 233.295773 94.870355 
" clip-path="url(#pf4e881d65f)" style="fill: none; stroke: #b2b2b2; stroke-width: 0.8; stroke-linecap: square"/>
   </g>
   <g id="line2d_105">
    <path d="M 53.721227 44.07675 
L 72.333391 39.083061 
L 85.538931 37.30943 
L 95.781944 33.737821 
L 104.151095 31.93521 
L 117.356635 49.82134 
L 127.045477 57.730724 
L 127.599648 57.988947 
L 146.211812 59.305207 
L 159.417352 64.386374 
L 171.460723 68.35309 
L 178.029516 69.428698 
L 191.235056 74.046119 
L 209.84722 73.045987 
L 223.05276 85.083825 
L 233.295773 81.202975 
" clip-path="url(#pf4e881d65f)" style="fill: none; stroke: #b2b2b2; stroke-width: 0.8; stroke-linecap: square"/>
   </g>
   <g id="line2d_106">
    <path d="M 53.721227 70.24016 
L 72.333391 57.986742 
L 85.538931 61.167215 
L 95.781944 63.322457 
L 104.151095 58.454012 
L 117.356635 56.896916 
L 127.045477 57.730724 
L 127.599648 58.832581 
L 146.211812 54.672541 
L 159.417352 54.415715 
L 171.460723 54.383447 
L 178.029516 54.410068 
L 191.235056 59.525204 
L 209.84722 76.302213 
L 223.05276 95.356313 
L 233.295773 98.22911 
" clip-path="url(#pf4e881d65f)" style="fill: none; stroke: #b2b2b2; stroke-width: 0.8; stroke-linecap: square"/>
   </g>
   <g id="line2d_107">
    <path d="M 53.721227 68.311485 
L 72.333391 61.332908 
L 85.538931 61.85911 
L 95.781944 59.19128 
L 104.151095 54.581358 
L 117.356635 63.1353 
L 127.045477 57.730724 
L 127.599648 56.402789 
L 146.211812 56.919393 
L 159.417352 52.329354 
L 171.460723 54.89649 
L 178.029516 64.002014 
L 191.235056 73.469299 
L 209.84722 71.39962 
L 223.05276 72.976579 
L 233.295773 79.197601 
" clip-path="url(#pf4e881d65f)" style="fill: none; stroke: #b2b2b2; stroke-width: 0.8; stroke-linecap: square"/>
   </g>
   <g id="line2d_108">
    <path d="M 53.721227 67.123956 
L 72.333391 64.717922 
L 85.538931 62.196857 
L 95.781944 55.447579 
L 104.151095 60.725848 
L 117.356635 53.623606 
L 127.045477 57.730724 
L 127.599648 58.152032 
L 146.211812 48.345155 
L 159.417352 46.411824 
L 171.460723 55.938341 
L 178.029516 61.067162 
L 191.235056 69.19972 
L 209.84722 86.801329 
L 223.05276 97.901324 
L 233.295773 108.731229 
" clip-path="url(#pf4e881d65f)" style="fill: none; stroke: #b2b2b2; stroke-width: 0.8; stroke-linecap: square"/>
   </g>
   <g id="line2d_109">
    <path d="M 53.721227 60.042936 
L 72.333391 55.680155 
L 85.538931 42.793741 
L 95.781944 55.61324 
L 104.151095 60.833287 
L 117.356635 58.188542 
L 127.045477 57.730724 
L 127.599648 56.47016 
L 146.211812 52.363465 
L 159.417352 59.413082 
L 171.460723 75.294888 
L 178.029516 73.898863 
L 191.235056 76.745913 
L 209.84722 94.654827 
L 223.05276 94.692342 
L 233.295773 113.550073 
" clip-path="url(#pf4e881d65f)" style="fill: none; stroke: #b2b2b2; stroke-width: 0.8; stroke-linecap: square"/>
   </g>
   <g id="line2d_110">
    <path d="M 53.721227 55.56937 
L 72.333391 50.624453 
L 85.538931 36.50879 
L 95.781944 41.088457 
L 104.151095 47.211924 
L 117.356635 49.898898 
L 127.045477 57.730724 
L 127.599648 57.98794 
L 146.211812 57.093151 
L 159.417352 70.77545 
L 171.460723 80.547908 
L 178.029516 70.95804 
L 191.235056 93.082078 
L 209.84722 87.347011 
L 223.05276 98.362313 
L 233.295773 104.198315 
" clip-path="url(#pf4e881d65f)" style="fill: none; stroke: #b2b2b2; stroke-width: 0.8; stroke-linecap: square"/>
   </g>
   <g id="line2d_111">
    <path d="M 53.721227 51.359565 
L 72.333391 46.65185 
L 85.538931 49.659682 
L 95.781944 53.602329 
L 104.151095 48.548424 
L 117.356635 57.076667 
L 127.045477 57.730724 
L 127.599648 57.57516 
L 146.211812 50.305319 
L 159.417352 56.666813 
L 171.460723 68.627828 
L 178.029516 70.348078 
L 191.235056 73.627935 
L 209.84722 62.360987 
L 223.05276 74.147599 
L 233.295773 81.558832 
" clip-path="url(#pf4e881d65f)" style="fill: none; stroke: #b2b2b2; stroke-width: 0.8; stroke-linecap: square"/>
   </g>
   <g id="line2d_112">
    <path d="M 53.721227 71.954982 
L 72.333391 70.63733 
L 85.538931 70.061995 
L 95.781944 67.272323 
L 104.151095 68.479378 
L 117.356635 62.644011 
L 127.045477 57.730724 
L 127.599648 58.282561 
L 146.211812 57.467358 
L 159.417352 45.427904 
L 171.460723 49.610938 
L 178.029516 60.424282 
L 191.235056 65.217804 
L 209.84722 73.992502 
L 223.05276 90.333178 
L 233.295773 107.932218 
" clip-path="url(#pf4e881d65f)" style="fill: none; stroke: #b2b2b2; stroke-width: 0.8; stroke-linecap: square"/>
   </g>
   <g id="line2d_113">
    <path d="M 53.721227 62.921848 
L 72.333391 59.226106 
L 85.538931 55.089355 
L 95.781944 59.369845 
L 104.151095 47.962891 
L 117.356635 56.72027 
L 127.045477 57.730724 
L 127.599648 58.034927 
L 146.211812 65.106113 
L 159.417352 67.930173 
L 171.460723 73.037266 
L 178.029516 74.726598 
L 191.235056 86.503274 
L 209.84722 93.872037 
L 223.05276 105.612723 
L 233.295773 108.305963 
" clip-path="url(#pf4e881d65f)" style="fill: none; stroke: #b2b2b2; stroke-width: 0.8; stroke-linecap: square"/>
   </g>
   <g id="line2d_114">
    <path d="M 53.721227 45.489515 
L 72.333391 34.135617 
L 85.538931 35.461961 
L 95.781944 39.839488 
L 104.151095 49.026723 
L 117.356635 57.942056 
L 127.045477 57.730724 
L 127.599648 57.357771 
L 146.211812 49.728634 
L 159.417352 45.794474 
L 171.460723 59.062904 
L 178.029516 64.336644 
L 191.235056 80.185637 
L 209.84722 92.988957 
L 223.05276 98.572608 
L 233.295773 110.878352 
" clip-path="url(#pf4e881d65f)" style="fill: none; stroke: #b2b2b2; stroke-width: 0.8; stroke-linecap: square"/>
   </g>
   <g id="line2d_115">
    <path d="M 53.721227 69.289483 
L 72.333391 69.439962 
L 85.538931 64.900726 
L 95.781944 57.467184 
L 104.151095 55.401505 
L 117.356635 61.879303 
L 127.045477 57.730724 
L 127.599648 56.240237 
L 146.211812 50.52272 
L 159.417352 42.085226 
L 171.460723 49.727366 
L 178.029516 48.861397 
L 191.235056 49.595133 
L 209.84722 60.250083 
L 223.05276 70.239598 
L 233.295773 93.112855 
" clip-path="url(#pf4e881d65f)" style="fill: none; stroke: #b2b2b2; stroke-width: 0.8; stroke-linecap: square"/>
   </g>
   <g id="line2d_116">
    <path d="M 53.721227 58.216536 
L 72.333391 54.674665 
L 85.538931 44.643616 
L 95.781944 41.546423 
L 104.151095 44.780165 
L 117.356635 50.634815 
L 127.045477 57.730724 
L 127.599648 57.494458 
L 146.211812 61.166813 
L 159.417352 54.435569 
L 171.460723 60.534716 
L 178.029516 58.680994 
L 191.235056 62.731335 
L 209.84722 72.183153 
L 223.05276 80.186219 
L 233.295773 93.505768 
" clip-path="url(#pf4e881d65f)" style="fill: none; stroke: #b2b2b2; stroke-width: 0.8; stroke-linecap: square"/>
   </g>
   <g id="line2d_117">
    <path d="M 53.721227 59.19939 
L 72.333391 51.643431 
L 85.538931 51.066053 
L 95.781944 51.695943 
L 104.151095 51.748059 
L 117.356635 42.773074 
L 127.045477 57.730724 
L 127.599648 59.700915 
L 146.211812 68.889017 
L 159.417352 85.917038 
L 171.460723 78.43329 
L 178.029516 76.512093 
L 191.235056 82.032398 
L 209.84722 85.106418 
L 223.05276 103.471392 
L 233.295773 110.50473 
" clip-path="url(#pf4e881d65f)" style="fill: none; stroke: #b2b2b2; stroke-width: 0.8; stroke-linecap: square"/>
   </g>
   <g id="line2d_118">
    <path d="M 53.721227 64.641341 
L 72.333391 63.559589 
L 85.538931 46.975044 
L 95.781944 48.82386 
L 104.151095 50.531671 
L 117.356635 50.902119 
L 127.045477 57.730724 
L 127.599648 57.353659 
L 146.211812 46.502399 
L 159.417352 58.561802 
L 171.460723 59.694588 
L 178.029516 65.65487 
L 191.235056 73.687327 
L 209.84722 83.725339 
L 223.05276 84.975255 
L 233.295773 83.52719 
" clip-path="url(#pf4e881d65f)" style="fill: none; stroke: #b2b2b2; stroke-width: 0.8; stroke-linecap: square"/>
   </g>
   <g id="line2d_119">
    <path d="M 53.721227 64.413861 
L 72.333391 60.133486 
L 85.538931 61.427929 
L 95.781944 58.427789 
L 104.151095 64.251821 
L 117.356635 61.90729 
L 127.045477 57.730724 
L 127.599648 56.950496 
L 146.211812 64.690038 
L 159.417352 70.150347 
L 171.460723 72.742414 
L 178.029516 75.266516 
L 191.235056 73.626269 
L 209.84722 86.352412 
L 223.05276 105.561887 
L 233.295773 107.098335 
" clip-path="url(#pf4e881d65f)" style="fill: none; stroke: #b2b2b2; stroke-width: 0.8; stroke-linecap: square"/>
   </g>
   <g id="line2d_120">
    <path d="M 53.721227 51.991095 
L 72.333391 50.783425 
L 85.538931 38.958099 
L 95.781944 44.453979 
L 104.151095 41.326701 
L 117.356635 48.44234 
L 127.045477 57.730724 
L 127.599648 57.86409 
L 146.211812 61.168794 
L 159.417352 66.07241 
L 171.460723 64.002306 
L 178.029516 66.119683 
L 191.235056 76.788424 
L 209.84722 72.50993 
L 223.05276 79.436282 
L 233.295773 89.413172 
" clip-path="url(#pf4e881d65f)" style="fill: none; stroke: #b2b2b2; stroke-width: 0.8; stroke-linecap: square"/>
   </g>
   <g id="line2d_121">
    <path d="M 53.721227 56.314483 
L 72.333391 58.49806 
L 85.538931 61.926504 
L 95.781944 59.058292 
L 104.151095 50.558421 
L 117.356635 52.473337 
L 127.045477 57.730724 
L 127.599648 57.905889 
L 146.211812 69.336433 
L 159.417352 70.407364 
L 171.460723 71.094902 
L 178.029516 73.083095 
L 191.235056 81.11144 
L 209.84722 96.182504 
L 223.05276 93.628631 
L 233.295773 106.508698 
" clip-path="url(#pf4e881d65f)" style="fill: none; stroke: #b2b2b2; stroke-width: 0.8; stroke-linecap: square"/>
   </g>
   <g id="line2d_122">
    <path d="M 53.721227 57.323621 
L 72.333391 52.995989 
L 85.538931 52.667715 
L 95.781944 48.669807 
L 104.151095 40.088439 
L 117.356635 49.766316 
L 127.045477 57.730724 
L 127.599648 58.410354 
L 146.211812 60.118669 
L 159.417352 55.206615 
L 171.460723 78.880225 
L 178.029516 84.814761 
L 191.235056 94.721955 
L 209.84722 110.214443 
L 223.05276 117.713616 
L 233.295773 110.034469 
" clip-path="url(#pf4e881d65f)" style="fill: none; stroke: #b2b2b2; stroke-width: 0.8; stroke-linecap: square"/>
   </g>
   <g id="line2d_123">
    <path d="M 53.721227 50.425478 
L 72.333391 50.601163 
L 85.538931 53.941369 
L 95.781944 58.947728 
L 104.151095 52.057004 
L 117.356635 58.601142 
L 127.045477 57.730724 
L 127.599648 57.238631 
L 146.211812 50.288381 
L 159.417352 57.934666 
L 171.460723 61.509141 
L 178.029516 56.476971 
L 191.235056 69.062494 
L 209.84722 84.671031 
L 223.05276 97.232456 
L 233.295773 101.598735 
" clip-path="url(#pf4e881d65f)" style="fill: none; stroke: #b2b2b2; stroke-width: 0.8; stroke-linecap: square"/>
   </g>
   <g id="line2d_124">
    <path d="M 53.721227 55.205534 
L 72.333391 55.159761 
L 85.538931 49.23289 
L 95.781944 52.587603 
L 104.151095 49.539893 
L 117.356635 50.154279 
L 127.045477 57.730724 
L 127.599648 58.393217 
L 146.211812 71.35069 
L 159.417352 70.609444 
L 171.460723 76.59262 
L 178.029516 76.422913 
L 191.235056 84.527055 
L 209.84722 93.694845 
L 223.05276 104.409129 
L 233.295773 125.760984 
" clip-path="url(#pf4e881d65f)" style="fill: none; stroke: #b2b2b2; stroke-width: 0.8; stroke-linecap: square"/>
   </g>
   <g id="line2d_125">
    <path d="M 53.721227 55.501053 
L 72.333391 51.17837 
L 85.538931 50.354691 
L 95.781944 51.34225 
L 104.151095 52.318513 
L 117.356635 55.458877 
L 127.045477 57.730724 
L 127.599648 57.759462 
L 146.211812 60.858505 
L 159.417352 63.631649 
L 171.460723 67.176163 
L 178.029516 69.433348 
L 191.235056 75.490758 
L 209.84722 85.04928 
L 223.05276 93.293005 
L 233.295773 101.419847 
" clip-path="url(#pf4e881d65f)" style="fill: none; stroke: #ff0000; stroke-width: 2; stroke-linecap: square"/>
   </g>
   <g id="line2d_126">
    <path d="M 53.721227 31.634821 
L 72.333391 27.137196 
L 85.538931 28.497728 
L 95.781944 31.69567 
L 104.151095 35.295291 
L 117.356635 44.522553 
L 127.045477 57.730724 
L 127.599648 54.973706 
L 146.211812 45.504307 
L 159.417352 44.314115 
L 171.460723 45.490959 
L 178.029516 47.033817 
L 191.235056 52.386009 
L 209.84722 60.817857 
L 223.05276 69.050142 
L 233.295773 76.345531 
" clip-path="url(#pf4e881d65f)" style="fill: none; stroke-dasharray: 7.4,3.2; stroke-dashoffset: 0; stroke: #ff0000; stroke-width: 2"/>
   </g>
   <g id="line2d_127">
    <path d="M 53.721227 79.367285 
L 72.333391 75.219543 
L 85.538931 72.211654 
L 95.781944 70.988831 
L 104.151095 69.341734 
L 117.356635 66.395201 
L 127.045477 57.730725 
L 127.599648 60.545217 
L 146.211812 76.212703 
L 159.417352 82.949182 
L 171.460723 88.861366 
L 178.029516 91.832879 
L 191.235056 98.595507 
L 209.84722 109.280704 
L 223.05276 117.535869 
L 233.295773 126.494164 
" clip-path="url(#pf4e881d65f)" style="fill: none; stroke-dasharray: 7.4,3.2; stroke-dashoffset: 0; stroke: #ff0000; stroke-width: 2"/>
   </g>
   <g id="line2d_128">
    <path d="M 53.721227 55.661473 
L 72.333391 51.391183 
L 85.538931 50.037931 
L 95.781944 51.25922 
L 104.151095 52.15191 
L 117.356635 55.093214 
L 127.045477 57.730724 
L 127.599648 58.003217 
L 146.211812 60.840729 
L 159.417352 63.856305 
L 171.460723 67.153499 
L 178.029516 69.4665 
L 191.235056 75.646353 
L 209.84722 84.986043 
L 223.05276 93.402345 
L 233.295773 101.380432 
" clip-path="url(#pf4e881d65f)" style="fill: none; stroke: #0000ff; stroke-width: 2; stroke-linecap: square"/>
   </g>
   <g id="line2d_129">
    <path d="M 53.721227 31.707803 
L 72.333391 27.164091 
L 85.538931 28.316358 
L 95.781944 31.413252 
L 104.151095 34.612542 
L 117.356635 44.151591 
L 127.045477 57.730724 
L 127.599648 56.275142 
L 146.211812 45.490172 
L 159.417352 44.430036 
L 171.460723 45.271607 
L 178.029516 46.94249 
L 191.235056 52.83557 
L 209.84722 60.573335 
L 223.05276 69.436945 
L 233.295773 76.312753 
" clip-path="url(#pf4e881d65f)" style="fill: none; stroke-dasharray: 7.4,3.2; stroke-dashoffset: 0; stroke: #0000ff; stroke-width: 2"/>
   </g>
   <g id="line2d_130">
    <path d="M 53.721227 79.615143 
L 72.333391 75.618276 
L 85.538931 71.759504 
L 95.781944 71.105188 
L 104.151095 69.691277 
L 117.356635 66.034837 
L 127.045477 57.730724 
L 127.599648 59.731292 
L 146.211812 76.191286 
L 159.417352 83.282574 
L 171.460723 89.035392 
L 178.029516 91.990509 
L 191.235056 98.457137 
L 209.84722 109.398751 
L 223.05276 117.367746 
L 233.295773 126.448111 
" clip-path="url(#pf4e881d65f)" style="fill: none; stroke-dasharray: 7.4,3.2; stroke-dashoffset: 0; stroke: #0000ff; stroke-width: 2"/>
   </g>
   <g id="patch_3">
    <path d="M 44.7425 138.0384 
L 44.7425 7.2 
" style="fill: none; stroke: #000000; stroke-width: 0.8; stroke-linejoin: miter; stroke-linecap: square"/>
   </g>
   <g id="patch_4">
    <path d="M 242.2745 138.0384 
L 242.2745 7.2 
" style="fill: none; stroke: #000000; stroke-width: 0.8; stroke-linejoin: miter; stroke-linecap: square"/>
   </g>
   <g id="patch_5">
    <path d="M 44.7425 138.0384 
L 242.2745 138.0384 
" style="fill: none; stroke: #000000; stroke-width: 0.8; stroke-linejoin: miter; stroke-linecap: square"/>
   </g>
   <g id="patch_6">
    <path d="M 44.7425 7.2 
L 242.2745 7.2 
" style="fill: none; stroke: #000000; stroke-width: 0.8; stroke-linejoin: miter; stroke-linecap: square"/>
   </g>
   <g id="legend_1">
    <g id="patch_7">
     <path d="M 247.8745 104.47295 
L 432.5945 104.47295 
Q 434.1945 104.47295 434.1945 102.87295 
L 434.1945 42.36545 
Q 434.1945 40.76545 432.5945 40.76545 
L 247.8745 40.76545 
Q 246.2745 40.76545 246.2745 42.36545 
L 246.2745 102.87295 
Q 246.2745 104.47295 247.8745 104.47295 
z
" style="fill: #ffffff; opacity: 0.8; stroke: #cccccc; stroke-linejoin: miter"/>
    </g>
    <g id="line2d_131">
     <path d="M 249.4745 47.2442 
L 257.4745 47.2442 
L 265.4745 47.2442 
" style="fill: none; stroke: #b2b2b2; stroke-width: 0.8; stroke-linecap: square"/>
    </g>
    <g id="text_7">
     <!-- Individual selected GMs -->
     <g transform="translate(271.8745 50.0442) scale(0.08 -0.08)">
      <defs>
       <path id="DejaVuSans-49" d="M 628 4666 
L 1259 4666 
L 1259 0 
L 628 0 
L 628 4666 
z
" transform="scale(0.015625)"/>
       <path id="DejaVuSans-76" d="M 191 3500 
L 800 3500 
L 1894 563 
L 2988 3500 
L 3597 3500 
L 2284 0 
L 1503 0 
L 191 3500 
z
" transform="scale(0.015625)"/>
       <path id="DejaVuSans-75" d="M 544 1381 
L 544 3500 
L 1119 3500 
L 1119 1403 
Q 1119 906 1312 657 
Q 1506 409 1894 409 
Q 2359 409 2629 706 
Q 2900 1003 2900 1516 
L 2900 3500 
L 3475 3500 
L 3475 0 
L 2900 0 
L 2900 538 
Q 2691 219 2414 64 
Q 2138 -91 1772 -91 
Q 1169 -91 856 284 
Q 544 659 544 1381 
z
M 1991 3584 
L 1991 3584 
z
" transform="scale(0.015625)"/>
       <path id="DejaVuSans-47" d="M 3809 666 
L 3809 1919 
L 2778 1919 
L 2778 2438 
L 4434 2438 
L 4434 434 
Q 4069 175 3628 42 
Q 3188 -91 2688 -91 
Q 1594 -91 976 548 
Q 359 1188 359 2328 
Q 359 3472 976 4111 
Q 1594 4750 2688 4750 
Q 3144 4750 3555 4637 
Q 3966 4525 4313 4306 
L 4313 3634 
Q 3963 3931 3569 4081 
Q 3175 4231 2741 4231 
Q 1884 4231 1454 3753 
Q 1025 3275 1025 2328 
Q 1025 1384 1454 906 
Q 1884 428 2741 428 
Q 3075 428 3337 486 
Q 3600 544 3809 666 
z
" transform="scale(0.015625)"/>
       <path id="DejaVuSans-4d" d="M 628 4666 
L 1569 4666 
L 2759 1491 
L 3956 4666 
L 4897 4666 
L 4897 0 
L 4281 0 
L 4281 4097 
L 3078 897 
L 2444 897 
L 1241 4097 
L 1241 0 
L 628 0 
L 628 4666 
z
" transform="scale(0.015625)"/>
      </defs>
      <use xlink:href="#DejaVuSans-49"/>
      <use xlink:href="#DejaVuSans-6e" x="29.492188"/>
      <use xlink:href="#DejaVuSans-64" x="92.871094"/>
      <use xlink:href="#DejaVuSans-69" x="156.347656"/>
      <use xlink:href="#DejaVuSans-76" x="184.130859"/>
      <use xlink:href="#DejaVuSans-69" x="243.310547"/>
      <use xlink:href="#DejaVuSans-64" x="271.09375"/>
      <use xlink:href="#DejaVuSans-75" x="334.570312"/>
      <use xlink:href="#DejaVuSans-61" x="397.949219"/>
      <use xlink:href="#DejaVuSans-6c" x="459.228516"/>
      <use xlink:href="#DejaVuSans-20" x="487.011719"/>
      <use xlink:href="#DejaVuSans-73" x="518.798828"/>
      <use xlink:href="#DejaVuSans-65" x="570.898438"/>
      <use xlink:href="#DejaVuSans-6c" x="632.421875"/>
      <use xlink:href="#DejaVuSans-65" x="660.205078"/>
      <use xlink:href="#DejaVuSans-63" x="721.728516"/>
      <use xlink:href="#DejaVuSans-74" x="776.708984"/>
      <use xlink:href="#DejaVuSans-65" x="815.917969"/>
      <use xlink:href="#DejaVuSans-64" x="877.441406"/>
      <use xlink:href="#DejaVuSans-20" x="940.917969"/>
      <use xlink:href="#DejaVuSans-47" x="972.705078"/>
      <use xlink:href="#DejaVuSans-4d" x="1050.195312"/>
      <use xlink:href="#DejaVuSans-73" x="1136.474609"/>
     </g>
    </g>
    <g id="line2d_132">
     <path d="M 249.4745 58.9867 
L 257.4745 58.9867 
L 265.4745 58.9867 
" style="fill: none; stroke: #ff0000; stroke-width: 2; stroke-linecap: square"/>
    </g>
    <g id="text_8">
     <!-- GCIM median -->
     <g transform="translate(271.8745 61.7867) scale(0.08 -0.08)">
      <defs>
       <path id="DejaVuSans-43" d="M 4122 4306 
L 4122 3641 
Q 3803 3938 3442 4084 
Q 3081 4231 2675 4231 
Q 1875 4231 1450 3742 
Q 1025 3253 1025 2328 
Q 1025 1406 1450 917 
Q 1875 428 2675 428 
Q 3081 428 3442 575 
Q 3803 722 4122 1019 
L 4122 359 
Q 3791 134 3420 21 
Q 3050 -91 2638 -91 
Q 1578 -91 968 557 
Q 359 1206 359 2328 
Q 359 3453 968 4101 
Q 1578 4750 2638 4750 
Q 3056 4750 3426 4639 
Q 3797 4528 4122 4306 
z
" transform="scale(0.015625)"/>
       <path id="DejaVuSans-6d" d="M 3328 2828 
Q 3544 3216 3844 3400 
Q 4144 3584 4550 3584 
Q 5097 3584 5394 3201 
Q 5691 2819 5691 2113 
L 5691 0 
L 5113 0 
L 5113 2094 
Q 5113 2597 4934 2840 
Q 4756 3084 4391 3084 
Q 3944 3084 3684 2787 
Q 3425 2491 3425 1978 
L 3425 0 
L 2847 0 
L 2847 2094 
Q 2847 2600 2669 2842 
Q 2491 3084 2119 3084 
Q 1678 3084 1418 2786 
Q 1159 2488 1159 1978 
L 1159 0 
L 581 0 
L 581 3500 
L 1159 3500 
L 1159 2956 
Q 1356 3278 1631 3431 
Q 1906 3584 2284 3584 
Q 2666 3584 2933 3390 
Q 3200 3197 3328 2828 
z
" transform="scale(0.015625)"/>
      </defs>
      <use xlink:href="#DejaVuSans-47"/>
      <use xlink:href="#DejaVuSans-43" x="77.490234"/>
      <use xlink:href="#DejaVuSans-49" x="147.314453"/>
      <use xlink:href="#DejaVuSans-4d" x="176.806641"/>
      <use xlink:href="#DejaVuSans-20" x="263.085938"/>
      <use xlink:href="#DejaVuSans-6d" x="294.873047"/>
      <use xlink:href="#DejaVuSans-65" x="392.285156"/>
      <use xlink:href="#DejaVuSans-64" x="453.808594"/>
      <use xlink:href="#DejaVuSans-69" x="517.285156"/>
      <use xlink:href="#DejaVuSans-61" x="545.068359"/>
      <use xlink:href="#DejaVuSans-6e" x="606.347656"/>
     </g>
    </g>
    <g id="line2d_133">
     <path d="M 249.4745 72.01045 
L 257.4745 72.01045 
L 265.4745 72.01045 
" style="fill: none; stroke-dasharray: 7.4,3.2; stroke-dashoffset: 0; stroke: #ff0000; stroke-width: 2"/>
    </g>
    <g id="text_9">
     <!-- GCIM $16^{th}$ and $84^{th}$ percentiles -->
     <g transform="translate(271.8745 74.81045) scale(0.08 -0.08)">
      <defs>
       <path id="DejaVuSans-36" d="M 2113 2584 
Q 1688 2584 1439 2293 
Q 1191 2003 1191 1497 
Q 1191 994 1439 701 
Q 1688 409 2113 409 
Q 2538 409 2786 701 
Q 3034 994 3034 1497 
Q 3034 2003 2786 2293 
Q 2538 2584 2113 2584 
z
M 3366 4563 
L 3366 3988 
Q 3128 4100 2886 4159 
Q 2644 4219 2406 4219 
Q 1781 4219 1451 3797 
Q 1122 3375 1075 2522 
Q 1259 2794 1537 2939 
Q 1816 3084 2150 3084 
Q 2853 3084 3261 2657 
Q 3669 2231 3669 1497 
Q 3669 778 3244 343 
Q 2819 -91 2113 -91 
Q 1303 -91 875 529 
Q 447 1150 447 2328 
Q 447 3434 972 4092 
Q 1497 4750 2381 4750 
Q 2619 4750 2861 4703 
Q 3103 4656 3366 4563 
z
" transform="scale(0.015625)"/>
       <path id="DejaVuSans-Oblique-74" d="M 2706 3500 
L 2619 3053 
L 1472 3053 
L 1100 1153 
Q 1081 1047 1072 975 
Q 1063 903 1063 863 
Q 1063 663 1183 572 
Q 1303 481 1569 481 
L 2150 481 
L 2053 0 
L 1503 0 
Q 991 0 739 200 
Q 488 400 488 806 
Q 488 878 497 964 
Q 506 1050 525 1153 
L 897 3053 
L 409 3053 
L 500 3500 
L 978 3500 
L 1172 4494 
L 1747 4494 
L 1556 3500 
L 2706 3500 
z
" transform="scale(0.015625)"/>
       <path id="DejaVuSans-Oblique-68" d="M 3566 2113 
L 3156 0 
L 2578 0 
L 2988 2091 
Q 3016 2238 3031 2350 
Q 3047 2463 3047 2528 
Q 3047 2791 2881 2937 
Q 2716 3084 2419 3084 
Q 1956 3084 1617 2771 
Q 1278 2459 1178 1941 
L 800 0 
L 225 0 
L 1172 4863 
L 1747 4863 
L 1375 2950 
Q 1594 3244 1934 3414 
Q 2275 3584 2650 3584 
Q 3113 3584 3367 3334 
Q 3622 3084 3622 2631 
Q 3622 2519 3608 2391 
Q 3594 2263 3566 2113 
z
" transform="scale(0.015625)"/>
       <path id="DejaVuSans-38" d="M 2034 2216 
Q 1584 2216 1326 1975 
Q 1069 1734 1069 1313 
Q 1069 891 1326 650 
Q 1584 409 2034 409 
Q 2484 409 2743 651 
Q 3003 894 3003 1313 
Q 3003 1734 2745 1975 
Q 2488 2216 2034 2216 
z
M 1403 2484 
Q 997 2584 770 2862 
Q 544 3141 544 3541 
Q 544 4100 942 4425 
Q 1341 4750 2034 4750 
Q 2731 4750 3128 4425 
Q 3525 4100 3525 3541 
Q 3525 3141 3298 2862 
Q 3072 2584 2669 2484 
Q 3125 2378 3379 2068 
Q 3634 1759 3634 1313 
Q 3634 634 3220 271 
Q 2806 -91 2034 -91 
Q 1263 -91 848 271 
Q 434 634 434 1313 
Q 434 1759 690 2068 
Q 947 2378 1403 2484 
z
M 1172 3481 
Q 1172 3119 1398 2916 
Q 1625 2713 2034 2713 
Q 2441 2713 2670 2916 
Q 2900 3119 2900 3481 
Q 2900 3844 2670 4047 
Q 2441 4250 2034 4250 
Q 1625 4250 1398 4047 
Q 1172 3844 1172 3481 
z
" transform="scale(0.015625)"/>
       <path id="DejaVuSans-34" d="M 2419 4116 
L 825 1625 
L 2419 1625 
L 2419 4116 
z
M 2253 4666 
L 3047 4666 
L 3047 1625 
L 3713 1625 
L 3713 1100 
L 3047 1100 
L 3047 0 
L 2419 0 
L 2419 1100 
L 313 1100 
L 313 1709 
L 2253 4666 
z
" transform="scale(0.015625)"/>
      </defs>
      <use xlink:href="#DejaVuSans-47" transform="translate(0 0.529687)"/>
      <use xlink:href="#DejaVuSans-43" transform="translate(77.490234 0.529687)"/>
      <use xlink:href="#DejaVuSans-49" transform="translate(147.314453 0.529687)"/>
      <use xlink:href="#DejaVuSans-4d" transform="translate(176.806641 0.529687)"/>
      <use xlink:href="#DejaVuSans-20" transform="translate(263.085938 0.529687)"/>
      <use xlink:href="#DejaVuSans-31" transform="translate(294.873047 0.529687)"/>
      <use xlink:href="#DejaVuSans-36" transform="translate(358.496094 0.529687)"/>
      <use xlink:href="#DejaVuSans-Oblique-74" transform="translate(423.076172 38.810937) scale(0.7)"/>
      <use xlink:href="#DejaVuSans-Oblique-68" transform="translate(450.522461 38.810937) scale(0.7)"/>
      <use xlink:href="#DejaVuSans-20" transform="translate(497.62207 0.529687)"/>
      <use xlink:href="#DejaVuSans-61" transform="translate(529.40918 0.529687)"/>
      <use xlink:href="#DejaVuSans-6e" transform="translate(590.688477 0.529687)"/>
      <use xlink:href="#DejaVuSans-64" transform="translate(654.067383 0.529687)"/>
      <use xlink:href="#DejaVuSans-20" transform="translate(717.543945 0.529687)"/>
      <use xlink:href="#DejaVuSans-38" transform="translate(749.331055 0.529687)"/>
      <use xlink:href="#DejaVuSans-34" transform="translate(812.954102 0.529687)"/>
      <use xlink:href="#DejaVuSans-Oblique-74" transform="translate(877.53418 38.810937) scale(0.7)"/>
      <use xlink:href="#DejaVuSans-Oblique-68" transform="translate(904.980469 38.810937) scale(0.7)"/>
      <use xlink:href="#DejaVuSans-20" transform="translate(952.080078 0.529687)"/>
      <use xlink:href="#DejaVuSans-70" transform="translate(983.867188 0.529687)"/>
      <use xlink:href="#DejaVuSans-65" transform="translate(1047.34375 0.529687)"/>
      <use xlink:href="#DejaVuSans-72" transform="translate(1108.867188 0.529687)"/>
      <use xlink:href="#DejaVuSans-63" transform="translate(1149.980469 0.529687)"/>
      <use xlink:href="#DejaVuSans-65" transform="translate(1204.960938 0.529687)"/>
      <use xlink:href="#DejaVuSans-6e" transform="translate(1266.484375 0.529687)"/>
      <use xlink:href="#DejaVuSans-74" transform="translate(1329.863281 0.529687)"/>
      <use xlink:href="#DejaVuSans-69" transform="translate(1369.072266 0.529687)"/>
      <use xlink:href="#DejaVuSans-6c" transform="translate(1396.855469 0.529687)"/>
      <use xlink:href="#DejaVuSans-65" transform="translate(1424.638672 0.529687)"/>
      <use xlink:href="#DejaVuSans-73" transform="translate(1486.162109 0.529687)"/>
     </g>
    </g>
    <g id="line2d_134">
     <path d="M 249.4745 83.7692 
L 257.4745 83.7692 
L 265.4745 83.7692 
" style="fill: none; stroke: #0000ff; stroke-width: 2; stroke-linecap: square"/>
    </g>
    <g id="text_10">
     <!-- Selected GMs median -->
     <g transform="translate(271.8745 86.5692) scale(0.08 -0.08)">
      <use xlink:href="#DejaVuSans-53"/>
      <use xlink:href="#DejaVuSans-65" x="63.476562"/>
      <use xlink:href="#DejaVuSans-6c" x="125"/>
      <use xlink:href="#DejaVuSans-65" x="152.783203"/>
      <use xlink:href="#DejaVuSans-63" x="214.306641"/>
      <use xlink:href="#DejaVuSans-74" x="269.287109"/>
      <use xlink:href="#DejaVuSans-65" x="308.496094"/>
      <use xlink:href="#DejaVuSans-64" x="370.019531"/>
      <use xlink:href="#DejaVuSans-20" x="433.496094"/>
      <use xlink:href="#DejaVuSans-47" x="465.283203"/>
      <use xlink:href="#DejaVuSans-4d" x="542.773438"/>
      <use xlink:href="#DejaVuSans-73" x="629.052734"/>
      <use xlink:href="#DejaVuSans-20" x="681.152344"/>
      <use xlink:href="#DejaVuSans-6d" x="712.939453"/>
      <use xlink:href="#DejaVuSans-65" x="810.351562"/>
      <use xlink:href="#DejaVuSans-64" x="871.875"/>
      <use xlink:href="#DejaVuSans-69" x="935.351562"/>
      <use xlink:href="#DejaVuSans-61" x="963.134766"/>
      <use xlink:href="#DejaVuSans-6e" x="1024.414062"/>
     </g>
    </g>
    <g id="line2d_135">
     <path d="M 249.4745 96.79295 
L 257.4745 96.79295 
L 265.4745 96.79295 
" style="fill: none; stroke-dasharray: 7.4,3.2; stroke-dashoffset: 0; stroke: #0000ff; stroke-width: 2"/>
    </g>
    <g id="text_11">
     <!-- Selected GMs, $16^{th}$ and $84^{th}$ percentiles -->
     <g transform="translate(271.8745 99.59295) scale(0.08 -0.08)">
      <use xlink:href="#DejaVuSans-53" transform="translate(0 0.529687)"/>
      <use xlink:href="#DejaVuSans-65" transform="translate(63.476562 0.529687)"/>
      <use xlink:href="#DejaVuSans-6c" transform="translate(125 0.529687)"/>
      <use xlink:href="#DejaVuSans-65" transform="translate(152.783203 0.529687)"/>
      <use xlink:href="#DejaVuSans-63" transform="translate(214.306641 0.529687)"/>
      <use xlink:href="#DejaVuSans-74" transform="translate(269.287109 0.529687)"/>
      <use xlink:href="#DejaVuSans-65" transform="translate(308.496094 0.529687)"/>
      <use xlink:href="#DejaVuSans-64" transform="translate(370.019531 0.529687)"/>
      <use xlink:href="#DejaVuSans-20" transform="translate(433.496094 0.529687)"/>
      <use xlink:href="#DejaVuSans-47" transform="translate(465.283203 0.529687)"/>
      <use xlink:href="#DejaVuSans-4d" transform="translate(542.773438 0.529687)"/>
      <use xlink:href="#DejaVuSans-73" transform="translate(629.052734 0.529687)"/>
      <use xlink:href="#DejaVuSans-2c" transform="translate(681.152344 0.529687)"/>
      <use xlink:href="#DejaVuSans-20" transform="translate(712.939453 0.529687)"/>
      <use xlink:href="#DejaVuSans-31" transform="translate(744.726562 0.529687)"/>
      <use xlink:href="#DejaVuSans-36" transform="translate(808.349609 0.529687)"/>
      <use xlink:href="#DejaVuSans-Oblique-74" transform="translate(872.929688 38.810937) scale(0.7)"/>
      <use xlink:href="#DejaVuSans-Oblique-68" transform="translate(900.375977 38.810937) scale(0.7)"/>
      <use xlink:href="#DejaVuSans-20" transform="translate(947.475586 0.529687)"/>
      <use xlink:href="#DejaVuSans-61" transform="translate(979.262695 0.529687)"/>
      <use xlink:href="#DejaVuSans-6e" transform="translate(1040.541992 0.529687)"/>
      <use xlink:href="#DejaVuSans-64" transform="translate(1103.920898 0.529687)"/>
      <use xlink:href="#DejaVuSans-20" transform="translate(1167.397461 0.529687)"/>
      <use xlink:href="#DejaVuSans-38" transform="translate(1199.18457 0.529687)"/>
      <use xlink:href="#DejaVuSans-34" transform="translate(1262.807617 0.529687)"/>
      <use xlink:href="#DejaVuSans-Oblique-74" transform="translate(1327.387695 38.810937) scale(0.7)"/>
      <use xlink:href="#DejaVuSans-Oblique-68" transform="translate(1354.833984 38.810937) scale(0.7)"/>
      <use xlink:href="#DejaVuSans-20" transform="translate(1401.933594 0.529687)"/>
      <use xlink:href="#DejaVuSans-70" transform="translate(1433.720703 0.529687)"/>
      <use xlink:href="#DejaVuSans-65" transform="translate(1497.197266 0.529687)"/>
      <use xlink:href="#DejaVuSans-72" transform="translate(1558.720703 0.529687)"/>
      <use xlink:href="#DejaVuSans-63" transform="translate(1599.833984 0.529687)"/>
      <use xlink:href="#DejaVuSans-65" transform="translate(1654.814453 0.529687)"/>
      <use xlink:href="#DejaVuSans-6e" transform="translate(1716.337891 0.529687)"/>
      <use xlink:href="#DejaVuSans-74" transform="translate(1779.716797 0.529687)"/>
      <use xlink:href="#DejaVuSans-69" transform="translate(1818.925781 0.529687)"/>
      <use xlink:href="#DejaVuSans-6c" transform="translate(1846.708984 0.529687)"/>
      <use xlink:href="#DejaVuSans-65" transform="translate(1874.492188 0.529687)"/>
      <use xlink:href="#DejaVuSans-73" transform="translate(1936.015625 0.529687)"/>
     </g>
    </g>
   </g>
  </g>
 </g>
 <defs>
  <clipPath id="pf4e881d65f">
   <rect x="44.7425" y="7.2" width="197.532" height="130.8384"/>
  </clipPath>
 </defs>
</svg>
