<?xml version="1.0" encoding="utf-8" standalone="no"?>
<!DOCTYPE svg PUBLIC "-//W3C//DTD SVG 1.1//EN"
  "http://www.w3.org/Graphics/SVG/1.1/DTD/svg11.dtd">
<svg xmlns:xlink="http://www.w3.org/1999/xlink" width="441.3945pt" height="171.7234pt" viewBox="0 0 441.3945 171.7234" xmlns="http://www.w3.org/2000/svg" version="1.1">
 <metadata>
  <rdf:RDF xmlns:dc="http://purl.org/dc/elements/1.1/" xmlns:cc="http://creativecommons.org/ns#" xmlns:rdf="http://www.w3.org/1999/02/22-rdf-syntax-ns#">
   <cc:Work>
    <dc:type rdf:resource="http://purl.org/dc/dcmitype/StillImage"/>
    <dc:date>2024-11-11T12:35:13.970574</dc:date>
    <dc:format>image/svg+xml</dc:format>
    <dc:creator>
     <cc:Agent>
      <dc:title>Matplotlib v3.8.2, https://matplotlib.org/</dc:title>
     </cc:Agent>
    </dc:creator>
   </cc:Work>
  </rdf:RDF>
 </metadata>
 <defs>
  <style type="text/css">*{stroke-linejoin: round; stroke-linecap: butt}</style>
 </defs>
 <g id="figure_1">
  <g id="patch_1">
   <path d="M 0 171.7234 
L 441.3945 171.7234 
L 441.3945 0 
L 0 0 
z
" style="fill: #ffffff"/>
  </g>
  <g id="axes_1">
   <g id="patch_2">
    <path d="M 44.7425 138.0384 
L 242.2745 138.0384 
L 242.2745 7.2 
L 44.7425 7.2 
z
" style="fill: #ffffff"/>
   </g>
   <g id="matplotlib.axis_1">
    <g id="xtick_1">
     <g id="line2d_1">
      <path d="M 53.721227 138.0384 
L 53.721227 7.2 
" clip-path="url(#p5fed1da52a)" style="fill: none; stroke: #d9d9d9; stroke-width: 0.8; stroke-linecap: square"/>
     </g>
     <g id="line2d_2">
      <defs>
       <path id="mbcfad22258" d="M 0 0 
L 0 3.5 
" style="stroke: #000000; stroke-width: 0.8"/>
      </defs>
      <g>
       <use xlink:href="#mbcfad22258" x="53.721227" y="138.0384" style="stroke: #000000; stroke-width: 0.8"/>
      </g>
     </g>
     <g id="text_1">
      <!-- $\mathdefault{10^{-1}}$ -->
      <g transform="translate(44.321227 151.11715) scale(0.08 -0.08)">
       <defs>
        <path id="DejaVuSans-31" d="M 794 531 
L 1825 531 
L 1825 4091 
L 703 3866 
L 703 4441 
L 1819 4666 
L 2450 4666 
L 2450 531 
L 3481 531 
L 3481 0 
L 794 0 
L 794 531 
z
" transform="scale(0.015625)"/>
        <path id="DejaVuSans-30" d="M 2034 4250 
Q 1547 4250 1301 3770 
Q 1056 3291 1056 2328 
Q 1056 1369 1301 889 
Q 1547 409 2034 409 
Q 2525 409 2770 889 
Q 3016 1369 3016 2328 
Q 3016 3291 2770 3770 
Q 2525 4250 2034 4250 
z
M 2034 4750 
Q 2819 4750 3233 4129 
Q 3647 3509 3647 2328 
Q 3647 1150 3233 529 
Q 2819 -91 2034 -91 
Q 1250 -91 836 529 
Q 422 1150 422 2328 
Q 422 3509 836 4129 
Q 1250 4750 2034 4750 
z
" transform="scale(0.015625)"/>
        <path id="DejaVuSans-2212" d="M 678 2272 
L 4684 2272 
L 4684 1741 
L 678 1741 
L 678 2272 
z
" transform="scale(0.015625)"/>
       </defs>
       <use xlink:href="#DejaVuSans-31" transform="translate(0 0.684375)"/>
       <use xlink:href="#DejaVuSans-30" transform="translate(63.623047 0.684375)"/>
       <use xlink:href="#DejaVuSans-2212" transform="translate(128.203125 38.965625) scale(0.7)"/>
       <use xlink:href="#DejaVuSans-31" transform="translate(186.855469 38.965625) scale(0.7)"/>
      </g>
     </g>
    </g>
    <g id="xtick_2">
     <g id="line2d_3">
      <path d="M 159.417352 138.0384 
L 159.417352 7.2 
" clip-path="url(#p5fed1da52a)" style="fill: none; stroke: #d9d9d9; stroke-width: 0.8; stroke-linecap: square"/>
     </g>
     <g id="line2d_4">
      <g>
       <use xlink:href="#mbcfad22258" x="159.417352" y="138.0384" style="stroke: #000000; stroke-width: 0.8"/>
      </g>
     </g>
     <g id="text_2">
      <!-- $\mathdefault{10^{0}}$ -->
      <g transform="translate(152.377352 151.11715) scale(0.08 -0.08)">
       <use xlink:href="#DejaVuSans-31" transform="translate(0 0.765625)"/>
       <use xlink:href="#DejaVuSans-30" transform="translate(63.623047 0.765625)"/>
       <use xlink:href="#DejaVuSans-30" transform="translate(128.203125 39.046875) scale(0.7)"/>
      </g>
     </g>
    </g>
    <g id="xtick_3">
     <g id="line2d_5">
      <path d="M 48.884838 138.0384 
L 48.884838 7.2 
" clip-path="url(#p5fed1da52a)" style="fill: none; stroke-dasharray: 2.96,1.28; stroke-dashoffset: 0; stroke: #f2f2f2; stroke-width: 0.8"/>
     </g>
     <g id="line2d_6">
      <defs>
       <path id="m594190b878" d="M 0 0 
L 0 2 
" style="stroke: #000000; stroke-width: 0.6"/>
      </defs>
      <g>
       <use xlink:href="#m594190b878" x="48.884838" y="138.0384" style="stroke: #000000; stroke-width: 0.6"/>
      </g>
     </g>
    </g>
    <g id="xtick_4">
     <g id="line2d_7">
      <path d="M 85.538931 138.0384 
L 85.538931 7.2 
" clip-path="url(#p5fed1da52a)" style="fill: none; stroke-dasharray: 2.96,1.28; stroke-dashoffset: 0; stroke: #f2f2f2; stroke-width: 0.8"/>
     </g>
     <g id="line2d_8">
      <g>
       <use xlink:href="#m594190b878" x="85.538931" y="138.0384" style="stroke: #000000; stroke-width: 0.6"/>
      </g>
     </g>
    </g>
    <g id="xtick_5">
     <g id="line2d_9">
      <path d="M 104.151095 138.0384 
L 104.151095 7.2 
" clip-path="url(#p5fed1da52a)" style="fill: none; stroke-dasharray: 2.96,1.28; stroke-dashoffset: 0; stroke: #f2f2f2; stroke-width: 0.8"/>
     </g>
     <g id="line2d_10">
      <g>
       <use xlink:href="#m594190b878" x="104.151095" y="138.0384" style="stroke: #000000; stroke-width: 0.6"/>
      </g>
     </g>
    </g>
    <g id="xtick_6">
     <g id="line2d_11">
      <path d="M 117.356635 138.0384 
L 117.356635 7.2 
" clip-path="url(#p5fed1da52a)" style="fill: none; stroke-dasharray: 2.96,1.28; stroke-dashoffset: 0; stroke: #f2f2f2; stroke-width: 0.8"/>
     </g>
     <g id="line2d_12">
      <g>
       <use xlink:href="#m594190b878" x="117.356635" y="138.0384" style="stroke: #000000; stroke-width: 0.6"/>
      </g>
     </g>
    </g>
    <g id="xtick_7">
     <g id="line2d_13">
      <path d="M 127.599648 138.0384 
L 127.599648 7.2 
" clip-path="url(#p5fed1da52a)" style="fill: none; stroke-dasharray: 2.96,1.28; stroke-dashoffset: 0; stroke: #f2f2f2; stroke-width: 0.8"/>
     </g>
     <g id="line2d_14">
      <g>
       <use xlink:href="#m594190b878" x="127.599648" y="138.0384" style="stroke: #000000; stroke-width: 0.6"/>
      </g>
     </g>
    </g>
    <g id="xtick_8">
     <g id="line2d_15">
      <path d="M 135.968799 138.0384 
L 135.968799 7.2 
" clip-path="url(#p5fed1da52a)" style="fill: none; stroke-dasharray: 2.96,1.28; stroke-dashoffset: 0; stroke: #f2f2f2; stroke-width: 0.8"/>
     </g>
     <g id="line2d_16">
      <g>
       <use xlink:href="#m594190b878" x="135.968799" y="138.0384" style="stroke: #000000; stroke-width: 0.6"/>
      </g>
     </g>
    </g>
    <g id="xtick_9">
     <g id="line2d_17">
      <path d="M 143.044815 138.0384 
L 143.044815 7.2 
" clip-path="url(#p5fed1da52a)" style="fill: none; stroke-dasharray: 2.96,1.28; stroke-dashoffset: 0; stroke: #f2f2f2; stroke-width: 0.8"/>
     </g>
     <g id="line2d_18">
      <g>
       <use xlink:href="#m594190b878" x="143.044815" y="138.0384" style="stroke: #000000; stroke-width: 0.6"/>
      </g>
     </g>
    </g>
    <g id="xtick_10">
     <g id="line2d_19">
      <path d="M 149.174339 138.0384 
L 149.174339 7.2 
" clip-path="url(#p5fed1da52a)" style="fill: none; stroke-dasharray: 2.96,1.28; stroke-dashoffset: 0; stroke: #f2f2f2; stroke-width: 0.8"/>
     </g>
     <g id="line2d_20">
      <g>
       <use xlink:href="#m594190b878" x="149.174339" y="138.0384" style="stroke: #000000; stroke-width: 0.6"/>
      </g>
     </g>
    </g>
    <g id="xtick_11">
     <g id="line2d_21">
      <path d="M 154.580963 138.0384 
L 154.580963 7.2 
" clip-path="url(#p5fed1da52a)" style="fill: none; stroke-dasharray: 2.96,1.28; stroke-dashoffset: 0; stroke: #f2f2f2; stroke-width: 0.8"/>
     </g>
     <g id="line2d_22">
      <g>
       <use xlink:href="#m594190b878" x="154.580963" y="138.0384" style="stroke: #000000; stroke-width: 0.6"/>
      </g>
     </g>
    </g>
    <g id="xtick_12">
     <g id="line2d_23">
      <path d="M 191.235056 138.0384 
L 191.235056 7.2 
" clip-path="url(#p5fed1da52a)" style="fill: none; stroke-dasharray: 2.96,1.28; stroke-dashoffset: 0; stroke: #f2f2f2; stroke-width: 0.8"/>
     </g>
     <g id="line2d_24">
      <g>
       <use xlink:href="#m594190b878" x="191.235056" y="138.0384" style="stroke: #000000; stroke-width: 0.6"/>
      </g>
     </g>
    </g>
    <g id="xtick_13">
     <g id="line2d_25">
      <path d="M 209.84722 138.0384 
L 209.84722 7.2 
" clip-path="url(#p5fed1da52a)" style="fill: none; stroke-dasharray: 2.96,1.28; stroke-dashoffset: 0; stroke: #f2f2f2; stroke-width: 0.8"/>
     </g>
     <g id="line2d_26">
      <g>
       <use xlink:href="#m594190b878" x="209.84722" y="138.0384" style="stroke: #000000; stroke-width: 0.6"/>
      </g>
     </g>
    </g>
    <g id="xtick_14">
     <g id="line2d_27">
      <path d="M 223.05276 138.0384 
L 223.05276 7.2 
" clip-path="url(#p5fed1da52a)" style="fill: none; stroke-dasharray: 2.96,1.28; stroke-dashoffset: 0; stroke: #f2f2f2; stroke-width: 0.8"/>
     </g>
     <g id="line2d_28">
      <g>
       <use xlink:href="#m594190b878" x="223.05276" y="138.0384" style="stroke: #000000; stroke-width: 0.6"/>
      </g>
     </g>
    </g>
    <g id="xtick_15">
     <g id="line2d_29">
      <path d="M 233.295773 138.0384 
L 233.295773 7.2 
" clip-path="url(#p5fed1da52a)" style="fill: none; stroke-dasharray: 2.96,1.28; stroke-dashoffset: 0; stroke: #f2f2f2; stroke-width: 0.8"/>
     </g>
     <g id="line2d_30">
      <g>
       <use xlink:href="#m594190b878" x="233.295773" y="138.0384" style="stroke: #000000; stroke-width: 0.6"/>
      </g>
     </g>
    </g>
    <g id="xtick_16">
     <g id="line2d_31">
      <path d="M 241.664924 138.0384 
L 241.664924 7.2 
" clip-path="url(#p5fed1da52a)" style="fill: none; stroke-dasharray: 2.96,1.28; stroke-dashoffset: 0; stroke: #f2f2f2; stroke-width: 0.8"/>
     </g>
     <g id="line2d_32">
      <g>
       <use xlink:href="#m594190b878" x="241.664924" y="138.0384" style="stroke: #000000; stroke-width: 0.6"/>
      </g>
     </g>
    </g>
    <g id="text_3">
     <!-- Period, T (s) -->
     <g transform="translate(119.576 162.85965) scale(0.08 -0.08)">
      <defs>
       <path id="DejaVuSans-50" d="M 1259 4147 
L 1259 2394 
L 2053 2394 
Q 2494 2394 2734 2622 
Q 2975 2850 2975 3272 
Q 2975 3691 2734 3919 
Q 2494 4147 2053 4147 
L 1259 4147 
z
M 628 4666 
L 2053 4666 
Q 2838 4666 3239 4311 
Q 3641 3956 3641 3272 
Q 3641 2581 3239 2228 
Q 2838 1875 2053 1875 
L 1259 1875 
L 1259 0 
L 628 0 
L 628 4666 
z
" transform="scale(0.015625)"/>
       <path id="DejaVuSans-65" d="M 3597 1894 
L 3597 1613 
L 953 1613 
Q 991 1019 1311 708 
Q 1631 397 2203 397 
Q 2534 397 2845 478 
Q 3156 559 3463 722 
L 3463 178 
Q 3153 47 2828 -22 
Q 2503 -91 2169 -91 
Q 1331 -91 842 396 
Q 353 884 353 1716 
Q 353 2575 817 3079 
Q 1281 3584 2069 3584 
Q 2775 3584 3186 3129 
Q 3597 2675 3597 1894 
z
M 3022 2063 
Q 3016 2534 2758 2815 
Q 2500 3097 2075 3097 
Q 1594 3097 1305 2825 
Q 1016 2553 972 2059 
L 3022 2063 
z
" transform="scale(0.015625)"/>
       <path id="DejaVuSans-72" d="M 2631 2963 
Q 2534 3019 2420 3045 
Q 2306 3072 2169 3072 
Q 1681 3072 1420 2755 
Q 1159 2438 1159 1844 
L 1159 0 
L 581 0 
L 581 3500 
L 1159 3500 
L 1159 2956 
Q 1341 3275 1631 3429 
Q 1922 3584 2338 3584 
Q 2397 3584 2469 3576 
Q 2541 3569 2628 3553 
L 2631 2963 
z
" transform="scale(0.015625)"/>
       <path id="DejaVuSans-69" d="M 603 3500 
L 1178 3500 
L 1178 0 
L 603 0 
L 603 3500 
z
M 603 4863 
L 1178 4863 
L 1178 4134 
L 603 4134 
L 603 4863 
z
" transform="scale(0.015625)"/>
       <path id="DejaVuSans-6f" d="M 1959 3097 
Q 1497 3097 1228 2736 
Q 959 2375 959 1747 
Q 959 1119 1226 758 
Q 1494 397 1959 397 
Q 2419 397 2687 759 
Q 2956 1122 2956 1747 
Q 2956 2369 2687 2733 
Q 2419 3097 1959 3097 
z
M 1959 3584 
Q 2709 3584 3137 3096 
Q 3566 2609 3566 1747 
Q 3566 888 3137 398 
Q 2709 -91 1959 -91 
Q 1206 -91 779 398 
Q 353 888 353 1747 
Q 353 2609 779 3096 
Q 1206 3584 1959 3584 
z
" transform="scale(0.015625)"/>
       <path id="DejaVuSans-64" d="M 2906 2969 
L 2906 4863 
L 3481 4863 
L 3481 0 
L 2906 0 
L 2906 525 
Q 2725 213 2448 61 
Q 2172 -91 1784 -91 
Q 1150 -91 751 415 
Q 353 922 353 1747 
Q 353 2572 751 3078 
Q 1150 3584 1784 3584 
Q 2172 3584 2448 3432 
Q 2725 3281 2906 2969 
z
M 947 1747 
Q 947 1113 1208 752 
Q 1469 391 1925 391 
Q 2381 391 2643 752 
Q 2906 1113 2906 1747 
Q 2906 2381 2643 2742 
Q 2381 3103 1925 3103 
Q 1469 3103 1208 2742 
Q 947 2381 947 1747 
z
" transform="scale(0.015625)"/>
       <path id="DejaVuSans-2c" d="M 750 794 
L 1409 794 
L 1409 256 
L 897 -744 
L 494 -744 
L 750 256 
L 750 794 
z
" transform="scale(0.015625)"/>
       <path id="DejaVuSans-20" transform="scale(0.015625)"/>
       <path id="DejaVuSans-54" d="M -19 4666 
L 3928 4666 
L 3928 4134 
L 2272 4134 
L 2272 0 
L 1638 0 
L 1638 4134 
L -19 4134 
L -19 4666 
z
" transform="scale(0.015625)"/>
       <path id="DejaVuSans-28" d="M 1984 4856 
Q 1566 4138 1362 3434 
Q 1159 2731 1159 2009 
Q 1159 1288 1364 580 
Q 1569 -128 1984 -844 
L 1484 -844 
Q 1016 -109 783 600 
Q 550 1309 550 2009 
Q 550 2706 781 3412 
Q 1013 4119 1484 4856 
L 1984 4856 
z
" transform="scale(0.015625)"/>
       <path id="DejaVuSans-73" d="M 2834 3397 
L 2834 2853 
Q 2591 2978 2328 3040 
Q 2066 3103 1784 3103 
Q 1356 3103 1142 2972 
Q 928 2841 928 2578 
Q 928 2378 1081 2264 
Q 1234 2150 1697 2047 
L 1894 2003 
Q 2506 1872 2764 1633 
Q 3022 1394 3022 966 
Q 3022 478 2636 193 
Q 2250 -91 1575 -91 
Q 1294 -91 989 -36 
Q 684 19 347 128 
L 347 722 
Q 666 556 975 473 
Q 1284 391 1588 391 
Q 1994 391 2212 530 
Q 2431 669 2431 922 
Q 2431 1156 2273 1281 
Q 2116 1406 1581 1522 
L 1381 1569 
Q 847 1681 609 1914 
Q 372 2147 372 2553 
Q 372 3047 722 3315 
Q 1072 3584 1716 3584 
Q 2034 3584 2315 3537 
Q 2597 3491 2834 3397 
z
" transform="scale(0.015625)"/>
       <path id="DejaVuSans-29" d="M 513 4856 
L 1013 4856 
Q 1481 4119 1714 3412 
Q 1947 2706 1947 2009 
Q 1947 1309 1714 600 
Q 1481 -109 1013 -844 
L 513 -844 
Q 928 -128 1133 580 
Q 1338 1288 1338 2009 
Q 1338 2731 1133 3434 
Q 928 4138 513 4856 
z
" transform="scale(0.015625)"/>
      </defs>
      <use xlink:href="#DejaVuSans-50"/>
      <use xlink:href="#DejaVuSans-65" x="56.677734"/>
      <use xlink:href="#DejaVuSans-72" x="118.201172"/>
      <use xlink:href="#DejaVuSans-69" x="159.314453"/>
      <use xlink:href="#DejaVuSans-6f" x="187.097656"/>
      <use xlink:href="#DejaVuSans-64" x="248.279297"/>
      <use xlink:href="#DejaVuSans-2c" x="311.755859"/>
      <use xlink:href="#DejaVuSans-20" x="343.542969"/>
      <use xlink:href="#DejaVuSans-54" x="375.330078"/>
      <use xlink:href="#DejaVuSans-20" x="436.414062"/>
      <use xlink:href="#DejaVuSans-28" x="468.201172"/>
      <use xlink:href="#DejaVuSans-73" x="507.214844"/>
      <use xlink:href="#DejaVuSans-29" x="559.314453"/>
     </g>
    </g>
   </g>
   <g id="matplotlib.axis_2">
    <g id="ytick_1">
     <g id="line2d_33">
      <path d="M 44.7425 124.066357 
L 242.2745 124.066357 
" clip-path="url(#p5fed1da52a)" style="fill: none; stroke: #d9d9d9; stroke-width: 0.8; stroke-linecap: square"/>
     </g>
     <g id="line2d_34">
      <defs>
       <path id="mc2fe32aa23" d="M 0 0 
L -3.5 0 
" style="stroke: #000000; stroke-width: 0.8"/>
      </defs>
      <g>
       <use xlink:href="#mc2fe32aa23" x="44.7425" y="124.066357" style="stroke: #000000; stroke-width: 0.8"/>
      </g>
     </g>
     <g id="text_4">
      <!-- $\mathdefault{10^{-1}}$ -->
      <g transform="translate(18.9425 127.105732) scale(0.08 -0.08)">
       <use xlink:href="#DejaVuSans-31" transform="translate(0 0.684375)"/>
       <use xlink:href="#DejaVuSans-30" transform="translate(63.623047 0.684375)"/>
       <use xlink:href="#DejaVuSans-2212" transform="translate(128.203125 38.965625) scale(0.7)"/>
       <use xlink:href="#DejaVuSans-31" transform="translate(186.855469 38.965625) scale(0.7)"/>
      </g>
     </g>
    </g>
    <g id="ytick_2">
     <g id="line2d_35">
      <path d="M 44.7425 65.427142 
L 242.2745 65.427142 
" clip-path="url(#p5fed1da52a)" style="fill: none; stroke: #d9d9d9; stroke-width: 0.8; stroke-linecap: square"/>
     </g>
     <g id="line2d_36">
      <g>
       <use xlink:href="#mc2fe32aa23" x="44.7425" y="65.427142" style="stroke: #000000; stroke-width: 0.8"/>
      </g>
     </g>
     <g id="text_5">
      <!-- $\mathdefault{10^{0}}$ -->
      <g transform="translate(23.6625 68.466517) scale(0.08 -0.08)">
       <use xlink:href="#DejaVuSans-31" transform="translate(0 0.765625)"/>
       <use xlink:href="#DejaVuSans-30" transform="translate(63.623047 0.765625)"/>
       <use xlink:href="#DejaVuSans-30" transform="translate(128.203125 39.046875) scale(0.7)"/>
      </g>
     </g>
    </g>
    <g id="ytick_3">
     <g id="line2d_37">
      <path d="M 44.7425 137.075394 
L 242.2745 137.075394 
" clip-path="url(#p5fed1da52a)" style="fill: none; stroke-dasharray: 2.96,1.28; stroke-dashoffset: 0; stroke: #f2f2f2; stroke-width: 0.8"/>
     </g>
     <g id="line2d_38">
      <defs>
       <path id="mdd88acf75e" d="M 0 0 
L -2 0 
" style="stroke: #000000; stroke-width: 0.6"/>
      </defs>
      <g>
       <use xlink:href="#mdd88acf75e" x="44.7425" y="137.075394" style="stroke: #000000; stroke-width: 0.6"/>
      </g>
     </g>
    </g>
    <g id="ytick_4">
     <g id="line2d_39">
      <path d="M 44.7425 133.149687 
L 242.2745 133.149687 
" clip-path="url(#p5fed1da52a)" style="fill: none; stroke-dasharray: 2.96,1.28; stroke-dashoffset: 0; stroke: #f2f2f2; stroke-width: 0.8"/>
     </g>
     <g id="line2d_40">
      <g>
       <use xlink:href="#mdd88acf75e" x="44.7425" y="133.149687" style="stroke: #000000; stroke-width: 0.6"/>
      </g>
     </g>
    </g>
    <g id="ytick_5">
     <g id="line2d_41">
      <path d="M 44.7425 129.749085 
L 242.2745 129.749085 
" clip-path="url(#p5fed1da52a)" style="fill: none; stroke-dasharray: 2.96,1.28; stroke-dashoffset: 0; stroke: #f2f2f2; stroke-width: 0.8"/>
     </g>
     <g id="line2d_42">
      <g>
       <use xlink:href="#mdd88acf75e" x="44.7425" y="129.749085" style="stroke: #000000; stroke-width: 0.6"/>
      </g>
     </g>
    </g>
    <g id="ytick_6">
     <g id="line2d_43">
      <path d="M 44.7425 126.749541 
L 242.2745 126.749541 
" clip-path="url(#p5fed1da52a)" style="fill: none; stroke-dasharray: 2.96,1.28; stroke-dashoffset: 0; stroke: #f2f2f2; stroke-width: 0.8"/>
     </g>
     <g id="line2d_44">
      <g>
       <use xlink:href="#mdd88acf75e" x="44.7425" y="126.749541" style="stroke: #000000; stroke-width: 0.6"/>
      </g>
     </g>
    </g>
    <g id="ytick_7">
     <g id="line2d_45">
      <path d="M 44.7425 106.414195 
L 242.2745 106.414195 
" clip-path="url(#p5fed1da52a)" style="fill: none; stroke-dasharray: 2.96,1.28; stroke-dashoffset: 0; stroke: #f2f2f2; stroke-width: 0.8"/>
     </g>
     <g id="line2d_46">
      <g>
       <use xlink:href="#mdd88acf75e" x="44.7425" y="106.414195" style="stroke: #000000; stroke-width: 0.6"/>
      </g>
     </g>
    </g>
    <g id="ytick_8">
     <g id="line2d_47">
      <path d="M 44.7425 96.088341 
L 242.2745 96.088341 
" clip-path="url(#p5fed1da52a)" style="fill: none; stroke-dasharray: 2.96,1.28; stroke-dashoffset: 0; stroke: #f2f2f2; stroke-width: 0.8"/>
     </g>
     <g id="line2d_48">
      <g>
       <use xlink:href="#mdd88acf75e" x="44.7425" y="96.088341" style="stroke: #000000; stroke-width: 0.6"/>
      </g>
     </g>
    </g>
    <g id="ytick_9">
     <g id="line2d_49">
      <path d="M 44.7425 88.762032 
L 242.2745 88.762032 
" clip-path="url(#p5fed1da52a)" style="fill: none; stroke-dasharray: 2.96,1.28; stroke-dashoffset: 0; stroke: #f2f2f2; stroke-width: 0.8"/>
     </g>
     <g id="line2d_50">
      <g>
       <use xlink:href="#mdd88acf75e" x="44.7425" y="88.762032" style="stroke: #000000; stroke-width: 0.6"/>
      </g>
     </g>
    </g>
    <g id="ytick_10">
     <g id="line2d_51">
      <path d="M 44.7425 83.079305 
L 242.2745 83.079305 
" clip-path="url(#p5fed1da52a)" style="fill: none; stroke-dasharray: 2.96,1.28; stroke-dashoffset: 0; stroke: #f2f2f2; stroke-width: 0.8"/>
     </g>
     <g id="line2d_52">
      <g>
       <use xlink:href="#mdd88acf75e" x="44.7425" y="83.079305" style="stroke: #000000; stroke-width: 0.6"/>
      </g>
     </g>
    </g>
    <g id="ytick_11">
     <g id="line2d_53">
      <path d="M 44.7425 78.436178 
L 242.2745 78.436178 
" clip-path="url(#p5fed1da52a)" style="fill: none; stroke-dasharray: 2.96,1.28; stroke-dashoffset: 0; stroke: #f2f2f2; stroke-width: 0.8"/>
     </g>
     <g id="line2d_54">
      <g>
       <use xlink:href="#mdd88acf75e" x="44.7425" y="78.436178" style="stroke: #000000; stroke-width: 0.6"/>
      </g>
     </g>
    </g>
    <g id="ytick_12">
     <g id="line2d_55">
      <path d="M 44.7425 74.510471 
L 242.2745 74.510471 
" clip-path="url(#p5fed1da52a)" style="fill: none; stroke-dasharray: 2.96,1.28; stroke-dashoffset: 0; stroke: #f2f2f2; stroke-width: 0.8"/>
     </g>
     <g id="line2d_56">
      <g>
       <use xlink:href="#mdd88acf75e" x="44.7425" y="74.510471" style="stroke: #000000; stroke-width: 0.6"/>
      </g>
     </g>
    </g>
    <g id="ytick_13">
     <g id="line2d_57">
      <path d="M 44.7425 71.109869 
L 242.2745 71.109869 
" clip-path="url(#p5fed1da52a)" style="fill: none; stroke-dasharray: 2.96,1.28; stroke-dashoffset: 0; stroke: #f2f2f2; stroke-width: 0.8"/>
     </g>
     <g id="line2d_58">
      <g>
       <use xlink:href="#mdd88acf75e" x="44.7425" y="71.109869" style="stroke: #000000; stroke-width: 0.6"/>
      </g>
     </g>
    </g>
    <g id="ytick_14">
     <g id="line2d_59">
      <path d="M 44.7425 68.110325 
L 242.2745 68.110325 
" clip-path="url(#p5fed1da52a)" style="fill: none; stroke-dasharray: 2.96,1.28; stroke-dashoffset: 0; stroke: #f2f2f2; stroke-width: 0.8"/>
     </g>
     <g id="line2d_60">
      <g>
       <use xlink:href="#mdd88acf75e" x="44.7425" y="68.110325" style="stroke: #000000; stroke-width: 0.6"/>
      </g>
     </g>
    </g>
    <g id="ytick_15">
     <g id="line2d_61">
      <path d="M 44.7425 47.774979 
L 242.2745 47.774979 
" clip-path="url(#p5fed1da52a)" style="fill: none; stroke-dasharray: 2.96,1.28; stroke-dashoffset: 0; stroke: #f2f2f2; stroke-width: 0.8"/>
     </g>
     <g id="line2d_62">
      <g>
       <use xlink:href="#mdd88acf75e" x="44.7425" y="47.774979" style="stroke: #000000; stroke-width: 0.6"/>
      </g>
     </g>
    </g>
    <g id="ytick_16">
     <g id="line2d_63">
      <path d="M 44.7425 37.449126 
L 242.2745 37.449126 
" clip-path="url(#p5fed1da52a)" style="fill: none; stroke-dasharray: 2.96,1.28; stroke-dashoffset: 0; stroke: #f2f2f2; stroke-width: 0.8"/>
     </g>
     <g id="line2d_64">
      <g>
       <use xlink:href="#mdd88acf75e" x="44.7425" y="37.449126" style="stroke: #000000; stroke-width: 0.6"/>
      </g>
     </g>
    </g>
    <g id="ytick_17">
     <g id="line2d_65">
      <path d="M 44.7425 30.122816 
L 242.2745 30.122816 
" clip-path="url(#p5fed1da52a)" style="fill: none; stroke-dasharray: 2.96,1.28; stroke-dashoffset: 0; stroke: #f2f2f2; stroke-width: 0.8"/>
     </g>
     <g id="line2d_66">
      <g>
       <use xlink:href="#mdd88acf75e" x="44.7425" y="30.122816" style="stroke: #000000; stroke-width: 0.6"/>
      </g>
     </g>
    </g>
    <g id="ytick_18">
     <g id="line2d_67">
      <path d="M 44.7425 24.440089 
L 242.2745 24.440089 
" clip-path="url(#p5fed1da52a)" style="fill: none; stroke-dasharray: 2.96,1.28; stroke-dashoffset: 0; stroke: #f2f2f2; stroke-width: 0.8"/>
     </g>
     <g id="line2d_68">
      <g>
       <use xlink:href="#mdd88acf75e" x="44.7425" y="24.440089" style="stroke: #000000; stroke-width: 0.6"/>
      </g>
     </g>
    </g>
    <g id="ytick_19">
     <g id="line2d_69">
      <path d="M 44.7425 19.796963 
L 242.2745 19.796963 
" clip-path="url(#p5fed1da52a)" style="fill: none; stroke-dasharray: 2.96,1.28; stroke-dashoffset: 0; stroke: #f2f2f2; stroke-width: 0.8"/>
     </g>
     <g id="line2d_70">
      <g>
       <use xlink:href="#mdd88acf75e" x="44.7425" y="19.796963" style="stroke: #000000; stroke-width: 0.6"/>
      </g>
     </g>
    </g>
    <g id="ytick_20">
     <g id="line2d_71">
      <path d="M 44.7425 15.871256 
L 242.2745 15.871256 
" clip-path="url(#p5fed1da52a)" style="fill: none; stroke-dasharray: 2.96,1.28; stroke-dashoffset: 0; stroke: #f2f2f2; stroke-width: 0.8"/>
     </g>
     <g id="line2d_72">
      <g>
       <use xlink:href="#mdd88acf75e" x="44.7425" y="15.871256" style="stroke: #000000; stroke-width: 0.6"/>
      </g>
     </g>
    </g>
    <g id="ytick_21">
     <g id="line2d_73">
      <path d="M 44.7425 12.470653 
L 242.2745 12.470653 
" clip-path="url(#p5fed1da52a)" style="fill: none; stroke-dasharray: 2.96,1.28; stroke-dashoffset: 0; stroke: #f2f2f2; stroke-width: 0.8"/>
     </g>
     <g id="line2d_74">
      <g>
       <use xlink:href="#mdd88acf75e" x="44.7425" y="12.470653" style="stroke: #000000; stroke-width: 0.6"/>
      </g>
     </g>
    </g>
    <g id="ytick_22">
     <g id="line2d_75">
      <path d="M 44.7425 9.47111 
L 242.2745 9.47111 
" clip-path="url(#p5fed1da52a)" style="fill: none; stroke-dasharray: 2.96,1.28; stroke-dashoffset: 0; stroke: #f2f2f2; stroke-width: 0.8"/>
     </g>
     <g id="line2d_76">
      <g>
       <use xlink:href="#mdd88acf75e" x="44.7425" y="9.47111" style="stroke: #000000; stroke-width: 0.6"/>
      </g>
     </g>
    </g>
    <g id="text_6">
     <!-- Spectral acceleration, SA (g) -->
     <g transform="translate(13.27875 129.871075) rotate(-90) scale(0.08 -0.08)">
      <defs>
       <path id="DejaVuSans-53" d="M 3425 4513 
L 3425 3897 
Q 3066 4069 2747 4153 
Q 2428 4238 2131 4238 
Q 1616 4238 1336 4038 
Q 1056 3838 1056 3469 
Q 1056 3159 1242 3001 
Q 1428 2844 1947 2747 
L 2328 2669 
Q 3034 2534 3370 2195 
Q 3706 1856 3706 1288 
Q 3706 609 3251 259 
Q 2797 -91 1919 -91 
Q 1588 -91 1214 -16 
Q 841 59 441 206 
L 441 856 
Q 825 641 1194 531 
Q 1563 422 1919 422 
Q 2459 422 2753 634 
Q 3047 847 3047 1241 
Q 3047 1584 2836 1778 
Q 2625 1972 2144 2069 
L 1759 2144 
Q 1053 2284 737 2584 
Q 422 2884 422 3419 
Q 422 4038 858 4394 
Q 1294 4750 2059 4750 
Q 2388 4750 2728 4690 
Q 3069 4631 3425 4513 
z
" transform="scale(0.015625)"/>
       <path id="DejaVuSans-70" d="M 1159 525 
L 1159 -1331 
L 581 -1331 
L 581 3500 
L 1159 3500 
L 1159 2969 
Q 1341 3281 1617 3432 
Q 1894 3584 2278 3584 
Q 2916 3584 3314 3078 
Q 3713 2572 3713 1747 
Q 3713 922 3314 415 
Q 2916 -91 2278 -91 
Q 1894 -91 1617 61 
Q 1341 213 1159 525 
z
M 3116 1747 
Q 3116 2381 2855 2742 
Q 2594 3103 2138 3103 
Q 1681 3103 1420 2742 
Q 1159 2381 1159 1747 
Q 1159 1113 1420 752 
Q 1681 391 2138 391 
Q 2594 391 2855 752 
Q 3116 1113 3116 1747 
z
" transform="scale(0.015625)"/>
       <path id="DejaVuSans-63" d="M 3122 3366 
L 3122 2828 
Q 2878 2963 2633 3030 
Q 2388 3097 2138 3097 
Q 1578 3097 1268 2742 
Q 959 2388 959 1747 
Q 959 1106 1268 751 
Q 1578 397 2138 397 
Q 2388 397 2633 464 
Q 2878 531 3122 666 
L 3122 134 
Q 2881 22 2623 -34 
Q 2366 -91 2075 -91 
Q 1284 -91 818 406 
Q 353 903 353 1747 
Q 353 2603 823 3093 
Q 1294 3584 2113 3584 
Q 2378 3584 2631 3529 
Q 2884 3475 3122 3366 
z
" transform="scale(0.015625)"/>
       <path id="DejaVuSans-74" d="M 1172 4494 
L 1172 3500 
L 2356 3500 
L 2356 3053 
L 1172 3053 
L 1172 1153 
Q 1172 725 1289 603 
Q 1406 481 1766 481 
L 2356 481 
L 2356 0 
L 1766 0 
Q 1100 0 847 248 
Q 594 497 594 1153 
L 594 3053 
L 172 3053 
L 172 3500 
L 594 3500 
L 594 4494 
L 1172 4494 
z
" transform="scale(0.015625)"/>
       <path id="DejaVuSans-61" d="M 2194 1759 
Q 1497 1759 1228 1600 
Q 959 1441 959 1056 
Q 959 750 1161 570 
Q 1363 391 1709 391 
Q 2188 391 2477 730 
Q 2766 1069 2766 1631 
L 2766 1759 
L 2194 1759 
z
M 3341 1997 
L 3341 0 
L 2766 0 
L 2766 531 
Q 2569 213 2275 61 
Q 1981 -91 1556 -91 
Q 1019 -91 701 211 
Q 384 513 384 1019 
Q 384 1609 779 1909 
Q 1175 2209 1959 2209 
L 2766 2209 
L 2766 2266 
Q 2766 2663 2505 2880 
Q 2244 3097 1772 3097 
Q 1472 3097 1187 3025 
Q 903 2953 641 2809 
L 641 3341 
Q 956 3463 1253 3523 
Q 1550 3584 1831 3584 
Q 2591 3584 2966 3190 
Q 3341 2797 3341 1997 
z
" transform="scale(0.015625)"/>
       <path id="DejaVuSans-6c" d="M 603 4863 
L 1178 4863 
L 1178 0 
L 603 0 
L 603 4863 
z
" transform="scale(0.015625)"/>
       <path id="DejaVuSans-6e" d="M 3513 2113 
L 3513 0 
L 2938 0 
L 2938 2094 
Q 2938 2591 2744 2837 
Q 2550 3084 2163 3084 
Q 1697 3084 1428 2787 
Q 1159 2491 1159 1978 
L 1159 0 
L 581 0 
L 581 3500 
L 1159 3500 
L 1159 2956 
Q 1366 3272 1645 3428 
Q 1925 3584 2291 3584 
Q 2894 3584 3203 3211 
Q 3513 2838 3513 2113 
z
" transform="scale(0.015625)"/>
       <path id="DejaVuSans-41" d="M 2188 4044 
L 1331 1722 
L 3047 1722 
L 2188 4044 
z
M 1831 4666 
L 2547 4666 
L 4325 0 
L 3669 0 
L 3244 1197 
L 1141 1197 
L 716 0 
L 50 0 
L 1831 4666 
z
" transform="scale(0.015625)"/>
       <path id="DejaVuSans-67" d="M 2906 1791 
Q 2906 2416 2648 2759 
Q 2391 3103 1925 3103 
Q 1463 3103 1205 2759 
Q 947 2416 947 1791 
Q 947 1169 1205 825 
Q 1463 481 1925 481 
Q 2391 481 2648 825 
Q 2906 1169 2906 1791 
z
M 3481 434 
Q 3481 -459 3084 -895 
Q 2688 -1331 1869 -1331 
Q 1566 -1331 1297 -1286 
Q 1028 -1241 775 -1147 
L 775 -588 
Q 1028 -725 1275 -790 
Q 1522 -856 1778 -856 
Q 2344 -856 2625 -561 
Q 2906 -266 2906 331 
L 2906 616 
Q 2728 306 2450 153 
Q 2172 0 1784 0 
Q 1141 0 747 490 
Q 353 981 353 1791 
Q 353 2603 747 3093 
Q 1141 3584 1784 3584 
Q 2172 3584 2450 3431 
Q 2728 3278 2906 2969 
L 2906 3500 
L 3481 3500 
L 3481 434 
z
" transform="scale(0.015625)"/>
      </defs>
      <use xlink:href="#DejaVuSans-53"/>
      <use xlink:href="#DejaVuSans-70" x="63.476562"/>
      <use xlink:href="#DejaVuSans-65" x="126.953125"/>
      <use xlink:href="#DejaVuSans-63" x="188.476562"/>
      <use xlink:href="#DejaVuSans-74" x="243.457031"/>
      <use xlink:href="#DejaVuSans-72" x="282.666016"/>
      <use xlink:href="#DejaVuSans-61" x="323.779297"/>
      <use xlink:href="#DejaVuSans-6c" x="385.058594"/>
      <use xlink:href="#DejaVuSans-20" x="412.841797"/>
      <use xlink:href="#DejaVuSans-61" x="444.628906"/>
      <use xlink:href="#DejaVuSans-63" x="505.908203"/>
      <use xlink:href="#DejaVuSans-63" x="560.888672"/>
      <use xlink:href="#DejaVuSans-65" x="615.869141"/>
      <use xlink:href="#DejaVuSans-6c" x="677.392578"/>
      <use xlink:href="#DejaVuSans-65" x="705.175781"/>
      <use xlink:href="#DejaVuSans-72" x="766.699219"/>
      <use xlink:href="#DejaVuSans-61" x="807.8125"/>
      <use xlink:href="#DejaVuSans-74" x="869.091797"/>
      <use xlink:href="#DejaVuSans-69" x="908.300781"/>
      <use xlink:href="#DejaVuSans-6f" x="936.083984"/>
      <use xlink:href="#DejaVuSans-6e" x="997.265625"/>
      <use xlink:href="#DejaVuSans-2c" x="1060.644531"/>
      <use xlink:href="#DejaVuSans-20" x="1092.431641"/>
      <use xlink:href="#DejaVuSans-53" x="1124.21875"/>
      <use xlink:href="#DejaVuSans-41" x="1189.570312"/>
      <use xlink:href="#DejaVuSans-20" x="1257.978516"/>
      <use xlink:href="#DejaVuSans-28" x="1289.765625"/>
      <use xlink:href="#DejaVuSans-67" x="1328.779297"/>
      <use xlink:href="#DejaVuSans-29" x="1392.255859"/>
     </g>
    </g>
   </g>
   <g id="line2d_77">
    <path d="M 53.721227 42.684761 
L 72.333391 37.394697 
L 85.538931 28.933709 
L 95.781944 20.163422 
L 104.151095 26.445794 
L 117.356635 22.525704 
L 127.599648 38.784191 
L 146.211812 51.45087 
L 159.417352 54.254416 
L 171.460723 63.42971 
L 178.029516 64.590137 
L 191.235056 75.515401 
L 209.84722 99.201431 
L 223.05276 109.21228 
L 233.295773 120.970952 
" clip-path="url(#p5fed1da52a)" style="fill: none; stroke: #b2b2b2; stroke-width: 0.8; stroke-linecap: square"/>
   </g>
   <g id="line2d_78">
    <path d="M 53.721227 76.18828 
L 72.333391 73.015765 
L 85.538931 74.359054 
L 95.781944 61.369586 
L 104.151095 55.002257 
L 117.356635 57.131135 
L 127.599648 69.022821 
L 146.211812 60.712641 
L 159.417352 52.203336 
L 171.460723 62.900808 
L 178.029516 66.044918 
L 191.235056 73.55016 
L 209.84722 70.483118 
L 223.05276 83.680784 
L 233.295773 105.163144 
" clip-path="url(#p5fed1da52a)" style="fill: none; stroke: #b2b2b2; stroke-width: 0.8; stroke-linecap: square"/>
   </g>
   <g id="line2d_79">
    <path d="M 53.721227 81.366693 
L 72.333391 69.5544 
L 85.538931 67.227771 
L 95.781944 67.708434 
L 104.151095 65.810675 
L 117.356635 58.600439 
L 127.599648 63.097821 
L 146.211812 60.565526 
L 159.417352 60.713677 
L 171.460723 65.936476 
L 178.029516 68.972928 
L 191.235056 81.981234 
L 209.84722 70.895631 
L 223.05276 94.531498 
L 233.295773 113.110356 
" clip-path="url(#p5fed1da52a)" style="fill: none; stroke: #b2b2b2; stroke-width: 0.8; stroke-linecap: square"/>
   </g>
   <g id="line2d_80">
    <path d="M 53.721227 66.414182 
L 72.333391 56.989523 
L 85.538931 58.988836 
L 95.781944 47.077606 
L 104.151095 52.32625 
L 117.356635 53.496243 
L 127.599648 40.877797 
L 146.211812 56.434052 
L 159.417352 57.544503 
L 171.460723 62.762437 
L 178.029516 76.029077 
L 191.235056 81.566905 
L 209.84722 86.927323 
L 223.05276 91.314522 
L 233.295773 89.297677 
" clip-path="url(#p5fed1da52a)" style="fill: none; stroke: #b2b2b2; stroke-width: 0.8; stroke-linecap: square"/>
   </g>
   <g id="line2d_81">
    <path d="M 53.721227 65.49256 
L 72.333391 61.776617 
L 85.538931 54.926064 
L 95.781944 47.210367 
L 104.151095 48.185714 
L 117.356635 43.760847 
L 127.599648 43.632929 
L 146.211812 52.085636 
L 159.417352 54.704765 
L 171.460723 66.262123 
L 178.029516 78.653451 
L 191.235056 86.764178 
L 209.84722 92.518569 
L 223.05276 97.538222 
L 233.295773 96.674084 
" clip-path="url(#p5fed1da52a)" style="fill: none; stroke: #b2b2b2; stroke-width: 0.8; stroke-linecap: square"/>
   </g>
   <g id="line2d_82">
    <path d="M 53.721227 67.429185 
L 72.333391 65.942088 
L 85.538931 55.952124 
L 95.781944 52.748554 
L 104.151095 46.905132 
L 117.356635 38.812465 
L 127.599648 41.822319 
L 146.211812 52.460244 
L 159.417352 59.115135 
L 171.460723 67.788619 
L 178.029516 59.492945 
L 191.235056 81.516775 
L 209.84722 74.941686 
L 223.05276 102.618277 
L 233.295773 118.166457 
" clip-path="url(#p5fed1da52a)" style="fill: none; stroke: #b2b2b2; stroke-width: 0.8; stroke-linecap: square"/>
   </g>
   <g id="line2d_83">
    <path d="M 53.721227 74.753203 
L 72.333391 64.546204 
L 85.538931 63.850893 
L 95.781944 66.894323 
L 104.151095 54.548894 
L 117.356635 66.413763 
L 127.599648 72.443669 
L 146.211812 55.472162 
L 159.417352 55.354183 
L 171.460723 57.163729 
L 178.029516 65.08394 
L 191.235056 82.304612 
L 209.84722 94.77743 
L 223.05276 93.32349 
L 233.295773 108.358013 
" clip-path="url(#p5fed1da52a)" style="fill: none; stroke: #b2b2b2; stroke-width: 0.8; stroke-linecap: square"/>
   </g>
   <g id="line2d_84">
    <path d="M 53.721227 83.902717 
L 72.333391 74.10103 
L 85.538931 78.601014 
L 95.781944 73.709902 
L 104.151095 79.003111 
L 117.356635 75.775989 
L 127.599648 73.694615 
L 146.211812 66.584471 
L 159.417352 67.486785 
L 171.460723 58.956665 
L 178.029516 73.61842 
L 191.235056 72.707468 
L 209.84722 82.771888 
L 223.05276 89.558032 
L 233.295773 88.374664 
" clip-path="url(#p5fed1da52a)" style="fill: none; stroke: #b2b2b2; stroke-width: 0.8; stroke-linecap: square"/>
   </g>
   <g id="line2d_85">
    <path d="M 53.721227 74.47575 
L 72.333391 71.947764 
L 85.538931 67.641879 
L 95.781944 64.766183 
L 104.151095 63.956369 
L 117.356635 59.144327 
L 127.599648 59.178771 
L 146.211812 68.316608 
L 159.417352 73.56651 
L 171.460723 65.467678 
L 178.029516 64.075162 
L 191.235056 64.552813 
L 209.84722 69.068594 
L 223.05276 86.002677 
L 233.295773 104.615683 
" clip-path="url(#p5fed1da52a)" style="fill: none; stroke: #b2b2b2; stroke-width: 0.8; stroke-linecap: square"/>
   </g>
   <g id="line2d_86">
    <path d="M 53.721227 83.709459 
L 72.333391 81.425473 
L 85.538931 76.044605 
L 95.781944 77.600831 
L 104.151095 80.000944 
L 117.356635 78.327716 
L 127.599648 70.234208 
L 146.211812 66.158963 
L 159.417352 48.560116 
L 171.460723 58.366729 
L 178.029516 69.179309 
L 191.235056 79.379979 
L 209.84722 91.628243 
L 223.05276 105.987467 
L 233.295773 126.11523 
" clip-path="url(#p5fed1da52a)" style="fill: none; stroke: #b2b2b2; stroke-width: 0.8; stroke-linecap: square"/>
   </g>
   <g id="line2d_87">
    <path d="M 53.721227 71.378416 
L 72.333391 67.99619 
L 85.538931 68.796041 
L 95.781944 77.44176 
L 104.151095 74.112821 
L 117.356635 60.784835 
L 127.599648 64.022577 
L 146.211812 60.495927 
L 159.417352 60.983935 
L 171.460723 63.309253 
L 178.029516 63.964205 
L 191.235056 70.722265 
L 209.84722 81.607789 
L 223.05276 89.698079 
L 233.295773 99.051238 
" clip-path="url(#p5fed1da52a)" style="fill: none; stroke: #b2b2b2; stroke-width: 0.8; stroke-linecap: square"/>
   </g>
   <g id="line2d_88">
    <path d="M 53.721227 93.202274 
L 72.333391 91.930804 
L 85.538931 92.654635 
L 95.781944 85.218576 
L 104.151095 81.828766 
L 117.356635 77.339433 
L 127.599648 75.733059 
L 146.211812 71.89484 
L 159.417352 64.794786 
L 171.460723 71.351486 
L 178.029516 75.70175 
L 191.235056 72.087961 
L 209.84722 77.011441 
L 223.05276 92.607015 
L 233.295773 94.23812 
" clip-path="url(#p5fed1da52a)" style="fill: none; stroke: #b2b2b2; stroke-width: 0.8; stroke-linecap: square"/>
   </g>
   <g id="line2d_89">
    <path d="M 53.721227 50.914358 
L 72.333391 38.456503 
L 85.538931 44.230636 
L 95.781944 41.98414 
L 104.151095 45.66879 
L 117.356635 55.400714 
L 127.599648 54.105292 
L 146.211812 56.361216 
L 159.417352 57.685051 
L 171.460723 68.982259 
L 178.029516 66.110005 
L 191.235056 69.317548 
L 209.84722 84.876721 
L 223.05276 90.606899 
L 233.295773 109.670498 
" clip-path="url(#p5fed1da52a)" style="fill: none; stroke: #b2b2b2; stroke-width: 0.8; stroke-linecap: square"/>
   </g>
   <g id="line2d_90">
    <path d="M 53.721227 77.916119 
L 72.333391 64.174721 
L 85.538931 67.741411 
L 95.781944 70.158373 
L 104.151095 64.698733 
L 117.356635 62.952554 
L 127.599648 65.123274 
L 146.211812 60.458065 
L 159.417352 60.170051 
L 171.460723 60.133864 
L 178.029516 60.163719 
L 191.235056 65.900004 
L 209.84722 84.714311 
L 223.05276 106.082223 
L 233.295773 109.303875 
" clip-path="url(#p5fed1da52a)" style="fill: none; stroke: #b2b2b2; stroke-width: 0.8; stroke-linecap: square"/>
   </g>
   <g id="line2d_91">
    <path d="M 53.721227 74.146969 
L 72.333391 68.9883 
L 85.538931 61.090692 
L 95.781944 65.188712 
L 104.151095 61.629485 
L 117.356635 56.937556 
L 127.599648 58.04739 
L 146.211812 56.204896 
L 159.417352 53.574414 
L 171.460723 73.777596 
L 178.029516 75.544866 
L 191.235056 76.502581 
L 209.84722 77.511584 
L 223.05276 88.921658 
L 233.295773 104.837433 
" clip-path="url(#p5fed1da52a)" style="fill: none; stroke: #b2b2b2; stroke-width: 0.8; stroke-linecap: square"/>
   </g>
   <g id="line2d_92">
    <path d="M 53.721227 74.499793 
L 72.333391 65.982684 
L 85.538931 59.99827 
L 95.781944 57.041513 
L 104.151095 54.752544 
L 117.356635 45.239867 
L 127.599648 43.66112 
L 146.211812 65.854934 
L 159.417352 57.700008 
L 171.460723 62.425859 
L 178.029516 68.513951 
L 191.235056 76.08869 
L 209.84722 86.040593 
L 223.05276 93.210311 
L 233.295773 107.272181 
" clip-path="url(#p5fed1da52a)" style="fill: none; stroke: #b2b2b2; stroke-width: 0.8; stroke-linecap: square"/>
   </g>
   <g id="line2d_93">
    <path d="M 53.721227 46.203284 
L 72.333391 32.007067 
L 85.538931 24.580247 
L 95.781944 28.076582 
L 104.151095 36.892118 
L 117.356635 32.87826 
L 127.599648 46.008037 
L 146.211812 60.015152 
L 159.417352 61.914168 
L 171.460723 72.032951 
L 178.029516 72.187856 
L 191.235056 78.656159 
L 209.84722 96.970288 
L 223.05276 108.560314 
L 233.295773 106.178071 
" clip-path="url(#p5fed1da52a)" style="fill: none; stroke: #b2b2b2; stroke-width: 0.8; stroke-linecap: square"/>
   </g>
   <g id="line2d_94">
    <path d="M 53.721227 51.960291 
L 72.333391 39.414509 
L 85.538931 44.015469 
L 95.781944 32.966702 
L 104.151095 46.436011 
L 117.356635 43.36051 
L 127.599648 50.978776 
L 146.211812 55.858664 
L 159.417352 58.665377 
L 171.460723 61.951608 
L 178.029516 66.605658 
L 191.235056 86.966755 
L 209.84722 91.657146 
L 223.05276 94.474187 
L 233.295773 102.214587 
" clip-path="url(#p5fed1da52a)" style="fill: none; stroke: #b2b2b2; stroke-width: 0.8; stroke-linecap: square"/>
   </g>
   <g id="line2d_95">
    <path d="M 53.721227 63.863401 
L 72.333391 56.082728 
L 85.538931 57.193248 
L 95.781944 63.981647 
L 104.151095 56.101128 
L 117.356635 64.778849 
L 127.599648 57.308432 
L 146.211812 53.146228 
L 159.417352 68.162594 
L 171.460723 66.015486 
L 178.029516 65.057997 
L 191.235056 81.360915 
L 209.84722 87.175499 
L 223.05276 83.003621 
L 233.295773 79.866459 
" clip-path="url(#p5fed1da52a)" style="fill: none; stroke: #b2b2b2; stroke-width: 0.8; stroke-linecap: square"/>
   </g>
   <g id="line2d_96">
    <path d="M 53.721227 47.264175 
L 72.333391 45.389484 
L 85.538931 39.994094 
L 95.781944 39.151567 
L 104.151095 40.368976 
L 117.356635 39.099306 
L 127.599648 46.035495 
L 146.211812 46.385443 
L 159.417352 58.116048 
L 171.460723 71.018237 
L 178.029516 74.535117 
L 191.235056 73.853573 
L 209.84722 94.717187 
L 223.05276 101.062939 
L 233.295773 110.183548 
" clip-path="url(#p5fed1da52a)" style="fill: none; stroke: #b2b2b2; stroke-width: 0.8; stroke-linecap: square"/>
   </g>
   <g id="line2d_97">
    <path d="M 53.721227 13.1472 
L 72.333391 14.840132 
L 85.538931 22.838408 
L 95.781944 22.51438 
L 104.151095 23.678937 
L 117.356635 28.623315 
L 127.599648 46.763673 
L 146.211812 54.993037 
L 159.417352 64.475002 
L 171.460723 68.536596 
L 178.029516 65.212587 
L 191.235056 72.727893 
L 209.84722 89.242143 
L 223.05276 109.805261 
L 233.295773 129.744534 
" clip-path="url(#p5fed1da52a)" style="fill: none; stroke: #b2b2b2; stroke-width: 0.8; stroke-linecap: square"/>
   </g>
   <g id="line2d_98">
    <path d="M 53.721227 73.736049 
L 72.333391 69.120311 
L 85.538931 69.647196 
L 95.781944 65.974714 
L 104.151095 62.589577 
L 117.356635 55.494191 
L 127.599648 65.977214 
L 146.211812 58.006001 
L 159.417352 70.612755 
L 171.460723 62.08021 
L 178.029516 60.248551 
L 191.235056 69.409446 
L 209.84722 90.655494 
L 223.05276 104.304877 
L 233.295773 114.9315 
" clip-path="url(#p5fed1da52a)" style="fill: none; stroke: #b2b2b2; stroke-width: 0.8; stroke-linecap: square"/>
   </g>
   <g id="line2d_99">
    <path d="M 53.721227 58.465508 
L 72.333391 56.660951 
L 85.538931 49.857077 
L 95.781944 51.655788 
L 104.151095 53.155304 
L 117.356635 54.305552 
L 127.599648 57.614975 
L 146.211812 55.104051 
L 159.417352 58.587877 
L 171.460723 76.750719 
L 178.029516 72.45158 
L 191.235056 67.743233 
L 209.84722 94.712309 
L 223.05276 112.994869 
L 233.295773 127.485638 
" clip-path="url(#p5fed1da52a)" style="fill: none; stroke: #b2b2b2; stroke-width: 0.8; stroke-linecap: square"/>
   </g>
   <g id="line2d_100">
    <path d="M 53.721227 49.97801 
L 72.333391 36.717809 
L 85.538931 36.939217 
L 95.781944 39.417165 
L 104.151095 42.342035 
L 117.356635 39.096482 
L 127.599648 45.971345 
L 146.211812 60.232302 
L 159.417352 53.009319 
L 171.460723 61.054236 
L 178.029516 76.775451 
L 191.235056 69.40582 
L 209.84722 86.25948 
L 223.05276 92.019153 
L 233.295773 114.896519 
" clip-path="url(#p5fed1da52a)" style="fill: none; stroke: #b2b2b2; stroke-width: 0.8; stroke-linecap: square"/>
   </g>
   <g id="line2d_101">
    <path d="M 53.721227 59.011552 
L 72.333391 57.89238 
L 85.538931 53.532239 
L 95.781944 55.587855 
L 104.151095 62.216036 
L 117.356635 64.540971 
L 127.599648 46.396522 
L 146.211812 64.303181 
L 159.417352 61.074543 
L 171.460723 56.359704 
L 178.029516 66.753926 
L 191.235056 82.512483 
L 209.84722 97.264593 
L 223.05276 105.551909 
L 233.295773 111.119772 
" clip-path="url(#p5fed1da52a)" style="fill: none; stroke: #b2b2b2; stroke-width: 0.8; stroke-linecap: square"/>
   </g>
   <g id="line2d_102">
    <path d="M 53.721227 82.597361 
L 72.333391 71.951096 
L 85.538931 69.634211 
L 95.781944 58.651208 
L 104.151095 65.156108 
L 117.356635 57.970356 
L 127.599648 45.986774 
L 146.211812 60.873888 
L 159.417352 57.314911 
L 171.460723 67.78082 
L 178.029516 74.330702 
L 191.235056 73.870854 
L 209.84722 94.524321 
L 223.05276 117.902525 
L 233.295773 118.081479 
" clip-path="url(#p5fed1da52a)" style="fill: none; stroke: #b2b2b2; stroke-width: 0.8; stroke-linecap: square"/>
   </g>
   <g id="line2d_103">
    <path d="M 53.721227 29.359297 
L 72.333391 20.070209 
L 85.538931 17.92413 
L 95.781944 26.02741 
L 104.151095 23.465326 
L 117.356635 40.932212 
L 127.599648 42.02022 
L 146.211812 49.791638 
L 159.417352 62.752077 
L 171.460723 64.732978 
L 178.029516 78.182766 
L 191.235056 84.648946 
L 209.84722 91.423114 
L 223.05276 92.092904 
L 233.295773 98.265984 
" clip-path="url(#p5fed1da52a)" style="fill: none; stroke: #b2b2b2; stroke-width: 0.8; stroke-linecap: square"/>
   </g>
   <g id="line2d_104">
    <path d="M 53.721227 54.529014 
L 72.333391 47.093917 
L 85.538931 42.280516 
L 95.781944 38.598913 
L 104.151095 30.309965 
L 117.356635 39.282036 
L 127.599648 32.806125 
L 146.211812 37.78362 
L 159.417352 62.899184 
L 171.460723 70.804123 
L 178.029516 74.173899 
L 191.235056 79.738785 
L 209.84722 94.416692 
L 223.05276 104.391661 
L 233.295773 107.492052 
" clip-path="url(#p5fed1da52a)" style="fill: none; stroke: #b2b2b2; stroke-width: 0.8; stroke-linecap: square"/>
   </g>
   <g id="line2d_105">
    <path d="M 53.721227 67.701936 
L 72.333391 64.79279 
L 85.538931 62.223636 
L 95.781944 60.920011 
L 104.151095 54.537787 
L 117.356635 45.463482 
L 127.599648 38.954955 
L 146.211812 41.009923 
L 159.417352 51.669078 
L 171.460723 64.394892 
L 178.029516 76.814077 
L 191.235056 90.730692 
L 209.84722 110.339025 
L 223.05276 118.612629 
L 233.295773 128.347331 
" clip-path="url(#p5fed1da52a)" style="fill: none; stroke: #b2b2b2; stroke-width: 0.8; stroke-linecap: square"/>
   </g>
   <g id="line2d_106">
    <path d="M 53.721227 84.304004 
L 72.333391 72.529756 
L 85.538931 67.035066 
L 95.781944 69.060414 
L 104.151095 64.595195 
L 117.356635 64.950343 
L 127.599648 60.814297 
L 146.211812 64.265349 
L 159.417352 64.72615 
L 171.460723 59.990475 
L 178.029516 63.485812 
L 191.235056 71.79385 
L 209.84722 96.178105 
L 223.05276 122.804861 
L 233.295773 119.566006 
" clip-path="url(#p5fed1da52a)" style="fill: none; stroke: #b2b2b2; stroke-width: 0.8; stroke-linecap: square"/>
   </g>
   <g id="line2d_107">
    <path d="M 53.721227 47.307797 
L 72.333391 46.616878 
L 85.538931 42.087635 
L 95.781944 52.769549 
L 104.151095 55.339761 
L 117.356635 58.035822 
L 127.599648 67.092581 
L 146.211812 64.255589 
L 159.417352 68.168825 
L 171.460723 56.13748 
L 178.029516 55.533333 
L 191.235056 70.87367 
L 209.84722 88.116245 
L 223.05276 90.84217 
L 233.295773 103.53159 
" clip-path="url(#p5fed1da52a)" style="fill: none; stroke: #b2b2b2; stroke-width: 0.8; stroke-linecap: square"/>
   </g>
   <g id="line2d_108">
    <path d="M 53.721227 74.549031 
L 72.333391 71.812089 
L 85.538931 63.497337 
L 95.781944 55.921718 
L 104.151095 49.924705 
L 117.356635 49.747455 
L 127.599648 42.733332 
L 146.211812 49.129079 
L 159.417352 57.408598 
L 171.460723 70.317139 
L 178.029516 68.829786 
L 191.235056 78.230426 
L 209.84722 82.110113 
L 223.05276 100.183992 
L 233.295773 118.903248 
" clip-path="url(#p5fed1da52a)" style="fill: none; stroke: #b2b2b2; stroke-width: 0.8; stroke-linecap: square"/>
   </g>
   <g id="line2d_109">
    <path d="M 53.721227 64.31176 
L 72.333391 61.468038 
L 85.538931 44.774063 
L 95.781944 50.815117 
L 104.151095 49.805783 
L 117.356635 51.962731 
L 127.599648 41.910032 
L 146.211812 42.159979 
L 159.417352 52.665567 
L 171.460723 67.53004 
L 178.029516 77.77364 
L 191.235056 90.109192 
L 209.84722 92.608849 
L 223.05276 100.556483 
L 233.295773 112.20218 
" clip-path="url(#p5fed1da52a)" style="fill: none; stroke: #b2b2b2; stroke-width: 0.8; stroke-linecap: square"/>
   </g>
   <g id="line2d_110">
    <path d="M 53.721227 77.694122 
L 72.333391 66.596732 
L 85.538931 69.399711 
L 95.781944 59.207809 
L 104.151095 53.482314 
L 117.356635 60.041938 
L 127.599648 59.054835 
L 146.211812 50.302788 
L 159.417352 62.959916 
L 171.460723 61.393858 
L 178.029516 62.707644 
L 191.235056 79.638486 
L 209.84722 100.798522 
L 223.05276 110.908379 
L 233.295773 117.939776 
" clip-path="url(#p5fed1da52a)" style="fill: none; stroke: #b2b2b2; stroke-width: 0.8; stroke-linecap: square"/>
   </g>
   <g id="line2d_111">
    <path d="M 53.721227 67.155676 
L 72.333391 66.588668 
L 85.538931 64.67502 
L 95.781944 67.866926 
L 104.151095 64.641887 
L 117.356635 65.147829 
L 127.599648 59.683204 
L 146.211812 53.095131 
L 159.417352 56.67841 
L 171.460723 67.807365 
L 178.029516 65.209301 
L 191.235056 74.072105 
L 209.84722 85.650784 
L 223.05276 99.221323 
L 233.295773 103.644995 
" clip-path="url(#p5fed1da52a)" style="fill: none; stroke: #b2b2b2; stroke-width: 0.8; stroke-linecap: square"/>
   </g>
   <g id="line2d_112">
    <path d="M 53.721227 63.919899 
L 72.333391 58.916121 
L 85.538931 51.379443 
L 95.781944 47.348322 
L 104.151095 63.660417 
L 117.356635 61.136098 
L 127.599648 56.092966 
L 146.211812 65.630083 
L 159.417352 61.706959 
L 171.460723 66.389554 
L 178.029516 70.626302 
L 191.235056 71.424419 
L 209.84722 70.964408 
L 223.05276 75.556853 
L 233.295773 84.100768 
" clip-path="url(#p5fed1da52a)" style="fill: none; stroke: #b2b2b2; stroke-width: 0.8; stroke-linecap: square"/>
   </g>
   <g id="line2d_113">
    <path d="M 53.721227 72.973667 
L 72.333391 62.180136 
L 85.538931 62.987002 
L 95.781944 55.525186 
L 104.151095 59.346777 
L 117.356635 65.611639 
L 127.599648 49.650316 
L 146.211812 57.269028 
L 159.417352 59.907926 
L 171.460723 57.678303 
L 178.029516 69.433201 
L 191.235056 80.392536 
L 209.84722 86.863957 
L 223.05276 102.862695 
L 233.295773 115.690236 
" clip-path="url(#p5fed1da52a)" style="fill: none; stroke: #b2b2b2; stroke-width: 0.8; stroke-linecap: square"/>
   </g>
   <g id="line2d_114">
    <path d="M 53.721227 47.830022 
L 72.333391 45.109484 
L 85.538931 55.746248 
L 95.781944 48.29896 
L 104.151095 40.833164 
L 117.356635 55.576518 
L 127.599648 62.261714 
L 146.211812 54.129412 
L 159.417352 72.140824 
L 171.460723 75.994645 
L 178.029516 76.355213 
L 191.235056 72.854881 
L 209.84722 84.190951 
L 223.05276 81.513925 
L 233.295773 92.949498 
" clip-path="url(#p5fed1da52a)" style="fill: none; stroke: #b2b2b2; stroke-width: 0.8; stroke-linecap: square"/>
   </g>
   <g id="line2d_115">
    <path d="M 53.721227 77.572998 
L 72.333391 70.114823 
L 85.538931 62.478306 
L 95.781944 63.985744 
L 104.151095 64.040539 
L 117.356635 63.019631 
L 127.599648 58.428338 
L 146.211812 56.578243 
L 159.417352 55.984802 
L 171.460723 61.24682 
L 178.029516 70.569142 
L 191.235056 87.315902 
L 209.84722 92.878809 
L 223.05276 90.537961 
L 233.295773 97.967887 
" clip-path="url(#p5fed1da52a)" style="fill: none; stroke: #b2b2b2; stroke-width: 0.8; stroke-linecap: square"/>
   </g>
   <g id="line2d_116">
    <path d="M 53.721227 64.022244 
L 72.333391 61.126219 
L 85.538931 58.362412 
L 95.781944 64.817437 
L 104.151095 60.882835 
L 117.356635 57.571995 
L 127.599648 54.353025 
L 146.211812 67.134681 
L 159.417352 68.63383 
L 171.460723 57.888981 
L 178.029516 61.115744 
L 191.235056 75.101035 
L 209.84722 91.684785 
L 223.05276 98.910617 
L 233.295773 107.803688 
" clip-path="url(#p5fed1da52a)" style="fill: none; stroke: #b2b2b2; stroke-width: 0.8; stroke-linecap: square"/>
   </g>
   <g id="line2d_117">
    <path d="M 53.721227 49.831418 
L 72.333391 49.34484 
L 85.538931 42.482024 
L 95.781944 46.219853 
L 104.151095 41.248728 
L 117.356635 46.747103 
L 127.599648 56.665965 
L 146.211812 59.993864 
L 159.417352 63.793117 
L 171.460723 60.410971 
L 178.029516 59.442935 
L 191.235056 83.301415 
L 209.84722 94.771639 
L 223.05276 102.451339 
L 233.295773 118.060259 
" clip-path="url(#p5fed1da52a)" style="fill: none; stroke: #b2b2b2; stroke-width: 0.8; stroke-linecap: square"/>
   </g>
   <g id="line2d_118">
    <path d="M 53.721227 64.409674 
L 72.333391 66.737778 
L 85.538931 53.417408 
L 95.781944 48.832558 
L 104.151095 50.635791 
L 117.356635 48.845193 
L 127.599648 44.416602 
L 146.211812 49.091634 
L 159.417352 70.178625 
L 171.460723 70.361732 
L 178.029516 67.300286 
L 191.235056 67.635115 
L 209.84722 79.016814 
L 223.05276 92.198302 
L 233.295773 110.790906 
" clip-path="url(#p5fed1da52a)" style="fill: none; stroke: #b2b2b2; stroke-width: 0.8; stroke-linecap: square"/>
   </g>
   <g id="line2d_119">
    <path d="M 53.721227 37.19274 
L 72.333391 31.664805 
L 85.538931 34.233822 
L 95.781944 39.908573 
L 104.151095 34.437823 
L 117.356635 42.542978 
L 127.599648 44.09473 
L 146.211812 56.259248 
L 159.417352 58.358117 
L 171.460723 72.144018 
L 178.029516 62.79738 
L 191.235056 63.465901 
L 209.84722 79.22678 
L 223.05276 104.080744 
L 233.295773 106.627125 
" clip-path="url(#p5fed1da52a)" style="fill: none; stroke: #b2b2b2; stroke-width: 0.8; stroke-linecap: square"/>
   </g>
   <g id="line2d_120">
    <path d="M 53.721227 81.360378 
L 72.333391 80.071354 
L 85.538931 74.791202 
L 95.781944 71.342471 
L 104.151095 60.69634 
L 117.356635 55.120082 
L 127.599648 61.334723 
L 146.211812 49.659611 
L 159.417352 59.91357 
L 171.460723 62.060772 
L 178.029516 69.383079 
L 191.235056 82.209035 
L 209.84722 89.460625 
L 223.05276 93.513108 
L 233.295773 110.448393 
" clip-path="url(#p5fed1da52a)" style="fill: none; stroke: #b2b2b2; stroke-width: 0.8; stroke-linecap: square"/>
   </g>
   <g id="line2d_121">
    <path d="M 53.721227 70.398957 
L 72.333391 71.523428 
L 85.538931 64.254992 
L 95.781944 63.268697 
L 104.151095 58.756138 
L 117.356635 53.507026 
L 127.599648 49.991166 
L 146.211812 54.726626 
L 159.417352 53.003052 
L 171.460723 53.99626 
L 178.029516 62.542903 
L 191.235056 79.158579 
L 209.84722 102.214023 
L 223.05276 116.277132 
L 233.295773 126.553919 
" clip-path="url(#p5fed1da52a)" style="fill: none; stroke: #b2b2b2; stroke-width: 0.8; stroke-linecap: square"/>
   </g>
   <g id="line2d_122">
    <path d="M 53.721227 57.474421 
L 72.333391 48.52661 
L 85.538931 41.375012 
L 95.781944 45.653421 
L 104.151095 43.140746 
L 117.356635 43.933997 
L 127.599648 47.173689 
L 146.211812 57.745961 
L 159.417352 67.013117 
L 171.460723 74.536391 
L 178.029516 71.793243 
L 191.235056 82.91503 
L 209.84722 97.661764 
L 223.05276 111.99934 
L 233.295773 113.402357 
" clip-path="url(#p5fed1da52a)" style="fill: none; stroke: #b2b2b2; stroke-width: 0.8; stroke-linecap: square"/>
   </g>
   <g id="line2d_123">
    <path d="M 53.721227 70.761617 
L 72.333391 68.930969 
L 85.538931 71.145696 
L 95.781944 68.876043 
L 104.151095 77.233509 
L 117.356635 68.553956 
L 127.599648 68.986123 
L 146.211812 75.172632 
L 159.417352 67.569287 
L 171.460723 70.88707 
L 178.029516 63.489782 
L 191.235056 67.693991 
L 209.84722 87.97123 
L 223.05276 106.872052 
L 233.295773 98.819861 
" clip-path="url(#p5fed1da52a)" style="fill: none; stroke: #b2b2b2; stroke-width: 0.8; stroke-linecap: square"/>
   </g>
   <g id="line2d_124">
    <path d="M 53.721227 88.946374 
L 72.333391 86.368669 
L 85.538931 80.845914 
L 95.781944 76.763327 
L 104.151095 71.799757 
L 117.356635 73.571741 
L 127.599648 64.364724 
L 146.211812 66.211399 
L 159.417352 59.299964 
L 171.460723 72.384131 
L 178.029516 65.008611 
L 191.235056 71.130338 
L 209.84722 85.134079 
L 223.05276 93.529444 
L 233.295773 104.821239 
" clip-path="url(#p5fed1da52a)" style="fill: none; stroke: #b2b2b2; stroke-width: 0.8; stroke-linecap: square"/>
   </g>
   <g id="line2d_125">
    <path d="M 53.721227 63.506465 
L 72.333391 59.362436 
L 85.538931 59.418038 
L 95.781944 46.214494 
L 104.151095 37.474147 
L 117.356635 34.155801 
L 127.599648 37.446487 
L 146.211812 44.288599 
L 159.417352 50.104163 
L 171.460723 59.638867 
L 178.029516 72.302363 
L 191.235056 78.150932 
L 209.84722 108.033103 
L 223.05276 111.511189 
L 233.295773 125.777035 
" clip-path="url(#p5fed1da52a)" style="fill: none; stroke: #b2b2b2; stroke-width: 0.8; stroke-linecap: square"/>
   </g>
   <g id="line2d_126">
    <path d="M 53.721227 55.526386 
L 72.333391 44.228171 
L 85.538931 40.51671 
L 95.781944 38.297852 
L 104.151095 32.164869 
L 117.356635 38.286844 
L 127.599648 43.311393 
L 146.211812 52.893031 
L 159.417352 63.088969 
L 171.460723 71.701183 
L 178.029516 74.801205 
L 191.235056 96.881521 
L 209.84722 100.39189 
L 223.05276 99.650365 
L 233.295773 122.135476 
" clip-path="url(#p5fed1da52a)" style="fill: none; stroke: #b2b2b2; stroke-width: 0.8; stroke-linecap: square"/>
   </g>
   <g id="line2d_127">
    <path d="M 53.721227 64.711613 
L 72.333391 59.200926 
L 85.538931 56.369712 
L 95.781944 55.028806 
L 104.151095 53.700023 
L 117.356635 53.448021 
L 127.599648 53.590441 
L 146.211812 56.944964 
L 159.417352 60.53795 
L 171.460723 65.098852 
L 178.029516 68.373679 
L 191.235056 76.760669 
L 209.84722 88.691649 
L 223.05276 99.443743 
L 233.295773 108.904348 
" clip-path="url(#p5fed1da52a)" style="fill: none; stroke: #ff0000; stroke-width: 2; stroke-linecap: square"/>
   </g>
   <g id="line2d_128">
    <path d="M 53.721227 33.048311 
L 72.333391 26.927953 
L 85.538931 25.209633 
L 95.781944 25.148598 
L 104.151095 25.256772 
L 117.356635 28.304509 
L 127.599648 31.680145 
L 146.211812 41.443278 
L 159.417352 48.773253 
L 171.460723 53.921506 
L 178.029516 56.499092 
L 191.235056 62.491987 
L 209.84722 70.268869 
L 223.05276 78.785623 
L 233.295773 85.931424 
" clip-path="url(#p5fed1da52a)" style="fill: none; stroke-dasharray: 7.4,3.2; stroke-dashoffset: 0; stroke: #ff0000; stroke-width: 2"/>
   </g>
   <g id="line2d_129">
    <path d="M 53.721227 96.374915 
L 72.333391 91.4739 
L 85.538931 87.529791 
L 95.781944 84.909014 
L 104.151095 82.143273 
L 117.356635 78.591533 
L 127.599648 75.500737 
L 146.211812 72.44665 
L 159.417352 72.302648 
L 171.460723 76.276198 
L 178.029516 80.248265 
L 191.235056 91.029351 
L 209.84722 107.114429 
L 223.05276 120.101863 
L 233.295773 131.877272 
" clip-path="url(#p5fed1da52a)" style="fill: none; stroke-dasharray: 7.4,3.2; stroke-dashoffset: 0; stroke: #ff0000; stroke-width: 2"/>
   </g>
   <g id="line2d_130">
    <path d="M 53.721227 64.746829 
L 72.333391 59.121483 
L 85.538931 56.332008 
L 95.781944 54.816014 
L 104.151095 53.725336 
L 117.356635 53.530717 
L 127.599648 53.723293 
L 146.211812 56.980123 
L 159.417352 60.419368 
L 171.460723 65.260478 
L 178.029516 68.591397 
L 191.235056 76.92865 
L 209.84722 88.805222 
L 223.05276 99.313051 
L 233.295773 109.11527 
" clip-path="url(#p5fed1da52a)" style="fill: none; stroke: #0000ff; stroke-width: 2; stroke-linecap: square"/>
   </g>
   <g id="line2d_131">
    <path d="M 53.721227 33.395696 
L 72.333391 27.026575 
L 85.538931 24.904181 
L 95.781944 24.927685 
L 104.151095 25.139208 
L 117.356635 28.463341 
L 127.599648 32.075162 
L 146.211812 41.501553 
L 159.417352 48.634005 
L 171.460723 53.949948 
L 178.029516 56.991373 
L 191.235056 62.527086 
L 209.84722 70.471209 
L 223.05276 78.673413 
L 233.295773 86.139341 
" clip-path="url(#p5fed1da52a)" style="fill: none; stroke-dasharray: 7.4,3.2; stroke-dashoffset: 0; stroke: #0000ff; stroke-width: 2"/>
   </g>
   <g id="line2d_132">
    <path d="M 53.721227 96.097962 
L 72.333391 91.216391 
L 85.538931 87.759834 
L 95.781944 84.704343 
L 104.151095 82.311464 
L 117.356635 78.598092 
L 127.599648 75.371423 
L 146.211812 72.458693 
L 159.417352 72.204731 
L 171.460723 76.571009 
L 178.029516 80.191422 
L 191.235056 91.330214 
L 209.84722 107.139236 
L 223.05276 119.95269 
L 233.295773 132.0912 
" clip-path="url(#p5fed1da52a)" style="fill: none; stroke-dasharray: 7.4,3.2; stroke-dashoffset: 0; stroke: #0000ff; stroke-width: 2"/>
   </g>
   <g id="patch_3">
    <path d="M 44.7425 138.0384 
L 44.7425 7.2 
" style="fill: none; stroke: #000000; stroke-width: 0.8; stroke-linejoin: miter; stroke-linecap: square"/>
   </g>
   <g id="patch_4">
    <path d="M 242.2745 138.0384 
L 242.2745 7.2 
" style="fill: none; stroke: #000000; stroke-width: 0.8; stroke-linejoin: miter; stroke-linecap: square"/>
   </g>
   <g id="patch_5">
    <path d="M 44.7425 138.0384 
L 242.2745 138.0384 
" style="fill: none; stroke: #000000; stroke-width: 0.8; stroke-linejoin: miter; stroke-linecap: square"/>
   </g>
   <g id="patch_6">
    <path d="M 44.7425 7.2 
L 242.2745 7.2 
" style="fill: none; stroke: #000000; stroke-width: 0.8; stroke-linejoin: miter; stroke-linecap: square"/>
   </g>
   <g id="legend_1">
    <g id="patch_7">
     <path d="M 247.8745 104.47295 
L 432.5945 104.47295 
Q 434.1945 104.47295 434.1945 102.87295 
L 434.1945 42.36545 
Q 434.1945 40.76545 432.5945 40.76545 
L 247.8745 40.76545 
Q 246.2745 40.76545 246.2745 42.36545 
L 246.2745 102.87295 
Q 246.2745 104.47295 247.8745 104.47295 
z
" style="fill: #ffffff; opacity: 0.8; stroke: #cccccc; stroke-linejoin: miter"/>
    </g>
    <g id="line2d_133">
     <path d="M 249.4745 47.2442 
L 257.4745 47.2442 
L 265.4745 47.2442 
" style="fill: none; stroke: #b2b2b2; stroke-width: 0.8; stroke-linecap: square"/>
    </g>
    <g id="text_7">
     <!-- Individual selected GMs -->
     <g transform="translate(271.8745 50.0442) scale(0.08 -0.08)">
      <defs>
       <path id="DejaVuSans-49" d="M 628 4666 
L 1259 4666 
L 1259 0 
L 628 0 
L 628 4666 
z
" transform="scale(0.015625)"/>
       <path id="DejaVuSans-76" d="M 191 3500 
L 800 3500 
L 1894 563 
L 2988 3500 
L 3597 3500 
L 2284 0 
L 1503 0 
L 191 3500 
z
" transform="scale(0.015625)"/>
       <path id="DejaVuSans-75" d="M 544 1381 
L 544 3500 
L 1119 3500 
L 1119 1403 
Q 1119 906 1312 657 
Q 1506 409 1894 409 
Q 2359 409 2629 706 
Q 2900 1003 2900 1516 
L 2900 3500 
L 3475 3500 
L 3475 0 
L 2900 0 
L 2900 538 
Q 2691 219 2414 64 
Q 2138 -91 1772 -91 
Q 1169 -91 856 284 
Q 544 659 544 1381 
z
M 1991 3584 
L 1991 3584 
z
" transform="scale(0.015625)"/>
       <path id="DejaVuSans-47" d="M 3809 666 
L 3809 1919 
L 2778 1919 
L 2778 2438 
L 4434 2438 
L 4434 434 
Q 4069 175 3628 42 
Q 3188 -91 2688 -91 
Q 1594 -91 976 548 
Q 359 1188 359 2328 
Q 359 3472 976 4111 
Q 1594 4750 2688 4750 
Q 3144 4750 3555 4637 
Q 3966 4525 4313 4306 
L 4313 3634 
Q 3963 3931 3569 4081 
Q 3175 4231 2741 4231 
Q 1884 4231 1454 3753 
Q 1025 3275 1025 2328 
Q 1025 1384 1454 906 
Q 1884 428 2741 428 
Q 3075 428 3337 486 
Q 3600 544 3809 666 
z
" transform="scale(0.015625)"/>
       <path id="DejaVuSans-4d" d="M 628 4666 
L 1569 4666 
L 2759 1491 
L 3956 4666 
L 4897 4666 
L 4897 0 
L 4281 0 
L 4281 4097 
L 3078 897 
L 2444 897 
L 1241 4097 
L 1241 0 
L 628 0 
L 628 4666 
z
" transform="scale(0.015625)"/>
      </defs>
      <use xlink:href="#DejaVuSans-49"/>
      <use xlink:href="#DejaVuSans-6e" x="29.492188"/>
      <use xlink:href="#DejaVuSans-64" x="92.871094"/>
      <use xlink:href="#DejaVuSans-69" x="156.347656"/>
      <use xlink:href="#DejaVuSans-76" x="184.130859"/>
      <use xlink:href="#DejaVuSans-69" x="243.310547"/>
      <use xlink:href="#DejaVuSans-64" x="271.09375"/>
      <use xlink:href="#DejaVuSans-75" x="334.570312"/>
      <use xlink:href="#DejaVuSans-61" x="397.949219"/>
      <use xlink:href="#DejaVuSans-6c" x="459.228516"/>
      <use xlink:href="#DejaVuSans-20" x="487.011719"/>
      <use xlink:href="#DejaVuSans-73" x="518.798828"/>
      <use xlink:href="#DejaVuSans-65" x="570.898438"/>
      <use xlink:href="#DejaVuSans-6c" x="632.421875"/>
      <use xlink:href="#DejaVuSans-65" x="660.205078"/>
      <use xlink:href="#DejaVuSans-63" x="721.728516"/>
      <use xlink:href="#DejaVuSans-74" x="776.708984"/>
      <use xlink:href="#DejaVuSans-65" x="815.917969"/>
      <use xlink:href="#DejaVuSans-64" x="877.441406"/>
      <use xlink:href="#DejaVuSans-20" x="940.917969"/>
      <use xlink:href="#DejaVuSans-47" x="972.705078"/>
      <use xlink:href="#DejaVuSans-4d" x="1050.195312"/>
      <use xlink:href="#DejaVuSans-73" x="1136.474609"/>
     </g>
    </g>
    <g id="line2d_134">
     <path d="M 249.4745 58.9867 
L 257.4745 58.9867 
L 265.4745 58.9867 
" style="fill: none; stroke: #ff0000; stroke-width: 2; stroke-linecap: square"/>
    </g>
    <g id="text_8">
     <!-- GCIM median -->
     <g transform="translate(271.8745 61.7867) scale(0.08 -0.08)">
      <defs>
       <path id="DejaVuSans-43" d="M 4122 4306 
L 4122 3641 
Q 3803 3938 3442 4084 
Q 3081 4231 2675 4231 
Q 1875 4231 1450 3742 
Q 1025 3253 1025 2328 
Q 1025 1406 1450 917 
Q 1875 428 2675 428 
Q 3081 428 3442 575 
Q 3803 722 4122 1019 
L 4122 359 
Q 3791 134 3420 21 
Q 3050 -91 2638 -91 
Q 1578 -91 968 557 
Q 359 1206 359 2328 
Q 359 3453 968 4101 
Q 1578 4750 2638 4750 
Q 3056 4750 3426 4639 
Q 3797 4528 4122 4306 
z
" transform="scale(0.015625)"/>
       <path id="DejaVuSans-6d" d="M 3328 2828 
Q 3544 3216 3844 3400 
Q 4144 3584 4550 3584 
Q 5097 3584 5394 3201 
Q 5691 2819 5691 2113 
L 5691 0 
L 5113 0 
L 5113 2094 
Q 5113 2597 4934 2840 
Q 4756 3084 4391 3084 
Q 3944 3084 3684 2787 
Q 3425 2491 3425 1978 
L 3425 0 
L 2847 0 
L 2847 2094 
Q 2847 2600 2669 2842 
Q 2491 3084 2119 3084 
Q 1678 3084 1418 2786 
Q 1159 2488 1159 1978 
L 1159 0 
L 581 0 
L 581 3500 
L 1159 3500 
L 1159 2956 
Q 1356 3278 1631 3431 
Q 1906 3584 2284 3584 
Q 2666 3584 2933 3390 
Q 3200 3197 3328 2828 
z
" transform="scale(0.015625)"/>
      </defs>
      <use xlink:href="#DejaVuSans-47"/>
      <use xlink:href="#DejaVuSans-43" x="77.490234"/>
      <use xlink:href="#DejaVuSans-49" x="147.314453"/>
      <use xlink:href="#DejaVuSans-4d" x="176.806641"/>
      <use xlink:href="#DejaVuSans-20" x="263.085938"/>
      <use xlink:href="#DejaVuSans-6d" x="294.873047"/>
      <use xlink:href="#DejaVuSans-65" x="392.285156"/>
      <use xlink:href="#DejaVuSans-64" x="453.808594"/>
      <use xlink:href="#DejaVuSans-69" x="517.285156"/>
      <use xlink:href="#DejaVuSans-61" x="545.068359"/>
      <use xlink:href="#DejaVuSans-6e" x="606.347656"/>
     </g>
    </g>
    <g id="line2d_135">
     <path d="M 249.4745 72.01045 
L 257.4745 72.01045 
L 265.4745 72.01045 
" style="fill: none; stroke-dasharray: 7.4,3.2; stroke-dashoffset: 0; stroke: #ff0000; stroke-width: 2"/>
    </g>
    <g id="text_9">
     <!-- GCIM $16^{th}$ and $84^{th}$ percentiles -->
     <g transform="translate(271.8745 74.81045) scale(0.08 -0.08)">
      <defs>
       <path id="DejaVuSans-36" d="M 2113 2584 
Q 1688 2584 1439 2293 
Q 1191 2003 1191 1497 
Q 1191 994 1439 701 
Q 1688 409 2113 409 
Q 2538 409 2786 701 
Q 3034 994 3034 1497 
Q 3034 2003 2786 2293 
Q 2538 2584 2113 2584 
z
M 3366 4563 
L 3366 3988 
Q 3128 4100 2886 4159 
Q 2644 4219 2406 4219 
Q 1781 4219 1451 3797 
Q 1122 3375 1075 2522 
Q 1259 2794 1537 2939 
Q 1816 3084 2150 3084 
Q 2853 3084 3261 2657 
Q 3669 2231 3669 1497 
Q 3669 778 3244 343 
Q 2819 -91 2113 -91 
Q 1303 -91 875 529 
Q 447 1150 447 2328 
Q 447 3434 972 4092 
Q 1497 4750 2381 4750 
Q 2619 4750 2861 4703 
Q 3103 4656 3366 4563 
z
" transform="scale(0.015625)"/>
       <path id="DejaVuSans-Oblique-74" d="M 2706 3500 
L 2619 3053 
L 1472 3053 
L 1100 1153 
Q 1081 1047 1072 975 
Q 1063 903 1063 863 
Q 1063 663 1183 572 
Q 1303 481 1569 481 
L 2150 481 
L 2053 0 
L 1503 0 
Q 991 0 739 200 
Q 488 400 488 806 
Q 488 878 497 964 
Q 506 1050 525 1153 
L 897 3053 
L 409 3053 
L 500 3500 
L 978 3500 
L 1172 4494 
L 1747 4494 
L 1556 3500 
L 2706 3500 
z
" transform="scale(0.015625)"/>
       <path id="DejaVuSans-Oblique-68" d="M 3566 2113 
L 3156 0 
L 2578 0 
L 2988 2091 
Q 3016 2238 3031 2350 
Q 3047 2463 3047 2528 
Q 3047 2791 2881 2937 
Q 2716 3084 2419 3084 
Q 1956 3084 1617 2771 
Q 1278 2459 1178 1941 
L 800 0 
L 225 0 
L 1172 4863 
L 1747 4863 
L 1375 2950 
Q 1594 3244 1934 3414 
Q 2275 3584 2650 3584 
Q 3113 3584 3367 3334 
Q 3622 3084 3622 2631 
Q 3622 2519 3608 2391 
Q 3594 2263 3566 2113 
z
" transform="scale(0.015625)"/>
       <path id="DejaVuSans-38" d="M 2034 2216 
Q 1584 2216 1326 1975 
Q 1069 1734 1069 1313 
Q 1069 891 1326 650 
Q 1584 409 2034 409 
Q 2484 409 2743 651 
Q 3003 894 3003 1313 
Q 3003 1734 2745 1975 
Q 2488 2216 2034 2216 
z
M 1403 2484 
Q 997 2584 770 2862 
Q 544 3141 544 3541 
Q 544 4100 942 4425 
Q 1341 4750 2034 4750 
Q 2731 4750 3128 4425 
Q 3525 4100 3525 3541 
Q 3525 3141 3298 2862 
Q 3072 2584 2669 2484 
Q 3125 2378 3379 2068 
Q 3634 1759 3634 1313 
Q 3634 634 3220 271 
Q 2806 -91 2034 -91 
Q 1263 -91 848 271 
Q 434 634 434 1313 
Q 434 1759 690 2068 
Q 947 2378 1403 2484 
z
M 1172 3481 
Q 1172 3119 1398 2916 
Q 1625 2713 2034 2713 
Q 2441 2713 2670 2916 
Q 2900 3119 2900 3481 
Q 2900 3844 2670 4047 
Q 2441 4250 2034 4250 
Q 1625 4250 1398 4047 
Q 1172 3844 1172 3481 
z
" transform="scale(0.015625)"/>
       <path id="DejaVuSans-34" d="M 2419 4116 
L 825 1625 
L 2419 1625 
L 2419 4116 
z
M 2253 4666 
L 3047 4666 
L 3047 1625 
L 3713 1625 
L 3713 1100 
L 3047 1100 
L 3047 0 
L 2419 0 
L 2419 1100 
L 313 1100 
L 313 1709 
L 2253 4666 
z
" transform="scale(0.015625)"/>
      </defs>
      <use xlink:href="#DejaVuSans-47" transform="translate(0 0.529687)"/>
      <use xlink:href="#DejaVuSans-43" transform="translate(77.490234 0.529687)"/>
      <use xlink:href="#DejaVuSans-49" transform="translate(147.314453 0.529687)"/>
      <use xlink:href="#DejaVuSans-4d" transform="translate(176.806641 0.529687)"/>
      <use xlink:href="#DejaVuSans-20" transform="translate(263.085938 0.529687)"/>
      <use xlink:href="#DejaVuSans-31" transform="translate(294.873047 0.529687)"/>
      <use xlink:href="#DejaVuSans-36" transform="translate(358.496094 0.529687)"/>
      <use xlink:href="#DejaVuSans-Oblique-74" transform="translate(423.076172 38.810937) scale(0.7)"/>
      <use xlink:href="#DejaVuSans-Oblique-68" transform="translate(450.522461 38.810937) scale(0.7)"/>
      <use xlink:href="#DejaVuSans-20" transform="translate(497.62207 0.529687)"/>
      <use xlink:href="#DejaVuSans-61" transform="translate(529.40918 0.529687)"/>
      <use xlink:href="#DejaVuSans-6e" transform="translate(590.688477 0.529687)"/>
      <use xlink:href="#DejaVuSans-64" transform="translate(654.067383 0.529687)"/>
      <use xlink:href="#DejaVuSans-20" transform="translate(717.543945 0.529687)"/>
      <use xlink:href="#DejaVuSans-38" transform="translate(749.331055 0.529687)"/>
      <use xlink:href="#DejaVuSans-34" transform="translate(812.954102 0.529687)"/>
      <use xlink:href="#DejaVuSans-Oblique-74" transform="translate(877.53418 38.810937) scale(0.7)"/>
      <use xlink:href="#DejaVuSans-Oblique-68" transform="translate(904.980469 38.810937) scale(0.7)"/>
      <use xlink:href="#DejaVuSans-20" transform="translate(952.080078 0.529687)"/>
      <use xlink:href="#DejaVuSans-70" transform="translate(983.867188 0.529687)"/>
      <use xlink:href="#DejaVuSans-65" transform="translate(1047.34375 0.529687)"/>
      <use xlink:href="#DejaVuSans-72" transform="translate(1108.867188 0.529687)"/>
      <use xlink:href="#DejaVuSans-63" transform="translate(1149.980469 0.529687)"/>
      <use xlink:href="#DejaVuSans-65" transform="translate(1204.960938 0.529687)"/>
      <use xlink:href="#DejaVuSans-6e" transform="translate(1266.484375 0.529687)"/>
      <use xlink:href="#DejaVuSans-74" transform="translate(1329.863281 0.529687)"/>
      <use xlink:href="#DejaVuSans-69" transform="translate(1369.072266 0.529687)"/>
      <use xlink:href="#DejaVuSans-6c" transform="translate(1396.855469 0.529687)"/>
      <use xlink:href="#DejaVuSans-65" transform="translate(1424.638672 0.529687)"/>
      <use xlink:href="#DejaVuSans-73" transform="translate(1486.162109 0.529687)"/>
     </g>
    </g>
    <g id="line2d_136">
     <path d="M 249.4745 83.7692 
L 257.4745 83.7692 
L 265.4745 83.7692 
" style="fill: none; stroke: #0000ff; stroke-width: 2; stroke-linecap: square"/>
    </g>
    <g id="text_10">
     <!-- Selected GMs median -->
     <g transform="translate(271.8745 86.5692) scale(0.08 -0.08)">
      <use xlink:href="#DejaVuSans-53"/>
      <use xlink:href="#DejaVuSans-65" x="63.476562"/>
      <use xlink:href="#DejaVuSans-6c" x="125"/>
      <use xlink:href="#DejaVuSans-65" x="152.783203"/>
      <use xlink:href="#DejaVuSans-63" x="214.306641"/>
      <use xlink:href="#DejaVuSans-74" x="269.287109"/>
      <use xlink:href="#DejaVuSans-65" x="308.496094"/>
      <use xlink:href="#DejaVuSans-64" x="370.019531"/>
      <use xlink:href="#DejaVuSans-20" x="433.496094"/>
      <use xlink:href="#DejaVuSans-47" x="465.283203"/>
      <use xlink:href="#DejaVuSans-4d" x="542.773438"/>
      <use xlink:href="#DejaVuSans-73" x="629.052734"/>
      <use xlink:href="#DejaVuSans-20" x="681.152344"/>
      <use xlink:href="#DejaVuSans-6d" x="712.939453"/>
      <use xlink:href="#DejaVuSans-65" x="810.351562"/>
      <use xlink:href="#DejaVuSans-64" x="871.875"/>
      <use xlink:href="#DejaVuSans-69" x="935.351562"/>
      <use xlink:href="#DejaVuSans-61" x="963.134766"/>
      <use xlink:href="#DejaVuSans-6e" x="1024.414062"/>
     </g>
    </g>
    <g id="line2d_137">
     <path d="M 249.4745 96.79295 
L 257.4745 96.79295 
L 265.4745 96.79295 
" style="fill: none; stroke-dasharray: 7.4,3.2; stroke-dashoffset: 0; stroke: #0000ff; stroke-width: 2"/>
    </g>
    <g id="text_11">
     <!-- Selected GMs, $16^{th}$ and $84^{th}$ percentiles -->
     <g transform="translate(271.8745 99.59295) scale(0.08 -0.08)">
      <use xlink:href="#DejaVuSans-53" transform="translate(0 0.529687)"/>
      <use xlink:href="#DejaVuSans-65" transform="translate(63.476562 0.529687)"/>
      <use xlink:href="#DejaVuSans-6c" transform="translate(125 0.529687)"/>
      <use xlink:href="#DejaVuSans-65" transform="translate(152.783203 0.529687)"/>
      <use xlink:href="#DejaVuSans-63" transform="translate(214.306641 0.529687)"/>
      <use xlink:href="#DejaVuSans-74" transform="translate(269.287109 0.529687)"/>
      <use xlink:href="#DejaVuSans-65" transform="translate(308.496094 0.529687)"/>
      <use xlink:href="#DejaVuSans-64" transform="translate(370.019531 0.529687)"/>
      <use xlink:href="#DejaVuSans-20" transform="translate(433.496094 0.529687)"/>
      <use xlink:href="#DejaVuSans-47" transform="translate(465.283203 0.529687)"/>
      <use xlink:href="#DejaVuSans-4d" transform="translate(542.773438 0.529687)"/>
      <use xlink:href="#DejaVuSans-73" transform="translate(629.052734 0.529687)"/>
      <use xlink:href="#DejaVuSans-2c" transform="translate(681.152344 0.529687)"/>
      <use xlink:href="#DejaVuSans-20" transform="translate(712.939453 0.529687)"/>
      <use xlink:href="#DejaVuSans-31" transform="translate(744.726562 0.529687)"/>
      <use xlink:href="#DejaVuSans-36" transform="translate(808.349609 0.529687)"/>
      <use xlink:href="#DejaVuSans-Oblique-74" transform="translate(872.929688 38.810937) scale(0.7)"/>
      <use xlink:href="#DejaVuSans-Oblique-68" transform="translate(900.375977 38.810937) scale(0.7)"/>
      <use xlink:href="#DejaVuSans-20" transform="translate(947.475586 0.529687)"/>
      <use xlink:href="#DejaVuSans-61" transform="translate(979.262695 0.529687)"/>
      <use xlink:href="#DejaVuSans-6e" transform="translate(1040.541992 0.529687)"/>
      <use xlink:href="#DejaVuSans-64" transform="translate(1103.920898 0.529687)"/>
      <use xlink:href="#DejaVuSans-20" transform="translate(1167.397461 0.529687)"/>
      <use xlink:href="#DejaVuSans-38" transform="translate(1199.18457 0.529687)"/>
      <use xlink:href="#DejaVuSans-34" transform="translate(1262.807617 0.529687)"/>
      <use xlink:href="#DejaVuSans-Oblique-74" transform="translate(1327.387695 38.810937) scale(0.7)"/>
      <use xlink:href="#DejaVuSans-Oblique-68" transform="translate(1354.833984 38.810937) scale(0.7)"/>
      <use xlink:href="#DejaVuSans-20" transform="translate(1401.933594 0.529687)"/>
      <use xlink:href="#DejaVuSans-70" transform="translate(1433.720703 0.529687)"/>
      <use xlink:href="#DejaVuSans-65" transform="translate(1497.197266 0.529687)"/>
      <use xlink:href="#DejaVuSans-72" transform="translate(1558.720703 0.529687)"/>
      <use xlink:href="#DejaVuSans-63" transform="translate(1599.833984 0.529687)"/>
      <use xlink:href="#DejaVuSans-65" transform="translate(1654.814453 0.529687)"/>
      <use xlink:href="#DejaVuSans-6e" transform="translate(1716.337891 0.529687)"/>
      <use xlink:href="#DejaVuSans-74" transform="translate(1779.716797 0.529687)"/>
      <use xlink:href="#DejaVuSans-69" transform="translate(1818.925781 0.529687)"/>
      <use xlink:href="#DejaVuSans-6c" transform="translate(1846.708984 0.529687)"/>
      <use xlink:href="#DejaVuSans-65" transform="translate(1874.492188 0.529687)"/>
      <use xlink:href="#DejaVuSans-73" transform="translate(1936.015625 0.529687)"/>
     </g>
    </g>
   </g>
  </g>
 </g>
 <defs>
  <clipPath id="p5fed1da52a">
   <rect x="44.7425" y="7.2" width="197.532" height="130.8384"/>
  </clipPath>
 </defs>
</svg>
