<?xml version="1.0" encoding="utf-8" standalone="no"?>
<!DOCTYPE svg PUBLIC "-//W3C//DTD SVG 1.1//EN"
  "http://www.w3.org/Graphics/SVG/1.1/DTD/svg11.dtd">
<svg xmlns:xlink="http://www.w3.org/1999/xlink" width="441.3945pt" height="171.7234pt" viewBox="0 0 441.3945 171.7234" xmlns="http://www.w3.org/2000/svg" version="1.1">
 <metadata>
  <rdf:RDF xmlns:dc="http://purl.org/dc/elements/1.1/" xmlns:cc="http://creativecommons.org/ns#" xmlns:rdf="http://www.w3.org/1999/02/22-rdf-syntax-ns#">
   <cc:Work>
    <dc:type rdf:resource="http://purl.org/dc/dcmitype/StillImage"/>
    <dc:date>2024-11-05T20:40:59.570000</dc:date>
    <dc:format>image/svg+xml</dc:format>
    <dc:creator>
     <cc:Agent>
      <dc:title>Matplotlib v3.8.2, https://matplotlib.org/</dc:title>
     </cc:Agent>
    </dc:creator>
   </cc:Work>
  </rdf:RDF>
 </metadata>
 <defs>
  <style type="text/css">*{stroke-linejoin: round; stroke-linecap: butt}</style>
 </defs>
 <g id="figure_1">
  <g id="patch_1">
   <path d="M 0 171.7234 
L 441.3945 171.7234 
L 441.3945 0 
L 0 0 
z
" style="fill: #ffffff"/>
  </g>
  <g id="axes_1">
   <g id="patch_2">
    <path d="M 44.7425 138.0384 
L 242.2745 138.0384 
L 242.2745 7.2 
L 44.7425 7.2 
z
" style="fill: #ffffff"/>
   </g>
   <g id="matplotlib.axis_1">
    <g id="xtick_1">
     <g id="line2d_1">
      <path d="M 53.721227 138.0384 
L 53.721227 7.2 
" clip-path="url(#p81735150df)" style="fill: none; stroke: #d9d9d9; stroke-width: 0.8; stroke-linecap: square"/>
     </g>
     <g id="line2d_2">
      <defs>
       <path id="m31952477ba" d="M 0 0 
L 0 3.5 
" style="stroke: #000000; stroke-width: 0.8"/>
      </defs>
      <g>
       <use xlink:href="#m31952477ba" x="53.721227" y="138.0384" style="stroke: #000000; stroke-width: 0.8"/>
      </g>
     </g>
     <g id="text_1">
      <!-- $\mathdefault{10^{-1}}$ -->
      <g transform="translate(44.321227 151.11715) scale(0.08 -0.08)">
       <defs>
        <path id="DejaVuSans-31" d="M 794 531 
L 1825 531 
L 1825 4091 
L 703 3866 
L 703 4441 
L 1819 4666 
L 2450 4666 
L 2450 531 
L 3481 531 
L 3481 0 
L 794 0 
L 794 531 
z
" transform="scale(0.015625)"/>
        <path id="DejaVuSans-30" d="M 2034 4250 
Q 1547 4250 1301 3770 
Q 1056 3291 1056 2328 
Q 1056 1369 1301 889 
Q 1547 409 2034 409 
Q 2525 409 2770 889 
Q 3016 1369 3016 2328 
Q 3016 3291 2770 3770 
Q 2525 4250 2034 4250 
z
M 2034 4750 
Q 2819 4750 3233 4129 
Q 3647 3509 3647 2328 
Q 3647 1150 3233 529 
Q 2819 -91 2034 -91 
Q 1250 -91 836 529 
Q 422 1150 422 2328 
Q 422 3509 836 4129 
Q 1250 4750 2034 4750 
z
" transform="scale(0.015625)"/>
        <path id="DejaVuSans-2212" d="M 678 2272 
L 4684 2272 
L 4684 1741 
L 678 1741 
L 678 2272 
z
" transform="scale(0.015625)"/>
       </defs>
       <use xlink:href="#DejaVuSans-31" transform="translate(0 0.684375)"/>
       <use xlink:href="#DejaVuSans-30" transform="translate(63.623047 0.684375)"/>
       <use xlink:href="#DejaVuSans-2212" transform="translate(128.203125 38.965625) scale(0.7)"/>
       <use xlink:href="#DejaVuSans-31" transform="translate(186.855469 38.965625) scale(0.7)"/>
      </g>
     </g>
    </g>
    <g id="xtick_2">
     <g id="line2d_3">
      <path d="M 159.417352 138.0384 
L 159.417352 7.2 
" clip-path="url(#p81735150df)" style="fill: none; stroke: #d9d9d9; stroke-width: 0.8; stroke-linecap: square"/>
     </g>
     <g id="line2d_4">
      <g>
       <use xlink:href="#m31952477ba" x="159.417352" y="138.0384" style="stroke: #000000; stroke-width: 0.8"/>
      </g>
     </g>
     <g id="text_2">
      <!-- $\mathdefault{10^{0}}$ -->
      <g transform="translate(152.377352 151.11715) scale(0.08 -0.08)">
       <use xlink:href="#DejaVuSans-31" transform="translate(0 0.765625)"/>
       <use xlink:href="#DejaVuSans-30" transform="translate(63.623047 0.765625)"/>
       <use xlink:href="#DejaVuSans-30" transform="translate(128.203125 39.046875) scale(0.7)"/>
      </g>
     </g>
    </g>
    <g id="xtick_3">
     <g id="line2d_5">
      <path d="M 48.884838 138.0384 
L 48.884838 7.2 
" clip-path="url(#p81735150df)" style="fill: none; stroke-dasharray: 2.96,1.28; stroke-dashoffset: 0; stroke: #f2f2f2; stroke-width: 0.8"/>
     </g>
     <g id="line2d_6">
      <defs>
       <path id="m9d2d920cab" d="M 0 0 
L 0 2 
" style="stroke: #000000; stroke-width: 0.6"/>
      </defs>
      <g>
       <use xlink:href="#m9d2d920cab" x="48.884838" y="138.0384" style="stroke: #000000; stroke-width: 0.6"/>
      </g>
     </g>
    </g>
    <g id="xtick_4">
     <g id="line2d_7">
      <path d="M 85.538931 138.0384 
L 85.538931 7.2 
" clip-path="url(#p81735150df)" style="fill: none; stroke-dasharray: 2.96,1.28; stroke-dashoffset: 0; stroke: #f2f2f2; stroke-width: 0.8"/>
     </g>
     <g id="line2d_8">
      <g>
       <use xlink:href="#m9d2d920cab" x="85.538931" y="138.0384" style="stroke: #000000; stroke-width: 0.6"/>
      </g>
     </g>
    </g>
    <g id="xtick_5">
     <g id="line2d_9">
      <path d="M 104.151095 138.0384 
L 104.151095 7.2 
" clip-path="url(#p81735150df)" style="fill: none; stroke-dasharray: 2.96,1.28; stroke-dashoffset: 0; stroke: #f2f2f2; stroke-width: 0.8"/>
     </g>
     <g id="line2d_10">
      <g>
       <use xlink:href="#m9d2d920cab" x="104.151095" y="138.0384" style="stroke: #000000; stroke-width: 0.6"/>
      </g>
     </g>
    </g>
    <g id="xtick_6">
     <g id="line2d_11">
      <path d="M 117.356635 138.0384 
L 117.356635 7.2 
" clip-path="url(#p81735150df)" style="fill: none; stroke-dasharray: 2.96,1.28; stroke-dashoffset: 0; stroke: #f2f2f2; stroke-width: 0.8"/>
     </g>
     <g id="line2d_12">
      <g>
       <use xlink:href="#m9d2d920cab" x="117.356635" y="138.0384" style="stroke: #000000; stroke-width: 0.6"/>
      </g>
     </g>
    </g>
    <g id="xtick_7">
     <g id="line2d_13">
      <path d="M 127.599648 138.0384 
L 127.599648 7.2 
" clip-path="url(#p81735150df)" style="fill: none; stroke-dasharray: 2.96,1.28; stroke-dashoffset: 0; stroke: #f2f2f2; stroke-width: 0.8"/>
     </g>
     <g id="line2d_14">
      <g>
       <use xlink:href="#m9d2d920cab" x="127.599648" y="138.0384" style="stroke: #000000; stroke-width: 0.6"/>
      </g>
     </g>
    </g>
    <g id="xtick_8">
     <g id="line2d_15">
      <path d="M 135.968799 138.0384 
L 135.968799 7.2 
" clip-path="url(#p81735150df)" style="fill: none; stroke-dasharray: 2.96,1.28; stroke-dashoffset: 0; stroke: #f2f2f2; stroke-width: 0.8"/>
     </g>
     <g id="line2d_16">
      <g>
       <use xlink:href="#m9d2d920cab" x="135.968799" y="138.0384" style="stroke: #000000; stroke-width: 0.6"/>
      </g>
     </g>
    </g>
    <g id="xtick_9">
     <g id="line2d_17">
      <path d="M 143.044815 138.0384 
L 143.044815 7.2 
" clip-path="url(#p81735150df)" style="fill: none; stroke-dasharray: 2.96,1.28; stroke-dashoffset: 0; stroke: #f2f2f2; stroke-width: 0.8"/>
     </g>
     <g id="line2d_18">
      <g>
       <use xlink:href="#m9d2d920cab" x="143.044815" y="138.0384" style="stroke: #000000; stroke-width: 0.6"/>
      </g>
     </g>
    </g>
    <g id="xtick_10">
     <g id="line2d_19">
      <path d="M 149.174339 138.0384 
L 149.174339 7.2 
" clip-path="url(#p81735150df)" style="fill: none; stroke-dasharray: 2.96,1.28; stroke-dashoffset: 0; stroke: #f2f2f2; stroke-width: 0.8"/>
     </g>
     <g id="line2d_20">
      <g>
       <use xlink:href="#m9d2d920cab" x="149.174339" y="138.0384" style="stroke: #000000; stroke-width: 0.6"/>
      </g>
     </g>
    </g>
    <g id="xtick_11">
     <g id="line2d_21">
      <path d="M 154.580963 138.0384 
L 154.580963 7.2 
" clip-path="url(#p81735150df)" style="fill: none; stroke-dasharray: 2.96,1.28; stroke-dashoffset: 0; stroke: #f2f2f2; stroke-width: 0.8"/>
     </g>
     <g id="line2d_22">
      <g>
       <use xlink:href="#m9d2d920cab" x="154.580963" y="138.0384" style="stroke: #000000; stroke-width: 0.6"/>
      </g>
     </g>
    </g>
    <g id="xtick_12">
     <g id="line2d_23">
      <path d="M 191.235056 138.0384 
L 191.235056 7.2 
" clip-path="url(#p81735150df)" style="fill: none; stroke-dasharray: 2.96,1.28; stroke-dashoffset: 0; stroke: #f2f2f2; stroke-width: 0.8"/>
     </g>
     <g id="line2d_24">
      <g>
       <use xlink:href="#m9d2d920cab" x="191.235056" y="138.0384" style="stroke: #000000; stroke-width: 0.6"/>
      </g>
     </g>
    </g>
    <g id="xtick_13">
     <g id="line2d_25">
      <path d="M 209.84722 138.0384 
L 209.84722 7.2 
" clip-path="url(#p81735150df)" style="fill: none; stroke-dasharray: 2.96,1.28; stroke-dashoffset: 0; stroke: #f2f2f2; stroke-width: 0.8"/>
     </g>
     <g id="line2d_26">
      <g>
       <use xlink:href="#m9d2d920cab" x="209.84722" y="138.0384" style="stroke: #000000; stroke-width: 0.6"/>
      </g>
     </g>
    </g>
    <g id="xtick_14">
     <g id="line2d_27">
      <path d="M 223.05276 138.0384 
L 223.05276 7.2 
" clip-path="url(#p81735150df)" style="fill: none; stroke-dasharray: 2.96,1.28; stroke-dashoffset: 0; stroke: #f2f2f2; stroke-width: 0.8"/>
     </g>
     <g id="line2d_28">
      <g>
       <use xlink:href="#m9d2d920cab" x="223.05276" y="138.0384" style="stroke: #000000; stroke-width: 0.6"/>
      </g>
     </g>
    </g>
    <g id="xtick_15">
     <g id="line2d_29">
      <path d="M 233.295773 138.0384 
L 233.295773 7.2 
" clip-path="url(#p81735150df)" style="fill: none; stroke-dasharray: 2.96,1.28; stroke-dashoffset: 0; stroke: #f2f2f2; stroke-width: 0.8"/>
     </g>
     <g id="line2d_30">
      <g>
       <use xlink:href="#m9d2d920cab" x="233.295773" y="138.0384" style="stroke: #000000; stroke-width: 0.6"/>
      </g>
     </g>
    </g>
    <g id="xtick_16">
     <g id="line2d_31">
      <path d="M 241.664924 138.0384 
L 241.664924 7.2 
" clip-path="url(#p81735150df)" style="fill: none; stroke-dasharray: 2.96,1.28; stroke-dashoffset: 0; stroke: #f2f2f2; stroke-width: 0.8"/>
     </g>
     <g id="line2d_32">
      <g>
       <use xlink:href="#m9d2d920cab" x="241.664924" y="138.0384" style="stroke: #000000; stroke-width: 0.6"/>
      </g>
     </g>
    </g>
    <g id="text_3">
     <!-- Period, T (s) -->
     <g transform="translate(119.576 162.85965) scale(0.08 -0.08)">
      <defs>
       <path id="DejaVuSans-50" d="M 1259 4147 
L 1259 2394 
L 2053 2394 
Q 2494 2394 2734 2622 
Q 2975 2850 2975 3272 
Q 2975 3691 2734 3919 
Q 2494 4147 2053 4147 
L 1259 4147 
z
M 628 4666 
L 2053 4666 
Q 2838 4666 3239 4311 
Q 3641 3956 3641 3272 
Q 3641 2581 3239 2228 
Q 2838 1875 2053 1875 
L 1259 1875 
L 1259 0 
L 628 0 
L 628 4666 
z
" transform="scale(0.015625)"/>
       <path id="DejaVuSans-65" d="M 3597 1894 
L 3597 1613 
L 953 1613 
Q 991 1019 1311 708 
Q 1631 397 2203 397 
Q 2534 397 2845 478 
Q 3156 559 3463 722 
L 3463 178 
Q 3153 47 2828 -22 
Q 2503 -91 2169 -91 
Q 1331 -91 842 396 
Q 353 884 353 1716 
Q 353 2575 817 3079 
Q 1281 3584 2069 3584 
Q 2775 3584 3186 3129 
Q 3597 2675 3597 1894 
z
M 3022 2063 
Q 3016 2534 2758 2815 
Q 2500 3097 2075 3097 
Q 1594 3097 1305 2825 
Q 1016 2553 972 2059 
L 3022 2063 
z
" transform="scale(0.015625)"/>
       <path id="DejaVuSans-72" d="M 2631 2963 
Q 2534 3019 2420 3045 
Q 2306 3072 2169 3072 
Q 1681 3072 1420 2755 
Q 1159 2438 1159 1844 
L 1159 0 
L 581 0 
L 581 3500 
L 1159 3500 
L 1159 2956 
Q 1341 3275 1631 3429 
Q 1922 3584 2338 3584 
Q 2397 3584 2469 3576 
Q 2541 3569 2628 3553 
L 2631 2963 
z
" transform="scale(0.015625)"/>
       <path id="DejaVuSans-69" d="M 603 3500 
L 1178 3500 
L 1178 0 
L 603 0 
L 603 3500 
z
M 603 4863 
L 1178 4863 
L 1178 4134 
L 603 4134 
L 603 4863 
z
" transform="scale(0.015625)"/>
       <path id="DejaVuSans-6f" d="M 1959 3097 
Q 1497 3097 1228 2736 
Q 959 2375 959 1747 
Q 959 1119 1226 758 
Q 1494 397 1959 397 
Q 2419 397 2687 759 
Q 2956 1122 2956 1747 
Q 2956 2369 2687 2733 
Q 2419 3097 1959 3097 
z
M 1959 3584 
Q 2709 3584 3137 3096 
Q 3566 2609 3566 1747 
Q 3566 888 3137 398 
Q 2709 -91 1959 -91 
Q 1206 -91 779 398 
Q 353 888 353 1747 
Q 353 2609 779 3096 
Q 1206 3584 1959 3584 
z
" transform="scale(0.015625)"/>
       <path id="DejaVuSans-64" d="M 2906 2969 
L 2906 4863 
L 3481 4863 
L 3481 0 
L 2906 0 
L 2906 525 
Q 2725 213 2448 61 
Q 2172 -91 1784 -91 
Q 1150 -91 751 415 
Q 353 922 353 1747 
Q 353 2572 751 3078 
Q 1150 3584 1784 3584 
Q 2172 3584 2448 3432 
Q 2725 3281 2906 2969 
z
M 947 1747 
Q 947 1113 1208 752 
Q 1469 391 1925 391 
Q 2381 391 2643 752 
Q 2906 1113 2906 1747 
Q 2906 2381 2643 2742 
Q 2381 3103 1925 3103 
Q 1469 3103 1208 2742 
Q 947 2381 947 1747 
z
" transform="scale(0.015625)"/>
       <path id="DejaVuSans-2c" d="M 750 794 
L 1409 794 
L 1409 256 
L 897 -744 
L 494 -744 
L 750 256 
L 750 794 
z
" transform="scale(0.015625)"/>
       <path id="DejaVuSans-20" transform="scale(0.015625)"/>
       <path id="DejaVuSans-54" d="M -19 4666 
L 3928 4666 
L 3928 4134 
L 2272 4134 
L 2272 0 
L 1638 0 
L 1638 4134 
L -19 4134 
L -19 4666 
z
" transform="scale(0.015625)"/>
       <path id="DejaVuSans-28" d="M 1984 4856 
Q 1566 4138 1362 3434 
Q 1159 2731 1159 2009 
Q 1159 1288 1364 580 
Q 1569 -128 1984 -844 
L 1484 -844 
Q 1016 -109 783 600 
Q 550 1309 550 2009 
Q 550 2706 781 3412 
Q 1013 4119 1484 4856 
L 1984 4856 
z
" transform="scale(0.015625)"/>
       <path id="DejaVuSans-73" d="M 2834 3397 
L 2834 2853 
Q 2591 2978 2328 3040 
Q 2066 3103 1784 3103 
Q 1356 3103 1142 2972 
Q 928 2841 928 2578 
Q 928 2378 1081 2264 
Q 1234 2150 1697 2047 
L 1894 2003 
Q 2506 1872 2764 1633 
Q 3022 1394 3022 966 
Q 3022 478 2636 193 
Q 2250 -91 1575 -91 
Q 1294 -91 989 -36 
Q 684 19 347 128 
L 347 722 
Q 666 556 975 473 
Q 1284 391 1588 391 
Q 1994 391 2212 530 
Q 2431 669 2431 922 
Q 2431 1156 2273 1281 
Q 2116 1406 1581 1522 
L 1381 1569 
Q 847 1681 609 1914 
Q 372 2147 372 2553 
Q 372 3047 722 3315 
Q 1072 3584 1716 3584 
Q 2034 3584 2315 3537 
Q 2597 3491 2834 3397 
z
" transform="scale(0.015625)"/>
       <path id="DejaVuSans-29" d="M 513 4856 
L 1013 4856 
Q 1481 4119 1714 3412 
Q 1947 2706 1947 2009 
Q 1947 1309 1714 600 
Q 1481 -109 1013 -844 
L 513 -844 
Q 928 -128 1133 580 
Q 1338 1288 1338 2009 
Q 1338 2731 1133 3434 
Q 928 4138 513 4856 
z
" transform="scale(0.015625)"/>
      </defs>
      <use xlink:href="#DejaVuSans-50"/>
      <use xlink:href="#DejaVuSans-65" x="56.677734"/>
      <use xlink:href="#DejaVuSans-72" x="118.201172"/>
      <use xlink:href="#DejaVuSans-69" x="159.314453"/>
      <use xlink:href="#DejaVuSans-6f" x="187.097656"/>
      <use xlink:href="#DejaVuSans-64" x="248.279297"/>
      <use xlink:href="#DejaVuSans-2c" x="311.755859"/>
      <use xlink:href="#DejaVuSans-20" x="343.542969"/>
      <use xlink:href="#DejaVuSans-54" x="375.330078"/>
      <use xlink:href="#DejaVuSans-20" x="436.414062"/>
      <use xlink:href="#DejaVuSans-28" x="468.201172"/>
      <use xlink:href="#DejaVuSans-73" x="507.214844"/>
      <use xlink:href="#DejaVuSans-29" x="559.314453"/>
     </g>
    </g>
   </g>
   <g id="matplotlib.axis_2">
    <g id="ytick_1">
     <g id="line2d_33">
      <path d="M 44.7425 100.272313 
L 242.2745 100.272313 
" clip-path="url(#p81735150df)" style="fill: none; stroke: #d9d9d9; stroke-width: 0.8; stroke-linecap: square"/>
     </g>
     <g id="line2d_34">
      <defs>
       <path id="mcebd8f5226" d="M 0 0 
L -3.5 0 
" style="stroke: #000000; stroke-width: 0.8"/>
      </defs>
      <g>
       <use xlink:href="#mcebd8f5226" x="44.7425" y="100.272313" style="stroke: #000000; stroke-width: 0.8"/>
      </g>
     </g>
     <g id="text_4">
      <!-- $\mathdefault{10^{-1}}$ -->
      <g transform="translate(18.9425 103.311688) scale(0.08 -0.08)">
       <use xlink:href="#DejaVuSans-31" transform="translate(0 0.684375)"/>
       <use xlink:href="#DejaVuSans-30" transform="translate(63.623047 0.684375)"/>
       <use xlink:href="#DejaVuSans-2212" transform="translate(128.203125 38.965625) scale(0.7)"/>
       <use xlink:href="#DejaVuSans-31" transform="translate(186.855469 38.965625) scale(0.7)"/>
      </g>
     </g>
    </g>
    <g id="ytick_2">
     <g id="line2d_35">
      <path d="M 44.7425 49.749687 
L 242.2745 49.749687 
" clip-path="url(#p81735150df)" style="fill: none; stroke: #d9d9d9; stroke-width: 0.8; stroke-linecap: square"/>
     </g>
     <g id="line2d_36">
      <g>
       <use xlink:href="#mcebd8f5226" x="44.7425" y="49.749687" style="stroke: #000000; stroke-width: 0.8"/>
      </g>
     </g>
     <g id="text_5">
      <!-- $\mathdefault{10^{0}}$ -->
      <g transform="translate(23.6625 52.789062) scale(0.08 -0.08)">
       <use xlink:href="#DejaVuSans-31" transform="translate(0 0.765625)"/>
       <use xlink:href="#DejaVuSans-30" transform="translate(63.623047 0.765625)"/>
       <use xlink:href="#DejaVuSans-30" transform="translate(128.203125 39.046875) scale(0.7)"/>
      </g>
     </g>
    </g>
    <g id="ytick_3">
     <g id="line2d_37">
      <path d="M 44.7425 135.586113 
L 242.2745 135.586113 
" clip-path="url(#p81735150df)" style="fill: none; stroke-dasharray: 2.96,1.28; stroke-dashoffset: 0; stroke: #f2f2f2; stroke-width: 0.8"/>
     </g>
     <g id="line2d_38">
      <defs>
       <path id="m1523eff97b" d="M 0 0 
L -2 0 
" style="stroke: #000000; stroke-width: 0.6"/>
      </defs>
      <g>
       <use xlink:href="#m1523eff97b" x="44.7425" y="135.586113" style="stroke: #000000; stroke-width: 0.6"/>
      </g>
     </g>
    </g>
    <g id="ytick_4">
     <g id="line2d_39">
      <path d="M 44.7425 126.68952 
L 242.2745 126.68952 
" clip-path="url(#p81735150df)" style="fill: none; stroke-dasharray: 2.96,1.28; stroke-dashoffset: 0; stroke: #f2f2f2; stroke-width: 0.8"/>
     </g>
     <g id="line2d_40">
      <g>
       <use xlink:href="#m1523eff97b" x="44.7425" y="126.68952" style="stroke: #000000; stroke-width: 0.6"/>
      </g>
     </g>
    </g>
    <g id="ytick_5">
     <g id="line2d_41">
      <path d="M 44.7425 120.377287 
L 242.2745 120.377287 
" clip-path="url(#p81735150df)" style="fill: none; stroke-dasharray: 2.96,1.28; stroke-dashoffset: 0; stroke: #f2f2f2; stroke-width: 0.8"/>
     </g>
     <g id="line2d_42">
      <g>
       <use xlink:href="#m1523eff97b" x="44.7425" y="120.377287" style="stroke: #000000; stroke-width: 0.6"/>
      </g>
     </g>
    </g>
    <g id="ytick_6">
     <g id="line2d_43">
      <path d="M 44.7425 115.481139 
L 242.2745 115.481139 
" clip-path="url(#p81735150df)" style="fill: none; stroke-dasharray: 2.96,1.28; stroke-dashoffset: 0; stroke: #f2f2f2; stroke-width: 0.8"/>
     </g>
     <g id="line2d_44">
      <g>
       <use xlink:href="#m1523eff97b" x="44.7425" y="115.481139" style="stroke: #000000; stroke-width: 0.6"/>
      </g>
     </g>
    </g>
    <g id="ytick_7">
     <g id="line2d_45">
      <path d="M 44.7425 111.480694 
L 242.2745 111.480694 
" clip-path="url(#p81735150df)" style="fill: none; stroke-dasharray: 2.96,1.28; stroke-dashoffset: 0; stroke: #f2f2f2; stroke-width: 0.8"/>
     </g>
     <g id="line2d_46">
      <g>
       <use xlink:href="#m1523eff97b" x="44.7425" y="111.480694" style="stroke: #000000; stroke-width: 0.6"/>
      </g>
     </g>
    </g>
    <g id="ytick_8">
     <g id="line2d_47">
      <path d="M 44.7425 108.098367 
L 242.2745 108.098367 
" clip-path="url(#p81735150df)" style="fill: none; stroke-dasharray: 2.96,1.28; stroke-dashoffset: 0; stroke: #f2f2f2; stroke-width: 0.8"/>
     </g>
     <g id="line2d_48">
      <g>
       <use xlink:href="#m1523eff97b" x="44.7425" y="108.098367" style="stroke: #000000; stroke-width: 0.6"/>
      </g>
     </g>
    </g>
    <g id="ytick_9">
     <g id="line2d_49">
      <path d="M 44.7425 105.168461 
L 242.2745 105.168461 
" clip-path="url(#p81735150df)" style="fill: none; stroke-dasharray: 2.96,1.28; stroke-dashoffset: 0; stroke: #f2f2f2; stroke-width: 0.8"/>
     </g>
     <g id="line2d_50">
      <g>
       <use xlink:href="#m1523eff97b" x="44.7425" y="105.168461" style="stroke: #000000; stroke-width: 0.6"/>
      </g>
     </g>
    </g>
    <g id="ytick_10">
     <g id="line2d_51">
      <path d="M 44.7425 102.584101 
L 242.2745 102.584101 
" clip-path="url(#p81735150df)" style="fill: none; stroke-dasharray: 2.96,1.28; stroke-dashoffset: 0; stroke: #f2f2f2; stroke-width: 0.8"/>
     </g>
     <g id="line2d_52">
      <g>
       <use xlink:href="#m1523eff97b" x="44.7425" y="102.584101" style="stroke: #000000; stroke-width: 0.6"/>
      </g>
     </g>
    </g>
    <g id="ytick_11">
     <g id="line2d_53">
      <path d="M 44.7425 85.063487 
L 242.2745 85.063487 
" clip-path="url(#p81735150df)" style="fill: none; stroke-dasharray: 2.96,1.28; stroke-dashoffset: 0; stroke: #f2f2f2; stroke-width: 0.8"/>
     </g>
     <g id="line2d_54">
      <g>
       <use xlink:href="#m1523eff97b" x="44.7425" y="85.063487" style="stroke: #000000; stroke-width: 0.6"/>
      </g>
     </g>
    </g>
    <g id="ytick_12">
     <g id="line2d_55">
      <path d="M 44.7425 76.166894 
L 242.2745 76.166894 
" clip-path="url(#p81735150df)" style="fill: none; stroke-dasharray: 2.96,1.28; stroke-dashoffset: 0; stroke: #f2f2f2; stroke-width: 0.8"/>
     </g>
     <g id="line2d_56">
      <g>
       <use xlink:href="#m1523eff97b" x="44.7425" y="76.166894" style="stroke: #000000; stroke-width: 0.6"/>
      </g>
     </g>
    </g>
    <g id="ytick_13">
     <g id="line2d_57">
      <path d="M 44.7425 69.854661 
L 242.2745 69.854661 
" clip-path="url(#p81735150df)" style="fill: none; stroke-dasharray: 2.96,1.28; stroke-dashoffset: 0; stroke: #f2f2f2; stroke-width: 0.8"/>
     </g>
     <g id="line2d_58">
      <g>
       <use xlink:href="#m1523eff97b" x="44.7425" y="69.854661" style="stroke: #000000; stroke-width: 0.6"/>
      </g>
     </g>
    </g>
    <g id="ytick_14">
     <g id="line2d_59">
      <path d="M 44.7425 64.958513 
L 242.2745 64.958513 
" clip-path="url(#p81735150df)" style="fill: none; stroke-dasharray: 2.96,1.28; stroke-dashoffset: 0; stroke: #f2f2f2; stroke-width: 0.8"/>
     </g>
     <g id="line2d_60">
      <g>
       <use xlink:href="#m1523eff97b" x="44.7425" y="64.958513" style="stroke: #000000; stroke-width: 0.6"/>
      </g>
     </g>
    </g>
    <g id="ytick_15">
     <g id="line2d_61">
      <path d="M 44.7425 60.958068 
L 242.2745 60.958068 
" clip-path="url(#p81735150df)" style="fill: none; stroke-dasharray: 2.96,1.28; stroke-dashoffset: 0; stroke: #f2f2f2; stroke-width: 0.8"/>
     </g>
     <g id="line2d_62">
      <g>
       <use xlink:href="#m1523eff97b" x="44.7425" y="60.958068" style="stroke: #000000; stroke-width: 0.6"/>
      </g>
     </g>
    </g>
    <g id="ytick_16">
     <g id="line2d_63">
      <path d="M 44.7425 57.57574 
L 242.2745 57.57574 
" clip-path="url(#p81735150df)" style="fill: none; stroke-dasharray: 2.96,1.28; stroke-dashoffset: 0; stroke: #f2f2f2; stroke-width: 0.8"/>
     </g>
     <g id="line2d_64">
      <g>
       <use xlink:href="#m1523eff97b" x="44.7425" y="57.57574" style="stroke: #000000; stroke-width: 0.6"/>
      </g>
     </g>
    </g>
    <g id="ytick_17">
     <g id="line2d_65">
      <path d="M 44.7425 54.645835 
L 242.2745 54.645835 
" clip-path="url(#p81735150df)" style="fill: none; stroke-dasharray: 2.96,1.28; stroke-dashoffset: 0; stroke: #f2f2f2; stroke-width: 0.8"/>
     </g>
     <g id="line2d_66">
      <g>
       <use xlink:href="#m1523eff97b" x="44.7425" y="54.645835" style="stroke: #000000; stroke-width: 0.6"/>
      </g>
     </g>
    </g>
    <g id="ytick_18">
     <g id="line2d_67">
      <path d="M 44.7425 52.061475 
L 242.2745 52.061475 
" clip-path="url(#p81735150df)" style="fill: none; stroke-dasharray: 2.96,1.28; stroke-dashoffset: 0; stroke: #f2f2f2; stroke-width: 0.8"/>
     </g>
     <g id="line2d_68">
      <g>
       <use xlink:href="#m1523eff97b" x="44.7425" y="52.061475" style="stroke: #000000; stroke-width: 0.6"/>
      </g>
     </g>
    </g>
    <g id="ytick_19">
     <g id="line2d_69">
      <path d="M 44.7425 34.540861 
L 242.2745 34.540861 
" clip-path="url(#p81735150df)" style="fill: none; stroke-dasharray: 2.96,1.28; stroke-dashoffset: 0; stroke: #f2f2f2; stroke-width: 0.8"/>
     </g>
     <g id="line2d_70">
      <g>
       <use xlink:href="#m1523eff97b" x="44.7425" y="34.540861" style="stroke: #000000; stroke-width: 0.6"/>
      </g>
     </g>
    </g>
    <g id="ytick_20">
     <g id="line2d_71">
      <path d="M 44.7425 25.644268 
L 242.2745 25.644268 
" clip-path="url(#p81735150df)" style="fill: none; stroke-dasharray: 2.96,1.28; stroke-dashoffset: 0; stroke: #f2f2f2; stroke-width: 0.8"/>
     </g>
     <g id="line2d_72">
      <g>
       <use xlink:href="#m1523eff97b" x="44.7425" y="25.644268" style="stroke: #000000; stroke-width: 0.6"/>
      </g>
     </g>
    </g>
    <g id="ytick_21">
     <g id="line2d_73">
      <path d="M 44.7425 19.332035 
L 242.2745 19.332035 
" clip-path="url(#p81735150df)" style="fill: none; stroke-dasharray: 2.96,1.28; stroke-dashoffset: 0; stroke: #f2f2f2; stroke-width: 0.8"/>
     </g>
     <g id="line2d_74">
      <g>
       <use xlink:href="#m1523eff97b" x="44.7425" y="19.332035" style="stroke: #000000; stroke-width: 0.6"/>
      </g>
     </g>
    </g>
    <g id="ytick_22">
     <g id="line2d_75">
      <path d="M 44.7425 14.435886 
L 242.2745 14.435886 
" clip-path="url(#p81735150df)" style="fill: none; stroke-dasharray: 2.96,1.28; stroke-dashoffset: 0; stroke: #f2f2f2; stroke-width: 0.8"/>
     </g>
     <g id="line2d_76">
      <g>
       <use xlink:href="#m1523eff97b" x="44.7425" y="14.435886" style="stroke: #000000; stroke-width: 0.6"/>
      </g>
     </g>
    </g>
    <g id="ytick_23">
     <g id="line2d_77">
      <path d="M 44.7425 10.435442 
L 242.2745 10.435442 
" clip-path="url(#p81735150df)" style="fill: none; stroke-dasharray: 2.96,1.28; stroke-dashoffset: 0; stroke: #f2f2f2; stroke-width: 0.8"/>
     </g>
     <g id="line2d_78">
      <g>
       <use xlink:href="#m1523eff97b" x="44.7425" y="10.435442" style="stroke: #000000; stroke-width: 0.6"/>
      </g>
     </g>
    </g>
    <g id="text_6">
     <!-- Spectral acceleration, SA (g) -->
     <g transform="translate(13.27875 129.871075) rotate(-90) scale(0.08 -0.08)">
      <defs>
       <path id="DejaVuSans-53" d="M 3425 4513 
L 3425 3897 
Q 3066 4069 2747 4153 
Q 2428 4238 2131 4238 
Q 1616 4238 1336 4038 
Q 1056 3838 1056 3469 
Q 1056 3159 1242 3001 
Q 1428 2844 1947 2747 
L 2328 2669 
Q 3034 2534 3370 2195 
Q 3706 1856 3706 1288 
Q 3706 609 3251 259 
Q 2797 -91 1919 -91 
Q 1588 -91 1214 -16 
Q 841 59 441 206 
L 441 856 
Q 825 641 1194 531 
Q 1563 422 1919 422 
Q 2459 422 2753 634 
Q 3047 847 3047 1241 
Q 3047 1584 2836 1778 
Q 2625 1972 2144 2069 
L 1759 2144 
Q 1053 2284 737 2584 
Q 422 2884 422 3419 
Q 422 4038 858 4394 
Q 1294 4750 2059 4750 
Q 2388 4750 2728 4690 
Q 3069 4631 3425 4513 
z
" transform="scale(0.015625)"/>
       <path id="DejaVuSans-70" d="M 1159 525 
L 1159 -1331 
L 581 -1331 
L 581 3500 
L 1159 3500 
L 1159 2969 
Q 1341 3281 1617 3432 
Q 1894 3584 2278 3584 
Q 2916 3584 3314 3078 
Q 3713 2572 3713 1747 
Q 3713 922 3314 415 
Q 2916 -91 2278 -91 
Q 1894 -91 1617 61 
Q 1341 213 1159 525 
z
M 3116 1747 
Q 3116 2381 2855 2742 
Q 2594 3103 2138 3103 
Q 1681 3103 1420 2742 
Q 1159 2381 1159 1747 
Q 1159 1113 1420 752 
Q 1681 391 2138 391 
Q 2594 391 2855 752 
Q 3116 1113 3116 1747 
z
" transform="scale(0.015625)"/>
       <path id="DejaVuSans-63" d="M 3122 3366 
L 3122 2828 
Q 2878 2963 2633 3030 
Q 2388 3097 2138 3097 
Q 1578 3097 1268 2742 
Q 959 2388 959 1747 
Q 959 1106 1268 751 
Q 1578 397 2138 397 
Q 2388 397 2633 464 
Q 2878 531 3122 666 
L 3122 134 
Q 2881 22 2623 -34 
Q 2366 -91 2075 -91 
Q 1284 -91 818 406 
Q 353 903 353 1747 
Q 353 2603 823 3093 
Q 1294 3584 2113 3584 
Q 2378 3584 2631 3529 
Q 2884 3475 3122 3366 
z
" transform="scale(0.015625)"/>
       <path id="DejaVuSans-74" d="M 1172 4494 
L 1172 3500 
L 2356 3500 
L 2356 3053 
L 1172 3053 
L 1172 1153 
Q 1172 725 1289 603 
Q 1406 481 1766 481 
L 2356 481 
L 2356 0 
L 1766 0 
Q 1100 0 847 248 
Q 594 497 594 1153 
L 594 3053 
L 172 3053 
L 172 3500 
L 594 3500 
L 594 4494 
L 1172 4494 
z
" transform="scale(0.015625)"/>
       <path id="DejaVuSans-61" d="M 2194 1759 
Q 1497 1759 1228 1600 
Q 959 1441 959 1056 
Q 959 750 1161 570 
Q 1363 391 1709 391 
Q 2188 391 2477 730 
Q 2766 1069 2766 1631 
L 2766 1759 
L 2194 1759 
z
M 3341 1997 
L 3341 0 
L 2766 0 
L 2766 531 
Q 2569 213 2275 61 
Q 1981 -91 1556 -91 
Q 1019 -91 701 211 
Q 384 513 384 1019 
Q 384 1609 779 1909 
Q 1175 2209 1959 2209 
L 2766 2209 
L 2766 2266 
Q 2766 2663 2505 2880 
Q 2244 3097 1772 3097 
Q 1472 3097 1187 3025 
Q 903 2953 641 2809 
L 641 3341 
Q 956 3463 1253 3523 
Q 1550 3584 1831 3584 
Q 2591 3584 2966 3190 
Q 3341 2797 3341 1997 
z
" transform="scale(0.015625)"/>
       <path id="DejaVuSans-6c" d="M 603 4863 
L 1178 4863 
L 1178 0 
L 603 0 
L 603 4863 
z
" transform="scale(0.015625)"/>
       <path id="DejaVuSans-6e" d="M 3513 2113 
L 3513 0 
L 2938 0 
L 2938 2094 
Q 2938 2591 2744 2837 
Q 2550 3084 2163 3084 
Q 1697 3084 1428 2787 
Q 1159 2491 1159 1978 
L 1159 0 
L 581 0 
L 581 3500 
L 1159 3500 
L 1159 2956 
Q 1366 3272 1645 3428 
Q 1925 3584 2291 3584 
Q 2894 3584 3203 3211 
Q 3513 2838 3513 2113 
z
" transform="scale(0.015625)"/>
       <path id="DejaVuSans-41" d="M 2188 4044 
L 1331 1722 
L 3047 1722 
L 2188 4044 
z
M 1831 4666 
L 2547 4666 
L 4325 0 
L 3669 0 
L 3244 1197 
L 1141 1197 
L 716 0 
L 50 0 
L 1831 4666 
z
" transform="scale(0.015625)"/>
       <path id="DejaVuSans-67" d="M 2906 1791 
Q 2906 2416 2648 2759 
Q 2391 3103 1925 3103 
Q 1463 3103 1205 2759 
Q 947 2416 947 1791 
Q 947 1169 1205 825 
Q 1463 481 1925 481 
Q 2391 481 2648 825 
Q 2906 1169 2906 1791 
z
M 3481 434 
Q 3481 -459 3084 -895 
Q 2688 -1331 1869 -1331 
Q 1566 -1331 1297 -1286 
Q 1028 -1241 775 -1147 
L 775 -588 
Q 1028 -725 1275 -790 
Q 1522 -856 1778 -856 
Q 2344 -856 2625 -561 
Q 2906 -266 2906 331 
L 2906 616 
Q 2728 306 2450 153 
Q 2172 0 1784 0 
Q 1141 0 747 490 
Q 353 981 353 1791 
Q 353 2603 747 3093 
Q 1141 3584 1784 3584 
Q 2172 3584 2450 3431 
Q 2728 3278 2906 2969 
L 2906 3500 
L 3481 3500 
L 3481 434 
z
" transform="scale(0.015625)"/>
      </defs>
      <use xlink:href="#DejaVuSans-53"/>
      <use xlink:href="#DejaVuSans-70" x="63.476562"/>
      <use xlink:href="#DejaVuSans-65" x="126.953125"/>
      <use xlink:href="#DejaVuSans-63" x="188.476562"/>
      <use xlink:href="#DejaVuSans-74" x="243.457031"/>
      <use xlink:href="#DejaVuSans-72" x="282.666016"/>
      <use xlink:href="#DejaVuSans-61" x="323.779297"/>
      <use xlink:href="#DejaVuSans-6c" x="385.058594"/>
      <use xlink:href="#DejaVuSans-20" x="412.841797"/>
      <use xlink:href="#DejaVuSans-61" x="444.628906"/>
      <use xlink:href="#DejaVuSans-63" x="505.908203"/>
      <use xlink:href="#DejaVuSans-63" x="560.888672"/>
      <use xlink:href="#DejaVuSans-65" x="615.869141"/>
      <use xlink:href="#DejaVuSans-6c" x="677.392578"/>
      <use xlink:href="#DejaVuSans-65" x="705.175781"/>
      <use xlink:href="#DejaVuSans-72" x="766.699219"/>
      <use xlink:href="#DejaVuSans-61" x="807.8125"/>
      <use xlink:href="#DejaVuSans-74" x="869.091797"/>
      <use xlink:href="#DejaVuSans-69" x="908.300781"/>
      <use xlink:href="#DejaVuSans-6f" x="936.083984"/>
      <use xlink:href="#DejaVuSans-6e" x="997.265625"/>
      <use xlink:href="#DejaVuSans-2c" x="1060.644531"/>
      <use xlink:href="#DejaVuSans-20" x="1092.431641"/>
      <use xlink:href="#DejaVuSans-53" x="1124.21875"/>
      <use xlink:href="#DejaVuSans-41" x="1189.570312"/>
      <use xlink:href="#DejaVuSans-20" x="1257.978516"/>
      <use xlink:href="#DejaVuSans-28" x="1289.765625"/>
      <use xlink:href="#DejaVuSans-67" x="1328.779297"/>
      <use xlink:href="#DejaVuSans-29" x="1392.255859"/>
     </g>
    </g>
   </g>
   <g id="line2d_79">
    <path d="M 53.721227 22.851218 
L 72.333391 38.913643 
L 85.538931 51.140899 
L 95.781944 49.337028 
L 104.151095 50.921072 
L 117.356635 51.039916 
L 127.045477 53.575296 
L 127.599648 52.411495 
L 146.211812 59.265391 
L 159.417352 56.696652 
L 171.460723 55.802553 
L 178.029516 46.472343 
L 191.235056 65.767682 
L 209.84722 68.280186 
L 223.05276 88.537359 
L 233.295773 100.606002 
" clip-path="url(#p81735150df)" style="fill: none; stroke: #b2b2b2; stroke-width: 0.8; stroke-linecap: square"/>
   </g>
   <g id="line2d_80">
    <path d="M 53.721227 67.143136 
L 72.333391 56.675006 
L 85.538931 61.549181 
L 95.781944 62.834846 
L 104.151095 52.334284 
L 117.356635 47.985479 
L 127.045477 53.575296 
L 127.599648 54.025973 
L 146.211812 67.813182 
L 159.417352 62.783504 
L 171.460723 78.726835 
L 178.029516 80.43917 
L 191.235056 77.922876 
L 209.84722 72.713851 
L 223.05276 79.321111 
L 233.295773 89.768182 
" clip-path="url(#p81735150df)" style="fill: none; stroke: #b2b2b2; stroke-width: 0.8; stroke-linecap: square"/>
   </g>
   <g id="line2d_81">
    <path d="M 53.721227 38.300864 
L 72.333391 22.282718 
L 85.538931 37.293123 
L 95.781944 40.83021 
L 104.151095 35.7128 
L 117.356635 45.315517 
L 127.045477 53.575296 
L 127.599648 54.309796 
L 146.211812 56.690329 
L 159.417352 58.596257 
L 171.460723 65.768779 
L 178.029516 70.825941 
L 191.235056 84.361499 
L 209.84722 82.266349 
L 223.05276 80.777496 
L 233.295773 104.898695 
" clip-path="url(#p81735150df)" style="fill: none; stroke: #b2b2b2; stroke-width: 0.8; stroke-linecap: square"/>
   </g>
   <g id="line2d_82">
    <path d="M 53.721227 64.078862 
L 72.333391 59.901455 
L 85.538931 57.783408 
L 95.781944 52.774213 
L 104.151095 50.780821 
L 117.356635 51.996357 
L 127.045477 53.575296 
L 127.599648 54.034317 
L 146.211812 38.661461 
L 159.417352 54.886603 
L 171.460723 50.30462 
L 178.029516 50.622618 
L 191.235056 76.58491 
L 209.84722 75.258293 
L 223.05276 76.32917 
L 233.295773 91.531315 
" clip-path="url(#p81735150df)" style="fill: none; stroke: #b2b2b2; stroke-width: 0.8; stroke-linecap: square"/>
   </g>
   <g id="line2d_83">
    <path d="M 53.721227 70.376507 
L 72.333391 66.683116 
L 85.538931 53.270209 
L 95.781944 52.542936 
L 104.151095 46.465218 
L 117.356635 50.42054 
L 127.045477 53.575296 
L 127.599648 54.545898 
L 146.211812 64.105439 
L 159.417352 62.085326 
L 171.460723 64.281812 
L 178.029516 78.163343 
L 191.235056 73.235272 
L 209.84722 68.539672 
L 223.05276 96.742934 
L 233.295773 104.829955 
" clip-path="url(#p81735150df)" style="fill: none; stroke: #b2b2b2; stroke-width: 0.8; stroke-linecap: square"/>
   </g>
   <g id="line2d_84">
    <path d="M 53.721227 53.281979 
L 72.333391 47.74941 
L 85.538931 47.071635 
L 95.781944 30.829567 
L 104.151095 34.334389 
L 117.356635 55.035846 
L 127.045477 53.575296 
L 127.599648 54.454216 
L 146.211812 58.572183 
L 159.417352 61.526173 
L 171.460723 45.971707 
L 178.029516 46.993391 
L 191.235056 55.903983 
L 209.84722 73.948948 
L 223.05276 86.140824 
L 233.295773 96.038469 
" clip-path="url(#p81735150df)" style="fill: none; stroke: #b2b2b2; stroke-width: 0.8; stroke-linecap: square"/>
   </g>
   <g id="line2d_85">
    <path d="M 53.721227 48.157538 
L 72.333391 47.170943 
L 85.538931 43.972937 
L 95.781944 43.170357 
L 104.151095 48.534261 
L 117.356635 51.407463 
L 127.045477 53.575296 
L 127.599648 52.698829 
L 146.211812 55.281926 
L 159.417352 68.26962 
L 171.460723 66.855512 
L 178.029516 68.797733 
L 191.235056 67.963691 
L 209.84722 78.506269 
L 223.05276 90.335579 
L 233.295773 107.347939 
" clip-path="url(#p81735150df)" style="fill: none; stroke: #b2b2b2; stroke-width: 0.8; stroke-linecap: square"/>
   </g>
   <g id="line2d_86">
    <path d="M 53.721227 42.573843 
L 72.333391 42.8506 
L 85.538931 43.309408 
L 95.781944 43.214326 
L 104.151095 44.443915 
L 117.356635 49.35483 
L 127.045477 53.575296 
L 127.599648 53.324938 
L 146.211812 60.380726 
L 159.417352 59.649074 
L 171.460723 69.354859 
L 178.029516 68.17795 
L 191.235056 79.310957 
L 209.84722 90.591726 
L 223.05276 89.863744 
L 233.295773 89.366664 
" clip-path="url(#p81735150df)" style="fill: none; stroke: #b2b2b2; stroke-width: 0.8; stroke-linecap: square"/>
   </g>
   <g id="line2d_87">
    <path d="M 53.721227 75.575363 
L 72.333391 70.016605 
L 85.538931 69.067428 
L 95.781944 62.608305 
L 104.151095 56.489021 
L 117.356635 55.996305 
L 127.045477 53.575296 
L 127.599648 53.28375 
L 146.211812 58.058036 
L 159.417352 50.536164 
L 171.460723 59.827037 
L 178.029516 68.554543 
L 191.235056 67.937517 
L 209.84722 85.799845 
L 223.05276 97.319833 
L 233.295773 115.586876 
" clip-path="url(#p81735150df)" style="fill: none; stroke: #b2b2b2; stroke-width: 0.8; stroke-linecap: square"/>
   </g>
   <g id="line2d_88">
    <path d="M 53.721227 51.53707 
L 72.333391 56.856184 
L 85.538931 47.574495 
L 95.781944 45.871133 
L 104.151095 52.123416 
L 117.356635 56.414917 
L 127.045477 53.575296 
L 127.599648 54.310982 
L 146.211812 70.682155 
L 159.417352 81.439114 
L 171.460723 68.426106 
L 178.029516 73.813564 
L 191.235056 84.319103 
L 209.84722 78.599661 
L 223.05276 91.097152 
L 233.295773 98.457539 
" clip-path="url(#p81735150df)" style="fill: none; stroke: #b2b2b2; stroke-width: 0.8; stroke-linecap: square"/>
   </g>
   <g id="line2d_89">
    <path d="M 53.721227 55.945728 
L 72.333391 52.229339 
L 85.538931 44.445314 
L 95.781944 48.947164 
L 104.151095 50.555655 
L 117.356635 49.379166 
L 127.045477 53.575296 
L 127.599648 54.344045 
L 146.211812 51.481685 
L 159.417352 55.695505 
L 171.460723 59.093071 
L 178.029516 64.001199 
L 191.235056 76.650166 
L 209.84722 88.400799 
L 223.05276 97.546655 
L 233.295773 108.502714 
" clip-path="url(#p81735150df)" style="fill: none; stroke: #b2b2b2; stroke-width: 0.8; stroke-linecap: square"/>
   </g>
   <g id="line2d_90">
    <path d="M 53.721227 70.752764 
L 72.333391 64.455762 
L 85.538931 58.950269 
L 95.781944 52.973565 
L 104.151095 50.423387 
L 117.356635 51.470842 
L 127.045477 53.575296 
L 127.599648 53.864396 
L 146.211812 55.746294 
L 159.417352 57.443248 
L 171.460723 55.862269 
L 178.029516 66.742858 
L 191.235056 65.274348 
L 209.84722 78.856535 
L 223.05276 78.486513 
L 233.295773 80.996335 
" clip-path="url(#p81735150df)" style="fill: none; stroke: #b2b2b2; stroke-width: 0.8; stroke-linecap: square"/>
   </g>
   <g id="line2d_91">
    <path d="M 53.721227 47.764895 
L 72.333391 44.485763 
L 85.538931 47.595448 
L 95.781944 48.634499 
L 104.151095 56.44194 
L 117.356635 55.012887 
L 127.045477 53.575296 
L 127.599648 55.124835 
L 146.211812 68.030466 
L 159.417352 71.306607 
L 171.460723 81.215387 
L 178.029516 75.346493 
L 191.235056 73.115456 
L 209.84722 86.033686 
L 223.05276 86.944566 
L 233.295773 89.800113 
" clip-path="url(#p81735150df)" style="fill: none; stroke: #b2b2b2; stroke-width: 0.8; stroke-linecap: square"/>
   </g>
   <g id="line2d_92">
    <path d="M 53.721227 60.607326 
L 72.333391 47.384223 
L 85.538931 45.344651 
L 95.781944 53.179336 
L 104.151095 54.694184 
L 117.356635 55.489896 
L 127.045477 53.575296 
L 127.599648 53.792413 
L 146.211812 54.488878 
L 159.417352 69.310392 
L 171.460723 61.768907 
L 178.029516 70.422558 
L 191.235056 81.347929 
L 209.84722 97.900287 
L 223.05276 95.168287 
L 233.295773 104.533076 
" clip-path="url(#p81735150df)" style="fill: none; stroke: #b2b2b2; stroke-width: 0.8; stroke-linecap: square"/>
   </g>
   <g id="line2d_93">
    <path d="M 53.721227 70.85628 
L 72.333391 60.054318 
L 85.538931 53.965774 
L 95.781944 54.311046 
L 104.151095 48.619885 
L 117.356635 51.613191 
L 127.045477 53.575296 
L 127.599648 52.691629 
L 146.211812 59.368599 
L 159.417352 64.665749 
L 171.460723 63.056029 
L 178.029516 64.53245 
L 191.235056 75.843459 
L 209.84722 81.511522 
L 223.05276 87.01115 
L 233.295773 95.069854 
" clip-path="url(#p81735150df)" style="fill: none; stroke: #b2b2b2; stroke-width: 0.8; stroke-linecap: square"/>
   </g>
   <g id="line2d_94">
    <path d="M 53.721227 49.940804 
L 72.333391 37.250784 
L 85.538931 40.439235 
L 95.781944 48.421944 
L 104.151095 45.992077 
L 117.356635 49.179284 
L 127.045477 53.575296 
L 127.599648 53.657962 
L 146.211812 54.231394 
L 159.417352 64.150304 
L 171.460723 60.805708 
L 178.029516 61.474352 
L 191.235056 63.839038 
L 209.84722 88.5389 
L 223.05276 94.021298 
L 233.295773 103.353298 
" clip-path="url(#p81735150df)" style="fill: none; stroke: #b2b2b2; stroke-width: 0.8; stroke-linecap: square"/>
   </g>
   <g id="line2d_95">
    <path d="M 53.721227 45.669127 
L 72.333391 37.253707 
L 85.538931 34.801516 
L 95.781944 34.445375 
L 104.151095 44.414311 
L 117.356635 40.735517 
L 127.045477 53.575296 
L 127.599648 53.682595 
L 146.211812 57.275242 
L 159.417352 68.497049 
L 171.460723 75.856738 
L 178.029516 75.280203 
L 191.235056 85.552626 
L 209.84722 92.113702 
L 223.05276 109.000572 
L 233.295773 120.519263 
" clip-path="url(#p81735150df)" style="fill: none; stroke: #b2b2b2; stroke-width: 0.8; stroke-linecap: square"/>
   </g>
   <g id="line2d_96">
    <path d="M 53.721227 49.975747 
L 72.333391 56.576853 
L 85.538931 53.470491 
L 95.781944 53.757072 
L 104.151095 49.130712 
L 117.356635 53.384546 
L 127.045477 53.575296 
L 127.599648 53.944997 
L 146.211812 44.058823 
L 159.417352 37.627831 
L 171.460723 44.68824 
L 178.029516 43.204533 
L 191.235056 36.669297 
L 209.84722 52.596938 
L 223.05276 74.750524 
L 233.295773 86.051717 
" clip-path="url(#p81735150df)" style="fill: none; stroke: #b2b2b2; stroke-width: 0.8; stroke-linecap: square"/>
   </g>
   <g id="line2d_97">
    <path d="M 53.721227 65.269477 
L 72.333391 67.376678 
L 85.538931 62.903928 
L 95.781944 53.770516 
L 104.151095 54.489926 
L 117.356635 61.975666 
L 127.045477 53.575296 
L 127.599648 53.268369 
L 146.211812 57.191635 
L 159.417352 59.81146 
L 171.460723 60.716202 
L 178.029516 63.777535 
L 191.235056 74.644629 
L 209.84722 85.433888 
L 223.05276 96.417447 
L 233.295773 108.805943 
" clip-path="url(#p81735150df)" style="fill: none; stroke: #b2b2b2; stroke-width: 0.8; stroke-linecap: square"/>
   </g>
   <g id="line2d_98">
    <path d="M 53.721227 67.547073 
L 72.333391 62.752775 
L 85.538931 68.64853 
L 95.781944 58.391819 
L 104.151095 50.645354 
L 117.356635 41.798879 
L 127.045477 53.575296 
L 127.599648 54.065465 
L 146.211812 55.684766 
L 159.417352 69.496438 
L 171.460723 82.09758 
L 178.029516 82.953031 
L 191.235056 88.970785 
L 209.84722 88.21938 
L 223.05276 96.887933 
L 233.295773 94.38363 
" clip-path="url(#p81735150df)" style="fill: none; stroke: #b2b2b2; stroke-width: 0.8; stroke-linecap: square"/>
   </g>
   <g id="line2d_99">
    <path d="M 53.721227 40.63703 
L 72.333391 34.009783 
L 85.538931 35.259293 
L 95.781944 41.802688 
L 104.151095 36.535854 
L 117.356635 46.020703 
L 127.045477 53.575296 
L 127.599648 53.981423 
L 146.211812 53.921462 
L 159.417352 61.734674 
L 171.460723 63.678572 
L 178.029516 68.35969 
L 191.235056 74.76736 
L 209.84722 96.173935 
L 223.05276 96.479119 
L 233.295773 106.015251 
" clip-path="url(#p81735150df)" style="fill: none; stroke: #b2b2b2; stroke-width: 0.8; stroke-linecap: square"/>
   </g>
   <g id="line2d_100">
    <path d="M 53.721227 58.930414 
L 72.333391 58.17745 
L 85.538931 58.252245 
L 95.781944 55.021438 
L 104.151095 53.876813 
L 117.356635 48.894159 
L 127.045477 53.575296 
L 127.599648 54.798965 
L 146.211812 58.616868 
L 159.417352 54.209148 
L 171.460723 57.438668 
L 178.029516 58.682277 
L 191.235056 60.727931 
L 209.84722 84.304026 
L 223.05276 83.279299 
L 233.295773 90.004722 
" clip-path="url(#p81735150df)" style="fill: none; stroke: #b2b2b2; stroke-width: 0.8; stroke-linecap: square"/>
   </g>
   <g id="line2d_101">
    <path d="M 53.721227 58.028469 
L 72.333391 48.498174 
L 85.538931 48.03944 
L 95.781944 45.362284 
L 104.151095 43.03069 
L 117.356635 48.417643 
L 127.045477 53.575296 
L 127.599648 52.978189 
L 146.211812 47.066384 
L 159.417352 47.71846 
L 171.460723 61.815512 
L 178.029516 64.99278 
L 191.235056 75.768931 
L 209.84722 70.376301 
L 223.05276 90.326893 
L 233.295773 86.231382 
" clip-path="url(#p81735150df)" style="fill: none; stroke: #b2b2b2; stroke-width: 0.8; stroke-linecap: square"/>
   </g>
   <g id="line2d_102">
    <path d="M 53.721227 47.642402 
L 72.333391 48.678307 
L 85.538931 49.440015 
L 95.781944 56.362343 
L 104.151095 50.66162 
L 117.356635 55.233261 
L 127.045477 53.575296 
L 127.599648 54.648993 
L 146.211812 55.972349 
L 159.417352 54.792349 
L 171.460723 61.934174 
L 178.029516 69.421428 
L 191.235056 76.743666 
L 209.84722 95.046856 
L 223.05276 99.819976 
L 233.295773 107.671359 
" clip-path="url(#p81735150df)" style="fill: none; stroke: #b2b2b2; stroke-width: 0.8; stroke-linecap: square"/>
   </g>
   <g id="line2d_103">
    <path d="M 53.721227 58.260136 
L 72.333391 52.164985 
L 85.538931 56.191525 
L 95.781944 66.340868 
L 104.151095 58.433297 
L 117.356635 52.648017 
L 127.045477 53.575296 
L 127.599648 52.822558 
L 146.211812 60.630935 
L 159.417352 60.750554 
L 171.460723 76.966463 
L 178.029516 81.886806 
L 191.235056 83.172886 
L 209.84722 88.502738 
L 223.05276 99.536781 
L 233.295773 106.701429 
" clip-path="url(#p81735150df)" style="fill: none; stroke: #b2b2b2; stroke-width: 0.8; stroke-linecap: square"/>
   </g>
   <g id="line2d_104">
    <path d="M 53.721227 49.64573 
L 72.333391 40.659966 
L 85.538931 35.124052 
L 95.781944 44.66492 
L 104.151095 46.44985 
L 117.356635 44.338159 
L 127.045477 53.575296 
L 127.599648 54.171746 
L 146.211812 52.878339 
L 159.417352 48.765225 
L 171.460723 58.614436 
L 178.029516 72.065007 
L 191.235056 76.689971 
L 209.84722 87.434328 
L 223.05276 101.075773 
L 233.295773 108.69866 
" clip-path="url(#p81735150df)" style="fill: none; stroke: #b2b2b2; stroke-width: 0.8; stroke-linecap: square"/>
   </g>
   <g id="line2d_105">
    <path d="M 53.721227 52.550938 
L 72.333391 45.149613 
L 85.538931 42.068164 
L 95.781944 49.470163 
L 104.151095 53.879684 
L 117.356635 52.809837 
L 127.045477 53.575296 
L 127.599648 53.707808 
L 146.211812 56.190695 
L 159.417352 63.225756 
L 171.460723 60.313624 
L 178.029516 63.793809 
L 191.235056 72.784176 
L 209.84722 72.878344 
L 223.05276 88.730199 
L 233.295773 101.976377 
" clip-path="url(#p81735150df)" style="fill: none; stroke: #b2b2b2; stroke-width: 0.8; stroke-linecap: square"/>
   </g>
   <g id="line2d_106">
    <path d="M 53.721227 64.419994 
L 72.333391 63.455733 
L 85.538931 59.699103 
L 95.781944 61.47019 
L 104.151095 67.180926 
L 117.356635 69.184054 
L 127.045477 53.575296 
L 127.599648 53.551082 
L 146.211812 68.979178 
L 159.417352 66.197434 
L 171.460723 62.135203 
L 178.029516 71.090701 
L 191.235056 84.668026 
L 209.84722 97.378212 
L 223.05276 104.518434 
L 233.295773 109.315617 
" clip-path="url(#p81735150df)" style="fill: none; stroke: #b2b2b2; stroke-width: 0.8; stroke-linecap: square"/>
   </g>
   <g id="line2d_107">
    <path d="M 53.721227 49.069642 
L 72.333391 56.284281 
L 85.538931 49.979813 
L 95.781944 43.728231 
L 104.151095 48.563384 
L 117.356635 53.188385 
L 127.045477 53.575296 
L 127.599648 52.592036 
L 146.211812 62.329615 
L 159.417352 63.391448 
L 171.460723 67.62886 
L 178.029516 61.914922 
L 191.235056 69.739883 
L 209.84722 91.09483 
L 223.05276 95.913099 
L 233.295773 105.824706 
" clip-path="url(#p81735150df)" style="fill: none; stroke: #b2b2b2; stroke-width: 0.8; stroke-linecap: square"/>
   </g>
   <g id="line2d_108">
    <path d="M 53.721227 36.705542 
L 72.333391 33.414831 
L 85.538931 35.946568 
L 95.781944 40.250877 
L 104.151095 43.356533 
L 117.356635 49.612961 
L 127.045477 53.575296 
L 127.599648 55.674077 
L 146.211812 65.152719 
L 159.417352 70.997897 
L 171.460723 78.92113 
L 178.029516 83.012742 
L 191.235056 85.986224 
L 209.84722 99.360706 
L 223.05276 97.207462 
L 233.295773 107.254653 
" clip-path="url(#p81735150df)" style="fill: none; stroke: #b2b2b2; stroke-width: 0.8; stroke-linecap: square"/>
   </g>
   <g id="line2d_109">
    <path d="M 53.721227 51.229902 
L 72.333391 65.992941 
L 85.538931 62.557683 
L 95.781944 59.52715 
L 104.151095 66.527911 
L 117.356635 59.183879 
L 127.045477 53.575296 
L 127.599648 53.688579 
L 146.211812 62.587944 
L 159.417352 59.724214 
L 171.460723 56.805286 
L 178.029516 60.681897 
L 191.235056 71.370723 
L 209.84722 87.695607 
L 223.05276 97.58819 
L 233.295773 106.691222 
" clip-path="url(#p81735150df)" style="fill: none; stroke: #b2b2b2; stroke-width: 0.8; stroke-linecap: square"/>
   </g>
   <g id="line2d_110">
    <path d="M 53.721227 29.565781 
L 72.333391 25.759143 
L 85.538931 18.612923 
L 95.781944 13.1472 
L 104.151095 22.029935 
L 117.356635 42.761977 
L 127.045477 53.575296 
L 127.599648 54.068107 
L 146.211812 73.491395 
L 159.417352 81.656729 
L 171.460723 84.468003 
L 178.029516 82.878917 
L 191.235056 92.301163 
L 209.84722 108.149627 
L 223.05276 114.265876 
L 233.295773 123.206868 
" clip-path="url(#p81735150df)" style="fill: none; stroke: #b2b2b2; stroke-width: 0.8; stroke-linecap: square"/>
   </g>
   <g id="line2d_111">
    <path d="M 53.721227 67.143707 
L 72.333391 58.980825 
L 85.538931 51.154845 
L 95.781944 47.496998 
L 104.151095 54.956345 
L 117.356635 48.981684 
L 127.045477 53.575296 
L 127.599648 53.732874 
L 146.211812 50.591894 
L 159.417352 57.469143 
L 171.460723 64.171337 
L 178.029516 68.193794 
L 191.235056 74.813994 
L 209.84722 82.137893 
L 223.05276 91.412552 
L 233.295773 100.927003 
" clip-path="url(#p81735150df)" style="fill: none; stroke: #b2b2b2; stroke-width: 0.8; stroke-linecap: square"/>
   </g>
   <g id="line2d_112">
    <path d="M 53.721227 65.662035 
L 72.333391 53.822663 
L 85.538931 56.895667 
L 95.781944 58.978083 
L 104.151095 54.274143 
L 117.356635 52.769663 
L 127.045477 53.575296 
L 127.599648 54.639921 
L 146.211812 50.62045 
L 159.417352 50.372301 
L 171.460723 50.341124 
L 178.029516 50.366846 
L 191.235056 55.309139 
L 209.84722 71.51925 
L 223.05276 89.929508 
L 233.295773 92.705232 
" clip-path="url(#p81735150df)" style="fill: none; stroke: #b2b2b2; stroke-width: 0.8; stroke-linecap: square"/>
   </g>
   <g id="line2d_113">
    <path d="M 53.721227 54.044692 
L 72.333391 50.622502 
L 85.538931 40.930404 
L 95.781944 37.937866 
L 104.151095 41.062339 
L 117.356635 46.719159 
L 127.045477 53.575296 
L 127.599648 53.347013 
L 146.211812 56.895279 
L 159.417352 50.391485 
L 171.460723 56.28454 
L 178.029516 54.493456 
L 191.235056 58.406935 
L 209.84722 67.539374 
L 223.05276 75.272014 
L 233.295773 88.141492 
" clip-path="url(#p81735150df)" style="fill: none; stroke: #b2b2b2; stroke-width: 0.8; stroke-linecap: square"/>
   </g>
   <g id="line2d_114">
    <path d="M 53.721227 73.347403 
L 72.333391 70.329572 
L 85.538931 66.165521 
L 95.781944 65.985424 
L 104.151095 58.826127 
L 117.356635 58.473314 
L 127.045477 53.575296 
L 127.599648 54.407733 
L 146.211812 57.911477 
L 159.417352 52.764679 
L 171.460723 62.288867 
L 178.029516 67.959187 
L 191.235056 80.300267 
L 209.84722 92.657549 
L 223.05276 95.837164 
L 233.295773 111.640708 
" clip-path="url(#p81735150df)" style="fill: none; stroke: #b2b2b2; stroke-width: 0.8; stroke-linecap: square"/>
   </g>
   <g id="line2d_115">
    <path d="M 53.721227 58.145311 
L 72.333391 41.121231 
L 85.538931 39.429898 
L 95.781944 41.337583 
L 104.151095 46.888829 
L 117.356635 57.220827 
L 127.045477 53.575296 
L 127.599648 54.205191 
L 146.211812 55.308002 
L 159.417352 71.552411 
L 171.460723 78.864649 
L 178.029516 81.886729 
L 191.235056 87.757597 
L 209.84722 103.485227 
L 223.05276 117.56851 
L 233.295773 123.017187 
" clip-path="url(#p81735150df)" style="fill: none; stroke: #b2b2b2; stroke-width: 0.8; stroke-linecap: square"/>
   </g>
   <g id="line2d_116">
    <path d="M 53.721227 55.466546 
L 72.333391 52.956579 
L 85.538931 56.611757 
L 95.781944 51.857381 
L 104.151095 55.873464 
L 117.356635 52.053257 
L 127.045477 53.575296 
L 127.599648 53.278154 
L 146.211812 62.375282 
L 159.417352 69.49825 
L 171.460723 80.011248 
L 178.029516 71.712194 
L 191.235056 75.361372 
L 209.84722 88.022036 
L 223.05276 101.389476 
L 233.295773 111.307791 
" clip-path="url(#p81735150df)" style="fill: none; stroke: #b2b2b2; stroke-width: 0.8; stroke-linecap: square"/>
   </g>
   <g id="line2d_117">
    <path d="M 53.721227 57.589255 
L 72.333391 56.802204 
L 85.538931 52.402556 
L 95.781944 50.700343 
L 104.151095 52.345515 
L 117.356635 55.568222 
L 127.045477 53.575296 
L 127.599648 52.812046 
L 146.211812 50.906753 
L 159.417352 51.987976 
L 171.460723 54.539929 
L 178.029516 60.209175 
L 191.235056 75.916346 
L 209.84722 83.049089 
L 223.05276 81.617279 
L 233.295773 85.372837 
" clip-path="url(#p81735150df)" style="fill: none; stroke: #b2b2b2; stroke-width: 0.8; stroke-linecap: square"/>
   </g>
   <g id="line2d_118">
    <path d="M 53.721227 70.982297 
L 72.333391 65.822431 
L 85.538931 64.480747 
L 95.781944 55.375931 
L 104.151095 48.774651 
L 117.356635 56.188674 
L 127.045477 53.575296 
L 127.599648 52.916619 
L 146.211812 48.869445 
L 159.417352 54.330669 
L 171.460723 67.781786 
L 178.029516 76.348211 
L 191.235056 84.488711 
L 209.84722 84.215241 
L 223.05276 85.745729 
L 233.295773 99.689076 
" clip-path="url(#p81735150df)" style="fill: none; stroke: #b2b2b2; stroke-width: 0.8; stroke-linecap: square"/>
   </g>
   <g id="line2d_119">
    <path d="M 53.721227 46.302576 
L 72.333391 40.926673 
L 85.538931 35.629341 
L 95.781944 42.530868 
L 104.151095 41.09758 
L 117.356635 46.54446 
L 127.045477 53.575296 
L 127.599648 54.004822 
L 146.211812 54.668852 
L 159.417352 64.419024 
L 171.460723 65.588021 
L 178.029516 68.788183 
L 191.235056 72.98454 
L 209.84722 70.199325 
L 223.05276 88.709868 
L 233.295773 93.470657 
" clip-path="url(#p81735150df)" style="fill: none; stroke: #b2b2b2; stroke-width: 0.8; stroke-linecap: square"/>
   </g>
   <g id="line2d_120">
    <path d="M 53.721227 71.04922 
L 72.333391 65.458159 
L 85.538931 64.014418 
L 95.781944 62.322682 
L 104.151095 60.792239 
L 117.356635 55.642605 
L 127.045477 53.575296 
L 127.599648 54.057818 
L 146.211812 61.637235 
L 159.417352 77.774261 
L 171.460723 82.570672 
L 178.029516 86.279853 
L 191.235056 99.041914 
L 209.84722 103.798673 
L 223.05276 117.132359 
L 233.295773 121.473546 
" clip-path="url(#p81735150df)" style="fill: none; stroke: #b2b2b2; stroke-width: 0.8; stroke-linecap: square"/>
   </g>
   <g id="line2d_121">
    <path d="M 53.721227 47.418825 
L 72.333391 42.656044 
L 85.538931 44.869468 
L 95.781944 49.758744 
L 104.151095 45.045232 
L 117.356635 52.028506 
L 127.045477 53.575296 
L 127.599648 53.365471 
L 146.211812 63.846229 
L 159.417352 65.654581 
L 171.460723 77.532297 
L 178.029516 69.479381 
L 191.235056 70.055367 
L 209.84722 83.634694 
L 223.05276 105.048478 
L 233.295773 107.2424 
" clip-path="url(#p81735150df)" style="fill: none; stroke: #b2b2b2; stroke-width: 0.8; stroke-linecap: square"/>
   </g>
   <g id="line2d_122">
    <path d="M 53.721227 59.566395 
L 72.333391 43.686526 
L 85.538931 49.450124 
L 95.781944 51.223709 
L 104.151095 59.335909 
L 117.356635 58.368618 
L 127.045477 53.575296 
L 127.599648 52.475526 
L 146.211812 68.477787 
L 159.417352 71.452426 
L 171.460723 70.119791 
L 178.029516 72.616176 
L 191.235056 75.375866 
L 209.84722 82.799122 
L 223.05276 83.294066 
L 233.295773 91.77518 
" clip-path="url(#p81735150df)" style="fill: none; stroke: #b2b2b2; stroke-width: 0.8; stroke-linecap: square"/>
   </g>
   <g id="line2d_123">
    <path d="M 53.721227 51.796064 
L 72.333391 48.183705 
L 85.538931 47.020947 
L 95.781944 49.743803 
L 104.151095 46.822019 
L 117.356635 52.747538 
L 127.045477 53.575296 
L 127.599648 54.158801 
L 146.211812 61.829447 
L 159.417352 65.279722 
L 171.460723 77.963508 
L 178.029516 81.987246 
L 191.235056 87.84156 
L 209.84722 103.174007 
L 223.05276 112.704982 
L 233.295773 121.479733 
" clip-path="url(#p81735150df)" style="fill: none; stroke: #b2b2b2; stroke-width: 0.8; stroke-linecap: square"/>
   </g>
   <g id="line2d_124">
    <path d="M 53.721227 35.668586 
L 72.333391 30.217117 
L 85.538931 35.725095 
L 95.781944 35.182111 
L 104.151095 34.568218 
L 117.356635 47.196476 
L 127.045477 53.575296 
L 127.599648 54.023218 
L 146.211812 49.339172 
L 159.417352 64.190448 
L 171.460723 64.893383 
L 178.029516 62.286741 
L 191.235056 72.218493 
L 209.84722 78.009369 
L 223.05276 71.706033 
L 233.295773 74.202891 
" clip-path="url(#p81735150df)" style="fill: none; stroke: #b2b2b2; stroke-width: 0.8; stroke-linecap: square"/>
   </g>
   <g id="line2d_125">
    <path d="M 53.721227 52.450509 
L 72.333391 36.381729 
L 85.538931 44.072425 
L 95.781944 56.85986 
L 104.151095 51.463232 
L 117.356635 60.940713 
L 127.045477 53.575296 
L 127.599648 53.353543 
L 146.211812 73.73557 
L 159.417352 80.106358 
L 171.460723 90.755332 
L 178.029516 93.961363 
L 191.235056 100.84075 
L 209.84722 108.272499 
L 223.05276 110.538517 
L 233.295773 110.380491 
" clip-path="url(#p81735150df)" style="fill: none; stroke: #b2b2b2; stroke-width: 0.8; stroke-linecap: square"/>
   </g>
   <g id="line2d_126">
    <path d="M 53.721227 54.37685 
L 72.333391 49.019715 
L 85.538931 40.506333 
L 95.781944 49.01225 
L 104.151095 55.407079 
L 117.356635 49.889236 
L 127.045477 53.575296 
L 127.599648 54.406544 
L 146.211812 44.593026 
L 159.417352 53.768167 
L 171.460723 61.617248 
L 178.029516 63.499291 
L 191.235056 69.486634 
L 209.84722 99.206162 
L 223.05276 122.594936 
L 233.295773 132.0912 
" clip-path="url(#p81735150df)" style="fill: none; stroke: #b2b2b2; stroke-width: 0.8; stroke-linecap: square"/>
   </g>
   <g id="line2d_127">
    <path d="M 53.721227 62.654794 
L 72.333391 54.529908 
L 85.538931 59.356001 
L 95.781944 50.479746 
L 104.151095 54.099867 
L 117.356635 48.498495 
L 127.045477 53.575296 
L 127.599648 53.918536 
L 146.211812 66.55166 
L 159.417352 60.184198 
L 171.460723 76.265905 
L 178.029516 82.554707 
L 191.235056 92.080145 
L 209.84722 101.13323 
L 223.05276 105.324086 
L 233.295773 103.43749 
" clip-path="url(#p81735150df)" style="fill: none; stroke: #b2b2b2; stroke-width: 0.8; stroke-linecap: square"/>
   </g>
   <g id="line2d_128">
    <path d="M 53.721227 48.077763 
L 72.333391 49.274414 
L 85.538931 52.123092 
L 95.781944 58.073406 
L 104.151095 61.837604 
L 117.356635 50.899094 
L 127.045477 53.575296 
L 127.599648 51.72305 
L 146.211812 67.437612 
L 159.417352 77.149066 
L 171.460723 84.456959 
L 178.029516 80.914674 
L 191.235056 81.834545 
L 209.84722 98.324401 
L 223.05276 103.108513 
L 233.295773 112.907152 
" clip-path="url(#p81735150df)" style="fill: none; stroke: #b2b2b2; stroke-width: 0.8; stroke-linecap: square"/>
   </g>
   <g id="line2d_129">
    <path d="M 53.721227 54.970854 
L 72.333391 50.577264 
L 85.538931 49.238119 
L 95.781944 49.597379 
L 104.151095 49.954475 
L 117.356635 52.011841 
L 127.045477 53.575296 
L 127.599648 53.652822 
L 146.211812 58.311536 
L 159.417352 62.188024 
L 171.460723 66.475066 
L 178.029516 69.144275 
L 191.235056 75.943709 
L 209.84722 86.068821 
L 223.05276 94.612874 
L 233.295773 102.739868 
" clip-path="url(#p81735150df)" style="fill: none; stroke: #ff0000; stroke-width: 2; stroke-linecap: square"/>
   </g>
   <g id="line2d_130">
    <path d="M 53.721227 31.911068 
L 72.333391 27.348447 
L 85.538931 28.119708 
L 95.781944 30.61466 
L 104.151095 33.506472 
L 117.356635 41.445059 
L 127.045477 53.575295 
L 127.599648 50.961198 
L 146.211812 43.476159 
L 159.417352 43.523235 
L 171.460723 45.52261 
L 178.029516 47.501629 
L 191.235056 53.619675 
L 209.84722 62.656183 
L 223.05276 71.189182 
L 233.295773 78.512819 
" clip-path="url(#p81735150df)" style="fill: none; stroke-dasharray: 7.4,3.2; stroke-dashoffset: 0; stroke: #ff0000; stroke-width: 2"/>
   </g>
   <g id="line2d_131">
    <path d="M 53.721227 78.030641 
L 72.333391 73.80608 
L 85.538931 70.35653 
L 95.781944 68.580097 
L 104.151095 66.402477 
L 117.356635 62.578624 
L 127.045477 53.575296 
L 127.599648 56.344446 
L 146.211812 73.146912 
L 159.417352 80.852814 
L 171.460723 87.427521 
L 178.029516 90.78692 
L 191.235056 98.267743 
L 209.84722 109.481459 
L 223.05276 118.036565 
L 233.295773 126.966917 
" clip-path="url(#p81735150df)" style="fill: none; stroke-dasharray: 7.4,3.2; stroke-dashoffset: 0; stroke: #ff0000; stroke-width: 2"/>
   </g>
   <g id="line2d_132">
    <path d="M 53.721227 54.932688 
L 72.333391 50.439142 
L 85.538931 49.492147 
L 95.781944 49.657008 
L 104.151095 49.83087 
L 117.356635 51.960612 
L 127.045477 53.575296 
L 127.599648 53.746947 
L 146.211812 58.209633 
L 159.417352 62.119642 
L 171.460723 66.544929 
L 178.029516 69.05828 
L 191.235056 75.881007 
L 209.84722 85.873662 
L 223.05276 94.407506 
L 233.295773 102.626038 
" clip-path="url(#p81735150df)" style="fill: none; stroke: #0000ff; stroke-width: 2; stroke-linecap: square"/>
   </g>
   <g id="line2d_133">
    <path d="M 53.721227 31.897116 
L 72.333391 27.303415 
L 85.538931 28.542894 
L 95.781944 30.51437 
L 104.151095 33.293818 
L 117.356635 41.396548 
L 127.045477 53.575296 
L 127.599648 52.249097 
L 146.211812 43.224021 
L 159.417352 43.735514 
L 171.460723 45.262597 
L 178.029516 47.416565 
L 191.235056 53.329416 
L 209.84722 62.296195 
L 223.05276 71.101809 
L 233.295773 78.6929 
" clip-path="url(#p81735150df)" style="fill: none; stroke-dasharray: 7.4,3.2; stroke-dashoffset: 0; stroke: #0000ff; stroke-width: 2"/>
   </g>
   <g id="line2d_134">
    <path d="M 53.721227 77.96826 
L 72.333391 73.574868 
L 85.538931 70.4414 
L 95.781944 68.799645 
L 104.151095 66.367923 
L 117.356635 62.524677 
L 127.045477 53.575296 
L 127.599648 55.244796 
L 146.211812 73.195246 
L 159.417352 80.503771 
L 171.460723 87.827262 
L 178.029516 90.699994 
L 191.235056 98.432597 
L 209.84722 109.451128 
L 223.05276 117.713204 
L 233.295773 126.559176 
" clip-path="url(#p81735150df)" style="fill: none; stroke-dasharray: 7.4,3.2; stroke-dashoffset: 0; stroke: #0000ff; stroke-width: 2"/>
   </g>
   <g id="patch_3">
    <path d="M 44.7425 138.0384 
L 44.7425 7.2 
" style="fill: none; stroke: #000000; stroke-width: 0.8; stroke-linejoin: miter; stroke-linecap: square"/>
   </g>
   <g id="patch_4">
    <path d="M 242.2745 138.0384 
L 242.2745 7.2 
" style="fill: none; stroke: #000000; stroke-width: 0.8; stroke-linejoin: miter; stroke-linecap: square"/>
   </g>
   <g id="patch_5">
    <path d="M 44.7425 138.0384 
L 242.2745 138.0384 
" style="fill: none; stroke: #000000; stroke-width: 0.8; stroke-linejoin: miter; stroke-linecap: square"/>
   </g>
   <g id="patch_6">
    <path d="M 44.7425 7.2 
L 242.2745 7.2 
" style="fill: none; stroke: #000000; stroke-width: 0.8; stroke-linejoin: miter; stroke-linecap: square"/>
   </g>
   <g id="legend_1">
    <g id="patch_7">
     <path d="M 247.8745 104.47295 
L 432.5945 104.47295 
Q 434.1945 104.47295 434.1945 102.87295 
L 434.1945 42.36545 
Q 434.1945 40.76545 432.5945 40.76545 
L 247.8745 40.76545 
Q 246.2745 40.76545 246.2745 42.36545 
L 246.2745 102.87295 
Q 246.2745 104.47295 247.8745 104.47295 
z
" style="fill: #ffffff; opacity: 0.8; stroke: #cccccc; stroke-linejoin: miter"/>
    </g>
    <g id="line2d_135">
     <path d="M 249.4745 47.2442 
L 257.4745 47.2442 
L 265.4745 47.2442 
" style="fill: none; stroke: #b2b2b2; stroke-width: 0.8; stroke-linecap: square"/>
    </g>
    <g id="text_7">
     <!-- Individual selected GMs -->
     <g transform="translate(271.8745 50.0442) scale(0.08 -0.08)">
      <defs>
       <path id="DejaVuSans-49" d="M 628 4666 
L 1259 4666 
L 1259 0 
L 628 0 
L 628 4666 
z
" transform="scale(0.015625)"/>
       <path id="DejaVuSans-76" d="M 191 3500 
L 800 3500 
L 1894 563 
L 2988 3500 
L 3597 3500 
L 2284 0 
L 1503 0 
L 191 3500 
z
" transform="scale(0.015625)"/>
       <path id="DejaVuSans-75" d="M 544 1381 
L 544 3500 
L 1119 3500 
L 1119 1403 
Q 1119 906 1312 657 
Q 1506 409 1894 409 
Q 2359 409 2629 706 
Q 2900 1003 2900 1516 
L 2900 3500 
L 3475 3500 
L 3475 0 
L 2900 0 
L 2900 538 
Q 2691 219 2414 64 
Q 2138 -91 1772 -91 
Q 1169 -91 856 284 
Q 544 659 544 1381 
z
M 1991 3584 
L 1991 3584 
z
" transform="scale(0.015625)"/>
       <path id="DejaVuSans-47" d="M 3809 666 
L 3809 1919 
L 2778 1919 
L 2778 2438 
L 4434 2438 
L 4434 434 
Q 4069 175 3628 42 
Q 3188 -91 2688 -91 
Q 1594 -91 976 548 
Q 359 1188 359 2328 
Q 359 3472 976 4111 
Q 1594 4750 2688 4750 
Q 3144 4750 3555 4637 
Q 3966 4525 4313 4306 
L 4313 3634 
Q 3963 3931 3569 4081 
Q 3175 4231 2741 4231 
Q 1884 4231 1454 3753 
Q 1025 3275 1025 2328 
Q 1025 1384 1454 906 
Q 1884 428 2741 428 
Q 3075 428 3337 486 
Q 3600 544 3809 666 
z
" transform="scale(0.015625)"/>
       <path id="DejaVuSans-4d" d="M 628 4666 
L 1569 4666 
L 2759 1491 
L 3956 4666 
L 4897 4666 
L 4897 0 
L 4281 0 
L 4281 4097 
L 3078 897 
L 2444 897 
L 1241 4097 
L 1241 0 
L 628 0 
L 628 4666 
z
" transform="scale(0.015625)"/>
      </defs>
      <use xlink:href="#DejaVuSans-49"/>
      <use xlink:href="#DejaVuSans-6e" x="29.492188"/>
      <use xlink:href="#DejaVuSans-64" x="92.871094"/>
      <use xlink:href="#DejaVuSans-69" x="156.347656"/>
      <use xlink:href="#DejaVuSans-76" x="184.130859"/>
      <use xlink:href="#DejaVuSans-69" x="243.310547"/>
      <use xlink:href="#DejaVuSans-64" x="271.09375"/>
      <use xlink:href="#DejaVuSans-75" x="334.570312"/>
      <use xlink:href="#DejaVuSans-61" x="397.949219"/>
      <use xlink:href="#DejaVuSans-6c" x="459.228516"/>
      <use xlink:href="#DejaVuSans-20" x="487.011719"/>
      <use xlink:href="#DejaVuSans-73" x="518.798828"/>
      <use xlink:href="#DejaVuSans-65" x="570.898438"/>
      <use xlink:href="#DejaVuSans-6c" x="632.421875"/>
      <use xlink:href="#DejaVuSans-65" x="660.205078"/>
      <use xlink:href="#DejaVuSans-63" x="721.728516"/>
      <use xlink:href="#DejaVuSans-74" x="776.708984"/>
      <use xlink:href="#DejaVuSans-65" x="815.917969"/>
      <use xlink:href="#DejaVuSans-64" x="877.441406"/>
      <use xlink:href="#DejaVuSans-20" x="940.917969"/>
      <use xlink:href="#DejaVuSans-47" x="972.705078"/>
      <use xlink:href="#DejaVuSans-4d" x="1050.195312"/>
      <use xlink:href="#DejaVuSans-73" x="1136.474609"/>
     </g>
    </g>
    <g id="line2d_136">
     <path d="M 249.4745 58.9867 
L 257.4745 58.9867 
L 265.4745 58.9867 
" style="fill: none; stroke: #ff0000; stroke-width: 2; stroke-linecap: square"/>
    </g>
    <g id="text_8">
     <!-- GCIM median -->
     <g transform="translate(271.8745 61.7867) scale(0.08 -0.08)">
      <defs>
       <path id="DejaVuSans-43" d="M 4122 4306 
L 4122 3641 
Q 3803 3938 3442 4084 
Q 3081 4231 2675 4231 
Q 1875 4231 1450 3742 
Q 1025 3253 1025 2328 
Q 1025 1406 1450 917 
Q 1875 428 2675 428 
Q 3081 428 3442 575 
Q 3803 722 4122 1019 
L 4122 359 
Q 3791 134 3420 21 
Q 3050 -91 2638 -91 
Q 1578 -91 968 557 
Q 359 1206 359 2328 
Q 359 3453 968 4101 
Q 1578 4750 2638 4750 
Q 3056 4750 3426 4639 
Q 3797 4528 4122 4306 
z
" transform="scale(0.015625)"/>
       <path id="DejaVuSans-6d" d="M 3328 2828 
Q 3544 3216 3844 3400 
Q 4144 3584 4550 3584 
Q 5097 3584 5394 3201 
Q 5691 2819 5691 2113 
L 5691 0 
L 5113 0 
L 5113 2094 
Q 5113 2597 4934 2840 
Q 4756 3084 4391 3084 
Q 3944 3084 3684 2787 
Q 3425 2491 3425 1978 
L 3425 0 
L 2847 0 
L 2847 2094 
Q 2847 2600 2669 2842 
Q 2491 3084 2119 3084 
Q 1678 3084 1418 2786 
Q 1159 2488 1159 1978 
L 1159 0 
L 581 0 
L 581 3500 
L 1159 3500 
L 1159 2956 
Q 1356 3278 1631 3431 
Q 1906 3584 2284 3584 
Q 2666 3584 2933 3390 
Q 3200 3197 3328 2828 
z
" transform="scale(0.015625)"/>
      </defs>
      <use xlink:href="#DejaVuSans-47"/>
      <use xlink:href="#DejaVuSans-43" x="77.490234"/>
      <use xlink:href="#DejaVuSans-49" x="147.314453"/>
      <use xlink:href="#DejaVuSans-4d" x="176.806641"/>
      <use xlink:href="#DejaVuSans-20" x="263.085938"/>
      <use xlink:href="#DejaVuSans-6d" x="294.873047"/>
      <use xlink:href="#DejaVuSans-65" x="392.285156"/>
      <use xlink:href="#DejaVuSans-64" x="453.808594"/>
      <use xlink:href="#DejaVuSans-69" x="517.285156"/>
      <use xlink:href="#DejaVuSans-61" x="545.068359"/>
      <use xlink:href="#DejaVuSans-6e" x="606.347656"/>
     </g>
    </g>
    <g id="line2d_137">
     <path d="M 249.4745 72.01045 
L 257.4745 72.01045 
L 265.4745 72.01045 
" style="fill: none; stroke-dasharray: 7.4,3.2; stroke-dashoffset: 0; stroke: #ff0000; stroke-width: 2"/>
    </g>
    <g id="text_9">
     <!-- GCIM $16^{th}$ and $84^{th}$ percentiles -->
     <g transform="translate(271.8745 74.81045) scale(0.08 -0.08)">
      <defs>
       <path id="DejaVuSans-36" d="M 2113 2584 
Q 1688 2584 1439 2293 
Q 1191 2003 1191 1497 
Q 1191 994 1439 701 
Q 1688 409 2113 409 
Q 2538 409 2786 701 
Q 3034 994 3034 1497 
Q 3034 2003 2786 2293 
Q 2538 2584 2113 2584 
z
M 3366 4563 
L 3366 3988 
Q 3128 4100 2886 4159 
Q 2644 4219 2406 4219 
Q 1781 4219 1451 3797 
Q 1122 3375 1075 2522 
Q 1259 2794 1537 2939 
Q 1816 3084 2150 3084 
Q 2853 3084 3261 2657 
Q 3669 2231 3669 1497 
Q 3669 778 3244 343 
Q 2819 -91 2113 -91 
Q 1303 -91 875 529 
Q 447 1150 447 2328 
Q 447 3434 972 4092 
Q 1497 4750 2381 4750 
Q 2619 4750 2861 4703 
Q 3103 4656 3366 4563 
z
" transform="scale(0.015625)"/>
       <path id="DejaVuSans-Oblique-74" d="M 2706 3500 
L 2619 3053 
L 1472 3053 
L 1100 1153 
Q 1081 1047 1072 975 
Q 1063 903 1063 863 
Q 1063 663 1183 572 
Q 1303 481 1569 481 
L 2150 481 
L 2053 0 
L 1503 0 
Q 991 0 739 200 
Q 488 400 488 806 
Q 488 878 497 964 
Q 506 1050 525 1153 
L 897 3053 
L 409 3053 
L 500 3500 
L 978 3500 
L 1172 4494 
L 1747 4494 
L 1556 3500 
L 2706 3500 
z
" transform="scale(0.015625)"/>
       <path id="DejaVuSans-Oblique-68" d="M 3566 2113 
L 3156 0 
L 2578 0 
L 2988 2091 
Q 3016 2238 3031 2350 
Q 3047 2463 3047 2528 
Q 3047 2791 2881 2937 
Q 2716 3084 2419 3084 
Q 1956 3084 1617 2771 
Q 1278 2459 1178 1941 
L 800 0 
L 225 0 
L 1172 4863 
L 1747 4863 
L 1375 2950 
Q 1594 3244 1934 3414 
Q 2275 3584 2650 3584 
Q 3113 3584 3367 3334 
Q 3622 3084 3622 2631 
Q 3622 2519 3608 2391 
Q 3594 2263 3566 2113 
z
" transform="scale(0.015625)"/>
       <path id="DejaVuSans-38" d="M 2034 2216 
Q 1584 2216 1326 1975 
Q 1069 1734 1069 1313 
Q 1069 891 1326 650 
Q 1584 409 2034 409 
Q 2484 409 2743 651 
Q 3003 894 3003 1313 
Q 3003 1734 2745 1975 
Q 2488 2216 2034 2216 
z
M 1403 2484 
Q 997 2584 770 2862 
Q 544 3141 544 3541 
Q 544 4100 942 4425 
Q 1341 4750 2034 4750 
Q 2731 4750 3128 4425 
Q 3525 4100 3525 3541 
Q 3525 3141 3298 2862 
Q 3072 2584 2669 2484 
Q 3125 2378 3379 2068 
Q 3634 1759 3634 1313 
Q 3634 634 3220 271 
Q 2806 -91 2034 -91 
Q 1263 -91 848 271 
Q 434 634 434 1313 
Q 434 1759 690 2068 
Q 947 2378 1403 2484 
z
M 1172 3481 
Q 1172 3119 1398 2916 
Q 1625 2713 2034 2713 
Q 2441 2713 2670 2916 
Q 2900 3119 2900 3481 
Q 2900 3844 2670 4047 
Q 2441 4250 2034 4250 
Q 1625 4250 1398 4047 
Q 1172 3844 1172 3481 
z
" transform="scale(0.015625)"/>
       <path id="DejaVuSans-34" d="M 2419 4116 
L 825 1625 
L 2419 1625 
L 2419 4116 
z
M 2253 4666 
L 3047 4666 
L 3047 1625 
L 3713 1625 
L 3713 1100 
L 3047 1100 
L 3047 0 
L 2419 0 
L 2419 1100 
L 313 1100 
L 313 1709 
L 2253 4666 
z
" transform="scale(0.015625)"/>
      </defs>
      <use xlink:href="#DejaVuSans-47" transform="translate(0 0.529687)"/>
      <use xlink:href="#DejaVuSans-43" transform="translate(77.490234 0.529687)"/>
      <use xlink:href="#DejaVuSans-49" transform="translate(147.314453 0.529687)"/>
      <use xlink:href="#DejaVuSans-4d" transform="translate(176.806641 0.529687)"/>
      <use xlink:href="#DejaVuSans-20" transform="translate(263.085938 0.529687)"/>
      <use xlink:href="#DejaVuSans-31" transform="translate(294.873047 0.529687)"/>
      <use xlink:href="#DejaVuSans-36" transform="translate(358.496094 0.529687)"/>
      <use xlink:href="#DejaVuSans-Oblique-74" transform="translate(423.076172 38.810937) scale(0.7)"/>
      <use xlink:href="#DejaVuSans-Oblique-68" transform="translate(450.522461 38.810937) scale(0.7)"/>
      <use xlink:href="#DejaVuSans-20" transform="translate(497.62207 0.529687)"/>
      <use xlink:href="#DejaVuSans-61" transform="translate(529.40918 0.529687)"/>
      <use xlink:href="#DejaVuSans-6e" transform="translate(590.688477 0.529687)"/>
      <use xlink:href="#DejaVuSans-64" transform="translate(654.067383 0.529687)"/>
      <use xlink:href="#DejaVuSans-20" transform="translate(717.543945 0.529687)"/>
      <use xlink:href="#DejaVuSans-38" transform="translate(749.331055 0.529687)"/>
      <use xlink:href="#DejaVuSans-34" transform="translate(812.954102 0.529687)"/>
      <use xlink:href="#DejaVuSans-Oblique-74" transform="translate(877.53418 38.810937) scale(0.7)"/>
      <use xlink:href="#DejaVuSans-Oblique-68" transform="translate(904.980469 38.810937) scale(0.7)"/>
      <use xlink:href="#DejaVuSans-20" transform="translate(952.080078 0.529687)"/>
      <use xlink:href="#DejaVuSans-70" transform="translate(983.867188 0.529687)"/>
      <use xlink:href="#DejaVuSans-65" transform="translate(1047.34375 0.529687)"/>
      <use xlink:href="#DejaVuSans-72" transform="translate(1108.867188 0.529687)"/>
      <use xlink:href="#DejaVuSans-63" transform="translate(1149.980469 0.529687)"/>
      <use xlink:href="#DejaVuSans-65" transform="translate(1204.960938 0.529687)"/>
      <use xlink:href="#DejaVuSans-6e" transform="translate(1266.484375 0.529687)"/>
      <use xlink:href="#DejaVuSans-74" transform="translate(1329.863281 0.529687)"/>
      <use xlink:href="#DejaVuSans-69" transform="translate(1369.072266 0.529687)"/>
      <use xlink:href="#DejaVuSans-6c" transform="translate(1396.855469 0.529687)"/>
      <use xlink:href="#DejaVuSans-65" transform="translate(1424.638672 0.529687)"/>
      <use xlink:href="#DejaVuSans-73" transform="translate(1486.162109 0.529687)"/>
     </g>
    </g>
    <g id="line2d_138">
     <path d="M 249.4745 83.7692 
L 257.4745 83.7692 
L 265.4745 83.7692 
" style="fill: none; stroke: #0000ff; stroke-width: 2; stroke-linecap: square"/>
    </g>
    <g id="text_10">
     <!-- Selected GMs median -->
     <g transform="translate(271.8745 86.5692) scale(0.08 -0.08)">
      <use xlink:href="#DejaVuSans-53"/>
      <use xlink:href="#DejaVuSans-65" x="63.476562"/>
      <use xlink:href="#DejaVuSans-6c" x="125"/>
      <use xlink:href="#DejaVuSans-65" x="152.783203"/>
      <use xlink:href="#DejaVuSans-63" x="214.306641"/>
      <use xlink:href="#DejaVuSans-74" x="269.287109"/>
      <use xlink:href="#DejaVuSans-65" x="308.496094"/>
      <use xlink:href="#DejaVuSans-64" x="370.019531"/>
      <use xlink:href="#DejaVuSans-20" x="433.496094"/>
      <use xlink:href="#DejaVuSans-47" x="465.283203"/>
      <use xlink:href="#DejaVuSans-4d" x="542.773438"/>
      <use xlink:href="#DejaVuSans-73" x="629.052734"/>
      <use xlink:href="#DejaVuSans-20" x="681.152344"/>
      <use xlink:href="#DejaVuSans-6d" x="712.939453"/>
      <use xlink:href="#DejaVuSans-65" x="810.351562"/>
      <use xlink:href="#DejaVuSans-64" x="871.875"/>
      <use xlink:href="#DejaVuSans-69" x="935.351562"/>
      <use xlink:href="#DejaVuSans-61" x="963.134766"/>
      <use xlink:href="#DejaVuSans-6e" x="1024.414062"/>
     </g>
    </g>
    <g id="line2d_139">
     <path d="M 249.4745 96.79295 
L 257.4745 96.79295 
L 265.4745 96.79295 
" style="fill: none; stroke-dasharray: 7.4,3.2; stroke-dashoffset: 0; stroke: #0000ff; stroke-width: 2"/>
    </g>
    <g id="text_11">
     <!-- Selected GMs, $16^{th}$ and $84^{th}$ percentiles -->
     <g transform="translate(271.8745 99.59295) scale(0.08 -0.08)">
      <use xlink:href="#DejaVuSans-53" transform="translate(0 0.529687)"/>
      <use xlink:href="#DejaVuSans-65" transform="translate(63.476562 0.529687)"/>
      <use xlink:href="#DejaVuSans-6c" transform="translate(125 0.529687)"/>
      <use xlink:href="#DejaVuSans-65" transform="translate(152.783203 0.529687)"/>
      <use xlink:href="#DejaVuSans-63" transform="translate(214.306641 0.529687)"/>
      <use xlink:href="#DejaVuSans-74" transform="translate(269.287109 0.529687)"/>
      <use xlink:href="#DejaVuSans-65" transform="translate(308.496094 0.529687)"/>
      <use xlink:href="#DejaVuSans-64" transform="translate(370.019531 0.529687)"/>
      <use xlink:href="#DejaVuSans-20" transform="translate(433.496094 0.529687)"/>
      <use xlink:href="#DejaVuSans-47" transform="translate(465.283203 0.529687)"/>
      <use xlink:href="#DejaVuSans-4d" transform="translate(542.773438 0.529687)"/>
      <use xlink:href="#DejaVuSans-73" transform="translate(629.052734 0.529687)"/>
      <use xlink:href="#DejaVuSans-2c" transform="translate(681.152344 0.529687)"/>
      <use xlink:href="#DejaVuSans-20" transform="translate(712.939453 0.529687)"/>
      <use xlink:href="#DejaVuSans-31" transform="translate(744.726562 0.529687)"/>
      <use xlink:href="#DejaVuSans-36" transform="translate(808.349609 0.529687)"/>
      <use xlink:href="#DejaVuSans-Oblique-74" transform="translate(872.929688 38.810937) scale(0.7)"/>
      <use xlink:href="#DejaVuSans-Oblique-68" transform="translate(900.375977 38.810937) scale(0.7)"/>
      <use xlink:href="#DejaVuSans-20" transform="translate(947.475586 0.529687)"/>
      <use xlink:href="#DejaVuSans-61" transform="translate(979.262695 0.529687)"/>
      <use xlink:href="#DejaVuSans-6e" transform="translate(1040.541992 0.529687)"/>
      <use xlink:href="#DejaVuSans-64" transform="translate(1103.920898 0.529687)"/>
      <use xlink:href="#DejaVuSans-20" transform="translate(1167.397461 0.529687)"/>
      <use xlink:href="#DejaVuSans-38" transform="translate(1199.18457 0.529687)"/>
      <use xlink:href="#DejaVuSans-34" transform="translate(1262.807617 0.529687)"/>
      <use xlink:href="#DejaVuSans-Oblique-74" transform="translate(1327.387695 38.810937) scale(0.7)"/>
      <use xlink:href="#DejaVuSans-Oblique-68" transform="translate(1354.833984 38.810937) scale(0.7)"/>
      <use xlink:href="#DejaVuSans-20" transform="translate(1401.933594 0.529687)"/>
      <use xlink:href="#DejaVuSans-70" transform="translate(1433.720703 0.529687)"/>
      <use xlink:href="#DejaVuSans-65" transform="translate(1497.197266 0.529687)"/>
      <use xlink:href="#DejaVuSans-72" transform="translate(1558.720703 0.529687)"/>
      <use xlink:href="#DejaVuSans-63" transform="translate(1599.833984 0.529687)"/>
      <use xlink:href="#DejaVuSans-65" transform="translate(1654.814453 0.529687)"/>
      <use xlink:href="#DejaVuSans-6e" transform="translate(1716.337891 0.529687)"/>
      <use xlink:href="#DejaVuSans-74" transform="translate(1779.716797 0.529687)"/>
      <use xlink:href="#DejaVuSans-69" transform="translate(1818.925781 0.529687)"/>
      <use xlink:href="#DejaVuSans-6c" transform="translate(1846.708984 0.529687)"/>
      <use xlink:href="#DejaVuSans-65" transform="translate(1874.492188 0.529687)"/>
      <use xlink:href="#DejaVuSans-73" transform="translate(1936.015625 0.529687)"/>
     </g>
    </g>
   </g>
  </g>
 </g>
 <defs>
  <clipPath id="p81735150df">
   <rect x="44.7425" y="7.2" width="197.532" height="130.8384"/>
  </clipPath>
 </defs>
</svg>
