<?xml version="1.0" encoding="utf-8" standalone="no"?>
<!DOCTYPE svg PUBLIC "-//W3C//DTD SVG 1.1//EN"
  "http://www.w3.org/Graphics/SVG/1.1/DTD/svg11.dtd">
<svg xmlns:xlink="http://www.w3.org/1999/xlink" width="441.3945pt" height="171.7234pt" viewBox="0 0 441.3945 171.7234" xmlns="http://www.w3.org/2000/svg" version="1.1">
 <metadata>
  <rdf:RDF xmlns:dc="http://purl.org/dc/elements/1.1/" xmlns:cc="http://creativecommons.org/ns#" xmlns:rdf="http://www.w3.org/1999/02/22-rdf-syntax-ns#">
   <cc:Work>
    <dc:type rdf:resource="http://purl.org/dc/dcmitype/StillImage"/>
    <dc:date>2024-11-08T00:01:55.061996</dc:date>
    <dc:format>image/svg+xml</dc:format>
    <dc:creator>
     <cc:Agent>
      <dc:title>Matplotlib v3.8.2, https://matplotlib.org/</dc:title>
     </cc:Agent>
    </dc:creator>
   </cc:Work>
  </rdf:RDF>
 </metadata>
 <defs>
  <style type="text/css">*{stroke-linejoin: round; stroke-linecap: butt}</style>
 </defs>
 <g id="figure_1">
  <g id="patch_1">
   <path d="M 0 171.7234 
L 441.3945 171.7234 
L 441.3945 0 
L 0 0 
z
" style="fill: #ffffff"/>
  </g>
  <g id="axes_1">
   <g id="patch_2">
    <path d="M 44.7425 138.0384 
L 242.2745 138.0384 
L 242.2745 7.2 
L 44.7425 7.2 
z
" style="fill: #ffffff"/>
   </g>
   <g id="matplotlib.axis_1">
    <g id="xtick_1">
     <g id="line2d_1">
      <path d="M 53.721227 138.0384 
L 53.721227 7.2 
" clip-path="url(#p6cfc5f19fe)" style="fill: none; stroke: #d9d9d9; stroke-width: 0.8; stroke-linecap: square"/>
     </g>
     <g id="line2d_2">
      <defs>
       <path id="mf4795159b7" d="M 0 0 
L 0 3.5 
" style="stroke: #000000; stroke-width: 0.8"/>
      </defs>
      <g>
       <use xlink:href="#mf4795159b7" x="53.721227" y="138.0384" style="stroke: #000000; stroke-width: 0.8"/>
      </g>
     </g>
     <g id="text_1">
      <!-- $\mathdefault{10^{-1}}$ -->
      <g transform="translate(44.321227 151.11715) scale(0.08 -0.08)">
       <defs>
        <path id="DejaVuSans-31" d="M 794 531 
L 1825 531 
L 1825 4091 
L 703 3866 
L 703 4441 
L 1819 4666 
L 2450 4666 
L 2450 531 
L 3481 531 
L 3481 0 
L 794 0 
L 794 531 
z
" transform="scale(0.015625)"/>
        <path id="DejaVuSans-30" d="M 2034 4250 
Q 1547 4250 1301 3770 
Q 1056 3291 1056 2328 
Q 1056 1369 1301 889 
Q 1547 409 2034 409 
Q 2525 409 2770 889 
Q 3016 1369 3016 2328 
Q 3016 3291 2770 3770 
Q 2525 4250 2034 4250 
z
M 2034 4750 
Q 2819 4750 3233 4129 
Q 3647 3509 3647 2328 
Q 3647 1150 3233 529 
Q 2819 -91 2034 -91 
Q 1250 -91 836 529 
Q 422 1150 422 2328 
Q 422 3509 836 4129 
Q 1250 4750 2034 4750 
z
" transform="scale(0.015625)"/>
        <path id="DejaVuSans-2212" d="M 678 2272 
L 4684 2272 
L 4684 1741 
L 678 1741 
L 678 2272 
z
" transform="scale(0.015625)"/>
       </defs>
       <use xlink:href="#DejaVuSans-31" transform="translate(0 0.684375)"/>
       <use xlink:href="#DejaVuSans-30" transform="translate(63.623047 0.684375)"/>
       <use xlink:href="#DejaVuSans-2212" transform="translate(128.203125 38.965625) scale(0.7)"/>
       <use xlink:href="#DejaVuSans-31" transform="translate(186.855469 38.965625) scale(0.7)"/>
      </g>
     </g>
    </g>
    <g id="xtick_2">
     <g id="line2d_3">
      <path d="M 159.417352 138.0384 
L 159.417352 7.2 
" clip-path="url(#p6cfc5f19fe)" style="fill: none; stroke: #d9d9d9; stroke-width: 0.8; stroke-linecap: square"/>
     </g>
     <g id="line2d_4">
      <g>
       <use xlink:href="#mf4795159b7" x="159.417352" y="138.0384" style="stroke: #000000; stroke-width: 0.8"/>
      </g>
     </g>
     <g id="text_2">
      <!-- $\mathdefault{10^{0}}$ -->
      <g transform="translate(152.377352 151.11715) scale(0.08 -0.08)">
       <use xlink:href="#DejaVuSans-31" transform="translate(0 0.765625)"/>
       <use xlink:href="#DejaVuSans-30" transform="translate(63.623047 0.765625)"/>
       <use xlink:href="#DejaVuSans-30" transform="translate(128.203125 39.046875) scale(0.7)"/>
      </g>
     </g>
    </g>
    <g id="xtick_3">
     <g id="line2d_5">
      <path d="M 48.884838 138.0384 
L 48.884838 7.2 
" clip-path="url(#p6cfc5f19fe)" style="fill: none; stroke-dasharray: 2.96,1.28; stroke-dashoffset: 0; stroke: #f2f2f2; stroke-width: 0.8"/>
     </g>
     <g id="line2d_6">
      <defs>
       <path id="m1f41c7fb77" d="M 0 0 
L 0 2 
" style="stroke: #000000; stroke-width: 0.6"/>
      </defs>
      <g>
       <use xlink:href="#m1f41c7fb77" x="48.884838" y="138.0384" style="stroke: #000000; stroke-width: 0.6"/>
      </g>
     </g>
    </g>
    <g id="xtick_4">
     <g id="line2d_7">
      <path d="M 85.538931 138.0384 
L 85.538931 7.2 
" clip-path="url(#p6cfc5f19fe)" style="fill: none; stroke-dasharray: 2.96,1.28; stroke-dashoffset: 0; stroke: #f2f2f2; stroke-width: 0.8"/>
     </g>
     <g id="line2d_8">
      <g>
       <use xlink:href="#m1f41c7fb77" x="85.538931" y="138.0384" style="stroke: #000000; stroke-width: 0.6"/>
      </g>
     </g>
    </g>
    <g id="xtick_5">
     <g id="line2d_9">
      <path d="M 104.151095 138.0384 
L 104.151095 7.2 
" clip-path="url(#p6cfc5f19fe)" style="fill: none; stroke-dasharray: 2.96,1.28; stroke-dashoffset: 0; stroke: #f2f2f2; stroke-width: 0.8"/>
     </g>
     <g id="line2d_10">
      <g>
       <use xlink:href="#m1f41c7fb77" x="104.151095" y="138.0384" style="stroke: #000000; stroke-width: 0.6"/>
      </g>
     </g>
    </g>
    <g id="xtick_6">
     <g id="line2d_11">
      <path d="M 117.356635 138.0384 
L 117.356635 7.2 
" clip-path="url(#p6cfc5f19fe)" style="fill: none; stroke-dasharray: 2.96,1.28; stroke-dashoffset: 0; stroke: #f2f2f2; stroke-width: 0.8"/>
     </g>
     <g id="line2d_12">
      <g>
       <use xlink:href="#m1f41c7fb77" x="117.356635" y="138.0384" style="stroke: #000000; stroke-width: 0.6"/>
      </g>
     </g>
    </g>
    <g id="xtick_7">
     <g id="line2d_13">
      <path d="M 127.599648 138.0384 
L 127.599648 7.2 
" clip-path="url(#p6cfc5f19fe)" style="fill: none; stroke-dasharray: 2.96,1.28; stroke-dashoffset: 0; stroke: #f2f2f2; stroke-width: 0.8"/>
     </g>
     <g id="line2d_14">
      <g>
       <use xlink:href="#m1f41c7fb77" x="127.599648" y="138.0384" style="stroke: #000000; stroke-width: 0.6"/>
      </g>
     </g>
    </g>
    <g id="xtick_8">
     <g id="line2d_15">
      <path d="M 135.968799 138.0384 
L 135.968799 7.2 
" clip-path="url(#p6cfc5f19fe)" style="fill: none; stroke-dasharray: 2.96,1.28; stroke-dashoffset: 0; stroke: #f2f2f2; stroke-width: 0.8"/>
     </g>
     <g id="line2d_16">
      <g>
       <use xlink:href="#m1f41c7fb77" x="135.968799" y="138.0384" style="stroke: #000000; stroke-width: 0.6"/>
      </g>
     </g>
    </g>
    <g id="xtick_9">
     <g id="line2d_17">
      <path d="M 143.044815 138.0384 
L 143.044815 7.2 
" clip-path="url(#p6cfc5f19fe)" style="fill: none; stroke-dasharray: 2.96,1.28; stroke-dashoffset: 0; stroke: #f2f2f2; stroke-width: 0.8"/>
     </g>
     <g id="line2d_18">
      <g>
       <use xlink:href="#m1f41c7fb77" x="143.044815" y="138.0384" style="stroke: #000000; stroke-width: 0.6"/>
      </g>
     </g>
    </g>
    <g id="xtick_10">
     <g id="line2d_19">
      <path d="M 149.174339 138.0384 
L 149.174339 7.2 
" clip-path="url(#p6cfc5f19fe)" style="fill: none; stroke-dasharray: 2.96,1.28; stroke-dashoffset: 0; stroke: #f2f2f2; stroke-width: 0.8"/>
     </g>
     <g id="line2d_20">
      <g>
       <use xlink:href="#m1f41c7fb77" x="149.174339" y="138.0384" style="stroke: #000000; stroke-width: 0.6"/>
      </g>
     </g>
    </g>
    <g id="xtick_11">
     <g id="line2d_21">
      <path d="M 154.580963 138.0384 
L 154.580963 7.2 
" clip-path="url(#p6cfc5f19fe)" style="fill: none; stroke-dasharray: 2.96,1.28; stroke-dashoffset: 0; stroke: #f2f2f2; stroke-width: 0.8"/>
     </g>
     <g id="line2d_22">
      <g>
       <use xlink:href="#m1f41c7fb77" x="154.580963" y="138.0384" style="stroke: #000000; stroke-width: 0.6"/>
      </g>
     </g>
    </g>
    <g id="xtick_12">
     <g id="line2d_23">
      <path d="M 191.235056 138.0384 
L 191.235056 7.2 
" clip-path="url(#p6cfc5f19fe)" style="fill: none; stroke-dasharray: 2.96,1.28; stroke-dashoffset: 0; stroke: #f2f2f2; stroke-width: 0.8"/>
     </g>
     <g id="line2d_24">
      <g>
       <use xlink:href="#m1f41c7fb77" x="191.235056" y="138.0384" style="stroke: #000000; stroke-width: 0.6"/>
      </g>
     </g>
    </g>
    <g id="xtick_13">
     <g id="line2d_25">
      <path d="M 209.84722 138.0384 
L 209.84722 7.2 
" clip-path="url(#p6cfc5f19fe)" style="fill: none; stroke-dasharray: 2.96,1.28; stroke-dashoffset: 0; stroke: #f2f2f2; stroke-width: 0.8"/>
     </g>
     <g id="line2d_26">
      <g>
       <use xlink:href="#m1f41c7fb77" x="209.84722" y="138.0384" style="stroke: #000000; stroke-width: 0.6"/>
      </g>
     </g>
    </g>
    <g id="xtick_14">
     <g id="line2d_27">
      <path d="M 223.05276 138.0384 
L 223.05276 7.2 
" clip-path="url(#p6cfc5f19fe)" style="fill: none; stroke-dasharray: 2.96,1.28; stroke-dashoffset: 0; stroke: #f2f2f2; stroke-width: 0.8"/>
     </g>
     <g id="line2d_28">
      <g>
       <use xlink:href="#m1f41c7fb77" x="223.05276" y="138.0384" style="stroke: #000000; stroke-width: 0.6"/>
      </g>
     </g>
    </g>
    <g id="xtick_15">
     <g id="line2d_29">
      <path d="M 233.295773 138.0384 
L 233.295773 7.2 
" clip-path="url(#p6cfc5f19fe)" style="fill: none; stroke-dasharray: 2.96,1.28; stroke-dashoffset: 0; stroke: #f2f2f2; stroke-width: 0.8"/>
     </g>
     <g id="line2d_30">
      <g>
       <use xlink:href="#m1f41c7fb77" x="233.295773" y="138.0384" style="stroke: #000000; stroke-width: 0.6"/>
      </g>
     </g>
    </g>
    <g id="xtick_16">
     <g id="line2d_31">
      <path d="M 241.664924 138.0384 
L 241.664924 7.2 
" clip-path="url(#p6cfc5f19fe)" style="fill: none; stroke-dasharray: 2.96,1.28; stroke-dashoffset: 0; stroke: #f2f2f2; stroke-width: 0.8"/>
     </g>
     <g id="line2d_32">
      <g>
       <use xlink:href="#m1f41c7fb77" x="241.664924" y="138.0384" style="stroke: #000000; stroke-width: 0.6"/>
      </g>
     </g>
    </g>
    <g id="text_3">
     <!-- Period, T (s) -->
     <g transform="translate(119.576 162.85965) scale(0.08 -0.08)">
      <defs>
       <path id="DejaVuSans-50" d="M 1259 4147 
L 1259 2394 
L 2053 2394 
Q 2494 2394 2734 2622 
Q 2975 2850 2975 3272 
Q 2975 3691 2734 3919 
Q 2494 4147 2053 4147 
L 1259 4147 
z
M 628 4666 
L 2053 4666 
Q 2838 4666 3239 4311 
Q 3641 3956 3641 3272 
Q 3641 2581 3239 2228 
Q 2838 1875 2053 1875 
L 1259 1875 
L 1259 0 
L 628 0 
L 628 4666 
z
" transform="scale(0.015625)"/>
       <path id="DejaVuSans-65" d="M 3597 1894 
L 3597 1613 
L 953 1613 
Q 991 1019 1311 708 
Q 1631 397 2203 397 
Q 2534 397 2845 478 
Q 3156 559 3463 722 
L 3463 178 
Q 3153 47 2828 -22 
Q 2503 -91 2169 -91 
Q 1331 -91 842 396 
Q 353 884 353 1716 
Q 353 2575 817 3079 
Q 1281 3584 2069 3584 
Q 2775 3584 3186 3129 
Q 3597 2675 3597 1894 
z
M 3022 2063 
Q 3016 2534 2758 2815 
Q 2500 3097 2075 3097 
Q 1594 3097 1305 2825 
Q 1016 2553 972 2059 
L 3022 2063 
z
" transform="scale(0.015625)"/>
       <path id="DejaVuSans-72" d="M 2631 2963 
Q 2534 3019 2420 3045 
Q 2306 3072 2169 3072 
Q 1681 3072 1420 2755 
Q 1159 2438 1159 1844 
L 1159 0 
L 581 0 
L 581 3500 
L 1159 3500 
L 1159 2956 
Q 1341 3275 1631 3429 
Q 1922 3584 2338 3584 
Q 2397 3584 2469 3576 
Q 2541 3569 2628 3553 
L 2631 2963 
z
" transform="scale(0.015625)"/>
       <path id="DejaVuSans-69" d="M 603 3500 
L 1178 3500 
L 1178 0 
L 603 0 
L 603 3500 
z
M 603 4863 
L 1178 4863 
L 1178 4134 
L 603 4134 
L 603 4863 
z
" transform="scale(0.015625)"/>
       <path id="DejaVuSans-6f" d="M 1959 3097 
Q 1497 3097 1228 2736 
Q 959 2375 959 1747 
Q 959 1119 1226 758 
Q 1494 397 1959 397 
Q 2419 397 2687 759 
Q 2956 1122 2956 1747 
Q 2956 2369 2687 2733 
Q 2419 3097 1959 3097 
z
M 1959 3584 
Q 2709 3584 3137 3096 
Q 3566 2609 3566 1747 
Q 3566 888 3137 398 
Q 2709 -91 1959 -91 
Q 1206 -91 779 398 
Q 353 888 353 1747 
Q 353 2609 779 3096 
Q 1206 3584 1959 3584 
z
" transform="scale(0.015625)"/>
       <path id="DejaVuSans-64" d="M 2906 2969 
L 2906 4863 
L 3481 4863 
L 3481 0 
L 2906 0 
L 2906 525 
Q 2725 213 2448 61 
Q 2172 -91 1784 -91 
Q 1150 -91 751 415 
Q 353 922 353 1747 
Q 353 2572 751 3078 
Q 1150 3584 1784 3584 
Q 2172 3584 2448 3432 
Q 2725 3281 2906 2969 
z
M 947 1747 
Q 947 1113 1208 752 
Q 1469 391 1925 391 
Q 2381 391 2643 752 
Q 2906 1113 2906 1747 
Q 2906 2381 2643 2742 
Q 2381 3103 1925 3103 
Q 1469 3103 1208 2742 
Q 947 2381 947 1747 
z
" transform="scale(0.015625)"/>
       <path id="DejaVuSans-2c" d="M 750 794 
L 1409 794 
L 1409 256 
L 897 -744 
L 494 -744 
L 750 256 
L 750 794 
z
" transform="scale(0.015625)"/>
       <path id="DejaVuSans-20" transform="scale(0.015625)"/>
       <path id="DejaVuSans-54" d="M -19 4666 
L 3928 4666 
L 3928 4134 
L 2272 4134 
L 2272 0 
L 1638 0 
L 1638 4134 
L -19 4134 
L -19 4666 
z
" transform="scale(0.015625)"/>
       <path id="DejaVuSans-28" d="M 1984 4856 
Q 1566 4138 1362 3434 
Q 1159 2731 1159 2009 
Q 1159 1288 1364 580 
Q 1569 -128 1984 -844 
L 1484 -844 
Q 1016 -109 783 600 
Q 550 1309 550 2009 
Q 550 2706 781 3412 
Q 1013 4119 1484 4856 
L 1984 4856 
z
" transform="scale(0.015625)"/>
       <path id="DejaVuSans-73" d="M 2834 3397 
L 2834 2853 
Q 2591 2978 2328 3040 
Q 2066 3103 1784 3103 
Q 1356 3103 1142 2972 
Q 928 2841 928 2578 
Q 928 2378 1081 2264 
Q 1234 2150 1697 2047 
L 1894 2003 
Q 2506 1872 2764 1633 
Q 3022 1394 3022 966 
Q 3022 478 2636 193 
Q 2250 -91 1575 -91 
Q 1294 -91 989 -36 
Q 684 19 347 128 
L 347 722 
Q 666 556 975 473 
Q 1284 391 1588 391 
Q 1994 391 2212 530 
Q 2431 669 2431 922 
Q 2431 1156 2273 1281 
Q 2116 1406 1581 1522 
L 1381 1569 
Q 847 1681 609 1914 
Q 372 2147 372 2553 
Q 372 3047 722 3315 
Q 1072 3584 1716 3584 
Q 2034 3584 2315 3537 
Q 2597 3491 2834 3397 
z
" transform="scale(0.015625)"/>
       <path id="DejaVuSans-29" d="M 513 4856 
L 1013 4856 
Q 1481 4119 1714 3412 
Q 1947 2706 1947 2009 
Q 1947 1309 1714 600 
Q 1481 -109 1013 -844 
L 513 -844 
Q 928 -128 1133 580 
Q 1338 1288 1338 2009 
Q 1338 2731 1133 3434 
Q 928 4138 513 4856 
z
" transform="scale(0.015625)"/>
      </defs>
      <use xlink:href="#DejaVuSans-50"/>
      <use xlink:href="#DejaVuSans-65" x="56.677734"/>
      <use xlink:href="#DejaVuSans-72" x="118.201172"/>
      <use xlink:href="#DejaVuSans-69" x="159.314453"/>
      <use xlink:href="#DejaVuSans-6f" x="187.097656"/>
      <use xlink:href="#DejaVuSans-64" x="248.279297"/>
      <use xlink:href="#DejaVuSans-2c" x="311.755859"/>
      <use xlink:href="#DejaVuSans-20" x="343.542969"/>
      <use xlink:href="#DejaVuSans-54" x="375.330078"/>
      <use xlink:href="#DejaVuSans-20" x="436.414062"/>
      <use xlink:href="#DejaVuSans-28" x="468.201172"/>
      <use xlink:href="#DejaVuSans-73" x="507.214844"/>
      <use xlink:href="#DejaVuSans-29" x="559.314453"/>
     </g>
    </g>
   </g>
   <g id="matplotlib.axis_2">
    <g id="ytick_1">
     <g id="line2d_33">
      <path d="M 44.7425 97.285477 
L 242.2745 97.285477 
" clip-path="url(#p6cfc5f19fe)" style="fill: none; stroke: #d9d9d9; stroke-width: 0.8; stroke-linecap: square"/>
     </g>
     <g id="line2d_34">
      <defs>
       <path id="m3d1c28fd00" d="M 0 0 
L -3.5 0 
" style="stroke: #000000; stroke-width: 0.8"/>
      </defs>
      <g>
       <use xlink:href="#m3d1c28fd00" x="44.7425" y="97.285477" style="stroke: #000000; stroke-width: 0.8"/>
      </g>
     </g>
     <g id="text_4">
      <!-- $\mathdefault{10^{-1}}$ -->
      <g transform="translate(18.9425 100.324852) scale(0.08 -0.08)">
       <use xlink:href="#DejaVuSans-31" transform="translate(0 0.684375)"/>
       <use xlink:href="#DejaVuSans-30" transform="translate(63.623047 0.684375)"/>
       <use xlink:href="#DejaVuSans-2212" transform="translate(128.203125 38.965625) scale(0.7)"/>
       <use xlink:href="#DejaVuSans-31" transform="translate(186.855469 38.965625) scale(0.7)"/>
      </g>
     </g>
    </g>
    <g id="ytick_2">
     <g id="line2d_35">
      <path d="M 44.7425 37.509988 
L 242.2745 37.509988 
" clip-path="url(#p6cfc5f19fe)" style="fill: none; stroke: #d9d9d9; stroke-width: 0.8; stroke-linecap: square"/>
     </g>
     <g id="line2d_36">
      <g>
       <use xlink:href="#m3d1c28fd00" x="44.7425" y="37.509988" style="stroke: #000000; stroke-width: 0.8"/>
      </g>
     </g>
     <g id="text_5">
      <!-- $\mathdefault{10^{0}}$ -->
      <g transform="translate(23.6625 40.549363) scale(0.08 -0.08)">
       <use xlink:href="#DejaVuSans-31" transform="translate(0 0.765625)"/>
       <use xlink:href="#DejaVuSans-30" transform="translate(63.623047 0.765625)"/>
       <use xlink:href="#DejaVuSans-30" transform="translate(128.203125 39.046875) scale(0.7)"/>
      </g>
     </g>
    </g>
    <g id="ytick_3">
     <g id="line2d_37">
      <path d="M 44.7425 128.54081 
L 242.2745 128.54081 
" clip-path="url(#p6cfc5f19fe)" style="fill: none; stroke-dasharray: 2.96,1.28; stroke-dashoffset: 0; stroke: #f2f2f2; stroke-width: 0.8"/>
     </g>
     <g id="line2d_38">
      <defs>
       <path id="me216d04984" d="M 0 0 
L -2 0 
" style="stroke: #000000; stroke-width: 0.6"/>
      </defs>
      <g>
       <use xlink:href="#me216d04984" x="44.7425" y="128.54081" style="stroke: #000000; stroke-width: 0.6"/>
      </g>
     </g>
    </g>
    <g id="ytick_4">
     <g id="line2d_39">
      <path d="M 44.7425 121.072536 
L 242.2745 121.072536 
" clip-path="url(#p6cfc5f19fe)" style="fill: none; stroke-dasharray: 2.96,1.28; stroke-dashoffset: 0; stroke: #f2f2f2; stroke-width: 0.8"/>
     </g>
     <g id="line2d_40">
      <g>
       <use xlink:href="#me216d04984" x="44.7425" y="121.072536" style="stroke: #000000; stroke-width: 0.6"/>
      </g>
     </g>
    </g>
    <g id="ytick_5">
     <g id="line2d_41">
      <path d="M 44.7425 115.279692 
L 242.2745 115.279692 
" clip-path="url(#p6cfc5f19fe)" style="fill: none; stroke-dasharray: 2.96,1.28; stroke-dashoffset: 0; stroke: #f2f2f2; stroke-width: 0.8"/>
     </g>
     <g id="line2d_42">
      <g>
       <use xlink:href="#me216d04984" x="44.7425" y="115.279692" style="stroke: #000000; stroke-width: 0.6"/>
      </g>
     </g>
    </g>
    <g id="ytick_6">
     <g id="line2d_43">
      <path d="M 44.7425 110.546595 
L 242.2745 110.546595 
" clip-path="url(#p6cfc5f19fe)" style="fill: none; stroke-dasharray: 2.96,1.28; stroke-dashoffset: 0; stroke: #f2f2f2; stroke-width: 0.8"/>
     </g>
     <g id="line2d_44">
      <g>
       <use xlink:href="#me216d04984" x="44.7425" y="110.546595" style="stroke: #000000; stroke-width: 0.6"/>
      </g>
     </g>
    </g>
    <g id="ytick_7">
     <g id="line2d_45">
      <path d="M 44.7425 106.544818 
L 242.2745 106.544818 
" clip-path="url(#p6cfc5f19fe)" style="fill: none; stroke-dasharray: 2.96,1.28; stroke-dashoffset: 0; stroke: #f2f2f2; stroke-width: 0.8"/>
     </g>
     <g id="line2d_46">
      <g>
       <use xlink:href="#me216d04984" x="44.7425" y="106.544818" style="stroke: #000000; stroke-width: 0.6"/>
      </g>
     </g>
    </g>
    <g id="ytick_8">
     <g id="line2d_47">
      <path d="M 44.7425 103.078321 
L 242.2745 103.078321 
" clip-path="url(#p6cfc5f19fe)" style="fill: none; stroke-dasharray: 2.96,1.28; stroke-dashoffset: 0; stroke: #f2f2f2; stroke-width: 0.8"/>
     </g>
     <g id="line2d_48">
      <g>
       <use xlink:href="#me216d04984" x="44.7425" y="103.078321" style="stroke: #000000; stroke-width: 0.6"/>
      </g>
     </g>
    </g>
    <g id="ytick_9">
     <g id="line2d_49">
      <path d="M 44.7425 100.020654 
L 242.2745 100.020654 
" clip-path="url(#p6cfc5f19fe)" style="fill: none; stroke-dasharray: 2.96,1.28; stroke-dashoffset: 0; stroke: #f2f2f2; stroke-width: 0.8"/>
     </g>
     <g id="line2d_50">
      <g>
       <use xlink:href="#me216d04984" x="44.7425" y="100.020654" style="stroke: #000000; stroke-width: 0.6"/>
      </g>
     </g>
    </g>
    <g id="ytick_10">
     <g id="line2d_51">
      <path d="M 44.7425 79.291262 
L 242.2745 79.291262 
" clip-path="url(#p6cfc5f19fe)" style="fill: none; stroke-dasharray: 2.96,1.28; stroke-dashoffset: 0; stroke: #f2f2f2; stroke-width: 0.8"/>
     </g>
     <g id="line2d_52">
      <g>
       <use xlink:href="#me216d04984" x="44.7425" y="79.291262" style="stroke: #000000; stroke-width: 0.6"/>
      </g>
     </g>
    </g>
    <g id="ytick_11">
     <g id="line2d_53">
      <path d="M 44.7425 68.765321 
L 242.2745 68.765321 
" clip-path="url(#p6cfc5f19fe)" style="fill: none; stroke-dasharray: 2.96,1.28; stroke-dashoffset: 0; stroke: #f2f2f2; stroke-width: 0.8"/>
     </g>
     <g id="line2d_54">
      <g>
       <use xlink:href="#me216d04984" x="44.7425" y="68.765321" style="stroke: #000000; stroke-width: 0.6"/>
      </g>
     </g>
    </g>
    <g id="ytick_12">
     <g id="line2d_55">
      <path d="M 44.7425 61.297047 
L 242.2745 61.297047 
" clip-path="url(#p6cfc5f19fe)" style="fill: none; stroke-dasharray: 2.96,1.28; stroke-dashoffset: 0; stroke: #f2f2f2; stroke-width: 0.8"/>
     </g>
     <g id="line2d_56">
      <g>
       <use xlink:href="#me216d04984" x="44.7425" y="61.297047" style="stroke: #000000; stroke-width: 0.6"/>
      </g>
     </g>
    </g>
    <g id="ytick_13">
     <g id="line2d_57">
      <path d="M 44.7425 55.504203 
L 242.2745 55.504203 
" clip-path="url(#p6cfc5f19fe)" style="fill: none; stroke-dasharray: 2.96,1.28; stroke-dashoffset: 0; stroke: #f2f2f2; stroke-width: 0.8"/>
     </g>
     <g id="line2d_58">
      <g>
       <use xlink:href="#me216d04984" x="44.7425" y="55.504203" style="stroke: #000000; stroke-width: 0.6"/>
      </g>
     </g>
    </g>
    <g id="ytick_14">
     <g id="line2d_59">
      <path d="M 44.7425 50.771105 
L 242.2745 50.771105 
" clip-path="url(#p6cfc5f19fe)" style="fill: none; stroke-dasharray: 2.96,1.28; stroke-dashoffset: 0; stroke: #f2f2f2; stroke-width: 0.8"/>
     </g>
     <g id="line2d_60">
      <g>
       <use xlink:href="#me216d04984" x="44.7425" y="50.771105" style="stroke: #000000; stroke-width: 0.6"/>
      </g>
     </g>
    </g>
    <g id="ytick_15">
     <g id="line2d_61">
      <path d="M 44.7425 46.769328 
L 242.2745 46.769328 
" clip-path="url(#p6cfc5f19fe)" style="fill: none; stroke-dasharray: 2.96,1.28; stroke-dashoffset: 0; stroke: #f2f2f2; stroke-width: 0.8"/>
     </g>
     <g id="line2d_62">
      <g>
       <use xlink:href="#me216d04984" x="44.7425" y="46.769328" style="stroke: #000000; stroke-width: 0.6"/>
      </g>
     </g>
    </g>
    <g id="ytick_16">
     <g id="line2d_63">
      <path d="M 44.7425 43.302831 
L 242.2745 43.302831 
" clip-path="url(#p6cfc5f19fe)" style="fill: none; stroke-dasharray: 2.96,1.28; stroke-dashoffset: 0; stroke: #f2f2f2; stroke-width: 0.8"/>
     </g>
     <g id="line2d_64">
      <g>
       <use xlink:href="#me216d04984" x="44.7425" y="43.302831" style="stroke: #000000; stroke-width: 0.6"/>
      </g>
     </g>
    </g>
    <g id="ytick_17">
     <g id="line2d_65">
      <path d="M 44.7425 40.245164 
L 242.2745 40.245164 
" clip-path="url(#p6cfc5f19fe)" style="fill: none; stroke-dasharray: 2.96,1.28; stroke-dashoffset: 0; stroke: #f2f2f2; stroke-width: 0.8"/>
     </g>
     <g id="line2d_66">
      <g>
       <use xlink:href="#me216d04984" x="44.7425" y="40.245164" style="stroke: #000000; stroke-width: 0.6"/>
      </g>
     </g>
    </g>
    <g id="ytick_18">
     <g id="line2d_67">
      <path d="M 44.7425 19.515773 
L 242.2745 19.515773 
" clip-path="url(#p6cfc5f19fe)" style="fill: none; stroke-dasharray: 2.96,1.28; stroke-dashoffset: 0; stroke: #f2f2f2; stroke-width: 0.8"/>
     </g>
     <g id="line2d_68">
      <g>
       <use xlink:href="#me216d04984" x="44.7425" y="19.515773" style="stroke: #000000; stroke-width: 0.6"/>
      </g>
     </g>
    </g>
    <g id="ytick_19">
     <g id="line2d_69">
      <path d="M 44.7425 8.989831 
L 242.2745 8.989831 
" clip-path="url(#p6cfc5f19fe)" style="fill: none; stroke-dasharray: 2.96,1.28; stroke-dashoffset: 0; stroke: #f2f2f2; stroke-width: 0.8"/>
     </g>
     <g id="line2d_70">
      <g>
       <use xlink:href="#me216d04984" x="44.7425" y="8.989831" style="stroke: #000000; stroke-width: 0.6"/>
      </g>
     </g>
    </g>
    <g id="text_6">
     <!-- Spectral acceleration, SA (g) -->
     <g transform="translate(13.27875 129.871075) rotate(-90) scale(0.08 -0.08)">
      <defs>
       <path id="DejaVuSans-53" d="M 3425 4513 
L 3425 3897 
Q 3066 4069 2747 4153 
Q 2428 4238 2131 4238 
Q 1616 4238 1336 4038 
Q 1056 3838 1056 3469 
Q 1056 3159 1242 3001 
Q 1428 2844 1947 2747 
L 2328 2669 
Q 3034 2534 3370 2195 
Q 3706 1856 3706 1288 
Q 3706 609 3251 259 
Q 2797 -91 1919 -91 
Q 1588 -91 1214 -16 
Q 841 59 441 206 
L 441 856 
Q 825 641 1194 531 
Q 1563 422 1919 422 
Q 2459 422 2753 634 
Q 3047 847 3047 1241 
Q 3047 1584 2836 1778 
Q 2625 1972 2144 2069 
L 1759 2144 
Q 1053 2284 737 2584 
Q 422 2884 422 3419 
Q 422 4038 858 4394 
Q 1294 4750 2059 4750 
Q 2388 4750 2728 4690 
Q 3069 4631 3425 4513 
z
" transform="scale(0.015625)"/>
       <path id="DejaVuSans-70" d="M 1159 525 
L 1159 -1331 
L 581 -1331 
L 581 3500 
L 1159 3500 
L 1159 2969 
Q 1341 3281 1617 3432 
Q 1894 3584 2278 3584 
Q 2916 3584 3314 3078 
Q 3713 2572 3713 1747 
Q 3713 922 3314 415 
Q 2916 -91 2278 -91 
Q 1894 -91 1617 61 
Q 1341 213 1159 525 
z
M 3116 1747 
Q 3116 2381 2855 2742 
Q 2594 3103 2138 3103 
Q 1681 3103 1420 2742 
Q 1159 2381 1159 1747 
Q 1159 1113 1420 752 
Q 1681 391 2138 391 
Q 2594 391 2855 752 
Q 3116 1113 3116 1747 
z
" transform="scale(0.015625)"/>
       <path id="DejaVuSans-63" d="M 3122 3366 
L 3122 2828 
Q 2878 2963 2633 3030 
Q 2388 3097 2138 3097 
Q 1578 3097 1268 2742 
Q 959 2388 959 1747 
Q 959 1106 1268 751 
Q 1578 397 2138 397 
Q 2388 397 2633 464 
Q 2878 531 3122 666 
L 3122 134 
Q 2881 22 2623 -34 
Q 2366 -91 2075 -91 
Q 1284 -91 818 406 
Q 353 903 353 1747 
Q 353 2603 823 3093 
Q 1294 3584 2113 3584 
Q 2378 3584 2631 3529 
Q 2884 3475 3122 3366 
z
" transform="scale(0.015625)"/>
       <path id="DejaVuSans-74" d="M 1172 4494 
L 1172 3500 
L 2356 3500 
L 2356 3053 
L 1172 3053 
L 1172 1153 
Q 1172 725 1289 603 
Q 1406 481 1766 481 
L 2356 481 
L 2356 0 
L 1766 0 
Q 1100 0 847 248 
Q 594 497 594 1153 
L 594 3053 
L 172 3053 
L 172 3500 
L 594 3500 
L 594 4494 
L 1172 4494 
z
" transform="scale(0.015625)"/>
       <path id="DejaVuSans-61" d="M 2194 1759 
Q 1497 1759 1228 1600 
Q 959 1441 959 1056 
Q 959 750 1161 570 
Q 1363 391 1709 391 
Q 2188 391 2477 730 
Q 2766 1069 2766 1631 
L 2766 1759 
L 2194 1759 
z
M 3341 1997 
L 3341 0 
L 2766 0 
L 2766 531 
Q 2569 213 2275 61 
Q 1981 -91 1556 -91 
Q 1019 -91 701 211 
Q 384 513 384 1019 
Q 384 1609 779 1909 
Q 1175 2209 1959 2209 
L 2766 2209 
L 2766 2266 
Q 2766 2663 2505 2880 
Q 2244 3097 1772 3097 
Q 1472 3097 1187 3025 
Q 903 2953 641 2809 
L 641 3341 
Q 956 3463 1253 3523 
Q 1550 3584 1831 3584 
Q 2591 3584 2966 3190 
Q 3341 2797 3341 1997 
z
" transform="scale(0.015625)"/>
       <path id="DejaVuSans-6c" d="M 603 4863 
L 1178 4863 
L 1178 0 
L 603 0 
L 603 4863 
z
" transform="scale(0.015625)"/>
       <path id="DejaVuSans-6e" d="M 3513 2113 
L 3513 0 
L 2938 0 
L 2938 2094 
Q 2938 2591 2744 2837 
Q 2550 3084 2163 3084 
Q 1697 3084 1428 2787 
Q 1159 2491 1159 1978 
L 1159 0 
L 581 0 
L 581 3500 
L 1159 3500 
L 1159 2956 
Q 1366 3272 1645 3428 
Q 1925 3584 2291 3584 
Q 2894 3584 3203 3211 
Q 3513 2838 3513 2113 
z
" transform="scale(0.015625)"/>
       <path id="DejaVuSans-41" d="M 2188 4044 
L 1331 1722 
L 3047 1722 
L 2188 4044 
z
M 1831 4666 
L 2547 4666 
L 4325 0 
L 3669 0 
L 3244 1197 
L 1141 1197 
L 716 0 
L 50 0 
L 1831 4666 
z
" transform="scale(0.015625)"/>
       <path id="DejaVuSans-67" d="M 2906 1791 
Q 2906 2416 2648 2759 
Q 2391 3103 1925 3103 
Q 1463 3103 1205 2759 
Q 947 2416 947 1791 
Q 947 1169 1205 825 
Q 1463 481 1925 481 
Q 2391 481 2648 825 
Q 2906 1169 2906 1791 
z
M 3481 434 
Q 3481 -459 3084 -895 
Q 2688 -1331 1869 -1331 
Q 1566 -1331 1297 -1286 
Q 1028 -1241 775 -1147 
L 775 -588 
Q 1028 -725 1275 -790 
Q 1522 -856 1778 -856 
Q 2344 -856 2625 -561 
Q 2906 -266 2906 331 
L 2906 616 
Q 2728 306 2450 153 
Q 2172 0 1784 0 
Q 1141 0 747 490 
Q 353 981 353 1791 
Q 353 2603 747 3093 
Q 1141 3584 1784 3584 
Q 2172 3584 2450 3431 
Q 2728 3278 2906 2969 
L 2906 3500 
L 3481 3500 
L 3481 434 
z
" transform="scale(0.015625)"/>
      </defs>
      <use xlink:href="#DejaVuSans-53"/>
      <use xlink:href="#DejaVuSans-70" x="63.476562"/>
      <use xlink:href="#DejaVuSans-65" x="126.953125"/>
      <use xlink:href="#DejaVuSans-63" x="188.476562"/>
      <use xlink:href="#DejaVuSans-74" x="243.457031"/>
      <use xlink:href="#DejaVuSans-72" x="282.666016"/>
      <use xlink:href="#DejaVuSans-61" x="323.779297"/>
      <use xlink:href="#DejaVuSans-6c" x="385.058594"/>
      <use xlink:href="#DejaVuSans-20" x="412.841797"/>
      <use xlink:href="#DejaVuSans-61" x="444.628906"/>
      <use xlink:href="#DejaVuSans-63" x="505.908203"/>
      <use xlink:href="#DejaVuSans-63" x="560.888672"/>
      <use xlink:href="#DejaVuSans-65" x="615.869141"/>
      <use xlink:href="#DejaVuSans-6c" x="677.392578"/>
      <use xlink:href="#DejaVuSans-65" x="705.175781"/>
      <use xlink:href="#DejaVuSans-72" x="766.699219"/>
      <use xlink:href="#DejaVuSans-61" x="807.8125"/>
      <use xlink:href="#DejaVuSans-74" x="869.091797"/>
      <use xlink:href="#DejaVuSans-69" x="908.300781"/>
      <use xlink:href="#DejaVuSans-6f" x="936.083984"/>
      <use xlink:href="#DejaVuSans-6e" x="997.265625"/>
      <use xlink:href="#DejaVuSans-2c" x="1060.644531"/>
      <use xlink:href="#DejaVuSans-20" x="1092.431641"/>
      <use xlink:href="#DejaVuSans-53" x="1124.21875"/>
      <use xlink:href="#DejaVuSans-41" x="1189.570312"/>
      <use xlink:href="#DejaVuSans-20" x="1257.978516"/>
      <use xlink:href="#DejaVuSans-28" x="1289.765625"/>
      <use xlink:href="#DejaVuSans-67" x="1328.779297"/>
      <use xlink:href="#DejaVuSans-29" x="1392.255859"/>
     </g>
    </g>
   </g>
   <g id="line2d_71">
    <path d="M 53.721227 15.85931 
L 72.333391 15.240561 
L 85.538931 23.033296 
L 95.781944 46.012112 
L 104.151095 50.03411 
L 117.356635 56.907219 
L 127.599648 62.358907 
L 146.211812 51.287361 
L 159.417352 55.209303 
L 171.460723 62.396173 
L 178.029516 66.405887 
L 191.235056 74.755042 
L 209.84722 90.069529 
L 223.05276 105.795983 
L 233.295773 105.316237 
" clip-path="url(#p6cfc5f19fe)" style="fill: none; stroke: #b2b2b2; stroke-width: 0.8; stroke-linecap: square"/>
   </g>
   <g id="line2d_72">
    <path d="M 53.721227 63.324898 
L 72.333391 60.2414 
L 85.538931 55.168451 
L 95.781944 53.903636 
L 104.151095 55.360224 
L 117.356635 49.298567 
L 127.599648 46.83215 
L 146.211812 42.336734 
L 159.417352 23.689987 
L 171.460723 47.518137 
L 178.029516 48.362588 
L 191.235056 59.574675 
L 209.84722 75.409169 
L 223.05276 94.027423 
L 233.295773 112.005949 
" clip-path="url(#p6cfc5f19fe)" style="fill: none; stroke: #b2b2b2; stroke-width: 0.8; stroke-linecap: square"/>
   </g>
   <g id="line2d_73">
    <path d="M 53.721227 41.950268 
L 72.333391 27.224371 
L 85.538931 27.982612 
L 95.781944 27.548501 
L 104.151095 15.068178 
L 117.356635 22.47476 
L 127.599648 45.009731 
L 146.211812 57.846706 
L 159.417352 69.550882 
L 171.460723 75.841284 
L 178.029516 77.707478 
L 191.235056 73.461618 
L 209.84722 91.067419 
L 223.05276 87.970523 
L 233.295773 101.102254 
" clip-path="url(#p6cfc5f19fe)" style="fill: none; stroke: #b2b2b2; stroke-width: 0.8; stroke-linecap: square"/>
   </g>
   <g id="line2d_74">
    <path d="M 53.721227 41.786228 
L 72.333391 40.325879 
L 85.538931 36.69028 
L 95.781944 40.217776 
L 104.151095 39.592427 
L 117.356635 37.741807 
L 127.599648 22.801978 
L 146.211812 61.307864 
L 159.417352 71.905398 
L 171.460723 75.314887 
L 178.029516 85.14259 
L 191.235056 81.310147 
L 209.84722 87.880769 
L 223.05276 93.576454 
L 233.295773 112.996171 
" clip-path="url(#p6cfc5f19fe)" style="fill: none; stroke: #b2b2b2; stroke-width: 0.8; stroke-linecap: square"/>
   </g>
   <g id="line2d_75">
    <path d="M 53.721227 39.220991 
L 72.333391 41.522549 
L 85.538931 37.008459 
L 95.781944 50.745566 
L 104.151095 52.776386 
L 117.356635 47.867451 
L 127.599648 49.533871 
L 146.211812 46.071069 
L 159.417352 50.522727 
L 171.460723 45.954934 
L 178.029516 57.204013 
L 191.235056 69.999331 
L 209.84722 90.975933 
L 223.05276 103.813931 
L 233.295773 102.377929 
" clip-path="url(#p6cfc5f19fe)" style="fill: none; stroke: #b2b2b2; stroke-width: 0.8; stroke-linecap: square"/>
   </g>
   <g id="line2d_76">
    <path d="M 53.721227 26.9167 
L 72.333391 37.570541 
L 85.538931 25.750232 
L 95.781944 19.226446 
L 104.151095 23.555249 
L 117.356635 23.114676 
L 127.599648 48.01257 
L 146.211812 54.924021 
L 159.417352 75.985429 
L 171.460723 77.452429 
L 178.029516 73.205868 
L 191.235056 96.54555 
L 209.84722 123.229125 
L 223.05276 110.498327 
L 233.295773 132.0912 
" clip-path="url(#p6cfc5f19fe)" style="fill: none; stroke: #b2b2b2; stroke-width: 0.8; stroke-linecap: square"/>
   </g>
   <g id="line2d_77">
    <path d="M 53.721227 40.51279 
L 72.333391 50.632454 
L 85.538931 47.254132 
L 95.781944 43.983893 
L 104.151095 44.859721 
L 117.356635 24.93165 
L 127.599648 37.457108 
L 146.211812 58.843293 
L 159.417352 51.816383 
L 171.460723 54.343515 
L 178.029516 57.033926 
L 191.235056 69.775357 
L 209.84722 91.900568 
L 223.05276 104.932424 
L 233.295773 120.909675 
" clip-path="url(#p6cfc5f19fe)" style="fill: none; stroke: #b2b2b2; stroke-width: 0.8; stroke-linecap: square"/>
   </g>
   <g id="line2d_78">
    <path d="M 53.721227 49.13128 
L 72.333391 36.052422 
L 85.538931 34.833813 
L 95.781944 32.157703 
L 104.151095 37.768452 
L 117.356635 34.994817 
L 127.599648 47.473188 
L 146.211812 45.042187 
L 159.417352 52.672797 
L 171.460723 65.756314 
L 178.029516 57.188856 
L 191.235056 73.132968 
L 209.84722 82.305334 
L 223.05276 99.458267 
L 233.295773 114.8791 
" clip-path="url(#p6cfc5f19fe)" style="fill: none; stroke: #b2b2b2; stroke-width: 0.8; stroke-linecap: square"/>
   </g>
   <g id="line2d_79">
    <path d="M 53.721227 43.846886 
L 72.333391 39.841934 
L 85.538931 35.735175 
L 95.781944 36.00701 
L 104.151095 44.615617 
L 117.356635 43.330039 
L 127.599648 49.234195 
L 146.211812 47.406887 
L 159.417352 55.834324 
L 171.460723 66.645773 
L 178.029516 68.578043 
L 191.235056 61.24691 
L 209.84722 84.870397 
L 223.05276 98.845677 
L 233.295773 113.323594 
" clip-path="url(#p6cfc5f19fe)" style="fill: none; stroke: #b2b2b2; stroke-width: 0.8; stroke-linecap: square"/>
   </g>
   <g id="line2d_80">
    <path d="M 53.721227 39.470134 
L 72.333391 25.819148 
L 85.538931 28.39319 
L 95.781944 38.697547 
L 104.151095 46.655044 
L 117.356635 39.752543 
L 127.599648 39.888421 
L 146.211812 54.038857 
L 159.417352 60.151482 
L 171.460723 66.50846 
L 178.029516 62.665255 
L 191.235056 67.777885 
L 209.84722 89.168627 
L 223.05276 109.38365 
L 233.295773 115.394307 
" clip-path="url(#p6cfc5f19fe)" style="fill: none; stroke: #b2b2b2; stroke-width: 0.8; stroke-linecap: square"/>
   </g>
   <g id="line2d_81">
    <path d="M 53.721227 48.463905 
L 72.333391 37.077056 
L 85.538931 31.946272 
L 95.781944 36.984434 
L 104.151095 37.992304 
L 117.356635 38.366966 
L 127.599648 41.258162 
L 146.211812 56.407821 
L 159.417352 55.8462 
L 171.460723 65.007473 
L 178.029516 74.269043 
L 191.235056 76.131353 
L 209.84722 84.389474 
L 223.05276 101.40321 
L 233.295773 113.564243 
" clip-path="url(#p6cfc5f19fe)" style="fill: none; stroke: #b2b2b2; stroke-width: 0.8; stroke-linecap: square"/>
   </g>
   <g id="line2d_82">
    <path d="M 53.721227 47.923702 
L 72.333391 44.399931 
L 85.538931 30.991476 
L 95.781944 40.079801 
L 104.151095 38.50018 
L 117.356635 51.981295 
L 127.599648 49.040284 
L 146.211812 42.893419 
L 159.417352 58.547263 
L 171.460723 58.372041 
L 178.029516 59.129276 
L 191.235056 81.360497 
L 209.84722 87.178062 
L 223.05276 102.538317 
L 233.295773 116.167988 
" clip-path="url(#p6cfc5f19fe)" style="fill: none; stroke: #b2b2b2; stroke-width: 0.8; stroke-linecap: square"/>
   </g>
   <g id="line2d_83">
    <path d="M 53.721227 38.417838 
L 72.333391 34.913233 
L 85.538931 37.460055 
L 95.781944 34.683255 
L 104.151095 40.947438 
L 117.356635 39.159248 
L 127.599648 49.160947 
L 146.211812 58.309221 
L 159.417352 59.13883 
L 171.460723 66.376828 
L 178.029516 64.998461 
L 191.235056 69.626462 
L 209.84722 91.093652 
L 223.05276 105.313667 
L 233.295773 116.724168 
" clip-path="url(#p6cfc5f19fe)" style="fill: none; stroke: #b2b2b2; stroke-width: 0.8; stroke-linecap: square"/>
   </g>
   <g id="line2d_84">
    <path d="M 53.721227 46.989858 
L 72.333391 43.431711 
L 85.538931 31.796514 
L 95.781944 42.988662 
L 104.151095 47.839799 
L 117.356635 42.709971 
L 127.599648 41.859681 
L 146.211812 43.862315 
L 159.417352 57.60494 
L 171.460723 65.458263 
L 178.029516 65.447991 
L 191.235056 89.929956 
L 209.84722 97.33233 
L 223.05276 110.155599 
L 233.295773 118.331374 
" clip-path="url(#p6cfc5f19fe)" style="fill: none; stroke: #b2b2b2; stroke-width: 0.8; stroke-linecap: square"/>
   </g>
   <g id="line2d_85">
    <path d="M 53.721227 66.859958 
L 72.333391 61.241527 
L 85.538931 59.360049 
L 95.781944 57.103779 
L 104.151095 45.794646 
L 117.356635 39.872037 
L 127.599648 39.598236 
L 146.211812 37.272873 
L 159.417352 55.949835 
L 171.460723 64.605956 
L 178.029516 66.981627 
L 191.235056 77.05785 
L 209.84722 92.11858 
L 223.05276 107.372169 
L 233.295773 105.632143 
" clip-path="url(#p6cfc5f19fe)" style="fill: none; stroke: #b2b2b2; stroke-width: 0.8; stroke-linecap: square"/>
   </g>
   <g id="line2d_86">
    <path d="M 53.721227 59.997977 
L 72.333391 53.894328 
L 85.538931 52.875005 
L 95.781944 39.413059 
L 104.151095 37.157106 
L 117.356635 36.827046 
L 127.599648 44.553544 
L 146.211812 46.201524 
L 159.417352 48.023216 
L 171.460723 43.234541 
L 178.029516 45.181829 
L 191.235056 39.935778 
L 209.84722 52.863595 
L 223.05276 70.750688 
L 233.295773 54.85177 
" clip-path="url(#p6cfc5f19fe)" style="fill: none; stroke: #b2b2b2; stroke-width: 0.8; stroke-linecap: square"/>
   </g>
   <g id="line2d_87">
    <path d="M 53.721227 23.101981 
L 72.333391 30.971241 
L 85.538931 32.881144 
L 95.781944 29.435688 
L 104.151095 37.10513 
L 117.356635 48.059388 
L 127.599648 52.262766 
L 146.211812 47.347761 
L 159.417352 58.472663 
L 171.460723 53.989501 
L 178.029516 57.73003 
L 191.235056 68.344324 
L 209.84722 68.512732 
L 223.05276 69.349935 
L 233.295773 76.630702 
" clip-path="url(#p6cfc5f19fe)" style="fill: none; stroke: #b2b2b2; stroke-width: 0.8; stroke-linecap: square"/>
   </g>
   <g id="line2d_88">
    <path d="M 53.721227 51.392706 
L 72.333391 38.249747 
L 85.538931 40.390054 
L 95.781944 39.5454 
L 104.151095 45.055114 
L 117.356635 50.876385 
L 127.599648 40.396514 
L 146.211812 46.65249 
L 159.417352 54.726748 
L 171.460723 71.487896 
L 178.029516 81.21868 
L 191.235056 89.947745 
L 209.84722 93.891416 
L 223.05276 111.682474 
L 233.295773 116.18361 
" clip-path="url(#p6cfc5f19fe)" style="fill: none; stroke: #b2b2b2; stroke-width: 0.8; stroke-linecap: square"/>
   </g>
   <g id="line2d_89">
    <path d="M 53.721227 66.716464 
L 72.333391 64.89587 
L 85.538931 58.131078 
L 95.781944 58.747539 
L 104.151095 55.291267 
L 117.356635 53.287329 
L 127.599648 44.281608 
L 146.211812 35.633979 
L 159.417352 36.909795 
L 171.460723 36.236874 
L 178.029516 36.826597 
L 191.235056 51.219241 
L 209.84722 65.021066 
L 223.05276 81.726824 
L 233.295773 97.001427 
" clip-path="url(#p6cfc5f19fe)" style="fill: none; stroke: #b2b2b2; stroke-width: 0.8; stroke-linecap: square"/>
   </g>
   <g id="line2d_90">
    <path d="M 53.721227 24.529377 
L 72.333391 13.1472 
L 85.538931 25.128883 
L 95.781944 26.307921 
L 104.151095 32.164054 
L 117.356635 51.34131 
L 127.599648 52.572833 
L 146.211812 58.34203 
L 159.417352 56.821959 
L 171.460723 72.579209 
L 178.029516 73.591643 
L 191.235056 66.279672 
L 209.84722 78.849829 
L 223.05276 79.415018 
L 233.295773 83.12034 
" clip-path="url(#p6cfc5f19fe)" style="fill: none; stroke: #b2b2b2; stroke-width: 0.8; stroke-linecap: square"/>
   </g>
   <g id="line2d_91">
    <path d="M 53.721227 51.562541 
L 72.333391 41.368979 
L 85.538931 31.255316 
L 95.781944 38.073363 
L 104.151095 37.750237 
L 117.356635 48.66965 
L 127.599648 43.816648 
L 146.211812 50.176978 
L 159.417352 58.134754 
L 171.460723 63.766559 
L 178.029516 55.907503 
L 191.235056 55.50106 
L 209.84722 80.070776 
L 223.05276 97.105835 
L 233.295773 97.924394 
" clip-path="url(#p6cfc5f19fe)" style="fill: none; stroke: #b2b2b2; stroke-width: 0.8; stroke-linecap: square"/>
   </g>
   <g id="line2d_92">
    <path d="M 53.721227 56.785241 
L 72.333391 43.391449 
L 85.538931 43.235638 
L 95.781944 40.444308 
L 104.151095 43.680509 
L 117.356635 49.394055 
L 127.599648 45.371783 
L 146.211812 48.644298 
L 159.417352 44.8742 
L 171.460723 53.415634 
L 178.029516 43.94324 
L 191.235056 53.845582 
L 209.84722 71.174384 
L 223.05276 84.901585 
L 233.295773 94.535858 
" clip-path="url(#p6cfc5f19fe)" style="fill: none; stroke: #b2b2b2; stroke-width: 0.8; stroke-linecap: square"/>
   </g>
   <g id="line2d_93">
    <path d="M 53.721227 44.735384 
L 72.333391 45.157882 
L 85.538931 46.903872 
L 95.781944 41.069774 
L 104.151095 42.13204 
L 117.356635 39.494071 
L 127.599648 42.414079 
L 146.211812 55.864867 
L 159.417352 53.500827 
L 171.460723 54.046924 
L 178.029516 58.866251 
L 191.235056 77.439702 
L 209.84722 70.069524 
L 223.05276 67.001918 
L 233.295773 85.679853 
" clip-path="url(#p6cfc5f19fe)" style="fill: none; stroke: #b2b2b2; stroke-width: 0.8; stroke-linecap: square"/>
   </g>
   <g id="line2d_94">
    <path d="M 53.721227 54.377157 
L 72.333391 56.536281 
L 85.538931 51.398975 
L 95.781944 49.599065 
L 104.151095 44.738492 
L 117.356635 48.397362 
L 127.599648 47.394854 
L 146.211812 42.242335 
L 159.417352 44.751354 
L 171.460723 42.552429 
L 178.029516 53.267698 
L 191.235056 62.639029 
L 209.84722 70.130463 
L 223.05276 82.32638 
L 233.295773 97.977364 
" clip-path="url(#p6cfc5f19fe)" style="fill: none; stroke: #b2b2b2; stroke-width: 0.8; stroke-linecap: square"/>
   </g>
   <g id="line2d_95">
    <path d="M 53.721227 56.582105 
L 72.333391 45.306404 
L 85.538931 44.763657 
L 95.781944 41.596199 
L 104.151095 38.83759 
L 117.356635 45.211124 
L 127.599648 50.606903 
L 146.211812 43.612392 
L 159.417352 44.383891 
L 171.460723 61.062718 
L 178.029516 64.821882 
L 191.235056 77.571608 
L 209.84722 71.191356 
L 223.05276 94.795758 
L 233.295773 89.950184 
" clip-path="url(#p6cfc5f19fe)" style="fill: none; stroke: #b2b2b2; stroke-width: 0.8; stroke-linecap: square"/>
   </g>
   <g id="line2d_96">
    <path d="M 53.721227 34.319546 
L 72.333391 37.551866 
L 85.538931 29.034314 
L 95.781944 45.52854 
L 104.151095 39.768663 
L 117.356635 40.861242 
L 127.599648 46.546587 
L 146.211812 53.644055 
L 159.417352 54.366827 
L 171.460723 58.068602 
L 178.029516 56.071212 
L 191.235056 60.624371 
L 209.84722 72.386216 
L 223.05276 84.687318 
L 233.295773 102.643043 
" clip-path="url(#p6cfc5f19fe)" style="fill: none; stroke: #b2b2b2; stroke-width: 0.8; stroke-linecap: square"/>
   </g>
   <g id="line2d_97">
    <path d="M 53.721227 48.681117 
L 72.333391 41.439422 
L 85.538931 22.922733 
L 95.781944 24.285562 
L 104.151095 29.358361 
L 117.356635 38.52091 
L 127.599648 43.451692 
L 146.211812 53.768804 
L 159.417352 65.952343 
L 171.460723 78.993616 
L 178.029516 81.34016 
L 191.235056 87.179755 
L 209.84722 97.830982 
L 223.05276 114.933114 
L 233.295773 107.794458 
" clip-path="url(#p6cfc5f19fe)" style="fill: none; stroke: #b2b2b2; stroke-width: 0.8; stroke-linecap: square"/>
   </g>
   <g id="line2d_98">
    <path d="M 53.721227 52.850337 
L 72.333391 42.84133 
L 85.538931 37.924347 
L 95.781944 34.188622 
L 104.151095 39.078724 
L 117.356635 38.848676 
L 127.599648 33.89983 
L 146.211812 51.734168 
L 159.417352 56.862858 
L 171.460723 62.56171 
L 178.029516 62.645347 
L 191.235056 70.76198 
L 209.84722 76.935019 
L 223.05276 83.738027 
L 233.295773 100.8836 
" clip-path="url(#p6cfc5f19fe)" style="fill: none; stroke: #b2b2b2; stroke-width: 0.8; stroke-linecap: square"/>
   </g>
   <g id="line2d_99">
    <path d="M 53.721227 44.817904 
L 72.333391 41.102869 
L 85.538931 40.487879 
L 95.781944 32.412854 
L 104.151095 41.007207 
L 117.356635 44.985551 
L 127.599648 40.731683 
L 146.211812 55.885393 
L 159.417352 53.481163 
L 171.460723 62.441242 
L 178.029516 71.739196 
L 191.235056 72.098221 
L 209.84722 73.41782 
L 223.05276 88.688759 
L 233.295773 84.817245 
" clip-path="url(#p6cfc5f19fe)" style="fill: none; stroke: #b2b2b2; stroke-width: 0.8; stroke-linecap: square"/>
   </g>
   <g id="line2d_100">
    <path d="M 53.721227 64.699231 
L 72.333391 63.29843 
L 85.538931 64.633758 
L 95.781944 53.9961 
L 104.151095 53.018503 
L 117.356635 44.481213 
L 127.599648 40.64177 
L 146.211812 39.726322 
L 159.417352 34.884535 
L 171.460723 39.471682 
L 178.029516 52.805839 
L 191.235056 61.257492 
L 209.84722 75.550068 
L 223.05276 72.464445 
L 233.295773 88.956072 
" clip-path="url(#p6cfc5f19fe)" style="fill: none; stroke: #b2b2b2; stroke-width: 0.8; stroke-linecap: square"/>
   </g>
   <g id="line2d_101">
    <path d="M 53.721227 34.101761 
L 72.333391 26.367572 
L 85.538931 39.813562 
L 95.781944 42.808753 
L 104.151095 39.868187 
L 117.356635 42.714868 
L 127.599648 43.442088 
L 146.211812 51.615387 
L 159.417352 55.593273 
L 171.460723 55.452059 
L 178.029516 48.423616 
L 191.235056 56.467321 
L 209.84722 70.240936 
L 223.05276 84.808146 
L 233.295773 98.773859 
" clip-path="url(#p6cfc5f19fe)" style="fill: none; stroke: #b2b2b2; stroke-width: 0.8; stroke-linecap: square"/>
   </g>
   <g id="line2d_102">
    <path d="M 53.721227 30.282396 
L 72.333391 28.043011 
L 85.538931 30.422181 
L 95.781944 25.662166 
L 104.151095 29.916059 
L 117.356635 45.096572 
L 127.599648 44.5484 
L 146.211812 55.395082 
L 159.417352 63.84031 
L 171.460723 73.025587 
L 178.029516 77.542535 
L 191.235056 93.887501 
L 209.84722 99.896131 
L 223.05276 102.01239 
L 233.295773 111.952522 
" clip-path="url(#p6cfc5f19fe)" style="fill: none; stroke: #b2b2b2; stroke-width: 0.8; stroke-linecap: square"/>
   </g>
   <g id="line2d_103">
    <path d="M 53.721227 32.355059 
L 72.333391 17.282785 
L 85.538931 22.840428 
L 95.781944 24.998227 
L 104.151095 38.560802 
L 117.356635 37.015425 
L 127.599648 45.497665 
L 146.211812 55.881384 
L 159.417352 57.473077 
L 171.460723 53.660779 
L 178.029516 62.587622 
L 191.235056 74.424255 
L 209.84722 91.085603 
L 223.05276 94.691152 
L 233.295773 102.297583 
" clip-path="url(#p6cfc5f19fe)" style="fill: none; stroke: #b2b2b2; stroke-width: 0.8; stroke-linecap: square"/>
   </g>
   <g id="line2d_104">
    <path d="M 53.721227 49.503459 
L 72.333391 45.278619 
L 85.538931 40.549633 
L 95.781944 45.442936 
L 104.151095 32.402914 
L 117.356635 42.414037 
L 127.599648 43.916906 
L 146.211812 52.000433 
L 159.417352 55.228797 
L 171.460723 61.067044 
L 178.029516 62.998228 
L 191.235056 76.460903 
L 209.84722 84.884609 
L 223.05276 98.306142 
L 233.295773 101.384958 
" clip-path="url(#p6cfc5f19fe)" style="fill: none; stroke: #b2b2b2; stroke-width: 0.8; stroke-linecap: square"/>
   </g>
   <g id="line2d_105">
    <path d="M 53.721227 45.876027 
L 72.333391 43.236081 
L 85.538931 48.261712 
L 95.781944 54.110813 
L 104.151095 47.720447 
L 117.356635 49.302447 
L 127.599648 40.655204 
L 146.211812 42.758891 
L 159.417352 49.865174 
L 171.460723 52.75068 
L 178.029516 67.769799 
L 191.235056 62.891774 
L 209.84722 83.787541 
L 223.05276 91.424734 
L 233.295773 86.635514 
" clip-path="url(#p6cfc5f19fe)" style="fill: none; stroke: #b2b2b2; stroke-width: 0.8; stroke-linecap: square"/>
   </g>
   <g id="line2d_106">
    <path d="M 53.721227 66.819046 
L 72.333391 59.506564 
L 85.538931 56.59811 
L 95.781944 53.602907 
L 104.151095 35.903676 
L 117.356635 49.108659 
L 127.599648 44.799798 
L 146.211812 36.925859 
L 159.417352 47.980955 
L 171.460723 55.51027 
L 178.029516 51.886907 
L 191.235056 79.135781 
L 209.84722 85.009939 
L 223.05276 89.339545 
L 233.295773 108.458373 
" clip-path="url(#p6cfc5f19fe)" style="fill: none; stroke: #b2b2b2; stroke-width: 0.8; stroke-linecap: square"/>
   </g>
   <g id="line2d_107">
    <path d="M 53.721227 38.194143 
L 72.333391 32.118942 
L 85.538931 53.621997 
L 95.781944 44.106359 
L 104.151095 40.186145 
L 117.356635 39.635134 
L 127.599648 37.320051 
L 146.211812 52.443673 
L 159.417352 55.1344 
L 171.460723 51.605712 
L 178.029516 53.111515 
L 191.235056 50.506934 
L 209.84722 43.906389 
L 223.05276 62.528253 
L 233.295773 88.840944 
" clip-path="url(#p6cfc5f19fe)" style="fill: none; stroke: #b2b2b2; stroke-width: 0.8; stroke-linecap: square"/>
   </g>
   <g id="line2d_108">
    <path d="M 53.721227 42.917372 
L 72.333391 35.168715 
L 85.538931 33.853336 
L 95.781944 37.999117 
L 104.151095 43.406103 
L 117.356635 47.027311 
L 127.599648 41.395975 
L 146.211812 55.791288 
L 159.417352 50.512493 
L 171.460723 57.512346 
L 178.029516 64.044334 
L 191.235056 77.998206 
L 209.84722 75.465064 
L 223.05276 88.900022 
L 233.295773 95.178106 
" clip-path="url(#p6cfc5f19fe)" style="fill: none; stroke: #b2b2b2; stroke-width: 0.8; stroke-linecap: square"/>
   </g>
   <g id="line2d_109">
    <path d="M 53.721227 38.006941 
L 72.333391 25.990564 
L 85.538931 35.930844 
L 95.781944 37.704853 
L 104.151095 41.632298 
L 117.356635 45.575364 
L 127.599648 51.02758 
L 146.211812 48.060776 
L 159.417352 59.658573 
L 171.460723 70.805006 
L 178.029516 78.977788 
L 191.235056 82.486436 
L 209.84722 90.780842 
L 223.05276 99.195031 
L 233.295773 108.125484 
" clip-path="url(#p6cfc5f19fe)" style="fill: none; stroke: #b2b2b2; stroke-width: 0.8; stroke-linecap: square"/>
   </g>
   <g id="line2d_110">
    <path d="M 53.721227 52.054022 
L 72.333391 48.19286 
L 85.538931 46.91144 
L 95.781944 39.392322 
L 104.151095 39.497336 
L 117.356635 42.328404 
L 127.599648 48.226748 
L 146.211812 41.667388 
L 159.417352 45.433218 
L 171.460723 53.108064 
L 178.029516 48.819839 
L 191.235056 60.07443 
L 209.84722 71.387866 
L 223.05276 75.897588 
L 233.295773 93.956944 
" clip-path="url(#p6cfc5f19fe)" style="fill: none; stroke: #b2b2b2; stroke-width: 0.8; stroke-linecap: square"/>
   </g>
   <g id="line2d_111">
    <path d="M 53.721227 42.353087 
L 72.333391 30.717648 
L 85.538931 29.222447 
L 95.781944 29.046279 
L 104.151095 25.788277 
L 117.356635 37.523332 
L 127.599648 43.446849 
L 146.211812 55.825918 
L 159.417352 68.055392 
L 171.460723 71.758497 
L 178.029516 78.158266 
L 191.235056 76.137954 
L 209.84722 97.152517 
L 223.05276 89.22734 
L 233.295773 92.365635 
" clip-path="url(#p6cfc5f19fe)" style="fill: none; stroke: #b2b2b2; stroke-width: 0.8; stroke-linecap: square"/>
   </g>
   <g id="line2d_112">
    <path d="M 53.721227 66.750506 
L 72.333391 63.259422 
L 85.538931 54.849286 
L 95.781944 54.60271 
L 104.151095 52.752962 
L 117.356635 45.942169 
L 127.599648 50.97915 
L 146.211812 34.917062 
L 159.417352 40.769916 
L 171.460723 52.991293 
L 178.029516 57.333461 
L 191.235056 56.136511 
L 209.84722 77.273148 
L 223.05276 76.736959 
L 233.295773 90.155917 
" clip-path="url(#p6cfc5f19fe)" style="fill: none; stroke: #b2b2b2; stroke-width: 0.8; stroke-linecap: square"/>
   </g>
   <g id="line2d_113">
    <path d="M 53.721227 39.303894 
L 72.333391 46.165919 
L 85.538931 51.784983 
L 95.781944 49.134597 
L 104.151095 46.052947 
L 117.356635 42.103954 
L 127.599648 38.183839 
L 146.211812 51.462453 
L 159.417352 58.096742 
L 171.460723 52.142787 
L 178.029516 61.594647 
L 191.235056 64.556476 
L 209.84722 87.080444 
L 223.05276 104.123194 
L 233.295773 115.411531 
" clip-path="url(#p6cfc5f19fe)" style="fill: none; stroke: #b2b2b2; stroke-width: 0.8; stroke-linecap: square"/>
   </g>
   <g id="line2d_114">
    <path d="M 53.721227 51.089649 
L 72.333391 36.284446 
L 85.538931 32.946326 
L 95.781944 29.709503 
L 104.151095 20.390243 
L 117.356635 44.631617 
L 127.599648 51.701399 
L 146.211812 57.18293 
L 159.417352 57.354355 
L 171.460723 61.649873 
L 178.029516 61.400568 
L 191.235056 67.447635 
L 209.84722 76.307035 
L 223.05276 85.310703 
L 233.295773 93.402281 
" clip-path="url(#p6cfc5f19fe)" style="fill: none; stroke: #b2b2b2; stroke-width: 0.8; stroke-linecap: square"/>
   </g>
   <g id="line2d_115">
    <path d="M 53.721227 34.080837 
L 72.333391 33.376529 
L 85.538931 28.759522 
L 95.781944 39.648423 
L 104.151095 42.268438 
L 117.356635 45.016743 
L 127.599648 54.248998 
L 146.211812 51.357032 
L 159.417352 55.346096 
L 171.460723 43.081616 
L 178.029516 42.465762 
L 191.235056 58.103354 
L 209.84722 75.680045 
L 223.05276 78.458791 
L 233.295773 91.394099 
" clip-path="url(#p6cfc5f19fe)" style="fill: none; stroke: #b2b2b2; stroke-width: 0.8; stroke-linecap: square"/>
   </g>
   <g id="line2d_116">
    <path d="M 53.721227 25.82717 
L 72.333391 25.727751 
L 85.538931 19.18339 
L 95.781944 19.435995 
L 104.151095 32.578378 
L 117.356635 36.995827 
L 127.599648 49.809825 
L 146.211812 62.951482 
L 159.417352 63.660754 
L 171.460723 80.906329 
L 178.029516 84.864387 
L 191.235056 102.258091 
L 209.84722 108.02934 
L 223.05276 116.721948 
L 233.295773 126.075444 
" clip-path="url(#p6cfc5f19fe)" style="fill: none; stroke: #b2b2b2; stroke-width: 0.8; stroke-linecap: square"/>
   </g>
   <g id="line2d_117">
    <path d="M 53.721227 49.511636 
L 72.333391 33.735197 
L 85.538931 34.558344 
L 95.781944 29.826581 
L 104.151095 38.038406 
L 117.356635 45.267135 
L 127.599648 39.664159 
L 146.211812 52.142828 
L 159.417352 51.197837 
L 171.460723 52.02427 
L 178.029516 54.76329 
L 191.235056 58.930832 
L 209.84722 71.970479 
L 223.05276 70.04948 
L 233.295773 85.471016 
" clip-path="url(#p6cfc5f19fe)" style="fill: none; stroke: #b2b2b2; stroke-width: 0.8; stroke-linecap: square"/>
   </g>
   <g id="line2d_118">
    <path d="M 53.721227 62.175146 
L 72.333391 55.098439 
L 85.538931 50.104945 
L 95.781944 44.859265 
L 104.151095 39.136889 
L 117.356635 38.337271 
L 127.599648 41.554338 
L 146.211812 47.678578 
L 159.417352 57.81334 
L 171.460723 46.078772 
L 178.029516 51.908212 
L 191.235056 64.012687 
L 209.84722 71.052554 
L 223.05276 78.387325 
L 233.295773 87.41336 
" clip-path="url(#p6cfc5f19fe)" style="fill: none; stroke: #b2b2b2; stroke-width: 0.8; stroke-linecap: square"/>
   </g>
   <g id="line2d_119">
    <path d="M 53.721227 55.997596 
L 72.333391 49.279831 
L 85.538931 42.252338 
L 95.781944 35.342034 
L 104.151095 29.868943 
L 117.356635 35.10859 
L 127.599648 35.831474 
L 146.211812 47.088936 
L 159.417352 58.24016 
L 171.460723 63.310833 
L 178.029516 71.305647 
L 191.235056 65.860566 
L 209.84722 76.200778 
L 223.05276 90.584089 
L 233.295773 107.225422 
" clip-path="url(#p6cfc5f19fe)" style="fill: none; stroke: #b2b2b2; stroke-width: 0.8; stroke-linecap: square"/>
   </g>
   <g id="line2d_120">
    <path d="M 53.721227 47.994428 
L 72.333391 45.042285 
L 85.538931 42.224924 
L 95.781944 48.80503 
L 104.151095 44.794185 
L 117.356635 41.41919 
L 127.599648 38.137845 
L 146.211812 51.167176 
L 159.417352 52.695375 
L 171.460723 41.742318 
L 178.029516 45.031608 
L 191.235056 59.287897 
L 209.84722 76.192996 
L 223.05276 83.558846 
L 233.295773 92.624242 
" clip-path="url(#p6cfc5f19fe)" style="fill: none; stroke: #b2b2b2; stroke-width: 0.8; stroke-linecap: square"/>
   </g>
   <g id="line2d_121">
    <path d="M 53.721227 45.766084 
L 72.333391 40.597547 
L 85.538931 39.062019 
L 95.781944 39.53922 
L 104.151095 40.012959 
L 117.356635 42.321708 
L 127.599648 44.142531 
L 146.211812 49.940849 
L 159.417352 54.419907 
L 171.460723 59.26005 
L 178.029516 62.275559 
L 191.235056 70.044763 
L 209.84722 81.785313 
L 223.05276 91.733331 
L 233.295773 101.273293 
" clip-path="url(#p6cfc5f19fe)" style="fill: none; stroke: #ff0000; stroke-width: 2; stroke-linecap: square"/>
   </g>
   <g id="line2d_122">
    <path d="M 53.721227 21.611698 
L 72.333391 16.181269 
L 85.538931 17.151423 
L 95.781944 20.036758 
L 104.151095 23.340701 
L 117.356635 28.56117 
L 127.599648 31.870445 
L 146.211812 36.395053 
L 159.417352 36.445492 
L 171.460723 37.353322 
L 178.029516 39.037245 
L 191.235056 45.257614 
L 209.84722 55.222962 
L 223.05276 64.908283 
L 233.295773 73.366733 
" clip-path="url(#p6cfc5f19fe)" style="fill: none; stroke-dasharray: 7.4,3.2; stroke-dashoffset: 0; stroke: #ff0000; stroke-width: 2"/>
   </g>
   <g id="line2d_123">
    <path d="M 53.721227 69.92047 
L 72.333391 65.013825 
L 85.538931 60.972615 
L 95.781944 59.041681 
L 104.151095 56.685216 
L 117.356635 56.082246 
L 127.599648 56.414617 
L 146.211812 63.486646 
L 159.417352 72.394323 
L 171.460723 81.166778 
L 178.029516 85.513874 
L 191.235056 94.831912 
L 209.84722 108.347664 
L 223.05276 118.558379 
L 233.295773 129.179854 
" clip-path="url(#p6cfc5f19fe)" style="fill: none; stroke-dasharray: 7.4,3.2; stroke-dashoffset: 0; stroke: #ff0000; stroke-width: 2"/>
   </g>
   <g id="line2d_124">
    <path d="M 53.721227 45.82036 
L 72.333391 40.691224 
L 85.538931 39.201208 
L 95.781944 39.62446 
L 104.151095 39.965328 
L 117.356635 42.486448 
L 127.599648 44.457016 
L 146.211812 49.832852 
L 159.417352 54.490463 
L 171.460723 59.232915 
L 178.029516 62.105321 
L 191.235056 70.067934 
L 209.84722 81.805369 
L 223.05276 91.578308 
L 233.295773 101.13819 
" clip-path="url(#p6cfc5f19fe)" style="fill: none; stroke: #0000ff; stroke-width: 2; stroke-linecap: square"/>
   </g>
   <g id="line2d_125">
    <path d="M 53.721227 21.510681 
L 72.333391 16.269841 
L 85.538931 17.28894 
L 95.781944 20.183007 
L 104.151095 23.265867 
L 117.356635 28.59954 
L 127.599648 32.127918 
L 146.211812 36.26318 
L 159.417352 36.477591 
L 171.460723 37.541047 
L 178.029516 38.883196 
L 191.235056 45.023549 
L 209.84722 55.499008 
L 223.05276 64.712049 
L 233.295773 73.276789 
" clip-path="url(#p6cfc5f19fe)" style="fill: none; stroke-dasharray: 7.4,3.2; stroke-dashoffset: 0; stroke: #0000ff; stroke-width: 2"/>
   </g>
   <g id="line2d_126">
    <path d="M 53.721227 70.130038 
L 72.333391 65.112607 
L 85.538931 61.113476 
L 95.781944 59.065912 
L 104.151095 56.664789 
L 117.356635 56.373357 
L 127.599648 56.786115 
L 146.211812 63.402523 
L 159.417352 72.503335 
L 171.460723 80.924782 
L 178.029516 85.327446 
L 191.235056 95.112319 
L 209.84722 108.111731 
L 223.05276 118.444566 
L 233.295773 128.99959 
" clip-path="url(#p6cfc5f19fe)" style="fill: none; stroke-dasharray: 7.4,3.2; stroke-dashoffset: 0; stroke: #0000ff; stroke-width: 2"/>
   </g>
   <g id="patch_3">
    <path d="M 44.7425 138.0384 
L 44.7425 7.2 
" style="fill: none; stroke: #000000; stroke-width: 0.8; stroke-linejoin: miter; stroke-linecap: square"/>
   </g>
   <g id="patch_4">
    <path d="M 242.2745 138.0384 
L 242.2745 7.2 
" style="fill: none; stroke: #000000; stroke-width: 0.8; stroke-linejoin: miter; stroke-linecap: square"/>
   </g>
   <g id="patch_5">
    <path d="M 44.7425 138.0384 
L 242.2745 138.0384 
" style="fill: none; stroke: #000000; stroke-width: 0.8; stroke-linejoin: miter; stroke-linecap: square"/>
   </g>
   <g id="patch_6">
    <path d="M 44.7425 7.2 
L 242.2745 7.2 
" style="fill: none; stroke: #000000; stroke-width: 0.8; stroke-linejoin: miter; stroke-linecap: square"/>
   </g>
   <g id="legend_1">
    <g id="patch_7">
     <path d="M 247.8745 104.47295 
L 432.5945 104.47295 
Q 434.1945 104.47295 434.1945 102.87295 
L 434.1945 42.36545 
Q 434.1945 40.76545 432.5945 40.76545 
L 247.8745 40.76545 
Q 246.2745 40.76545 246.2745 42.36545 
L 246.2745 102.87295 
Q 246.2745 104.47295 247.8745 104.47295 
z
" style="fill: #ffffff; opacity: 0.8; stroke: #cccccc; stroke-linejoin: miter"/>
    </g>
    <g id="line2d_127">
     <path d="M 249.4745 47.2442 
L 257.4745 47.2442 
L 265.4745 47.2442 
" style="fill: none; stroke: #b2b2b2; stroke-width: 0.8; stroke-linecap: square"/>
    </g>
    <g id="text_7">
     <!-- Individual selected GMs -->
     <g transform="translate(271.8745 50.0442) scale(0.08 -0.08)">
      <defs>
       <path id="DejaVuSans-49" d="M 628 4666 
L 1259 4666 
L 1259 0 
L 628 0 
L 628 4666 
z
" transform="scale(0.015625)"/>
       <path id="DejaVuSans-76" d="M 191 3500 
L 800 3500 
L 1894 563 
L 2988 3500 
L 3597 3500 
L 2284 0 
L 1503 0 
L 191 3500 
z
" transform="scale(0.015625)"/>
       <path id="DejaVuSans-75" d="M 544 1381 
L 544 3500 
L 1119 3500 
L 1119 1403 
Q 1119 906 1312 657 
Q 1506 409 1894 409 
Q 2359 409 2629 706 
Q 2900 1003 2900 1516 
L 2900 3500 
L 3475 3500 
L 3475 0 
L 2900 0 
L 2900 538 
Q 2691 219 2414 64 
Q 2138 -91 1772 -91 
Q 1169 -91 856 284 
Q 544 659 544 1381 
z
M 1991 3584 
L 1991 3584 
z
" transform="scale(0.015625)"/>
       <path id="DejaVuSans-47" d="M 3809 666 
L 3809 1919 
L 2778 1919 
L 2778 2438 
L 4434 2438 
L 4434 434 
Q 4069 175 3628 42 
Q 3188 -91 2688 -91 
Q 1594 -91 976 548 
Q 359 1188 359 2328 
Q 359 3472 976 4111 
Q 1594 4750 2688 4750 
Q 3144 4750 3555 4637 
Q 3966 4525 4313 4306 
L 4313 3634 
Q 3963 3931 3569 4081 
Q 3175 4231 2741 4231 
Q 1884 4231 1454 3753 
Q 1025 3275 1025 2328 
Q 1025 1384 1454 906 
Q 1884 428 2741 428 
Q 3075 428 3337 486 
Q 3600 544 3809 666 
z
" transform="scale(0.015625)"/>
       <path id="DejaVuSans-4d" d="M 628 4666 
L 1569 4666 
L 2759 1491 
L 3956 4666 
L 4897 4666 
L 4897 0 
L 4281 0 
L 4281 4097 
L 3078 897 
L 2444 897 
L 1241 4097 
L 1241 0 
L 628 0 
L 628 4666 
z
" transform="scale(0.015625)"/>
      </defs>
      <use xlink:href="#DejaVuSans-49"/>
      <use xlink:href="#DejaVuSans-6e" x="29.492188"/>
      <use xlink:href="#DejaVuSans-64" x="92.871094"/>
      <use xlink:href="#DejaVuSans-69" x="156.347656"/>
      <use xlink:href="#DejaVuSans-76" x="184.130859"/>
      <use xlink:href="#DejaVuSans-69" x="243.310547"/>
      <use xlink:href="#DejaVuSans-64" x="271.09375"/>
      <use xlink:href="#DejaVuSans-75" x="334.570312"/>
      <use xlink:href="#DejaVuSans-61" x="397.949219"/>
      <use xlink:href="#DejaVuSans-6c" x="459.228516"/>
      <use xlink:href="#DejaVuSans-20" x="487.011719"/>
      <use xlink:href="#DejaVuSans-73" x="518.798828"/>
      <use xlink:href="#DejaVuSans-65" x="570.898438"/>
      <use xlink:href="#DejaVuSans-6c" x="632.421875"/>
      <use xlink:href="#DejaVuSans-65" x="660.205078"/>
      <use xlink:href="#DejaVuSans-63" x="721.728516"/>
      <use xlink:href="#DejaVuSans-74" x="776.708984"/>
      <use xlink:href="#DejaVuSans-65" x="815.917969"/>
      <use xlink:href="#DejaVuSans-64" x="877.441406"/>
      <use xlink:href="#DejaVuSans-20" x="940.917969"/>
      <use xlink:href="#DejaVuSans-47" x="972.705078"/>
      <use xlink:href="#DejaVuSans-4d" x="1050.195312"/>
      <use xlink:href="#DejaVuSans-73" x="1136.474609"/>
     </g>
    </g>
    <g id="line2d_128">
     <path d="M 249.4745 58.9867 
L 257.4745 58.9867 
L 265.4745 58.9867 
" style="fill: none; stroke: #ff0000; stroke-width: 2; stroke-linecap: square"/>
    </g>
    <g id="text_8">
     <!-- GCIM median -->
     <g transform="translate(271.8745 61.7867) scale(0.08 -0.08)">
      <defs>
       <path id="DejaVuSans-43" d="M 4122 4306 
L 4122 3641 
Q 3803 3938 3442 4084 
Q 3081 4231 2675 4231 
Q 1875 4231 1450 3742 
Q 1025 3253 1025 2328 
Q 1025 1406 1450 917 
Q 1875 428 2675 428 
Q 3081 428 3442 575 
Q 3803 722 4122 1019 
L 4122 359 
Q 3791 134 3420 21 
Q 3050 -91 2638 -91 
Q 1578 -91 968 557 
Q 359 1206 359 2328 
Q 359 3453 968 4101 
Q 1578 4750 2638 4750 
Q 3056 4750 3426 4639 
Q 3797 4528 4122 4306 
z
" transform="scale(0.015625)"/>
       <path id="DejaVuSans-6d" d="M 3328 2828 
Q 3544 3216 3844 3400 
Q 4144 3584 4550 3584 
Q 5097 3584 5394 3201 
Q 5691 2819 5691 2113 
L 5691 0 
L 5113 0 
L 5113 2094 
Q 5113 2597 4934 2840 
Q 4756 3084 4391 3084 
Q 3944 3084 3684 2787 
Q 3425 2491 3425 1978 
L 3425 0 
L 2847 0 
L 2847 2094 
Q 2847 2600 2669 2842 
Q 2491 3084 2119 3084 
Q 1678 3084 1418 2786 
Q 1159 2488 1159 1978 
L 1159 0 
L 581 0 
L 581 3500 
L 1159 3500 
L 1159 2956 
Q 1356 3278 1631 3431 
Q 1906 3584 2284 3584 
Q 2666 3584 2933 3390 
Q 3200 3197 3328 2828 
z
" transform="scale(0.015625)"/>
      </defs>
      <use xlink:href="#DejaVuSans-47"/>
      <use xlink:href="#DejaVuSans-43" x="77.490234"/>
      <use xlink:href="#DejaVuSans-49" x="147.314453"/>
      <use xlink:href="#DejaVuSans-4d" x="176.806641"/>
      <use xlink:href="#DejaVuSans-20" x="263.085938"/>
      <use xlink:href="#DejaVuSans-6d" x="294.873047"/>
      <use xlink:href="#DejaVuSans-65" x="392.285156"/>
      <use xlink:href="#DejaVuSans-64" x="453.808594"/>
      <use xlink:href="#DejaVuSans-69" x="517.285156"/>
      <use xlink:href="#DejaVuSans-61" x="545.068359"/>
      <use xlink:href="#DejaVuSans-6e" x="606.347656"/>
     </g>
    </g>
    <g id="line2d_129">
     <path d="M 249.4745 72.01045 
L 257.4745 72.01045 
L 265.4745 72.01045 
" style="fill: none; stroke-dasharray: 7.4,3.2; stroke-dashoffset: 0; stroke: #ff0000; stroke-width: 2"/>
    </g>
    <g id="text_9">
     <!-- GCIM $16^{th}$ and $84^{th}$ percentiles -->
     <g transform="translate(271.8745 74.81045) scale(0.08 -0.08)">
      <defs>
       <path id="DejaVuSans-36" d="M 2113 2584 
Q 1688 2584 1439 2293 
Q 1191 2003 1191 1497 
Q 1191 994 1439 701 
Q 1688 409 2113 409 
Q 2538 409 2786 701 
Q 3034 994 3034 1497 
Q 3034 2003 2786 2293 
Q 2538 2584 2113 2584 
z
M 3366 4563 
L 3366 3988 
Q 3128 4100 2886 4159 
Q 2644 4219 2406 4219 
Q 1781 4219 1451 3797 
Q 1122 3375 1075 2522 
Q 1259 2794 1537 2939 
Q 1816 3084 2150 3084 
Q 2853 3084 3261 2657 
Q 3669 2231 3669 1497 
Q 3669 778 3244 343 
Q 2819 -91 2113 -91 
Q 1303 -91 875 529 
Q 447 1150 447 2328 
Q 447 3434 972 4092 
Q 1497 4750 2381 4750 
Q 2619 4750 2861 4703 
Q 3103 4656 3366 4563 
z
" transform="scale(0.015625)"/>
       <path id="DejaVuSans-Oblique-74" d="M 2706 3500 
L 2619 3053 
L 1472 3053 
L 1100 1153 
Q 1081 1047 1072 975 
Q 1063 903 1063 863 
Q 1063 663 1183 572 
Q 1303 481 1569 481 
L 2150 481 
L 2053 0 
L 1503 0 
Q 991 0 739 200 
Q 488 400 488 806 
Q 488 878 497 964 
Q 506 1050 525 1153 
L 897 3053 
L 409 3053 
L 500 3500 
L 978 3500 
L 1172 4494 
L 1747 4494 
L 1556 3500 
L 2706 3500 
z
" transform="scale(0.015625)"/>
       <path id="DejaVuSans-Oblique-68" d="M 3566 2113 
L 3156 0 
L 2578 0 
L 2988 2091 
Q 3016 2238 3031 2350 
Q 3047 2463 3047 2528 
Q 3047 2791 2881 2937 
Q 2716 3084 2419 3084 
Q 1956 3084 1617 2771 
Q 1278 2459 1178 1941 
L 800 0 
L 225 0 
L 1172 4863 
L 1747 4863 
L 1375 2950 
Q 1594 3244 1934 3414 
Q 2275 3584 2650 3584 
Q 3113 3584 3367 3334 
Q 3622 3084 3622 2631 
Q 3622 2519 3608 2391 
Q 3594 2263 3566 2113 
z
" transform="scale(0.015625)"/>
       <path id="DejaVuSans-38" d="M 2034 2216 
Q 1584 2216 1326 1975 
Q 1069 1734 1069 1313 
Q 1069 891 1326 650 
Q 1584 409 2034 409 
Q 2484 409 2743 651 
Q 3003 894 3003 1313 
Q 3003 1734 2745 1975 
Q 2488 2216 2034 2216 
z
M 1403 2484 
Q 997 2584 770 2862 
Q 544 3141 544 3541 
Q 544 4100 942 4425 
Q 1341 4750 2034 4750 
Q 2731 4750 3128 4425 
Q 3525 4100 3525 3541 
Q 3525 3141 3298 2862 
Q 3072 2584 2669 2484 
Q 3125 2378 3379 2068 
Q 3634 1759 3634 1313 
Q 3634 634 3220 271 
Q 2806 -91 2034 -91 
Q 1263 -91 848 271 
Q 434 634 434 1313 
Q 434 1759 690 2068 
Q 947 2378 1403 2484 
z
M 1172 3481 
Q 1172 3119 1398 2916 
Q 1625 2713 2034 2713 
Q 2441 2713 2670 2916 
Q 2900 3119 2900 3481 
Q 2900 3844 2670 4047 
Q 2441 4250 2034 4250 
Q 1625 4250 1398 4047 
Q 1172 3844 1172 3481 
z
" transform="scale(0.015625)"/>
       <path id="DejaVuSans-34" d="M 2419 4116 
L 825 1625 
L 2419 1625 
L 2419 4116 
z
M 2253 4666 
L 3047 4666 
L 3047 1625 
L 3713 1625 
L 3713 1100 
L 3047 1100 
L 3047 0 
L 2419 0 
L 2419 1100 
L 313 1100 
L 313 1709 
L 2253 4666 
z
" transform="scale(0.015625)"/>
      </defs>
      <use xlink:href="#DejaVuSans-47" transform="translate(0 0.529687)"/>
      <use xlink:href="#DejaVuSans-43" transform="translate(77.490234 0.529687)"/>
      <use xlink:href="#DejaVuSans-49" transform="translate(147.314453 0.529687)"/>
      <use xlink:href="#DejaVuSans-4d" transform="translate(176.806641 0.529687)"/>
      <use xlink:href="#DejaVuSans-20" transform="translate(263.085938 0.529687)"/>
      <use xlink:href="#DejaVuSans-31" transform="translate(294.873047 0.529687)"/>
      <use xlink:href="#DejaVuSans-36" transform="translate(358.496094 0.529687)"/>
      <use xlink:href="#DejaVuSans-Oblique-74" transform="translate(423.076172 38.810937) scale(0.7)"/>
      <use xlink:href="#DejaVuSans-Oblique-68" transform="translate(450.522461 38.810937) scale(0.7)"/>
      <use xlink:href="#DejaVuSans-20" transform="translate(497.62207 0.529687)"/>
      <use xlink:href="#DejaVuSans-61" transform="translate(529.40918 0.529687)"/>
      <use xlink:href="#DejaVuSans-6e" transform="translate(590.688477 0.529687)"/>
      <use xlink:href="#DejaVuSans-64" transform="translate(654.067383 0.529687)"/>
      <use xlink:href="#DejaVuSans-20" transform="translate(717.543945 0.529687)"/>
      <use xlink:href="#DejaVuSans-38" transform="translate(749.331055 0.529687)"/>
      <use xlink:href="#DejaVuSans-34" transform="translate(812.954102 0.529687)"/>
      <use xlink:href="#DejaVuSans-Oblique-74" transform="translate(877.53418 38.810937) scale(0.7)"/>
      <use xlink:href="#DejaVuSans-Oblique-68" transform="translate(904.980469 38.810937) scale(0.7)"/>
      <use xlink:href="#DejaVuSans-20" transform="translate(952.080078 0.529687)"/>
      <use xlink:href="#DejaVuSans-70" transform="translate(983.867188 0.529687)"/>
      <use xlink:href="#DejaVuSans-65" transform="translate(1047.34375 0.529687)"/>
      <use xlink:href="#DejaVuSans-72" transform="translate(1108.867188 0.529687)"/>
      <use xlink:href="#DejaVuSans-63" transform="translate(1149.980469 0.529687)"/>
      <use xlink:href="#DejaVuSans-65" transform="translate(1204.960938 0.529687)"/>
      <use xlink:href="#DejaVuSans-6e" transform="translate(1266.484375 0.529687)"/>
      <use xlink:href="#DejaVuSans-74" transform="translate(1329.863281 0.529687)"/>
      <use xlink:href="#DejaVuSans-69" transform="translate(1369.072266 0.529687)"/>
      <use xlink:href="#DejaVuSans-6c" transform="translate(1396.855469 0.529687)"/>
      <use xlink:href="#DejaVuSans-65" transform="translate(1424.638672 0.529687)"/>
      <use xlink:href="#DejaVuSans-73" transform="translate(1486.162109 0.529687)"/>
     </g>
    </g>
    <g id="line2d_130">
     <path d="M 249.4745 83.7692 
L 257.4745 83.7692 
L 265.4745 83.7692 
" style="fill: none; stroke: #0000ff; stroke-width: 2; stroke-linecap: square"/>
    </g>
    <g id="text_10">
     <!-- Selected GMs median -->
     <g transform="translate(271.8745 86.5692) scale(0.08 -0.08)">
      <use xlink:href="#DejaVuSans-53"/>
      <use xlink:href="#DejaVuSans-65" x="63.476562"/>
      <use xlink:href="#DejaVuSans-6c" x="125"/>
      <use xlink:href="#DejaVuSans-65" x="152.783203"/>
      <use xlink:href="#DejaVuSans-63" x="214.306641"/>
      <use xlink:href="#DejaVuSans-74" x="269.287109"/>
      <use xlink:href="#DejaVuSans-65" x="308.496094"/>
      <use xlink:href="#DejaVuSans-64" x="370.019531"/>
      <use xlink:href="#DejaVuSans-20" x="433.496094"/>
      <use xlink:href="#DejaVuSans-47" x="465.283203"/>
      <use xlink:href="#DejaVuSans-4d" x="542.773438"/>
      <use xlink:href="#DejaVuSans-73" x="629.052734"/>
      <use xlink:href="#DejaVuSans-20" x="681.152344"/>
      <use xlink:href="#DejaVuSans-6d" x="712.939453"/>
      <use xlink:href="#DejaVuSans-65" x="810.351562"/>
      <use xlink:href="#DejaVuSans-64" x="871.875"/>
      <use xlink:href="#DejaVuSans-69" x="935.351562"/>
      <use xlink:href="#DejaVuSans-61" x="963.134766"/>
      <use xlink:href="#DejaVuSans-6e" x="1024.414062"/>
     </g>
    </g>
    <g id="line2d_131">
     <path d="M 249.4745 96.79295 
L 257.4745 96.79295 
L 265.4745 96.79295 
" style="fill: none; stroke-dasharray: 7.4,3.2; stroke-dashoffset: 0; stroke: #0000ff; stroke-width: 2"/>
    </g>
    <g id="text_11">
     <!-- Selected GMs, $16^{th}$ and $84^{th}$ percentiles -->
     <g transform="translate(271.8745 99.59295) scale(0.08 -0.08)">
      <use xlink:href="#DejaVuSans-53" transform="translate(0 0.529687)"/>
      <use xlink:href="#DejaVuSans-65" transform="translate(63.476562 0.529687)"/>
      <use xlink:href="#DejaVuSans-6c" transform="translate(125 0.529687)"/>
      <use xlink:href="#DejaVuSans-65" transform="translate(152.783203 0.529687)"/>
      <use xlink:href="#DejaVuSans-63" transform="translate(214.306641 0.529687)"/>
      <use xlink:href="#DejaVuSans-74" transform="translate(269.287109 0.529687)"/>
      <use xlink:href="#DejaVuSans-65" transform="translate(308.496094 0.529687)"/>
      <use xlink:href="#DejaVuSans-64" transform="translate(370.019531 0.529687)"/>
      <use xlink:href="#DejaVuSans-20" transform="translate(433.496094 0.529687)"/>
      <use xlink:href="#DejaVuSans-47" transform="translate(465.283203 0.529687)"/>
      <use xlink:href="#DejaVuSans-4d" transform="translate(542.773438 0.529687)"/>
      <use xlink:href="#DejaVuSans-73" transform="translate(629.052734 0.529687)"/>
      <use xlink:href="#DejaVuSans-2c" transform="translate(681.152344 0.529687)"/>
      <use xlink:href="#DejaVuSans-20" transform="translate(712.939453 0.529687)"/>
      <use xlink:href="#DejaVuSans-31" transform="translate(744.726562 0.529687)"/>
      <use xlink:href="#DejaVuSans-36" transform="translate(808.349609 0.529687)"/>
      <use xlink:href="#DejaVuSans-Oblique-74" transform="translate(872.929688 38.810937) scale(0.7)"/>
      <use xlink:href="#DejaVuSans-Oblique-68" transform="translate(900.375977 38.810937) scale(0.7)"/>
      <use xlink:href="#DejaVuSans-20" transform="translate(947.475586 0.529687)"/>
      <use xlink:href="#DejaVuSans-61" transform="translate(979.262695 0.529687)"/>
      <use xlink:href="#DejaVuSans-6e" transform="translate(1040.541992 0.529687)"/>
      <use xlink:href="#DejaVuSans-64" transform="translate(1103.920898 0.529687)"/>
      <use xlink:href="#DejaVuSans-20" transform="translate(1167.397461 0.529687)"/>
      <use xlink:href="#DejaVuSans-38" transform="translate(1199.18457 0.529687)"/>
      <use xlink:href="#DejaVuSans-34" transform="translate(1262.807617 0.529687)"/>
      <use xlink:href="#DejaVuSans-Oblique-74" transform="translate(1327.387695 38.810937) scale(0.7)"/>
      <use xlink:href="#DejaVuSans-Oblique-68" transform="translate(1354.833984 38.810937) scale(0.7)"/>
      <use xlink:href="#DejaVuSans-20" transform="translate(1401.933594 0.529687)"/>
      <use xlink:href="#DejaVuSans-70" transform="translate(1433.720703 0.529687)"/>
      <use xlink:href="#DejaVuSans-65" transform="translate(1497.197266 0.529687)"/>
      <use xlink:href="#DejaVuSans-72" transform="translate(1558.720703 0.529687)"/>
      <use xlink:href="#DejaVuSans-63" transform="translate(1599.833984 0.529687)"/>
      <use xlink:href="#DejaVuSans-65" transform="translate(1654.814453 0.529687)"/>
      <use xlink:href="#DejaVuSans-6e" transform="translate(1716.337891 0.529687)"/>
      <use xlink:href="#DejaVuSans-74" transform="translate(1779.716797 0.529687)"/>
      <use xlink:href="#DejaVuSans-69" transform="translate(1818.925781 0.529687)"/>
      <use xlink:href="#DejaVuSans-6c" transform="translate(1846.708984 0.529687)"/>
      <use xlink:href="#DejaVuSans-65" transform="translate(1874.492188 0.529687)"/>
      <use xlink:href="#DejaVuSans-73" transform="translate(1936.015625 0.529687)"/>
     </g>
    </g>
   </g>
  </g>
 </g>
 <defs>
  <clipPath id="p6cfc5f19fe">
   <rect x="44.7425" y="7.2" width="197.532" height="130.8384"/>
  </clipPath>
 </defs>
</svg>
