<?xml version="1.0" encoding="utf-8" standalone="no"?>
<!DOCTYPE svg PUBLIC "-//W3C//DTD SVG 1.1//EN"
  "http://www.w3.org/Graphics/SVG/1.1/DTD/svg11.dtd">
<svg xmlns:xlink="http://www.w3.org/1999/xlink" width="436.6745pt" height="171.7234pt" viewBox="0 0 436.6745 171.7234" xmlns="http://www.w3.org/2000/svg" version="1.1">
 <metadata>
  <rdf:RDF xmlns:dc="http://purl.org/dc/elements/1.1/" xmlns:cc="http://creativecommons.org/ns#" xmlns:rdf="http://www.w3.org/1999/02/22-rdf-syntax-ns#">
   <cc:Work>
    <dc:type rdf:resource="http://purl.org/dc/dcmitype/StillImage"/>
    <dc:date>2024-11-14T19:20:35.731393</dc:date>
    <dc:format>image/svg+xml</dc:format>
    <dc:creator>
     <cc:Agent>
      <dc:title>Matplotlib v3.8.2, https://matplotlib.org/</dc:title>
     </cc:Agent>
    </dc:creator>
   </cc:Work>
  </rdf:RDF>
 </metadata>
 <defs>
  <style type="text/css">*{stroke-linejoin: round; stroke-linecap: butt}</style>
 </defs>
 <g id="figure_1">
  <g id="patch_1">
   <path d="M 0 171.7234 
L 436.6745 171.7234 
L 436.6745 0 
L 0 0 
z
" style="fill: #ffffff"/>
  </g>
  <g id="axes_1">
   <g id="patch_2">
    <path d="M 40.0225 138.0384 
L 237.5545 138.0384 
L 237.5545 7.2 
L 40.0225 7.2 
z
" style="fill: #ffffff"/>
   </g>
   <g id="matplotlib.axis_1">
    <g id="xtick_1">
     <g id="line2d_1">
      <path d="M 49.001227 138.0384 
L 49.001227 7.2 
" clip-path="url(#p95d84ed4e0)" style="fill: none; stroke: #d9d9d9; stroke-width: 0.8; stroke-linecap: square"/>
     </g>
     <g id="line2d_2">
      <defs>
       <path id="mc8e9828471" d="M 0 0 
L 0 3.5 
" style="stroke: #000000; stroke-width: 0.8"/>
      </defs>
      <g>
       <use xlink:href="#mc8e9828471" x="49.001227" y="138.0384" style="stroke: #000000; stroke-width: 0.8"/>
      </g>
     </g>
     <g id="text_1">
      <!-- $\mathdefault{10^{-1}}$ -->
      <g transform="translate(39.601227 151.11715) scale(0.08 -0.08)">
       <defs>
        <path id="DejaVuSans-31" d="M 794 531 
L 1825 531 
L 1825 4091 
L 703 3866 
L 703 4441 
L 1819 4666 
L 2450 4666 
L 2450 531 
L 3481 531 
L 3481 0 
L 794 0 
L 794 531 
z
" transform="scale(0.015625)"/>
        <path id="DejaVuSans-30" d="M 2034 4250 
Q 1547 4250 1301 3770 
Q 1056 3291 1056 2328 
Q 1056 1369 1301 889 
Q 1547 409 2034 409 
Q 2525 409 2770 889 
Q 3016 1369 3016 2328 
Q 3016 3291 2770 3770 
Q 2525 4250 2034 4250 
z
M 2034 4750 
Q 2819 4750 3233 4129 
Q 3647 3509 3647 2328 
Q 3647 1150 3233 529 
Q 2819 -91 2034 -91 
Q 1250 -91 836 529 
Q 422 1150 422 2328 
Q 422 3509 836 4129 
Q 1250 4750 2034 4750 
z
" transform="scale(0.015625)"/>
        <path id="DejaVuSans-2212" d="M 678 2272 
L 4684 2272 
L 4684 1741 
L 678 1741 
L 678 2272 
z
" transform="scale(0.015625)"/>
       </defs>
       <use xlink:href="#DejaVuSans-31" transform="translate(0 0.684375)"/>
       <use xlink:href="#DejaVuSans-30" transform="translate(63.623047 0.684375)"/>
       <use xlink:href="#DejaVuSans-2212" transform="translate(128.203125 38.965625) scale(0.7)"/>
       <use xlink:href="#DejaVuSans-31" transform="translate(186.855469 38.965625) scale(0.7)"/>
      </g>
     </g>
    </g>
    <g id="xtick_2">
     <g id="line2d_3">
      <path d="M 161.091003 138.0384 
L 161.091003 7.2 
" clip-path="url(#p95d84ed4e0)" style="fill: none; stroke: #d9d9d9; stroke-width: 0.8; stroke-linecap: square"/>
     </g>
     <g id="line2d_4">
      <g>
       <use xlink:href="#mc8e9828471" x="161.091003" y="138.0384" style="stroke: #000000; stroke-width: 0.8"/>
      </g>
     </g>
     <g id="text_2">
      <!-- $\mathdefault{10^{0}}$ -->
      <g transform="translate(154.051003 151.11715) scale(0.08 -0.08)">
       <use xlink:href="#DejaVuSans-31" transform="translate(0 0.765625)"/>
       <use xlink:href="#DejaVuSans-30" transform="translate(63.623047 0.765625)"/>
       <use xlink:href="#DejaVuSans-30" transform="translate(128.203125 39.046875) scale(0.7)"/>
      </g>
     </g>
    </g>
    <g id="xtick_3">
     <g id="line2d_5">
      <path d="M 43.87228 138.0384 
L 43.87228 7.2 
" clip-path="url(#p95d84ed4e0)" style="fill: none; stroke-dasharray: 2.96,1.28; stroke-dashoffset: 0; stroke: #f2f2f2; stroke-width: 0.8"/>
     </g>
     <g id="line2d_6">
      <defs>
       <path id="mb7228ed2ae" d="M 0 0 
L 0 2 
" style="stroke: #000000; stroke-width: 0.6"/>
      </defs>
      <g>
       <use xlink:href="#mb7228ed2ae" x="43.87228" y="138.0384" style="stroke: #000000; stroke-width: 0.6"/>
      </g>
     </g>
    </g>
    <g id="xtick_4">
     <g id="line2d_7">
      <path d="M 82.743612 138.0384 
L 82.743612 7.2 
" clip-path="url(#p95d84ed4e0)" style="fill: none; stroke-dasharray: 2.96,1.28; stroke-dashoffset: 0; stroke: #f2f2f2; stroke-width: 0.8"/>
     </g>
     <g id="line2d_8">
      <g>
       <use xlink:href="#mb7228ed2ae" x="82.743612" y="138.0384" style="stroke: #000000; stroke-width: 0.6"/>
      </g>
     </g>
    </g>
    <g id="xtick_5">
     <g id="line2d_9">
      <path d="M 102.481642 138.0384 
L 102.481642 7.2 
" clip-path="url(#p95d84ed4e0)" style="fill: none; stroke-dasharray: 2.96,1.28; stroke-dashoffset: 0; stroke: #f2f2f2; stroke-width: 0.8"/>
     </g>
     <g id="line2d_10">
      <g>
       <use xlink:href="#mb7228ed2ae" x="102.481642" y="138.0384" style="stroke: #000000; stroke-width: 0.6"/>
      </g>
     </g>
    </g>
    <g id="xtick_6">
     <g id="line2d_11">
      <path d="M 116.485997 138.0384 
L 116.485997 7.2 
" clip-path="url(#p95d84ed4e0)" style="fill: none; stroke-dasharray: 2.96,1.28; stroke-dashoffset: 0; stroke: #f2f2f2; stroke-width: 0.8"/>
     </g>
     <g id="line2d_12">
      <g>
       <use xlink:href="#mb7228ed2ae" x="116.485997" y="138.0384" style="stroke: #000000; stroke-width: 0.6"/>
      </g>
     </g>
    </g>
    <g id="xtick_7">
     <g id="line2d_13">
      <path d="M 127.348618 138.0384 
L 127.348618 7.2 
" clip-path="url(#p95d84ed4e0)" style="fill: none; stroke-dasharray: 2.96,1.28; stroke-dashoffset: 0; stroke: #f2f2f2; stroke-width: 0.8"/>
     </g>
     <g id="line2d_14">
      <g>
       <use xlink:href="#mb7228ed2ae" x="127.348618" y="138.0384" style="stroke: #000000; stroke-width: 0.6"/>
      </g>
     </g>
    </g>
    <g id="xtick_8">
     <g id="line2d_15">
      <path d="M 136.224027 138.0384 
L 136.224027 7.2 
" clip-path="url(#p95d84ed4e0)" style="fill: none; stroke-dasharray: 2.96,1.28; stroke-dashoffset: 0; stroke: #f2f2f2; stroke-width: 0.8"/>
     </g>
     <g id="line2d_16">
      <g>
       <use xlink:href="#mb7228ed2ae" x="136.224027" y="138.0384" style="stroke: #000000; stroke-width: 0.6"/>
      </g>
     </g>
    </g>
    <g id="xtick_9">
     <g id="line2d_17">
      <path d="M 143.728077 138.0384 
L 143.728077 7.2 
" clip-path="url(#p95d84ed4e0)" style="fill: none; stroke-dasharray: 2.96,1.28; stroke-dashoffset: 0; stroke: #f2f2f2; stroke-width: 0.8"/>
     </g>
     <g id="line2d_18">
      <g>
       <use xlink:href="#mb7228ed2ae" x="143.728077" y="138.0384" style="stroke: #000000; stroke-width: 0.6"/>
      </g>
     </g>
    </g>
    <g id="xtick_10">
     <g id="line2d_19">
      <path d="M 150.228382 138.0384 
L 150.228382 7.2 
" clip-path="url(#p95d84ed4e0)" style="fill: none; stroke-dasharray: 2.96,1.28; stroke-dashoffset: 0; stroke: #f2f2f2; stroke-width: 0.8"/>
     </g>
     <g id="line2d_20">
      <g>
       <use xlink:href="#mb7228ed2ae" x="150.228382" y="138.0384" style="stroke: #000000; stroke-width: 0.6"/>
      </g>
     </g>
    </g>
    <g id="xtick_11">
     <g id="line2d_21">
      <path d="M 155.962056 138.0384 
L 155.962056 7.2 
" clip-path="url(#p95d84ed4e0)" style="fill: none; stroke-dasharray: 2.96,1.28; stroke-dashoffset: 0; stroke: #f2f2f2; stroke-width: 0.8"/>
     </g>
     <g id="line2d_22">
      <g>
       <use xlink:href="#mb7228ed2ae" x="155.962056" y="138.0384" style="stroke: #000000; stroke-width: 0.6"/>
      </g>
     </g>
    </g>
    <g id="xtick_12">
     <g id="line2d_23">
      <path d="M 194.833388 138.0384 
L 194.833388 7.2 
" clip-path="url(#p95d84ed4e0)" style="fill: none; stroke-dasharray: 2.96,1.28; stroke-dashoffset: 0; stroke: #f2f2f2; stroke-width: 0.8"/>
     </g>
     <g id="line2d_24">
      <g>
       <use xlink:href="#mb7228ed2ae" x="194.833388" y="138.0384" style="stroke: #000000; stroke-width: 0.6"/>
      </g>
     </g>
    </g>
    <g id="xtick_13">
     <g id="line2d_25">
      <path d="M 214.571418 138.0384 
L 214.571418 7.2 
" clip-path="url(#p95d84ed4e0)" style="fill: none; stroke-dasharray: 2.96,1.28; stroke-dashoffset: 0; stroke: #f2f2f2; stroke-width: 0.8"/>
     </g>
     <g id="line2d_26">
      <g>
       <use xlink:href="#mb7228ed2ae" x="214.571418" y="138.0384" style="stroke: #000000; stroke-width: 0.6"/>
      </g>
     </g>
    </g>
    <g id="xtick_14">
     <g id="line2d_27">
      <path d="M 228.575773 138.0384 
L 228.575773 7.2 
" clip-path="url(#p95d84ed4e0)" style="fill: none; stroke-dasharray: 2.96,1.28; stroke-dashoffset: 0; stroke: #f2f2f2; stroke-width: 0.8"/>
     </g>
     <g id="line2d_28">
      <g>
       <use xlink:href="#mb7228ed2ae" x="228.575773" y="138.0384" style="stroke: #000000; stroke-width: 0.6"/>
      </g>
     </g>
    </g>
    <g id="text_3">
     <!-- Period, T (s) -->
     <g transform="translate(114.856 162.85965) scale(0.08 -0.08)">
      <defs>
       <path id="DejaVuSans-50" d="M 1259 4147 
L 1259 2394 
L 2053 2394 
Q 2494 2394 2734 2622 
Q 2975 2850 2975 3272 
Q 2975 3691 2734 3919 
Q 2494 4147 2053 4147 
L 1259 4147 
z
M 628 4666 
L 2053 4666 
Q 2838 4666 3239 4311 
Q 3641 3956 3641 3272 
Q 3641 2581 3239 2228 
Q 2838 1875 2053 1875 
L 1259 1875 
L 1259 0 
L 628 0 
L 628 4666 
z
" transform="scale(0.015625)"/>
       <path id="DejaVuSans-65" d="M 3597 1894 
L 3597 1613 
L 953 1613 
Q 991 1019 1311 708 
Q 1631 397 2203 397 
Q 2534 397 2845 478 
Q 3156 559 3463 722 
L 3463 178 
Q 3153 47 2828 -22 
Q 2503 -91 2169 -91 
Q 1331 -91 842 396 
Q 353 884 353 1716 
Q 353 2575 817 3079 
Q 1281 3584 2069 3584 
Q 2775 3584 3186 3129 
Q 3597 2675 3597 1894 
z
M 3022 2063 
Q 3016 2534 2758 2815 
Q 2500 3097 2075 3097 
Q 1594 3097 1305 2825 
Q 1016 2553 972 2059 
L 3022 2063 
z
" transform="scale(0.015625)"/>
       <path id="DejaVuSans-72" d="M 2631 2963 
Q 2534 3019 2420 3045 
Q 2306 3072 2169 3072 
Q 1681 3072 1420 2755 
Q 1159 2438 1159 1844 
L 1159 0 
L 581 0 
L 581 3500 
L 1159 3500 
L 1159 2956 
Q 1341 3275 1631 3429 
Q 1922 3584 2338 3584 
Q 2397 3584 2469 3576 
Q 2541 3569 2628 3553 
L 2631 2963 
z
" transform="scale(0.015625)"/>
       <path id="DejaVuSans-69" d="M 603 3500 
L 1178 3500 
L 1178 0 
L 603 0 
L 603 3500 
z
M 603 4863 
L 1178 4863 
L 1178 4134 
L 603 4134 
L 603 4863 
z
" transform="scale(0.015625)"/>
       <path id="DejaVuSans-6f" d="M 1959 3097 
Q 1497 3097 1228 2736 
Q 959 2375 959 1747 
Q 959 1119 1226 758 
Q 1494 397 1959 397 
Q 2419 397 2687 759 
Q 2956 1122 2956 1747 
Q 2956 2369 2687 2733 
Q 2419 3097 1959 3097 
z
M 1959 3584 
Q 2709 3584 3137 3096 
Q 3566 2609 3566 1747 
Q 3566 888 3137 398 
Q 2709 -91 1959 -91 
Q 1206 -91 779 398 
Q 353 888 353 1747 
Q 353 2609 779 3096 
Q 1206 3584 1959 3584 
z
" transform="scale(0.015625)"/>
       <path id="DejaVuSans-64" d="M 2906 2969 
L 2906 4863 
L 3481 4863 
L 3481 0 
L 2906 0 
L 2906 525 
Q 2725 213 2448 61 
Q 2172 -91 1784 -91 
Q 1150 -91 751 415 
Q 353 922 353 1747 
Q 353 2572 751 3078 
Q 1150 3584 1784 3584 
Q 2172 3584 2448 3432 
Q 2725 3281 2906 2969 
z
M 947 1747 
Q 947 1113 1208 752 
Q 1469 391 1925 391 
Q 2381 391 2643 752 
Q 2906 1113 2906 1747 
Q 2906 2381 2643 2742 
Q 2381 3103 1925 3103 
Q 1469 3103 1208 2742 
Q 947 2381 947 1747 
z
" transform="scale(0.015625)"/>
       <path id="DejaVuSans-2c" d="M 750 794 
L 1409 794 
L 1409 256 
L 897 -744 
L 494 -744 
L 750 256 
L 750 794 
z
" transform="scale(0.015625)"/>
       <path id="DejaVuSans-20" transform="scale(0.015625)"/>
       <path id="DejaVuSans-54" d="M -19 4666 
L 3928 4666 
L 3928 4134 
L 2272 4134 
L 2272 0 
L 1638 0 
L 1638 4134 
L -19 4134 
L -19 4666 
z
" transform="scale(0.015625)"/>
       <path id="DejaVuSans-28" d="M 1984 4856 
Q 1566 4138 1362 3434 
Q 1159 2731 1159 2009 
Q 1159 1288 1364 580 
Q 1569 -128 1984 -844 
L 1484 -844 
Q 1016 -109 783 600 
Q 550 1309 550 2009 
Q 550 2706 781 3412 
Q 1013 4119 1484 4856 
L 1984 4856 
z
" transform="scale(0.015625)"/>
       <path id="DejaVuSans-73" d="M 2834 3397 
L 2834 2853 
Q 2591 2978 2328 3040 
Q 2066 3103 1784 3103 
Q 1356 3103 1142 2972 
Q 928 2841 928 2578 
Q 928 2378 1081 2264 
Q 1234 2150 1697 2047 
L 1894 2003 
Q 2506 1872 2764 1633 
Q 3022 1394 3022 966 
Q 3022 478 2636 193 
Q 2250 -91 1575 -91 
Q 1294 -91 989 -36 
Q 684 19 347 128 
L 347 722 
Q 666 556 975 473 
Q 1284 391 1588 391 
Q 1994 391 2212 530 
Q 2431 669 2431 922 
Q 2431 1156 2273 1281 
Q 2116 1406 1581 1522 
L 1381 1569 
Q 847 1681 609 1914 
Q 372 2147 372 2553 
Q 372 3047 722 3315 
Q 1072 3584 1716 3584 
Q 2034 3584 2315 3537 
Q 2597 3491 2834 3397 
z
" transform="scale(0.015625)"/>
       <path id="DejaVuSans-29" d="M 513 4856 
L 1013 4856 
Q 1481 4119 1714 3412 
Q 1947 2706 1947 2009 
Q 1947 1309 1714 600 
Q 1481 -109 1013 -844 
L 513 -844 
Q 928 -128 1133 580 
Q 1338 1288 1338 2009 
Q 1338 2731 1133 3434 
Q 928 4138 513 4856 
z
" transform="scale(0.015625)"/>
      </defs>
      <use xlink:href="#DejaVuSans-50"/>
      <use xlink:href="#DejaVuSans-65" x="56.677734"/>
      <use xlink:href="#DejaVuSans-72" x="118.201172"/>
      <use xlink:href="#DejaVuSans-69" x="159.314453"/>
      <use xlink:href="#DejaVuSans-6f" x="187.097656"/>
      <use xlink:href="#DejaVuSans-64" x="248.279297"/>
      <use xlink:href="#DejaVuSans-2c" x="311.755859"/>
      <use xlink:href="#DejaVuSans-20" x="343.542969"/>
      <use xlink:href="#DejaVuSans-54" x="375.330078"/>
      <use xlink:href="#DejaVuSans-20" x="436.414062"/>
      <use xlink:href="#DejaVuSans-28" x="468.201172"/>
      <use xlink:href="#DejaVuSans-73" x="507.214844"/>
      <use xlink:href="#DejaVuSans-29" x="559.314453"/>
     </g>
    </g>
   </g>
   <g id="matplotlib.axis_2">
    <g id="ytick_1">
     <g id="line2d_29">
      <path d="M 40.0225 102.651647 
L 237.5545 102.651647 
" clip-path="url(#p95d84ed4e0)" style="fill: none; stroke: #d9d9d9; stroke-width: 0.8; stroke-linecap: square"/>
     </g>
     <g id="line2d_30">
      <defs>
       <path id="m0bcd654d21" d="M 0 0 
L -3.5 0 
" style="stroke: #000000; stroke-width: 0.8"/>
      </defs>
      <g>
       <use xlink:href="#m0bcd654d21" x="40.0225" y="102.651647" style="stroke: #000000; stroke-width: 0.8"/>
      </g>
     </g>
     <g id="text_4">
      <!-- $\mathdefault{10^{1}}$ -->
      <g transform="translate(18.9425 105.691022) scale(0.08 -0.08)">
       <use xlink:href="#DejaVuSans-31" transform="translate(0 0.684375)"/>
       <use xlink:href="#DejaVuSans-30" transform="translate(63.623047 0.684375)"/>
       <use xlink:href="#DejaVuSans-31" transform="translate(128.203125 38.965625) scale(0.7)"/>
      </g>
     </g>
    </g>
    <g id="ytick_2">
     <g id="line2d_31">
      <path d="M 40.0225 132.664416 
L 237.5545 132.664416 
" clip-path="url(#p95d84ed4e0)" style="fill: none; stroke-dasharray: 2.96,1.28; stroke-dashoffset: 0; stroke: #f2f2f2; stroke-width: 0.8"/>
     </g>
     <g id="line2d_32">
      <defs>
       <path id="m5301ac32a7" d="M 0 0 
L -2 0 
" style="stroke: #000000; stroke-width: 0.6"/>
      </defs>
      <g>
       <use xlink:href="#m5301ac32a7" x="40.0225" y="132.664416" style="stroke: #000000; stroke-width: 0.6"/>
      </g>
     </g>
    </g>
    <g id="ytick_3">
     <g id="line2d_33">
      <path d="M 40.0225 124.770025 
L 237.5545 124.770025 
" clip-path="url(#p95d84ed4e0)" style="fill: none; stroke-dasharray: 2.96,1.28; stroke-dashoffset: 0; stroke: #f2f2f2; stroke-width: 0.8"/>
     </g>
     <g id="line2d_34">
      <g>
       <use xlink:href="#m5301ac32a7" x="40.0225" y="124.770025" style="stroke: #000000; stroke-width: 0.6"/>
      </g>
     </g>
    </g>
    <g id="ytick_4">
     <g id="line2d_35">
      <path d="M 40.0225 118.095413 
L 237.5545 118.095413 
" clip-path="url(#p95d84ed4e0)" style="fill: none; stroke-dasharray: 2.96,1.28; stroke-dashoffset: 0; stroke: #f2f2f2; stroke-width: 0.8"/>
     </g>
     <g id="line2d_36">
      <g>
       <use xlink:href="#m5301ac32a7" x="40.0225" y="118.095413" style="stroke: #000000; stroke-width: 0.6"/>
      </g>
     </g>
    </g>
    <g id="ytick_5">
     <g id="line2d_37">
      <path d="M 40.0225 112.313601 
L 237.5545 112.313601 
" clip-path="url(#p95d84ed4e0)" style="fill: none; stroke-dasharray: 2.96,1.28; stroke-dashoffset: 0; stroke: #f2f2f2; stroke-width: 0.8"/>
     </g>
     <g id="line2d_38">
      <g>
       <use xlink:href="#m5301ac32a7" x="40.0225" y="112.313601" style="stroke: #000000; stroke-width: 0.6"/>
      </g>
     </g>
    </g>
    <g id="ytick_6">
     <g id="line2d_39">
      <path d="M 40.0225 107.213681 
L 237.5545 107.213681 
" clip-path="url(#p95d84ed4e0)" style="fill: none; stroke-dasharray: 2.96,1.28; stroke-dashoffset: 0; stroke: #f2f2f2; stroke-width: 0.8"/>
     </g>
     <g id="line2d_40">
      <g>
       <use xlink:href="#m5301ac32a7" x="40.0225" y="107.213681" style="stroke: #000000; stroke-width: 0.6"/>
      </g>
     </g>
    </g>
    <g id="ytick_7">
     <g id="line2d_41">
      <path d="M 40.0225 72.638879 
L 237.5545 72.638879 
" clip-path="url(#p95d84ed4e0)" style="fill: none; stroke-dasharray: 2.96,1.28; stroke-dashoffset: 0; stroke: #f2f2f2; stroke-width: 0.8"/>
     </g>
     <g id="line2d_42">
      <g>
       <use xlink:href="#m5301ac32a7" x="40.0225" y="72.638879" style="stroke: #000000; stroke-width: 0.6"/>
      </g>
     </g>
    </g>
    <g id="ytick_8">
     <g id="line2d_43">
      <path d="M 40.0225 55.082534 
L 237.5545 55.082534 
" clip-path="url(#p95d84ed4e0)" style="fill: none; stroke-dasharray: 2.96,1.28; stroke-dashoffset: 0; stroke: #f2f2f2; stroke-width: 0.8"/>
     </g>
     <g id="line2d_44">
      <g>
       <use xlink:href="#m5301ac32a7" x="40.0225" y="55.082534" style="stroke: #000000; stroke-width: 0.6"/>
      </g>
     </g>
    </g>
    <g id="ytick_9">
     <g id="line2d_45">
      <path d="M 40.0225 42.62611 
L 237.5545 42.62611 
" clip-path="url(#p95d84ed4e0)" style="fill: none; stroke-dasharray: 2.96,1.28; stroke-dashoffset: 0; stroke: #f2f2f2; stroke-width: 0.8"/>
     </g>
     <g id="line2d_46">
      <g>
       <use xlink:href="#m5301ac32a7" x="40.0225" y="42.62611" style="stroke: #000000; stroke-width: 0.6"/>
      </g>
     </g>
    </g>
    <g id="ytick_10">
     <g id="line2d_47">
      <path d="M 40.0225 32.964157 
L 237.5545 32.964157 
" clip-path="url(#p95d84ed4e0)" style="fill: none; stroke-dasharray: 2.96,1.28; stroke-dashoffset: 0; stroke: #f2f2f2; stroke-width: 0.8"/>
     </g>
     <g id="line2d_48">
      <g>
       <use xlink:href="#m5301ac32a7" x="40.0225" y="32.964157" style="stroke: #000000; stroke-width: 0.6"/>
      </g>
     </g>
    </g>
    <g id="ytick_11">
     <g id="line2d_49">
      <path d="M 40.0225 25.069766 
L 237.5545 25.069766 
" clip-path="url(#p95d84ed4e0)" style="fill: none; stroke-dasharray: 2.96,1.28; stroke-dashoffset: 0; stroke: #f2f2f2; stroke-width: 0.8"/>
     </g>
     <g id="line2d_50">
      <g>
       <use xlink:href="#m5301ac32a7" x="40.0225" y="25.069766" style="stroke: #000000; stroke-width: 0.6"/>
      </g>
     </g>
    </g>
    <g id="ytick_12">
     <g id="line2d_51">
      <path d="M 40.0225 18.395153 
L 237.5545 18.395153 
" clip-path="url(#p95d84ed4e0)" style="fill: none; stroke-dasharray: 2.96,1.28; stroke-dashoffset: 0; stroke: #f2f2f2; stroke-width: 0.8"/>
     </g>
     <g id="line2d_52">
      <g>
       <use xlink:href="#m5301ac32a7" x="40.0225" y="18.395153" style="stroke: #000000; stroke-width: 0.6"/>
      </g>
     </g>
    </g>
    <g id="ytick_13">
     <g id="line2d_53">
      <path d="M 40.0225 12.613341 
L 237.5545 12.613341 
" clip-path="url(#p95d84ed4e0)" style="fill: none; stroke-dasharray: 2.96,1.28; stroke-dashoffset: 0; stroke: #f2f2f2; stroke-width: 0.8"/>
     </g>
     <g id="line2d_54">
      <g>
       <use xlink:href="#m5301ac32a7" x="40.0225" y="12.613341" style="stroke: #000000; stroke-width: 0.6"/>
      </g>
     </g>
    </g>
    <g id="ytick_14">
     <g id="line2d_55">
      <path d="M 40.0225 7.513422 
L 237.5545 7.513422 
" clip-path="url(#p95d84ed4e0)" style="fill: none; stroke-dasharray: 2.96,1.28; stroke-dashoffset: 0; stroke: #f2f2f2; stroke-width: 0.8"/>
     </g>
     <g id="line2d_56">
      <g>
       <use xlink:href="#m5301ac32a7" x="40.0225" y="7.513422" style="stroke: #000000; stroke-width: 0.6"/>
      </g>
     </g>
    </g>
    <g id="text_5">
     <!-- Spectral acceleration, SA (g) -->
     <g transform="translate(13.27875 129.871075) rotate(-90) scale(0.08 -0.08)">
      <defs>
       <path id="DejaVuSans-53" d="M 3425 4513 
L 3425 3897 
Q 3066 4069 2747 4153 
Q 2428 4238 2131 4238 
Q 1616 4238 1336 4038 
Q 1056 3838 1056 3469 
Q 1056 3159 1242 3001 
Q 1428 2844 1947 2747 
L 2328 2669 
Q 3034 2534 3370 2195 
Q 3706 1856 3706 1288 
Q 3706 609 3251 259 
Q 2797 -91 1919 -91 
Q 1588 -91 1214 -16 
Q 841 59 441 206 
L 441 856 
Q 825 641 1194 531 
Q 1563 422 1919 422 
Q 2459 422 2753 634 
Q 3047 847 3047 1241 
Q 3047 1584 2836 1778 
Q 2625 1972 2144 2069 
L 1759 2144 
Q 1053 2284 737 2584 
Q 422 2884 422 3419 
Q 422 4038 858 4394 
Q 1294 4750 2059 4750 
Q 2388 4750 2728 4690 
Q 3069 4631 3425 4513 
z
" transform="scale(0.015625)"/>
       <path id="DejaVuSans-70" d="M 1159 525 
L 1159 -1331 
L 581 -1331 
L 581 3500 
L 1159 3500 
L 1159 2969 
Q 1341 3281 1617 3432 
Q 1894 3584 2278 3584 
Q 2916 3584 3314 3078 
Q 3713 2572 3713 1747 
Q 3713 922 3314 415 
Q 2916 -91 2278 -91 
Q 1894 -91 1617 61 
Q 1341 213 1159 525 
z
M 3116 1747 
Q 3116 2381 2855 2742 
Q 2594 3103 2138 3103 
Q 1681 3103 1420 2742 
Q 1159 2381 1159 1747 
Q 1159 1113 1420 752 
Q 1681 391 2138 391 
Q 2594 391 2855 752 
Q 3116 1113 3116 1747 
z
" transform="scale(0.015625)"/>
       <path id="DejaVuSans-63" d="M 3122 3366 
L 3122 2828 
Q 2878 2963 2633 3030 
Q 2388 3097 2138 3097 
Q 1578 3097 1268 2742 
Q 959 2388 959 1747 
Q 959 1106 1268 751 
Q 1578 397 2138 397 
Q 2388 397 2633 464 
Q 2878 531 3122 666 
L 3122 134 
Q 2881 22 2623 -34 
Q 2366 -91 2075 -91 
Q 1284 -91 818 406 
Q 353 903 353 1747 
Q 353 2603 823 3093 
Q 1294 3584 2113 3584 
Q 2378 3584 2631 3529 
Q 2884 3475 3122 3366 
z
" transform="scale(0.015625)"/>
       <path id="DejaVuSans-74" d="M 1172 4494 
L 1172 3500 
L 2356 3500 
L 2356 3053 
L 1172 3053 
L 1172 1153 
Q 1172 725 1289 603 
Q 1406 481 1766 481 
L 2356 481 
L 2356 0 
L 1766 0 
Q 1100 0 847 248 
Q 594 497 594 1153 
L 594 3053 
L 172 3053 
L 172 3500 
L 594 3500 
L 594 4494 
L 1172 4494 
z
" transform="scale(0.015625)"/>
       <path id="DejaVuSans-61" d="M 2194 1759 
Q 1497 1759 1228 1600 
Q 959 1441 959 1056 
Q 959 750 1161 570 
Q 1363 391 1709 391 
Q 2188 391 2477 730 
Q 2766 1069 2766 1631 
L 2766 1759 
L 2194 1759 
z
M 3341 1997 
L 3341 0 
L 2766 0 
L 2766 531 
Q 2569 213 2275 61 
Q 1981 -91 1556 -91 
Q 1019 -91 701 211 
Q 384 513 384 1019 
Q 384 1609 779 1909 
Q 1175 2209 1959 2209 
L 2766 2209 
L 2766 2266 
Q 2766 2663 2505 2880 
Q 2244 3097 1772 3097 
Q 1472 3097 1187 3025 
Q 903 2953 641 2809 
L 641 3341 
Q 956 3463 1253 3523 
Q 1550 3584 1831 3584 
Q 2591 3584 2966 3190 
Q 3341 2797 3341 1997 
z
" transform="scale(0.015625)"/>
       <path id="DejaVuSans-6c" d="M 603 4863 
L 1178 4863 
L 1178 0 
L 603 0 
L 603 4863 
z
" transform="scale(0.015625)"/>
       <path id="DejaVuSans-6e" d="M 3513 2113 
L 3513 0 
L 2938 0 
L 2938 2094 
Q 2938 2591 2744 2837 
Q 2550 3084 2163 3084 
Q 1697 3084 1428 2787 
Q 1159 2491 1159 1978 
L 1159 0 
L 581 0 
L 581 3500 
L 1159 3500 
L 1159 2956 
Q 1366 3272 1645 3428 
Q 1925 3584 2291 3584 
Q 2894 3584 3203 3211 
Q 3513 2838 3513 2113 
z
" transform="scale(0.015625)"/>
       <path id="DejaVuSans-41" d="M 2188 4044 
L 1331 1722 
L 3047 1722 
L 2188 4044 
z
M 1831 4666 
L 2547 4666 
L 4325 0 
L 3669 0 
L 3244 1197 
L 1141 1197 
L 716 0 
L 50 0 
L 1831 4666 
z
" transform="scale(0.015625)"/>
       <path id="DejaVuSans-67" d="M 2906 1791 
Q 2906 2416 2648 2759 
Q 2391 3103 1925 3103 
Q 1463 3103 1205 2759 
Q 947 2416 947 1791 
Q 947 1169 1205 825 
Q 1463 481 1925 481 
Q 2391 481 2648 825 
Q 2906 1169 2906 1791 
z
M 3481 434 
Q 3481 -459 3084 -895 
Q 2688 -1331 1869 -1331 
Q 1566 -1331 1297 -1286 
Q 1028 -1241 775 -1147 
L 775 -588 
Q 1028 -725 1275 -790 
Q 1522 -856 1778 -856 
Q 2344 -856 2625 -561 
Q 2906 -266 2906 331 
L 2906 616 
Q 2728 306 2450 153 
Q 2172 0 1784 0 
Q 1141 0 747 490 
Q 353 981 353 1791 
Q 353 2603 747 3093 
Q 1141 3584 1784 3584 
Q 2172 3584 2450 3431 
Q 2728 3278 2906 2969 
L 2906 3500 
L 3481 3500 
L 3481 434 
z
" transform="scale(0.015625)"/>
      </defs>
      <use xlink:href="#DejaVuSans-53"/>
      <use xlink:href="#DejaVuSans-70" x="63.476562"/>
      <use xlink:href="#DejaVuSans-65" x="126.953125"/>
      <use xlink:href="#DejaVuSans-63" x="188.476562"/>
      <use xlink:href="#DejaVuSans-74" x="243.457031"/>
      <use xlink:href="#DejaVuSans-72" x="282.666016"/>
      <use xlink:href="#DejaVuSans-61" x="323.779297"/>
      <use xlink:href="#DejaVuSans-6c" x="385.058594"/>
      <use xlink:href="#DejaVuSans-20" x="412.841797"/>
      <use xlink:href="#DejaVuSans-61" x="444.628906"/>
      <use xlink:href="#DejaVuSans-63" x="505.908203"/>
      <use xlink:href="#DejaVuSans-63" x="560.888672"/>
      <use xlink:href="#DejaVuSans-65" x="615.869141"/>
      <use xlink:href="#DejaVuSans-6c" x="677.392578"/>
      <use xlink:href="#DejaVuSans-65" x="705.175781"/>
      <use xlink:href="#DejaVuSans-72" x="766.699219"/>
      <use xlink:href="#DejaVuSans-61" x="807.8125"/>
      <use xlink:href="#DejaVuSans-74" x="869.091797"/>
      <use xlink:href="#DejaVuSans-69" x="908.300781"/>
      <use xlink:href="#DejaVuSans-6f" x="936.083984"/>
      <use xlink:href="#DejaVuSans-6e" x="997.265625"/>
      <use xlink:href="#DejaVuSans-2c" x="1060.644531"/>
      <use xlink:href="#DejaVuSans-20" x="1092.431641"/>
      <use xlink:href="#DejaVuSans-53" x="1124.21875"/>
      <use xlink:href="#DejaVuSans-41" x="1189.570312"/>
      <use xlink:href="#DejaVuSans-20" x="1257.978516"/>
      <use xlink:href="#DejaVuSans-28" x="1289.765625"/>
      <use xlink:href="#DejaVuSans-67" x="1328.779297"/>
      <use xlink:href="#DejaVuSans-29" x="1392.255859"/>
     </g>
    </g>
   </g>
   <g id="line2d_57">
    <path d="M 49.001227 109.68554 
L 68.739257 88.850247 
L 82.743612 78.855125 
L 93.606234 69.562575 
L 102.481642 63.271868 
L 116.485997 57.628514 
L 127.348618 55.121338 
L 132.516494 55.619879 
L 147.086648 59.180366 
L 161.091003 56.549496 
L 173.862888 65.357752 
L 180.829033 61.888887 
L 194.833388 55.189094 
L 214.571418 47.304968 
L 228.575773 51.97798 
" clip-path="url(#p95d84ed4e0)" style="fill: none; stroke: #b2b2b2; stroke-width: 0.8; stroke-linecap: square"/>
   </g>
   <g id="line2d_58">
    <path d="M 49.001227 112.129205 
L 68.739257 95.151313 
L 82.743612 88.452908 
L 93.606234 80.946149 
L 102.481642 74.041991 
L 116.485997 67.90393 
L 127.348618 57.433469 
L 132.516494 55.619879 
L 147.086648 42.080449 
L 161.091003 32.646443 
L 173.862888 23.513477 
L 180.829033 19.525239 
L 194.833388 20.764264 
L 214.571418 19.198601 
L 228.575773 19.670923 
" clip-path="url(#p95d84ed4e0)" style="fill: none; stroke: #b2b2b2; stroke-width: 0.8; stroke-linecap: square"/>
   </g>
   <g id="line2d_59">
    <path d="M 49.001227 122.969941 
L 68.739257 102.92173 
L 82.743612 92.542067 
L 93.606234 81.980474 
L 102.481642 74.689865 
L 116.485997 64.447917 
L 127.348618 55.621715 
L 132.516494 55.619879 
L 147.086648 41.121185 
L 161.091003 31.318972 
L 173.862888 32.41077 
L 180.829033 30.175926 
L 194.833388 28.897737 
L 214.571418 28.101792 
L 228.575773 25.356791 
" clip-path="url(#p95d84ed4e0)" style="fill: none; stroke: #b2b2b2; stroke-width: 0.8; stroke-linecap: square"/>
   </g>
   <g id="line2d_60">
    <path d="M 49.001227 110.182887 
L 68.739257 96.165652 
L 82.743612 91.700615 
L 93.606234 88.810651 
L 102.481642 76.083578 
L 116.485997 66.259423 
L 127.348618 66.107358 
L 132.516494 55.619879 
L 147.086648 55.291996 
L 161.091003 46.144206 
L 173.862888 34.72897 
L 180.829033 35.078383 
L 194.833388 30.632878 
L 214.571418 26.889443 
L 228.575773 24.95512 
" clip-path="url(#p95d84ed4e0)" style="fill: none; stroke: #b2b2b2; stroke-width: 0.8; stroke-linecap: square"/>
   </g>
   <g id="line2d_61">
    <path d="M 49.001227 125.96508 
L 68.739257 105.375188 
L 82.743612 94.663959 
L 93.606234 87.386122 
L 102.481642 79.853782 
L 116.485997 68.957875 
L 127.348618 59.569514 
L 132.516494 55.619879 
L 147.086648 45.593319 
L 161.091003 36.73685 
L 173.862888 31.424983 
L 180.829033 30.185264 
L 194.833388 31.741959 
L 214.571418 35.827333 
L 228.575773 41.122278 
" clip-path="url(#p95d84ed4e0)" style="fill: none; stroke: #b2b2b2; stroke-width: 0.8; stroke-linecap: square"/>
   </g>
   <g id="line2d_62">
    <path d="M 49.001227 116.952303 
L 68.739257 99.520643 
L 82.743612 89.074751 
L 93.606234 80.57132 
L 102.481642 74.183852 
L 116.485997 64.806109 
L 127.348618 58.29803 
L 132.516494 55.619879 
L 147.086648 47.4302 
L 161.091003 43.152372 
L 173.862888 44.580432 
L 180.829033 47.761762 
L 194.833388 47.05497 
L 214.571418 36.719268 
L 228.575773 46.42413 
" clip-path="url(#p95d84ed4e0)" style="fill: none; stroke: #b2b2b2; stroke-width: 0.8; stroke-linecap: square"/>
   </g>
   <g id="line2d_63">
    <path d="M 49.001227 124.681393 
L 68.739257 105.691906 
L 82.743612 97.359231 
L 93.606234 85.857357 
L 102.481642 77.391661 
L 116.485997 68.108262 
L 127.348618 56.140061 
L 132.516494 55.619879 
L 147.086648 45.874001 
L 161.091003 37.786734 
L 173.862888 32.742665 
L 180.829033 24.99815 
L 194.833388 27.024329 
L 214.571418 30.201509 
L 228.575773 38.430002 
" clip-path="url(#p95d84ed4e0)" style="fill: none; stroke: #b2b2b2; stroke-width: 0.8; stroke-linecap: square"/>
   </g>
   <g id="line2d_64">
    <path d="M 49.001227 104.391847 
L 68.739257 87.638066 
L 82.743612 78.030397 
L 93.606234 70.714425 
L 102.481642 65.927005 
L 116.485997 61.091395 
L 127.348618 57.757875 
L 132.516494 55.619879 
L 147.086648 47.048658 
L 161.091003 38.287325 
L 173.862888 35.114077 
L 180.829033 30.035329 
L 194.833388 28.503743 
L 214.571418 25.830672 
L 228.575773 25.779184 
" clip-path="url(#p95d84ed4e0)" style="fill: none; stroke: #b2b2b2; stroke-width: 0.8; stroke-linecap: square"/>
   </g>
   <g id="line2d_65">
    <path d="M 49.001227 111.896979 
L 68.739257 94.508618 
L 82.743612 84.060566 
L 93.606234 75.472697 
L 102.481642 69.118523 
L 116.485997 61.242173 
L 127.348618 57.097923 
L 132.516494 55.619879 
L 147.086648 45.929547 
L 161.091003 41.752164 
L 173.862888 42.033989 
L 180.829033 43.406621 
L 194.833388 45.386729 
L 214.571418 43.045893 
L 228.575773 36.231827 
" clip-path="url(#p95d84ed4e0)" style="fill: none; stroke: #b2b2b2; stroke-width: 0.8; stroke-linecap: square"/>
   </g>
   <g id="line2d_66">
    <path d="M 49.001227 123.798904 
L 68.739257 105.88495 
L 82.743612 94.80058 
L 93.606234 85.351063 
L 102.481642 77.983177 
L 116.485997 67.691769 
L 127.348618 59.576579 
L 132.516494 55.619879 
L 147.086648 46.23234 
L 161.091003 41.000111 
L 173.862888 39.47835 
L 180.829033 40.092348 
L 194.833388 37.05146 
L 214.571418 26.988823 
L 228.575773 30.359643 
" clip-path="url(#p95d84ed4e0)" style="fill: none; stroke: #b2b2b2; stroke-width: 0.8; stroke-linecap: square"/>
   </g>
   <g id="line2d_67">
    <path d="M 49.001227 112.805998 
L 68.739257 93.39186 
L 82.743612 83.985104 
L 93.606234 75.054298 
L 102.481642 69.057798 
L 116.485997 63.164473 
L 127.348618 58.605808 
L 132.516494 55.619879 
L 147.086648 46.04884 
L 161.091003 40.070423 
L 173.862888 38.964891 
L 180.829033 38.140508 
L 194.833388 33.319147 
L 214.571418 29.301074 
L 228.575773 25.957254 
" clip-path="url(#p95d84ed4e0)" style="fill: none; stroke: #b2b2b2; stroke-width: 0.8; stroke-linecap: square"/>
   </g>
   <g id="line2d_68">
    <path d="M 49.001227 110.605764 
L 68.739257 93.954992 
L 82.743612 83.748482 
L 93.606234 75.52659 
L 102.481642 69.555937 
L 116.485997 62.22719 
L 127.348618 57.713388 
L 132.516494 55.619879 
L 147.086648 46.721566 
L 161.091003 42.353834 
L 173.862888 37.589043 
L 180.829033 37.008825 
L 194.833388 32.306692 
L 214.571418 36.003318 
L 228.575773 36.434805 
" clip-path="url(#p95d84ed4e0)" style="fill: none; stroke: #b2b2b2; stroke-width: 0.8; stroke-linecap: square"/>
   </g>
   <g id="line2d_69">
    <path d="M 49.001227 119.836425 
L 68.739257 100.907884 
L 82.743612 91.799572 
L 93.606234 83.394404 
L 102.481642 76.634837 
L 116.485997 66.727834 
L 127.348618 59.187827 
L 132.516494 55.619879 
L 147.086648 49.176959 
L 161.091003 46.938579 
L 173.862888 47.050352 
L 180.829033 49.113663 
L 194.833388 49.95991 
L 214.571418 47.244761 
L 228.575773 50.513207 
" clip-path="url(#p95d84ed4e0)" style="fill: none; stroke: #b2b2b2; stroke-width: 0.8; stroke-linecap: square"/>
   </g>
   <g id="line2d_70">
    <path d="M 49.001227 109.355716 
L 68.739257 90.468089 
L 82.743612 81.337117 
L 93.606234 72.84089 
L 102.481642 67.712491 
L 116.485997 61.354371 
L 127.348618 56.908746 
L 132.516494 55.619879 
L 147.086648 56.197235 
L 161.091003 61.145045 
L 173.862888 52.596598 
L 180.829033 48.199533 
L 194.833388 45.354277 
L 214.571418 46.527829 
L 228.575773 46.373487 
" clip-path="url(#p95d84ed4e0)" style="fill: none; stroke: #b2b2b2; stroke-width: 0.8; stroke-linecap: square"/>
   </g>
   <g id="line2d_71">
    <path d="M 49.001227 112.871852 
L 68.739257 92.420637 
L 82.743612 85.636823 
L 93.606234 75.792157 
L 102.481642 69.480541 
L 116.485997 63.783207 
L 127.348618 58.664062 
L 132.516494 55.619879 
L 147.086648 47.648121 
L 161.091003 41.278693 
L 173.862888 37.250372 
L 180.829033 33.303939 
L 194.833388 31.991393 
L 214.571418 22.501745 
L 228.575773 26.50711 
" clip-path="url(#p95d84ed4e0)" style="fill: none; stroke: #b2b2b2; stroke-width: 0.8; stroke-linecap: square"/>
   </g>
   <g id="line2d_72">
    <path d="M 49.001227 102.95732 
L 68.739257 85.439638 
L 82.743612 77.773141 
L 93.606234 71.770223 
L 102.481642 67.02566 
L 116.485997 61.001288 
L 127.348618 57.304874 
L 132.516494 55.619879 
L 147.086648 50.2587 
L 161.091003 49.739216 
L 173.862888 44.75287 
L 180.829033 40.821534 
L 194.833388 32.328525 
L 214.571418 39.105861 
L 228.575773 43.706599 
" clip-path="url(#p95d84ed4e0)" style="fill: none; stroke: #b2b2b2; stroke-width: 0.8; stroke-linecap: square"/>
   </g>
   <g id="line2d_73">
    <path d="M 49.001227 115.695224 
L 68.739257 96.09386 
L 82.743612 86.506502 
L 93.606234 77.293443 
L 102.481642 71.152273 
L 116.485997 63.060732 
L 127.348618 57.477353 
L 132.516494 55.619879 
L 147.086648 53.329059 
L 161.091003 52.691264 
L 173.862888 50.234596 
L 180.829033 49.599044 
L 194.833388 44.472988 
L 214.571418 40.51344 
L 228.575773 40.495301 
" clip-path="url(#p95d84ed4e0)" style="fill: none; stroke: #b2b2b2; stroke-width: 0.8; stroke-linecap: square"/>
   </g>
   <g id="line2d_74">
    <path d="M 49.001227 127.58001 
L 68.739257 105.826478 
L 82.743612 94.829834 
L 93.606234 83.797039 
L 102.481642 75.285122 
L 116.485997 65.361237 
L 127.348618 55.254108 
L 132.516494 55.619879 
L 147.086648 45.074672 
L 161.091003 35.18103 
L 173.862888 29.225099 
L 180.829033 27.977999 
L 194.833388 33.262323 
L 214.571418 31.945467 
L 228.575773 34.22491 
" clip-path="url(#p95d84ed4e0)" style="fill: none; stroke: #b2b2b2; stroke-width: 0.8; stroke-linecap: square"/>
   </g>
   <g id="line2d_75">
    <path d="M 49.001227 116.919247 
L 68.739257 99.175656 
L 82.743612 87.37038 
L 93.606234 79.320905 
L 102.481642 72.08205 
L 116.485997 61.752105 
L 127.348618 55.003667 
L 132.516494 55.619879 
L 147.086648 49.191256 
L 161.091003 49.100778 
L 173.862888 44.152358 
L 180.829033 40.924458 
L 194.833388 29.506009 
L 214.571418 30.319264 
L 228.575773 39.002084 
" clip-path="url(#p95d84ed4e0)" style="fill: none; stroke: #b2b2b2; stroke-width: 0.8; stroke-linecap: square"/>
   </g>
   <g id="line2d_76">
    <path d="M 49.001227 113.375947 
L 68.739257 96.541762 
L 82.743612 86.728845 
L 93.606234 78.896358 
L 102.481642 73.095043 
L 116.485997 64.387165 
L 127.348618 57.945384 
L 132.516494 55.619879 
L 147.086648 53.089402 
L 161.091003 44.356506 
L 173.862888 46.290398 
L 180.829033 42.259699 
L 194.833388 34.257274 
L 214.571418 23.617758 
L 228.575773 20.812179 
" clip-path="url(#p95d84ed4e0)" style="fill: none; stroke: #b2b2b2; stroke-width: 0.8; stroke-linecap: square"/>
   </g>
   <g id="line2d_77">
    <path d="M 49.001227 127.228484 
L 68.739257 106.790421 
L 82.743612 96.2438 
L 93.606234 85.56293 
L 102.481642 78.235613 
L 116.485997 67.809453 
L 127.348618 59.209039 
L 132.516494 55.619879 
L 147.086648 45.418908 
L 161.091003 36.240076 
L 173.862888 32.008544 
L 180.829033 31.252224 
L 194.833388 27.392213 
L 214.571418 17.765403 
L 228.575773 21.374388 
" clip-path="url(#p95d84ed4e0)" style="fill: none; stroke: #b2b2b2; stroke-width: 0.8; stroke-linecap: square"/>
   </g>
   <g id="line2d_78">
    <path d="M 49.001227 115.198175 
L 68.739257 94.421432 
L 82.743612 84.373683 
L 93.606234 74.932128 
L 102.481642 68.283359 
L 116.485997 61.806802 
L 127.348618 57.006682 
L 132.516494 55.619879 
L 147.086648 51.841045 
L 161.091003 44.460639 
L 173.862888 41.2408 
L 180.829033 38.06434 
L 194.833388 36.828715 
L 214.571418 37.068851 
L 228.575773 35.155724 
" clip-path="url(#p95d84ed4e0)" style="fill: none; stroke: #b2b2b2; stroke-width: 0.8; stroke-linecap: square"/>
   </g>
   <g id="line2d_79">
    <path d="M 49.001227 116.084102 
L 68.739257 95.382433 
L 82.743612 88.590451 
L 93.606234 78.613553 
L 102.481642 72.155542 
L 116.485997 65.326719 
L 127.348618 58.039397 
L 132.516494 55.619879 
L 147.086648 51.760196 
L 161.091003 35.525237 
L 173.862888 33.576606 
L 180.829033 33.752963 
L 194.833388 35.189596 
L 214.571418 38.550615 
L 228.575773 42.412056 
" clip-path="url(#p95d84ed4e0)" style="fill: none; stroke: #b2b2b2; stroke-width: 0.8; stroke-linecap: square"/>
   </g>
   <g id="line2d_80">
    <path d="M 49.001227 125.96596 
L 68.739257 106.266836 
L 82.743612 96.314473 
L 93.606234 85.915008 
L 102.481642 78.645095 
L 116.485997 68.28652 
L 127.348618 59.428978 
L 132.516494 55.619879 
L 147.086648 42.420901 
L 161.091003 33.136648 
L 173.862888 34.939688 
L 180.829033 31.875837 
L 194.833388 23.728875 
L 214.571418 19.158566 
L 228.575773 20.99789 
" clip-path="url(#p95d84ed4e0)" style="fill: none; stroke: #b2b2b2; stroke-width: 0.8; stroke-linecap: square"/>
   </g>
   <g id="line2d_81">
    <path d="M 49.001227 111.921848 
L 68.739257 90.973804 
L 82.743612 80.871571 
L 93.606234 71.398682 
L 102.481642 65.017863 
L 116.485997 59.542605 
L 127.348618 56.222677 
L 132.516494 55.619879 
L 147.086648 48.903336 
L 161.091003 37.761875 
L 173.862888 35.909804 
L 180.829033 27.750896 
L 194.833388 26.868681 
L 214.571418 25.821874 
L 228.575773 29.967609 
" clip-path="url(#p95d84ed4e0)" style="fill: none; stroke: #b2b2b2; stroke-width: 0.8; stroke-linecap: square"/>
   </g>
   <g id="line2d_82">
    <path d="M 49.001227 116.221842 
L 68.739257 96.465766 
L 82.743612 86.458711 
L 93.606234 82.958424 
L 102.481642 76.193476 
L 116.485997 66.233843 
L 127.348618 58.469386 
L 132.516494 55.619879 
L 147.086648 49.958271 
L 161.091003 45.49238 
L 173.862888 45.004456 
L 180.829033 45.615125 
L 194.833388 41.716183 
L 214.571418 37.293782 
L 228.575773 37.376825 
" clip-path="url(#p95d84ed4e0)" style="fill: none; stroke: #b2b2b2; stroke-width: 0.8; stroke-linecap: square"/>
   </g>
   <g id="line2d_83">
    <path d="M 49.001227 124.207178 
L 68.739257 106.39186 
L 82.743612 95.444127 
L 93.606234 86.045358 
L 102.481642 78.690927 
L 116.485997 68.25228 
L 127.348618 59.658379 
L 132.516494 55.619879 
L 147.086648 45.001269 
L 161.091003 36.697786 
L 173.862888 29.48889 
L 180.829033 26.206962 
L 194.833388 22.152952 
L 214.571418 23.339831 
L 228.575773 23.319855 
" clip-path="url(#p95d84ed4e0)" style="fill: none; stroke: #b2b2b2; stroke-width: 0.8; stroke-linecap: square"/>
   </g>
   <g id="line2d_84">
    <path d="M 49.001227 121.912905 
L 68.739257 100.659916 
L 82.743612 90.57843 
L 93.606234 81.804637 
L 102.481642 74.171028 
L 116.485997 65.796106 
L 127.348618 58.224183 
L 132.516494 55.619879 
L 147.086648 47.050065 
L 161.091003 38.184572 
L 173.862888 35.051308 
L 180.829033 34.754208 
L 194.833388 43.855883 
L 214.571418 42.126845 
L 228.575773 41.151142 
" clip-path="url(#p95d84ed4e0)" style="fill: none; stroke: #b2b2b2; stroke-width: 0.8; stroke-linecap: square"/>
   </g>
   <g id="line2d_85">
    <path d="M 49.001227 122.018612 
L 68.739257 100.535908 
L 82.743612 89.822115 
L 93.606234 79.330906 
L 102.481642 71.542711 
L 116.485997 63.322086 
L 127.348618 57.038117 
L 132.516494 55.619879 
L 147.086648 54.074448 
L 161.091003 44.04019 
L 173.862888 35.510092 
L 180.829033 31.644628 
L 194.833388 22.307127 
L 214.571418 20.295091 
L 228.575773 21.732515 
" clip-path="url(#p95d84ed4e0)" style="fill: none; stroke: #b2b2b2; stroke-width: 0.8; stroke-linecap: square"/>
   </g>
   <g id="line2d_86">
    <path d="M 49.001227 122.637293 
L 68.739257 102.678204 
L 82.743612 92.455101 
L 93.606234 84.847344 
L 102.481642 77.896032 
L 116.485997 67.692698 
L 127.348618 59.047185 
L 132.516494 55.619879 
L 147.086648 45.424811 
L 161.091003 45.659813 
L 173.862888 39.956336 
L 180.829033 39.157899 
L 194.833388 38.301373 
L 214.571418 38.895584 
L 228.575773 35.489831 
" clip-path="url(#p95d84ed4e0)" style="fill: none; stroke: #b2b2b2; stroke-width: 0.8; stroke-linecap: square"/>
   </g>
   <g id="line2d_87">
    <path d="M 49.001227 122.355321 
L 68.739257 101.182411 
L 82.743612 93.818198 
L 93.606234 82.723165 
L 102.481642 74.655794 
L 116.485997 66.067394 
L 127.348618 58.600547 
L 132.516494 55.619879 
L 147.086648 49.732084 
L 161.091003 45.519626 
L 173.862888 40.993947 
L 180.829033 39.135949 
L 194.833388 37.498787 
L 214.571418 36.128354 
L 228.575773 45.661306 
" clip-path="url(#p95d84ed4e0)" style="fill: none; stroke: #b2b2b2; stroke-width: 0.8; stroke-linecap: square"/>
   </g>
   <g id="line2d_88">
    <path d="M 49.001227 127.073675 
L 68.739257 106.633745 
L 82.743612 96.099315 
L 93.606234 85.454118 
L 102.481642 78.157892 
L 116.485997 67.678703 
L 127.348618 59.043279 
L 132.516494 55.619879 
L 147.086648 47.965811 
L 161.091003 43.468419 
L 173.862888 43.84705 
L 180.829033 47.642856 
L 194.833388 54.042066 
L 214.571418 58.319598 
L 228.575773 59.553208 
" clip-path="url(#p95d84ed4e0)" style="fill: none; stroke: #b2b2b2; stroke-width: 0.8; stroke-linecap: square"/>
   </g>
   <g id="line2d_89">
    <path d="M 49.001227 118.985244 
L 68.739257 102.743455 
L 82.743612 95.208293 
L 93.606234 87.239171 
L 102.481642 77.025406 
L 116.485997 67.111989 
L 127.348618 59.561048 
L 132.516494 55.619879 
L 147.086648 47.447574 
L 161.091003 39.153863 
L 173.862888 35.988733 
L 180.829033 32.156679 
L 194.833388 29.885079 
L 214.571418 32.930908 
L 228.575773 31.818136 
" clip-path="url(#p95d84ed4e0)" style="fill: none; stroke: #b2b2b2; stroke-width: 0.8; stroke-linecap: square"/>
   </g>
   <g id="line2d_90">
    <path d="M 49.001227 121.48687 
L 68.739257 101.978875 
L 82.743612 91.689807 
L 93.606234 84.175482 
L 102.481642 72.928994 
L 116.485997 67.863949 
L 127.348618 58.787067 
L 132.516494 55.619879 
L 147.086648 48.921941 
L 161.091003 39.404518 
L 173.862888 33.511862 
L 180.829033 32.176203 
L 194.833388 25.999546 
L 214.571418 22.576288 
L 228.575773 19.327985 
" clip-path="url(#p95d84ed4e0)" style="fill: none; stroke: #b2b2b2; stroke-width: 0.8; stroke-linecap: square"/>
   </g>
   <g id="line2d_91">
    <path d="M 49.001227 120.352003 
L 68.739257 100.293159 
L 82.743612 90.147817 
L 93.606234 80.144379 
L 102.481642 73.540629 
L 116.485997 64.713029 
L 127.348618 58.098581 
L 132.516494 55.619879 
L 147.086648 46.521637 
L 161.091003 37.905885 
L 173.862888 34.203644 
L 180.829033 34.328934 
L 194.833388 41.192787 
L 214.571418 40.035492 
L 228.575773 35.240011 
" clip-path="url(#p95d84ed4e0)" style="fill: none; stroke: #b2b2b2; stroke-width: 0.8; stroke-linecap: square"/>
   </g>
   <g id="line2d_92">
    <path d="M 49.001227 112.881052 
L 68.739257 93.592163 
L 82.743612 85.086945 
L 93.606234 77.10898 
L 102.481642 72.382998 
L 116.485997 67.478132 
L 127.348618 59.165118 
L 132.516494 55.619879 
L 147.086648 45.675822 
L 161.091003 35.575695 
L 173.862888 26.90757 
L 180.829033 22.396575 
L 194.833388 17.802408 
L 214.571418 18.461466 
L 228.575773 28.462706 
" clip-path="url(#p95d84ed4e0)" style="fill: none; stroke: #b2b2b2; stroke-width: 0.8; stroke-linecap: square"/>
   </g>
   <g id="line2d_93">
    <path d="M 49.001227 124.802253 
L 68.739257 104.355505 
L 82.743612 93.803638 
L 93.606234 83.119156 
L 102.481642 75.817235 
L 116.485997 65.536461 
L 127.348618 57.14355 
L 132.516494 55.619879 
L 147.086648 48.197194 
L 161.091003 43.545014 
L 173.862888 40.960386 
L 180.829033 39.879086 
L 194.833388 37.905299 
L 214.571418 42.377137 
L 228.575773 44.170767 
" clip-path="url(#p95d84ed4e0)" style="fill: none; stroke: #b2b2b2; stroke-width: 0.8; stroke-linecap: square"/>
   </g>
   <g id="line2d_94">
    <path d="M 49.001227 123.667144 
L 68.739257 105.137497 
L 82.743612 95.84588 
L 93.606234 86.13066 
L 102.481642 78.716048 
L 116.485997 70.414721 
L 127.348618 57.572701 
L 132.516494 55.619879 
L 147.086648 44.484552 
L 161.091003 41.358276 
L 173.862888 32.972073 
L 180.829033 29.988898 
L 194.833388 27.182601 
L 214.571418 30.929872 
L 228.575773 39.788548 
" clip-path="url(#p95d84ed4e0)" style="fill: none; stroke: #b2b2b2; stroke-width: 0.8; stroke-linecap: square"/>
   </g>
   <g id="line2d_95">
    <path d="M 49.001227 122.956551 
L 68.739257 102.740741 
L 82.743612 92.445222 
L 93.606234 82.213746 
L 102.481642 75.392987 
L 116.485997 66.112308 
L 127.348618 58.567608 
L 132.516494 55.619879 
L 147.086648 47.977262 
L 161.091003 44.975609 
L 173.862888 42.677493 
L 180.829033 40.549984 
L 194.833388 45.704849 
L 214.571418 41.426483 
L 228.575773 38.852881 
" clip-path="url(#p95d84ed4e0)" style="fill: none; stroke: #b2b2b2; stroke-width: 0.8; stroke-linecap: square"/>
   </g>
   <g id="line2d_96">
    <path d="M 49.001227 118.969794 
L 68.739257 99.298282 
L 82.743612 89.509908 
L 93.606234 80.054944 
L 102.481642 73.996036 
L 116.485997 66.234345 
L 127.348618 59.158585 
L 132.516494 55.619879 
L 147.086648 45.638513 
L 161.091003 37.786496 
L 173.862888 33.857234 
L 180.829033 31.401793 
L 194.833388 23.135901 
L 214.571418 15.125725 
L 228.575773 13.1472 
" clip-path="url(#p95d84ed4e0)" style="fill: none; stroke: #b2b2b2; stroke-width: 0.8; stroke-linecap: square"/>
   </g>
   <g id="line2d_97">
    <path d="M 49.001227 126.789219 
L 68.739257 105.194911 
L 82.743612 94.369496 
L 93.606234 83.635934 
L 102.481642 75.523162 
L 116.485997 66.50192 
L 127.348618 58.246017 
L 132.516494 55.619879 
L 147.086648 48.563494 
L 161.091003 43.251909 
L 173.862888 40.050133 
L 180.829033 39.620261 
L 194.833388 43.92915 
L 214.571418 43.063147 
L 228.575773 41.183346 
" clip-path="url(#p95d84ed4e0)" style="fill: none; stroke: #b2b2b2; stroke-width: 0.8; stroke-linecap: square"/>
   </g>
   <g id="line2d_98">
    <path d="M 49.001227 128.260207 
L 68.739257 107.75968 
L 82.743612 97.139449 
L 93.606234 86.32982 
L 102.481642 78.884263 
L 116.485997 68.233975 
L 127.348618 59.288368 
L 132.516494 55.619879 
L 147.086648 46.349429 
L 161.091003 38.829862 
L 173.862888 35.129674 
L 180.829033 34.060427 
L 194.833388 31.552601 
L 214.571418 27.190414 
L 228.575773 20.593567 
" clip-path="url(#p95d84ed4e0)" style="fill: none; stroke: #b2b2b2; stroke-width: 0.8; stroke-linecap: square"/>
   </g>
   <g id="line2d_99">
    <path d="M 49.001227 116.355078 
L 68.739257 95.987753 
L 82.743612 85.463876 
L 93.606234 83.669405 
L 102.481642 77.16476 
L 116.485997 67.118637 
L 127.348618 58.847131 
L 132.516494 55.619879 
L 147.086648 48.605799 
L 161.091003 45.656693 
L 173.862888 44.370852 
L 180.829033 40.644506 
L 194.833388 39.773475 
L 214.571418 38.884243 
L 228.575773 36.043393 
" clip-path="url(#p95d84ed4e0)" style="fill: none; stroke: #b2b2b2; stroke-width: 0.8; stroke-linecap: square"/>
   </g>
   <g id="line2d_100">
    <path d="M 49.001227 130.04373 
L 68.739257 109.356779 
L 82.743612 98.412627 
L 93.606234 87.465019 
L 102.481642 79.087749 
L 116.485997 69.32455 
L 127.348618 59.282377 
L 132.516494 55.619879 
L 147.086648 45.372158 
L 161.091003 38.504615 
L 173.862888 33.619707 
L 180.829033 32.457823 
L 194.833388 31.232168 
L 214.571418 31.445239 
L 228.575773 31.48903 
" clip-path="url(#p95d84ed4e0)" style="fill: none; stroke: #b2b2b2; stroke-width: 0.8; stroke-linecap: square"/>
   </g>
   <g id="line2d_101">
    <path d="M 49.001227 120.709323 
L 68.739257 99.732511 
L 82.743612 89.434168 
L 93.606234 79.440852 
L 102.481642 72.193383 
L 116.485997 64.669016 
L 127.348618 57.927858 
L 132.516494 55.619879 
L 147.086648 48.732868 
L 161.091003 41.402279 
L 173.862888 39.050492 
L 180.829033 38.525501 
L 194.833388 36.667561 
L 214.571418 30.528493 
L 228.575773 34.106233 
" clip-path="url(#p95d84ed4e0)" style="fill: none; stroke: #b2b2b2; stroke-width: 0.8; stroke-linecap: square"/>
   </g>
   <g id="line2d_102">
    <path d="M 49.001227 130.067437 
L 68.739257 109.438957 
L 82.743612 98.702222 
L 93.606234 87.716413 
L 102.481642 80.094381 
L 116.485997 69.060854 
L 127.348618 59.594526 
L 132.516494 55.619879 
L 147.086648 45.585798 
L 161.091003 37.29745 
L 173.862888 32.168405 
L 180.829033 29.884381 
L 194.833388 27.596066 
L 214.571418 27.445731 
L 228.575773 22.039146 
" clip-path="url(#p95d84ed4e0)" style="fill: none; stroke: #b2b2b2; stroke-width: 0.8; stroke-linecap: square"/>
   </g>
   <g id="line2d_103">
    <path d="M 49.001227 120.947759 
L 68.739257 99.518075 
L 82.743612 88.901738 
L 93.606234 78.58494 
L 102.481642 71.085809 
L 116.485997 63.294322 
L 127.348618 57.2099 
L 132.516494 55.619879 
L 147.086648 49.880786 
L 161.091003 46.469763 
L 173.862888 42.762058 
L 180.829033 40.428692 
L 194.833388 37.947477 
L 214.571418 32.696336 
L 228.575773 39.754421 
" clip-path="url(#p95d84ed4e0)" style="fill: none; stroke: #b2b2b2; stroke-width: 0.8; stroke-linecap: square"/>
   </g>
   <g id="line2d_104">
    <path d="M 49.001227 111.406796 
L 68.739257 91.26172 
L 82.743612 81.713677 
L 93.606234 72.899263 
L 102.481642 66.920194 
L 116.485997 62.17257 
L 127.348618 59.141521 
L 132.516494 55.619879 
L 147.086648 45.353769 
L 161.091003 42.647154 
L 173.862888 42.408071 
L 180.829033 40.146298 
L 194.833388 40.672547 
L 214.571418 53.468295 
L 228.575773 48.591658 
" clip-path="url(#p95d84ed4e0)" style="fill: none; stroke: #b2b2b2; stroke-width: 0.8; stroke-linecap: square"/>
   </g>
   <g id="line2d_105">
    <path d="M 49.001227 116.418309 
L 68.739257 97.350791 
L 82.743612 89.069977 
L 93.606234 81.983434 
L 102.481642 75.682679 
L 116.485997 66.307259 
L 127.348618 58.857911 
L 132.516494 55.619879 
L 147.086648 45.42493 
L 161.091003 36.953445 
L 173.862888 30.703598 
L 180.829033 26.380202 
L 194.833388 19.578561 
L 214.571418 23.263265 
L 228.575773 22.626967 
" clip-path="url(#p95d84ed4e0)" style="fill: none; stroke: #b2b2b2; stroke-width: 0.8; stroke-linecap: square"/>
   </g>
   <g id="line2d_106">
    <path d="M 49.001227 124.337902 
L 68.739257 102.995451 
L 82.743612 92.436739 
L 93.606234 82.083224 
L 102.481642 74.413734 
L 116.485997 65.732812 
L 127.348618 58.192256 
L 132.516494 55.619879 
L 147.086648 49.253418 
L 161.091003 46.183038 
L 173.862888 43.323398 
L 180.829033 42.554548 
L 194.833388 39.654554 
L 214.571418 29.038385 
L 228.575773 39.000607 
" clip-path="url(#p95d84ed4e0)" style="fill: none; stroke: #b2b2b2; stroke-width: 0.8; stroke-linecap: square"/>
   </g>
   <g id="line2d_107">
    <path d="M 49.001227 118.910234 
L 68.739257 99.292096 
L 82.743612 89.491999 
L 93.606234 81.49735 
L 102.481642 73.504599 
L 116.485997 65.087826 
L 127.348618 57.883817 
L 132.516494 55.619879 
L 147.086648 47.8866 
L 161.091003 41.754603 
L 173.862888 38.524599 
L 180.829033 36.387207 
L 194.833388 34.496685 
L 214.571418 32.955286 
L 228.575773 34.150735 
" clip-path="url(#p95d84ed4e0)" style="fill: none; stroke: #ff0000; stroke-width: 2; stroke-linecap: square"/>
   </g>
   <g id="line2d_108">
    <path d="M 49.001227 105.731809 
L 68.739257 87.269695 
L 82.743612 78.686188 
L 93.606234 71.848743 
L 102.481642 65.199268 
L 116.485997 59.257709 
L 127.348618 54.484339 
L 132.516494 55.619878 
L 147.086648 41.022225 
L 161.091003 30.372999 
L 173.862888 24.198567 
L 180.829033 20.50133 
L 194.833388 17.090835 
L 214.571418 13.954649 
L 228.575773 14.108463 
" clip-path="url(#p95d84ed4e0)" style="fill: none; stroke-dasharray: 7.4,3.2; stroke-dashoffset: 0; stroke: #ff0000; stroke-width: 2"/>
   </g>
   <g id="line2d_109">
    <path d="M 49.001227 132.088659 
L 68.739257 111.314497 
L 82.743612 100.297809 
L 93.606234 91.145957 
L 102.481642 81.809929 
L 116.485997 70.917944 
L 127.348618 61.283295 
L 132.516494 55.61988 
L 147.086648 54.750975 
L 161.091003 53.136207 
L 173.862888 52.850631 
L 180.829033 52.273083 
L 194.833388 51.902535 
L 214.571418 51.955922 
L 228.575773 54.193007 
" clip-path="url(#p95d84ed4e0)" style="fill: none; stroke-dasharray: 7.4,3.2; stroke-dashoffset: 0; stroke: #ff0000; stroke-width: 2"/>
   </g>
   <g id="line2d_110">
    <path d="M 49.001227 118.938393 
L 68.739257 99.460964 
L 82.743612 89.794149 
L 93.606234 80.878404 
L 102.481642 73.762457 
L 116.485997 65.333061 
L 127.348618 58.228381 
L 132.516494 55.619879 
L 147.086648 48.001119 
L 161.091003 41.826377 
L 173.862888 38.433699 
L 180.829033 36.498636 
L 194.833388 34.526016 
L 214.571418 32.856803 
L 228.575773 34.095275 
" clip-path="url(#p95d84ed4e0)" style="fill: none; stroke: #0000ff; stroke-width: 2; stroke-linecap: square"/>
   </g>
   <g id="line2d_111">
    <path d="M 49.001227 105.785586 
L 68.739257 87.651324 
L 82.743612 78.815111 
L 93.606234 70.902023 
L 102.481642 65.426954 
L 116.485997 59.76496 
L 127.348618 54.905717 
L 132.516494 55.619879 
L 147.086648 40.99879 
L 161.091003 30.328632 
L 173.862888 24.18978 
L 180.829033 20.769731 
L 194.833388 16.984018 
L 214.571418 13.803448 
L 228.575773 13.993557 
" clip-path="url(#p95d84ed4e0)" style="fill: none; stroke-dasharray: 7.4,3.2; stroke-dashoffset: 0; stroke: #0000ff; stroke-width: 2"/>
   </g>
   <g id="line2d_112">
    <path d="M 49.001227 132.0912 
L 68.739257 111.270604 
L 82.743612 100.773187 
L 93.606234 90.854785 
L 102.481642 82.097959 
L 116.485997 70.901161 
L 127.348618 61.551045 
L 132.516494 55.619879 
L 147.086648 55.003448 
L 161.091003 53.324123 
L 173.862888 52.677617 
L 180.829033 52.227541 
L 194.833388 52.068014 
L 214.571418 51.910157 
L 228.575773 54.196994 
" clip-path="url(#p95d84ed4e0)" style="fill: none; stroke-dasharray: 7.4,3.2; stroke-dashoffset: 0; stroke: #0000ff; stroke-width: 2"/>
   </g>
   <g id="patch_3">
    <path d="M 40.0225 138.0384 
L 40.0225 7.2 
" style="fill: none; stroke: #000000; stroke-width: 0.8; stroke-linejoin: miter; stroke-linecap: square"/>
   </g>
   <g id="patch_4">
    <path d="M 237.5545 138.0384 
L 237.5545 7.2 
" style="fill: none; stroke: #000000; stroke-width: 0.8; stroke-linejoin: miter; stroke-linecap: square"/>
   </g>
   <g id="patch_5">
    <path d="M 40.0225 138.0384 
L 237.5545 138.0384 
" style="fill: none; stroke: #000000; stroke-width: 0.8; stroke-linejoin: miter; stroke-linecap: square"/>
   </g>
   <g id="patch_6">
    <path d="M 40.0225 7.2 
L 237.5545 7.2 
" style="fill: none; stroke: #000000; stroke-width: 0.8; stroke-linejoin: miter; stroke-linecap: square"/>
   </g>
   <g id="legend_1">
    <g id="patch_7">
     <path d="M 243.1545 104.47295 
L 427.8745 104.47295 
Q 429.4745 104.47295 429.4745 102.87295 
L 429.4745 42.36545 
Q 429.4745 40.76545 427.8745 40.76545 
L 243.1545 40.76545 
Q 241.5545 40.76545 241.5545 42.36545 
L 241.5545 102.87295 
Q 241.5545 104.47295 243.1545 104.47295 
z
" style="fill: #ffffff; opacity: 0.8; stroke: #cccccc; stroke-linejoin: miter"/>
    </g>
    <g id="line2d_113">
     <path d="M 244.7545 47.2442 
L 252.7545 47.2442 
L 260.7545 47.2442 
" style="fill: none; stroke: #b2b2b2; stroke-width: 0.8; stroke-linecap: square"/>
    </g>
    <g id="text_6">
     <!-- Individual selected GMs -->
     <g transform="translate(267.1545 50.0442) scale(0.08 -0.08)">
      <defs>
       <path id="DejaVuSans-49" d="M 628 4666 
L 1259 4666 
L 1259 0 
L 628 0 
L 628 4666 
z
" transform="scale(0.015625)"/>
       <path id="DejaVuSans-76" d="M 191 3500 
L 800 3500 
L 1894 563 
L 2988 3500 
L 3597 3500 
L 2284 0 
L 1503 0 
L 191 3500 
z
" transform="scale(0.015625)"/>
       <path id="DejaVuSans-75" d="M 544 1381 
L 544 3500 
L 1119 3500 
L 1119 1403 
Q 1119 906 1312 657 
Q 1506 409 1894 409 
Q 2359 409 2629 706 
Q 2900 1003 2900 1516 
L 2900 3500 
L 3475 3500 
L 3475 0 
L 2900 0 
L 2900 538 
Q 2691 219 2414 64 
Q 2138 -91 1772 -91 
Q 1169 -91 856 284 
Q 544 659 544 1381 
z
M 1991 3584 
L 1991 3584 
z
" transform="scale(0.015625)"/>
       <path id="DejaVuSans-47" d="M 3809 666 
L 3809 1919 
L 2778 1919 
L 2778 2438 
L 4434 2438 
L 4434 434 
Q 4069 175 3628 42 
Q 3188 -91 2688 -91 
Q 1594 -91 976 548 
Q 359 1188 359 2328 
Q 359 3472 976 4111 
Q 1594 4750 2688 4750 
Q 3144 4750 3555 4637 
Q 3966 4525 4313 4306 
L 4313 3634 
Q 3963 3931 3569 4081 
Q 3175 4231 2741 4231 
Q 1884 4231 1454 3753 
Q 1025 3275 1025 2328 
Q 1025 1384 1454 906 
Q 1884 428 2741 428 
Q 3075 428 3337 486 
Q 3600 544 3809 666 
z
" transform="scale(0.015625)"/>
       <path id="DejaVuSans-4d" d="M 628 4666 
L 1569 4666 
L 2759 1491 
L 3956 4666 
L 4897 4666 
L 4897 0 
L 4281 0 
L 4281 4097 
L 3078 897 
L 2444 897 
L 1241 4097 
L 1241 0 
L 628 0 
L 628 4666 
z
" transform="scale(0.015625)"/>
      </defs>
      <use xlink:href="#DejaVuSans-49"/>
      <use xlink:href="#DejaVuSans-6e" x="29.492188"/>
      <use xlink:href="#DejaVuSans-64" x="92.871094"/>
      <use xlink:href="#DejaVuSans-69" x="156.347656"/>
      <use xlink:href="#DejaVuSans-76" x="184.130859"/>
      <use xlink:href="#DejaVuSans-69" x="243.310547"/>
      <use xlink:href="#DejaVuSans-64" x="271.09375"/>
      <use xlink:href="#DejaVuSans-75" x="334.570312"/>
      <use xlink:href="#DejaVuSans-61" x="397.949219"/>
      <use xlink:href="#DejaVuSans-6c" x="459.228516"/>
      <use xlink:href="#DejaVuSans-20" x="487.011719"/>
      <use xlink:href="#DejaVuSans-73" x="518.798828"/>
      <use xlink:href="#DejaVuSans-65" x="570.898438"/>
      <use xlink:href="#DejaVuSans-6c" x="632.421875"/>
      <use xlink:href="#DejaVuSans-65" x="660.205078"/>
      <use xlink:href="#DejaVuSans-63" x="721.728516"/>
      <use xlink:href="#DejaVuSans-74" x="776.708984"/>
      <use xlink:href="#DejaVuSans-65" x="815.917969"/>
      <use xlink:href="#DejaVuSans-64" x="877.441406"/>
      <use xlink:href="#DejaVuSans-20" x="940.917969"/>
      <use xlink:href="#DejaVuSans-47" x="972.705078"/>
      <use xlink:href="#DejaVuSans-4d" x="1050.195312"/>
      <use xlink:href="#DejaVuSans-73" x="1136.474609"/>
     </g>
    </g>
    <g id="line2d_114">
     <path d="M 244.7545 58.9867 
L 252.7545 58.9867 
L 260.7545 58.9867 
" style="fill: none; stroke: #ff0000; stroke-width: 2; stroke-linecap: square"/>
    </g>
    <g id="text_7">
     <!-- GCIM median -->
     <g transform="translate(267.1545 61.7867) scale(0.08 -0.08)">
      <defs>
       <path id="DejaVuSans-43" d="M 4122 4306 
L 4122 3641 
Q 3803 3938 3442 4084 
Q 3081 4231 2675 4231 
Q 1875 4231 1450 3742 
Q 1025 3253 1025 2328 
Q 1025 1406 1450 917 
Q 1875 428 2675 428 
Q 3081 428 3442 575 
Q 3803 722 4122 1019 
L 4122 359 
Q 3791 134 3420 21 
Q 3050 -91 2638 -91 
Q 1578 -91 968 557 
Q 359 1206 359 2328 
Q 359 3453 968 4101 
Q 1578 4750 2638 4750 
Q 3056 4750 3426 4639 
Q 3797 4528 4122 4306 
z
" transform="scale(0.015625)"/>
       <path id="DejaVuSans-6d" d="M 3328 2828 
Q 3544 3216 3844 3400 
Q 4144 3584 4550 3584 
Q 5097 3584 5394 3201 
Q 5691 2819 5691 2113 
L 5691 0 
L 5113 0 
L 5113 2094 
Q 5113 2597 4934 2840 
Q 4756 3084 4391 3084 
Q 3944 3084 3684 2787 
Q 3425 2491 3425 1978 
L 3425 0 
L 2847 0 
L 2847 2094 
Q 2847 2600 2669 2842 
Q 2491 3084 2119 3084 
Q 1678 3084 1418 2786 
Q 1159 2488 1159 1978 
L 1159 0 
L 581 0 
L 581 3500 
L 1159 3500 
L 1159 2956 
Q 1356 3278 1631 3431 
Q 1906 3584 2284 3584 
Q 2666 3584 2933 3390 
Q 3200 3197 3328 2828 
z
" transform="scale(0.015625)"/>
      </defs>
      <use xlink:href="#DejaVuSans-47"/>
      <use xlink:href="#DejaVuSans-43" x="77.490234"/>
      <use xlink:href="#DejaVuSans-49" x="147.314453"/>
      <use xlink:href="#DejaVuSans-4d" x="176.806641"/>
      <use xlink:href="#DejaVuSans-20" x="263.085938"/>
      <use xlink:href="#DejaVuSans-6d" x="294.873047"/>
      <use xlink:href="#DejaVuSans-65" x="392.285156"/>
      <use xlink:href="#DejaVuSans-64" x="453.808594"/>
      <use xlink:href="#DejaVuSans-69" x="517.285156"/>
      <use xlink:href="#DejaVuSans-61" x="545.068359"/>
      <use xlink:href="#DejaVuSans-6e" x="606.347656"/>
     </g>
    </g>
    <g id="line2d_115">
     <path d="M 244.7545 72.01045 
L 252.7545 72.01045 
L 260.7545 72.01045 
" style="fill: none; stroke-dasharray: 7.4,3.2; stroke-dashoffset: 0; stroke: #ff0000; stroke-width: 2"/>
    </g>
    <g id="text_8">
     <!-- GCIM $16^{th}$ and $84^{th}$ percentiles -->
     <g transform="translate(267.1545 74.81045) scale(0.08 -0.08)">
      <defs>
       <path id="DejaVuSans-36" d="M 2113 2584 
Q 1688 2584 1439 2293 
Q 1191 2003 1191 1497 
Q 1191 994 1439 701 
Q 1688 409 2113 409 
Q 2538 409 2786 701 
Q 3034 994 3034 1497 
Q 3034 2003 2786 2293 
Q 2538 2584 2113 2584 
z
M 3366 4563 
L 3366 3988 
Q 3128 4100 2886 4159 
Q 2644 4219 2406 4219 
Q 1781 4219 1451 3797 
Q 1122 3375 1075 2522 
Q 1259 2794 1537 2939 
Q 1816 3084 2150 3084 
Q 2853 3084 3261 2657 
Q 3669 2231 3669 1497 
Q 3669 778 3244 343 
Q 2819 -91 2113 -91 
Q 1303 -91 875 529 
Q 447 1150 447 2328 
Q 447 3434 972 4092 
Q 1497 4750 2381 4750 
Q 2619 4750 2861 4703 
Q 3103 4656 3366 4563 
z
" transform="scale(0.015625)"/>
       <path id="DejaVuSans-Oblique-74" d="M 2706 3500 
L 2619 3053 
L 1472 3053 
L 1100 1153 
Q 1081 1047 1072 975 
Q 1063 903 1063 863 
Q 1063 663 1183 572 
Q 1303 481 1569 481 
L 2150 481 
L 2053 0 
L 1503 0 
Q 991 0 739 200 
Q 488 400 488 806 
Q 488 878 497 964 
Q 506 1050 525 1153 
L 897 3053 
L 409 3053 
L 500 3500 
L 978 3500 
L 1172 4494 
L 1747 4494 
L 1556 3500 
L 2706 3500 
z
" transform="scale(0.015625)"/>
       <path id="DejaVuSans-Oblique-68" d="M 3566 2113 
L 3156 0 
L 2578 0 
L 2988 2091 
Q 3016 2238 3031 2350 
Q 3047 2463 3047 2528 
Q 3047 2791 2881 2937 
Q 2716 3084 2419 3084 
Q 1956 3084 1617 2771 
Q 1278 2459 1178 1941 
L 800 0 
L 225 0 
L 1172 4863 
L 1747 4863 
L 1375 2950 
Q 1594 3244 1934 3414 
Q 2275 3584 2650 3584 
Q 3113 3584 3367 3334 
Q 3622 3084 3622 2631 
Q 3622 2519 3608 2391 
Q 3594 2263 3566 2113 
z
" transform="scale(0.015625)"/>
       <path id="DejaVuSans-38" d="M 2034 2216 
Q 1584 2216 1326 1975 
Q 1069 1734 1069 1313 
Q 1069 891 1326 650 
Q 1584 409 2034 409 
Q 2484 409 2743 651 
Q 3003 894 3003 1313 
Q 3003 1734 2745 1975 
Q 2488 2216 2034 2216 
z
M 1403 2484 
Q 997 2584 770 2862 
Q 544 3141 544 3541 
Q 544 4100 942 4425 
Q 1341 4750 2034 4750 
Q 2731 4750 3128 4425 
Q 3525 4100 3525 3541 
Q 3525 3141 3298 2862 
Q 3072 2584 2669 2484 
Q 3125 2378 3379 2068 
Q 3634 1759 3634 1313 
Q 3634 634 3220 271 
Q 2806 -91 2034 -91 
Q 1263 -91 848 271 
Q 434 634 434 1313 
Q 434 1759 690 2068 
Q 947 2378 1403 2484 
z
M 1172 3481 
Q 1172 3119 1398 2916 
Q 1625 2713 2034 2713 
Q 2441 2713 2670 2916 
Q 2900 3119 2900 3481 
Q 2900 3844 2670 4047 
Q 2441 4250 2034 4250 
Q 1625 4250 1398 4047 
Q 1172 3844 1172 3481 
z
" transform="scale(0.015625)"/>
       <path id="DejaVuSans-34" d="M 2419 4116 
L 825 1625 
L 2419 1625 
L 2419 4116 
z
M 2253 4666 
L 3047 4666 
L 3047 1625 
L 3713 1625 
L 3713 1100 
L 3047 1100 
L 3047 0 
L 2419 0 
L 2419 1100 
L 313 1100 
L 313 1709 
L 2253 4666 
z
" transform="scale(0.015625)"/>
      </defs>
      <use xlink:href="#DejaVuSans-47" transform="translate(0 0.529687)"/>
      <use xlink:href="#DejaVuSans-43" transform="translate(77.490234 0.529687)"/>
      <use xlink:href="#DejaVuSans-49" transform="translate(147.314453 0.529687)"/>
      <use xlink:href="#DejaVuSans-4d" transform="translate(176.806641 0.529687)"/>
      <use xlink:href="#DejaVuSans-20" transform="translate(263.085938 0.529687)"/>
      <use xlink:href="#DejaVuSans-31" transform="translate(294.873047 0.529687)"/>
      <use xlink:href="#DejaVuSans-36" transform="translate(358.496094 0.529687)"/>
      <use xlink:href="#DejaVuSans-Oblique-74" transform="translate(423.076172 38.810937) scale(0.7)"/>
      <use xlink:href="#DejaVuSans-Oblique-68" transform="translate(450.522461 38.810937) scale(0.7)"/>
      <use xlink:href="#DejaVuSans-20" transform="translate(497.62207 0.529687)"/>
      <use xlink:href="#DejaVuSans-61" transform="translate(529.40918 0.529687)"/>
      <use xlink:href="#DejaVuSans-6e" transform="translate(590.688477 0.529687)"/>
      <use xlink:href="#DejaVuSans-64" transform="translate(654.067383 0.529687)"/>
      <use xlink:href="#DejaVuSans-20" transform="translate(717.543945 0.529687)"/>
      <use xlink:href="#DejaVuSans-38" transform="translate(749.331055 0.529687)"/>
      <use xlink:href="#DejaVuSans-34" transform="translate(812.954102 0.529687)"/>
      <use xlink:href="#DejaVuSans-Oblique-74" transform="translate(877.53418 38.810937) scale(0.7)"/>
      <use xlink:href="#DejaVuSans-Oblique-68" transform="translate(904.980469 38.810937) scale(0.7)"/>
      <use xlink:href="#DejaVuSans-20" transform="translate(952.080078 0.529687)"/>
      <use xlink:href="#DejaVuSans-70" transform="translate(983.867188 0.529687)"/>
      <use xlink:href="#DejaVuSans-65" transform="translate(1047.34375 0.529687)"/>
      <use xlink:href="#DejaVuSans-72" transform="translate(1108.867188 0.529687)"/>
      <use xlink:href="#DejaVuSans-63" transform="translate(1149.980469 0.529687)"/>
      <use xlink:href="#DejaVuSans-65" transform="translate(1204.960938 0.529687)"/>
      <use xlink:href="#DejaVuSans-6e" transform="translate(1266.484375 0.529687)"/>
      <use xlink:href="#DejaVuSans-74" transform="translate(1329.863281 0.529687)"/>
      <use xlink:href="#DejaVuSans-69" transform="translate(1369.072266 0.529687)"/>
      <use xlink:href="#DejaVuSans-6c" transform="translate(1396.855469 0.529687)"/>
      <use xlink:href="#DejaVuSans-65" transform="translate(1424.638672 0.529687)"/>
      <use xlink:href="#DejaVuSans-73" transform="translate(1486.162109 0.529687)"/>
     </g>
    </g>
    <g id="line2d_116">
     <path d="M 244.7545 83.7692 
L 252.7545 83.7692 
L 260.7545 83.7692 
" style="fill: none; stroke: #0000ff; stroke-width: 2; stroke-linecap: square"/>
    </g>
    <g id="text_9">
     <!-- Selected GMs median -->
     <g transform="translate(267.1545 86.5692) scale(0.08 -0.08)">
      <use xlink:href="#DejaVuSans-53"/>
      <use xlink:href="#DejaVuSans-65" x="63.476562"/>
      <use xlink:href="#DejaVuSans-6c" x="125"/>
      <use xlink:href="#DejaVuSans-65" x="152.783203"/>
      <use xlink:href="#DejaVuSans-63" x="214.306641"/>
      <use xlink:href="#DejaVuSans-74" x="269.287109"/>
      <use xlink:href="#DejaVuSans-65" x="308.496094"/>
      <use xlink:href="#DejaVuSans-64" x="370.019531"/>
      <use xlink:href="#DejaVuSans-20" x="433.496094"/>
      <use xlink:href="#DejaVuSans-47" x="465.283203"/>
      <use xlink:href="#DejaVuSans-4d" x="542.773438"/>
      <use xlink:href="#DejaVuSans-73" x="629.052734"/>
      <use xlink:href="#DejaVuSans-20" x="681.152344"/>
      <use xlink:href="#DejaVuSans-6d" x="712.939453"/>
      <use xlink:href="#DejaVuSans-65" x="810.351562"/>
      <use xlink:href="#DejaVuSans-64" x="871.875"/>
      <use xlink:href="#DejaVuSans-69" x="935.351562"/>
      <use xlink:href="#DejaVuSans-61" x="963.134766"/>
      <use xlink:href="#DejaVuSans-6e" x="1024.414062"/>
     </g>
    </g>
    <g id="line2d_117">
     <path d="M 244.7545 96.79295 
L 252.7545 96.79295 
L 260.7545 96.79295 
" style="fill: none; stroke-dasharray: 7.4,3.2; stroke-dashoffset: 0; stroke: #0000ff; stroke-width: 2"/>
    </g>
    <g id="text_10">
     <!-- Selected GMs, $16^{th}$ and $84^{th}$ percentiles -->
     <g transform="translate(267.1545 99.59295) scale(0.08 -0.08)">
      <use xlink:href="#DejaVuSans-53" transform="translate(0 0.529687)"/>
      <use xlink:href="#DejaVuSans-65" transform="translate(63.476562 0.529687)"/>
      <use xlink:href="#DejaVuSans-6c" transform="translate(125 0.529687)"/>
      <use xlink:href="#DejaVuSans-65" transform="translate(152.783203 0.529687)"/>
      <use xlink:href="#DejaVuSans-63" transform="translate(214.306641 0.529687)"/>
      <use xlink:href="#DejaVuSans-74" transform="translate(269.287109 0.529687)"/>
      <use xlink:href="#DejaVuSans-65" transform="translate(308.496094 0.529687)"/>
      <use xlink:href="#DejaVuSans-64" transform="translate(370.019531 0.529687)"/>
      <use xlink:href="#DejaVuSans-20" transform="translate(433.496094 0.529687)"/>
      <use xlink:href="#DejaVuSans-47" transform="translate(465.283203 0.529687)"/>
      <use xlink:href="#DejaVuSans-4d" transform="translate(542.773438 0.529687)"/>
      <use xlink:href="#DejaVuSans-73" transform="translate(629.052734 0.529687)"/>
      <use xlink:href="#DejaVuSans-2c" transform="translate(681.152344 0.529687)"/>
      <use xlink:href="#DejaVuSans-20" transform="translate(712.939453 0.529687)"/>
      <use xlink:href="#DejaVuSans-31" transform="translate(744.726562 0.529687)"/>
      <use xlink:href="#DejaVuSans-36" transform="translate(808.349609 0.529687)"/>
      <use xlink:href="#DejaVuSans-Oblique-74" transform="translate(872.929688 38.810937) scale(0.7)"/>
      <use xlink:href="#DejaVuSans-Oblique-68" transform="translate(900.375977 38.810937) scale(0.7)"/>
      <use xlink:href="#DejaVuSans-20" transform="translate(947.475586 0.529687)"/>
      <use xlink:href="#DejaVuSans-61" transform="translate(979.262695 0.529687)"/>
      <use xlink:href="#DejaVuSans-6e" transform="translate(1040.541992 0.529687)"/>
      <use xlink:href="#DejaVuSans-64" transform="translate(1103.920898 0.529687)"/>
      <use xlink:href="#DejaVuSans-20" transform="translate(1167.397461 0.529687)"/>
      <use xlink:href="#DejaVuSans-38" transform="translate(1199.18457 0.529687)"/>
      <use xlink:href="#DejaVuSans-34" transform="translate(1262.807617 0.529687)"/>
      <use xlink:href="#DejaVuSans-Oblique-74" transform="translate(1327.387695 38.810937) scale(0.7)"/>
      <use xlink:href="#DejaVuSans-Oblique-68" transform="translate(1354.833984 38.810937) scale(0.7)"/>
      <use xlink:href="#DejaVuSans-20" transform="translate(1401.933594 0.529687)"/>
      <use xlink:href="#DejaVuSans-70" transform="translate(1433.720703 0.529687)"/>
      <use xlink:href="#DejaVuSans-65" transform="translate(1497.197266 0.529687)"/>
      <use xlink:href="#DejaVuSans-72" transform="translate(1558.720703 0.529687)"/>
      <use xlink:href="#DejaVuSans-63" transform="translate(1599.833984 0.529687)"/>
      <use xlink:href="#DejaVuSans-65" transform="translate(1654.814453 0.529687)"/>
      <use xlink:href="#DejaVuSans-6e" transform="translate(1716.337891 0.529687)"/>
      <use xlink:href="#DejaVuSans-74" transform="translate(1779.716797 0.529687)"/>
      <use xlink:href="#DejaVuSans-69" transform="translate(1818.925781 0.529687)"/>
      <use xlink:href="#DejaVuSans-6c" transform="translate(1846.708984 0.529687)"/>
      <use xlink:href="#DejaVuSans-65" transform="translate(1874.492188 0.529687)"/>
      <use xlink:href="#DejaVuSans-73" transform="translate(1936.015625 0.529687)"/>
     </g>
    </g>
   </g>
  </g>
 </g>
 <defs>
  <clipPath id="p95d84ed4e0">
   <rect x="40.0225" y="7.2" width="197.532" height="130.8384"/>
  </clipPath>
 </defs>
</svg>
