<?xml version="1.0" encoding="utf-8" standalone="no"?>
<!DOCTYPE svg PUBLIC "-//W3C//DTD SVG 1.1//EN"
  "http://www.w3.org/Graphics/SVG/1.1/DTD/svg11.dtd">
<svg xmlns:xlink="http://www.w3.org/1999/xlink" width="441.3945pt" height="171.7234pt" viewBox="0 0 441.3945 171.7234" xmlns="http://www.w3.org/2000/svg" version="1.1">
 <metadata>
  <rdf:RDF xmlns:dc="http://purl.org/dc/elements/1.1/" xmlns:cc="http://creativecommons.org/ns#" xmlns:rdf="http://www.w3.org/1999/02/22-rdf-syntax-ns#">
   <cc:Work>
    <dc:type rdf:resource="http://purl.org/dc/dcmitype/StillImage"/>
    <dc:date>2024-11-11T12:54:04.395522</dc:date>
    <dc:format>image/svg+xml</dc:format>
    <dc:creator>
     <cc:Agent>
      <dc:title>Matplotlib v3.8.2, https://matplotlib.org/</dc:title>
     </cc:Agent>
    </dc:creator>
   </cc:Work>
  </rdf:RDF>
 </metadata>
 <defs>
  <style type="text/css">*{stroke-linejoin: round; stroke-linecap: butt}</style>
 </defs>
 <g id="figure_1">
  <g id="patch_1">
   <path d="M 0 171.7234 
L 441.3945 171.7234 
L 441.3945 0 
L 0 0 
z
" style="fill: #ffffff"/>
  </g>
  <g id="axes_1">
   <g id="patch_2">
    <path d="M 44.7425 138.0384 
L 242.2745 138.0384 
L 242.2745 7.2 
L 44.7425 7.2 
z
" style="fill: #ffffff"/>
   </g>
   <g id="matplotlib.axis_1">
    <g id="xtick_1">
     <g id="line2d_1">
      <path d="M 53.721227 138.0384 
L 53.721227 7.2 
" clip-path="url(#p03777ef4a5)" style="fill: none; stroke: #d9d9d9; stroke-width: 0.8; stroke-linecap: square"/>
     </g>
     <g id="line2d_2">
      <defs>
       <path id="m2c97a739e2" d="M 0 0 
L 0 3.5 
" style="stroke: #000000; stroke-width: 0.8"/>
      </defs>
      <g>
       <use xlink:href="#m2c97a739e2" x="53.721227" y="138.0384" style="stroke: #000000; stroke-width: 0.8"/>
      </g>
     </g>
     <g id="text_1">
      <!-- $\mathdefault{10^{-1}}$ -->
      <g transform="translate(44.321227 151.11715) scale(0.08 -0.08)">
       <defs>
        <path id="DejaVuSans-31" d="M 794 531 
L 1825 531 
L 1825 4091 
L 703 3866 
L 703 4441 
L 1819 4666 
L 2450 4666 
L 2450 531 
L 3481 531 
L 3481 0 
L 794 0 
L 794 531 
z
" transform="scale(0.015625)"/>
        <path id="DejaVuSans-30" d="M 2034 4250 
Q 1547 4250 1301 3770 
Q 1056 3291 1056 2328 
Q 1056 1369 1301 889 
Q 1547 409 2034 409 
Q 2525 409 2770 889 
Q 3016 1369 3016 2328 
Q 3016 3291 2770 3770 
Q 2525 4250 2034 4250 
z
M 2034 4750 
Q 2819 4750 3233 4129 
Q 3647 3509 3647 2328 
Q 3647 1150 3233 529 
Q 2819 -91 2034 -91 
Q 1250 -91 836 529 
Q 422 1150 422 2328 
Q 422 3509 836 4129 
Q 1250 4750 2034 4750 
z
" transform="scale(0.015625)"/>
        <path id="DejaVuSans-2212" d="M 678 2272 
L 4684 2272 
L 4684 1741 
L 678 1741 
L 678 2272 
z
" transform="scale(0.015625)"/>
       </defs>
       <use xlink:href="#DejaVuSans-31" transform="translate(0 0.684375)"/>
       <use xlink:href="#DejaVuSans-30" transform="translate(63.623047 0.684375)"/>
       <use xlink:href="#DejaVuSans-2212" transform="translate(128.203125 38.965625) scale(0.7)"/>
       <use xlink:href="#DejaVuSans-31" transform="translate(186.855469 38.965625) scale(0.7)"/>
      </g>
     </g>
    </g>
    <g id="xtick_2">
     <g id="line2d_3">
      <path d="M 159.417352 138.0384 
L 159.417352 7.2 
" clip-path="url(#p03777ef4a5)" style="fill: none; stroke: #d9d9d9; stroke-width: 0.8; stroke-linecap: square"/>
     </g>
     <g id="line2d_4">
      <g>
       <use xlink:href="#m2c97a739e2" x="159.417352" y="138.0384" style="stroke: #000000; stroke-width: 0.8"/>
      </g>
     </g>
     <g id="text_2">
      <!-- $\mathdefault{10^{0}}$ -->
      <g transform="translate(152.377352 151.11715) scale(0.08 -0.08)">
       <use xlink:href="#DejaVuSans-31" transform="translate(0 0.765625)"/>
       <use xlink:href="#DejaVuSans-30" transform="translate(63.623047 0.765625)"/>
       <use xlink:href="#DejaVuSans-30" transform="translate(128.203125 39.046875) scale(0.7)"/>
      </g>
     </g>
    </g>
    <g id="xtick_3">
     <g id="line2d_5">
      <path d="M 48.884838 138.0384 
L 48.884838 7.2 
" clip-path="url(#p03777ef4a5)" style="fill: none; stroke-dasharray: 2.96,1.28; stroke-dashoffset: 0; stroke: #f2f2f2; stroke-width: 0.8"/>
     </g>
     <g id="line2d_6">
      <defs>
       <path id="m011e8c2797" d="M 0 0 
L 0 2 
" style="stroke: #000000; stroke-width: 0.6"/>
      </defs>
      <g>
       <use xlink:href="#m011e8c2797" x="48.884838" y="138.0384" style="stroke: #000000; stroke-width: 0.6"/>
      </g>
     </g>
    </g>
    <g id="xtick_4">
     <g id="line2d_7">
      <path d="M 85.538931 138.0384 
L 85.538931 7.2 
" clip-path="url(#p03777ef4a5)" style="fill: none; stroke-dasharray: 2.96,1.28; stroke-dashoffset: 0; stroke: #f2f2f2; stroke-width: 0.8"/>
     </g>
     <g id="line2d_8">
      <g>
       <use xlink:href="#m011e8c2797" x="85.538931" y="138.0384" style="stroke: #000000; stroke-width: 0.6"/>
      </g>
     </g>
    </g>
    <g id="xtick_5">
     <g id="line2d_9">
      <path d="M 104.151095 138.0384 
L 104.151095 7.2 
" clip-path="url(#p03777ef4a5)" style="fill: none; stroke-dasharray: 2.96,1.28; stroke-dashoffset: 0; stroke: #f2f2f2; stroke-width: 0.8"/>
     </g>
     <g id="line2d_10">
      <g>
       <use xlink:href="#m011e8c2797" x="104.151095" y="138.0384" style="stroke: #000000; stroke-width: 0.6"/>
      </g>
     </g>
    </g>
    <g id="xtick_6">
     <g id="line2d_11">
      <path d="M 117.356635 138.0384 
L 117.356635 7.2 
" clip-path="url(#p03777ef4a5)" style="fill: none; stroke-dasharray: 2.96,1.28; stroke-dashoffset: 0; stroke: #f2f2f2; stroke-width: 0.8"/>
     </g>
     <g id="line2d_12">
      <g>
       <use xlink:href="#m011e8c2797" x="117.356635" y="138.0384" style="stroke: #000000; stroke-width: 0.6"/>
      </g>
     </g>
    </g>
    <g id="xtick_7">
     <g id="line2d_13">
      <path d="M 127.599648 138.0384 
L 127.599648 7.2 
" clip-path="url(#p03777ef4a5)" style="fill: none; stroke-dasharray: 2.96,1.28; stroke-dashoffset: 0; stroke: #f2f2f2; stroke-width: 0.8"/>
     </g>
     <g id="line2d_14">
      <g>
       <use xlink:href="#m011e8c2797" x="127.599648" y="138.0384" style="stroke: #000000; stroke-width: 0.6"/>
      </g>
     </g>
    </g>
    <g id="xtick_8">
     <g id="line2d_15">
      <path d="M 135.968799 138.0384 
L 135.968799 7.2 
" clip-path="url(#p03777ef4a5)" style="fill: none; stroke-dasharray: 2.96,1.28; stroke-dashoffset: 0; stroke: #f2f2f2; stroke-width: 0.8"/>
     </g>
     <g id="line2d_16">
      <g>
       <use xlink:href="#m011e8c2797" x="135.968799" y="138.0384" style="stroke: #000000; stroke-width: 0.6"/>
      </g>
     </g>
    </g>
    <g id="xtick_9">
     <g id="line2d_17">
      <path d="M 143.044815 138.0384 
L 143.044815 7.2 
" clip-path="url(#p03777ef4a5)" style="fill: none; stroke-dasharray: 2.96,1.28; stroke-dashoffset: 0; stroke: #f2f2f2; stroke-width: 0.8"/>
     </g>
     <g id="line2d_18">
      <g>
       <use xlink:href="#m011e8c2797" x="143.044815" y="138.0384" style="stroke: #000000; stroke-width: 0.6"/>
      </g>
     </g>
    </g>
    <g id="xtick_10">
     <g id="line2d_19">
      <path d="M 149.174339 138.0384 
L 149.174339 7.2 
" clip-path="url(#p03777ef4a5)" style="fill: none; stroke-dasharray: 2.96,1.28; stroke-dashoffset: 0; stroke: #f2f2f2; stroke-width: 0.8"/>
     </g>
     <g id="line2d_20">
      <g>
       <use xlink:href="#m011e8c2797" x="149.174339" y="138.0384" style="stroke: #000000; stroke-width: 0.6"/>
      </g>
     </g>
    </g>
    <g id="xtick_11">
     <g id="line2d_21">
      <path d="M 154.580963 138.0384 
L 154.580963 7.2 
" clip-path="url(#p03777ef4a5)" style="fill: none; stroke-dasharray: 2.96,1.28; stroke-dashoffset: 0; stroke: #f2f2f2; stroke-width: 0.8"/>
     </g>
     <g id="line2d_22">
      <g>
       <use xlink:href="#m011e8c2797" x="154.580963" y="138.0384" style="stroke: #000000; stroke-width: 0.6"/>
      </g>
     </g>
    </g>
    <g id="xtick_12">
     <g id="line2d_23">
      <path d="M 191.235056 138.0384 
L 191.235056 7.2 
" clip-path="url(#p03777ef4a5)" style="fill: none; stroke-dasharray: 2.96,1.28; stroke-dashoffset: 0; stroke: #f2f2f2; stroke-width: 0.8"/>
     </g>
     <g id="line2d_24">
      <g>
       <use xlink:href="#m011e8c2797" x="191.235056" y="138.0384" style="stroke: #000000; stroke-width: 0.6"/>
      </g>
     </g>
    </g>
    <g id="xtick_13">
     <g id="line2d_25">
      <path d="M 209.84722 138.0384 
L 209.84722 7.2 
" clip-path="url(#p03777ef4a5)" style="fill: none; stroke-dasharray: 2.96,1.28; stroke-dashoffset: 0; stroke: #f2f2f2; stroke-width: 0.8"/>
     </g>
     <g id="line2d_26">
      <g>
       <use xlink:href="#m011e8c2797" x="209.84722" y="138.0384" style="stroke: #000000; stroke-width: 0.6"/>
      </g>
     </g>
    </g>
    <g id="xtick_14">
     <g id="line2d_27">
      <path d="M 223.05276 138.0384 
L 223.05276 7.2 
" clip-path="url(#p03777ef4a5)" style="fill: none; stroke-dasharray: 2.96,1.28; stroke-dashoffset: 0; stroke: #f2f2f2; stroke-width: 0.8"/>
     </g>
     <g id="line2d_28">
      <g>
       <use xlink:href="#m011e8c2797" x="223.05276" y="138.0384" style="stroke: #000000; stroke-width: 0.6"/>
      </g>
     </g>
    </g>
    <g id="xtick_15">
     <g id="line2d_29">
      <path d="M 233.295773 138.0384 
L 233.295773 7.2 
" clip-path="url(#p03777ef4a5)" style="fill: none; stroke-dasharray: 2.96,1.28; stroke-dashoffset: 0; stroke: #f2f2f2; stroke-width: 0.8"/>
     </g>
     <g id="line2d_30">
      <g>
       <use xlink:href="#m011e8c2797" x="233.295773" y="138.0384" style="stroke: #000000; stroke-width: 0.6"/>
      </g>
     </g>
    </g>
    <g id="xtick_16">
     <g id="line2d_31">
      <path d="M 241.664924 138.0384 
L 241.664924 7.2 
" clip-path="url(#p03777ef4a5)" style="fill: none; stroke-dasharray: 2.96,1.28; stroke-dashoffset: 0; stroke: #f2f2f2; stroke-width: 0.8"/>
     </g>
     <g id="line2d_32">
      <g>
       <use xlink:href="#m011e8c2797" x="241.664924" y="138.0384" style="stroke: #000000; stroke-width: 0.6"/>
      </g>
     </g>
    </g>
    <g id="text_3">
     <!-- Period, T (s) -->
     <g transform="translate(119.576 162.85965) scale(0.08 -0.08)">
      <defs>
       <path id="DejaVuSans-50" d="M 1259 4147 
L 1259 2394 
L 2053 2394 
Q 2494 2394 2734 2622 
Q 2975 2850 2975 3272 
Q 2975 3691 2734 3919 
Q 2494 4147 2053 4147 
L 1259 4147 
z
M 628 4666 
L 2053 4666 
Q 2838 4666 3239 4311 
Q 3641 3956 3641 3272 
Q 3641 2581 3239 2228 
Q 2838 1875 2053 1875 
L 1259 1875 
L 1259 0 
L 628 0 
L 628 4666 
z
" transform="scale(0.015625)"/>
       <path id="DejaVuSans-65" d="M 3597 1894 
L 3597 1613 
L 953 1613 
Q 991 1019 1311 708 
Q 1631 397 2203 397 
Q 2534 397 2845 478 
Q 3156 559 3463 722 
L 3463 178 
Q 3153 47 2828 -22 
Q 2503 -91 2169 -91 
Q 1331 -91 842 396 
Q 353 884 353 1716 
Q 353 2575 817 3079 
Q 1281 3584 2069 3584 
Q 2775 3584 3186 3129 
Q 3597 2675 3597 1894 
z
M 3022 2063 
Q 3016 2534 2758 2815 
Q 2500 3097 2075 3097 
Q 1594 3097 1305 2825 
Q 1016 2553 972 2059 
L 3022 2063 
z
" transform="scale(0.015625)"/>
       <path id="DejaVuSans-72" d="M 2631 2963 
Q 2534 3019 2420 3045 
Q 2306 3072 2169 3072 
Q 1681 3072 1420 2755 
Q 1159 2438 1159 1844 
L 1159 0 
L 581 0 
L 581 3500 
L 1159 3500 
L 1159 2956 
Q 1341 3275 1631 3429 
Q 1922 3584 2338 3584 
Q 2397 3584 2469 3576 
Q 2541 3569 2628 3553 
L 2631 2963 
z
" transform="scale(0.015625)"/>
       <path id="DejaVuSans-69" d="M 603 3500 
L 1178 3500 
L 1178 0 
L 603 0 
L 603 3500 
z
M 603 4863 
L 1178 4863 
L 1178 4134 
L 603 4134 
L 603 4863 
z
" transform="scale(0.015625)"/>
       <path id="DejaVuSans-6f" d="M 1959 3097 
Q 1497 3097 1228 2736 
Q 959 2375 959 1747 
Q 959 1119 1226 758 
Q 1494 397 1959 397 
Q 2419 397 2687 759 
Q 2956 1122 2956 1747 
Q 2956 2369 2687 2733 
Q 2419 3097 1959 3097 
z
M 1959 3584 
Q 2709 3584 3137 3096 
Q 3566 2609 3566 1747 
Q 3566 888 3137 398 
Q 2709 -91 1959 -91 
Q 1206 -91 779 398 
Q 353 888 353 1747 
Q 353 2609 779 3096 
Q 1206 3584 1959 3584 
z
" transform="scale(0.015625)"/>
       <path id="DejaVuSans-64" d="M 2906 2969 
L 2906 4863 
L 3481 4863 
L 3481 0 
L 2906 0 
L 2906 525 
Q 2725 213 2448 61 
Q 2172 -91 1784 -91 
Q 1150 -91 751 415 
Q 353 922 353 1747 
Q 353 2572 751 3078 
Q 1150 3584 1784 3584 
Q 2172 3584 2448 3432 
Q 2725 3281 2906 2969 
z
M 947 1747 
Q 947 1113 1208 752 
Q 1469 391 1925 391 
Q 2381 391 2643 752 
Q 2906 1113 2906 1747 
Q 2906 2381 2643 2742 
Q 2381 3103 1925 3103 
Q 1469 3103 1208 2742 
Q 947 2381 947 1747 
z
" transform="scale(0.015625)"/>
       <path id="DejaVuSans-2c" d="M 750 794 
L 1409 794 
L 1409 256 
L 897 -744 
L 494 -744 
L 750 256 
L 750 794 
z
" transform="scale(0.015625)"/>
       <path id="DejaVuSans-20" transform="scale(0.015625)"/>
       <path id="DejaVuSans-54" d="M -19 4666 
L 3928 4666 
L 3928 4134 
L 2272 4134 
L 2272 0 
L 1638 0 
L 1638 4134 
L -19 4134 
L -19 4666 
z
" transform="scale(0.015625)"/>
       <path id="DejaVuSans-28" d="M 1984 4856 
Q 1566 4138 1362 3434 
Q 1159 2731 1159 2009 
Q 1159 1288 1364 580 
Q 1569 -128 1984 -844 
L 1484 -844 
Q 1016 -109 783 600 
Q 550 1309 550 2009 
Q 550 2706 781 3412 
Q 1013 4119 1484 4856 
L 1984 4856 
z
" transform="scale(0.015625)"/>
       <path id="DejaVuSans-73" d="M 2834 3397 
L 2834 2853 
Q 2591 2978 2328 3040 
Q 2066 3103 1784 3103 
Q 1356 3103 1142 2972 
Q 928 2841 928 2578 
Q 928 2378 1081 2264 
Q 1234 2150 1697 2047 
L 1894 2003 
Q 2506 1872 2764 1633 
Q 3022 1394 3022 966 
Q 3022 478 2636 193 
Q 2250 -91 1575 -91 
Q 1294 -91 989 -36 
Q 684 19 347 128 
L 347 722 
Q 666 556 975 473 
Q 1284 391 1588 391 
Q 1994 391 2212 530 
Q 2431 669 2431 922 
Q 2431 1156 2273 1281 
Q 2116 1406 1581 1522 
L 1381 1569 
Q 847 1681 609 1914 
Q 372 2147 372 2553 
Q 372 3047 722 3315 
Q 1072 3584 1716 3584 
Q 2034 3584 2315 3537 
Q 2597 3491 2834 3397 
z
" transform="scale(0.015625)"/>
       <path id="DejaVuSans-29" d="M 513 4856 
L 1013 4856 
Q 1481 4119 1714 3412 
Q 1947 2706 1947 2009 
Q 1947 1309 1714 600 
Q 1481 -109 1013 -844 
L 513 -844 
Q 928 -128 1133 580 
Q 1338 1288 1338 2009 
Q 1338 2731 1133 3434 
Q 928 4138 513 4856 
z
" transform="scale(0.015625)"/>
      </defs>
      <use xlink:href="#DejaVuSans-50"/>
      <use xlink:href="#DejaVuSans-65" x="56.677734"/>
      <use xlink:href="#DejaVuSans-72" x="118.201172"/>
      <use xlink:href="#DejaVuSans-69" x="159.314453"/>
      <use xlink:href="#DejaVuSans-6f" x="187.097656"/>
      <use xlink:href="#DejaVuSans-64" x="248.279297"/>
      <use xlink:href="#DejaVuSans-2c" x="311.755859"/>
      <use xlink:href="#DejaVuSans-20" x="343.542969"/>
      <use xlink:href="#DejaVuSans-54" x="375.330078"/>
      <use xlink:href="#DejaVuSans-20" x="436.414062"/>
      <use xlink:href="#DejaVuSans-28" x="468.201172"/>
      <use xlink:href="#DejaVuSans-73" x="507.214844"/>
      <use xlink:href="#DejaVuSans-29" x="559.314453"/>
     </g>
    </g>
   </g>
   <g id="matplotlib.axis_2">
    <g id="ytick_1">
     <g id="line2d_33">
      <path d="M 44.7425 89.173813 
L 242.2745 89.173813 
" clip-path="url(#p03777ef4a5)" style="fill: none; stroke: #d9d9d9; stroke-width: 0.8; stroke-linecap: square"/>
     </g>
     <g id="line2d_34">
      <defs>
       <path id="m3471eeb1d1" d="M 0 0 
L -3.5 0 
" style="stroke: #000000; stroke-width: 0.8"/>
      </defs>
      <g>
       <use xlink:href="#m3471eeb1d1" x="44.7425" y="89.173813" style="stroke: #000000; stroke-width: 0.8"/>
      </g>
     </g>
     <g id="text_4">
      <!-- $\mathdefault{10^{-1}}$ -->
      <g transform="translate(18.9425 92.213188) scale(0.08 -0.08)">
       <use xlink:href="#DejaVuSans-31" transform="translate(0 0.684375)"/>
       <use xlink:href="#DejaVuSans-30" transform="translate(63.623047 0.684375)"/>
       <use xlink:href="#DejaVuSans-2212" transform="translate(128.203125 38.965625) scale(0.7)"/>
       <use xlink:href="#DejaVuSans-31" transform="translate(186.855469 38.965625) scale(0.7)"/>
      </g>
     </g>
    </g>
    <g id="ytick_2">
     <g id="line2d_35">
      <path d="M 44.7425 36.852301 
L 242.2745 36.852301 
" clip-path="url(#p03777ef4a5)" style="fill: none; stroke: #d9d9d9; stroke-width: 0.8; stroke-linecap: square"/>
     </g>
     <g id="line2d_36">
      <g>
       <use xlink:href="#m3471eeb1d1" x="44.7425" y="36.852301" style="stroke: #000000; stroke-width: 0.8"/>
      </g>
     </g>
     <g id="text_5">
      <!-- $\mathdefault{10^{0}}$ -->
      <g transform="translate(23.6625 39.891676) scale(0.08 -0.08)">
       <use xlink:href="#DejaVuSans-31" transform="translate(0 0.765625)"/>
       <use xlink:href="#DejaVuSans-30" transform="translate(63.623047 0.765625)"/>
       <use xlink:href="#DejaVuSans-30" transform="translate(128.203125 39.046875) scale(0.7)"/>
      </g>
     </g>
    </g>
    <g id="ytick_3">
     <g id="line2d_37">
      <path d="M 44.7425 125.744981 
L 242.2745 125.744981 
" clip-path="url(#p03777ef4a5)" style="fill: none; stroke-dasharray: 2.96,1.28; stroke-dashoffset: 0; stroke: #f2f2f2; stroke-width: 0.8"/>
     </g>
     <g id="line2d_38">
      <defs>
       <path id="m5785b41bf3" d="M 0 0 
L -2 0 
" style="stroke: #000000; stroke-width: 0.6"/>
      </defs>
      <g>
       <use xlink:href="#m5785b41bf3" x="44.7425" y="125.744981" style="stroke: #000000; stroke-width: 0.6"/>
      </g>
     </g>
    </g>
    <g id="ytick_4">
     <g id="line2d_39">
      <path d="M 44.7425 116.53162 
L 242.2745 116.53162 
" clip-path="url(#p03777ef4a5)" style="fill: none; stroke-dasharray: 2.96,1.28; stroke-dashoffset: 0; stroke: #f2f2f2; stroke-width: 0.8"/>
     </g>
     <g id="line2d_40">
      <g>
       <use xlink:href="#m5785b41bf3" x="44.7425" y="116.53162" style="stroke: #000000; stroke-width: 0.6"/>
      </g>
     </g>
    </g>
    <g id="ytick_5">
     <g id="line2d_41">
      <path d="M 44.7425 109.994636 
L 242.2745 109.994636 
" clip-path="url(#p03777ef4a5)" style="fill: none; stroke-dasharray: 2.96,1.28; stroke-dashoffset: 0; stroke: #f2f2f2; stroke-width: 0.8"/>
     </g>
     <g id="line2d_42">
      <g>
       <use xlink:href="#m5785b41bf3" x="44.7425" y="109.994636" style="stroke: #000000; stroke-width: 0.6"/>
      </g>
     </g>
    </g>
    <g id="ytick_6">
     <g id="line2d_43">
      <path d="M 44.7425 104.924158 
L 242.2745 104.924158 
" clip-path="url(#p03777ef4a5)" style="fill: none; stroke-dasharray: 2.96,1.28; stroke-dashoffset: 0; stroke: #f2f2f2; stroke-width: 0.8"/>
     </g>
     <g id="line2d_44">
      <g>
       <use xlink:href="#m5785b41bf3" x="44.7425" y="104.924158" style="stroke: #000000; stroke-width: 0.6"/>
      </g>
     </g>
    </g>
    <g id="ytick_7">
     <g id="line2d_45">
      <path d="M 44.7425 100.781275 
L 242.2745 100.781275 
" clip-path="url(#p03777ef4a5)" style="fill: none; stroke-dasharray: 2.96,1.28; stroke-dashoffset: 0; stroke: #f2f2f2; stroke-width: 0.8"/>
     </g>
     <g id="line2d_46">
      <g>
       <use xlink:href="#m5785b41bf3" x="44.7425" y="100.781275" style="stroke: #000000; stroke-width: 0.6"/>
      </g>
     </g>
    </g>
    <g id="ytick_8">
     <g id="line2d_47">
      <path d="M 44.7425 97.278518 
L 242.2745 97.278518 
" clip-path="url(#p03777ef4a5)" style="fill: none; stroke-dasharray: 2.96,1.28; stroke-dashoffset: 0; stroke: #f2f2f2; stroke-width: 0.8"/>
     </g>
     <g id="line2d_48">
      <g>
       <use xlink:href="#m5785b41bf3" x="44.7425" y="97.278518" style="stroke: #000000; stroke-width: 0.6"/>
      </g>
     </g>
    </g>
    <g id="ytick_9">
     <g id="line2d_49">
      <path d="M 44.7425 94.244292 
L 242.2745 94.244292 
" clip-path="url(#p03777ef4a5)" style="fill: none; stroke-dasharray: 2.96,1.28; stroke-dashoffset: 0; stroke: #f2f2f2; stroke-width: 0.8"/>
     </g>
     <g id="line2d_50">
      <g>
       <use xlink:href="#m5785b41bf3" x="44.7425" y="94.244292" style="stroke: #000000; stroke-width: 0.6"/>
      </g>
     </g>
    </g>
    <g id="ytick_10">
     <g id="line2d_51">
      <path d="M 44.7425 91.567914 
L 242.2745 91.567914 
" clip-path="url(#p03777ef4a5)" style="fill: none; stroke-dasharray: 2.96,1.28; stroke-dashoffset: 0; stroke: #f2f2f2; stroke-width: 0.8"/>
     </g>
     <g id="line2d_52">
      <g>
       <use xlink:href="#m5785b41bf3" x="44.7425" y="91.567914" style="stroke: #000000; stroke-width: 0.6"/>
      </g>
     </g>
    </g>
    <g id="ytick_11">
     <g id="line2d_53">
      <path d="M 44.7425 73.423469 
L 242.2745 73.423469 
" clip-path="url(#p03777ef4a5)" style="fill: none; stroke-dasharray: 2.96,1.28; stroke-dashoffset: 0; stroke: #f2f2f2; stroke-width: 0.8"/>
     </g>
     <g id="line2d_54">
      <g>
       <use xlink:href="#m5785b41bf3" x="44.7425" y="73.423469" style="stroke: #000000; stroke-width: 0.6"/>
      </g>
     </g>
    </g>
    <g id="ytick_12">
     <g id="line2d_55">
      <path d="M 44.7425 64.210108 
L 242.2745 64.210108 
" clip-path="url(#p03777ef4a5)" style="fill: none; stroke-dasharray: 2.96,1.28; stroke-dashoffset: 0; stroke: #f2f2f2; stroke-width: 0.8"/>
     </g>
     <g id="line2d_56">
      <g>
       <use xlink:href="#m5785b41bf3" x="44.7425" y="64.210108" style="stroke: #000000; stroke-width: 0.6"/>
      </g>
     </g>
    </g>
    <g id="ytick_13">
     <g id="line2d_57">
      <path d="M 44.7425 57.673124 
L 242.2745 57.673124 
" clip-path="url(#p03777ef4a5)" style="fill: none; stroke-dasharray: 2.96,1.28; stroke-dashoffset: 0; stroke: #f2f2f2; stroke-width: 0.8"/>
     </g>
     <g id="line2d_58">
      <g>
       <use xlink:href="#m5785b41bf3" x="44.7425" y="57.673124" style="stroke: #000000; stroke-width: 0.6"/>
      </g>
     </g>
    </g>
    <g id="ytick_14">
     <g id="line2d_59">
      <path d="M 44.7425 52.602646 
L 242.2745 52.602646 
" clip-path="url(#p03777ef4a5)" style="fill: none; stroke-dasharray: 2.96,1.28; stroke-dashoffset: 0; stroke: #f2f2f2; stroke-width: 0.8"/>
     </g>
     <g id="line2d_60">
      <g>
       <use xlink:href="#m5785b41bf3" x="44.7425" y="52.602646" style="stroke: #000000; stroke-width: 0.6"/>
      </g>
     </g>
    </g>
    <g id="ytick_15">
     <g id="line2d_61">
      <path d="M 44.7425 48.459763 
L 242.2745 48.459763 
" clip-path="url(#p03777ef4a5)" style="fill: none; stroke-dasharray: 2.96,1.28; stroke-dashoffset: 0; stroke: #f2f2f2; stroke-width: 0.8"/>
     </g>
     <g id="line2d_62">
      <g>
       <use xlink:href="#m5785b41bf3" x="44.7425" y="48.459763" style="stroke: #000000; stroke-width: 0.6"/>
      </g>
     </g>
    </g>
    <g id="ytick_16">
     <g id="line2d_63">
      <path d="M 44.7425 44.957006 
L 242.2745 44.957006 
" clip-path="url(#p03777ef4a5)" style="fill: none; stroke-dasharray: 2.96,1.28; stroke-dashoffset: 0; stroke: #f2f2f2; stroke-width: 0.8"/>
     </g>
     <g id="line2d_64">
      <g>
       <use xlink:href="#m5785b41bf3" x="44.7425" y="44.957006" style="stroke: #000000; stroke-width: 0.6"/>
      </g>
     </g>
    </g>
    <g id="ytick_17">
     <g id="line2d_65">
      <path d="M 44.7425 41.92278 
L 242.2745 41.92278 
" clip-path="url(#p03777ef4a5)" style="fill: none; stroke-dasharray: 2.96,1.28; stroke-dashoffset: 0; stroke: #f2f2f2; stroke-width: 0.8"/>
     </g>
     <g id="line2d_66">
      <g>
       <use xlink:href="#m5785b41bf3" x="44.7425" y="41.92278" style="stroke: #000000; stroke-width: 0.6"/>
      </g>
     </g>
    </g>
    <g id="ytick_18">
     <g id="line2d_67">
      <path d="M 44.7425 39.246402 
L 242.2745 39.246402 
" clip-path="url(#p03777ef4a5)" style="fill: none; stroke-dasharray: 2.96,1.28; stroke-dashoffset: 0; stroke: #f2f2f2; stroke-width: 0.8"/>
     </g>
     <g id="line2d_68">
      <g>
       <use xlink:href="#m5785b41bf3" x="44.7425" y="39.246402" style="stroke: #000000; stroke-width: 0.6"/>
      </g>
     </g>
    </g>
    <g id="ytick_19">
     <g id="line2d_69">
      <path d="M 44.7425 21.101957 
L 242.2745 21.101957 
" clip-path="url(#p03777ef4a5)" style="fill: none; stroke-dasharray: 2.96,1.28; stroke-dashoffset: 0; stroke: #f2f2f2; stroke-width: 0.8"/>
     </g>
     <g id="line2d_70">
      <g>
       <use xlink:href="#m5785b41bf3" x="44.7425" y="21.101957" style="stroke: #000000; stroke-width: 0.6"/>
      </g>
     </g>
    </g>
    <g id="ytick_20">
     <g id="line2d_71">
      <path d="M 44.7425 11.888596 
L 242.2745 11.888596 
" clip-path="url(#p03777ef4a5)" style="fill: none; stroke-dasharray: 2.96,1.28; stroke-dashoffset: 0; stroke: #f2f2f2; stroke-width: 0.8"/>
     </g>
     <g id="line2d_72">
      <g>
       <use xlink:href="#m5785b41bf3" x="44.7425" y="11.888596" style="stroke: #000000; stroke-width: 0.6"/>
      </g>
     </g>
    </g>
    <g id="text_6">
     <!-- Spectral acceleration, SA (g) -->
     <g transform="translate(13.27875 129.871075) rotate(-90) scale(0.08 -0.08)">
      <defs>
       <path id="DejaVuSans-53" d="M 3425 4513 
L 3425 3897 
Q 3066 4069 2747 4153 
Q 2428 4238 2131 4238 
Q 1616 4238 1336 4038 
Q 1056 3838 1056 3469 
Q 1056 3159 1242 3001 
Q 1428 2844 1947 2747 
L 2328 2669 
Q 3034 2534 3370 2195 
Q 3706 1856 3706 1288 
Q 3706 609 3251 259 
Q 2797 -91 1919 -91 
Q 1588 -91 1214 -16 
Q 841 59 441 206 
L 441 856 
Q 825 641 1194 531 
Q 1563 422 1919 422 
Q 2459 422 2753 634 
Q 3047 847 3047 1241 
Q 3047 1584 2836 1778 
Q 2625 1972 2144 2069 
L 1759 2144 
Q 1053 2284 737 2584 
Q 422 2884 422 3419 
Q 422 4038 858 4394 
Q 1294 4750 2059 4750 
Q 2388 4750 2728 4690 
Q 3069 4631 3425 4513 
z
" transform="scale(0.015625)"/>
       <path id="DejaVuSans-70" d="M 1159 525 
L 1159 -1331 
L 581 -1331 
L 581 3500 
L 1159 3500 
L 1159 2969 
Q 1341 3281 1617 3432 
Q 1894 3584 2278 3584 
Q 2916 3584 3314 3078 
Q 3713 2572 3713 1747 
Q 3713 922 3314 415 
Q 2916 -91 2278 -91 
Q 1894 -91 1617 61 
Q 1341 213 1159 525 
z
M 3116 1747 
Q 3116 2381 2855 2742 
Q 2594 3103 2138 3103 
Q 1681 3103 1420 2742 
Q 1159 2381 1159 1747 
Q 1159 1113 1420 752 
Q 1681 391 2138 391 
Q 2594 391 2855 752 
Q 3116 1113 3116 1747 
z
" transform="scale(0.015625)"/>
       <path id="DejaVuSans-63" d="M 3122 3366 
L 3122 2828 
Q 2878 2963 2633 3030 
Q 2388 3097 2138 3097 
Q 1578 3097 1268 2742 
Q 959 2388 959 1747 
Q 959 1106 1268 751 
Q 1578 397 2138 397 
Q 2388 397 2633 464 
Q 2878 531 3122 666 
L 3122 134 
Q 2881 22 2623 -34 
Q 2366 -91 2075 -91 
Q 1284 -91 818 406 
Q 353 903 353 1747 
Q 353 2603 823 3093 
Q 1294 3584 2113 3584 
Q 2378 3584 2631 3529 
Q 2884 3475 3122 3366 
z
" transform="scale(0.015625)"/>
       <path id="DejaVuSans-74" d="M 1172 4494 
L 1172 3500 
L 2356 3500 
L 2356 3053 
L 1172 3053 
L 1172 1153 
Q 1172 725 1289 603 
Q 1406 481 1766 481 
L 2356 481 
L 2356 0 
L 1766 0 
Q 1100 0 847 248 
Q 594 497 594 1153 
L 594 3053 
L 172 3053 
L 172 3500 
L 594 3500 
L 594 4494 
L 1172 4494 
z
" transform="scale(0.015625)"/>
       <path id="DejaVuSans-61" d="M 2194 1759 
Q 1497 1759 1228 1600 
Q 959 1441 959 1056 
Q 959 750 1161 570 
Q 1363 391 1709 391 
Q 2188 391 2477 730 
Q 2766 1069 2766 1631 
L 2766 1759 
L 2194 1759 
z
M 3341 1997 
L 3341 0 
L 2766 0 
L 2766 531 
Q 2569 213 2275 61 
Q 1981 -91 1556 -91 
Q 1019 -91 701 211 
Q 384 513 384 1019 
Q 384 1609 779 1909 
Q 1175 2209 1959 2209 
L 2766 2209 
L 2766 2266 
Q 2766 2663 2505 2880 
Q 2244 3097 1772 3097 
Q 1472 3097 1187 3025 
Q 903 2953 641 2809 
L 641 3341 
Q 956 3463 1253 3523 
Q 1550 3584 1831 3584 
Q 2591 3584 2966 3190 
Q 3341 2797 3341 1997 
z
" transform="scale(0.015625)"/>
       <path id="DejaVuSans-6c" d="M 603 4863 
L 1178 4863 
L 1178 0 
L 603 0 
L 603 4863 
z
" transform="scale(0.015625)"/>
       <path id="DejaVuSans-6e" d="M 3513 2113 
L 3513 0 
L 2938 0 
L 2938 2094 
Q 2938 2591 2744 2837 
Q 2550 3084 2163 3084 
Q 1697 3084 1428 2787 
Q 1159 2491 1159 1978 
L 1159 0 
L 581 0 
L 581 3500 
L 1159 3500 
L 1159 2956 
Q 1366 3272 1645 3428 
Q 1925 3584 2291 3584 
Q 2894 3584 3203 3211 
Q 3513 2838 3513 2113 
z
" transform="scale(0.015625)"/>
       <path id="DejaVuSans-41" d="M 2188 4044 
L 1331 1722 
L 3047 1722 
L 2188 4044 
z
M 1831 4666 
L 2547 4666 
L 4325 0 
L 3669 0 
L 3244 1197 
L 1141 1197 
L 716 0 
L 50 0 
L 1831 4666 
z
" transform="scale(0.015625)"/>
       <path id="DejaVuSans-67" d="M 2906 1791 
Q 2906 2416 2648 2759 
Q 2391 3103 1925 3103 
Q 1463 3103 1205 2759 
Q 947 2416 947 1791 
Q 947 1169 1205 825 
Q 1463 481 1925 481 
Q 2391 481 2648 825 
Q 2906 1169 2906 1791 
z
M 3481 434 
Q 3481 -459 3084 -895 
Q 2688 -1331 1869 -1331 
Q 1566 -1331 1297 -1286 
Q 1028 -1241 775 -1147 
L 775 -588 
Q 1028 -725 1275 -790 
Q 1522 -856 1778 -856 
Q 2344 -856 2625 -561 
Q 2906 -266 2906 331 
L 2906 616 
Q 2728 306 2450 153 
Q 2172 0 1784 0 
Q 1141 0 747 490 
Q 353 981 353 1791 
Q 353 2603 747 3093 
Q 1141 3584 1784 3584 
Q 2172 3584 2450 3431 
Q 2728 3278 2906 2969 
L 2906 3500 
L 3481 3500 
L 3481 434 
z
" transform="scale(0.015625)"/>
      </defs>
      <use xlink:href="#DejaVuSans-53"/>
      <use xlink:href="#DejaVuSans-70" x="63.476562"/>
      <use xlink:href="#DejaVuSans-65" x="126.953125"/>
      <use xlink:href="#DejaVuSans-63" x="188.476562"/>
      <use xlink:href="#DejaVuSans-74" x="243.457031"/>
      <use xlink:href="#DejaVuSans-72" x="282.666016"/>
      <use xlink:href="#DejaVuSans-61" x="323.779297"/>
      <use xlink:href="#DejaVuSans-6c" x="385.058594"/>
      <use xlink:href="#DejaVuSans-20" x="412.841797"/>
      <use xlink:href="#DejaVuSans-61" x="444.628906"/>
      <use xlink:href="#DejaVuSans-63" x="505.908203"/>
      <use xlink:href="#DejaVuSans-63" x="560.888672"/>
      <use xlink:href="#DejaVuSans-65" x="615.869141"/>
      <use xlink:href="#DejaVuSans-6c" x="677.392578"/>
      <use xlink:href="#DejaVuSans-65" x="705.175781"/>
      <use xlink:href="#DejaVuSans-72" x="766.699219"/>
      <use xlink:href="#DejaVuSans-61" x="807.8125"/>
      <use xlink:href="#DejaVuSans-74" x="869.091797"/>
      <use xlink:href="#DejaVuSans-69" x="908.300781"/>
      <use xlink:href="#DejaVuSans-6f" x="936.083984"/>
      <use xlink:href="#DejaVuSans-6e" x="997.265625"/>
      <use xlink:href="#DejaVuSans-2c" x="1060.644531"/>
      <use xlink:href="#DejaVuSans-20" x="1092.431641"/>
      <use xlink:href="#DejaVuSans-53" x="1124.21875"/>
      <use xlink:href="#DejaVuSans-41" x="1189.570312"/>
      <use xlink:href="#DejaVuSans-20" x="1257.978516"/>
      <use xlink:href="#DejaVuSans-28" x="1289.765625"/>
      <use xlink:href="#DejaVuSans-67" x="1328.779297"/>
      <use xlink:href="#DejaVuSans-29" x="1392.255859"/>
     </g>
    </g>
   </g>
   <g id="line2d_73">
    <path d="M 53.721227 33.333611 
L 72.333391 19.730995 
L 85.538931 15.450438 
L 95.781944 17.559239 
L 104.151095 13.1472 
L 117.356635 37.638019 
L 127.599648 52.137884 
L 146.211812 82.190924 
L 159.417352 89.442771 
L 171.460723 98.074935 
L 178.029516 104.031197 
L 191.235056 104.960742 
L 209.84722 99.799331 
L 223.05276 96.416843 
L 233.295773 95.755526 
" clip-path="url(#p03777ef4a5)" style="fill: none; stroke: #b2b2b2; stroke-width: 0.8; stroke-linecap: square"/>
   </g>
   <g id="line2d_74">
    <path d="M 53.721227 72.606495 
L 72.333391 51.216718 
L 85.538931 62.522009 
L 95.781944 67.913599 
L 104.151095 66.898833 
L 117.356635 72.106301 
L 127.599648 81.639632 
L 146.211812 81.52587 
L 159.417352 87.540268 
L 171.460723 80.905215 
L 178.029516 77.496029 
L 191.235056 80.905322 
L 209.84722 92.391761 
L 223.05276 108.254289 
L 233.295773 118.273268 
" clip-path="url(#p03777ef4a5)" style="fill: none; stroke: #b2b2b2; stroke-width: 0.8; stroke-linecap: square"/>
   </g>
   <g id="line2d_75">
    <path d="M 53.721227 34.864842 
L 72.333391 34.750529 
L 85.538931 25.989946 
L 95.781944 46.866907 
L 104.151095 51.237877 
L 117.356635 51.944707 
L 127.599648 62.706534 
L 146.211812 62.751869 
L 159.417352 76.143225 
L 171.460723 87.981036 
L 178.029516 96.487465 
L 191.235056 92.24103 
L 209.84722 88.944719 
L 223.05276 96.121303 
L 233.295773 115.12318 
" clip-path="url(#p03777ef4a5)" style="fill: none; stroke: #b2b2b2; stroke-width: 0.8; stroke-linecap: square"/>
   </g>
   <g id="line2d_76">
    <path d="M 53.721227 59.490017 
L 72.333391 55.481773 
L 85.538931 65.994092 
L 95.781944 74.844624 
L 104.151095 69.597154 
L 117.356635 69.43347 
L 127.599648 76.092033 
L 146.211812 78.551156 
L 159.417352 85.172517 
L 171.460723 80.681603 
L 178.029516 87.816034 
L 191.235056 86.926865 
L 209.84722 89.608585 
L 223.05276 91.88874 
L 233.295773 111.716893 
" clip-path="url(#p03777ef4a5)" style="fill: none; stroke: #b2b2b2; stroke-width: 0.8; stroke-linecap: square"/>
   </g>
   <g id="line2d_77">
    <path d="M 53.721227 47.426578 
L 72.333391 39.283345 
L 85.538931 49.526326 
L 95.781944 52.434557 
L 104.151095 59.156129 
L 117.356635 63.809081 
L 127.599648 68.475841 
L 146.211812 73.195816 
L 159.417352 68.359096 
L 171.460723 77.232258 
L 178.029516 84.562116 
L 191.235056 104.121544 
L 209.84722 100.966227 
L 223.05276 101.396522 
L 233.295773 105.728788 
" clip-path="url(#p03777ef4a5)" style="fill: none; stroke: #b2b2b2; stroke-width: 0.8; stroke-linecap: square"/>
   </g>
   <g id="line2d_78">
    <path d="M 53.721227 53.221831 
L 72.333391 43.655794 
L 85.538931 49.627395 
L 95.781944 51.999755 
L 104.151095 61.730614 
L 117.356635 70.343003 
L 127.599648 69.424789 
L 146.211812 71.367591 
L 159.417352 83.818139 
L 171.460723 85.730904 
L 178.029516 83.735993 
L 191.235056 86.267791 
L 209.84722 91.707802 
L 223.05276 105.556804 
L 233.295773 117.046309 
" clip-path="url(#p03777ef4a5)" style="fill: none; stroke: #b2b2b2; stroke-width: 0.8; stroke-linecap: square"/>
   </g>
   <g id="line2d_79">
    <path d="M 53.721227 62.929964 
L 72.333391 61.071424 
L 85.538931 62.685553 
L 95.781944 66.272248 
L 104.151095 57.350728 
L 117.356635 66.135407 
L 127.599648 63.65892 
L 146.211812 65.898971 
L 159.417352 72.077969 
L 171.460723 77.510295 
L 178.029516 85.141344 
L 191.235056 89.471661 
L 209.84722 114.121433 
L 223.05276 102.443204 
L 233.295773 100.835683 
" clip-path="url(#p03777ef4a5)" style="fill: none; stroke: #b2b2b2; stroke-width: 0.8; stroke-linecap: square"/>
   </g>
   <g id="line2d_80">
    <path d="M 53.721227 40.731594 
L 72.333391 46.170276 
L 85.538931 48.950046 
L 95.781944 43.194531 
L 104.151095 40.933293 
L 117.356635 42.587914 
L 127.599648 46.610344 
L 146.211812 60.641576 
L 159.417352 70.847968 
L 171.460723 81.621189 
L 178.029516 86.37421 
L 191.235056 87.850765 
L 209.84722 97.810281 
L 223.05276 90.764624 
L 233.295773 94.592952 
" clip-path="url(#p03777ef4a5)" style="fill: none; stroke: #b2b2b2; stroke-width: 0.8; stroke-linecap: square"/>
   </g>
   <g id="line2d_81">
    <path d="M 53.721227 50.16194 
L 72.333391 36.989805 
L 85.538931 38.964713 
L 95.781944 49.476901 
L 104.151095 44.807703 
L 117.356635 63.721575 
L 127.599648 67.674458 
L 146.211812 85.368641 
L 159.417352 80.891589 
L 171.460723 88.756719 
L 178.029516 87.009392 
L 191.235056 85.468403 
L 209.84722 92.88721 
L 223.05276 106.554094 
L 233.295773 107.445238 
" clip-path="url(#p03777ef4a5)" style="fill: none; stroke: #b2b2b2; stroke-width: 0.8; stroke-linecap: square"/>
   </g>
   <g id="line2d_82">
    <path d="M 53.721227 60.175466 
L 72.333391 77.006172 
L 85.538931 77.645595 
L 95.781944 74.548707 
L 104.151095 75.312053 
L 117.356635 69.062766 
L 127.599648 74.413574 
L 146.211812 82.506752 
L 159.417352 86.811544 
L 171.460723 80.164037 
L 178.029516 82.455038 
L 191.235056 90.320361 
L 209.84722 86.922513 
L 223.05276 91.546373 
L 233.295773 101.779435 
" clip-path="url(#p03777ef4a5)" style="fill: none; stroke: #b2b2b2; stroke-width: 0.8; stroke-linecap: square"/>
   </g>
   <g id="line2d_83">
    <path d="M 53.721227 71.511653 
L 72.333391 58.552652 
L 85.538931 55.630795 
L 95.781944 52.797602 
L 104.151095 44.64045 
L 117.356635 65.858935 
L 127.599648 72.047118 
L 146.211812 76.845105 
L 159.417352 76.995154 
L 171.460723 80.755023 
L 178.029516 80.536805 
L 191.235056 85.829806 
L 209.84722 93.584442 
L 223.05276 101.465357 
L 233.295773 108.547918 
" clip-path="url(#p03777ef4a5)" style="fill: none; stroke: #b2b2b2; stroke-width: 0.8; stroke-linecap: square"/>
   </g>
   <g id="line2d_84">
    <path d="M 53.721227 48.555176 
L 72.333391 50.962374 
L 85.538931 45.855307 
L 95.781944 47.874266 
L 104.151095 57.202152 
L 117.356635 63.313739 
L 127.599648 65.022285 
L 146.211812 76.085765 
L 159.417352 75.161023 
L 171.460723 81.675313 
L 178.029516 83.025541 
L 191.235056 87.883364 
L 209.84722 99.987296 
L 223.05276 108.697498 
L 233.295773 126.255575 
" clip-path="url(#p03777ef4a5)" style="fill: none; stroke: #b2b2b2; stroke-width: 0.8; stroke-linecap: square"/>
   </g>
   <g id="line2d_85">
    <path d="M 53.721227 55.639108 
L 72.333391 51.218874 
L 85.538931 44.310501 
L 95.781944 43.358805 
L 104.151095 44.541186 
L 117.356635 49.087808 
L 127.599648 46.270238 
L 146.211812 73.321993 
L 159.417352 76.677738 
L 171.460723 87.891296 
L 178.029516 86.811294 
L 191.235056 90.039121 
L 209.84722 88.81835 
L 223.05276 106.721048 
L 233.295773 118.769393 
" clip-path="url(#p03777ef4a5)" style="fill: none; stroke: #b2b2b2; stroke-width: 0.8; stroke-linecap: square"/>
   </g>
   <g id="line2d_86">
    <path d="M 53.721227 36.020659 
L 72.333391 35.664249 
L 85.538931 28.345282 
L 95.781944 41.223282 
L 104.151095 52.282426 
L 117.356635 61.033685 
L 127.599648 68.494355 
L 146.211812 74.778857 
L 159.417352 74.824076 
L 171.460723 81.214287 
L 178.029516 90.181175 
L 191.235056 88.659668 
L 209.84722 104.12599 
L 223.05276 110.802068 
L 233.295773 121.700845 
" clip-path="url(#p03777ef4a5)" style="fill: none; stroke: #b2b2b2; stroke-width: 0.8; stroke-linecap: square"/>
   </g>
   <g id="line2d_87">
    <path d="M 53.721227 70.783882 
L 72.333391 57.089963 
L 85.538931 54.977771 
L 95.781944 63.091415 
L 104.151095 64.6602 
L 117.356635 65.484243 
L 127.599648 63.72632 
L 146.211812 64.447583 
L 159.417352 79.796825 
L 171.460723 71.986822 
L 178.029516 80.948591 
L 191.235056 92.262966 
L 209.84722 109.404679 
L 223.05276 106.575405 
L 233.295773 116.273633 
" clip-path="url(#p03777ef4a5)" style="fill: none; stroke: #b2b2b2; stroke-width: 0.8; stroke-linecap: square"/>
   </g>
   <g id="line2d_88">
    <path d="M 53.721227 81.394765 
L 72.333391 68.68633 
L 85.538931 51.04831 
L 95.781944 70.469239 
L 104.151095 76.384972 
L 117.356635 84.851263 
L 127.599648 86.865875 
L 146.211812 84.037114 
L 159.417352 84.962359 
L 171.460723 83.119781 
L 178.029516 90.163104 
L 191.235056 81.446069 
L 209.84722 101.123778 
L 223.05276 100.566522 
L 233.295773 112.632191 
" clip-path="url(#p03777ef4a5)" style="fill: none; stroke: #b2b2b2; stroke-width: 0.8; stroke-linecap: square"/>
   </g>
   <g id="line2d_89">
    <path d="M 53.721227 54.797509 
L 72.333391 48.68707 
L 85.538931 55.310294 
L 95.781944 54.806986 
L 104.151095 69.218508 
L 117.356635 74.926401 
L 127.599648 71.210287 
L 146.211812 81.31934 
L 159.417352 82.913206 
L 171.460723 82.6694 
L 178.029516 91.102694 
L 191.235056 94.037209 
L 209.84722 89.374332 
L 223.05276 105.326304 
L 233.295773 107.397887 
" clip-path="url(#p03777ef4a5)" style="fill: none; stroke: #b2b2b2; stroke-width: 0.8; stroke-linecap: square"/>
   </g>
   <g id="line2d_90">
    <path d="M 53.721227 58.942085 
L 72.333391 54.935232 
L 85.538931 48.063542 
L 95.781944 49.297197 
L 104.151095 54.419696 
L 117.356635 59.713214 
L 127.599648 57.619133 
L 146.211812 77.579269 
L 159.417352 84.489539 
L 171.460723 81.774497 
L 178.029516 86.43182 
L 191.235056 80.814107 
L 209.84722 112.480592 
L 223.05276 103.096827 
L 233.295773 112.006251 
" clip-path="url(#p03777ef4a5)" style="fill: none; stroke: #b2b2b2; stroke-width: 0.8; stroke-linecap: square"/>
   </g>
   <g id="line2d_91">
    <path d="M 53.721227 53.399685 
L 72.333391 50.507669 
L 85.538931 49.222142 
L 95.781944 43.118754 
L 104.151095 51.699636 
L 117.356635 61.354851 
L 127.599648 70.534899 
L 146.211812 80.415632 
L 159.417352 82.577839 
L 171.460723 86.640946 
L 178.029516 86.358407 
L 191.235056 86.871047 
L 209.84722 96.038202 
L 223.05276 91.349845 
L 233.295773 102.705567 
" clip-path="url(#p03777ef4a5)" style="fill: none; stroke: #b2b2b2; stroke-width: 0.8; stroke-linecap: square"/>
   </g>
   <g id="line2d_92">
    <path d="M 53.721227 59.197999 
L 72.333391 54.265636 
L 85.538931 56.557871 
L 95.781944 61.621232 
L 104.151095 56.739893 
L 117.356635 63.97181 
L 127.599648 65.356379 
L 146.211812 76.21031 
L 159.417352 78.083049 
L 171.460723 90.383677 
L 178.029516 82.044033 
L 191.235056 82.640528 
L 209.84722 96.703353 
L 223.05276 118.879587 
L 233.295773 121.151625 
" clip-path="url(#p03777ef4a5)" style="fill: none; stroke: #b2b2b2; stroke-width: 0.8; stroke-linecap: square"/>
   </g>
   <g id="line2d_93">
    <path d="M 53.721227 42.985631 
L 72.333391 46.636757 
L 85.538931 36.060819 
L 95.781944 24.773148 
L 104.151095 36.029228 
L 117.356635 34.658438 
L 127.599648 46.998217 
L 146.211812 67.398872 
L 159.417352 80.329399 
L 171.460723 81.946844 
L 178.029516 85.921955 
L 191.235056 94.182964 
L 209.84722 98.081851 
L 223.05276 110.126005 
L 233.295773 103.35131 
" clip-path="url(#p03777ef4a5)" style="fill: none; stroke: #b2b2b2; stroke-width: 0.8; stroke-linecap: square"/>
   </g>
   <g id="line2d_94">
    <path d="M 53.721227 84.97656 
L 72.333391 77.683815 
L 85.538931 80.511307 
L 95.781944 77.149615 
L 104.151095 74.560075 
L 117.356635 73.519793 
L 127.599648 83.63451 
L 146.211812 81.017394 
L 159.417352 79.932807 
L 171.460723 83.794133 
L 178.029516 85.307666 
L 191.235056 84.769189 
L 209.84722 93.251477 
L 223.05276 92.266074 
L 233.295773 105.700107 
" clip-path="url(#p03777ef4a5)" style="fill: none; stroke: #b2b2b2; stroke-width: 0.8; stroke-linecap: square"/>
   </g>
   <g id="line2d_95">
    <path d="M 53.721227 62.097466 
L 72.333391 57.149521 
L 85.538931 43.025217 
L 95.781944 47.607687 
L 104.151095 53.734903 
L 117.356635 56.423522 
L 127.599648 64.517516 
L 146.211812 63.622179 
L 159.417352 77.312855 
L 171.460723 87.091295 
L 178.029516 77.495556 
L 191.235056 99.633139 
L 209.84722 93.894561 
L 223.05276 104.916606 
L 233.295773 110.756181 
" clip-path="url(#p03777ef4a5)" style="fill: none; stroke: #b2b2b2; stroke-width: 0.8; stroke-linecap: square"/>
   </g>
   <g id="line2d_96">
    <path d="M 53.721227 35.596486 
L 72.333391 30.592886 
L 85.538931 26.385378 
L 95.781944 34.398428 
L 104.151095 41.201111 
L 117.356635 39.256994 
L 127.599648 41.578646 
L 146.211812 61.170948 
L 159.417352 78.659576 
L 171.460723 85.159424 
L 178.029516 86.19705 
L 191.235056 92.804191 
L 209.84722 102.529919 
L 223.05276 111.724053 
L 233.295773 117.12057 
" clip-path="url(#p03777ef4a5)" style="fill: none; stroke: #b2b2b2; stroke-width: 0.8; stroke-linecap: square"/>
   </g>
   <g id="line2d_97">
    <path d="M 53.721227 64.93663 
L 72.333391 63.960027 
L 85.538931 64.165109 
L 95.781944 68.498301 
L 104.151095 68.378835 
L 117.356635 66.711347 
L 127.599648 62.015087 
L 146.211812 72.580561 
L 159.417352 83.436107 
L 171.460723 75.208904 
L 178.029516 74.742036 
L 191.235056 89.746592 
L 209.84722 105.319234 
L 223.05276 109.370132 
L 233.295773 113.043073 
" clip-path="url(#p03777ef4a5)" style="fill: none; stroke: #b2b2b2; stroke-width: 0.8; stroke-linecap: square"/>
   </g>
   <g id="line2d_98">
    <path d="M 53.721227 27.476233 
L 72.333391 31.544446 
L 85.538931 40.464833 
L 95.781944 39.750155 
L 104.151095 35.602351 
L 117.356635 43.642335 
L 127.599648 54.234186 
L 146.211812 78.955188 
L 159.417352 84.812136 
L 171.460723 81.510985 
L 178.029516 91.436191 
L 191.235056 99.012009 
L 209.84722 86.891672 
L 223.05276 96.526664 
L 233.295773 88.06613 
" clip-path="url(#p03777ef4a5)" style="fill: none; stroke: #b2b2b2; stroke-width: 0.8; stroke-linecap: square"/>
   </g>
   <g id="line2d_99">
    <path d="M 53.721227 33.489251 
L 72.333391 45.619182 
L 85.538931 65.386994 
L 95.781944 60.880086 
L 104.151095 65.125592 
L 117.356635 70.273243 
L 127.599648 72.274741 
L 146.211812 78.577062 
L 159.417352 81.022884 
L 171.460723 87.006137 
L 178.029516 83.637629 
L 191.235056 84.433676 
L 209.84722 90.60159 
L 223.05276 96.379797 
L 233.295773 102.674614 
" clip-path="url(#p03777ef4a5)" style="fill: none; stroke: #b2b2b2; stroke-width: 0.8; stroke-linecap: square"/>
   </g>
   <g id="line2d_100">
    <path d="M 53.721227 61.985146 
L 72.333391 67.371614 
L 85.538931 54.383797 
L 95.781944 45.290158 
L 104.151095 43.917893 
L 117.356635 54.298464 
L 127.599648 70.480246 
L 146.211812 76.659107 
L 159.417352 84.303744 
L 171.460723 87.916797 
L 178.029516 85.655896 
L 191.235056 89.536243 
L 209.84722 93.004428 
L 223.05276 92.979 
L 233.295773 109.299945 
" clip-path="url(#p03777ef4a5)" style="fill: none; stroke: #b2b2b2; stroke-width: 0.8; stroke-linecap: square"/>
   </g>
   <g id="line2d_101">
    <path d="M 53.721227 41.240967 
L 72.333391 26.30488 
L 85.538931 33.475044 
L 95.781944 40.444467 
L 104.151095 44.989193 
L 117.356635 51.165237 
L 127.599648 51.896362 
L 146.211812 59.065943 
L 159.417352 73.929706 
L 171.460723 86.251571 
L 178.029516 88.399186 
L 191.235056 100.021678 
L 209.84722 113.754256 
L 223.05276 122.328571 
L 233.295773 121.779992 
" clip-path="url(#p03777ef4a5)" style="fill: none; stroke: #b2b2b2; stroke-width: 0.8; stroke-linecap: square"/>
   </g>
   <g id="line2d_102">
    <path d="M 53.721227 76.110333 
L 72.333391 70.542663 
L 85.538931 62.987268 
L 95.781944 63.031035 
L 104.151095 67.196366 
L 117.356635 64.844868 
L 127.599648 69.639631 
L 146.211812 69.162388 
L 159.417352 75.839462 
L 171.460723 85.559498 
L 178.029516 83.330862 
L 191.235056 86.642997 
L 209.84722 95.632191 
L 223.05276 103.496842 
L 233.295773 119.447341 
" clip-path="url(#p03777ef4a5)" style="fill: none; stroke: #b2b2b2; stroke-width: 0.8; stroke-linecap: square"/>
   </g>
   <g id="line2d_103">
    <path d="M 53.721227 62.373156 
L 72.333391 49.120498 
L 85.538931 47.753042 
L 95.781944 40.508466 
L 104.151095 51.720085 
L 117.356635 61.396361 
L 127.599648 71.636246 
L 146.211812 88.017785 
L 159.417352 85.282614 
L 171.460723 85.294633 
L 178.029516 93.014481 
L 191.235056 85.372406 
L 209.84722 90.055276 
L 223.05276 97.24517 
L 233.295773 98.806556 
" clip-path="url(#p03777ef4a5)" style="fill: none; stroke: #b2b2b2; stroke-width: 0.8; stroke-linecap: square"/>
   </g>
   <g id="line2d_104">
    <path d="M 53.721227 54.017633 
L 72.333391 47.316567 
L 85.538931 53.545348 
L 95.781944 59.319145 
L 104.151095 55.855831 
L 117.356635 63.863028 
L 127.599648 71.426836 
L 146.211812 71.497723 
L 159.417352 75.763303 
L 171.460723 82.945977 
L 178.029516 79.476028 
L 191.235056 93.280109 
L 209.84722 93.688709 
L 223.05276 118.833587 
L 233.295773 124.058613 
" clip-path="url(#p03777ef4a5)" style="fill: none; stroke: #b2b2b2; stroke-width: 0.8; stroke-linecap: square"/>
   </g>
   <g id="line2d_105">
    <path d="M 53.721227 64.069484 
L 72.333391 65.142273 
L 85.538931 65.931102 
L 95.781944 73.099903 
L 104.151095 67.196203 
L 117.356635 71.930619 
L 127.599648 71.325548 
L 146.211812 72.696024 
L 159.417352 71.474008 
L 171.460723 78.870122 
L 178.029516 86.623964 
L 191.235056 94.206914 
L 209.84722 113.161799 
L 223.05276 118.104869 
L 233.295773 126.235805 
" clip-path="url(#p03777ef4a5)" style="fill: none; stroke: #b2b2b2; stroke-width: 0.8; stroke-linecap: square"/>
   </g>
   <g id="line2d_106">
    <path d="M 53.721227 54.768657 
L 72.333391 43.963257 
L 85.538931 45.662339 
L 95.781944 45.508826 
L 104.151095 48.511898 
L 117.356635 52.707059 
L 127.599648 53.606929 
L 146.211812 72.288312 
L 159.417352 77.564336 
L 171.460723 81.360935 
L 178.029516 92.086896 
L 191.235056 97.367545 
L 209.84722 98.954186 
L 223.05276 104.214044 
L 233.295773 105.041862 
" clip-path="url(#p03777ef4a5)" style="fill: none; stroke: #b2b2b2; stroke-width: 0.8; stroke-linecap: square"/>
   </g>
   <g id="line2d_107">
    <path d="M 53.721227 58.71684 
L 72.333391 47.425774 
L 85.538931 43.37679 
L 95.781944 41.504251 
L 104.151095 55.893713 
L 117.356635 67.178389 
L 127.599648 69.372594 
L 146.211812 69.028778 
L 159.417352 76.647342 
L 171.460723 94.20308 
L 178.029516 94.380204 
L 191.235056 90.480392 
L 209.84722 91.390163 
L 223.05276 99.647995 
L 233.295773 98.136414 
" clip-path="url(#p03777ef4a5)" style="fill: none; stroke: #b2b2b2; stroke-width: 0.8; stroke-linecap: square"/>
   </g>
   <g id="line2d_108">
    <path d="M 53.721227 45.817612 
L 72.333391 33.672772 
L 85.538931 38.27519 
L 95.781944 50.062468 
L 104.151095 58.946948 
L 117.356635 71.315975 
L 127.599648 73.981895 
L 146.211812 73.618902 
L 159.417352 84.271239 
L 171.460723 95.282984 
L 178.029516 89.770574 
L 191.235056 94.019596 
L 209.84722 93.655575 
L 223.05276 97.359804 
L 233.295773 107.213386 
" clip-path="url(#p03777ef4a5)" style="fill: none; stroke: #b2b2b2; stroke-width: 0.8; stroke-linecap: square"/>
   </g>
   <g id="line2d_109">
    <path d="M 53.721227 45.692312 
L 72.333391 40.498072 
L 85.538931 46.228323 
L 95.781944 46.435889 
L 104.151095 44.011039 
L 117.356635 39.524388 
L 127.599648 51.483142 
L 146.211812 72.031928 
L 159.417352 74.221126 
L 171.460723 74.49566 
L 178.029516 78.575427 
L 191.235056 93.328183 
L 209.84722 111.135326 
L 223.05276 121.656308 
L 233.295773 127.971559 
" clip-path="url(#p03777ef4a5)" style="fill: none; stroke: #b2b2b2; stroke-width: 0.8; stroke-linecap: square"/>
   </g>
   <g id="line2d_110">
    <path d="M 53.721227 53.395311 
L 72.333391 50.516545 
L 85.538931 52.684245 
L 95.781944 54.105861 
L 104.151095 52.624778 
L 117.356635 62.219882 
L 127.599648 58.141987 
L 146.211812 72.75619 
L 159.417352 67.714786 
L 171.460723 85.919002 
L 178.029516 88.244962 
L 191.235056 98.264523 
L 209.84722 109.760304 
L 223.05276 109.435462 
L 233.295773 108.802328 
" clip-path="url(#p03777ef4a5)" style="fill: none; stroke: #b2b2b2; stroke-width: 0.8; stroke-linecap: square"/>
   </g>
   <g id="line2d_111">
    <path d="M 53.721227 71.17445 
L 72.333391 66.393402 
L 85.538931 58.48312 
L 95.781944 57.063985 
L 104.151095 56.265399 
L 117.356635 50.265353 
L 127.599648 53.968879 
L 146.211812 65.031466 
L 159.417352 78.394779 
L 171.460723 84.118449 
L 178.029516 86.733719 
L 191.235056 89.887714 
L 209.84722 108.632574 
L 223.05276 127.720146 
L 233.295773 123.496561 
" clip-path="url(#p03777ef4a5)" style="fill: none; stroke: #b2b2b2; stroke-width: 0.8; stroke-linecap: square"/>
   </g>
   <g id="line2d_112">
    <path d="M 53.721227 38.644851 
L 72.333391 52.005863 
L 85.538931 50.675365 
L 95.781944 57.131579 
L 104.151095 64.290686 
L 117.356635 65.587846 
L 127.599648 68.622088 
L 146.211812 67.456034 
L 159.417352 73.709925 
L 171.460723 89.263783 
L 178.029516 88.859765 
L 191.235056 92.799138 
L 209.84722 88.049025 
L 223.05276 103.607441 
L 233.295773 128.127362 
" clip-path="url(#p03777ef4a5)" style="fill: none; stroke: #b2b2b2; stroke-width: 0.8; stroke-linecap: square"/>
   </g>
   <g id="line2d_113">
    <path d="M 53.721227 80.604553 
L 72.333391 81.122214 
L 85.538931 86.165407 
L 95.781944 82.811506 
L 104.151095 82.879856 
L 117.356635 79.878277 
L 127.599648 78.82245 
L 146.211812 88.201435 
L 159.417352 82.673816 
L 171.460723 90.350073 
L 178.029516 93.274626 
L 191.235056 96.15553 
L 209.84722 91.177914 
L 223.05276 84.848314 
L 233.295773 86.960763 
" clip-path="url(#p03777ef4a5)" style="fill: none; stroke: #b2b2b2; stroke-width: 0.8; stroke-linecap: square"/>
   </g>
   <g id="line2d_114">
    <path d="M 53.721227 49.414573 
L 72.333391 40.746872 
L 85.538931 37.262794 
L 95.781944 41.024539 
L 104.151095 40.534124 
L 117.356635 42.982181 
L 127.599648 57.433115 
L 146.211812 72.717688 
L 159.417352 78.623932 
L 171.460723 77.532776 
L 178.029516 85.133253 
L 191.235056 103.485334 
L 209.84722 107.242334 
L 223.05276 101.28239 
L 233.295773 114.488439 
" clip-path="url(#p03777ef4a5)" style="fill: none; stroke: #b2b2b2; stroke-width: 0.8; stroke-linecap: square"/>
   </g>
   <g id="line2d_115">
    <path d="M 53.721227 62.765445 
L 72.333391 56.225269 
L 85.538931 48.442504 
L 95.781944 40.6633 
L 104.151095 36.130056 
L 117.356635 38.241457 
L 127.599648 56.902702 
L 146.211812 68.544622 
L 159.417352 74.577464 
L 171.460723 87.946586 
L 178.029516 84.741477 
L 191.235056 83.071305 
L 209.84722 106.40701 
L 223.05276 110.126303 
L 233.295773 115.822566 
" clip-path="url(#p03777ef4a5)" style="fill: none; stroke: #b2b2b2; stroke-width: 0.8; stroke-linecap: square"/>
   </g>
   <g id="line2d_116">
    <path d="M 53.721227 40.795271 
L 72.333391 32.204316 
L 85.538931 41.077259 
L 95.781944 41.832269 
L 104.151095 45.464199 
L 117.356635 53.45025 
L 127.599648 54.744221 
L 146.211812 64.473129 
L 159.417352 76.92936 
L 171.460723 80.192123 
L 178.029516 81.691837 
L 191.235056 102.145183 
L 209.84722 94.195505 
L 223.05276 111.166587 
L 233.295773 120.814902 
" clip-path="url(#p03777ef4a5)" style="fill: none; stroke: #b2b2b2; stroke-width: 0.8; stroke-linecap: square"/>
   </g>
   <g id="line2d_117">
    <path d="M 53.721227 38.598189 
L 72.333391 39.81968 
L 85.538931 42.0926 
L 95.781944 45.156128 
L 104.151095 48.726387 
L 117.356635 68.554211 
L 127.599648 69.166005 
L 146.211812 79.960815 
L 159.417352 77.988381 
L 171.460723 78.934186 
L 178.029516 87.439563 
L 191.235056 93.804854 
L 209.84722 109.722466 
L 223.05276 109.548444 
L 233.295773 98.843679 
" clip-path="url(#p03777ef4a5)" style="fill: none; stroke: #b2b2b2; stroke-width: 0.8; stroke-linecap: square"/>
   </g>
   <g id="line2d_118">
    <path d="M 53.721227 63.265835 
L 72.333391 52.249254 
L 85.538931 47.691516 
L 95.781944 63.785268 
L 104.151095 63.256824 
L 117.356635 63.005632 
L 127.599648 60.52816 
L 146.211812 73.659344 
L 159.417352 78.364707 
L 171.460723 80.493982 
L 178.029516 86.889536 
L 191.235056 92.597469 
L 209.84722 100.914123 
L 223.05276 108.783406 
L 233.295773 111.497112 
" clip-path="url(#p03777ef4a5)" style="fill: none; stroke: #b2b2b2; stroke-width: 0.8; stroke-linecap: square"/>
   </g>
   <g id="line2d_119">
    <path d="M 53.721227 67.696505 
L 72.333391 66.827077 
L 85.538931 53.991806 
L 95.781944 49.529232 
L 104.151095 46.840475 
L 117.356635 53.4114 
L 127.599648 53.654676 
L 146.211812 65.854631 
L 159.417352 70.392524 
L 171.460723 85.293221 
L 178.029516 88.829608 
L 191.235056 93.38528 
L 209.84722 107.809278 
L 223.05276 120.680228 
L 233.295773 124.03187 
" clip-path="url(#p03777ef4a5)" style="fill: none; stroke: #b2b2b2; stroke-width: 0.8; stroke-linecap: square"/>
   </g>
   <g id="line2d_120">
    <path d="M 53.721227 43.520788 
L 72.333391 37.721422 
L 85.538931 34.363911 
L 95.781944 43.783736 
L 104.151095 44.110373 
L 117.356635 54.045346 
L 127.599648 58.959388 
L 146.211812 72.617142 
L 159.417352 90.272178 
L 171.460723 94.04327 
L 178.029516 92.573252 
L 191.235056 89.828036 
L 209.84722 96.830457 
L 223.05276 105.843254 
L 233.295773 118.703951 
" clip-path="url(#p03777ef4a5)" style="fill: none; stroke: #b2b2b2; stroke-width: 0.8; stroke-linecap: square"/>
   </g>
   <g id="line2d_121">
    <path d="M 53.721227 45.46909 
L 72.333391 43.508955 
L 85.538931 45.591444 
L 95.781944 41.425001 
L 104.151095 45.148435 
L 117.356635 58.435945 
L 127.599648 57.95613 
L 146.211812 67.450235 
L 159.417352 74.842346 
L 171.460723 82.882224 
L 178.029516 86.835911 
L 191.235056 101.142667 
L 209.84722 106.402023 
L 223.05276 108.254385 
L 233.295773 116.954987 
" clip-path="url(#p03777ef4a5)" style="fill: none; stroke: #b2b2b2; stroke-width: 0.8; stroke-linecap: square"/>
   </g>
   <g id="line2d_122">
    <path d="M 53.721227 83.2682 
L 72.333391 85.345477 
L 85.538931 73.460225 
L 95.781944 69.36934 
L 104.151095 70.978295 
L 117.356635 69.380613 
L 127.599648 65.429152 
L 146.211812 69.600504 
L 159.417352 88.415613 
L 171.460723 88.578992 
L 178.029516 85.847382 
L 191.235056 86.146137 
L 209.84722 96.301588 
L 223.05276 108.062921 
L 233.295773 124.652385 
" clip-path="url(#p03777ef4a5)" style="fill: none; stroke: #b2b2b2; stroke-width: 0.8; stroke-linecap: square"/>
   </g>
   <g id="line2d_123">
    <path d="M 53.721227 55.238581 
L 72.333391 50.727215 
L 85.538931 50.142581 
L 95.781944 52.244718 
L 104.151095 54.319952 
L 117.356635 59.891508 
L 127.599648 64.276354 
L 146.211812 73.245709 
L 159.417352 78.949871 
L 171.460723 83.919977 
L 178.029516 86.183585 
L 191.235056 91.172782 
L 209.84722 98.830674 
L 223.05276 104.797385 
L 233.295773 111.533888 
" clip-path="url(#p03777ef4a5)" style="fill: none; stroke: #ff0000; stroke-width: 2; stroke-linecap: square"/>
   </g>
   <g id="line2d_124">
    <path d="M 53.721227 26.832679 
L 72.333391 21.769776 
L 85.538931 22.155641 
L 95.781944 25.362013 
L 104.151095 28.675786 
L 117.356635 37.095803 
L 127.599648 44.277181 
L 146.211812 58.868587 
L 159.417352 68.065001 
L 171.460723 73.976675 
L 178.029516 75.819337 
L 191.235056 78.84276 
L 209.84722 82.749128 
L 223.05276 86.648769 
L 233.295773 91.268883 
" clip-path="url(#p03777ef4a5)" style="fill: none; stroke-dasharray: 7.4,3.2; stroke-dashoffset: 0; stroke: #ff0000; stroke-width: 2"/>
   </g>
   <g id="line2d_125">
    <path d="M 53.721227 83.644483 
L 72.333391 79.684655 
L 85.538931 78.129522 
L 95.781944 79.127423 
L 104.151095 79.964118 
L 117.356635 82.687214 
L 127.599648 84.275528 
L 146.211812 87.622832 
L 159.417352 89.83474 
L 171.460723 93.863279 
L 178.029516 96.547833 
L 191.235056 103.502804 
L 209.84722 114.91222 
L 223.05276 122.946001 
L 233.295773 131.798894 
" clip-path="url(#p03777ef4a5)" style="fill: none; stroke-dasharray: 7.4,3.2; stroke-dashoffset: 0; stroke: #ff0000; stroke-width: 2"/>
   </g>
   <g id="line2d_126">
    <path d="M 53.721227 55.202966 
L 72.333391 50.903165 
L 85.538931 50.12556 
L 95.781944 52.374272 
L 104.151095 54.441637 
L 117.356635 59.970933 
L 127.599648 64.088244 
L 146.211812 73.295049 
L 159.417352 79.105767 
L 171.460723 84.124338 
L 178.029516 86.517175 
L 191.235056 91.411387 
L 209.84722 98.704954 
L 223.05276 105.019161 
L 233.295773 111.75277 
" clip-path="url(#p03777ef4a5)" style="fill: none; stroke: #0000ff; stroke-width: 2; stroke-linecap: square"/>
   </g>
   <g id="line2d_127">
    <path d="M 53.721227 26.873107 
L 72.333391 22.260822 
L 85.538931 22.38591 
L 95.781944 25.557592 
L 104.151095 28.581986 
L 117.356635 36.945144 
L 127.599648 44.038928 
L 146.211812 59.056043 
L 159.417352 68.24866 
L 171.460723 73.538596 
L 178.029516 76.24269 
L 191.235056 79.110722 
L 209.84722 82.713425 
L 223.05276 86.762557 
L 233.295773 91.414341 
" clip-path="url(#p03777ef4a5)" style="fill: none; stroke-dasharray: 7.4,3.2; stroke-dashoffset: 0; stroke: #0000ff; stroke-width: 2"/>
   </g>
   <g id="line2d_128">
    <path d="M 53.721227 83.532826 
L 72.333391 79.545508 
L 85.538931 77.865211 
L 95.781944 79.190953 
L 104.151095 80.301289 
L 117.356635 82.996722 
L 127.599648 84.13756 
L 146.211812 87.534055 
L 159.417352 89.962874 
L 171.460723 94.710079 
L 178.029516 96.791661 
L 191.235056 103.712052 
L 209.84722 114.696483 
L 223.05276 123.275765 
L 233.295773 132.0912 
" clip-path="url(#p03777ef4a5)" style="fill: none; stroke-dasharray: 7.4,3.2; stroke-dashoffset: 0; stroke: #0000ff; stroke-width: 2"/>
   </g>
   <g id="patch_3">
    <path d="M 44.7425 138.0384 
L 44.7425 7.2 
" style="fill: none; stroke: #000000; stroke-width: 0.8; stroke-linejoin: miter; stroke-linecap: square"/>
   </g>
   <g id="patch_4">
    <path d="M 242.2745 138.0384 
L 242.2745 7.2 
" style="fill: none; stroke: #000000; stroke-width: 0.8; stroke-linejoin: miter; stroke-linecap: square"/>
   </g>
   <g id="patch_5">
    <path d="M 44.7425 138.0384 
L 242.2745 138.0384 
" style="fill: none; stroke: #000000; stroke-width: 0.8; stroke-linejoin: miter; stroke-linecap: square"/>
   </g>
   <g id="patch_6">
    <path d="M 44.7425 7.2 
L 242.2745 7.2 
" style="fill: none; stroke: #000000; stroke-width: 0.8; stroke-linejoin: miter; stroke-linecap: square"/>
   </g>
   <g id="legend_1">
    <g id="patch_7">
     <path d="M 247.8745 104.47295 
L 432.5945 104.47295 
Q 434.1945 104.47295 434.1945 102.87295 
L 434.1945 42.36545 
Q 434.1945 40.76545 432.5945 40.76545 
L 247.8745 40.76545 
Q 246.2745 40.76545 246.2745 42.36545 
L 246.2745 102.87295 
Q 246.2745 104.47295 247.8745 104.47295 
z
" style="fill: #ffffff; opacity: 0.8; stroke: #cccccc; stroke-linejoin: miter"/>
    </g>
    <g id="line2d_129">
     <path d="M 249.4745 47.2442 
L 257.4745 47.2442 
L 265.4745 47.2442 
" style="fill: none; stroke: #b2b2b2; stroke-width: 0.8; stroke-linecap: square"/>
    </g>
    <g id="text_7">
     <!-- Individual selected GMs -->
     <g transform="translate(271.8745 50.0442) scale(0.08 -0.08)">
      <defs>
       <path id="DejaVuSans-49" d="M 628 4666 
L 1259 4666 
L 1259 0 
L 628 0 
L 628 4666 
z
" transform="scale(0.015625)"/>
       <path id="DejaVuSans-76" d="M 191 3500 
L 800 3500 
L 1894 563 
L 2988 3500 
L 3597 3500 
L 2284 0 
L 1503 0 
L 191 3500 
z
" transform="scale(0.015625)"/>
       <path id="DejaVuSans-75" d="M 544 1381 
L 544 3500 
L 1119 3500 
L 1119 1403 
Q 1119 906 1312 657 
Q 1506 409 1894 409 
Q 2359 409 2629 706 
Q 2900 1003 2900 1516 
L 2900 3500 
L 3475 3500 
L 3475 0 
L 2900 0 
L 2900 538 
Q 2691 219 2414 64 
Q 2138 -91 1772 -91 
Q 1169 -91 856 284 
Q 544 659 544 1381 
z
M 1991 3584 
L 1991 3584 
z
" transform="scale(0.015625)"/>
       <path id="DejaVuSans-47" d="M 3809 666 
L 3809 1919 
L 2778 1919 
L 2778 2438 
L 4434 2438 
L 4434 434 
Q 4069 175 3628 42 
Q 3188 -91 2688 -91 
Q 1594 -91 976 548 
Q 359 1188 359 2328 
Q 359 3472 976 4111 
Q 1594 4750 2688 4750 
Q 3144 4750 3555 4637 
Q 3966 4525 4313 4306 
L 4313 3634 
Q 3963 3931 3569 4081 
Q 3175 4231 2741 4231 
Q 1884 4231 1454 3753 
Q 1025 3275 1025 2328 
Q 1025 1384 1454 906 
Q 1884 428 2741 428 
Q 3075 428 3337 486 
Q 3600 544 3809 666 
z
" transform="scale(0.015625)"/>
       <path id="DejaVuSans-4d" d="M 628 4666 
L 1569 4666 
L 2759 1491 
L 3956 4666 
L 4897 4666 
L 4897 0 
L 4281 0 
L 4281 4097 
L 3078 897 
L 2444 897 
L 1241 4097 
L 1241 0 
L 628 0 
L 628 4666 
z
" transform="scale(0.015625)"/>
      </defs>
      <use xlink:href="#DejaVuSans-49"/>
      <use xlink:href="#DejaVuSans-6e" x="29.492188"/>
      <use xlink:href="#DejaVuSans-64" x="92.871094"/>
      <use xlink:href="#DejaVuSans-69" x="156.347656"/>
      <use xlink:href="#DejaVuSans-76" x="184.130859"/>
      <use xlink:href="#DejaVuSans-69" x="243.310547"/>
      <use xlink:href="#DejaVuSans-64" x="271.09375"/>
      <use xlink:href="#DejaVuSans-75" x="334.570312"/>
      <use xlink:href="#DejaVuSans-61" x="397.949219"/>
      <use xlink:href="#DejaVuSans-6c" x="459.228516"/>
      <use xlink:href="#DejaVuSans-20" x="487.011719"/>
      <use xlink:href="#DejaVuSans-73" x="518.798828"/>
      <use xlink:href="#DejaVuSans-65" x="570.898438"/>
      <use xlink:href="#DejaVuSans-6c" x="632.421875"/>
      <use xlink:href="#DejaVuSans-65" x="660.205078"/>
      <use xlink:href="#DejaVuSans-63" x="721.728516"/>
      <use xlink:href="#DejaVuSans-74" x="776.708984"/>
      <use xlink:href="#DejaVuSans-65" x="815.917969"/>
      <use xlink:href="#DejaVuSans-64" x="877.441406"/>
      <use xlink:href="#DejaVuSans-20" x="940.917969"/>
      <use xlink:href="#DejaVuSans-47" x="972.705078"/>
      <use xlink:href="#DejaVuSans-4d" x="1050.195312"/>
      <use xlink:href="#DejaVuSans-73" x="1136.474609"/>
     </g>
    </g>
    <g id="line2d_130">
     <path d="M 249.4745 58.9867 
L 257.4745 58.9867 
L 265.4745 58.9867 
" style="fill: none; stroke: #ff0000; stroke-width: 2; stroke-linecap: square"/>
    </g>
    <g id="text_8">
     <!-- GCIM median -->
     <g transform="translate(271.8745 61.7867) scale(0.08 -0.08)">
      <defs>
       <path id="DejaVuSans-43" d="M 4122 4306 
L 4122 3641 
Q 3803 3938 3442 4084 
Q 3081 4231 2675 4231 
Q 1875 4231 1450 3742 
Q 1025 3253 1025 2328 
Q 1025 1406 1450 917 
Q 1875 428 2675 428 
Q 3081 428 3442 575 
Q 3803 722 4122 1019 
L 4122 359 
Q 3791 134 3420 21 
Q 3050 -91 2638 -91 
Q 1578 -91 968 557 
Q 359 1206 359 2328 
Q 359 3453 968 4101 
Q 1578 4750 2638 4750 
Q 3056 4750 3426 4639 
Q 3797 4528 4122 4306 
z
" transform="scale(0.015625)"/>
       <path id="DejaVuSans-6d" d="M 3328 2828 
Q 3544 3216 3844 3400 
Q 4144 3584 4550 3584 
Q 5097 3584 5394 3201 
Q 5691 2819 5691 2113 
L 5691 0 
L 5113 0 
L 5113 2094 
Q 5113 2597 4934 2840 
Q 4756 3084 4391 3084 
Q 3944 3084 3684 2787 
Q 3425 2491 3425 1978 
L 3425 0 
L 2847 0 
L 2847 2094 
Q 2847 2600 2669 2842 
Q 2491 3084 2119 3084 
Q 1678 3084 1418 2786 
Q 1159 2488 1159 1978 
L 1159 0 
L 581 0 
L 581 3500 
L 1159 3500 
L 1159 2956 
Q 1356 3278 1631 3431 
Q 1906 3584 2284 3584 
Q 2666 3584 2933 3390 
Q 3200 3197 3328 2828 
z
" transform="scale(0.015625)"/>
      </defs>
      <use xlink:href="#DejaVuSans-47"/>
      <use xlink:href="#DejaVuSans-43" x="77.490234"/>
      <use xlink:href="#DejaVuSans-49" x="147.314453"/>
      <use xlink:href="#DejaVuSans-4d" x="176.806641"/>
      <use xlink:href="#DejaVuSans-20" x="263.085938"/>
      <use xlink:href="#DejaVuSans-6d" x="294.873047"/>
      <use xlink:href="#DejaVuSans-65" x="392.285156"/>
      <use xlink:href="#DejaVuSans-64" x="453.808594"/>
      <use xlink:href="#DejaVuSans-69" x="517.285156"/>
      <use xlink:href="#DejaVuSans-61" x="545.068359"/>
      <use xlink:href="#DejaVuSans-6e" x="606.347656"/>
     </g>
    </g>
    <g id="line2d_131">
     <path d="M 249.4745 72.01045 
L 257.4745 72.01045 
L 265.4745 72.01045 
" style="fill: none; stroke-dasharray: 7.4,3.2; stroke-dashoffset: 0; stroke: #ff0000; stroke-width: 2"/>
    </g>
    <g id="text_9">
     <!-- GCIM $16^{th}$ and $84^{th}$ percentiles -->
     <g transform="translate(271.8745 74.81045) scale(0.08 -0.08)">
      <defs>
       <path id="DejaVuSans-36" d="M 2113 2584 
Q 1688 2584 1439 2293 
Q 1191 2003 1191 1497 
Q 1191 994 1439 701 
Q 1688 409 2113 409 
Q 2538 409 2786 701 
Q 3034 994 3034 1497 
Q 3034 2003 2786 2293 
Q 2538 2584 2113 2584 
z
M 3366 4563 
L 3366 3988 
Q 3128 4100 2886 4159 
Q 2644 4219 2406 4219 
Q 1781 4219 1451 3797 
Q 1122 3375 1075 2522 
Q 1259 2794 1537 2939 
Q 1816 3084 2150 3084 
Q 2853 3084 3261 2657 
Q 3669 2231 3669 1497 
Q 3669 778 3244 343 
Q 2819 -91 2113 -91 
Q 1303 -91 875 529 
Q 447 1150 447 2328 
Q 447 3434 972 4092 
Q 1497 4750 2381 4750 
Q 2619 4750 2861 4703 
Q 3103 4656 3366 4563 
z
" transform="scale(0.015625)"/>
       <path id="DejaVuSans-Oblique-74" d="M 2706 3500 
L 2619 3053 
L 1472 3053 
L 1100 1153 
Q 1081 1047 1072 975 
Q 1063 903 1063 863 
Q 1063 663 1183 572 
Q 1303 481 1569 481 
L 2150 481 
L 2053 0 
L 1503 0 
Q 991 0 739 200 
Q 488 400 488 806 
Q 488 878 497 964 
Q 506 1050 525 1153 
L 897 3053 
L 409 3053 
L 500 3500 
L 978 3500 
L 1172 4494 
L 1747 4494 
L 1556 3500 
L 2706 3500 
z
" transform="scale(0.015625)"/>
       <path id="DejaVuSans-Oblique-68" d="M 3566 2113 
L 3156 0 
L 2578 0 
L 2988 2091 
Q 3016 2238 3031 2350 
Q 3047 2463 3047 2528 
Q 3047 2791 2881 2937 
Q 2716 3084 2419 3084 
Q 1956 3084 1617 2771 
Q 1278 2459 1178 1941 
L 800 0 
L 225 0 
L 1172 4863 
L 1747 4863 
L 1375 2950 
Q 1594 3244 1934 3414 
Q 2275 3584 2650 3584 
Q 3113 3584 3367 3334 
Q 3622 3084 3622 2631 
Q 3622 2519 3608 2391 
Q 3594 2263 3566 2113 
z
" transform="scale(0.015625)"/>
       <path id="DejaVuSans-38" d="M 2034 2216 
Q 1584 2216 1326 1975 
Q 1069 1734 1069 1313 
Q 1069 891 1326 650 
Q 1584 409 2034 409 
Q 2484 409 2743 651 
Q 3003 894 3003 1313 
Q 3003 1734 2745 1975 
Q 2488 2216 2034 2216 
z
M 1403 2484 
Q 997 2584 770 2862 
Q 544 3141 544 3541 
Q 544 4100 942 4425 
Q 1341 4750 2034 4750 
Q 2731 4750 3128 4425 
Q 3525 4100 3525 3541 
Q 3525 3141 3298 2862 
Q 3072 2584 2669 2484 
Q 3125 2378 3379 2068 
Q 3634 1759 3634 1313 
Q 3634 634 3220 271 
Q 2806 -91 2034 -91 
Q 1263 -91 848 271 
Q 434 634 434 1313 
Q 434 1759 690 2068 
Q 947 2378 1403 2484 
z
M 1172 3481 
Q 1172 3119 1398 2916 
Q 1625 2713 2034 2713 
Q 2441 2713 2670 2916 
Q 2900 3119 2900 3481 
Q 2900 3844 2670 4047 
Q 2441 4250 2034 4250 
Q 1625 4250 1398 4047 
Q 1172 3844 1172 3481 
z
" transform="scale(0.015625)"/>
       <path id="DejaVuSans-34" d="M 2419 4116 
L 825 1625 
L 2419 1625 
L 2419 4116 
z
M 2253 4666 
L 3047 4666 
L 3047 1625 
L 3713 1625 
L 3713 1100 
L 3047 1100 
L 3047 0 
L 2419 0 
L 2419 1100 
L 313 1100 
L 313 1709 
L 2253 4666 
z
" transform="scale(0.015625)"/>
      </defs>
      <use xlink:href="#DejaVuSans-47" transform="translate(0 0.529687)"/>
      <use xlink:href="#DejaVuSans-43" transform="translate(77.490234 0.529687)"/>
      <use xlink:href="#DejaVuSans-49" transform="translate(147.314453 0.529687)"/>
      <use xlink:href="#DejaVuSans-4d" transform="translate(176.806641 0.529687)"/>
      <use xlink:href="#DejaVuSans-20" transform="translate(263.085938 0.529687)"/>
      <use xlink:href="#DejaVuSans-31" transform="translate(294.873047 0.529687)"/>
      <use xlink:href="#DejaVuSans-36" transform="translate(358.496094 0.529687)"/>
      <use xlink:href="#DejaVuSans-Oblique-74" transform="translate(423.076172 38.810937) scale(0.7)"/>
      <use xlink:href="#DejaVuSans-Oblique-68" transform="translate(450.522461 38.810937) scale(0.7)"/>
      <use xlink:href="#DejaVuSans-20" transform="translate(497.62207 0.529687)"/>
      <use xlink:href="#DejaVuSans-61" transform="translate(529.40918 0.529687)"/>
      <use xlink:href="#DejaVuSans-6e" transform="translate(590.688477 0.529687)"/>
      <use xlink:href="#DejaVuSans-64" transform="translate(654.067383 0.529687)"/>
      <use xlink:href="#DejaVuSans-20" transform="translate(717.543945 0.529687)"/>
      <use xlink:href="#DejaVuSans-38" transform="translate(749.331055 0.529687)"/>
      <use xlink:href="#DejaVuSans-34" transform="translate(812.954102 0.529687)"/>
      <use xlink:href="#DejaVuSans-Oblique-74" transform="translate(877.53418 38.810937) scale(0.7)"/>
      <use xlink:href="#DejaVuSans-Oblique-68" transform="translate(904.980469 38.810937) scale(0.7)"/>
      <use xlink:href="#DejaVuSans-20" transform="translate(952.080078 0.529687)"/>
      <use xlink:href="#DejaVuSans-70" transform="translate(983.867188 0.529687)"/>
      <use xlink:href="#DejaVuSans-65" transform="translate(1047.34375 0.529687)"/>
      <use xlink:href="#DejaVuSans-72" transform="translate(1108.867188 0.529687)"/>
      <use xlink:href="#DejaVuSans-63" transform="translate(1149.980469 0.529687)"/>
      <use xlink:href="#DejaVuSans-65" transform="translate(1204.960938 0.529687)"/>
      <use xlink:href="#DejaVuSans-6e" transform="translate(1266.484375 0.529687)"/>
      <use xlink:href="#DejaVuSans-74" transform="translate(1329.863281 0.529687)"/>
      <use xlink:href="#DejaVuSans-69" transform="translate(1369.072266 0.529687)"/>
      <use xlink:href="#DejaVuSans-6c" transform="translate(1396.855469 0.529687)"/>
      <use xlink:href="#DejaVuSans-65" transform="translate(1424.638672 0.529687)"/>
      <use xlink:href="#DejaVuSans-73" transform="translate(1486.162109 0.529687)"/>
     </g>
    </g>
    <g id="line2d_132">
     <path d="M 249.4745 83.7692 
L 257.4745 83.7692 
L 265.4745 83.7692 
" style="fill: none; stroke: #0000ff; stroke-width: 2; stroke-linecap: square"/>
    </g>
    <g id="text_10">
     <!-- Selected GMs median -->
     <g transform="translate(271.8745 86.5692) scale(0.08 -0.08)">
      <use xlink:href="#DejaVuSans-53"/>
      <use xlink:href="#DejaVuSans-65" x="63.476562"/>
      <use xlink:href="#DejaVuSans-6c" x="125"/>
      <use xlink:href="#DejaVuSans-65" x="152.783203"/>
      <use xlink:href="#DejaVuSans-63" x="214.306641"/>
      <use xlink:href="#DejaVuSans-74" x="269.287109"/>
      <use xlink:href="#DejaVuSans-65" x="308.496094"/>
      <use xlink:href="#DejaVuSans-64" x="370.019531"/>
      <use xlink:href="#DejaVuSans-20" x="433.496094"/>
      <use xlink:href="#DejaVuSans-47" x="465.283203"/>
      <use xlink:href="#DejaVuSans-4d" x="542.773438"/>
      <use xlink:href="#DejaVuSans-73" x="629.052734"/>
      <use xlink:href="#DejaVuSans-20" x="681.152344"/>
      <use xlink:href="#DejaVuSans-6d" x="712.939453"/>
      <use xlink:href="#DejaVuSans-65" x="810.351562"/>
      <use xlink:href="#DejaVuSans-64" x="871.875"/>
      <use xlink:href="#DejaVuSans-69" x="935.351562"/>
      <use xlink:href="#DejaVuSans-61" x="963.134766"/>
      <use xlink:href="#DejaVuSans-6e" x="1024.414062"/>
     </g>
    </g>
    <g id="line2d_133">
     <path d="M 249.4745 96.79295 
L 257.4745 96.79295 
L 265.4745 96.79295 
" style="fill: none; stroke-dasharray: 7.4,3.2; stroke-dashoffset: 0; stroke: #0000ff; stroke-width: 2"/>
    </g>
    <g id="text_11">
     <!-- Selected GMs, $16^{th}$ and $84^{th}$ percentiles -->
     <g transform="translate(271.8745 99.59295) scale(0.08 -0.08)">
      <use xlink:href="#DejaVuSans-53" transform="translate(0 0.529687)"/>
      <use xlink:href="#DejaVuSans-65" transform="translate(63.476562 0.529687)"/>
      <use xlink:href="#DejaVuSans-6c" transform="translate(125 0.529687)"/>
      <use xlink:href="#DejaVuSans-65" transform="translate(152.783203 0.529687)"/>
      <use xlink:href="#DejaVuSans-63" transform="translate(214.306641 0.529687)"/>
      <use xlink:href="#DejaVuSans-74" transform="translate(269.287109 0.529687)"/>
      <use xlink:href="#DejaVuSans-65" transform="translate(308.496094 0.529687)"/>
      <use xlink:href="#DejaVuSans-64" transform="translate(370.019531 0.529687)"/>
      <use xlink:href="#DejaVuSans-20" transform="translate(433.496094 0.529687)"/>
      <use xlink:href="#DejaVuSans-47" transform="translate(465.283203 0.529687)"/>
      <use xlink:href="#DejaVuSans-4d" transform="translate(542.773438 0.529687)"/>
      <use xlink:href="#DejaVuSans-73" transform="translate(629.052734 0.529687)"/>
      <use xlink:href="#DejaVuSans-2c" transform="translate(681.152344 0.529687)"/>
      <use xlink:href="#DejaVuSans-20" transform="translate(712.939453 0.529687)"/>
      <use xlink:href="#DejaVuSans-31" transform="translate(744.726562 0.529687)"/>
      <use xlink:href="#DejaVuSans-36" transform="translate(808.349609 0.529687)"/>
      <use xlink:href="#DejaVuSans-Oblique-74" transform="translate(872.929688 38.810937) scale(0.7)"/>
      <use xlink:href="#DejaVuSans-Oblique-68" transform="translate(900.375977 38.810937) scale(0.7)"/>
      <use xlink:href="#DejaVuSans-20" transform="translate(947.475586 0.529687)"/>
      <use xlink:href="#DejaVuSans-61" transform="translate(979.262695 0.529687)"/>
      <use xlink:href="#DejaVuSans-6e" transform="translate(1040.541992 0.529687)"/>
      <use xlink:href="#DejaVuSans-64" transform="translate(1103.920898 0.529687)"/>
      <use xlink:href="#DejaVuSans-20" transform="translate(1167.397461 0.529687)"/>
      <use xlink:href="#DejaVuSans-38" transform="translate(1199.18457 0.529687)"/>
      <use xlink:href="#DejaVuSans-34" transform="translate(1262.807617 0.529687)"/>
      <use xlink:href="#DejaVuSans-Oblique-74" transform="translate(1327.387695 38.810937) scale(0.7)"/>
      <use xlink:href="#DejaVuSans-Oblique-68" transform="translate(1354.833984 38.810937) scale(0.7)"/>
      <use xlink:href="#DejaVuSans-20" transform="translate(1401.933594 0.529687)"/>
      <use xlink:href="#DejaVuSans-70" transform="translate(1433.720703 0.529687)"/>
      <use xlink:href="#DejaVuSans-65" transform="translate(1497.197266 0.529687)"/>
      <use xlink:href="#DejaVuSans-72" transform="translate(1558.720703 0.529687)"/>
      <use xlink:href="#DejaVuSans-63" transform="translate(1599.833984 0.529687)"/>
      <use xlink:href="#DejaVuSans-65" transform="translate(1654.814453 0.529687)"/>
      <use xlink:href="#DejaVuSans-6e" transform="translate(1716.337891 0.529687)"/>
      <use xlink:href="#DejaVuSans-74" transform="translate(1779.716797 0.529687)"/>
      <use xlink:href="#DejaVuSans-69" transform="translate(1818.925781 0.529687)"/>
      <use xlink:href="#DejaVuSans-6c" transform="translate(1846.708984 0.529687)"/>
      <use xlink:href="#DejaVuSans-65" transform="translate(1874.492188 0.529687)"/>
      <use xlink:href="#DejaVuSans-73" transform="translate(1936.015625 0.529687)"/>
     </g>
    </g>
   </g>
  </g>
 </g>
 <defs>
  <clipPath id="p03777ef4a5">
   <rect x="44.7425" y="7.2" width="197.532" height="130.8384"/>
  </clipPath>
 </defs>
</svg>
