<?xml version="1.0" encoding="utf-8" standalone="no"?>
<!DOCTYPE svg PUBLIC "-//W3C//DTD SVG 1.1//EN"
  "http://www.w3.org/Graphics/SVG/1.1/DTD/svg11.dtd">
<svg xmlns:xlink="http://www.w3.org/1999/xlink" width="441.3945pt" height="171.7234pt" viewBox="0 0 441.3945 171.7234" xmlns="http://www.w3.org/2000/svg" version="1.1">
 <metadata>
  <rdf:RDF xmlns:dc="http://purl.org/dc/elements/1.1/" xmlns:cc="http://creativecommons.org/ns#" xmlns:rdf="http://www.w3.org/1999/02/22-rdf-syntax-ns#">
   <cc:Work>
    <dc:type rdf:resource="http://purl.org/dc/dcmitype/StillImage"/>
    <dc:date>2024-11-08T00:12:44.790374</dc:date>
    <dc:format>image/svg+xml</dc:format>
    <dc:creator>
     <cc:Agent>
      <dc:title>Matplotlib v3.8.2, https://matplotlib.org/</dc:title>
     </cc:Agent>
    </dc:creator>
   </cc:Work>
  </rdf:RDF>
 </metadata>
 <defs>
  <style type="text/css">*{stroke-linejoin: round; stroke-linecap: butt}</style>
 </defs>
 <g id="figure_1">
  <g id="patch_1">
   <path d="M 0 171.7234 
L 441.3945 171.7234 
L 441.3945 0 
L 0 0 
z
" style="fill: #ffffff"/>
  </g>
  <g id="axes_1">
   <g id="patch_2">
    <path d="M 44.7425 138.0384 
L 242.2745 138.0384 
L 242.2745 7.2 
L 44.7425 7.2 
z
" style="fill: #ffffff"/>
   </g>
   <g id="matplotlib.axis_1">
    <g id="xtick_1">
     <g id="line2d_1">
      <path d="M 53.721227 138.0384 
L 53.721227 7.2 
" clip-path="url(#pd7cc0a16bc)" style="fill: none; stroke: #d9d9d9; stroke-width: 0.8; stroke-linecap: square"/>
     </g>
     <g id="line2d_2">
      <defs>
       <path id="me4e617de41" d="M 0 0 
L 0 3.5 
" style="stroke: #000000; stroke-width: 0.8"/>
      </defs>
      <g>
       <use xlink:href="#me4e617de41" x="53.721227" y="138.0384" style="stroke: #000000; stroke-width: 0.8"/>
      </g>
     </g>
     <g id="text_1">
      <!-- $\mathdefault{10^{-1}}$ -->
      <g transform="translate(44.321227 151.11715) scale(0.08 -0.08)">
       <defs>
        <path id="DejaVuSans-31" d="M 794 531 
L 1825 531 
L 1825 4091 
L 703 3866 
L 703 4441 
L 1819 4666 
L 2450 4666 
L 2450 531 
L 3481 531 
L 3481 0 
L 794 0 
L 794 531 
z
" transform="scale(0.015625)"/>
        <path id="DejaVuSans-30" d="M 2034 4250 
Q 1547 4250 1301 3770 
Q 1056 3291 1056 2328 
Q 1056 1369 1301 889 
Q 1547 409 2034 409 
Q 2525 409 2770 889 
Q 3016 1369 3016 2328 
Q 3016 3291 2770 3770 
Q 2525 4250 2034 4250 
z
M 2034 4750 
Q 2819 4750 3233 4129 
Q 3647 3509 3647 2328 
Q 3647 1150 3233 529 
Q 2819 -91 2034 -91 
Q 1250 -91 836 529 
Q 422 1150 422 2328 
Q 422 3509 836 4129 
Q 1250 4750 2034 4750 
z
" transform="scale(0.015625)"/>
        <path id="DejaVuSans-2212" d="M 678 2272 
L 4684 2272 
L 4684 1741 
L 678 1741 
L 678 2272 
z
" transform="scale(0.015625)"/>
       </defs>
       <use xlink:href="#DejaVuSans-31" transform="translate(0 0.684375)"/>
       <use xlink:href="#DejaVuSans-30" transform="translate(63.623047 0.684375)"/>
       <use xlink:href="#DejaVuSans-2212" transform="translate(128.203125 38.965625) scale(0.7)"/>
       <use xlink:href="#DejaVuSans-31" transform="translate(186.855469 38.965625) scale(0.7)"/>
      </g>
     </g>
    </g>
    <g id="xtick_2">
     <g id="line2d_3">
      <path d="M 159.417352 138.0384 
L 159.417352 7.2 
" clip-path="url(#pd7cc0a16bc)" style="fill: none; stroke: #d9d9d9; stroke-width: 0.8; stroke-linecap: square"/>
     </g>
     <g id="line2d_4">
      <g>
       <use xlink:href="#me4e617de41" x="159.417352" y="138.0384" style="stroke: #000000; stroke-width: 0.8"/>
      </g>
     </g>
     <g id="text_2">
      <!-- $\mathdefault{10^{0}}$ -->
      <g transform="translate(152.377352 151.11715) scale(0.08 -0.08)">
       <use xlink:href="#DejaVuSans-31" transform="translate(0 0.765625)"/>
       <use xlink:href="#DejaVuSans-30" transform="translate(63.623047 0.765625)"/>
       <use xlink:href="#DejaVuSans-30" transform="translate(128.203125 39.046875) scale(0.7)"/>
      </g>
     </g>
    </g>
    <g id="xtick_3">
     <g id="line2d_5">
      <path d="M 48.884838 138.0384 
L 48.884838 7.2 
" clip-path="url(#pd7cc0a16bc)" style="fill: none; stroke-dasharray: 2.96,1.28; stroke-dashoffset: 0; stroke: #f2f2f2; stroke-width: 0.8"/>
     </g>
     <g id="line2d_6">
      <defs>
       <path id="mc9536e9f0d" d="M 0 0 
L 0 2 
" style="stroke: #000000; stroke-width: 0.6"/>
      </defs>
      <g>
       <use xlink:href="#mc9536e9f0d" x="48.884838" y="138.0384" style="stroke: #000000; stroke-width: 0.6"/>
      </g>
     </g>
    </g>
    <g id="xtick_4">
     <g id="line2d_7">
      <path d="M 85.538931 138.0384 
L 85.538931 7.2 
" clip-path="url(#pd7cc0a16bc)" style="fill: none; stroke-dasharray: 2.96,1.28; stroke-dashoffset: 0; stroke: #f2f2f2; stroke-width: 0.8"/>
     </g>
     <g id="line2d_8">
      <g>
       <use xlink:href="#mc9536e9f0d" x="85.538931" y="138.0384" style="stroke: #000000; stroke-width: 0.6"/>
      </g>
     </g>
    </g>
    <g id="xtick_5">
     <g id="line2d_9">
      <path d="M 104.151095 138.0384 
L 104.151095 7.2 
" clip-path="url(#pd7cc0a16bc)" style="fill: none; stroke-dasharray: 2.96,1.28; stroke-dashoffset: 0; stroke: #f2f2f2; stroke-width: 0.8"/>
     </g>
     <g id="line2d_10">
      <g>
       <use xlink:href="#mc9536e9f0d" x="104.151095" y="138.0384" style="stroke: #000000; stroke-width: 0.6"/>
      </g>
     </g>
    </g>
    <g id="xtick_6">
     <g id="line2d_11">
      <path d="M 117.356635 138.0384 
L 117.356635 7.2 
" clip-path="url(#pd7cc0a16bc)" style="fill: none; stroke-dasharray: 2.96,1.28; stroke-dashoffset: 0; stroke: #f2f2f2; stroke-width: 0.8"/>
     </g>
     <g id="line2d_12">
      <g>
       <use xlink:href="#mc9536e9f0d" x="117.356635" y="138.0384" style="stroke: #000000; stroke-width: 0.6"/>
      </g>
     </g>
    </g>
    <g id="xtick_7">
     <g id="line2d_13">
      <path d="M 127.599648 138.0384 
L 127.599648 7.2 
" clip-path="url(#pd7cc0a16bc)" style="fill: none; stroke-dasharray: 2.96,1.28; stroke-dashoffset: 0; stroke: #f2f2f2; stroke-width: 0.8"/>
     </g>
     <g id="line2d_14">
      <g>
       <use xlink:href="#mc9536e9f0d" x="127.599648" y="138.0384" style="stroke: #000000; stroke-width: 0.6"/>
      </g>
     </g>
    </g>
    <g id="xtick_8">
     <g id="line2d_15">
      <path d="M 135.968799 138.0384 
L 135.968799 7.2 
" clip-path="url(#pd7cc0a16bc)" style="fill: none; stroke-dasharray: 2.96,1.28; stroke-dashoffset: 0; stroke: #f2f2f2; stroke-width: 0.8"/>
     </g>
     <g id="line2d_16">
      <g>
       <use xlink:href="#mc9536e9f0d" x="135.968799" y="138.0384" style="stroke: #000000; stroke-width: 0.6"/>
      </g>
     </g>
    </g>
    <g id="xtick_9">
     <g id="line2d_17">
      <path d="M 143.044815 138.0384 
L 143.044815 7.2 
" clip-path="url(#pd7cc0a16bc)" style="fill: none; stroke-dasharray: 2.96,1.28; stroke-dashoffset: 0; stroke: #f2f2f2; stroke-width: 0.8"/>
     </g>
     <g id="line2d_18">
      <g>
       <use xlink:href="#mc9536e9f0d" x="143.044815" y="138.0384" style="stroke: #000000; stroke-width: 0.6"/>
      </g>
     </g>
    </g>
    <g id="xtick_10">
     <g id="line2d_19">
      <path d="M 149.174339 138.0384 
L 149.174339 7.2 
" clip-path="url(#pd7cc0a16bc)" style="fill: none; stroke-dasharray: 2.96,1.28; stroke-dashoffset: 0; stroke: #f2f2f2; stroke-width: 0.8"/>
     </g>
     <g id="line2d_20">
      <g>
       <use xlink:href="#mc9536e9f0d" x="149.174339" y="138.0384" style="stroke: #000000; stroke-width: 0.6"/>
      </g>
     </g>
    </g>
    <g id="xtick_11">
     <g id="line2d_21">
      <path d="M 154.580963 138.0384 
L 154.580963 7.2 
" clip-path="url(#pd7cc0a16bc)" style="fill: none; stroke-dasharray: 2.96,1.28; stroke-dashoffset: 0; stroke: #f2f2f2; stroke-width: 0.8"/>
     </g>
     <g id="line2d_22">
      <g>
       <use xlink:href="#mc9536e9f0d" x="154.580963" y="138.0384" style="stroke: #000000; stroke-width: 0.6"/>
      </g>
     </g>
    </g>
    <g id="xtick_12">
     <g id="line2d_23">
      <path d="M 191.235056 138.0384 
L 191.235056 7.2 
" clip-path="url(#pd7cc0a16bc)" style="fill: none; stroke-dasharray: 2.96,1.28; stroke-dashoffset: 0; stroke: #f2f2f2; stroke-width: 0.8"/>
     </g>
     <g id="line2d_24">
      <g>
       <use xlink:href="#mc9536e9f0d" x="191.235056" y="138.0384" style="stroke: #000000; stroke-width: 0.6"/>
      </g>
     </g>
    </g>
    <g id="xtick_13">
     <g id="line2d_25">
      <path d="M 209.84722 138.0384 
L 209.84722 7.2 
" clip-path="url(#pd7cc0a16bc)" style="fill: none; stroke-dasharray: 2.96,1.28; stroke-dashoffset: 0; stroke: #f2f2f2; stroke-width: 0.8"/>
     </g>
     <g id="line2d_26">
      <g>
       <use xlink:href="#mc9536e9f0d" x="209.84722" y="138.0384" style="stroke: #000000; stroke-width: 0.6"/>
      </g>
     </g>
    </g>
    <g id="xtick_14">
     <g id="line2d_27">
      <path d="M 223.05276 138.0384 
L 223.05276 7.2 
" clip-path="url(#pd7cc0a16bc)" style="fill: none; stroke-dasharray: 2.96,1.28; stroke-dashoffset: 0; stroke: #f2f2f2; stroke-width: 0.8"/>
     </g>
     <g id="line2d_28">
      <g>
       <use xlink:href="#mc9536e9f0d" x="223.05276" y="138.0384" style="stroke: #000000; stroke-width: 0.6"/>
      </g>
     </g>
    </g>
    <g id="xtick_15">
     <g id="line2d_29">
      <path d="M 233.295773 138.0384 
L 233.295773 7.2 
" clip-path="url(#pd7cc0a16bc)" style="fill: none; stroke-dasharray: 2.96,1.28; stroke-dashoffset: 0; stroke: #f2f2f2; stroke-width: 0.8"/>
     </g>
     <g id="line2d_30">
      <g>
       <use xlink:href="#mc9536e9f0d" x="233.295773" y="138.0384" style="stroke: #000000; stroke-width: 0.6"/>
      </g>
     </g>
    </g>
    <g id="xtick_16">
     <g id="line2d_31">
      <path d="M 241.664924 138.0384 
L 241.664924 7.2 
" clip-path="url(#pd7cc0a16bc)" style="fill: none; stroke-dasharray: 2.96,1.28; stroke-dashoffset: 0; stroke: #f2f2f2; stroke-width: 0.8"/>
     </g>
     <g id="line2d_32">
      <g>
       <use xlink:href="#mc9536e9f0d" x="241.664924" y="138.0384" style="stroke: #000000; stroke-width: 0.6"/>
      </g>
     </g>
    </g>
    <g id="text_3">
     <!-- Period, T (s) -->
     <g transform="translate(119.576 162.85965) scale(0.08 -0.08)">
      <defs>
       <path id="DejaVuSans-50" d="M 1259 4147 
L 1259 2394 
L 2053 2394 
Q 2494 2394 2734 2622 
Q 2975 2850 2975 3272 
Q 2975 3691 2734 3919 
Q 2494 4147 2053 4147 
L 1259 4147 
z
M 628 4666 
L 2053 4666 
Q 2838 4666 3239 4311 
Q 3641 3956 3641 3272 
Q 3641 2581 3239 2228 
Q 2838 1875 2053 1875 
L 1259 1875 
L 1259 0 
L 628 0 
L 628 4666 
z
" transform="scale(0.015625)"/>
       <path id="DejaVuSans-65" d="M 3597 1894 
L 3597 1613 
L 953 1613 
Q 991 1019 1311 708 
Q 1631 397 2203 397 
Q 2534 397 2845 478 
Q 3156 559 3463 722 
L 3463 178 
Q 3153 47 2828 -22 
Q 2503 -91 2169 -91 
Q 1331 -91 842 396 
Q 353 884 353 1716 
Q 353 2575 817 3079 
Q 1281 3584 2069 3584 
Q 2775 3584 3186 3129 
Q 3597 2675 3597 1894 
z
M 3022 2063 
Q 3016 2534 2758 2815 
Q 2500 3097 2075 3097 
Q 1594 3097 1305 2825 
Q 1016 2553 972 2059 
L 3022 2063 
z
" transform="scale(0.015625)"/>
       <path id="DejaVuSans-72" d="M 2631 2963 
Q 2534 3019 2420 3045 
Q 2306 3072 2169 3072 
Q 1681 3072 1420 2755 
Q 1159 2438 1159 1844 
L 1159 0 
L 581 0 
L 581 3500 
L 1159 3500 
L 1159 2956 
Q 1341 3275 1631 3429 
Q 1922 3584 2338 3584 
Q 2397 3584 2469 3576 
Q 2541 3569 2628 3553 
L 2631 2963 
z
" transform="scale(0.015625)"/>
       <path id="DejaVuSans-69" d="M 603 3500 
L 1178 3500 
L 1178 0 
L 603 0 
L 603 3500 
z
M 603 4863 
L 1178 4863 
L 1178 4134 
L 603 4134 
L 603 4863 
z
" transform="scale(0.015625)"/>
       <path id="DejaVuSans-6f" d="M 1959 3097 
Q 1497 3097 1228 2736 
Q 959 2375 959 1747 
Q 959 1119 1226 758 
Q 1494 397 1959 397 
Q 2419 397 2687 759 
Q 2956 1122 2956 1747 
Q 2956 2369 2687 2733 
Q 2419 3097 1959 3097 
z
M 1959 3584 
Q 2709 3584 3137 3096 
Q 3566 2609 3566 1747 
Q 3566 888 3137 398 
Q 2709 -91 1959 -91 
Q 1206 -91 779 398 
Q 353 888 353 1747 
Q 353 2609 779 3096 
Q 1206 3584 1959 3584 
z
" transform="scale(0.015625)"/>
       <path id="DejaVuSans-64" d="M 2906 2969 
L 2906 4863 
L 3481 4863 
L 3481 0 
L 2906 0 
L 2906 525 
Q 2725 213 2448 61 
Q 2172 -91 1784 -91 
Q 1150 -91 751 415 
Q 353 922 353 1747 
Q 353 2572 751 3078 
Q 1150 3584 1784 3584 
Q 2172 3584 2448 3432 
Q 2725 3281 2906 2969 
z
M 947 1747 
Q 947 1113 1208 752 
Q 1469 391 1925 391 
Q 2381 391 2643 752 
Q 2906 1113 2906 1747 
Q 2906 2381 2643 2742 
Q 2381 3103 1925 3103 
Q 1469 3103 1208 2742 
Q 947 2381 947 1747 
z
" transform="scale(0.015625)"/>
       <path id="DejaVuSans-2c" d="M 750 794 
L 1409 794 
L 1409 256 
L 897 -744 
L 494 -744 
L 750 256 
L 750 794 
z
" transform="scale(0.015625)"/>
       <path id="DejaVuSans-20" transform="scale(0.015625)"/>
       <path id="DejaVuSans-54" d="M -19 4666 
L 3928 4666 
L 3928 4134 
L 2272 4134 
L 2272 0 
L 1638 0 
L 1638 4134 
L -19 4134 
L -19 4666 
z
" transform="scale(0.015625)"/>
       <path id="DejaVuSans-28" d="M 1984 4856 
Q 1566 4138 1362 3434 
Q 1159 2731 1159 2009 
Q 1159 1288 1364 580 
Q 1569 -128 1984 -844 
L 1484 -844 
Q 1016 -109 783 600 
Q 550 1309 550 2009 
Q 550 2706 781 3412 
Q 1013 4119 1484 4856 
L 1984 4856 
z
" transform="scale(0.015625)"/>
       <path id="DejaVuSans-73" d="M 2834 3397 
L 2834 2853 
Q 2591 2978 2328 3040 
Q 2066 3103 1784 3103 
Q 1356 3103 1142 2972 
Q 928 2841 928 2578 
Q 928 2378 1081 2264 
Q 1234 2150 1697 2047 
L 1894 2003 
Q 2506 1872 2764 1633 
Q 3022 1394 3022 966 
Q 3022 478 2636 193 
Q 2250 -91 1575 -91 
Q 1294 -91 989 -36 
Q 684 19 347 128 
L 347 722 
Q 666 556 975 473 
Q 1284 391 1588 391 
Q 1994 391 2212 530 
Q 2431 669 2431 922 
Q 2431 1156 2273 1281 
Q 2116 1406 1581 1522 
L 1381 1569 
Q 847 1681 609 1914 
Q 372 2147 372 2553 
Q 372 3047 722 3315 
Q 1072 3584 1716 3584 
Q 2034 3584 2315 3537 
Q 2597 3491 2834 3397 
z
" transform="scale(0.015625)"/>
       <path id="DejaVuSans-29" d="M 513 4856 
L 1013 4856 
Q 1481 4119 1714 3412 
Q 1947 2706 1947 2009 
Q 1947 1309 1714 600 
Q 1481 -109 1013 -844 
L 513 -844 
Q 928 -128 1133 580 
Q 1338 1288 1338 2009 
Q 1338 2731 1133 3434 
Q 928 4138 513 4856 
z
" transform="scale(0.015625)"/>
      </defs>
      <use xlink:href="#DejaVuSans-50"/>
      <use xlink:href="#DejaVuSans-65" x="56.677734"/>
      <use xlink:href="#DejaVuSans-72" x="118.201172"/>
      <use xlink:href="#DejaVuSans-69" x="159.314453"/>
      <use xlink:href="#DejaVuSans-6f" x="187.097656"/>
      <use xlink:href="#DejaVuSans-64" x="248.279297"/>
      <use xlink:href="#DejaVuSans-2c" x="311.755859"/>
      <use xlink:href="#DejaVuSans-20" x="343.542969"/>
      <use xlink:href="#DejaVuSans-54" x="375.330078"/>
      <use xlink:href="#DejaVuSans-20" x="436.414062"/>
      <use xlink:href="#DejaVuSans-28" x="468.201172"/>
      <use xlink:href="#DejaVuSans-73" x="507.214844"/>
      <use xlink:href="#DejaVuSans-29" x="559.314453"/>
     </g>
    </g>
   </g>
   <g id="matplotlib.axis_2">
    <g id="ytick_1">
     <g id="line2d_33">
      <path d="M 44.7425 82.954064 
L 242.2745 82.954064 
" clip-path="url(#pd7cc0a16bc)" style="fill: none; stroke: #d9d9d9; stroke-width: 0.8; stroke-linecap: square"/>
     </g>
     <g id="line2d_34">
      <defs>
       <path id="mc5e52a9d97" d="M 0 0 
L -3.5 0 
" style="stroke: #000000; stroke-width: 0.8"/>
      </defs>
      <g>
       <use xlink:href="#mc5e52a9d97" x="44.7425" y="82.954064" style="stroke: #000000; stroke-width: 0.8"/>
      </g>
     </g>
     <g id="text_4">
      <!-- $\mathdefault{10^{-1}}$ -->
      <g transform="translate(18.9425 85.993439) scale(0.08 -0.08)">
       <use xlink:href="#DejaVuSans-31" transform="translate(0 0.684375)"/>
       <use xlink:href="#DejaVuSans-30" transform="translate(63.623047 0.684375)"/>
       <use xlink:href="#DejaVuSans-2212" transform="translate(128.203125 38.965625) scale(0.7)"/>
       <use xlink:href="#DejaVuSans-31" transform="translate(186.855469 38.965625) scale(0.7)"/>
      </g>
     </g>
    </g>
    <g id="ytick_2">
     <g id="line2d_35">
      <path d="M 44.7425 20.838279 
L 242.2745 20.838279 
" clip-path="url(#pd7cc0a16bc)" style="fill: none; stroke: #d9d9d9; stroke-width: 0.8; stroke-linecap: square"/>
     </g>
     <g id="line2d_36">
      <g>
       <use xlink:href="#mc5e52a9d97" x="44.7425" y="20.838279" style="stroke: #000000; stroke-width: 0.8"/>
      </g>
     </g>
     <g id="text_5">
      <!-- $\mathdefault{10^{0}}$ -->
      <g transform="translate(23.6625 23.877654) scale(0.08 -0.08)">
       <use xlink:href="#DejaVuSans-31" transform="translate(0 0.765625)"/>
       <use xlink:href="#DejaVuSans-30" transform="translate(63.623047 0.765625)"/>
       <use xlink:href="#DejaVuSans-30" transform="translate(128.203125 39.046875) scale(0.7)"/>
      </g>
     </g>
    </g>
    <g id="ytick_3">
     <g id="line2d_37">
      <path d="M 44.7425 126.371135 
L 242.2745 126.371135 
" clip-path="url(#pd7cc0a16bc)" style="fill: none; stroke-dasharray: 2.96,1.28; stroke-dashoffset: 0; stroke: #f2f2f2; stroke-width: 0.8"/>
     </g>
     <g id="line2d_38">
      <defs>
       <path id="ma74403d295" d="M 0 0 
L -2 0 
" style="stroke: #000000; stroke-width: 0.6"/>
      </defs>
      <g>
       <use xlink:href="#ma74403d295" x="44.7425" y="126.371135" style="stroke: #000000; stroke-width: 0.6"/>
      </g>
     </g>
    </g>
    <g id="ytick_4">
     <g id="line2d_39">
      <path d="M 44.7425 115.433089 
L 242.2745 115.433089 
" clip-path="url(#pd7cc0a16bc)" style="fill: none; stroke-dasharray: 2.96,1.28; stroke-dashoffset: 0; stroke: #f2f2f2; stroke-width: 0.8"/>
     </g>
     <g id="line2d_40">
      <g>
       <use xlink:href="#ma74403d295" x="44.7425" y="115.433089" style="stroke: #000000; stroke-width: 0.6"/>
      </g>
     </g>
    </g>
    <g id="ytick_5">
     <g id="line2d_41">
      <path d="M 44.7425 107.672421 
L 242.2745 107.672421 
" clip-path="url(#pd7cc0a16bc)" style="fill: none; stroke-dasharray: 2.96,1.28; stroke-dashoffset: 0; stroke: #f2f2f2; stroke-width: 0.8"/>
     </g>
     <g id="line2d_42">
      <g>
       <use xlink:href="#ma74403d295" x="44.7425" y="107.672421" style="stroke: #000000; stroke-width: 0.6"/>
      </g>
     </g>
    </g>
    <g id="ytick_6">
     <g id="line2d_43">
      <path d="M 44.7425 101.652779 
L 242.2745 101.652779 
" clip-path="url(#pd7cc0a16bc)" style="fill: none; stroke-dasharray: 2.96,1.28; stroke-dashoffset: 0; stroke: #f2f2f2; stroke-width: 0.8"/>
     </g>
     <g id="line2d_44">
      <g>
       <use xlink:href="#ma74403d295" x="44.7425" y="101.652779" style="stroke: #000000; stroke-width: 0.6"/>
      </g>
     </g>
    </g>
    <g id="ytick_7">
     <g id="line2d_45">
      <path d="M 44.7425 96.734374 
L 242.2745 96.734374 
" clip-path="url(#pd7cc0a16bc)" style="fill: none; stroke-dasharray: 2.96,1.28; stroke-dashoffset: 0; stroke: #f2f2f2; stroke-width: 0.8"/>
     </g>
     <g id="line2d_46">
      <g>
       <use xlink:href="#ma74403d295" x="44.7425" y="96.734374" style="stroke: #000000; stroke-width: 0.6"/>
      </g>
     </g>
    </g>
    <g id="ytick_8">
     <g id="line2d_47">
      <path d="M 44.7425 92.575921 
L 242.2745 92.575921 
" clip-path="url(#pd7cc0a16bc)" style="fill: none; stroke-dasharray: 2.96,1.28; stroke-dashoffset: 0; stroke: #f2f2f2; stroke-width: 0.8"/>
     </g>
     <g id="line2d_48">
      <g>
       <use xlink:href="#ma74403d295" x="44.7425" y="92.575921" style="stroke: #000000; stroke-width: 0.6"/>
      </g>
     </g>
    </g>
    <g id="ytick_9">
     <g id="line2d_49">
      <path d="M 44.7425 88.973706 
L 242.2745 88.973706 
" clip-path="url(#pd7cc0a16bc)" style="fill: none; stroke-dasharray: 2.96,1.28; stroke-dashoffset: 0; stroke: #f2f2f2; stroke-width: 0.8"/>
     </g>
     <g id="line2d_50">
      <g>
       <use xlink:href="#ma74403d295" x="44.7425" y="88.973706" style="stroke: #000000; stroke-width: 0.6"/>
      </g>
     </g>
    </g>
    <g id="ytick_10">
     <g id="line2d_51">
      <path d="M 44.7425 85.796327 
L 242.2745 85.796327 
" clip-path="url(#pd7cc0a16bc)" style="fill: none; stroke-dasharray: 2.96,1.28; stroke-dashoffset: 0; stroke: #f2f2f2; stroke-width: 0.8"/>
     </g>
     <g id="line2d_52">
      <g>
       <use xlink:href="#ma74403d295" x="44.7425" y="85.796327" style="stroke: #000000; stroke-width: 0.6"/>
      </g>
     </g>
    </g>
    <g id="ytick_11">
     <g id="line2d_53">
      <path d="M 44.7425 64.25535 
L 242.2745 64.25535 
" clip-path="url(#pd7cc0a16bc)" style="fill: none; stroke-dasharray: 2.96,1.28; stroke-dashoffset: 0; stroke: #f2f2f2; stroke-width: 0.8"/>
     </g>
     <g id="line2d_54">
      <g>
       <use xlink:href="#ma74403d295" x="44.7425" y="64.25535" style="stroke: #000000; stroke-width: 0.6"/>
      </g>
     </g>
    </g>
    <g id="ytick_12">
     <g id="line2d_55">
      <path d="M 44.7425 53.317303 
L 242.2745 53.317303 
" clip-path="url(#pd7cc0a16bc)" style="fill: none; stroke-dasharray: 2.96,1.28; stroke-dashoffset: 0; stroke: #f2f2f2; stroke-width: 0.8"/>
     </g>
     <g id="line2d_56">
      <g>
       <use xlink:href="#ma74403d295" x="44.7425" y="53.317303" style="stroke: #000000; stroke-width: 0.6"/>
      </g>
     </g>
    </g>
    <g id="ytick_13">
     <g id="line2d_57">
      <path d="M 44.7425 45.556635 
L 242.2745 45.556635 
" clip-path="url(#pd7cc0a16bc)" style="fill: none; stroke-dasharray: 2.96,1.28; stroke-dashoffset: 0; stroke: #f2f2f2; stroke-width: 0.8"/>
     </g>
     <g id="line2d_58">
      <g>
       <use xlink:href="#ma74403d295" x="44.7425" y="45.556635" style="stroke: #000000; stroke-width: 0.6"/>
      </g>
     </g>
    </g>
    <g id="ytick_14">
     <g id="line2d_59">
      <path d="M 44.7425 39.536994 
L 242.2745 39.536994 
" clip-path="url(#pd7cc0a16bc)" style="fill: none; stroke-dasharray: 2.96,1.28; stroke-dashoffset: 0; stroke: #f2f2f2; stroke-width: 0.8"/>
     </g>
     <g id="line2d_60">
      <g>
       <use xlink:href="#ma74403d295" x="44.7425" y="39.536994" style="stroke: #000000; stroke-width: 0.6"/>
      </g>
     </g>
    </g>
    <g id="ytick_15">
     <g id="line2d_61">
      <path d="M 44.7425 34.618588 
L 242.2745 34.618588 
" clip-path="url(#pd7cc0a16bc)" style="fill: none; stroke-dasharray: 2.96,1.28; stroke-dashoffset: 0; stroke: #f2f2f2; stroke-width: 0.8"/>
     </g>
     <g id="line2d_62">
      <g>
       <use xlink:href="#ma74403d295" x="44.7425" y="34.618588" style="stroke: #000000; stroke-width: 0.6"/>
      </g>
     </g>
    </g>
    <g id="ytick_16">
     <g id="line2d_63">
      <path d="M 44.7425 30.460136 
L 242.2745 30.460136 
" clip-path="url(#pd7cc0a16bc)" style="fill: none; stroke-dasharray: 2.96,1.28; stroke-dashoffset: 0; stroke: #f2f2f2; stroke-width: 0.8"/>
     </g>
     <g id="line2d_64">
      <g>
       <use xlink:href="#ma74403d295" x="44.7425" y="30.460136" style="stroke: #000000; stroke-width: 0.6"/>
      </g>
     </g>
    </g>
    <g id="ytick_17">
     <g id="line2d_65">
      <path d="M 44.7425 26.85792 
L 242.2745 26.85792 
" clip-path="url(#pd7cc0a16bc)" style="fill: none; stroke-dasharray: 2.96,1.28; stroke-dashoffset: 0; stroke: #f2f2f2; stroke-width: 0.8"/>
     </g>
     <g id="line2d_66">
      <g>
       <use xlink:href="#ma74403d295" x="44.7425" y="26.85792" style="stroke: #000000; stroke-width: 0.6"/>
      </g>
     </g>
    </g>
    <g id="ytick_18">
     <g id="line2d_67">
      <path d="M 44.7425 23.680541 
L 242.2745 23.680541 
" clip-path="url(#pd7cc0a16bc)" style="fill: none; stroke-dasharray: 2.96,1.28; stroke-dashoffset: 0; stroke: #f2f2f2; stroke-width: 0.8"/>
     </g>
     <g id="line2d_68">
      <g>
       <use xlink:href="#ma74403d295" x="44.7425" y="23.680541" style="stroke: #000000; stroke-width: 0.6"/>
      </g>
     </g>
    </g>
    <g id="text_6">
     <!-- Spectral acceleration, SA (g) -->
     <g transform="translate(13.27875 129.871075) rotate(-90) scale(0.08 -0.08)">
      <defs>
       <path id="DejaVuSans-53" d="M 3425 4513 
L 3425 3897 
Q 3066 4069 2747 4153 
Q 2428 4238 2131 4238 
Q 1616 4238 1336 4038 
Q 1056 3838 1056 3469 
Q 1056 3159 1242 3001 
Q 1428 2844 1947 2747 
L 2328 2669 
Q 3034 2534 3370 2195 
Q 3706 1856 3706 1288 
Q 3706 609 3251 259 
Q 2797 -91 1919 -91 
Q 1588 -91 1214 -16 
Q 841 59 441 206 
L 441 856 
Q 825 641 1194 531 
Q 1563 422 1919 422 
Q 2459 422 2753 634 
Q 3047 847 3047 1241 
Q 3047 1584 2836 1778 
Q 2625 1972 2144 2069 
L 1759 2144 
Q 1053 2284 737 2584 
Q 422 2884 422 3419 
Q 422 4038 858 4394 
Q 1294 4750 2059 4750 
Q 2388 4750 2728 4690 
Q 3069 4631 3425 4513 
z
" transform="scale(0.015625)"/>
       <path id="DejaVuSans-70" d="M 1159 525 
L 1159 -1331 
L 581 -1331 
L 581 3500 
L 1159 3500 
L 1159 2969 
Q 1341 3281 1617 3432 
Q 1894 3584 2278 3584 
Q 2916 3584 3314 3078 
Q 3713 2572 3713 1747 
Q 3713 922 3314 415 
Q 2916 -91 2278 -91 
Q 1894 -91 1617 61 
Q 1341 213 1159 525 
z
M 3116 1747 
Q 3116 2381 2855 2742 
Q 2594 3103 2138 3103 
Q 1681 3103 1420 2742 
Q 1159 2381 1159 1747 
Q 1159 1113 1420 752 
Q 1681 391 2138 391 
Q 2594 391 2855 752 
Q 3116 1113 3116 1747 
z
" transform="scale(0.015625)"/>
       <path id="DejaVuSans-63" d="M 3122 3366 
L 3122 2828 
Q 2878 2963 2633 3030 
Q 2388 3097 2138 3097 
Q 1578 3097 1268 2742 
Q 959 2388 959 1747 
Q 959 1106 1268 751 
Q 1578 397 2138 397 
Q 2388 397 2633 464 
Q 2878 531 3122 666 
L 3122 134 
Q 2881 22 2623 -34 
Q 2366 -91 2075 -91 
Q 1284 -91 818 406 
Q 353 903 353 1747 
Q 353 2603 823 3093 
Q 1294 3584 2113 3584 
Q 2378 3584 2631 3529 
Q 2884 3475 3122 3366 
z
" transform="scale(0.015625)"/>
       <path id="DejaVuSans-74" d="M 1172 4494 
L 1172 3500 
L 2356 3500 
L 2356 3053 
L 1172 3053 
L 1172 1153 
Q 1172 725 1289 603 
Q 1406 481 1766 481 
L 2356 481 
L 2356 0 
L 1766 0 
Q 1100 0 847 248 
Q 594 497 594 1153 
L 594 3053 
L 172 3053 
L 172 3500 
L 594 3500 
L 594 4494 
L 1172 4494 
z
" transform="scale(0.015625)"/>
       <path id="DejaVuSans-61" d="M 2194 1759 
Q 1497 1759 1228 1600 
Q 959 1441 959 1056 
Q 959 750 1161 570 
Q 1363 391 1709 391 
Q 2188 391 2477 730 
Q 2766 1069 2766 1631 
L 2766 1759 
L 2194 1759 
z
M 3341 1997 
L 3341 0 
L 2766 0 
L 2766 531 
Q 2569 213 2275 61 
Q 1981 -91 1556 -91 
Q 1019 -91 701 211 
Q 384 513 384 1019 
Q 384 1609 779 1909 
Q 1175 2209 1959 2209 
L 2766 2209 
L 2766 2266 
Q 2766 2663 2505 2880 
Q 2244 3097 1772 3097 
Q 1472 3097 1187 3025 
Q 903 2953 641 2809 
L 641 3341 
Q 956 3463 1253 3523 
Q 1550 3584 1831 3584 
Q 2591 3584 2966 3190 
Q 3341 2797 3341 1997 
z
" transform="scale(0.015625)"/>
       <path id="DejaVuSans-6c" d="M 603 4863 
L 1178 4863 
L 1178 0 
L 603 0 
L 603 4863 
z
" transform="scale(0.015625)"/>
       <path id="DejaVuSans-6e" d="M 3513 2113 
L 3513 0 
L 2938 0 
L 2938 2094 
Q 2938 2591 2744 2837 
Q 2550 3084 2163 3084 
Q 1697 3084 1428 2787 
Q 1159 2491 1159 1978 
L 1159 0 
L 581 0 
L 581 3500 
L 1159 3500 
L 1159 2956 
Q 1366 3272 1645 3428 
Q 1925 3584 2291 3584 
Q 2894 3584 3203 3211 
Q 3513 2838 3513 2113 
z
" transform="scale(0.015625)"/>
       <path id="DejaVuSans-41" d="M 2188 4044 
L 1331 1722 
L 3047 1722 
L 2188 4044 
z
M 1831 4666 
L 2547 4666 
L 4325 0 
L 3669 0 
L 3244 1197 
L 1141 1197 
L 716 0 
L 50 0 
L 1831 4666 
z
" transform="scale(0.015625)"/>
       <path id="DejaVuSans-67" d="M 2906 1791 
Q 2906 2416 2648 2759 
Q 2391 3103 1925 3103 
Q 1463 3103 1205 2759 
Q 947 2416 947 1791 
Q 947 1169 1205 825 
Q 1463 481 1925 481 
Q 2391 481 2648 825 
Q 2906 1169 2906 1791 
z
M 3481 434 
Q 3481 -459 3084 -895 
Q 2688 -1331 1869 -1331 
Q 1566 -1331 1297 -1286 
Q 1028 -1241 775 -1147 
L 775 -588 
Q 1028 -725 1275 -790 
Q 1522 -856 1778 -856 
Q 2344 -856 2625 -561 
Q 2906 -266 2906 331 
L 2906 616 
Q 2728 306 2450 153 
Q 2172 0 1784 0 
Q 1141 0 747 490 
Q 353 981 353 1791 
Q 353 2603 747 3093 
Q 1141 3584 1784 3584 
Q 2172 3584 2450 3431 
Q 2728 3278 2906 2969 
L 2906 3500 
L 3481 3500 
L 3481 434 
z
" transform="scale(0.015625)"/>
      </defs>
      <use xlink:href="#DejaVuSans-53"/>
      <use xlink:href="#DejaVuSans-70" x="63.476562"/>
      <use xlink:href="#DejaVuSans-65" x="126.953125"/>
      <use xlink:href="#DejaVuSans-63" x="188.476562"/>
      <use xlink:href="#DejaVuSans-74" x="243.457031"/>
      <use xlink:href="#DejaVuSans-72" x="282.666016"/>
      <use xlink:href="#DejaVuSans-61" x="323.779297"/>
      <use xlink:href="#DejaVuSans-6c" x="385.058594"/>
      <use xlink:href="#DejaVuSans-20" x="412.841797"/>
      <use xlink:href="#DejaVuSans-61" x="444.628906"/>
      <use xlink:href="#DejaVuSans-63" x="505.908203"/>
      <use xlink:href="#DejaVuSans-63" x="560.888672"/>
      <use xlink:href="#DejaVuSans-65" x="615.869141"/>
      <use xlink:href="#DejaVuSans-6c" x="677.392578"/>
      <use xlink:href="#DejaVuSans-65" x="705.175781"/>
      <use xlink:href="#DejaVuSans-72" x="766.699219"/>
      <use xlink:href="#DejaVuSans-61" x="807.8125"/>
      <use xlink:href="#DejaVuSans-74" x="869.091797"/>
      <use xlink:href="#DejaVuSans-69" x="908.300781"/>
      <use xlink:href="#DejaVuSans-6f" x="936.083984"/>
      <use xlink:href="#DejaVuSans-6e" x="997.265625"/>
      <use xlink:href="#DejaVuSans-2c" x="1060.644531"/>
      <use xlink:href="#DejaVuSans-20" x="1092.431641"/>
      <use xlink:href="#DejaVuSans-53" x="1124.21875"/>
      <use xlink:href="#DejaVuSans-41" x="1189.570312"/>
      <use xlink:href="#DejaVuSans-20" x="1257.978516"/>
      <use xlink:href="#DejaVuSans-28" x="1289.765625"/>
      <use xlink:href="#DejaVuSans-67" x="1328.779297"/>
      <use xlink:href="#DejaVuSans-29" x="1392.255859"/>
     </g>
    </g>
   </g>
   <g id="line2d_69">
    <path d="M 53.721227 43.678242 
L 72.333391 37.532238 
L 85.538931 33.83592 
L 95.781944 51.169596 
L 104.151095 50.421619 
L 117.356635 65.55677 
L 127.599648 67.923579 
L 146.211812 61.693201 
L 159.417352 60.595417 
L 171.460723 60.956439 
L 178.029516 60.18202 
L 191.235056 74.522951 
L 209.84722 100.413937 
L 223.05276 117.184521 
L 233.295773 132.0912 
" clip-path="url(#pd7cc0a16bc)" style="fill: none; stroke: #b2b2b2; stroke-width: 0.8; stroke-linecap: square"/>
   </g>
   <g id="line2d_70">
    <path d="M 53.721227 49.461571 
L 72.333391 47.944046 
L 85.538931 44.166109 
L 95.781944 47.831712 
L 104.151095 47.181879 
L 117.356635 45.258804 
L 127.599648 29.73406 
L 146.211812 69.747507 
L 159.417352 80.75995 
L 171.460723 84.302924 
L 178.029516 94.515396 
L 191.235056 90.532908 
L 209.84722 97.360779 
L 223.05276 103.279459 
L 233.295773 123.459485 
" clip-path="url(#pd7cc0a16bc)" style="fill: none; stroke: #b2b2b2; stroke-width: 0.8; stroke-linecap: square"/>
   </g>
   <g id="line2d_71">
    <path d="M 53.721227 51.798326 
L 72.333391 52.329645 
L 85.538931 44.668561 
L 95.781944 55.925386 
L 104.151095 52.299848 
L 117.356635 70.386749 
L 127.599648 65.456702 
L 146.211812 62.883589 
L 159.417352 60.638986 
L 171.460723 52.075463 
L 178.029516 63.290629 
L 191.235056 59.298363 
L 209.84722 78.370711 
L 223.05276 84.475605 
L 233.295773 101.135431 
" clip-path="url(#pd7cc0a16bc)" style="fill: none; stroke: #b2b2b2; stroke-width: 0.8; stroke-linecap: square"/>
   </g>
   <g id="line2d_72">
    <path d="M 53.721227 19.291814 
L 72.333391 13.1472 
L 85.538931 39.926999 
L 95.781944 58.615891 
L 104.151095 69.892912 
L 117.356635 68.469307 
L 127.599648 69.810384 
L 146.211812 59.952485 
L 159.417352 59.062204 
L 171.460723 69.625796 
L 178.029516 74.356096 
L 191.235056 80.069413 
L 209.84722 99.777681 
L 223.05276 114.168834 
L 233.295773 126.039116 
" clip-path="url(#pd7cc0a16bc)" style="fill: none; stroke: #b2b2b2; stroke-width: 0.8; stroke-linecap: square"/>
   </g>
   <g id="line2d_73">
    <path d="M 53.721227 37.7869 
L 72.333391 34.353516 
L 85.538931 32.827346 
L 95.781944 25.581441 
L 104.151095 35.768612 
L 117.356635 47.231226 
L 127.599648 58.129723 
L 146.211812 69.86007 
L 159.417352 72.42703 
L 171.460723 77.250725 
L 178.029516 76.915298 
L 191.235056 77.5239 
L 209.84722 88.407092 
L 223.05276 82.841102 
L 233.295773 96.322547 
" clip-path="url(#pd7cc0a16bc)" style="fill: none; stroke: #b2b2b2; stroke-width: 0.8; stroke-linecap: square"/>
   </g>
   <g id="line2d_74">
    <path d="M 53.721227 70.317505 
L 72.333391 67.051462 
L 85.538931 71.223576 
L 95.781944 70.083449 
L 104.151095 70.088672 
L 117.356635 60.790438 
L 127.599648 60.678272 
L 146.211812 57.278302 
L 159.417352 54.03204 
L 171.460723 47.870294 
L 178.029516 43.111202 
L 191.235056 56.162416 
L 209.84722 62.604656 
L 223.05276 54.117346 
L 233.295773 70.924981 
" clip-path="url(#pd7cc0a16bc)" style="fill: none; stroke: #b2b2b2; stroke-width: 0.8; stroke-linecap: square"/>
   </g>
   <g id="line2d_75">
    <path d="M 53.721227 57.988884 
L 72.333391 53.547409 
L 85.538931 64.572048 
L 95.781944 64.791462 
L 104.151095 64.555418 
L 117.356635 56.948015 
L 127.599648 56.952977 
L 146.211812 54.394023 
L 159.417352 51.967492 
L 171.460723 51.506832 
L 178.029516 51.207165 
L 191.235056 64.423212 
L 209.84722 65.999559 
L 223.05276 83.839528 
L 233.295773 113.339491 
" clip-path="url(#pd7cc0a16bc)" style="fill: none; stroke: #b2b2b2; stroke-width: 0.8; stroke-linecap: square"/>
   </g>
   <g id="line2d_76">
    <path d="M 53.721227 32.29848 
L 72.333391 28.750511 
L 85.538931 33.182918 
L 95.781944 31.652161 
L 104.151095 34.131854 
L 117.356635 45.318583 
L 127.599648 58.289668 
L 146.211812 67.716602 
L 159.417352 68.205247 
L 171.460723 93.253256 
L 178.029516 86.724479 
L 191.235056 83.527955 
L 209.84722 88.269633 
L 223.05276 89.212845 
L 233.295773 102.548332 
" clip-path="url(#pd7cc0a16bc)" style="fill: none; stroke: #b2b2b2; stroke-width: 0.8; stroke-linecap: square"/>
   </g>
   <g id="line2d_77">
    <path d="M 53.721227 45.924673 
L 72.333391 39.408056 
L 85.538931 54.984729 
L 95.781944 51.257715 
L 104.151095 58.080157 
L 117.356635 65.113667 
L 127.599648 55.98288 
L 146.211812 55.831105 
L 159.417352 64.796864 
L 171.460723 70.968166 
L 178.029516 68.861798 
L 191.235056 70.779669 
L 209.84722 99.021283 
L 223.05276 106.326457 
L 233.295773 97.29865 
" clip-path="url(#pd7cc0a16bc)" style="fill: none; stroke: #b2b2b2; stroke-width: 0.8; stroke-linecap: square"/>
   </g>
   <g id="line2d_78">
    <path d="M 53.721227 61.327421 
L 72.333391 54.629444 
L 85.538931 60.763126 
L 95.781944 62.320629 
L 104.151095 65.743757 
L 117.356635 65.874123 
L 127.599648 66.179637 
L 146.211812 58.198579 
L 159.417352 50.368131 
L 171.460723 56.305753 
L 178.029516 60.389669 
L 191.235056 54.015175 
L 209.84722 63.737042 
L 223.05276 93.960202 
L 233.295773 86.26206 
" clip-path="url(#pd7cc0a16bc)" style="fill: none; stroke: #b2b2b2; stroke-width: 0.8; stroke-linecap: square"/>
   </g>
   <g id="line2d_79">
    <path d="M 53.721227 37.092082 
L 72.333391 52.451424 
L 85.538931 45.258364 
L 95.781944 46.392329 
L 104.151095 48.576707 
L 117.356635 40.214064 
L 127.599648 55.953945 
L 146.211812 65.904877 
L 159.417352 76.650686 
L 171.460723 65.753026 
L 178.029516 63.177736 
L 191.235056 75.607386 
L 209.84722 100.872924 
L 223.05276 124.517846 
L 233.295773 128.317782 
" clip-path="url(#pd7cc0a16bc)" style="fill: none; stroke: #b2b2b2; stroke-width: 0.8; stroke-linecap: square"/>
   </g>
   <g id="line2d_80">
    <path d="M 53.721227 64.512933 
L 72.333391 60.930183 
L 85.538931 61.777455 
L 95.781944 70.935758 
L 104.151095 67.409454 
L 117.356635 53.291285 
L 127.599648 56.720985 
L 146.211812 52.985248 
L 159.417352 53.50219 
L 171.460723 55.96537 
L 178.029516 56.659153 
L 191.235056 63.817881 
L 209.84722 75.34878 
L 223.05276 83.918722 
L 233.295773 93.826406 
" clip-path="url(#pd7cc0a16bc)" style="fill: none; stroke: #b2b2b2; stroke-width: 0.8; stroke-linecap: square"/>
   </g>
   <g id="line2d_81">
    <path d="M 53.721227 60.653821 
L 72.333391 56.198315 
L 85.538931 46.002699 
L 95.781944 36.397659 
L 104.151095 39.282192 
L 117.356635 49.169228 
L 127.599648 45.905949 
L 146.211812 66.480676 
L 159.417352 72.968946 
L 171.460723 75.313958 
L 178.029516 71.290288 
L 191.235056 64.35741 
L 209.84722 75.959359 
L 223.05276 92.031424 
L 233.295773 106.192174 
" clip-path="url(#pd7cc0a16bc)" style="fill: none; stroke: #b2b2b2; stroke-width: 0.8; stroke-linecap: square"/>
   </g>
   <g id="line2d_82">
    <path d="M 53.721227 57.873438 
L 72.333391 42.086435 
L 85.538931 39.803856 
L 95.781944 40.358727 
L 104.151095 59.38303 
L 117.356635 49.261397 
L 127.599648 53.120201 
L 146.211812 57.804028 
L 159.417352 78.985761 
L 171.460723 80.81148 
L 178.029516 78.437549 
L 191.235056 80.906964 
L 209.84722 88.462935 
L 223.05276 98.704493 
L 233.295773 109.906871 
" clip-path="url(#pd7cc0a16bc)" style="fill: none; stroke: #b2b2b2; stroke-width: 0.8; stroke-linecap: square"/>
   </g>
   <g id="line2d_83">
    <path d="M 53.721227 38.722592 
L 72.333391 27.36585 
L 85.538931 34.455298 
L 95.781944 37.27175 
L 104.151095 48.824167 
L 117.356635 59.048744 
L 127.599648 57.958646 
L 146.211812 60.265129 
L 159.417352 75.046344 
L 171.460723 77.317168 
L 178.029516 74.948821 
L 191.235056 77.954556 
L 209.84722 84.412905 
L 223.05276 100.854358 
L 233.295773 114.494629 
" clip-path="url(#pd7cc0a16bc)" style="fill: none; stroke: #b2b2b2; stroke-width: 0.8; stroke-linecap: square"/>
   </g>
   <g id="line2d_84">
    <path d="M 53.721227 53.78911 
L 72.333391 48.938984 
L 85.538931 45.552481 
L 95.781944 43.975831 
L 104.151095 50.00786 
L 117.356635 51.103095 
L 127.599648 55.486949 
L 146.211812 61.831616 
L 159.417352 58.13012 
L 171.460723 64.729186 
L 178.029516 74.642997 
L 191.235056 77.154459 
L 209.84722 62.689412 
L 223.05276 96.677737 
L 233.295773 105.4271 
" clip-path="url(#pd7cc0a16bc)" style="fill: none; stroke: #b2b2b2; stroke-width: 0.8; stroke-linecap: square"/>
   </g>
   <g id="line2d_85">
    <path d="M 53.721227 41.953523 
L 72.333391 39.852507 
L 85.538931 45.786214 
L 95.781944 57.28914 
L 104.151095 58.829886 
L 117.356635 55.06994 
L 127.599648 62.436236 
L 146.211812 57.616194 
L 159.417352 61.098738 
L 171.460723 60.464221 
L 178.029516 54.743841 
L 191.235056 65.903846 
L 209.84722 68.342815 
L 223.05276 71.04759 
L 233.295773 90.755726 
" clip-path="url(#pd7cc0a16bc)" style="fill: none; stroke: #b2b2b2; stroke-width: 0.8; stroke-linecap: square"/>
   </g>
   <g id="line2d_86">
    <path d="M 53.721227 33.308968 
L 72.333391 37.182993 
L 85.538931 34.227779 
L 95.781944 34.435259 
L 104.151095 50.114116 
L 117.356635 48.993836 
L 127.599648 55.076002 
L 146.211812 72.843074 
L 159.417352 76.565501 
L 171.460723 68.523339 
L 178.029516 63.871243 
L 191.235056 78.680581 
L 209.84722 84.568721 
L 223.05276 91.252835 
L 233.295773 105.716 
" clip-path="url(#pd7cc0a16bc)" style="fill: none; stroke: #b2b2b2; stroke-width: 0.8; stroke-linecap: square"/>
   </g>
   <g id="line2d_87">
    <path d="M 53.721227 62.373808 
L 72.333391 63.416689 
L 85.538931 58.318356 
L 95.781944 57.521846 
L 104.151095 57.73648 
L 117.356635 47.315504 
L 127.599648 50.539493 
L 146.211812 56.558613 
L 159.417352 58.681057 
L 171.460723 65.247677 
L 178.029516 57.138705 
L 191.235056 64.29115 
L 209.84722 63.181373 
L 223.05276 55.21889 
L 233.295773 75.296359 
" clip-path="url(#pd7cc0a16bc)" style="fill: none; stroke: #b2b2b2; stroke-width: 0.8; stroke-linecap: square"/>
   </g>
   <g id="line2d_88">
    <path d="M 53.721227 39.155551 
L 72.333391 35.738563 
L 85.538931 23.859311 
L 95.781944 39.150554 
L 104.151095 44.151704 
L 117.356635 57.102364 
L 127.599648 60.95041 
L 146.211812 65.964005 
L 159.417352 72.322051 
L 171.460723 78.127159 
L 178.029516 84.865315 
L 191.235056 93.792494 
L 209.84722 116.654756 
L 223.05276 100.089884 
L 233.295773 119.273313 
" clip-path="url(#pd7cc0a16bc)" style="fill: none; stroke: #b2b2b2; stroke-width: 0.8; stroke-linecap: square"/>
   </g>
   <g id="line2d_89">
    <path d="M 53.721227 60.785597 
L 72.333391 58.403275 
L 85.538931 65.759373 
L 95.781944 64.070876 
L 104.151095 55.90875 
L 117.356635 61.758026 
L 127.599648 58.949095 
L 146.211812 54.602012 
L 159.417352 53.853202 
L 171.460723 53.592958 
L 178.029516 61.216081 
L 191.235056 66.246913 
L 209.84722 73.259837 
L 223.05276 90.285328 
L 233.295773 96.234537 
" clip-path="url(#pd7cc0a16bc)" style="fill: none; stroke: #b2b2b2; stroke-width: 0.8; stroke-linecap: square"/>
   </g>
   <g id="line2d_90">
    <path d="M 53.721227 45.150707 
L 72.333391 29.061581 
L 85.538931 39.690378 
L 95.781944 45.067635 
L 104.151095 49.605736 
L 117.356635 56.715057 
L 127.599648 47.532338 
L 146.211812 58.366371 
L 159.417352 79.111697 
L 171.460723 82.746399 
L 178.029516 89.620572 
L 191.235056 103.582407 
L 209.84722 107.4899 
L 223.05276 109.54991 
L 233.295773 110.539422 
" clip-path="url(#pd7cc0a16bc)" style="fill: none; stroke: #b2b2b2; stroke-width: 0.8; stroke-linecap: square"/>
   </g>
   <g id="line2d_91">
    <path d="M 53.721227 63.128718 
L 72.333391 55.995036 
L 85.538931 50.351636 
L 95.781944 44.5624 
L 104.151095 43.017053 
L 117.356635 52.410313 
L 127.599648 63.170568 
L 146.211812 58.523564 
L 159.417352 58.432604 
L 171.460723 58.274412 
L 178.029516 76.654661 
L 191.235056 80.563222 
L 209.84722 71.686906 
L 223.05276 90.560774 
L 233.295773 89.729322 
" clip-path="url(#pd7cc0a16bc)" style="fill: none; stroke: #b2b2b2; stroke-width: 0.8; stroke-linecap: square"/>
   </g>
   <g id="line2d_92">
    <path d="M 53.721227 75.283942 
L 72.333391 74.628672 
L 85.538931 70.198278 
L 95.781944 71.752506 
L 104.151095 66.175814 
L 117.356635 61.931961 
L 127.599648 56.880766 
L 146.211812 55.244005 
L 159.417352 46.064054 
L 171.460723 40.964499 
L 178.029516 41.879225 
L 191.235056 52.923702 
L 209.84722 70.714868 
L 223.05276 98.962617 
L 233.295773 104.831191 
" clip-path="url(#pd7cc0a16bc)" style="fill: none; stroke: #b2b2b2; stroke-width: 0.8; stroke-linecap: square"/>
   </g>
   <g id="line2d_93">
    <path d="M 53.721227 62.122276 
L 72.333391 43.511281 
L 85.538931 39.892423 
L 95.781944 45.629743 
L 104.151095 42.072397 
L 117.356635 54.535491 
L 127.599648 46.34507 
L 146.211812 57.785605 
L 159.417352 74.864945 
L 171.460723 75.924367 
L 178.029516 78.180309 
L 191.235056 90.226394 
L 209.84722 99.986011 
L 223.05276 103.433232 
L 233.295773 92.464127 
" clip-path="url(#pd7cc0a16bc)" style="fill: none; stroke: #b2b2b2; stroke-width: 0.8; stroke-linecap: square"/>
   </g>
   <g id="line2d_94">
    <path d="M 53.721227 56.623146 
L 72.333391 48.053327 
L 85.538931 54.331623 
L 95.781944 52.160056 
L 104.151095 59.608748 
L 117.356635 54.514351 
L 127.599648 48.766115 
L 146.211812 62.222871 
L 159.417352 58.532357 
L 171.460723 61.531081 
L 178.029516 61.345277 
L 191.235056 70.698121 
L 209.84722 70.948283 
L 223.05276 73.590272 
L 233.295773 71.575531 
" clip-path="url(#pd7cc0a16bc)" style="fill: none; stroke: #b2b2b2; stroke-width: 0.8; stroke-linecap: square"/>
   </g>
   <g id="line2d_95">
    <path d="M 53.721227 61.787027 
L 72.333391 52.969802 
L 85.538931 52.287831 
L 95.781944 47.442296 
L 104.151095 50.899516 
L 117.356635 45.570163 
L 127.599648 51.161775 
L 146.211812 66.10789 
L 159.417352 66.910331 
L 171.460723 70.83632 
L 178.029516 64.069747 
L 191.235056 55.377282 
L 209.84722 71.758301 
L 223.05276 83.591374 
L 233.295773 98.76203 
" clip-path="url(#pd7cc0a16bc)" style="fill: none; stroke: #b2b2b2; stroke-width: 0.8; stroke-linecap: square"/>
   </g>
   <g id="line2d_96">
    <path d="M 53.721227 42.526913 
L 72.333391 45.571034 
L 85.538931 51.573048 
L 95.781944 42.803169 
L 104.151095 44.958051 
L 117.356635 38.68175 
L 127.599648 57.924224 
L 146.211812 59.761322 
L 159.417352 66.527788 
L 171.460723 78.921329 
L 178.029516 72.86289 
L 191.235056 87.176944 
L 209.84722 101.728794 
L 223.05276 108.503078 
L 233.295773 107.465356 
" clip-path="url(#pd7cc0a16bc)" style="fill: none; stroke: #b2b2b2; stroke-width: 0.8; stroke-linecap: square"/>
   </g>
   <g id="line2d_97">
    <path d="M 53.721227 55.818543 
L 72.333391 45.910423 
L 85.538931 34.165756 
L 95.781944 49.017539 
L 104.151095 38.099151 
L 117.356635 51.558682 
L 127.599648 60.218909 
L 146.211812 65.201119 
L 159.417352 65.839708 
L 171.460723 68.242144 
L 178.029516 71.835824 
L 191.235056 76.380775 
L 209.84722 72.802247 
L 223.05276 89.278489 
L 233.295773 101.686567 
" clip-path="url(#pd7cc0a16bc)" style="fill: none; stroke: #b2b2b2; stroke-width: 0.8; stroke-linecap: square"/>
   </g>
   <g id="line2d_98">
    <path d="M 53.721227 46.644316 
L 72.333391 49.345334 
L 85.538931 47.323482 
L 95.781944 53.143714 
L 104.151095 55.439829 
L 117.356635 52.864916 
L 127.599648 56.137509 
L 146.211812 62.424898 
L 159.417352 65.311171 
L 171.460723 60.913118 
L 178.029516 61.144732 
L 191.235056 56.292995 
L 209.84722 79.816652 
L 223.05276 95.258189 
L 233.295773 109.011995 
" clip-path="url(#pd7cc0a16bc)" style="fill: none; stroke: #b2b2b2; stroke-width: 0.8; stroke-linecap: square"/>
   </g>
   <g id="line2d_99">
    <path d="M 53.721227 49.524699 
L 72.333391 33.75497 
L 85.538931 26.350278 
L 95.781944 38.221533 
L 104.151095 35.680353 
L 117.356635 49.115885 
L 127.599648 56.730648 
L 146.211812 64.991747 
L 159.417352 72.951569 
L 171.460723 70.800335 
L 178.029516 71.838346 
L 191.235056 84.539245 
L 209.84722 93.239261 
L 223.05276 95.030428 
L 233.295773 100.618497 
" clip-path="url(#pd7cc0a16bc)" style="fill: none; stroke: #b2b2b2; stroke-width: 0.8; stroke-linecap: square"/>
   </g>
   <g id="line2d_100">
    <path d="M 53.721227 42.107817 
L 72.333391 41.720186 
L 85.538931 40.183804 
L 95.781944 38.321151 
L 104.151095 43.719535 
L 117.356635 45.089224 
L 127.599648 54.751799 
L 146.211812 68.055457 
L 159.417352 63.555081 
L 171.460723 69.785949 
L 178.029516 74.265332 
L 191.235056 66.894335 
L 209.84722 80.738304 
L 223.05276 83.71972 
L 233.295773 74.173565 
" clip-path="url(#pd7cc0a16bc)" style="fill: none; stroke: #b2b2b2; stroke-width: 0.8; stroke-linecap: square"/>
   </g>
   <g id="line2d_101">
    <path d="M 53.721227 67.323175 
L 72.333391 67.958191 
L 85.538931 63.535081 
L 95.781944 58.38057 
L 104.151095 51.869973 
L 117.356635 63.39861 
L 127.599648 58.98196 
L 146.211812 53.083354 
L 159.417352 47.730985 
L 171.460723 50.594071 
L 178.029516 52.683649 
L 191.235056 66.272006 
L 209.84722 72.504148 
L 223.05276 96.871003 
L 233.295773 122.289354 
" clip-path="url(#pd7cc0a16bc)" style="fill: none; stroke: #b2b2b2; stroke-width: 0.8; stroke-linecap: square"/>
   </g>
   <g id="line2d_102">
    <path d="M 53.721227 14.211705 
L 72.333391 17.661586 
L 85.538931 14.313322 
L 95.781944 30.987537 
L 104.151095 35.950332 
L 117.356635 42.028621 
L 127.599648 52.18311 
L 146.211812 82.668268 
L 159.417352 83.165383 
L 171.460723 84.161387 
L 178.029516 84.620223 
L 191.235056 86.193549 
L 209.84722 92.942077 
L 223.05276 87.00424 
L 233.295773 95.099942 
" clip-path="url(#pd7cc0a16bc)" style="fill: none; stroke: #b2b2b2; stroke-width: 0.8; stroke-linecap: square"/>
   </g>
   <g id="line2d_103">
    <path d="M 53.721227 51.342092 
L 72.333391 39.533028 
L 85.538931 47.659926 
L 95.781944 50.350305 
L 104.151095 47.253762 
L 117.356635 41.289441 
L 127.599648 50.079512 
L 146.211812 67.583264 
L 159.417352 68.351208 
L 171.460723 62.477125 
L 178.029516 65.374984 
L 191.235056 69.791553 
L 209.84722 81.503194 
L 223.05276 69.541031 
L 233.295773 90.529718 
" clip-path="url(#pd7cc0a16bc)" style="fill: none; stroke: #b2b2b2; stroke-width: 0.8; stroke-linecap: square"/>
   </g>
   <g id="line2d_104">
    <path d="M 53.721227 31.849694 
L 72.333391 17.102713 
L 85.538931 25.716525 
L 95.781944 31.872678 
L 104.151095 32.166948 
L 117.356635 44.858445 
L 127.599648 59.725898 
L 146.211812 74.502535 
L 159.417352 74.811526 
L 171.460723 80.193301 
L 178.029516 78.172008 
L 191.235056 90.46882 
L 209.84722 82.666115 
L 223.05276 88.806391 
L 233.295773 95.260031 
" clip-path="url(#pd7cc0a16bc)" style="fill: none; stroke: #b2b2b2; stroke-width: 0.8; stroke-linecap: square"/>
   </g>
   <g id="line2d_105">
    <path d="M 53.721227 41.68841 
L 72.333391 39.654867 
L 85.538931 36.731307 
L 95.781944 35.000088 
L 104.151095 41.368454 
L 117.356635 41.063841 
L 127.599648 56.110194 
L 146.211812 76.034411 
L 159.417352 67.146461 
L 171.460723 82.399611 
L 178.029516 85.790412 
L 191.235056 82.696386 
L 209.84722 76.14317 
L 223.05276 89.858851 
L 233.295773 95.681476 
" clip-path="url(#pd7cc0a16bc)" style="fill: none; stroke: #b2b2b2; stroke-width: 0.8; stroke-linecap: square"/>
   </g>
   <g id="line2d_106">
    <path d="M 53.721227 57.940886 
L 72.333391 53.879455 
L 85.538931 48.623236 
L 95.781944 47.572387 
L 104.151095 40.601476 
L 117.356635 56.563845 
L 127.599648 55.679246 
L 146.211812 61.177264 
L 159.417352 63.426158 
L 171.460723 64.458688 
L 178.029516 65.647313 
L 191.235056 67.745514 
L 209.84722 75.464792 
L 223.05276 84.185687 
L 233.295773 91.167642 
" clip-path="url(#pd7cc0a16bc)" style="fill: none; stroke: #b2b2b2; stroke-width: 0.8; stroke-linecap: square"/>
   </g>
   <g id="line2d_107">
    <path d="M 53.721227 54.014284 
L 72.333391 54.163001 
L 85.538931 55.003581 
L 95.781944 44.508295 
L 104.151095 42.798067 
L 117.356635 57.349336 
L 127.599648 59.955411 
L 146.211812 66.055745 
L 159.417352 68.850976 
L 171.460723 58.849336 
L 178.029516 60.282093 
L 191.235056 62.374273 
L 209.84722 72.921402 
L 223.05276 82.189348 
L 233.295773 89.432635 
" clip-path="url(#pd7cc0a16bc)" style="fill: none; stroke: #b2b2b2; stroke-width: 0.8; stroke-linecap: square"/>
   </g>
   <g id="line2d_108">
    <path d="M 53.721227 74.509284 
L 72.333391 71.805736 
L 85.538931 64.394031 
L 95.781944 61.437719 
L 104.151095 58.970592 
L 117.356635 64.393489 
L 127.599648 60.123609 
L 146.211812 48.122145 
L 159.417352 55.244008 
L 171.460723 55.666797 
L 178.029516 59.283903 
L 191.235056 60.340484 
L 209.84722 75.33856 
L 223.05276 89.569079 
L 233.295773 90.246154 
" clip-path="url(#pd7cc0a16bc)" style="fill: none; stroke: #b2b2b2; stroke-width: 0.8; stroke-linecap: square"/>
   </g>
   <g id="line2d_109">
    <path d="M 53.721227 56.58396 
L 72.333391 53.660594 
L 85.538931 48.957602 
L 95.781944 52.635152 
L 104.151095 55.139593 
L 117.356635 55.123712 
L 127.599648 60.639014 
L 146.211812 52.806369 
L 159.417352 61.798265 
L 171.460723 74.48226 
L 178.029516 80.393447 
L 191.235056 75.597064 
L 209.84722 90.63976 
L 223.05276 89.94895 
L 233.295773 106.019316 
" clip-path="url(#pd7cc0a16bc)" style="fill: none; stroke: #b2b2b2; stroke-width: 0.8; stroke-linecap: square"/>
   </g>
   <g id="line2d_110">
    <path d="M 53.721227 67.447935 
L 72.333391 57.328243 
L 85.538931 49.796702 
L 95.781944 48.678936 
L 104.151095 57.521398 
L 117.356635 58.419915 
L 127.599648 52.273465 
L 146.211812 61.355573 
L 159.417352 60.431214 
L 171.460723 65.221643 
L 178.029516 59.193324 
L 191.235056 77.742949 
L 209.84722 90.080627 
L 223.05276 80.90312 
L 233.295773 99.167272 
" clip-path="url(#pd7cc0a16bc)" style="fill: none; stroke: #b2b2b2; stroke-width: 0.8; stroke-linecap: square"/>
   </g>
   <g id="line2d_111">
    <path d="M 53.721227 60.491169 
L 72.333391 50.311519 
L 85.538931 58.106003 
L 95.781944 57.394788 
L 104.151095 52.373264 
L 117.356635 57.908606 
L 127.599648 59.051241 
L 146.211812 56.443271 
L 159.417352 60.845311 
L 171.460723 57.91077 
L 178.029516 61.770826 
L 191.235056 59.082702 
L 209.84722 62.97615 
L 223.05276 78.126587 
L 233.295773 96.88781 
" clip-path="url(#pd7cc0a16bc)" style="fill: none; stroke: #b2b2b2; stroke-width: 0.8; stroke-linecap: square"/>
   </g>
   <g id="line2d_112">
    <path d="M 53.721227 43.334467 
L 72.333391 40.436131 
L 85.538931 43.383777 
L 95.781944 45.25813 
L 104.151095 43.951278 
L 117.356635 46.958385 
L 127.599648 65.569122 
L 146.211812 65.233845 
L 159.417352 68.820066 
L 171.460723 70.879065 
L 178.029516 78.710815 
L 191.235056 94.519695 
L 209.84722 106.961945 
L 223.05276 106.930895 
L 233.295773 116.317512 
" clip-path="url(#pd7cc0a16bc)" style="fill: none; stroke: #b2b2b2; stroke-width: 0.8; stroke-linecap: square"/>
   </g>
   <g id="line2d_113">
    <path d="M 53.721227 57.063254 
L 72.333391 47.161245 
L 85.538931 35.891095 
L 95.781944 32.873183 
L 104.151095 41.181718 
L 117.356635 50.08523 
L 127.599648 48.171857 
L 146.211812 67.348722 
L 159.417352 66.956848 
L 171.460723 65.283278 
L 178.029516 63.473135 
L 191.235056 54.378792 
L 209.84722 77.011973 
L 223.05276 83.950403 
L 233.295773 93.879315 
" clip-path="url(#pd7cc0a16bc)" style="fill: none; stroke: #b2b2b2; stroke-width: 0.8; stroke-linecap: square"/>
   </g>
   <g id="line2d_114">
    <path d="M 53.721227 61.672245 
L 72.333391 51.515245 
L 85.538931 51.244072 
L 95.781944 56.827568 
L 104.151095 54.682654 
L 117.356635 61.70207 
L 127.599648 66.782702 
L 146.211812 55.924223 
L 159.417352 62.670094 
L 171.460723 69.012184 
L 178.029516 69.652769 
L 191.235056 69.059378 
L 209.84722 83.036208 
L 223.05276 94.972534 
L 233.295773 99.831306 
" clip-path="url(#pd7cc0a16bc)" style="fill: none; stroke: #b2b2b2; stroke-width: 0.8; stroke-linecap: square"/>
   </g>
   <g id="line2d_115">
    <path d="M 53.721227 50.383078 
L 72.333391 42.252176 
L 85.538931 42.826772 
L 95.781944 48.758571 
L 104.151095 51.485004 
L 117.356635 62.597569 
L 127.599648 58.168182 
L 146.211812 62.902683 
L 159.417352 61.763506 
L 171.460723 66.545826 
L 178.029516 69.046338 
L 191.235056 82.942374 
L 209.84722 90.90111 
L 223.05276 98.550012 
L 233.295773 98.06133 
" clip-path="url(#pd7cc0a16bc)" style="fill: none; stroke: #b2b2b2; stroke-width: 0.8; stroke-linecap: square"/>
   </g>
   <g id="line2d_116">
    <path d="M 53.721227 57.093646 
L 72.333391 53.439163 
L 85.538931 46.370178 
L 95.781944 46.991311 
L 104.151095 54.338698 
L 117.356635 58.361663 
L 127.599648 56.552966 
L 146.211812 57.895718 
L 159.417352 67.950468 
L 171.460723 71.067966 
L 178.029516 73.426295 
L 191.235056 71.484092 
L 209.84722 92.480714 
L 223.05276 87.246912 
L 233.295773 90.348248 
" clip-path="url(#pd7cc0a16bc)" style="fill: none; stroke: #b2b2b2; stroke-width: 0.8; stroke-linecap: square"/>
   </g>
   <g id="line2d_117">
    <path d="M 53.721227 56.279459 
L 72.333391 49.024413 
L 85.538931 48.08264 
L 95.781944 42.895713 
L 104.151095 47.324389 
L 117.356635 59.591467 
L 127.599648 47.192534 
L 146.211812 68.496146 
L 159.417352 67.125624 
L 171.460723 61.674323 
L 178.029516 65.239661 
L 191.235056 61.469241 
L 209.84722 67.021478 
L 223.05276 67.596505 
L 233.295773 68.079992 
" clip-path="url(#pd7cc0a16bc)" style="fill: none; stroke: #b2b2b2; stroke-width: 0.8; stroke-linecap: square"/>
   </g>
   <g id="line2d_118">
    <path d="M 53.721227 70.649736 
L 72.333391 66.713485 
L 85.538931 59.456779 
L 95.781944 51.283638 
L 104.151095 52.316811 
L 117.356635 47.629605 
L 127.599648 47.494103 
L 146.211812 56.447949 
L 159.417352 59.22236 
L 171.460723 71.464924 
L 178.029516 84.590903 
L 191.235056 93.182494 
L 209.84722 99.278048 
L 223.05276 104.595303 
L 233.295773 103.679933 
" clip-path="url(#pd7cc0a16bc)" style="fill: none; stroke: #b2b2b2; stroke-width: 0.8; stroke-linecap: square"/>
   </g>
   <g id="line2d_119">
    <path d="M 53.721227 51.971302 
L 72.333391 46.943378 
L 85.538931 46.512253 
L 95.781944 48.45905 
L 104.151095 50.380433 
L 117.356635 53.995651 
L 127.599648 56.415022 
L 146.211812 61.942844 
L 159.417352 64.637853 
L 171.460723 67.25476 
L 178.029516 68.785769 
L 191.235056 73.573881 
L 209.84722 82.698732 
L 223.05276 90.987523 
L 233.295773 99.934153 
" clip-path="url(#pd7cc0a16bc)" style="fill: none; stroke: #ff0000; stroke-width: 2; stroke-linecap: square"/>
   </g>
   <g id="line2d_120">
    <path d="M 53.721227 25.868211 
L 72.333391 20.368928 
L 85.538931 22.320039 
L 95.781944 26.73549 
L 104.151095 31.544019 
L 117.356635 38.441915 
L 127.599648 42.826284 
L 146.211812 48.581923 
L 159.417352 47.523721 
L 171.460723 46.054105 
L 178.029516 46.029839 
L 191.235056 48.810906 
L 209.84722 55.727502 
L 223.05276 63.567336 
L 233.295773 71.304337 
" clip-path="url(#pd7cc0a16bc)" style="fill: none; stroke-dasharray: 7.4,3.2; stroke-dashoffset: 0; stroke: #ff0000; stroke-width: 2"/>
   </g>
   <g id="line2d_121">
    <path d="M 53.721227 78.074393 
L 72.333391 73.517827 
L 85.538931 70.704466 
L 95.781944 70.18261 
L 104.151095 69.216848 
L 117.356635 69.549388 
L 127.599648 70.00376 
L 146.211812 75.303766 
L 159.417352 81.751985 
L 171.460723 88.455414 
L 178.029516 91.541699 
L 191.235056 98.336856 
L 209.84722 109.669962 
L 223.05276 118.40771 
L 233.295773 128.563968 
" clip-path="url(#pd7cc0a16bc)" style="fill: none; stroke-dasharray: 7.4,3.2; stroke-dashoffset: 0; stroke: #ff0000; stroke-width: 2"/>
   </g>
   <g id="line2d_122">
    <path d="M 53.721227 51.893837 
L 72.333391 46.907624 
L 85.538931 46.547874 
L 95.781944 48.37715 
L 104.151095 50.379193 
L 117.356635 53.911736 
L 127.599648 56.331793 
L 146.211812 62.063545 
L 159.417352 64.901394 
L 171.460723 67.224874 
L 178.029516 68.83189 
L 191.235056 73.391328 
L 209.84722 82.969944 
L 223.05276 90.926599 
L 233.295773 99.953976 
" clip-path="url(#pd7cc0a16bc)" style="fill: none; stroke: #0000ff; stroke-width: 2; stroke-linecap: square"/>
   </g>
   <g id="line2d_123">
    <path d="M 53.721227 25.801645 
L 72.333391 20.313489 
L 85.538931 22.039758 
L 95.781944 26.793119 
L 104.151095 31.428772 
L 117.356635 38.104152 
L 127.599648 42.610547 
L 146.211812 48.748616 
L 159.417352 47.633128 
L 171.460723 45.880941 
L 178.029516 46.001994 
L 191.235056 48.750727 
L 209.84722 55.85129 
L 223.05276 63.188847 
L 233.295773 71.446638 
" clip-path="url(#pd7cc0a16bc)" style="fill: none; stroke-dasharray: 7.4,3.2; stroke-dashoffset: 0; stroke: #0000ff; stroke-width: 2"/>
   </g>
   <g id="line2d_124">
    <path d="M 53.721227 77.986028 
L 72.333391 73.501758 
L 85.538931 71.055989 
L 95.781944 69.96118 
L 104.151095 69.329615 
L 117.356635 69.71932 
L 127.599648 70.053039 
L 146.211812 75.378475 
L 159.417352 82.169661 
L 171.460723 88.568806 
L 178.029516 91.661785 
L 191.235056 98.031929 
L 209.84722 110.088598 
L 223.05276 118.66435 
L 233.295773 128.461313 
" clip-path="url(#pd7cc0a16bc)" style="fill: none; stroke-dasharray: 7.4,3.2; stroke-dashoffset: 0; stroke: #0000ff; stroke-width: 2"/>
   </g>
   <g id="patch_3">
    <path d="M 44.7425 138.0384 
L 44.7425 7.2 
" style="fill: none; stroke: #000000; stroke-width: 0.8; stroke-linejoin: miter; stroke-linecap: square"/>
   </g>
   <g id="patch_4">
    <path d="M 242.2745 138.0384 
L 242.2745 7.2 
" style="fill: none; stroke: #000000; stroke-width: 0.8; stroke-linejoin: miter; stroke-linecap: square"/>
   </g>
   <g id="patch_5">
    <path d="M 44.7425 138.0384 
L 242.2745 138.0384 
" style="fill: none; stroke: #000000; stroke-width: 0.8; stroke-linejoin: miter; stroke-linecap: square"/>
   </g>
   <g id="patch_6">
    <path d="M 44.7425 7.2 
L 242.2745 7.2 
" style="fill: none; stroke: #000000; stroke-width: 0.8; stroke-linejoin: miter; stroke-linecap: square"/>
   </g>
   <g id="legend_1">
    <g id="patch_7">
     <path d="M 247.8745 104.47295 
L 432.5945 104.47295 
Q 434.1945 104.47295 434.1945 102.87295 
L 434.1945 42.36545 
Q 434.1945 40.76545 432.5945 40.76545 
L 247.8745 40.76545 
Q 246.2745 40.76545 246.2745 42.36545 
L 246.2745 102.87295 
Q 246.2745 104.47295 247.8745 104.47295 
z
" style="fill: #ffffff; opacity: 0.8; stroke: #cccccc; stroke-linejoin: miter"/>
    </g>
    <g id="line2d_125">
     <path d="M 249.4745 47.2442 
L 257.4745 47.2442 
L 265.4745 47.2442 
" style="fill: none; stroke: #b2b2b2; stroke-width: 0.8; stroke-linecap: square"/>
    </g>
    <g id="text_7">
     <!-- Individual selected GMs -->
     <g transform="translate(271.8745 50.0442) scale(0.08 -0.08)">
      <defs>
       <path id="DejaVuSans-49" d="M 628 4666 
L 1259 4666 
L 1259 0 
L 628 0 
L 628 4666 
z
" transform="scale(0.015625)"/>
       <path id="DejaVuSans-76" d="M 191 3500 
L 800 3500 
L 1894 563 
L 2988 3500 
L 3597 3500 
L 2284 0 
L 1503 0 
L 191 3500 
z
" transform="scale(0.015625)"/>
       <path id="DejaVuSans-75" d="M 544 1381 
L 544 3500 
L 1119 3500 
L 1119 1403 
Q 1119 906 1312 657 
Q 1506 409 1894 409 
Q 2359 409 2629 706 
Q 2900 1003 2900 1516 
L 2900 3500 
L 3475 3500 
L 3475 0 
L 2900 0 
L 2900 538 
Q 2691 219 2414 64 
Q 2138 -91 1772 -91 
Q 1169 -91 856 284 
Q 544 659 544 1381 
z
M 1991 3584 
L 1991 3584 
z
" transform="scale(0.015625)"/>
       <path id="DejaVuSans-47" d="M 3809 666 
L 3809 1919 
L 2778 1919 
L 2778 2438 
L 4434 2438 
L 4434 434 
Q 4069 175 3628 42 
Q 3188 -91 2688 -91 
Q 1594 -91 976 548 
Q 359 1188 359 2328 
Q 359 3472 976 4111 
Q 1594 4750 2688 4750 
Q 3144 4750 3555 4637 
Q 3966 4525 4313 4306 
L 4313 3634 
Q 3963 3931 3569 4081 
Q 3175 4231 2741 4231 
Q 1884 4231 1454 3753 
Q 1025 3275 1025 2328 
Q 1025 1384 1454 906 
Q 1884 428 2741 428 
Q 3075 428 3337 486 
Q 3600 544 3809 666 
z
" transform="scale(0.015625)"/>
       <path id="DejaVuSans-4d" d="M 628 4666 
L 1569 4666 
L 2759 1491 
L 3956 4666 
L 4897 4666 
L 4897 0 
L 4281 0 
L 4281 4097 
L 3078 897 
L 2444 897 
L 1241 4097 
L 1241 0 
L 628 0 
L 628 4666 
z
" transform="scale(0.015625)"/>
      </defs>
      <use xlink:href="#DejaVuSans-49"/>
      <use xlink:href="#DejaVuSans-6e" x="29.492188"/>
      <use xlink:href="#DejaVuSans-64" x="92.871094"/>
      <use xlink:href="#DejaVuSans-69" x="156.347656"/>
      <use xlink:href="#DejaVuSans-76" x="184.130859"/>
      <use xlink:href="#DejaVuSans-69" x="243.310547"/>
      <use xlink:href="#DejaVuSans-64" x="271.09375"/>
      <use xlink:href="#DejaVuSans-75" x="334.570312"/>
      <use xlink:href="#DejaVuSans-61" x="397.949219"/>
      <use xlink:href="#DejaVuSans-6c" x="459.228516"/>
      <use xlink:href="#DejaVuSans-20" x="487.011719"/>
      <use xlink:href="#DejaVuSans-73" x="518.798828"/>
      <use xlink:href="#DejaVuSans-65" x="570.898438"/>
      <use xlink:href="#DejaVuSans-6c" x="632.421875"/>
      <use xlink:href="#DejaVuSans-65" x="660.205078"/>
      <use xlink:href="#DejaVuSans-63" x="721.728516"/>
      <use xlink:href="#DejaVuSans-74" x="776.708984"/>
      <use xlink:href="#DejaVuSans-65" x="815.917969"/>
      <use xlink:href="#DejaVuSans-64" x="877.441406"/>
      <use xlink:href="#DejaVuSans-20" x="940.917969"/>
      <use xlink:href="#DejaVuSans-47" x="972.705078"/>
      <use xlink:href="#DejaVuSans-4d" x="1050.195312"/>
      <use xlink:href="#DejaVuSans-73" x="1136.474609"/>
     </g>
    </g>
    <g id="line2d_126">
     <path d="M 249.4745 58.9867 
L 257.4745 58.9867 
L 265.4745 58.9867 
" style="fill: none; stroke: #ff0000; stroke-width: 2; stroke-linecap: square"/>
    </g>
    <g id="text_8">
     <!-- GCIM median -->
     <g transform="translate(271.8745 61.7867) scale(0.08 -0.08)">
      <defs>
       <path id="DejaVuSans-43" d="M 4122 4306 
L 4122 3641 
Q 3803 3938 3442 4084 
Q 3081 4231 2675 4231 
Q 1875 4231 1450 3742 
Q 1025 3253 1025 2328 
Q 1025 1406 1450 917 
Q 1875 428 2675 428 
Q 3081 428 3442 575 
Q 3803 722 4122 1019 
L 4122 359 
Q 3791 134 3420 21 
Q 3050 -91 2638 -91 
Q 1578 -91 968 557 
Q 359 1206 359 2328 
Q 359 3453 968 4101 
Q 1578 4750 2638 4750 
Q 3056 4750 3426 4639 
Q 3797 4528 4122 4306 
z
" transform="scale(0.015625)"/>
       <path id="DejaVuSans-6d" d="M 3328 2828 
Q 3544 3216 3844 3400 
Q 4144 3584 4550 3584 
Q 5097 3584 5394 3201 
Q 5691 2819 5691 2113 
L 5691 0 
L 5113 0 
L 5113 2094 
Q 5113 2597 4934 2840 
Q 4756 3084 4391 3084 
Q 3944 3084 3684 2787 
Q 3425 2491 3425 1978 
L 3425 0 
L 2847 0 
L 2847 2094 
Q 2847 2600 2669 2842 
Q 2491 3084 2119 3084 
Q 1678 3084 1418 2786 
Q 1159 2488 1159 1978 
L 1159 0 
L 581 0 
L 581 3500 
L 1159 3500 
L 1159 2956 
Q 1356 3278 1631 3431 
Q 1906 3584 2284 3584 
Q 2666 3584 2933 3390 
Q 3200 3197 3328 2828 
z
" transform="scale(0.015625)"/>
      </defs>
      <use xlink:href="#DejaVuSans-47"/>
      <use xlink:href="#DejaVuSans-43" x="77.490234"/>
      <use xlink:href="#DejaVuSans-49" x="147.314453"/>
      <use xlink:href="#DejaVuSans-4d" x="176.806641"/>
      <use xlink:href="#DejaVuSans-20" x="263.085938"/>
      <use xlink:href="#DejaVuSans-6d" x="294.873047"/>
      <use xlink:href="#DejaVuSans-65" x="392.285156"/>
      <use xlink:href="#DejaVuSans-64" x="453.808594"/>
      <use xlink:href="#DejaVuSans-69" x="517.285156"/>
      <use xlink:href="#DejaVuSans-61" x="545.068359"/>
      <use xlink:href="#DejaVuSans-6e" x="606.347656"/>
     </g>
    </g>
    <g id="line2d_127">
     <path d="M 249.4745 72.01045 
L 257.4745 72.01045 
L 265.4745 72.01045 
" style="fill: none; stroke-dasharray: 7.4,3.2; stroke-dashoffset: 0; stroke: #ff0000; stroke-width: 2"/>
    </g>
    <g id="text_9">
     <!-- GCIM $16^{th}$ and $84^{th}$ percentiles -->
     <g transform="translate(271.8745 74.81045) scale(0.08 -0.08)">
      <defs>
       <path id="DejaVuSans-36" d="M 2113 2584 
Q 1688 2584 1439 2293 
Q 1191 2003 1191 1497 
Q 1191 994 1439 701 
Q 1688 409 2113 409 
Q 2538 409 2786 701 
Q 3034 994 3034 1497 
Q 3034 2003 2786 2293 
Q 2538 2584 2113 2584 
z
M 3366 4563 
L 3366 3988 
Q 3128 4100 2886 4159 
Q 2644 4219 2406 4219 
Q 1781 4219 1451 3797 
Q 1122 3375 1075 2522 
Q 1259 2794 1537 2939 
Q 1816 3084 2150 3084 
Q 2853 3084 3261 2657 
Q 3669 2231 3669 1497 
Q 3669 778 3244 343 
Q 2819 -91 2113 -91 
Q 1303 -91 875 529 
Q 447 1150 447 2328 
Q 447 3434 972 4092 
Q 1497 4750 2381 4750 
Q 2619 4750 2861 4703 
Q 3103 4656 3366 4563 
z
" transform="scale(0.015625)"/>
       <path id="DejaVuSans-Oblique-74" d="M 2706 3500 
L 2619 3053 
L 1472 3053 
L 1100 1153 
Q 1081 1047 1072 975 
Q 1063 903 1063 863 
Q 1063 663 1183 572 
Q 1303 481 1569 481 
L 2150 481 
L 2053 0 
L 1503 0 
Q 991 0 739 200 
Q 488 400 488 806 
Q 488 878 497 964 
Q 506 1050 525 1153 
L 897 3053 
L 409 3053 
L 500 3500 
L 978 3500 
L 1172 4494 
L 1747 4494 
L 1556 3500 
L 2706 3500 
z
" transform="scale(0.015625)"/>
       <path id="DejaVuSans-Oblique-68" d="M 3566 2113 
L 3156 0 
L 2578 0 
L 2988 2091 
Q 3016 2238 3031 2350 
Q 3047 2463 3047 2528 
Q 3047 2791 2881 2937 
Q 2716 3084 2419 3084 
Q 1956 3084 1617 2771 
Q 1278 2459 1178 1941 
L 800 0 
L 225 0 
L 1172 4863 
L 1747 4863 
L 1375 2950 
Q 1594 3244 1934 3414 
Q 2275 3584 2650 3584 
Q 3113 3584 3367 3334 
Q 3622 3084 3622 2631 
Q 3622 2519 3608 2391 
Q 3594 2263 3566 2113 
z
" transform="scale(0.015625)"/>
       <path id="DejaVuSans-38" d="M 2034 2216 
Q 1584 2216 1326 1975 
Q 1069 1734 1069 1313 
Q 1069 891 1326 650 
Q 1584 409 2034 409 
Q 2484 409 2743 651 
Q 3003 894 3003 1313 
Q 3003 1734 2745 1975 
Q 2488 2216 2034 2216 
z
M 1403 2484 
Q 997 2584 770 2862 
Q 544 3141 544 3541 
Q 544 4100 942 4425 
Q 1341 4750 2034 4750 
Q 2731 4750 3128 4425 
Q 3525 4100 3525 3541 
Q 3525 3141 3298 2862 
Q 3072 2584 2669 2484 
Q 3125 2378 3379 2068 
Q 3634 1759 3634 1313 
Q 3634 634 3220 271 
Q 2806 -91 2034 -91 
Q 1263 -91 848 271 
Q 434 634 434 1313 
Q 434 1759 690 2068 
Q 947 2378 1403 2484 
z
M 1172 3481 
Q 1172 3119 1398 2916 
Q 1625 2713 2034 2713 
Q 2441 2713 2670 2916 
Q 2900 3119 2900 3481 
Q 2900 3844 2670 4047 
Q 2441 4250 2034 4250 
Q 1625 4250 1398 4047 
Q 1172 3844 1172 3481 
z
" transform="scale(0.015625)"/>
       <path id="DejaVuSans-34" d="M 2419 4116 
L 825 1625 
L 2419 1625 
L 2419 4116 
z
M 2253 4666 
L 3047 4666 
L 3047 1625 
L 3713 1625 
L 3713 1100 
L 3047 1100 
L 3047 0 
L 2419 0 
L 2419 1100 
L 313 1100 
L 313 1709 
L 2253 4666 
z
" transform="scale(0.015625)"/>
      </defs>
      <use xlink:href="#DejaVuSans-47" transform="translate(0 0.529687)"/>
      <use xlink:href="#DejaVuSans-43" transform="translate(77.490234 0.529687)"/>
      <use xlink:href="#DejaVuSans-49" transform="translate(147.314453 0.529687)"/>
      <use xlink:href="#DejaVuSans-4d" transform="translate(176.806641 0.529687)"/>
      <use xlink:href="#DejaVuSans-20" transform="translate(263.085938 0.529687)"/>
      <use xlink:href="#DejaVuSans-31" transform="translate(294.873047 0.529687)"/>
      <use xlink:href="#DejaVuSans-36" transform="translate(358.496094 0.529687)"/>
      <use xlink:href="#DejaVuSans-Oblique-74" transform="translate(423.076172 38.810937) scale(0.7)"/>
      <use xlink:href="#DejaVuSans-Oblique-68" transform="translate(450.522461 38.810937) scale(0.7)"/>
      <use xlink:href="#DejaVuSans-20" transform="translate(497.62207 0.529687)"/>
      <use xlink:href="#DejaVuSans-61" transform="translate(529.40918 0.529687)"/>
      <use xlink:href="#DejaVuSans-6e" transform="translate(590.688477 0.529687)"/>
      <use xlink:href="#DejaVuSans-64" transform="translate(654.067383 0.529687)"/>
      <use xlink:href="#DejaVuSans-20" transform="translate(717.543945 0.529687)"/>
      <use xlink:href="#DejaVuSans-38" transform="translate(749.331055 0.529687)"/>
      <use xlink:href="#DejaVuSans-34" transform="translate(812.954102 0.529687)"/>
      <use xlink:href="#DejaVuSans-Oblique-74" transform="translate(877.53418 38.810937) scale(0.7)"/>
      <use xlink:href="#DejaVuSans-Oblique-68" transform="translate(904.980469 38.810937) scale(0.7)"/>
      <use xlink:href="#DejaVuSans-20" transform="translate(952.080078 0.529687)"/>
      <use xlink:href="#DejaVuSans-70" transform="translate(983.867188 0.529687)"/>
      <use xlink:href="#DejaVuSans-65" transform="translate(1047.34375 0.529687)"/>
      <use xlink:href="#DejaVuSans-72" transform="translate(1108.867188 0.529687)"/>
      <use xlink:href="#DejaVuSans-63" transform="translate(1149.980469 0.529687)"/>
      <use xlink:href="#DejaVuSans-65" transform="translate(1204.960938 0.529687)"/>
      <use xlink:href="#DejaVuSans-6e" transform="translate(1266.484375 0.529687)"/>
      <use xlink:href="#DejaVuSans-74" transform="translate(1329.863281 0.529687)"/>
      <use xlink:href="#DejaVuSans-69" transform="translate(1369.072266 0.529687)"/>
      <use xlink:href="#DejaVuSans-6c" transform="translate(1396.855469 0.529687)"/>
      <use xlink:href="#DejaVuSans-65" transform="translate(1424.638672 0.529687)"/>
      <use xlink:href="#DejaVuSans-73" transform="translate(1486.162109 0.529687)"/>
     </g>
    </g>
    <g id="line2d_128">
     <path d="M 249.4745 83.7692 
L 257.4745 83.7692 
L 265.4745 83.7692 
" style="fill: none; stroke: #0000ff; stroke-width: 2; stroke-linecap: square"/>
    </g>
    <g id="text_10">
     <!-- Selected GMs median -->
     <g transform="translate(271.8745 86.5692) scale(0.08 -0.08)">
      <use xlink:href="#DejaVuSans-53"/>
      <use xlink:href="#DejaVuSans-65" x="63.476562"/>
      <use xlink:href="#DejaVuSans-6c" x="125"/>
      <use xlink:href="#DejaVuSans-65" x="152.783203"/>
      <use xlink:href="#DejaVuSans-63" x="214.306641"/>
      <use xlink:href="#DejaVuSans-74" x="269.287109"/>
      <use xlink:href="#DejaVuSans-65" x="308.496094"/>
      <use xlink:href="#DejaVuSans-64" x="370.019531"/>
      <use xlink:href="#DejaVuSans-20" x="433.496094"/>
      <use xlink:href="#DejaVuSans-47" x="465.283203"/>
      <use xlink:href="#DejaVuSans-4d" x="542.773438"/>
      <use xlink:href="#DejaVuSans-73" x="629.052734"/>
      <use xlink:href="#DejaVuSans-20" x="681.152344"/>
      <use xlink:href="#DejaVuSans-6d" x="712.939453"/>
      <use xlink:href="#DejaVuSans-65" x="810.351562"/>
      <use xlink:href="#DejaVuSans-64" x="871.875"/>
      <use xlink:href="#DejaVuSans-69" x="935.351562"/>
      <use xlink:href="#DejaVuSans-61" x="963.134766"/>
      <use xlink:href="#DejaVuSans-6e" x="1024.414062"/>
     </g>
    </g>
    <g id="line2d_129">
     <path d="M 249.4745 96.79295 
L 257.4745 96.79295 
L 265.4745 96.79295 
" style="fill: none; stroke-dasharray: 7.4,3.2; stroke-dashoffset: 0; stroke: #0000ff; stroke-width: 2"/>
    </g>
    <g id="text_11">
     <!-- Selected GMs, $16^{th}$ and $84^{th}$ percentiles -->
     <g transform="translate(271.8745 99.59295) scale(0.08 -0.08)">
      <use xlink:href="#DejaVuSans-53" transform="translate(0 0.529687)"/>
      <use xlink:href="#DejaVuSans-65" transform="translate(63.476562 0.529687)"/>
      <use xlink:href="#DejaVuSans-6c" transform="translate(125 0.529687)"/>
      <use xlink:href="#DejaVuSans-65" transform="translate(152.783203 0.529687)"/>
      <use xlink:href="#DejaVuSans-63" transform="translate(214.306641 0.529687)"/>
      <use xlink:href="#DejaVuSans-74" transform="translate(269.287109 0.529687)"/>
      <use xlink:href="#DejaVuSans-65" transform="translate(308.496094 0.529687)"/>
      <use xlink:href="#DejaVuSans-64" transform="translate(370.019531 0.529687)"/>
      <use xlink:href="#DejaVuSans-20" transform="translate(433.496094 0.529687)"/>
      <use xlink:href="#DejaVuSans-47" transform="translate(465.283203 0.529687)"/>
      <use xlink:href="#DejaVuSans-4d" transform="translate(542.773438 0.529687)"/>
      <use xlink:href="#DejaVuSans-73" transform="translate(629.052734 0.529687)"/>
      <use xlink:href="#DejaVuSans-2c" transform="translate(681.152344 0.529687)"/>
      <use xlink:href="#DejaVuSans-20" transform="translate(712.939453 0.529687)"/>
      <use xlink:href="#DejaVuSans-31" transform="translate(744.726562 0.529687)"/>
      <use xlink:href="#DejaVuSans-36" transform="translate(808.349609 0.529687)"/>
      <use xlink:href="#DejaVuSans-Oblique-74" transform="translate(872.929688 38.810937) scale(0.7)"/>
      <use xlink:href="#DejaVuSans-Oblique-68" transform="translate(900.375977 38.810937) scale(0.7)"/>
      <use xlink:href="#DejaVuSans-20" transform="translate(947.475586 0.529687)"/>
      <use xlink:href="#DejaVuSans-61" transform="translate(979.262695 0.529687)"/>
      <use xlink:href="#DejaVuSans-6e" transform="translate(1040.541992 0.529687)"/>
      <use xlink:href="#DejaVuSans-64" transform="translate(1103.920898 0.529687)"/>
      <use xlink:href="#DejaVuSans-20" transform="translate(1167.397461 0.529687)"/>
      <use xlink:href="#DejaVuSans-38" transform="translate(1199.18457 0.529687)"/>
      <use xlink:href="#DejaVuSans-34" transform="translate(1262.807617 0.529687)"/>
      <use xlink:href="#DejaVuSans-Oblique-74" transform="translate(1327.387695 38.810937) scale(0.7)"/>
      <use xlink:href="#DejaVuSans-Oblique-68" transform="translate(1354.833984 38.810937) scale(0.7)"/>
      <use xlink:href="#DejaVuSans-20" transform="translate(1401.933594 0.529687)"/>
      <use xlink:href="#DejaVuSans-70" transform="translate(1433.720703 0.529687)"/>
      <use xlink:href="#DejaVuSans-65" transform="translate(1497.197266 0.529687)"/>
      <use xlink:href="#DejaVuSans-72" transform="translate(1558.720703 0.529687)"/>
      <use xlink:href="#DejaVuSans-63" transform="translate(1599.833984 0.529687)"/>
      <use xlink:href="#DejaVuSans-65" transform="translate(1654.814453 0.529687)"/>
      <use xlink:href="#DejaVuSans-6e" transform="translate(1716.337891 0.529687)"/>
      <use xlink:href="#DejaVuSans-74" transform="translate(1779.716797 0.529687)"/>
      <use xlink:href="#DejaVuSans-69" transform="translate(1818.925781 0.529687)"/>
      <use xlink:href="#DejaVuSans-6c" transform="translate(1846.708984 0.529687)"/>
      <use xlink:href="#DejaVuSans-65" transform="translate(1874.492188 0.529687)"/>
      <use xlink:href="#DejaVuSans-73" transform="translate(1936.015625 0.529687)"/>
     </g>
    </g>
   </g>
  </g>
 </g>
 <defs>
  <clipPath id="pd7cc0a16bc">
   <rect x="44.7425" y="7.2" width="197.532" height="130.8384"/>
  </clipPath>
 </defs>
</svg>
