<?xml version="1.0" encoding="utf-8" standalone="no"?>
<!DOCTYPE svg PUBLIC "-//W3C//DTD SVG 1.1//EN"
  "http://www.w3.org/Graphics/SVG/1.1/DTD/svg11.dtd">
<svg xmlns:xlink="http://www.w3.org/1999/xlink" width="441.3945pt" height="171.7234pt" viewBox="0 0 441.3945 171.7234" xmlns="http://www.w3.org/2000/svg" version="1.1">
 <metadata>
  <rdf:RDF xmlns:dc="http://purl.org/dc/elements/1.1/" xmlns:cc="http://creativecommons.org/ns#" xmlns:rdf="http://www.w3.org/1999/02/22-rdf-syntax-ns#">
   <cc:Work>
    <dc:type rdf:resource="http://purl.org/dc/dcmitype/StillImage"/>
    <dc:date>2024-11-13T10:54:54.160966</dc:date>
    <dc:format>image/svg+xml</dc:format>
    <dc:creator>
     <cc:Agent>
      <dc:title>Matplotlib v3.8.2, https://matplotlib.org/</dc:title>
     </cc:Agent>
    </dc:creator>
   </cc:Work>
  </rdf:RDF>
 </metadata>
 <defs>
  <style type="text/css">*{stroke-linejoin: round; stroke-linecap: butt}</style>
 </defs>
 <g id="figure_1">
  <g id="patch_1">
   <path d="M 0 171.7234 
L 441.3945 171.7234 
L 441.3945 0 
L 0 0 
z
" style="fill: #ffffff"/>
  </g>
  <g id="axes_1">
   <g id="patch_2">
    <path d="M 44.7425 138.0384 
L 242.2745 138.0384 
L 242.2745 7.2 
L 44.7425 7.2 
z
" style="fill: #ffffff"/>
   </g>
   <g id="matplotlib.axis_1">
    <g id="xtick_1">
     <g id="line2d_1">
      <path d="M 53.721227 138.0384 
L 53.721227 7.2 
" clip-path="url(#p430a91b566)" style="fill: none; stroke: #d9d9d9; stroke-width: 0.8; stroke-linecap: square"/>
     </g>
     <g id="line2d_2">
      <defs>
       <path id="me75116de52" d="M 0 0 
L 0 3.5 
" style="stroke: #000000; stroke-width: 0.8"/>
      </defs>
      <g>
       <use xlink:href="#me75116de52" x="53.721227" y="138.0384" style="stroke: #000000; stroke-width: 0.8"/>
      </g>
     </g>
     <g id="text_1">
      <!-- $\mathdefault{10^{-1}}$ -->
      <g transform="translate(44.321227 151.11715) scale(0.08 -0.08)">
       <defs>
        <path id="DejaVuSans-31" d="M 794 531 
L 1825 531 
L 1825 4091 
L 703 3866 
L 703 4441 
L 1819 4666 
L 2450 4666 
L 2450 531 
L 3481 531 
L 3481 0 
L 794 0 
L 794 531 
z
" transform="scale(0.015625)"/>
        <path id="DejaVuSans-30" d="M 2034 4250 
Q 1547 4250 1301 3770 
Q 1056 3291 1056 2328 
Q 1056 1369 1301 889 
Q 1547 409 2034 409 
Q 2525 409 2770 889 
Q 3016 1369 3016 2328 
Q 3016 3291 2770 3770 
Q 2525 4250 2034 4250 
z
M 2034 4750 
Q 2819 4750 3233 4129 
Q 3647 3509 3647 2328 
Q 3647 1150 3233 529 
Q 2819 -91 2034 -91 
Q 1250 -91 836 529 
Q 422 1150 422 2328 
Q 422 3509 836 4129 
Q 1250 4750 2034 4750 
z
" transform="scale(0.015625)"/>
        <path id="DejaVuSans-2212" d="M 678 2272 
L 4684 2272 
L 4684 1741 
L 678 1741 
L 678 2272 
z
" transform="scale(0.015625)"/>
       </defs>
       <use xlink:href="#DejaVuSans-31" transform="translate(0 0.684375)"/>
       <use xlink:href="#DejaVuSans-30" transform="translate(63.623047 0.684375)"/>
       <use xlink:href="#DejaVuSans-2212" transform="translate(128.203125 38.965625) scale(0.7)"/>
       <use xlink:href="#DejaVuSans-31" transform="translate(186.855469 38.965625) scale(0.7)"/>
      </g>
     </g>
    </g>
    <g id="xtick_2">
     <g id="line2d_3">
      <path d="M 165.811003 138.0384 
L 165.811003 7.2 
" clip-path="url(#p430a91b566)" style="fill: none; stroke: #d9d9d9; stroke-width: 0.8; stroke-linecap: square"/>
     </g>
     <g id="line2d_4">
      <g>
       <use xlink:href="#me75116de52" x="165.811003" y="138.0384" style="stroke: #000000; stroke-width: 0.8"/>
      </g>
     </g>
     <g id="text_2">
      <!-- $\mathdefault{10^{0}}$ -->
      <g transform="translate(158.771003 151.11715) scale(0.08 -0.08)">
       <use xlink:href="#DejaVuSans-31" transform="translate(0 0.765625)"/>
       <use xlink:href="#DejaVuSans-30" transform="translate(63.623047 0.765625)"/>
       <use xlink:href="#DejaVuSans-30" transform="translate(128.203125 39.046875) scale(0.7)"/>
      </g>
     </g>
    </g>
    <g id="xtick_3">
     <g id="line2d_5">
      <path d="M 48.59228 138.0384 
L 48.59228 7.2 
" clip-path="url(#p430a91b566)" style="fill: none; stroke-dasharray: 2.96,1.28; stroke-dashoffset: 0; stroke: #f2f2f2; stroke-width: 0.8"/>
     </g>
     <g id="line2d_6">
      <defs>
       <path id="m351dd10af7" d="M 0 0 
L 0 2 
" style="stroke: #000000; stroke-width: 0.6"/>
      </defs>
      <g>
       <use xlink:href="#m351dd10af7" x="48.59228" y="138.0384" style="stroke: #000000; stroke-width: 0.6"/>
      </g>
     </g>
    </g>
    <g id="xtick_4">
     <g id="line2d_7">
      <path d="M 87.463612 138.0384 
L 87.463612 7.2 
" clip-path="url(#p430a91b566)" style="fill: none; stroke-dasharray: 2.96,1.28; stroke-dashoffset: 0; stroke: #f2f2f2; stroke-width: 0.8"/>
     </g>
     <g id="line2d_8">
      <g>
       <use xlink:href="#m351dd10af7" x="87.463612" y="138.0384" style="stroke: #000000; stroke-width: 0.6"/>
      </g>
     </g>
    </g>
    <g id="xtick_5">
     <g id="line2d_9">
      <path d="M 107.201642 138.0384 
L 107.201642 7.2 
" clip-path="url(#p430a91b566)" style="fill: none; stroke-dasharray: 2.96,1.28; stroke-dashoffset: 0; stroke: #f2f2f2; stroke-width: 0.8"/>
     </g>
     <g id="line2d_10">
      <g>
       <use xlink:href="#m351dd10af7" x="107.201642" y="138.0384" style="stroke: #000000; stroke-width: 0.6"/>
      </g>
     </g>
    </g>
    <g id="xtick_6">
     <g id="line2d_11">
      <path d="M 121.205997 138.0384 
L 121.205997 7.2 
" clip-path="url(#p430a91b566)" style="fill: none; stroke-dasharray: 2.96,1.28; stroke-dashoffset: 0; stroke: #f2f2f2; stroke-width: 0.8"/>
     </g>
     <g id="line2d_12">
      <g>
       <use xlink:href="#m351dd10af7" x="121.205997" y="138.0384" style="stroke: #000000; stroke-width: 0.6"/>
      </g>
     </g>
    </g>
    <g id="xtick_7">
     <g id="line2d_13">
      <path d="M 132.068618 138.0384 
L 132.068618 7.2 
" clip-path="url(#p430a91b566)" style="fill: none; stroke-dasharray: 2.96,1.28; stroke-dashoffset: 0; stroke: #f2f2f2; stroke-width: 0.8"/>
     </g>
     <g id="line2d_14">
      <g>
       <use xlink:href="#m351dd10af7" x="132.068618" y="138.0384" style="stroke: #000000; stroke-width: 0.6"/>
      </g>
     </g>
    </g>
    <g id="xtick_8">
     <g id="line2d_15">
      <path d="M 140.944027 138.0384 
L 140.944027 7.2 
" clip-path="url(#p430a91b566)" style="fill: none; stroke-dasharray: 2.96,1.28; stroke-dashoffset: 0; stroke: #f2f2f2; stroke-width: 0.8"/>
     </g>
     <g id="line2d_16">
      <g>
       <use xlink:href="#m351dd10af7" x="140.944027" y="138.0384" style="stroke: #000000; stroke-width: 0.6"/>
      </g>
     </g>
    </g>
    <g id="xtick_9">
     <g id="line2d_17">
      <path d="M 148.448077 138.0384 
L 148.448077 7.2 
" clip-path="url(#p430a91b566)" style="fill: none; stroke-dasharray: 2.96,1.28; stroke-dashoffset: 0; stroke: #f2f2f2; stroke-width: 0.8"/>
     </g>
     <g id="line2d_18">
      <g>
       <use xlink:href="#m351dd10af7" x="148.448077" y="138.0384" style="stroke: #000000; stroke-width: 0.6"/>
      </g>
     </g>
    </g>
    <g id="xtick_10">
     <g id="line2d_19">
      <path d="M 154.948382 138.0384 
L 154.948382 7.2 
" clip-path="url(#p430a91b566)" style="fill: none; stroke-dasharray: 2.96,1.28; stroke-dashoffset: 0; stroke: #f2f2f2; stroke-width: 0.8"/>
     </g>
     <g id="line2d_20">
      <g>
       <use xlink:href="#m351dd10af7" x="154.948382" y="138.0384" style="stroke: #000000; stroke-width: 0.6"/>
      </g>
     </g>
    </g>
    <g id="xtick_11">
     <g id="line2d_21">
      <path d="M 160.682056 138.0384 
L 160.682056 7.2 
" clip-path="url(#p430a91b566)" style="fill: none; stroke-dasharray: 2.96,1.28; stroke-dashoffset: 0; stroke: #f2f2f2; stroke-width: 0.8"/>
     </g>
     <g id="line2d_22">
      <g>
       <use xlink:href="#m351dd10af7" x="160.682056" y="138.0384" style="stroke: #000000; stroke-width: 0.6"/>
      </g>
     </g>
    </g>
    <g id="xtick_12">
     <g id="line2d_23">
      <path d="M 199.553388 138.0384 
L 199.553388 7.2 
" clip-path="url(#p430a91b566)" style="fill: none; stroke-dasharray: 2.96,1.28; stroke-dashoffset: 0; stroke: #f2f2f2; stroke-width: 0.8"/>
     </g>
     <g id="line2d_24">
      <g>
       <use xlink:href="#m351dd10af7" x="199.553388" y="138.0384" style="stroke: #000000; stroke-width: 0.6"/>
      </g>
     </g>
    </g>
    <g id="xtick_13">
     <g id="line2d_25">
      <path d="M 219.291418 138.0384 
L 219.291418 7.2 
" clip-path="url(#p430a91b566)" style="fill: none; stroke-dasharray: 2.96,1.28; stroke-dashoffset: 0; stroke: #f2f2f2; stroke-width: 0.8"/>
     </g>
     <g id="line2d_26">
      <g>
       <use xlink:href="#m351dd10af7" x="219.291418" y="138.0384" style="stroke: #000000; stroke-width: 0.6"/>
      </g>
     </g>
    </g>
    <g id="xtick_14">
     <g id="line2d_27">
      <path d="M 233.295773 138.0384 
L 233.295773 7.2 
" clip-path="url(#p430a91b566)" style="fill: none; stroke-dasharray: 2.96,1.28; stroke-dashoffset: 0; stroke: #f2f2f2; stroke-width: 0.8"/>
     </g>
     <g id="line2d_28">
      <g>
       <use xlink:href="#m351dd10af7" x="233.295773" y="138.0384" style="stroke: #000000; stroke-width: 0.6"/>
      </g>
     </g>
    </g>
    <g id="text_3">
     <!-- Period, T (s) -->
     <g transform="translate(119.576 162.85965) scale(0.08 -0.08)">
      <defs>
       <path id="DejaVuSans-50" d="M 1259 4147 
L 1259 2394 
L 2053 2394 
Q 2494 2394 2734 2622 
Q 2975 2850 2975 3272 
Q 2975 3691 2734 3919 
Q 2494 4147 2053 4147 
L 1259 4147 
z
M 628 4666 
L 2053 4666 
Q 2838 4666 3239 4311 
Q 3641 3956 3641 3272 
Q 3641 2581 3239 2228 
Q 2838 1875 2053 1875 
L 1259 1875 
L 1259 0 
L 628 0 
L 628 4666 
z
" transform="scale(0.015625)"/>
       <path id="DejaVuSans-65" d="M 3597 1894 
L 3597 1613 
L 953 1613 
Q 991 1019 1311 708 
Q 1631 397 2203 397 
Q 2534 397 2845 478 
Q 3156 559 3463 722 
L 3463 178 
Q 3153 47 2828 -22 
Q 2503 -91 2169 -91 
Q 1331 -91 842 396 
Q 353 884 353 1716 
Q 353 2575 817 3079 
Q 1281 3584 2069 3584 
Q 2775 3584 3186 3129 
Q 3597 2675 3597 1894 
z
M 3022 2063 
Q 3016 2534 2758 2815 
Q 2500 3097 2075 3097 
Q 1594 3097 1305 2825 
Q 1016 2553 972 2059 
L 3022 2063 
z
" transform="scale(0.015625)"/>
       <path id="DejaVuSans-72" d="M 2631 2963 
Q 2534 3019 2420 3045 
Q 2306 3072 2169 3072 
Q 1681 3072 1420 2755 
Q 1159 2438 1159 1844 
L 1159 0 
L 581 0 
L 581 3500 
L 1159 3500 
L 1159 2956 
Q 1341 3275 1631 3429 
Q 1922 3584 2338 3584 
Q 2397 3584 2469 3576 
Q 2541 3569 2628 3553 
L 2631 2963 
z
" transform="scale(0.015625)"/>
       <path id="DejaVuSans-69" d="M 603 3500 
L 1178 3500 
L 1178 0 
L 603 0 
L 603 3500 
z
M 603 4863 
L 1178 4863 
L 1178 4134 
L 603 4134 
L 603 4863 
z
" transform="scale(0.015625)"/>
       <path id="DejaVuSans-6f" d="M 1959 3097 
Q 1497 3097 1228 2736 
Q 959 2375 959 1747 
Q 959 1119 1226 758 
Q 1494 397 1959 397 
Q 2419 397 2687 759 
Q 2956 1122 2956 1747 
Q 2956 2369 2687 2733 
Q 2419 3097 1959 3097 
z
M 1959 3584 
Q 2709 3584 3137 3096 
Q 3566 2609 3566 1747 
Q 3566 888 3137 398 
Q 2709 -91 1959 -91 
Q 1206 -91 779 398 
Q 353 888 353 1747 
Q 353 2609 779 3096 
Q 1206 3584 1959 3584 
z
" transform="scale(0.015625)"/>
       <path id="DejaVuSans-64" d="M 2906 2969 
L 2906 4863 
L 3481 4863 
L 3481 0 
L 2906 0 
L 2906 525 
Q 2725 213 2448 61 
Q 2172 -91 1784 -91 
Q 1150 -91 751 415 
Q 353 922 353 1747 
Q 353 2572 751 3078 
Q 1150 3584 1784 3584 
Q 2172 3584 2448 3432 
Q 2725 3281 2906 2969 
z
M 947 1747 
Q 947 1113 1208 752 
Q 1469 391 1925 391 
Q 2381 391 2643 752 
Q 2906 1113 2906 1747 
Q 2906 2381 2643 2742 
Q 2381 3103 1925 3103 
Q 1469 3103 1208 2742 
Q 947 2381 947 1747 
z
" transform="scale(0.015625)"/>
       <path id="DejaVuSans-2c" d="M 750 794 
L 1409 794 
L 1409 256 
L 897 -744 
L 494 -744 
L 750 256 
L 750 794 
z
" transform="scale(0.015625)"/>
       <path id="DejaVuSans-20" transform="scale(0.015625)"/>
       <path id="DejaVuSans-54" d="M -19 4666 
L 3928 4666 
L 3928 4134 
L 2272 4134 
L 2272 0 
L 1638 0 
L 1638 4134 
L -19 4134 
L -19 4666 
z
" transform="scale(0.015625)"/>
       <path id="DejaVuSans-28" d="M 1984 4856 
Q 1566 4138 1362 3434 
Q 1159 2731 1159 2009 
Q 1159 1288 1364 580 
Q 1569 -128 1984 -844 
L 1484 -844 
Q 1016 -109 783 600 
Q 550 1309 550 2009 
Q 550 2706 781 3412 
Q 1013 4119 1484 4856 
L 1984 4856 
z
" transform="scale(0.015625)"/>
       <path id="DejaVuSans-73" d="M 2834 3397 
L 2834 2853 
Q 2591 2978 2328 3040 
Q 2066 3103 1784 3103 
Q 1356 3103 1142 2972 
Q 928 2841 928 2578 
Q 928 2378 1081 2264 
Q 1234 2150 1697 2047 
L 1894 2003 
Q 2506 1872 2764 1633 
Q 3022 1394 3022 966 
Q 3022 478 2636 193 
Q 2250 -91 1575 -91 
Q 1294 -91 989 -36 
Q 684 19 347 128 
L 347 722 
Q 666 556 975 473 
Q 1284 391 1588 391 
Q 1994 391 2212 530 
Q 2431 669 2431 922 
Q 2431 1156 2273 1281 
Q 2116 1406 1581 1522 
L 1381 1569 
Q 847 1681 609 1914 
Q 372 2147 372 2553 
Q 372 3047 722 3315 
Q 1072 3584 1716 3584 
Q 2034 3584 2315 3537 
Q 2597 3491 2834 3397 
z
" transform="scale(0.015625)"/>
       <path id="DejaVuSans-29" d="M 513 4856 
L 1013 4856 
Q 1481 4119 1714 3412 
Q 1947 2706 1947 2009 
Q 1947 1309 1714 600 
Q 1481 -109 1013 -844 
L 513 -844 
Q 928 -128 1133 580 
Q 1338 1288 1338 2009 
Q 1338 2731 1133 3434 
Q 928 4138 513 4856 
z
" transform="scale(0.015625)"/>
      </defs>
      <use xlink:href="#DejaVuSans-50"/>
      <use xlink:href="#DejaVuSans-65" x="56.677734"/>
      <use xlink:href="#DejaVuSans-72" x="118.201172"/>
      <use xlink:href="#DejaVuSans-69" x="159.314453"/>
      <use xlink:href="#DejaVuSans-6f" x="187.097656"/>
      <use xlink:href="#DejaVuSans-64" x="248.279297"/>
      <use xlink:href="#DejaVuSans-2c" x="311.755859"/>
      <use xlink:href="#DejaVuSans-20" x="343.542969"/>
      <use xlink:href="#DejaVuSans-54" x="375.330078"/>
      <use xlink:href="#DejaVuSans-20" x="436.414062"/>
      <use xlink:href="#DejaVuSans-28" x="468.201172"/>
      <use xlink:href="#DejaVuSans-73" x="507.214844"/>
      <use xlink:href="#DejaVuSans-29" x="559.314453"/>
     </g>
    </g>
   </g>
   <g id="matplotlib.axis_2">
    <g id="ytick_1">
     <g id="line2d_29">
      <path d="M 44.7425 133.475585 
L 242.2745 133.475585 
" clip-path="url(#p430a91b566)" style="fill: none; stroke: #d9d9d9; stroke-width: 0.8; stroke-linecap: square"/>
     </g>
     <g id="line2d_30">
      <defs>
       <path id="m136ebb2eee" d="M 0 0 
L -3.5 0 
" style="stroke: #000000; stroke-width: 0.8"/>
      </defs>
      <g>
       <use xlink:href="#m136ebb2eee" x="44.7425" y="133.475585" style="stroke: #000000; stroke-width: 0.8"/>
      </g>
     </g>
     <g id="text_4">
      <!-- $\mathdefault{10^{-1}}$ -->
      <g transform="translate(18.9425 136.51496) scale(0.08 -0.08)">
       <use xlink:href="#DejaVuSans-31" transform="translate(0 0.684375)"/>
       <use xlink:href="#DejaVuSans-30" transform="translate(63.623047 0.684375)"/>
       <use xlink:href="#DejaVuSans-2212" transform="translate(128.203125 38.965625) scale(0.7)"/>
       <use xlink:href="#DejaVuSans-31" transform="translate(186.855469 38.965625) scale(0.7)"/>
      </g>
     </g>
    </g>
    <g id="ytick_2">
     <g id="line2d_31">
      <path d="M 44.7425 68.701695 
L 242.2745 68.701695 
" clip-path="url(#p430a91b566)" style="fill: none; stroke: #d9d9d9; stroke-width: 0.8; stroke-linecap: square"/>
     </g>
     <g id="line2d_32">
      <g>
       <use xlink:href="#m136ebb2eee" x="44.7425" y="68.701695" style="stroke: #000000; stroke-width: 0.8"/>
      </g>
     </g>
     <g id="text_5">
      <!-- $\mathdefault{10^{0}}$ -->
      <g transform="translate(23.6625 71.74107) scale(0.08 -0.08)">
       <use xlink:href="#DejaVuSans-31" transform="translate(0 0.765625)"/>
       <use xlink:href="#DejaVuSans-30" transform="translate(63.623047 0.765625)"/>
       <use xlink:href="#DejaVuSans-30" transform="translate(128.203125 39.046875) scale(0.7)"/>
      </g>
     </g>
    </g>
    <g id="ytick_3">
     <g id="line2d_33">
      <path d="M 44.7425 136.439476 
L 242.2745 136.439476 
" clip-path="url(#p430a91b566)" style="fill: none; stroke-dasharray: 2.96,1.28; stroke-dashoffset: 0; stroke: #f2f2f2; stroke-width: 0.8"/>
     </g>
     <g id="line2d_34">
      <defs>
       <path id="m042dae3eda" d="M 0 0 
L -2 0 
" style="stroke: #000000; stroke-width: 0.6"/>
      </defs>
      <g>
       <use xlink:href="#m042dae3eda" x="44.7425" y="136.439476" style="stroke: #000000; stroke-width: 0.6"/>
      </g>
     </g>
    </g>
    <g id="ytick_4">
     <g id="line2d_35">
      <path d="M 44.7425 113.976702 
L 242.2745 113.976702 
" clip-path="url(#p430a91b566)" style="fill: none; stroke-dasharray: 2.96,1.28; stroke-dashoffset: 0; stroke: #f2f2f2; stroke-width: 0.8"/>
     </g>
     <g id="line2d_36">
      <g>
       <use xlink:href="#m042dae3eda" x="44.7425" y="113.976702" style="stroke: #000000; stroke-width: 0.6"/>
      </g>
     </g>
    </g>
    <g id="ytick_5">
     <g id="line2d_37">
      <path d="M 44.7425 102.570586 
L 242.2745 102.570586 
" clip-path="url(#p430a91b566)" style="fill: none; stroke-dasharray: 2.96,1.28; stroke-dashoffset: 0; stroke: #f2f2f2; stroke-width: 0.8"/>
     </g>
     <g id="line2d_38">
      <g>
       <use xlink:href="#m042dae3eda" x="44.7425" y="102.570586" style="stroke: #000000; stroke-width: 0.6"/>
      </g>
     </g>
    </g>
    <g id="ytick_6">
     <g id="line2d_39">
      <path d="M 44.7425 94.477818 
L 242.2745 94.477818 
" clip-path="url(#p430a91b566)" style="fill: none; stroke-dasharray: 2.96,1.28; stroke-dashoffset: 0; stroke: #f2f2f2; stroke-width: 0.8"/>
     </g>
     <g id="line2d_40">
      <g>
       <use xlink:href="#m042dae3eda" x="44.7425" y="94.477818" style="stroke: #000000; stroke-width: 0.6"/>
      </g>
     </g>
    </g>
    <g id="ytick_7">
     <g id="line2d_41">
      <path d="M 44.7425 88.200579 
L 242.2745 88.200579 
" clip-path="url(#p430a91b566)" style="fill: none; stroke-dasharray: 2.96,1.28; stroke-dashoffset: 0; stroke: #f2f2f2; stroke-width: 0.8"/>
     </g>
     <g id="line2d_42">
      <g>
       <use xlink:href="#m042dae3eda" x="44.7425" y="88.200579" style="stroke: #000000; stroke-width: 0.6"/>
      </g>
     </g>
    </g>
    <g id="ytick_8">
     <g id="line2d_43">
      <path d="M 44.7425 83.071702 
L 242.2745 83.071702 
" clip-path="url(#p430a91b566)" style="fill: none; stroke-dasharray: 2.96,1.28; stroke-dashoffset: 0; stroke: #f2f2f2; stroke-width: 0.8"/>
     </g>
     <g id="line2d_44">
      <g>
       <use xlink:href="#m042dae3eda" x="44.7425" y="83.071702" style="stroke: #000000; stroke-width: 0.6"/>
      </g>
     </g>
    </g>
    <g id="ytick_9">
     <g id="line2d_45">
      <path d="M 44.7425 78.735298 
L 242.2745 78.735298 
" clip-path="url(#p430a91b566)" style="fill: none; stroke-dasharray: 2.96,1.28; stroke-dashoffset: 0; stroke: #f2f2f2; stroke-width: 0.8"/>
     </g>
     <g id="line2d_46">
      <g>
       <use xlink:href="#m042dae3eda" x="44.7425" y="78.735298" style="stroke: #000000; stroke-width: 0.6"/>
      </g>
     </g>
    </g>
    <g id="ytick_10">
     <g id="line2d_47">
      <path d="M 44.7425 74.978934 
L 242.2745 74.978934 
" clip-path="url(#p430a91b566)" style="fill: none; stroke-dasharray: 2.96,1.28; stroke-dashoffset: 0; stroke: #f2f2f2; stroke-width: 0.8"/>
     </g>
     <g id="line2d_48">
      <g>
       <use xlink:href="#m042dae3eda" x="44.7425" y="74.978934" style="stroke: #000000; stroke-width: 0.6"/>
      </g>
     </g>
    </g>
    <g id="ytick_11">
     <g id="line2d_49">
      <path d="M 44.7425 71.665586 
L 242.2745 71.665586 
" clip-path="url(#p430a91b566)" style="fill: none; stroke-dasharray: 2.96,1.28; stroke-dashoffset: 0; stroke: #f2f2f2; stroke-width: 0.8"/>
     </g>
     <g id="line2d_50">
      <g>
       <use xlink:href="#m042dae3eda" x="44.7425" y="71.665586" style="stroke: #000000; stroke-width: 0.6"/>
      </g>
     </g>
    </g>
    <g id="ytick_12">
     <g id="line2d_51">
      <path d="M 44.7425 49.202811 
L 242.2745 49.202811 
" clip-path="url(#p430a91b566)" style="fill: none; stroke-dasharray: 2.96,1.28; stroke-dashoffset: 0; stroke: #f2f2f2; stroke-width: 0.8"/>
     </g>
     <g id="line2d_52">
      <g>
       <use xlink:href="#m042dae3eda" x="44.7425" y="49.202811" style="stroke: #000000; stroke-width: 0.6"/>
      </g>
     </g>
    </g>
    <g id="ytick_13">
     <g id="line2d_53">
      <path d="M 44.7425 37.796696 
L 242.2745 37.796696 
" clip-path="url(#p430a91b566)" style="fill: none; stroke-dasharray: 2.96,1.28; stroke-dashoffset: 0; stroke: #f2f2f2; stroke-width: 0.8"/>
     </g>
     <g id="line2d_54">
      <g>
       <use xlink:href="#m042dae3eda" x="44.7425" y="37.796696" style="stroke: #000000; stroke-width: 0.6"/>
      </g>
     </g>
    </g>
    <g id="ytick_14">
     <g id="line2d_55">
      <path d="M 44.7425 29.703928 
L 242.2745 29.703928 
" clip-path="url(#p430a91b566)" style="fill: none; stroke-dasharray: 2.96,1.28; stroke-dashoffset: 0; stroke: #f2f2f2; stroke-width: 0.8"/>
     </g>
     <g id="line2d_56">
      <g>
       <use xlink:href="#m042dae3eda" x="44.7425" y="29.703928" style="stroke: #000000; stroke-width: 0.6"/>
      </g>
     </g>
    </g>
    <g id="ytick_15">
     <g id="line2d_57">
      <path d="M 44.7425 23.426689 
L 242.2745 23.426689 
" clip-path="url(#p430a91b566)" style="fill: none; stroke-dasharray: 2.96,1.28; stroke-dashoffset: 0; stroke: #f2f2f2; stroke-width: 0.8"/>
     </g>
     <g id="line2d_58">
      <g>
       <use xlink:href="#m042dae3eda" x="44.7425" y="23.426689" style="stroke: #000000; stroke-width: 0.6"/>
      </g>
     </g>
    </g>
    <g id="ytick_16">
     <g id="line2d_59">
      <path d="M 44.7425 18.297812 
L 242.2745 18.297812 
" clip-path="url(#p430a91b566)" style="fill: none; stroke-dasharray: 2.96,1.28; stroke-dashoffset: 0; stroke: #f2f2f2; stroke-width: 0.8"/>
     </g>
     <g id="line2d_60">
      <g>
       <use xlink:href="#m042dae3eda" x="44.7425" y="18.297812" style="stroke: #000000; stroke-width: 0.6"/>
      </g>
     </g>
    </g>
    <g id="ytick_17">
     <g id="line2d_61">
      <path d="M 44.7425 13.961408 
L 242.2745 13.961408 
" clip-path="url(#p430a91b566)" style="fill: none; stroke-dasharray: 2.96,1.28; stroke-dashoffset: 0; stroke: #f2f2f2; stroke-width: 0.8"/>
     </g>
     <g id="line2d_62">
      <g>
       <use xlink:href="#m042dae3eda" x="44.7425" y="13.961408" style="stroke: #000000; stroke-width: 0.6"/>
      </g>
     </g>
    </g>
    <g id="ytick_18">
     <g id="line2d_63">
      <path d="M 44.7425 10.205044 
L 242.2745 10.205044 
" clip-path="url(#p430a91b566)" style="fill: none; stroke-dasharray: 2.96,1.28; stroke-dashoffset: 0; stroke: #f2f2f2; stroke-width: 0.8"/>
     </g>
     <g id="line2d_64">
      <g>
       <use xlink:href="#m042dae3eda" x="44.7425" y="10.205044" style="stroke: #000000; stroke-width: 0.6"/>
      </g>
     </g>
    </g>
    <g id="text_6">
     <!-- Spectral acceleration, SA (g) -->
     <g transform="translate(13.27875 129.871075) rotate(-90) scale(0.08 -0.08)">
      <defs>
       <path id="DejaVuSans-53" d="M 3425 4513 
L 3425 3897 
Q 3066 4069 2747 4153 
Q 2428 4238 2131 4238 
Q 1616 4238 1336 4038 
Q 1056 3838 1056 3469 
Q 1056 3159 1242 3001 
Q 1428 2844 1947 2747 
L 2328 2669 
Q 3034 2534 3370 2195 
Q 3706 1856 3706 1288 
Q 3706 609 3251 259 
Q 2797 -91 1919 -91 
Q 1588 -91 1214 -16 
Q 841 59 441 206 
L 441 856 
Q 825 641 1194 531 
Q 1563 422 1919 422 
Q 2459 422 2753 634 
Q 3047 847 3047 1241 
Q 3047 1584 2836 1778 
Q 2625 1972 2144 2069 
L 1759 2144 
Q 1053 2284 737 2584 
Q 422 2884 422 3419 
Q 422 4038 858 4394 
Q 1294 4750 2059 4750 
Q 2388 4750 2728 4690 
Q 3069 4631 3425 4513 
z
" transform="scale(0.015625)"/>
       <path id="DejaVuSans-70" d="M 1159 525 
L 1159 -1331 
L 581 -1331 
L 581 3500 
L 1159 3500 
L 1159 2969 
Q 1341 3281 1617 3432 
Q 1894 3584 2278 3584 
Q 2916 3584 3314 3078 
Q 3713 2572 3713 1747 
Q 3713 922 3314 415 
Q 2916 -91 2278 -91 
Q 1894 -91 1617 61 
Q 1341 213 1159 525 
z
M 3116 1747 
Q 3116 2381 2855 2742 
Q 2594 3103 2138 3103 
Q 1681 3103 1420 2742 
Q 1159 2381 1159 1747 
Q 1159 1113 1420 752 
Q 1681 391 2138 391 
Q 2594 391 2855 752 
Q 3116 1113 3116 1747 
z
" transform="scale(0.015625)"/>
       <path id="DejaVuSans-63" d="M 3122 3366 
L 3122 2828 
Q 2878 2963 2633 3030 
Q 2388 3097 2138 3097 
Q 1578 3097 1268 2742 
Q 959 2388 959 1747 
Q 959 1106 1268 751 
Q 1578 397 2138 397 
Q 2388 397 2633 464 
Q 2878 531 3122 666 
L 3122 134 
Q 2881 22 2623 -34 
Q 2366 -91 2075 -91 
Q 1284 -91 818 406 
Q 353 903 353 1747 
Q 353 2603 823 3093 
Q 1294 3584 2113 3584 
Q 2378 3584 2631 3529 
Q 2884 3475 3122 3366 
z
" transform="scale(0.015625)"/>
       <path id="DejaVuSans-74" d="M 1172 4494 
L 1172 3500 
L 2356 3500 
L 2356 3053 
L 1172 3053 
L 1172 1153 
Q 1172 725 1289 603 
Q 1406 481 1766 481 
L 2356 481 
L 2356 0 
L 1766 0 
Q 1100 0 847 248 
Q 594 497 594 1153 
L 594 3053 
L 172 3053 
L 172 3500 
L 594 3500 
L 594 4494 
L 1172 4494 
z
" transform="scale(0.015625)"/>
       <path id="DejaVuSans-61" d="M 2194 1759 
Q 1497 1759 1228 1600 
Q 959 1441 959 1056 
Q 959 750 1161 570 
Q 1363 391 1709 391 
Q 2188 391 2477 730 
Q 2766 1069 2766 1631 
L 2766 1759 
L 2194 1759 
z
M 3341 1997 
L 3341 0 
L 2766 0 
L 2766 531 
Q 2569 213 2275 61 
Q 1981 -91 1556 -91 
Q 1019 -91 701 211 
Q 384 513 384 1019 
Q 384 1609 779 1909 
Q 1175 2209 1959 2209 
L 2766 2209 
L 2766 2266 
Q 2766 2663 2505 2880 
Q 2244 3097 1772 3097 
Q 1472 3097 1187 3025 
Q 903 2953 641 2809 
L 641 3341 
Q 956 3463 1253 3523 
Q 1550 3584 1831 3584 
Q 2591 3584 2966 3190 
Q 3341 2797 3341 1997 
z
" transform="scale(0.015625)"/>
       <path id="DejaVuSans-6c" d="M 603 4863 
L 1178 4863 
L 1178 0 
L 603 0 
L 603 4863 
z
" transform="scale(0.015625)"/>
       <path id="DejaVuSans-6e" d="M 3513 2113 
L 3513 0 
L 2938 0 
L 2938 2094 
Q 2938 2591 2744 2837 
Q 2550 3084 2163 3084 
Q 1697 3084 1428 2787 
Q 1159 2491 1159 1978 
L 1159 0 
L 581 0 
L 581 3500 
L 1159 3500 
L 1159 2956 
Q 1366 3272 1645 3428 
Q 1925 3584 2291 3584 
Q 2894 3584 3203 3211 
Q 3513 2838 3513 2113 
z
" transform="scale(0.015625)"/>
       <path id="DejaVuSans-41" d="M 2188 4044 
L 1331 1722 
L 3047 1722 
L 2188 4044 
z
M 1831 4666 
L 2547 4666 
L 4325 0 
L 3669 0 
L 3244 1197 
L 1141 1197 
L 716 0 
L 50 0 
L 1831 4666 
z
" transform="scale(0.015625)"/>
       <path id="DejaVuSans-67" d="M 2906 1791 
Q 2906 2416 2648 2759 
Q 2391 3103 1925 3103 
Q 1463 3103 1205 2759 
Q 947 2416 947 1791 
Q 947 1169 1205 825 
Q 1463 481 1925 481 
Q 2391 481 2648 825 
Q 2906 1169 2906 1791 
z
M 3481 434 
Q 3481 -459 3084 -895 
Q 2688 -1331 1869 -1331 
Q 1566 -1331 1297 -1286 
Q 1028 -1241 775 -1147 
L 775 -588 
Q 1028 -725 1275 -790 
Q 1522 -856 1778 -856 
Q 2344 -856 2625 -561 
Q 2906 -266 2906 331 
L 2906 616 
Q 2728 306 2450 153 
Q 2172 0 1784 0 
Q 1141 0 747 490 
Q 353 981 353 1791 
Q 353 2603 747 3093 
Q 1141 3584 1784 3584 
Q 2172 3584 2450 3431 
Q 2728 3278 2906 2969 
L 2906 3500 
L 3481 3500 
L 3481 434 
z
" transform="scale(0.015625)"/>
      </defs>
      <use xlink:href="#DejaVuSans-53"/>
      <use xlink:href="#DejaVuSans-70" x="63.476562"/>
      <use xlink:href="#DejaVuSans-65" x="126.953125"/>
      <use xlink:href="#DejaVuSans-63" x="188.476562"/>
      <use xlink:href="#DejaVuSans-74" x="243.457031"/>
      <use xlink:href="#DejaVuSans-72" x="282.666016"/>
      <use xlink:href="#DejaVuSans-61" x="323.779297"/>
      <use xlink:href="#DejaVuSans-6c" x="385.058594"/>
      <use xlink:href="#DejaVuSans-20" x="412.841797"/>
      <use xlink:href="#DejaVuSans-61" x="444.628906"/>
      <use xlink:href="#DejaVuSans-63" x="505.908203"/>
      <use xlink:href="#DejaVuSans-63" x="560.888672"/>
      <use xlink:href="#DejaVuSans-65" x="615.869141"/>
      <use xlink:href="#DejaVuSans-6c" x="677.392578"/>
      <use xlink:href="#DejaVuSans-65" x="705.175781"/>
      <use xlink:href="#DejaVuSans-72" x="766.699219"/>
      <use xlink:href="#DejaVuSans-61" x="807.8125"/>
      <use xlink:href="#DejaVuSans-74" x="869.091797"/>
      <use xlink:href="#DejaVuSans-69" x="908.300781"/>
      <use xlink:href="#DejaVuSans-6f" x="936.083984"/>
      <use xlink:href="#DejaVuSans-6e" x="997.265625"/>
      <use xlink:href="#DejaVuSans-2c" x="1060.644531"/>
      <use xlink:href="#DejaVuSans-20" x="1092.431641"/>
      <use xlink:href="#DejaVuSans-53" x="1124.21875"/>
      <use xlink:href="#DejaVuSans-41" x="1189.570312"/>
      <use xlink:href="#DejaVuSans-20" x="1257.978516"/>
      <use xlink:href="#DejaVuSans-28" x="1289.765625"/>
      <use xlink:href="#DejaVuSans-67" x="1328.779297"/>
      <use xlink:href="#DejaVuSans-29" x="1392.255859"/>
     </g>
    </g>
   </g>
   <g id="line2d_65">
    <path d="M 53.721227 22.50711 
L 73.459257 22.183924 
L 87.463612 23.369038 
L 98.326234 24.431742 
L 107.201642 27.092797 
L 121.205997 33.439571 
L 132.068618 39.036514 
L 137.236494 43.724477 
L 151.806648 56.839472 
L 165.811003 71.941883 
L 178.582888 82.474105 
L 185.549033 85.592174 
L 199.553388 91.981493 
L 219.291418 103.106164 
L 233.295773 115.772455 
" clip-path="url(#p430a91b566)" style="fill: none; stroke: #b2b2b2; stroke-width: 0.8; stroke-linecap: square"/>
   </g>
   <g id="line2d_66">
    <path d="M 53.721227 61.286104 
L 73.459257 54.778017 
L 87.463612 50.771248 
L 98.326234 48.305591 
L 107.201642 45.168234 
L 121.205997 43.839816 
L 132.068618 42.997577 
L 137.236494 43.724477 
L 151.806648 45.854426 
L 165.811003 48.942842 
L 178.582888 52.907406 
L 185.549033 54.303925 
L 199.553388 60.853383 
L 219.291418 81.56577 
L 233.295773 96.420403 
" clip-path="url(#p430a91b566)" style="fill: none; stroke: #b2b2b2; stroke-width: 0.8; stroke-linecap: square"/>
   </g>
   <g id="line2d_67">
    <path d="M 53.721227 59.074307 
L 73.459257 50.920662 
L 87.463612 46.707777 
L 98.326234 45.43423 
L 107.201642 45.791393 
L 121.205997 45.004519 
L 132.068618 43.612932 
L 137.236494 43.724477 
L 151.806648 46.146409 
L 165.811003 51.665267 
L 178.582888 57.359982 
L 185.549033 61.801348 
L 199.553388 71.929186 
L 219.291418 93.005044 
L 233.295773 109.981938 
" clip-path="url(#p430a91b566)" style="fill: none; stroke: #b2b2b2; stroke-width: 0.8; stroke-linecap: square"/>
   </g>
   <g id="line2d_68">
    <path d="M 53.721227 56.31751 
L 73.459257 49.424736 
L 87.463612 44.15791 
L 98.326234 40.956241 
L 107.201642 40.002286 
L 121.205997 43.025578 
L 132.068618 45.268926 
L 137.236494 43.724477 
L 151.806648 46.21833 
L 165.811003 52.081172 
L 178.582888 54.570843 
L 185.549033 56.800023 
L 199.553388 65.259411 
L 219.291418 85.1623 
L 233.295773 101.333529 
" clip-path="url(#p430a91b566)" style="fill: none; stroke: #b2b2b2; stroke-width: 0.8; stroke-linecap: square"/>
   </g>
   <g id="line2d_69">
    <path d="M 53.721227 59.449492 
L 73.459257 54.568032 
L 87.463612 46.88199 
L 98.326234 43.911328 
L 107.201642 43.324701 
L 121.205997 41.429213 
L 132.068618 42.993124 
L 137.236494 43.724477 
L 151.806648 47.975129 
L 165.811003 54.936015 
L 178.582888 64.955508 
L 185.549033 71.522036 
L 199.553388 80.984239 
L 219.291418 96.444527 
L 233.295773 103.887344 
" clip-path="url(#p430a91b566)" style="fill: none; stroke: #b2b2b2; stroke-width: 0.8; stroke-linecap: square"/>
   </g>
   <g id="line2d_70">
    <path d="M 53.721227 33.72044 
L 73.459257 35.636865 
L 87.463612 36.953865 
L 98.326234 38.969779 
L 107.201642 39.86116 
L 121.205997 40.837911 
L 132.068618 43.225427 
L 137.236494 43.724477 
L 151.806648 44.31519 
L 165.811003 49.680664 
L 178.582888 56.732953 
L 185.549033 62.411806 
L 199.553388 78.319873 
L 219.291418 99.193883 
L 233.295773 116.85496 
" clip-path="url(#p430a91b566)" style="fill: none; stroke: #b2b2b2; stroke-width: 0.8; stroke-linecap: square"/>
   </g>
   <g id="line2d_71">
    <path d="M 53.721227 53.09581 
L 73.459257 46.859265 
L 87.463612 43.231055 
L 98.326234 42.262895 
L 107.201642 42.263817 
L 121.205997 42.716165 
L 132.068618 43.495063 
L 137.236494 43.724477 
L 151.806648 49.233448 
L 165.811003 53.695181 
L 178.582888 61.108398 
L 185.549033 66.714979 
L 199.553388 77.586406 
L 219.291418 93.565179 
L 233.295773 109.554563 
" clip-path="url(#p430a91b566)" style="fill: none; stroke: #b2b2b2; stroke-width: 0.8; stroke-linecap: square"/>
   </g>
   <g id="line2d_72">
    <path d="M 53.721227 38.228756 
L 73.459257 37.550443 
L 87.463612 40.196081 
L 98.326234 41.390653 
L 107.201642 43.581822 
L 121.205997 44.967029 
L 132.068618 44.852784 
L 137.236494 43.724477 
L 151.806648 44.48934 
L 165.811003 50.622938 
L 178.582888 55.681556 
L 185.549033 61.537426 
L 199.553388 75.614293 
L 219.291418 91.407811 
L 233.295773 103.158579 
" clip-path="url(#p430a91b566)" style="fill: none; stroke: #b2b2b2; stroke-width: 0.8; stroke-linecap: square"/>
   </g>
   <g id="line2d_73">
    <path d="M 53.721227 30.994529 
L 73.459257 33.819488 
L 87.463612 36.893888 
L 98.326234 38.905192 
L 107.201642 41.228245 
L 121.205997 43.153666 
L 132.068618 42.213967 
L 137.236494 43.724477 
L 151.806648 49.46605 
L 165.811003 55.521533 
L 178.582888 65.831252 
L 185.549033 72.998375 
L 199.553388 85.030245 
L 219.291418 105.956934 
L 233.295773 120.723554 
" clip-path="url(#p430a91b566)" style="fill: none; stroke: #b2b2b2; stroke-width: 0.8; stroke-linecap: square"/>
   </g>
   <g id="line2d_74">
    <path d="M 53.721227 62.187839 
L 73.459257 57.760513 
L 87.463612 52.618104 
L 98.326234 50.973111 
L 107.201642 48.960693 
L 121.205997 45.189952 
L 132.068618 45.147873 
L 137.236494 43.724477 
L 151.806648 44.40537 
L 165.811003 49.31332 
L 178.582888 55.62264 
L 185.549033 60.138661 
L 199.553388 67.612958 
L 219.291418 84.43048 
L 233.295773 102.125179 
" clip-path="url(#p430a91b566)" style="fill: none; stroke: #b2b2b2; stroke-width: 0.8; stroke-linecap: square"/>
   </g>
   <g id="line2d_75">
    <path d="M 53.721227 55.989412 
L 73.459257 48.518953 
L 87.463612 43.745273 
L 98.326234 41.473017 
L 107.201642 39.666048 
L 121.205997 41.441604 
L 132.068618 44.366183 
L 137.236494 43.724477 
L 151.806648 50.875177 
L 165.811003 58.046872 
L 178.582888 65.127624 
L 185.549033 68.780374 
L 199.553388 79.109255 
L 219.291418 94.216925 
L 233.295773 112.458696 
" clip-path="url(#p430a91b566)" style="fill: none; stroke: #b2b2b2; stroke-width: 0.8; stroke-linecap: square"/>
   </g>
   <g id="line2d_76">
    <path d="M 53.721227 41.344756 
L 73.459257 39.082405 
L 87.463612 35.228085 
L 98.326234 39.051686 
L 107.201642 39.885002 
L 121.205997 41.061616 
L 132.068618 42.123171 
L 137.236494 43.724477 
L 151.806648 51.547764 
L 165.811003 57.912222 
L 178.582888 65.001889 
L 185.549033 72.035659 
L 199.553388 73.979345 
L 219.291418 87.39537 
L 233.295773 99.360893 
" clip-path="url(#p430a91b566)" style="fill: none; stroke: #b2b2b2; stroke-width: 0.8; stroke-linecap: square"/>
   </g>
   <g id="line2d_77">
    <path d="M 53.721227 58.765718 
L 73.459257 55.485685 
L 87.463612 52.194698 
L 98.326234 51.477794 
L 107.201642 49.813793 
L 121.205997 46.322431 
L 132.068618 45.108739 
L 137.236494 43.724477 
L 151.806648 45.302778 
L 165.811003 48.171182 
L 178.582888 54.276218 
L 185.549033 59.44571 
L 199.553388 68.013233 
L 219.291418 84.808529 
L 233.295773 99.312286 
" clip-path="url(#p430a91b566)" style="fill: none; stroke: #b2b2b2; stroke-width: 0.8; stroke-linecap: square"/>
   </g>
   <g id="line2d_78">
    <path d="M 53.721227 36.006292 
L 73.459257 38.005764 
L 87.463612 40.408233 
L 98.326234 40.273972 
L 107.201642 41.882894 
L 121.205997 42.016817 
L 132.068618 44.129775 
L 137.236494 43.724477 
L 151.806648 42.6889 
L 165.811003 48.349003 
L 178.582888 53.308048 
L 185.549033 56.515632 
L 199.553388 58.761327 
L 219.291418 71.216697 
L 233.295773 84.782372 
" clip-path="url(#p430a91b566)" style="fill: none; stroke: #b2b2b2; stroke-width: 0.8; stroke-linecap: square"/>
   </g>
   <g id="line2d_79">
    <path d="M 53.721227 46.96071 
L 73.459257 42.795917 
L 87.463612 40.642355 
L 98.326234 41.636977 
L 107.201642 39.399456 
L 121.205997 38.050575 
L 132.068618 41.294952 
L 137.236494 43.724477 
L 151.806648 51.068804 
L 165.811003 56.612939 
L 178.582888 65.547891 
L 185.549033 71.276925 
L 199.553388 82.699362 
L 219.291418 97.538843 
L 233.295773 111.730088 
" clip-path="url(#p430a91b566)" style="fill: none; stroke: #b2b2b2; stroke-width: 0.8; stroke-linecap: square"/>
   </g>
   <g id="line2d_80">
    <path d="M 53.721227 55.474317 
L 73.459257 49.750002 
L 87.463612 46.84383 
L 98.326234 45.477214 
L 107.201642 41.026445 
L 121.205997 39.375144 
L 132.068618 40.860781 
L 137.236494 43.724477 
L 151.806648 48.886065 
L 165.811003 55.138975 
L 178.582888 67.005931 
L 185.549033 69.288371 
L 199.553388 84.874474 
L 219.291418 99.756231 
L 233.295773 108.963567 
" clip-path="url(#p430a91b566)" style="fill: none; stroke: #b2b2b2; stroke-width: 0.8; stroke-linecap: square"/>
   </g>
   <g id="line2d_81">
    <path d="M 53.721227 52.570865 
L 73.459257 47.695467 
L 87.463612 45.474019 
L 98.326234 43.003282 
L 107.201642 42.47677 
L 121.205997 42.867966 
L 132.068618 41.990412 
L 137.236494 43.724477 
L 151.806648 50.842681 
L 165.811003 56.530378 
L 178.582888 62.82517 
L 185.549033 66.018389 
L 199.553388 73.872466 
L 219.291418 88.545106 
L 233.295773 99.103903 
" clip-path="url(#p430a91b566)" style="fill: none; stroke: #b2b2b2; stroke-width: 0.8; stroke-linecap: square"/>
   </g>
   <g id="line2d_82">
    <path d="M 53.721227 49.72101 
L 73.459257 41.87551 
L 87.463612 39.955717 
L 98.326234 38.588979 
L 107.201642 37.896959 
L 121.205997 40.191137 
L 132.068618 41.098052 
L 137.236494 43.724477 
L 151.806648 51.945804 
L 165.811003 55.605855 
L 178.582888 61.361438 
L 185.549033 65.94675 
L 199.553388 79.00979 
L 219.291418 97.375292 
L 233.295773 116.650928 
" clip-path="url(#p430a91b566)" style="fill: none; stroke: #b2b2b2; stroke-width: 0.8; stroke-linecap: square"/>
   </g>
   <g id="line2d_83">
    <path d="M 53.721227 21.973194 
L 73.459257 27.066293 
L 87.463612 29.266211 
L 98.326234 28.989897 
L 107.201642 30.378505 
L 121.205997 36.613718 
L 132.068618 40.675842 
L 137.236494 43.724477 
L 151.806648 52.828719 
L 165.811003 62.10908 
L 178.582888 72.075601 
L 185.549033 77.026946 
L 199.553388 84.617435 
L 219.291418 97.868661 
L 233.295773 110.382493 
" clip-path="url(#p430a91b566)" style="fill: none; stroke: #b2b2b2; stroke-width: 0.8; stroke-linecap: square"/>
   </g>
   <g id="line2d_84">
    <path d="M 53.721227 18.685365 
L 73.459257 15.953692 
L 87.463612 13.1472 
L 98.326234 17.24328 
L 107.201642 22.11259 
L 121.205997 29.104465 
L 132.068618 39.444772 
L 137.236494 43.724477 
L 151.806648 54.237706 
L 165.811003 65.617427 
L 178.582888 74.570886 
L 185.549033 80.401873 
L 199.553388 91.536929 
L 219.291418 111.787421 
L 233.295773 125.920632 
" clip-path="url(#p430a91b566)" style="fill: none; stroke: #b2b2b2; stroke-width: 0.8; stroke-linecap: square"/>
   </g>
   <g id="line2d_85">
    <path d="M 53.721227 42.991353 
L 73.459257 36.70387 
L 87.463612 36.372292 
L 98.326234 35.946829 
L 107.201642 38.591121 
L 121.205997 42.218455 
L 132.068618 45.016252 
L 137.236494 43.724477 
L 151.806648 51.584795 
L 165.811003 58.249331 
L 178.582888 65.608199 
L 185.549033 67.493378 
L 199.553388 73.292391 
L 219.291418 78.464742 
L 233.295773 85.215143 
" clip-path="url(#p430a91b566)" style="fill: none; stroke: #b2b2b2; stroke-width: 0.8; stroke-linecap: square"/>
   </g>
   <g id="line2d_86">
    <path d="M 53.721227 32.524565 
L 73.459257 25.439919 
L 87.463612 25.721262 
L 98.326234 28.587752 
L 107.201642 31.806425 
L 121.205997 38.368424 
L 132.068618 42.389501 
L 137.236494 43.724477 
L 151.806648 52.401635 
L 165.811003 61.547775 
L 178.582888 71.340685 
L 185.549033 78.166515 
L 199.553388 89.793506 
L 219.291418 111.92426 
L 233.295773 128.906566 
" clip-path="url(#p430a91b566)" style="fill: none; stroke: #b2b2b2; stroke-width: 0.8; stroke-linecap: square"/>
   </g>
   <g id="line2d_87">
    <path d="M 53.721227 38.390797 
L 73.459257 33.626054 
L 87.463612 33.213105 
L 98.326234 34.018152 
L 107.201642 34.241688 
L 121.205997 36.096109 
L 132.068618 39.833147 
L 137.236494 43.724477 
L 151.806648 51.824709 
L 165.811003 57.790137 
L 178.582888 64.322973 
L 185.549033 68.242098 
L 199.553388 78.313468 
L 219.291418 95.84325 
L 233.295773 111.017137 
" clip-path="url(#p430a91b566)" style="fill: none; stroke: #b2b2b2; stroke-width: 0.8; stroke-linecap: square"/>
   </g>
   <g id="line2d_88">
    <path d="M 53.721227 37.944985 
L 73.459257 34.598317 
L 87.463612 36.078269 
L 98.326234 37.528534 
L 107.201642 36.772874 
L 121.205997 37.723608 
L 132.068618 41.179245 
L 137.236494 43.724477 
L 151.806648 52.375334 
L 165.811003 65.209217 
L 178.582888 77.256751 
L 185.549033 83.846338 
L 199.553388 98.429032 
L 219.291418 115.889085 
L 233.295773 130.764598 
" clip-path="url(#p430a91b566)" style="fill: none; stroke: #b2b2b2; stroke-width: 0.8; stroke-linecap: square"/>
   </g>
   <g id="line2d_89">
    <path d="M 53.721227 49.957913 
L 73.459257 44.668409 
L 87.463612 44.467833 
L 98.326234 42.715165 
L 107.201642 41.105905 
L 121.205997 42.842295 
L 132.068618 44.170126 
L 137.236494 43.724477 
L 151.806648 48.490961 
L 165.811003 53.828215 
L 178.582888 59.329344 
L 185.549033 64.196584 
L 199.553388 72.989633 
L 219.291418 74.558568 
L 233.295773 82.338448 
" clip-path="url(#p430a91b566)" style="fill: none; stroke: #b2b2b2; stroke-width: 0.8; stroke-linecap: square"/>
   </g>
   <g id="line2d_90">
    <path d="M 53.721227 48.539411 
L 73.459257 45.009939 
L 87.463612 41.166267 
L 98.326234 40.051228 
L 107.201642 42.158968 
L 121.205997 38.924368 
L 132.068618 41.962578 
L 137.236494 43.724477 
L 151.806648 50.832621 
L 165.811003 59.436125 
L 178.582888 68.283231 
L 185.549033 75.54253 
L 199.553388 85.130143 
L 219.291418 101.061464 
L 233.295773 115.377607 
" clip-path="url(#p430a91b566)" style="fill: none; stroke: #b2b2b2; stroke-width: 0.8; stroke-linecap: square"/>
   </g>
   <g id="line2d_91">
    <path d="M 53.721227 34.771554 
L 73.459257 29.044598 
L 87.463612 30.941192 
L 98.326234 37.013025 
L 107.201642 38.029337 
L 121.205997 39.09768 
L 132.068618 44.463427 
L 137.236494 43.724477 
L 151.806648 49.495042 
L 165.811003 53.06498 
L 178.582888 58.258013 
L 185.549033 64.735816 
L 199.553388 75.456799 
L 219.291418 94.615251 
L 233.295773 111.352534 
" clip-path="url(#p430a91b566)" style="fill: none; stroke: #b2b2b2; stroke-width: 0.8; stroke-linecap: square"/>
   </g>
   <g id="line2d_92">
    <path d="M 53.721227 52.998157 
L 73.459257 46.158207 
L 87.463612 44.047692 
L 98.326234 41.908486 
L 107.201642 39.82012 
L 121.205997 39.471365 
L 132.068618 42.07174 
L 137.236494 43.724477 
L 151.806648 49.228441 
L 165.811003 55.490882 
L 178.582888 61.558457 
L 185.549033 65.86208 
L 199.553388 77.253944 
L 219.291418 98.624135 
L 233.295773 114.955957 
" clip-path="url(#p430a91b566)" style="fill: none; stroke: #b2b2b2; stroke-width: 0.8; stroke-linecap: square"/>
   </g>
   <g id="line2d_93">
    <path d="M 53.721227 45.064692 
L 73.459257 41.837624 
L 87.463612 40.305095 
L 98.326234 40.4067 
L 107.201642 39.213142 
L 121.205997 39.438662 
L 132.068618 42.553228 
L 137.236494 43.724477 
L 151.806648 53.370411 
L 165.811003 62.379297 
L 178.582888 72.289164 
L 185.549033 78.468563 
L 199.553388 90.607458 
L 219.291418 108.905799 
L 233.295773 124.241138 
" clip-path="url(#p430a91b566)" style="fill: none; stroke: #b2b2b2; stroke-width: 0.8; stroke-linecap: square"/>
   </g>
   <g id="line2d_94">
    <path d="M 53.721227 42.514122 
L 73.459257 38.491263 
L 87.463612 35.179279 
L 98.326234 36.877552 
L 107.201642 37.468585 
L 121.205997 38.558783 
L 132.068618 42.670657 
L 137.236494 43.724477 
L 151.806648 51.482671 
L 165.811003 56.88947 
L 178.582888 65.616002 
L 185.549033 73.446756 
L 199.553388 84.10792 
L 219.291418 107.508198 
L 233.295773 122.213206 
" clip-path="url(#p430a91b566)" style="fill: none; stroke: #b2b2b2; stroke-width: 0.8; stroke-linecap: square"/>
   </g>
   <g id="line2d_95">
    <path d="M 53.721227 36.951319 
L 73.459257 34.289056 
L 87.463612 35.154533 
L 98.326234 33.105985 
L 107.201642 34.375344 
L 121.205997 37.013137 
L 132.068618 38.02821 
L 137.236494 43.724477 
L 151.806648 47.442944 
L 165.811003 54.789461 
L 178.582888 62.121477 
L 185.549033 63.811513 
L 199.553388 79.074109 
L 219.291418 97.013762 
L 233.295773 114.89248 
" clip-path="url(#p430a91b566)" style="fill: none; stroke: #b2b2b2; stroke-width: 0.8; stroke-linecap: square"/>
   </g>
   <g id="line2d_96">
    <path d="M 53.721227 49.475964 
L 73.459257 44.45342 
L 87.463612 38.233646 
L 98.326234 36.83532 
L 107.201642 37.4932 
L 121.205997 40.354509 
L 132.068618 41.109489 
L 137.236494 43.724477 
L 151.806648 51.909379 
L 165.811003 57.524327 
L 178.582888 63.312051 
L 185.549033 67.141878 
L 199.553388 75.981963 
L 219.291418 93.656483 
L 233.295773 101.547666 
" clip-path="url(#p430a91b566)" style="fill: none; stroke: #b2b2b2; stroke-width: 0.8; stroke-linecap: square"/>
   </g>
   <g id="line2d_97">
    <path d="M 53.721227 63.304151 
L 73.459257 60.365309 
L 87.463612 56.009881 
L 98.326234 53.078697 
L 107.201642 48.604008 
L 121.205997 45.755101 
L 132.068618 42.77997 
L 137.236494 43.724477 
L 151.806648 42.117786 
L 165.811003 44.20127 
L 178.582888 50.345496 
L 185.549033 51.349949 
L 199.553388 59.061048 
L 219.291418 77.079029 
L 233.295773 93.348745 
" clip-path="url(#p430a91b566)" style="fill: none; stroke: #b2b2b2; stroke-width: 0.8; stroke-linecap: square"/>
   </g>
   <g id="line2d_98">
    <path d="M 53.721227 55.91642 
L 73.459257 50.57372 
L 87.463612 47.520705 
L 98.326234 46.840479 
L 107.201642 45.069601 
L 121.205997 42.21512 
L 132.068618 44.393603 
L 137.236494 43.724477 
L 151.806648 48.076523 
L 165.811003 50.574366 
L 178.582888 55.233647 
L 185.549033 59.410115 
L 199.553388 66.932906 
L 219.291418 82.649691 
L 233.295773 91.31994 
" clip-path="url(#p430a91b566)" style="fill: none; stroke: #b2b2b2; stroke-width: 0.8; stroke-linecap: square"/>
   </g>
   <g id="line2d_99">
    <path d="M 53.721227 54.286002 
L 73.459257 46.637719 
L 87.463612 45.581932 
L 98.326234 47.424559 
L 107.201642 47.642488 
L 121.205997 44.473853 
L 132.068618 44.306237 
L 137.236494 43.724477 
L 151.806648 45.523235 
L 165.811003 55.625701 
L 178.582888 64.693031 
L 185.549033 70.219558 
L 199.553388 83.830537 
L 219.291418 103.066448 
L 233.295773 117.78599 
" clip-path="url(#p430a91b566)" style="fill: none; stroke: #b2b2b2; stroke-width: 0.8; stroke-linecap: square"/>
   </g>
   <g id="line2d_100">
    <path d="M 53.721227 45.830901 
L 73.459257 37.934538 
L 87.463612 35.978682 
L 98.326234 36.651561 
L 107.201642 38.35746 
L 121.205997 38.924973 
L 132.068618 41.232567 
L 137.236494 43.724477 
L 151.806648 52.087778 
L 165.811003 62.407305 
L 178.582888 74.39158 
L 185.549033 80.586413 
L 199.553388 94.710666 
L 219.291418 109.764005 
L 233.295773 119.375097 
" clip-path="url(#p430a91b566)" style="fill: none; stroke: #b2b2b2; stroke-width: 0.8; stroke-linecap: square"/>
   </g>
   <g id="line2d_101">
    <path d="M 53.721227 44.946753 
L 73.459257 36.972899 
L 87.463612 34.032102 
L 98.326234 34.12192 
L 107.201642 33.064309 
L 121.205997 38.10968 
L 132.068618 41.761211 
L 137.236494 43.724477 
L 151.806648 50.058222 
L 165.811003 56.931091 
L 178.582888 62.346296 
L 185.549033 67.485491 
L 199.553388 76.82817 
L 219.291418 98.492907 
L 233.295773 111.240086 
" clip-path="url(#p430a91b566)" style="fill: none; stroke: #b2b2b2; stroke-width: 0.8; stroke-linecap: square"/>
   </g>
   <g id="line2d_102">
    <path d="M 53.721227 26.910009 
L 73.459257 23.837519 
L 87.463612 25.723959 
L 98.326234 26.726551 
L 107.201642 30.272592 
L 121.205997 37.422072 
L 132.068618 40.585192 
L 137.236494 43.724477 
L 151.806648 50.238869 
L 165.811003 55.846612 
L 178.582888 64.145811 
L 185.549033 70.223208 
L 199.553388 77.415928 
L 219.291418 99.099397 
L 233.295773 112.957524 
" clip-path="url(#p430a91b566)" style="fill: none; stroke: #b2b2b2; stroke-width: 0.8; stroke-linecap: square"/>
   </g>
   <g id="line2d_103">
    <path d="M 53.721227 41.164087 
L 73.459257 41.134469 
L 87.463612 41.486672 
L 98.326234 39.96472 
L 107.201642 39.046036 
L 121.205997 40.855482 
L 132.068618 41.663248 
L 137.236494 43.724477 
L 151.806648 45.57112 
L 165.811003 49.849201 
L 178.582888 55.254784 
L 185.549033 57.916366 
L 199.553388 69.621492 
L 219.291418 86.411194 
L 233.295773 104.866831 
" clip-path="url(#p430a91b566)" style="fill: none; stroke: #b2b2b2; stroke-width: 0.8; stroke-linecap: square"/>
   </g>
   <g id="line2d_104">
    <path d="M 53.721227 31.684306 
L 73.459257 29.270906 
L 87.463612 25.630803 
L 98.326234 22.800875 
L 107.201642 26.032709 
L 121.205997 35.820934 
L 132.068618 40.712446 
L 137.236494 43.724477 
L 151.806648 49.958669 
L 165.811003 59.182929 
L 178.582888 70.42197 
L 185.549033 76.142573 
L 199.553388 88.748412 
L 219.291418 108.395461 
L 233.295773 122.469554 
" clip-path="url(#p430a91b566)" style="fill: none; stroke: #b2b2b2; stroke-width: 0.8; stroke-linecap: square"/>
   </g>
   <g id="line2d_105">
    <path d="M 53.721227 40.328859 
L 73.459257 37.126169 
L 87.463612 36.758902 
L 98.326234 36.524924 
L 107.201642 36.716546 
L 121.205997 39.447757 
L 132.068618 41.703459 
L 137.236494 43.724477 
L 151.806648 48.359695 
L 165.811003 51.721364 
L 178.582888 54.4539 
L 185.549033 57.343673 
L 199.553388 64.58308 
L 219.291418 81.735861 
L 233.295773 92.866887 
" clip-path="url(#p430a91b566)" style="fill: none; stroke: #b2b2b2; stroke-width: 0.8; stroke-linecap: square"/>
   </g>
   <g id="line2d_106">
    <path d="M 53.721227 47.285293 
L 73.459257 46.521624 
L 87.463612 45.553765 
L 98.326234 42.670564 
L 107.201642 40.529924 
L 121.205997 38.971143 
L 132.068618 42.356628 
L 137.236494 43.724477 
L 151.806648 52.794178 
L 165.811003 63.117646 
L 178.582888 72.206857 
L 185.549033 78.433394 
L 199.553388 89.851228 
L 219.291418 107.36335 
L 233.295773 124.146156 
" clip-path="url(#p430a91b566)" style="fill: none; stroke: #b2b2b2; stroke-width: 0.8; stroke-linecap: square"/>
   </g>
   <g id="line2d_107">
    <path d="M 53.721227 64.064549 
L 73.459257 57.649052 
L 87.463612 52.513049 
L 98.326234 48.928858 
L 107.201642 48.570827 
L 121.205997 47.283736 
L 132.068618 43.499336 
L 137.236494 43.724477 
L 151.806648 43.145114 
L 165.811003 49.547344 
L 178.582888 59.54146 
L 185.549033 62.482792 
L 199.553388 70.031223 
L 219.291418 79.839628 
L 233.295773 89.938533 
" clip-path="url(#p430a91b566)" style="fill: none; stroke: #b2b2b2; stroke-width: 0.8; stroke-linecap: square"/>
   </g>
   <g id="line2d_108">
    <path d="M 53.721227 47.897947 
L 73.459257 46.2964 
L 87.463612 44.67935 
L 98.326234 44.863383 
L 107.201642 43.316913 
L 121.205997 41.428071 
L 132.068618 41.986342 
L 137.236494 43.724477 
L 151.806648 49.655569 
L 165.811003 55.434844 
L 178.582888 63.537162 
L 185.549033 68.102338 
L 199.553388 79.899166 
L 219.291418 96.007042 
L 233.295773 105.694121 
" clip-path="url(#p430a91b566)" style="fill: none; stroke: #b2b2b2; stroke-width: 0.8; stroke-linecap: square"/>
   </g>
   <g id="line2d_109">
    <path d="M 53.721227 46.761068 
L 73.459257 42.706163 
L 87.463612 42.032434 
L 98.326234 40.746263 
L 107.201642 39.904167 
L 121.205997 41.832569 
L 132.068618 42.737323 
L 137.236494 43.724477 
L 151.806648 50.954967 
L 165.811003 57.554212 
L 178.582888 61.338184 
L 185.549033 66.720971 
L 199.553388 78.072647 
L 219.291418 100.320303 
L 233.295773 118.995836 
" clip-path="url(#p430a91b566)" style="fill: none; stroke: #b2b2b2; stroke-width: 0.8; stroke-linecap: square"/>
   </g>
   <g id="line2d_110">
    <path d="M 53.721227 56.835429 
L 73.459257 55.9275 
L 87.463612 54.414936 
L 98.326234 51.004354 
L 107.201642 50.548474 
L 121.205997 47.979593 
L 132.068618 44.761638 
L 137.236494 43.724477 
L 151.806648 42.349435 
L 165.811003 48.052263 
L 178.582888 53.901213 
L 185.549033 56.760176 
L 199.553388 63.464587 
L 219.291418 75.360235 
L 233.295773 89.297718 
" clip-path="url(#p430a91b566)" style="fill: none; stroke: #b2b2b2; stroke-width: 0.8; stroke-linecap: square"/>
   </g>
   <g id="line2d_111">
    <path d="M 53.721227 40.263673 
L 73.459257 38.908164 
L 87.463612 35.554501 
L 98.326234 35.957849 
L 107.201642 37.035021 
L 121.205997 38.286267 
L 132.068618 41.276272 
L 137.236494 43.724477 
L 151.806648 53.983686 
L 165.811003 63.383199 
L 178.582888 71.302247 
L 185.549033 75.723911 
L 199.553388 86.809973 
L 219.291418 103.30429 
L 233.295773 111.189049 
" clip-path="url(#p430a91b566)" style="fill: none; stroke: #b2b2b2; stroke-width: 0.8; stroke-linecap: square"/>
   </g>
   <g id="line2d_112">
    <path d="M 53.721227 52.322012 
L 73.459257 48.235391 
L 87.463612 44.595508 
L 98.326234 41.747671 
L 107.201642 40.501317 
L 121.205997 41.743414 
L 132.068618 42.774286 
L 137.236494 43.724477 
L 151.806648 47.681157 
L 165.811003 53.059968 
L 178.582888 60.066778 
L 185.549033 65.832529 
L 199.553388 76.335605 
L 219.291418 94.274462 
L 233.295773 109.927761 
" clip-path="url(#p430a91b566)" style="fill: none; stroke: #b2b2b2; stroke-width: 0.8; stroke-linecap: square"/>
   </g>
   <g id="line2d_113">
    <path d="M 53.721227 57.628906 
L 73.459257 55.189639 
L 87.463612 53.049705 
L 98.326234 50.6679 
L 107.201642 47.927074 
L 121.205997 45.425992 
L 132.068618 44.136879 
L 137.236494 43.724477 
L 151.806648 46.015998 
L 165.811003 52.90148 
L 178.582888 58.919483 
L 185.549033 63.722051 
L 199.553388 75.578154 
L 219.291418 94.2748 
L 233.295773 109.718782 
" clip-path="url(#p430a91b566)" style="fill: none; stroke: #b2b2b2; stroke-width: 0.8; stroke-linecap: square"/>
   </g>
   <g id="line2d_114">
    <path d="M 53.721227 58.158441 
L 73.459257 52.551041 
L 87.463612 48.153655 
L 98.326234 45.936471 
L 107.201642 44.82481 
L 121.205997 41.732098 
L 132.068618 42.356081 
L 137.236494 43.724477 
L 151.806648 46.614959 
L 165.811003 55.064578 
L 178.582888 63.738785 
L 185.549033 68.670776 
L 199.553388 80.724918 
L 219.291418 98.943089 
L 233.295773 114.775318 
" clip-path="url(#p430a91b566)" style="fill: none; stroke: #b2b2b2; stroke-width: 0.8; stroke-linecap: square"/>
   </g>
   <g id="line2d_115">
    <path d="M 53.721227 46.057752 
L 73.459257 42.323102 
L 87.463612 40.325544 
L 98.326234 40.026296 
L 107.201642 39.763012 
L 121.205997 40.68034 
L 132.068618 42.562779 
L 137.236494 43.724477 
L 151.806648 49.014382 
L 165.811003 55.677981 
L 178.582888 62.997847 
L 185.549033 67.861622 
L 199.553388 77.952476 
L 219.291418 94.645841 
L 233.295773 108.616456 
" clip-path="url(#p430a91b566)" style="fill: none; stroke: #ff0000; stroke-width: 2; stroke-linecap: square"/>
   </g>
   <g id="line2d_116">
    <path d="M 53.721227 23.484029 
L 73.459257 22.314863 
L 87.463612 22.951069 
L 98.326234 25.086838 
L 107.201642 27.639284 
L 121.205997 33.692956 
L 132.068618 38.944597 
L 137.236494 43.724476 
L 151.806648 42.177215 
L 165.811003 44.930363 
L 178.582888 48.997252 
L 185.549033 52.195374 
L 199.553388 59.616161 
L 219.291418 73.387136 
L 233.295773 85.265046 
" clip-path="url(#p430a91b566)" style="fill: none; stroke-dasharray: 7.4,3.2; stroke-dashoffset: 0; stroke: #ff0000; stroke-width: 2"/>
   </g>
   <g id="line2d_117">
    <path d="M 53.721227 68.631475 
L 73.459257 62.331341 
L 87.463612 57.700019 
L 98.326234 54.965754 
L 107.201642 51.88674 
L 121.205997 47.667723 
L 132.068618 46.18096 
L 137.236494 43.724478 
L 151.806648 55.85155 
L 165.811003 66.425598 
L 178.582888 76.998443 
L 185.549033 83.52787 
L 199.553388 96.288791 
L 219.291418 115.904547 
L 233.295773 131.967866 
" clip-path="url(#p430a91b566)" style="fill: none; stroke-dasharray: 7.4,3.2; stroke-dashoffset: 0; stroke: #ff0000; stroke-width: 2"/>
   </g>
   <g id="line2d_118">
    <path d="M 53.721227 46.041344 
L 73.459257 42.237811 
L 87.463612 40.376752 
L 98.326234 39.888184 
L 107.201642 39.817092 
L 121.205997 40.769283 
L 132.068618 42.488144 
L 137.236494 43.724477 
L 151.806648 49.015869 
L 165.811003 55.662987 
L 178.582888 63.069607 
L 185.549033 67.772754 
L 199.553388 77.891504 
L 219.291418 94.775867 
L 233.295773 108.624295 
" clip-path="url(#p430a91b566)" style="fill: none; stroke: #0000ff; stroke-width: 2; stroke-linecap: square"/>
   </g>
   <g id="line2d_119">
    <path d="M 53.721227 23.47863 
L 73.459257 22.243335 
L 87.463612 23.058893 
L 98.326234 24.966466 
L 107.201642 27.719332 
L 121.205997 33.708175 
L 132.068618 39.142407 
L 137.236494 43.724477 
L 151.806648 42.230526 
L 165.811003 45.02326 
L 178.582888 49.132505 
L 185.549033 52.125753 
L 199.553388 59.562335 
L 219.291418 73.564798 
L 233.295773 85.157391 
" clip-path="url(#p430a91b566)" style="fill: none; stroke-dasharray: 7.4,3.2; stroke-dashoffset: 0; stroke: #0000ff; stroke-width: 2"/>
   </g>
   <g id="line2d_120">
    <path d="M 53.721227 68.604057 
L 73.459257 62.232287 
L 87.463612 57.694611 
L 98.326234 54.809901 
L 107.201642 51.914852 
L 121.205997 47.830391 
L 132.068618 45.83388 
L 137.236494 43.724477 
L 151.806648 55.801213 
L 165.811003 66.302714 
L 178.582888 77.00671 
L 185.549033 83.419756 
L 199.553388 96.220673 
L 219.291418 115.986936 
L 233.295773 132.0912 
" clip-path="url(#p430a91b566)" style="fill: none; stroke-dasharray: 7.4,3.2; stroke-dashoffset: 0; stroke: #0000ff; stroke-width: 2"/>
   </g>
   <g id="patch_3">
    <path d="M 44.7425 138.0384 
L 44.7425 7.2 
" style="fill: none; stroke: #000000; stroke-width: 0.8; stroke-linejoin: miter; stroke-linecap: square"/>
   </g>
   <g id="patch_4">
    <path d="M 242.2745 138.0384 
L 242.2745 7.2 
" style="fill: none; stroke: #000000; stroke-width: 0.8; stroke-linejoin: miter; stroke-linecap: square"/>
   </g>
   <g id="patch_5">
    <path d="M 44.7425 138.0384 
L 242.2745 138.0384 
" style="fill: none; stroke: #000000; stroke-width: 0.8; stroke-linejoin: miter; stroke-linecap: square"/>
   </g>
   <g id="patch_6">
    <path d="M 44.7425 7.2 
L 242.2745 7.2 
" style="fill: none; stroke: #000000; stroke-width: 0.8; stroke-linejoin: miter; stroke-linecap: square"/>
   </g>
   <g id="legend_1">
    <g id="patch_7">
     <path d="M 247.8745 104.47295 
L 432.5945 104.47295 
Q 434.1945 104.47295 434.1945 102.87295 
L 434.1945 42.36545 
Q 434.1945 40.76545 432.5945 40.76545 
L 247.8745 40.76545 
Q 246.2745 40.76545 246.2745 42.36545 
L 246.2745 102.87295 
Q 246.2745 104.47295 247.8745 104.47295 
z
" style="fill: #ffffff; opacity: 0.8; stroke: #cccccc; stroke-linejoin: miter"/>
    </g>
    <g id="line2d_121">
     <path d="M 249.4745 47.2442 
L 257.4745 47.2442 
L 265.4745 47.2442 
" style="fill: none; stroke: #b2b2b2; stroke-width: 0.8; stroke-linecap: square"/>
    </g>
    <g id="text_7">
     <!-- Individual selected GMs -->
     <g transform="translate(271.8745 50.0442) scale(0.08 -0.08)">
      <defs>
       <path id="DejaVuSans-49" d="M 628 4666 
L 1259 4666 
L 1259 0 
L 628 0 
L 628 4666 
z
" transform="scale(0.015625)"/>
       <path id="DejaVuSans-76" d="M 191 3500 
L 800 3500 
L 1894 563 
L 2988 3500 
L 3597 3500 
L 2284 0 
L 1503 0 
L 191 3500 
z
" transform="scale(0.015625)"/>
       <path id="DejaVuSans-75" d="M 544 1381 
L 544 3500 
L 1119 3500 
L 1119 1403 
Q 1119 906 1312 657 
Q 1506 409 1894 409 
Q 2359 409 2629 706 
Q 2900 1003 2900 1516 
L 2900 3500 
L 3475 3500 
L 3475 0 
L 2900 0 
L 2900 538 
Q 2691 219 2414 64 
Q 2138 -91 1772 -91 
Q 1169 -91 856 284 
Q 544 659 544 1381 
z
M 1991 3584 
L 1991 3584 
z
" transform="scale(0.015625)"/>
       <path id="DejaVuSans-47" d="M 3809 666 
L 3809 1919 
L 2778 1919 
L 2778 2438 
L 4434 2438 
L 4434 434 
Q 4069 175 3628 42 
Q 3188 -91 2688 -91 
Q 1594 -91 976 548 
Q 359 1188 359 2328 
Q 359 3472 976 4111 
Q 1594 4750 2688 4750 
Q 3144 4750 3555 4637 
Q 3966 4525 4313 4306 
L 4313 3634 
Q 3963 3931 3569 4081 
Q 3175 4231 2741 4231 
Q 1884 4231 1454 3753 
Q 1025 3275 1025 2328 
Q 1025 1384 1454 906 
Q 1884 428 2741 428 
Q 3075 428 3337 486 
Q 3600 544 3809 666 
z
" transform="scale(0.015625)"/>
       <path id="DejaVuSans-4d" d="M 628 4666 
L 1569 4666 
L 2759 1491 
L 3956 4666 
L 4897 4666 
L 4897 0 
L 4281 0 
L 4281 4097 
L 3078 897 
L 2444 897 
L 1241 4097 
L 1241 0 
L 628 0 
L 628 4666 
z
" transform="scale(0.015625)"/>
      </defs>
      <use xlink:href="#DejaVuSans-49"/>
      <use xlink:href="#DejaVuSans-6e" x="29.492188"/>
      <use xlink:href="#DejaVuSans-64" x="92.871094"/>
      <use xlink:href="#DejaVuSans-69" x="156.347656"/>
      <use xlink:href="#DejaVuSans-76" x="184.130859"/>
      <use xlink:href="#DejaVuSans-69" x="243.310547"/>
      <use xlink:href="#DejaVuSans-64" x="271.09375"/>
      <use xlink:href="#DejaVuSans-75" x="334.570312"/>
      <use xlink:href="#DejaVuSans-61" x="397.949219"/>
      <use xlink:href="#DejaVuSans-6c" x="459.228516"/>
      <use xlink:href="#DejaVuSans-20" x="487.011719"/>
      <use xlink:href="#DejaVuSans-73" x="518.798828"/>
      <use xlink:href="#DejaVuSans-65" x="570.898438"/>
      <use xlink:href="#DejaVuSans-6c" x="632.421875"/>
      <use xlink:href="#DejaVuSans-65" x="660.205078"/>
      <use xlink:href="#DejaVuSans-63" x="721.728516"/>
      <use xlink:href="#DejaVuSans-74" x="776.708984"/>
      <use xlink:href="#DejaVuSans-65" x="815.917969"/>
      <use xlink:href="#DejaVuSans-64" x="877.441406"/>
      <use xlink:href="#DejaVuSans-20" x="940.917969"/>
      <use xlink:href="#DejaVuSans-47" x="972.705078"/>
      <use xlink:href="#DejaVuSans-4d" x="1050.195312"/>
      <use xlink:href="#DejaVuSans-73" x="1136.474609"/>
     </g>
    </g>
    <g id="line2d_122">
     <path d="M 249.4745 58.9867 
L 257.4745 58.9867 
L 265.4745 58.9867 
" style="fill: none; stroke: #ff0000; stroke-width: 2; stroke-linecap: square"/>
    </g>
    <g id="text_8">
     <!-- GCIM median -->
     <g transform="translate(271.8745 61.7867) scale(0.08 -0.08)">
      <defs>
       <path id="DejaVuSans-43" d="M 4122 4306 
L 4122 3641 
Q 3803 3938 3442 4084 
Q 3081 4231 2675 4231 
Q 1875 4231 1450 3742 
Q 1025 3253 1025 2328 
Q 1025 1406 1450 917 
Q 1875 428 2675 428 
Q 3081 428 3442 575 
Q 3803 722 4122 1019 
L 4122 359 
Q 3791 134 3420 21 
Q 3050 -91 2638 -91 
Q 1578 -91 968 557 
Q 359 1206 359 2328 
Q 359 3453 968 4101 
Q 1578 4750 2638 4750 
Q 3056 4750 3426 4639 
Q 3797 4528 4122 4306 
z
" transform="scale(0.015625)"/>
       <path id="DejaVuSans-6d" d="M 3328 2828 
Q 3544 3216 3844 3400 
Q 4144 3584 4550 3584 
Q 5097 3584 5394 3201 
Q 5691 2819 5691 2113 
L 5691 0 
L 5113 0 
L 5113 2094 
Q 5113 2597 4934 2840 
Q 4756 3084 4391 3084 
Q 3944 3084 3684 2787 
Q 3425 2491 3425 1978 
L 3425 0 
L 2847 0 
L 2847 2094 
Q 2847 2600 2669 2842 
Q 2491 3084 2119 3084 
Q 1678 3084 1418 2786 
Q 1159 2488 1159 1978 
L 1159 0 
L 581 0 
L 581 3500 
L 1159 3500 
L 1159 2956 
Q 1356 3278 1631 3431 
Q 1906 3584 2284 3584 
Q 2666 3584 2933 3390 
Q 3200 3197 3328 2828 
z
" transform="scale(0.015625)"/>
      </defs>
      <use xlink:href="#DejaVuSans-47"/>
      <use xlink:href="#DejaVuSans-43" x="77.490234"/>
      <use xlink:href="#DejaVuSans-49" x="147.314453"/>
      <use xlink:href="#DejaVuSans-4d" x="176.806641"/>
      <use xlink:href="#DejaVuSans-20" x="263.085938"/>
      <use xlink:href="#DejaVuSans-6d" x="294.873047"/>
      <use xlink:href="#DejaVuSans-65" x="392.285156"/>
      <use xlink:href="#DejaVuSans-64" x="453.808594"/>
      <use xlink:href="#DejaVuSans-69" x="517.285156"/>
      <use xlink:href="#DejaVuSans-61" x="545.068359"/>
      <use xlink:href="#DejaVuSans-6e" x="606.347656"/>
     </g>
    </g>
    <g id="line2d_123">
     <path d="M 249.4745 72.01045 
L 257.4745 72.01045 
L 265.4745 72.01045 
" style="fill: none; stroke-dasharray: 7.4,3.2; stroke-dashoffset: 0; stroke: #ff0000; stroke-width: 2"/>
    </g>
    <g id="text_9">
     <!-- GCIM $16^{th}$ and $84^{th}$ percentiles -->
     <g transform="translate(271.8745 74.81045) scale(0.08 -0.08)">
      <defs>
       <path id="DejaVuSans-36" d="M 2113 2584 
Q 1688 2584 1439 2293 
Q 1191 2003 1191 1497 
Q 1191 994 1439 701 
Q 1688 409 2113 409 
Q 2538 409 2786 701 
Q 3034 994 3034 1497 
Q 3034 2003 2786 2293 
Q 2538 2584 2113 2584 
z
M 3366 4563 
L 3366 3988 
Q 3128 4100 2886 4159 
Q 2644 4219 2406 4219 
Q 1781 4219 1451 3797 
Q 1122 3375 1075 2522 
Q 1259 2794 1537 2939 
Q 1816 3084 2150 3084 
Q 2853 3084 3261 2657 
Q 3669 2231 3669 1497 
Q 3669 778 3244 343 
Q 2819 -91 2113 -91 
Q 1303 -91 875 529 
Q 447 1150 447 2328 
Q 447 3434 972 4092 
Q 1497 4750 2381 4750 
Q 2619 4750 2861 4703 
Q 3103 4656 3366 4563 
z
" transform="scale(0.015625)"/>
       <path id="DejaVuSans-Oblique-74" d="M 2706 3500 
L 2619 3053 
L 1472 3053 
L 1100 1153 
Q 1081 1047 1072 975 
Q 1063 903 1063 863 
Q 1063 663 1183 572 
Q 1303 481 1569 481 
L 2150 481 
L 2053 0 
L 1503 0 
Q 991 0 739 200 
Q 488 400 488 806 
Q 488 878 497 964 
Q 506 1050 525 1153 
L 897 3053 
L 409 3053 
L 500 3500 
L 978 3500 
L 1172 4494 
L 1747 4494 
L 1556 3500 
L 2706 3500 
z
" transform="scale(0.015625)"/>
       <path id="DejaVuSans-Oblique-68" d="M 3566 2113 
L 3156 0 
L 2578 0 
L 2988 2091 
Q 3016 2238 3031 2350 
Q 3047 2463 3047 2528 
Q 3047 2791 2881 2937 
Q 2716 3084 2419 3084 
Q 1956 3084 1617 2771 
Q 1278 2459 1178 1941 
L 800 0 
L 225 0 
L 1172 4863 
L 1747 4863 
L 1375 2950 
Q 1594 3244 1934 3414 
Q 2275 3584 2650 3584 
Q 3113 3584 3367 3334 
Q 3622 3084 3622 2631 
Q 3622 2519 3608 2391 
Q 3594 2263 3566 2113 
z
" transform="scale(0.015625)"/>
       <path id="DejaVuSans-38" d="M 2034 2216 
Q 1584 2216 1326 1975 
Q 1069 1734 1069 1313 
Q 1069 891 1326 650 
Q 1584 409 2034 409 
Q 2484 409 2743 651 
Q 3003 894 3003 1313 
Q 3003 1734 2745 1975 
Q 2488 2216 2034 2216 
z
M 1403 2484 
Q 997 2584 770 2862 
Q 544 3141 544 3541 
Q 544 4100 942 4425 
Q 1341 4750 2034 4750 
Q 2731 4750 3128 4425 
Q 3525 4100 3525 3541 
Q 3525 3141 3298 2862 
Q 3072 2584 2669 2484 
Q 3125 2378 3379 2068 
Q 3634 1759 3634 1313 
Q 3634 634 3220 271 
Q 2806 -91 2034 -91 
Q 1263 -91 848 271 
Q 434 634 434 1313 
Q 434 1759 690 2068 
Q 947 2378 1403 2484 
z
M 1172 3481 
Q 1172 3119 1398 2916 
Q 1625 2713 2034 2713 
Q 2441 2713 2670 2916 
Q 2900 3119 2900 3481 
Q 2900 3844 2670 4047 
Q 2441 4250 2034 4250 
Q 1625 4250 1398 4047 
Q 1172 3844 1172 3481 
z
" transform="scale(0.015625)"/>
       <path id="DejaVuSans-34" d="M 2419 4116 
L 825 1625 
L 2419 1625 
L 2419 4116 
z
M 2253 4666 
L 3047 4666 
L 3047 1625 
L 3713 1625 
L 3713 1100 
L 3047 1100 
L 3047 0 
L 2419 0 
L 2419 1100 
L 313 1100 
L 313 1709 
L 2253 4666 
z
" transform="scale(0.015625)"/>
      </defs>
      <use xlink:href="#DejaVuSans-47" transform="translate(0 0.529687)"/>
      <use xlink:href="#DejaVuSans-43" transform="translate(77.490234 0.529687)"/>
      <use xlink:href="#DejaVuSans-49" transform="translate(147.314453 0.529687)"/>
      <use xlink:href="#DejaVuSans-4d" transform="translate(176.806641 0.529687)"/>
      <use xlink:href="#DejaVuSans-20" transform="translate(263.085938 0.529687)"/>
      <use xlink:href="#DejaVuSans-31" transform="translate(294.873047 0.529687)"/>
      <use xlink:href="#DejaVuSans-36" transform="translate(358.496094 0.529687)"/>
      <use xlink:href="#DejaVuSans-Oblique-74" transform="translate(423.076172 38.810937) scale(0.7)"/>
      <use xlink:href="#DejaVuSans-Oblique-68" transform="translate(450.522461 38.810937) scale(0.7)"/>
      <use xlink:href="#DejaVuSans-20" transform="translate(497.62207 0.529687)"/>
      <use xlink:href="#DejaVuSans-61" transform="translate(529.40918 0.529687)"/>
      <use xlink:href="#DejaVuSans-6e" transform="translate(590.688477 0.529687)"/>
      <use xlink:href="#DejaVuSans-64" transform="translate(654.067383 0.529687)"/>
      <use xlink:href="#DejaVuSans-20" transform="translate(717.543945 0.529687)"/>
      <use xlink:href="#DejaVuSans-38" transform="translate(749.331055 0.529687)"/>
      <use xlink:href="#DejaVuSans-34" transform="translate(812.954102 0.529687)"/>
      <use xlink:href="#DejaVuSans-Oblique-74" transform="translate(877.53418 38.810937) scale(0.7)"/>
      <use xlink:href="#DejaVuSans-Oblique-68" transform="translate(904.980469 38.810937) scale(0.7)"/>
      <use xlink:href="#DejaVuSans-20" transform="translate(952.080078 0.529687)"/>
      <use xlink:href="#DejaVuSans-70" transform="translate(983.867188 0.529687)"/>
      <use xlink:href="#DejaVuSans-65" transform="translate(1047.34375 0.529687)"/>
      <use xlink:href="#DejaVuSans-72" transform="translate(1108.867188 0.529687)"/>
      <use xlink:href="#DejaVuSans-63" transform="translate(1149.980469 0.529687)"/>
      <use xlink:href="#DejaVuSans-65" transform="translate(1204.960938 0.529687)"/>
      <use xlink:href="#DejaVuSans-6e" transform="translate(1266.484375 0.529687)"/>
      <use xlink:href="#DejaVuSans-74" transform="translate(1329.863281 0.529687)"/>
      <use xlink:href="#DejaVuSans-69" transform="translate(1369.072266 0.529687)"/>
      <use xlink:href="#DejaVuSans-6c" transform="translate(1396.855469 0.529687)"/>
      <use xlink:href="#DejaVuSans-65" transform="translate(1424.638672 0.529687)"/>
      <use xlink:href="#DejaVuSans-73" transform="translate(1486.162109 0.529687)"/>
     </g>
    </g>
    <g id="line2d_124">
     <path d="M 249.4745 83.7692 
L 257.4745 83.7692 
L 265.4745 83.7692 
" style="fill: none; stroke: #0000ff; stroke-width: 2; stroke-linecap: square"/>
    </g>
    <g id="text_10">
     <!-- Selected GMs median -->
     <g transform="translate(271.8745 86.5692) scale(0.08 -0.08)">
      <use xlink:href="#DejaVuSans-53"/>
      <use xlink:href="#DejaVuSans-65" x="63.476562"/>
      <use xlink:href="#DejaVuSans-6c" x="125"/>
      <use xlink:href="#DejaVuSans-65" x="152.783203"/>
      <use xlink:href="#DejaVuSans-63" x="214.306641"/>
      <use xlink:href="#DejaVuSans-74" x="269.287109"/>
      <use xlink:href="#DejaVuSans-65" x="308.496094"/>
      <use xlink:href="#DejaVuSans-64" x="370.019531"/>
      <use xlink:href="#DejaVuSans-20" x="433.496094"/>
      <use xlink:href="#DejaVuSans-47" x="465.283203"/>
      <use xlink:href="#DejaVuSans-4d" x="542.773438"/>
      <use xlink:href="#DejaVuSans-73" x="629.052734"/>
      <use xlink:href="#DejaVuSans-20" x="681.152344"/>
      <use xlink:href="#DejaVuSans-6d" x="712.939453"/>
      <use xlink:href="#DejaVuSans-65" x="810.351562"/>
      <use xlink:href="#DejaVuSans-64" x="871.875"/>
      <use xlink:href="#DejaVuSans-69" x="935.351562"/>
      <use xlink:href="#DejaVuSans-61" x="963.134766"/>
      <use xlink:href="#DejaVuSans-6e" x="1024.414062"/>
     </g>
    </g>
    <g id="line2d_125">
     <path d="M 249.4745 96.79295 
L 257.4745 96.79295 
L 265.4745 96.79295 
" style="fill: none; stroke-dasharray: 7.4,3.2; stroke-dashoffset: 0; stroke: #0000ff; stroke-width: 2"/>
    </g>
    <g id="text_11">
     <!-- Selected GMs, $16^{th}$ and $84^{th}$ percentiles -->
     <g transform="translate(271.8745 99.59295) scale(0.08 -0.08)">
      <use xlink:href="#DejaVuSans-53" transform="translate(0 0.529687)"/>
      <use xlink:href="#DejaVuSans-65" transform="translate(63.476562 0.529687)"/>
      <use xlink:href="#DejaVuSans-6c" transform="translate(125 0.529687)"/>
      <use xlink:href="#DejaVuSans-65" transform="translate(152.783203 0.529687)"/>
      <use xlink:href="#DejaVuSans-63" transform="translate(214.306641 0.529687)"/>
      <use xlink:href="#DejaVuSans-74" transform="translate(269.287109 0.529687)"/>
      <use xlink:href="#DejaVuSans-65" transform="translate(308.496094 0.529687)"/>
      <use xlink:href="#DejaVuSans-64" transform="translate(370.019531 0.529687)"/>
      <use xlink:href="#DejaVuSans-20" transform="translate(433.496094 0.529687)"/>
      <use xlink:href="#DejaVuSans-47" transform="translate(465.283203 0.529687)"/>
      <use xlink:href="#DejaVuSans-4d" transform="translate(542.773438 0.529687)"/>
      <use xlink:href="#DejaVuSans-73" transform="translate(629.052734 0.529687)"/>
      <use xlink:href="#DejaVuSans-2c" transform="translate(681.152344 0.529687)"/>
      <use xlink:href="#DejaVuSans-20" transform="translate(712.939453 0.529687)"/>
      <use xlink:href="#DejaVuSans-31" transform="translate(744.726562 0.529687)"/>
      <use xlink:href="#DejaVuSans-36" transform="translate(808.349609 0.529687)"/>
      <use xlink:href="#DejaVuSans-Oblique-74" transform="translate(872.929688 38.810937) scale(0.7)"/>
      <use xlink:href="#DejaVuSans-Oblique-68" transform="translate(900.375977 38.810937) scale(0.7)"/>
      <use xlink:href="#DejaVuSans-20" transform="translate(947.475586 0.529687)"/>
      <use xlink:href="#DejaVuSans-61" transform="translate(979.262695 0.529687)"/>
      <use xlink:href="#DejaVuSans-6e" transform="translate(1040.541992 0.529687)"/>
      <use xlink:href="#DejaVuSans-64" transform="translate(1103.920898 0.529687)"/>
      <use xlink:href="#DejaVuSans-20" transform="translate(1167.397461 0.529687)"/>
      <use xlink:href="#DejaVuSans-38" transform="translate(1199.18457 0.529687)"/>
      <use xlink:href="#DejaVuSans-34" transform="translate(1262.807617 0.529687)"/>
      <use xlink:href="#DejaVuSans-Oblique-74" transform="translate(1327.387695 38.810937) scale(0.7)"/>
      <use xlink:href="#DejaVuSans-Oblique-68" transform="translate(1354.833984 38.810937) scale(0.7)"/>
      <use xlink:href="#DejaVuSans-20" transform="translate(1401.933594 0.529687)"/>
      <use xlink:href="#DejaVuSans-70" transform="translate(1433.720703 0.529687)"/>
      <use xlink:href="#DejaVuSans-65" transform="translate(1497.197266 0.529687)"/>
      <use xlink:href="#DejaVuSans-72" transform="translate(1558.720703 0.529687)"/>
      <use xlink:href="#DejaVuSans-63" transform="translate(1599.833984 0.529687)"/>
      <use xlink:href="#DejaVuSans-65" transform="translate(1654.814453 0.529687)"/>
      <use xlink:href="#DejaVuSans-6e" transform="translate(1716.337891 0.529687)"/>
      <use xlink:href="#DejaVuSans-74" transform="translate(1779.716797 0.529687)"/>
      <use xlink:href="#DejaVuSans-69" transform="translate(1818.925781 0.529687)"/>
      <use xlink:href="#DejaVuSans-6c" transform="translate(1846.708984 0.529687)"/>
      <use xlink:href="#DejaVuSans-65" transform="translate(1874.492188 0.529687)"/>
      <use xlink:href="#DejaVuSans-73" transform="translate(1936.015625 0.529687)"/>
     </g>
    </g>
   </g>
  </g>
 </g>
 <defs>
  <clipPath id="p430a91b566">
   <rect x="44.7425" y="7.2" width="197.532" height="130.8384"/>
  </clipPath>
 </defs>
</svg>
