<?xml version="1.0" encoding="utf-8" standalone="no"?>
<!DOCTYPE svg PUBLIC "-//W3C//DTD SVG 1.1//EN"
  "http://www.w3.org/Graphics/SVG/1.1/DTD/svg11.dtd">
<svg xmlns:xlink="http://www.w3.org/1999/xlink" width="441.3945pt" height="171.7234pt" viewBox="0 0 441.3945 171.7234" xmlns="http://www.w3.org/2000/svg" version="1.1">
 <metadata>
  <rdf:RDF xmlns:dc="http://purl.org/dc/elements/1.1/" xmlns:cc="http://creativecommons.org/ns#" xmlns:rdf="http://www.w3.org/1999/02/22-rdf-syntax-ns#">
   <cc:Work>
    <dc:type rdf:resource="http://purl.org/dc/dcmitype/StillImage"/>
    <dc:date>2024-11-06T14:26:56.961960</dc:date>
    <dc:format>image/svg+xml</dc:format>
    <dc:creator>
     <cc:Agent>
      <dc:title>Matplotlib v3.8.2, https://matplotlib.org/</dc:title>
     </cc:Agent>
    </dc:creator>
   </cc:Work>
  </rdf:RDF>
 </metadata>
 <defs>
  <style type="text/css">*{stroke-linejoin: round; stroke-linecap: butt}</style>
 </defs>
 <g id="figure_1">
  <g id="patch_1">
   <path d="M 0 171.7234 
L 441.3945 171.7234 
L 441.3945 0 
L 0 0 
z
" style="fill: #ffffff"/>
  </g>
  <g id="axes_1">
   <g id="patch_2">
    <path d="M 44.7425 138.0384 
L 242.2745 138.0384 
L 242.2745 7.2 
L 44.7425 7.2 
z
" style="fill: #ffffff"/>
   </g>
   <g id="matplotlib.axis_1">
    <g id="xtick_1">
     <g id="line2d_1">
      <path d="M 53.721227 138.0384 
L 53.721227 7.2 
" clip-path="url(#pe17cc9482f)" style="fill: none; stroke: #d9d9d9; stroke-width: 0.8; stroke-linecap: square"/>
     </g>
     <g id="line2d_2">
      <defs>
       <path id="m8dabffea61" d="M 0 0 
L 0 3.5 
" style="stroke: #000000; stroke-width: 0.8"/>
      </defs>
      <g>
       <use xlink:href="#m8dabffea61" x="53.721227" y="138.0384" style="stroke: #000000; stroke-width: 0.8"/>
      </g>
     </g>
     <g id="text_1">
      <!-- $\mathdefault{10^{-1}}$ -->
      <g transform="translate(44.321227 151.11715) scale(0.08 -0.08)">
       <defs>
        <path id="DejaVuSans-31" d="M 794 531 
L 1825 531 
L 1825 4091 
L 703 3866 
L 703 4441 
L 1819 4666 
L 2450 4666 
L 2450 531 
L 3481 531 
L 3481 0 
L 794 0 
L 794 531 
z
" transform="scale(0.015625)"/>
        <path id="DejaVuSans-30" d="M 2034 4250 
Q 1547 4250 1301 3770 
Q 1056 3291 1056 2328 
Q 1056 1369 1301 889 
Q 1547 409 2034 409 
Q 2525 409 2770 889 
Q 3016 1369 3016 2328 
Q 3016 3291 2770 3770 
Q 2525 4250 2034 4250 
z
M 2034 4750 
Q 2819 4750 3233 4129 
Q 3647 3509 3647 2328 
Q 3647 1150 3233 529 
Q 2819 -91 2034 -91 
Q 1250 -91 836 529 
Q 422 1150 422 2328 
Q 422 3509 836 4129 
Q 1250 4750 2034 4750 
z
" transform="scale(0.015625)"/>
        <path id="DejaVuSans-2212" d="M 678 2272 
L 4684 2272 
L 4684 1741 
L 678 1741 
L 678 2272 
z
" transform="scale(0.015625)"/>
       </defs>
       <use xlink:href="#DejaVuSans-31" transform="translate(0 0.684375)"/>
       <use xlink:href="#DejaVuSans-30" transform="translate(63.623047 0.684375)"/>
       <use xlink:href="#DejaVuSans-2212" transform="translate(128.203125 38.965625) scale(0.7)"/>
       <use xlink:href="#DejaVuSans-31" transform="translate(186.855469 38.965625) scale(0.7)"/>
      </g>
     </g>
    </g>
    <g id="xtick_2">
     <g id="line2d_3">
      <path d="M 159.417352 138.0384 
L 159.417352 7.2 
" clip-path="url(#pe17cc9482f)" style="fill: none; stroke: #d9d9d9; stroke-width: 0.8; stroke-linecap: square"/>
     </g>
     <g id="line2d_4">
      <g>
       <use xlink:href="#m8dabffea61" x="159.417352" y="138.0384" style="stroke: #000000; stroke-width: 0.8"/>
      </g>
     </g>
     <g id="text_2">
      <!-- $\mathdefault{10^{0}}$ -->
      <g transform="translate(152.377352 151.11715) scale(0.08 -0.08)">
       <use xlink:href="#DejaVuSans-31" transform="translate(0 0.765625)"/>
       <use xlink:href="#DejaVuSans-30" transform="translate(63.623047 0.765625)"/>
       <use xlink:href="#DejaVuSans-30" transform="translate(128.203125 39.046875) scale(0.7)"/>
      </g>
     </g>
    </g>
    <g id="xtick_3">
     <g id="line2d_5">
      <path d="M 48.884838 138.0384 
L 48.884838 7.2 
" clip-path="url(#pe17cc9482f)" style="fill: none; stroke-dasharray: 2.96,1.28; stroke-dashoffset: 0; stroke: #f2f2f2; stroke-width: 0.8"/>
     </g>
     <g id="line2d_6">
      <defs>
       <path id="md37b3c1008" d="M 0 0 
L 0 2 
" style="stroke: #000000; stroke-width: 0.6"/>
      </defs>
      <g>
       <use xlink:href="#md37b3c1008" x="48.884838" y="138.0384" style="stroke: #000000; stroke-width: 0.6"/>
      </g>
     </g>
    </g>
    <g id="xtick_4">
     <g id="line2d_7">
      <path d="M 85.538931 138.0384 
L 85.538931 7.2 
" clip-path="url(#pe17cc9482f)" style="fill: none; stroke-dasharray: 2.96,1.28; stroke-dashoffset: 0; stroke: #f2f2f2; stroke-width: 0.8"/>
     </g>
     <g id="line2d_8">
      <g>
       <use xlink:href="#md37b3c1008" x="85.538931" y="138.0384" style="stroke: #000000; stroke-width: 0.6"/>
      </g>
     </g>
    </g>
    <g id="xtick_5">
     <g id="line2d_9">
      <path d="M 104.151095 138.0384 
L 104.151095 7.2 
" clip-path="url(#pe17cc9482f)" style="fill: none; stroke-dasharray: 2.96,1.28; stroke-dashoffset: 0; stroke: #f2f2f2; stroke-width: 0.8"/>
     </g>
     <g id="line2d_10">
      <g>
       <use xlink:href="#md37b3c1008" x="104.151095" y="138.0384" style="stroke: #000000; stroke-width: 0.6"/>
      </g>
     </g>
    </g>
    <g id="xtick_6">
     <g id="line2d_11">
      <path d="M 117.356635 138.0384 
L 117.356635 7.2 
" clip-path="url(#pe17cc9482f)" style="fill: none; stroke-dasharray: 2.96,1.28; stroke-dashoffset: 0; stroke: #f2f2f2; stroke-width: 0.8"/>
     </g>
     <g id="line2d_12">
      <g>
       <use xlink:href="#md37b3c1008" x="117.356635" y="138.0384" style="stroke: #000000; stroke-width: 0.6"/>
      </g>
     </g>
    </g>
    <g id="xtick_7">
     <g id="line2d_13">
      <path d="M 127.599648 138.0384 
L 127.599648 7.2 
" clip-path="url(#pe17cc9482f)" style="fill: none; stroke-dasharray: 2.96,1.28; stroke-dashoffset: 0; stroke: #f2f2f2; stroke-width: 0.8"/>
     </g>
     <g id="line2d_14">
      <g>
       <use xlink:href="#md37b3c1008" x="127.599648" y="138.0384" style="stroke: #000000; stroke-width: 0.6"/>
      </g>
     </g>
    </g>
    <g id="xtick_8">
     <g id="line2d_15">
      <path d="M 135.968799 138.0384 
L 135.968799 7.2 
" clip-path="url(#pe17cc9482f)" style="fill: none; stroke-dasharray: 2.96,1.28; stroke-dashoffset: 0; stroke: #f2f2f2; stroke-width: 0.8"/>
     </g>
     <g id="line2d_16">
      <g>
       <use xlink:href="#md37b3c1008" x="135.968799" y="138.0384" style="stroke: #000000; stroke-width: 0.6"/>
      </g>
     </g>
    </g>
    <g id="xtick_9">
     <g id="line2d_17">
      <path d="M 143.044815 138.0384 
L 143.044815 7.2 
" clip-path="url(#pe17cc9482f)" style="fill: none; stroke-dasharray: 2.96,1.28; stroke-dashoffset: 0; stroke: #f2f2f2; stroke-width: 0.8"/>
     </g>
     <g id="line2d_18">
      <g>
       <use xlink:href="#md37b3c1008" x="143.044815" y="138.0384" style="stroke: #000000; stroke-width: 0.6"/>
      </g>
     </g>
    </g>
    <g id="xtick_10">
     <g id="line2d_19">
      <path d="M 149.174339 138.0384 
L 149.174339 7.2 
" clip-path="url(#pe17cc9482f)" style="fill: none; stroke-dasharray: 2.96,1.28; stroke-dashoffset: 0; stroke: #f2f2f2; stroke-width: 0.8"/>
     </g>
     <g id="line2d_20">
      <g>
       <use xlink:href="#md37b3c1008" x="149.174339" y="138.0384" style="stroke: #000000; stroke-width: 0.6"/>
      </g>
     </g>
    </g>
    <g id="xtick_11">
     <g id="line2d_21">
      <path d="M 154.580963 138.0384 
L 154.580963 7.2 
" clip-path="url(#pe17cc9482f)" style="fill: none; stroke-dasharray: 2.96,1.28; stroke-dashoffset: 0; stroke: #f2f2f2; stroke-width: 0.8"/>
     </g>
     <g id="line2d_22">
      <g>
       <use xlink:href="#md37b3c1008" x="154.580963" y="138.0384" style="stroke: #000000; stroke-width: 0.6"/>
      </g>
     </g>
    </g>
    <g id="xtick_12">
     <g id="line2d_23">
      <path d="M 191.235056 138.0384 
L 191.235056 7.2 
" clip-path="url(#pe17cc9482f)" style="fill: none; stroke-dasharray: 2.96,1.28; stroke-dashoffset: 0; stroke: #f2f2f2; stroke-width: 0.8"/>
     </g>
     <g id="line2d_24">
      <g>
       <use xlink:href="#md37b3c1008" x="191.235056" y="138.0384" style="stroke: #000000; stroke-width: 0.6"/>
      </g>
     </g>
    </g>
    <g id="xtick_13">
     <g id="line2d_25">
      <path d="M 209.84722 138.0384 
L 209.84722 7.2 
" clip-path="url(#pe17cc9482f)" style="fill: none; stroke-dasharray: 2.96,1.28; stroke-dashoffset: 0; stroke: #f2f2f2; stroke-width: 0.8"/>
     </g>
     <g id="line2d_26">
      <g>
       <use xlink:href="#md37b3c1008" x="209.84722" y="138.0384" style="stroke: #000000; stroke-width: 0.6"/>
      </g>
     </g>
    </g>
    <g id="xtick_14">
     <g id="line2d_27">
      <path d="M 223.05276 138.0384 
L 223.05276 7.2 
" clip-path="url(#pe17cc9482f)" style="fill: none; stroke-dasharray: 2.96,1.28; stroke-dashoffset: 0; stroke: #f2f2f2; stroke-width: 0.8"/>
     </g>
     <g id="line2d_28">
      <g>
       <use xlink:href="#md37b3c1008" x="223.05276" y="138.0384" style="stroke: #000000; stroke-width: 0.6"/>
      </g>
     </g>
    </g>
    <g id="xtick_15">
     <g id="line2d_29">
      <path d="M 233.295773 138.0384 
L 233.295773 7.2 
" clip-path="url(#pe17cc9482f)" style="fill: none; stroke-dasharray: 2.96,1.28; stroke-dashoffset: 0; stroke: #f2f2f2; stroke-width: 0.8"/>
     </g>
     <g id="line2d_30">
      <g>
       <use xlink:href="#md37b3c1008" x="233.295773" y="138.0384" style="stroke: #000000; stroke-width: 0.6"/>
      </g>
     </g>
    </g>
    <g id="xtick_16">
     <g id="line2d_31">
      <path d="M 241.664924 138.0384 
L 241.664924 7.2 
" clip-path="url(#pe17cc9482f)" style="fill: none; stroke-dasharray: 2.96,1.28; stroke-dashoffset: 0; stroke: #f2f2f2; stroke-width: 0.8"/>
     </g>
     <g id="line2d_32">
      <g>
       <use xlink:href="#md37b3c1008" x="241.664924" y="138.0384" style="stroke: #000000; stroke-width: 0.6"/>
      </g>
     </g>
    </g>
    <g id="text_3">
     <!-- Period, T (s) -->
     <g transform="translate(119.576 162.85965) scale(0.08 -0.08)">
      <defs>
       <path id="DejaVuSans-50" d="M 1259 4147 
L 1259 2394 
L 2053 2394 
Q 2494 2394 2734 2622 
Q 2975 2850 2975 3272 
Q 2975 3691 2734 3919 
Q 2494 4147 2053 4147 
L 1259 4147 
z
M 628 4666 
L 2053 4666 
Q 2838 4666 3239 4311 
Q 3641 3956 3641 3272 
Q 3641 2581 3239 2228 
Q 2838 1875 2053 1875 
L 1259 1875 
L 1259 0 
L 628 0 
L 628 4666 
z
" transform="scale(0.015625)"/>
       <path id="DejaVuSans-65" d="M 3597 1894 
L 3597 1613 
L 953 1613 
Q 991 1019 1311 708 
Q 1631 397 2203 397 
Q 2534 397 2845 478 
Q 3156 559 3463 722 
L 3463 178 
Q 3153 47 2828 -22 
Q 2503 -91 2169 -91 
Q 1331 -91 842 396 
Q 353 884 353 1716 
Q 353 2575 817 3079 
Q 1281 3584 2069 3584 
Q 2775 3584 3186 3129 
Q 3597 2675 3597 1894 
z
M 3022 2063 
Q 3016 2534 2758 2815 
Q 2500 3097 2075 3097 
Q 1594 3097 1305 2825 
Q 1016 2553 972 2059 
L 3022 2063 
z
" transform="scale(0.015625)"/>
       <path id="DejaVuSans-72" d="M 2631 2963 
Q 2534 3019 2420 3045 
Q 2306 3072 2169 3072 
Q 1681 3072 1420 2755 
Q 1159 2438 1159 1844 
L 1159 0 
L 581 0 
L 581 3500 
L 1159 3500 
L 1159 2956 
Q 1341 3275 1631 3429 
Q 1922 3584 2338 3584 
Q 2397 3584 2469 3576 
Q 2541 3569 2628 3553 
L 2631 2963 
z
" transform="scale(0.015625)"/>
       <path id="DejaVuSans-69" d="M 603 3500 
L 1178 3500 
L 1178 0 
L 603 0 
L 603 3500 
z
M 603 4863 
L 1178 4863 
L 1178 4134 
L 603 4134 
L 603 4863 
z
" transform="scale(0.015625)"/>
       <path id="DejaVuSans-6f" d="M 1959 3097 
Q 1497 3097 1228 2736 
Q 959 2375 959 1747 
Q 959 1119 1226 758 
Q 1494 397 1959 397 
Q 2419 397 2687 759 
Q 2956 1122 2956 1747 
Q 2956 2369 2687 2733 
Q 2419 3097 1959 3097 
z
M 1959 3584 
Q 2709 3584 3137 3096 
Q 3566 2609 3566 1747 
Q 3566 888 3137 398 
Q 2709 -91 1959 -91 
Q 1206 -91 779 398 
Q 353 888 353 1747 
Q 353 2609 779 3096 
Q 1206 3584 1959 3584 
z
" transform="scale(0.015625)"/>
       <path id="DejaVuSans-64" d="M 2906 2969 
L 2906 4863 
L 3481 4863 
L 3481 0 
L 2906 0 
L 2906 525 
Q 2725 213 2448 61 
Q 2172 -91 1784 -91 
Q 1150 -91 751 415 
Q 353 922 353 1747 
Q 353 2572 751 3078 
Q 1150 3584 1784 3584 
Q 2172 3584 2448 3432 
Q 2725 3281 2906 2969 
z
M 947 1747 
Q 947 1113 1208 752 
Q 1469 391 1925 391 
Q 2381 391 2643 752 
Q 2906 1113 2906 1747 
Q 2906 2381 2643 2742 
Q 2381 3103 1925 3103 
Q 1469 3103 1208 2742 
Q 947 2381 947 1747 
z
" transform="scale(0.015625)"/>
       <path id="DejaVuSans-2c" d="M 750 794 
L 1409 794 
L 1409 256 
L 897 -744 
L 494 -744 
L 750 256 
L 750 794 
z
" transform="scale(0.015625)"/>
       <path id="DejaVuSans-20" transform="scale(0.015625)"/>
       <path id="DejaVuSans-54" d="M -19 4666 
L 3928 4666 
L 3928 4134 
L 2272 4134 
L 2272 0 
L 1638 0 
L 1638 4134 
L -19 4134 
L -19 4666 
z
" transform="scale(0.015625)"/>
       <path id="DejaVuSans-28" d="M 1984 4856 
Q 1566 4138 1362 3434 
Q 1159 2731 1159 2009 
Q 1159 1288 1364 580 
Q 1569 -128 1984 -844 
L 1484 -844 
Q 1016 -109 783 600 
Q 550 1309 550 2009 
Q 550 2706 781 3412 
Q 1013 4119 1484 4856 
L 1984 4856 
z
" transform="scale(0.015625)"/>
       <path id="DejaVuSans-73" d="M 2834 3397 
L 2834 2853 
Q 2591 2978 2328 3040 
Q 2066 3103 1784 3103 
Q 1356 3103 1142 2972 
Q 928 2841 928 2578 
Q 928 2378 1081 2264 
Q 1234 2150 1697 2047 
L 1894 2003 
Q 2506 1872 2764 1633 
Q 3022 1394 3022 966 
Q 3022 478 2636 193 
Q 2250 -91 1575 -91 
Q 1294 -91 989 -36 
Q 684 19 347 128 
L 347 722 
Q 666 556 975 473 
Q 1284 391 1588 391 
Q 1994 391 2212 530 
Q 2431 669 2431 922 
Q 2431 1156 2273 1281 
Q 2116 1406 1581 1522 
L 1381 1569 
Q 847 1681 609 1914 
Q 372 2147 372 2553 
Q 372 3047 722 3315 
Q 1072 3584 1716 3584 
Q 2034 3584 2315 3537 
Q 2597 3491 2834 3397 
z
" transform="scale(0.015625)"/>
       <path id="DejaVuSans-29" d="M 513 4856 
L 1013 4856 
Q 1481 4119 1714 3412 
Q 1947 2706 1947 2009 
Q 1947 1309 1714 600 
Q 1481 -109 1013 -844 
L 513 -844 
Q 928 -128 1133 580 
Q 1338 1288 1338 2009 
Q 1338 2731 1133 3434 
Q 928 4138 513 4856 
z
" transform="scale(0.015625)"/>
      </defs>
      <use xlink:href="#DejaVuSans-50"/>
      <use xlink:href="#DejaVuSans-65" x="56.677734"/>
      <use xlink:href="#DejaVuSans-72" x="118.201172"/>
      <use xlink:href="#DejaVuSans-69" x="159.314453"/>
      <use xlink:href="#DejaVuSans-6f" x="187.097656"/>
      <use xlink:href="#DejaVuSans-64" x="248.279297"/>
      <use xlink:href="#DejaVuSans-2c" x="311.755859"/>
      <use xlink:href="#DejaVuSans-20" x="343.542969"/>
      <use xlink:href="#DejaVuSans-54" x="375.330078"/>
      <use xlink:href="#DejaVuSans-20" x="436.414062"/>
      <use xlink:href="#DejaVuSans-28" x="468.201172"/>
      <use xlink:href="#DejaVuSans-73" x="507.214844"/>
      <use xlink:href="#DejaVuSans-29" x="559.314453"/>
     </g>
    </g>
   </g>
   <g id="matplotlib.axis_2">
    <g id="ytick_1">
     <g id="line2d_33">
      <path d="M 44.7425 108.195182 
L 242.2745 108.195182 
" clip-path="url(#pe17cc9482f)" style="fill: none; stroke: #d9d9d9; stroke-width: 0.8; stroke-linecap: square"/>
     </g>
     <g id="line2d_34">
      <defs>
       <path id="ma5515264da" d="M 0 0 
L -3.5 0 
" style="stroke: #000000; stroke-width: 0.8"/>
      </defs>
      <g>
       <use xlink:href="#ma5515264da" x="44.7425" y="108.195182" style="stroke: #000000; stroke-width: 0.8"/>
      </g>
     </g>
     <g id="text_4">
      <!-- $\mathdefault{10^{-1}}$ -->
      <g transform="translate(18.9425 111.234557) scale(0.08 -0.08)">
       <use xlink:href="#DejaVuSans-31" transform="translate(0 0.684375)"/>
       <use xlink:href="#DejaVuSans-30" transform="translate(63.623047 0.684375)"/>
       <use xlink:href="#DejaVuSans-2212" transform="translate(128.203125 38.965625) scale(0.7)"/>
       <use xlink:href="#DejaVuSans-31" transform="translate(186.855469 38.965625) scale(0.7)"/>
      </g>
     </g>
    </g>
    <g id="ytick_2">
     <g id="line2d_35">
      <path d="M 44.7425 59.247019 
L 242.2745 59.247019 
" clip-path="url(#pe17cc9482f)" style="fill: none; stroke: #d9d9d9; stroke-width: 0.8; stroke-linecap: square"/>
     </g>
     <g id="line2d_36">
      <g>
       <use xlink:href="#ma5515264da" x="44.7425" y="59.247019" style="stroke: #000000; stroke-width: 0.8"/>
      </g>
     </g>
     <g id="text_5">
      <!-- $\mathdefault{10^{0}}$ -->
      <g transform="translate(23.6625 62.286394) scale(0.08 -0.08)">
       <use xlink:href="#DejaVuSans-31" transform="translate(0 0.765625)"/>
       <use xlink:href="#DejaVuSans-30" transform="translate(63.623047 0.765625)"/>
       <use xlink:href="#DejaVuSans-30" transform="translate(128.203125 39.046875) scale(0.7)"/>
      </g>
     </g>
    </g>
    <g id="ytick_3">
     <g id="line2d_37">
      <path d="M 44.7425 10.298855 
L 242.2745 10.298855 
" clip-path="url(#pe17cc9482f)" style="fill: none; stroke: #d9d9d9; stroke-width: 0.8; stroke-linecap: square"/>
     </g>
     <g id="line2d_38">
      <g>
       <use xlink:href="#ma5515264da" x="44.7425" y="10.298855" style="stroke: #000000; stroke-width: 0.8"/>
      </g>
     </g>
     <g id="text_6">
      <!-- $\mathdefault{10^{1}}$ -->
      <g transform="translate(23.6625 13.33823) scale(0.08 -0.08)">
       <use xlink:href="#DejaVuSans-31" transform="translate(0 0.684375)"/>
       <use xlink:href="#DejaVuSans-30" transform="translate(63.623047 0.684375)"/>
       <use xlink:href="#DejaVuSans-31" transform="translate(128.203125 38.965625) scale(0.7)"/>
      </g>
     </g>
    </g>
    <g id="ytick_4">
     <g id="line2d_39">
      <path d="M 44.7425 133.789137 
L 242.2745 133.789137 
" clip-path="url(#pe17cc9482f)" style="fill: none; stroke-dasharray: 2.96,1.28; stroke-dashoffset: 0; stroke: #f2f2f2; stroke-width: 0.8"/>
     </g>
     <g id="line2d_40">
      <defs>
       <path id="md5f3c82f8e" d="M 0 0 
L -2 0 
" style="stroke: #000000; stroke-width: 0.6"/>
      </defs>
      <g>
       <use xlink:href="#md5f3c82f8e" x="44.7425" y="133.789137" style="stroke: #000000; stroke-width: 0.6"/>
      </g>
     </g>
    </g>
    <g id="ytick_5">
     <g id="line2d_41">
      <path d="M 44.7425 127.673615 
L 242.2745 127.673615 
" clip-path="url(#pe17cc9482f)" style="fill: none; stroke-dasharray: 2.96,1.28; stroke-dashoffset: 0; stroke: #f2f2f2; stroke-width: 0.8"/>
     </g>
     <g id="line2d_42">
      <g>
       <use xlink:href="#md5f3c82f8e" x="44.7425" y="127.673615" style="stroke: #000000; stroke-width: 0.6"/>
      </g>
     </g>
    </g>
    <g id="ytick_6">
     <g id="line2d_43">
      <path d="M 44.7425 122.930048 
L 242.2745 122.930048 
" clip-path="url(#pe17cc9482f)" style="fill: none; stroke-dasharray: 2.96,1.28; stroke-dashoffset: 0; stroke: #f2f2f2; stroke-width: 0.8"/>
     </g>
     <g id="line2d_44">
      <g>
       <use xlink:href="#md5f3c82f8e" x="44.7425" y="122.930048" style="stroke: #000000; stroke-width: 0.6"/>
      </g>
     </g>
    </g>
    <g id="ytick_7">
     <g id="line2d_45">
      <path d="M 44.7425 119.054271 
L 242.2745 119.054271 
" clip-path="url(#pe17cc9482f)" style="fill: none; stroke-dasharray: 2.96,1.28; stroke-dashoffset: 0; stroke: #f2f2f2; stroke-width: 0.8"/>
     </g>
     <g id="line2d_46">
      <g>
       <use xlink:href="#md5f3c82f8e" x="44.7425" y="119.054271" style="stroke: #000000; stroke-width: 0.6"/>
      </g>
     </g>
    </g>
    <g id="ytick_8">
     <g id="line2d_47">
      <path d="M 44.7425 115.777349 
L 242.2745 115.777349 
" clip-path="url(#pe17cc9482f)" style="fill: none; stroke-dasharray: 2.96,1.28; stroke-dashoffset: 0; stroke: #f2f2f2; stroke-width: 0.8"/>
     </g>
     <g id="line2d_48">
      <g>
       <use xlink:href="#md5f3c82f8e" x="44.7425" y="115.777349" style="stroke: #000000; stroke-width: 0.6"/>
      </g>
     </g>
    </g>
    <g id="ytick_9">
     <g id="line2d_49">
      <path d="M 44.7425 112.938749 
L 242.2745 112.938749 
" clip-path="url(#pe17cc9482f)" style="fill: none; stroke-dasharray: 2.96,1.28; stroke-dashoffset: 0; stroke: #f2f2f2; stroke-width: 0.8"/>
     </g>
     <g id="line2d_50">
      <g>
       <use xlink:href="#md5f3c82f8e" x="44.7425" y="112.938749" style="stroke: #000000; stroke-width: 0.6"/>
      </g>
     </g>
    </g>
    <g id="ytick_10">
     <g id="line2d_51">
      <path d="M 44.7425 110.434927 
L 242.2745 110.434927 
" clip-path="url(#pe17cc9482f)" style="fill: none; stroke-dasharray: 2.96,1.28; stroke-dashoffset: 0; stroke: #f2f2f2; stroke-width: 0.8"/>
     </g>
     <g id="line2d_52">
      <g>
       <use xlink:href="#md5f3c82f8e" x="44.7425" y="110.434927" style="stroke: #000000; stroke-width: 0.6"/>
      </g>
     </g>
    </g>
    <g id="ytick_11">
     <g id="line2d_53">
      <path d="M 44.7425 93.460317 
L 242.2745 93.460317 
" clip-path="url(#pe17cc9482f)" style="fill: none; stroke-dasharray: 2.96,1.28; stroke-dashoffset: 0; stroke: #f2f2f2; stroke-width: 0.8"/>
     </g>
     <g id="line2d_54">
      <g>
       <use xlink:href="#md5f3c82f8e" x="44.7425" y="93.460317" style="stroke: #000000; stroke-width: 0.6"/>
      </g>
     </g>
    </g>
    <g id="ytick_12">
     <g id="line2d_55">
      <path d="M 44.7425 84.840973 
L 242.2745 84.840973 
" clip-path="url(#pe17cc9482f)" style="fill: none; stroke-dasharray: 2.96,1.28; stroke-dashoffset: 0; stroke: #f2f2f2; stroke-width: 0.8"/>
     </g>
     <g id="line2d_56">
      <g>
       <use xlink:href="#md5f3c82f8e" x="44.7425" y="84.840973" style="stroke: #000000; stroke-width: 0.6"/>
      </g>
     </g>
    </g>
    <g id="ytick_13">
     <g id="line2d_57">
      <path d="M 44.7425 78.725451 
L 242.2745 78.725451 
" clip-path="url(#pe17cc9482f)" style="fill: none; stroke-dasharray: 2.96,1.28; stroke-dashoffset: 0; stroke: #f2f2f2; stroke-width: 0.8"/>
     </g>
     <g id="line2d_58">
      <g>
       <use xlink:href="#md5f3c82f8e" x="44.7425" y="78.725451" style="stroke: #000000; stroke-width: 0.6"/>
      </g>
     </g>
    </g>
    <g id="ytick_14">
     <g id="line2d_59">
      <path d="M 44.7425 73.981884 
L 242.2745 73.981884 
" clip-path="url(#pe17cc9482f)" style="fill: none; stroke-dasharray: 2.96,1.28; stroke-dashoffset: 0; stroke: #f2f2f2; stroke-width: 0.8"/>
     </g>
     <g id="line2d_60">
      <g>
       <use xlink:href="#md5f3c82f8e" x="44.7425" y="73.981884" style="stroke: #000000; stroke-width: 0.6"/>
      </g>
     </g>
    </g>
    <g id="ytick_15">
     <g id="line2d_61">
      <path d="M 44.7425 70.106107 
L 242.2745 70.106107 
" clip-path="url(#pe17cc9482f)" style="fill: none; stroke-dasharray: 2.96,1.28; stroke-dashoffset: 0; stroke: #f2f2f2; stroke-width: 0.8"/>
     </g>
     <g id="line2d_62">
      <g>
       <use xlink:href="#md5f3c82f8e" x="44.7425" y="70.106107" style="stroke: #000000; stroke-width: 0.6"/>
      </g>
     </g>
    </g>
    <g id="ytick_16">
     <g id="line2d_63">
      <path d="M 44.7425 66.829185 
L 242.2745 66.829185 
" clip-path="url(#pe17cc9482f)" style="fill: none; stroke-dasharray: 2.96,1.28; stroke-dashoffset: 0; stroke: #f2f2f2; stroke-width: 0.8"/>
     </g>
     <g id="line2d_64">
      <g>
       <use xlink:href="#md5f3c82f8e" x="44.7425" y="66.829185" style="stroke: #000000; stroke-width: 0.6"/>
      </g>
     </g>
    </g>
    <g id="ytick_17">
     <g id="line2d_65">
      <path d="M 44.7425 63.990586 
L 242.2745 63.990586 
" clip-path="url(#pe17cc9482f)" style="fill: none; stroke-dasharray: 2.96,1.28; stroke-dashoffset: 0; stroke: #f2f2f2; stroke-width: 0.8"/>
     </g>
     <g id="line2d_66">
      <g>
       <use xlink:href="#md5f3c82f8e" x="44.7425" y="63.990586" style="stroke: #000000; stroke-width: 0.6"/>
      </g>
     </g>
    </g>
    <g id="ytick_18">
     <g id="line2d_67">
      <path d="M 44.7425 61.486764 
L 242.2745 61.486764 
" clip-path="url(#pe17cc9482f)" style="fill: none; stroke-dasharray: 2.96,1.28; stroke-dashoffset: 0; stroke: #f2f2f2; stroke-width: 0.8"/>
     </g>
     <g id="line2d_68">
      <g>
       <use xlink:href="#md5f3c82f8e" x="44.7425" y="61.486764" style="stroke: #000000; stroke-width: 0.6"/>
      </g>
     </g>
    </g>
    <g id="ytick_19">
     <g id="line2d_69">
      <path d="M 44.7425 44.512153 
L 242.2745 44.512153 
" clip-path="url(#pe17cc9482f)" style="fill: none; stroke-dasharray: 2.96,1.28; stroke-dashoffset: 0; stroke: #f2f2f2; stroke-width: 0.8"/>
     </g>
     <g id="line2d_70">
      <g>
       <use xlink:href="#md5f3c82f8e" x="44.7425" y="44.512153" style="stroke: #000000; stroke-width: 0.6"/>
      </g>
     </g>
    </g>
    <g id="ytick_20">
     <g id="line2d_71">
      <path d="M 44.7425 35.892809 
L 242.2745 35.892809 
" clip-path="url(#pe17cc9482f)" style="fill: none; stroke-dasharray: 2.96,1.28; stroke-dashoffset: 0; stroke: #f2f2f2; stroke-width: 0.8"/>
     </g>
     <g id="line2d_72">
      <g>
       <use xlink:href="#md5f3c82f8e" x="44.7425" y="35.892809" style="stroke: #000000; stroke-width: 0.6"/>
      </g>
     </g>
    </g>
    <g id="ytick_21">
     <g id="line2d_73">
      <path d="M 44.7425 29.777288 
L 242.2745 29.777288 
" clip-path="url(#pe17cc9482f)" style="fill: none; stroke-dasharray: 2.96,1.28; stroke-dashoffset: 0; stroke: #f2f2f2; stroke-width: 0.8"/>
     </g>
     <g id="line2d_74">
      <g>
       <use xlink:href="#md5f3c82f8e" x="44.7425" y="29.777288" style="stroke: #000000; stroke-width: 0.6"/>
      </g>
     </g>
    </g>
    <g id="ytick_22">
     <g id="line2d_75">
      <path d="M 44.7425 25.03372 
L 242.2745 25.03372 
" clip-path="url(#pe17cc9482f)" style="fill: none; stroke-dasharray: 2.96,1.28; stroke-dashoffset: 0; stroke: #f2f2f2; stroke-width: 0.8"/>
     </g>
     <g id="line2d_76">
      <g>
       <use xlink:href="#md5f3c82f8e" x="44.7425" y="25.03372" style="stroke: #000000; stroke-width: 0.6"/>
      </g>
     </g>
    </g>
    <g id="ytick_23">
     <g id="line2d_77">
      <path d="M 44.7425 21.157944 
L 242.2745 21.157944 
" clip-path="url(#pe17cc9482f)" style="fill: none; stroke-dasharray: 2.96,1.28; stroke-dashoffset: 0; stroke: #f2f2f2; stroke-width: 0.8"/>
     </g>
     <g id="line2d_78">
      <g>
       <use xlink:href="#md5f3c82f8e" x="44.7425" y="21.157944" style="stroke: #000000; stroke-width: 0.6"/>
      </g>
     </g>
    </g>
    <g id="ytick_24">
     <g id="line2d_79">
      <path d="M 44.7425 17.881021 
L 242.2745 17.881021 
" clip-path="url(#pe17cc9482f)" style="fill: none; stroke-dasharray: 2.96,1.28; stroke-dashoffset: 0; stroke: #f2f2f2; stroke-width: 0.8"/>
     </g>
     <g id="line2d_80">
      <g>
       <use xlink:href="#md5f3c82f8e" x="44.7425" y="17.881021" style="stroke: #000000; stroke-width: 0.6"/>
      </g>
     </g>
    </g>
    <g id="ytick_25">
     <g id="line2d_81">
      <path d="M 44.7425 15.042422 
L 242.2745 15.042422 
" clip-path="url(#pe17cc9482f)" style="fill: none; stroke-dasharray: 2.96,1.28; stroke-dashoffset: 0; stroke: #f2f2f2; stroke-width: 0.8"/>
     </g>
     <g id="line2d_82">
      <g>
       <use xlink:href="#md5f3c82f8e" x="44.7425" y="15.042422" style="stroke: #000000; stroke-width: 0.6"/>
      </g>
     </g>
    </g>
    <g id="ytick_26">
     <g id="line2d_83">
      <path d="M 44.7425 12.5386 
L 242.2745 12.5386 
" clip-path="url(#pe17cc9482f)" style="fill: none; stroke-dasharray: 2.96,1.28; stroke-dashoffset: 0; stroke: #f2f2f2; stroke-width: 0.8"/>
     </g>
     <g id="line2d_84">
      <g>
       <use xlink:href="#md5f3c82f8e" x="44.7425" y="12.5386" style="stroke: #000000; stroke-width: 0.6"/>
      </g>
     </g>
    </g>
    <g id="text_7">
     <!-- Spectral acceleration, SA (g) -->
     <g transform="translate(13.27875 129.871075) rotate(-90) scale(0.08 -0.08)">
      <defs>
       <path id="DejaVuSans-53" d="M 3425 4513 
L 3425 3897 
Q 3066 4069 2747 4153 
Q 2428 4238 2131 4238 
Q 1616 4238 1336 4038 
Q 1056 3838 1056 3469 
Q 1056 3159 1242 3001 
Q 1428 2844 1947 2747 
L 2328 2669 
Q 3034 2534 3370 2195 
Q 3706 1856 3706 1288 
Q 3706 609 3251 259 
Q 2797 -91 1919 -91 
Q 1588 -91 1214 -16 
Q 841 59 441 206 
L 441 856 
Q 825 641 1194 531 
Q 1563 422 1919 422 
Q 2459 422 2753 634 
Q 3047 847 3047 1241 
Q 3047 1584 2836 1778 
Q 2625 1972 2144 2069 
L 1759 2144 
Q 1053 2284 737 2584 
Q 422 2884 422 3419 
Q 422 4038 858 4394 
Q 1294 4750 2059 4750 
Q 2388 4750 2728 4690 
Q 3069 4631 3425 4513 
z
" transform="scale(0.015625)"/>
       <path id="DejaVuSans-70" d="M 1159 525 
L 1159 -1331 
L 581 -1331 
L 581 3500 
L 1159 3500 
L 1159 2969 
Q 1341 3281 1617 3432 
Q 1894 3584 2278 3584 
Q 2916 3584 3314 3078 
Q 3713 2572 3713 1747 
Q 3713 922 3314 415 
Q 2916 -91 2278 -91 
Q 1894 -91 1617 61 
Q 1341 213 1159 525 
z
M 3116 1747 
Q 3116 2381 2855 2742 
Q 2594 3103 2138 3103 
Q 1681 3103 1420 2742 
Q 1159 2381 1159 1747 
Q 1159 1113 1420 752 
Q 1681 391 2138 391 
Q 2594 391 2855 752 
Q 3116 1113 3116 1747 
z
" transform="scale(0.015625)"/>
       <path id="DejaVuSans-63" d="M 3122 3366 
L 3122 2828 
Q 2878 2963 2633 3030 
Q 2388 3097 2138 3097 
Q 1578 3097 1268 2742 
Q 959 2388 959 1747 
Q 959 1106 1268 751 
Q 1578 397 2138 397 
Q 2388 397 2633 464 
Q 2878 531 3122 666 
L 3122 134 
Q 2881 22 2623 -34 
Q 2366 -91 2075 -91 
Q 1284 -91 818 406 
Q 353 903 353 1747 
Q 353 2603 823 3093 
Q 1294 3584 2113 3584 
Q 2378 3584 2631 3529 
Q 2884 3475 3122 3366 
z
" transform="scale(0.015625)"/>
       <path id="DejaVuSans-74" d="M 1172 4494 
L 1172 3500 
L 2356 3500 
L 2356 3053 
L 1172 3053 
L 1172 1153 
Q 1172 725 1289 603 
Q 1406 481 1766 481 
L 2356 481 
L 2356 0 
L 1766 0 
Q 1100 0 847 248 
Q 594 497 594 1153 
L 594 3053 
L 172 3053 
L 172 3500 
L 594 3500 
L 594 4494 
L 1172 4494 
z
" transform="scale(0.015625)"/>
       <path id="DejaVuSans-61" d="M 2194 1759 
Q 1497 1759 1228 1600 
Q 959 1441 959 1056 
Q 959 750 1161 570 
Q 1363 391 1709 391 
Q 2188 391 2477 730 
Q 2766 1069 2766 1631 
L 2766 1759 
L 2194 1759 
z
M 3341 1997 
L 3341 0 
L 2766 0 
L 2766 531 
Q 2569 213 2275 61 
Q 1981 -91 1556 -91 
Q 1019 -91 701 211 
Q 384 513 384 1019 
Q 384 1609 779 1909 
Q 1175 2209 1959 2209 
L 2766 2209 
L 2766 2266 
Q 2766 2663 2505 2880 
Q 2244 3097 1772 3097 
Q 1472 3097 1187 3025 
Q 903 2953 641 2809 
L 641 3341 
Q 956 3463 1253 3523 
Q 1550 3584 1831 3584 
Q 2591 3584 2966 3190 
Q 3341 2797 3341 1997 
z
" transform="scale(0.015625)"/>
       <path id="DejaVuSans-6c" d="M 603 4863 
L 1178 4863 
L 1178 0 
L 603 0 
L 603 4863 
z
" transform="scale(0.015625)"/>
       <path id="DejaVuSans-6e" d="M 3513 2113 
L 3513 0 
L 2938 0 
L 2938 2094 
Q 2938 2591 2744 2837 
Q 2550 3084 2163 3084 
Q 1697 3084 1428 2787 
Q 1159 2491 1159 1978 
L 1159 0 
L 581 0 
L 581 3500 
L 1159 3500 
L 1159 2956 
Q 1366 3272 1645 3428 
Q 1925 3584 2291 3584 
Q 2894 3584 3203 3211 
Q 3513 2838 3513 2113 
z
" transform="scale(0.015625)"/>
       <path id="DejaVuSans-41" d="M 2188 4044 
L 1331 1722 
L 3047 1722 
L 2188 4044 
z
M 1831 4666 
L 2547 4666 
L 4325 0 
L 3669 0 
L 3244 1197 
L 1141 1197 
L 716 0 
L 50 0 
L 1831 4666 
z
" transform="scale(0.015625)"/>
       <path id="DejaVuSans-67" d="M 2906 1791 
Q 2906 2416 2648 2759 
Q 2391 3103 1925 3103 
Q 1463 3103 1205 2759 
Q 947 2416 947 1791 
Q 947 1169 1205 825 
Q 1463 481 1925 481 
Q 2391 481 2648 825 
Q 2906 1169 2906 1791 
z
M 3481 434 
Q 3481 -459 3084 -895 
Q 2688 -1331 1869 -1331 
Q 1566 -1331 1297 -1286 
Q 1028 -1241 775 -1147 
L 775 -588 
Q 1028 -725 1275 -790 
Q 1522 -856 1778 -856 
Q 2344 -856 2625 -561 
Q 2906 -266 2906 331 
L 2906 616 
Q 2728 306 2450 153 
Q 2172 0 1784 0 
Q 1141 0 747 490 
Q 353 981 353 1791 
Q 353 2603 747 3093 
Q 1141 3584 1784 3584 
Q 2172 3584 2450 3431 
Q 2728 3278 2906 2969 
L 2906 3500 
L 3481 3500 
L 3481 434 
z
" transform="scale(0.015625)"/>
      </defs>
      <use xlink:href="#DejaVuSans-53"/>
      <use xlink:href="#DejaVuSans-70" x="63.476562"/>
      <use xlink:href="#DejaVuSans-65" x="126.953125"/>
      <use xlink:href="#DejaVuSans-63" x="188.476562"/>
      <use xlink:href="#DejaVuSans-74" x="243.457031"/>
      <use xlink:href="#DejaVuSans-72" x="282.666016"/>
      <use xlink:href="#DejaVuSans-61" x="323.779297"/>
      <use xlink:href="#DejaVuSans-6c" x="385.058594"/>
      <use xlink:href="#DejaVuSans-20" x="412.841797"/>
      <use xlink:href="#DejaVuSans-61" x="444.628906"/>
      <use xlink:href="#DejaVuSans-63" x="505.908203"/>
      <use xlink:href="#DejaVuSans-63" x="560.888672"/>
      <use xlink:href="#DejaVuSans-65" x="615.869141"/>
      <use xlink:href="#DejaVuSans-6c" x="677.392578"/>
      <use xlink:href="#DejaVuSans-65" x="705.175781"/>
      <use xlink:href="#DejaVuSans-72" x="766.699219"/>
      <use xlink:href="#DejaVuSans-61" x="807.8125"/>
      <use xlink:href="#DejaVuSans-74" x="869.091797"/>
      <use xlink:href="#DejaVuSans-69" x="908.300781"/>
      <use xlink:href="#DejaVuSans-6f" x="936.083984"/>
      <use xlink:href="#DejaVuSans-6e" x="997.265625"/>
      <use xlink:href="#DejaVuSans-2c" x="1060.644531"/>
      <use xlink:href="#DejaVuSans-20" x="1092.431641"/>
      <use xlink:href="#DejaVuSans-53" x="1124.21875"/>
      <use xlink:href="#DejaVuSans-41" x="1189.570312"/>
      <use xlink:href="#DejaVuSans-20" x="1257.978516"/>
      <use xlink:href="#DejaVuSans-28" x="1289.765625"/>
      <use xlink:href="#DejaVuSans-67" x="1328.779297"/>
      <use xlink:href="#DejaVuSans-29" x="1392.255859"/>
     </g>
    </g>
   </g>
   <g id="line2d_85">
    <path d="M 53.721227 30.271578 
L 72.333391 23.782329 
L 85.538931 27.729081 
L 95.781944 19.333623 
L 104.151095 13.1472 
L 117.356635 27.355996 
L 127.599648 41.803442 
L 132.472745 50.206712 
L 146.211812 58.5775 
L 159.417352 65.137441 
L 171.460723 74.064711 
L 178.029516 79.211305 
L 191.235056 92.738261 
L 209.84722 104.070172 
L 223.05276 113.714031 
L 233.295773 124.598402 
" clip-path="url(#pe17cc9482f)" style="fill: none; stroke: #b2b2b2; stroke-width: 0.8; stroke-linecap: square"/>
   </g>
   <g id="line2d_86">
    <path d="M 53.721227 68.256431 
L 72.333391 60.053891 
L 85.538931 61.936061 
L 95.781944 58.856742 
L 104.151095 53.608935 
L 117.356635 50.195512 
L 127.599648 50.804265 
L 132.472745 50.206712 
L 146.211812 43.054442 
L 159.417352 55.402175 
L 171.460723 63.571148 
L 178.029516 62.12178 
L 191.235056 59.924384 
L 209.84722 57.327684 
L 223.05276 71.973506 
L 233.295773 80.619303 
" clip-path="url(#pe17cc9482f)" style="fill: none; stroke: #b2b2b2; stroke-width: 0.8; stroke-linecap: square"/>
   </g>
   <g id="line2d_87">
    <path d="M 53.721227 59.514455 
L 72.333391 60.52345 
L 85.538931 60.551337 
L 95.781944 51.576599 
L 104.151095 44.777096 
L 117.356635 41.192887 
L 127.599648 47.933566 
L 132.472745 50.206712 
L 146.211812 52.819172 
L 159.417352 52.50432 
L 171.460723 54.592809 
L 178.029516 53.924652 
L 191.235056 66.213647 
L 209.84722 69.621637 
L 223.05276 86.761659 
L 233.295773 102.373894 
" clip-path="url(#pe17cc9482f)" style="fill: none; stroke: #b2b2b2; stroke-width: 0.8; stroke-linecap: square"/>
   </g>
   <g id="line2d_88">
    <path d="M 53.721227 74.229244 
L 72.333391 65.12488 
L 85.538931 65.830474 
L 95.781944 67.717327 
L 104.151095 60.946616 
L 117.356635 58.238885 
L 127.599648 52.954454 
L 132.472745 50.206712 
L 146.211812 50.606333 
L 159.417352 51.01671 
L 171.460723 55.011998 
L 178.029516 59.936494 
L 191.235056 67.362902 
L 209.84722 82.185228 
L 223.05276 94.620337 
L 233.295773 95.601753 
" clip-path="url(#pe17cc9482f)" style="fill: none; stroke: #b2b2b2; stroke-width: 0.8; stroke-linecap: square"/>
   </g>
   <g id="line2d_89">
    <path d="M 53.721227 64.825071 
L 72.333391 49.990417 
L 85.538931 57.904347 
L 95.781944 56.122133 
L 104.151095 55.732837 
L 117.356635 51.799612 
L 127.599648 46.593773 
L 132.472745 50.206712 
L 146.211812 50.296103 
L 159.417352 60.774725 
L 171.460723 60.041774 
L 178.029516 68.609477 
L 191.235056 78.766128 
L 209.84722 87.946677 
L 223.05276 100.158479 
L 233.295773 118.967326 
" clip-path="url(#pe17cc9482f)" style="fill: none; stroke: #b2b2b2; stroke-width: 0.8; stroke-linecap: square"/>
   </g>
   <g id="line2d_90">
    <path d="M 53.721227 62.312453 
L 72.333391 56.408572 
L 85.538931 52.591889 
L 95.781944 56.889736 
L 104.151095 55.436373 
L 117.356635 45.414016 
L 127.599648 44.768678 
L 132.472745 50.206712 
L 146.211812 51.318426 
L 159.417352 58.147835 
L 171.460723 59.560789 
L 178.029516 65.685446 
L 191.235056 76.249729 
L 209.84722 89.589209 
L 223.05276 103.817448 
L 233.295773 118.050638 
" clip-path="url(#pe17cc9482f)" style="fill: none; stroke: #b2b2b2; stroke-width: 0.8; stroke-linecap: square"/>
   </g>
   <g id="line2d_91">
    <path d="M 53.721227 64.409238 
L 72.333391 57.820032 
L 85.538931 53.226892 
L 95.781944 49.916919 
L 104.151095 52.583182 
L 117.356635 47.471025 
L 127.599648 52.958913 
L 132.472745 50.206712 
L 146.211812 43.401964 
L 159.417352 42.441991 
L 171.460723 48.602837 
L 178.029516 49.158776 
L 191.235056 54.068378 
L 209.84722 61.697965 
L 223.05276 76.633324 
L 233.295773 81.34139 
" clip-path="url(#pe17cc9482f)" style="fill: none; stroke: #b2b2b2; stroke-width: 0.8; stroke-linecap: square"/>
   </g>
   <g id="line2d_92">
    <path d="M 53.721227 43.164078 
L 72.333391 30.869524 
L 85.538931 33.958612 
L 95.781944 41.692551 
L 104.151095 39.338408 
L 117.356635 42.42629 
L 127.599648 46.765396 
L 132.472745 50.206712 
L 146.211812 47.320958 
L 159.417352 56.93076 
L 171.460723 53.690394 
L 178.029516 54.3382 
L 191.235056 56.629195 
L 209.84722 80.559322 
L 223.05276 85.870869 
L 233.295773 94.912051 
" clip-path="url(#pe17cc9482f)" style="fill: none; stroke: #b2b2b2; stroke-width: 0.8; stroke-linecap: square"/>
   </g>
   <g id="line2d_93">
    <path d="M 53.721227 55.429513 
L 72.333391 54.666989 
L 85.538931 50.40445 
L 95.781944 48.755284 
L 104.151095 50.349187 
L 117.356635 53.471463 
L 127.599648 50.80118 
L 132.472745 50.206712 
L 146.211812 48.955262 
L 159.417352 50.00279 
L 171.460723 52.475215 
L 178.029516 57.967787 
L 191.235056 73.185468 
L 209.84722 80.09593 
L 223.05276 78.70874 
L 233.295773 82.347262 
" clip-path="url(#pe17cc9482f)" style="fill: none; stroke: #b2b2b2; stroke-width: 0.8; stroke-linecap: square"/>
   </g>
   <g id="line2d_94">
    <path d="M 53.721227 60.670883 
L 72.333391 53.806208 
L 85.538931 58.171089 
L 95.781944 46.252592 
L 104.151095 49.10063 
L 117.356635 55.069203 
L 127.599648 46.632047 
L 132.472745 50.206712 
L 146.211812 65.197462 
L 159.417352 58.307599 
L 171.460723 58.027537 
L 178.029516 59.222262 
L 191.235056 78.339684 
L 209.84722 74.245891 
L 223.05276 91.905047 
L 233.295773 108.96195 
" clip-path="url(#pe17cc9482f)" style="fill: none; stroke: #b2b2b2; stroke-width: 0.8; stroke-linecap: square"/>
   </g>
   <g id="line2d_95">
    <path d="M 53.721227 56.842292 
L 72.333391 51.291432 
L 85.538931 37.072993 
L 95.781944 52.476122 
L 104.151095 47.098863 
L 117.356635 57.170898 
L 127.599648 53.884518 
L 132.472745 50.206712 
L 146.211812 48.296397 
L 159.417352 55.636775 
L 171.460723 67.750079 
L 178.029516 69.732563 
L 191.235056 85.667473 
L 209.84722 112.234806 
L 223.05276 106.554839 
L 233.295773 121.990435 
" clip-path="url(#pe17cc9482f)" style="fill: none; stroke: #b2b2b2; stroke-width: 0.8; stroke-linecap: square"/>
   </g>
   <g id="line2d_96">
    <path d="M 53.721227 43.472103 
L 72.333391 45.356772 
L 85.538931 41.660334 
L 95.781944 52.909195 
L 104.151095 54.572166 
L 117.356635 50.552402 
L 127.599648 51.916978 
L 132.472745 50.206712 
L 146.211812 49.081405 
L 159.417352 52.72672 
L 171.460723 48.986305 
L 178.029516 58.197803 
L 191.235056 68.675464 
L 209.84722 85.852507 
L 223.05276 96.365117 
L 233.295773 95.189223 
" clip-path="url(#pe17cc9482f)" style="fill: none; stroke: #b2b2b2; stroke-width: 0.8; stroke-linecap: square"/>
   </g>
   <g id="line2d_97">
    <path d="M 53.721227 40.176504 
L 72.333391 37.294488 
L 85.538931 46.60815 
L 95.781944 45.583574 
L 104.151095 50.426765 
L 117.356635 44.167188 
L 127.599648 49.424558 
L 132.472745 50.206712 
L 146.211812 53.679081 
L 159.417352 67.220587 
L 171.460723 70.347547 
L 178.029516 79.131612 
L 191.235056 94.912607 
L 209.84722 101.953553 
L 223.05276 105.8901 
L 233.295773 116.741268 
" clip-path="url(#pe17cc9482f)" style="fill: none; stroke: #b2b2b2; stroke-width: 0.8; stroke-linecap: square"/>
   </g>
   <g id="line2d_98">
    <path d="M 53.721227 72.663409 
L 72.333391 65.553886 
L 85.538931 60.55849 
L 95.781944 58.090384 
L 104.151095 56.179703 
L 117.356635 48.239146 
L 127.599648 46.921311 
L 132.472745 50.206712 
L 146.211812 65.447249 
L 159.417352 58.640052 
L 171.460723 62.584882 
L 178.029516 67.666821 
L 191.235056 73.989716 
L 209.84722 82.29691 
L 223.05276 88.28172 
L 233.295773 100.019645 
" clip-path="url(#pe17cc9482f)" style="fill: none; stroke: #b2b2b2; stroke-width: 0.8; stroke-linecap: square"/>
   </g>
   <g id="line2d_99">
    <path d="M 53.721227 53.914103 
L 72.333391 48.353358 
L 85.538931 41.468048 
L 95.781944 43.543502 
L 104.151095 51.201112 
L 117.356635 52.431617 
L 127.599648 48.680271 
L 132.472745 50.206712 
L 146.211812 60.066119 
L 159.417352 63.375005 
L 171.460723 72.733757 
L 178.029516 80.845442 
L 191.235056 88.594577 
L 209.84722 94.739583 
L 223.05276 109.30205 
L 233.295773 115.769068 
" clip-path="url(#pe17cc9482f)" style="fill: none; stroke: #b2b2b2; stroke-width: 0.8; stroke-linecap: square"/>
   </g>
   <g id="line2d_100">
    <path d="M 53.721227 50.302353 
L 72.333391 41.797263 
L 85.538931 38.568163 
L 95.781944 44.526758 
L 104.151095 31.881031 
L 117.356635 40.389193 
L 127.599648 42.667227 
L 132.472745 50.206712 
L 146.211812 51.770736 
L 159.417352 55.78447 
L 171.460723 46.13152 
L 178.029516 47.964718 
L 191.235056 66.020482 
L 209.84722 89.491205 
L 223.05276 104.362991 
L 233.295773 117.464051 
" clip-path="url(#pe17cc9482f)" style="fill: none; stroke: #b2b2b2; stroke-width: 0.8; stroke-linecap: square"/>
   </g>
   <g id="line2d_101">
    <path d="M 53.721227 65.046043 
L 72.333391 60.569136 
L 85.538931 61.107509 
L 95.781944 61.754107 
L 104.151095 60.838267 
L 117.356635 60.079284 
L 127.599648 50.826797 
L 132.472745 50.206712 
L 146.211812 55.667058 
L 159.417352 57.638973 
L 171.460723 58.181732 
L 178.029516 63.80309 
L 191.235056 71.954957 
L 209.84722 91.15964 
L 223.05276 108.535244 
L 233.295773 115.819934 
" clip-path="url(#pe17cc9482f)" style="fill: none; stroke: #b2b2b2; stroke-width: 0.8; stroke-linecap: square"/>
   </g>
   <g id="line2d_102">
    <path d="M 53.721227 32.586244 
L 72.333391 19.392262 
L 85.538931 18.95442 
L 95.781944 31.971829 
L 104.151095 32.375414 
L 117.356635 36.951712 
L 127.599648 38.196359 
L 132.472745 50.206712 
L 146.211812 55.826622 
L 159.417352 57.802624 
L 171.460723 70.304031 
L 178.029516 72.2446 
L 191.235056 80.507919 
L 209.84722 91.9079 
L 223.05276 96.194784 
L 233.295773 106.480861 
" clip-path="url(#pe17cc9482f)" style="fill: none; stroke: #b2b2b2; stroke-width: 0.8; stroke-linecap: square"/>
   </g>
   <g id="line2d_103">
    <path d="M 53.721227 72.449022 
L 72.333391 67.848276 
L 85.538931 66.307596 
L 95.781944 64.460011 
L 104.151095 55.199337 
L 117.356635 50.349509 
L 127.599648 50.125303 
L 132.472745 50.206712 
L 146.211812 48.221141 
L 159.417352 63.515084 
L 171.460723 70.603295 
L 178.029516 72.548653 
L 191.235056 80.799737 
L 209.84722 93.132469 
L 223.05276 105.623126 
L 233.295773 104.198277 
" clip-path="url(#pe17cc9482f)" style="fill: none; stroke: #b2b2b2; stroke-width: 0.8; stroke-linecap: square"/>
   </g>
   <g id="line2d_104">
    <path d="M 53.721227 59.008057 
L 72.333391 56.525623 
L 85.538931 53.833606 
L 95.781944 56.427892 
L 104.151095 50.230197 
L 117.356635 45.23004 
L 127.599648 48.742445 
L 132.472745 50.206712 
L 146.211812 52.268712 
L 159.417352 59.93909 
L 171.460723 61.322101 
L 178.029516 73.061802 
L 191.235056 70.622985 
L 209.84722 101.462211 
L 223.05276 105.362684 
L 233.295773 113.823575 
" clip-path="url(#pe17cc9482f)" style="fill: none; stroke: #b2b2b2; stroke-width: 0.8; stroke-linecap: square"/>
   </g>
   <g id="line2d_105">
    <path d="M 53.721227 59.380819 
L 72.333391 57.733043 
L 85.538931 46.773852 
L 95.781944 47.009749 
L 104.151095 42.910536 
L 117.356635 34.886834 
L 127.599648 49.854574 
L 132.472745 50.206712 
L 146.211812 52.289724 
L 159.417352 63.277858 
L 171.460723 74.924377 
L 178.029516 76.480841 
L 191.235056 79.867608 
L 209.84722 90.068533 
L 223.05276 101.92609 
L 233.295773 110.078144 
" clip-path="url(#pe17cc9482f)" style="fill: none; stroke: #b2b2b2; stroke-width: 0.8; stroke-linecap: square"/>
   </g>
   <g id="line2d_106">
    <path d="M 53.721227 49.220748 
L 72.333391 48.686811 
L 85.538931 43.71173 
L 95.781944 35.923125 
L 104.151095 37.951388 
L 117.356635 44.686495 
L 127.599648 49.539437 
L 132.472745 50.206712 
L 146.211812 58.294028 
L 159.417352 58.744019 
L 171.460723 64.20945 
L 178.029516 64.947698 
L 191.235056 75.006711 
L 209.84722 91.354873 
L 223.05276 88.618747 
L 233.295773 98.779081 
" clip-path="url(#pe17cc9482f)" style="fill: none; stroke: #b2b2b2; stroke-width: 0.8; stroke-linecap: square"/>
   </g>
   <g id="line2d_107">
    <path d="M 53.721227 45.267461 
L 72.333391 39.156555 
L 85.538931 41.071908 
L 95.781944 47.445897 
L 104.151095 46.145171 
L 117.356635 51.258689 
L 127.599648 50.513557 
L 132.472745 50.206712 
L 146.211812 54.801111 
L 159.417352 57.339588 
L 171.460723 57.755839 
L 178.029516 59.63529 
L 191.235056 66.106865 
L 209.84722 87.203663 
L 223.05276 101.375455 
L 233.295773 112.033433 
" clip-path="url(#pe17cc9482f)" style="fill: none; stroke: #b2b2b2; stroke-width: 0.8; stroke-linecap: square"/>
   </g>
   <g id="line2d_108">
    <path d="M 53.721227 64.425122 
L 72.333391 62.504157 
L 85.538931 59.746423 
L 95.781944 60.233682 
L 104.151095 58.498751 
L 117.356635 54.442444 
L 127.599648 47.499196 
L 132.472745 50.206712 
L 146.211812 56.374942 
L 159.417352 62.906354 
L 171.460723 70.602929 
L 178.029516 73.240717 
L 191.235056 87.333975 
L 209.84722 89.219245 
L 223.05276 98.249896 
L 233.295773 104.064061 
" clip-path="url(#pe17cc9482f)" style="fill: none; stroke: #b2b2b2; stroke-width: 0.8; stroke-linecap: square"/>
   </g>
   <g id="line2d_109">
    <path d="M 53.721227 51.824595 
L 72.333391 58.097005 
L 85.538931 49.664276 
L 95.781944 46.103596 
L 104.151095 51.008184 
L 117.356635 47.160451 
L 127.599648 49.70517 
L 132.472745 50.206712 
L 146.211812 62.362561 
L 159.417352 75.70055 
L 171.460723 84.427126 
L 178.029516 88.265772 
L 191.235056 98.818883 
L 209.84722 101.335368 
L 223.05276 111.397574 
L 233.295773 115.96141 
" clip-path="url(#pe17cc9482f)" style="fill: none; stroke: #b2b2b2; stroke-width: 0.8; stroke-linecap: square"/>
   </g>
   <g id="line2d_110">
    <path d="M 53.721227 34.463096 
L 72.333391 32.004617 
L 85.538931 31.917217 
L 95.781944 27.938234 
L 104.151095 42.922787 
L 117.356635 48.818453 
L 127.599648 50.617111 
L 132.472745 50.206712 
L 146.211812 65.861185 
L 159.417352 80.072107 
L 171.460723 85.926974 
L 178.029516 87.664352 
L 191.235056 85.406689 
L 209.84722 94.633501 
L 223.05276 105.704615 
L 233.295773 109.738208 
" clip-path="url(#pe17cc9482f)" style="fill: none; stroke: #b2b2b2; stroke-width: 0.8; stroke-linecap: square"/>
   </g>
   <g id="line2d_111">
    <path d="M 53.721227 35.627367 
L 72.333391 38.702271 
L 85.538931 40.909863 
L 95.781944 39.6998 
L 104.151095 37.457226 
L 117.356635 36.094219 
L 127.599648 46.872808 
L 132.472745 50.206712 
L 146.211812 55.523083 
L 159.417352 61.836453 
L 171.460723 61.790127 
L 178.029516 67.898176 
L 191.235056 79.17886 
L 209.84722 91.809918 
L 223.05276 105.672081 
L 233.295773 118.370308 
" clip-path="url(#pe17cc9482f)" style="fill: none; stroke: #b2b2b2; stroke-width: 0.8; stroke-linecap: square"/>
   </g>
   <g id="line2d_112">
    <path d="M 53.721227 58.783309 
L 72.333391 53.077773 
L 85.538931 43.489773 
L 95.781944 47.610169 
L 104.151095 40.273075 
L 117.356635 56.460935 
L 127.599648 51.374051 
L 132.472745 50.206712 
L 146.211812 50.956164 
L 159.417352 59.095492 
L 171.460723 67.736148 
L 178.029516 73.690322 
L 191.235056 70.150883 
L 209.84722 82.681088 
L 223.05276 92.498466 
L 233.295773 104.295942 
" clip-path="url(#pe17cc9482f)" style="fill: none; stroke: #b2b2b2; stroke-width: 0.8; stroke-linecap: square"/>
   </g>
   <g id="line2d_113">
    <path d="M 53.721227 68.688726 
L 72.333391 63.917873 
L 85.538931 56.061799 
L 95.781944 43.816191 
L 104.151095 49.457226 
L 117.356635 46.837518 
L 127.599648 51.212834 
L 132.472745 50.206712 
L 146.211812 48.069602 
L 159.417352 51.206354 
L 171.460723 53.148525 
L 178.029516 58.327686 
L 191.235056 66.840156 
L 209.84722 79.266205 
L 223.05276 79.089537 
L 233.295773 97.683704 
" clip-path="url(#pe17cc9482f)" style="fill: none; stroke: #b2b2b2; stroke-width: 0.8; stroke-linecap: square"/>
   </g>
   <g id="line2d_114">
    <path d="M 53.721227 52.394751 
L 72.333391 53.41196 
L 85.538931 57.890432 
L 95.781944 61.533976 
L 104.151095 57.606926 
L 117.356635 51.801036 
L 127.599648 49.947243 
L 132.472745 50.206712 
L 146.211812 53.660683 
L 159.417352 56.89158 
L 171.460723 69.154976 
L 178.029516 76.394397 
L 191.235056 68.643882 
L 209.84722 90.646996 
L 223.05276 87.184664 
L 233.295773 98.641828 
" clip-path="url(#pe17cc9482f)" style="fill: none; stroke: #b2b2b2; stroke-width: 0.8; stroke-linecap: square"/>
   </g>
   <g id="line2d_115">
    <path d="M 53.721227 69.850851 
L 72.333391 67.950005 
L 85.538931 62.884656 
L 95.781944 63.375374 
L 104.151095 50.955154 
L 117.356635 57.386474 
L 127.599648 46.799511 
L 132.472745 50.206712 
L 146.211812 61.879171 
L 159.417352 66.569539 
L 171.460723 71.020398 
L 178.029516 71.127027 
L 191.235056 70.711663 
L 209.84722 79.90406 
L 223.05276 89.468159 
L 233.295773 88.78915 
" clip-path="url(#pe17cc9482f)" style="fill: none; stroke: #b2b2b2; stroke-width: 0.8; stroke-linecap: square"/>
   </g>
   <g id="line2d_116">
    <path d="M 53.721227 49.032428 
L 72.333391 56.098787 
L 85.538931 52.724508 
L 95.781944 50.956453 
L 104.151095 56.169077 
L 117.356635 45.488055 
L 127.599648 47.520105 
L 132.472745 50.206712 
L 146.211812 52.614279 
L 159.417352 69.604311 
L 171.460723 67.0802 
L 178.029516 70.551747 
L 191.235056 84.1078 
L 209.84722 95.642015 
L 223.05276 108.586814 
L 233.295773 121.454666 
" clip-path="url(#pe17cc9482f)" style="fill: none; stroke: #b2b2b2; stroke-width: 0.8; stroke-linecap: square"/>
   </g>
   <g id="line2d_117">
    <path d="M 53.721227 49.156558 
L 72.333391 46.764014 
L 85.538931 48.165242 
L 95.781944 47.33648 
L 104.151095 51.533274 
L 117.356635 52.556033 
L 127.599648 53.204068 
L 132.472745 50.206712 
L 146.211812 52.089592 
L 159.417352 43.694302 
L 171.460723 52.973334 
L 178.029516 54.030412 
L 191.235056 61.213485 
L 209.84722 90.028862 
L 223.05276 94.493625 
L 233.295773 105.582275 
" clip-path="url(#pe17cc9482f)" style="fill: none; stroke: #b2b2b2; stroke-width: 0.8; stroke-linecap: square"/>
   </g>
   <g id="line2d_118">
    <path d="M 53.721227 42.496093 
L 72.333391 43.51468 
L 85.538931 35.576988 
L 95.781944 32.368703 
L 104.151095 37.646378 
L 117.356635 40.955423 
L 127.599648 45.826211 
L 132.472745 50.206712 
L 146.211812 47.456563 
L 159.417352 67.431291 
L 171.460723 74.052119 
L 178.029516 81.179234 
L 191.235056 93.371447 
L 209.84722 108.278774 
L 223.05276 117.453679 
L 233.295773 113.674057 
" clip-path="url(#pe17cc9482f)" style="fill: none; stroke: #b2b2b2; stroke-width: 0.8; stroke-linecap: square"/>
   </g>
   <g id="line2d_119">
    <path d="M 53.721227 44.21739 
L 72.333391 45.536771 
L 85.538931 34.354366 
L 95.781944 36.479372 
L 104.151095 37.556481 
L 117.356635 49.153433 
L 127.599648 53.594762 
L 132.472745 50.206712 
L 146.211812 62.343634 
L 159.417352 75.39388 
L 171.460723 81.084829 
L 178.029516 78.156195 
L 191.235056 86.721202 
L 209.84722 77.478432 
L 223.05276 82.535073 
L 233.295773 84.181445 
" clip-path="url(#pe17cc9482f)" style="fill: none; stroke: #b2b2b2; stroke-width: 0.8; stroke-linecap: square"/>
   </g>
   <g id="line2d_120">
    <path d="M 53.721227 70.394292 
L 72.333391 70.737065 
L 85.538931 65.143109 
L 95.781944 54.761787 
L 104.151095 52.126142 
L 117.356635 46.116892 
L 127.599648 48.425867 
L 132.472745 50.206712 
L 146.211812 64.463355 
L 159.417352 77.898684 
L 171.460723 89.903681 
L 178.029516 91.805705 
L 191.235056 100.864386 
L 209.84722 118.980668 
L 223.05276 129.887304 
L 233.295773 132.0912 
" clip-path="url(#pe17cc9482f)" style="fill: none; stroke: #b2b2b2; stroke-width: 0.8; stroke-linecap: square"/>
   </g>
   <g id="line2d_121">
    <path d="M 53.721227 40.007892 
L 72.333391 27.50113 
L 85.538931 34.783114 
L 95.781944 36.068724 
L 104.151095 35.905226 
L 117.356635 41.811137 
L 127.599648 49.241154 
L 132.472745 50.206712 
L 146.211812 51.293758 
L 159.417352 67.693076 
L 171.460723 66.359715 
L 178.029516 67.263462 
L 191.235056 79.949334 
L 209.84722 89.66884 
L 223.05276 99.794415 
L 233.295773 112.077735 
" clip-path="url(#pe17cc9482f)" style="fill: none; stroke: #b2b2b2; stroke-width: 0.8; stroke-linecap: square"/>
   </g>
   <g id="line2d_122">
    <path d="M 53.721227 64.856359 
L 72.333391 52.777066 
L 85.538931 47.7395 
L 95.781944 47.95421 
L 104.151095 50.337255 
L 117.356635 46.279274 
L 127.599648 47.926181 
L 132.472745 50.206712 
L 146.211812 61.931905 
L 159.417352 53.23213 
L 171.460723 64.896128 
L 178.029516 72.83014 
L 191.235056 76.366536 
L 209.84722 92.233028 
L 223.05276 105.14074 
L 233.295773 109.759802 
" clip-path="url(#pe17cc9482f)" style="fill: none; stroke: #b2b2b2; stroke-width: 0.8; stroke-linecap: square"/>
   </g>
   <g id="line2d_123">
    <path d="M 53.721227 67.338049 
L 72.333391 61.224108 
L 85.538931 54.212784 
L 95.781944 55.704241 
L 104.151095 51.8755 
L 117.356635 52.310851 
L 127.599648 55.703538 
L 132.472745 50.206712 
L 146.211812 61.9402 
L 159.417352 74.686278 
L 171.460723 86.130545 
L 178.029516 84.666355 
L 191.235056 84.810713 
L 209.84722 90.174205 
L 223.05276 101.282227 
L 233.295773 107.279603 
" clip-path="url(#pe17cc9482f)" style="fill: none; stroke: #b2b2b2; stroke-width: 0.8; stroke-linecap: square"/>
   </g>
   <g id="line2d_124">
    <path d="M 53.721227 36.142882 
L 72.333391 32.162018 
L 85.538931 39.546021 
L 95.781944 37.583233 
L 104.151095 42.267287 
L 117.356635 46.195974 
L 127.599648 47.542382 
L 132.472745 50.206712 
L 146.211812 56.247616 
L 159.417352 66.229764 
L 171.460723 73.877649 
L 178.029516 74.449968 
L 191.235056 70.965447 
L 209.84722 87.496797 
L 223.05276 98.772987 
L 233.295773 112.541314 
" clip-path="url(#pe17cc9482f)" style="fill: none; stroke: #b2b2b2; stroke-width: 0.8; stroke-linecap: square"/>
   </g>
   <g id="line2d_125">
    <path d="M 53.721227 57.042389 
L 72.333391 53.078696 
L 85.538931 40.940763 
L 95.781944 38.208526 
L 104.151095 39.172888 
L 117.356635 43.20015 
L 127.599648 54.445174 
L 132.472745 50.206712 
L 146.211812 51.034488 
L 159.417352 62.580712 
L 171.460723 67.26374 
L 178.029516 70.496855 
L 191.235056 81.592704 
L 209.84722 94.454093 
L 223.05276 106.746975 
L 233.295773 106.856737 
" clip-path="url(#pe17cc9482f)" style="fill: none; stroke: #b2b2b2; stroke-width: 0.8; stroke-linecap: square"/>
   </g>
   <g id="line2d_126">
    <path d="M 53.721227 56.396928 
L 72.333391 52.937347 
L 85.538931 49.064937 
L 95.781944 53.071901 
L 104.151095 42.39386 
L 117.356635 50.591636 
L 127.599648 51.822285 
L 132.472745 50.206712 
L 146.211812 58.441617 
L 159.417352 61.085217 
L 171.460723 65.865964 
L 178.029516 67.447346 
L 191.235056 78.471484 
L 209.84722 85.369377 
L 223.05276 96.359825 
L 233.295773 98.880965 
" clip-path="url(#pe17cc9482f)" style="fill: none; stroke: #b2b2b2; stroke-width: 0.8; stroke-linecap: square"/>
   </g>
   <g id="line2d_127">
    <path d="M 53.721227 66.627669 
L 72.333391 63.703884 
L 85.538931 59.6696 
L 95.781944 59.495115 
L 104.151095 52.558927 
L 117.356635 52.217108 
L 127.599648 48.278225 
L 132.472745 50.206712 
L 146.211812 51.672781 
L 159.417352 46.686375 
L 171.460723 55.913755 
L 178.029516 61.407368 
L 191.235056 73.363857 
L 209.84722 85.336042 
L 223.05276 88.41657 
L 233.295773 103.727619 
" clip-path="url(#pe17cc9482f)" style="fill: none; stroke: #b2b2b2; stroke-width: 0.8; stroke-linecap: square"/>
   </g>
   <g id="line2d_128">
    <path d="M 53.721227 59.318855 
L 72.333391 55.57182 
L 85.538931 54.386159 
L 95.781944 59.386852 
L 104.151095 60.410923 
L 117.356635 57.26407 
L 127.599648 54.107646 
L 132.472745 50.206712 
L 146.211812 46.926271 
L 159.417352 50.281139 
L 171.460723 59.602314 
L 178.029516 67.698032 
L 191.235056 74.89807 
L 209.84722 85.761009 
L 223.05276 83.071172 
L 233.295773 86.802415 
" clip-path="url(#pe17cc9482f)" style="fill: none; stroke: #b2b2b2; stroke-width: 0.8; stroke-linecap: square"/>
   </g>
   <g id="line2d_129">
    <path d="M 53.721227 71.892013 
L 72.333391 64.533841 
L 85.538931 64.276091 
L 95.781944 55.346904 
L 104.151095 52.429177 
L 117.356635 51.655425 
L 127.599648 54.213229 
L 132.472745 50.206712 
L 146.211812 53.514483 
L 159.417352 58.315507 
L 171.460723 60.39746 
L 178.029516 65.834615 
L 191.235056 63.845555 
L 209.84722 68.033664 
L 223.05276 79.793557 
L 233.295773 86.239663 
" clip-path="url(#pe17cc9482f)" style="fill: none; stroke: #b2b2b2; stroke-width: 0.8; stroke-linecap: square"/>
   </g>
   <g id="line2d_130">
    <path d="M 53.721227 61.25706 
L 72.333391 56.303099 
L 85.538931 54.586973 
L 95.781944 48.968647 
L 104.151095 53.663999 
L 117.356635 45.396346 
L 127.599648 40.329406 
L 132.472745 50.206712 
L 146.211812 60.221458 
L 159.417352 68.087469 
L 171.460723 69.922125 
L 178.029516 71.607897 
L 191.235056 84.546155 
L 209.84722 87.261896 
L 223.05276 88.515351 
L 233.295773 100.077289 
" clip-path="url(#pe17cc9482f)" style="fill: none; stroke: #b2b2b2; stroke-width: 0.8; stroke-linecap: square"/>
   </g>
   <g id="line2d_131">
    <path d="M 53.721227 52.875606 
L 72.333391 49.738968 
L 85.538931 45.197609 
L 95.781944 46.291328 
L 104.151095 48.864621 
L 117.356635 50.572793 
L 127.599648 54.052066 
L 132.472745 50.206712 
L 146.211812 65.906025 
L 159.417352 63.828751 
L 171.460723 72.148872 
L 178.029516 74.859148 
L 191.235056 75.58826 
L 209.84722 86.016128 
L 223.05276 91.535496 
L 233.295773 106.841204 
" clip-path="url(#pe17cc9482f)" style="fill: none; stroke: #b2b2b2; stroke-width: 0.8; stroke-linecap: square"/>
   </g>
   <g id="line2d_132">
    <path d="M 53.721227 54.009948 
L 72.333391 44.685635 
L 85.538931 40.484206 
L 95.781944 44.60979 
L 104.151095 45.435101 
L 117.356635 45.741899 
L 127.599648 48.109404 
L 132.472745 50.206712 
L 146.211812 60.514957 
L 159.417352 60.055064 
L 171.460723 67.556926 
L 178.029516 75.140919 
L 191.235056 76.665903 
L 209.84722 83.428204 
L 223.05276 97.360187 
L 233.295773 107.318454 
" clip-path="url(#pe17cc9482f)" style="fill: none; stroke: #b2b2b2; stroke-width: 0.8; stroke-linecap: square"/>
   </g>
   <g id="line2d_133">
    <path d="M 53.721227 55.265873 
L 72.333391 40.884717 
L 85.538931 49.410897 
L 95.781944 51.599164 
L 104.151095 55.564813 
L 117.356635 54.50109 
L 127.599648 54.306569 
L 132.472745 50.206712 
L 146.211812 50.047447 
L 159.417352 52.224372 
L 171.460723 77.588493 
L 178.029516 84.572909 
L 191.235056 88.753658 
L 209.84722 93.64072 
L 223.05276 97.252608 
L 233.295773 104.238033 
" clip-path="url(#pe17cc9482f)" style="fill: none; stroke: #b2b2b2; stroke-width: 0.8; stroke-linecap: square"/>
   </g>
   <g id="line2d_134">
    <path d="M 53.721227 42.902888 
L 72.333391 40.298984 
L 85.538931 45.131733 
L 95.781944 46.084478 
L 104.151095 43.888823 
L 117.356635 54.348048 
L 127.599648 49.041614 
L 132.472745 50.206712 
L 146.211812 66.123311 
L 159.417352 69.743061 
L 171.460723 68.305707 
L 178.029516 66.673766 
L 191.235056 82.568217 
L 209.84722 93.055168 
L 223.05276 95.104856 
L 233.295773 102.800942 
" clip-path="url(#pe17cc9482f)" style="fill: none; stroke: #b2b2b2; stroke-width: 0.8; stroke-linecap: square"/>
   </g>
   <g id="line2d_135">
    <path d="M 53.721227 55.244925 
L 72.333391 50.771534 
L 85.538931 48.746816 
L 95.781944 48.286554 
L 104.151095 47.83604 
L 117.356635 48.479041 
L 127.599648 49.109588 
L 132.472745 50.206712 
L 146.211812 55.068135 
L 159.417352 60.456379 
L 171.460723 65.79862 
L 178.029516 69.064426 
L 191.235056 76.981903 
L 209.84722 88.078362 
L 223.05276 97.214542 
L 233.295773 105.471027 
" clip-path="url(#pe17cc9482f)" style="fill: none; stroke: #ff0000; stroke-width: 2; stroke-linecap: square"/>
   </g>
   <g id="line2d_136">
    <path d="M 53.721227 32.07836 
L 72.333391 27.274956 
L 85.538931 27.091752 
L 95.781944 28.470147 
L 104.151095 30.15876 
L 117.356635 35.539126 
L 127.599648 41.936734 
L 132.472745 50.206712 
L 146.211812 42.809169 
L 159.417352 43.768052 
L 171.460723 46.555185 
L 178.029516 49.011069 
L 191.235056 56.03459 
L 209.84722 65.83258 
L 223.05276 74.818609 
L 233.295773 82.257449 
" clip-path="url(#pe17cc9482f)" style="fill: none; stroke-dasharray: 7.4,3.2; stroke-dashoffset: 0; stroke: #ff0000; stroke-width: 2"/>
   </g>
   <g id="line2d_137">
    <path d="M 53.721227 78.411489 
L 72.333391 74.268112 
L 85.538931 70.40188 
L 95.781944 68.10296 
L 104.151095 65.51332 
L 117.356635 61.418955 
L 127.599648 56.282443 
L 132.472745 50.206713 
L 146.211812 67.327102 
L 159.417352 77.144707 
L 171.460723 85.042056 
L 178.029516 89.117783 
L 191.235056 97.929217 
L 209.84722 110.324144 
L 223.05276 119.610475 
L 233.295773 128.684606 
" clip-path="url(#pe17cc9482f)" style="fill: none; stroke-dasharray: 7.4,3.2; stroke-dashoffset: 0; stroke: #ff0000; stroke-width: 2"/>
   </g>
   <g id="line2d_138">
    <path d="M 53.721227 55.214022 
L 72.333391 50.80647 
L 85.538931 48.759201 
L 95.781944 48.636452 
L 104.151095 47.80019 
L 117.356635 48.287701 
L 127.599648 49.300537 
L 132.472745 50.206712 
L 146.211812 54.934563 
L 159.417352 60.50674 
L 171.460723 65.804098 
L 178.029516 69.474353 
L 191.235056 77.039082 
L 209.84722 88.440637 
L 223.05276 97.078497 
L 233.295773 105.52262 
" clip-path="url(#pe17cc9482f)" style="fill: none; stroke: #0000ff; stroke-width: 2; stroke-linecap: square"/>
   </g>
   <g id="line2d_139">
    <path d="M 53.721227 32.029666 
L 72.333391 26.995795 
L 85.538931 27.191012 
L 95.781944 28.826757 
L 104.151095 29.975516 
L 117.356635 35.262695 
L 127.599648 41.983899 
L 132.472745 50.206712 
L 146.211812 42.626634 
L 159.417352 43.933132 
L 171.460723 45.829511 
L 178.029516 49.626549 
L 191.235056 56.330579 
L 209.84722 66.160527 
L 223.05276 74.487418 
L 233.295773 82.13293 
" clip-path="url(#pe17cc9482f)" style="fill: none; stroke-dasharray: 7.4,3.2; stroke-dashoffset: 0; stroke: #0000ff; stroke-width: 2"/>
   </g>
   <g id="line2d_140">
    <path d="M 53.721227 78.398377 
L 72.333391 74.617145 
L 85.538931 70.327391 
L 95.781944 68.446146 
L 104.151095 65.624864 
L 117.356635 61.312707 
L 127.599648 56.617175 
L 132.472745 50.206712 
L 146.211812 67.242492 
L 159.417352 77.080348 
L 171.460723 85.778685 
L 178.029516 89.322156 
L 191.235056 97.747584 
L 209.84722 110.720748 
L 223.05276 119.669575 
L 233.295773 128.91231 
" clip-path="url(#pe17cc9482f)" style="fill: none; stroke-dasharray: 7.4,3.2; stroke-dashoffset: 0; stroke: #0000ff; stroke-width: 2"/>
   </g>
   <g id="patch_3">
    <path d="M 44.7425 138.0384 
L 44.7425 7.2 
" style="fill: none; stroke: #000000; stroke-width: 0.8; stroke-linejoin: miter; stroke-linecap: square"/>
   </g>
   <g id="patch_4">
    <path d="M 242.2745 138.0384 
L 242.2745 7.2 
" style="fill: none; stroke: #000000; stroke-width: 0.8; stroke-linejoin: miter; stroke-linecap: square"/>
   </g>
   <g id="patch_5">
    <path d="M 44.7425 138.0384 
L 242.2745 138.0384 
" style="fill: none; stroke: #000000; stroke-width: 0.8; stroke-linejoin: miter; stroke-linecap: square"/>
   </g>
   <g id="patch_6">
    <path d="M 44.7425 7.2 
L 242.2745 7.2 
" style="fill: none; stroke: #000000; stroke-width: 0.8; stroke-linejoin: miter; stroke-linecap: square"/>
   </g>
   <g id="legend_1">
    <g id="patch_7">
     <path d="M 247.8745 104.47295 
L 432.5945 104.47295 
Q 434.1945 104.47295 434.1945 102.87295 
L 434.1945 42.36545 
Q 434.1945 40.76545 432.5945 40.76545 
L 247.8745 40.76545 
Q 246.2745 40.76545 246.2745 42.36545 
L 246.2745 102.87295 
Q 246.2745 104.47295 247.8745 104.47295 
z
" style="fill: #ffffff; opacity: 0.8; stroke: #cccccc; stroke-linejoin: miter"/>
    </g>
    <g id="line2d_141">
     <path d="M 249.4745 47.2442 
L 257.4745 47.2442 
L 265.4745 47.2442 
" style="fill: none; stroke: #b2b2b2; stroke-width: 0.8; stroke-linecap: square"/>
    </g>
    <g id="text_8">
     <!-- Individual selected GMs -->
     <g transform="translate(271.8745 50.0442) scale(0.08 -0.08)">
      <defs>
       <path id="DejaVuSans-49" d="M 628 4666 
L 1259 4666 
L 1259 0 
L 628 0 
L 628 4666 
z
" transform="scale(0.015625)"/>
       <path id="DejaVuSans-76" d="M 191 3500 
L 800 3500 
L 1894 563 
L 2988 3500 
L 3597 3500 
L 2284 0 
L 1503 0 
L 191 3500 
z
" transform="scale(0.015625)"/>
       <path id="DejaVuSans-75" d="M 544 1381 
L 544 3500 
L 1119 3500 
L 1119 1403 
Q 1119 906 1312 657 
Q 1506 409 1894 409 
Q 2359 409 2629 706 
Q 2900 1003 2900 1516 
L 2900 3500 
L 3475 3500 
L 3475 0 
L 2900 0 
L 2900 538 
Q 2691 219 2414 64 
Q 2138 -91 1772 -91 
Q 1169 -91 856 284 
Q 544 659 544 1381 
z
M 1991 3584 
L 1991 3584 
z
" transform="scale(0.015625)"/>
       <path id="DejaVuSans-47" d="M 3809 666 
L 3809 1919 
L 2778 1919 
L 2778 2438 
L 4434 2438 
L 4434 434 
Q 4069 175 3628 42 
Q 3188 -91 2688 -91 
Q 1594 -91 976 548 
Q 359 1188 359 2328 
Q 359 3472 976 4111 
Q 1594 4750 2688 4750 
Q 3144 4750 3555 4637 
Q 3966 4525 4313 4306 
L 4313 3634 
Q 3963 3931 3569 4081 
Q 3175 4231 2741 4231 
Q 1884 4231 1454 3753 
Q 1025 3275 1025 2328 
Q 1025 1384 1454 906 
Q 1884 428 2741 428 
Q 3075 428 3337 486 
Q 3600 544 3809 666 
z
" transform="scale(0.015625)"/>
       <path id="DejaVuSans-4d" d="M 628 4666 
L 1569 4666 
L 2759 1491 
L 3956 4666 
L 4897 4666 
L 4897 0 
L 4281 0 
L 4281 4097 
L 3078 897 
L 2444 897 
L 1241 4097 
L 1241 0 
L 628 0 
L 628 4666 
z
" transform="scale(0.015625)"/>
      </defs>
      <use xlink:href="#DejaVuSans-49"/>
      <use xlink:href="#DejaVuSans-6e" x="29.492188"/>
      <use xlink:href="#DejaVuSans-64" x="92.871094"/>
      <use xlink:href="#DejaVuSans-69" x="156.347656"/>
      <use xlink:href="#DejaVuSans-76" x="184.130859"/>
      <use xlink:href="#DejaVuSans-69" x="243.310547"/>
      <use xlink:href="#DejaVuSans-64" x="271.09375"/>
      <use xlink:href="#DejaVuSans-75" x="334.570312"/>
      <use xlink:href="#DejaVuSans-61" x="397.949219"/>
      <use xlink:href="#DejaVuSans-6c" x="459.228516"/>
      <use xlink:href="#DejaVuSans-20" x="487.011719"/>
      <use xlink:href="#DejaVuSans-73" x="518.798828"/>
      <use xlink:href="#DejaVuSans-65" x="570.898438"/>
      <use xlink:href="#DejaVuSans-6c" x="632.421875"/>
      <use xlink:href="#DejaVuSans-65" x="660.205078"/>
      <use xlink:href="#DejaVuSans-63" x="721.728516"/>
      <use xlink:href="#DejaVuSans-74" x="776.708984"/>
      <use xlink:href="#DejaVuSans-65" x="815.917969"/>
      <use xlink:href="#DejaVuSans-64" x="877.441406"/>
      <use xlink:href="#DejaVuSans-20" x="940.917969"/>
      <use xlink:href="#DejaVuSans-47" x="972.705078"/>
      <use xlink:href="#DejaVuSans-4d" x="1050.195312"/>
      <use xlink:href="#DejaVuSans-73" x="1136.474609"/>
     </g>
    </g>
    <g id="line2d_142">
     <path d="M 249.4745 58.9867 
L 257.4745 58.9867 
L 265.4745 58.9867 
" style="fill: none; stroke: #ff0000; stroke-width: 2; stroke-linecap: square"/>
    </g>
    <g id="text_9">
     <!-- GCIM median -->
     <g transform="translate(271.8745 61.7867) scale(0.08 -0.08)">
      <defs>
       <path id="DejaVuSans-43" d="M 4122 4306 
L 4122 3641 
Q 3803 3938 3442 4084 
Q 3081 4231 2675 4231 
Q 1875 4231 1450 3742 
Q 1025 3253 1025 2328 
Q 1025 1406 1450 917 
Q 1875 428 2675 428 
Q 3081 428 3442 575 
Q 3803 722 4122 1019 
L 4122 359 
Q 3791 134 3420 21 
Q 3050 -91 2638 -91 
Q 1578 -91 968 557 
Q 359 1206 359 2328 
Q 359 3453 968 4101 
Q 1578 4750 2638 4750 
Q 3056 4750 3426 4639 
Q 3797 4528 4122 4306 
z
" transform="scale(0.015625)"/>
       <path id="DejaVuSans-6d" d="M 3328 2828 
Q 3544 3216 3844 3400 
Q 4144 3584 4550 3584 
Q 5097 3584 5394 3201 
Q 5691 2819 5691 2113 
L 5691 0 
L 5113 0 
L 5113 2094 
Q 5113 2597 4934 2840 
Q 4756 3084 4391 3084 
Q 3944 3084 3684 2787 
Q 3425 2491 3425 1978 
L 3425 0 
L 2847 0 
L 2847 2094 
Q 2847 2600 2669 2842 
Q 2491 3084 2119 3084 
Q 1678 3084 1418 2786 
Q 1159 2488 1159 1978 
L 1159 0 
L 581 0 
L 581 3500 
L 1159 3500 
L 1159 2956 
Q 1356 3278 1631 3431 
Q 1906 3584 2284 3584 
Q 2666 3584 2933 3390 
Q 3200 3197 3328 2828 
z
" transform="scale(0.015625)"/>
      </defs>
      <use xlink:href="#DejaVuSans-47"/>
      <use xlink:href="#DejaVuSans-43" x="77.490234"/>
      <use xlink:href="#DejaVuSans-49" x="147.314453"/>
      <use xlink:href="#DejaVuSans-4d" x="176.806641"/>
      <use xlink:href="#DejaVuSans-20" x="263.085938"/>
      <use xlink:href="#DejaVuSans-6d" x="294.873047"/>
      <use xlink:href="#DejaVuSans-65" x="392.285156"/>
      <use xlink:href="#DejaVuSans-64" x="453.808594"/>
      <use xlink:href="#DejaVuSans-69" x="517.285156"/>
      <use xlink:href="#DejaVuSans-61" x="545.068359"/>
      <use xlink:href="#DejaVuSans-6e" x="606.347656"/>
     </g>
    </g>
    <g id="line2d_143">
     <path d="M 249.4745 72.01045 
L 257.4745 72.01045 
L 265.4745 72.01045 
" style="fill: none; stroke-dasharray: 7.4,3.2; stroke-dashoffset: 0; stroke: #ff0000; stroke-width: 2"/>
    </g>
    <g id="text_10">
     <!-- GCIM $16^{th}$ and $84^{th}$ percentiles -->
     <g transform="translate(271.8745 74.81045) scale(0.08 -0.08)">
      <defs>
       <path id="DejaVuSans-36" d="M 2113 2584 
Q 1688 2584 1439 2293 
Q 1191 2003 1191 1497 
Q 1191 994 1439 701 
Q 1688 409 2113 409 
Q 2538 409 2786 701 
Q 3034 994 3034 1497 
Q 3034 2003 2786 2293 
Q 2538 2584 2113 2584 
z
M 3366 4563 
L 3366 3988 
Q 3128 4100 2886 4159 
Q 2644 4219 2406 4219 
Q 1781 4219 1451 3797 
Q 1122 3375 1075 2522 
Q 1259 2794 1537 2939 
Q 1816 3084 2150 3084 
Q 2853 3084 3261 2657 
Q 3669 2231 3669 1497 
Q 3669 778 3244 343 
Q 2819 -91 2113 -91 
Q 1303 -91 875 529 
Q 447 1150 447 2328 
Q 447 3434 972 4092 
Q 1497 4750 2381 4750 
Q 2619 4750 2861 4703 
Q 3103 4656 3366 4563 
z
" transform="scale(0.015625)"/>
       <path id="DejaVuSans-Oblique-74" d="M 2706 3500 
L 2619 3053 
L 1472 3053 
L 1100 1153 
Q 1081 1047 1072 975 
Q 1063 903 1063 863 
Q 1063 663 1183 572 
Q 1303 481 1569 481 
L 2150 481 
L 2053 0 
L 1503 0 
Q 991 0 739 200 
Q 488 400 488 806 
Q 488 878 497 964 
Q 506 1050 525 1153 
L 897 3053 
L 409 3053 
L 500 3500 
L 978 3500 
L 1172 4494 
L 1747 4494 
L 1556 3500 
L 2706 3500 
z
" transform="scale(0.015625)"/>
       <path id="DejaVuSans-Oblique-68" d="M 3566 2113 
L 3156 0 
L 2578 0 
L 2988 2091 
Q 3016 2238 3031 2350 
Q 3047 2463 3047 2528 
Q 3047 2791 2881 2937 
Q 2716 3084 2419 3084 
Q 1956 3084 1617 2771 
Q 1278 2459 1178 1941 
L 800 0 
L 225 0 
L 1172 4863 
L 1747 4863 
L 1375 2950 
Q 1594 3244 1934 3414 
Q 2275 3584 2650 3584 
Q 3113 3584 3367 3334 
Q 3622 3084 3622 2631 
Q 3622 2519 3608 2391 
Q 3594 2263 3566 2113 
z
" transform="scale(0.015625)"/>
       <path id="DejaVuSans-38" d="M 2034 2216 
Q 1584 2216 1326 1975 
Q 1069 1734 1069 1313 
Q 1069 891 1326 650 
Q 1584 409 2034 409 
Q 2484 409 2743 651 
Q 3003 894 3003 1313 
Q 3003 1734 2745 1975 
Q 2488 2216 2034 2216 
z
M 1403 2484 
Q 997 2584 770 2862 
Q 544 3141 544 3541 
Q 544 4100 942 4425 
Q 1341 4750 2034 4750 
Q 2731 4750 3128 4425 
Q 3525 4100 3525 3541 
Q 3525 3141 3298 2862 
Q 3072 2584 2669 2484 
Q 3125 2378 3379 2068 
Q 3634 1759 3634 1313 
Q 3634 634 3220 271 
Q 2806 -91 2034 -91 
Q 1263 -91 848 271 
Q 434 634 434 1313 
Q 434 1759 690 2068 
Q 947 2378 1403 2484 
z
M 1172 3481 
Q 1172 3119 1398 2916 
Q 1625 2713 2034 2713 
Q 2441 2713 2670 2916 
Q 2900 3119 2900 3481 
Q 2900 3844 2670 4047 
Q 2441 4250 2034 4250 
Q 1625 4250 1398 4047 
Q 1172 3844 1172 3481 
z
" transform="scale(0.015625)"/>
       <path id="DejaVuSans-34" d="M 2419 4116 
L 825 1625 
L 2419 1625 
L 2419 4116 
z
M 2253 4666 
L 3047 4666 
L 3047 1625 
L 3713 1625 
L 3713 1100 
L 3047 1100 
L 3047 0 
L 2419 0 
L 2419 1100 
L 313 1100 
L 313 1709 
L 2253 4666 
z
" transform="scale(0.015625)"/>
      </defs>
      <use xlink:href="#DejaVuSans-47" transform="translate(0 0.529687)"/>
      <use xlink:href="#DejaVuSans-43" transform="translate(77.490234 0.529687)"/>
      <use xlink:href="#DejaVuSans-49" transform="translate(147.314453 0.529687)"/>
      <use xlink:href="#DejaVuSans-4d" transform="translate(176.806641 0.529687)"/>
      <use xlink:href="#DejaVuSans-20" transform="translate(263.085938 0.529687)"/>
      <use xlink:href="#DejaVuSans-31" transform="translate(294.873047 0.529687)"/>
      <use xlink:href="#DejaVuSans-36" transform="translate(358.496094 0.529687)"/>
      <use xlink:href="#DejaVuSans-Oblique-74" transform="translate(423.076172 38.810937) scale(0.7)"/>
      <use xlink:href="#DejaVuSans-Oblique-68" transform="translate(450.522461 38.810937) scale(0.7)"/>
      <use xlink:href="#DejaVuSans-20" transform="translate(497.62207 0.529687)"/>
      <use xlink:href="#DejaVuSans-61" transform="translate(529.40918 0.529687)"/>
      <use xlink:href="#DejaVuSans-6e" transform="translate(590.688477 0.529687)"/>
      <use xlink:href="#DejaVuSans-64" transform="translate(654.067383 0.529687)"/>
      <use xlink:href="#DejaVuSans-20" transform="translate(717.543945 0.529687)"/>
      <use xlink:href="#DejaVuSans-38" transform="translate(749.331055 0.529687)"/>
      <use xlink:href="#DejaVuSans-34" transform="translate(812.954102 0.529687)"/>
      <use xlink:href="#DejaVuSans-Oblique-74" transform="translate(877.53418 38.810937) scale(0.7)"/>
      <use xlink:href="#DejaVuSans-Oblique-68" transform="translate(904.980469 38.810937) scale(0.7)"/>
      <use xlink:href="#DejaVuSans-20" transform="translate(952.080078 0.529687)"/>
      <use xlink:href="#DejaVuSans-70" transform="translate(983.867188 0.529687)"/>
      <use xlink:href="#DejaVuSans-65" transform="translate(1047.34375 0.529687)"/>
      <use xlink:href="#DejaVuSans-72" transform="translate(1108.867188 0.529687)"/>
      <use xlink:href="#DejaVuSans-63" transform="translate(1149.980469 0.529687)"/>
      <use xlink:href="#DejaVuSans-65" transform="translate(1204.960938 0.529687)"/>
      <use xlink:href="#DejaVuSans-6e" transform="translate(1266.484375 0.529687)"/>
      <use xlink:href="#DejaVuSans-74" transform="translate(1329.863281 0.529687)"/>
      <use xlink:href="#DejaVuSans-69" transform="translate(1369.072266 0.529687)"/>
      <use xlink:href="#DejaVuSans-6c" transform="translate(1396.855469 0.529687)"/>
      <use xlink:href="#DejaVuSans-65" transform="translate(1424.638672 0.529687)"/>
      <use xlink:href="#DejaVuSans-73" transform="translate(1486.162109 0.529687)"/>
     </g>
    </g>
    <g id="line2d_144">
     <path d="M 249.4745 83.7692 
L 257.4745 83.7692 
L 265.4745 83.7692 
" style="fill: none; stroke: #0000ff; stroke-width: 2; stroke-linecap: square"/>
    </g>
    <g id="text_11">
     <!-- Selected GMs median -->
     <g transform="translate(271.8745 86.5692) scale(0.08 -0.08)">
      <use xlink:href="#DejaVuSans-53"/>
      <use xlink:href="#DejaVuSans-65" x="63.476562"/>
      <use xlink:href="#DejaVuSans-6c" x="125"/>
      <use xlink:href="#DejaVuSans-65" x="152.783203"/>
      <use xlink:href="#DejaVuSans-63" x="214.306641"/>
      <use xlink:href="#DejaVuSans-74" x="269.287109"/>
      <use xlink:href="#DejaVuSans-65" x="308.496094"/>
      <use xlink:href="#DejaVuSans-64" x="370.019531"/>
      <use xlink:href="#DejaVuSans-20" x="433.496094"/>
      <use xlink:href="#DejaVuSans-47" x="465.283203"/>
      <use xlink:href="#DejaVuSans-4d" x="542.773438"/>
      <use xlink:href="#DejaVuSans-73" x="629.052734"/>
      <use xlink:href="#DejaVuSans-20" x="681.152344"/>
      <use xlink:href="#DejaVuSans-6d" x="712.939453"/>
      <use xlink:href="#DejaVuSans-65" x="810.351562"/>
      <use xlink:href="#DejaVuSans-64" x="871.875"/>
      <use xlink:href="#DejaVuSans-69" x="935.351562"/>
      <use xlink:href="#DejaVuSans-61" x="963.134766"/>
      <use xlink:href="#DejaVuSans-6e" x="1024.414062"/>
     </g>
    </g>
    <g id="line2d_145">
     <path d="M 249.4745 96.79295 
L 257.4745 96.79295 
L 265.4745 96.79295 
" style="fill: none; stroke-dasharray: 7.4,3.2; stroke-dashoffset: 0; stroke: #0000ff; stroke-width: 2"/>
    </g>
    <g id="text_12">
     <!-- Selected GMs, $16^{th}$ and $84^{th}$ percentiles -->
     <g transform="translate(271.8745 99.59295) scale(0.08 -0.08)">
      <use xlink:href="#DejaVuSans-53" transform="translate(0 0.529687)"/>
      <use xlink:href="#DejaVuSans-65" transform="translate(63.476562 0.529687)"/>
      <use xlink:href="#DejaVuSans-6c" transform="translate(125 0.529687)"/>
      <use xlink:href="#DejaVuSans-65" transform="translate(152.783203 0.529687)"/>
      <use xlink:href="#DejaVuSans-63" transform="translate(214.306641 0.529687)"/>
      <use xlink:href="#DejaVuSans-74" transform="translate(269.287109 0.529687)"/>
      <use xlink:href="#DejaVuSans-65" transform="translate(308.496094 0.529687)"/>
      <use xlink:href="#DejaVuSans-64" transform="translate(370.019531 0.529687)"/>
      <use xlink:href="#DejaVuSans-20" transform="translate(433.496094 0.529687)"/>
      <use xlink:href="#DejaVuSans-47" transform="translate(465.283203 0.529687)"/>
      <use xlink:href="#DejaVuSans-4d" transform="translate(542.773438 0.529687)"/>
      <use xlink:href="#DejaVuSans-73" transform="translate(629.052734 0.529687)"/>
      <use xlink:href="#DejaVuSans-2c" transform="translate(681.152344 0.529687)"/>
      <use xlink:href="#DejaVuSans-20" transform="translate(712.939453 0.529687)"/>
      <use xlink:href="#DejaVuSans-31" transform="translate(744.726562 0.529687)"/>
      <use xlink:href="#DejaVuSans-36" transform="translate(808.349609 0.529687)"/>
      <use xlink:href="#DejaVuSans-Oblique-74" transform="translate(872.929688 38.810937) scale(0.7)"/>
      <use xlink:href="#DejaVuSans-Oblique-68" transform="translate(900.375977 38.810937) scale(0.7)"/>
      <use xlink:href="#DejaVuSans-20" transform="translate(947.475586 0.529687)"/>
      <use xlink:href="#DejaVuSans-61" transform="translate(979.262695 0.529687)"/>
      <use xlink:href="#DejaVuSans-6e" transform="translate(1040.541992 0.529687)"/>
      <use xlink:href="#DejaVuSans-64" transform="translate(1103.920898 0.529687)"/>
      <use xlink:href="#DejaVuSans-20" transform="translate(1167.397461 0.529687)"/>
      <use xlink:href="#DejaVuSans-38" transform="translate(1199.18457 0.529687)"/>
      <use xlink:href="#DejaVuSans-34" transform="translate(1262.807617 0.529687)"/>
      <use xlink:href="#DejaVuSans-Oblique-74" transform="translate(1327.387695 38.810937) scale(0.7)"/>
      <use xlink:href="#DejaVuSans-Oblique-68" transform="translate(1354.833984 38.810937) scale(0.7)"/>
      <use xlink:href="#DejaVuSans-20" transform="translate(1401.933594 0.529687)"/>
      <use xlink:href="#DejaVuSans-70" transform="translate(1433.720703 0.529687)"/>
      <use xlink:href="#DejaVuSans-65" transform="translate(1497.197266 0.529687)"/>
      <use xlink:href="#DejaVuSans-72" transform="translate(1558.720703 0.529687)"/>
      <use xlink:href="#DejaVuSans-63" transform="translate(1599.833984 0.529687)"/>
      <use xlink:href="#DejaVuSans-65" transform="translate(1654.814453 0.529687)"/>
      <use xlink:href="#DejaVuSans-6e" transform="translate(1716.337891 0.529687)"/>
      <use xlink:href="#DejaVuSans-74" transform="translate(1779.716797 0.529687)"/>
      <use xlink:href="#DejaVuSans-69" transform="translate(1818.925781 0.529687)"/>
      <use xlink:href="#DejaVuSans-6c" transform="translate(1846.708984 0.529687)"/>
      <use xlink:href="#DejaVuSans-65" transform="translate(1874.492188 0.529687)"/>
      <use xlink:href="#DejaVuSans-73" transform="translate(1936.015625 0.529687)"/>
     </g>
    </g>
   </g>
  </g>
 </g>
 <defs>
  <clipPath id="pe17cc9482f">
   <rect x="44.7425" y="7.2" width="197.532" height="130.8384"/>
  </clipPath>
 </defs>
</svg>
