<?xml version="1.0" encoding="utf-8" standalone="no"?>
<!DOCTYPE svg PUBLIC "-//W3C//DTD SVG 1.1//EN"
  "http://www.w3.org/Graphics/SVG/1.1/DTD/svg11.dtd">
<svg xmlns:xlink="http://www.w3.org/1999/xlink" width="441.3945pt" height="171.7234pt" viewBox="0 0 441.3945 171.7234" xmlns="http://www.w3.org/2000/svg" version="1.1">
 <metadata>
  <rdf:RDF xmlns:dc="http://purl.org/dc/elements/1.1/" xmlns:cc="http://creativecommons.org/ns#" xmlns:rdf="http://www.w3.org/1999/02/22-rdf-syntax-ns#">
   <cc:Work>
    <dc:type rdf:resource="http://purl.org/dc/dcmitype/StillImage"/>
    <dc:date>2024-11-06T14:24:41.332456</dc:date>
    <dc:format>image/svg+xml</dc:format>
    <dc:creator>
     <cc:Agent>
      <dc:title>Matplotlib v3.8.2, https://matplotlib.org/</dc:title>
     </cc:Agent>
    </dc:creator>
   </cc:Work>
  </rdf:RDF>
 </metadata>
 <defs>
  <style type="text/css">*{stroke-linejoin: round; stroke-linecap: butt}</style>
 </defs>
 <g id="figure_1">
  <g id="patch_1">
   <path d="M 0 171.7234 
L 441.3945 171.7234 
L 441.3945 0 
L 0 0 
z
" style="fill: #ffffff"/>
  </g>
  <g id="axes_1">
   <g id="patch_2">
    <path d="M 44.7425 138.0384 
L 242.2745 138.0384 
L 242.2745 7.2 
L 44.7425 7.2 
z
" style="fill: #ffffff"/>
   </g>
   <g id="matplotlib.axis_1">
    <g id="xtick_1">
     <g id="line2d_1">
      <path d="M 53.721227 138.0384 
L 53.721227 7.2 
" clip-path="url(#pc3d165bf56)" style="fill: none; stroke: #d9d9d9; stroke-width: 0.8; stroke-linecap: square"/>
     </g>
     <g id="line2d_2">
      <defs>
       <path id="m2834335695" d="M 0 0 
L 0 3.5 
" style="stroke: #000000; stroke-width: 0.8"/>
      </defs>
      <g>
       <use xlink:href="#m2834335695" x="53.721227" y="138.0384" style="stroke: #000000; stroke-width: 0.8"/>
      </g>
     </g>
     <g id="text_1">
      <!-- $\mathdefault{10^{-1}}$ -->
      <g transform="translate(44.321227 151.11715) scale(0.08 -0.08)">
       <defs>
        <path id="DejaVuSans-31" d="M 794 531 
L 1825 531 
L 1825 4091 
L 703 3866 
L 703 4441 
L 1819 4666 
L 2450 4666 
L 2450 531 
L 3481 531 
L 3481 0 
L 794 0 
L 794 531 
z
" transform="scale(0.015625)"/>
        <path id="DejaVuSans-30" d="M 2034 4250 
Q 1547 4250 1301 3770 
Q 1056 3291 1056 2328 
Q 1056 1369 1301 889 
Q 1547 409 2034 409 
Q 2525 409 2770 889 
Q 3016 1369 3016 2328 
Q 3016 3291 2770 3770 
Q 2525 4250 2034 4250 
z
M 2034 4750 
Q 2819 4750 3233 4129 
Q 3647 3509 3647 2328 
Q 3647 1150 3233 529 
Q 2819 -91 2034 -91 
Q 1250 -91 836 529 
Q 422 1150 422 2328 
Q 422 3509 836 4129 
Q 1250 4750 2034 4750 
z
" transform="scale(0.015625)"/>
        <path id="DejaVuSans-2212" d="M 678 2272 
L 4684 2272 
L 4684 1741 
L 678 1741 
L 678 2272 
z
" transform="scale(0.015625)"/>
       </defs>
       <use xlink:href="#DejaVuSans-31" transform="translate(0 0.684375)"/>
       <use xlink:href="#DejaVuSans-30" transform="translate(63.623047 0.684375)"/>
       <use xlink:href="#DejaVuSans-2212" transform="translate(128.203125 38.965625) scale(0.7)"/>
       <use xlink:href="#DejaVuSans-31" transform="translate(186.855469 38.965625) scale(0.7)"/>
      </g>
     </g>
    </g>
    <g id="xtick_2">
     <g id="line2d_3">
      <path d="M 159.417352 138.0384 
L 159.417352 7.2 
" clip-path="url(#pc3d165bf56)" style="fill: none; stroke: #d9d9d9; stroke-width: 0.8; stroke-linecap: square"/>
     </g>
     <g id="line2d_4">
      <g>
       <use xlink:href="#m2834335695" x="159.417352" y="138.0384" style="stroke: #000000; stroke-width: 0.8"/>
      </g>
     </g>
     <g id="text_2">
      <!-- $\mathdefault{10^{0}}$ -->
      <g transform="translate(152.377352 151.11715) scale(0.08 -0.08)">
       <use xlink:href="#DejaVuSans-31" transform="translate(0 0.765625)"/>
       <use xlink:href="#DejaVuSans-30" transform="translate(63.623047 0.765625)"/>
       <use xlink:href="#DejaVuSans-30" transform="translate(128.203125 39.046875) scale(0.7)"/>
      </g>
     </g>
    </g>
    <g id="xtick_3">
     <g id="line2d_5">
      <path d="M 48.884838 138.0384 
L 48.884838 7.2 
" clip-path="url(#pc3d165bf56)" style="fill: none; stroke-dasharray: 2.96,1.28; stroke-dashoffset: 0; stroke: #f2f2f2; stroke-width: 0.8"/>
     </g>
     <g id="line2d_6">
      <defs>
       <path id="m1bdd7e648f" d="M 0 0 
L 0 2 
" style="stroke: #000000; stroke-width: 0.6"/>
      </defs>
      <g>
       <use xlink:href="#m1bdd7e648f" x="48.884838" y="138.0384" style="stroke: #000000; stroke-width: 0.6"/>
      </g>
     </g>
    </g>
    <g id="xtick_4">
     <g id="line2d_7">
      <path d="M 85.538931 138.0384 
L 85.538931 7.2 
" clip-path="url(#pc3d165bf56)" style="fill: none; stroke-dasharray: 2.96,1.28; stroke-dashoffset: 0; stroke: #f2f2f2; stroke-width: 0.8"/>
     </g>
     <g id="line2d_8">
      <g>
       <use xlink:href="#m1bdd7e648f" x="85.538931" y="138.0384" style="stroke: #000000; stroke-width: 0.6"/>
      </g>
     </g>
    </g>
    <g id="xtick_5">
     <g id="line2d_9">
      <path d="M 104.151095 138.0384 
L 104.151095 7.2 
" clip-path="url(#pc3d165bf56)" style="fill: none; stroke-dasharray: 2.96,1.28; stroke-dashoffset: 0; stroke: #f2f2f2; stroke-width: 0.8"/>
     </g>
     <g id="line2d_10">
      <g>
       <use xlink:href="#m1bdd7e648f" x="104.151095" y="138.0384" style="stroke: #000000; stroke-width: 0.6"/>
      </g>
     </g>
    </g>
    <g id="xtick_6">
     <g id="line2d_11">
      <path d="M 117.356635 138.0384 
L 117.356635 7.2 
" clip-path="url(#pc3d165bf56)" style="fill: none; stroke-dasharray: 2.96,1.28; stroke-dashoffset: 0; stroke: #f2f2f2; stroke-width: 0.8"/>
     </g>
     <g id="line2d_12">
      <g>
       <use xlink:href="#m1bdd7e648f" x="117.356635" y="138.0384" style="stroke: #000000; stroke-width: 0.6"/>
      </g>
     </g>
    </g>
    <g id="xtick_7">
     <g id="line2d_13">
      <path d="M 127.599648 138.0384 
L 127.599648 7.2 
" clip-path="url(#pc3d165bf56)" style="fill: none; stroke-dasharray: 2.96,1.28; stroke-dashoffset: 0; stroke: #f2f2f2; stroke-width: 0.8"/>
     </g>
     <g id="line2d_14">
      <g>
       <use xlink:href="#m1bdd7e648f" x="127.599648" y="138.0384" style="stroke: #000000; stroke-width: 0.6"/>
      </g>
     </g>
    </g>
    <g id="xtick_8">
     <g id="line2d_15">
      <path d="M 135.968799 138.0384 
L 135.968799 7.2 
" clip-path="url(#pc3d165bf56)" style="fill: none; stroke-dasharray: 2.96,1.28; stroke-dashoffset: 0; stroke: #f2f2f2; stroke-width: 0.8"/>
     </g>
     <g id="line2d_16">
      <g>
       <use xlink:href="#m1bdd7e648f" x="135.968799" y="138.0384" style="stroke: #000000; stroke-width: 0.6"/>
      </g>
     </g>
    </g>
    <g id="xtick_9">
     <g id="line2d_17">
      <path d="M 143.044815 138.0384 
L 143.044815 7.2 
" clip-path="url(#pc3d165bf56)" style="fill: none; stroke-dasharray: 2.96,1.28; stroke-dashoffset: 0; stroke: #f2f2f2; stroke-width: 0.8"/>
     </g>
     <g id="line2d_18">
      <g>
       <use xlink:href="#m1bdd7e648f" x="143.044815" y="138.0384" style="stroke: #000000; stroke-width: 0.6"/>
      </g>
     </g>
    </g>
    <g id="xtick_10">
     <g id="line2d_19">
      <path d="M 149.174339 138.0384 
L 149.174339 7.2 
" clip-path="url(#pc3d165bf56)" style="fill: none; stroke-dasharray: 2.96,1.28; stroke-dashoffset: 0; stroke: #f2f2f2; stroke-width: 0.8"/>
     </g>
     <g id="line2d_20">
      <g>
       <use xlink:href="#m1bdd7e648f" x="149.174339" y="138.0384" style="stroke: #000000; stroke-width: 0.6"/>
      </g>
     </g>
    </g>
    <g id="xtick_11">
     <g id="line2d_21">
      <path d="M 154.580963 138.0384 
L 154.580963 7.2 
" clip-path="url(#pc3d165bf56)" style="fill: none; stroke-dasharray: 2.96,1.28; stroke-dashoffset: 0; stroke: #f2f2f2; stroke-width: 0.8"/>
     </g>
     <g id="line2d_22">
      <g>
       <use xlink:href="#m1bdd7e648f" x="154.580963" y="138.0384" style="stroke: #000000; stroke-width: 0.6"/>
      </g>
     </g>
    </g>
    <g id="xtick_12">
     <g id="line2d_23">
      <path d="M 191.235056 138.0384 
L 191.235056 7.2 
" clip-path="url(#pc3d165bf56)" style="fill: none; stroke-dasharray: 2.96,1.28; stroke-dashoffset: 0; stroke: #f2f2f2; stroke-width: 0.8"/>
     </g>
     <g id="line2d_24">
      <g>
       <use xlink:href="#m1bdd7e648f" x="191.235056" y="138.0384" style="stroke: #000000; stroke-width: 0.6"/>
      </g>
     </g>
    </g>
    <g id="xtick_13">
     <g id="line2d_25">
      <path d="M 209.84722 138.0384 
L 209.84722 7.2 
" clip-path="url(#pc3d165bf56)" style="fill: none; stroke-dasharray: 2.96,1.28; stroke-dashoffset: 0; stroke: #f2f2f2; stroke-width: 0.8"/>
     </g>
     <g id="line2d_26">
      <g>
       <use xlink:href="#m1bdd7e648f" x="209.84722" y="138.0384" style="stroke: #000000; stroke-width: 0.6"/>
      </g>
     </g>
    </g>
    <g id="xtick_14">
     <g id="line2d_27">
      <path d="M 223.05276 138.0384 
L 223.05276 7.2 
" clip-path="url(#pc3d165bf56)" style="fill: none; stroke-dasharray: 2.96,1.28; stroke-dashoffset: 0; stroke: #f2f2f2; stroke-width: 0.8"/>
     </g>
     <g id="line2d_28">
      <g>
       <use xlink:href="#m1bdd7e648f" x="223.05276" y="138.0384" style="stroke: #000000; stroke-width: 0.6"/>
      </g>
     </g>
    </g>
    <g id="xtick_15">
     <g id="line2d_29">
      <path d="M 233.295773 138.0384 
L 233.295773 7.2 
" clip-path="url(#pc3d165bf56)" style="fill: none; stroke-dasharray: 2.96,1.28; stroke-dashoffset: 0; stroke: #f2f2f2; stroke-width: 0.8"/>
     </g>
     <g id="line2d_30">
      <g>
       <use xlink:href="#m1bdd7e648f" x="233.295773" y="138.0384" style="stroke: #000000; stroke-width: 0.6"/>
      </g>
     </g>
    </g>
    <g id="xtick_16">
     <g id="line2d_31">
      <path d="M 241.664924 138.0384 
L 241.664924 7.2 
" clip-path="url(#pc3d165bf56)" style="fill: none; stroke-dasharray: 2.96,1.28; stroke-dashoffset: 0; stroke: #f2f2f2; stroke-width: 0.8"/>
     </g>
     <g id="line2d_32">
      <g>
       <use xlink:href="#m1bdd7e648f" x="241.664924" y="138.0384" style="stroke: #000000; stroke-width: 0.6"/>
      </g>
     </g>
    </g>
    <g id="text_3">
     <!-- Period, T (s) -->
     <g transform="translate(119.576 162.85965) scale(0.08 -0.08)">
      <defs>
       <path id="DejaVuSans-50" d="M 1259 4147 
L 1259 2394 
L 2053 2394 
Q 2494 2394 2734 2622 
Q 2975 2850 2975 3272 
Q 2975 3691 2734 3919 
Q 2494 4147 2053 4147 
L 1259 4147 
z
M 628 4666 
L 2053 4666 
Q 2838 4666 3239 4311 
Q 3641 3956 3641 3272 
Q 3641 2581 3239 2228 
Q 2838 1875 2053 1875 
L 1259 1875 
L 1259 0 
L 628 0 
L 628 4666 
z
" transform="scale(0.015625)"/>
       <path id="DejaVuSans-65" d="M 3597 1894 
L 3597 1613 
L 953 1613 
Q 991 1019 1311 708 
Q 1631 397 2203 397 
Q 2534 397 2845 478 
Q 3156 559 3463 722 
L 3463 178 
Q 3153 47 2828 -22 
Q 2503 -91 2169 -91 
Q 1331 -91 842 396 
Q 353 884 353 1716 
Q 353 2575 817 3079 
Q 1281 3584 2069 3584 
Q 2775 3584 3186 3129 
Q 3597 2675 3597 1894 
z
M 3022 2063 
Q 3016 2534 2758 2815 
Q 2500 3097 2075 3097 
Q 1594 3097 1305 2825 
Q 1016 2553 972 2059 
L 3022 2063 
z
" transform="scale(0.015625)"/>
       <path id="DejaVuSans-72" d="M 2631 2963 
Q 2534 3019 2420 3045 
Q 2306 3072 2169 3072 
Q 1681 3072 1420 2755 
Q 1159 2438 1159 1844 
L 1159 0 
L 581 0 
L 581 3500 
L 1159 3500 
L 1159 2956 
Q 1341 3275 1631 3429 
Q 1922 3584 2338 3584 
Q 2397 3584 2469 3576 
Q 2541 3569 2628 3553 
L 2631 2963 
z
" transform="scale(0.015625)"/>
       <path id="DejaVuSans-69" d="M 603 3500 
L 1178 3500 
L 1178 0 
L 603 0 
L 603 3500 
z
M 603 4863 
L 1178 4863 
L 1178 4134 
L 603 4134 
L 603 4863 
z
" transform="scale(0.015625)"/>
       <path id="DejaVuSans-6f" d="M 1959 3097 
Q 1497 3097 1228 2736 
Q 959 2375 959 1747 
Q 959 1119 1226 758 
Q 1494 397 1959 397 
Q 2419 397 2687 759 
Q 2956 1122 2956 1747 
Q 2956 2369 2687 2733 
Q 2419 3097 1959 3097 
z
M 1959 3584 
Q 2709 3584 3137 3096 
Q 3566 2609 3566 1747 
Q 3566 888 3137 398 
Q 2709 -91 1959 -91 
Q 1206 -91 779 398 
Q 353 888 353 1747 
Q 353 2609 779 3096 
Q 1206 3584 1959 3584 
z
" transform="scale(0.015625)"/>
       <path id="DejaVuSans-64" d="M 2906 2969 
L 2906 4863 
L 3481 4863 
L 3481 0 
L 2906 0 
L 2906 525 
Q 2725 213 2448 61 
Q 2172 -91 1784 -91 
Q 1150 -91 751 415 
Q 353 922 353 1747 
Q 353 2572 751 3078 
Q 1150 3584 1784 3584 
Q 2172 3584 2448 3432 
Q 2725 3281 2906 2969 
z
M 947 1747 
Q 947 1113 1208 752 
Q 1469 391 1925 391 
Q 2381 391 2643 752 
Q 2906 1113 2906 1747 
Q 2906 2381 2643 2742 
Q 2381 3103 1925 3103 
Q 1469 3103 1208 2742 
Q 947 2381 947 1747 
z
" transform="scale(0.015625)"/>
       <path id="DejaVuSans-2c" d="M 750 794 
L 1409 794 
L 1409 256 
L 897 -744 
L 494 -744 
L 750 256 
L 750 794 
z
" transform="scale(0.015625)"/>
       <path id="DejaVuSans-20" transform="scale(0.015625)"/>
       <path id="DejaVuSans-54" d="M -19 4666 
L 3928 4666 
L 3928 4134 
L 2272 4134 
L 2272 0 
L 1638 0 
L 1638 4134 
L -19 4134 
L -19 4666 
z
" transform="scale(0.015625)"/>
       <path id="DejaVuSans-28" d="M 1984 4856 
Q 1566 4138 1362 3434 
Q 1159 2731 1159 2009 
Q 1159 1288 1364 580 
Q 1569 -128 1984 -844 
L 1484 -844 
Q 1016 -109 783 600 
Q 550 1309 550 2009 
Q 550 2706 781 3412 
Q 1013 4119 1484 4856 
L 1984 4856 
z
" transform="scale(0.015625)"/>
       <path id="DejaVuSans-73" d="M 2834 3397 
L 2834 2853 
Q 2591 2978 2328 3040 
Q 2066 3103 1784 3103 
Q 1356 3103 1142 2972 
Q 928 2841 928 2578 
Q 928 2378 1081 2264 
Q 1234 2150 1697 2047 
L 1894 2003 
Q 2506 1872 2764 1633 
Q 3022 1394 3022 966 
Q 3022 478 2636 193 
Q 2250 -91 1575 -91 
Q 1294 -91 989 -36 
Q 684 19 347 128 
L 347 722 
Q 666 556 975 473 
Q 1284 391 1588 391 
Q 1994 391 2212 530 
Q 2431 669 2431 922 
Q 2431 1156 2273 1281 
Q 2116 1406 1581 1522 
L 1381 1569 
Q 847 1681 609 1914 
Q 372 2147 372 2553 
Q 372 3047 722 3315 
Q 1072 3584 1716 3584 
Q 2034 3584 2315 3537 
Q 2597 3491 2834 3397 
z
" transform="scale(0.015625)"/>
       <path id="DejaVuSans-29" d="M 513 4856 
L 1013 4856 
Q 1481 4119 1714 3412 
Q 1947 2706 1947 2009 
Q 1947 1309 1714 600 
Q 1481 -109 1013 -844 
L 513 -844 
Q 928 -128 1133 580 
Q 1338 1288 1338 2009 
Q 1338 2731 1133 3434 
Q 928 4138 513 4856 
z
" transform="scale(0.015625)"/>
      </defs>
      <use xlink:href="#DejaVuSans-50"/>
      <use xlink:href="#DejaVuSans-65" x="56.677734"/>
      <use xlink:href="#DejaVuSans-72" x="118.201172"/>
      <use xlink:href="#DejaVuSans-69" x="159.314453"/>
      <use xlink:href="#DejaVuSans-6f" x="187.097656"/>
      <use xlink:href="#DejaVuSans-64" x="248.279297"/>
      <use xlink:href="#DejaVuSans-2c" x="311.755859"/>
      <use xlink:href="#DejaVuSans-20" x="343.542969"/>
      <use xlink:href="#DejaVuSans-54" x="375.330078"/>
      <use xlink:href="#DejaVuSans-20" x="436.414062"/>
      <use xlink:href="#DejaVuSans-28" x="468.201172"/>
      <use xlink:href="#DejaVuSans-73" x="507.214844"/>
      <use xlink:href="#DejaVuSans-29" x="559.314453"/>
     </g>
    </g>
   </g>
   <g id="matplotlib.axis_2">
    <g id="ytick_1">
     <g id="line2d_33">
      <path d="M 44.7425 125.827495 
L 242.2745 125.827495 
" clip-path="url(#pc3d165bf56)" style="fill: none; stroke: #d9d9d9; stroke-width: 0.8; stroke-linecap: square"/>
     </g>
     <g id="line2d_34">
      <defs>
       <path id="m2eb1295747" d="M 0 0 
L -3.5 0 
" style="stroke: #000000; stroke-width: 0.8"/>
      </defs>
      <g>
       <use xlink:href="#m2eb1295747" x="44.7425" y="125.827495" style="stroke: #000000; stroke-width: 0.8"/>
      </g>
     </g>
     <g id="text_4">
      <!-- $\mathdefault{10^{-2}}$ -->
      <g transform="translate(18.9425 128.86687) scale(0.08 -0.08)">
       <defs>
        <path id="DejaVuSans-32" d="M 1228 531 
L 3431 531 
L 3431 0 
L 469 0 
L 469 531 
Q 828 903 1448 1529 
Q 2069 2156 2228 2338 
Q 2531 2678 2651 2914 
Q 2772 3150 2772 3378 
Q 2772 3750 2511 3984 
Q 2250 4219 1831 4219 
Q 1534 4219 1204 4116 
Q 875 4013 500 3803 
L 500 4441 
Q 881 4594 1212 4672 
Q 1544 4750 1819 4750 
Q 2544 4750 2975 4387 
Q 3406 4025 3406 3419 
Q 3406 3131 3298 2873 
Q 3191 2616 2906 2266 
Q 2828 2175 2409 1742 
Q 1991 1309 1228 531 
z
" transform="scale(0.015625)"/>
       </defs>
       <use xlink:href="#DejaVuSans-31" transform="translate(0 0.765625)"/>
       <use xlink:href="#DejaVuSans-30" transform="translate(63.623047 0.765625)"/>
       <use xlink:href="#DejaVuSans-2212" transform="translate(128.203125 39.046875) scale(0.7)"/>
       <use xlink:href="#DejaVuSans-32" transform="translate(186.855469 39.046875) scale(0.7)"/>
      </g>
     </g>
    </g>
    <g id="ytick_2">
     <g id="line2d_35">
      <path d="M 44.7425 75.925814 
L 242.2745 75.925814 
" clip-path="url(#pc3d165bf56)" style="fill: none; stroke: #d9d9d9; stroke-width: 0.8; stroke-linecap: square"/>
     </g>
     <g id="line2d_36">
      <g>
       <use xlink:href="#m2eb1295747" x="44.7425" y="75.925814" style="stroke: #000000; stroke-width: 0.8"/>
      </g>
     </g>
     <g id="text_5">
      <!-- $\mathdefault{10^{-1}}$ -->
      <g transform="translate(18.9425 78.965189) scale(0.08 -0.08)">
       <use xlink:href="#DejaVuSans-31" transform="translate(0 0.684375)"/>
       <use xlink:href="#DejaVuSans-30" transform="translate(63.623047 0.684375)"/>
       <use xlink:href="#DejaVuSans-2212" transform="translate(128.203125 38.965625) scale(0.7)"/>
       <use xlink:href="#DejaVuSans-31" transform="translate(186.855469 38.965625) scale(0.7)"/>
      </g>
     </g>
    </g>
    <g id="ytick_3">
     <g id="line2d_37">
      <path d="M 44.7425 26.024133 
L 242.2745 26.024133 
" clip-path="url(#pc3d165bf56)" style="fill: none; stroke: #d9d9d9; stroke-width: 0.8; stroke-linecap: square"/>
     </g>
     <g id="line2d_38">
      <g>
       <use xlink:href="#m2eb1295747" x="44.7425" y="26.024133" style="stroke: #000000; stroke-width: 0.8"/>
      </g>
     </g>
     <g id="text_6">
      <!-- $\mathdefault{10^{0}}$ -->
      <g transform="translate(23.6625 29.063508) scale(0.08 -0.08)">
       <use xlink:href="#DejaVuSans-31" transform="translate(0 0.765625)"/>
       <use xlink:href="#DejaVuSans-30" transform="translate(63.623047 0.765625)"/>
       <use xlink:href="#DejaVuSans-30" transform="translate(128.203125 39.046875) scale(0.7)"/>
      </g>
     </g>
    </g>
    <g id="ytick_4">
     <g id="line2d_39">
      <path d="M 44.7425 136.89812 
L 242.2745 136.89812 
" clip-path="url(#pc3d165bf56)" style="fill: none; stroke-dasharray: 2.96,1.28; stroke-dashoffset: 0; stroke: #f2f2f2; stroke-width: 0.8"/>
     </g>
     <g id="line2d_40">
      <defs>
       <path id="mcdd5ff8770" d="M 0 0 
L -2 0 
" style="stroke: #000000; stroke-width: 0.6"/>
      </defs>
      <g>
       <use xlink:href="#mcdd5ff8770" x="44.7425" y="136.89812" style="stroke: #000000; stroke-width: 0.6"/>
      </g>
     </g>
    </g>
    <g id="ytick_5">
     <g id="line2d_41">
      <path d="M 44.7425 133.557363 
L 242.2745 133.557363 
" clip-path="url(#pc3d165bf56)" style="fill: none; stroke-dasharray: 2.96,1.28; stroke-dashoffset: 0; stroke: #f2f2f2; stroke-width: 0.8"/>
     </g>
     <g id="line2d_42">
      <g>
       <use xlink:href="#mcdd5ff8770" x="44.7425" y="133.557363" style="stroke: #000000; stroke-width: 0.6"/>
      </g>
     </g>
    </g>
    <g id="ytick_6">
     <g id="line2d_43">
      <path d="M 44.7425 130.663467 
L 242.2745 130.663467 
" clip-path="url(#pc3d165bf56)" style="fill: none; stroke-dasharray: 2.96,1.28; stroke-dashoffset: 0; stroke: #f2f2f2; stroke-width: 0.8"/>
     </g>
     <g id="line2d_44">
      <g>
       <use xlink:href="#mcdd5ff8770" x="44.7425" y="130.663467" style="stroke: #000000; stroke-width: 0.6"/>
      </g>
     </g>
    </g>
    <g id="ytick_7">
     <g id="line2d_45">
      <path d="M 44.7425 128.11087 
L 242.2745 128.11087 
" clip-path="url(#pc3d165bf56)" style="fill: none; stroke-dasharray: 2.96,1.28; stroke-dashoffset: 0; stroke: #f2f2f2; stroke-width: 0.8"/>
     </g>
     <g id="line2d_46">
      <g>
       <use xlink:href="#mcdd5ff8770" x="44.7425" y="128.11087" style="stroke: #000000; stroke-width: 0.6"/>
      </g>
     </g>
    </g>
    <g id="ytick_8">
     <g id="line2d_47">
      <path d="M 44.7425 110.805592 
L 242.2745 110.805592 
" clip-path="url(#pc3d165bf56)" style="fill: none; stroke-dasharray: 2.96,1.28; stroke-dashoffset: 0; stroke: #f2f2f2; stroke-width: 0.8"/>
     </g>
     <g id="line2d_48">
      <g>
       <use xlink:href="#mcdd5ff8770" x="44.7425" y="110.805592" style="stroke: #000000; stroke-width: 0.6"/>
      </g>
     </g>
    </g>
    <g id="ytick_9">
     <g id="line2d_49">
      <path d="M 44.7425 102.018342 
L 242.2745 102.018342 
" clip-path="url(#pc3d165bf56)" style="fill: none; stroke-dasharray: 2.96,1.28; stroke-dashoffset: 0; stroke: #f2f2f2; stroke-width: 0.8"/>
     </g>
     <g id="line2d_50">
      <g>
       <use xlink:href="#mcdd5ff8770" x="44.7425" y="102.018342" style="stroke: #000000; stroke-width: 0.6"/>
      </g>
     </g>
    </g>
    <g id="ytick_10">
     <g id="line2d_51">
      <path d="M 44.7425 95.783689 
L 242.2745 95.783689 
" clip-path="url(#pc3d165bf56)" style="fill: none; stroke-dasharray: 2.96,1.28; stroke-dashoffset: 0; stroke: #f2f2f2; stroke-width: 0.8"/>
     </g>
     <g id="line2d_52">
      <g>
       <use xlink:href="#mcdd5ff8770" x="44.7425" y="95.783689" style="stroke: #000000; stroke-width: 0.6"/>
      </g>
     </g>
    </g>
    <g id="ytick_11">
     <g id="line2d_53">
      <path d="M 44.7425 90.947717 
L 242.2745 90.947717 
" clip-path="url(#pc3d165bf56)" style="fill: none; stroke-dasharray: 2.96,1.28; stroke-dashoffset: 0; stroke: #f2f2f2; stroke-width: 0.8"/>
     </g>
     <g id="line2d_54">
      <g>
       <use xlink:href="#mcdd5ff8770" x="44.7425" y="90.947717" style="stroke: #000000; stroke-width: 0.6"/>
      </g>
     </g>
    </g>
    <g id="ytick_12">
     <g id="line2d_55">
      <path d="M 44.7425 86.996439 
L 242.2745 86.996439 
" clip-path="url(#pc3d165bf56)" style="fill: none; stroke-dasharray: 2.96,1.28; stroke-dashoffset: 0; stroke: #f2f2f2; stroke-width: 0.8"/>
     </g>
     <g id="line2d_56">
      <g>
       <use xlink:href="#mcdd5ff8770" x="44.7425" y="86.996439" style="stroke: #000000; stroke-width: 0.6"/>
      </g>
     </g>
    </g>
    <g id="ytick_13">
     <g id="line2d_57">
      <path d="M 44.7425 83.655682 
L 242.2745 83.655682 
" clip-path="url(#pc3d165bf56)" style="fill: none; stroke-dasharray: 2.96,1.28; stroke-dashoffset: 0; stroke: #f2f2f2; stroke-width: 0.8"/>
     </g>
     <g id="line2d_58">
      <g>
       <use xlink:href="#mcdd5ff8770" x="44.7425" y="83.655682" style="stroke: #000000; stroke-width: 0.6"/>
      </g>
     </g>
    </g>
    <g id="ytick_14">
     <g id="line2d_59">
      <path d="M 44.7425 80.761786 
L 242.2745 80.761786 
" clip-path="url(#pc3d165bf56)" style="fill: none; stroke-dasharray: 2.96,1.28; stroke-dashoffset: 0; stroke: #f2f2f2; stroke-width: 0.8"/>
     </g>
     <g id="line2d_60">
      <g>
       <use xlink:href="#mcdd5ff8770" x="44.7425" y="80.761786" style="stroke: #000000; stroke-width: 0.6"/>
      </g>
     </g>
    </g>
    <g id="ytick_15">
     <g id="line2d_61">
      <path d="M 44.7425 78.20919 
L 242.2745 78.20919 
" clip-path="url(#pc3d165bf56)" style="fill: none; stroke-dasharray: 2.96,1.28; stroke-dashoffset: 0; stroke: #f2f2f2; stroke-width: 0.8"/>
     </g>
     <g id="line2d_62">
      <g>
       <use xlink:href="#mcdd5ff8770" x="44.7425" y="78.20919" style="stroke: #000000; stroke-width: 0.6"/>
      </g>
     </g>
    </g>
    <g id="ytick_16">
     <g id="line2d_63">
      <path d="M 44.7425 60.903911 
L 242.2745 60.903911 
" clip-path="url(#pc3d165bf56)" style="fill: none; stroke-dasharray: 2.96,1.28; stroke-dashoffset: 0; stroke: #f2f2f2; stroke-width: 0.8"/>
     </g>
     <g id="line2d_64">
      <g>
       <use xlink:href="#mcdd5ff8770" x="44.7425" y="60.903911" style="stroke: #000000; stroke-width: 0.6"/>
      </g>
     </g>
    </g>
    <g id="ytick_17">
     <g id="line2d_65">
      <path d="M 44.7425 52.116661 
L 242.2745 52.116661 
" clip-path="url(#pc3d165bf56)" style="fill: none; stroke-dasharray: 2.96,1.28; stroke-dashoffset: 0; stroke: #f2f2f2; stroke-width: 0.8"/>
     </g>
     <g id="line2d_66">
      <g>
       <use xlink:href="#mcdd5ff8770" x="44.7425" y="52.116661" style="stroke: #000000; stroke-width: 0.6"/>
      </g>
     </g>
    </g>
    <g id="ytick_18">
     <g id="line2d_67">
      <path d="M 44.7425 45.882008 
L 242.2745 45.882008 
" clip-path="url(#pc3d165bf56)" style="fill: none; stroke-dasharray: 2.96,1.28; stroke-dashoffset: 0; stroke: #f2f2f2; stroke-width: 0.8"/>
     </g>
     <g id="line2d_68">
      <g>
       <use xlink:href="#mcdd5ff8770" x="44.7425" y="45.882008" style="stroke: #000000; stroke-width: 0.6"/>
      </g>
     </g>
    </g>
    <g id="ytick_19">
     <g id="line2d_69">
      <path d="M 44.7425 41.046036 
L 242.2745 41.046036 
" clip-path="url(#pc3d165bf56)" style="fill: none; stroke-dasharray: 2.96,1.28; stroke-dashoffset: 0; stroke: #f2f2f2; stroke-width: 0.8"/>
     </g>
     <g id="line2d_70">
      <g>
       <use xlink:href="#mcdd5ff8770" x="44.7425" y="41.046036" style="stroke: #000000; stroke-width: 0.6"/>
      </g>
     </g>
    </g>
    <g id="ytick_20">
     <g id="line2d_71">
      <path d="M 44.7425 37.094759 
L 242.2745 37.094759 
" clip-path="url(#pc3d165bf56)" style="fill: none; stroke-dasharray: 2.96,1.28; stroke-dashoffset: 0; stroke: #f2f2f2; stroke-width: 0.8"/>
     </g>
     <g id="line2d_72">
      <g>
       <use xlink:href="#mcdd5ff8770" x="44.7425" y="37.094759" style="stroke: #000000; stroke-width: 0.6"/>
      </g>
     </g>
    </g>
    <g id="ytick_21">
     <g id="line2d_73">
      <path d="M 44.7425 33.754001 
L 242.2745 33.754001 
" clip-path="url(#pc3d165bf56)" style="fill: none; stroke-dasharray: 2.96,1.28; stroke-dashoffset: 0; stroke: #f2f2f2; stroke-width: 0.8"/>
     </g>
     <g id="line2d_74">
      <g>
       <use xlink:href="#mcdd5ff8770" x="44.7425" y="33.754001" style="stroke: #000000; stroke-width: 0.6"/>
      </g>
     </g>
    </g>
    <g id="ytick_22">
     <g id="line2d_75">
      <path d="M 44.7425 30.860106 
L 242.2745 30.860106 
" clip-path="url(#pc3d165bf56)" style="fill: none; stroke-dasharray: 2.96,1.28; stroke-dashoffset: 0; stroke: #f2f2f2; stroke-width: 0.8"/>
     </g>
     <g id="line2d_76">
      <g>
       <use xlink:href="#mcdd5ff8770" x="44.7425" y="30.860106" style="stroke: #000000; stroke-width: 0.6"/>
      </g>
     </g>
    </g>
    <g id="ytick_23">
     <g id="line2d_77">
      <path d="M 44.7425 28.307509 
L 242.2745 28.307509 
" clip-path="url(#pc3d165bf56)" style="fill: none; stroke-dasharray: 2.96,1.28; stroke-dashoffset: 0; stroke: #f2f2f2; stroke-width: 0.8"/>
     </g>
     <g id="line2d_78">
      <g>
       <use xlink:href="#mcdd5ff8770" x="44.7425" y="28.307509" style="stroke: #000000; stroke-width: 0.6"/>
      </g>
     </g>
    </g>
    <g id="ytick_24">
     <g id="line2d_79">
      <path d="M 44.7425 11.00223 
L 242.2745 11.00223 
" clip-path="url(#pc3d165bf56)" style="fill: none; stroke-dasharray: 2.96,1.28; stroke-dashoffset: 0; stroke: #f2f2f2; stroke-width: 0.8"/>
     </g>
     <g id="line2d_80">
      <g>
       <use xlink:href="#mcdd5ff8770" x="44.7425" y="11.00223" style="stroke: #000000; stroke-width: 0.6"/>
      </g>
     </g>
    </g>
    <g id="text_7">
     <!-- Spectral acceleration, SA (g) -->
     <g transform="translate(13.27875 129.871075) rotate(-90) scale(0.08 -0.08)">
      <defs>
       <path id="DejaVuSans-53" d="M 3425 4513 
L 3425 3897 
Q 3066 4069 2747 4153 
Q 2428 4238 2131 4238 
Q 1616 4238 1336 4038 
Q 1056 3838 1056 3469 
Q 1056 3159 1242 3001 
Q 1428 2844 1947 2747 
L 2328 2669 
Q 3034 2534 3370 2195 
Q 3706 1856 3706 1288 
Q 3706 609 3251 259 
Q 2797 -91 1919 -91 
Q 1588 -91 1214 -16 
Q 841 59 441 206 
L 441 856 
Q 825 641 1194 531 
Q 1563 422 1919 422 
Q 2459 422 2753 634 
Q 3047 847 3047 1241 
Q 3047 1584 2836 1778 
Q 2625 1972 2144 2069 
L 1759 2144 
Q 1053 2284 737 2584 
Q 422 2884 422 3419 
Q 422 4038 858 4394 
Q 1294 4750 2059 4750 
Q 2388 4750 2728 4690 
Q 3069 4631 3425 4513 
z
" transform="scale(0.015625)"/>
       <path id="DejaVuSans-70" d="M 1159 525 
L 1159 -1331 
L 581 -1331 
L 581 3500 
L 1159 3500 
L 1159 2969 
Q 1341 3281 1617 3432 
Q 1894 3584 2278 3584 
Q 2916 3584 3314 3078 
Q 3713 2572 3713 1747 
Q 3713 922 3314 415 
Q 2916 -91 2278 -91 
Q 1894 -91 1617 61 
Q 1341 213 1159 525 
z
M 3116 1747 
Q 3116 2381 2855 2742 
Q 2594 3103 2138 3103 
Q 1681 3103 1420 2742 
Q 1159 2381 1159 1747 
Q 1159 1113 1420 752 
Q 1681 391 2138 391 
Q 2594 391 2855 752 
Q 3116 1113 3116 1747 
z
" transform="scale(0.015625)"/>
       <path id="DejaVuSans-63" d="M 3122 3366 
L 3122 2828 
Q 2878 2963 2633 3030 
Q 2388 3097 2138 3097 
Q 1578 3097 1268 2742 
Q 959 2388 959 1747 
Q 959 1106 1268 751 
Q 1578 397 2138 397 
Q 2388 397 2633 464 
Q 2878 531 3122 666 
L 3122 134 
Q 2881 22 2623 -34 
Q 2366 -91 2075 -91 
Q 1284 -91 818 406 
Q 353 903 353 1747 
Q 353 2603 823 3093 
Q 1294 3584 2113 3584 
Q 2378 3584 2631 3529 
Q 2884 3475 3122 3366 
z
" transform="scale(0.015625)"/>
       <path id="DejaVuSans-74" d="M 1172 4494 
L 1172 3500 
L 2356 3500 
L 2356 3053 
L 1172 3053 
L 1172 1153 
Q 1172 725 1289 603 
Q 1406 481 1766 481 
L 2356 481 
L 2356 0 
L 1766 0 
Q 1100 0 847 248 
Q 594 497 594 1153 
L 594 3053 
L 172 3053 
L 172 3500 
L 594 3500 
L 594 4494 
L 1172 4494 
z
" transform="scale(0.015625)"/>
       <path id="DejaVuSans-61" d="M 2194 1759 
Q 1497 1759 1228 1600 
Q 959 1441 959 1056 
Q 959 750 1161 570 
Q 1363 391 1709 391 
Q 2188 391 2477 730 
Q 2766 1069 2766 1631 
L 2766 1759 
L 2194 1759 
z
M 3341 1997 
L 3341 0 
L 2766 0 
L 2766 531 
Q 2569 213 2275 61 
Q 1981 -91 1556 -91 
Q 1019 -91 701 211 
Q 384 513 384 1019 
Q 384 1609 779 1909 
Q 1175 2209 1959 2209 
L 2766 2209 
L 2766 2266 
Q 2766 2663 2505 2880 
Q 2244 3097 1772 3097 
Q 1472 3097 1187 3025 
Q 903 2953 641 2809 
L 641 3341 
Q 956 3463 1253 3523 
Q 1550 3584 1831 3584 
Q 2591 3584 2966 3190 
Q 3341 2797 3341 1997 
z
" transform="scale(0.015625)"/>
       <path id="DejaVuSans-6c" d="M 603 4863 
L 1178 4863 
L 1178 0 
L 603 0 
L 603 4863 
z
" transform="scale(0.015625)"/>
       <path id="DejaVuSans-6e" d="M 3513 2113 
L 3513 0 
L 2938 0 
L 2938 2094 
Q 2938 2591 2744 2837 
Q 2550 3084 2163 3084 
Q 1697 3084 1428 2787 
Q 1159 2491 1159 1978 
L 1159 0 
L 581 0 
L 581 3500 
L 1159 3500 
L 1159 2956 
Q 1366 3272 1645 3428 
Q 1925 3584 2291 3584 
Q 2894 3584 3203 3211 
Q 3513 2838 3513 2113 
z
" transform="scale(0.015625)"/>
       <path id="DejaVuSans-41" d="M 2188 4044 
L 1331 1722 
L 3047 1722 
L 2188 4044 
z
M 1831 4666 
L 2547 4666 
L 4325 0 
L 3669 0 
L 3244 1197 
L 1141 1197 
L 716 0 
L 50 0 
L 1831 4666 
z
" transform="scale(0.015625)"/>
       <path id="DejaVuSans-67" d="M 2906 1791 
Q 2906 2416 2648 2759 
Q 2391 3103 1925 3103 
Q 1463 3103 1205 2759 
Q 947 2416 947 1791 
Q 947 1169 1205 825 
Q 1463 481 1925 481 
Q 2391 481 2648 825 
Q 2906 1169 2906 1791 
z
M 3481 434 
Q 3481 -459 3084 -895 
Q 2688 -1331 1869 -1331 
Q 1566 -1331 1297 -1286 
Q 1028 -1241 775 -1147 
L 775 -588 
Q 1028 -725 1275 -790 
Q 1522 -856 1778 -856 
Q 2344 -856 2625 -561 
Q 2906 -266 2906 331 
L 2906 616 
Q 2728 306 2450 153 
Q 2172 0 1784 0 
Q 1141 0 747 490 
Q 353 981 353 1791 
Q 353 2603 747 3093 
Q 1141 3584 1784 3584 
Q 2172 3584 2450 3431 
Q 2728 3278 2906 2969 
L 2906 3500 
L 3481 3500 
L 3481 434 
z
" transform="scale(0.015625)"/>
      </defs>
      <use xlink:href="#DejaVuSans-53"/>
      <use xlink:href="#DejaVuSans-70" x="63.476562"/>
      <use xlink:href="#DejaVuSans-65" x="126.953125"/>
      <use xlink:href="#DejaVuSans-63" x="188.476562"/>
      <use xlink:href="#DejaVuSans-74" x="243.457031"/>
      <use xlink:href="#DejaVuSans-72" x="282.666016"/>
      <use xlink:href="#DejaVuSans-61" x="323.779297"/>
      <use xlink:href="#DejaVuSans-6c" x="385.058594"/>
      <use xlink:href="#DejaVuSans-20" x="412.841797"/>
      <use xlink:href="#DejaVuSans-61" x="444.628906"/>
      <use xlink:href="#DejaVuSans-63" x="505.908203"/>
      <use xlink:href="#DejaVuSans-63" x="560.888672"/>
      <use xlink:href="#DejaVuSans-65" x="615.869141"/>
      <use xlink:href="#DejaVuSans-6c" x="677.392578"/>
      <use xlink:href="#DejaVuSans-65" x="705.175781"/>
      <use xlink:href="#DejaVuSans-72" x="766.699219"/>
      <use xlink:href="#DejaVuSans-61" x="807.8125"/>
      <use xlink:href="#DejaVuSans-74" x="869.091797"/>
      <use xlink:href="#DejaVuSans-69" x="908.300781"/>
      <use xlink:href="#DejaVuSans-6f" x="936.083984"/>
      <use xlink:href="#DejaVuSans-6e" x="997.265625"/>
      <use xlink:href="#DejaVuSans-2c" x="1060.644531"/>
      <use xlink:href="#DejaVuSans-20" x="1092.431641"/>
      <use xlink:href="#DejaVuSans-53" x="1124.21875"/>
      <use xlink:href="#DejaVuSans-41" x="1189.570312"/>
      <use xlink:href="#DejaVuSans-20" x="1257.978516"/>
      <use xlink:href="#DejaVuSans-28" x="1289.765625"/>
      <use xlink:href="#DejaVuSans-67" x="1328.779297"/>
      <use xlink:href="#DejaVuSans-29" x="1392.255859"/>
     </g>
    </g>
   </g>
   <g id="line2d_81">
    <path d="M 53.721227 32.3089 
L 72.333391 25.828439 
L 85.538931 34.884533 
L 95.781944 42.864437 
L 104.151095 47.055571 
L 117.356635 56.935889 
L 127.599648 56.388542 
L 132.472745 60.903911 
L 146.211812 54.85387 
L 159.417352 57.089906 
L 171.460723 63.533801 
L 178.029516 74.046638 
L 191.235056 65.25703 
L 209.84722 72.303309 
L 223.05276 99.002363 
L 233.295773 113.886631 
" clip-path="url(#pc3d165bf56)" style="fill: none; stroke: #b2b2b2; stroke-width: 0.8; stroke-linecap: square"/>
   </g>
   <g id="line2d_82">
    <path d="M 53.721227 59.539703 
L 72.333391 60.721647 
L 85.538931 63.535313 
L 95.781944 69.412495 
L 104.151095 73.130429 
L 117.356635 62.326359 
L 127.599648 63.140188 
L 132.472745 60.903911 
L 146.211812 78.661612 
L 159.417352 88.253708 
L 171.460723 95.471783 
L 178.029516 91.973034 
L 191.235056 92.8816 
L 209.84722 109.168788 
L 223.05276 113.894101 
L 233.295773 123.572311 
" clip-path="url(#pc3d165bf56)" style="fill: none; stroke: #b2b2b2; stroke-width: 0.8; stroke-linecap: square"/>
   </g>
   <g id="line2d_83">
    <path d="M 53.721227 40.418367 
L 72.333391 41.831322 
L 85.538931 26.93486 
L 95.781944 38.481679 
L 104.151095 40.381475 
L 117.356635 49.285828 
L 127.599648 54.018082 
L 132.472745 60.903911 
L 146.211812 72.155372 
L 159.417352 70.753003 
L 171.460723 71.455258 
L 178.029516 69.689107 
L 191.235056 78.284819 
L 209.84722 76.60014 
L 223.05276 90.676613 
L 233.295773 102.112664 
" clip-path="url(#pc3d165bf56)" style="fill: none; stroke: #b2b2b2; stroke-width: 0.8; stroke-linecap: square"/>
   </g>
   <g id="line2d_84">
    <path d="M 53.721227 43.649642 
L 72.333391 44.700367 
L 85.538931 40.682687 
L 95.781944 35.630717 
L 104.151095 49.866759 
L 117.356635 58.548597 
L 127.599648 60.955516 
L 132.472745 60.903911 
L 146.211812 67.838241 
L 159.417352 65.769372 
L 171.460723 63.908869 
L 178.029516 66.856575 
L 191.235056 59.407603 
L 209.84722 71.058466 
L 223.05276 95.803066 
L 233.295773 116.476444 
" clip-path="url(#pc3d165bf56)" style="fill: none; stroke: #b2b2b2; stroke-width: 0.8; stroke-linecap: square"/>
   </g>
   <g id="line2d_85">
    <path d="M 53.721227 42.329241 
L 72.333391 34.562627 
L 85.538931 44.331877 
L 95.781944 47.105604 
L 104.151095 53.516309 
L 117.356635 57.954066 
L 127.599648 62.404991 
L 132.472745 60.903911 
L 146.211812 66.906671 
L 159.417352 62.293645 
L 171.460723 70.75643 
L 178.029516 77.747287 
L 191.235056 96.402107 
L 209.84722 93.392721 
L 223.05276 93.803115 
L 233.295773 97.935017 
" clip-path="url(#pc3d165bf56)" style="fill: none; stroke: #b2b2b2; stroke-width: 0.8; stroke-linecap: square"/>
   </g>
   <g id="line2d_86">
    <path d="M 53.721227 51.979263 
L 72.333391 41.310528 
L 85.538931 39.323641 
L 95.781944 39.585028 
L 104.151095 45.296326 
L 117.356635 52.181964 
L 127.599648 53.029166 
L 132.472745 60.903911 
L 146.211812 78.418624 
L 159.417352 68.133707 
L 171.460723 68.657618 
L 178.029516 75.12075 
L 191.235056 95.333269 
L 209.84722 89.756757 
L 223.05276 94.314918 
L 233.295773 86.981168 
" clip-path="url(#pc3d165bf56)" style="fill: none; stroke: #b2b2b2; stroke-width: 0.8; stroke-linecap: square"/>
   </g>
   <g id="line2d_87">
    <path d="M 53.721227 56.497523 
L 72.333391 37.514951 
L 85.538931 48.333183 
L 95.781944 46.076067 
L 104.151095 47.610341 
L 117.356635 58.293287 
L 127.599648 63.262195 
L 132.472745 60.903911 
L 146.211812 76.320546 
L 159.417352 79.089707 
L 171.460723 83.12487 
L 178.029516 88.191144 
L 191.235056 96.85656 
L 209.84722 117.26001 
L 223.05276 111.819853 
L 233.295773 109.740489 
" clip-path="url(#pc3d165bf56)" style="fill: none; stroke: #b2b2b2; stroke-width: 0.8; stroke-linecap: square"/>
   </g>
   <g id="line2d_88">
    <path d="M 53.721227 46.002653 
L 72.333391 54.619924 
L 85.538931 53.384293 
L 95.781944 55.647807 
L 104.151095 64.528405 
L 117.356635 60.081353 
L 127.599648 57.371112 
L 132.472745 60.903911 
L 146.211812 64.599945 
L 159.417352 62.10589 
L 171.460723 56.289281 
L 178.029516 61.421604 
L 191.235056 79.060879 
L 209.84722 74.975966 
L 223.05276 85.939046 
L 233.295773 97.233181 
" clip-path="url(#pc3d165bf56)" style="fill: none; stroke: #b2b2b2; stroke-width: 0.8; stroke-linecap: square"/>
   </g>
   <g id="line2d_89">
    <path d="M 53.721227 42.182717 
L 72.333391 46.4203 
L 85.538931 40.834943 
L 95.781944 38.38614 
L 104.151095 47.990533 
L 117.356635 57.655217 
L 127.599648 54.232582 
L 132.472745 60.903911 
L 146.211812 65.705035 
L 159.417352 59.11374 
L 171.460723 60.954642 
L 178.029516 64.071984 
L 191.235056 68.370871 
L 209.84722 85.876017 
L 223.05276 94.718843 
L 233.295773 99.089503 
" clip-path="url(#pc3d165bf56)" style="fill: none; stroke: #b2b2b2; stroke-width: 0.8; stroke-linecap: square"/>
   </g>
   <g id="line2d_90">
    <path d="M 53.721227 55.702015 
L 72.333391 49.605933 
L 85.538931 49.735043 
L 95.781944 49.686128 
L 104.151095 59.039755 
L 117.356635 55.34595 
L 127.599648 61.984024 
L 132.472745 60.903911 
L 146.211812 61.541682 
L 159.417352 62.378648 
L 171.460723 65.866429 
L 178.029516 58.036978 
L 191.235056 66.108159 
L 209.84722 77.603652 
L 223.05276 84.635509 
L 233.295773 96.634476 
" clip-path="url(#pc3d165bf56)" style="fill: none; stroke: #b2b2b2; stroke-width: 0.8; stroke-linecap: square"/>
   </g>
   <g id="line2d_91">
    <path d="M 53.721227 51.6974 
L 72.333391 38.123754 
L 85.538931 43.927807 
L 95.781944 48.720918 
L 104.151095 52.871062 
L 117.356635 55.372442 
L 127.599648 56.243427 
L 132.472745 60.903911 
L 146.211812 70.587633 
L 159.417352 71.636401 
L 171.460723 70.471462 
L 178.029516 75.00599 
L 191.235056 71.654226 
L 209.84722 93.226721 
L 223.05276 97.136366 
L 233.295773 123.494621 
" clip-path="url(#pc3d165bf56)" style="fill: none; stroke: #b2b2b2; stroke-width: 0.8; stroke-linecap: square"/>
   </g>
   <g id="line2d_92">
    <path d="M 53.721227 47.037404 
L 72.333391 42.360145 
L 85.538931 53.429023 
L 95.781944 53.797515 
L 104.151095 52.911185 
L 117.356635 51.952603 
L 127.599648 56.728814 
L 132.472745 60.903911 
L 146.211812 60.517098 
L 159.417352 61.446211 
L 171.460723 79.505328 
L 178.029516 73.197236 
L 191.235056 80.279898 
L 209.84722 98.930889 
L 223.05276 94.374884 
L 233.295773 100.725335 
" clip-path="url(#pc3d165bf56)" style="fill: none; stroke: #b2b2b2; stroke-width: 0.8; stroke-linecap: square"/>
   </g>
   <g id="line2d_93">
    <path d="M 53.721227 66.8833 
L 72.333391 67.420825 
L 85.538931 68.868642 
L 95.781944 63.50771 
L 104.151095 64.288093 
L 117.356635 58.969098 
L 127.599648 62.340624 
L 132.472745 60.903911 
L 146.211812 59.772374 
L 159.417352 52.524838 
L 171.460723 59.311377 
L 178.029516 65.57196 
L 191.235056 85.813114 
L 209.84722 92.255372 
L 223.05276 103.605563 
L 233.295773 124.533985 
" clip-path="url(#pc3d165bf56)" style="fill: none; stroke: #b2b2b2; stroke-width: 0.8; stroke-linecap: square"/>
   </g>
   <g id="line2d_94">
    <path d="M 53.721227 39.097869 
L 72.333391 41.980592 
L 85.538931 47.192592 
L 95.781944 51.032242 
L 104.151095 46.226949 
L 117.356635 47.552 
L 127.599648 63.128975 
L 132.472745 60.903911 
L 146.211812 70.133263 
L 159.417352 74.072724 
L 171.460723 69.165601 
L 178.029516 71.213315 
L 191.235056 80.345296 
L 209.84722 94.46678 
L 223.05276 89.15019 
L 233.295773 98.585778 
" clip-path="url(#pc3d165bf56)" style="fill: none; stroke: #b2b2b2; stroke-width: 0.8; stroke-linecap: square"/>
   </g>
   <g id="line2d_95">
    <path d="M 53.721227 49.134097 
L 72.333391 50.157271 
L 85.538931 50.909617 
L 95.781944 57.746867 
L 104.151095 52.116208 
L 117.356635 56.631661 
L 127.599648 56.054575 
L 132.472745 60.903911 
L 146.211812 57.361666 
L 159.417352 56.196168 
L 171.460723 63.250217 
L 178.029516 70.64545 
L 191.235056 77.877694 
L 209.84722 95.955929 
L 223.05276 100.670386 
L 233.295773 108.425272 
" clip-path="url(#pc3d165bf56)" style="fill: none; stroke: #b2b2b2; stroke-width: 0.8; stroke-linecap: square"/>
   </g>
   <g id="line2d_96">
    <path d="M 53.721227 53.448546 
L 72.333391 45.488704 
L 85.538931 36.053443 
L 95.781944 47.984854 
L 104.151095 39.213397 
L 117.356635 50.026321 
L 127.599648 56.983648 
L 132.472745 60.903911 
L 146.211812 60.986184 
L 159.417352 61.499204 
L 171.460723 63.429238 
L 178.029516 66.316277 
L 191.235056 69.967535 
L 209.84722 67.092668 
L 223.05276 80.329113 
L 233.295773 90.297335 
" clip-path="url(#pc3d165bf56)" style="fill: none; stroke: #b2b2b2; stroke-width: 0.8; stroke-linecap: square"/>
   </g>
   <g id="line2d_97">
    <path d="M 53.721227 69.02071 
L 72.333391 59.849787 
L 85.538931 65.227345 
L 95.781944 63.868896 
L 104.151095 56.454717 
L 117.356635 61.261483 
L 127.599648 63.421284 
L 132.472745 60.903911 
L 146.211812 61.715231 
L 159.417352 57.95621 
L 171.460723 69.693357 
L 178.029516 78.728917 
L 191.235056 81.069265 
L 209.84722 82.728792 
L 223.05276 96.318907 
L 233.295773 102.012116 
" clip-path="url(#pc3d165bf56)" style="fill: none; stroke: #b2b2b2; stroke-width: 0.8; stroke-linecap: square"/>
   </g>
   <g id="line2d_98">
    <path d="M 53.721227 68.387506 
L 72.333391 65.976322 
L 85.538931 58.279738 
L 95.781944 52.09786 
L 104.151095 62.455376 
L 117.356635 58.469436 
L 127.599648 62.052149 
L 132.472745 60.903911 
L 146.211812 60.542327 
L 159.417352 58.017424 
L 171.460723 59.738862 
L 178.029516 58.302212 
L 191.235056 55.824935 
L 209.84722 82.968231 
L 223.05276 86.033899 
L 233.295773 99.315584 
" clip-path="url(#pc3d165bf56)" style="fill: none; stroke: #b2b2b2; stroke-width: 0.8; stroke-linecap: square"/>
   </g>
   <g id="line2d_99">
    <path d="M 53.721227 56.284865 
L 72.333391 50.309348 
L 85.538931 47.19631 
L 95.781944 49.822106 
L 104.151095 49.446005 
L 117.356635 55.716618 
L 127.599648 60.161426 
L 132.472745 60.903911 
L 146.211812 64.516318 
L 159.417352 64.860299 
L 171.460723 68.293528 
L 178.029516 67.752505 
L 191.235056 79.741973 
L 209.84722 81.985269 
L 223.05276 91.275837 
L 233.295773 91.426046 
" clip-path="url(#pc3d165bf56)" style="fill: none; stroke: #b2b2b2; stroke-width: 0.8; stroke-linecap: square"/>
   </g>
   <g id="line2d_100">
    <path d="M 53.721227 54.667537 
L 72.333391 44.831049 
L 85.538931 49.919123 
L 95.781944 54.251846 
L 104.151095 50.043617 
L 117.356635 49.793336 
L 127.599648 54.386726 
L 132.472745 60.903911 
L 146.211812 62.697394 
L 159.417352 61.985801 
L 171.460723 55.325217 
L 178.029516 58.335818 
L 191.235056 70.654664 
L 209.84722 85.886235 
L 223.05276 101.457121 
L 233.295773 110.118407 
" clip-path="url(#pc3d165bf56)" style="fill: none; stroke: #b2b2b2; stroke-width: 0.8; stroke-linecap: square"/>
   </g>
   <g id="line2d_101">
    <path d="M 53.721227 39.011412 
L 72.333391 36.25315 
L 85.538931 35.027078 
L 95.781944 29.205967 
L 104.151095 37.389989 
L 117.356635 46.598658 
L 127.599648 55.354135 
L 132.472745 60.903911 
L 146.211812 64.777891 
L 159.417352 66.840098 
L 171.460723 70.715289 
L 178.029516 70.445818 
L 191.235056 70.934748 
L 209.84722 79.677929 
L 223.05276 75.206405 
L 233.295773 86.036933 
" clip-path="url(#pc3d165bf56)" style="fill: none; stroke: #b2b2b2; stroke-width: 0.8; stroke-linecap: square"/>
   </g>
   <g id="line2d_102">
    <path d="M 53.721227 47.786884 
L 72.333391 45.961008 
L 85.538931 43.073789 
L 95.781944 44.439856 
L 104.151095 44.55002 
L 117.356635 49.057155 
L 127.599648 56.614831 
L 132.472745 60.903911 
L 146.211812 64.506789 
L 159.417352 87.310607 
L 171.460723 91.310406 
L 178.029516 93.876055 
L 191.235056 96.35589 
L 209.84722 108.578211 
L 223.05276 116.786928 
L 233.295773 123.514131 
" clip-path="url(#pc3d165bf56)" style="fill: none; stroke: #b2b2b2; stroke-width: 0.8; stroke-linecap: square"/>
   </g>
   <g id="line2d_103">
    <path d="M 53.721227 42.580744 
L 72.333391 34.787829 
L 85.538931 46.133285 
L 95.781944 38.007794 
L 104.151095 52.004239 
L 117.356635 57.735162 
L 127.599648 58.003868 
L 132.472745 60.903911 
L 146.211812 54.638853 
L 159.417352 76.428938 
L 171.460723 84.876611 
L 178.029516 83.305323 
L 191.235056 92.798462 
L 209.84722 113.645887 
L 223.05276 128.588232 
L 233.295773 131.765228 
" clip-path="url(#pc3d165bf56)" style="fill: none; stroke: #b2b2b2; stroke-width: 0.8; stroke-linecap: square"/>
   </g>
   <g id="line2d_104">
    <path d="M 53.721227 61.549652 
L 72.333391 63.423635 
L 85.538931 59.164986 
L 95.781944 56.184758 
L 104.151095 59.467891 
L 117.356635 67.057488 
L 127.599648 60.725754 
L 132.472745 60.903911 
L 146.211812 63.280994 
L 159.417352 67.925993 
L 171.460723 93.814525 
L 178.029516 90.221029 
L 191.235056 88.572083 
L 209.84722 93.614829 
L 223.05276 102.872784 
L 233.295773 109.23068 
" clip-path="url(#pc3d165bf56)" style="fill: none; stroke: #b2b2b2; stroke-width: 0.8; stroke-linecap: square"/>
   </g>
   <g id="line2d_105">
    <path d="M 53.721227 48.915045 
L 72.333391 49.584228 
L 85.538931 45.007132 
L 95.781944 48.148136 
L 104.151095 53.724756 
L 117.356635 58.212341 
L 127.599648 60.985484 
L 132.472745 60.903911 
L 146.211812 70.800457 
L 159.417352 81.277367 
L 171.460723 91.531281 
L 178.029516 94.423095 
L 191.235056 96.190672 
L 209.84722 106.277161 
L 223.05276 113.128587 
L 233.295773 118.029199 
" clip-path="url(#pc3d165bf56)" style="fill: none; stroke: #b2b2b2; stroke-width: 0.8; stroke-linecap: square"/>
   </g>
   <g id="line2d_106">
    <path d="M 53.721227 69.075803 
L 72.333391 65.442138 
L 85.538931 57.757042 
L 95.781944 59.594377 
L 104.151095 55.912887 
L 117.356635 62.077819 
L 127.599648 53.316674 
L 132.472745 60.903911 
L 146.211812 54.589399 
L 159.417352 57.398344 
L 171.460723 66.140887 
L 178.029516 65.339621 
L 191.235056 71.237115 
L 209.84722 84.031059 
L 223.05276 112.348941 
L 233.295773 116.99448 
" clip-path="url(#pc3d165bf56)" style="fill: none; stroke: #b2b2b2; stroke-width: 0.8; stroke-linecap: square"/>
   </g>
   <g id="line2d_107">
    <path d="M 53.721227 57.739612 
L 72.333391 54.516242 
L 85.538931 53.44649 
L 95.781944 47.169392 
L 104.151095 47.257059 
L 117.356635 49.620487 
L 127.599648 54.544533 
L 132.472745 60.903911 
L 146.211812 49.068659 
L 159.417352 52.212443 
L 171.460723 58.619546 
L 178.029516 55.039657 
L 191.235056 64.435197 
L 209.84722 73.879862 
L 223.05276 77.64466 
L 233.295773 92.720944 
" clip-path="url(#pc3d165bf56)" style="fill: none; stroke: #b2b2b2; stroke-width: 0.8; stroke-linecap: square"/>
   </g>
   <g id="line2d_108">
    <path d="M 53.721227 43.98391 
L 72.333391 43.301765 
L 85.538931 56.160955 
L 95.781944 62.058653 
L 104.151095 55.791692 
L 117.356635 60.315258 
L 127.599648 61.413556 
L 132.472745 60.903911 
L 146.211812 64.980349 
L 159.417352 59.313696 
L 171.460723 68.487015 
L 178.029516 71.713475 
L 191.235056 81.116204 
L 209.84722 94.232353 
L 223.05276 91.744805 
L 233.295773 101.895819 
" clip-path="url(#pc3d165bf56)" style="fill: none; stroke: #b2b2b2; stroke-width: 0.8; stroke-linecap: square"/>
   </g>
   <g id="line2d_109">
    <path d="M 53.721227 65.819454 
L 72.333391 57.35927 
L 85.538931 55.859448 
L 95.781944 47.544113 
L 104.151095 45.774461 
L 117.356635 53.805533 
L 127.599648 59.268378 
L 132.472745 60.903911 
L 146.211812 53.023192 
L 159.417352 61.648042 
L 171.460723 67.525912 
L 178.029516 74.681899 
L 191.235056 83.458514 
L 209.84722 99.527802 
L 223.05276 118.405169 
L 233.295773 121.173253 
" clip-path="url(#pc3d165bf56)" style="fill: none; stroke: #b2b2b2; stroke-width: 0.8; stroke-linecap: square"/>
   </g>
   <g id="line2d_110">
    <path d="M 53.721227 72.450531 
L 72.333391 55.640762 
L 85.538931 52.023673 
L 95.781944 53.528714 
L 104.151095 58.389162 
L 117.356635 60.520899 
L 127.599648 63.839752 
L 132.472745 60.903911 
L 146.211812 54.14664 
L 159.417352 67.02365 
L 171.460723 74.180698 
L 178.029516 73.178829 
L 191.235056 86.299049 
L 209.84722 92.883466 
L 223.05276 107.359059 
L 233.295773 120.764508 
" clip-path="url(#pc3d165bf56)" style="fill: none; stroke: #b2b2b2; stroke-width: 0.8; stroke-linecap: square"/>
   </g>
   <g id="line2d_111">
    <path d="M 53.721227 58.793737 
L 72.333391 55.408049 
L 85.538931 56.763648 
L 95.781944 54.489419 
L 104.151095 54.227821 
L 117.356635 59.672131 
L 127.599648 61.223821 
L 132.472745 60.903911 
L 146.211812 57.501744 
L 159.417352 64.450158 
L 171.460723 74.456002 
L 178.029516 67.172203 
L 191.235056 88.115015 
L 209.84722 83.119822 
L 223.05276 93.058813 
L 233.295773 101.171341 
" clip-path="url(#pc3d165bf56)" style="fill: none; stroke: #b2b2b2; stroke-width: 0.8; stroke-linecap: square"/>
   </g>
   <g id="line2d_112">
    <path d="M 53.721227 71.147418 
L 72.333391 57.551897 
L 85.538931 60.206837 
L 95.781944 63.315895 
L 104.151095 64.263802 
L 117.356635 70.463571 
L 127.599648 65.434942 
L 132.472745 60.903911 
L 146.211812 58.217118 
L 159.417352 76.576451 
L 171.460723 74.35895 
L 178.029516 79.22823 
L 191.235056 80.170249 
L 209.84722 95.007645 
L 223.05276 107.421142 
L 233.295773 114.639927 
" clip-path="url(#pc3d165bf56)" style="fill: none; stroke: #b2b2b2; stroke-width: 0.8; stroke-linecap: square"/>
   </g>
   <g id="line2d_113">
    <path d="M 53.721227 50.204027 
L 72.333391 43.671941 
L 85.538931 44.133552 
L 95.781944 48.898954 
L 104.151095 51.089277 
L 117.356635 60.016728 
L 127.599648 56.458311 
L 132.472745 60.903911 
L 146.211812 60.261847 
L 159.417352 59.346671 
L 171.460723 63.188622 
L 178.029516 65.197447 
L 191.235056 76.361044 
L 209.84722 82.754817 
L 223.05276 88.899681 
L 233.295773 88.507092 
" clip-path="url(#pc3d165bf56)" style="fill: none; stroke: #b2b2b2; stroke-width: 0.8; stroke-linecap: square"/>
   </g>
   <g id="line2d_114">
    <path d="M 53.721227 56.800153 
L 72.333391 55.647633 
L 85.538931 44.362315 
L 95.781944 49.607223 
L 104.151095 46.622753 
L 117.356635 53.413454 
L 127.599648 62.404957 
L 132.472745 60.903911 
L 146.211812 65.558749 
L 159.417352 70.23844 
L 171.460723 68.262868 
L 178.029516 70.283555 
L 191.235056 80.465103 
L 209.84722 76.381989 
L 223.05276 82.992046 
L 233.295773 92.513337 
" clip-path="url(#pc3d165bf56)" style="fill: none; stroke: #b2b2b2; stroke-width: 0.8; stroke-linecap: square"/>
   </g>
   <g id="line2d_115">
    <path d="M 53.721227 59.143468 
L 72.333391 61.790966 
L 85.538931 62.71128 
L 95.781944 63.005874 
L 104.151095 63.247467 
L 117.356635 49.171593 
L 127.599648 58.913331 
L 132.472745 60.903911 
L 146.211812 69.871997 
L 159.417352 74.789454 
L 171.460723 86.485867 
L 178.029516 92.541208 
L 191.235056 88.409903 
L 209.84722 103.965633 
L 223.05276 115.57776 
L 233.295773 132.0912 
" clip-path="url(#pc3d165bf56)" style="fill: none; stroke: #b2b2b2; stroke-width: 0.8; stroke-linecap: square"/>
   </g>
   <g id="line2d_116">
    <path d="M 53.721227 45.905751 
L 72.333391 42.944719 
L 85.538931 41.057143 
L 95.781944 45.168648 
L 104.151095 51.511944 
L 117.356635 52.276209 
L 127.599648 57.70543 
L 132.472745 60.903911 
L 146.211812 66.636157 
L 159.417352 76.79168 
L 171.460723 83.163934 
L 178.029516 80.812394 
L 191.235056 86.656398 
L 209.84722 86.345686 
L 223.05276 94.376049 
L 233.295773 92.963965 
" clip-path="url(#pc3d165bf56)" style="fill: none; stroke: #b2b2b2; stroke-width: 0.8; stroke-linecap: square"/>
   </g>
   <g id="line2d_117">
    <path d="M 53.721227 52.341219 
L 72.333391 50.568635 
L 85.538931 52.108112 
L 95.781944 55.528925 
L 104.151095 47.020019 
L 117.356635 55.398413 
L 127.599648 53.036461 
L 132.472745 60.903911 
L 146.211812 55.172912 
L 159.417352 61.066136 
L 171.460723 66.247221 
L 178.029516 73.525339 
L 191.235056 77.655382 
L 209.84722 101.16512 
L 223.05276 90.027001 
L 233.295773 88.493826 
" clip-path="url(#pc3d165bf56)" style="fill: none; stroke: #b2b2b2; stroke-width: 0.8; stroke-linecap: square"/>
   </g>
   <g id="line2d_118">
    <path d="M 53.721227 63.191522 
L 72.333391 54.460724 
L 85.538931 42.899517 
L 95.781944 55.057084 
L 104.151095 58.595946 
L 117.356635 60.636628 
L 127.599648 56.252213 
L 132.472745 60.903911 
L 146.211812 62.124208 
L 159.417352 69.155225 
L 171.460723 59.791181 
L 178.029516 71.20477 
L 191.235056 69.606038 
L 209.84722 80.85647 
L 223.05276 99.113646 
L 233.295773 108.634205 
" clip-path="url(#pc3d165bf56)" style="fill: none; stroke: #b2b2b2; stroke-width: 0.8; stroke-linecap: square"/>
   </g>
   <g id="line2d_119">
    <path d="M 53.721227 40.364989 
L 72.333391 34.357013 
L 85.538931 28.378368 
L 95.781944 32.20288 
L 104.151095 35.456705 
L 117.356635 36.580471 
L 127.599648 52.538523 
L 132.472745 60.903911 
L 146.211812 64.166604 
L 159.417352 68.129578 
L 171.460723 73.786841 
L 178.029516 78.752294 
L 191.235056 84.026429 
L 209.84722 94.61971 
L 223.05276 91.275121 
L 233.295773 103.406517 
" clip-path="url(#pc3d165bf56)" style="fill: none; stroke: #b2b2b2; stroke-width: 0.8; stroke-linecap: square"/>
   </g>
   <g id="line2d_120">
    <path d="M 53.721227 30.995905 
L 72.333391 34.036432 
L 85.538931 34.938299 
L 95.781944 31.126748 
L 104.151095 38.525731 
L 117.356635 57.228046 
L 127.599648 54.807731 
L 132.472745 60.903911 
L 146.211812 62.248088 
L 159.417352 70.304529 
L 171.460723 68.771039 
L 178.029516 70.273029 
L 191.235056 79.778541 
L 209.84722 89.767292 
L 223.05276 89.567126 
L 233.295773 95.079855 
" clip-path="url(#pc3d165bf56)" style="fill: none; stroke: #b2b2b2; stroke-width: 0.8; stroke-linecap: square"/>
   </g>
   <g id="line2d_121">
    <path d="M 53.721227 68.819326 
L 72.333391 67.563013 
L 85.538931 61.256376 
L 95.781944 59.28704 
L 104.151095 62.208989 
L 117.356635 62.002838 
L 127.599648 61.346691 
L 132.472745 60.903911 
L 146.211812 60.203716 
L 159.417352 57.807489 
L 171.460723 60.476189 
L 178.029516 56.624341 
L 191.235056 54.247656 
L 209.84722 67.80729 
L 223.05276 76.793534 
L 233.295773 90.816026 
" clip-path="url(#pc3d165bf56)" style="fill: none; stroke: #b2b2b2; stroke-width: 0.8; stroke-linecap: square"/>
   </g>
   <g id="line2d_122">
    <path d="M 53.721227 26.045132 
L 72.333391 25.528589 
L 85.538931 32.034108 
L 95.781944 51.217247 
L 104.151095 54.574885 
L 117.356635 60.312683 
L 127.599648 64.863853 
L 132.472745 60.903911 
L 146.211812 55.621122 
L 159.417352 58.895232 
L 171.460723 64.894963 
L 178.029516 68.242347 
L 191.235056 75.212375 
L 209.84722 87.997192 
L 223.05276 101.125925 
L 233.295773 100.725424 
" clip-path="url(#pc3d165bf56)" style="fill: none; stroke: #b2b2b2; stroke-width: 0.8; stroke-linecap: square"/>
   </g>
   <g id="line2d_123">
    <path d="M 53.721227 48.022889 
L 72.333391 43.28252 
L 85.538931 44.123506 
L 95.781944 49.96266 
L 104.151095 41.329259 
L 117.356635 46.719935 
L 127.599648 61.469481 
L 132.472745 60.903911 
L 146.211812 65.932919 
L 159.417352 66.803795 
L 171.460723 80.700527 
L 178.029516 77.318841 
L 191.235056 82.825712 
L 209.84722 102.39223 
L 223.05276 106.349371 
L 233.295773 104.959201 
" clip-path="url(#pc3d165bf56)" style="fill: none; stroke: #b2b2b2; stroke-width: 0.8; stroke-linecap: square"/>
   </g>
   <g id="line2d_124">
    <path d="M 53.721227 53.724086 
L 72.333391 41.190032 
L 85.538931 44.339295 
L 95.781944 52.223893 
L 104.151095 49.82389 
L 117.356635 52.971925 
L 127.599648 57.395558 
L 132.472745 60.903911 
L 146.211812 57.961942 
L 159.417352 67.758945 
L 171.460723 64.455456 
L 178.029516 65.115881 
L 191.235056 67.451505 
L 209.84722 91.847794 
L 223.05276 97.262811 
L 233.295773 106.480116 
" clip-path="url(#pc3d165bf56)" style="fill: none; stroke: #b2b2b2; stroke-width: 0.8; stroke-linecap: square"/>
   </g>
   <g id="line2d_125">
    <path d="M 53.721227 42.16438 
L 72.333391 29.423291 
L 85.538931 33.963499 
L 95.781944 30.840699 
L 104.151095 31.446506 
L 117.356635 36.174867 
L 127.599648 55.223316 
L 132.472745 60.903911 
L 146.211812 64.640897 
L 159.417352 72.885067 
L 171.460723 77.363986 
L 178.029516 81.320743 
L 191.235056 89.420692 
L 209.84722 86.525554 
L 223.05276 91.948842 
L 233.295773 98.744499 
" clip-path="url(#pc3d165bf56)" style="fill: none; stroke: #b2b2b2; stroke-width: 0.8; stroke-linecap: square"/>
   </g>
   <g id="line2d_126">
    <path d="M 53.721227 68.823147 
L 72.333391 67.647853 
L 85.538931 65.361334 
L 95.781944 62.489511 
L 104.151095 55.310259 
L 117.356635 60.80041 
L 127.599648 54.292616 
L 132.472745 60.903911 
L 146.211812 62.675927 
L 159.417352 58.009226 
L 171.460723 64.446478 
L 178.029516 61.998545 
L 191.235056 80.158401 
L 209.84722 95.506584 
L 223.05276 104.011803 
L 233.295773 108.522634 
" clip-path="url(#pc3d165bf56)" style="fill: none; stroke: #b2b2b2; stroke-width: 0.8; stroke-linecap: square"/>
   </g>
   <g id="line2d_127">
    <path d="M 53.721227 49.592479 
L 72.333391 55.887154 
L 85.538931 52.118542 
L 95.781944 51.524364 
L 104.151095 57.683881 
L 117.356635 65.665819 
L 127.599648 61.984002 
L 132.472745 60.903911 
L 146.211812 70.543928 
L 159.417352 75.19149 
L 171.460723 79.359318 
L 178.029516 89.023943 
L 191.235056 93.014323 
L 209.84722 98.459052 
L 223.05276 105.456379 
L 233.295773 109.046408 
" clip-path="url(#pc3d165bf56)" style="fill: none; stroke: #b2b2b2; stroke-width: 0.8; stroke-linecap: square"/>
   </g>
   <g id="line2d_128">
    <path d="M 53.721227 73.620108 
L 72.333391 67.903945 
L 85.538931 62.780271 
L 95.781944 61.614567 
L 104.151095 66.436853 
L 117.356635 60.414281 
L 127.599648 62.554115 
L 132.472745 60.903911 
L 146.211812 66.385552 
L 159.417352 75.977702 
L 171.460723 75.030826 
L 178.029516 84.23748 
L 191.235056 80.348827 
L 209.84722 96.492144 
L 223.05276 109.200748 
L 233.295773 110.386395 
" clip-path="url(#pc3d165bf56)" style="fill: none; stroke: #b2b2b2; stroke-width: 0.8; stroke-linecap: square"/>
   </g>
   <g id="line2d_129">
    <path d="M 53.721227 50.85905 
L 72.333391 48.58098 
L 85.538931 41.592661 
L 95.781944 33.532409 
L 104.151095 38.990032 
L 117.356635 49.320133 
L 127.599648 58.186018 
L 132.472745 60.903911 
L 146.211812 64.746919 
L 159.417352 68.676599 
L 171.460723 68.819152 
L 178.029516 78.650467 
L 191.235056 95.294867 
L 209.84722 97.954564 
L 223.05276 112.237423 
L 233.295773 121.598649 
" clip-path="url(#pc3d165bf56)" style="fill: none; stroke: #b2b2b2; stroke-width: 0.8; stroke-linecap: square"/>
   </g>
   <g id="line2d_130">
    <path d="M 53.721227 25.360139 
L 72.333391 13.1472 
L 85.538931 18.959943 
L 95.781944 25.565649 
L 104.151095 37.439822 
L 117.356635 46.847482 
L 127.599648 52.13063 
L 132.472745 60.903911 
L 146.211812 75.32087 
L 159.417352 75.03418 
L 171.460723 75.101661 
L 178.029516 81.933267 
L 191.235056 85.813156 
L 209.84722 98.907978 
L 223.05276 100.354266 
L 233.295773 114.86615 
" clip-path="url(#pc3d165bf56)" style="fill: none; stroke: #b2b2b2; stroke-width: 0.8; stroke-linecap: square"/>
   </g>
   <g id="line2d_131">
    <path d="M 53.721227 52.279894 
L 72.333391 47.994204 
L 85.538931 47.760294 
L 95.781944 49.53654 
L 104.151095 51.29908 
L 117.356635 55.48294 
L 127.599648 58.626382 
L 132.472745 60.903911 
L 146.211812 63.331754 
L 159.417352 66.783919 
L 171.460723 71.007026 
L 178.029516 73.447808 
L 191.235056 79.763577 
L 209.84722 90.268094 
L 223.05276 98.137907 
L 233.295773 106.04139 
" clip-path="url(#pc3d165bf56)" style="fill: none; stroke: #ff0000; stroke-width: 2; stroke-linecap: square"/>
   </g>
   <g id="line2d_132">
    <path d="M 53.721227 28.662041 
L 72.333391 24.039909 
L 85.538931 25.683386 
L 95.781944 29.334107 
L 104.151095 33.277443 
L 117.356635 42.290955 
L 127.599648 51.313799 
L 132.472745 60.903911 
L 146.211812 50.833982 
L 159.417352 49.770501 
L 171.460723 51.388725 
L 178.029516 53.003809 
L 191.235056 58.408208 
L 209.84722 67.58896 
L 223.05276 75.305698 
L 233.295773 82.375608 
" clip-path="url(#pc3d165bf56)" style="fill: none; stroke-dasharray: 7.4,3.2; stroke-dashoffset: 0; stroke: #ff0000; stroke-width: 2"/>
   </g>
   <g id="line2d_133">
    <path d="M 53.721227 75.897747 
L 72.333391 71.948498 
L 85.538931 69.837201 
L 95.781944 69.738973 
L 104.151095 69.320716 
L 117.356635 68.674926 
L 127.599648 65.938965 
L 132.472745 60.903912 
L 146.211812 75.829527 
L 159.417352 83.797338 
L 171.460723 90.625326 
L 178.029516 93.891808 
L 191.235056 101.118947 
L 209.84722 112.947227 
L 223.05276 120.970116 
L 233.295773 129.707172 
" clip-path="url(#pc3d165bf56)" style="fill: none; stroke-dasharray: 7.4,3.2; stroke-dashoffset: 0; stroke: #ff0000; stroke-width: 2"/>
   </g>
   <g id="line2d_134">
    <path d="M 53.721227 52.222025 
L 72.333391 48.009529 
L 85.538931 47.81453 
L 95.781944 49.364967 
L 104.151095 51.41021 
L 117.356635 55.508838 
L 127.599648 58.61154 
L 132.472745 60.903911 
L 146.211812 63.508751 
L 159.417352 66.808877 
L 171.460723 71.091328 
L 178.029516 73.558118 
L 191.235056 79.952421 
L 209.84722 90.154317 
L 223.05276 98.121895 
L 233.295773 105.967366 
" clip-path="url(#pc3d165bf56)" style="fill: none; stroke: #0000ff; stroke-width: 2; stroke-linecap: square"/>
   </g>
   <g id="line2d_135">
    <path d="M 53.721227 28.465207 
L 72.333391 23.644966 
L 85.538931 26.061725 
L 95.781944 29.010631 
L 104.151095 33.631957 
L 117.356635 42.148048 
L 127.599648 51.229246 
L 132.472745 60.903911 
L 146.211812 50.497696 
L 159.417352 50.186435 
L 171.460723 51.533009 
L 178.029516 53.42231 
L 191.235056 58.538237 
L 209.84722 67.124394 
L 223.05276 75.048223 
L 233.295773 81.875481 
" clip-path="url(#pc3d165bf56)" style="fill: none; stroke-dasharray: 7.4,3.2; stroke-dashoffset: 0; stroke: #0000ff; stroke-width: 2"/>
   </g>
   <g id="line2d_136">
    <path d="M 53.721227 75.978842 
L 72.333391 72.374092 
L 85.538931 69.567335 
L 95.781944 69.719303 
L 104.151095 69.188463 
L 117.356635 68.869629 
L 127.599648 65.993834 
L 132.472745 60.903911 
L 146.211812 76.519805 
L 159.417352 83.431318 
L 171.460723 90.649648 
L 178.029516 93.693926 
L 191.235056 101.366605 
L 209.84722 113.18424 
L 223.05276 121.195566 
L 233.295773 130.059252 
" clip-path="url(#pc3d165bf56)" style="fill: none; stroke-dasharray: 7.4,3.2; stroke-dashoffset: 0; stroke: #0000ff; stroke-width: 2"/>
   </g>
   <g id="patch_3">
    <path d="M 44.7425 138.0384 
L 44.7425 7.2 
" style="fill: none; stroke: #000000; stroke-width: 0.8; stroke-linejoin: miter; stroke-linecap: square"/>
   </g>
   <g id="patch_4">
    <path d="M 242.2745 138.0384 
L 242.2745 7.2 
" style="fill: none; stroke: #000000; stroke-width: 0.8; stroke-linejoin: miter; stroke-linecap: square"/>
   </g>
   <g id="patch_5">
    <path d="M 44.7425 138.0384 
L 242.2745 138.0384 
" style="fill: none; stroke: #000000; stroke-width: 0.8; stroke-linejoin: miter; stroke-linecap: square"/>
   </g>
   <g id="patch_6">
    <path d="M 44.7425 7.2 
L 242.2745 7.2 
" style="fill: none; stroke: #000000; stroke-width: 0.8; stroke-linejoin: miter; stroke-linecap: square"/>
   </g>
   <g id="legend_1">
    <g id="patch_7">
     <path d="M 247.8745 104.47295 
L 432.5945 104.47295 
Q 434.1945 104.47295 434.1945 102.87295 
L 434.1945 42.36545 
Q 434.1945 40.76545 432.5945 40.76545 
L 247.8745 40.76545 
Q 246.2745 40.76545 246.2745 42.36545 
L 246.2745 102.87295 
Q 246.2745 104.47295 247.8745 104.47295 
z
" style="fill: #ffffff; opacity: 0.8; stroke: #cccccc; stroke-linejoin: miter"/>
    </g>
    <g id="line2d_137">
     <path d="M 249.4745 47.2442 
L 257.4745 47.2442 
L 265.4745 47.2442 
" style="fill: none; stroke: #b2b2b2; stroke-width: 0.8; stroke-linecap: square"/>
    </g>
    <g id="text_8">
     <!-- Individual selected GMs -->
     <g transform="translate(271.8745 50.0442) scale(0.08 -0.08)">
      <defs>
       <path id="DejaVuSans-49" d="M 628 4666 
L 1259 4666 
L 1259 0 
L 628 0 
L 628 4666 
z
" transform="scale(0.015625)"/>
       <path id="DejaVuSans-76" d="M 191 3500 
L 800 3500 
L 1894 563 
L 2988 3500 
L 3597 3500 
L 2284 0 
L 1503 0 
L 191 3500 
z
" transform="scale(0.015625)"/>
       <path id="DejaVuSans-75" d="M 544 1381 
L 544 3500 
L 1119 3500 
L 1119 1403 
Q 1119 906 1312 657 
Q 1506 409 1894 409 
Q 2359 409 2629 706 
Q 2900 1003 2900 1516 
L 2900 3500 
L 3475 3500 
L 3475 0 
L 2900 0 
L 2900 538 
Q 2691 219 2414 64 
Q 2138 -91 1772 -91 
Q 1169 -91 856 284 
Q 544 659 544 1381 
z
M 1991 3584 
L 1991 3584 
z
" transform="scale(0.015625)"/>
       <path id="DejaVuSans-47" d="M 3809 666 
L 3809 1919 
L 2778 1919 
L 2778 2438 
L 4434 2438 
L 4434 434 
Q 4069 175 3628 42 
Q 3188 -91 2688 -91 
Q 1594 -91 976 548 
Q 359 1188 359 2328 
Q 359 3472 976 4111 
Q 1594 4750 2688 4750 
Q 3144 4750 3555 4637 
Q 3966 4525 4313 4306 
L 4313 3634 
Q 3963 3931 3569 4081 
Q 3175 4231 2741 4231 
Q 1884 4231 1454 3753 
Q 1025 3275 1025 2328 
Q 1025 1384 1454 906 
Q 1884 428 2741 428 
Q 3075 428 3337 486 
Q 3600 544 3809 666 
z
" transform="scale(0.015625)"/>
       <path id="DejaVuSans-4d" d="M 628 4666 
L 1569 4666 
L 2759 1491 
L 3956 4666 
L 4897 4666 
L 4897 0 
L 4281 0 
L 4281 4097 
L 3078 897 
L 2444 897 
L 1241 4097 
L 1241 0 
L 628 0 
L 628 4666 
z
" transform="scale(0.015625)"/>
      </defs>
      <use xlink:href="#DejaVuSans-49"/>
      <use xlink:href="#DejaVuSans-6e" x="29.492188"/>
      <use xlink:href="#DejaVuSans-64" x="92.871094"/>
      <use xlink:href="#DejaVuSans-69" x="156.347656"/>
      <use xlink:href="#DejaVuSans-76" x="184.130859"/>
      <use xlink:href="#DejaVuSans-69" x="243.310547"/>
      <use xlink:href="#DejaVuSans-64" x="271.09375"/>
      <use xlink:href="#DejaVuSans-75" x="334.570312"/>
      <use xlink:href="#DejaVuSans-61" x="397.949219"/>
      <use xlink:href="#DejaVuSans-6c" x="459.228516"/>
      <use xlink:href="#DejaVuSans-20" x="487.011719"/>
      <use xlink:href="#DejaVuSans-73" x="518.798828"/>
      <use xlink:href="#DejaVuSans-65" x="570.898438"/>
      <use xlink:href="#DejaVuSans-6c" x="632.421875"/>
      <use xlink:href="#DejaVuSans-65" x="660.205078"/>
      <use xlink:href="#DejaVuSans-63" x="721.728516"/>
      <use xlink:href="#DejaVuSans-74" x="776.708984"/>
      <use xlink:href="#DejaVuSans-65" x="815.917969"/>
      <use xlink:href="#DejaVuSans-64" x="877.441406"/>
      <use xlink:href="#DejaVuSans-20" x="940.917969"/>
      <use xlink:href="#DejaVuSans-47" x="972.705078"/>
      <use xlink:href="#DejaVuSans-4d" x="1050.195312"/>
      <use xlink:href="#DejaVuSans-73" x="1136.474609"/>
     </g>
    </g>
    <g id="line2d_138">
     <path d="M 249.4745 58.9867 
L 257.4745 58.9867 
L 265.4745 58.9867 
" style="fill: none; stroke: #ff0000; stroke-width: 2; stroke-linecap: square"/>
    </g>
    <g id="text_9">
     <!-- GCIM median -->
     <g transform="translate(271.8745 61.7867) scale(0.08 -0.08)">
      <defs>
       <path id="DejaVuSans-43" d="M 4122 4306 
L 4122 3641 
Q 3803 3938 3442 4084 
Q 3081 4231 2675 4231 
Q 1875 4231 1450 3742 
Q 1025 3253 1025 2328 
Q 1025 1406 1450 917 
Q 1875 428 2675 428 
Q 3081 428 3442 575 
Q 3803 722 4122 1019 
L 4122 359 
Q 3791 134 3420 21 
Q 3050 -91 2638 -91 
Q 1578 -91 968 557 
Q 359 1206 359 2328 
Q 359 3453 968 4101 
Q 1578 4750 2638 4750 
Q 3056 4750 3426 4639 
Q 3797 4528 4122 4306 
z
" transform="scale(0.015625)"/>
       <path id="DejaVuSans-6d" d="M 3328 2828 
Q 3544 3216 3844 3400 
Q 4144 3584 4550 3584 
Q 5097 3584 5394 3201 
Q 5691 2819 5691 2113 
L 5691 0 
L 5113 0 
L 5113 2094 
Q 5113 2597 4934 2840 
Q 4756 3084 4391 3084 
Q 3944 3084 3684 2787 
Q 3425 2491 3425 1978 
L 3425 0 
L 2847 0 
L 2847 2094 
Q 2847 2600 2669 2842 
Q 2491 3084 2119 3084 
Q 1678 3084 1418 2786 
Q 1159 2488 1159 1978 
L 1159 0 
L 581 0 
L 581 3500 
L 1159 3500 
L 1159 2956 
Q 1356 3278 1631 3431 
Q 1906 3584 2284 3584 
Q 2666 3584 2933 3390 
Q 3200 3197 3328 2828 
z
" transform="scale(0.015625)"/>
      </defs>
      <use xlink:href="#DejaVuSans-47"/>
      <use xlink:href="#DejaVuSans-43" x="77.490234"/>
      <use xlink:href="#DejaVuSans-49" x="147.314453"/>
      <use xlink:href="#DejaVuSans-4d" x="176.806641"/>
      <use xlink:href="#DejaVuSans-20" x="263.085938"/>
      <use xlink:href="#DejaVuSans-6d" x="294.873047"/>
      <use xlink:href="#DejaVuSans-65" x="392.285156"/>
      <use xlink:href="#DejaVuSans-64" x="453.808594"/>
      <use xlink:href="#DejaVuSans-69" x="517.285156"/>
      <use xlink:href="#DejaVuSans-61" x="545.068359"/>
      <use xlink:href="#DejaVuSans-6e" x="606.347656"/>
     </g>
    </g>
    <g id="line2d_139">
     <path d="M 249.4745 72.01045 
L 257.4745 72.01045 
L 265.4745 72.01045 
" style="fill: none; stroke-dasharray: 7.4,3.2; stroke-dashoffset: 0; stroke: #ff0000; stroke-width: 2"/>
    </g>
    <g id="text_10">
     <!-- GCIM $16^{th}$ and $84^{th}$ percentiles -->
     <g transform="translate(271.8745 74.81045) scale(0.08 -0.08)">
      <defs>
       <path id="DejaVuSans-36" d="M 2113 2584 
Q 1688 2584 1439 2293 
Q 1191 2003 1191 1497 
Q 1191 994 1439 701 
Q 1688 409 2113 409 
Q 2538 409 2786 701 
Q 3034 994 3034 1497 
Q 3034 2003 2786 2293 
Q 2538 2584 2113 2584 
z
M 3366 4563 
L 3366 3988 
Q 3128 4100 2886 4159 
Q 2644 4219 2406 4219 
Q 1781 4219 1451 3797 
Q 1122 3375 1075 2522 
Q 1259 2794 1537 2939 
Q 1816 3084 2150 3084 
Q 2853 3084 3261 2657 
Q 3669 2231 3669 1497 
Q 3669 778 3244 343 
Q 2819 -91 2113 -91 
Q 1303 -91 875 529 
Q 447 1150 447 2328 
Q 447 3434 972 4092 
Q 1497 4750 2381 4750 
Q 2619 4750 2861 4703 
Q 3103 4656 3366 4563 
z
" transform="scale(0.015625)"/>
       <path id="DejaVuSans-Oblique-74" d="M 2706 3500 
L 2619 3053 
L 1472 3053 
L 1100 1153 
Q 1081 1047 1072 975 
Q 1063 903 1063 863 
Q 1063 663 1183 572 
Q 1303 481 1569 481 
L 2150 481 
L 2053 0 
L 1503 0 
Q 991 0 739 200 
Q 488 400 488 806 
Q 488 878 497 964 
Q 506 1050 525 1153 
L 897 3053 
L 409 3053 
L 500 3500 
L 978 3500 
L 1172 4494 
L 1747 4494 
L 1556 3500 
L 2706 3500 
z
" transform="scale(0.015625)"/>
       <path id="DejaVuSans-Oblique-68" d="M 3566 2113 
L 3156 0 
L 2578 0 
L 2988 2091 
Q 3016 2238 3031 2350 
Q 3047 2463 3047 2528 
Q 3047 2791 2881 2937 
Q 2716 3084 2419 3084 
Q 1956 3084 1617 2771 
Q 1278 2459 1178 1941 
L 800 0 
L 225 0 
L 1172 4863 
L 1747 4863 
L 1375 2950 
Q 1594 3244 1934 3414 
Q 2275 3584 2650 3584 
Q 3113 3584 3367 3334 
Q 3622 3084 3622 2631 
Q 3622 2519 3608 2391 
Q 3594 2263 3566 2113 
z
" transform="scale(0.015625)"/>
       <path id="DejaVuSans-38" d="M 2034 2216 
Q 1584 2216 1326 1975 
Q 1069 1734 1069 1313 
Q 1069 891 1326 650 
Q 1584 409 2034 409 
Q 2484 409 2743 651 
Q 3003 894 3003 1313 
Q 3003 1734 2745 1975 
Q 2488 2216 2034 2216 
z
M 1403 2484 
Q 997 2584 770 2862 
Q 544 3141 544 3541 
Q 544 4100 942 4425 
Q 1341 4750 2034 4750 
Q 2731 4750 3128 4425 
Q 3525 4100 3525 3541 
Q 3525 3141 3298 2862 
Q 3072 2584 2669 2484 
Q 3125 2378 3379 2068 
Q 3634 1759 3634 1313 
Q 3634 634 3220 271 
Q 2806 -91 2034 -91 
Q 1263 -91 848 271 
Q 434 634 434 1313 
Q 434 1759 690 2068 
Q 947 2378 1403 2484 
z
M 1172 3481 
Q 1172 3119 1398 2916 
Q 1625 2713 2034 2713 
Q 2441 2713 2670 2916 
Q 2900 3119 2900 3481 
Q 2900 3844 2670 4047 
Q 2441 4250 2034 4250 
Q 1625 4250 1398 4047 
Q 1172 3844 1172 3481 
z
" transform="scale(0.015625)"/>
       <path id="DejaVuSans-34" d="M 2419 4116 
L 825 1625 
L 2419 1625 
L 2419 4116 
z
M 2253 4666 
L 3047 4666 
L 3047 1625 
L 3713 1625 
L 3713 1100 
L 3047 1100 
L 3047 0 
L 2419 0 
L 2419 1100 
L 313 1100 
L 313 1709 
L 2253 4666 
z
" transform="scale(0.015625)"/>
      </defs>
      <use xlink:href="#DejaVuSans-47" transform="translate(0 0.529687)"/>
      <use xlink:href="#DejaVuSans-43" transform="translate(77.490234 0.529687)"/>
      <use xlink:href="#DejaVuSans-49" transform="translate(147.314453 0.529687)"/>
      <use xlink:href="#DejaVuSans-4d" transform="translate(176.806641 0.529687)"/>
      <use xlink:href="#DejaVuSans-20" transform="translate(263.085938 0.529687)"/>
      <use xlink:href="#DejaVuSans-31" transform="translate(294.873047 0.529687)"/>
      <use xlink:href="#DejaVuSans-36" transform="translate(358.496094 0.529687)"/>
      <use xlink:href="#DejaVuSans-Oblique-74" transform="translate(423.076172 38.810937) scale(0.7)"/>
      <use xlink:href="#DejaVuSans-Oblique-68" transform="translate(450.522461 38.810937) scale(0.7)"/>
      <use xlink:href="#DejaVuSans-20" transform="translate(497.62207 0.529687)"/>
      <use xlink:href="#DejaVuSans-61" transform="translate(529.40918 0.529687)"/>
      <use xlink:href="#DejaVuSans-6e" transform="translate(590.688477 0.529687)"/>
      <use xlink:href="#DejaVuSans-64" transform="translate(654.067383 0.529687)"/>
      <use xlink:href="#DejaVuSans-20" transform="translate(717.543945 0.529687)"/>
      <use xlink:href="#DejaVuSans-38" transform="translate(749.331055 0.529687)"/>
      <use xlink:href="#DejaVuSans-34" transform="translate(812.954102 0.529687)"/>
      <use xlink:href="#DejaVuSans-Oblique-74" transform="translate(877.53418 38.810937) scale(0.7)"/>
      <use xlink:href="#DejaVuSans-Oblique-68" transform="translate(904.980469 38.810937) scale(0.7)"/>
      <use xlink:href="#DejaVuSans-20" transform="translate(952.080078 0.529687)"/>
      <use xlink:href="#DejaVuSans-70" transform="translate(983.867188 0.529687)"/>
      <use xlink:href="#DejaVuSans-65" transform="translate(1047.34375 0.529687)"/>
      <use xlink:href="#DejaVuSans-72" transform="translate(1108.867188 0.529687)"/>
      <use xlink:href="#DejaVuSans-63" transform="translate(1149.980469 0.529687)"/>
      <use xlink:href="#DejaVuSans-65" transform="translate(1204.960938 0.529687)"/>
      <use xlink:href="#DejaVuSans-6e" transform="translate(1266.484375 0.529687)"/>
      <use xlink:href="#DejaVuSans-74" transform="translate(1329.863281 0.529687)"/>
      <use xlink:href="#DejaVuSans-69" transform="translate(1369.072266 0.529687)"/>
      <use xlink:href="#DejaVuSans-6c" transform="translate(1396.855469 0.529687)"/>
      <use xlink:href="#DejaVuSans-65" transform="translate(1424.638672 0.529687)"/>
      <use xlink:href="#DejaVuSans-73" transform="translate(1486.162109 0.529687)"/>
     </g>
    </g>
    <g id="line2d_140">
     <path d="M 249.4745 83.7692 
L 257.4745 83.7692 
L 265.4745 83.7692 
" style="fill: none; stroke: #0000ff; stroke-width: 2; stroke-linecap: square"/>
    </g>
    <g id="text_11">
     <!-- Selected GMs median -->
     <g transform="translate(271.8745 86.5692) scale(0.08 -0.08)">
      <use xlink:href="#DejaVuSans-53"/>
      <use xlink:href="#DejaVuSans-65" x="63.476562"/>
      <use xlink:href="#DejaVuSans-6c" x="125"/>
      <use xlink:href="#DejaVuSans-65" x="152.783203"/>
      <use xlink:href="#DejaVuSans-63" x="214.306641"/>
      <use xlink:href="#DejaVuSans-74" x="269.287109"/>
      <use xlink:href="#DejaVuSans-65" x="308.496094"/>
      <use xlink:href="#DejaVuSans-64" x="370.019531"/>
      <use xlink:href="#DejaVuSans-20" x="433.496094"/>
      <use xlink:href="#DejaVuSans-47" x="465.283203"/>
      <use xlink:href="#DejaVuSans-4d" x="542.773438"/>
      <use xlink:href="#DejaVuSans-73" x="629.052734"/>
      <use xlink:href="#DejaVuSans-20" x="681.152344"/>
      <use xlink:href="#DejaVuSans-6d" x="712.939453"/>
      <use xlink:href="#DejaVuSans-65" x="810.351562"/>
      <use xlink:href="#DejaVuSans-64" x="871.875"/>
      <use xlink:href="#DejaVuSans-69" x="935.351562"/>
      <use xlink:href="#DejaVuSans-61" x="963.134766"/>
      <use xlink:href="#DejaVuSans-6e" x="1024.414062"/>
     </g>
    </g>
    <g id="line2d_141">
     <path d="M 249.4745 96.79295 
L 257.4745 96.79295 
L 265.4745 96.79295 
" style="fill: none; stroke-dasharray: 7.4,3.2; stroke-dashoffset: 0; stroke: #0000ff; stroke-width: 2"/>
    </g>
    <g id="text_12">
     <!-- Selected GMs, $16^{th}$ and $84^{th}$ percentiles -->
     <g transform="translate(271.8745 99.59295) scale(0.08 -0.08)">
      <use xlink:href="#DejaVuSans-53" transform="translate(0 0.529687)"/>
      <use xlink:href="#DejaVuSans-65" transform="translate(63.476562 0.529687)"/>
      <use xlink:href="#DejaVuSans-6c" transform="translate(125 0.529687)"/>
      <use xlink:href="#DejaVuSans-65" transform="translate(152.783203 0.529687)"/>
      <use xlink:href="#DejaVuSans-63" transform="translate(214.306641 0.529687)"/>
      <use xlink:href="#DejaVuSans-74" transform="translate(269.287109 0.529687)"/>
      <use xlink:href="#DejaVuSans-65" transform="translate(308.496094 0.529687)"/>
      <use xlink:href="#DejaVuSans-64" transform="translate(370.019531 0.529687)"/>
      <use xlink:href="#DejaVuSans-20" transform="translate(433.496094 0.529687)"/>
      <use xlink:href="#DejaVuSans-47" transform="translate(465.283203 0.529687)"/>
      <use xlink:href="#DejaVuSans-4d" transform="translate(542.773438 0.529687)"/>
      <use xlink:href="#DejaVuSans-73" transform="translate(629.052734 0.529687)"/>
      <use xlink:href="#DejaVuSans-2c" transform="translate(681.152344 0.529687)"/>
      <use xlink:href="#DejaVuSans-20" transform="translate(712.939453 0.529687)"/>
      <use xlink:href="#DejaVuSans-31" transform="translate(744.726562 0.529687)"/>
      <use xlink:href="#DejaVuSans-36" transform="translate(808.349609 0.529687)"/>
      <use xlink:href="#DejaVuSans-Oblique-74" transform="translate(872.929688 38.810937) scale(0.7)"/>
      <use xlink:href="#DejaVuSans-Oblique-68" transform="translate(900.375977 38.810937) scale(0.7)"/>
      <use xlink:href="#DejaVuSans-20" transform="translate(947.475586 0.529687)"/>
      <use xlink:href="#DejaVuSans-61" transform="translate(979.262695 0.529687)"/>
      <use xlink:href="#DejaVuSans-6e" transform="translate(1040.541992 0.529687)"/>
      <use xlink:href="#DejaVuSans-64" transform="translate(1103.920898 0.529687)"/>
      <use xlink:href="#DejaVuSans-20" transform="translate(1167.397461 0.529687)"/>
      <use xlink:href="#DejaVuSans-38" transform="translate(1199.18457 0.529687)"/>
      <use xlink:href="#DejaVuSans-34" transform="translate(1262.807617 0.529687)"/>
      <use xlink:href="#DejaVuSans-Oblique-74" transform="translate(1327.387695 38.810937) scale(0.7)"/>
      <use xlink:href="#DejaVuSans-Oblique-68" transform="translate(1354.833984 38.810937) scale(0.7)"/>
      <use xlink:href="#DejaVuSans-20" transform="translate(1401.933594 0.529687)"/>
      <use xlink:href="#DejaVuSans-70" transform="translate(1433.720703 0.529687)"/>
      <use xlink:href="#DejaVuSans-65" transform="translate(1497.197266 0.529687)"/>
      <use xlink:href="#DejaVuSans-72" transform="translate(1558.720703 0.529687)"/>
      <use xlink:href="#DejaVuSans-63" transform="translate(1599.833984 0.529687)"/>
      <use xlink:href="#DejaVuSans-65" transform="translate(1654.814453 0.529687)"/>
      <use xlink:href="#DejaVuSans-6e" transform="translate(1716.337891 0.529687)"/>
      <use xlink:href="#DejaVuSans-74" transform="translate(1779.716797 0.529687)"/>
      <use xlink:href="#DejaVuSans-69" transform="translate(1818.925781 0.529687)"/>
      <use xlink:href="#DejaVuSans-6c" transform="translate(1846.708984 0.529687)"/>
      <use xlink:href="#DejaVuSans-65" transform="translate(1874.492188 0.529687)"/>
      <use xlink:href="#DejaVuSans-73" transform="translate(1936.015625 0.529687)"/>
     </g>
    </g>
   </g>
  </g>
 </g>
 <defs>
  <clipPath id="pc3d165bf56">
   <rect x="44.7425" y="7.2" width="197.532" height="130.8384"/>
  </clipPath>
 </defs>
</svg>
