<?xml version="1.0" encoding="utf-8" standalone="no"?>
<!DOCTYPE svg PUBLIC "-//W3C//DTD SVG 1.1//EN"
  "http://www.w3.org/Graphics/SVG/1.1/DTD/svg11.dtd">
<svg xmlns:xlink="http://www.w3.org/1999/xlink" width="441.3945pt" height="171.7234pt" viewBox="0 0 441.3945 171.7234" xmlns="http://www.w3.org/2000/svg" version="1.1">
 <metadata>
  <rdf:RDF xmlns:dc="http://purl.org/dc/elements/1.1/" xmlns:cc="http://creativecommons.org/ns#" xmlns:rdf="http://www.w3.org/1999/02/22-rdf-syntax-ns#">
   <cc:Work>
    <dc:type rdf:resource="http://purl.org/dc/dcmitype/StillImage"/>
    <dc:date>2024-11-13T17:46:08.414031</dc:date>
    <dc:format>image/svg+xml</dc:format>
    <dc:creator>
     <cc:Agent>
      <dc:title>Matplotlib v3.8.2, https://matplotlib.org/</dc:title>
     </cc:Agent>
    </dc:creator>
   </cc:Work>
  </rdf:RDF>
 </metadata>
 <defs>
  <style type="text/css">*{stroke-linejoin: round; stroke-linecap: butt}</style>
 </defs>
 <g id="figure_1">
  <g id="patch_1">
   <path d="M 0 171.7234 
L 441.3945 171.7234 
L 441.3945 0 
L 0 0 
z
" style="fill: #ffffff"/>
  </g>
  <g id="axes_1">
   <g id="patch_2">
    <path d="M 44.7425 138.0384 
L 242.2745 138.0384 
L 242.2745 7.2 
L 44.7425 7.2 
z
" style="fill: #ffffff"/>
   </g>
   <g id="matplotlib.axis_1">
    <g id="xtick_1">
     <g id="line2d_1">
      <path d="M 53.721227 138.0384 
L 53.721227 7.2 
" clip-path="url(#p382d5164c3)" style="fill: none; stroke: #d9d9d9; stroke-width: 0.8; stroke-linecap: square"/>
     </g>
     <g id="line2d_2">
      <defs>
       <path id="mef429c94e6" d="M 0 0 
L 0 3.5 
" style="stroke: #000000; stroke-width: 0.8"/>
      </defs>
      <g>
       <use xlink:href="#mef429c94e6" x="53.721227" y="138.0384" style="stroke: #000000; stroke-width: 0.8"/>
      </g>
     </g>
     <g id="text_1">
      <!-- $\mathdefault{10^{-1}}$ -->
      <g transform="translate(44.321227 151.11715) scale(0.08 -0.08)">
       <defs>
        <path id="DejaVuSans-31" d="M 794 531 
L 1825 531 
L 1825 4091 
L 703 3866 
L 703 4441 
L 1819 4666 
L 2450 4666 
L 2450 531 
L 3481 531 
L 3481 0 
L 794 0 
L 794 531 
z
" transform="scale(0.015625)"/>
        <path id="DejaVuSans-30" d="M 2034 4250 
Q 1547 4250 1301 3770 
Q 1056 3291 1056 2328 
Q 1056 1369 1301 889 
Q 1547 409 2034 409 
Q 2525 409 2770 889 
Q 3016 1369 3016 2328 
Q 3016 3291 2770 3770 
Q 2525 4250 2034 4250 
z
M 2034 4750 
Q 2819 4750 3233 4129 
Q 3647 3509 3647 2328 
Q 3647 1150 3233 529 
Q 2819 -91 2034 -91 
Q 1250 -91 836 529 
Q 422 1150 422 2328 
Q 422 3509 836 4129 
Q 1250 4750 2034 4750 
z
" transform="scale(0.015625)"/>
        <path id="DejaVuSans-2212" d="M 678 2272 
L 4684 2272 
L 4684 1741 
L 678 1741 
L 678 2272 
z
" transform="scale(0.015625)"/>
       </defs>
       <use xlink:href="#DejaVuSans-31" transform="translate(0 0.684375)"/>
       <use xlink:href="#DejaVuSans-30" transform="translate(63.623047 0.684375)"/>
       <use xlink:href="#DejaVuSans-2212" transform="translate(128.203125 38.965625) scale(0.7)"/>
       <use xlink:href="#DejaVuSans-31" transform="translate(186.855469 38.965625) scale(0.7)"/>
      </g>
     </g>
    </g>
    <g id="xtick_2">
     <g id="line2d_3">
      <path d="M 165.811003 138.0384 
L 165.811003 7.2 
" clip-path="url(#p382d5164c3)" style="fill: none; stroke: #d9d9d9; stroke-width: 0.8; stroke-linecap: square"/>
     </g>
     <g id="line2d_4">
      <g>
       <use xlink:href="#mef429c94e6" x="165.811003" y="138.0384" style="stroke: #000000; stroke-width: 0.8"/>
      </g>
     </g>
     <g id="text_2">
      <!-- $\mathdefault{10^{0}}$ -->
      <g transform="translate(158.771003 151.11715) scale(0.08 -0.08)">
       <use xlink:href="#DejaVuSans-31" transform="translate(0 0.765625)"/>
       <use xlink:href="#DejaVuSans-30" transform="translate(63.623047 0.765625)"/>
       <use xlink:href="#DejaVuSans-30" transform="translate(128.203125 39.046875) scale(0.7)"/>
      </g>
     </g>
    </g>
    <g id="xtick_3">
     <g id="line2d_5">
      <path d="M 48.59228 138.0384 
L 48.59228 7.2 
" clip-path="url(#p382d5164c3)" style="fill: none; stroke-dasharray: 2.96,1.28; stroke-dashoffset: 0; stroke: #f2f2f2; stroke-width: 0.8"/>
     </g>
     <g id="line2d_6">
      <defs>
       <path id="m39fec29701" d="M 0 0 
L 0 2 
" style="stroke: #000000; stroke-width: 0.6"/>
      </defs>
      <g>
       <use xlink:href="#m39fec29701" x="48.59228" y="138.0384" style="stroke: #000000; stroke-width: 0.6"/>
      </g>
     </g>
    </g>
    <g id="xtick_4">
     <g id="line2d_7">
      <path d="M 87.463612 138.0384 
L 87.463612 7.2 
" clip-path="url(#p382d5164c3)" style="fill: none; stroke-dasharray: 2.96,1.28; stroke-dashoffset: 0; stroke: #f2f2f2; stroke-width: 0.8"/>
     </g>
     <g id="line2d_8">
      <g>
       <use xlink:href="#m39fec29701" x="87.463612" y="138.0384" style="stroke: #000000; stroke-width: 0.6"/>
      </g>
     </g>
    </g>
    <g id="xtick_5">
     <g id="line2d_9">
      <path d="M 107.201642 138.0384 
L 107.201642 7.2 
" clip-path="url(#p382d5164c3)" style="fill: none; stroke-dasharray: 2.96,1.28; stroke-dashoffset: 0; stroke: #f2f2f2; stroke-width: 0.8"/>
     </g>
     <g id="line2d_10">
      <g>
       <use xlink:href="#m39fec29701" x="107.201642" y="138.0384" style="stroke: #000000; stroke-width: 0.6"/>
      </g>
     </g>
    </g>
    <g id="xtick_6">
     <g id="line2d_11">
      <path d="M 121.205997 138.0384 
L 121.205997 7.2 
" clip-path="url(#p382d5164c3)" style="fill: none; stroke-dasharray: 2.96,1.28; stroke-dashoffset: 0; stroke: #f2f2f2; stroke-width: 0.8"/>
     </g>
     <g id="line2d_12">
      <g>
       <use xlink:href="#m39fec29701" x="121.205997" y="138.0384" style="stroke: #000000; stroke-width: 0.6"/>
      </g>
     </g>
    </g>
    <g id="xtick_7">
     <g id="line2d_13">
      <path d="M 132.068618 138.0384 
L 132.068618 7.2 
" clip-path="url(#p382d5164c3)" style="fill: none; stroke-dasharray: 2.96,1.28; stroke-dashoffset: 0; stroke: #f2f2f2; stroke-width: 0.8"/>
     </g>
     <g id="line2d_14">
      <g>
       <use xlink:href="#m39fec29701" x="132.068618" y="138.0384" style="stroke: #000000; stroke-width: 0.6"/>
      </g>
     </g>
    </g>
    <g id="xtick_8">
     <g id="line2d_15">
      <path d="M 140.944027 138.0384 
L 140.944027 7.2 
" clip-path="url(#p382d5164c3)" style="fill: none; stroke-dasharray: 2.96,1.28; stroke-dashoffset: 0; stroke: #f2f2f2; stroke-width: 0.8"/>
     </g>
     <g id="line2d_16">
      <g>
       <use xlink:href="#m39fec29701" x="140.944027" y="138.0384" style="stroke: #000000; stroke-width: 0.6"/>
      </g>
     </g>
    </g>
    <g id="xtick_9">
     <g id="line2d_17">
      <path d="M 148.448077 138.0384 
L 148.448077 7.2 
" clip-path="url(#p382d5164c3)" style="fill: none; stroke-dasharray: 2.96,1.28; stroke-dashoffset: 0; stroke: #f2f2f2; stroke-width: 0.8"/>
     </g>
     <g id="line2d_18">
      <g>
       <use xlink:href="#m39fec29701" x="148.448077" y="138.0384" style="stroke: #000000; stroke-width: 0.6"/>
      </g>
     </g>
    </g>
    <g id="xtick_10">
     <g id="line2d_19">
      <path d="M 154.948382 138.0384 
L 154.948382 7.2 
" clip-path="url(#p382d5164c3)" style="fill: none; stroke-dasharray: 2.96,1.28; stroke-dashoffset: 0; stroke: #f2f2f2; stroke-width: 0.8"/>
     </g>
     <g id="line2d_20">
      <g>
       <use xlink:href="#m39fec29701" x="154.948382" y="138.0384" style="stroke: #000000; stroke-width: 0.6"/>
      </g>
     </g>
    </g>
    <g id="xtick_11">
     <g id="line2d_21">
      <path d="M 160.682056 138.0384 
L 160.682056 7.2 
" clip-path="url(#p382d5164c3)" style="fill: none; stroke-dasharray: 2.96,1.28; stroke-dashoffset: 0; stroke: #f2f2f2; stroke-width: 0.8"/>
     </g>
     <g id="line2d_22">
      <g>
       <use xlink:href="#m39fec29701" x="160.682056" y="138.0384" style="stroke: #000000; stroke-width: 0.6"/>
      </g>
     </g>
    </g>
    <g id="xtick_12">
     <g id="line2d_23">
      <path d="M 199.553388 138.0384 
L 199.553388 7.2 
" clip-path="url(#p382d5164c3)" style="fill: none; stroke-dasharray: 2.96,1.28; stroke-dashoffset: 0; stroke: #f2f2f2; stroke-width: 0.8"/>
     </g>
     <g id="line2d_24">
      <g>
       <use xlink:href="#m39fec29701" x="199.553388" y="138.0384" style="stroke: #000000; stroke-width: 0.6"/>
      </g>
     </g>
    </g>
    <g id="xtick_13">
     <g id="line2d_25">
      <path d="M 219.291418 138.0384 
L 219.291418 7.2 
" clip-path="url(#p382d5164c3)" style="fill: none; stroke-dasharray: 2.96,1.28; stroke-dashoffset: 0; stroke: #f2f2f2; stroke-width: 0.8"/>
     </g>
     <g id="line2d_26">
      <g>
       <use xlink:href="#m39fec29701" x="219.291418" y="138.0384" style="stroke: #000000; stroke-width: 0.6"/>
      </g>
     </g>
    </g>
    <g id="xtick_14">
     <g id="line2d_27">
      <path d="M 233.295773 138.0384 
L 233.295773 7.2 
" clip-path="url(#p382d5164c3)" style="fill: none; stroke-dasharray: 2.96,1.28; stroke-dashoffset: 0; stroke: #f2f2f2; stroke-width: 0.8"/>
     </g>
     <g id="line2d_28">
      <g>
       <use xlink:href="#m39fec29701" x="233.295773" y="138.0384" style="stroke: #000000; stroke-width: 0.6"/>
      </g>
     </g>
    </g>
    <g id="text_3">
     <!-- Period, T (s) -->
     <g transform="translate(119.576 162.85965) scale(0.08 -0.08)">
      <defs>
       <path id="DejaVuSans-50" d="M 1259 4147 
L 1259 2394 
L 2053 2394 
Q 2494 2394 2734 2622 
Q 2975 2850 2975 3272 
Q 2975 3691 2734 3919 
Q 2494 4147 2053 4147 
L 1259 4147 
z
M 628 4666 
L 2053 4666 
Q 2838 4666 3239 4311 
Q 3641 3956 3641 3272 
Q 3641 2581 3239 2228 
Q 2838 1875 2053 1875 
L 1259 1875 
L 1259 0 
L 628 0 
L 628 4666 
z
" transform="scale(0.015625)"/>
       <path id="DejaVuSans-65" d="M 3597 1894 
L 3597 1613 
L 953 1613 
Q 991 1019 1311 708 
Q 1631 397 2203 397 
Q 2534 397 2845 478 
Q 3156 559 3463 722 
L 3463 178 
Q 3153 47 2828 -22 
Q 2503 -91 2169 -91 
Q 1331 -91 842 396 
Q 353 884 353 1716 
Q 353 2575 817 3079 
Q 1281 3584 2069 3584 
Q 2775 3584 3186 3129 
Q 3597 2675 3597 1894 
z
M 3022 2063 
Q 3016 2534 2758 2815 
Q 2500 3097 2075 3097 
Q 1594 3097 1305 2825 
Q 1016 2553 972 2059 
L 3022 2063 
z
" transform="scale(0.015625)"/>
       <path id="DejaVuSans-72" d="M 2631 2963 
Q 2534 3019 2420 3045 
Q 2306 3072 2169 3072 
Q 1681 3072 1420 2755 
Q 1159 2438 1159 1844 
L 1159 0 
L 581 0 
L 581 3500 
L 1159 3500 
L 1159 2956 
Q 1341 3275 1631 3429 
Q 1922 3584 2338 3584 
Q 2397 3584 2469 3576 
Q 2541 3569 2628 3553 
L 2631 2963 
z
" transform="scale(0.015625)"/>
       <path id="DejaVuSans-69" d="M 603 3500 
L 1178 3500 
L 1178 0 
L 603 0 
L 603 3500 
z
M 603 4863 
L 1178 4863 
L 1178 4134 
L 603 4134 
L 603 4863 
z
" transform="scale(0.015625)"/>
       <path id="DejaVuSans-6f" d="M 1959 3097 
Q 1497 3097 1228 2736 
Q 959 2375 959 1747 
Q 959 1119 1226 758 
Q 1494 397 1959 397 
Q 2419 397 2687 759 
Q 2956 1122 2956 1747 
Q 2956 2369 2687 2733 
Q 2419 3097 1959 3097 
z
M 1959 3584 
Q 2709 3584 3137 3096 
Q 3566 2609 3566 1747 
Q 3566 888 3137 398 
Q 2709 -91 1959 -91 
Q 1206 -91 779 398 
Q 353 888 353 1747 
Q 353 2609 779 3096 
Q 1206 3584 1959 3584 
z
" transform="scale(0.015625)"/>
       <path id="DejaVuSans-64" d="M 2906 2969 
L 2906 4863 
L 3481 4863 
L 3481 0 
L 2906 0 
L 2906 525 
Q 2725 213 2448 61 
Q 2172 -91 1784 -91 
Q 1150 -91 751 415 
Q 353 922 353 1747 
Q 353 2572 751 3078 
Q 1150 3584 1784 3584 
Q 2172 3584 2448 3432 
Q 2725 3281 2906 2969 
z
M 947 1747 
Q 947 1113 1208 752 
Q 1469 391 1925 391 
Q 2381 391 2643 752 
Q 2906 1113 2906 1747 
Q 2906 2381 2643 2742 
Q 2381 3103 1925 3103 
Q 1469 3103 1208 2742 
Q 947 2381 947 1747 
z
" transform="scale(0.015625)"/>
       <path id="DejaVuSans-2c" d="M 750 794 
L 1409 794 
L 1409 256 
L 897 -744 
L 494 -744 
L 750 256 
L 750 794 
z
" transform="scale(0.015625)"/>
       <path id="DejaVuSans-20" transform="scale(0.015625)"/>
       <path id="DejaVuSans-54" d="M -19 4666 
L 3928 4666 
L 3928 4134 
L 2272 4134 
L 2272 0 
L 1638 0 
L 1638 4134 
L -19 4134 
L -19 4666 
z
" transform="scale(0.015625)"/>
       <path id="DejaVuSans-28" d="M 1984 4856 
Q 1566 4138 1362 3434 
Q 1159 2731 1159 2009 
Q 1159 1288 1364 580 
Q 1569 -128 1984 -844 
L 1484 -844 
Q 1016 -109 783 600 
Q 550 1309 550 2009 
Q 550 2706 781 3412 
Q 1013 4119 1484 4856 
L 1984 4856 
z
" transform="scale(0.015625)"/>
       <path id="DejaVuSans-73" d="M 2834 3397 
L 2834 2853 
Q 2591 2978 2328 3040 
Q 2066 3103 1784 3103 
Q 1356 3103 1142 2972 
Q 928 2841 928 2578 
Q 928 2378 1081 2264 
Q 1234 2150 1697 2047 
L 1894 2003 
Q 2506 1872 2764 1633 
Q 3022 1394 3022 966 
Q 3022 478 2636 193 
Q 2250 -91 1575 -91 
Q 1294 -91 989 -36 
Q 684 19 347 128 
L 347 722 
Q 666 556 975 473 
Q 1284 391 1588 391 
Q 1994 391 2212 530 
Q 2431 669 2431 922 
Q 2431 1156 2273 1281 
Q 2116 1406 1581 1522 
L 1381 1569 
Q 847 1681 609 1914 
Q 372 2147 372 2553 
Q 372 3047 722 3315 
Q 1072 3584 1716 3584 
Q 2034 3584 2315 3537 
Q 2597 3491 2834 3397 
z
" transform="scale(0.015625)"/>
       <path id="DejaVuSans-29" d="M 513 4856 
L 1013 4856 
Q 1481 4119 1714 3412 
Q 1947 2706 1947 2009 
Q 1947 1309 1714 600 
Q 1481 -109 1013 -844 
L 513 -844 
Q 928 -128 1133 580 
Q 1338 1288 1338 2009 
Q 1338 2731 1133 3434 
Q 928 4138 513 4856 
z
" transform="scale(0.015625)"/>
      </defs>
      <use xlink:href="#DejaVuSans-50"/>
      <use xlink:href="#DejaVuSans-65" x="56.677734"/>
      <use xlink:href="#DejaVuSans-72" x="118.201172"/>
      <use xlink:href="#DejaVuSans-69" x="159.314453"/>
      <use xlink:href="#DejaVuSans-6f" x="187.097656"/>
      <use xlink:href="#DejaVuSans-64" x="248.279297"/>
      <use xlink:href="#DejaVuSans-2c" x="311.755859"/>
      <use xlink:href="#DejaVuSans-20" x="343.542969"/>
      <use xlink:href="#DejaVuSans-54" x="375.330078"/>
      <use xlink:href="#DejaVuSans-20" x="436.414062"/>
      <use xlink:href="#DejaVuSans-28" x="468.201172"/>
      <use xlink:href="#DejaVuSans-73" x="507.214844"/>
      <use xlink:href="#DejaVuSans-29" x="559.314453"/>
     </g>
    </g>
   </g>
   <g id="matplotlib.axis_2">
    <g id="ytick_1">
     <g id="line2d_29">
      <path d="M 44.7425 133.524738 
L 242.2745 133.524738 
" clip-path="url(#p382d5164c3)" style="fill: none; stroke: #d9d9d9; stroke-width: 0.8; stroke-linecap: square"/>
     </g>
     <g id="line2d_30">
      <defs>
       <path id="mda44f320b3" d="M 0 0 
L -3.5 0 
" style="stroke: #000000; stroke-width: 0.8"/>
      </defs>
      <g>
       <use xlink:href="#mda44f320b3" x="44.7425" y="133.524738" style="stroke: #000000; stroke-width: 0.8"/>
      </g>
     </g>
     <g id="text_4">
      <!-- $\mathdefault{10^{-1}}$ -->
      <g transform="translate(18.9425 136.564113) scale(0.08 -0.08)">
       <use xlink:href="#DejaVuSans-31" transform="translate(0 0.684375)"/>
       <use xlink:href="#DejaVuSans-30" transform="translate(63.623047 0.684375)"/>
       <use xlink:href="#DejaVuSans-2212" transform="translate(128.203125 38.965625) scale(0.7)"/>
       <use xlink:href="#DejaVuSans-31" transform="translate(186.855469 38.965625) scale(0.7)"/>
      </g>
     </g>
    </g>
    <g id="ytick_2">
     <g id="line2d_31">
      <path d="M 44.7425 71.937823 
L 242.2745 71.937823 
" clip-path="url(#p382d5164c3)" style="fill: none; stroke: #d9d9d9; stroke-width: 0.8; stroke-linecap: square"/>
     </g>
     <g id="line2d_32">
      <g>
       <use xlink:href="#mda44f320b3" x="44.7425" y="71.937823" style="stroke: #000000; stroke-width: 0.8"/>
      </g>
     </g>
     <g id="text_5">
      <!-- $\mathdefault{10^{0}}$ -->
      <g transform="translate(23.6625 74.977198) scale(0.08 -0.08)">
       <use xlink:href="#DejaVuSans-31" transform="translate(0 0.765625)"/>
       <use xlink:href="#DejaVuSans-30" transform="translate(63.623047 0.765625)"/>
       <use xlink:href="#DejaVuSans-30" transform="translate(128.203125 39.046875) scale(0.7)"/>
      </g>
     </g>
    </g>
    <g id="ytick_3">
     <g id="line2d_33">
      <path d="M 44.7425 10.350909 
L 242.2745 10.350909 
" clip-path="url(#p382d5164c3)" style="fill: none; stroke: #d9d9d9; stroke-width: 0.8; stroke-linecap: square"/>
     </g>
     <g id="line2d_34">
      <g>
       <use xlink:href="#mda44f320b3" x="44.7425" y="10.350909" style="stroke: #000000; stroke-width: 0.8"/>
      </g>
     </g>
     <g id="text_6">
      <!-- $\mathdefault{10^{1}}$ -->
      <g transform="translate(23.6625 13.390284) scale(0.08 -0.08)">
       <use xlink:href="#DejaVuSans-31" transform="translate(0 0.684375)"/>
       <use xlink:href="#DejaVuSans-30" transform="translate(63.623047 0.684375)"/>
       <use xlink:href="#DejaVuSans-31" transform="translate(128.203125 38.965625) scale(0.7)"/>
      </g>
     </g>
    </g>
    <g id="ytick_4">
     <g id="line2d_35">
      <path d="M 44.7425 136.3428 
L 242.2745 136.3428 
" clip-path="url(#p382d5164c3)" style="fill: none; stroke-dasharray: 2.96,1.28; stroke-dashoffset: 0; stroke: #f2f2f2; stroke-width: 0.8"/>
     </g>
     <g id="line2d_36">
      <defs>
       <path id="mb3407ceca7" d="M 0 0 
L -2 0 
" style="stroke: #000000; stroke-width: 0.6"/>
      </defs>
      <g>
       <use xlink:href="#mb3407ceca7" x="44.7425" y="136.3428" style="stroke: #000000; stroke-width: 0.6"/>
      </g>
     </g>
    </g>
    <g id="ytick_5">
     <g id="line2d_37">
      <path d="M 44.7425 114.985229 
L 242.2745 114.985229 
" clip-path="url(#p382d5164c3)" style="fill: none; stroke-dasharray: 2.96,1.28; stroke-dashoffset: 0; stroke: #f2f2f2; stroke-width: 0.8"/>
     </g>
     <g id="line2d_38">
      <g>
       <use xlink:href="#mb3407ceca7" x="44.7425" y="114.985229" style="stroke: #000000; stroke-width: 0.6"/>
      </g>
     </g>
    </g>
    <g id="ytick_6">
     <g id="line2d_39">
      <path d="M 44.7425 104.140312 
L 242.2745 104.140312 
" clip-path="url(#p382d5164c3)" style="fill: none; stroke-dasharray: 2.96,1.28; stroke-dashoffset: 0; stroke: #f2f2f2; stroke-width: 0.8"/>
     </g>
     <g id="line2d_40">
      <g>
       <use xlink:href="#mb3407ceca7" x="44.7425" y="104.140312" style="stroke: #000000; stroke-width: 0.6"/>
      </g>
     </g>
    </g>
    <g id="ytick_7">
     <g id="line2d_41">
      <path d="M 44.7425 96.445721 
L 242.2745 96.445721 
" clip-path="url(#p382d5164c3)" style="fill: none; stroke-dasharray: 2.96,1.28; stroke-dashoffset: 0; stroke: #f2f2f2; stroke-width: 0.8"/>
     </g>
     <g id="line2d_42">
      <g>
       <use xlink:href="#mb3407ceca7" x="44.7425" y="96.445721" style="stroke: #000000; stroke-width: 0.6"/>
      </g>
     </g>
    </g>
    <g id="ytick_8">
     <g id="line2d_43">
      <path d="M 44.7425 90.477332 
L 242.2745 90.477332 
" clip-path="url(#p382d5164c3)" style="fill: none; stroke-dasharray: 2.96,1.28; stroke-dashoffset: 0; stroke: #f2f2f2; stroke-width: 0.8"/>
     </g>
     <g id="line2d_44">
      <g>
       <use xlink:href="#mb3407ceca7" x="44.7425" y="90.477332" style="stroke: #000000; stroke-width: 0.6"/>
      </g>
     </g>
    </g>
    <g id="ytick_9">
     <g id="line2d_45">
      <path d="M 44.7425 85.600803 
L 242.2745 85.600803 
" clip-path="url(#p382d5164c3)" style="fill: none; stroke-dasharray: 2.96,1.28; stroke-dashoffset: 0; stroke: #f2f2f2; stroke-width: 0.8"/>
     </g>
     <g id="line2d_46">
      <g>
       <use xlink:href="#mb3407ceca7" x="44.7425" y="85.600803" style="stroke: #000000; stroke-width: 0.6"/>
      </g>
     </g>
    </g>
    <g id="ytick_10">
     <g id="line2d_47">
      <path d="M 44.7425 81.477757 
L 242.2745 81.477757 
" clip-path="url(#p382d5164c3)" style="fill: none; stroke-dasharray: 2.96,1.28; stroke-dashoffset: 0; stroke: #f2f2f2; stroke-width: 0.8"/>
     </g>
     <g id="line2d_48">
      <g>
       <use xlink:href="#mb3407ceca7" x="44.7425" y="81.477757" style="stroke: #000000; stroke-width: 0.6"/>
      </g>
     </g>
    </g>
    <g id="ytick_11">
     <g id="line2d_49">
      <path d="M 44.7425 77.906212 
L 242.2745 77.906212 
" clip-path="url(#p382d5164c3)" style="fill: none; stroke-dasharray: 2.96,1.28; stroke-dashoffset: 0; stroke: #f2f2f2; stroke-width: 0.8"/>
     </g>
     <g id="line2d_50">
      <g>
       <use xlink:href="#mb3407ceca7" x="44.7425" y="77.906212" style="stroke: #000000; stroke-width: 0.6"/>
      </g>
     </g>
    </g>
    <g id="ytick_12">
     <g id="line2d_51">
      <path d="M 44.7425 74.755886 
L 242.2745 74.755886 
" clip-path="url(#p382d5164c3)" style="fill: none; stroke-dasharray: 2.96,1.28; stroke-dashoffset: 0; stroke: #f2f2f2; stroke-width: 0.8"/>
     </g>
     <g id="line2d_52">
      <g>
       <use xlink:href="#mb3407ceca7" x="44.7425" y="74.755886" style="stroke: #000000; stroke-width: 0.6"/>
      </g>
     </g>
    </g>
    <g id="ytick_13">
     <g id="line2d_53">
      <path d="M 44.7425 53.398315 
L 242.2745 53.398315 
" clip-path="url(#p382d5164c3)" style="fill: none; stroke-dasharray: 2.96,1.28; stroke-dashoffset: 0; stroke: #f2f2f2; stroke-width: 0.8"/>
     </g>
     <g id="line2d_54">
      <g>
       <use xlink:href="#mb3407ceca7" x="44.7425" y="53.398315" style="stroke: #000000; stroke-width: 0.6"/>
      </g>
     </g>
    </g>
    <g id="ytick_14">
     <g id="line2d_55">
      <path d="M 44.7425 42.553397 
L 242.2745 42.553397 
" clip-path="url(#p382d5164c3)" style="fill: none; stroke-dasharray: 2.96,1.28; stroke-dashoffset: 0; stroke: #f2f2f2; stroke-width: 0.8"/>
     </g>
     <g id="line2d_56">
      <g>
       <use xlink:href="#mb3407ceca7" x="44.7425" y="42.553397" style="stroke: #000000; stroke-width: 0.6"/>
      </g>
     </g>
    </g>
    <g id="ytick_15">
     <g id="line2d_57">
      <path d="M 44.7425 34.858806 
L 242.2745 34.858806 
" clip-path="url(#p382d5164c3)" style="fill: none; stroke-dasharray: 2.96,1.28; stroke-dashoffset: 0; stroke: #f2f2f2; stroke-width: 0.8"/>
     </g>
     <g id="line2d_58">
      <g>
       <use xlink:href="#mb3407ceca7" x="44.7425" y="34.858806" style="stroke: #000000; stroke-width: 0.6"/>
      </g>
     </g>
    </g>
    <g id="ytick_16">
     <g id="line2d_59">
      <path d="M 44.7425 28.890417 
L 242.2745 28.890417 
" clip-path="url(#p382d5164c3)" style="fill: none; stroke-dasharray: 2.96,1.28; stroke-dashoffset: 0; stroke: #f2f2f2; stroke-width: 0.8"/>
     </g>
     <g id="line2d_60">
      <g>
       <use xlink:href="#mb3407ceca7" x="44.7425" y="28.890417" style="stroke: #000000; stroke-width: 0.6"/>
      </g>
     </g>
    </g>
    <g id="ytick_17">
     <g id="line2d_61">
      <path d="M 44.7425 24.013889 
L 242.2745 24.013889 
" clip-path="url(#p382d5164c3)" style="fill: none; stroke-dasharray: 2.96,1.28; stroke-dashoffset: 0; stroke: #f2f2f2; stroke-width: 0.8"/>
     </g>
     <g id="line2d_62">
      <g>
       <use xlink:href="#mb3407ceca7" x="44.7425" y="24.013889" style="stroke: #000000; stroke-width: 0.6"/>
      </g>
     </g>
    </g>
    <g id="ytick_18">
     <g id="line2d_63">
      <path d="M 44.7425 19.890843 
L 242.2745 19.890843 
" clip-path="url(#p382d5164c3)" style="fill: none; stroke-dasharray: 2.96,1.28; stroke-dashoffset: 0; stroke: #f2f2f2; stroke-width: 0.8"/>
     </g>
     <g id="line2d_64">
      <g>
       <use xlink:href="#mb3407ceca7" x="44.7425" y="19.890843" style="stroke: #000000; stroke-width: 0.6"/>
      </g>
     </g>
    </g>
    <g id="ytick_19">
     <g id="line2d_65">
      <path d="M 44.7425 16.319298 
L 242.2745 16.319298 
" clip-path="url(#p382d5164c3)" style="fill: none; stroke-dasharray: 2.96,1.28; stroke-dashoffset: 0; stroke: #f2f2f2; stroke-width: 0.8"/>
     </g>
     <g id="line2d_66">
      <g>
       <use xlink:href="#mb3407ceca7" x="44.7425" y="16.319298" style="stroke: #000000; stroke-width: 0.6"/>
      </g>
     </g>
    </g>
    <g id="ytick_20">
     <g id="line2d_67">
      <path d="M 44.7425 13.168971 
L 242.2745 13.168971 
" clip-path="url(#p382d5164c3)" style="fill: none; stroke-dasharray: 2.96,1.28; stroke-dashoffset: 0; stroke: #f2f2f2; stroke-width: 0.8"/>
     </g>
     <g id="line2d_68">
      <g>
       <use xlink:href="#mb3407ceca7" x="44.7425" y="13.168971" style="stroke: #000000; stroke-width: 0.6"/>
      </g>
     </g>
    </g>
    <g id="text_7">
     <!-- Spectral acceleration, SA (g) -->
     <g transform="translate(13.27875 129.871075) rotate(-90) scale(0.08 -0.08)">
      <defs>
       <path id="DejaVuSans-53" d="M 3425 4513 
L 3425 3897 
Q 3066 4069 2747 4153 
Q 2428 4238 2131 4238 
Q 1616 4238 1336 4038 
Q 1056 3838 1056 3469 
Q 1056 3159 1242 3001 
Q 1428 2844 1947 2747 
L 2328 2669 
Q 3034 2534 3370 2195 
Q 3706 1856 3706 1288 
Q 3706 609 3251 259 
Q 2797 -91 1919 -91 
Q 1588 -91 1214 -16 
Q 841 59 441 206 
L 441 856 
Q 825 641 1194 531 
Q 1563 422 1919 422 
Q 2459 422 2753 634 
Q 3047 847 3047 1241 
Q 3047 1584 2836 1778 
Q 2625 1972 2144 2069 
L 1759 2144 
Q 1053 2284 737 2584 
Q 422 2884 422 3419 
Q 422 4038 858 4394 
Q 1294 4750 2059 4750 
Q 2388 4750 2728 4690 
Q 3069 4631 3425 4513 
z
" transform="scale(0.015625)"/>
       <path id="DejaVuSans-70" d="M 1159 525 
L 1159 -1331 
L 581 -1331 
L 581 3500 
L 1159 3500 
L 1159 2969 
Q 1341 3281 1617 3432 
Q 1894 3584 2278 3584 
Q 2916 3584 3314 3078 
Q 3713 2572 3713 1747 
Q 3713 922 3314 415 
Q 2916 -91 2278 -91 
Q 1894 -91 1617 61 
Q 1341 213 1159 525 
z
M 3116 1747 
Q 3116 2381 2855 2742 
Q 2594 3103 2138 3103 
Q 1681 3103 1420 2742 
Q 1159 2381 1159 1747 
Q 1159 1113 1420 752 
Q 1681 391 2138 391 
Q 2594 391 2855 752 
Q 3116 1113 3116 1747 
z
" transform="scale(0.015625)"/>
       <path id="DejaVuSans-63" d="M 3122 3366 
L 3122 2828 
Q 2878 2963 2633 3030 
Q 2388 3097 2138 3097 
Q 1578 3097 1268 2742 
Q 959 2388 959 1747 
Q 959 1106 1268 751 
Q 1578 397 2138 397 
Q 2388 397 2633 464 
Q 2878 531 3122 666 
L 3122 134 
Q 2881 22 2623 -34 
Q 2366 -91 2075 -91 
Q 1284 -91 818 406 
Q 353 903 353 1747 
Q 353 2603 823 3093 
Q 1294 3584 2113 3584 
Q 2378 3584 2631 3529 
Q 2884 3475 3122 3366 
z
" transform="scale(0.015625)"/>
       <path id="DejaVuSans-74" d="M 1172 4494 
L 1172 3500 
L 2356 3500 
L 2356 3053 
L 1172 3053 
L 1172 1153 
Q 1172 725 1289 603 
Q 1406 481 1766 481 
L 2356 481 
L 2356 0 
L 1766 0 
Q 1100 0 847 248 
Q 594 497 594 1153 
L 594 3053 
L 172 3053 
L 172 3500 
L 594 3500 
L 594 4494 
L 1172 4494 
z
" transform="scale(0.015625)"/>
       <path id="DejaVuSans-61" d="M 2194 1759 
Q 1497 1759 1228 1600 
Q 959 1441 959 1056 
Q 959 750 1161 570 
Q 1363 391 1709 391 
Q 2188 391 2477 730 
Q 2766 1069 2766 1631 
L 2766 1759 
L 2194 1759 
z
M 3341 1997 
L 3341 0 
L 2766 0 
L 2766 531 
Q 2569 213 2275 61 
Q 1981 -91 1556 -91 
Q 1019 -91 701 211 
Q 384 513 384 1019 
Q 384 1609 779 1909 
Q 1175 2209 1959 2209 
L 2766 2209 
L 2766 2266 
Q 2766 2663 2505 2880 
Q 2244 3097 1772 3097 
Q 1472 3097 1187 3025 
Q 903 2953 641 2809 
L 641 3341 
Q 956 3463 1253 3523 
Q 1550 3584 1831 3584 
Q 2591 3584 2966 3190 
Q 3341 2797 3341 1997 
z
" transform="scale(0.015625)"/>
       <path id="DejaVuSans-6c" d="M 603 4863 
L 1178 4863 
L 1178 0 
L 603 0 
L 603 4863 
z
" transform="scale(0.015625)"/>
       <path id="DejaVuSans-6e" d="M 3513 2113 
L 3513 0 
L 2938 0 
L 2938 2094 
Q 2938 2591 2744 2837 
Q 2550 3084 2163 3084 
Q 1697 3084 1428 2787 
Q 1159 2491 1159 1978 
L 1159 0 
L 581 0 
L 581 3500 
L 1159 3500 
L 1159 2956 
Q 1366 3272 1645 3428 
Q 1925 3584 2291 3584 
Q 2894 3584 3203 3211 
Q 3513 2838 3513 2113 
z
" transform="scale(0.015625)"/>
       <path id="DejaVuSans-41" d="M 2188 4044 
L 1331 1722 
L 3047 1722 
L 2188 4044 
z
M 1831 4666 
L 2547 4666 
L 4325 0 
L 3669 0 
L 3244 1197 
L 1141 1197 
L 716 0 
L 50 0 
L 1831 4666 
z
" transform="scale(0.015625)"/>
       <path id="DejaVuSans-67" d="M 2906 1791 
Q 2906 2416 2648 2759 
Q 2391 3103 1925 3103 
Q 1463 3103 1205 2759 
Q 947 2416 947 1791 
Q 947 1169 1205 825 
Q 1463 481 1925 481 
Q 2391 481 2648 825 
Q 2906 1169 2906 1791 
z
M 3481 434 
Q 3481 -459 3084 -895 
Q 2688 -1331 1869 -1331 
Q 1566 -1331 1297 -1286 
Q 1028 -1241 775 -1147 
L 775 -588 
Q 1028 -725 1275 -790 
Q 1522 -856 1778 -856 
Q 2344 -856 2625 -561 
Q 2906 -266 2906 331 
L 2906 616 
Q 2728 306 2450 153 
Q 2172 0 1784 0 
Q 1141 0 747 490 
Q 353 981 353 1791 
Q 353 2603 747 3093 
Q 1141 3584 1784 3584 
Q 2172 3584 2450 3431 
Q 2728 3278 2906 2969 
L 2906 3500 
L 3481 3500 
L 3481 434 
z
" transform="scale(0.015625)"/>
      </defs>
      <use xlink:href="#DejaVuSans-53"/>
      <use xlink:href="#DejaVuSans-70" x="63.476562"/>
      <use xlink:href="#DejaVuSans-65" x="126.953125"/>
      <use xlink:href="#DejaVuSans-63" x="188.476562"/>
      <use xlink:href="#DejaVuSans-74" x="243.457031"/>
      <use xlink:href="#DejaVuSans-72" x="282.666016"/>
      <use xlink:href="#DejaVuSans-61" x="323.779297"/>
      <use xlink:href="#DejaVuSans-6c" x="385.058594"/>
      <use xlink:href="#DejaVuSans-20" x="412.841797"/>
      <use xlink:href="#DejaVuSans-61" x="444.628906"/>
      <use xlink:href="#DejaVuSans-63" x="505.908203"/>
      <use xlink:href="#DejaVuSans-63" x="560.888672"/>
      <use xlink:href="#DejaVuSans-65" x="615.869141"/>
      <use xlink:href="#DejaVuSans-6c" x="677.392578"/>
      <use xlink:href="#DejaVuSans-65" x="705.175781"/>
      <use xlink:href="#DejaVuSans-72" x="766.699219"/>
      <use xlink:href="#DejaVuSans-61" x="807.8125"/>
      <use xlink:href="#DejaVuSans-74" x="869.091797"/>
      <use xlink:href="#DejaVuSans-69" x="908.300781"/>
      <use xlink:href="#DejaVuSans-6f" x="936.083984"/>
      <use xlink:href="#DejaVuSans-6e" x="997.265625"/>
      <use xlink:href="#DejaVuSans-2c" x="1060.644531"/>
      <use xlink:href="#DejaVuSans-20" x="1092.431641"/>
      <use xlink:href="#DejaVuSans-53" x="1124.21875"/>
      <use xlink:href="#DejaVuSans-41" x="1189.570312"/>
      <use xlink:href="#DejaVuSans-20" x="1257.978516"/>
      <use xlink:href="#DejaVuSans-28" x="1289.765625"/>
      <use xlink:href="#DejaVuSans-67" x="1328.779297"/>
      <use xlink:href="#DejaVuSans-29" x="1392.255859"/>
     </g>
    </g>
   </g>
   <g id="line2d_69">
    <path d="M 53.721227 13.1472 
L 73.459257 16.575818 
L 87.463612 23.482224 
L 98.326234 27.705569 
L 107.201642 31.263248 
L 121.205997 36.445185 
L 132.068618 45.867944 
L 137.236494 48.189523 
L 151.806648 53.936508 
L 165.811003 60.383209 
L 178.582888 68.446598 
L 185.549033 72.565071 
L 199.553388 78.693698 
L 219.291418 92.111721 
L 233.295773 106.456108 
" clip-path="url(#p382d5164c3)" style="fill: none; stroke: #b2b2b2; stroke-width: 0.8; stroke-linecap: square"/>
   </g>
   <g id="line2d_70">
    <path d="M 53.721227 63.627852 
L 73.459257 61.073142 
L 87.463612 59.502033 
L 98.326234 57.067528 
L 107.201642 55.636966 
L 121.205997 51.328431 
L 132.068618 48.982315 
L 137.236494 48.189523 
L 151.806648 50.183169 
L 165.811003 55.783729 
L 178.582888 63.956278 
L 185.549033 68.509978 
L 199.553388 80.55725 
L 219.291418 102.430222 
L 233.295773 117.722465 
" clip-path="url(#p382d5164c3)" style="fill: none; stroke: #b2b2b2; stroke-width: 0.8; stroke-linecap: square"/>
   </g>
   <g id="line2d_71">
    <path d="M 53.721227 68.443541 
L 73.459257 64.911995 
L 87.463612 62.423692 
L 98.326234 59.462154 
L 107.201642 56.146933 
L 121.205997 49.813996 
L 132.068618 47.988358 
L 137.236494 48.189523 
L 151.806648 55.181936 
L 165.811003 62.880602 
L 178.582888 68.473949 
L 185.549033 73.160708 
L 199.553388 81.67072 
L 219.291418 100.039339 
L 233.295773 112.916329 
" clip-path="url(#p382d5164c3)" style="fill: none; stroke: #b2b2b2; stroke-width: 0.8; stroke-linecap: square"/>
   </g>
   <g id="line2d_72">
    <path d="M 53.721227 65.026947 
L 73.459257 62.917801 
L 87.463612 60.759916 
L 98.326234 56.752027 
L 107.201642 54.043431 
L 121.205997 51.722007 
L 132.068618 49.744484 
L 137.236494 48.189523 
L 151.806648 50.628055 
L 165.811003 59.634562 
L 178.582888 71.078987 
L 185.549033 76.430179 
L 199.553388 88.473682 
L 219.291418 96.876418 
L 233.295773 108.05456 
" clip-path="url(#p382d5164c3)" style="fill: none; stroke: #b2b2b2; stroke-width: 0.8; stroke-linecap: square"/>
   </g>
   <g id="line2d_73">
    <path d="M 53.721227 59.851004 
L 73.459257 52.748103 
L 87.463612 48.209296 
L 98.326234 46.048839 
L 107.201642 44.330775 
L 121.205997 46.018971 
L 132.068618 48.799656 
L 137.236494 48.189523 
L 151.806648 54.988397 
L 165.811003 61.807234 
L 178.582888 68.539602 
L 185.549033 72.01263 
L 199.553388 81.833315 
L 219.291418 96.197664 
L 233.295773 113.541912 
" clip-path="url(#p382d5164c3)" style="fill: none; stroke: #b2b2b2; stroke-width: 0.8; stroke-linecap: square"/>
   </g>
   <g id="line2d_74">
    <path d="M 53.721227 49.980422 
L 73.459257 43.942894 
L 87.463612 41.282545 
L 98.326234 40.295229 
L 107.201642 39.863087 
L 121.205997 43.672392 
L 132.068618 45.987957 
L 137.236494 48.189523 
L 151.806648 55.585021 
L 165.811003 62.557177 
L 178.582888 69.040605 
L 185.549033 73.439902 
L 199.553388 85.345835 
L 219.291418 98.823516 
L 233.295773 111.156773 
" clip-path="url(#p382d5164c3)" style="fill: none; stroke: #b2b2b2; stroke-width: 0.8; stroke-linecap: square"/>
   </g>
   <g id="line2d_75">
    <path d="M 53.721227 55.338696 
L 73.459257 49.631989 
L 87.463612 44.487803 
L 98.326234 43.551042 
L 107.201642 42.19344 
L 121.205997 44.868529 
L 132.068618 48.34283 
L 137.236494 48.189523 
L 151.806648 56.654193 
L 165.811003 62.127308 
L 178.582888 71.15004 
L 185.549033 75.372299 
L 199.553388 86.272244 
L 219.291418 99.568708 
L 233.295773 110.053453 
" clip-path="url(#p382d5164c3)" style="fill: none; stroke: #b2b2b2; stroke-width: 0.8; stroke-linecap: square"/>
   </g>
   <g id="line2d_76">
    <path d="M 53.721227 60.878775 
L 73.459257 54.482452 
L 87.463612 52.531083 
L 98.326234 51.355724 
L 107.201642 49.114804 
L 121.205997 46.961164 
L 132.068618 47.990371 
L 137.236494 48.189523 
L 151.806648 51.445278 
L 165.811003 58.37181 
L 178.582888 65.685258 
L 185.549033 70.801143 
L 199.553388 81.696473 
L 219.291418 96.798864 
L 233.295773 111.258826 
" clip-path="url(#p382d5164c3)" style="fill: none; stroke: #b2b2b2; stroke-width: 0.8; stroke-linecap: square"/>
   </g>
   <g id="line2d_77">
    <path d="M 53.721227 39.028812 
L 73.459257 35.194908 
L 87.463612 40.030625 
L 98.326234 40.652601 
L 107.201642 42.973153 
L 121.205997 45.324499 
L 132.068618 48.481089 
L 137.236494 48.189523 
L 151.806648 54.7433 
L 165.811003 61.122931 
L 178.582888 68.648702 
L 185.549033 73.776981 
L 199.553388 84.660645 
L 219.291418 100.111827 
L 233.295773 113.41273 
" clip-path="url(#p382d5164c3)" style="fill: none; stroke: #b2b2b2; stroke-width: 0.8; stroke-linecap: square"/>
   </g>
   <g id="line2d_78">
    <path d="M 53.721227 62.944335 
L 73.459257 56.612474 
L 87.463612 52.82384 
L 98.326234 49.891801 
L 107.201642 47.896557 
L 121.205997 47.87476 
L 132.068618 47.989824 
L 137.236494 48.189523 
L 151.806648 57.298439 
L 165.811003 64.473579 
L 178.582888 70.279682 
L 185.549033 73.542506 
L 199.553388 79.992868 
L 219.291418 92.617724 
L 233.295773 100.908945 
" clip-path="url(#p382d5164c3)" style="fill: none; stroke: #b2b2b2; stroke-width: 0.8; stroke-linecap: square"/>
   </g>
   <g id="line2d_79">
    <path d="M 53.721227 31.410924 
L 73.459257 29.590599 
L 87.463612 30.623087 
L 98.326234 31.173908 
L 107.201642 32.940502 
L 121.205997 39.152717 
L 132.068618 44.332385 
L 137.236494 48.189523 
L 151.806648 59.243761 
L 165.811003 69.497906 
L 178.582888 81.369024 
L 185.549033 86.172094 
L 199.553388 94.10404 
L 219.291418 110.239761 
L 233.295773 120.9004 
" clip-path="url(#p382d5164c3)" style="fill: none; stroke: #b2b2b2; stroke-width: 0.8; stroke-linecap: square"/>
   </g>
   <g id="line2d_80">
    <path d="M 53.721227 48.19966 
L 73.459257 44.782256 
L 87.463612 40.249304 
L 98.326234 39.306137 
L 107.201642 40.186442 
L 121.205997 41.269397 
L 132.068618 45.389669 
L 137.236494 48.189523 
L 151.806648 53.367074 
L 165.811003 58.035063 
L 178.582888 69.340502 
L 185.549033 76.568412 
L 199.553388 85.470561 
L 219.291418 105.002194 
L 233.295773 117.989863 
" clip-path="url(#p382d5164c3)" style="fill: none; stroke: #b2b2b2; stroke-width: 0.8; stroke-linecap: square"/>
   </g>
   <g id="line2d_81">
    <path d="M 53.721227 31.16842 
L 73.459257 31.006102 
L 87.463612 32.534911 
L 98.326234 34.374021 
L 107.201642 35.747534 
L 121.205997 39.772078 
L 132.068618 42.914158 
L 137.236494 48.189523 
L 151.806648 53.213594 
L 165.811003 62.748107 
L 178.582888 71.37324 
L 185.549033 71.847805 
L 199.553388 80.297472 
L 219.291418 90.14731 
L 233.295773 105.679624 
" clip-path="url(#p382d5164c3)" style="fill: none; stroke: #b2b2b2; stroke-width: 0.8; stroke-linecap: square"/>
   </g>
   <g id="line2d_82">
    <path d="M 53.721227 60.093541 
L 73.459257 53.984466 
L 87.463612 51.225806 
L 98.326234 49.95387 
L 107.201642 49.850303 
L 121.205997 46.756826 
L 132.068618 48.01543 
L 137.236494 48.189523 
L 151.806648 52.17401 
L 165.811003 56.302196 
L 178.582888 61.631344 
L 185.549033 65.011875 
L 199.553388 70.664017 
L 219.291418 84.710022 
L 233.295773 92.019603 
" clip-path="url(#p382d5164c3)" style="fill: none; stroke: #b2b2b2; stroke-width: 0.8; stroke-linecap: square"/>
   </g>
   <g id="line2d_83">
    <path d="M 53.721227 42.686135 
L 73.459257 40.118544 
L 87.463612 35.857431 
L 98.326234 35.446969 
L 107.201642 37.267607 
L 121.205997 41.47928 
L 132.068618 46.550417 
L 137.236494 48.189523 
L 151.806648 55.931744 
L 165.811003 63.985341 
L 178.582888 74.751479 
L 185.549033 77.951566 
L 199.553388 90.090484 
L 219.291418 109.253895 
L 233.295773 122.359076 
" clip-path="url(#p382d5164c3)" style="fill: none; stroke: #b2b2b2; stroke-width: 0.8; stroke-linecap: square"/>
   </g>
   <g id="line2d_84">
    <path d="M 53.721227 33.401717 
L 73.459257 31.373762 
L 87.463612 34.059793 
L 98.326234 36.330907 
L 107.201642 38.398637 
L 121.205997 41.442377 
L 132.068618 44.989391 
L 137.236494 48.189523 
L 151.806648 57.735239 
L 165.811003 64.790554 
L 178.582888 72.068262 
L 185.549033 75.657125 
L 199.553388 82.931616 
L 219.291418 95.869763 
L 233.295773 106.313582 
" clip-path="url(#p382d5164c3)" style="fill: none; stroke: #b2b2b2; stroke-width: 0.8; stroke-linecap: square"/>
   </g>
   <g id="line2d_85">
    <path d="M 53.721227 46.722185 
L 73.459257 41.682696 
L 87.463612 36.357378 
L 98.326234 35.199872 
L 107.201642 37.138293 
L 121.205997 41.531492 
L 132.068618 44.177967 
L 137.236494 48.189523 
L 151.806648 58.081108 
L 165.811003 63.526617 
L 178.582888 74.386323 
L 185.549033 79.024253 
L 199.553388 89.427333 
L 219.291418 108.168542 
L 233.295773 122.680754 
" clip-path="url(#p382d5164c3)" style="fill: none; stroke: #b2b2b2; stroke-width: 0.8; stroke-linecap: square"/>
   </g>
   <g id="line2d_86">
    <path d="M 53.721227 59.626731 
L 73.459257 53.980876 
L 87.463612 51.65814 
L 98.326234 51.757316 
L 107.201642 50.386494 
L 121.205997 51.11671 
L 132.068618 49.514229 
L 137.236494 48.189523 
L 151.806648 47.45571 
L 165.811003 52.649444 
L 178.582888 60.861033 
L 185.549033 65.027529 
L 199.553388 75.286116 
L 219.291418 91.130314 
L 233.295773 105.175287 
" clip-path="url(#p382d5164c3)" style="fill: none; stroke: #b2b2b2; stroke-width: 0.8; stroke-linecap: square"/>
   </g>
   <g id="line2d_87">
    <path d="M 53.721227 53.658028 
L 73.459257 48.882601 
L 87.463612 42.96885 
L 98.326234 41.639323 
L 107.201642 42.264834 
L 121.205997 44.985363 
L 132.068618 45.703196 
L 137.236494 48.189523 
L 151.806648 55.971715 
L 165.811003 61.310399 
L 178.582888 66.813358 
L 185.549033 70.454751 
L 199.553388 78.85989 
L 219.291418 95.664797 
L 233.295773 103.167722 
" clip-path="url(#p382d5164c3)" style="fill: none; stroke: #b2b2b2; stroke-width: 0.8; stroke-linecap: square"/>
   </g>
   <g id="line2d_88">
    <path d="M 53.721227 41.638981 
L 73.459257 37.888922 
L 87.463612 38.739026 
L 98.326234 40.485738 
L 107.201642 41.054985 
L 121.205997 42.077481 
L 132.068618 47.394263 
L 137.236494 48.189523 
L 151.806648 55.884305 
L 165.811003 63.282141 
L 178.582888 71.506415 
L 185.549033 76.289816 
L 199.553388 88.551166 
L 219.291418 102.575012 
L 233.295773 109.075639 
" clip-path="url(#p382d5164c3)" style="fill: none; stroke: #b2b2b2; stroke-width: 0.8; stroke-linecap: square"/>
   </g>
   <g id="line2d_89">
    <path d="M 53.721227 54.621532 
L 73.459257 53.573209 
L 87.463612 53.317234 
L 98.326234 50.491737 
L 107.201642 49.713406 
L 121.205997 47.938801 
L 132.068618 46.860423 
L 137.236494 48.189523 
L 151.806648 47.115112 
L 165.811003 44.803311 
L 178.582888 48.631415 
L 185.549033 51.860586 
L 199.553388 61.6212 
L 219.291418 79.712822 
L 233.295773 95.031222 
" clip-path="url(#p382d5164c3)" style="fill: none; stroke: #b2b2b2; stroke-width: 0.8; stroke-linecap: square"/>
   </g>
   <g id="line2d_90">
    <path d="M 53.721227 58.231405 
L 73.459257 50.959429 
L 87.463612 49.955588 
L 98.326234 51.707555 
L 107.201642 51.914761 
L 121.205997 48.902028 
L 132.068618 48.74266 
L 137.236494 48.189523 
L 151.806648 49.899779 
L 165.811003 59.505188 
L 178.582888 68.126391 
L 185.549033 73.381005 
L 199.553388 86.322302 
L 219.291418 104.611777 
L 233.295773 118.607094 
" clip-path="url(#p382d5164c3)" style="fill: none; stroke: #b2b2b2; stroke-width: 0.8; stroke-linecap: square"/>
   </g>
   <g id="line2d_91">
    <path d="M 53.721227 54.154811 
L 73.459257 47.335713 
L 87.463612 44.017958 
L 98.326234 43.336781 
L 107.201642 43.039524 
L 121.205997 44.933917 
L 132.068618 44.846115 
L 137.236494 48.189523 
L 151.806648 57.545467 
L 165.811003 65.126432 
L 178.582888 75.935326 
L 185.549033 83.215098 
L 199.553388 94.759001 
L 219.291418 116.637938 
L 233.295773 131.941826 
" clip-path="url(#p382d5164c3)" style="fill: none; stroke: #b2b2b2; stroke-width: 0.8; stroke-linecap: square"/>
   </g>
   <g id="line2d_92">
    <path d="M 53.721227 50.863669 
L 73.459257 45.434071 
L 87.463612 45.588717 
L 98.326234 46.540942 
L 107.201642 45.605545 
L 121.205997 47.427432 
L 132.068618 48.004713 
L 137.236494 48.189523 
L 151.806648 51.020547 
L 165.811003 57.920418 
L 178.582888 58.456538 
L 185.549033 59.259238 
L 199.553388 67.43896 
L 219.291418 75.949522 
L 233.295773 86.298709 
" clip-path="url(#p382d5164c3)" style="fill: none; stroke: #b2b2b2; stroke-width: 0.8; stroke-linecap: square"/>
   </g>
   <g id="line2d_93">
    <path d="M 53.721227 51.592261 
L 73.459257 46.964704 
L 87.463612 41.579294 
L 98.326234 40.315012 
L 107.201642 41.377107 
L 121.205997 43.528638 
L 132.068618 46.807807 
L 137.236494 48.189523 
L 151.806648 50.587928 
L 165.811003 55.337555 
L 178.582888 59.611133 
L 185.549033 62.862305 
L 199.553388 72.924976 
L 219.291418 92.38283 
L 233.295773 107.077065 
" clip-path="url(#p382d5164c3)" style="fill: none; stroke: #b2b2b2; stroke-width: 0.8; stroke-linecap: square"/>
   </g>
   <g id="line2d_94">
    <path d="M 53.721227 47.734588 
L 73.459257 47.473546 
L 87.463612 46.373399 
L 98.326234 45.418869 
L 107.201642 45.681068 
L 121.205997 46.562743 
L 132.068618 47.21879 
L 137.236494 48.189523 
L 151.806648 47.143934 
L 165.811003 49.004416 
L 178.582888 54.333208 
L 185.549033 57.513054 
L 199.553388 63.553417 
L 219.291418 77.103486 
L 233.295773 89.988018 
" clip-path="url(#p382d5164c3)" style="fill: none; stroke: #b2b2b2; stroke-width: 0.8; stroke-linecap: square"/>
   </g>
   <g id="line2d_95">
    <path d="M 53.721227 48.294905 
L 73.459257 47.675177 
L 87.463612 45.735809 
L 98.326234 47.374161 
L 107.201642 47.765338 
L 121.205997 47.150203 
L 132.068618 46.801867 
L 137.236494 48.189523 
L 151.806648 50.818756 
L 165.811003 56.0242 
L 178.582888 66.927487 
L 185.549033 75.1257 
L 199.553388 89.171367 
L 219.291418 105.901981 
L 233.295773 115.762988 
" clip-path="url(#p382d5164c3)" style="fill: none; stroke: #b2b2b2; stroke-width: 0.8; stroke-linecap: square"/>
   </g>
   <g id="line2d_96">
    <path d="M 53.721227 49.82783 
L 73.459257 46.755421 
L 87.463612 45.319301 
L 98.326234 45.629309 
L 107.201642 45.447217 
L 121.205997 44.606032 
L 132.068618 45.458035 
L 137.236494 48.189523 
L 151.806648 54.190493 
L 165.811003 60.804675 
L 178.582888 71.922371 
L 185.549033 77.761103 
L 199.553388 93.462357 
L 219.291418 113.935607 
L 233.295773 128.964372 
" clip-path="url(#p382d5164c3)" style="fill: none; stroke: #b2b2b2; stroke-width: 0.8; stroke-linecap: square"/>
   </g>
   <g id="line2d_97">
    <path d="M 53.721227 54.844974 
L 73.459257 51.896564 
L 87.463612 48.819137 
L 98.326234 45.363267 
L 107.201642 47.24616 
L 121.205997 48.874123 
L 132.068618 47.746812 
L 137.236494 48.189523 
L 151.806648 53.219553 
L 165.811003 58.45441 
L 178.582888 61.114387 
L 185.549033 63.533964 
L 199.553388 70.342965 
L 219.291418 88.533506 
L 233.295773 101.7495 
" clip-path="url(#p382d5164c3)" style="fill: none; stroke: #b2b2b2; stroke-width: 0.8; stroke-linecap: square"/>
   </g>
   <g id="line2d_98">
    <path d="M 53.721227 59.0902 
L 73.459257 54.317249 
L 87.463612 50.48345 
L 98.326234 48.744177 
L 107.201642 47.025926 
L 121.205997 45.56677 
L 132.068618 47.619928 
L 137.236494 48.189523 
L 151.806648 52.908405 
L 165.811003 62.457053 
L 178.582888 67.556889 
L 185.549033 71.189296 
L 199.553388 81.059663 
L 219.291418 94.421215 
L 233.295773 101.67988 
" clip-path="url(#p382d5164c3)" style="fill: none; stroke: #b2b2b2; stroke-width: 0.8; stroke-linecap: square"/>
   </g>
   <g id="line2d_99">
    <path d="M 53.721227 41.192765 
L 73.459257 33.704961 
L 87.463612 32.843439 
L 98.326234 33.469322 
L 107.201642 37.474794 
L 121.205997 41.742634 
L 132.068618 45.697471 
L 137.236494 48.189523 
L 151.806648 58.255742 
L 165.811003 66.318498 
L 178.582888 71.384543 
L 185.549033 77.334683 
L 199.553388 87.613767 
L 219.291418 106.015106 
L 233.295773 117.61085 
" clip-path="url(#p382d5164c3)" style="fill: none; stroke: #b2b2b2; stroke-width: 0.8; stroke-linecap: square"/>
   </g>
   <g id="line2d_100">
    <path d="M 53.721227 49.670064 
L 73.459257 41.732858 
L 87.463612 40.089045 
L 98.326234 42.324784 
L 107.201642 41.1709 
L 121.205997 44.274291 
L 132.068618 47.366931 
L 137.236494 48.189523 
L 151.806648 52.092878 
L 165.811003 60.313032 
L 178.582888 66.341486 
L 185.549033 70.154286 
L 199.553388 82.322886 
L 219.291418 98.825852 
L 233.295773 113.918982 
" clip-path="url(#p382d5164c3)" style="fill: none; stroke: #b2b2b2; stroke-width: 0.8; stroke-linecap: square"/>
   </g>
   <g id="line2d_101">
    <path d="M 53.721227 61.409832 
L 73.459257 59.090581 
L 87.463612 57.055935 
L 98.326234 54.791319 
L 107.201642 52.185346 
L 121.205997 49.80732 
L 132.068618 48.581634 
L 137.236494 48.189523 
L 151.806648 50.368298 
L 165.811003 56.915003 
L 178.582888 62.636911 
L 185.549033 67.203185 
L 199.553388 78.47595 
L 219.291418 96.252692 
L 233.295773 110.936805 
" clip-path="url(#p382d5164c3)" style="fill: none; stroke: #b2b2b2; stroke-width: 0.8; stroke-linecap: square"/>
   </g>
   <g id="line2d_102">
    <path d="M 53.721227 38.937736 
L 73.459257 39.701504 
L 87.463612 39.879238 
L 98.326234 41.364823 
L 107.201642 43.462186 
L 121.205997 46.455797 
L 132.068618 47.452762 
L 137.236494 48.189523 
L 151.806648 54.087617 
L 165.811003 60.176037 
L 178.582888 63.54287 
L 185.549033 68.896294 
L 199.553388 81.036253 
L 219.291418 101.777548 
L 233.295773 118.190548 
" clip-path="url(#p382d5164c3)" style="fill: none; stroke: #b2b2b2; stroke-width: 0.8; stroke-linecap: square"/>
   </g>
   <g id="line2d_103">
    <path d="M 53.721227 59.781603 
L 73.459257 54.701772 
L 87.463612 51.79897 
L 98.326234 51.152212 
L 107.201642 49.468465 
L 121.205997 46.754428 
L 132.068618 48.825726 
L 137.236494 48.189523 
L 151.806648 52.327441 
L 165.811003 54.702387 
L 178.582888 59.132424 
L 185.549033 63.103403 
L 199.553388 70.256061 
L 219.291418 85.199556 
L 233.295773 93.443216 
" clip-path="url(#p382d5164c3)" style="fill: none; stroke: #b2b2b2; stroke-width: 0.8; stroke-linecap: square"/>
   </g>
   <g id="line2d_104">
    <path d="M 53.721227 36.103018 
L 73.459257 36.040421 
L 87.463612 41.296595 
L 98.326234 43.050946 
L 107.201642 45.45745 
L 121.205997 48.503829 
L 132.068618 47.229895 
L 137.236494 48.189523 
L 151.806648 48.855384 
L 165.811003 51.196461 
L 178.582888 57.94029 
L 185.549033 61.833466 
L 199.553388 73.342141 
L 219.291418 91.783795 
L 233.295773 106.503672 
" clip-path="url(#p382d5164c3)" style="fill: none; stroke: #b2b2b2; stroke-width: 0.8; stroke-linecap: square"/>
   </g>
   <g id="line2d_105">
    <path d="M 53.721227 63.112424 
L 73.459257 59.099953 
L 87.463612 56.244212 
L 98.326234 55.635756 
L 107.201642 54.437628 
L 121.205997 50.351001 
L 132.068618 48.703119 
L 137.236494 48.189523 
L 151.806648 47.78937 
L 165.811003 48.255278 
L 178.582888 50.14278 
L 185.549033 51.897755 
L 199.553388 58.092749 
L 219.291418 71.306724 
L 233.295773 82.041796 
" clip-path="url(#p382d5164c3)" style="fill: none; stroke: #b2b2b2; stroke-width: 0.8; stroke-linecap: square"/>
   </g>
   <g id="line2d_106">
    <path d="M 53.721227 53.680047 
L 73.459257 49.800263 
L 87.463612 46.966621 
L 98.326234 45.656575 
L 107.201642 45.943772 
L 121.205997 46.035567 
L 132.068618 46.10034 
L 137.236494 48.189523 
L 151.806648 53.256016 
L 165.811003 61.674275 
L 178.582888 70.358227 
L 185.549033 75.232552 
L 199.553388 87.098427 
L 219.291418 101.143311 
L 233.295773 112.69658 
" clip-path="url(#p382d5164c3)" style="fill: none; stroke: #b2b2b2; stroke-width: 0.8; stroke-linecap: square"/>
   </g>
   <g id="line2d_107">
    <path d="M 53.721227 56.172757 
L 73.459257 53.193301 
L 87.463612 50.662972 
L 98.326234 48.097112 
L 107.201642 44.879498 
L 121.205997 42.001139 
L 132.068618 45.509306 
L 137.236494 48.189523 
L 151.806648 57.370892 
L 165.811003 67.329105 
L 178.582888 78.829893 
L 185.549033 85.366116 
L 199.553388 97.687008 
L 219.291418 117.322352 
L 233.295773 131.919584 
" clip-path="url(#p382d5164c3)" style="fill: none; stroke: #b2b2b2; stroke-width: 0.8; stroke-linecap: square"/>
   </g>
   <g id="line2d_108">
    <path d="M 53.721227 54.761162 
L 73.459257 50.914118 
L 87.463612 47.401211 
L 98.326234 45.124259 
L 107.201642 44.323793 
L 121.205997 45.909174 
L 132.068618 46.999319 
L 137.236494 48.189523 
L 151.806648 54.953704 
L 165.811003 62.931446 
L 178.582888 68.844801 
L 185.549033 71.132819 
L 199.553388 77.269322 
L 219.291418 92.48483 
L 233.295773 108.253548 
" clip-path="url(#p382d5164c3)" style="fill: none; stroke: #b2b2b2; stroke-width: 0.8; stroke-linecap: square"/>
   </g>
   <g id="line2d_109">
    <path d="M 53.721227 34.215687 
L 73.459257 32.646622 
L 87.463612 31.572096 
L 98.326234 31.281363 
L 107.201642 33.767063 
L 121.205997 40.685805 
L 132.068618 44.393932 
L 137.236494 48.189523 
L 151.806648 53.827959 
L 165.811003 61.611535 
L 178.582888 71.684087 
L 185.549033 76.808417 
L 199.553388 85.654588 
L 219.291418 97.218207 
L 233.295773 110.777073 
" clip-path="url(#p382d5164c3)" style="fill: none; stroke: #b2b2b2; stroke-width: 0.8; stroke-linecap: square"/>
   </g>
   <g id="line2d_110">
    <path d="M 53.721227 56.294498 
L 73.459257 49.45831 
L 87.463612 44.917867 
L 98.326234 44.633539 
L 107.201642 45.087211 
L 121.205997 46.487677 
L 132.068618 47.152896 
L 137.236494 48.189523 
L 151.806648 48.122116 
L 165.811003 51.542043 
L 178.582888 56.737656 
L 185.549033 61.627107 
L 199.553388 72.993615 
L 219.291418 86.557258 
L 233.295773 97.853833 
" clip-path="url(#p382d5164c3)" style="fill: none; stroke: #b2b2b2; stroke-width: 0.8; stroke-linecap: square"/>
   </g>
   <g id="line2d_111">
    <path d="M 53.721227 55.970711 
L 73.459257 51.505828 
L 87.463612 49.638176 
L 98.326234 47.285262 
L 107.201642 45.579204 
L 121.205997 44.628452 
L 132.068618 46.069573 
L 137.236494 48.189523 
L 151.806648 54.022799 
L 165.811003 61.273134 
L 178.582888 70.099162 
L 185.549033 74.540116 
L 199.553388 85.954684 
L 219.291418 106.276698 
L 233.295773 124.113878 
" clip-path="url(#p382d5164c3)" style="fill: none; stroke: #b2b2b2; stroke-width: 0.8; stroke-linecap: square"/>
   </g>
   <g id="line2d_112">
    <path d="M 53.721227 52.989303 
L 73.459257 48.137121 
L 87.463612 44.117037 
L 98.326234 42.710268 
L 107.201642 43.468492 
L 121.205997 48.781179 
L 132.068618 49.382445 
L 137.236494 48.189523 
L 151.806648 50.642556 
L 165.811003 56.433839 
L 178.582888 61.074877 
L 185.549033 64.843441 
L 199.553388 69.676186 
L 219.291418 86.747789 
L 233.295773 96.548987 
" clip-path="url(#p382d5164c3)" style="fill: none; stroke: #b2b2b2; stroke-width: 0.8; stroke-linecap: square"/>
   </g>
   <g id="line2d_113">
    <path d="M 53.721227 34.701774 
L 73.459257 31.341466 
L 87.463612 31.369017 
L 98.326234 33.05171 
L 107.201642 34.287117 
L 121.205997 38.965769 
L 132.068618 45.774997 
L 137.236494 48.189523 
L 151.806648 59.391179 
L 165.811003 70.527316 
L 178.582888 76.023278 
L 185.549033 79.880977 
L 199.553388 86.200281 
L 219.291418 101.862263 
L 233.295773 116.687253 
" clip-path="url(#p382d5164c3)" style="fill: none; stroke: #b2b2b2; stroke-width: 0.8; stroke-linecap: square"/>
   </g>
   <g id="line2d_114">
    <path d="M 53.721227 56.364046 
L 73.459257 52.478493 
L 87.463612 49.017697 
L 98.326234 46.309978 
L 107.201642 45.124947 
L 121.205997 46.305931 
L 132.068618 47.286083 
L 137.236494 48.189523 
L 151.806648 51.951528 
L 165.811003 57.065693 
L 178.582888 63.727757 
L 185.549033 69.209824 
L 199.553388 79.196133 
L 219.291418 96.25237 
L 233.295773 111.135503 
" clip-path="url(#p382d5164c3)" style="fill: none; stroke: #b2b2b2; stroke-width: 0.8; stroke-linecap: square"/>
   </g>
   <g id="line2d_115">
    <path d="M 53.721227 41.032449 
L 73.459257 43.353545 
L 87.463612 45.797584 
L 98.326234 43.385446 
L 107.201642 42.678278 
L 121.205997 44.227259 
L 132.068618 45.490854 
L 137.236494 48.189523 
L 151.806648 55.937144 
L 165.811003 62.196458 
L 178.582888 70.328763 
L 185.549033 76.121104 
L 199.553388 89.973898 
L 219.291418 112.270685 
L 233.295773 129.602436 
" clip-path="url(#p382d5164c3)" style="fill: none; stroke: #b2b2b2; stroke-width: 0.8; stroke-linecap: square"/>
   </g>
   <g id="line2d_116">
    <path d="M 53.721227 48.927914 
L 73.459257 45.988167 
L 87.463612 43.117088 
L 98.326234 41.634575 
L 107.201642 41.989715 
L 121.205997 43.297275 
L 132.068618 44.878204 
L 137.236494 48.189523 
L 151.806648 54.471158 
L 165.811003 59.565931 
L 178.582888 66.642653 
L 185.549033 70.795018 
L 199.553388 79.384874 
L 219.291418 92.345734 
L 233.295773 103.952914 
" clip-path="url(#p382d5164c3)" style="fill: none; stroke: #b2b2b2; stroke-width: 0.8; stroke-linecap: square"/>
   </g>
   <g id="line2d_117">
    <path d="M 53.721227 50.672598 
L 73.459257 48.854401 
L 87.463612 50.836234 
L 98.326234 49.703941 
L 107.201642 46.953641 
L 121.205997 48.043841 
L 132.068618 48.286702 
L 137.236494 48.189523 
L 151.806648 50.913533 
L 165.811003 58.194783 
L 178.582888 65.003309 
L 185.549033 70.396511 
L 199.553388 81.005706 
L 219.291418 94.823483 
L 233.295773 110.690154 
" clip-path="url(#p382d5164c3)" style="fill: none; stroke: #b2b2b2; stroke-width: 0.8; stroke-linecap: square"/>
   </g>
   <g id="line2d_118">
    <path d="M 53.721227 53.388178 
L 73.459257 52.972809 
L 87.463612 51.958093 
L 98.326234 48.135307 
L 107.201642 47.521732 
L 121.205997 43.432142 
L 132.068618 46.282268 
L 137.236494 48.189523 
L 151.806648 49.481162 
L 165.811003 54.962071 
L 178.582888 59.527083 
L 185.549033 62.629308 
L 199.553388 68.302495 
L 219.291418 85.50813 
L 233.295773 99.961603 
" clip-path="url(#p382d5164c3)" style="fill: none; stroke: #b2b2b2; stroke-width: 0.8; stroke-linecap: square"/>
   </g>
   <g id="line2d_119">
    <path d="M 53.721227 50.407997 
L 73.459257 46.857098 
L 87.463612 44.957822 
L 98.326234 44.673298 
L 107.201642 44.422968 
L 121.205997 45.295162 
L 132.068618 47.084982 
L 137.236494 48.189523 
L 151.806648 53.219157 
L 165.811003 59.554896 
L 178.582888 66.514613 
L 185.549033 71.139083 
L 199.553388 80.733451 
L 219.291418 96.605477 
L 233.295773 109.888716 
" clip-path="url(#p382d5164c3)" style="fill: none; stroke: #ff0000; stroke-width: 2; stroke-linecap: square"/>
   </g>
   <g id="line2d_120">
    <path d="M 53.721227 28.944936 
L 73.459257 27.833295 
L 87.463612 28.438199 
L 98.326234 30.468885 
L 107.201642 32.895746 
L 121.205997 38.651568 
L 132.068618 43.64482 
L 137.236494 48.189522 
L 151.806648 46.718388 
L 165.811003 49.336078 
L 178.582888 53.202869 
L 185.549033 56.243639 
L 199.553388 63.299311 
L 219.291418 76.392733 
L 233.295773 87.686232 
" clip-path="url(#p382d5164c3)" style="fill: none; stroke-dasharray: 7.4,3.2; stroke-dashoffset: 0; stroke: #ff0000; stroke-width: 2"/>
   </g>
   <g id="line2d_121">
    <path d="M 53.721227 71.871058 
L 73.459257 65.8809 
L 87.463612 61.477446 
L 98.326234 58.877712 
L 107.201642 55.95019 
L 121.205997 51.938755 
L 132.068618 50.525143 
L 137.236494 48.189523 
L 151.806648 59.719925 
L 165.811003 69.773714 
L 178.582888 79.826358 
L 185.549033 86.034527 
L 199.553388 98.167591 
L 219.291418 116.818221 
L 233.295773 132.0912 
" clip-path="url(#p382d5164c3)" style="fill: none; stroke-dasharray: 7.4,3.2; stroke-dashoffset: 0; stroke: #ff0000; stroke-width: 2"/>
   </g>
   <g id="line2d_122">
    <path d="M 53.721227 50.310173 
L 73.459257 46.769679 
L 87.463612 45.151516 
L 98.326234 44.443418 
L 107.201642 44.375506 
L 121.205997 45.315897 
L 132.068618 46.934551 
L 137.236494 48.189523 
L 151.806648 53.24542 
L 165.811003 59.557838 
L 178.582888 66.640374 
L 185.549033 70.966487 
L 199.553388 80.741453 
L 219.291418 96.790054 
L 233.295773 109.695671 
" clip-path="url(#p382d5164c3)" style="fill: none; stroke: #0000ff; stroke-width: 2; stroke-linecap: square"/>
   </g>
   <g id="line2d_123">
    <path d="M 53.721227 28.865662 
L 73.459257 27.600307 
L 87.463612 28.66672 
L 98.326234 30.268364 
L 107.201642 32.863815 
L 121.205997 38.460116 
L 132.068618 43.817857 
L 137.236494 48.189523 
L 151.806648 46.741725 
L 165.811003 49.293415 
L 178.582888 53.20847 
L 185.549033 56.131555 
L 199.553388 63.427418 
L 219.291418 76.731842 
L 233.295773 87.444207 
" clip-path="url(#p382d5164c3)" style="fill: none; stroke-dasharray: 7.4,3.2; stroke-dashoffset: 0; stroke: #0000ff; stroke-width: 2"/>
   </g>
   <g id="line2d_124">
    <path d="M 53.721227 71.754684 
L 73.459257 65.939052 
L 87.463612 61.636312 
L 98.326234 58.618471 
L 107.201642 55.887197 
L 121.205997 52.171678 
L 132.068618 50.051245 
L 137.236494 48.189523 
L 151.806648 59.749115 
L 165.811003 69.822261 
L 178.582888 80.072277 
L 185.549033 85.80142 
L 199.553388 98.055489 
L 219.291418 116.848265 
L 233.295773 131.947135 
" clip-path="url(#p382d5164c3)" style="fill: none; stroke-dasharray: 7.4,3.2; stroke-dashoffset: 0; stroke: #0000ff; stroke-width: 2"/>
   </g>
   <g id="patch_3">
    <path d="M 44.7425 138.0384 
L 44.7425 7.2 
" style="fill: none; stroke: #000000; stroke-width: 0.8; stroke-linejoin: miter; stroke-linecap: square"/>
   </g>
   <g id="patch_4">
    <path d="M 242.2745 138.0384 
L 242.2745 7.2 
" style="fill: none; stroke: #000000; stroke-width: 0.8; stroke-linejoin: miter; stroke-linecap: square"/>
   </g>
   <g id="patch_5">
    <path d="M 44.7425 138.0384 
L 242.2745 138.0384 
" style="fill: none; stroke: #000000; stroke-width: 0.8; stroke-linejoin: miter; stroke-linecap: square"/>
   </g>
   <g id="patch_6">
    <path d="M 44.7425 7.2 
L 242.2745 7.2 
" style="fill: none; stroke: #000000; stroke-width: 0.8; stroke-linejoin: miter; stroke-linecap: square"/>
   </g>
   <g id="legend_1">
    <g id="patch_7">
     <path d="M 247.8745 104.47295 
L 432.5945 104.47295 
Q 434.1945 104.47295 434.1945 102.87295 
L 434.1945 42.36545 
Q 434.1945 40.76545 432.5945 40.76545 
L 247.8745 40.76545 
Q 246.2745 40.76545 246.2745 42.36545 
L 246.2745 102.87295 
Q 246.2745 104.47295 247.8745 104.47295 
z
" style="fill: #ffffff; opacity: 0.8; stroke: #cccccc; stroke-linejoin: miter"/>
    </g>
    <g id="line2d_125">
     <path d="M 249.4745 47.2442 
L 257.4745 47.2442 
L 265.4745 47.2442 
" style="fill: none; stroke: #b2b2b2; stroke-width: 0.8; stroke-linecap: square"/>
    </g>
    <g id="text_8">
     <!-- Individual selected GMs -->
     <g transform="translate(271.8745 50.0442) scale(0.08 -0.08)">
      <defs>
       <path id="DejaVuSans-49" d="M 628 4666 
L 1259 4666 
L 1259 0 
L 628 0 
L 628 4666 
z
" transform="scale(0.015625)"/>
       <path id="DejaVuSans-76" d="M 191 3500 
L 800 3500 
L 1894 563 
L 2988 3500 
L 3597 3500 
L 2284 0 
L 1503 0 
L 191 3500 
z
" transform="scale(0.015625)"/>
       <path id="DejaVuSans-75" d="M 544 1381 
L 544 3500 
L 1119 3500 
L 1119 1403 
Q 1119 906 1312 657 
Q 1506 409 1894 409 
Q 2359 409 2629 706 
Q 2900 1003 2900 1516 
L 2900 3500 
L 3475 3500 
L 3475 0 
L 2900 0 
L 2900 538 
Q 2691 219 2414 64 
Q 2138 -91 1772 -91 
Q 1169 -91 856 284 
Q 544 659 544 1381 
z
M 1991 3584 
L 1991 3584 
z
" transform="scale(0.015625)"/>
       <path id="DejaVuSans-47" d="M 3809 666 
L 3809 1919 
L 2778 1919 
L 2778 2438 
L 4434 2438 
L 4434 434 
Q 4069 175 3628 42 
Q 3188 -91 2688 -91 
Q 1594 -91 976 548 
Q 359 1188 359 2328 
Q 359 3472 976 4111 
Q 1594 4750 2688 4750 
Q 3144 4750 3555 4637 
Q 3966 4525 4313 4306 
L 4313 3634 
Q 3963 3931 3569 4081 
Q 3175 4231 2741 4231 
Q 1884 4231 1454 3753 
Q 1025 3275 1025 2328 
Q 1025 1384 1454 906 
Q 1884 428 2741 428 
Q 3075 428 3337 486 
Q 3600 544 3809 666 
z
" transform="scale(0.015625)"/>
       <path id="DejaVuSans-4d" d="M 628 4666 
L 1569 4666 
L 2759 1491 
L 3956 4666 
L 4897 4666 
L 4897 0 
L 4281 0 
L 4281 4097 
L 3078 897 
L 2444 897 
L 1241 4097 
L 1241 0 
L 628 0 
L 628 4666 
z
" transform="scale(0.015625)"/>
      </defs>
      <use xlink:href="#DejaVuSans-49"/>
      <use xlink:href="#DejaVuSans-6e" x="29.492188"/>
      <use xlink:href="#DejaVuSans-64" x="92.871094"/>
      <use xlink:href="#DejaVuSans-69" x="156.347656"/>
      <use xlink:href="#DejaVuSans-76" x="184.130859"/>
      <use xlink:href="#DejaVuSans-69" x="243.310547"/>
      <use xlink:href="#DejaVuSans-64" x="271.09375"/>
      <use xlink:href="#DejaVuSans-75" x="334.570312"/>
      <use xlink:href="#DejaVuSans-61" x="397.949219"/>
      <use xlink:href="#DejaVuSans-6c" x="459.228516"/>
      <use xlink:href="#DejaVuSans-20" x="487.011719"/>
      <use xlink:href="#DejaVuSans-73" x="518.798828"/>
      <use xlink:href="#DejaVuSans-65" x="570.898438"/>
      <use xlink:href="#DejaVuSans-6c" x="632.421875"/>
      <use xlink:href="#DejaVuSans-65" x="660.205078"/>
      <use xlink:href="#DejaVuSans-63" x="721.728516"/>
      <use xlink:href="#DejaVuSans-74" x="776.708984"/>
      <use xlink:href="#DejaVuSans-65" x="815.917969"/>
      <use xlink:href="#DejaVuSans-64" x="877.441406"/>
      <use xlink:href="#DejaVuSans-20" x="940.917969"/>
      <use xlink:href="#DejaVuSans-47" x="972.705078"/>
      <use xlink:href="#DejaVuSans-4d" x="1050.195312"/>
      <use xlink:href="#DejaVuSans-73" x="1136.474609"/>
     </g>
    </g>
    <g id="line2d_126">
     <path d="M 249.4745 58.9867 
L 257.4745 58.9867 
L 265.4745 58.9867 
" style="fill: none; stroke: #ff0000; stroke-width: 2; stroke-linecap: square"/>
    </g>
    <g id="text_9">
     <!-- GCIM median -->
     <g transform="translate(271.8745 61.7867) scale(0.08 -0.08)">
      <defs>
       <path id="DejaVuSans-43" d="M 4122 4306 
L 4122 3641 
Q 3803 3938 3442 4084 
Q 3081 4231 2675 4231 
Q 1875 4231 1450 3742 
Q 1025 3253 1025 2328 
Q 1025 1406 1450 917 
Q 1875 428 2675 428 
Q 3081 428 3442 575 
Q 3803 722 4122 1019 
L 4122 359 
Q 3791 134 3420 21 
Q 3050 -91 2638 -91 
Q 1578 -91 968 557 
Q 359 1206 359 2328 
Q 359 3453 968 4101 
Q 1578 4750 2638 4750 
Q 3056 4750 3426 4639 
Q 3797 4528 4122 4306 
z
" transform="scale(0.015625)"/>
       <path id="DejaVuSans-6d" d="M 3328 2828 
Q 3544 3216 3844 3400 
Q 4144 3584 4550 3584 
Q 5097 3584 5394 3201 
Q 5691 2819 5691 2113 
L 5691 0 
L 5113 0 
L 5113 2094 
Q 5113 2597 4934 2840 
Q 4756 3084 4391 3084 
Q 3944 3084 3684 2787 
Q 3425 2491 3425 1978 
L 3425 0 
L 2847 0 
L 2847 2094 
Q 2847 2600 2669 2842 
Q 2491 3084 2119 3084 
Q 1678 3084 1418 2786 
Q 1159 2488 1159 1978 
L 1159 0 
L 581 0 
L 581 3500 
L 1159 3500 
L 1159 2956 
Q 1356 3278 1631 3431 
Q 1906 3584 2284 3584 
Q 2666 3584 2933 3390 
Q 3200 3197 3328 2828 
z
" transform="scale(0.015625)"/>
      </defs>
      <use xlink:href="#DejaVuSans-47"/>
      <use xlink:href="#DejaVuSans-43" x="77.490234"/>
      <use xlink:href="#DejaVuSans-49" x="147.314453"/>
      <use xlink:href="#DejaVuSans-4d" x="176.806641"/>
      <use xlink:href="#DejaVuSans-20" x="263.085938"/>
      <use xlink:href="#DejaVuSans-6d" x="294.873047"/>
      <use xlink:href="#DejaVuSans-65" x="392.285156"/>
      <use xlink:href="#DejaVuSans-64" x="453.808594"/>
      <use xlink:href="#DejaVuSans-69" x="517.285156"/>
      <use xlink:href="#DejaVuSans-61" x="545.068359"/>
      <use xlink:href="#DejaVuSans-6e" x="606.347656"/>
     </g>
    </g>
    <g id="line2d_127">
     <path d="M 249.4745 72.01045 
L 257.4745 72.01045 
L 265.4745 72.01045 
" style="fill: none; stroke-dasharray: 7.4,3.2; stroke-dashoffset: 0; stroke: #ff0000; stroke-width: 2"/>
    </g>
    <g id="text_10">
     <!-- GCIM $16^{th}$ and $84^{th}$ percentiles -->
     <g transform="translate(271.8745 74.81045) scale(0.08 -0.08)">
      <defs>
       <path id="DejaVuSans-36" d="M 2113 2584 
Q 1688 2584 1439 2293 
Q 1191 2003 1191 1497 
Q 1191 994 1439 701 
Q 1688 409 2113 409 
Q 2538 409 2786 701 
Q 3034 994 3034 1497 
Q 3034 2003 2786 2293 
Q 2538 2584 2113 2584 
z
M 3366 4563 
L 3366 3988 
Q 3128 4100 2886 4159 
Q 2644 4219 2406 4219 
Q 1781 4219 1451 3797 
Q 1122 3375 1075 2522 
Q 1259 2794 1537 2939 
Q 1816 3084 2150 3084 
Q 2853 3084 3261 2657 
Q 3669 2231 3669 1497 
Q 3669 778 3244 343 
Q 2819 -91 2113 -91 
Q 1303 -91 875 529 
Q 447 1150 447 2328 
Q 447 3434 972 4092 
Q 1497 4750 2381 4750 
Q 2619 4750 2861 4703 
Q 3103 4656 3366 4563 
z
" transform="scale(0.015625)"/>
       <path id="DejaVuSans-Oblique-74" d="M 2706 3500 
L 2619 3053 
L 1472 3053 
L 1100 1153 
Q 1081 1047 1072 975 
Q 1063 903 1063 863 
Q 1063 663 1183 572 
Q 1303 481 1569 481 
L 2150 481 
L 2053 0 
L 1503 0 
Q 991 0 739 200 
Q 488 400 488 806 
Q 488 878 497 964 
Q 506 1050 525 1153 
L 897 3053 
L 409 3053 
L 500 3500 
L 978 3500 
L 1172 4494 
L 1747 4494 
L 1556 3500 
L 2706 3500 
z
" transform="scale(0.015625)"/>
       <path id="DejaVuSans-Oblique-68" d="M 3566 2113 
L 3156 0 
L 2578 0 
L 2988 2091 
Q 3016 2238 3031 2350 
Q 3047 2463 3047 2528 
Q 3047 2791 2881 2937 
Q 2716 3084 2419 3084 
Q 1956 3084 1617 2771 
Q 1278 2459 1178 1941 
L 800 0 
L 225 0 
L 1172 4863 
L 1747 4863 
L 1375 2950 
Q 1594 3244 1934 3414 
Q 2275 3584 2650 3584 
Q 3113 3584 3367 3334 
Q 3622 3084 3622 2631 
Q 3622 2519 3608 2391 
Q 3594 2263 3566 2113 
z
" transform="scale(0.015625)"/>
       <path id="DejaVuSans-38" d="M 2034 2216 
Q 1584 2216 1326 1975 
Q 1069 1734 1069 1313 
Q 1069 891 1326 650 
Q 1584 409 2034 409 
Q 2484 409 2743 651 
Q 3003 894 3003 1313 
Q 3003 1734 2745 1975 
Q 2488 2216 2034 2216 
z
M 1403 2484 
Q 997 2584 770 2862 
Q 544 3141 544 3541 
Q 544 4100 942 4425 
Q 1341 4750 2034 4750 
Q 2731 4750 3128 4425 
Q 3525 4100 3525 3541 
Q 3525 3141 3298 2862 
Q 3072 2584 2669 2484 
Q 3125 2378 3379 2068 
Q 3634 1759 3634 1313 
Q 3634 634 3220 271 
Q 2806 -91 2034 -91 
Q 1263 -91 848 271 
Q 434 634 434 1313 
Q 434 1759 690 2068 
Q 947 2378 1403 2484 
z
M 1172 3481 
Q 1172 3119 1398 2916 
Q 1625 2713 2034 2713 
Q 2441 2713 2670 2916 
Q 2900 3119 2900 3481 
Q 2900 3844 2670 4047 
Q 2441 4250 2034 4250 
Q 1625 4250 1398 4047 
Q 1172 3844 1172 3481 
z
" transform="scale(0.015625)"/>
       <path id="DejaVuSans-34" d="M 2419 4116 
L 825 1625 
L 2419 1625 
L 2419 4116 
z
M 2253 4666 
L 3047 4666 
L 3047 1625 
L 3713 1625 
L 3713 1100 
L 3047 1100 
L 3047 0 
L 2419 0 
L 2419 1100 
L 313 1100 
L 313 1709 
L 2253 4666 
z
" transform="scale(0.015625)"/>
      </defs>
      <use xlink:href="#DejaVuSans-47" transform="translate(0 0.529687)"/>
      <use xlink:href="#DejaVuSans-43" transform="translate(77.490234 0.529687)"/>
      <use xlink:href="#DejaVuSans-49" transform="translate(147.314453 0.529687)"/>
      <use xlink:href="#DejaVuSans-4d" transform="translate(176.806641 0.529687)"/>
      <use xlink:href="#DejaVuSans-20" transform="translate(263.085938 0.529687)"/>
      <use xlink:href="#DejaVuSans-31" transform="translate(294.873047 0.529687)"/>
      <use xlink:href="#DejaVuSans-36" transform="translate(358.496094 0.529687)"/>
      <use xlink:href="#DejaVuSans-Oblique-74" transform="translate(423.076172 38.810937) scale(0.7)"/>
      <use xlink:href="#DejaVuSans-Oblique-68" transform="translate(450.522461 38.810937) scale(0.7)"/>
      <use xlink:href="#DejaVuSans-20" transform="translate(497.62207 0.529687)"/>
      <use xlink:href="#DejaVuSans-61" transform="translate(529.40918 0.529687)"/>
      <use xlink:href="#DejaVuSans-6e" transform="translate(590.688477 0.529687)"/>
      <use xlink:href="#DejaVuSans-64" transform="translate(654.067383 0.529687)"/>
      <use xlink:href="#DejaVuSans-20" transform="translate(717.543945 0.529687)"/>
      <use xlink:href="#DejaVuSans-38" transform="translate(749.331055 0.529687)"/>
      <use xlink:href="#DejaVuSans-34" transform="translate(812.954102 0.529687)"/>
      <use xlink:href="#DejaVuSans-Oblique-74" transform="translate(877.53418 38.810937) scale(0.7)"/>
      <use xlink:href="#DejaVuSans-Oblique-68" transform="translate(904.980469 38.810937) scale(0.7)"/>
      <use xlink:href="#DejaVuSans-20" transform="translate(952.080078 0.529687)"/>
      <use xlink:href="#DejaVuSans-70" transform="translate(983.867188 0.529687)"/>
      <use xlink:href="#DejaVuSans-65" transform="translate(1047.34375 0.529687)"/>
      <use xlink:href="#DejaVuSans-72" transform="translate(1108.867188 0.529687)"/>
      <use xlink:href="#DejaVuSans-63" transform="translate(1149.980469 0.529687)"/>
      <use xlink:href="#DejaVuSans-65" transform="translate(1204.960938 0.529687)"/>
      <use xlink:href="#DejaVuSans-6e" transform="translate(1266.484375 0.529687)"/>
      <use xlink:href="#DejaVuSans-74" transform="translate(1329.863281 0.529687)"/>
      <use xlink:href="#DejaVuSans-69" transform="translate(1369.072266 0.529687)"/>
      <use xlink:href="#DejaVuSans-6c" transform="translate(1396.855469 0.529687)"/>
      <use xlink:href="#DejaVuSans-65" transform="translate(1424.638672 0.529687)"/>
      <use xlink:href="#DejaVuSans-73" transform="translate(1486.162109 0.529687)"/>
     </g>
    </g>
    <g id="line2d_128">
     <path d="M 249.4745 83.7692 
L 257.4745 83.7692 
L 265.4745 83.7692 
" style="fill: none; stroke: #0000ff; stroke-width: 2; stroke-linecap: square"/>
    </g>
    <g id="text_11">
     <!-- Selected GMs median -->
     <g transform="translate(271.8745 86.5692) scale(0.08 -0.08)">
      <use xlink:href="#DejaVuSans-53"/>
      <use xlink:href="#DejaVuSans-65" x="63.476562"/>
      <use xlink:href="#DejaVuSans-6c" x="125"/>
      <use xlink:href="#DejaVuSans-65" x="152.783203"/>
      <use xlink:href="#DejaVuSans-63" x="214.306641"/>
      <use xlink:href="#DejaVuSans-74" x="269.287109"/>
      <use xlink:href="#DejaVuSans-65" x="308.496094"/>
      <use xlink:href="#DejaVuSans-64" x="370.019531"/>
      <use xlink:href="#DejaVuSans-20" x="433.496094"/>
      <use xlink:href="#DejaVuSans-47" x="465.283203"/>
      <use xlink:href="#DejaVuSans-4d" x="542.773438"/>
      <use xlink:href="#DejaVuSans-73" x="629.052734"/>
      <use xlink:href="#DejaVuSans-20" x="681.152344"/>
      <use xlink:href="#DejaVuSans-6d" x="712.939453"/>
      <use xlink:href="#DejaVuSans-65" x="810.351562"/>
      <use xlink:href="#DejaVuSans-64" x="871.875"/>
      <use xlink:href="#DejaVuSans-69" x="935.351562"/>
      <use xlink:href="#DejaVuSans-61" x="963.134766"/>
      <use xlink:href="#DejaVuSans-6e" x="1024.414062"/>
     </g>
    </g>
    <g id="line2d_129">
     <path d="M 249.4745 96.79295 
L 257.4745 96.79295 
L 265.4745 96.79295 
" style="fill: none; stroke-dasharray: 7.4,3.2; stroke-dashoffset: 0; stroke: #0000ff; stroke-width: 2"/>
    </g>
    <g id="text_12">
     <!-- Selected GMs, $16^{th}$ and $84^{th}$ percentiles -->
     <g transform="translate(271.8745 99.59295) scale(0.08 -0.08)">
      <use xlink:href="#DejaVuSans-53" transform="translate(0 0.529687)"/>
      <use xlink:href="#DejaVuSans-65" transform="translate(63.476562 0.529687)"/>
      <use xlink:href="#DejaVuSans-6c" transform="translate(125 0.529687)"/>
      <use xlink:href="#DejaVuSans-65" transform="translate(152.783203 0.529687)"/>
      <use xlink:href="#DejaVuSans-63" transform="translate(214.306641 0.529687)"/>
      <use xlink:href="#DejaVuSans-74" transform="translate(269.287109 0.529687)"/>
      <use xlink:href="#DejaVuSans-65" transform="translate(308.496094 0.529687)"/>
      <use xlink:href="#DejaVuSans-64" transform="translate(370.019531 0.529687)"/>
      <use xlink:href="#DejaVuSans-20" transform="translate(433.496094 0.529687)"/>
      <use xlink:href="#DejaVuSans-47" transform="translate(465.283203 0.529687)"/>
      <use xlink:href="#DejaVuSans-4d" transform="translate(542.773438 0.529687)"/>
      <use xlink:href="#DejaVuSans-73" transform="translate(629.052734 0.529687)"/>
      <use xlink:href="#DejaVuSans-2c" transform="translate(681.152344 0.529687)"/>
      <use xlink:href="#DejaVuSans-20" transform="translate(712.939453 0.529687)"/>
      <use xlink:href="#DejaVuSans-31" transform="translate(744.726562 0.529687)"/>
      <use xlink:href="#DejaVuSans-36" transform="translate(808.349609 0.529687)"/>
      <use xlink:href="#DejaVuSans-Oblique-74" transform="translate(872.929688 38.810937) scale(0.7)"/>
      <use xlink:href="#DejaVuSans-Oblique-68" transform="translate(900.375977 38.810937) scale(0.7)"/>
      <use xlink:href="#DejaVuSans-20" transform="translate(947.475586 0.529687)"/>
      <use xlink:href="#DejaVuSans-61" transform="translate(979.262695 0.529687)"/>
      <use xlink:href="#DejaVuSans-6e" transform="translate(1040.541992 0.529687)"/>
      <use xlink:href="#DejaVuSans-64" transform="translate(1103.920898 0.529687)"/>
      <use xlink:href="#DejaVuSans-20" transform="translate(1167.397461 0.529687)"/>
      <use xlink:href="#DejaVuSans-38" transform="translate(1199.18457 0.529687)"/>
      <use xlink:href="#DejaVuSans-34" transform="translate(1262.807617 0.529687)"/>
      <use xlink:href="#DejaVuSans-Oblique-74" transform="translate(1327.387695 38.810937) scale(0.7)"/>
      <use xlink:href="#DejaVuSans-Oblique-68" transform="translate(1354.833984 38.810937) scale(0.7)"/>
      <use xlink:href="#DejaVuSans-20" transform="translate(1401.933594 0.529687)"/>
      <use xlink:href="#DejaVuSans-70" transform="translate(1433.720703 0.529687)"/>
      <use xlink:href="#DejaVuSans-65" transform="translate(1497.197266 0.529687)"/>
      <use xlink:href="#DejaVuSans-72" transform="translate(1558.720703 0.529687)"/>
      <use xlink:href="#DejaVuSans-63" transform="translate(1599.833984 0.529687)"/>
      <use xlink:href="#DejaVuSans-65" transform="translate(1654.814453 0.529687)"/>
      <use xlink:href="#DejaVuSans-6e" transform="translate(1716.337891 0.529687)"/>
      <use xlink:href="#DejaVuSans-74" transform="translate(1779.716797 0.529687)"/>
      <use xlink:href="#DejaVuSans-69" transform="translate(1818.925781 0.529687)"/>
      <use xlink:href="#DejaVuSans-6c" transform="translate(1846.708984 0.529687)"/>
      <use xlink:href="#DejaVuSans-65" transform="translate(1874.492188 0.529687)"/>
      <use xlink:href="#DejaVuSans-73" transform="translate(1936.015625 0.529687)"/>
     </g>
    </g>
   </g>
  </g>
 </g>
 <defs>
  <clipPath id="p382d5164c3">
   <rect x="44.7425" y="7.2" width="197.532" height="130.8384"/>
  </clipPath>
 </defs>
</svg>
