<?xml version="1.0" encoding="utf-8" standalone="no"?>
<!DOCTYPE svg PUBLIC "-//W3C//DTD SVG 1.1//EN"
  "http://www.w3.org/Graphics/SVG/1.1/DTD/svg11.dtd">
<svg xmlns:xlink="http://www.w3.org/1999/xlink" width="441.3945pt" height="171.7234pt" viewBox="0 0 441.3945 171.7234" xmlns="http://www.w3.org/2000/svg" version="1.1">
 <metadata>
  <rdf:RDF xmlns:dc="http://purl.org/dc/elements/1.1/" xmlns:cc="http://creativecommons.org/ns#" xmlns:rdf="http://www.w3.org/1999/02/22-rdf-syntax-ns#">
   <cc:Work>
    <dc:type rdf:resource="http://purl.org/dc/dcmitype/StillImage"/>
    <dc:date>2024-11-04T16:02:56.788492</dc:date>
    <dc:format>image/svg+xml</dc:format>
    <dc:creator>
     <cc:Agent>
      <dc:title>Matplotlib v3.8.2, https://matplotlib.org/</dc:title>
     </cc:Agent>
    </dc:creator>
   </cc:Work>
  </rdf:RDF>
 </metadata>
 <defs>
  <style type="text/css">*{stroke-linejoin: round; stroke-linecap: butt}</style>
 </defs>
 <g id="figure_1">
  <g id="patch_1">
   <path d="M 0 171.7234 
L 441.3945 171.7234 
L 441.3945 0 
L 0 0 
z
" style="fill: #ffffff"/>
  </g>
  <g id="axes_1">
   <g id="patch_2">
    <path d="M 44.7425 138.0384 
L 242.2745 138.0384 
L 242.2745 7.2 
L 44.7425 7.2 
z
" style="fill: #ffffff"/>
   </g>
   <g id="matplotlib.axis_1">
    <g id="xtick_1">
     <g id="line2d_1">
      <path d="M 53.721227 138.0384 
L 53.721227 7.2 
" clip-path="url(#p8f6d4c6bd5)" style="fill: none; stroke: #d9d9d9; stroke-width: 0.8; stroke-linecap: square"/>
     </g>
     <g id="line2d_2">
      <defs>
       <path id="m8e2bda3205" d="M 0 0 
L 0 3.5 
" style="stroke: #000000; stroke-width: 0.8"/>
      </defs>
      <g>
       <use xlink:href="#m8e2bda3205" x="53.721227" y="138.0384" style="stroke: #000000; stroke-width: 0.8"/>
      </g>
     </g>
     <g id="text_1">
      <!-- $\mathdefault{10^{-1}}$ -->
      <g transform="translate(44.321227 151.11715) scale(0.08 -0.08)">
       <defs>
        <path id="DejaVuSans-31" d="M 794 531 
L 1825 531 
L 1825 4091 
L 703 3866 
L 703 4441 
L 1819 4666 
L 2450 4666 
L 2450 531 
L 3481 531 
L 3481 0 
L 794 0 
L 794 531 
z
" transform="scale(0.015625)"/>
        <path id="DejaVuSans-30" d="M 2034 4250 
Q 1547 4250 1301 3770 
Q 1056 3291 1056 2328 
Q 1056 1369 1301 889 
Q 1547 409 2034 409 
Q 2525 409 2770 889 
Q 3016 1369 3016 2328 
Q 3016 3291 2770 3770 
Q 2525 4250 2034 4250 
z
M 2034 4750 
Q 2819 4750 3233 4129 
Q 3647 3509 3647 2328 
Q 3647 1150 3233 529 
Q 2819 -91 2034 -91 
Q 1250 -91 836 529 
Q 422 1150 422 2328 
Q 422 3509 836 4129 
Q 1250 4750 2034 4750 
z
" transform="scale(0.015625)"/>
        <path id="DejaVuSans-2212" d="M 678 2272 
L 4684 2272 
L 4684 1741 
L 678 1741 
L 678 2272 
z
" transform="scale(0.015625)"/>
       </defs>
       <use xlink:href="#DejaVuSans-31" transform="translate(0 0.684375)"/>
       <use xlink:href="#DejaVuSans-30" transform="translate(63.623047 0.684375)"/>
       <use xlink:href="#DejaVuSans-2212" transform="translate(128.203125 38.965625) scale(0.7)"/>
       <use xlink:href="#DejaVuSans-31" transform="translate(186.855469 38.965625) scale(0.7)"/>
      </g>
     </g>
    </g>
    <g id="xtick_2">
     <g id="line2d_3">
      <path d="M 159.417352 138.0384 
L 159.417352 7.2 
" clip-path="url(#p8f6d4c6bd5)" style="fill: none; stroke: #d9d9d9; stroke-width: 0.8; stroke-linecap: square"/>
     </g>
     <g id="line2d_4">
      <g>
       <use xlink:href="#m8e2bda3205" x="159.417352" y="138.0384" style="stroke: #000000; stroke-width: 0.8"/>
      </g>
     </g>
     <g id="text_2">
      <!-- $\mathdefault{10^{0}}$ -->
      <g transform="translate(152.377352 151.11715) scale(0.08 -0.08)">
       <use xlink:href="#DejaVuSans-31" transform="translate(0 0.765625)"/>
       <use xlink:href="#DejaVuSans-30" transform="translate(63.623047 0.765625)"/>
       <use xlink:href="#DejaVuSans-30" transform="translate(128.203125 39.046875) scale(0.7)"/>
      </g>
     </g>
    </g>
    <g id="xtick_3">
     <g id="line2d_5">
      <path d="M 48.884838 138.0384 
L 48.884838 7.2 
" clip-path="url(#p8f6d4c6bd5)" style="fill: none; stroke-dasharray: 2.96,1.28; stroke-dashoffset: 0; stroke: #f2f2f2; stroke-width: 0.8"/>
     </g>
     <g id="line2d_6">
      <defs>
       <path id="mca55638ee9" d="M 0 0 
L 0 2 
" style="stroke: #000000; stroke-width: 0.6"/>
      </defs>
      <g>
       <use xlink:href="#mca55638ee9" x="48.884838" y="138.0384" style="stroke: #000000; stroke-width: 0.6"/>
      </g>
     </g>
    </g>
    <g id="xtick_4">
     <g id="line2d_7">
      <path d="M 85.538931 138.0384 
L 85.538931 7.2 
" clip-path="url(#p8f6d4c6bd5)" style="fill: none; stroke-dasharray: 2.96,1.28; stroke-dashoffset: 0; stroke: #f2f2f2; stroke-width: 0.8"/>
     </g>
     <g id="line2d_8">
      <g>
       <use xlink:href="#mca55638ee9" x="85.538931" y="138.0384" style="stroke: #000000; stroke-width: 0.6"/>
      </g>
     </g>
    </g>
    <g id="xtick_5">
     <g id="line2d_9">
      <path d="M 104.151095 138.0384 
L 104.151095 7.2 
" clip-path="url(#p8f6d4c6bd5)" style="fill: none; stroke-dasharray: 2.96,1.28; stroke-dashoffset: 0; stroke: #f2f2f2; stroke-width: 0.8"/>
     </g>
     <g id="line2d_10">
      <g>
       <use xlink:href="#mca55638ee9" x="104.151095" y="138.0384" style="stroke: #000000; stroke-width: 0.6"/>
      </g>
     </g>
    </g>
    <g id="xtick_6">
     <g id="line2d_11">
      <path d="M 117.356635 138.0384 
L 117.356635 7.2 
" clip-path="url(#p8f6d4c6bd5)" style="fill: none; stroke-dasharray: 2.96,1.28; stroke-dashoffset: 0; stroke: #f2f2f2; stroke-width: 0.8"/>
     </g>
     <g id="line2d_12">
      <g>
       <use xlink:href="#mca55638ee9" x="117.356635" y="138.0384" style="stroke: #000000; stroke-width: 0.6"/>
      </g>
     </g>
    </g>
    <g id="xtick_7">
     <g id="line2d_13">
      <path d="M 127.599648 138.0384 
L 127.599648 7.2 
" clip-path="url(#p8f6d4c6bd5)" style="fill: none; stroke-dasharray: 2.96,1.28; stroke-dashoffset: 0; stroke: #f2f2f2; stroke-width: 0.8"/>
     </g>
     <g id="line2d_14">
      <g>
       <use xlink:href="#mca55638ee9" x="127.599648" y="138.0384" style="stroke: #000000; stroke-width: 0.6"/>
      </g>
     </g>
    </g>
    <g id="xtick_8">
     <g id="line2d_15">
      <path d="M 135.968799 138.0384 
L 135.968799 7.2 
" clip-path="url(#p8f6d4c6bd5)" style="fill: none; stroke-dasharray: 2.96,1.28; stroke-dashoffset: 0; stroke: #f2f2f2; stroke-width: 0.8"/>
     </g>
     <g id="line2d_16">
      <g>
       <use xlink:href="#mca55638ee9" x="135.968799" y="138.0384" style="stroke: #000000; stroke-width: 0.6"/>
      </g>
     </g>
    </g>
    <g id="xtick_9">
     <g id="line2d_17">
      <path d="M 143.044815 138.0384 
L 143.044815 7.2 
" clip-path="url(#p8f6d4c6bd5)" style="fill: none; stroke-dasharray: 2.96,1.28; stroke-dashoffset: 0; stroke: #f2f2f2; stroke-width: 0.8"/>
     </g>
     <g id="line2d_18">
      <g>
       <use xlink:href="#mca55638ee9" x="143.044815" y="138.0384" style="stroke: #000000; stroke-width: 0.6"/>
      </g>
     </g>
    </g>
    <g id="xtick_10">
     <g id="line2d_19">
      <path d="M 149.174339 138.0384 
L 149.174339 7.2 
" clip-path="url(#p8f6d4c6bd5)" style="fill: none; stroke-dasharray: 2.96,1.28; stroke-dashoffset: 0; stroke: #f2f2f2; stroke-width: 0.8"/>
     </g>
     <g id="line2d_20">
      <g>
       <use xlink:href="#mca55638ee9" x="149.174339" y="138.0384" style="stroke: #000000; stroke-width: 0.6"/>
      </g>
     </g>
    </g>
    <g id="xtick_11">
     <g id="line2d_21">
      <path d="M 154.580963 138.0384 
L 154.580963 7.2 
" clip-path="url(#p8f6d4c6bd5)" style="fill: none; stroke-dasharray: 2.96,1.28; stroke-dashoffset: 0; stroke: #f2f2f2; stroke-width: 0.8"/>
     </g>
     <g id="line2d_22">
      <g>
       <use xlink:href="#mca55638ee9" x="154.580963" y="138.0384" style="stroke: #000000; stroke-width: 0.6"/>
      </g>
     </g>
    </g>
    <g id="xtick_12">
     <g id="line2d_23">
      <path d="M 191.235056 138.0384 
L 191.235056 7.2 
" clip-path="url(#p8f6d4c6bd5)" style="fill: none; stroke-dasharray: 2.96,1.28; stroke-dashoffset: 0; stroke: #f2f2f2; stroke-width: 0.8"/>
     </g>
     <g id="line2d_24">
      <g>
       <use xlink:href="#mca55638ee9" x="191.235056" y="138.0384" style="stroke: #000000; stroke-width: 0.6"/>
      </g>
     </g>
    </g>
    <g id="xtick_13">
     <g id="line2d_25">
      <path d="M 209.84722 138.0384 
L 209.84722 7.2 
" clip-path="url(#p8f6d4c6bd5)" style="fill: none; stroke-dasharray: 2.96,1.28; stroke-dashoffset: 0; stroke: #f2f2f2; stroke-width: 0.8"/>
     </g>
     <g id="line2d_26">
      <g>
       <use xlink:href="#mca55638ee9" x="209.84722" y="138.0384" style="stroke: #000000; stroke-width: 0.6"/>
      </g>
     </g>
    </g>
    <g id="xtick_14">
     <g id="line2d_27">
      <path d="M 223.05276 138.0384 
L 223.05276 7.2 
" clip-path="url(#p8f6d4c6bd5)" style="fill: none; stroke-dasharray: 2.96,1.28; stroke-dashoffset: 0; stroke: #f2f2f2; stroke-width: 0.8"/>
     </g>
     <g id="line2d_28">
      <g>
       <use xlink:href="#mca55638ee9" x="223.05276" y="138.0384" style="stroke: #000000; stroke-width: 0.6"/>
      </g>
     </g>
    </g>
    <g id="xtick_15">
     <g id="line2d_29">
      <path d="M 233.295773 138.0384 
L 233.295773 7.2 
" clip-path="url(#p8f6d4c6bd5)" style="fill: none; stroke-dasharray: 2.96,1.28; stroke-dashoffset: 0; stroke: #f2f2f2; stroke-width: 0.8"/>
     </g>
     <g id="line2d_30">
      <g>
       <use xlink:href="#mca55638ee9" x="233.295773" y="138.0384" style="stroke: #000000; stroke-width: 0.6"/>
      </g>
     </g>
    </g>
    <g id="xtick_16">
     <g id="line2d_31">
      <path d="M 241.664924 138.0384 
L 241.664924 7.2 
" clip-path="url(#p8f6d4c6bd5)" style="fill: none; stroke-dasharray: 2.96,1.28; stroke-dashoffset: 0; stroke: #f2f2f2; stroke-width: 0.8"/>
     </g>
     <g id="line2d_32">
      <g>
       <use xlink:href="#mca55638ee9" x="241.664924" y="138.0384" style="stroke: #000000; stroke-width: 0.6"/>
      </g>
     </g>
    </g>
    <g id="text_3">
     <!-- Period, T (s) -->
     <g transform="translate(119.576 162.85965) scale(0.08 -0.08)">
      <defs>
       <path id="DejaVuSans-50" d="M 1259 4147 
L 1259 2394 
L 2053 2394 
Q 2494 2394 2734 2622 
Q 2975 2850 2975 3272 
Q 2975 3691 2734 3919 
Q 2494 4147 2053 4147 
L 1259 4147 
z
M 628 4666 
L 2053 4666 
Q 2838 4666 3239 4311 
Q 3641 3956 3641 3272 
Q 3641 2581 3239 2228 
Q 2838 1875 2053 1875 
L 1259 1875 
L 1259 0 
L 628 0 
L 628 4666 
z
" transform="scale(0.015625)"/>
       <path id="DejaVuSans-65" d="M 3597 1894 
L 3597 1613 
L 953 1613 
Q 991 1019 1311 708 
Q 1631 397 2203 397 
Q 2534 397 2845 478 
Q 3156 559 3463 722 
L 3463 178 
Q 3153 47 2828 -22 
Q 2503 -91 2169 -91 
Q 1331 -91 842 396 
Q 353 884 353 1716 
Q 353 2575 817 3079 
Q 1281 3584 2069 3584 
Q 2775 3584 3186 3129 
Q 3597 2675 3597 1894 
z
M 3022 2063 
Q 3016 2534 2758 2815 
Q 2500 3097 2075 3097 
Q 1594 3097 1305 2825 
Q 1016 2553 972 2059 
L 3022 2063 
z
" transform="scale(0.015625)"/>
       <path id="DejaVuSans-72" d="M 2631 2963 
Q 2534 3019 2420 3045 
Q 2306 3072 2169 3072 
Q 1681 3072 1420 2755 
Q 1159 2438 1159 1844 
L 1159 0 
L 581 0 
L 581 3500 
L 1159 3500 
L 1159 2956 
Q 1341 3275 1631 3429 
Q 1922 3584 2338 3584 
Q 2397 3584 2469 3576 
Q 2541 3569 2628 3553 
L 2631 2963 
z
" transform="scale(0.015625)"/>
       <path id="DejaVuSans-69" d="M 603 3500 
L 1178 3500 
L 1178 0 
L 603 0 
L 603 3500 
z
M 603 4863 
L 1178 4863 
L 1178 4134 
L 603 4134 
L 603 4863 
z
" transform="scale(0.015625)"/>
       <path id="DejaVuSans-6f" d="M 1959 3097 
Q 1497 3097 1228 2736 
Q 959 2375 959 1747 
Q 959 1119 1226 758 
Q 1494 397 1959 397 
Q 2419 397 2687 759 
Q 2956 1122 2956 1747 
Q 2956 2369 2687 2733 
Q 2419 3097 1959 3097 
z
M 1959 3584 
Q 2709 3584 3137 3096 
Q 3566 2609 3566 1747 
Q 3566 888 3137 398 
Q 2709 -91 1959 -91 
Q 1206 -91 779 398 
Q 353 888 353 1747 
Q 353 2609 779 3096 
Q 1206 3584 1959 3584 
z
" transform="scale(0.015625)"/>
       <path id="DejaVuSans-64" d="M 2906 2969 
L 2906 4863 
L 3481 4863 
L 3481 0 
L 2906 0 
L 2906 525 
Q 2725 213 2448 61 
Q 2172 -91 1784 -91 
Q 1150 -91 751 415 
Q 353 922 353 1747 
Q 353 2572 751 3078 
Q 1150 3584 1784 3584 
Q 2172 3584 2448 3432 
Q 2725 3281 2906 2969 
z
M 947 1747 
Q 947 1113 1208 752 
Q 1469 391 1925 391 
Q 2381 391 2643 752 
Q 2906 1113 2906 1747 
Q 2906 2381 2643 2742 
Q 2381 3103 1925 3103 
Q 1469 3103 1208 2742 
Q 947 2381 947 1747 
z
" transform="scale(0.015625)"/>
       <path id="DejaVuSans-2c" d="M 750 794 
L 1409 794 
L 1409 256 
L 897 -744 
L 494 -744 
L 750 256 
L 750 794 
z
" transform="scale(0.015625)"/>
       <path id="DejaVuSans-20" transform="scale(0.015625)"/>
       <path id="DejaVuSans-54" d="M -19 4666 
L 3928 4666 
L 3928 4134 
L 2272 4134 
L 2272 0 
L 1638 0 
L 1638 4134 
L -19 4134 
L -19 4666 
z
" transform="scale(0.015625)"/>
       <path id="DejaVuSans-28" d="M 1984 4856 
Q 1566 4138 1362 3434 
Q 1159 2731 1159 2009 
Q 1159 1288 1364 580 
Q 1569 -128 1984 -844 
L 1484 -844 
Q 1016 -109 783 600 
Q 550 1309 550 2009 
Q 550 2706 781 3412 
Q 1013 4119 1484 4856 
L 1984 4856 
z
" transform="scale(0.015625)"/>
       <path id="DejaVuSans-73" d="M 2834 3397 
L 2834 2853 
Q 2591 2978 2328 3040 
Q 2066 3103 1784 3103 
Q 1356 3103 1142 2972 
Q 928 2841 928 2578 
Q 928 2378 1081 2264 
Q 1234 2150 1697 2047 
L 1894 2003 
Q 2506 1872 2764 1633 
Q 3022 1394 3022 966 
Q 3022 478 2636 193 
Q 2250 -91 1575 -91 
Q 1294 -91 989 -36 
Q 684 19 347 128 
L 347 722 
Q 666 556 975 473 
Q 1284 391 1588 391 
Q 1994 391 2212 530 
Q 2431 669 2431 922 
Q 2431 1156 2273 1281 
Q 2116 1406 1581 1522 
L 1381 1569 
Q 847 1681 609 1914 
Q 372 2147 372 2553 
Q 372 3047 722 3315 
Q 1072 3584 1716 3584 
Q 2034 3584 2315 3537 
Q 2597 3491 2834 3397 
z
" transform="scale(0.015625)"/>
       <path id="DejaVuSans-29" d="M 513 4856 
L 1013 4856 
Q 1481 4119 1714 3412 
Q 1947 2706 1947 2009 
Q 1947 1309 1714 600 
Q 1481 -109 1013 -844 
L 513 -844 
Q 928 -128 1133 580 
Q 1338 1288 1338 2009 
Q 1338 2731 1133 3434 
Q 928 4138 513 4856 
z
" transform="scale(0.015625)"/>
      </defs>
      <use xlink:href="#DejaVuSans-50"/>
      <use xlink:href="#DejaVuSans-65" x="56.677734"/>
      <use xlink:href="#DejaVuSans-72" x="118.201172"/>
      <use xlink:href="#DejaVuSans-69" x="159.314453"/>
      <use xlink:href="#DejaVuSans-6f" x="187.097656"/>
      <use xlink:href="#DejaVuSans-64" x="248.279297"/>
      <use xlink:href="#DejaVuSans-2c" x="311.755859"/>
      <use xlink:href="#DejaVuSans-20" x="343.542969"/>
      <use xlink:href="#DejaVuSans-54" x="375.330078"/>
      <use xlink:href="#DejaVuSans-20" x="436.414062"/>
      <use xlink:href="#DejaVuSans-28" x="468.201172"/>
      <use xlink:href="#DejaVuSans-73" x="507.214844"/>
      <use xlink:href="#DejaVuSans-29" x="559.314453"/>
     </g>
    </g>
   </g>
   <g id="matplotlib.axis_2">
    <g id="ytick_1">
     <g id="line2d_33">
      <path d="M 44.7425 90.517602 
L 242.2745 90.517602 
" clip-path="url(#p8f6d4c6bd5)" style="fill: none; stroke: #d9d9d9; stroke-width: 0.8; stroke-linecap: square"/>
     </g>
     <g id="line2d_34">
      <defs>
       <path id="m8d51a06f64" d="M 0 0 
L -3.5 0 
" style="stroke: #000000; stroke-width: 0.8"/>
      </defs>
      <g>
       <use xlink:href="#m8d51a06f64" x="44.7425" y="90.517602" style="stroke: #000000; stroke-width: 0.8"/>
      </g>
     </g>
     <g id="text_4">
      <!-- $\mathdefault{10^{-1}}$ -->
      <g transform="translate(18.9425 93.556977) scale(0.08 -0.08)">
       <use xlink:href="#DejaVuSans-31" transform="translate(0 0.684375)"/>
       <use xlink:href="#DejaVuSans-30" transform="translate(63.623047 0.684375)"/>
       <use xlink:href="#DejaVuSans-2212" transform="translate(128.203125 38.965625) scale(0.7)"/>
       <use xlink:href="#DejaVuSans-31" transform="translate(186.855469 38.965625) scale(0.7)"/>
      </g>
     </g>
    </g>
    <g id="ytick_2">
     <g id="line2d_35">
      <path d="M 44.7425 33.345148 
L 242.2745 33.345148 
" clip-path="url(#p8f6d4c6bd5)" style="fill: none; stroke: #d9d9d9; stroke-width: 0.8; stroke-linecap: square"/>
     </g>
     <g id="line2d_36">
      <g>
       <use xlink:href="#m8d51a06f64" x="44.7425" y="33.345148" style="stroke: #000000; stroke-width: 0.8"/>
      </g>
     </g>
     <g id="text_5">
      <!-- $\mathdefault{10^{0}}$ -->
      <g transform="translate(23.6625 36.384523) scale(0.08 -0.08)">
       <use xlink:href="#DejaVuSans-31" transform="translate(0 0.765625)"/>
       <use xlink:href="#DejaVuSans-30" transform="translate(63.623047 0.765625)"/>
       <use xlink:href="#DejaVuSans-30" transform="translate(128.203125 39.046875) scale(0.7)"/>
      </g>
     </g>
    </g>
    <g id="ytick_3">
     <g id="line2d_37">
      <path d="M 44.7425 130.479432 
L 242.2745 130.479432 
" clip-path="url(#p8f6d4c6bd5)" style="fill: none; stroke-dasharray: 2.96,1.28; stroke-dashoffset: 0; stroke: #f2f2f2; stroke-width: 0.8"/>
     </g>
     <g id="line2d_38">
      <defs>
       <path id="m20200b8455" d="M 0 0 
L -2 0 
" style="stroke: #000000; stroke-width: 0.6"/>
      </defs>
      <g>
       <use xlink:href="#m20200b8455" x="44.7425" y="130.479432" style="stroke: #000000; stroke-width: 0.6"/>
      </g>
     </g>
    </g>
    <g id="ytick_4">
     <g id="line2d_39">
      <path d="M 44.7425 120.411862 
L 242.2745 120.411862 
" clip-path="url(#p8f6d4c6bd5)" style="fill: none; stroke-dasharray: 2.96,1.28; stroke-dashoffset: 0; stroke: #f2f2f2; stroke-width: 0.8"/>
     </g>
     <g id="line2d_40">
      <g>
       <use xlink:href="#m20200b8455" x="44.7425" y="120.411862" style="stroke: #000000; stroke-width: 0.6"/>
      </g>
     </g>
    </g>
    <g id="ytick_5">
     <g id="line2d_41">
      <path d="M 44.7425 113.268808 
L 242.2745 113.268808 
" clip-path="url(#p8f6d4c6bd5)" style="fill: none; stroke-dasharray: 2.96,1.28; stroke-dashoffset: 0; stroke: #f2f2f2; stroke-width: 0.8"/>
     </g>
     <g id="line2d_42">
      <g>
       <use xlink:href="#m20200b8455" x="44.7425" y="113.268808" style="stroke: #000000; stroke-width: 0.6"/>
      </g>
     </g>
    </g>
    <g id="ytick_6">
     <g id="line2d_43">
      <path d="M 44.7425 107.728225 
L 242.2745 107.728225 
" clip-path="url(#p8f6d4c6bd5)" style="fill: none; stroke-dasharray: 2.96,1.28; stroke-dashoffset: 0; stroke: #f2f2f2; stroke-width: 0.8"/>
     </g>
     <g id="line2d_44">
      <g>
       <use xlink:href="#m20200b8455" x="44.7425" y="107.728225" style="stroke: #000000; stroke-width: 0.6"/>
      </g>
     </g>
    </g>
    <g id="ytick_7">
     <g id="line2d_45">
      <path d="M 44.7425 103.201239 
L 242.2745 103.201239 
" clip-path="url(#p8f6d4c6bd5)" style="fill: none; stroke-dasharray: 2.96,1.28; stroke-dashoffset: 0; stroke: #f2f2f2; stroke-width: 0.8"/>
     </g>
     <g id="line2d_46">
      <g>
       <use xlink:href="#m20200b8455" x="44.7425" y="103.201239" style="stroke: #000000; stroke-width: 0.6"/>
      </g>
     </g>
    </g>
    <g id="ytick_8">
     <g id="line2d_47">
      <path d="M 44.7425 99.373727 
L 242.2745 99.373727 
" clip-path="url(#p8f6d4c6bd5)" style="fill: none; stroke-dasharray: 2.96,1.28; stroke-dashoffset: 0; stroke: #f2f2f2; stroke-width: 0.8"/>
     </g>
     <g id="line2d_48">
      <g>
       <use xlink:href="#m20200b8455" x="44.7425" y="99.373727" style="stroke: #000000; stroke-width: 0.6"/>
      </g>
     </g>
    </g>
    <g id="ytick_9">
     <g id="line2d_49">
      <path d="M 44.7425 96.058185 
L 242.2745 96.058185 
" clip-path="url(#p8f6d4c6bd5)" style="fill: none; stroke-dasharray: 2.96,1.28; stroke-dashoffset: 0; stroke: #f2f2f2; stroke-width: 0.8"/>
     </g>
     <g id="line2d_50">
      <g>
       <use xlink:href="#m20200b8455" x="44.7425" y="96.058185" style="stroke: #000000; stroke-width: 0.6"/>
      </g>
     </g>
    </g>
    <g id="ytick_10">
     <g id="line2d_51">
      <path d="M 44.7425 93.13367 
L 242.2745 93.13367 
" clip-path="url(#p8f6d4c6bd5)" style="fill: none; stroke-dasharray: 2.96,1.28; stroke-dashoffset: 0; stroke: #f2f2f2; stroke-width: 0.8"/>
     </g>
     <g id="line2d_52">
      <g>
       <use xlink:href="#m20200b8455" x="44.7425" y="93.13367" style="stroke: #000000; stroke-width: 0.6"/>
      </g>
     </g>
    </g>
    <g id="ytick_11">
     <g id="line2d_53">
      <path d="M 44.7425 73.306978 
L 242.2745 73.306978 
" clip-path="url(#p8f6d4c6bd5)" style="fill: none; stroke-dasharray: 2.96,1.28; stroke-dashoffset: 0; stroke: #f2f2f2; stroke-width: 0.8"/>
     </g>
     <g id="line2d_54">
      <g>
       <use xlink:href="#m20200b8455" x="44.7425" y="73.306978" style="stroke: #000000; stroke-width: 0.6"/>
      </g>
     </g>
    </g>
    <g id="ytick_12">
     <g id="line2d_55">
      <path d="M 44.7425 63.239409 
L 242.2745 63.239409 
" clip-path="url(#p8f6d4c6bd5)" style="fill: none; stroke-dasharray: 2.96,1.28; stroke-dashoffset: 0; stroke: #f2f2f2; stroke-width: 0.8"/>
     </g>
     <g id="line2d_56">
      <g>
       <use xlink:href="#m20200b8455" x="44.7425" y="63.239409" style="stroke: #000000; stroke-width: 0.6"/>
      </g>
     </g>
    </g>
    <g id="ytick_13">
     <g id="line2d_57">
      <path d="M 44.7425 56.096355 
L 242.2745 56.096355 
" clip-path="url(#p8f6d4c6bd5)" style="fill: none; stroke-dasharray: 2.96,1.28; stroke-dashoffset: 0; stroke: #f2f2f2; stroke-width: 0.8"/>
     </g>
     <g id="line2d_58">
      <g>
       <use xlink:href="#m20200b8455" x="44.7425" y="56.096355" style="stroke: #000000; stroke-width: 0.6"/>
      </g>
     </g>
    </g>
    <g id="ytick_14">
     <g id="line2d_59">
      <path d="M 44.7425 50.555772 
L 242.2745 50.555772 
" clip-path="url(#p8f6d4c6bd5)" style="fill: none; stroke-dasharray: 2.96,1.28; stroke-dashoffset: 0; stroke: #f2f2f2; stroke-width: 0.8"/>
     </g>
     <g id="line2d_60">
      <g>
       <use xlink:href="#m20200b8455" x="44.7425" y="50.555772" style="stroke: #000000; stroke-width: 0.6"/>
      </g>
     </g>
    </g>
    <g id="ytick_15">
     <g id="line2d_61">
      <path d="M 44.7425 46.028786 
L 242.2745 46.028786 
" clip-path="url(#p8f6d4c6bd5)" style="fill: none; stroke-dasharray: 2.96,1.28; stroke-dashoffset: 0; stroke: #f2f2f2; stroke-width: 0.8"/>
     </g>
     <g id="line2d_62">
      <g>
       <use xlink:href="#m20200b8455" x="44.7425" y="46.028786" style="stroke: #000000; stroke-width: 0.6"/>
      </g>
     </g>
    </g>
    <g id="ytick_16">
     <g id="line2d_63">
      <path d="M 44.7425 42.201274 
L 242.2745 42.201274 
" clip-path="url(#p8f6d4c6bd5)" style="fill: none; stroke-dasharray: 2.96,1.28; stroke-dashoffset: 0; stroke: #f2f2f2; stroke-width: 0.8"/>
     </g>
     <g id="line2d_64">
      <g>
       <use xlink:href="#m20200b8455" x="44.7425" y="42.201274" style="stroke: #000000; stroke-width: 0.6"/>
      </g>
     </g>
    </g>
    <g id="ytick_17">
     <g id="line2d_65">
      <path d="M 44.7425 38.885732 
L 242.2745 38.885732 
" clip-path="url(#p8f6d4c6bd5)" style="fill: none; stroke-dasharray: 2.96,1.28; stroke-dashoffset: 0; stroke: #f2f2f2; stroke-width: 0.8"/>
     </g>
     <g id="line2d_66">
      <g>
       <use xlink:href="#m20200b8455" x="44.7425" y="38.885732" style="stroke: #000000; stroke-width: 0.6"/>
      </g>
     </g>
    </g>
    <g id="ytick_18">
     <g id="line2d_67">
      <path d="M 44.7425 35.961216 
L 242.2745 35.961216 
" clip-path="url(#p8f6d4c6bd5)" style="fill: none; stroke-dasharray: 2.96,1.28; stroke-dashoffset: 0; stroke: #f2f2f2; stroke-width: 0.8"/>
     </g>
     <g id="line2d_68">
      <g>
       <use xlink:href="#m20200b8455" x="44.7425" y="35.961216" style="stroke: #000000; stroke-width: 0.6"/>
      </g>
     </g>
    </g>
    <g id="ytick_19">
     <g id="line2d_69">
      <path d="M 44.7425 16.134525 
L 242.2745 16.134525 
" clip-path="url(#p8f6d4c6bd5)" style="fill: none; stroke-dasharray: 2.96,1.28; stroke-dashoffset: 0; stroke: #f2f2f2; stroke-width: 0.8"/>
     </g>
     <g id="line2d_70">
      <g>
       <use xlink:href="#m20200b8455" x="44.7425" y="16.134525" style="stroke: #000000; stroke-width: 0.6"/>
      </g>
     </g>
    </g>
    <g id="text_6">
     <!-- Spectral acceleration, SA (g) -->
     <g transform="translate(13.27875 129.871075) rotate(-90) scale(0.08 -0.08)">
      <defs>
       <path id="DejaVuSans-53" d="M 3425 4513 
L 3425 3897 
Q 3066 4069 2747 4153 
Q 2428 4238 2131 4238 
Q 1616 4238 1336 4038 
Q 1056 3838 1056 3469 
Q 1056 3159 1242 3001 
Q 1428 2844 1947 2747 
L 2328 2669 
Q 3034 2534 3370 2195 
Q 3706 1856 3706 1288 
Q 3706 609 3251 259 
Q 2797 -91 1919 -91 
Q 1588 -91 1214 -16 
Q 841 59 441 206 
L 441 856 
Q 825 641 1194 531 
Q 1563 422 1919 422 
Q 2459 422 2753 634 
Q 3047 847 3047 1241 
Q 3047 1584 2836 1778 
Q 2625 1972 2144 2069 
L 1759 2144 
Q 1053 2284 737 2584 
Q 422 2884 422 3419 
Q 422 4038 858 4394 
Q 1294 4750 2059 4750 
Q 2388 4750 2728 4690 
Q 3069 4631 3425 4513 
z
" transform="scale(0.015625)"/>
       <path id="DejaVuSans-70" d="M 1159 525 
L 1159 -1331 
L 581 -1331 
L 581 3500 
L 1159 3500 
L 1159 2969 
Q 1341 3281 1617 3432 
Q 1894 3584 2278 3584 
Q 2916 3584 3314 3078 
Q 3713 2572 3713 1747 
Q 3713 922 3314 415 
Q 2916 -91 2278 -91 
Q 1894 -91 1617 61 
Q 1341 213 1159 525 
z
M 3116 1747 
Q 3116 2381 2855 2742 
Q 2594 3103 2138 3103 
Q 1681 3103 1420 2742 
Q 1159 2381 1159 1747 
Q 1159 1113 1420 752 
Q 1681 391 2138 391 
Q 2594 391 2855 752 
Q 3116 1113 3116 1747 
z
" transform="scale(0.015625)"/>
       <path id="DejaVuSans-63" d="M 3122 3366 
L 3122 2828 
Q 2878 2963 2633 3030 
Q 2388 3097 2138 3097 
Q 1578 3097 1268 2742 
Q 959 2388 959 1747 
Q 959 1106 1268 751 
Q 1578 397 2138 397 
Q 2388 397 2633 464 
Q 2878 531 3122 666 
L 3122 134 
Q 2881 22 2623 -34 
Q 2366 -91 2075 -91 
Q 1284 -91 818 406 
Q 353 903 353 1747 
Q 353 2603 823 3093 
Q 1294 3584 2113 3584 
Q 2378 3584 2631 3529 
Q 2884 3475 3122 3366 
z
" transform="scale(0.015625)"/>
       <path id="DejaVuSans-74" d="M 1172 4494 
L 1172 3500 
L 2356 3500 
L 2356 3053 
L 1172 3053 
L 1172 1153 
Q 1172 725 1289 603 
Q 1406 481 1766 481 
L 2356 481 
L 2356 0 
L 1766 0 
Q 1100 0 847 248 
Q 594 497 594 1153 
L 594 3053 
L 172 3053 
L 172 3500 
L 594 3500 
L 594 4494 
L 1172 4494 
z
" transform="scale(0.015625)"/>
       <path id="DejaVuSans-61" d="M 2194 1759 
Q 1497 1759 1228 1600 
Q 959 1441 959 1056 
Q 959 750 1161 570 
Q 1363 391 1709 391 
Q 2188 391 2477 730 
Q 2766 1069 2766 1631 
L 2766 1759 
L 2194 1759 
z
M 3341 1997 
L 3341 0 
L 2766 0 
L 2766 531 
Q 2569 213 2275 61 
Q 1981 -91 1556 -91 
Q 1019 -91 701 211 
Q 384 513 384 1019 
Q 384 1609 779 1909 
Q 1175 2209 1959 2209 
L 2766 2209 
L 2766 2266 
Q 2766 2663 2505 2880 
Q 2244 3097 1772 3097 
Q 1472 3097 1187 3025 
Q 903 2953 641 2809 
L 641 3341 
Q 956 3463 1253 3523 
Q 1550 3584 1831 3584 
Q 2591 3584 2966 3190 
Q 3341 2797 3341 1997 
z
" transform="scale(0.015625)"/>
       <path id="DejaVuSans-6c" d="M 603 4863 
L 1178 4863 
L 1178 0 
L 603 0 
L 603 4863 
z
" transform="scale(0.015625)"/>
       <path id="DejaVuSans-6e" d="M 3513 2113 
L 3513 0 
L 2938 0 
L 2938 2094 
Q 2938 2591 2744 2837 
Q 2550 3084 2163 3084 
Q 1697 3084 1428 2787 
Q 1159 2491 1159 1978 
L 1159 0 
L 581 0 
L 581 3500 
L 1159 3500 
L 1159 2956 
Q 1366 3272 1645 3428 
Q 1925 3584 2291 3584 
Q 2894 3584 3203 3211 
Q 3513 2838 3513 2113 
z
" transform="scale(0.015625)"/>
       <path id="DejaVuSans-41" d="M 2188 4044 
L 1331 1722 
L 3047 1722 
L 2188 4044 
z
M 1831 4666 
L 2547 4666 
L 4325 0 
L 3669 0 
L 3244 1197 
L 1141 1197 
L 716 0 
L 50 0 
L 1831 4666 
z
" transform="scale(0.015625)"/>
       <path id="DejaVuSans-67" d="M 2906 1791 
Q 2906 2416 2648 2759 
Q 2391 3103 1925 3103 
Q 1463 3103 1205 2759 
Q 947 2416 947 1791 
Q 947 1169 1205 825 
Q 1463 481 1925 481 
Q 2391 481 2648 825 
Q 2906 1169 2906 1791 
z
M 3481 434 
Q 3481 -459 3084 -895 
Q 2688 -1331 1869 -1331 
Q 1566 -1331 1297 -1286 
Q 1028 -1241 775 -1147 
L 775 -588 
Q 1028 -725 1275 -790 
Q 1522 -856 1778 -856 
Q 2344 -856 2625 -561 
Q 2906 -266 2906 331 
L 2906 616 
Q 2728 306 2450 153 
Q 2172 0 1784 0 
Q 1141 0 747 490 
Q 353 981 353 1791 
Q 353 2603 747 3093 
Q 1141 3584 1784 3584 
Q 2172 3584 2450 3431 
Q 2728 3278 2906 2969 
L 2906 3500 
L 3481 3500 
L 3481 434 
z
" transform="scale(0.015625)"/>
      </defs>
      <use xlink:href="#DejaVuSans-53"/>
      <use xlink:href="#DejaVuSans-70" x="63.476562"/>
      <use xlink:href="#DejaVuSans-65" x="126.953125"/>
      <use xlink:href="#DejaVuSans-63" x="188.476562"/>
      <use xlink:href="#DejaVuSans-74" x="243.457031"/>
      <use xlink:href="#DejaVuSans-72" x="282.666016"/>
      <use xlink:href="#DejaVuSans-61" x="323.779297"/>
      <use xlink:href="#DejaVuSans-6c" x="385.058594"/>
      <use xlink:href="#DejaVuSans-20" x="412.841797"/>
      <use xlink:href="#DejaVuSans-61" x="444.628906"/>
      <use xlink:href="#DejaVuSans-63" x="505.908203"/>
      <use xlink:href="#DejaVuSans-63" x="560.888672"/>
      <use xlink:href="#DejaVuSans-65" x="615.869141"/>
      <use xlink:href="#DejaVuSans-6c" x="677.392578"/>
      <use xlink:href="#DejaVuSans-65" x="705.175781"/>
      <use xlink:href="#DejaVuSans-72" x="766.699219"/>
      <use xlink:href="#DejaVuSans-61" x="807.8125"/>
      <use xlink:href="#DejaVuSans-74" x="869.091797"/>
      <use xlink:href="#DejaVuSans-69" x="908.300781"/>
      <use xlink:href="#DejaVuSans-6f" x="936.083984"/>
      <use xlink:href="#DejaVuSans-6e" x="997.265625"/>
      <use xlink:href="#DejaVuSans-2c" x="1060.644531"/>
      <use xlink:href="#DejaVuSans-20" x="1092.431641"/>
      <use xlink:href="#DejaVuSans-53" x="1124.21875"/>
      <use xlink:href="#DejaVuSans-41" x="1189.570312"/>
      <use xlink:href="#DejaVuSans-20" x="1257.978516"/>
      <use xlink:href="#DejaVuSans-28" x="1289.765625"/>
      <use xlink:href="#DejaVuSans-67" x="1328.779297"/>
      <use xlink:href="#DejaVuSans-29" x="1392.255859"/>
     </g>
    </g>
   </g>
   <g id="line2d_71">
    <path d="M 53.721227 70.6534 
L 72.333391 69.235357 
L 85.538931 66.617285 
L 95.781944 63.913003 
L 104.151095 58.930797 
L 117.356635 57.277959 
L 125.630055 60.131648 
L 127.599648 56.727413 
L 146.211812 43.786052 
L 159.417352 41.500039 
L 171.460723 40.34954 
L 178.029516 55.450825 
L 191.235056 60.992649 
L 209.84722 75.062633 
L 223.05276 89.987221 
L 233.295773 86.577112 
" clip-path="url(#p8f6d4c6bd5)" style="fill: none; stroke: #b2b2b2; stroke-width: 0.8; stroke-linecap: square"/>
   </g>
   <g id="line2d_72">
    <path d="M 53.721227 34.07657 
L 72.333391 22.174083 
L 85.538931 27.859162 
L 95.781944 27.941534 
L 104.151095 40.409661 
L 117.356635 45.738491 
L 125.630055 60.131648 
L 127.599648 56.681039 
L 146.211812 45.925036 
L 159.417352 49.586805 
L 171.460723 45.228545 
L 178.029516 60.186761 
L 191.235056 54.959871 
L 209.84722 83.825536 
L 223.05276 94.299894 
L 233.295773 114.366916 
" clip-path="url(#p8f6d4c6bd5)" style="fill: none; stroke: #b2b2b2; stroke-width: 0.8; stroke-linecap: square"/>
   </g>
   <g id="line2d_73">
    <path d="M 53.721227 67.436961 
L 72.333391 67.355209 
L 85.538931 71.283258 
L 95.781944 67.871804 
L 104.151095 63.687852 
L 117.356635 69.064697 
L 125.630055 60.131648 
L 127.599648 58.952226 
L 146.211812 92.520249 
L 159.417352 85.845187 
L 171.460723 86.406604 
L 178.029516 87.827496 
L 191.235056 83.186937 
L 209.84722 88.017691 
L 223.05276 94.194323 
L 233.295773 102.623466 
" clip-path="url(#p8f6d4c6bd5)" style="fill: none; stroke: #b2b2b2; stroke-width: 0.8; stroke-linecap: square"/>
   </g>
   <g id="line2d_74">
    <path d="M 53.721227 73.202467 
L 72.333391 71.206273 
L 85.538931 60.554901 
L 95.781944 67.542636 
L 104.151095 60.383391 
L 117.356635 56.868081 
L 125.630055 60.131648 
L 127.599648 60.723621 
L 146.211812 43.602878 
L 159.417352 54.060553 
L 171.460723 59.125691 
L 178.029516 58.017863 
L 191.235056 55.582668 
L 209.84722 76.767017 
L 223.05276 87.067408 
L 233.295773 103.373484 
" clip-path="url(#p8f6d4c6bd5)" style="fill: none; stroke: #b2b2b2; stroke-width: 0.8; stroke-linecap: square"/>
   </g>
   <g id="line2d_75">
    <path d="M 53.721227 47.002316 
L 72.333391 56.87514 
L 85.538931 55.459475 
L 95.781944 58.052787 
L 104.151095 68.227306 
L 117.356635 63.132309 
L 125.630055 60.131648 
L 127.599648 60.027181 
L 146.211812 68.309269 
L 159.417352 65.451825 
L 171.460723 58.787726 
L 178.029516 64.667838 
L 191.235056 84.877189 
L 209.84722 80.197097 
L 223.05276 92.757519 
L 233.295773 105.697231 
" clip-path="url(#p8f6d4c6bd5)" style="fill: none; stroke: #b2b2b2; stroke-width: 0.8; stroke-linecap: square"/>
   </g>
   <g id="line2d_76">
    <path d="M 53.721227 56.073294 
L 72.333391 46.236977 
L 85.538931 40.309707 
L 95.781944 55.746685 
L 104.151095 50.322998 
L 117.356635 56.503293 
L 125.630055 60.131648 
L 127.599648 59.09996 
L 146.211812 51.488698 
L 159.417352 66.086943 
L 171.460723 54.283132 
L 178.029516 52.053971 
L 191.235056 45.255231 
L 209.84722 75.476079 
L 223.05276 92.706603 
L 233.295773 102.630802 
" clip-path="url(#p8f6d4c6bd5)" style="fill: none; stroke: #b2b2b2; stroke-width: 0.8; stroke-linecap: square"/>
   </g>
   <g id="line2d_77">
    <path d="M 53.721227 31.654482 
L 72.333391 30.513026 
L 85.538931 46.303235 
L 95.781944 59.58388 
L 104.151095 62.663341 
L 117.356635 55.867222 
L 125.630055 60.131648 
L 127.599648 64.811572 
L 146.211812 67.04597 
L 159.417352 69.351409 
L 171.460723 70.499424 
L 178.029516 76.218033 
L 191.235056 79.745162 
L 209.84722 72.727316 
L 223.05276 81.769292 
L 233.295773 93.546232 
" clip-path="url(#p8f6d4c6bd5)" style="fill: none; stroke: #b2b2b2; stroke-width: 0.8; stroke-linecap: square"/>
   </g>
   <g id="line2d_78">
    <path d="M 53.721227 43.472665 
L 72.333391 42.934616 
L 85.538931 59.942526 
L 95.781944 54.772499 
L 104.151095 55.043414 
L 117.356635 58.153704 
L 125.630055 60.131648 
L 127.599648 65.755181 
L 146.211812 58.886509 
L 159.417352 57.998013 
L 171.460723 51.777522 
L 178.029516 67.249757 
L 191.235056 67.138811 
L 209.84722 99.676266 
L 223.05276 104.307926 
L 233.295773 110.236549 
" clip-path="url(#p8f6d4c6bd5)" style="fill: none; stroke: #b2b2b2; stroke-width: 0.8; stroke-linecap: square"/>
   </g>
   <g id="line2d_79">
    <path d="M 53.721227 40.334345 
L 72.333391 47.136506 
L 85.538931 46.712676 
L 95.781944 47.445093 
L 104.151095 45.097841 
L 117.356635 48.661869 
L 125.630055 60.131648 
L 127.599648 57.222433 
L 146.211812 49.753264 
L 159.417352 40.580766 
L 171.460723 50.34523 
L 178.029516 64.849133 
L 191.235056 68.734488 
L 209.84722 70.478555 
L 223.05276 92.142223 
L 233.295773 110.513421 
" clip-path="url(#p8f6d4c6bd5)" style="fill: none; stroke: #b2b2b2; stroke-width: 0.8; stroke-linecap: square"/>
   </g>
   <g id="line2d_80">
    <path d="M 53.721227 61.174367 
L 72.333391 48.309755 
L 85.538931 57.752585 
L 95.781944 55.09321 
L 104.151095 53.824783 
L 117.356635 57.627167 
L 125.630055 60.131648 
L 127.599648 58.702023 
L 146.211812 63.042385 
L 159.417352 51.782711 
L 171.460723 50.265522 
L 178.029516 49.684676 
L 191.235056 59.152655 
L 209.84722 60.410384 
L 223.05276 62.365753 
L 233.295773 89.108955 
" clip-path="url(#p8f6d4c6bd5)" style="fill: none; stroke: #b2b2b2; stroke-width: 0.8; stroke-linecap: square"/>
   </g>
   <g id="line2d_81">
    <path d="M 53.721227 45.585285 
L 72.333391 44.911648 
L 85.538931 40.495697 
L 95.781944 50.91042 
L 104.151095 53.416342 
L 117.356635 56.044966 
L 125.630055 60.131648 
L 127.599648 64.875185 
L 146.211812 62.109156 
L 159.417352 65.924509 
L 171.460723 54.194108 
L 178.029516 53.605073 
L 191.235056 68.561697 
L 209.84722 85.372977 
L 223.05276 88.030718 
L 233.295773 100.402734 
" clip-path="url(#p8f6d4c6bd5)" style="fill: none; stroke: #b2b2b2; stroke-width: 0.8; stroke-linecap: square"/>
   </g>
   <g id="line2d_82">
    <path d="M 53.721227 63.596677 
L 72.333391 45.626688 
L 85.538931 52.148896 
L 95.781944 54.155921 
L 104.151095 63.335855 
L 117.356635 62.241249 
L 125.630055 60.131648 
L 127.599648 55.572503 
L 146.211812 73.680994 
L 159.417352 77.047157 
L 171.460723 75.53912 
L 178.029516 78.364081 
L 191.235056 81.487003 
L 209.84722 89.887314 
L 223.05276 90.447403 
L 233.295773 100.044807 
" clip-path="url(#p8f6d4c6bd5)" style="fill: none; stroke: #b2b2b2; stroke-width: 0.8; stroke-linecap: square"/>
   </g>
   <g id="line2d_83">
    <path d="M 53.721227 70.854425 
L 72.333391 61.598436 
L 85.538931 55.005282 
L 95.781944 54.083071 
L 104.151095 68.786388 
L 117.356635 64.902914 
L 125.630055 60.131648 
L 127.599648 57.346108 
L 146.211812 60.547396 
L 159.417352 67.73017 
L 171.460723 68.994394 
L 178.029516 74.329375 
L 191.235056 89.974935 
L 209.84722 103.544006 
L 223.05276 112.07916 
L 233.295773 123.082927 
" clip-path="url(#p8f6d4c6bd5)" style="fill: none; stroke: #b2b2b2; stroke-width: 0.8; stroke-linecap: square"/>
   </g>
   <g id="line2d_84">
    <path d="M 53.721227 64.753048 
L 72.333391 63.878103 
L 85.538931 65.301705 
L 95.781944 66.405319 
L 104.151095 61.558606 
L 117.356635 67.707919 
L 125.630055 60.131648 
L 127.599648 57.048768 
L 146.211812 52.062972 
L 159.417352 47.447071 
L 171.460723 57.756621 
L 178.029516 61.555244 
L 191.235056 80.533914 
L 209.84722 79.588708 
L 223.05276 107.239965 
L 233.295773 125.186647 
" clip-path="url(#p8f6d4c6bd5)" style="fill: none; stroke: #b2b2b2; stroke-width: 0.8; stroke-linecap: square"/>
   </g>
   <g id="line2d_85">
    <path d="M 53.721227 41.283236 
L 72.333391 31.201888 
L 85.538931 39.5725 
L 95.781944 38.67228 
L 104.151095 27.017519 
L 117.356635 50.121596 
L 125.630055 60.131648 
L 127.599648 56.702792 
L 146.211812 53.917001 
L 159.417352 55.206224 
L 171.460723 66.754539 
L 178.029516 70.077543 
L 191.235056 60.035713 
L 209.84722 74.824439 
L 223.05276 71.939061 
L 233.295773 77.725238 
" clip-path="url(#p8f6d4c6bd5)" style="fill: none; stroke: #b2b2b2; stroke-width: 0.8; stroke-linecap: square"/>
   </g>
   <g id="line2d_86">
    <path d="M 53.721227 68.726339 
L 72.333391 53.762801 
L 85.538931 51.454779 
L 95.781944 60.320671 
L 104.151095 62.034905 
L 117.356635 62.935349 
L 125.630055 60.131648 
L 127.599648 61.014442 
L 146.211812 61.802576 
L 159.417352 78.574909 
L 171.460723 70.040809 
L 178.029516 79.83346 
L 191.235056 92.196836 
L 209.84722 110.927828 
L 223.05276 107.83624 
L 233.295773 118.43363 
" clip-path="url(#p8f6d4c6bd5)" style="fill: none; stroke: #b2b2b2; stroke-width: 0.8; stroke-linecap: square"/>
   </g>
   <g id="line2d_87">
    <path d="M 53.721227 39.149369 
L 72.333391 61.515378 
L 85.538931 55.891413 
L 95.781944 47.7888 
L 104.151095 48.664091 
L 117.356635 61.217874 
L 125.630055 60.131648 
L 127.599648 61.057209 
L 146.211812 51.417326 
L 159.417352 57.378698 
L 171.460723 66.703942 
L 178.029516 74.421881 
L 191.235056 68.449356 
L 209.84722 75.550281 
L 223.05276 89.473247 
L 233.295773 104.245978 
" clip-path="url(#p8f6d4c6bd5)" style="fill: none; stroke: #b2b2b2; stroke-width: 0.8; stroke-linecap: square"/>
   </g>
   <g id="line2d_88">
    <path d="M 53.721227 42.913524 
L 72.333391 40.979712 
L 85.538931 46.4412 
L 95.781944 57.028693 
L 104.151095 58.446823 
L 117.356635 54.986103 
L 125.630055 60.131648 
L 127.599648 61.766171 
L 146.211812 57.32972 
L 159.417352 60.535115 
L 171.460723 59.951093 
L 178.029516 54.685956 
L 191.235056 64.957819 
L 209.84722 67.202689 
L 223.05276 69.692211 
L 233.295773 87.831924 
" clip-path="url(#p8f6d4c6bd5)" style="fill: none; stroke: #b2b2b2; stroke-width: 0.8; stroke-linecap: square"/>
   </g>
   <g id="line2d_89">
    <path d="M 53.721227 43.258059 
L 72.333391 42.399504 
L 85.538931 44.394761 
L 95.781944 41.245832 
L 104.151095 56.765954 
L 117.356635 63.65765 
L 125.630055 60.131648 
L 127.599648 65.545929 
L 146.211812 67.24804 
L 159.417352 67.6657 
L 171.460723 73.836569 
L 178.029516 84.873817 
L 191.235056 86.959712 
L 209.84722 91.527045 
L 223.05276 95.992008 
L 233.295773 89.570726 
" clip-path="url(#p8f6d4c6bd5)" style="fill: none; stroke: #b2b2b2; stroke-width: 0.8; stroke-linecap: square"/>
   </g>
   <g id="line2d_90">
    <path d="M 53.721227 54.175238 
L 72.333391 54.312119 
L 85.538931 55.085804 
L 95.781944 45.425759 
L 104.151095 43.851636 
L 117.356635 57.244877 
L 125.630055 60.131648 
L 127.599648 59.643554 
L 146.211812 65.258408 
L 159.417352 67.831188 
L 171.460723 58.625504 
L 178.029516 59.944238 
L 191.235056 61.869918 
L 209.84722 71.577679 
L 223.05276 80.108058 
L 233.295773 86.774906 
" clip-path="url(#p8f6d4c6bd5)" style="fill: none; stroke: #b2b2b2; stroke-width: 0.8; stroke-linecap: square"/>
   </g>
   <g id="line2d_91">
    <path d="M 53.721227 62.630404 
L 72.333391 38.951249 
L 85.538931 45.50341 
L 95.781944 53.511465 
L 104.151095 58.928763 
L 117.356635 59.337656 
L 125.630055 60.131648 
L 127.599648 56.64939 
L 146.211812 61.163864 
L 159.417352 60.482403 
L 171.460723 62.79359 
L 178.029516 65.127525 
L 191.235056 71.591768 
L 209.84722 86.341366 
L 223.05276 95.570772 
L 233.295773 104.292379 
" clip-path="url(#p8f6d4c6bd5)" style="fill: none; stroke: #b2b2b2; stroke-width: 0.8; stroke-linecap: square"/>
   </g>
   <g id="line2d_92">
    <path d="M 53.721227 50.84928 
L 72.333391 52.328067 
L 85.538931 45.878884 
L 95.781944 48.94724 
L 104.151095 40.937742 
L 117.356635 56.802001 
L 125.630055 60.131648 
L 127.599648 56.244088 
L 146.211812 58.296678 
L 159.417352 82.694982 
L 171.460723 85.73716 
L 178.029516 89.407233 
L 191.235056 89.357398 
L 209.84722 104.982827 
L 223.05276 116.438886 
L 233.295773 132.0912 
" clip-path="url(#p8f6d4c6bd5)" style="fill: none; stroke: #b2b2b2; stroke-width: 0.8; stroke-linecap: square"/>
   </g>
   <g id="line2d_93">
    <path d="M 53.721227 45.430347 
L 72.333391 47.965467 
L 85.538931 44.515992 
L 95.781944 44.997149 
L 104.151095 46.573211 
L 117.356635 54.997173 
L 125.630055 60.131648 
L 127.599648 60.906127 
L 146.211812 72.156161 
L 159.417352 68.315202 
L 171.460723 64.715936 
L 178.029516 60.536463 
L 191.235056 74.757633 
L 209.84722 86.534886 
L 223.05276 91.233153 
L 233.295773 103.755716 
" clip-path="url(#p8f6d4c6bd5)" style="fill: none; stroke: #b2b2b2; stroke-width: 0.8; stroke-linecap: square"/>
   </g>
   <g id="line2d_94">
    <path d="M 53.721227 58.753847 
L 72.333391 63.052429 
L 85.538931 49.554302 
L 95.781944 50.740327 
L 104.151095 49.806407 
L 117.356635 55.183312 
L 125.630055 60.131648 
L 127.599648 55.444049 
L 146.211812 55.983356 
L 159.417352 49.524961 
L 171.460723 55.534927 
L 178.029516 54.456975 
L 191.235056 57.1685 
L 209.84722 80.694668 
L 223.05276 96.797712 
L 233.295773 103.798033 
" clip-path="url(#p8f6d4c6bd5)" style="fill: none; stroke: #b2b2b2; stroke-width: 0.8; stroke-linecap: square"/>
   </g>
   <g id="line2d_95">
    <path d="M 53.721227 43.027086 
L 72.333391 50.238908 
L 85.538931 45.921202 
L 95.781944 45.240451 
L 104.151095 52.297422 
L 117.356635 61.442344 
L 125.630055 60.131648 
L 127.599648 57.224079 
L 146.211812 67.031203 
L 159.417352 72.355923 
L 171.460723 77.131013 
L 178.029516 88.203791 
L 191.235056 92.775578 
L 209.84722 99.013615 
L 223.05276 107.030466 
L 233.295773 111.143569 
" clip-path="url(#p8f6d4c6bd5)" style="fill: none; stroke: #b2b2b2; stroke-width: 0.8; stroke-linecap: square"/>
   </g>
   <g id="line2d_96">
    <path d="M 53.721227 69.864906 
L 72.333391 59.997186 
L 85.538931 48.619194 
L 95.781944 57.26072 
L 104.151095 58.806963 
L 117.356635 62.631074 
L 125.630055 60.131648 
L 127.599648 59.575502 
L 146.211812 65.961515 
L 159.417352 61.919959 
L 171.460723 62.066369 
L 178.029516 59.348211 
L 191.235056 76.270012 
L 209.84722 84.22848 
L 223.05276 101.232606 
L 233.295773 102.925559 
" clip-path="url(#p8f6d4c6bd5)" style="fill: none; stroke: #b2b2b2; stroke-width: 0.8; stroke-linecap: square"/>
   </g>
   <g id="line2d_97">
    <path d="M 53.721227 58.22374 
L 72.333391 39.048154 
L 85.538931 32.910931 
L 95.781944 37.071638 
L 104.151095 46.339642 
L 117.356635 49.872301 
L 125.630055 60.131648 
L 127.599648 61.498844 
L 146.211812 60.051764 
L 159.417352 57.574471 
L 171.460723 57.903422 
L 178.029516 61.332063 
L 191.235056 63.097612 
L 209.84722 75.794187 
L 223.05276 73.947864 
L 233.295773 77.551521 
" clip-path="url(#p8f6d4c6bd5)" style="fill: none; stroke: #b2b2b2; stroke-width: 0.8; stroke-linecap: square"/>
   </g>
   <g id="line2d_98">
    <path d="M 53.721227 35.340742 
L 72.333391 32.895063 
L 85.538931 37.185493 
L 95.781944 38.796935 
L 104.151095 45.764119 
L 117.356635 55.773337 
L 125.630055 60.131648 
L 127.599648 56.910133 
L 146.211812 66.171923 
L 159.417352 72.516563 
L 171.460723 81.184264 
L 178.029516 77.571205 
L 191.235056 76.768953 
L 209.84722 88.607871 
L 223.05276 98.03161 
L 233.295773 102.625259 
" clip-path="url(#p8f6d4c6bd5)" style="fill: none; stroke: #b2b2b2; stroke-width: 0.8; stroke-linecap: square"/>
   </g>
   <g id="line2d_99">
    <path d="M 53.721227 45.844803 
L 72.333391 33.430643 
L 85.538931 34.880846 
L 95.781944 39.66716 
L 104.151095 49.712326 
L 117.356635 59.4602 
L 125.630055 60.131648 
L 127.599648 58.821353 
L 146.211812 50.479784 
L 159.417352 46.178241 
L 171.460723 60.685717 
L 178.029516 66.451934 
L 191.235056 83.780955 
L 209.84722 97.779887 
L 223.05276 103.884957 
L 233.295773 117.339848 
" clip-path="url(#p8f6d4c6bd5)" style="fill: none; stroke: #b2b2b2; stroke-width: 0.8; stroke-linecap: square"/>
   </g>
   <g id="line2d_100">
    <path d="M 53.721227 54.020785 
L 72.333391 57.75798 
L 85.538931 52.133308 
L 95.781944 54.238504 
L 104.151095 50.925353 
L 117.356635 60.815385 
L 125.630055 60.131648 
L 127.599648 59.286087 
L 146.211812 55.107612 
L 159.417352 61.182429 
L 171.460723 64.41469 
L 178.029516 61.085358 
L 191.235056 61.037064 
L 209.84722 68.400717 
L 223.05276 71.686598 
L 233.295773 71.77754 
" clip-path="url(#p8f6d4c6bd5)" style="fill: none; stroke: #b2b2b2; stroke-width: 0.8; stroke-linecap: square"/>
   </g>
   <g id="line2d_101">
    <path d="M 53.721227 71.24856 
L 72.333391 70.103903 
L 85.538931 65.018078 
L 95.781944 64.271758 
L 104.151095 61.688468 
L 117.356635 60.253673 
L 125.630055 60.131648 
L 127.599648 58.484089 
L 146.211812 50.305303 
L 159.417352 40.374818 
L 171.460723 39.933809 
L 178.029516 41.820203 
L 191.235056 52.84615 
L 209.84722 53.884076 
L 223.05276 61.052762 
L 233.295773 74.729526 
" clip-path="url(#p8f6d4c6bd5)" style="fill: none; stroke: #b2b2b2; stroke-width: 0.8; stroke-linecap: square"/>
   </g>
   <g id="line2d_102">
    <path d="M 53.721227 64.028026 
L 72.333391 53.742599 
L 85.538931 49.679129 
L 95.781944 53.772926 
L 104.151095 47.478759 
L 117.356635 58.177028 
L 125.630055 60.131648 
L 127.599648 61.43236 
L 146.211812 70.191264 
L 159.417352 80.904455 
L 171.460723 83.578651 
L 178.029516 86.272821 
L 191.235056 85.849975 
L 209.84722 114.680713 
L 223.05276 103.800779 
L 233.295773 104.740158 
" clip-path="url(#p8f6d4c6bd5)" style="fill: none; stroke: #b2b2b2; stroke-width: 0.8; stroke-linecap: square"/>
   </g>
   <g id="line2d_103">
    <path d="M 53.721227 64.073899 
L 72.333391 61.881168 
L 85.538931 68.651849 
L 95.781944 67.097727 
L 104.151095 59.585164 
L 117.356635 64.968939 
L 125.630055 60.131648 
L 127.599648 62.38355 
L 146.211812 58.382419 
L 159.417352 57.693201 
L 171.460723 57.453669 
L 178.029516 64.470124 
L 191.235056 69.100589 
L 209.84722 75.555407 
L 223.05276 91.225966 
L 233.295773 96.701722 
" clip-path="url(#p8f6d4c6bd5)" style="fill: none; stroke: #b2b2b2; stroke-width: 0.8; stroke-linecap: square"/>
   </g>
   <g id="line2d_104">
    <path d="M 53.721227 46.838283 
L 72.333391 42.631721 
L 85.538931 42.497908 
L 95.781944 37.334536 
L 104.151095 45.330703 
L 117.356635 55.932517 
L 125.630055 60.131648 
L 127.599648 57.260678 
L 146.211812 66.465853 
L 159.417352 73.836904 
L 171.460723 77.978033 
L 178.029516 87.254094 
L 191.235056 83.83225 
L 209.84722 92.616318 
L 223.05276 105.183116 
L 233.295773 108.341835 
" clip-path="url(#p8f6d4c6bd5)" style="fill: none; stroke: #b2b2b2; stroke-width: 0.8; stroke-linecap: square"/>
   </g>
   <g id="line2d_105">
    <path d="M 53.721227 80.770091 
L 72.333391 76.625417 
L 85.538931 74.864208 
L 95.781944 58.335941 
L 104.151095 68.403788 
L 117.356635 58.305018 
L 125.630055 60.131648 
L 127.599648 62.619818 
L 146.211812 66.441167 
L 159.417352 67.054916 
L 171.460723 70.138273 
L 178.029516 54.219928 
L 191.235056 62.865114 
L 209.84722 86.378607 
L 223.05276 99.731541 
L 233.295773 104.819415 
" clip-path="url(#p8f6d4c6bd5)" style="fill: none; stroke: #b2b2b2; stroke-width: 0.8; stroke-linecap: square"/>
   </g>
   <g id="line2d_106">
    <path d="M 53.721227 49.041139 
L 72.333391 39.405515 
L 85.538931 50.509479 
L 95.781944 56.40174 
L 104.151095 50.251731 
L 117.356635 48.53597 
L 125.630055 60.131648 
L 127.599648 60.424207 
L 146.211812 57.600471 
L 159.417352 57.548939 
L 171.460723 73.21717 
L 178.029516 65.104669 
L 191.235056 82.412746 
L 209.84722 79.908187 
L 223.05276 97.235497 
L 233.295773 111.910931 
" clip-path="url(#p8f6d4c6bd5)" style="fill: none; stroke: #b2b2b2; stroke-width: 0.8; stroke-linecap: square"/>
   </g>
   <g id="line2d_107">
    <path d="M 53.721227 53.612437 
L 72.333391 50.466769 
L 85.538931 52.835445 
L 95.781944 54.388866 
L 104.151095 52.770466 
L 117.356635 63.255171 
L 125.630055 60.131648 
L 127.599648 58.799197 
L 146.211812 74.768342 
L 159.417352 69.25953 
L 171.460723 89.151533 
L 178.029516 91.693142 
L 191.235056 102.641657 
L 209.84722 115.20326 
L 223.05276 114.8483 
L 233.295773 114.156466 
" clip-path="url(#p8f6d4c6bd5)" style="fill: none; stroke: #b2b2b2; stroke-width: 0.8; stroke-linecap: square"/>
   </g>
   <g id="line2d_108">
    <path d="M 53.721227 77.879441 
L 72.333391 69.717066 
L 85.538931 65.214634 
L 95.781944 66.477615 
L 104.151095 69.56009 
L 117.356635 63.064788 
L 125.630055 60.131648 
L 127.599648 57.624214 
L 146.211812 59.431037 
L 159.417352 70.70877 
L 171.460723 69.623275 
L 178.029516 83.606048 
L 191.235056 87.423697 
L 209.84722 89.221167 
L 223.05276 102.452054 
L 233.295773 110.515963 
" clip-path="url(#p8f6d4c6bd5)" style="fill: none; stroke: #b2b2b2; stroke-width: 0.8; stroke-linecap: square"/>
   </g>
   <g id="line2d_109">
    <path d="M 53.721227 31.761891 
L 72.333391 25.807563 
L 85.538931 25.855471 
L 95.781944 31.219654 
L 104.151095 44.055096 
L 117.356635 46.68119 
L 125.630055 60.131648 
L 127.599648 60.928182 
L 146.211812 70.594771 
L 159.417352 79.877733 
L 171.460723 93.187497 
L 178.029516 91.46569 
L 191.235056 91.696989 
L 209.84722 84.684365 
L 223.05276 89.121675 
L 233.295773 108.7307 
" clip-path="url(#p8f6d4c6bd5)" style="fill: none; stroke: #b2b2b2; stroke-width: 0.8; stroke-linecap: square"/>
   </g>
   <g id="line2d_110">
    <path d="M 53.721227 45.378604 
L 72.333391 37.002267 
L 85.538931 34.462126 
L 95.781944 27.621755 
L 104.151095 32.981391 
L 117.356635 56.235995 
L 125.630055 60.131648 
L 127.599648 59.240646 
L 146.211812 60.018278 
L 159.417352 52.126457 
L 171.460723 54.489239 
L 178.029516 55.511279 
L 191.235056 57.236791 
L 209.84722 59.390325 
L 223.05276 69.386324 
L 233.295773 73.547238 
" clip-path="url(#p8f6d4c6bd5)" style="fill: none; stroke: #b2b2b2; stroke-width: 0.8; stroke-linecap: square"/>
   </g>
   <g id="line2d_111">
    <path d="M 53.721227 49.647898 
L 72.333391 48.542029 
L 85.538931 47.238336 
L 95.781944 64.473114 
L 104.151095 58.645353 
L 117.356635 59.217009 
L 125.630055 60.131648 
L 127.599648 63.302264 
L 146.211812 63.455724 
L 159.417352 68.753459 
L 171.460723 72.868341 
L 178.029516 70.010355 
L 191.235056 73.60915 
L 209.84722 79.098628 
L 223.05276 87.098537 
L 233.295773 85.769071 
" clip-path="url(#p8f6d4c6bd5)" style="fill: none; stroke: #b2b2b2; stroke-width: 0.8; stroke-linecap: square"/>
   </g>
   <g id="line2d_112">
    <path d="M 53.721227 57.547579 
L 72.333391 58.650243 
L 85.538931 43.301268 
L 95.781944 48.952607 
L 104.151095 41.47013 
L 117.356635 51.950954 
L 125.630055 60.131648 
L 127.599648 61.281405 
L 146.211812 60.158532 
L 159.417352 68.833781 
L 171.460723 71.705663 
L 178.029516 77.694846 
L 191.235056 90.770156 
L 209.84722 102.283342 
L 223.05276 104.879749 
L 233.295773 116.681968 
" clip-path="url(#p8f6d4c6bd5)" style="fill: none; stroke: #b2b2b2; stroke-width: 0.8; stroke-linecap: square"/>
   </g>
   <g id="line2d_113">
    <path d="M 53.721227 63.809927 
L 72.333391 55.841042 
L 85.538931 58.930682 
L 95.781944 55.257314 
L 104.151095 52.427687 
L 117.356635 51.290956 
L 125.630055 60.131648 
L 127.599648 62.34345 
L 146.211812 59.483691 
L 159.417352 58.298547 
L 171.460723 62.517872 
L 178.029516 64.171731 
L 191.235056 63.583329 
L 209.84722 72.852045 
L 223.05276 71.775281 
L 233.295773 86.454838 
" clip-path="url(#p8f6d4c6bd5)" style="fill: none; stroke: #b2b2b2; stroke-width: 0.8; stroke-linecap: square"/>
   </g>
   <g id="line2d_114">
    <path d="M 53.721227 59.234913 
L 72.333391 56.805769 
L 85.538931 54.65234 
L 95.781944 54.173882 
L 104.151095 55.93778 
L 117.356635 61.68071 
L 125.630055 60.131648 
L 127.599648 61.06548 
L 146.211812 67.048394 
L 159.417352 71.21396 
L 171.460723 75.771382 
L 178.029516 75.145658 
L 191.235056 82.85064 
L 209.84722 82.534291 
L 223.05276 86.574998 
L 233.295773 96.851765 
" clip-path="url(#p8f6d4c6bd5)" style="fill: none; stroke: #b2b2b2; stroke-width: 0.8; stroke-linecap: square"/>
   </g>
   <g id="line2d_115">
    <path d="M 53.721227 55.437273 
L 72.333391 44.991531 
L 85.538931 50.292407 
L 95.781944 51.197822 
L 104.151095 53.959492 
L 117.356635 48.35089 
L 125.630055 60.131648 
L 127.599648 56.64653 
L 146.211812 67.51955 
L 159.417352 67.691596 
L 171.460723 71.415077 
L 178.029516 60.124232 
L 191.235056 76.019558 
L 209.84722 84.47783 
L 223.05276 87.167214 
L 233.295773 95.677888 
" clip-path="url(#p8f6d4c6bd5)" style="fill: none; stroke: #b2b2b2; stroke-width: 0.8; stroke-linecap: square"/>
   </g>
   <g id="line2d_116">
    <path d="M 53.721227 58.600127 
L 72.333391 60.725996 
L 85.538931 54.184548 
L 95.781944 48.513682 
L 104.151095 51.817373 
L 117.356635 63.914224 
L 125.630055 60.131648 
L 127.599648 56.914413 
L 146.211812 57.701533 
L 159.417352 63.269837 
L 171.460723 63.73176 
L 178.029516 59.067232 
L 191.235056 60.80001 
L 209.84722 67.638437 
L 223.05276 78.766936 
L 233.295773 89.728332 
" clip-path="url(#p8f6d4c6bd5)" style="fill: none; stroke: #b2b2b2; stroke-width: 0.8; stroke-linecap: square"/>
   </g>
   <g id="line2d_117">
    <path d="M 53.721227 67.994614 
L 72.333391 58.982651 
L 85.538931 56.715001 
L 95.781944 57.884917 
L 104.151095 56.16157 
L 117.356635 57.27258 
L 125.630055 60.131648 
L 127.599648 58.095908 
L 146.211812 66.883118 
L 159.417352 64.49206 
L 171.460723 75.230968 
L 178.029516 71.868011 
L 191.235056 84.394848 
L 209.84722 87.575251 
L 223.05276 102.128773 
L 233.295773 98.582451 
" clip-path="url(#p8f6d4c6bd5)" style="fill: none; stroke: #b2b2b2; stroke-width: 0.8; stroke-linecap: square"/>
   </g>
   <g id="line2d_118">
    <path d="M 53.721227 56.583494 
L 72.333391 49.599201 
L 85.538931 49.747122 
L 95.781944 49.691081 
L 104.151095 60.40755 
L 117.356635 56.175549 
L 125.630055 60.131648 
L 127.599648 63.780804 
L 146.211812 63.274012 
L 159.417352 64.232925 
L 171.460723 68.228883 
L 178.029516 59.258666 
L 191.235056 68.505833 
L 209.84722 81.676242 
L 223.05276 89.732655 
L 233.295773 103.479895 
" clip-path="url(#p8f6d4c6bd5)" style="fill: none; stroke: #b2b2b2; stroke-width: 0.8; stroke-linecap: square"/>
   </g>
   <g id="line2d_119">
    <path d="M 53.721227 63.482466 
L 72.333391 55.071678 
L 85.538931 50.287225 
L 95.781944 45.084385 
L 104.151095 51.972736 
L 117.356635 51.913245 
L 125.630055 60.131648 
L 127.599648 64.717196 
L 146.211812 68.478493 
L 159.417352 69.139883 
L 171.460723 75.677461 
L 178.029516 77.845509 
L 191.235056 79.372554 
L 209.84722 86.94767 
L 223.05276 87.414142 
L 233.295773 89.76476 
" clip-path="url(#p8f6d4c6bd5)" style="fill: none; stroke: #b2b2b2; stroke-width: 0.8; stroke-linecap: square"/>
   </g>
   <g id="line2d_120">
    <path d="M 53.721227 22.494691 
L 72.333391 22.201177 
L 85.538931 13.1472 
L 95.781944 28.242989 
L 104.151095 44.89089 
L 117.356635 48.401754 
L 125.630055 60.131648 
L 127.599648 61.577049 
L 146.211812 73.025161 
L 159.417352 75.868143 
L 171.460723 77.692595 
L 178.029516 75.681378 
L 191.235056 79.273281 
L 209.84722 92.711833 
L 223.05276 112.546871 
L 233.295773 123.963467 
" clip-path="url(#p8f6d4c6bd5)" style="fill: none; stroke: #b2b2b2; stroke-width: 0.8; stroke-linecap: square"/>
   </g>
   <g id="line2d_121">
    <path d="M 53.721227 54.543336 
L 72.333391 50.096646 
L 85.538931 49.758667 
L 95.781944 51.446179 
L 104.151095 53.112367 
L 117.356635 57.500515 
L 125.630055 60.131648 
L 127.599648 60.063302 
L 146.211812 61.708375 
L 159.417352 63.525182 
L 171.460723 66.531045 
L 178.029516 68.510918 
L 191.235056 74.196611 
L 209.84722 83.788916 
L 223.05276 92.244849 
L 233.295773 100.866361 
" clip-path="url(#p8f6d4c6bd5)" style="fill: none; stroke: #ff0000; stroke-width: 2; stroke-linecap: square"/>
   </g>
   <g id="line2d_122">
    <path d="M 53.721227 28.733098 
L 72.333391 24.167292 
L 85.538931 26.292017 
L 95.781944 30.480746 
L 104.151095 35.136799 
L 117.356635 46.508233 
L 125.630055 60.131648 
L 127.599648 54.380193 
L 146.211812 44.274598 
L 159.417352 41.971452 
L 171.460723 42.493476 
L 178.029516 43.737524 
L 191.235056 48.728631 
L 209.84722 57.165818 
L 223.05276 65.646409 
L 233.295773 73.377059 
" clip-path="url(#p8f6d4c6bd5)" style="fill: none; stroke-dasharray: 7.4,3.2; stroke-dashoffset: 0; stroke: #ff0000; stroke-width: 2"/>
   </g>
   <g id="line2d_123">
    <path d="M 53.721227 80.353575 
L 72.333391 76.025999 
L 85.538931 73.225317 
L 95.781944 72.411612 
L 104.151095 71.087936 
L 117.356635 68.492797 
L 125.630055 60.131649 
L 127.599648 65.74641 
L 146.211812 79.142151 
L 159.417352 85.078912 
L 171.460723 90.568615 
L 178.029516 93.284312 
L 191.235056 99.664591 
L 209.84722 110.412014 
L 223.05276 118.843289 
L 233.295773 128.355664 
" clip-path="url(#p8f6d4c6bd5)" style="fill: none; stroke-dasharray: 7.4,3.2; stroke-dashoffset: 0; stroke: #ff0000; stroke-width: 2"/>
   </g>
   <g id="line2d_124">
    <path d="M 53.721227 54.456547 
L 72.333391 50.332473 
L 85.538931 49.675497 
L 95.781944 51.297316 
L 104.151095 53.247153 
L 117.356635 57.436965 
L 125.630055 60.131648 
L 127.599648 59.815128 
L 146.211812 61.667297 
L 159.417352 63.630201 
L 171.460723 66.304478 
L 178.029516 68.474068 
L 191.235056 73.926867 
L 209.84722 83.886761 
L 223.05276 92.048281 
L 233.295773 101.088454 
" clip-path="url(#p8f6d4c6bd5)" style="fill: none; stroke: #0000ff; stroke-width: 2; stroke-linecap: square"/>
   </g>
   <g id="line2d_125">
    <path d="M 53.721227 28.541869 
L 72.333391 24.52409 
L 85.538931 26.240919 
L 95.781944 30.445578 
L 104.151095 35.390801 
L 117.356635 46.46147 
L 125.630055 60.131648 
L 127.599648 54.3127 
L 146.211812 44.093273 
L 159.417352 42.088606 
L 171.460723 42.397073 
L 178.029516 43.933958 
L 191.235056 48.348514 
L 209.84722 57.281835 
L 223.05276 65.379596 
L 233.295773 73.496727 
" clip-path="url(#p8f6d4c6bd5)" style="fill: none; stroke-dasharray: 7.4,3.2; stroke-dashoffset: 0; stroke: #0000ff; stroke-width: 2"/>
   </g>
   <g id="line2d_126">
    <path d="M 53.721227 80.371225 
L 72.333391 76.140857 
L 85.538931 73.110075 
L 95.781944 72.149054 
L 104.151095 71.103506 
L 117.356635 68.41246 
L 125.630055 60.131648 
L 127.599648 65.317556 
L 146.211812 79.241322 
L 159.417352 85.171796 
L 171.460723 90.211882 
L 178.029516 93.014178 
L 191.235056 99.50522 
L 209.84722 110.491687 
L 223.05276 118.716965 
L 233.295773 128.680181 
" clip-path="url(#p8f6d4c6bd5)" style="fill: none; stroke-dasharray: 7.4,3.2; stroke-dashoffset: 0; stroke: #0000ff; stroke-width: 2"/>
   </g>
   <g id="patch_3">
    <path d="M 44.7425 138.0384 
L 44.7425 7.2 
" style="fill: none; stroke: #000000; stroke-width: 0.8; stroke-linejoin: miter; stroke-linecap: square"/>
   </g>
   <g id="patch_4">
    <path d="M 242.2745 138.0384 
L 242.2745 7.2 
" style="fill: none; stroke: #000000; stroke-width: 0.8; stroke-linejoin: miter; stroke-linecap: square"/>
   </g>
   <g id="patch_5">
    <path d="M 44.7425 138.0384 
L 242.2745 138.0384 
" style="fill: none; stroke: #000000; stroke-width: 0.8; stroke-linejoin: miter; stroke-linecap: square"/>
   </g>
   <g id="patch_6">
    <path d="M 44.7425 7.2 
L 242.2745 7.2 
" style="fill: none; stroke: #000000; stroke-width: 0.8; stroke-linejoin: miter; stroke-linecap: square"/>
   </g>
   <g id="legend_1">
    <g id="patch_7">
     <path d="M 247.8745 104.47295 
L 432.5945 104.47295 
Q 434.1945 104.47295 434.1945 102.87295 
L 434.1945 42.36545 
Q 434.1945 40.76545 432.5945 40.76545 
L 247.8745 40.76545 
Q 246.2745 40.76545 246.2745 42.36545 
L 246.2745 102.87295 
Q 246.2745 104.47295 247.8745 104.47295 
z
" style="fill: #ffffff; opacity: 0.8; stroke: #cccccc; stroke-linejoin: miter"/>
    </g>
    <g id="line2d_127">
     <path d="M 249.4745 47.2442 
L 257.4745 47.2442 
L 265.4745 47.2442 
" style="fill: none; stroke: #b2b2b2; stroke-width: 0.8; stroke-linecap: square"/>
    </g>
    <g id="text_7">
     <!-- Individual selected GMs -->
     <g transform="translate(271.8745 50.0442) scale(0.08 -0.08)">
      <defs>
       <path id="DejaVuSans-49" d="M 628 4666 
L 1259 4666 
L 1259 0 
L 628 0 
L 628 4666 
z
" transform="scale(0.015625)"/>
       <path id="DejaVuSans-76" d="M 191 3500 
L 800 3500 
L 1894 563 
L 2988 3500 
L 3597 3500 
L 2284 0 
L 1503 0 
L 191 3500 
z
" transform="scale(0.015625)"/>
       <path id="DejaVuSans-75" d="M 544 1381 
L 544 3500 
L 1119 3500 
L 1119 1403 
Q 1119 906 1312 657 
Q 1506 409 1894 409 
Q 2359 409 2629 706 
Q 2900 1003 2900 1516 
L 2900 3500 
L 3475 3500 
L 3475 0 
L 2900 0 
L 2900 538 
Q 2691 219 2414 64 
Q 2138 -91 1772 -91 
Q 1169 -91 856 284 
Q 544 659 544 1381 
z
M 1991 3584 
L 1991 3584 
z
" transform="scale(0.015625)"/>
       <path id="DejaVuSans-47" d="M 3809 666 
L 3809 1919 
L 2778 1919 
L 2778 2438 
L 4434 2438 
L 4434 434 
Q 4069 175 3628 42 
Q 3188 -91 2688 -91 
Q 1594 -91 976 548 
Q 359 1188 359 2328 
Q 359 3472 976 4111 
Q 1594 4750 2688 4750 
Q 3144 4750 3555 4637 
Q 3966 4525 4313 4306 
L 4313 3634 
Q 3963 3931 3569 4081 
Q 3175 4231 2741 4231 
Q 1884 4231 1454 3753 
Q 1025 3275 1025 2328 
Q 1025 1384 1454 906 
Q 1884 428 2741 428 
Q 3075 428 3337 486 
Q 3600 544 3809 666 
z
" transform="scale(0.015625)"/>
       <path id="DejaVuSans-4d" d="M 628 4666 
L 1569 4666 
L 2759 1491 
L 3956 4666 
L 4897 4666 
L 4897 0 
L 4281 0 
L 4281 4097 
L 3078 897 
L 2444 897 
L 1241 4097 
L 1241 0 
L 628 0 
L 628 4666 
z
" transform="scale(0.015625)"/>
      </defs>
      <use xlink:href="#DejaVuSans-49"/>
      <use xlink:href="#DejaVuSans-6e" x="29.492188"/>
      <use xlink:href="#DejaVuSans-64" x="92.871094"/>
      <use xlink:href="#DejaVuSans-69" x="156.347656"/>
      <use xlink:href="#DejaVuSans-76" x="184.130859"/>
      <use xlink:href="#DejaVuSans-69" x="243.310547"/>
      <use xlink:href="#DejaVuSans-64" x="271.09375"/>
      <use xlink:href="#DejaVuSans-75" x="334.570312"/>
      <use xlink:href="#DejaVuSans-61" x="397.949219"/>
      <use xlink:href="#DejaVuSans-6c" x="459.228516"/>
      <use xlink:href="#DejaVuSans-20" x="487.011719"/>
      <use xlink:href="#DejaVuSans-73" x="518.798828"/>
      <use xlink:href="#DejaVuSans-65" x="570.898438"/>
      <use xlink:href="#DejaVuSans-6c" x="632.421875"/>
      <use xlink:href="#DejaVuSans-65" x="660.205078"/>
      <use xlink:href="#DejaVuSans-63" x="721.728516"/>
      <use xlink:href="#DejaVuSans-74" x="776.708984"/>
      <use xlink:href="#DejaVuSans-65" x="815.917969"/>
      <use xlink:href="#DejaVuSans-64" x="877.441406"/>
      <use xlink:href="#DejaVuSans-20" x="940.917969"/>
      <use xlink:href="#DejaVuSans-47" x="972.705078"/>
      <use xlink:href="#DejaVuSans-4d" x="1050.195312"/>
      <use xlink:href="#DejaVuSans-73" x="1136.474609"/>
     </g>
    </g>
    <g id="line2d_128">
     <path d="M 249.4745 58.9867 
L 257.4745 58.9867 
L 265.4745 58.9867 
" style="fill: none; stroke: #ff0000; stroke-width: 2; stroke-linecap: square"/>
    </g>
    <g id="text_8">
     <!-- GCIM median -->
     <g transform="translate(271.8745 61.7867) scale(0.08 -0.08)">
      <defs>
       <path id="DejaVuSans-43" d="M 4122 4306 
L 4122 3641 
Q 3803 3938 3442 4084 
Q 3081 4231 2675 4231 
Q 1875 4231 1450 3742 
Q 1025 3253 1025 2328 
Q 1025 1406 1450 917 
Q 1875 428 2675 428 
Q 3081 428 3442 575 
Q 3803 722 4122 1019 
L 4122 359 
Q 3791 134 3420 21 
Q 3050 -91 2638 -91 
Q 1578 -91 968 557 
Q 359 1206 359 2328 
Q 359 3453 968 4101 
Q 1578 4750 2638 4750 
Q 3056 4750 3426 4639 
Q 3797 4528 4122 4306 
z
" transform="scale(0.015625)"/>
       <path id="DejaVuSans-6d" d="M 3328 2828 
Q 3544 3216 3844 3400 
Q 4144 3584 4550 3584 
Q 5097 3584 5394 3201 
Q 5691 2819 5691 2113 
L 5691 0 
L 5113 0 
L 5113 2094 
Q 5113 2597 4934 2840 
Q 4756 3084 4391 3084 
Q 3944 3084 3684 2787 
Q 3425 2491 3425 1978 
L 3425 0 
L 2847 0 
L 2847 2094 
Q 2847 2600 2669 2842 
Q 2491 3084 2119 3084 
Q 1678 3084 1418 2786 
Q 1159 2488 1159 1978 
L 1159 0 
L 581 0 
L 581 3500 
L 1159 3500 
L 1159 2956 
Q 1356 3278 1631 3431 
Q 1906 3584 2284 3584 
Q 2666 3584 2933 3390 
Q 3200 3197 3328 2828 
z
" transform="scale(0.015625)"/>
      </defs>
      <use xlink:href="#DejaVuSans-47"/>
      <use xlink:href="#DejaVuSans-43" x="77.490234"/>
      <use xlink:href="#DejaVuSans-49" x="147.314453"/>
      <use xlink:href="#DejaVuSans-4d" x="176.806641"/>
      <use xlink:href="#DejaVuSans-20" x="263.085938"/>
      <use xlink:href="#DejaVuSans-6d" x="294.873047"/>
      <use xlink:href="#DejaVuSans-65" x="392.285156"/>
      <use xlink:href="#DejaVuSans-64" x="453.808594"/>
      <use xlink:href="#DejaVuSans-69" x="517.285156"/>
      <use xlink:href="#DejaVuSans-61" x="545.068359"/>
      <use xlink:href="#DejaVuSans-6e" x="606.347656"/>
     </g>
    </g>
    <g id="line2d_129">
     <path d="M 249.4745 72.01045 
L 257.4745 72.01045 
L 265.4745 72.01045 
" style="fill: none; stroke-dasharray: 7.4,3.2; stroke-dashoffset: 0; stroke: #ff0000; stroke-width: 2"/>
    </g>
    <g id="text_9">
     <!-- GCIM $16^{th}$ and $84^{th}$ percentiles -->
     <g transform="translate(271.8745 74.81045) scale(0.08 -0.08)">
      <defs>
       <path id="DejaVuSans-36" d="M 2113 2584 
Q 1688 2584 1439 2293 
Q 1191 2003 1191 1497 
Q 1191 994 1439 701 
Q 1688 409 2113 409 
Q 2538 409 2786 701 
Q 3034 994 3034 1497 
Q 3034 2003 2786 2293 
Q 2538 2584 2113 2584 
z
M 3366 4563 
L 3366 3988 
Q 3128 4100 2886 4159 
Q 2644 4219 2406 4219 
Q 1781 4219 1451 3797 
Q 1122 3375 1075 2522 
Q 1259 2794 1537 2939 
Q 1816 3084 2150 3084 
Q 2853 3084 3261 2657 
Q 3669 2231 3669 1497 
Q 3669 778 3244 343 
Q 2819 -91 2113 -91 
Q 1303 -91 875 529 
Q 447 1150 447 2328 
Q 447 3434 972 4092 
Q 1497 4750 2381 4750 
Q 2619 4750 2861 4703 
Q 3103 4656 3366 4563 
z
" transform="scale(0.015625)"/>
       <path id="DejaVuSans-Oblique-74" d="M 2706 3500 
L 2619 3053 
L 1472 3053 
L 1100 1153 
Q 1081 1047 1072 975 
Q 1063 903 1063 863 
Q 1063 663 1183 572 
Q 1303 481 1569 481 
L 2150 481 
L 2053 0 
L 1503 0 
Q 991 0 739 200 
Q 488 400 488 806 
Q 488 878 497 964 
Q 506 1050 525 1153 
L 897 3053 
L 409 3053 
L 500 3500 
L 978 3500 
L 1172 4494 
L 1747 4494 
L 1556 3500 
L 2706 3500 
z
" transform="scale(0.015625)"/>
       <path id="DejaVuSans-Oblique-68" d="M 3566 2113 
L 3156 0 
L 2578 0 
L 2988 2091 
Q 3016 2238 3031 2350 
Q 3047 2463 3047 2528 
Q 3047 2791 2881 2937 
Q 2716 3084 2419 3084 
Q 1956 3084 1617 2771 
Q 1278 2459 1178 1941 
L 800 0 
L 225 0 
L 1172 4863 
L 1747 4863 
L 1375 2950 
Q 1594 3244 1934 3414 
Q 2275 3584 2650 3584 
Q 3113 3584 3367 3334 
Q 3622 3084 3622 2631 
Q 3622 2519 3608 2391 
Q 3594 2263 3566 2113 
z
" transform="scale(0.015625)"/>
       <path id="DejaVuSans-38" d="M 2034 2216 
Q 1584 2216 1326 1975 
Q 1069 1734 1069 1313 
Q 1069 891 1326 650 
Q 1584 409 2034 409 
Q 2484 409 2743 651 
Q 3003 894 3003 1313 
Q 3003 1734 2745 1975 
Q 2488 2216 2034 2216 
z
M 1403 2484 
Q 997 2584 770 2862 
Q 544 3141 544 3541 
Q 544 4100 942 4425 
Q 1341 4750 2034 4750 
Q 2731 4750 3128 4425 
Q 3525 4100 3525 3541 
Q 3525 3141 3298 2862 
Q 3072 2584 2669 2484 
Q 3125 2378 3379 2068 
Q 3634 1759 3634 1313 
Q 3634 634 3220 271 
Q 2806 -91 2034 -91 
Q 1263 -91 848 271 
Q 434 634 434 1313 
Q 434 1759 690 2068 
Q 947 2378 1403 2484 
z
M 1172 3481 
Q 1172 3119 1398 2916 
Q 1625 2713 2034 2713 
Q 2441 2713 2670 2916 
Q 2900 3119 2900 3481 
Q 2900 3844 2670 4047 
Q 2441 4250 2034 4250 
Q 1625 4250 1398 4047 
Q 1172 3844 1172 3481 
z
" transform="scale(0.015625)"/>
       <path id="DejaVuSans-34" d="M 2419 4116 
L 825 1625 
L 2419 1625 
L 2419 4116 
z
M 2253 4666 
L 3047 4666 
L 3047 1625 
L 3713 1625 
L 3713 1100 
L 3047 1100 
L 3047 0 
L 2419 0 
L 2419 1100 
L 313 1100 
L 313 1709 
L 2253 4666 
z
" transform="scale(0.015625)"/>
      </defs>
      <use xlink:href="#DejaVuSans-47" transform="translate(0 0.529687)"/>
      <use xlink:href="#DejaVuSans-43" transform="translate(77.490234 0.529687)"/>
      <use xlink:href="#DejaVuSans-49" transform="translate(147.314453 0.529687)"/>
      <use xlink:href="#DejaVuSans-4d" transform="translate(176.806641 0.529687)"/>
      <use xlink:href="#DejaVuSans-20" transform="translate(263.085938 0.529687)"/>
      <use xlink:href="#DejaVuSans-31" transform="translate(294.873047 0.529687)"/>
      <use xlink:href="#DejaVuSans-36" transform="translate(358.496094 0.529687)"/>
      <use xlink:href="#DejaVuSans-Oblique-74" transform="translate(423.076172 38.810937) scale(0.7)"/>
      <use xlink:href="#DejaVuSans-Oblique-68" transform="translate(450.522461 38.810937) scale(0.7)"/>
      <use xlink:href="#DejaVuSans-20" transform="translate(497.62207 0.529687)"/>
      <use xlink:href="#DejaVuSans-61" transform="translate(529.40918 0.529687)"/>
      <use xlink:href="#DejaVuSans-6e" transform="translate(590.688477 0.529687)"/>
      <use xlink:href="#DejaVuSans-64" transform="translate(654.067383 0.529687)"/>
      <use xlink:href="#DejaVuSans-20" transform="translate(717.543945 0.529687)"/>
      <use xlink:href="#DejaVuSans-38" transform="translate(749.331055 0.529687)"/>
      <use xlink:href="#DejaVuSans-34" transform="translate(812.954102 0.529687)"/>
      <use xlink:href="#DejaVuSans-Oblique-74" transform="translate(877.53418 38.810937) scale(0.7)"/>
      <use xlink:href="#DejaVuSans-Oblique-68" transform="translate(904.980469 38.810937) scale(0.7)"/>
      <use xlink:href="#DejaVuSans-20" transform="translate(952.080078 0.529687)"/>
      <use xlink:href="#DejaVuSans-70" transform="translate(983.867188 0.529687)"/>
      <use xlink:href="#DejaVuSans-65" transform="translate(1047.34375 0.529687)"/>
      <use xlink:href="#DejaVuSans-72" transform="translate(1108.867188 0.529687)"/>
      <use xlink:href="#DejaVuSans-63" transform="translate(1149.980469 0.529687)"/>
      <use xlink:href="#DejaVuSans-65" transform="translate(1204.960938 0.529687)"/>
      <use xlink:href="#DejaVuSans-6e" transform="translate(1266.484375 0.529687)"/>
      <use xlink:href="#DejaVuSans-74" transform="translate(1329.863281 0.529687)"/>
      <use xlink:href="#DejaVuSans-69" transform="translate(1369.072266 0.529687)"/>
      <use xlink:href="#DejaVuSans-6c" transform="translate(1396.855469 0.529687)"/>
      <use xlink:href="#DejaVuSans-65" transform="translate(1424.638672 0.529687)"/>
      <use xlink:href="#DejaVuSans-73" transform="translate(1486.162109 0.529687)"/>
     </g>
    </g>
    <g id="line2d_130">
     <path d="M 249.4745 83.7692 
L 257.4745 83.7692 
L 265.4745 83.7692 
" style="fill: none; stroke: #0000ff; stroke-width: 2; stroke-linecap: square"/>
    </g>
    <g id="text_10">
     <!-- Selected GMs median -->
     <g transform="translate(271.8745 86.5692) scale(0.08 -0.08)">
      <use xlink:href="#DejaVuSans-53"/>
      <use xlink:href="#DejaVuSans-65" x="63.476562"/>
      <use xlink:href="#DejaVuSans-6c" x="125"/>
      <use xlink:href="#DejaVuSans-65" x="152.783203"/>
      <use xlink:href="#DejaVuSans-63" x="214.306641"/>
      <use xlink:href="#DejaVuSans-74" x="269.287109"/>
      <use xlink:href="#DejaVuSans-65" x="308.496094"/>
      <use xlink:href="#DejaVuSans-64" x="370.019531"/>
      <use xlink:href="#DejaVuSans-20" x="433.496094"/>
      <use xlink:href="#DejaVuSans-47" x="465.283203"/>
      <use xlink:href="#DejaVuSans-4d" x="542.773438"/>
      <use xlink:href="#DejaVuSans-73" x="629.052734"/>
      <use xlink:href="#DejaVuSans-20" x="681.152344"/>
      <use xlink:href="#DejaVuSans-6d" x="712.939453"/>
      <use xlink:href="#DejaVuSans-65" x="810.351562"/>
      <use xlink:href="#DejaVuSans-64" x="871.875"/>
      <use xlink:href="#DejaVuSans-69" x="935.351562"/>
      <use xlink:href="#DejaVuSans-61" x="963.134766"/>
      <use xlink:href="#DejaVuSans-6e" x="1024.414062"/>
     </g>
    </g>
    <g id="line2d_131">
     <path d="M 249.4745 96.79295 
L 257.4745 96.79295 
L 265.4745 96.79295 
" style="fill: none; stroke-dasharray: 7.4,3.2; stroke-dashoffset: 0; stroke: #0000ff; stroke-width: 2"/>
    </g>
    <g id="text_11">
     <!-- Selected GMs, $16^{th}$ and $84^{th}$ percentiles -->
     <g transform="translate(271.8745 99.59295) scale(0.08 -0.08)">
      <use xlink:href="#DejaVuSans-53" transform="translate(0 0.529687)"/>
      <use xlink:href="#DejaVuSans-65" transform="translate(63.476562 0.529687)"/>
      <use xlink:href="#DejaVuSans-6c" transform="translate(125 0.529687)"/>
      <use xlink:href="#DejaVuSans-65" transform="translate(152.783203 0.529687)"/>
      <use xlink:href="#DejaVuSans-63" transform="translate(214.306641 0.529687)"/>
      <use xlink:href="#DejaVuSans-74" transform="translate(269.287109 0.529687)"/>
      <use xlink:href="#DejaVuSans-65" transform="translate(308.496094 0.529687)"/>
      <use xlink:href="#DejaVuSans-64" transform="translate(370.019531 0.529687)"/>
      <use xlink:href="#DejaVuSans-20" transform="translate(433.496094 0.529687)"/>
      <use xlink:href="#DejaVuSans-47" transform="translate(465.283203 0.529687)"/>
      <use xlink:href="#DejaVuSans-4d" transform="translate(542.773438 0.529687)"/>
      <use xlink:href="#DejaVuSans-73" transform="translate(629.052734 0.529687)"/>
      <use xlink:href="#DejaVuSans-2c" transform="translate(681.152344 0.529687)"/>
      <use xlink:href="#DejaVuSans-20" transform="translate(712.939453 0.529687)"/>
      <use xlink:href="#DejaVuSans-31" transform="translate(744.726562 0.529687)"/>
      <use xlink:href="#DejaVuSans-36" transform="translate(808.349609 0.529687)"/>
      <use xlink:href="#DejaVuSans-Oblique-74" transform="translate(872.929688 38.810937) scale(0.7)"/>
      <use xlink:href="#DejaVuSans-Oblique-68" transform="translate(900.375977 38.810937) scale(0.7)"/>
      <use xlink:href="#DejaVuSans-20" transform="translate(947.475586 0.529687)"/>
      <use xlink:href="#DejaVuSans-61" transform="translate(979.262695 0.529687)"/>
      <use xlink:href="#DejaVuSans-6e" transform="translate(1040.541992 0.529687)"/>
      <use xlink:href="#DejaVuSans-64" transform="translate(1103.920898 0.529687)"/>
      <use xlink:href="#DejaVuSans-20" transform="translate(1167.397461 0.529687)"/>
      <use xlink:href="#DejaVuSans-38" transform="translate(1199.18457 0.529687)"/>
      <use xlink:href="#DejaVuSans-34" transform="translate(1262.807617 0.529687)"/>
      <use xlink:href="#DejaVuSans-Oblique-74" transform="translate(1327.387695 38.810937) scale(0.7)"/>
      <use xlink:href="#DejaVuSans-Oblique-68" transform="translate(1354.833984 38.810937) scale(0.7)"/>
      <use xlink:href="#DejaVuSans-20" transform="translate(1401.933594 0.529687)"/>
      <use xlink:href="#DejaVuSans-70" transform="translate(1433.720703 0.529687)"/>
      <use xlink:href="#DejaVuSans-65" transform="translate(1497.197266 0.529687)"/>
      <use xlink:href="#DejaVuSans-72" transform="translate(1558.720703 0.529687)"/>
      <use xlink:href="#DejaVuSans-63" transform="translate(1599.833984 0.529687)"/>
      <use xlink:href="#DejaVuSans-65" transform="translate(1654.814453 0.529687)"/>
      <use xlink:href="#DejaVuSans-6e" transform="translate(1716.337891 0.529687)"/>
      <use xlink:href="#DejaVuSans-74" transform="translate(1779.716797 0.529687)"/>
      <use xlink:href="#DejaVuSans-69" transform="translate(1818.925781 0.529687)"/>
      <use xlink:href="#DejaVuSans-6c" transform="translate(1846.708984 0.529687)"/>
      <use xlink:href="#DejaVuSans-65" transform="translate(1874.492188 0.529687)"/>
      <use xlink:href="#DejaVuSans-73" transform="translate(1936.015625 0.529687)"/>
     </g>
    </g>
   </g>
  </g>
 </g>
 <defs>
  <clipPath id="p8f6d4c6bd5">
   <rect x="44.7425" y="7.2" width="197.532" height="130.8384"/>
  </clipPath>
 </defs>
</svg>
