<?xml version="1.0" encoding="utf-8" standalone="no"?>
<!DOCTYPE svg PUBLIC "-//W3C//DTD SVG 1.1//EN"
  "http://www.w3.org/Graphics/SVG/1.1/DTD/svg11.dtd">
<svg xmlns:xlink="http://www.w3.org/1999/xlink" width="441.3945pt" height="173.292464pt" viewBox="0 0 441.3945 173.292464" xmlns="http://www.w3.org/2000/svg" version="1.1">
 <metadata>
  <rdf:RDF xmlns:dc="http://purl.org/dc/elements/1.1/" xmlns:cc="http://creativecommons.org/ns#" xmlns:rdf="http://www.w3.org/1999/02/22-rdf-syntax-ns#">
   <cc:Work>
    <dc:type rdf:resource="http://purl.org/dc/dcmitype/StillImage"/>
    <dc:date>2024-11-13T17:43:08.297534</dc:date>
    <dc:format>image/svg+xml</dc:format>
    <dc:creator>
     <cc:Agent>
      <dc:title>Matplotlib v3.8.2, https://matplotlib.org/</dc:title>
     </cc:Agent>
    </dc:creator>
   </cc:Work>
  </rdf:RDF>
 </metadata>
 <defs>
  <style type="text/css">*{stroke-linejoin: round; stroke-linecap: butt}</style>
 </defs>
 <g id="figure_1">
  <g id="patch_1">
   <path d="M 0 173.292464 
L 441.3945 173.292464 
L 441.3945 0 
L 0 0 
z
" style="fill: #ffffff"/>
  </g>
  <g id="axes_1">
   <g id="patch_2">
    <path d="M 44.7425 139.607464 
L 242.2745 139.607464 
L 242.2745 8.769064 
L 44.7425 8.769064 
z
" style="fill: #ffffff"/>
   </g>
   <g id="matplotlib.axis_1">
    <g id="xtick_1">
     <g id="line2d_1">
      <path d="M 53.721227 139.607464 
L 53.721227 8.769064 
" clip-path="url(#pce6200bada)" style="fill: none; stroke: #d9d9d9; stroke-width: 0.8; stroke-linecap: square"/>
     </g>
     <g id="line2d_2">
      <defs>
       <path id="m69b2a6449e" d="M 0 0 
L 0 3.5 
" style="stroke: #000000; stroke-width: 0.8"/>
      </defs>
      <g>
       <use xlink:href="#m69b2a6449e" x="53.721227" y="139.607464" style="stroke: #000000; stroke-width: 0.8"/>
      </g>
     </g>
     <g id="text_1">
      <!-- $\mathdefault{10^{-1}}$ -->
      <g transform="translate(44.321227 152.686214) scale(0.08 -0.08)">
       <defs>
        <path id="DejaVuSans-31" d="M 794 531 
L 1825 531 
L 1825 4091 
L 703 3866 
L 703 4441 
L 1819 4666 
L 2450 4666 
L 2450 531 
L 3481 531 
L 3481 0 
L 794 0 
L 794 531 
z
" transform="scale(0.015625)"/>
        <path id="DejaVuSans-30" d="M 2034 4250 
Q 1547 4250 1301 3770 
Q 1056 3291 1056 2328 
Q 1056 1369 1301 889 
Q 1547 409 2034 409 
Q 2525 409 2770 889 
Q 3016 1369 3016 2328 
Q 3016 3291 2770 3770 
Q 2525 4250 2034 4250 
z
M 2034 4750 
Q 2819 4750 3233 4129 
Q 3647 3509 3647 2328 
Q 3647 1150 3233 529 
Q 2819 -91 2034 -91 
Q 1250 -91 836 529 
Q 422 1150 422 2328 
Q 422 3509 836 4129 
Q 1250 4750 2034 4750 
z
" transform="scale(0.015625)"/>
        <path id="DejaVuSans-2212" d="M 678 2272 
L 4684 2272 
L 4684 1741 
L 678 1741 
L 678 2272 
z
" transform="scale(0.015625)"/>
       </defs>
       <use xlink:href="#DejaVuSans-31" transform="translate(0 0.684375)"/>
       <use xlink:href="#DejaVuSans-30" transform="translate(63.623047 0.684375)"/>
       <use xlink:href="#DejaVuSans-2212" transform="translate(128.203125 38.965625) scale(0.7)"/>
       <use xlink:href="#DejaVuSans-31" transform="translate(186.855469 38.965625) scale(0.7)"/>
      </g>
     </g>
    </g>
    <g id="xtick_2">
     <g id="line2d_3">
      <path d="M 165.811003 139.607464 
L 165.811003 8.769064 
" clip-path="url(#pce6200bada)" style="fill: none; stroke: #d9d9d9; stroke-width: 0.8; stroke-linecap: square"/>
     </g>
     <g id="line2d_4">
      <g>
       <use xlink:href="#m69b2a6449e" x="165.811003" y="139.607464" style="stroke: #000000; stroke-width: 0.8"/>
      </g>
     </g>
     <g id="text_2">
      <!-- $\mathdefault{10^{0}}$ -->
      <g transform="translate(158.771003 152.686214) scale(0.08 -0.08)">
       <use xlink:href="#DejaVuSans-31" transform="translate(0 0.765625)"/>
       <use xlink:href="#DejaVuSans-30" transform="translate(63.623047 0.765625)"/>
       <use xlink:href="#DejaVuSans-30" transform="translate(128.203125 39.046875) scale(0.7)"/>
      </g>
     </g>
    </g>
    <g id="xtick_3">
     <g id="line2d_5">
      <path d="M 48.59228 139.607464 
L 48.59228 8.769064 
" clip-path="url(#pce6200bada)" style="fill: none; stroke-dasharray: 2.96,1.28; stroke-dashoffset: 0; stroke: #f2f2f2; stroke-width: 0.8"/>
     </g>
     <g id="line2d_6">
      <defs>
       <path id="md992ab4201" d="M 0 0 
L 0 2 
" style="stroke: #000000; stroke-width: 0.6"/>
      </defs>
      <g>
       <use xlink:href="#md992ab4201" x="48.59228" y="139.607464" style="stroke: #000000; stroke-width: 0.6"/>
      </g>
     </g>
    </g>
    <g id="xtick_4">
     <g id="line2d_7">
      <path d="M 87.463612 139.607464 
L 87.463612 8.769064 
" clip-path="url(#pce6200bada)" style="fill: none; stroke-dasharray: 2.96,1.28; stroke-dashoffset: 0; stroke: #f2f2f2; stroke-width: 0.8"/>
     </g>
     <g id="line2d_8">
      <g>
       <use xlink:href="#md992ab4201" x="87.463612" y="139.607464" style="stroke: #000000; stroke-width: 0.6"/>
      </g>
     </g>
    </g>
    <g id="xtick_5">
     <g id="line2d_9">
      <path d="M 107.201642 139.607464 
L 107.201642 8.769064 
" clip-path="url(#pce6200bada)" style="fill: none; stroke-dasharray: 2.96,1.28; stroke-dashoffset: 0; stroke: #f2f2f2; stroke-width: 0.8"/>
     </g>
     <g id="line2d_10">
      <g>
       <use xlink:href="#md992ab4201" x="107.201642" y="139.607464" style="stroke: #000000; stroke-width: 0.6"/>
      </g>
     </g>
    </g>
    <g id="xtick_6">
     <g id="line2d_11">
      <path d="M 121.205997 139.607464 
L 121.205997 8.769064 
" clip-path="url(#pce6200bada)" style="fill: none; stroke-dasharray: 2.96,1.28; stroke-dashoffset: 0; stroke: #f2f2f2; stroke-width: 0.8"/>
     </g>
     <g id="line2d_12">
      <g>
       <use xlink:href="#md992ab4201" x="121.205997" y="139.607464" style="stroke: #000000; stroke-width: 0.6"/>
      </g>
     </g>
    </g>
    <g id="xtick_7">
     <g id="line2d_13">
      <path d="M 132.068618 139.607464 
L 132.068618 8.769064 
" clip-path="url(#pce6200bada)" style="fill: none; stroke-dasharray: 2.96,1.28; stroke-dashoffset: 0; stroke: #f2f2f2; stroke-width: 0.8"/>
     </g>
     <g id="line2d_14">
      <g>
       <use xlink:href="#md992ab4201" x="132.068618" y="139.607464" style="stroke: #000000; stroke-width: 0.6"/>
      </g>
     </g>
    </g>
    <g id="xtick_8">
     <g id="line2d_15">
      <path d="M 140.944027 139.607464 
L 140.944027 8.769064 
" clip-path="url(#pce6200bada)" style="fill: none; stroke-dasharray: 2.96,1.28; stroke-dashoffset: 0; stroke: #f2f2f2; stroke-width: 0.8"/>
     </g>
     <g id="line2d_16">
      <g>
       <use xlink:href="#md992ab4201" x="140.944027" y="139.607464" style="stroke: #000000; stroke-width: 0.6"/>
      </g>
     </g>
    </g>
    <g id="xtick_9">
     <g id="line2d_17">
      <path d="M 148.448077 139.607464 
L 148.448077 8.769064 
" clip-path="url(#pce6200bada)" style="fill: none; stroke-dasharray: 2.96,1.28; stroke-dashoffset: 0; stroke: #f2f2f2; stroke-width: 0.8"/>
     </g>
     <g id="line2d_18">
      <g>
       <use xlink:href="#md992ab4201" x="148.448077" y="139.607464" style="stroke: #000000; stroke-width: 0.6"/>
      </g>
     </g>
    </g>
    <g id="xtick_10">
     <g id="line2d_19">
      <path d="M 154.948382 139.607464 
L 154.948382 8.769064 
" clip-path="url(#pce6200bada)" style="fill: none; stroke-dasharray: 2.96,1.28; stroke-dashoffset: 0; stroke: #f2f2f2; stroke-width: 0.8"/>
     </g>
     <g id="line2d_20">
      <g>
       <use xlink:href="#md992ab4201" x="154.948382" y="139.607464" style="stroke: #000000; stroke-width: 0.6"/>
      </g>
     </g>
    </g>
    <g id="xtick_11">
     <g id="line2d_21">
      <path d="M 160.682056 139.607464 
L 160.682056 8.769064 
" clip-path="url(#pce6200bada)" style="fill: none; stroke-dasharray: 2.96,1.28; stroke-dashoffset: 0; stroke: #f2f2f2; stroke-width: 0.8"/>
     </g>
     <g id="line2d_22">
      <g>
       <use xlink:href="#md992ab4201" x="160.682056" y="139.607464" style="stroke: #000000; stroke-width: 0.6"/>
      </g>
     </g>
    </g>
    <g id="xtick_12">
     <g id="line2d_23">
      <path d="M 199.553388 139.607464 
L 199.553388 8.769064 
" clip-path="url(#pce6200bada)" style="fill: none; stroke-dasharray: 2.96,1.28; stroke-dashoffset: 0; stroke: #f2f2f2; stroke-width: 0.8"/>
     </g>
     <g id="line2d_24">
      <g>
       <use xlink:href="#md992ab4201" x="199.553388" y="139.607464" style="stroke: #000000; stroke-width: 0.6"/>
      </g>
     </g>
    </g>
    <g id="xtick_13">
     <g id="line2d_25">
      <path d="M 219.291418 139.607464 
L 219.291418 8.769064 
" clip-path="url(#pce6200bada)" style="fill: none; stroke-dasharray: 2.96,1.28; stroke-dashoffset: 0; stroke: #f2f2f2; stroke-width: 0.8"/>
     </g>
     <g id="line2d_26">
      <g>
       <use xlink:href="#md992ab4201" x="219.291418" y="139.607464" style="stroke: #000000; stroke-width: 0.6"/>
      </g>
     </g>
    </g>
    <g id="xtick_14">
     <g id="line2d_27">
      <path d="M 233.295773 139.607464 
L 233.295773 8.769064 
" clip-path="url(#pce6200bada)" style="fill: none; stroke-dasharray: 2.96,1.28; stroke-dashoffset: 0; stroke: #f2f2f2; stroke-width: 0.8"/>
     </g>
     <g id="line2d_28">
      <g>
       <use xlink:href="#md992ab4201" x="233.295773" y="139.607464" style="stroke: #000000; stroke-width: 0.6"/>
      </g>
     </g>
    </g>
    <g id="text_3">
     <!-- Period, T (s) -->
     <g transform="translate(119.576 164.428714) scale(0.08 -0.08)">
      <defs>
       <path id="DejaVuSans-50" d="M 1259 4147 
L 1259 2394 
L 2053 2394 
Q 2494 2394 2734 2622 
Q 2975 2850 2975 3272 
Q 2975 3691 2734 3919 
Q 2494 4147 2053 4147 
L 1259 4147 
z
M 628 4666 
L 2053 4666 
Q 2838 4666 3239 4311 
Q 3641 3956 3641 3272 
Q 3641 2581 3239 2228 
Q 2838 1875 2053 1875 
L 1259 1875 
L 1259 0 
L 628 0 
L 628 4666 
z
" transform="scale(0.015625)"/>
       <path id="DejaVuSans-65" d="M 3597 1894 
L 3597 1613 
L 953 1613 
Q 991 1019 1311 708 
Q 1631 397 2203 397 
Q 2534 397 2845 478 
Q 3156 559 3463 722 
L 3463 178 
Q 3153 47 2828 -22 
Q 2503 -91 2169 -91 
Q 1331 -91 842 396 
Q 353 884 353 1716 
Q 353 2575 817 3079 
Q 1281 3584 2069 3584 
Q 2775 3584 3186 3129 
Q 3597 2675 3597 1894 
z
M 3022 2063 
Q 3016 2534 2758 2815 
Q 2500 3097 2075 3097 
Q 1594 3097 1305 2825 
Q 1016 2553 972 2059 
L 3022 2063 
z
" transform="scale(0.015625)"/>
       <path id="DejaVuSans-72" d="M 2631 2963 
Q 2534 3019 2420 3045 
Q 2306 3072 2169 3072 
Q 1681 3072 1420 2755 
Q 1159 2438 1159 1844 
L 1159 0 
L 581 0 
L 581 3500 
L 1159 3500 
L 1159 2956 
Q 1341 3275 1631 3429 
Q 1922 3584 2338 3584 
Q 2397 3584 2469 3576 
Q 2541 3569 2628 3553 
L 2631 2963 
z
" transform="scale(0.015625)"/>
       <path id="DejaVuSans-69" d="M 603 3500 
L 1178 3500 
L 1178 0 
L 603 0 
L 603 3500 
z
M 603 4863 
L 1178 4863 
L 1178 4134 
L 603 4134 
L 603 4863 
z
" transform="scale(0.015625)"/>
       <path id="DejaVuSans-6f" d="M 1959 3097 
Q 1497 3097 1228 2736 
Q 959 2375 959 1747 
Q 959 1119 1226 758 
Q 1494 397 1959 397 
Q 2419 397 2687 759 
Q 2956 1122 2956 1747 
Q 2956 2369 2687 2733 
Q 2419 3097 1959 3097 
z
M 1959 3584 
Q 2709 3584 3137 3096 
Q 3566 2609 3566 1747 
Q 3566 888 3137 398 
Q 2709 -91 1959 -91 
Q 1206 -91 779 398 
Q 353 888 353 1747 
Q 353 2609 779 3096 
Q 1206 3584 1959 3584 
z
" transform="scale(0.015625)"/>
       <path id="DejaVuSans-64" d="M 2906 2969 
L 2906 4863 
L 3481 4863 
L 3481 0 
L 2906 0 
L 2906 525 
Q 2725 213 2448 61 
Q 2172 -91 1784 -91 
Q 1150 -91 751 415 
Q 353 922 353 1747 
Q 353 2572 751 3078 
Q 1150 3584 1784 3584 
Q 2172 3584 2448 3432 
Q 2725 3281 2906 2969 
z
M 947 1747 
Q 947 1113 1208 752 
Q 1469 391 1925 391 
Q 2381 391 2643 752 
Q 2906 1113 2906 1747 
Q 2906 2381 2643 2742 
Q 2381 3103 1925 3103 
Q 1469 3103 1208 2742 
Q 947 2381 947 1747 
z
" transform="scale(0.015625)"/>
       <path id="DejaVuSans-2c" d="M 750 794 
L 1409 794 
L 1409 256 
L 897 -744 
L 494 -744 
L 750 256 
L 750 794 
z
" transform="scale(0.015625)"/>
       <path id="DejaVuSans-20" transform="scale(0.015625)"/>
       <path id="DejaVuSans-54" d="M -19 4666 
L 3928 4666 
L 3928 4134 
L 2272 4134 
L 2272 0 
L 1638 0 
L 1638 4134 
L -19 4134 
L -19 4666 
z
" transform="scale(0.015625)"/>
       <path id="DejaVuSans-28" d="M 1984 4856 
Q 1566 4138 1362 3434 
Q 1159 2731 1159 2009 
Q 1159 1288 1364 580 
Q 1569 -128 1984 -844 
L 1484 -844 
Q 1016 -109 783 600 
Q 550 1309 550 2009 
Q 550 2706 781 3412 
Q 1013 4119 1484 4856 
L 1984 4856 
z
" transform="scale(0.015625)"/>
       <path id="DejaVuSans-73" d="M 2834 3397 
L 2834 2853 
Q 2591 2978 2328 3040 
Q 2066 3103 1784 3103 
Q 1356 3103 1142 2972 
Q 928 2841 928 2578 
Q 928 2378 1081 2264 
Q 1234 2150 1697 2047 
L 1894 2003 
Q 2506 1872 2764 1633 
Q 3022 1394 3022 966 
Q 3022 478 2636 193 
Q 2250 -91 1575 -91 
Q 1294 -91 989 -36 
Q 684 19 347 128 
L 347 722 
Q 666 556 975 473 
Q 1284 391 1588 391 
Q 1994 391 2212 530 
Q 2431 669 2431 922 
Q 2431 1156 2273 1281 
Q 2116 1406 1581 1522 
L 1381 1569 
Q 847 1681 609 1914 
Q 372 2147 372 2553 
Q 372 3047 722 3315 
Q 1072 3584 1716 3584 
Q 2034 3584 2315 3537 
Q 2597 3491 2834 3397 
z
" transform="scale(0.015625)"/>
       <path id="DejaVuSans-29" d="M 513 4856 
L 1013 4856 
Q 1481 4119 1714 3412 
Q 1947 2706 1947 2009 
Q 1947 1309 1714 600 
Q 1481 -109 1013 -844 
L 513 -844 
Q 928 -128 1133 580 
Q 1338 1288 1338 2009 
Q 1338 2731 1133 3434 
Q 928 4138 513 4856 
z
" transform="scale(0.015625)"/>
      </defs>
      <use xlink:href="#DejaVuSans-50"/>
      <use xlink:href="#DejaVuSans-65" x="56.677734"/>
      <use xlink:href="#DejaVuSans-72" x="118.201172"/>
      <use xlink:href="#DejaVuSans-69" x="159.314453"/>
      <use xlink:href="#DejaVuSans-6f" x="187.097656"/>
      <use xlink:href="#DejaVuSans-64" x="248.279297"/>
      <use xlink:href="#DejaVuSans-2c" x="311.755859"/>
      <use xlink:href="#DejaVuSans-20" x="343.542969"/>
      <use xlink:href="#DejaVuSans-54" x="375.330078"/>
      <use xlink:href="#DejaVuSans-20" x="436.414062"/>
      <use xlink:href="#DejaVuSans-28" x="468.201172"/>
      <use xlink:href="#DejaVuSans-73" x="507.214844"/>
      <use xlink:href="#DejaVuSans-29" x="559.314453"/>
     </g>
    </g>
   </g>
   <g id="matplotlib.axis_2">
    <g id="ytick_1">
     <g id="line2d_29">
      <path d="M 44.7425 130.371949 
L 242.2745 130.371949 
" clip-path="url(#pce6200bada)" style="fill: none; stroke: #d9d9d9; stroke-width: 0.8; stroke-linecap: square"/>
     </g>
     <g id="line2d_30">
      <defs>
       <path id="m57d8e8c96f" d="M 0 0 
L -3.5 0 
" style="stroke: #000000; stroke-width: 0.8"/>
      </defs>
      <g>
       <use xlink:href="#m57d8e8c96f" x="44.7425" y="130.371949" style="stroke: #000000; stroke-width: 0.8"/>
      </g>
     </g>
     <g id="text_4">
      <!-- $\mathdefault{10^{-1}}$ -->
      <g transform="translate(18.9425 133.411324) scale(0.08 -0.08)">
       <use xlink:href="#DejaVuSans-31" transform="translate(0 0.684375)"/>
       <use xlink:href="#DejaVuSans-30" transform="translate(63.623047 0.684375)"/>
       <use xlink:href="#DejaVuSans-2212" transform="translate(128.203125 38.965625) scale(0.7)"/>
       <use xlink:href="#DejaVuSans-31" transform="translate(186.855469 38.965625) scale(0.7)"/>
      </g>
     </g>
    </g>
    <g id="ytick_2">
     <g id="line2d_31">
      <path d="M 44.7425 70.305662 
L 242.2745 70.305662 
" clip-path="url(#pce6200bada)" style="fill: none; stroke: #d9d9d9; stroke-width: 0.8; stroke-linecap: square"/>
     </g>
     <g id="line2d_32">
      <g>
       <use xlink:href="#m57d8e8c96f" x="44.7425" y="70.305662" style="stroke: #000000; stroke-width: 0.8"/>
      </g>
     </g>
     <g id="text_5">
      <!-- $\mathdefault{10^{0}}$ -->
      <g transform="translate(23.6625 73.345037) scale(0.08 -0.08)">
       <use xlink:href="#DejaVuSans-31" transform="translate(0 0.765625)"/>
       <use xlink:href="#DejaVuSans-30" transform="translate(63.623047 0.765625)"/>
       <use xlink:href="#DejaVuSans-30" transform="translate(128.203125 39.046875) scale(0.7)"/>
      </g>
     </g>
    </g>
    <g id="ytick_3">
     <g id="line2d_33">
      <path d="M 44.7425 10.239375 
L 242.2745 10.239375 
" clip-path="url(#pce6200bada)" style="fill: none; stroke: #d9d9d9; stroke-width: 0.8; stroke-linecap: square"/>
     </g>
     <g id="line2d_34">
      <g>
       <use xlink:href="#m57d8e8c96f" x="44.7425" y="10.239375" style="stroke: #000000; stroke-width: 0.8"/>
      </g>
     </g>
     <g id="text_6">
      <!-- $\mathdefault{10^{1}}$ -->
      <g transform="translate(23.6625 13.27875) scale(0.08 -0.08)">
       <use xlink:href="#DejaVuSans-31" transform="translate(0 0.684375)"/>
       <use xlink:href="#DejaVuSans-30" transform="translate(63.623047 0.684375)"/>
       <use xlink:href="#DejaVuSans-31" transform="translate(128.203125 38.965625) scale(0.7)"/>
      </g>
     </g>
    </g>
    <g id="ytick_4">
     <g id="line2d_35">
      <path d="M 44.7425 136.192974 
L 242.2745 136.192974 
" clip-path="url(#pce6200bada)" style="fill: none; stroke-dasharray: 2.96,1.28; stroke-dashoffset: 0; stroke: #f2f2f2; stroke-width: 0.8"/>
     </g>
     <g id="line2d_36">
      <defs>
       <path id="ma1f1cc4e9e" d="M 0 0 
L -2 0 
" style="stroke: #000000; stroke-width: 0.6"/>
      </defs>
      <g>
       <use xlink:href="#ma1f1cc4e9e" x="44.7425" y="136.192974" style="stroke: #000000; stroke-width: 0.6"/>
      </g>
     </g>
    </g>
    <g id="ytick_5">
     <g id="line2d_37">
      <path d="M 44.7425 133.120432 
L 242.2745 133.120432 
" clip-path="url(#pce6200bada)" style="fill: none; stroke-dasharray: 2.96,1.28; stroke-dashoffset: 0; stroke: #f2f2f2; stroke-width: 0.8"/>
     </g>
     <g id="line2d_38">
      <g>
       <use xlink:href="#ma1f1cc4e9e" x="44.7425" y="133.120432" style="stroke: #000000; stroke-width: 0.6"/>
      </g>
     </g>
    </g>
    <g id="ytick_6">
     <g id="line2d_39">
      <path d="M 44.7425 112.290195 
L 242.2745 112.290195 
" clip-path="url(#pce6200bada)" style="fill: none; stroke-dasharray: 2.96,1.28; stroke-dashoffset: 0; stroke: #f2f2f2; stroke-width: 0.8"/>
     </g>
     <g id="line2d_40">
      <g>
       <use xlink:href="#ma1f1cc4e9e" x="44.7425" y="112.290195" style="stroke: #000000; stroke-width: 0.6"/>
      </g>
     </g>
    </g>
    <g id="ytick_7">
     <g id="line2d_41">
      <path d="M 44.7425 101.713047 
L 242.2745 101.713047 
" clip-path="url(#pce6200bada)" style="fill: none; stroke-dasharray: 2.96,1.28; stroke-dashoffset: 0; stroke: #f2f2f2; stroke-width: 0.8"/>
     </g>
     <g id="line2d_42">
      <g>
       <use xlink:href="#ma1f1cc4e9e" x="44.7425" y="101.713047" style="stroke: #000000; stroke-width: 0.6"/>
      </g>
     </g>
    </g>
    <g id="ytick_8">
     <g id="line2d_43">
      <path d="M 44.7425 94.208441 
L 242.2745 94.208441 
" clip-path="url(#pce6200bada)" style="fill: none; stroke-dasharray: 2.96,1.28; stroke-dashoffset: 0; stroke: #f2f2f2; stroke-width: 0.8"/>
     </g>
     <g id="line2d_44">
      <g>
       <use xlink:href="#ma1f1cc4e9e" x="44.7425" y="94.208441" style="stroke: #000000; stroke-width: 0.6"/>
      </g>
     </g>
    </g>
    <g id="ytick_9">
     <g id="line2d_45">
      <path d="M 44.7425 88.387416 
L 242.2745 88.387416 
" clip-path="url(#pce6200bada)" style="fill: none; stroke-dasharray: 2.96,1.28; stroke-dashoffset: 0; stroke: #f2f2f2; stroke-width: 0.8"/>
     </g>
     <g id="line2d_46">
      <g>
       <use xlink:href="#ma1f1cc4e9e" x="44.7425" y="88.387416" style="stroke: #000000; stroke-width: 0.6"/>
      </g>
     </g>
    </g>
    <g id="ytick_10">
     <g id="line2d_47">
      <path d="M 44.7425 83.631293 
L 242.2745 83.631293 
" clip-path="url(#pce6200bada)" style="fill: none; stroke-dasharray: 2.96,1.28; stroke-dashoffset: 0; stroke: #f2f2f2; stroke-width: 0.8"/>
     </g>
     <g id="line2d_48">
      <g>
       <use xlink:href="#ma1f1cc4e9e" x="44.7425" y="83.631293" style="stroke: #000000; stroke-width: 0.6"/>
      </g>
     </g>
    </g>
    <g id="ytick_11">
     <g id="line2d_49">
      <path d="M 44.7425 79.610048 
L 242.2745 79.610048 
" clip-path="url(#pce6200bada)" style="fill: none; stroke-dasharray: 2.96,1.28; stroke-dashoffset: 0; stroke: #f2f2f2; stroke-width: 0.8"/>
     </g>
     <g id="line2d_50">
      <g>
       <use xlink:href="#ma1f1cc4e9e" x="44.7425" y="79.610048" style="stroke: #000000; stroke-width: 0.6"/>
      </g>
     </g>
    </g>
    <g id="ytick_12">
     <g id="line2d_51">
      <path d="M 44.7425 76.126687 
L 242.2745 76.126687 
" clip-path="url(#pce6200bada)" style="fill: none; stroke-dasharray: 2.96,1.28; stroke-dashoffset: 0; stroke: #f2f2f2; stroke-width: 0.8"/>
     </g>
     <g id="line2d_52">
      <g>
       <use xlink:href="#ma1f1cc4e9e" x="44.7425" y="76.126687" style="stroke: #000000; stroke-width: 0.6"/>
      </g>
     </g>
    </g>
    <g id="ytick_13">
     <g id="line2d_53">
      <path d="M 44.7425 73.054145 
L 242.2745 73.054145 
" clip-path="url(#pce6200bada)" style="fill: none; stroke-dasharray: 2.96,1.28; stroke-dashoffset: 0; stroke: #f2f2f2; stroke-width: 0.8"/>
     </g>
     <g id="line2d_54">
      <g>
       <use xlink:href="#ma1f1cc4e9e" x="44.7425" y="73.054145" style="stroke: #000000; stroke-width: 0.6"/>
      </g>
     </g>
    </g>
    <g id="ytick_14">
     <g id="line2d_55">
      <path d="M 44.7425 52.223908 
L 242.2745 52.223908 
" clip-path="url(#pce6200bada)" style="fill: none; stroke-dasharray: 2.96,1.28; stroke-dashoffset: 0; stroke: #f2f2f2; stroke-width: 0.8"/>
     </g>
     <g id="line2d_56">
      <g>
       <use xlink:href="#ma1f1cc4e9e" x="44.7425" y="52.223908" style="stroke: #000000; stroke-width: 0.6"/>
      </g>
     </g>
    </g>
    <g id="ytick_15">
     <g id="line2d_57">
      <path d="M 44.7425 41.64676 
L 242.2745 41.64676 
" clip-path="url(#pce6200bada)" style="fill: none; stroke-dasharray: 2.96,1.28; stroke-dashoffset: 0; stroke: #f2f2f2; stroke-width: 0.8"/>
     </g>
     <g id="line2d_58">
      <g>
       <use xlink:href="#ma1f1cc4e9e" x="44.7425" y="41.64676" style="stroke: #000000; stroke-width: 0.6"/>
      </g>
     </g>
    </g>
    <g id="ytick_16">
     <g id="line2d_59">
      <path d="M 44.7425 34.142154 
L 242.2745 34.142154 
" clip-path="url(#pce6200bada)" style="fill: none; stroke-dasharray: 2.96,1.28; stroke-dashoffset: 0; stroke: #f2f2f2; stroke-width: 0.8"/>
     </g>
     <g id="line2d_60">
      <g>
       <use xlink:href="#ma1f1cc4e9e" x="44.7425" y="34.142154" style="stroke: #000000; stroke-width: 0.6"/>
      </g>
     </g>
    </g>
    <g id="ytick_17">
     <g id="line2d_61">
      <path d="M 44.7425 28.321129 
L 242.2745 28.321129 
" clip-path="url(#pce6200bada)" style="fill: none; stroke-dasharray: 2.96,1.28; stroke-dashoffset: 0; stroke: #f2f2f2; stroke-width: 0.8"/>
     </g>
     <g id="line2d_62">
      <g>
       <use xlink:href="#ma1f1cc4e9e" x="44.7425" y="28.321129" style="stroke: #000000; stroke-width: 0.6"/>
      </g>
     </g>
    </g>
    <g id="ytick_18">
     <g id="line2d_63">
      <path d="M 44.7425 23.565006 
L 242.2745 23.565006 
" clip-path="url(#pce6200bada)" style="fill: none; stroke-dasharray: 2.96,1.28; stroke-dashoffset: 0; stroke: #f2f2f2; stroke-width: 0.8"/>
     </g>
     <g id="line2d_64">
      <g>
       <use xlink:href="#ma1f1cc4e9e" x="44.7425" y="23.565006" style="stroke: #000000; stroke-width: 0.6"/>
      </g>
     </g>
    </g>
    <g id="ytick_19">
     <g id="line2d_65">
      <path d="M 44.7425 19.543761 
L 242.2745 19.543761 
" clip-path="url(#pce6200bada)" style="fill: none; stroke-dasharray: 2.96,1.28; stroke-dashoffset: 0; stroke: #f2f2f2; stroke-width: 0.8"/>
     </g>
     <g id="line2d_66">
      <g>
       <use xlink:href="#ma1f1cc4e9e" x="44.7425" y="19.543761" style="stroke: #000000; stroke-width: 0.6"/>
      </g>
     </g>
    </g>
    <g id="ytick_20">
     <g id="line2d_67">
      <path d="M 44.7425 16.0604 
L 242.2745 16.0604 
" clip-path="url(#pce6200bada)" style="fill: none; stroke-dasharray: 2.96,1.28; stroke-dashoffset: 0; stroke: #f2f2f2; stroke-width: 0.8"/>
     </g>
     <g id="line2d_68">
      <g>
       <use xlink:href="#ma1f1cc4e9e" x="44.7425" y="16.0604" style="stroke: #000000; stroke-width: 0.6"/>
      </g>
     </g>
    </g>
    <g id="ytick_21">
     <g id="line2d_69">
      <path d="M 44.7425 12.987858 
L 242.2745 12.987858 
" clip-path="url(#pce6200bada)" style="fill: none; stroke-dasharray: 2.96,1.28; stroke-dashoffset: 0; stroke: #f2f2f2; stroke-width: 0.8"/>
     </g>
     <g id="line2d_70">
      <g>
       <use xlink:href="#ma1f1cc4e9e" x="44.7425" y="12.987858" style="stroke: #000000; stroke-width: 0.6"/>
      </g>
     </g>
    </g>
    <g id="text_7">
     <!-- Spectral acceleration, SA (g) -->
     <g transform="translate(13.27875 131.440139) rotate(-90) scale(0.08 -0.08)">
      <defs>
       <path id="DejaVuSans-53" d="M 3425 4513 
L 3425 3897 
Q 3066 4069 2747 4153 
Q 2428 4238 2131 4238 
Q 1616 4238 1336 4038 
Q 1056 3838 1056 3469 
Q 1056 3159 1242 3001 
Q 1428 2844 1947 2747 
L 2328 2669 
Q 3034 2534 3370 2195 
Q 3706 1856 3706 1288 
Q 3706 609 3251 259 
Q 2797 -91 1919 -91 
Q 1588 -91 1214 -16 
Q 841 59 441 206 
L 441 856 
Q 825 641 1194 531 
Q 1563 422 1919 422 
Q 2459 422 2753 634 
Q 3047 847 3047 1241 
Q 3047 1584 2836 1778 
Q 2625 1972 2144 2069 
L 1759 2144 
Q 1053 2284 737 2584 
Q 422 2884 422 3419 
Q 422 4038 858 4394 
Q 1294 4750 2059 4750 
Q 2388 4750 2728 4690 
Q 3069 4631 3425 4513 
z
" transform="scale(0.015625)"/>
       <path id="DejaVuSans-70" d="M 1159 525 
L 1159 -1331 
L 581 -1331 
L 581 3500 
L 1159 3500 
L 1159 2969 
Q 1341 3281 1617 3432 
Q 1894 3584 2278 3584 
Q 2916 3584 3314 3078 
Q 3713 2572 3713 1747 
Q 3713 922 3314 415 
Q 2916 -91 2278 -91 
Q 1894 -91 1617 61 
Q 1341 213 1159 525 
z
M 3116 1747 
Q 3116 2381 2855 2742 
Q 2594 3103 2138 3103 
Q 1681 3103 1420 2742 
Q 1159 2381 1159 1747 
Q 1159 1113 1420 752 
Q 1681 391 2138 391 
Q 2594 391 2855 752 
Q 3116 1113 3116 1747 
z
" transform="scale(0.015625)"/>
       <path id="DejaVuSans-63" d="M 3122 3366 
L 3122 2828 
Q 2878 2963 2633 3030 
Q 2388 3097 2138 3097 
Q 1578 3097 1268 2742 
Q 959 2388 959 1747 
Q 959 1106 1268 751 
Q 1578 397 2138 397 
Q 2388 397 2633 464 
Q 2878 531 3122 666 
L 3122 134 
Q 2881 22 2623 -34 
Q 2366 -91 2075 -91 
Q 1284 -91 818 406 
Q 353 903 353 1747 
Q 353 2603 823 3093 
Q 1294 3584 2113 3584 
Q 2378 3584 2631 3529 
Q 2884 3475 3122 3366 
z
" transform="scale(0.015625)"/>
       <path id="DejaVuSans-74" d="M 1172 4494 
L 1172 3500 
L 2356 3500 
L 2356 3053 
L 1172 3053 
L 1172 1153 
Q 1172 725 1289 603 
Q 1406 481 1766 481 
L 2356 481 
L 2356 0 
L 1766 0 
Q 1100 0 847 248 
Q 594 497 594 1153 
L 594 3053 
L 172 3053 
L 172 3500 
L 594 3500 
L 594 4494 
L 1172 4494 
z
" transform="scale(0.015625)"/>
       <path id="DejaVuSans-61" d="M 2194 1759 
Q 1497 1759 1228 1600 
Q 959 1441 959 1056 
Q 959 750 1161 570 
Q 1363 391 1709 391 
Q 2188 391 2477 730 
Q 2766 1069 2766 1631 
L 2766 1759 
L 2194 1759 
z
M 3341 1997 
L 3341 0 
L 2766 0 
L 2766 531 
Q 2569 213 2275 61 
Q 1981 -91 1556 -91 
Q 1019 -91 701 211 
Q 384 513 384 1019 
Q 384 1609 779 1909 
Q 1175 2209 1959 2209 
L 2766 2209 
L 2766 2266 
Q 2766 2663 2505 2880 
Q 2244 3097 1772 3097 
Q 1472 3097 1187 3025 
Q 903 2953 641 2809 
L 641 3341 
Q 956 3463 1253 3523 
Q 1550 3584 1831 3584 
Q 2591 3584 2966 3190 
Q 3341 2797 3341 1997 
z
" transform="scale(0.015625)"/>
       <path id="DejaVuSans-6c" d="M 603 4863 
L 1178 4863 
L 1178 0 
L 603 0 
L 603 4863 
z
" transform="scale(0.015625)"/>
       <path id="DejaVuSans-6e" d="M 3513 2113 
L 3513 0 
L 2938 0 
L 2938 2094 
Q 2938 2591 2744 2837 
Q 2550 3084 2163 3084 
Q 1697 3084 1428 2787 
Q 1159 2491 1159 1978 
L 1159 0 
L 581 0 
L 581 3500 
L 1159 3500 
L 1159 2956 
Q 1366 3272 1645 3428 
Q 1925 3584 2291 3584 
Q 2894 3584 3203 3211 
Q 3513 2838 3513 2113 
z
" transform="scale(0.015625)"/>
       <path id="DejaVuSans-41" d="M 2188 4044 
L 1331 1722 
L 3047 1722 
L 2188 4044 
z
M 1831 4666 
L 2547 4666 
L 4325 0 
L 3669 0 
L 3244 1197 
L 1141 1197 
L 716 0 
L 50 0 
L 1831 4666 
z
" transform="scale(0.015625)"/>
       <path id="DejaVuSans-67" d="M 2906 1791 
Q 2906 2416 2648 2759 
Q 2391 3103 1925 3103 
Q 1463 3103 1205 2759 
Q 947 2416 947 1791 
Q 947 1169 1205 825 
Q 1463 481 1925 481 
Q 2391 481 2648 825 
Q 2906 1169 2906 1791 
z
M 3481 434 
Q 3481 -459 3084 -895 
Q 2688 -1331 1869 -1331 
Q 1566 -1331 1297 -1286 
Q 1028 -1241 775 -1147 
L 775 -588 
Q 1028 -725 1275 -790 
Q 1522 -856 1778 -856 
Q 2344 -856 2625 -561 
Q 2906 -266 2906 331 
L 2906 616 
Q 2728 306 2450 153 
Q 2172 0 1784 0 
Q 1141 0 747 490 
Q 353 981 353 1791 
Q 353 2603 747 3093 
Q 1141 3584 1784 3584 
Q 2172 3584 2450 3431 
Q 2728 3278 2906 2969 
L 2906 3500 
L 3481 3500 
L 3481 434 
z
" transform="scale(0.015625)"/>
      </defs>
      <use xlink:href="#DejaVuSans-53"/>
      <use xlink:href="#DejaVuSans-70" x="63.476562"/>
      <use xlink:href="#DejaVuSans-65" x="126.953125"/>
      <use xlink:href="#DejaVuSans-63" x="188.476562"/>
      <use xlink:href="#DejaVuSans-74" x="243.457031"/>
      <use xlink:href="#DejaVuSans-72" x="282.666016"/>
      <use xlink:href="#DejaVuSans-61" x="323.779297"/>
      <use xlink:href="#DejaVuSans-6c" x="385.058594"/>
      <use xlink:href="#DejaVuSans-20" x="412.841797"/>
      <use xlink:href="#DejaVuSans-61" x="444.628906"/>
      <use xlink:href="#DejaVuSans-63" x="505.908203"/>
      <use xlink:href="#DejaVuSans-63" x="560.888672"/>
      <use xlink:href="#DejaVuSans-65" x="615.869141"/>
      <use xlink:href="#DejaVuSans-6c" x="677.392578"/>
      <use xlink:href="#DejaVuSans-65" x="705.175781"/>
      <use xlink:href="#DejaVuSans-72" x="766.699219"/>
      <use xlink:href="#DejaVuSans-61" x="807.8125"/>
      <use xlink:href="#DejaVuSans-74" x="869.091797"/>
      <use xlink:href="#DejaVuSans-69" x="908.300781"/>
      <use xlink:href="#DejaVuSans-6f" x="936.083984"/>
      <use xlink:href="#DejaVuSans-6e" x="997.265625"/>
      <use xlink:href="#DejaVuSans-2c" x="1060.644531"/>
      <use xlink:href="#DejaVuSans-20" x="1092.431641"/>
      <use xlink:href="#DejaVuSans-53" x="1124.21875"/>
      <use xlink:href="#DejaVuSans-41" x="1189.570312"/>
      <use xlink:href="#DejaVuSans-20" x="1257.978516"/>
      <use xlink:href="#DejaVuSans-28" x="1289.765625"/>
      <use xlink:href="#DejaVuSans-67" x="1328.779297"/>
      <use xlink:href="#DejaVuSans-29" x="1392.255859"/>
     </g>
    </g>
   </g>
   <g id="line2d_71">
    <path d="M 53.721227 14.716264 
L 73.459257 18.060226 
L 87.463612 24.796108 
L 98.326234 28.915176 
L 107.201642 32.385013 
L 121.205997 37.439003 
L 129.979883 44.882854 
L 132.068618 46.629108 
L 151.806648 54.498453 
L 165.811003 60.78598 
L 178.582888 68.650277 
L 185.549033 72.667063 
L 199.553388 78.64437 
L 219.291418 91.731091 
L 233.295773 105.721304 
" clip-path="url(#pce6200bada)" style="fill: none; stroke: #b2b2b2; stroke-width: 0.8; stroke-linecap: square"/>
   </g>
   <g id="line2d_72">
    <path d="M 53.721227 60.257742 
L 73.459257 57.710828 
L 87.463612 52.452083 
L 98.326234 49.33197 
L 107.201642 46.771217 
L 121.205997 45.632224 
L 129.979883 44.882854 
L 132.068618 46.63798 
L 151.806648 57.356995 
L 165.811003 65.874988 
L 178.582888 72.105724 
L 185.549033 75.928335 
L 199.553388 81.142802 
L 219.291418 94.977071 
L 233.295773 101.663761 
" clip-path="url(#pce6200bada)" style="fill: none; stroke: #b2b2b2; stroke-width: 0.8; stroke-linecap: square"/>
   </g>
   <g id="line2d_73">
    <path d="M 53.721227 58.737798 
L 73.459257 53.605814 
L 87.463612 47.767307 
L 98.326234 44.800838 
L 107.201642 41.676179 
L 121.205997 41.759287 
L 129.979883 44.882854 
L 132.068618 45.169715 
L 151.806648 57.794169 
L 165.811003 68.564042 
L 178.582888 79.835874 
L 185.549033 85.656643 
L 199.553388 97.353617 
L 219.291418 108.94903 
L 233.295773 117.251312 
" clip-path="url(#pce6200bada)" style="fill: none; stroke: #b2b2b2; stroke-width: 0.8; stroke-linecap: square"/>
   </g>
   <g id="line2d_74">
    <path d="M 53.721227 51.170362 
L 73.459257 45.324523 
L 87.463612 44.918041 
L 98.326234 44.938346 
L 107.201642 44.67881 
L 121.205997 44.738472 
L 129.979883 44.882854 
L 132.068618 44.907229 
L 151.806648 51.87025 
L 165.811003 56.545049 
L 178.582888 60.008453 
L 185.549033 62.63008 
L 199.553388 71.830372 
L 219.291418 85.928141 
L 233.295773 100.803739 
" clip-path="url(#pce6200bada)" style="fill: none; stroke: #b2b2b2; stroke-width: 0.8; stroke-linecap: square"/>
   </g>
   <g id="line2d_75">
    <path d="M 53.721227 61.871382 
L 73.459257 57.031844 
L 87.463612 53.316665 
L 98.326234 50.156272 
L 107.201642 48.983465 
L 121.205997 46.553579 
L 129.979883 44.882854 
L 132.068618 44.573537 
L 151.806648 46.927863 
L 165.811003 52.330221 
L 178.582888 58.55048 
L 185.549033 62.811412 
L 199.553388 69.221014 
L 219.291418 85.011508 
L 233.295773 98.491135 
" clip-path="url(#pce6200bada)" style="fill: none; stroke: #b2b2b2; stroke-width: 0.8; stroke-linecap: square"/>
   </g>
   <g id="line2d_76">
    <path d="M 53.721227 36.65054 
L 73.459257 37.889722 
L 87.463612 37.637581 
L 98.326234 39.00266 
L 107.201642 38.979166 
L 121.205997 41.747174 
L 129.979883 44.882854 
L 132.068618 45.524183 
L 151.806648 50.140832 
L 165.811003 53.778919 
L 178.582888 60.821263 
L 185.549033 63.884414 
L 199.553388 71.737955 
L 219.291418 83.284643 
L 233.295773 92.434512 
" clip-path="url(#pce6200bada)" style="fill: none; stroke: #b2b2b2; stroke-width: 0.8; stroke-linecap: square"/>
   </g>
   <g id="line2d_77">
    <path d="M 53.721227 54.518843 
L 73.459257 51.020504 
L 87.463612 47.716467 
L 98.326234 43.768594 
L 107.201642 42.082468 
L 121.205997 43.423011 
L 129.979883 44.882854 
L 132.068618 43.961797 
L 151.806648 45.707929 
L 165.811003 50.589181 
L 178.582888 57.995851 
L 185.549033 63.499664 
L 199.553388 74.802136 
L 219.291418 90.848388 
L 233.295773 104.822734 
" clip-path="url(#pce6200bada)" style="fill: none; stroke: #b2b2b2; stroke-width: 0.8; stroke-linecap: square"/>
   </g>
   <g id="line2d_78">
    <path d="M 53.721227 48.015483 
L 73.459257 43.100423 
L 87.463612 37.906592 
L 98.326234 36.777665 
L 107.201642 38.668225 
L 121.205997 42.952952 
L 129.979883 44.882854 
L 132.068618 45.534084 
L 151.806648 59.093946 
L 165.811003 64.405002 
L 178.582888 74.996573 
L 185.549033 79.519989 
L 199.553388 89.666209 
L 219.291418 107.944683 
L 233.295773 122.098578 
" clip-path="url(#pce6200bada)" style="fill: none; stroke: #b2b2b2; stroke-width: 0.8; stroke-linecap: square"/>
   </g>
   <g id="line2d_79">
    <path d="M 53.721227 54.257589 
L 73.459257 49.613481 
L 87.463612 47.239354 
L 98.326234 45.86915 
L 107.201642 44.489432 
L 121.205997 43.994813 
L 129.979883 44.882854 
L 132.068618 44.994521 
L 151.806648 52.22467 
L 165.811003 59.333665 
L 178.582888 67.941707 
L 185.549033 74.299142 
L 199.553388 87.227996 
L 219.291418 103.523827 
L 233.295773 114.877482 
" clip-path="url(#pce6200bada)" style="fill: none; stroke: #b2b2b2; stroke-width: 0.8; stroke-linecap: square"/>
   </g>
   <g id="line2d_80">
    <path d="M 53.721227 41.252913 
L 73.459257 39.394599 
L 87.463612 36.656781 
L 98.326234 35.275761 
L 107.201642 34.297823 
L 121.205997 41.241158 
L 129.979883 44.882854 
L 132.068618 46.083639 
L 151.806648 53.580707 
L 165.811003 61.499442 
L 178.582888 69.828094 
L 185.549033 71.644044 
L 199.553388 74.805988 
L 219.291418 90.263103 
L 233.295773 107.451185 
" clip-path="url(#pce6200bada)" style="fill: none; stroke: #b2b2b2; stroke-width: 0.8; stroke-linecap: square"/>
   </g>
   <g id="line2d_81">
    <path d="M 53.721227 26.945143 
L 73.459257 24.676956 
L 87.463612 27.638304 
L 98.326234 33.29633 
L 107.201642 35.633886 
L 121.205997 41.925393 
L 129.979883 44.882854 
L 132.068618 45.952222 
L 151.806648 55.515753 
L 165.811003 60.692753 
L 178.582888 70.491217 
L 185.549033 75.051872 
L 199.553388 85.608718 
L 219.291418 103.078751 
L 233.295773 114.405794 
" clip-path="url(#pce6200bada)" style="fill: none; stroke: #b2b2b2; stroke-width: 0.8; stroke-linecap: square"/>
   </g>
   <g id="line2d_82">
    <path d="M 53.721227 58.151547 
L 73.459257 50.827003 
L 87.463612 48.637938 
L 98.326234 48.869695 
L 107.201642 48.245945 
L 121.205997 46.056245 
L 129.979883 44.882854 
L 132.068618 44.909972 
L 151.806648 46.763266 
L 165.811003 51.205427 
L 178.582888 54.514207 
L 185.549033 57.035265 
L 199.553388 66.493082 
L 219.291418 78.275707 
L 233.295773 90.77982 
" clip-path="url(#pce6200bada)" style="fill: none; stroke: #b2b2b2; stroke-width: 0.8; stroke-linecap: square"/>
   </g>
   <g id="line2d_83">
    <path d="M 53.721227 44.339354 
L 73.459257 37.909334 
L 87.463612 41.038992 
L 98.326234 42.032299 
L 107.201642 41.856289 
L 121.205997 43.81452 
L 129.979883 44.882854 
L 132.068618 47.272619 
L 151.806648 55.416774 
L 165.811003 62.631037 
L 178.582888 68.285116 
L 185.549033 74.093335 
L 199.553388 80.235325 
L 219.291418 91.93041 
L 233.295773 104.369602 
" clip-path="url(#pce6200bada)" style="fill: none; stroke: #b2b2b2; stroke-width: 0.8; stroke-linecap: square"/>
   </g>
   <g id="line2d_84">
    <path d="M 53.721227 52.271437 
L 73.459257 50.677647 
L 87.463612 48.082376 
L 98.326234 49.097134 
L 107.201642 49.086491 
L 121.205997 45.268159 
L 129.979883 44.882854 
L 132.068618 44.115332 
L 151.806648 43.560042 
L 165.811003 46.959468 
L 178.582888 56.544399 
L 185.549033 63.872832 
L 199.553388 73.14753 
L 219.291418 88.621519 
L 233.295773 97.846967 
" clip-path="url(#pce6200bada)" style="fill: none; stroke: #b2b2b2; stroke-width: 0.8; stroke-linecap: square"/>
   </g>
   <g id="line2d_85">
    <path d="M 53.721227 44.512318 
L 73.459257 40.125455 
L 87.463612 40.498102 
L 98.326234 41.358953 
L 107.201642 41.648287 
L 121.205997 45.368721 
L 129.979883 44.882854 
L 132.068618 45.808739 
L 151.806648 50.070519 
L 165.811003 59.79927 
L 178.582888 67.583201 
L 185.549033 70.91624 
L 199.553388 80.418072 
L 219.291418 92.016615 
L 233.295773 103.850393 
" clip-path="url(#pce6200bada)" style="fill: none; stroke: #b2b2b2; stroke-width: 0.8; stroke-linecap: square"/>
   </g>
   <g id="line2d_86">
    <path d="M 53.721227 59.66541 
L 73.459257 56.349893 
L 87.463612 54.142848 
L 98.326234 50.194629 
L 107.201642 48.212542 
L 121.205997 46.686328 
L 129.979883 44.882854 
L 132.068618 45.422297 
L 151.806648 48.749124 
L 165.811003 53.448791 
L 178.582888 58.449714 
L 185.549033 61.364755 
L 199.553388 67.0016 
L 219.291418 74.758974 
L 233.295773 82.416531 
" clip-path="url(#pce6200bada)" style="fill: none; stroke: #b2b2b2; stroke-width: 0.8; stroke-linecap: square"/>
   </g>
   <g id="line2d_87">
    <path d="M 53.721227 53.433122 
L 73.459257 51.422251 
L 87.463612 50.843575 
L 98.326234 47.361163 
L 107.201642 46.636332 
L 121.205997 44.238548 
L 129.979883 44.882854 
L 132.068618 44.106834 
L 151.806648 44.663614 
L 165.811003 48.314155 
L 178.582888 53.492653 
L 185.549033 58.156799 
L 199.553388 70.515531 
L 219.291418 85.251388 
L 233.295773 99.73016 
" clip-path="url(#pce6200bada)" style="fill: none; stroke: #b2b2b2; stroke-width: 0.8; stroke-linecap: square"/>
   </g>
   <g id="line2d_88">
    <path d="M 53.721227 51.532355 
L 73.459257 47.485728 
L 87.463612 43.772483 
L 98.326234 43.441637 
L 107.201642 44.932518 
L 121.205997 43.928982 
L 129.979883 44.882854 
L 132.068618 44.401803 
L 151.806648 43.69519 
L 165.811003 49.029794 
L 178.582888 54.847695 
L 185.549033 56.317951 
L 199.553388 66.327816 
L 219.291418 82.485893 
L 233.295773 93.037144 
" clip-path="url(#pce6200bada)" style="fill: none; stroke: #b2b2b2; stroke-width: 0.8; stroke-linecap: square"/>
   </g>
   <g id="line2d_89">
    <path d="M 53.721227 48.216887 
L 73.459257 44.883862 
L 87.463612 40.462832 
L 98.326234 39.542952 
L 107.201642 40.401523 
L 121.205997 41.457739 
L 129.979883 44.882854 
L 132.068618 45.476277 
L 151.806648 53.256714 
L 165.811003 57.809447 
L 178.582888 68.835747 
L 185.549033 75.885194 
L 199.553388 84.567543 
L 219.291418 103.616924 
L 233.295773 116.283918 
" clip-path="url(#pce6200bada)" style="fill: none; stroke: #b2b2b2; stroke-width: 0.8; stroke-linecap: square"/>
   </g>
   <g id="line2d_90">
    <path d="M 53.721227 57.876713 
L 73.459257 54.528653 
L 87.463612 51.811996 
L 98.326234 48.799827 
L 107.201642 46.118077 
L 121.205997 44.391442 
L 129.979883 44.882854 
L 132.068618 44.543409 
L 151.806648 49.413115 
L 165.811003 53.775364 
L 178.582888 58.312518 
L 185.549033 61.295601 
L 199.553388 72.83166 
L 219.291418 89.983018 
L 233.295773 103.770482 
" clip-path="url(#pce6200bada)" style="fill: none; stroke: #b2b2b2; stroke-width: 0.8; stroke-linecap: square"/>
   </g>
   <g id="line2d_91">
    <path d="M 53.721227 43.142588 
L 73.459257 38.867952 
L 87.463612 34.154349 
L 98.326234 35.502595 
L 107.201642 38.736211 
L 121.205997 40.961862 
L 129.979883 44.882854 
L 132.068618 46.285309 
L 151.806648 55.717933 
L 165.811003 60.765573 
L 178.582888 67.484422 
L 185.549033 70.56637 
L 199.553388 73.420626 
L 219.291418 86.448188 
L 233.295773 98.782998 
" clip-path="url(#pce6200bada)" style="fill: none; stroke: #b2b2b2; stroke-width: 0.8; stroke-linecap: square"/>
   </g>
   <g id="line2d_92">
    <path d="M 53.721227 45.960813 
L 73.459257 42.766624 
L 87.463612 38.193421 
L 98.326234 36.114912 
L 107.201642 37.391509 
L 121.205997 42.271224 
L 129.979883 44.882854 
L 132.068618 45.914933 
L 151.806648 50.218371 
L 165.811003 57.726236 
L 178.582888 66.607103 
L 185.549033 70.849259 
L 199.553388 76.644233 
L 219.291418 96.068415 
L 233.295773 109.131904 
" clip-path="url(#pce6200bada)" style="fill: none; stroke: #b2b2b2; stroke-width: 0.8; stroke-linecap: square"/>
   </g>
   <g id="line2d_93">
    <path d="M 53.721227 38.513108 
L 73.459257 37.870759 
L 87.463612 37.151412 
L 98.326234 36.629478 
L 107.201642 38.47857 
L 121.205997 41.451704 
L 129.979883 44.882854 
L 132.068618 45.114712 
L 151.806648 55.638454 
L 165.811003 62.359975 
L 178.582888 71.583278 
L 185.549033 77.11116 
L 199.553388 86.725535 
L 219.291418 106.731398 
L 233.295773 120.078455 
" clip-path="url(#pce6200bada)" style="fill: none; stroke: #b2b2b2; stroke-width: 0.8; stroke-linecap: square"/>
   </g>
   <g id="line2d_94">
    <path d="M 53.721227 34.949131 
L 73.459257 32.474389 
L 87.463612 31.781106 
L 98.326234 31.048511 
L 107.201642 34.413331 
L 121.205997 42.182003 
L 129.979883 44.882854 
L 132.068618 46.30479 
L 151.806648 52.885833 
L 165.811003 60.802348 
L 178.582888 69.898121 
L 185.549033 75.500591 
L 199.553388 85.359522 
L 219.291418 102.571672 
L 233.295773 113.944976 
" clip-path="url(#pce6200bada)" style="fill: none; stroke: #b2b2b2; stroke-width: 0.8; stroke-linecap: square"/>
   </g>
   <g id="line2d_95">
    <path d="M 53.721227 44.010887 
L 73.459257 41.29751 
L 87.463612 38.47297 
L 98.326234 40.132926 
L 107.201642 40.192058 
L 121.205997 41.770193 
L 129.979883 44.882854 
L 132.068618 44.881584 
L 151.806648 52.639071 
L 165.811003 56.364676 
L 178.582888 60.793069 
L 185.549033 64.611709 
L 199.553388 71.106086 
L 219.291418 86.112838 
L 233.295773 101.108237 
" clip-path="url(#pce6200bada)" style="fill: none; stroke: #b2b2b2; stroke-width: 0.8; stroke-linecap: square"/>
   </g>
   <g id="line2d_96">
    <path d="M 53.721227 48.101768 
L 73.459257 44.763256 
L 87.463612 42.821311 
L 98.326234 40.225804 
L 107.201642 38.4386 
L 121.205997 42.41113 
L 129.979883 44.882854 
L 132.068618 45.994169 
L 151.806648 56.182704 
L 165.811003 63.399784 
L 178.582888 71.270994 
L 185.549033 76.16033 
L 199.553388 90.827282 
L 219.291418 104.325232 
L 233.295773 115.984999 
" clip-path="url(#pce6200bada)" style="fill: none; stroke: #b2b2b2; stroke-width: 0.8; stroke-linecap: square"/>
   </g>
   <g id="line2d_97">
    <path d="M 53.721227 41.228782 
L 73.459257 36.997085 
L 87.463612 34.034584 
L 98.326234 32.971297 
L 107.201642 34.411944 
L 121.205997 40.821 
L 129.979883 44.882854 
L 132.068618 46.273713 
L 151.806648 60.983371 
L 165.811003 74.282716 
L 178.582888 81.014723 
L 185.549033 86.165188 
L 199.553388 96.334847 
L 219.291418 113.212408 
L 233.295773 124.582779 
" clip-path="url(#pce6200bada)" style="fill: none; stroke: #b2b2b2; stroke-width: 0.8; stroke-linecap: square"/>
   </g>
   <g id="line2d_98">
    <path d="M 53.721227 60.889126 
L 73.459257 55.877333 
L 87.463612 52.170484 
L 98.326234 49.886528 
L 107.201642 48.382027 
L 121.205997 46.864692 
L 129.979883 44.882854 
L 132.068618 45.113048 
L 151.806648 49.770816 
L 165.811003 53.81896 
L 178.582888 55.997586 
L 185.549033 59.769027 
L 199.553388 69.877323 
L 219.291418 89.478161 
L 233.295773 101.812912 
" clip-path="url(#pce6200bada)" style="fill: none; stroke: #b2b2b2; stroke-width: 0.8; stroke-linecap: square"/>
   </g>
   <g id="line2d_99">
    <path d="M 53.721227 39.127109 
L 73.459257 37.905923 
L 87.463612 38.059698 
L 98.326234 39.51434 
L 107.201642 41.178651 
L 121.205997 45.517504 
L 129.979883 44.882854 
L 132.068618 45.933805 
L 151.806648 49.351834 
L 165.811003 51.852801 
L 178.582888 56.730514 
L 185.549033 60.61095 
L 199.553388 70.574476 
L 219.291418 90.404292 
L 233.295773 106.421778 
" clip-path="url(#pce6200bada)" style="fill: none; stroke: #b2b2b2; stroke-width: 0.8; stroke-linecap: square"/>
   </g>
   <g id="line2d_100">
    <path d="M 53.721227 58.210717 
L 73.459257 54.570749 
L 87.463612 52.227158 
L 98.326234 48.692593 
L 107.201642 47.92614 
L 121.205997 46.607929 
L 129.979883 44.882854 
L 132.068618 44.137639 
L 151.806648 43.989472 
L 165.811003 48.659935 
L 178.582888 56.524158 
L 185.549033 60.955687 
L 199.553388 70.937467 
L 219.291418 88.313721 
L 233.295773 100.263591 
" clip-path="url(#pce6200bada)" style="fill: none; stroke: #b2b2b2; stroke-width: 0.8; stroke-linecap: square"/>
   </g>
   <g id="line2d_101">
    <path d="M 53.721227 48.105564 
L 73.459257 43.193029 
L 87.463612 42.863944 
L 98.326234 43.528766 
L 107.201642 43.805475 
L 121.205997 43.622475 
L 129.979883 44.882854 
L 132.068618 45.646314 
L 151.806648 52.789992 
L 165.811003 62.127483 
L 178.582888 71.681389 
L 185.549033 77.144975 
L 199.553388 86.50977 
L 219.291418 99.112679 
L 233.295773 114.8187 
" clip-path="url(#pce6200bada)" style="fill: none; stroke: #b2b2b2; stroke-width: 0.8; stroke-linecap: square"/>
   </g>
   <g id="line2d_102">
    <path d="M 53.721227 50.163589 
L 73.459257 40.772495 
L 87.463612 38.028643 
L 98.326234 38.014981 
L 107.201642 38.830691 
L 121.205997 41.179961 
L 129.979883 44.882854 
L 132.068618 44.344455 
L 151.806648 53.217553 
L 165.811003 66.745931 
L 178.582888 76.446745 
L 185.549033 81.531839 
L 199.553388 94.51296 
L 219.291418 116.155017 
L 233.295773 133.660264 
" clip-path="url(#pce6200bada)" style="fill: none; stroke: #b2b2b2; stroke-width: 0.8; stroke-linecap: square"/>
   </g>
   <g id="line2d_103">
    <path d="M 53.721227 45.091199 
L 73.459257 42.167168 
L 87.463612 38.641651 
L 98.326234 37.038868 
L 107.201642 37.680742 
L 121.205997 41.933774 
L 129.979883 44.882854 
L 132.068618 46.327797 
L 151.806648 57.710534 
L 165.811003 66.02207 
L 178.582888 74.227827 
L 185.549033 79.359593 
L 199.553388 86.8379 
L 219.291418 97.780727 
L 233.295773 106.583769 
" clip-path="url(#pce6200bada)" style="fill: none; stroke: #b2b2b2; stroke-width: 0.8; stroke-linecap: square"/>
   </g>
   <g id="line2d_104">
    <path d="M 53.721227 39.990579 
L 73.459257 32.687655 
L 87.463612 31.847405 
L 98.326234 32.457834 
L 107.201642 36.364407 
L 121.205997 40.526871 
L 129.979883 44.882854 
L 132.068618 44.384061 
L 151.806648 56.632259 
L 165.811003 64.495939 
L 178.582888 69.436899 
L 185.549033 75.240127 
L 199.553388 85.265412 
L 219.291418 103.212408 
L 233.295773 114.521844 
" clip-path="url(#pce6200bada)" style="fill: none; stroke: #b2b2b2; stroke-width: 0.8; stroke-linecap: square"/>
   </g>
   <g id="line2d_105">
    <path d="M 53.721227 45.705844 
L 73.459257 45.872972 
L 87.463612 44.553861 
L 98.326234 46.636394 
L 107.201642 43.098302 
L 121.205997 41.349876 
L 129.979883 44.882854 
L 132.068618 45.447746 
L 151.806648 56.381884 
L 165.811003 62.758655 
L 178.582888 69.573829 
L 185.549033 75.722726 
L 199.553388 85.456527 
L 219.291418 101.41785 
L 233.295773 116.933242 
" clip-path="url(#pce6200bada)" style="fill: none; stroke: #b2b2b2; stroke-width: 0.8; stroke-linecap: square"/>
   </g>
   <g id="line2d_106">
    <path d="M 53.721227 38.620625 
L 73.459257 39.73067 
L 87.463612 41.049652 
L 98.326234 41.232508 
L 107.201642 42.229354 
L 121.205997 42.143833 
L 129.979883 44.882854 
L 132.068618 45.446515 
L 151.806648 54.182525 
L 165.811003 65.907081 
L 178.582888 77.009838 
L 185.549033 82.99272 
L 199.553388 94.472207 
L 219.291418 111.517249 
L 233.295773 126.202498 
" clip-path="url(#pce6200bada)" style="fill: none; stroke: #b2b2b2; stroke-width: 0.8; stroke-linecap: square"/>
   </g>
   <g id="line2d_107">
    <path d="M 53.721227 44.854755 
L 73.459257 41.243512 
L 87.463612 41.205144 
L 98.326234 41.348486 
L 107.201642 40.186501 
L 121.205997 43.41511 
L 129.979883 44.882854 
L 132.068618 45.799064 
L 151.806648 54.232782 
L 165.811003 61.751165 
L 178.582888 69.546046 
L 185.549033 74.378935 
L 199.553388 83.53822 
L 219.291418 98.400578 
L 233.295773 112.218911 
" clip-path="url(#pce6200bada)" style="fill: none; stroke: #b2b2b2; stroke-width: 0.8; stroke-linecap: square"/>
   </g>
   <g id="line2d_108">
    <path d="M 53.721227 65.967473 
L 73.459257 58.983844 
L 87.463612 54.703491 
L 98.326234 49.965658 
L 107.201642 46.358054 
L 121.205997 45.159505 
L 129.979883 44.882854 
L 132.068618 45.235224 
L 151.806648 48.862006 
L 165.811003 53.301585 
L 178.582888 58.406934 
L 185.549033 57.548378 
L 199.553388 66.855096 
L 219.291418 81.939574 
L 233.295773 96.852701 
" clip-path="url(#pce6200bada)" style="fill: none; stroke: #b2b2b2; stroke-width: 0.8; stroke-linecap: square"/>
   </g>
   <g id="line2d_109">
    <path d="M 53.721227 51.146706 
L 73.459257 49.140323 
L 87.463612 48.342789 
L 98.326234 47.560087 
L 107.201642 45.754809 
L 121.205997 43.312059 
L 129.979883 44.882854 
L 132.068618 45.79335 
L 151.806648 52.143222 
L 165.811003 62.355796 
L 178.582888 72.094598 
L 185.549033 78.762377 
L 199.553388 93.685711 
L 219.291418 112.65133 
L 233.295773 127.396932 
" clip-path="url(#pce6200bada)" style="fill: none; stroke: #b2b2b2; stroke-width: 0.8; stroke-linecap: square"/>
   </g>
   <g id="line2d_110">
    <path d="M 53.721227 60.278004 
L 73.459257 55.294792 
L 87.463612 52.289707 
L 98.326234 51.832753 
L 107.201642 49.46108 
L 121.205997 46.184624 
L 129.979883 44.882854 
L 132.068618 45.091234 
L 151.806648 49.970245 
L 165.811003 55.963612 
L 178.582888 61.59268 
L 185.549033 64.486105 
L 199.553388 74.60629 
L 219.291418 90.909747 
L 233.295773 107.061937 
" clip-path="url(#pce6200bada)" style="fill: none; stroke: #b2b2b2; stroke-width: 0.8; stroke-linecap: square"/>
   </g>
   <g id="line2d_111">
    <path d="M 53.721227 45.14162 
L 73.459257 41.690757 
L 87.463612 41.710416 
L 98.326234 40.02106 
L 107.201642 41.290298 
L 121.205997 42.607872 
L 129.979883 44.882854 
L 132.068618 44.972071 
L 151.806648 50.539035 
L 165.811003 54.327565 
L 178.582888 60.141367 
L 185.549033 65.053399 
L 199.553388 74.365564 
L 219.291418 90.565549 
L 233.295773 105.254763 
" clip-path="url(#pce6200bada)" style="fill: none; stroke: #b2b2b2; stroke-width: 0.8; stroke-linecap: square"/>
   </g>
   <g id="line2d_112">
    <path d="M 53.721227 37.544693 
L 73.459257 36.593256 
L 87.463612 36.713418 
L 98.326234 36.490448 
L 107.201642 38.875815 
L 121.205997 43.585775 
L 129.979883 44.882854 
L 132.068618 45.72573 
L 151.806648 54.45756 
L 165.811003 59.815955 
L 178.582888 61.590385 
L 185.549033 64.143749 
L 199.553388 71.302948 
L 219.291418 83.244711 
L 233.295773 89.064136 
" clip-path="url(#pce6200bada)" style="fill: none; stroke: #b2b2b2; stroke-width: 0.8; stroke-linecap: square"/>
   </g>
   <g id="line2d_113">
    <path d="M 53.721227 42.66673 
L 73.459257 37.143835 
L 87.463612 36.47539 
L 98.326234 37.561418 
L 107.201642 39.052261 
L 121.205997 42.516989 
L 129.979883 44.882854 
L 132.068618 45.708272 
L 151.806648 53.104655 
L 165.811003 60.558819 
L 178.582888 67.463868 
L 185.549033 71.865337 
L 199.553388 82.796077 
L 219.291418 97.47603 
L 233.295773 111.47421 
" clip-path="url(#pce6200bada)" style="fill: none; stroke: #b2b2b2; stroke-width: 0.8; stroke-linecap: square"/>
   </g>
   <g id="line2d_114">
    <path d="M 53.721227 55.58124 
L 73.459257 49.483275 
L 87.463612 45.816322 
L 98.326234 45.186684 
L 107.201642 44.444212 
L 121.205997 43.735459 
L 129.979883 44.882854 
L 132.068618 45.366008 
L 151.806648 53.840649 
L 165.811003 64.061207 
L 178.582888 72.294616 
L 185.549033 75.377866 
L 199.553388 88.820024 
L 219.291418 106.827462 
L 233.295773 120.320014 
" clip-path="url(#pce6200bada)" style="fill: none; stroke: #b2b2b2; stroke-width: 0.8; stroke-linecap: square"/>
   </g>
   <g id="line2d_115">
    <path d="M 53.721227 44.038377 
L 73.459257 41.06845 
L 87.463612 40.727875 
L 98.326234 40.510902 
L 107.201642 40.688598 
L 121.205997 43.221311 
L 129.979883 44.882854 
L 132.068618 45.313074 
L 151.806648 51.485551 
L 165.811003 54.602903 
L 178.582888 57.136845 
L 185.549033 59.816597 
L 199.553388 66.529862 
L 219.291418 82.436022 
L 233.295773 92.758073 
" clip-path="url(#pce6200bada)" style="fill: none; stroke: #b2b2b2; stroke-width: 0.8; stroke-linecap: square"/>
   </g>
   <g id="line2d_116">
    <path d="M 53.721227 57.665891 
L 73.459257 55.197255 
L 87.463612 52.805988 
L 98.326234 52.233626 
L 107.201642 48.082669 
L 121.205997 45.246424 
L 129.979883 44.882854 
L 132.068618 45.516307 
L 151.806648 49.732135 
L 165.811003 58.160654 
L 178.582888 69.037899 
L 185.549033 73.570364 
L 199.553388 89.329538 
L 219.291418 109.600887 
L 233.295773 126.081092 
" clip-path="url(#pce6200bada)" style="fill: none; stroke: #b2b2b2; stroke-width: 0.8; stroke-linecap: square"/>
   </g>
   <g id="line2d_117">
    <path d="M 53.721227 50.779957 
L 73.459257 47.718638 
L 87.463612 47.634564 
L 98.326234 47.084334 
L 107.201642 47.013058 
L 121.205997 44.39373 
L 129.979883 44.882854 
L 132.068618 44.413223 
L 151.806648 50.550746 
L 165.811003 56.58861 
L 178.582888 66.55277 
L 185.549033 70.902657 
L 199.553388 80.605884 
L 219.291418 97.135953 
L 233.295773 110.532629 
" clip-path="url(#pce6200bada)" style="fill: none; stroke: #b2b2b2; stroke-width: 0.8; stroke-linecap: square"/>
   </g>
   <g id="line2d_118">
    <path d="M 53.721227 43.869075 
L 73.459257 46.792961 
L 87.463612 45.458362 
L 98.326234 45.167528 
L 107.201642 42.772202 
L 121.205997 43.183466 
L 129.979883 44.882854 
L 132.068618 44.138584 
L 151.806648 51.032996 
L 165.811003 55.809553 
L 178.582888 59.064937 
L 185.549033 63.087655 
L 199.553388 68.634414 
L 219.291418 80.66707 
L 233.295773 93.229926 
" clip-path="url(#pce6200bada)" style="fill: none; stroke: #b2b2b2; stroke-width: 0.8; stroke-linecap: square"/>
   </g>
   <g id="line2d_119">
    <path d="M 53.721227 39.68461 
L 73.459257 38.016367 
L 87.463612 40.142588 
L 98.326234 41.014415 
L 107.201642 41.635704 
L 121.205997 43.530944 
L 129.979883 44.882854 
L 132.068618 47.018298 
L 151.806648 55.557496 
L 165.811003 63.770257 
L 178.582888 70.734067 
L 185.549033 78.534367 
L 199.553388 90.221361 
L 219.291418 111.095813 
L 233.295773 124.490589 
" clip-path="url(#pce6200bada)" style="fill: none; stroke: #b2b2b2; stroke-width: 0.8; stroke-linecap: square"/>
   </g>
   <g id="line2d_120">
    <path d="M 53.721227 38.961741 
L 73.459257 38.332726 
L 87.463612 40.786086 
L 98.326234 41.893839 
L 107.201642 43.92576 
L 121.205997 45.210293 
L 129.979883 44.882854 
L 132.068618 45.104351 
L 151.806648 44.767322 
L 165.811003 50.455145 
L 178.582888 55.146116 
L 185.549033 60.576396 
L 199.553388 73.630192 
L 219.291418 88.275877 
L 233.295773 99.172628 
" clip-path="url(#pce6200bada)" style="fill: none; stroke: #b2b2b2; stroke-width: 0.8; stroke-linecap: square"/>
   </g>
   <g id="line2d_121">
    <path d="M 53.721227 47.629596 
L 73.459257 44.252984 
L 87.463612 42.498078 
L 98.326234 42.326192 
L 107.201642 42.184892 
L 121.205997 43.324553 
L 129.979883 44.882854 
L 132.068618 45.403629 
L 151.806648 51.98296 
L 165.811003 58.495543 
L 178.582888 65.44937 
L 185.549033 70.068321 
L 199.553388 79.501337 
L 219.291418 95.005544 
L 233.295773 107.989555 
" clip-path="url(#pce6200bada)" style="fill: none; stroke: #ff0000; stroke-width: 2; stroke-linecap: square"/>
   </g>
   <g id="line2d_122">
    <path d="M 53.721227 28.400793 
L 73.459257 27.533284 
L 87.463612 28.357973 
L 98.326234 30.561667 
L 107.201642 33.292732 
L 121.205997 39.720663 
L 129.979883 44.882853 
L 132.068618 43.582522 
L 151.806648 43.809951 
L 165.811003 46.608148 
L 178.582888 50.7859 
L 185.549033 53.946722 
L 199.553388 61.195781 
L 219.291418 74.343221 
L 233.295773 85.55424 
" clip-path="url(#pce6200bada)" style="fill: none; stroke-dasharray: 7.4,3.2; stroke-dashoffset: 0; stroke: #ff0000; stroke-width: 2"/>
   </g>
   <g id="line2d_123">
    <path d="M 53.721227 66.858398 
L 73.459257 60.972684 
L 87.463612 56.638183 
L 98.326234 54.090717 
L 107.201642 51.077052 
L 121.205997 46.928442 
L 129.979883 44.882855 
L 132.068618 47.224736 
L 151.806648 60.15597 
L 165.811003 70.382937 
L 178.582888 80.112841 
L 185.549033 86.18992 
L 199.553388 97.806892 
L 219.291418 115.667866 
L 233.295773 130.424871 
" clip-path="url(#pce6200bada)" style="fill: none; stroke-dasharray: 7.4,3.2; stroke-dashoffset: 0; stroke: #ff0000; stroke-width: 2"/>
   </g>
   <g id="line2d_124">
    <path d="M 53.721227 47.56771 
L 73.459257 44.323086 
L 87.463612 42.764004 
L 98.326234 42.206613 
L 107.201642 42.137654 
L 121.205997 43.390747 
L 129.979883 44.882854 
L 132.068618 45.375413 
L 151.806648 51.977379 
L 165.811003 58.5397 
L 178.582888 65.583488 
L 185.549033 69.978541 
L 199.553388 79.467254 
L 219.291418 95.131391 
L 233.295773 107.856961 
" clip-path="url(#pce6200bada)" style="fill: none; stroke: #0000ff; stroke-width: 2; stroke-linecap: square"/>
   </g>
   <g id="line2d_125">
    <path d="M 53.721227 28.511265 
L 73.459257 27.437824 
L 87.463612 28.681586 
L 98.326234 30.504609 
L 107.201642 33.299919 
L 121.205997 39.521885 
L 129.979883 44.882854 
L 132.068618 43.813751 
L 151.806648 43.734682 
L 165.811003 46.778941 
L 178.582888 51.10157 
L 185.549033 53.901985 
L 199.553388 61.379206 
L 219.291418 74.376065 
L 233.295773 85.277362 
" clip-path="url(#pce6200bada)" style="fill: none; stroke-dasharray: 7.4,3.2; stroke-dashoffset: 0; stroke: #0000ff; stroke-width: 2"/>
   </g>
   <g id="line2d_126">
    <path d="M 53.721227 66.624155 
L 73.459257 61.208349 
L 87.463612 56.846422 
L 98.326234 53.908616 
L 107.201642 50.97539 
L 121.205997 47.259609 
L 129.979883 44.882854 
L 132.068618 46.937076 
L 151.806648 60.220075 
L 165.811003 70.300458 
L 178.582888 80.065406 
L 185.549033 86.055097 
L 199.553388 97.555302 
L 219.291418 115.886716 
L 233.295773 130.436559 
" clip-path="url(#pce6200bada)" style="fill: none; stroke-dasharray: 7.4,3.2; stroke-dashoffset: 0; stroke: #0000ff; stroke-width: 2"/>
   </g>
   <g id="patch_3">
    <path d="M 44.7425 139.607464 
L 44.7425 8.769064 
" style="fill: none; stroke: #000000; stroke-width: 0.8; stroke-linejoin: miter; stroke-linecap: square"/>
   </g>
   <g id="patch_4">
    <path d="M 242.2745 139.607464 
L 242.2745 8.769064 
" style="fill: none; stroke: #000000; stroke-width: 0.8; stroke-linejoin: miter; stroke-linecap: square"/>
   </g>
   <g id="patch_5">
    <path d="M 44.7425 139.607464 
L 242.2745 139.607464 
" style="fill: none; stroke: #000000; stroke-width: 0.8; stroke-linejoin: miter; stroke-linecap: square"/>
   </g>
   <g id="patch_6">
    <path d="M 44.7425 8.769064 
L 242.2745 8.769064 
" style="fill: none; stroke: #000000; stroke-width: 0.8; stroke-linejoin: miter; stroke-linecap: square"/>
   </g>
   <g id="legend_1">
    <g id="patch_7">
     <path d="M 247.8745 106.042014 
L 432.5945 106.042014 
Q 434.1945 106.042014 434.1945 104.442014 
L 434.1945 43.934514 
Q 434.1945 42.334514 432.5945 42.334514 
L 247.8745 42.334514 
Q 246.2745 42.334514 246.2745 43.934514 
L 246.2745 104.442014 
Q 246.2745 106.042014 247.8745 106.042014 
z
" style="fill: #ffffff; opacity: 0.8; stroke: #cccccc; stroke-linejoin: miter"/>
    </g>
    <g id="line2d_127">
     <path d="M 249.4745 48.813264 
L 257.4745 48.813264 
L 265.4745 48.813264 
" style="fill: none; stroke: #b2b2b2; stroke-width: 0.8; stroke-linecap: square"/>
    </g>
    <g id="text_8">
     <!-- Individual selected GMs -->
     <g transform="translate(271.8745 51.613264) scale(0.08 -0.08)">
      <defs>
       <path id="DejaVuSans-49" d="M 628 4666 
L 1259 4666 
L 1259 0 
L 628 0 
L 628 4666 
z
" transform="scale(0.015625)"/>
       <path id="DejaVuSans-76" d="M 191 3500 
L 800 3500 
L 1894 563 
L 2988 3500 
L 3597 3500 
L 2284 0 
L 1503 0 
L 191 3500 
z
" transform="scale(0.015625)"/>
       <path id="DejaVuSans-75" d="M 544 1381 
L 544 3500 
L 1119 3500 
L 1119 1403 
Q 1119 906 1312 657 
Q 1506 409 1894 409 
Q 2359 409 2629 706 
Q 2900 1003 2900 1516 
L 2900 3500 
L 3475 3500 
L 3475 0 
L 2900 0 
L 2900 538 
Q 2691 219 2414 64 
Q 2138 -91 1772 -91 
Q 1169 -91 856 284 
Q 544 659 544 1381 
z
M 1991 3584 
L 1991 3584 
z
" transform="scale(0.015625)"/>
       <path id="DejaVuSans-47" d="M 3809 666 
L 3809 1919 
L 2778 1919 
L 2778 2438 
L 4434 2438 
L 4434 434 
Q 4069 175 3628 42 
Q 3188 -91 2688 -91 
Q 1594 -91 976 548 
Q 359 1188 359 2328 
Q 359 3472 976 4111 
Q 1594 4750 2688 4750 
Q 3144 4750 3555 4637 
Q 3966 4525 4313 4306 
L 4313 3634 
Q 3963 3931 3569 4081 
Q 3175 4231 2741 4231 
Q 1884 4231 1454 3753 
Q 1025 3275 1025 2328 
Q 1025 1384 1454 906 
Q 1884 428 2741 428 
Q 3075 428 3337 486 
Q 3600 544 3809 666 
z
" transform="scale(0.015625)"/>
       <path id="DejaVuSans-4d" d="M 628 4666 
L 1569 4666 
L 2759 1491 
L 3956 4666 
L 4897 4666 
L 4897 0 
L 4281 0 
L 4281 4097 
L 3078 897 
L 2444 897 
L 1241 4097 
L 1241 0 
L 628 0 
L 628 4666 
z
" transform="scale(0.015625)"/>
      </defs>
      <use xlink:href="#DejaVuSans-49"/>
      <use xlink:href="#DejaVuSans-6e" x="29.492188"/>
      <use xlink:href="#DejaVuSans-64" x="92.871094"/>
      <use xlink:href="#DejaVuSans-69" x="156.347656"/>
      <use xlink:href="#DejaVuSans-76" x="184.130859"/>
      <use xlink:href="#DejaVuSans-69" x="243.310547"/>
      <use xlink:href="#DejaVuSans-64" x="271.09375"/>
      <use xlink:href="#DejaVuSans-75" x="334.570312"/>
      <use xlink:href="#DejaVuSans-61" x="397.949219"/>
      <use xlink:href="#DejaVuSans-6c" x="459.228516"/>
      <use xlink:href="#DejaVuSans-20" x="487.011719"/>
      <use xlink:href="#DejaVuSans-73" x="518.798828"/>
      <use xlink:href="#DejaVuSans-65" x="570.898438"/>
      <use xlink:href="#DejaVuSans-6c" x="632.421875"/>
      <use xlink:href="#DejaVuSans-65" x="660.205078"/>
      <use xlink:href="#DejaVuSans-63" x="721.728516"/>
      <use xlink:href="#DejaVuSans-74" x="776.708984"/>
      <use xlink:href="#DejaVuSans-65" x="815.917969"/>
      <use xlink:href="#DejaVuSans-64" x="877.441406"/>
      <use xlink:href="#DejaVuSans-20" x="940.917969"/>
      <use xlink:href="#DejaVuSans-47" x="972.705078"/>
      <use xlink:href="#DejaVuSans-4d" x="1050.195312"/>
      <use xlink:href="#DejaVuSans-73" x="1136.474609"/>
     </g>
    </g>
    <g id="line2d_128">
     <path d="M 249.4745 60.555764 
L 257.4745 60.555764 
L 265.4745 60.555764 
" style="fill: none; stroke: #ff0000; stroke-width: 2; stroke-linecap: square"/>
    </g>
    <g id="text_9">
     <!-- GCIM median -->
     <g transform="translate(271.8745 63.355764) scale(0.08 -0.08)">
      <defs>
       <path id="DejaVuSans-43" d="M 4122 4306 
L 4122 3641 
Q 3803 3938 3442 4084 
Q 3081 4231 2675 4231 
Q 1875 4231 1450 3742 
Q 1025 3253 1025 2328 
Q 1025 1406 1450 917 
Q 1875 428 2675 428 
Q 3081 428 3442 575 
Q 3803 722 4122 1019 
L 4122 359 
Q 3791 134 3420 21 
Q 3050 -91 2638 -91 
Q 1578 -91 968 557 
Q 359 1206 359 2328 
Q 359 3453 968 4101 
Q 1578 4750 2638 4750 
Q 3056 4750 3426 4639 
Q 3797 4528 4122 4306 
z
" transform="scale(0.015625)"/>
       <path id="DejaVuSans-6d" d="M 3328 2828 
Q 3544 3216 3844 3400 
Q 4144 3584 4550 3584 
Q 5097 3584 5394 3201 
Q 5691 2819 5691 2113 
L 5691 0 
L 5113 0 
L 5113 2094 
Q 5113 2597 4934 2840 
Q 4756 3084 4391 3084 
Q 3944 3084 3684 2787 
Q 3425 2491 3425 1978 
L 3425 0 
L 2847 0 
L 2847 2094 
Q 2847 2600 2669 2842 
Q 2491 3084 2119 3084 
Q 1678 3084 1418 2786 
Q 1159 2488 1159 1978 
L 1159 0 
L 581 0 
L 581 3500 
L 1159 3500 
L 1159 2956 
Q 1356 3278 1631 3431 
Q 1906 3584 2284 3584 
Q 2666 3584 2933 3390 
Q 3200 3197 3328 2828 
z
" transform="scale(0.015625)"/>
      </defs>
      <use xlink:href="#DejaVuSans-47"/>
      <use xlink:href="#DejaVuSans-43" x="77.490234"/>
      <use xlink:href="#DejaVuSans-49" x="147.314453"/>
      <use xlink:href="#DejaVuSans-4d" x="176.806641"/>
      <use xlink:href="#DejaVuSans-20" x="263.085938"/>
      <use xlink:href="#DejaVuSans-6d" x="294.873047"/>
      <use xlink:href="#DejaVuSans-65" x="392.285156"/>
      <use xlink:href="#DejaVuSans-64" x="453.808594"/>
      <use xlink:href="#DejaVuSans-69" x="517.285156"/>
      <use xlink:href="#DejaVuSans-61" x="545.068359"/>
      <use xlink:href="#DejaVuSans-6e" x="606.347656"/>
     </g>
    </g>
    <g id="line2d_129">
     <path d="M 249.4745 73.579514 
L 257.4745 73.579514 
L 265.4745 73.579514 
" style="fill: none; stroke-dasharray: 7.4,3.2; stroke-dashoffset: 0; stroke: #ff0000; stroke-width: 2"/>
    </g>
    <g id="text_10">
     <!-- GCIM $16^{th}$ and $84^{th}$ percentiles -->
     <g transform="translate(271.8745 76.379514) scale(0.08 -0.08)">
      <defs>
       <path id="DejaVuSans-36" d="M 2113 2584 
Q 1688 2584 1439 2293 
Q 1191 2003 1191 1497 
Q 1191 994 1439 701 
Q 1688 409 2113 409 
Q 2538 409 2786 701 
Q 3034 994 3034 1497 
Q 3034 2003 2786 2293 
Q 2538 2584 2113 2584 
z
M 3366 4563 
L 3366 3988 
Q 3128 4100 2886 4159 
Q 2644 4219 2406 4219 
Q 1781 4219 1451 3797 
Q 1122 3375 1075 2522 
Q 1259 2794 1537 2939 
Q 1816 3084 2150 3084 
Q 2853 3084 3261 2657 
Q 3669 2231 3669 1497 
Q 3669 778 3244 343 
Q 2819 -91 2113 -91 
Q 1303 -91 875 529 
Q 447 1150 447 2328 
Q 447 3434 972 4092 
Q 1497 4750 2381 4750 
Q 2619 4750 2861 4703 
Q 3103 4656 3366 4563 
z
" transform="scale(0.015625)"/>
       <path id="DejaVuSans-Oblique-74" d="M 2706 3500 
L 2619 3053 
L 1472 3053 
L 1100 1153 
Q 1081 1047 1072 975 
Q 1063 903 1063 863 
Q 1063 663 1183 572 
Q 1303 481 1569 481 
L 2150 481 
L 2053 0 
L 1503 0 
Q 991 0 739 200 
Q 488 400 488 806 
Q 488 878 497 964 
Q 506 1050 525 1153 
L 897 3053 
L 409 3053 
L 500 3500 
L 978 3500 
L 1172 4494 
L 1747 4494 
L 1556 3500 
L 2706 3500 
z
" transform="scale(0.015625)"/>
       <path id="DejaVuSans-Oblique-68" d="M 3566 2113 
L 3156 0 
L 2578 0 
L 2988 2091 
Q 3016 2238 3031 2350 
Q 3047 2463 3047 2528 
Q 3047 2791 2881 2937 
Q 2716 3084 2419 3084 
Q 1956 3084 1617 2771 
Q 1278 2459 1178 1941 
L 800 0 
L 225 0 
L 1172 4863 
L 1747 4863 
L 1375 2950 
Q 1594 3244 1934 3414 
Q 2275 3584 2650 3584 
Q 3113 3584 3367 3334 
Q 3622 3084 3622 2631 
Q 3622 2519 3608 2391 
Q 3594 2263 3566 2113 
z
" transform="scale(0.015625)"/>
       <path id="DejaVuSans-38" d="M 2034 2216 
Q 1584 2216 1326 1975 
Q 1069 1734 1069 1313 
Q 1069 891 1326 650 
Q 1584 409 2034 409 
Q 2484 409 2743 651 
Q 3003 894 3003 1313 
Q 3003 1734 2745 1975 
Q 2488 2216 2034 2216 
z
M 1403 2484 
Q 997 2584 770 2862 
Q 544 3141 544 3541 
Q 544 4100 942 4425 
Q 1341 4750 2034 4750 
Q 2731 4750 3128 4425 
Q 3525 4100 3525 3541 
Q 3525 3141 3298 2862 
Q 3072 2584 2669 2484 
Q 3125 2378 3379 2068 
Q 3634 1759 3634 1313 
Q 3634 634 3220 271 
Q 2806 -91 2034 -91 
Q 1263 -91 848 271 
Q 434 634 434 1313 
Q 434 1759 690 2068 
Q 947 2378 1403 2484 
z
M 1172 3481 
Q 1172 3119 1398 2916 
Q 1625 2713 2034 2713 
Q 2441 2713 2670 2916 
Q 2900 3119 2900 3481 
Q 2900 3844 2670 4047 
Q 2441 4250 2034 4250 
Q 1625 4250 1398 4047 
Q 1172 3844 1172 3481 
z
" transform="scale(0.015625)"/>
       <path id="DejaVuSans-34" d="M 2419 4116 
L 825 1625 
L 2419 1625 
L 2419 4116 
z
M 2253 4666 
L 3047 4666 
L 3047 1625 
L 3713 1625 
L 3713 1100 
L 3047 1100 
L 3047 0 
L 2419 0 
L 2419 1100 
L 313 1100 
L 313 1709 
L 2253 4666 
z
" transform="scale(0.015625)"/>
      </defs>
      <use xlink:href="#DejaVuSans-47" transform="translate(0 0.529687)"/>
      <use xlink:href="#DejaVuSans-43" transform="translate(77.490234 0.529687)"/>
      <use xlink:href="#DejaVuSans-49" transform="translate(147.314453 0.529687)"/>
      <use xlink:href="#DejaVuSans-4d" transform="translate(176.806641 0.529687)"/>
      <use xlink:href="#DejaVuSans-20" transform="translate(263.085938 0.529687)"/>
      <use xlink:href="#DejaVuSans-31" transform="translate(294.873047 0.529687)"/>
      <use xlink:href="#DejaVuSans-36" transform="translate(358.496094 0.529687)"/>
      <use xlink:href="#DejaVuSans-Oblique-74" transform="translate(423.076172 38.810937) scale(0.7)"/>
      <use xlink:href="#DejaVuSans-Oblique-68" transform="translate(450.522461 38.810937) scale(0.7)"/>
      <use xlink:href="#DejaVuSans-20" transform="translate(497.62207 0.529687)"/>
      <use xlink:href="#DejaVuSans-61" transform="translate(529.40918 0.529687)"/>
      <use xlink:href="#DejaVuSans-6e" transform="translate(590.688477 0.529687)"/>
      <use xlink:href="#DejaVuSans-64" transform="translate(654.067383 0.529687)"/>
      <use xlink:href="#DejaVuSans-20" transform="translate(717.543945 0.529687)"/>
      <use xlink:href="#DejaVuSans-38" transform="translate(749.331055 0.529687)"/>
      <use xlink:href="#DejaVuSans-34" transform="translate(812.954102 0.529687)"/>
      <use xlink:href="#DejaVuSans-Oblique-74" transform="translate(877.53418 38.810937) scale(0.7)"/>
      <use xlink:href="#DejaVuSans-Oblique-68" transform="translate(904.980469 38.810937) scale(0.7)"/>
      <use xlink:href="#DejaVuSans-20" transform="translate(952.080078 0.529687)"/>
      <use xlink:href="#DejaVuSans-70" transform="translate(983.867188 0.529687)"/>
      <use xlink:href="#DejaVuSans-65" transform="translate(1047.34375 0.529687)"/>
      <use xlink:href="#DejaVuSans-72" transform="translate(1108.867188 0.529687)"/>
      <use xlink:href="#DejaVuSans-63" transform="translate(1149.980469 0.529687)"/>
      <use xlink:href="#DejaVuSans-65" transform="translate(1204.960938 0.529687)"/>
      <use xlink:href="#DejaVuSans-6e" transform="translate(1266.484375 0.529687)"/>
      <use xlink:href="#DejaVuSans-74" transform="translate(1329.863281 0.529687)"/>
      <use xlink:href="#DejaVuSans-69" transform="translate(1369.072266 0.529687)"/>
      <use xlink:href="#DejaVuSans-6c" transform="translate(1396.855469 0.529687)"/>
      <use xlink:href="#DejaVuSans-65" transform="translate(1424.638672 0.529687)"/>
      <use xlink:href="#DejaVuSans-73" transform="translate(1486.162109 0.529687)"/>
     </g>
    </g>
    <g id="line2d_130">
     <path d="M 249.4745 85.338264 
L 257.4745 85.338264 
L 265.4745 85.338264 
" style="fill: none; stroke: #0000ff; stroke-width: 2; stroke-linecap: square"/>
    </g>
    <g id="text_11">
     <!-- Selected GMs median -->
     <g transform="translate(271.8745 88.138264) scale(0.08 -0.08)">
      <use xlink:href="#DejaVuSans-53"/>
      <use xlink:href="#DejaVuSans-65" x="63.476562"/>
      <use xlink:href="#DejaVuSans-6c" x="125"/>
      <use xlink:href="#DejaVuSans-65" x="152.783203"/>
      <use xlink:href="#DejaVuSans-63" x="214.306641"/>
      <use xlink:href="#DejaVuSans-74" x="269.287109"/>
      <use xlink:href="#DejaVuSans-65" x="308.496094"/>
      <use xlink:href="#DejaVuSans-64" x="370.019531"/>
      <use xlink:href="#DejaVuSans-20" x="433.496094"/>
      <use xlink:href="#DejaVuSans-47" x="465.283203"/>
      <use xlink:href="#DejaVuSans-4d" x="542.773438"/>
      <use xlink:href="#DejaVuSans-73" x="629.052734"/>
      <use xlink:href="#DejaVuSans-20" x="681.152344"/>
      <use xlink:href="#DejaVuSans-6d" x="712.939453"/>
      <use xlink:href="#DejaVuSans-65" x="810.351562"/>
      <use xlink:href="#DejaVuSans-64" x="871.875"/>
      <use xlink:href="#DejaVuSans-69" x="935.351562"/>
      <use xlink:href="#DejaVuSans-61" x="963.134766"/>
      <use xlink:href="#DejaVuSans-6e" x="1024.414062"/>
     </g>
    </g>
    <g id="line2d_131">
     <path d="M 249.4745 98.362014 
L 257.4745 98.362014 
L 265.4745 98.362014 
" style="fill: none; stroke-dasharray: 7.4,3.2; stroke-dashoffset: 0; stroke: #0000ff; stroke-width: 2"/>
    </g>
    <g id="text_12">
     <!-- Selected GMs, $16^{th}$ and $84^{th}$ percentiles -->
     <g transform="translate(271.8745 101.162014) scale(0.08 -0.08)">
      <use xlink:href="#DejaVuSans-53" transform="translate(0 0.529687)"/>
      <use xlink:href="#DejaVuSans-65" transform="translate(63.476562 0.529687)"/>
      <use xlink:href="#DejaVuSans-6c" transform="translate(125 0.529687)"/>
      <use xlink:href="#DejaVuSans-65" transform="translate(152.783203 0.529687)"/>
      <use xlink:href="#DejaVuSans-63" transform="translate(214.306641 0.529687)"/>
      <use xlink:href="#DejaVuSans-74" transform="translate(269.287109 0.529687)"/>
      <use xlink:href="#DejaVuSans-65" transform="translate(308.496094 0.529687)"/>
      <use xlink:href="#DejaVuSans-64" transform="translate(370.019531 0.529687)"/>
      <use xlink:href="#DejaVuSans-20" transform="translate(433.496094 0.529687)"/>
      <use xlink:href="#DejaVuSans-47" transform="translate(465.283203 0.529687)"/>
      <use xlink:href="#DejaVuSans-4d" transform="translate(542.773438 0.529687)"/>
      <use xlink:href="#DejaVuSans-73" transform="translate(629.052734 0.529687)"/>
      <use xlink:href="#DejaVuSans-2c" transform="translate(681.152344 0.529687)"/>
      <use xlink:href="#DejaVuSans-20" transform="translate(712.939453 0.529687)"/>
      <use xlink:href="#DejaVuSans-31" transform="translate(744.726562 0.529687)"/>
      <use xlink:href="#DejaVuSans-36" transform="translate(808.349609 0.529687)"/>
      <use xlink:href="#DejaVuSans-Oblique-74" transform="translate(872.929688 38.810937) scale(0.7)"/>
      <use xlink:href="#DejaVuSans-Oblique-68" transform="translate(900.375977 38.810937) scale(0.7)"/>
      <use xlink:href="#DejaVuSans-20" transform="translate(947.475586 0.529687)"/>
      <use xlink:href="#DejaVuSans-61" transform="translate(979.262695 0.529687)"/>
      <use xlink:href="#DejaVuSans-6e" transform="translate(1040.541992 0.529687)"/>
      <use xlink:href="#DejaVuSans-64" transform="translate(1103.920898 0.529687)"/>
      <use xlink:href="#DejaVuSans-20" transform="translate(1167.397461 0.529687)"/>
      <use xlink:href="#DejaVuSans-38" transform="translate(1199.18457 0.529687)"/>
      <use xlink:href="#DejaVuSans-34" transform="translate(1262.807617 0.529687)"/>
      <use xlink:href="#DejaVuSans-Oblique-74" transform="translate(1327.387695 38.810937) scale(0.7)"/>
      <use xlink:href="#DejaVuSans-Oblique-68" transform="translate(1354.833984 38.810937) scale(0.7)"/>
      <use xlink:href="#DejaVuSans-20" transform="translate(1401.933594 0.529687)"/>
      <use xlink:href="#DejaVuSans-70" transform="translate(1433.720703 0.529687)"/>
      <use xlink:href="#DejaVuSans-65" transform="translate(1497.197266 0.529687)"/>
      <use xlink:href="#DejaVuSans-72" transform="translate(1558.720703 0.529687)"/>
      <use xlink:href="#DejaVuSans-63" transform="translate(1599.833984 0.529687)"/>
      <use xlink:href="#DejaVuSans-65" transform="translate(1654.814453 0.529687)"/>
      <use xlink:href="#DejaVuSans-6e" transform="translate(1716.337891 0.529687)"/>
      <use xlink:href="#DejaVuSans-74" transform="translate(1779.716797 0.529687)"/>
      <use xlink:href="#DejaVuSans-69" transform="translate(1818.925781 0.529687)"/>
      <use xlink:href="#DejaVuSans-6c" transform="translate(1846.708984 0.529687)"/>
      <use xlink:href="#DejaVuSans-65" transform="translate(1874.492188 0.529687)"/>
      <use xlink:href="#DejaVuSans-73" transform="translate(1936.015625 0.529687)"/>
     </g>
    </g>
   </g>
  </g>
 </g>
 <defs>
  <clipPath id="pce6200bada">
   <rect x="44.7425" y="8.769064" width="197.532" height="130.8384"/>
  </clipPath>
 </defs>
</svg>
