<?xml version="1.0" encoding="utf-8" standalone="no"?>
<!DOCTYPE svg PUBLIC "-//W3C//DTD SVG 1.1//EN"
  "http://www.w3.org/Graphics/SVG/1.1/DTD/svg11.dtd">
<svg xmlns:xlink="http://www.w3.org/1999/xlink" width="441.3945pt" height="171.7234pt" viewBox="0 0 441.3945 171.7234" xmlns="http://www.w3.org/2000/svg" version="1.1">
 <metadata>
  <rdf:RDF xmlns:dc="http://purl.org/dc/elements/1.1/" xmlns:cc="http://creativecommons.org/ns#" xmlns:rdf="http://www.w3.org/1999/02/22-rdf-syntax-ns#">
   <cc:Work>
    <dc:type rdf:resource="http://purl.org/dc/dcmitype/StillImage"/>
    <dc:date>2024-11-13T17:43:05.296486</dc:date>
    <dc:format>image/svg+xml</dc:format>
    <dc:creator>
     <cc:Agent>
      <dc:title>Matplotlib v3.8.2, https://matplotlib.org/</dc:title>
     </cc:Agent>
    </dc:creator>
   </cc:Work>
  </rdf:RDF>
 </metadata>
 <defs>
  <style type="text/css">*{stroke-linejoin: round; stroke-linecap: butt}</style>
 </defs>
 <g id="figure_1">
  <g id="patch_1">
   <path d="M 0 171.7234 
L 441.3945 171.7234 
L 441.3945 0 
L 0 0 
z
" style="fill: #ffffff"/>
  </g>
  <g id="axes_1">
   <g id="patch_2">
    <path d="M 44.7425 138.0384 
L 242.2745 138.0384 
L 242.2745 7.2 
L 44.7425 7.2 
z
" style="fill: #ffffff"/>
   </g>
   <g id="matplotlib.axis_1">
    <g id="xtick_1">
     <g id="line2d_1">
      <path d="M 53.721227 138.0384 
L 53.721227 7.2 
" clip-path="url(#p7243d0688d)" style="fill: none; stroke: #d9d9d9; stroke-width: 0.8; stroke-linecap: square"/>
     </g>
     <g id="line2d_2">
      <defs>
       <path id="m291cb4210c" d="M 0 0 
L 0 3.5 
" style="stroke: #000000; stroke-width: 0.8"/>
      </defs>
      <g>
       <use xlink:href="#m291cb4210c" x="53.721227" y="138.0384" style="stroke: #000000; stroke-width: 0.8"/>
      </g>
     </g>
     <g id="text_1">
      <!-- $\mathdefault{10^{-1}}$ -->
      <g transform="translate(44.321227 151.11715) scale(0.08 -0.08)">
       <defs>
        <path id="DejaVuSans-31" d="M 794 531 
L 1825 531 
L 1825 4091 
L 703 3866 
L 703 4441 
L 1819 4666 
L 2450 4666 
L 2450 531 
L 3481 531 
L 3481 0 
L 794 0 
L 794 531 
z
" transform="scale(0.015625)"/>
        <path id="DejaVuSans-30" d="M 2034 4250 
Q 1547 4250 1301 3770 
Q 1056 3291 1056 2328 
Q 1056 1369 1301 889 
Q 1547 409 2034 409 
Q 2525 409 2770 889 
Q 3016 1369 3016 2328 
Q 3016 3291 2770 3770 
Q 2525 4250 2034 4250 
z
M 2034 4750 
Q 2819 4750 3233 4129 
Q 3647 3509 3647 2328 
Q 3647 1150 3233 529 
Q 2819 -91 2034 -91 
Q 1250 -91 836 529 
Q 422 1150 422 2328 
Q 422 3509 836 4129 
Q 1250 4750 2034 4750 
z
" transform="scale(0.015625)"/>
        <path id="DejaVuSans-2212" d="M 678 2272 
L 4684 2272 
L 4684 1741 
L 678 1741 
L 678 2272 
z
" transform="scale(0.015625)"/>
       </defs>
       <use xlink:href="#DejaVuSans-31" transform="translate(0 0.684375)"/>
       <use xlink:href="#DejaVuSans-30" transform="translate(63.623047 0.684375)"/>
       <use xlink:href="#DejaVuSans-2212" transform="translate(128.203125 38.965625) scale(0.7)"/>
       <use xlink:href="#DejaVuSans-31" transform="translate(186.855469 38.965625) scale(0.7)"/>
      </g>
     </g>
    </g>
    <g id="xtick_2">
     <g id="line2d_3">
      <path d="M 165.811003 138.0384 
L 165.811003 7.2 
" clip-path="url(#p7243d0688d)" style="fill: none; stroke: #d9d9d9; stroke-width: 0.8; stroke-linecap: square"/>
     </g>
     <g id="line2d_4">
      <g>
       <use xlink:href="#m291cb4210c" x="165.811003" y="138.0384" style="stroke: #000000; stroke-width: 0.8"/>
      </g>
     </g>
     <g id="text_2">
      <!-- $\mathdefault{10^{0}}$ -->
      <g transform="translate(158.771003 151.11715) scale(0.08 -0.08)">
       <use xlink:href="#DejaVuSans-31" transform="translate(0 0.765625)"/>
       <use xlink:href="#DejaVuSans-30" transform="translate(63.623047 0.765625)"/>
       <use xlink:href="#DejaVuSans-30" transform="translate(128.203125 39.046875) scale(0.7)"/>
      </g>
     </g>
    </g>
    <g id="xtick_3">
     <g id="line2d_5">
      <path d="M 48.59228 138.0384 
L 48.59228 7.2 
" clip-path="url(#p7243d0688d)" style="fill: none; stroke-dasharray: 2.96,1.28; stroke-dashoffset: 0; stroke: #f2f2f2; stroke-width: 0.8"/>
     </g>
     <g id="line2d_6">
      <defs>
       <path id="mc8a02d91a1" d="M 0 0 
L 0 2 
" style="stroke: #000000; stroke-width: 0.6"/>
      </defs>
      <g>
       <use xlink:href="#mc8a02d91a1" x="48.59228" y="138.0384" style="stroke: #000000; stroke-width: 0.6"/>
      </g>
     </g>
    </g>
    <g id="xtick_4">
     <g id="line2d_7">
      <path d="M 87.463612 138.0384 
L 87.463612 7.2 
" clip-path="url(#p7243d0688d)" style="fill: none; stroke-dasharray: 2.96,1.28; stroke-dashoffset: 0; stroke: #f2f2f2; stroke-width: 0.8"/>
     </g>
     <g id="line2d_8">
      <g>
       <use xlink:href="#mc8a02d91a1" x="87.463612" y="138.0384" style="stroke: #000000; stroke-width: 0.6"/>
      </g>
     </g>
    </g>
    <g id="xtick_5">
     <g id="line2d_9">
      <path d="M 107.201642 138.0384 
L 107.201642 7.2 
" clip-path="url(#p7243d0688d)" style="fill: none; stroke-dasharray: 2.96,1.28; stroke-dashoffset: 0; stroke: #f2f2f2; stroke-width: 0.8"/>
     </g>
     <g id="line2d_10">
      <g>
       <use xlink:href="#mc8a02d91a1" x="107.201642" y="138.0384" style="stroke: #000000; stroke-width: 0.6"/>
      </g>
     </g>
    </g>
    <g id="xtick_6">
     <g id="line2d_11">
      <path d="M 121.205997 138.0384 
L 121.205997 7.2 
" clip-path="url(#p7243d0688d)" style="fill: none; stroke-dasharray: 2.96,1.28; stroke-dashoffset: 0; stroke: #f2f2f2; stroke-width: 0.8"/>
     </g>
     <g id="line2d_12">
      <g>
       <use xlink:href="#mc8a02d91a1" x="121.205997" y="138.0384" style="stroke: #000000; stroke-width: 0.6"/>
      </g>
     </g>
    </g>
    <g id="xtick_7">
     <g id="line2d_13">
      <path d="M 132.068618 138.0384 
L 132.068618 7.2 
" clip-path="url(#p7243d0688d)" style="fill: none; stroke-dasharray: 2.96,1.28; stroke-dashoffset: 0; stroke: #f2f2f2; stroke-width: 0.8"/>
     </g>
     <g id="line2d_14">
      <g>
       <use xlink:href="#mc8a02d91a1" x="132.068618" y="138.0384" style="stroke: #000000; stroke-width: 0.6"/>
      </g>
     </g>
    </g>
    <g id="xtick_8">
     <g id="line2d_15">
      <path d="M 140.944027 138.0384 
L 140.944027 7.2 
" clip-path="url(#p7243d0688d)" style="fill: none; stroke-dasharray: 2.96,1.28; stroke-dashoffset: 0; stroke: #f2f2f2; stroke-width: 0.8"/>
     </g>
     <g id="line2d_16">
      <g>
       <use xlink:href="#mc8a02d91a1" x="140.944027" y="138.0384" style="stroke: #000000; stroke-width: 0.6"/>
      </g>
     </g>
    </g>
    <g id="xtick_9">
     <g id="line2d_17">
      <path d="M 148.448077 138.0384 
L 148.448077 7.2 
" clip-path="url(#p7243d0688d)" style="fill: none; stroke-dasharray: 2.96,1.28; stroke-dashoffset: 0; stroke: #f2f2f2; stroke-width: 0.8"/>
     </g>
     <g id="line2d_18">
      <g>
       <use xlink:href="#mc8a02d91a1" x="148.448077" y="138.0384" style="stroke: #000000; stroke-width: 0.6"/>
      </g>
     </g>
    </g>
    <g id="xtick_10">
     <g id="line2d_19">
      <path d="M 154.948382 138.0384 
L 154.948382 7.2 
" clip-path="url(#p7243d0688d)" style="fill: none; stroke-dasharray: 2.96,1.28; stroke-dashoffset: 0; stroke: #f2f2f2; stroke-width: 0.8"/>
     </g>
     <g id="line2d_20">
      <g>
       <use xlink:href="#mc8a02d91a1" x="154.948382" y="138.0384" style="stroke: #000000; stroke-width: 0.6"/>
      </g>
     </g>
    </g>
    <g id="xtick_11">
     <g id="line2d_21">
      <path d="M 160.682056 138.0384 
L 160.682056 7.2 
" clip-path="url(#p7243d0688d)" style="fill: none; stroke-dasharray: 2.96,1.28; stroke-dashoffset: 0; stroke: #f2f2f2; stroke-width: 0.8"/>
     </g>
     <g id="line2d_22">
      <g>
       <use xlink:href="#mc8a02d91a1" x="160.682056" y="138.0384" style="stroke: #000000; stroke-width: 0.6"/>
      </g>
     </g>
    </g>
    <g id="xtick_12">
     <g id="line2d_23">
      <path d="M 199.553388 138.0384 
L 199.553388 7.2 
" clip-path="url(#p7243d0688d)" style="fill: none; stroke-dasharray: 2.96,1.28; stroke-dashoffset: 0; stroke: #f2f2f2; stroke-width: 0.8"/>
     </g>
     <g id="line2d_24">
      <g>
       <use xlink:href="#mc8a02d91a1" x="199.553388" y="138.0384" style="stroke: #000000; stroke-width: 0.6"/>
      </g>
     </g>
    </g>
    <g id="xtick_13">
     <g id="line2d_25">
      <path d="M 219.291418 138.0384 
L 219.291418 7.2 
" clip-path="url(#p7243d0688d)" style="fill: none; stroke-dasharray: 2.96,1.28; stroke-dashoffset: 0; stroke: #f2f2f2; stroke-width: 0.8"/>
     </g>
     <g id="line2d_26">
      <g>
       <use xlink:href="#mc8a02d91a1" x="219.291418" y="138.0384" style="stroke: #000000; stroke-width: 0.6"/>
      </g>
     </g>
    </g>
    <g id="xtick_14">
     <g id="line2d_27">
      <path d="M 233.295773 138.0384 
L 233.295773 7.2 
" clip-path="url(#p7243d0688d)" style="fill: none; stroke-dasharray: 2.96,1.28; stroke-dashoffset: 0; stroke: #f2f2f2; stroke-width: 0.8"/>
     </g>
     <g id="line2d_28">
      <g>
       <use xlink:href="#mc8a02d91a1" x="233.295773" y="138.0384" style="stroke: #000000; stroke-width: 0.6"/>
      </g>
     </g>
    </g>
    <g id="text_3">
     <!-- Period, T (s) -->
     <g transform="translate(119.576 162.85965) scale(0.08 -0.08)">
      <defs>
       <path id="DejaVuSans-50" d="M 1259 4147 
L 1259 2394 
L 2053 2394 
Q 2494 2394 2734 2622 
Q 2975 2850 2975 3272 
Q 2975 3691 2734 3919 
Q 2494 4147 2053 4147 
L 1259 4147 
z
M 628 4666 
L 2053 4666 
Q 2838 4666 3239 4311 
Q 3641 3956 3641 3272 
Q 3641 2581 3239 2228 
Q 2838 1875 2053 1875 
L 1259 1875 
L 1259 0 
L 628 0 
L 628 4666 
z
" transform="scale(0.015625)"/>
       <path id="DejaVuSans-65" d="M 3597 1894 
L 3597 1613 
L 953 1613 
Q 991 1019 1311 708 
Q 1631 397 2203 397 
Q 2534 397 2845 478 
Q 3156 559 3463 722 
L 3463 178 
Q 3153 47 2828 -22 
Q 2503 -91 2169 -91 
Q 1331 -91 842 396 
Q 353 884 353 1716 
Q 353 2575 817 3079 
Q 1281 3584 2069 3584 
Q 2775 3584 3186 3129 
Q 3597 2675 3597 1894 
z
M 3022 2063 
Q 3016 2534 2758 2815 
Q 2500 3097 2075 3097 
Q 1594 3097 1305 2825 
Q 1016 2553 972 2059 
L 3022 2063 
z
" transform="scale(0.015625)"/>
       <path id="DejaVuSans-72" d="M 2631 2963 
Q 2534 3019 2420 3045 
Q 2306 3072 2169 3072 
Q 1681 3072 1420 2755 
Q 1159 2438 1159 1844 
L 1159 0 
L 581 0 
L 581 3500 
L 1159 3500 
L 1159 2956 
Q 1341 3275 1631 3429 
Q 1922 3584 2338 3584 
Q 2397 3584 2469 3576 
Q 2541 3569 2628 3553 
L 2631 2963 
z
" transform="scale(0.015625)"/>
       <path id="DejaVuSans-69" d="M 603 3500 
L 1178 3500 
L 1178 0 
L 603 0 
L 603 3500 
z
M 603 4863 
L 1178 4863 
L 1178 4134 
L 603 4134 
L 603 4863 
z
" transform="scale(0.015625)"/>
       <path id="DejaVuSans-6f" d="M 1959 3097 
Q 1497 3097 1228 2736 
Q 959 2375 959 1747 
Q 959 1119 1226 758 
Q 1494 397 1959 397 
Q 2419 397 2687 759 
Q 2956 1122 2956 1747 
Q 2956 2369 2687 2733 
Q 2419 3097 1959 3097 
z
M 1959 3584 
Q 2709 3584 3137 3096 
Q 3566 2609 3566 1747 
Q 3566 888 3137 398 
Q 2709 -91 1959 -91 
Q 1206 -91 779 398 
Q 353 888 353 1747 
Q 353 2609 779 3096 
Q 1206 3584 1959 3584 
z
" transform="scale(0.015625)"/>
       <path id="DejaVuSans-64" d="M 2906 2969 
L 2906 4863 
L 3481 4863 
L 3481 0 
L 2906 0 
L 2906 525 
Q 2725 213 2448 61 
Q 2172 -91 1784 -91 
Q 1150 -91 751 415 
Q 353 922 353 1747 
Q 353 2572 751 3078 
Q 1150 3584 1784 3584 
Q 2172 3584 2448 3432 
Q 2725 3281 2906 2969 
z
M 947 1747 
Q 947 1113 1208 752 
Q 1469 391 1925 391 
Q 2381 391 2643 752 
Q 2906 1113 2906 1747 
Q 2906 2381 2643 2742 
Q 2381 3103 1925 3103 
Q 1469 3103 1208 2742 
Q 947 2381 947 1747 
z
" transform="scale(0.015625)"/>
       <path id="DejaVuSans-2c" d="M 750 794 
L 1409 794 
L 1409 256 
L 897 -744 
L 494 -744 
L 750 256 
L 750 794 
z
" transform="scale(0.015625)"/>
       <path id="DejaVuSans-20" transform="scale(0.015625)"/>
       <path id="DejaVuSans-54" d="M -19 4666 
L 3928 4666 
L 3928 4134 
L 2272 4134 
L 2272 0 
L 1638 0 
L 1638 4134 
L -19 4134 
L -19 4666 
z
" transform="scale(0.015625)"/>
       <path id="DejaVuSans-28" d="M 1984 4856 
Q 1566 4138 1362 3434 
Q 1159 2731 1159 2009 
Q 1159 1288 1364 580 
Q 1569 -128 1984 -844 
L 1484 -844 
Q 1016 -109 783 600 
Q 550 1309 550 2009 
Q 550 2706 781 3412 
Q 1013 4119 1484 4856 
L 1984 4856 
z
" transform="scale(0.015625)"/>
       <path id="DejaVuSans-73" d="M 2834 3397 
L 2834 2853 
Q 2591 2978 2328 3040 
Q 2066 3103 1784 3103 
Q 1356 3103 1142 2972 
Q 928 2841 928 2578 
Q 928 2378 1081 2264 
Q 1234 2150 1697 2047 
L 1894 2003 
Q 2506 1872 2764 1633 
Q 3022 1394 3022 966 
Q 3022 478 2636 193 
Q 2250 -91 1575 -91 
Q 1294 -91 989 -36 
Q 684 19 347 128 
L 347 722 
Q 666 556 975 473 
Q 1284 391 1588 391 
Q 1994 391 2212 530 
Q 2431 669 2431 922 
Q 2431 1156 2273 1281 
Q 2116 1406 1581 1522 
L 1381 1569 
Q 847 1681 609 1914 
Q 372 2147 372 2553 
Q 372 3047 722 3315 
Q 1072 3584 1716 3584 
Q 2034 3584 2315 3537 
Q 2597 3491 2834 3397 
z
" transform="scale(0.015625)"/>
       <path id="DejaVuSans-29" d="M 513 4856 
L 1013 4856 
Q 1481 4119 1714 3412 
Q 1947 2706 1947 2009 
Q 1947 1309 1714 600 
Q 1481 -109 1013 -844 
L 513 -844 
Q 928 -128 1133 580 
Q 1338 1288 1338 2009 
Q 1338 2731 1133 3434 
Q 928 4138 513 4856 
z
" transform="scale(0.015625)"/>
      </defs>
      <use xlink:href="#DejaVuSans-50"/>
      <use xlink:href="#DejaVuSans-65" x="56.677734"/>
      <use xlink:href="#DejaVuSans-72" x="118.201172"/>
      <use xlink:href="#DejaVuSans-69" x="159.314453"/>
      <use xlink:href="#DejaVuSans-6f" x="187.097656"/>
      <use xlink:href="#DejaVuSans-64" x="248.279297"/>
      <use xlink:href="#DejaVuSans-2c" x="311.755859"/>
      <use xlink:href="#DejaVuSans-20" x="343.542969"/>
      <use xlink:href="#DejaVuSans-54" x="375.330078"/>
      <use xlink:href="#DejaVuSans-20" x="436.414062"/>
      <use xlink:href="#DejaVuSans-28" x="468.201172"/>
      <use xlink:href="#DejaVuSans-73" x="507.214844"/>
      <use xlink:href="#DejaVuSans-29" x="559.314453"/>
     </g>
    </g>
   </g>
   <g id="matplotlib.axis_2">
    <g id="ytick_1">
     <g id="line2d_29">
      <path d="M 44.7425 102.914305 
L 242.2745 102.914305 
" clip-path="url(#p7243d0688d)" style="fill: none; stroke: #d9d9d9; stroke-width: 0.8; stroke-linecap: square"/>
     </g>
     <g id="line2d_30">
      <defs>
       <path id="maaa594fe73" d="M 0 0 
L -3.5 0 
" style="stroke: #000000; stroke-width: 0.8"/>
      </defs>
      <g>
       <use xlink:href="#maaa594fe73" x="44.7425" y="102.914305" style="stroke: #000000; stroke-width: 0.8"/>
      </g>
     </g>
     <g id="text_4">
      <!-- $\mathdefault{10^{-1}}$ -->
      <g transform="translate(18.9425 105.95368) scale(0.08 -0.08)">
       <use xlink:href="#DejaVuSans-31" transform="translate(0 0.684375)"/>
       <use xlink:href="#DejaVuSans-30" transform="translate(63.623047 0.684375)"/>
       <use xlink:href="#DejaVuSans-2212" transform="translate(128.203125 38.965625) scale(0.7)"/>
       <use xlink:href="#DejaVuSans-31" transform="translate(186.855469 38.965625) scale(0.7)"/>
      </g>
     </g>
    </g>
    <g id="ytick_2">
     <g id="line2d_31">
      <path d="M 44.7425 34.587591 
L 242.2745 34.587591 
" clip-path="url(#p7243d0688d)" style="fill: none; stroke: #d9d9d9; stroke-width: 0.8; stroke-linecap: square"/>
     </g>
     <g id="line2d_32">
      <g>
       <use xlink:href="#maaa594fe73" x="44.7425" y="34.587591" style="stroke: #000000; stroke-width: 0.8"/>
      </g>
     </g>
     <g id="text_5">
      <!-- $\mathdefault{10^{0}}$ -->
      <g transform="translate(23.6625 37.626966) scale(0.08 -0.08)">
       <use xlink:href="#DejaVuSans-31" transform="translate(0 0.765625)"/>
       <use xlink:href="#DejaVuSans-30" transform="translate(63.623047 0.765625)"/>
       <use xlink:href="#DejaVuSans-30" transform="translate(128.203125 39.046875) scale(0.7)"/>
      </g>
     </g>
    </g>
    <g id="ytick_3">
     <g id="line2d_33">
      <path d="M 44.7425 130.104238 
L 242.2745 130.104238 
" clip-path="url(#p7243d0688d)" style="fill: none; stroke-dasharray: 2.96,1.28; stroke-dashoffset: 0; stroke: #f2f2f2; stroke-width: 0.8"/>
     </g>
     <g id="line2d_34">
      <defs>
       <path id="m25366c2005" d="M 0 0 
L -2 0 
" style="stroke: #000000; stroke-width: 0.6"/>
      </defs>
      <g>
       <use xlink:href="#m25366c2005" x="44.7425" y="130.104238" style="stroke: #000000; stroke-width: 0.6"/>
      </g>
     </g>
    </g>
    <g id="ytick_4">
     <g id="line2d_35">
      <path d="M 44.7425 123.482695 
L 242.2745 123.482695 
" clip-path="url(#p7243d0688d)" style="fill: none; stroke-dasharray: 2.96,1.28; stroke-dashoffset: 0; stroke: #f2f2f2; stroke-width: 0.8"/>
     </g>
     <g id="line2d_36">
      <g>
       <use xlink:href="#m25366c2005" x="44.7425" y="123.482695" style="stroke: #000000; stroke-width: 0.6"/>
      </g>
     </g>
    </g>
    <g id="ytick_5">
     <g id="line2d_37">
      <path d="M 44.7425 118.072501 
L 242.2745 118.072501 
" clip-path="url(#p7243d0688d)" style="fill: none; stroke-dasharray: 2.96,1.28; stroke-dashoffset: 0; stroke: #f2f2f2; stroke-width: 0.8"/>
     </g>
     <g id="line2d_38">
      <g>
       <use xlink:href="#m25366c2005" x="44.7425" y="118.072501" style="stroke: #000000; stroke-width: 0.6"/>
      </g>
     </g>
    </g>
    <g id="ytick_6">
     <g id="line2d_39">
      <path d="M 44.7425 113.498247 
L 242.2745 113.498247 
" clip-path="url(#p7243d0688d)" style="fill: none; stroke-dasharray: 2.96,1.28; stroke-dashoffset: 0; stroke: #f2f2f2; stroke-width: 0.8"/>
     </g>
     <g id="line2d_40">
      <g>
       <use xlink:href="#m25366c2005" x="44.7425" y="113.498247" style="stroke: #000000; stroke-width: 0.6"/>
      </g>
     </g>
    </g>
    <g id="ytick_7">
     <g id="line2d_41">
      <path d="M 44.7425 109.535848 
L 242.2745 109.535848 
" clip-path="url(#p7243d0688d)" style="fill: none; stroke-dasharray: 2.96,1.28; stroke-dashoffset: 0; stroke: #f2f2f2; stroke-width: 0.8"/>
     </g>
     <g id="line2d_42">
      <g>
       <use xlink:href="#m25366c2005" x="44.7425" y="109.535848" style="stroke: #000000; stroke-width: 0.6"/>
      </g>
     </g>
    </g>
    <g id="ytick_8">
     <g id="line2d_43">
      <path d="M 44.7425 106.040764 
L 242.2745 106.040764 
" clip-path="url(#p7243d0688d)" style="fill: none; stroke-dasharray: 2.96,1.28; stroke-dashoffset: 0; stroke: #f2f2f2; stroke-width: 0.8"/>
     </g>
     <g id="line2d_44">
      <g>
       <use xlink:href="#m25366c2005" x="44.7425" y="106.040764" style="stroke: #000000; stroke-width: 0.6"/>
      </g>
     </g>
    </g>
    <g id="ytick_9">
     <g id="line2d_45">
      <path d="M 44.7425 82.345914 
L 242.2745 82.345914 
" clip-path="url(#p7243d0688d)" style="fill: none; stroke-dasharray: 2.96,1.28; stroke-dashoffset: 0; stroke: #f2f2f2; stroke-width: 0.8"/>
     </g>
     <g id="line2d_46">
      <g>
       <use xlink:href="#m25366c2005" x="44.7425" y="82.345914" style="stroke: #000000; stroke-width: 0.6"/>
      </g>
     </g>
    </g>
    <g id="ytick_10">
     <g id="line2d_47">
      <path d="M 44.7425 70.314177 
L 242.2745 70.314177 
" clip-path="url(#p7243d0688d)" style="fill: none; stroke-dasharray: 2.96,1.28; stroke-dashoffset: 0; stroke: #f2f2f2; stroke-width: 0.8"/>
     </g>
     <g id="line2d_48">
      <g>
       <use xlink:href="#m25366c2005" x="44.7425" y="70.314177" style="stroke: #000000; stroke-width: 0.6"/>
      </g>
     </g>
    </g>
    <g id="ytick_11">
     <g id="line2d_49">
      <path d="M 44.7425 61.777524 
L 242.2745 61.777524 
" clip-path="url(#p7243d0688d)" style="fill: none; stroke-dasharray: 2.96,1.28; stroke-dashoffset: 0; stroke: #f2f2f2; stroke-width: 0.8"/>
     </g>
     <g id="line2d_50">
      <g>
       <use xlink:href="#m25366c2005" x="44.7425" y="61.777524" style="stroke: #000000; stroke-width: 0.6"/>
      </g>
     </g>
    </g>
    <g id="ytick_12">
     <g id="line2d_51">
      <path d="M 44.7425 55.155981 
L 242.2745 55.155981 
" clip-path="url(#p7243d0688d)" style="fill: none; stroke-dasharray: 2.96,1.28; stroke-dashoffset: 0; stroke: #f2f2f2; stroke-width: 0.8"/>
     </g>
     <g id="line2d_52">
      <g>
       <use xlink:href="#m25366c2005" x="44.7425" y="55.155981" style="stroke: #000000; stroke-width: 0.6"/>
      </g>
     </g>
    </g>
    <g id="ytick_13">
     <g id="line2d_53">
      <path d="M 44.7425 49.745787 
L 242.2745 49.745787 
" clip-path="url(#p7243d0688d)" style="fill: none; stroke-dasharray: 2.96,1.28; stroke-dashoffset: 0; stroke: #f2f2f2; stroke-width: 0.8"/>
     </g>
     <g id="line2d_54">
      <g>
       <use xlink:href="#m25366c2005" x="44.7425" y="49.745787" style="stroke: #000000; stroke-width: 0.6"/>
      </g>
     </g>
    </g>
    <g id="ytick_14">
     <g id="line2d_55">
      <path d="M 44.7425 45.171533 
L 242.2745 45.171533 
" clip-path="url(#p7243d0688d)" style="fill: none; stroke-dasharray: 2.96,1.28; stroke-dashoffset: 0; stroke: #f2f2f2; stroke-width: 0.8"/>
     </g>
     <g id="line2d_56">
      <g>
       <use xlink:href="#m25366c2005" x="44.7425" y="45.171533" style="stroke: #000000; stroke-width: 0.6"/>
      </g>
     </g>
    </g>
    <g id="ytick_15">
     <g id="line2d_57">
      <path d="M 44.7425 41.209134 
L 242.2745 41.209134 
" clip-path="url(#p7243d0688d)" style="fill: none; stroke-dasharray: 2.96,1.28; stroke-dashoffset: 0; stroke: #f2f2f2; stroke-width: 0.8"/>
     </g>
     <g id="line2d_58">
      <g>
       <use xlink:href="#m25366c2005" x="44.7425" y="41.209134" style="stroke: #000000; stroke-width: 0.6"/>
      </g>
     </g>
    </g>
    <g id="ytick_16">
     <g id="line2d_59">
      <path d="M 44.7425 37.71405 
L 242.2745 37.71405 
" clip-path="url(#p7243d0688d)" style="fill: none; stroke-dasharray: 2.96,1.28; stroke-dashoffset: 0; stroke: #f2f2f2; stroke-width: 0.8"/>
     </g>
     <g id="line2d_60">
      <g>
       <use xlink:href="#m25366c2005" x="44.7425" y="37.71405" style="stroke: #000000; stroke-width: 0.6"/>
      </g>
     </g>
    </g>
    <g id="ytick_17">
     <g id="line2d_61">
      <path d="M 44.7425 14.0192 
L 242.2745 14.0192 
" clip-path="url(#p7243d0688d)" style="fill: none; stroke-dasharray: 2.96,1.28; stroke-dashoffset: 0; stroke: #f2f2f2; stroke-width: 0.8"/>
     </g>
     <g id="line2d_62">
      <g>
       <use xlink:href="#m25366c2005" x="44.7425" y="14.0192" style="stroke: #000000; stroke-width: 0.6"/>
      </g>
     </g>
    </g>
    <g id="text_6">
     <!-- Spectral acceleration, SA (g) -->
     <g transform="translate(13.27875 129.871075) rotate(-90) scale(0.08 -0.08)">
      <defs>
       <path id="DejaVuSans-53" d="M 3425 4513 
L 3425 3897 
Q 3066 4069 2747 4153 
Q 2428 4238 2131 4238 
Q 1616 4238 1336 4038 
Q 1056 3838 1056 3469 
Q 1056 3159 1242 3001 
Q 1428 2844 1947 2747 
L 2328 2669 
Q 3034 2534 3370 2195 
Q 3706 1856 3706 1288 
Q 3706 609 3251 259 
Q 2797 -91 1919 -91 
Q 1588 -91 1214 -16 
Q 841 59 441 206 
L 441 856 
Q 825 641 1194 531 
Q 1563 422 1919 422 
Q 2459 422 2753 634 
Q 3047 847 3047 1241 
Q 3047 1584 2836 1778 
Q 2625 1972 2144 2069 
L 1759 2144 
Q 1053 2284 737 2584 
Q 422 2884 422 3419 
Q 422 4038 858 4394 
Q 1294 4750 2059 4750 
Q 2388 4750 2728 4690 
Q 3069 4631 3425 4513 
z
" transform="scale(0.015625)"/>
       <path id="DejaVuSans-70" d="M 1159 525 
L 1159 -1331 
L 581 -1331 
L 581 3500 
L 1159 3500 
L 1159 2969 
Q 1341 3281 1617 3432 
Q 1894 3584 2278 3584 
Q 2916 3584 3314 3078 
Q 3713 2572 3713 1747 
Q 3713 922 3314 415 
Q 2916 -91 2278 -91 
Q 1894 -91 1617 61 
Q 1341 213 1159 525 
z
M 3116 1747 
Q 3116 2381 2855 2742 
Q 2594 3103 2138 3103 
Q 1681 3103 1420 2742 
Q 1159 2381 1159 1747 
Q 1159 1113 1420 752 
Q 1681 391 2138 391 
Q 2594 391 2855 752 
Q 3116 1113 3116 1747 
z
" transform="scale(0.015625)"/>
       <path id="DejaVuSans-63" d="M 3122 3366 
L 3122 2828 
Q 2878 2963 2633 3030 
Q 2388 3097 2138 3097 
Q 1578 3097 1268 2742 
Q 959 2388 959 1747 
Q 959 1106 1268 751 
Q 1578 397 2138 397 
Q 2388 397 2633 464 
Q 2878 531 3122 666 
L 3122 134 
Q 2881 22 2623 -34 
Q 2366 -91 2075 -91 
Q 1284 -91 818 406 
Q 353 903 353 1747 
Q 353 2603 823 3093 
Q 1294 3584 2113 3584 
Q 2378 3584 2631 3529 
Q 2884 3475 3122 3366 
z
" transform="scale(0.015625)"/>
       <path id="DejaVuSans-74" d="M 1172 4494 
L 1172 3500 
L 2356 3500 
L 2356 3053 
L 1172 3053 
L 1172 1153 
Q 1172 725 1289 603 
Q 1406 481 1766 481 
L 2356 481 
L 2356 0 
L 1766 0 
Q 1100 0 847 248 
Q 594 497 594 1153 
L 594 3053 
L 172 3053 
L 172 3500 
L 594 3500 
L 594 4494 
L 1172 4494 
z
" transform="scale(0.015625)"/>
       <path id="DejaVuSans-61" d="M 2194 1759 
Q 1497 1759 1228 1600 
Q 959 1441 959 1056 
Q 959 750 1161 570 
Q 1363 391 1709 391 
Q 2188 391 2477 730 
Q 2766 1069 2766 1631 
L 2766 1759 
L 2194 1759 
z
M 3341 1997 
L 3341 0 
L 2766 0 
L 2766 531 
Q 2569 213 2275 61 
Q 1981 -91 1556 -91 
Q 1019 -91 701 211 
Q 384 513 384 1019 
Q 384 1609 779 1909 
Q 1175 2209 1959 2209 
L 2766 2209 
L 2766 2266 
Q 2766 2663 2505 2880 
Q 2244 3097 1772 3097 
Q 1472 3097 1187 3025 
Q 903 2953 641 2809 
L 641 3341 
Q 956 3463 1253 3523 
Q 1550 3584 1831 3584 
Q 2591 3584 2966 3190 
Q 3341 2797 3341 1997 
z
" transform="scale(0.015625)"/>
       <path id="DejaVuSans-6c" d="M 603 4863 
L 1178 4863 
L 1178 0 
L 603 0 
L 603 4863 
z
" transform="scale(0.015625)"/>
       <path id="DejaVuSans-6e" d="M 3513 2113 
L 3513 0 
L 2938 0 
L 2938 2094 
Q 2938 2591 2744 2837 
Q 2550 3084 2163 3084 
Q 1697 3084 1428 2787 
Q 1159 2491 1159 1978 
L 1159 0 
L 581 0 
L 581 3500 
L 1159 3500 
L 1159 2956 
Q 1366 3272 1645 3428 
Q 1925 3584 2291 3584 
Q 2894 3584 3203 3211 
Q 3513 2838 3513 2113 
z
" transform="scale(0.015625)"/>
       <path id="DejaVuSans-41" d="M 2188 4044 
L 1331 1722 
L 3047 1722 
L 2188 4044 
z
M 1831 4666 
L 2547 4666 
L 4325 0 
L 3669 0 
L 3244 1197 
L 1141 1197 
L 716 0 
L 50 0 
L 1831 4666 
z
" transform="scale(0.015625)"/>
       <path id="DejaVuSans-67" d="M 2906 1791 
Q 2906 2416 2648 2759 
Q 2391 3103 1925 3103 
Q 1463 3103 1205 2759 
Q 947 2416 947 1791 
Q 947 1169 1205 825 
Q 1463 481 1925 481 
Q 2391 481 2648 825 
Q 2906 1169 2906 1791 
z
M 3481 434 
Q 3481 -459 3084 -895 
Q 2688 -1331 1869 -1331 
Q 1566 -1331 1297 -1286 
Q 1028 -1241 775 -1147 
L 775 -588 
Q 1028 -725 1275 -790 
Q 1522 -856 1778 -856 
Q 2344 -856 2625 -561 
Q 2906 -266 2906 331 
L 2906 616 
Q 2728 306 2450 153 
Q 2172 0 1784 0 
Q 1141 0 747 490 
Q 353 981 353 1791 
Q 353 2603 747 3093 
Q 1141 3584 1784 3584 
Q 2172 3584 2450 3431 
Q 2728 3278 2906 2969 
L 2906 3500 
L 3481 3500 
L 3481 434 
z
" transform="scale(0.015625)"/>
      </defs>
      <use xlink:href="#DejaVuSans-53"/>
      <use xlink:href="#DejaVuSans-70" x="63.476562"/>
      <use xlink:href="#DejaVuSans-65" x="126.953125"/>
      <use xlink:href="#DejaVuSans-63" x="188.476562"/>
      <use xlink:href="#DejaVuSans-74" x="243.457031"/>
      <use xlink:href="#DejaVuSans-72" x="282.666016"/>
      <use xlink:href="#DejaVuSans-61" x="323.779297"/>
      <use xlink:href="#DejaVuSans-6c" x="385.058594"/>
      <use xlink:href="#DejaVuSans-20" x="412.841797"/>
      <use xlink:href="#DejaVuSans-61" x="444.628906"/>
      <use xlink:href="#DejaVuSans-63" x="505.908203"/>
      <use xlink:href="#DejaVuSans-63" x="560.888672"/>
      <use xlink:href="#DejaVuSans-65" x="615.869141"/>
      <use xlink:href="#DejaVuSans-6c" x="677.392578"/>
      <use xlink:href="#DejaVuSans-65" x="705.175781"/>
      <use xlink:href="#DejaVuSans-72" x="766.699219"/>
      <use xlink:href="#DejaVuSans-61" x="807.8125"/>
      <use xlink:href="#DejaVuSans-74" x="869.091797"/>
      <use xlink:href="#DejaVuSans-69" x="908.300781"/>
      <use xlink:href="#DejaVuSans-6f" x="936.083984"/>
      <use xlink:href="#DejaVuSans-6e" x="997.265625"/>
      <use xlink:href="#DejaVuSans-2c" x="1060.644531"/>
      <use xlink:href="#DejaVuSans-20" x="1092.431641"/>
      <use xlink:href="#DejaVuSans-53" x="1124.21875"/>
      <use xlink:href="#DejaVuSans-41" x="1189.570312"/>
      <use xlink:href="#DejaVuSans-20" x="1257.978516"/>
      <use xlink:href="#DejaVuSans-28" x="1289.765625"/>
      <use xlink:href="#DejaVuSans-67" x="1328.779297"/>
      <use xlink:href="#DejaVuSans-29" x="1392.255859"/>
     </g>
    </g>
   </g>
   <g id="line2d_63">
    <path d="M 53.721227 13.1472 
L 73.459257 22.236129 
L 87.463612 30.619722 
L 98.326234 38.245528 
L 107.201642 42.168716 
L 121.205997 52.741524 
L 129.979883 59.631487 
L 132.068618 61.541701 
L 151.806648 64.286275 
L 165.811003 70.655647 
L 178.582888 76.428766 
L 185.549033 79.84786 
L 199.553388 85.955618 
L 219.291418 105.341971 
L 233.295773 123.572086 
" clip-path="url(#p7243d0688d)" style="fill: none; stroke: #b2b2b2; stroke-width: 0.8; stroke-linecap: square"/>
   </g>
   <g id="line2d_64">
    <path d="M 53.721227 71.562888 
L 73.459257 70.60516 
L 87.463612 69.009632 
L 98.326234 65.411982 
L 107.201642 64.931097 
L 121.205997 62.221314 
L 129.979883 59.631487 
L 132.068618 58.826854 
L 151.806648 56.282343 
L 165.811003 62.297969 
L 178.582888 68.467732 
L 185.549033 71.483508 
L 199.553388 78.555653 
L 219.291418 91.103773 
L 233.295773 105.805722 
" clip-path="url(#p7243d0688d)" style="fill: none; stroke: #b2b2b2; stroke-width: 0.8; stroke-linecap: square"/>
   </g>
   <g id="line2d_65">
    <path d="M 53.721227 49.853048 
L 73.459257 47.955037 
L 87.463612 45.377119 
L 98.326234 47.580914 
L 107.201642 49.848346 
L 121.205997 55.758476 
L 129.979883 59.631487 
L 132.068618 59.396467 
L 151.806648 63.193236 
L 165.811003 66.774543 
L 178.582888 73.070191 
L 185.549033 72.794191 
L 199.553388 79.211997 
L 219.291418 88.563806 
L 233.295773 96.674525 
" clip-path="url(#p7243d0688d)" style="fill: none; stroke: #b2b2b2; stroke-width: 0.8; stroke-linecap: square"/>
   </g>
   <g id="line2d_66">
    <path d="M 53.721227 75.486149 
L 73.459257 71.166916 
L 87.463612 70.51575 
L 98.326234 69.000316 
L 107.201642 65.656319 
L 121.205997 62.57446 
L 129.979883 59.631487 
L 132.068618 58.260533 
L 151.806648 55.77459 
L 165.811003 59.684868 
L 178.582888 62.849362 
L 185.549033 64.649758 
L 199.553388 72.419296 
L 219.291418 83.567069 
L 233.295773 94.971694 
" clip-path="url(#p7243d0688d)" style="fill: none; stroke: #b2b2b2; stroke-width: 0.8; stroke-linecap: square"/>
   </g>
   <g id="line2d_67">
    <path d="M 53.721227 62.315199 
L 73.459257 63.958377 
L 87.463612 64.390063 
L 98.326234 63.556018 
L 107.201642 64.127543 
L 121.205997 61.780402 
L 129.979883 59.631487 
L 132.068618 61.239652 
L 151.806648 63.485476 
L 165.811003 65.936893 
L 178.582888 71.195078 
L 185.549033 73.318225 
L 199.553388 77.438363 
L 219.291418 82.261111 
L 233.295773 84.622958 
" clip-path="url(#p7243d0688d)" style="fill: none; stroke: #b2b2b2; stroke-width: 0.8; stroke-linecap: square"/>
   </g>
   <g id="line2d_68">
    <path d="M 53.721227 52.502438 
L 73.459257 52.515222 
L 87.463612 52.688394 
L 98.326234 53.435429 
L 107.201642 55.021491 
L 121.205997 59.276953 
L 129.979883 59.631487 
L 132.068618 59.511781 
L 151.806648 58.971916 
L 165.811003 59.722283 
L 178.582888 60.663284 
L 185.549033 60.747519 
L 199.553388 62.493027 
L 219.291418 74.060493 
L 233.295773 89.481273 
" clip-path="url(#p7243d0688d)" style="fill: none; stroke: #b2b2b2; stroke-width: 0.8; stroke-linecap: square"/>
   </g>
   <g id="line2d_69">
    <path d="M 53.721227 69.526897 
L 73.459257 65.404982 
L 87.463612 66.827281 
L 98.326234 65.966786 
L 107.201642 66.387722 
L 121.205997 62.345414 
L 129.979883 59.631487 
L 132.068618 59.975735 
L 151.806648 58.114946 
L 165.811003 60.56421 
L 178.582888 66.501276 
L 185.549033 73.378845 
L 199.553388 81.336834 
L 219.291418 97.123975 
L 233.295773 113.44561 
" clip-path="url(#p7243d0688d)" style="fill: none; stroke: #b2b2b2; stroke-width: 0.8; stroke-linecap: square"/>
   </g>
   <g id="line2d_70">
    <path d="M 53.721227 54.380598 
L 73.459257 50.969518 
L 87.463612 46.917125 
L 98.326234 47.22867 
L 107.201642 48.756427 
L 121.205997 57.412886 
L 129.979883 59.631487 
L 132.068618 60.284421 
L 151.806648 65.637195 
L 165.811003 67.64487 
L 178.582888 70.877694 
L 185.549033 72.240032 
L 199.553388 79.73322 
L 219.291418 96.855137 
L 233.295773 113.234954 
" clip-path="url(#p7243d0688d)" style="fill: none; stroke: #b2b2b2; stroke-width: 0.8; stroke-linecap: square"/>
   </g>
   <g id="line2d_71">
    <path d="M 53.721227 58.385627 
L 73.459257 53.873605 
L 87.463612 55.262377 
L 98.326234 56.485361 
L 107.201642 56.528785 
L 121.205997 58.43531 
L 129.979883 59.631487 
L 132.068618 60.469312 
L 151.806648 60.530333 
L 165.811003 61.072166 
L 178.582888 62.088451 
L 185.549033 65.12177 
L 199.553388 68.076172 
L 219.291418 82.722589 
L 233.295773 88.014228 
" clip-path="url(#p7243d0688d)" style="fill: none; stroke: #b2b2b2; stroke-width: 0.8; stroke-linecap: square"/>
   </g>
   <g id="line2d_72">
    <path d="M 53.721227 57.859154 
L 73.459257 58.386622 
L 87.463612 59.952887 
L 98.326234 61.255618 
L 107.201642 59.891348 
L 121.205997 59.397466 
L 129.979883 59.631487 
L 132.068618 59.993469 
L 151.806648 62.566794 
L 165.811003 66.513724 
L 178.582888 74.69972 
L 185.549033 79.598931 
L 199.553388 89.987154 
L 219.291418 102.412582 
L 233.295773 112.601303 
" clip-path="url(#p7243d0688d)" style="fill: none; stroke: #b2b2b2; stroke-width: 0.8; stroke-linecap: square"/>
   </g>
   <g id="line2d_73">
    <path d="M 53.721227 58.377767 
L 73.459257 57.900579 
L 87.463612 58.640887 
L 98.326234 60.848043 
L 107.201642 60.154672 
L 121.205997 61.24893 
L 129.979883 59.631487 
L 132.068618 59.9239 
L 151.806648 59.382969 
L 165.811003 61.834156 
L 178.582888 66.555455 
L 185.549033 70.520302 
L 199.553388 74.54453 
L 219.291418 80.05453 
L 233.295773 90.233656 
" clip-path="url(#p7243d0688d)" style="fill: none; stroke: #b2b2b2; stroke-width: 0.8; stroke-linecap: square"/>
   </g>
   <g id="line2d_74">
    <path d="M 53.721227 55.820057 
L 73.459257 52.664418 
L 87.463612 52.258525 
L 98.326234 52.55527 
L 107.201642 54.860628 
L 121.205997 58.422942 
L 129.979883 59.631487 
L 132.068618 59.277682 
L 151.806648 64.911915 
L 165.811003 70.111801 
L 178.582888 73.734813 
L 185.549033 75.332722 
L 199.553388 81.422921 
L 219.291418 89.911325 
L 233.295773 101.228766 
" clip-path="url(#p7243d0688d)" style="fill: none; stroke: #b2b2b2; stroke-width: 0.8; stroke-linecap: square"/>
   </g>
   <g id="line2d_75">
    <path d="M 53.721227 54.276498 
L 73.459257 51.225321 
L 87.463612 50.826576 
L 98.326234 53.314758 
L 107.201642 54.438129 
L 121.205997 58.317787 
L 129.979883 59.631487 
L 132.068618 60.049878 
L 151.806648 62.07901 
L 165.811003 65.517018 
L 178.582888 69.431274 
L 185.549033 67.340301 
L 199.553388 70.677119 
L 219.291418 84.073305 
L 233.295773 99.197584 
" clip-path="url(#p7243d0688d)" style="fill: none; stroke: #b2b2b2; stroke-width: 0.8; stroke-linecap: square"/>
   </g>
   <g id="line2d_76">
    <path d="M 53.721227 62.793502 
L 73.459257 62.22295 
L 87.463612 60.121903 
L 98.326234 57.230805 
L 107.201642 58.151891 
L 121.205997 59.155095 
L 129.979883 59.631487 
L 132.068618 60.562829 
L 151.806648 63.441739 
L 165.811003 65.741085 
L 178.582888 66.790376 
L 185.549033 71.726258 
L 199.553388 77.045939 
L 219.291418 84.649984 
L 233.295773 92.683653 
" clip-path="url(#p7243d0688d)" style="fill: none; stroke: #b2b2b2; stroke-width: 0.8; stroke-linecap: square"/>
   </g>
   <g id="line2d_77">
    <path d="M 53.721227 43.580607 
L 73.459257 38.37493 
L 87.463612 39.547125 
L 98.326234 44.216538 
L 107.201642 48.843652 
L 121.205997 55.456972 
L 129.979883 59.631487 
L 132.068618 60.646961 
L 151.806648 70.28283 
L 165.811003 73.463622 
L 178.582888 77.07504 
L 185.549033 80.741374 
L 199.553388 83.923052 
L 219.291418 93.279112 
L 233.295773 102.423309 
" clip-path="url(#p7243d0688d)" style="fill: none; stroke: #b2b2b2; stroke-width: 0.8; stroke-linecap: square"/>
   </g>
   <g id="line2d_78">
    <path d="M 53.721227 71.403047 
L 73.459257 69.492087 
L 87.463612 67.511298 
L 98.326234 66.426852 
L 107.201642 63.968804 
L 121.205997 59.246302 
L 129.979883 59.631487 
L 132.068618 60.361194 
L 151.806648 59.195182 
L 165.811003 57.936163 
L 178.582888 61.679849 
L 185.549033 66.95569 
L 199.553388 75.842547 
L 219.291418 83.704524 
L 233.295773 94.637632 
" clip-path="url(#p7243d0688d)" style="fill: none; stroke: #b2b2b2; stroke-width: 0.8; stroke-linecap: square"/>
   </g>
   <g id="line2d_79">
    <path d="M 53.721227 63.041135 
L 73.459257 62.338515 
L 87.463612 62.466035 
L 98.326234 62.209352 
L 107.201642 62.094535 
L 121.205997 60.118126 
L 129.979883 59.631487 
L 132.068618 59.465273 
L 151.806648 56.444904 
L 165.811003 56.308609 
L 178.582888 56.384653 
L 185.549033 57.585778 
L 199.553388 64.593067 
L 219.291418 71.838428 
L 233.295773 80.725702 
" clip-path="url(#p7243d0688d)" style="fill: none; stroke: #b2b2b2; stroke-width: 0.8; stroke-linecap: square"/>
   </g>
   <g id="line2d_80">
    <path d="M 53.721227 61.777688 
L 73.459257 61.287986 
L 87.463612 59.389465 
L 98.326234 58.885441 
L 107.201642 59.097115 
L 121.205997 59.97587 
L 129.979883 59.631487 
L 132.068618 58.400854 
L 151.806648 61.205981 
L 165.811003 61.640859 
L 178.582888 67.476646 
L 185.549033 69.572015 
L 199.553388 77.638741 
L 219.291418 95.984278 
L 233.295773 110.931657 
" clip-path="url(#p7243d0688d)" style="fill: none; stroke: #b2b2b2; stroke-width: 0.8; stroke-linecap: square"/>
   </g>
   <g id="line2d_81">
    <path d="M 53.721227 63.078187 
L 73.459257 60.579736 
L 87.463612 57.093671 
L 98.326234 60.046653 
L 107.201642 60.608094 
L 121.205997 58.922204 
L 129.979883 59.631487 
L 132.068618 58.788755 
L 151.806648 66.694435 
L 165.811003 68.195137 
L 178.582888 73.916844 
L 185.549033 79.380282 
L 199.553388 91.460979 
L 219.291418 107.666312 
L 233.295773 117.986388 
" clip-path="url(#p7243d0688d)" style="fill: none; stroke: #b2b2b2; stroke-width: 0.8; stroke-linecap: square"/>
   </g>
   <g id="line2d_82">
    <path d="M 53.721227 55.892297 
L 73.459257 52.881966 
L 87.463612 53.554224 
L 98.326234 55.380944 
L 107.201642 57.906632 
L 121.205997 57.974068 
L 129.979883 59.631487 
L 132.068618 62.398462 
L 151.806648 69.862028 
L 165.811003 75.965788 
L 178.582888 82.344276 
L 185.549033 86.517398 
L 199.553388 94.769433 
L 219.291418 107.539077 
L 233.295773 119.050234 
" clip-path="url(#p7243d0688d)" style="fill: none; stroke: #b2b2b2; stroke-width: 0.8; stroke-linecap: square"/>
   </g>
   <g id="line2d_83">
    <path d="M 53.721227 42.177684 
L 73.459257 42.133921 
L 87.463612 45.330527 
L 98.326234 48.315244 
L 107.201642 50.492213 
L 121.205997 56.325608 
L 129.979883 59.631487 
L 132.068618 59.605417 
L 151.806648 68.6926 
L 165.811003 75.17011 
L 178.582888 81.438548 
L 185.549033 87.606873 
L 199.553388 99.681329 
L 219.291418 113.313078 
L 233.295773 126.77745 
" clip-path="url(#p7243d0688d)" style="fill: none; stroke: #b2b2b2; stroke-width: 0.8; stroke-linecap: square"/>
   </g>
   <g id="line2d_84">
    <path d="M 53.721227 72.972124 
L 73.459257 67.964015 
L 87.463612 63.286437 
L 98.326234 63.985353 
L 107.201642 62.078391 
L 121.205997 59.314748 
L 129.979883 59.631487 
L 132.068618 59.80514 
L 151.806648 62.352759 
L 165.811003 63.706553 
L 178.582888 67.130186 
L 185.549033 68.550516 
L 199.553388 73.640257 
L 219.291418 91.182453 
L 233.295773 104.911465 
" clip-path="url(#p7243d0688d)" style="fill: none; stroke: #b2b2b2; stroke-width: 0.8; stroke-linecap: square"/>
   </g>
   <g id="line2d_85">
    <path d="M 53.721227 58.478291 
L 73.459257 61.804275 
L 87.463612 60.28614 
L 98.326234 59.95531 
L 107.201642 57.230574 
L 121.205997 57.698397 
L 129.979883 59.631487 
L 132.068618 58.784864 
L 151.806648 66.627408 
L 165.811003 72.060846 
L 178.582888 75.763916 
L 185.549033 80.339846 
L 199.553388 86.649406 
L 219.291418 100.336814 
L 233.295773 114.627338 
" clip-path="url(#p7243d0688d)" style="fill: none; stroke: #b2b2b2; stroke-width: 0.8; stroke-linecap: square"/>
   </g>
   <g id="line2d_86">
    <path d="M 53.721227 67.355973 
L 73.459257 62.427003 
L 87.463612 59.443281 
L 98.326234 55.969736 
L 107.201642 55.38093 
L 121.205997 59.202054 
L 129.979883 59.631487 
L 132.068618 60.974069 
L 151.806648 61.143884 
L 165.811003 62.968633 
L 178.582888 67.564197 
L 185.549033 70.266322 
L 199.553388 74.15972 
L 219.291418 85.008245 
L 233.295773 99.569271 
" clip-path="url(#p7243d0688d)" style="fill: none; stroke: #b2b2b2; stroke-width: 0.8; stroke-linecap: square"/>
   </g>
   <g id="line2d_87">
    <path d="M 53.721227 43.021887 
L 73.459257 44.19517 
L 87.463612 46.475114 
L 98.326234 48.997801 
L 107.201642 50.52759 
L 121.205997 55.675138 
L 129.979883 59.631487 
L 132.068618 60.384947 
L 151.806648 72.885407 
L 165.811003 79.806881 
L 178.582888 82.693218 
L 185.549033 87.872767 
L 199.553388 95.710831 
L 219.291418 105.473567 
L 233.295773 117.193755 
" clip-path="url(#p7243d0688d)" style="fill: none; stroke: #b2b2b2; stroke-width: 0.8; stroke-linecap: square"/>
   </g>
   <g id="line2d_88">
    <path d="M 53.721227 66.733394 
L 73.459257 61.5067 
L 87.463612 60.268962 
L 98.326234 58.697256 
L 107.201642 59.004726 
L 121.205997 59.115575 
L 129.979883 59.631487 
L 132.068618 59.27096 
L 151.806648 65.783669 
L 165.811003 69.837578 
L 178.582888 72.126643 
L 185.549033 73.150964 
L 199.553388 80.652344 
L 219.291418 97.250497 
L 233.295773 111.421633 
" clip-path="url(#p7243d0688d)" style="fill: none; stroke: #b2b2b2; stroke-width: 0.8; stroke-linecap: square"/>
   </g>
   <g id="line2d_89">
    <path d="M 53.721227 69.601496 
L 73.459257 61.950187 
L 87.463612 59.885677 
L 98.326234 56.608308 
L 107.201642 55.586426 
L 121.205997 57.784554 
L 129.979883 59.631487 
L 132.068618 59.836715 
L 151.806648 71.235391 
L 165.811003 77.202342 
L 178.582888 84.463799 
L 185.549033 84.725486 
L 199.553388 94.285912 
L 219.291418 106.789042 
L 233.295773 122.079141 
" clip-path="url(#p7243d0688d)" style="fill: none; stroke: #b2b2b2; stroke-width: 0.8; stroke-linecap: square"/>
   </g>
   <g id="line2d_90">
    <path d="M 53.721227 48.574202 
L 73.459257 40.155869 
L 87.463612 40.505458 
L 98.326234 43.080057 
L 107.201642 49.067453 
L 121.205997 55.714119 
L 129.979883 59.631487 
L 132.068618 61.303028 
L 151.806648 70.931145 
L 165.811003 79.866621 
L 178.582888 84.849526 
L 185.549033 88.955646 
L 199.553388 99.493936 
L 219.291418 111.193389 
L 233.295773 119.59546 
" clip-path="url(#p7243d0688d)" style="fill: none; stroke: #b2b2b2; stroke-width: 0.8; stroke-linecap: square"/>
   </g>
   <g id="line2d_91">
    <path d="M 53.721227 74.248977 
L 73.459257 69.065158 
L 87.463612 65.103292 
L 98.326234 63.381247 
L 107.201642 61.391508 
L 121.205997 59.924802 
L 129.979883 59.631487 
L 132.068618 60.864412 
L 151.806648 62.941491 
L 165.811003 66.33296 
L 178.582888 71.41115 
L 185.549033 70.360278 
L 199.553388 72.979229 
L 219.291418 80.214916 
L 233.295773 93.316105 
" clip-path="url(#p7243d0688d)" style="fill: none; stroke: #b2b2b2; stroke-width: 0.8; stroke-linecap: square"/>
   </g>
   <g id="line2d_92">
    <path d="M 53.721227 63.033323 
L 73.459257 55.988457 
L 87.463612 53.435094 
L 98.326234 55.563604 
L 107.201642 57.228399 
L 121.205997 58.293713 
L 129.979883 59.631487 
L 132.068618 59.4945 
L 151.806648 60.931623 
L 165.811003 62.899067 
L 178.582888 63.994909 
L 185.549033 67.686007 
L 199.553388 72.263785 
L 219.291418 77.559108 
L 233.295773 85.586207 
" clip-path="url(#p7243d0688d)" style="fill: none; stroke: #b2b2b2; stroke-width: 0.8; stroke-linecap: square"/>
   </g>
   <g id="line2d_93">
    <path d="M 53.721227 69.968985 
L 73.459257 66.610036 
L 87.463612 65.258634 
L 98.326234 64.396796 
L 107.201642 64.38949 
L 121.205997 61.799729 
L 129.979883 59.631487 
L 132.068618 58.834651 
L 151.806648 55.231526 
L 165.811003 54.461266 
L 178.582888 57.366538 
L 185.549033 60.418412 
L 199.553388 69.033724 
L 219.291418 81.226307 
L 233.295773 85.436761 
" clip-path="url(#p7243d0688d)" style="fill: none; stroke: #b2b2b2; stroke-width: 0.8; stroke-linecap: square"/>
   </g>
   <g id="line2d_94">
    <path d="M 53.721227 56.906082 
L 73.459257 53.946348 
L 87.463612 53.222676 
L 98.326234 56.058967 
L 107.201642 57.391779 
L 121.205997 57.035172 
L 129.979883 59.631487 
L 132.068618 58.888651 
L 151.806648 62.474456 
L 165.811003 67.249896 
L 178.582888 77.601155 
L 185.549033 83.519357 
L 199.553388 98.314763 
L 219.291418 109.039154 
L 233.295773 121.224086 
" clip-path="url(#p7243d0688d)" style="fill: none; stroke: #b2b2b2; stroke-width: 0.8; stroke-linecap: square"/>
   </g>
   <g id="line2d_95">
    <path d="M 53.721227 43.691128 
L 73.459257 45.169019 
L 87.463612 44.105701 
L 98.326234 47.331644 
L 107.201642 47.33972 
L 121.205997 52.113542 
L 129.979883 59.631487 
L 132.068618 62.04264 
L 151.806648 76.022944 
L 165.811003 83.978991 
L 178.582888 91.852414 
L 185.549033 96.259129 
L 199.553388 101.192147 
L 219.291418 114.580552 
L 233.295773 128.469102 
" clip-path="url(#p7243d0688d)" style="fill: none; stroke: #b2b2b2; stroke-width: 0.8; stroke-linecap: square"/>
   </g>
   <g id="line2d_96">
    <path d="M 53.721227 48.718596 
L 73.459257 46.170607 
L 87.463612 48.730939 
L 98.326234 51.590133 
L 107.201642 54.24609 
L 121.205997 55.815304 
L 129.979883 59.631487 
L 132.068618 59.708288 
L 151.806648 71.187159 
L 165.811003 79.661 
L 178.582888 87.086151 
L 185.549033 93.208252 
L 199.553388 99.276084 
L 219.291418 112.714453 
L 233.295773 119.627327 
" clip-path="url(#p7243d0688d)" style="fill: none; stroke: #b2b2b2; stroke-width: 0.8; stroke-linecap: square"/>
   </g>
   <g id="line2d_97">
    <path d="M 53.721227 74.523394 
L 73.459257 69.177527 
L 87.463612 64.049434 
L 98.326234 62.279765 
L 107.201642 59.751322 
L 121.205997 59.704998 
L 129.979883 59.631487 
L 132.068618 59.301943 
L 151.806648 60.949269 
L 165.811003 64.244193 
L 178.582888 68.972117 
L 185.549033 71.983375 
L 199.553388 85.925622 
L 219.291418 106.298402 
L 233.295773 119.065325 
" clip-path="url(#p7243d0688d)" style="fill: none; stroke: #b2b2b2; stroke-width: 0.8; stroke-linecap: square"/>
   </g>
   <g id="line2d_98">
    <path d="M 53.721227 57.130634 
L 73.459257 53.131552 
L 87.463612 52.445089 
L 98.326234 51.319442 
L 107.201642 54.56343 
L 121.205997 57.533386 
L 129.979883 59.631487 
L 132.068618 59.952267 
L 151.806648 66.129639 
L 165.811003 72.218332 
L 178.582888 77.147612 
L 185.549033 76.991003 
L 199.553388 84.07714 
L 219.291418 96.936783 
L 233.295773 111.45317 
" clip-path="url(#p7243d0688d)" style="fill: none; stroke: #b2b2b2; stroke-width: 0.8; stroke-linecap: square"/>
   </g>
   <g id="line2d_99">
    <path d="M 53.721227 62.885857 
L 73.459257 58.165972 
L 87.463612 53.438264 
L 98.326234 52.6883 
L 107.201642 54.726766 
L 121.205997 57.730061 
L 129.979883 59.631487 
L 132.068618 60.4047 
L 151.806648 63.875157 
L 165.811003 68.162777 
L 178.582888 75.424441 
L 185.549033 79.268912 
L 199.553388 83.01918 
L 219.291418 85.759682 
L 233.295773 92.792253 
" clip-path="url(#p7243d0688d)" style="fill: none; stroke: #b2b2b2; stroke-width: 0.8; stroke-linecap: square"/>
   </g>
   <g id="line2d_100">
    <path d="M 53.721227 59.094509 
L 73.459257 59.583021 
L 87.463612 57.6159 
L 98.326234 57.195845 
L 107.201642 56.700094 
L 121.205997 58.664974 
L 129.979883 59.631487 
L 132.068618 61.039881 
L 151.806648 69.162913 
L 165.811003 75.028058 
L 178.582888 84.826323 
L 185.549033 88.903764 
L 199.553388 97.060192 
L 219.291418 112.136239 
L 233.295773 122.662273 
" clip-path="url(#p7243d0688d)" style="fill: none; stroke: #b2b2b2; stroke-width: 0.8; stroke-linecap: square"/>
   </g>
   <g id="line2d_101">
    <path d="M 53.721227 45.530267 
L 73.459257 49.787494 
L 87.463612 51.301328 
L 98.326234 54.391331 
L 107.201642 53.780504 
L 121.205997 56.598448 
L 129.979883 59.631487 
L 132.068618 59.013129 
L 151.806648 63.284554 
L 165.811003 67.271675 
L 178.582888 68.281572 
L 185.549033 67.479882 
L 199.553388 72.475417 
L 219.291418 89.052494 
L 233.295773 105.253431 
" clip-path="url(#p7243d0688d)" style="fill: none; stroke: #b2b2b2; stroke-width: 0.8; stroke-linecap: square"/>
   </g>
   <g id="line2d_102">
    <path d="M 53.721227 63.477936 
L 73.459257 61.987516 
L 87.463612 61.061793 
L 98.326234 60.421765 
L 107.201642 60.026947 
L 121.205997 59.616205 
L 129.979883 59.631487 
L 132.068618 59.029621 
L 151.806648 55.331572 
L 165.811003 56.964619 
L 178.582888 55.800363 
L 185.549033 56.586665 
L 199.553388 60.392737 
L 219.291418 72.090895 
L 233.295773 82.585626 
" clip-path="url(#p7243d0688d)" style="fill: none; stroke: #b2b2b2; stroke-width: 0.8; stroke-linecap: square"/>
   </g>
   <g id="line2d_103">
    <path d="M 53.721227 69.62323 
L 73.459257 65.124779 
L 87.463612 63.407765 
L 98.326234 63.159733 
L 107.201642 62.186365 
L 121.205997 57.309182 
L 129.979883 59.631487 
L 132.068618 60.828462 
L 151.806648 63.605957 
L 165.811003 69.543609 
L 178.582888 78.264985 
L 185.549033 85.407599 
L 199.553388 92.986501 
L 219.291418 106.272556 
L 233.295773 114.470194 
" clip-path="url(#p7243d0688d)" style="fill: none; stroke: #b2b2b2; stroke-width: 0.8; stroke-linecap: square"/>
   </g>
   <g id="line2d_104">
    <path d="M 53.721227 71.971708 
L 73.459257 66.846432 
L 87.463612 62.335818 
L 98.326234 59.757935 
L 107.201642 59.492768 
L 121.205997 59.506397 
L 129.979883 59.631487 
L 132.068618 57.958555 
L 151.806648 60.450776 
L 165.811003 62.756331 
L 178.582888 68.605342 
L 185.549033 72.251983 
L 199.553388 76.609152 
L 219.291418 90.699155 
L 233.295773 102.946604 
" clip-path="url(#p7243d0688d)" style="fill: none; stroke: #b2b2b2; stroke-width: 0.8; stroke-linecap: square"/>
   </g>
   <g id="line2d_105">
    <path d="M 53.721227 51.415376 
L 73.459257 48.170854 
L 87.463612 49.028997 
L 98.326234 52.104164 
L 107.201642 53.216889 
L 121.205997 59.392703 
L 129.979883 59.631487 
L 132.068618 60.888479 
L 151.806648 65.856168 
L 165.811003 73.50632 
L 178.582888 81.378401 
L 185.549033 84.335808 
L 199.553388 87.501123 
L 219.291418 99.84562 
L 233.295773 111.448636 
" clip-path="url(#p7243d0688d)" style="fill: none; stroke: #b2b2b2; stroke-width: 0.8; stroke-linecap: square"/>
   </g>
   <g id="line2d_106">
    <path d="M 53.721227 58.040575 
L 73.459257 55.865521 
L 87.463612 55.433852 
L 98.326234 53.846268 
L 107.201642 52.994693 
L 121.205997 56.635491 
L 129.979883 59.631487 
L 132.068618 59.235535 
L 151.806648 67.451965 
L 165.811003 68.945639 
L 178.582888 73.745254 
L 185.549033 77.814992 
L 199.553388 84.650792 
L 219.291418 103.418942 
L 233.295773 118.735016 
" clip-path="url(#p7243d0688d)" style="fill: none; stroke: #b2b2b2; stroke-width: 0.8; stroke-linecap: square"/>
   </g>
   <g id="line2d_107">
    <path d="M 53.721227 57.168471 
L 73.459257 53.181767 
L 87.463612 49.990455 
L 98.326234 48.562573 
L 107.201642 49.104508 
L 121.205997 57.346346 
L 129.979883 59.631487 
L 132.068618 60.135952 
L 151.806648 70.47774 
L 165.811003 80.461183 
L 178.582888 86.331421 
L 185.549033 88.262455 
L 199.553388 94.986477 
L 219.291418 101.560341 
L 233.295773 115.97066 
" clip-path="url(#p7243d0688d)" style="fill: none; stroke: #b2b2b2; stroke-width: 0.8; stroke-linecap: square"/>
   </g>
   <g id="line2d_108">
    <path d="M 53.721227 53.123758 
L 73.459257 55.40742 
L 87.463612 57.875454 
L 98.326234 57.710119 
L 107.201642 58.603067 
L 121.205997 59.270718 
L 129.979883 59.631487 
L 132.068618 60.349057 
L 151.806648 64.732213 
L 165.811003 66.489907 
L 178.582888 67.209739 
L 185.549033 71.517616 
L 199.553388 77.398156 
L 219.291418 91.229199 
L 233.295773 97.832712 
" clip-path="url(#p7243d0688d)" style="fill: none; stroke: #b2b2b2; stroke-width: 0.8; stroke-linecap: square"/>
   </g>
   <g id="line2d_109">
    <path d="M 53.721227 57.777526 
L 73.459257 54.995916 
L 87.463612 54.127385 
L 98.326234 51.88025 
L 107.201642 53.882227 
L 121.205997 56.864405 
L 129.979883 59.631487 
L 132.068618 59.112046 
L 151.806648 66.304942 
L 165.811003 71.984759 
L 178.582888 77.521479 
L 185.549033 82.292257 
L 199.553388 86.17905 
L 219.291418 96.285591 
L 233.295773 105.401374 
" clip-path="url(#p7243d0688d)" style="fill: none; stroke: #b2b2b2; stroke-width: 0.8; stroke-linecap: square"/>
   </g>
   <g id="line2d_110">
    <path d="M 53.721227 47.052724 
L 73.459257 43.881277 
L 87.463612 48.955079 
L 98.326234 49.529155 
L 107.201642 52.375735 
L 121.205997 56.807473 
L 129.979883 59.631487 
L 132.068618 59.710906 
L 151.806648 66.729739 
L 165.811003 69.579502 
L 178.582888 77.570439 
L 185.549033 80.071739 
L 199.553388 84.783619 
L 219.291418 97.30379 
L 233.295773 110.91147 
" clip-path="url(#p7243d0688d)" style="fill: none; stroke: #b2b2b2; stroke-width: 0.8; stroke-linecap: square"/>
   </g>
   <g id="line2d_111">
    <path d="M 53.721227 58.719494 
L 73.459257 56.176247 
L 87.463612 56.667353 
L 98.326234 57.26176 
L 107.201642 57.906547 
L 121.205997 60.535482 
L 129.979883 59.631487 
L 132.068618 58.106058 
L 151.806648 64.358808 
L 165.811003 70.063266 
L 178.582888 80.706562 
L 185.549033 84.252165 
L 199.553388 94.397309 
L 219.291418 109.185419 
L 233.295773 115.659888 
" clip-path="url(#p7243d0688d)" style="fill: none; stroke: #b2b2b2; stroke-width: 0.8; stroke-linecap: square"/>
   </g>
   <g id="line2d_112">
    <path d="M 53.721227 58.472982 
L 73.459257 56.861754 
L 87.463612 56.111999 
L 98.326234 59.458241 
L 107.201642 58.15807 
L 121.205997 58.763826 
L 129.979883 59.631487 
L 132.068618 61.048593 
L 151.806648 65.537879 
L 165.811003 73.62426 
L 178.582888 78.519957 
L 185.549033 81.2251 
L 199.553388 89.745043 
L 219.291418 102.543271 
L 233.295773 114.008809 
" clip-path="url(#p7243d0688d)" style="fill: none; stroke: #b2b2b2; stroke-width: 0.8; stroke-linecap: square"/>
   </g>
   <g id="line2d_113">
    <path d="M 53.721227 58.528804 
L 73.459257 56.349756 
L 87.463612 55.609197 
L 98.326234 56.159797 
L 107.201642 56.688929 
L 121.205997 58.402358 
L 129.979883 59.631487 
L 132.068618 59.883439 
L 151.806648 64.05075 
L 165.811003 68.064823 
L 178.582888 72.820566 
L 185.549033 76.002947 
L 199.553388 82.754084 
L 219.291418 94.983274 
L 233.295773 106.519525 
" clip-path="url(#p7243d0688d)" style="fill: none; stroke: #ff0000; stroke-width: 2; stroke-linecap: square"/>
   </g>
   <g id="line2d_114">
    <path d="M 53.721227 36.655622 
L 73.459257 37.330731 
L 87.463612 39.524518 
L 98.326234 42.777393 
L 107.201642 46.573903 
L 121.205997 54.302855 
L 129.979883 59.631486 
L 132.068618 57.81189 
L 151.806648 54.753773 
L 165.811003 54.542652 
L 178.582888 56.140547 
L 185.549033 57.664276 
L 199.553388 61.931115 
L 219.291418 71.479431 
L 233.295773 80.998863 
" clip-path="url(#p7243d0688d)" style="fill: none; stroke-dasharray: 7.4,3.2; stroke-dashoffset: 0; stroke: #ff0000; stroke-width: 2"/>
   </g>
   <g id="line2d_115">
    <path d="M 53.721227 80.401987 
L 73.459257 75.36878 
L 87.463612 71.693875 
L 98.326234 69.542201 
L 107.201642 66.803956 
L 121.205997 62.501862 
L 129.979883 59.631488 
L 132.068618 61.954988 
L 151.806648 73.347727 
L 165.811003 81.586995 
L 178.582888 89.500585 
L 185.549033 94.341618 
L 199.553388 103.577053 
L 219.291418 118.487118 
L 233.295773 132.040186 
" clip-path="url(#p7243d0688d)" style="fill: none; stroke-dasharray: 7.4,3.2; stroke-dashoffset: 0; stroke: #ff0000; stroke-width: 2"/>
   </g>
   <g id="line2d_116">
    <path d="M 53.721227 58.531011 
L 73.459257 56.269437 
L 87.463612 55.643079 
L 98.326234 56.095588 
L 107.201642 56.645343 
L 121.205997 58.377501 
L 129.979883 59.631487 
L 132.068618 59.905784 
L 151.806648 64.100497 
L 165.811003 68.072572 
L 178.582888 72.957583 
L 185.549033 76.008359 
L 199.553388 82.732933 
L 219.291418 94.984267 
L 233.295773 106.45111 
" clip-path="url(#p7243d0688d)" style="fill: none; stroke: #0000ff; stroke-width: 2; stroke-linecap: square"/>
   </g>
   <g id="line2d_117">
    <path d="M 53.721227 36.508997 
L 73.459257 37.143297 
L 87.463612 39.478411 
L 98.326234 42.950557 
L 107.201642 46.213357 
L 121.205997 54.049715 
L 129.979883 59.631487 
L 132.068618 57.932191 
L 151.806648 54.677418 
L 165.811003 54.583967 
L 178.582888 56.315083 
L 185.549033 57.72214 
L 199.553388 61.947847 
L 219.291418 71.653622 
L 233.295773 80.811019 
" clip-path="url(#p7243d0688d)" style="fill: none; stroke-dasharray: 7.4,3.2; stroke-dashoffset: 0; stroke: #0000ff; stroke-width: 2"/>
   </g>
   <g id="line2d_118">
    <path d="M 53.721227 80.553025 
L 73.459257 75.395577 
L 87.463612 71.807748 
L 98.326234 69.240619 
L 107.201642 67.07733 
L 121.205997 62.705287 
L 129.979883 59.631487 
L 132.068618 61.879376 
L 151.806648 73.523576 
L 165.811003 81.561177 
L 178.582888 89.600082 
L 185.549033 94.294577 
L 199.553388 103.518019 
L 219.291418 118.314912 
L 233.295773 132.0912 
" clip-path="url(#p7243d0688d)" style="fill: none; stroke-dasharray: 7.4,3.2; stroke-dashoffset: 0; stroke: #0000ff; stroke-width: 2"/>
   </g>
   <g id="patch_3">
    <path d="M 44.7425 138.0384 
L 44.7425 7.2 
" style="fill: none; stroke: #000000; stroke-width: 0.8; stroke-linejoin: miter; stroke-linecap: square"/>
   </g>
   <g id="patch_4">
    <path d="M 242.2745 138.0384 
L 242.2745 7.2 
" style="fill: none; stroke: #000000; stroke-width: 0.8; stroke-linejoin: miter; stroke-linecap: square"/>
   </g>
   <g id="patch_5">
    <path d="M 44.7425 138.0384 
L 242.2745 138.0384 
" style="fill: none; stroke: #000000; stroke-width: 0.8; stroke-linejoin: miter; stroke-linecap: square"/>
   </g>
   <g id="patch_6">
    <path d="M 44.7425 7.2 
L 242.2745 7.2 
" style="fill: none; stroke: #000000; stroke-width: 0.8; stroke-linejoin: miter; stroke-linecap: square"/>
   </g>
   <g id="legend_1">
    <g id="patch_7">
     <path d="M 247.8745 104.47295 
L 432.5945 104.47295 
Q 434.1945 104.47295 434.1945 102.87295 
L 434.1945 42.36545 
Q 434.1945 40.76545 432.5945 40.76545 
L 247.8745 40.76545 
Q 246.2745 40.76545 246.2745 42.36545 
L 246.2745 102.87295 
Q 246.2745 104.47295 247.8745 104.47295 
z
" style="fill: #ffffff; opacity: 0.8; stroke: #cccccc; stroke-linejoin: miter"/>
    </g>
    <g id="line2d_119">
     <path d="M 249.4745 47.2442 
L 257.4745 47.2442 
L 265.4745 47.2442 
" style="fill: none; stroke: #b2b2b2; stroke-width: 0.8; stroke-linecap: square"/>
    </g>
    <g id="text_7">
     <!-- Individual selected GMs -->
     <g transform="translate(271.8745 50.0442) scale(0.08 -0.08)">
      <defs>
       <path id="DejaVuSans-49" d="M 628 4666 
L 1259 4666 
L 1259 0 
L 628 0 
L 628 4666 
z
" transform="scale(0.015625)"/>
       <path id="DejaVuSans-76" d="M 191 3500 
L 800 3500 
L 1894 563 
L 2988 3500 
L 3597 3500 
L 2284 0 
L 1503 0 
L 191 3500 
z
" transform="scale(0.015625)"/>
       <path id="DejaVuSans-75" d="M 544 1381 
L 544 3500 
L 1119 3500 
L 1119 1403 
Q 1119 906 1312 657 
Q 1506 409 1894 409 
Q 2359 409 2629 706 
Q 2900 1003 2900 1516 
L 2900 3500 
L 3475 3500 
L 3475 0 
L 2900 0 
L 2900 538 
Q 2691 219 2414 64 
Q 2138 -91 1772 -91 
Q 1169 -91 856 284 
Q 544 659 544 1381 
z
M 1991 3584 
L 1991 3584 
z
" transform="scale(0.015625)"/>
       <path id="DejaVuSans-47" d="M 3809 666 
L 3809 1919 
L 2778 1919 
L 2778 2438 
L 4434 2438 
L 4434 434 
Q 4069 175 3628 42 
Q 3188 -91 2688 -91 
Q 1594 -91 976 548 
Q 359 1188 359 2328 
Q 359 3472 976 4111 
Q 1594 4750 2688 4750 
Q 3144 4750 3555 4637 
Q 3966 4525 4313 4306 
L 4313 3634 
Q 3963 3931 3569 4081 
Q 3175 4231 2741 4231 
Q 1884 4231 1454 3753 
Q 1025 3275 1025 2328 
Q 1025 1384 1454 906 
Q 1884 428 2741 428 
Q 3075 428 3337 486 
Q 3600 544 3809 666 
z
" transform="scale(0.015625)"/>
       <path id="DejaVuSans-4d" d="M 628 4666 
L 1569 4666 
L 2759 1491 
L 3956 4666 
L 4897 4666 
L 4897 0 
L 4281 0 
L 4281 4097 
L 3078 897 
L 2444 897 
L 1241 4097 
L 1241 0 
L 628 0 
L 628 4666 
z
" transform="scale(0.015625)"/>
      </defs>
      <use xlink:href="#DejaVuSans-49"/>
      <use xlink:href="#DejaVuSans-6e" x="29.492188"/>
      <use xlink:href="#DejaVuSans-64" x="92.871094"/>
      <use xlink:href="#DejaVuSans-69" x="156.347656"/>
      <use xlink:href="#DejaVuSans-76" x="184.130859"/>
      <use xlink:href="#DejaVuSans-69" x="243.310547"/>
      <use xlink:href="#DejaVuSans-64" x="271.09375"/>
      <use xlink:href="#DejaVuSans-75" x="334.570312"/>
      <use xlink:href="#DejaVuSans-61" x="397.949219"/>
      <use xlink:href="#DejaVuSans-6c" x="459.228516"/>
      <use xlink:href="#DejaVuSans-20" x="487.011719"/>
      <use xlink:href="#DejaVuSans-73" x="518.798828"/>
      <use xlink:href="#DejaVuSans-65" x="570.898438"/>
      <use xlink:href="#DejaVuSans-6c" x="632.421875"/>
      <use xlink:href="#DejaVuSans-65" x="660.205078"/>
      <use xlink:href="#DejaVuSans-63" x="721.728516"/>
      <use xlink:href="#DejaVuSans-74" x="776.708984"/>
      <use xlink:href="#DejaVuSans-65" x="815.917969"/>
      <use xlink:href="#DejaVuSans-64" x="877.441406"/>
      <use xlink:href="#DejaVuSans-20" x="940.917969"/>
      <use xlink:href="#DejaVuSans-47" x="972.705078"/>
      <use xlink:href="#DejaVuSans-4d" x="1050.195312"/>
      <use xlink:href="#DejaVuSans-73" x="1136.474609"/>
     </g>
    </g>
    <g id="line2d_120">
     <path d="M 249.4745 58.9867 
L 257.4745 58.9867 
L 265.4745 58.9867 
" style="fill: none; stroke: #ff0000; stroke-width: 2; stroke-linecap: square"/>
    </g>
    <g id="text_8">
     <!-- GCIM median -->
     <g transform="translate(271.8745 61.7867) scale(0.08 -0.08)">
      <defs>
       <path id="DejaVuSans-43" d="M 4122 4306 
L 4122 3641 
Q 3803 3938 3442 4084 
Q 3081 4231 2675 4231 
Q 1875 4231 1450 3742 
Q 1025 3253 1025 2328 
Q 1025 1406 1450 917 
Q 1875 428 2675 428 
Q 3081 428 3442 575 
Q 3803 722 4122 1019 
L 4122 359 
Q 3791 134 3420 21 
Q 3050 -91 2638 -91 
Q 1578 -91 968 557 
Q 359 1206 359 2328 
Q 359 3453 968 4101 
Q 1578 4750 2638 4750 
Q 3056 4750 3426 4639 
Q 3797 4528 4122 4306 
z
" transform="scale(0.015625)"/>
       <path id="DejaVuSans-6d" d="M 3328 2828 
Q 3544 3216 3844 3400 
Q 4144 3584 4550 3584 
Q 5097 3584 5394 3201 
Q 5691 2819 5691 2113 
L 5691 0 
L 5113 0 
L 5113 2094 
Q 5113 2597 4934 2840 
Q 4756 3084 4391 3084 
Q 3944 3084 3684 2787 
Q 3425 2491 3425 1978 
L 3425 0 
L 2847 0 
L 2847 2094 
Q 2847 2600 2669 2842 
Q 2491 3084 2119 3084 
Q 1678 3084 1418 2786 
Q 1159 2488 1159 1978 
L 1159 0 
L 581 0 
L 581 3500 
L 1159 3500 
L 1159 2956 
Q 1356 3278 1631 3431 
Q 1906 3584 2284 3584 
Q 2666 3584 2933 3390 
Q 3200 3197 3328 2828 
z
" transform="scale(0.015625)"/>
      </defs>
      <use xlink:href="#DejaVuSans-47"/>
      <use xlink:href="#DejaVuSans-43" x="77.490234"/>
      <use xlink:href="#DejaVuSans-49" x="147.314453"/>
      <use xlink:href="#DejaVuSans-4d" x="176.806641"/>
      <use xlink:href="#DejaVuSans-20" x="263.085938"/>
      <use xlink:href="#DejaVuSans-6d" x="294.873047"/>
      <use xlink:href="#DejaVuSans-65" x="392.285156"/>
      <use xlink:href="#DejaVuSans-64" x="453.808594"/>
      <use xlink:href="#DejaVuSans-69" x="517.285156"/>
      <use xlink:href="#DejaVuSans-61" x="545.068359"/>
      <use xlink:href="#DejaVuSans-6e" x="606.347656"/>
     </g>
    </g>
    <g id="line2d_121">
     <path d="M 249.4745 72.01045 
L 257.4745 72.01045 
L 265.4745 72.01045 
" style="fill: none; stroke-dasharray: 7.4,3.2; stroke-dashoffset: 0; stroke: #ff0000; stroke-width: 2"/>
    </g>
    <g id="text_9">
     <!-- GCIM $16^{th}$ and $84^{th}$ percentiles -->
     <g transform="translate(271.8745 74.81045) scale(0.08 -0.08)">
      <defs>
       <path id="DejaVuSans-36" d="M 2113 2584 
Q 1688 2584 1439 2293 
Q 1191 2003 1191 1497 
Q 1191 994 1439 701 
Q 1688 409 2113 409 
Q 2538 409 2786 701 
Q 3034 994 3034 1497 
Q 3034 2003 2786 2293 
Q 2538 2584 2113 2584 
z
M 3366 4563 
L 3366 3988 
Q 3128 4100 2886 4159 
Q 2644 4219 2406 4219 
Q 1781 4219 1451 3797 
Q 1122 3375 1075 2522 
Q 1259 2794 1537 2939 
Q 1816 3084 2150 3084 
Q 2853 3084 3261 2657 
Q 3669 2231 3669 1497 
Q 3669 778 3244 343 
Q 2819 -91 2113 -91 
Q 1303 -91 875 529 
Q 447 1150 447 2328 
Q 447 3434 972 4092 
Q 1497 4750 2381 4750 
Q 2619 4750 2861 4703 
Q 3103 4656 3366 4563 
z
" transform="scale(0.015625)"/>
       <path id="DejaVuSans-Oblique-74" d="M 2706 3500 
L 2619 3053 
L 1472 3053 
L 1100 1153 
Q 1081 1047 1072 975 
Q 1063 903 1063 863 
Q 1063 663 1183 572 
Q 1303 481 1569 481 
L 2150 481 
L 2053 0 
L 1503 0 
Q 991 0 739 200 
Q 488 400 488 806 
Q 488 878 497 964 
Q 506 1050 525 1153 
L 897 3053 
L 409 3053 
L 500 3500 
L 978 3500 
L 1172 4494 
L 1747 4494 
L 1556 3500 
L 2706 3500 
z
" transform="scale(0.015625)"/>
       <path id="DejaVuSans-Oblique-68" d="M 3566 2113 
L 3156 0 
L 2578 0 
L 2988 2091 
Q 3016 2238 3031 2350 
Q 3047 2463 3047 2528 
Q 3047 2791 2881 2937 
Q 2716 3084 2419 3084 
Q 1956 3084 1617 2771 
Q 1278 2459 1178 1941 
L 800 0 
L 225 0 
L 1172 4863 
L 1747 4863 
L 1375 2950 
Q 1594 3244 1934 3414 
Q 2275 3584 2650 3584 
Q 3113 3584 3367 3334 
Q 3622 3084 3622 2631 
Q 3622 2519 3608 2391 
Q 3594 2263 3566 2113 
z
" transform="scale(0.015625)"/>
       <path id="DejaVuSans-38" d="M 2034 2216 
Q 1584 2216 1326 1975 
Q 1069 1734 1069 1313 
Q 1069 891 1326 650 
Q 1584 409 2034 409 
Q 2484 409 2743 651 
Q 3003 894 3003 1313 
Q 3003 1734 2745 1975 
Q 2488 2216 2034 2216 
z
M 1403 2484 
Q 997 2584 770 2862 
Q 544 3141 544 3541 
Q 544 4100 942 4425 
Q 1341 4750 2034 4750 
Q 2731 4750 3128 4425 
Q 3525 4100 3525 3541 
Q 3525 3141 3298 2862 
Q 3072 2584 2669 2484 
Q 3125 2378 3379 2068 
Q 3634 1759 3634 1313 
Q 3634 634 3220 271 
Q 2806 -91 2034 -91 
Q 1263 -91 848 271 
Q 434 634 434 1313 
Q 434 1759 690 2068 
Q 947 2378 1403 2484 
z
M 1172 3481 
Q 1172 3119 1398 2916 
Q 1625 2713 2034 2713 
Q 2441 2713 2670 2916 
Q 2900 3119 2900 3481 
Q 2900 3844 2670 4047 
Q 2441 4250 2034 4250 
Q 1625 4250 1398 4047 
Q 1172 3844 1172 3481 
z
" transform="scale(0.015625)"/>
       <path id="DejaVuSans-34" d="M 2419 4116 
L 825 1625 
L 2419 1625 
L 2419 4116 
z
M 2253 4666 
L 3047 4666 
L 3047 1625 
L 3713 1625 
L 3713 1100 
L 3047 1100 
L 3047 0 
L 2419 0 
L 2419 1100 
L 313 1100 
L 313 1709 
L 2253 4666 
z
" transform="scale(0.015625)"/>
      </defs>
      <use xlink:href="#DejaVuSans-47" transform="translate(0 0.529687)"/>
      <use xlink:href="#DejaVuSans-43" transform="translate(77.490234 0.529687)"/>
      <use xlink:href="#DejaVuSans-49" transform="translate(147.314453 0.529687)"/>
      <use xlink:href="#DejaVuSans-4d" transform="translate(176.806641 0.529687)"/>
      <use xlink:href="#DejaVuSans-20" transform="translate(263.085938 0.529687)"/>
      <use xlink:href="#DejaVuSans-31" transform="translate(294.873047 0.529687)"/>
      <use xlink:href="#DejaVuSans-36" transform="translate(358.496094 0.529687)"/>
      <use xlink:href="#DejaVuSans-Oblique-74" transform="translate(423.076172 38.810937) scale(0.7)"/>
      <use xlink:href="#DejaVuSans-Oblique-68" transform="translate(450.522461 38.810937) scale(0.7)"/>
      <use xlink:href="#DejaVuSans-20" transform="translate(497.62207 0.529687)"/>
      <use xlink:href="#DejaVuSans-61" transform="translate(529.40918 0.529687)"/>
      <use xlink:href="#DejaVuSans-6e" transform="translate(590.688477 0.529687)"/>
      <use xlink:href="#DejaVuSans-64" transform="translate(654.067383 0.529687)"/>
      <use xlink:href="#DejaVuSans-20" transform="translate(717.543945 0.529687)"/>
      <use xlink:href="#DejaVuSans-38" transform="translate(749.331055 0.529687)"/>
      <use xlink:href="#DejaVuSans-34" transform="translate(812.954102 0.529687)"/>
      <use xlink:href="#DejaVuSans-Oblique-74" transform="translate(877.53418 38.810937) scale(0.7)"/>
      <use xlink:href="#DejaVuSans-Oblique-68" transform="translate(904.980469 38.810937) scale(0.7)"/>
      <use xlink:href="#DejaVuSans-20" transform="translate(952.080078 0.529687)"/>
      <use xlink:href="#DejaVuSans-70" transform="translate(983.867188 0.529687)"/>
      <use xlink:href="#DejaVuSans-65" transform="translate(1047.34375 0.529687)"/>
      <use xlink:href="#DejaVuSans-72" transform="translate(1108.867188 0.529687)"/>
      <use xlink:href="#DejaVuSans-63" transform="translate(1149.980469 0.529687)"/>
      <use xlink:href="#DejaVuSans-65" transform="translate(1204.960938 0.529687)"/>
      <use xlink:href="#DejaVuSans-6e" transform="translate(1266.484375 0.529687)"/>
      <use xlink:href="#DejaVuSans-74" transform="translate(1329.863281 0.529687)"/>
      <use xlink:href="#DejaVuSans-69" transform="translate(1369.072266 0.529687)"/>
      <use xlink:href="#DejaVuSans-6c" transform="translate(1396.855469 0.529687)"/>
      <use xlink:href="#DejaVuSans-65" transform="translate(1424.638672 0.529687)"/>
      <use xlink:href="#DejaVuSans-73" transform="translate(1486.162109 0.529687)"/>
     </g>
    </g>
    <g id="line2d_122">
     <path d="M 249.4745 83.7692 
L 257.4745 83.7692 
L 265.4745 83.7692 
" style="fill: none; stroke: #0000ff; stroke-width: 2; stroke-linecap: square"/>
    </g>
    <g id="text_10">
     <!-- Selected GMs median -->
     <g transform="translate(271.8745 86.5692) scale(0.08 -0.08)">
      <use xlink:href="#DejaVuSans-53"/>
      <use xlink:href="#DejaVuSans-65" x="63.476562"/>
      <use xlink:href="#DejaVuSans-6c" x="125"/>
      <use xlink:href="#DejaVuSans-65" x="152.783203"/>
      <use xlink:href="#DejaVuSans-63" x="214.306641"/>
      <use xlink:href="#DejaVuSans-74" x="269.287109"/>
      <use xlink:href="#DejaVuSans-65" x="308.496094"/>
      <use xlink:href="#DejaVuSans-64" x="370.019531"/>
      <use xlink:href="#DejaVuSans-20" x="433.496094"/>
      <use xlink:href="#DejaVuSans-47" x="465.283203"/>
      <use xlink:href="#DejaVuSans-4d" x="542.773438"/>
      <use xlink:href="#DejaVuSans-73" x="629.052734"/>
      <use xlink:href="#DejaVuSans-20" x="681.152344"/>
      <use xlink:href="#DejaVuSans-6d" x="712.939453"/>
      <use xlink:href="#DejaVuSans-65" x="810.351562"/>
      <use xlink:href="#DejaVuSans-64" x="871.875"/>
      <use xlink:href="#DejaVuSans-69" x="935.351562"/>
      <use xlink:href="#DejaVuSans-61" x="963.134766"/>
      <use xlink:href="#DejaVuSans-6e" x="1024.414062"/>
     </g>
    </g>
    <g id="line2d_123">
     <path d="M 249.4745 96.79295 
L 257.4745 96.79295 
L 265.4745 96.79295 
" style="fill: none; stroke-dasharray: 7.4,3.2; stroke-dashoffset: 0; stroke: #0000ff; stroke-width: 2"/>
    </g>
    <g id="text_11">
     <!-- Selected GMs, $16^{th}$ and $84^{th}$ percentiles -->
     <g transform="translate(271.8745 99.59295) scale(0.08 -0.08)">
      <use xlink:href="#DejaVuSans-53" transform="translate(0 0.529687)"/>
      <use xlink:href="#DejaVuSans-65" transform="translate(63.476562 0.529687)"/>
      <use xlink:href="#DejaVuSans-6c" transform="translate(125 0.529687)"/>
      <use xlink:href="#DejaVuSans-65" transform="translate(152.783203 0.529687)"/>
      <use xlink:href="#DejaVuSans-63" transform="translate(214.306641 0.529687)"/>
      <use xlink:href="#DejaVuSans-74" transform="translate(269.287109 0.529687)"/>
      <use xlink:href="#DejaVuSans-65" transform="translate(308.496094 0.529687)"/>
      <use xlink:href="#DejaVuSans-64" transform="translate(370.019531 0.529687)"/>
      <use xlink:href="#DejaVuSans-20" transform="translate(433.496094 0.529687)"/>
      <use xlink:href="#DejaVuSans-47" transform="translate(465.283203 0.529687)"/>
      <use xlink:href="#DejaVuSans-4d" transform="translate(542.773438 0.529687)"/>
      <use xlink:href="#DejaVuSans-73" transform="translate(629.052734 0.529687)"/>
      <use xlink:href="#DejaVuSans-2c" transform="translate(681.152344 0.529687)"/>
      <use xlink:href="#DejaVuSans-20" transform="translate(712.939453 0.529687)"/>
      <use xlink:href="#DejaVuSans-31" transform="translate(744.726562 0.529687)"/>
      <use xlink:href="#DejaVuSans-36" transform="translate(808.349609 0.529687)"/>
      <use xlink:href="#DejaVuSans-Oblique-74" transform="translate(872.929688 38.810937) scale(0.7)"/>
      <use xlink:href="#DejaVuSans-Oblique-68" transform="translate(900.375977 38.810937) scale(0.7)"/>
      <use xlink:href="#DejaVuSans-20" transform="translate(947.475586 0.529687)"/>
      <use xlink:href="#DejaVuSans-61" transform="translate(979.262695 0.529687)"/>
      <use xlink:href="#DejaVuSans-6e" transform="translate(1040.541992 0.529687)"/>
      <use xlink:href="#DejaVuSans-64" transform="translate(1103.920898 0.529687)"/>
      <use xlink:href="#DejaVuSans-20" transform="translate(1167.397461 0.529687)"/>
      <use xlink:href="#DejaVuSans-38" transform="translate(1199.18457 0.529687)"/>
      <use xlink:href="#DejaVuSans-34" transform="translate(1262.807617 0.529687)"/>
      <use xlink:href="#DejaVuSans-Oblique-74" transform="translate(1327.387695 38.810937) scale(0.7)"/>
      <use xlink:href="#DejaVuSans-Oblique-68" transform="translate(1354.833984 38.810937) scale(0.7)"/>
      <use xlink:href="#DejaVuSans-20" transform="translate(1401.933594 0.529687)"/>
      <use xlink:href="#DejaVuSans-70" transform="translate(1433.720703 0.529687)"/>
      <use xlink:href="#DejaVuSans-65" transform="translate(1497.197266 0.529687)"/>
      <use xlink:href="#DejaVuSans-72" transform="translate(1558.720703 0.529687)"/>
      <use xlink:href="#DejaVuSans-63" transform="translate(1599.833984 0.529687)"/>
      <use xlink:href="#DejaVuSans-65" transform="translate(1654.814453 0.529687)"/>
      <use xlink:href="#DejaVuSans-6e" transform="translate(1716.337891 0.529687)"/>
      <use xlink:href="#DejaVuSans-74" transform="translate(1779.716797 0.529687)"/>
      <use xlink:href="#DejaVuSans-69" transform="translate(1818.925781 0.529687)"/>
      <use xlink:href="#DejaVuSans-6c" transform="translate(1846.708984 0.529687)"/>
      <use xlink:href="#DejaVuSans-65" transform="translate(1874.492188 0.529687)"/>
      <use xlink:href="#DejaVuSans-73" transform="translate(1936.015625 0.529687)"/>
     </g>
    </g>
   </g>
  </g>
 </g>
 <defs>
  <clipPath id="p7243d0688d">
   <rect x="44.7425" y="7.2" width="197.532" height="130.8384"/>
  </clipPath>
 </defs>
</svg>
