<?xml version="1.0" encoding="utf-8" standalone="no"?>
<!DOCTYPE svg PUBLIC "-//W3C//DTD SVG 1.1//EN"
  "http://www.w3.org/Graphics/SVG/1.1/DTD/svg11.dtd">
<svg xmlns:xlink="http://www.w3.org/1999/xlink" width="441.3945pt" height="171.7234pt" viewBox="0 0 441.3945 171.7234" xmlns="http://www.w3.org/2000/svg" version="1.1">
 <metadata>
  <rdf:RDF xmlns:dc="http://purl.org/dc/elements/1.1/" xmlns:cc="http://creativecommons.org/ns#" xmlns:rdf="http://www.w3.org/1999/02/22-rdf-syntax-ns#">
   <cc:Work>
    <dc:type rdf:resource="http://purl.org/dc/dcmitype/StillImage"/>
    <dc:date>2024-11-11T18:39:21.262161</dc:date>
    <dc:format>image/svg+xml</dc:format>
    <dc:creator>
     <cc:Agent>
      <dc:title>Matplotlib v3.8.2, https://matplotlib.org/</dc:title>
     </cc:Agent>
    </dc:creator>
   </cc:Work>
  </rdf:RDF>
 </metadata>
 <defs>
  <style type="text/css">*{stroke-linejoin: round; stroke-linecap: butt}</style>
 </defs>
 <g id="figure_1">
  <g id="patch_1">
   <path d="M 0 171.7234 
L 441.3945 171.7234 
L 441.3945 0 
L 0 0 
z
" style="fill: #ffffff"/>
  </g>
  <g id="axes_1">
   <g id="patch_2">
    <path d="M 44.7425 138.0384 
L 242.2745 138.0384 
L 242.2745 7.2 
L 44.7425 7.2 
z
" style="fill: #ffffff"/>
   </g>
   <g id="matplotlib.axis_1">
    <g id="xtick_1">
     <g id="line2d_1">
      <path d="M 53.721227 138.0384 
L 53.721227 7.2 
" clip-path="url(#p921e1ab895)" style="fill: none; stroke: #d9d9d9; stroke-width: 0.8; stroke-linecap: square"/>
     </g>
     <g id="line2d_2">
      <defs>
       <path id="m8b3c81ce94" d="M 0 0 
L 0 3.5 
" style="stroke: #000000; stroke-width: 0.8"/>
      </defs>
      <g>
       <use xlink:href="#m8b3c81ce94" x="53.721227" y="138.0384" style="stroke: #000000; stroke-width: 0.8"/>
      </g>
     </g>
     <g id="text_1">
      <!-- $\mathdefault{10^{-1}}$ -->
      <g transform="translate(44.321227 151.11715) scale(0.08 -0.08)">
       <defs>
        <path id="DejaVuSans-31" d="M 794 531 
L 1825 531 
L 1825 4091 
L 703 3866 
L 703 4441 
L 1819 4666 
L 2450 4666 
L 2450 531 
L 3481 531 
L 3481 0 
L 794 0 
L 794 531 
z
" transform="scale(0.015625)"/>
        <path id="DejaVuSans-30" d="M 2034 4250 
Q 1547 4250 1301 3770 
Q 1056 3291 1056 2328 
Q 1056 1369 1301 889 
Q 1547 409 2034 409 
Q 2525 409 2770 889 
Q 3016 1369 3016 2328 
Q 3016 3291 2770 3770 
Q 2525 4250 2034 4250 
z
M 2034 4750 
Q 2819 4750 3233 4129 
Q 3647 3509 3647 2328 
Q 3647 1150 3233 529 
Q 2819 -91 2034 -91 
Q 1250 -91 836 529 
Q 422 1150 422 2328 
Q 422 3509 836 4129 
Q 1250 4750 2034 4750 
z
" transform="scale(0.015625)"/>
        <path id="DejaVuSans-2212" d="M 678 2272 
L 4684 2272 
L 4684 1741 
L 678 1741 
L 678 2272 
z
" transform="scale(0.015625)"/>
       </defs>
       <use xlink:href="#DejaVuSans-31" transform="translate(0 0.684375)"/>
       <use xlink:href="#DejaVuSans-30" transform="translate(63.623047 0.684375)"/>
       <use xlink:href="#DejaVuSans-2212" transform="translate(128.203125 38.965625) scale(0.7)"/>
       <use xlink:href="#DejaVuSans-31" transform="translate(186.855469 38.965625) scale(0.7)"/>
      </g>
     </g>
    </g>
    <g id="xtick_2">
     <g id="line2d_3">
      <path d="M 165.811003 138.0384 
L 165.811003 7.2 
" clip-path="url(#p921e1ab895)" style="fill: none; stroke: #d9d9d9; stroke-width: 0.8; stroke-linecap: square"/>
     </g>
     <g id="line2d_4">
      <g>
       <use xlink:href="#m8b3c81ce94" x="165.811003" y="138.0384" style="stroke: #000000; stroke-width: 0.8"/>
      </g>
     </g>
     <g id="text_2">
      <!-- $\mathdefault{10^{0}}$ -->
      <g transform="translate(158.771003 151.11715) scale(0.08 -0.08)">
       <use xlink:href="#DejaVuSans-31" transform="translate(0 0.765625)"/>
       <use xlink:href="#DejaVuSans-30" transform="translate(63.623047 0.765625)"/>
       <use xlink:href="#DejaVuSans-30" transform="translate(128.203125 39.046875) scale(0.7)"/>
      </g>
     </g>
    </g>
    <g id="xtick_3">
     <g id="line2d_5">
      <path d="M 48.59228 138.0384 
L 48.59228 7.2 
" clip-path="url(#p921e1ab895)" style="fill: none; stroke-dasharray: 2.96,1.28; stroke-dashoffset: 0; stroke: #f2f2f2; stroke-width: 0.8"/>
     </g>
     <g id="line2d_6">
      <defs>
       <path id="m7698241391" d="M 0 0 
L 0 2 
" style="stroke: #000000; stroke-width: 0.6"/>
      </defs>
      <g>
       <use xlink:href="#m7698241391" x="48.59228" y="138.0384" style="stroke: #000000; stroke-width: 0.6"/>
      </g>
     </g>
    </g>
    <g id="xtick_4">
     <g id="line2d_7">
      <path d="M 87.463612 138.0384 
L 87.463612 7.2 
" clip-path="url(#p921e1ab895)" style="fill: none; stroke-dasharray: 2.96,1.28; stroke-dashoffset: 0; stroke: #f2f2f2; stroke-width: 0.8"/>
     </g>
     <g id="line2d_8">
      <g>
       <use xlink:href="#m7698241391" x="87.463612" y="138.0384" style="stroke: #000000; stroke-width: 0.6"/>
      </g>
     </g>
    </g>
    <g id="xtick_5">
     <g id="line2d_9">
      <path d="M 107.201642 138.0384 
L 107.201642 7.2 
" clip-path="url(#p921e1ab895)" style="fill: none; stroke-dasharray: 2.96,1.28; stroke-dashoffset: 0; stroke: #f2f2f2; stroke-width: 0.8"/>
     </g>
     <g id="line2d_10">
      <g>
       <use xlink:href="#m7698241391" x="107.201642" y="138.0384" style="stroke: #000000; stroke-width: 0.6"/>
      </g>
     </g>
    </g>
    <g id="xtick_6">
     <g id="line2d_11">
      <path d="M 121.205997 138.0384 
L 121.205997 7.2 
" clip-path="url(#p921e1ab895)" style="fill: none; stroke-dasharray: 2.96,1.28; stroke-dashoffset: 0; stroke: #f2f2f2; stroke-width: 0.8"/>
     </g>
     <g id="line2d_12">
      <g>
       <use xlink:href="#m7698241391" x="121.205997" y="138.0384" style="stroke: #000000; stroke-width: 0.6"/>
      </g>
     </g>
    </g>
    <g id="xtick_7">
     <g id="line2d_13">
      <path d="M 132.068618 138.0384 
L 132.068618 7.2 
" clip-path="url(#p921e1ab895)" style="fill: none; stroke-dasharray: 2.96,1.28; stroke-dashoffset: 0; stroke: #f2f2f2; stroke-width: 0.8"/>
     </g>
     <g id="line2d_14">
      <g>
       <use xlink:href="#m7698241391" x="132.068618" y="138.0384" style="stroke: #000000; stroke-width: 0.6"/>
      </g>
     </g>
    </g>
    <g id="xtick_8">
     <g id="line2d_15">
      <path d="M 140.944027 138.0384 
L 140.944027 7.2 
" clip-path="url(#p921e1ab895)" style="fill: none; stroke-dasharray: 2.96,1.28; stroke-dashoffset: 0; stroke: #f2f2f2; stroke-width: 0.8"/>
     </g>
     <g id="line2d_16">
      <g>
       <use xlink:href="#m7698241391" x="140.944027" y="138.0384" style="stroke: #000000; stroke-width: 0.6"/>
      </g>
     </g>
    </g>
    <g id="xtick_9">
     <g id="line2d_17">
      <path d="M 148.448077 138.0384 
L 148.448077 7.2 
" clip-path="url(#p921e1ab895)" style="fill: none; stroke-dasharray: 2.96,1.28; stroke-dashoffset: 0; stroke: #f2f2f2; stroke-width: 0.8"/>
     </g>
     <g id="line2d_18">
      <g>
       <use xlink:href="#m7698241391" x="148.448077" y="138.0384" style="stroke: #000000; stroke-width: 0.6"/>
      </g>
     </g>
    </g>
    <g id="xtick_10">
     <g id="line2d_19">
      <path d="M 154.948382 138.0384 
L 154.948382 7.2 
" clip-path="url(#p921e1ab895)" style="fill: none; stroke-dasharray: 2.96,1.28; stroke-dashoffset: 0; stroke: #f2f2f2; stroke-width: 0.8"/>
     </g>
     <g id="line2d_20">
      <g>
       <use xlink:href="#m7698241391" x="154.948382" y="138.0384" style="stroke: #000000; stroke-width: 0.6"/>
      </g>
     </g>
    </g>
    <g id="xtick_11">
     <g id="line2d_21">
      <path d="M 160.682056 138.0384 
L 160.682056 7.2 
" clip-path="url(#p921e1ab895)" style="fill: none; stroke-dasharray: 2.96,1.28; stroke-dashoffset: 0; stroke: #f2f2f2; stroke-width: 0.8"/>
     </g>
     <g id="line2d_22">
      <g>
       <use xlink:href="#m7698241391" x="160.682056" y="138.0384" style="stroke: #000000; stroke-width: 0.6"/>
      </g>
     </g>
    </g>
    <g id="xtick_12">
     <g id="line2d_23">
      <path d="M 199.553388 138.0384 
L 199.553388 7.2 
" clip-path="url(#p921e1ab895)" style="fill: none; stroke-dasharray: 2.96,1.28; stroke-dashoffset: 0; stroke: #f2f2f2; stroke-width: 0.8"/>
     </g>
     <g id="line2d_24">
      <g>
       <use xlink:href="#m7698241391" x="199.553388" y="138.0384" style="stroke: #000000; stroke-width: 0.6"/>
      </g>
     </g>
    </g>
    <g id="xtick_13">
     <g id="line2d_25">
      <path d="M 219.291418 138.0384 
L 219.291418 7.2 
" clip-path="url(#p921e1ab895)" style="fill: none; stroke-dasharray: 2.96,1.28; stroke-dashoffset: 0; stroke: #f2f2f2; stroke-width: 0.8"/>
     </g>
     <g id="line2d_26">
      <g>
       <use xlink:href="#m7698241391" x="219.291418" y="138.0384" style="stroke: #000000; stroke-width: 0.6"/>
      </g>
     </g>
    </g>
    <g id="xtick_14">
     <g id="line2d_27">
      <path d="M 233.295773 138.0384 
L 233.295773 7.2 
" clip-path="url(#p921e1ab895)" style="fill: none; stroke-dasharray: 2.96,1.28; stroke-dashoffset: 0; stroke: #f2f2f2; stroke-width: 0.8"/>
     </g>
     <g id="line2d_28">
      <g>
       <use xlink:href="#m7698241391" x="233.295773" y="138.0384" style="stroke: #000000; stroke-width: 0.6"/>
      </g>
     </g>
    </g>
    <g id="text_3">
     <!-- Period, T (s) -->
     <g transform="translate(119.576 162.85965) scale(0.08 -0.08)">
      <defs>
       <path id="DejaVuSans-50" d="M 1259 4147 
L 1259 2394 
L 2053 2394 
Q 2494 2394 2734 2622 
Q 2975 2850 2975 3272 
Q 2975 3691 2734 3919 
Q 2494 4147 2053 4147 
L 1259 4147 
z
M 628 4666 
L 2053 4666 
Q 2838 4666 3239 4311 
Q 3641 3956 3641 3272 
Q 3641 2581 3239 2228 
Q 2838 1875 2053 1875 
L 1259 1875 
L 1259 0 
L 628 0 
L 628 4666 
z
" transform="scale(0.015625)"/>
       <path id="DejaVuSans-65" d="M 3597 1894 
L 3597 1613 
L 953 1613 
Q 991 1019 1311 708 
Q 1631 397 2203 397 
Q 2534 397 2845 478 
Q 3156 559 3463 722 
L 3463 178 
Q 3153 47 2828 -22 
Q 2503 -91 2169 -91 
Q 1331 -91 842 396 
Q 353 884 353 1716 
Q 353 2575 817 3079 
Q 1281 3584 2069 3584 
Q 2775 3584 3186 3129 
Q 3597 2675 3597 1894 
z
M 3022 2063 
Q 3016 2534 2758 2815 
Q 2500 3097 2075 3097 
Q 1594 3097 1305 2825 
Q 1016 2553 972 2059 
L 3022 2063 
z
" transform="scale(0.015625)"/>
       <path id="DejaVuSans-72" d="M 2631 2963 
Q 2534 3019 2420 3045 
Q 2306 3072 2169 3072 
Q 1681 3072 1420 2755 
Q 1159 2438 1159 1844 
L 1159 0 
L 581 0 
L 581 3500 
L 1159 3500 
L 1159 2956 
Q 1341 3275 1631 3429 
Q 1922 3584 2338 3584 
Q 2397 3584 2469 3576 
Q 2541 3569 2628 3553 
L 2631 2963 
z
" transform="scale(0.015625)"/>
       <path id="DejaVuSans-69" d="M 603 3500 
L 1178 3500 
L 1178 0 
L 603 0 
L 603 3500 
z
M 603 4863 
L 1178 4863 
L 1178 4134 
L 603 4134 
L 603 4863 
z
" transform="scale(0.015625)"/>
       <path id="DejaVuSans-6f" d="M 1959 3097 
Q 1497 3097 1228 2736 
Q 959 2375 959 1747 
Q 959 1119 1226 758 
Q 1494 397 1959 397 
Q 2419 397 2687 759 
Q 2956 1122 2956 1747 
Q 2956 2369 2687 2733 
Q 2419 3097 1959 3097 
z
M 1959 3584 
Q 2709 3584 3137 3096 
Q 3566 2609 3566 1747 
Q 3566 888 3137 398 
Q 2709 -91 1959 -91 
Q 1206 -91 779 398 
Q 353 888 353 1747 
Q 353 2609 779 3096 
Q 1206 3584 1959 3584 
z
" transform="scale(0.015625)"/>
       <path id="DejaVuSans-64" d="M 2906 2969 
L 2906 4863 
L 3481 4863 
L 3481 0 
L 2906 0 
L 2906 525 
Q 2725 213 2448 61 
Q 2172 -91 1784 -91 
Q 1150 -91 751 415 
Q 353 922 353 1747 
Q 353 2572 751 3078 
Q 1150 3584 1784 3584 
Q 2172 3584 2448 3432 
Q 2725 3281 2906 2969 
z
M 947 1747 
Q 947 1113 1208 752 
Q 1469 391 1925 391 
Q 2381 391 2643 752 
Q 2906 1113 2906 1747 
Q 2906 2381 2643 2742 
Q 2381 3103 1925 3103 
Q 1469 3103 1208 2742 
Q 947 2381 947 1747 
z
" transform="scale(0.015625)"/>
       <path id="DejaVuSans-2c" d="M 750 794 
L 1409 794 
L 1409 256 
L 897 -744 
L 494 -744 
L 750 256 
L 750 794 
z
" transform="scale(0.015625)"/>
       <path id="DejaVuSans-20" transform="scale(0.015625)"/>
       <path id="DejaVuSans-54" d="M -19 4666 
L 3928 4666 
L 3928 4134 
L 2272 4134 
L 2272 0 
L 1638 0 
L 1638 4134 
L -19 4134 
L -19 4666 
z
" transform="scale(0.015625)"/>
       <path id="DejaVuSans-28" d="M 1984 4856 
Q 1566 4138 1362 3434 
Q 1159 2731 1159 2009 
Q 1159 1288 1364 580 
Q 1569 -128 1984 -844 
L 1484 -844 
Q 1016 -109 783 600 
Q 550 1309 550 2009 
Q 550 2706 781 3412 
Q 1013 4119 1484 4856 
L 1984 4856 
z
" transform="scale(0.015625)"/>
       <path id="DejaVuSans-73" d="M 2834 3397 
L 2834 2853 
Q 2591 2978 2328 3040 
Q 2066 3103 1784 3103 
Q 1356 3103 1142 2972 
Q 928 2841 928 2578 
Q 928 2378 1081 2264 
Q 1234 2150 1697 2047 
L 1894 2003 
Q 2506 1872 2764 1633 
Q 3022 1394 3022 966 
Q 3022 478 2636 193 
Q 2250 -91 1575 -91 
Q 1294 -91 989 -36 
Q 684 19 347 128 
L 347 722 
Q 666 556 975 473 
Q 1284 391 1588 391 
Q 1994 391 2212 530 
Q 2431 669 2431 922 
Q 2431 1156 2273 1281 
Q 2116 1406 1581 1522 
L 1381 1569 
Q 847 1681 609 1914 
Q 372 2147 372 2553 
Q 372 3047 722 3315 
Q 1072 3584 1716 3584 
Q 2034 3584 2315 3537 
Q 2597 3491 2834 3397 
z
" transform="scale(0.015625)"/>
       <path id="DejaVuSans-29" d="M 513 4856 
L 1013 4856 
Q 1481 4119 1714 3412 
Q 1947 2706 1947 2009 
Q 1947 1309 1714 600 
Q 1481 -109 1013 -844 
L 513 -844 
Q 928 -128 1133 580 
Q 1338 1288 1338 2009 
Q 1338 2731 1133 3434 
Q 928 4138 513 4856 
z
" transform="scale(0.015625)"/>
      </defs>
      <use xlink:href="#DejaVuSans-50"/>
      <use xlink:href="#DejaVuSans-65" x="56.677734"/>
      <use xlink:href="#DejaVuSans-72" x="118.201172"/>
      <use xlink:href="#DejaVuSans-69" x="159.314453"/>
      <use xlink:href="#DejaVuSans-6f" x="187.097656"/>
      <use xlink:href="#DejaVuSans-64" x="248.279297"/>
      <use xlink:href="#DejaVuSans-2c" x="311.755859"/>
      <use xlink:href="#DejaVuSans-20" x="343.542969"/>
      <use xlink:href="#DejaVuSans-54" x="375.330078"/>
      <use xlink:href="#DejaVuSans-20" x="436.414062"/>
      <use xlink:href="#DejaVuSans-28" x="468.201172"/>
      <use xlink:href="#DejaVuSans-73" x="507.214844"/>
      <use xlink:href="#DejaVuSans-29" x="559.314453"/>
     </g>
    </g>
   </g>
   <g id="matplotlib.axis_2">
    <g id="ytick_1">
     <g id="line2d_29">
      <path d="M 44.7425 94.975816 
L 242.2745 94.975816 
" clip-path="url(#p921e1ab895)" style="fill: none; stroke: #d9d9d9; stroke-width: 0.8; stroke-linecap: square"/>
     </g>
     <g id="line2d_30">
      <defs>
       <path id="m2d3b35df43" d="M 0 0 
L -3.5 0 
" style="stroke: #000000; stroke-width: 0.8"/>
      </defs>
      <g>
       <use xlink:href="#m2d3b35df43" x="44.7425" y="94.975816" style="stroke: #000000; stroke-width: 0.8"/>
      </g>
     </g>
     <g id="text_4">
      <!-- $\mathdefault{10^{-1}}$ -->
      <g transform="translate(18.9425 98.015191) scale(0.08 -0.08)">
       <use xlink:href="#DejaVuSans-31" transform="translate(0 0.684375)"/>
       <use xlink:href="#DejaVuSans-30" transform="translate(63.623047 0.684375)"/>
       <use xlink:href="#DejaVuSans-2212" transform="translate(128.203125 38.965625) scale(0.7)"/>
       <use xlink:href="#DejaVuSans-31" transform="translate(186.855469 38.965625) scale(0.7)"/>
      </g>
     </g>
    </g>
    <g id="ytick_2">
     <g id="line2d_31">
      <path d="M 44.7425 17.661613 
L 242.2745 17.661613 
" clip-path="url(#p921e1ab895)" style="fill: none; stroke: #d9d9d9; stroke-width: 0.8; stroke-linecap: square"/>
     </g>
     <g id="line2d_32">
      <g>
       <use xlink:href="#m2d3b35df43" x="44.7425" y="17.661613" style="stroke: #000000; stroke-width: 0.8"/>
      </g>
     </g>
     <g id="text_5">
      <!-- $\mathdefault{10^{0}}$ -->
      <g transform="translate(23.6625 20.700988) scale(0.08 -0.08)">
       <use xlink:href="#DejaVuSans-31" transform="translate(0 0.765625)"/>
       <use xlink:href="#DejaVuSans-30" transform="translate(63.623047 0.765625)"/>
       <use xlink:href="#DejaVuSans-30" transform="translate(128.203125 39.046875) scale(0.7)"/>
      </g>
     </g>
    </g>
    <g id="ytick_3">
     <g id="line2d_33">
      <path d="M 44.7425 135.401769 
L 242.2745 135.401769 
" clip-path="url(#p921e1ab895)" style="fill: none; stroke-dasharray: 2.96,1.28; stroke-dashoffset: 0; stroke: #f2f2f2; stroke-width: 0.8"/>
     </g>
     <g id="line2d_34">
      <defs>
       <path id="m39be33a68f" d="M 0 0 
L -2 0 
" style="stroke: #000000; stroke-width: 0.6"/>
      </defs>
      <g>
       <use xlink:href="#m39be33a68f" x="44.7425" y="135.401769" style="stroke: #000000; stroke-width: 0.6"/>
      </g>
     </g>
    </g>
    <g id="ytick_4">
     <g id="line2d_35">
      <path d="M 44.7425 125.74223 
L 242.2745 125.74223 
" clip-path="url(#p921e1ab895)" style="fill: none; stroke-dasharray: 2.96,1.28; stroke-dashoffset: 0; stroke: #f2f2f2; stroke-width: 0.8"/>
     </g>
     <g id="line2d_36">
      <g>
       <use xlink:href="#m39be33a68f" x="44.7425" y="125.74223" style="stroke: #000000; stroke-width: 0.6"/>
      </g>
     </g>
    </g>
    <g id="ytick_5">
     <g id="line2d_37">
      <path d="M 44.7425 118.24971 
L 242.2745 118.24971 
" clip-path="url(#p921e1ab895)" style="fill: none; stroke-dasharray: 2.96,1.28; stroke-dashoffset: 0; stroke: #f2f2f2; stroke-width: 0.8"/>
     </g>
     <g id="line2d_38">
      <g>
       <use xlink:href="#m39be33a68f" x="44.7425" y="118.24971" style="stroke: #000000; stroke-width: 0.6"/>
      </g>
     </g>
    </g>
    <g id="ytick_6">
     <g id="line2d_39">
      <path d="M 44.7425 112.127875 
L 242.2745 112.127875 
" clip-path="url(#p921e1ab895)" style="fill: none; stroke-dasharray: 2.96,1.28; stroke-dashoffset: 0; stroke: #f2f2f2; stroke-width: 0.8"/>
     </g>
     <g id="line2d_40">
      <g>
       <use xlink:href="#m39be33a68f" x="44.7425" y="112.127875" style="stroke: #000000; stroke-width: 0.6"/>
      </g>
     </g>
    </g>
    <g id="ytick_7">
     <g id="line2d_41">
      <path d="M 44.7425 106.951937 
L 242.2745 106.951937 
" clip-path="url(#p921e1ab895)" style="fill: none; stroke-dasharray: 2.96,1.28; stroke-dashoffset: 0; stroke: #f2f2f2; stroke-width: 0.8"/>
     </g>
     <g id="line2d_42">
      <g>
       <use xlink:href="#m39be33a68f" x="44.7425" y="106.951937" style="stroke: #000000; stroke-width: 0.6"/>
      </g>
     </g>
    </g>
    <g id="ytick_8">
     <g id="line2d_43">
      <path d="M 44.7425 102.468336 
L 242.2745 102.468336 
" clip-path="url(#p921e1ab895)" style="fill: none; stroke-dasharray: 2.96,1.28; stroke-dashoffset: 0; stroke: #f2f2f2; stroke-width: 0.8"/>
     </g>
     <g id="line2d_44">
      <g>
       <use xlink:href="#m39be33a68f" x="44.7425" y="102.468336" style="stroke: #000000; stroke-width: 0.6"/>
      </g>
     </g>
    </g>
    <g id="ytick_9">
     <g id="line2d_45">
      <path d="M 44.7425 98.51352 
L 242.2745 98.51352 
" clip-path="url(#p921e1ab895)" style="fill: none; stroke-dasharray: 2.96,1.28; stroke-dashoffset: 0; stroke: #f2f2f2; stroke-width: 0.8"/>
     </g>
     <g id="line2d_46">
      <g>
       <use xlink:href="#m39be33a68f" x="44.7425" y="98.51352" style="stroke: #000000; stroke-width: 0.6"/>
      </g>
     </g>
    </g>
    <g id="ytick_10">
     <g id="line2d_47">
      <path d="M 44.7425 71.701922 
L 242.2745 71.701922 
" clip-path="url(#p921e1ab895)" style="fill: none; stroke-dasharray: 2.96,1.28; stroke-dashoffset: 0; stroke: #f2f2f2; stroke-width: 0.8"/>
     </g>
     <g id="line2d_48">
      <g>
       <use xlink:href="#m39be33a68f" x="44.7425" y="71.701922" style="stroke: #000000; stroke-width: 0.6"/>
      </g>
     </g>
    </g>
    <g id="ytick_11">
     <g id="line2d_49">
      <path d="M 44.7425 58.087566 
L 242.2745 58.087566 
" clip-path="url(#p921e1ab895)" style="fill: none; stroke-dasharray: 2.96,1.28; stroke-dashoffset: 0; stroke: #f2f2f2; stroke-width: 0.8"/>
     </g>
     <g id="line2d_50">
      <g>
       <use xlink:href="#m39be33a68f" x="44.7425" y="58.087566" style="stroke: #000000; stroke-width: 0.6"/>
      </g>
     </g>
    </g>
    <g id="ytick_12">
     <g id="line2d_51">
      <path d="M 44.7425 48.428028 
L 242.2745 48.428028 
" clip-path="url(#p921e1ab895)" style="fill: none; stroke-dasharray: 2.96,1.28; stroke-dashoffset: 0; stroke: #f2f2f2; stroke-width: 0.8"/>
     </g>
     <g id="line2d_52">
      <g>
       <use xlink:href="#m39be33a68f" x="44.7425" y="48.428028" style="stroke: #000000; stroke-width: 0.6"/>
      </g>
     </g>
    </g>
    <g id="ytick_13">
     <g id="line2d_53">
      <path d="M 44.7425 40.935507 
L 242.2745 40.935507 
" clip-path="url(#p921e1ab895)" style="fill: none; stroke-dasharray: 2.96,1.28; stroke-dashoffset: 0; stroke: #f2f2f2; stroke-width: 0.8"/>
     </g>
     <g id="line2d_54">
      <g>
       <use xlink:href="#m39be33a68f" x="44.7425" y="40.935507" style="stroke: #000000; stroke-width: 0.6"/>
      </g>
     </g>
    </g>
    <g id="ytick_14">
     <g id="line2d_55">
      <path d="M 44.7425 34.813672 
L 242.2745 34.813672 
" clip-path="url(#p921e1ab895)" style="fill: none; stroke-dasharray: 2.96,1.28; stroke-dashoffset: 0; stroke: #f2f2f2; stroke-width: 0.8"/>
     </g>
     <g id="line2d_56">
      <g>
       <use xlink:href="#m39be33a68f" x="44.7425" y="34.813672" style="stroke: #000000; stroke-width: 0.6"/>
      </g>
     </g>
    </g>
    <g id="ytick_15">
     <g id="line2d_57">
      <path d="M 44.7425 29.637735 
L 242.2745 29.637735 
" clip-path="url(#p921e1ab895)" style="fill: none; stroke-dasharray: 2.96,1.28; stroke-dashoffset: 0; stroke: #f2f2f2; stroke-width: 0.8"/>
     </g>
     <g id="line2d_58">
      <g>
       <use xlink:href="#m39be33a68f" x="44.7425" y="29.637735" style="stroke: #000000; stroke-width: 0.6"/>
      </g>
     </g>
    </g>
    <g id="ytick_16">
     <g id="line2d_59">
      <path d="M 44.7425 25.154133 
L 242.2745 25.154133 
" clip-path="url(#p921e1ab895)" style="fill: none; stroke-dasharray: 2.96,1.28; stroke-dashoffset: 0; stroke: #f2f2f2; stroke-width: 0.8"/>
     </g>
     <g id="line2d_60">
      <g>
       <use xlink:href="#m39be33a68f" x="44.7425" y="25.154133" style="stroke: #000000; stroke-width: 0.6"/>
      </g>
     </g>
    </g>
    <g id="ytick_17">
     <g id="line2d_61">
      <path d="M 44.7425 21.199317 
L 242.2745 21.199317 
" clip-path="url(#p921e1ab895)" style="fill: none; stroke-dasharray: 2.96,1.28; stroke-dashoffset: 0; stroke: #f2f2f2; stroke-width: 0.8"/>
     </g>
     <g id="line2d_62">
      <g>
       <use xlink:href="#m39be33a68f" x="44.7425" y="21.199317" style="stroke: #000000; stroke-width: 0.6"/>
      </g>
     </g>
    </g>
    <g id="text_6">
     <!-- Spectral acceleration, SA (g) -->
     <g transform="translate(13.27875 129.871075) rotate(-90) scale(0.08 -0.08)">
      <defs>
       <path id="DejaVuSans-53" d="M 3425 4513 
L 3425 3897 
Q 3066 4069 2747 4153 
Q 2428 4238 2131 4238 
Q 1616 4238 1336 4038 
Q 1056 3838 1056 3469 
Q 1056 3159 1242 3001 
Q 1428 2844 1947 2747 
L 2328 2669 
Q 3034 2534 3370 2195 
Q 3706 1856 3706 1288 
Q 3706 609 3251 259 
Q 2797 -91 1919 -91 
Q 1588 -91 1214 -16 
Q 841 59 441 206 
L 441 856 
Q 825 641 1194 531 
Q 1563 422 1919 422 
Q 2459 422 2753 634 
Q 3047 847 3047 1241 
Q 3047 1584 2836 1778 
Q 2625 1972 2144 2069 
L 1759 2144 
Q 1053 2284 737 2584 
Q 422 2884 422 3419 
Q 422 4038 858 4394 
Q 1294 4750 2059 4750 
Q 2388 4750 2728 4690 
Q 3069 4631 3425 4513 
z
" transform="scale(0.015625)"/>
       <path id="DejaVuSans-70" d="M 1159 525 
L 1159 -1331 
L 581 -1331 
L 581 3500 
L 1159 3500 
L 1159 2969 
Q 1341 3281 1617 3432 
Q 1894 3584 2278 3584 
Q 2916 3584 3314 3078 
Q 3713 2572 3713 1747 
Q 3713 922 3314 415 
Q 2916 -91 2278 -91 
Q 1894 -91 1617 61 
Q 1341 213 1159 525 
z
M 3116 1747 
Q 3116 2381 2855 2742 
Q 2594 3103 2138 3103 
Q 1681 3103 1420 2742 
Q 1159 2381 1159 1747 
Q 1159 1113 1420 752 
Q 1681 391 2138 391 
Q 2594 391 2855 752 
Q 3116 1113 3116 1747 
z
" transform="scale(0.015625)"/>
       <path id="DejaVuSans-63" d="M 3122 3366 
L 3122 2828 
Q 2878 2963 2633 3030 
Q 2388 3097 2138 3097 
Q 1578 3097 1268 2742 
Q 959 2388 959 1747 
Q 959 1106 1268 751 
Q 1578 397 2138 397 
Q 2388 397 2633 464 
Q 2878 531 3122 666 
L 3122 134 
Q 2881 22 2623 -34 
Q 2366 -91 2075 -91 
Q 1284 -91 818 406 
Q 353 903 353 1747 
Q 353 2603 823 3093 
Q 1294 3584 2113 3584 
Q 2378 3584 2631 3529 
Q 2884 3475 3122 3366 
z
" transform="scale(0.015625)"/>
       <path id="DejaVuSans-74" d="M 1172 4494 
L 1172 3500 
L 2356 3500 
L 2356 3053 
L 1172 3053 
L 1172 1153 
Q 1172 725 1289 603 
Q 1406 481 1766 481 
L 2356 481 
L 2356 0 
L 1766 0 
Q 1100 0 847 248 
Q 594 497 594 1153 
L 594 3053 
L 172 3053 
L 172 3500 
L 594 3500 
L 594 4494 
L 1172 4494 
z
" transform="scale(0.015625)"/>
       <path id="DejaVuSans-61" d="M 2194 1759 
Q 1497 1759 1228 1600 
Q 959 1441 959 1056 
Q 959 750 1161 570 
Q 1363 391 1709 391 
Q 2188 391 2477 730 
Q 2766 1069 2766 1631 
L 2766 1759 
L 2194 1759 
z
M 3341 1997 
L 3341 0 
L 2766 0 
L 2766 531 
Q 2569 213 2275 61 
Q 1981 -91 1556 -91 
Q 1019 -91 701 211 
Q 384 513 384 1019 
Q 384 1609 779 1909 
Q 1175 2209 1959 2209 
L 2766 2209 
L 2766 2266 
Q 2766 2663 2505 2880 
Q 2244 3097 1772 3097 
Q 1472 3097 1187 3025 
Q 903 2953 641 2809 
L 641 3341 
Q 956 3463 1253 3523 
Q 1550 3584 1831 3584 
Q 2591 3584 2966 3190 
Q 3341 2797 3341 1997 
z
" transform="scale(0.015625)"/>
       <path id="DejaVuSans-6c" d="M 603 4863 
L 1178 4863 
L 1178 0 
L 603 0 
L 603 4863 
z
" transform="scale(0.015625)"/>
       <path id="DejaVuSans-6e" d="M 3513 2113 
L 3513 0 
L 2938 0 
L 2938 2094 
Q 2938 2591 2744 2837 
Q 2550 3084 2163 3084 
Q 1697 3084 1428 2787 
Q 1159 2491 1159 1978 
L 1159 0 
L 581 0 
L 581 3500 
L 1159 3500 
L 1159 2956 
Q 1366 3272 1645 3428 
Q 1925 3584 2291 3584 
Q 2894 3584 3203 3211 
Q 3513 2838 3513 2113 
z
" transform="scale(0.015625)"/>
       <path id="DejaVuSans-41" d="M 2188 4044 
L 1331 1722 
L 3047 1722 
L 2188 4044 
z
M 1831 4666 
L 2547 4666 
L 4325 0 
L 3669 0 
L 3244 1197 
L 1141 1197 
L 716 0 
L 50 0 
L 1831 4666 
z
" transform="scale(0.015625)"/>
       <path id="DejaVuSans-67" d="M 2906 1791 
Q 2906 2416 2648 2759 
Q 2391 3103 1925 3103 
Q 1463 3103 1205 2759 
Q 947 2416 947 1791 
Q 947 1169 1205 825 
Q 1463 481 1925 481 
Q 2391 481 2648 825 
Q 2906 1169 2906 1791 
z
M 3481 434 
Q 3481 -459 3084 -895 
Q 2688 -1331 1869 -1331 
Q 1566 -1331 1297 -1286 
Q 1028 -1241 775 -1147 
L 775 -588 
Q 1028 -725 1275 -790 
Q 1522 -856 1778 -856 
Q 2344 -856 2625 -561 
Q 2906 -266 2906 331 
L 2906 616 
Q 2728 306 2450 153 
Q 2172 0 1784 0 
Q 1141 0 747 490 
Q 353 981 353 1791 
Q 353 2603 747 3093 
Q 1141 3584 1784 3584 
Q 2172 3584 2450 3431 
Q 2728 3278 2906 2969 
L 2906 3500 
L 3481 3500 
L 3481 434 
z
" transform="scale(0.015625)"/>
      </defs>
      <use xlink:href="#DejaVuSans-53"/>
      <use xlink:href="#DejaVuSans-70" x="63.476562"/>
      <use xlink:href="#DejaVuSans-65" x="126.953125"/>
      <use xlink:href="#DejaVuSans-63" x="188.476562"/>
      <use xlink:href="#DejaVuSans-74" x="243.457031"/>
      <use xlink:href="#DejaVuSans-72" x="282.666016"/>
      <use xlink:href="#DejaVuSans-61" x="323.779297"/>
      <use xlink:href="#DejaVuSans-6c" x="385.058594"/>
      <use xlink:href="#DejaVuSans-20" x="412.841797"/>
      <use xlink:href="#DejaVuSans-61" x="444.628906"/>
      <use xlink:href="#DejaVuSans-63" x="505.908203"/>
      <use xlink:href="#DejaVuSans-63" x="560.888672"/>
      <use xlink:href="#DejaVuSans-65" x="615.869141"/>
      <use xlink:href="#DejaVuSans-6c" x="677.392578"/>
      <use xlink:href="#DejaVuSans-65" x="705.175781"/>
      <use xlink:href="#DejaVuSans-72" x="766.699219"/>
      <use xlink:href="#DejaVuSans-61" x="807.8125"/>
      <use xlink:href="#DejaVuSans-74" x="869.091797"/>
      <use xlink:href="#DejaVuSans-69" x="908.300781"/>
      <use xlink:href="#DejaVuSans-6f" x="936.083984"/>
      <use xlink:href="#DejaVuSans-6e" x="997.265625"/>
      <use xlink:href="#DejaVuSans-2c" x="1060.644531"/>
      <use xlink:href="#DejaVuSans-20" x="1092.431641"/>
      <use xlink:href="#DejaVuSans-53" x="1124.21875"/>
      <use xlink:href="#DejaVuSans-41" x="1189.570312"/>
      <use xlink:href="#DejaVuSans-20" x="1257.978516"/>
      <use xlink:href="#DejaVuSans-28" x="1289.765625"/>
      <use xlink:href="#DejaVuSans-67" x="1328.779297"/>
      <use xlink:href="#DejaVuSans-29" x="1392.255859"/>
     </g>
    </g>
   </g>
   <g id="line2d_63">
    <path d="M 53.721227 38.763975 
L 73.459257 33.280754 
L 87.463612 31.100291 
L 98.326234 32.690798 
L 107.201642 36.19824 
L 121.205997 42.973536 
L 129.979883 45.999707 
L 132.068618 46.501342 
L 151.806648 49.628786 
L 165.811003 52.504978 
L 178.582888 63.560759 
L 185.549033 66.593503 
L 199.553388 79.357899 
L 219.291418 109.432462 
L 233.295773 132.0912 
" clip-path="url(#p921e1ab895)" style="fill: none; stroke: #b2b2b2; stroke-width: 0.8; stroke-linecap: square"/>
   </g>
   <g id="line2d_64">
    <path d="M 53.721227 38.988539 
L 73.459257 35.733113 
L 87.463612 36.715014 
L 98.326234 39.173433 
L 107.201642 42.128946 
L 121.205997 45.490515 
L 129.979883 45.999707 
L 132.068618 47.170458 
L 151.806648 52.630097 
L 165.811003 58.598246 
L 178.582888 64.29052 
L 185.549033 67.03169 
L 199.553388 71.033047 
L 219.291418 72.348031 
L 233.295773 75.815314 
" clip-path="url(#p921e1ab895)" style="fill: none; stroke: #b2b2b2; stroke-width: 0.8; stroke-linecap: square"/>
   </g>
   <g id="line2d_65">
    <path d="M 53.721227 32.01952 
L 73.459257 32.989455 
L 87.463612 33.023603 
L 98.326234 31.859871 
L 107.201642 34.68917 
L 121.205997 43.48869 
L 129.979883 45.999707 
L 132.068618 45.837908 
L 151.806648 56.717859 
L 165.811003 61.730399 
L 178.582888 65.209269 
L 185.549033 71.618815 
L 199.553388 76.261785 
L 219.291418 88.302588 
L 233.295773 100.441293 
" clip-path="url(#p921e1ab895)" style="fill: none; stroke: #b2b2b2; stroke-width: 0.8; stroke-linecap: square"/>
   </g>
   <g id="line2d_66">
    <path d="M 53.721227 33.779295 
L 73.459257 33.130922 
L 87.463612 33.669077 
L 98.326234 32.779424 
L 107.201642 33.895588 
L 121.205997 42.876723 
L 129.979883 45.999707 
L 132.068618 47.417906 
L 151.806648 53.840867 
L 165.811003 58.349797 
L 178.582888 65.177329 
L 185.549033 70.745544 
L 199.553388 76.844531 
L 219.291418 92.107701 
L 233.295773 105.88471 
" clip-path="url(#p921e1ab895)" style="fill: none; stroke: #b2b2b2; stroke-width: 0.8; stroke-linecap: square"/>
   </g>
   <g id="line2d_67">
    <path d="M 53.721227 33.997913 
L 73.459257 32.13698 
L 87.463612 31.08433 
L 98.326234 32.860631 
L 107.201642 35.515186 
L 121.205997 44.588745 
L 129.979883 45.999707 
L 132.068618 45.386057 
L 151.806648 51.493774 
L 165.811003 56.74106 
L 178.582888 66.117822 
L 185.549033 69.717396 
L 199.553388 76.273003 
L 219.291418 95.010801 
L 233.295773 111.093596 
" clip-path="url(#p921e1ab895)" style="fill: none; stroke: #b2b2b2; stroke-width: 0.8; stroke-linecap: square"/>
   </g>
   <g id="line2d_68">
    <path d="M 53.721227 37.951133 
L 73.459257 40.145872 
L 87.463612 41.678017 
L 98.326234 40.297558 
L 107.201642 43.521934 
L 121.205997 46.249964 
L 129.979883 45.999707 
L 132.068618 45.06234 
L 151.806648 48.169924 
L 165.811003 55.924365 
L 178.582888 62.292702 
L 185.549033 66.70054 
L 199.553388 73.888112 
L 219.291418 88.748586 
L 233.295773 102.136984 
" clip-path="url(#p921e1ab895)" style="fill: none; stroke: #b2b2b2; stroke-width: 0.8; stroke-linecap: square"/>
   </g>
   <g id="line2d_69">
    <path d="M 53.721227 51.478441 
L 73.459257 48.40343 
L 87.463612 48.592287 
L 98.326234 48.469365 
L 107.201642 46.809204 
L 121.205997 46.544388 
L 129.979883 45.999707 
L 132.068618 45.419436 
L 151.806648 47.899018 
L 165.811003 49.122057 
L 178.582888 51.995568 
L 185.549033 51.851845 
L 199.553388 55.452923 
L 219.291418 54.63655 
L 233.295773 61.628484 
" clip-path="url(#p921e1ab895)" style="fill: none; stroke: #b2b2b2; stroke-width: 0.8; stroke-linecap: square"/>
   </g>
   <g id="line2d_70">
    <path d="M 53.721227 38.643014 
L 73.459257 41.922019 
L 87.463612 46.786691 
L 98.326234 46.230415 
L 107.201642 47.908054 
L 121.205997 46.793084 
L 129.979883 45.999707 
L 132.068618 46.611719 
L 151.806648 54.14207 
L 165.811003 60.68391 
L 178.582888 71.420674 
L 185.549033 79.607583 
L 199.553388 87.370082 
L 219.291418 108.820606 
L 233.295773 125.699799 
" clip-path="url(#p921e1ab895)" style="fill: none; stroke: #b2b2b2; stroke-width: 0.8; stroke-linecap: square"/>
   </g>
   <g id="line2d_71">
    <path d="M 53.721227 37.932925 
L 73.459257 37.94739 
L 87.463612 38.143341 
L 98.326234 38.988639 
L 107.201642 40.783326 
L 121.205997 45.598539 
L 129.979883 45.999707 
L 132.068618 45.864256 
L 151.806648 45.253379 
L 165.811003 46.102447 
L 178.582888 47.167224 
L 185.549033 47.262538 
L 199.553388 49.237645 
L 219.291418 62.326661 
L 233.295773 79.775844 
" clip-path="url(#p921e1ab895)" style="fill: none; stroke: #b2b2b2; stroke-width: 0.8; stroke-linecap: square"/>
   </g>
   <g id="line2d_72">
    <path d="M 53.721227 61.084401 
L 73.459257 60.447445 
L 87.463612 59.126339 
L 98.326234 55.799914 
L 107.201642 51.752665 
L 121.205997 46.166837 
L 129.979883 45.999707 
L 132.068618 44.982401 
L 151.806648 45.099184 
L 165.811003 51.703391 
L 178.582888 60.340359 
L 185.549033 67.541745 
L 199.553388 75.032299 
L 219.291418 91.80247 
L 233.295773 111.184959 
" clip-path="url(#p921e1ab895)" style="fill: none; stroke: #b2b2b2; stroke-width: 0.8; stroke-linecap: square"/>
   </g>
   <g id="line2d_73">
    <path d="M 53.721227 47.006585 
L 73.459257 44.807854 
L 87.463612 45.427899 
L 98.326234 46.776189 
L 107.201642 48.078442 
L 121.205997 46.36151 
L 129.979883 45.999707 
L 132.068618 45.359055 
L 151.806648 48.215701 
L 165.811003 60.941997 
L 178.582888 70.602507 
L 185.549033 76.297913 
L 199.553388 93.384664 
L 219.291418 108.181191 
L 233.295773 118.966442 
" clip-path="url(#p921e1ab895)" style="fill: none; stroke: #b2b2b2; stroke-width: 0.8; stroke-linecap: square"/>
   </g>
   <g id="line2d_74">
    <path d="M 53.721227 59.864477 
L 73.459257 53.017217 
L 87.463612 53.21077 
L 98.326234 52.541097 
L 107.201642 49.693831 
L 121.205997 49.454134 
L 129.979883 45.999707 
L 132.068618 45.142656 
L 151.806648 45.758055 
L 165.811003 55.344226 
L 178.582888 57.728885 
L 185.549033 61.036498 
L 199.553388 74.693385 
L 219.291418 83.513053 
L 233.295773 94.208196 
" clip-path="url(#p921e1ab895)" style="fill: none; stroke: #b2b2b2; stroke-width: 0.8; stroke-linecap: square"/>
   </g>
   <g id="line2d_75">
    <path d="M 53.721227 40.794869 
L 73.459257 35.946546 
L 87.463612 32.090618 
L 98.326234 37.052392 
L 107.201642 37.010448 
L 121.205997 42.406885 
L 129.979883 45.999707 
L 132.068618 48.400242 
L 151.806648 59.083209 
L 165.811003 62.571689 
L 178.582888 66.076585 
L 185.549033 64.512129 
L 199.553388 76.996327 
L 219.291418 87.503849 
L 233.295773 98.475048 
" clip-path="url(#p921e1ab895)" style="fill: none; stroke: #b2b2b2; stroke-width: 0.8; stroke-linecap: square"/>
   </g>
   <g id="line2d_76">
    <path d="M 53.721227 68.968212 
L 73.459257 63.47976 
L 87.463612 58.335958 
L 98.326234 55.629072 
L 107.201642 52.589875 
L 121.205997 47.375936 
L 129.979883 45.999707 
L 132.068618 44.838545 
L 151.806648 44.015466 
L 165.811003 46.963905 
L 178.582888 49.721289 
L 185.549033 49.234044 
L 199.553388 62.1855 
L 219.291418 74.404647 
L 233.295773 89.916161 
" clip-path="url(#p921e1ab895)" style="fill: none; stroke: #b2b2b2; stroke-width: 0.8; stroke-linecap: square"/>
   </g>
   <g id="line2d_77">
    <path d="M 53.721227 28.190417 
L 73.459257 24.818229 
L 87.463612 25.712024 
L 98.326234 28.536337 
L 107.201642 35.077316 
L 121.205997 39.855951 
L 129.979883 45.999707 
L 132.068618 44.588446 
L 151.806648 54.850687 
L 165.811003 59.95647 
L 178.582888 60.692952 
L 185.549033 63.909869 
L 199.553388 71.787653 
L 219.291418 90.873353 
L 233.295773 102.385717 
" clip-path="url(#p921e1ab895)" style="fill: none; stroke: #b2b2b2; stroke-width: 0.8; stroke-linecap: square"/>
   </g>
   <g id="line2d_78">
    <path d="M 53.721227 23.109909 
L 73.459257 26.644954 
L 87.463612 31.164008 
L 98.326234 38.177811 
L 107.201642 43.776132 
L 121.205997 43.626579 
L 129.979883 45.999707 
L 132.068618 47.430127 
L 151.806648 53.155677 
L 165.811003 55.185537 
L 178.582888 55.217064 
L 185.549033 57.571697 
L 199.553388 57.234183 
L 219.291418 69.46925 
L 233.295773 79.064621 
" clip-path="url(#p921e1ab895)" style="fill: none; stroke: #b2b2b2; stroke-width: 0.8; stroke-linecap: square"/>
   </g>
   <g id="line2d_79">
    <path d="M 53.721227 35.230119 
L 73.459257 35.914701 
L 87.463612 38.496403 
L 98.326234 39.043818 
L 107.201642 41.174136 
L 121.205997 44.875104 
L 129.979883 45.999707 
L 132.068618 46.863131 
L 151.806648 48.70755 
L 165.811003 52.305213 
L 178.582888 56.27545 
L 185.549033 59.346427 
L 199.553388 68.456936 
L 219.291418 84.020927 
L 233.295773 92.982308 
" clip-path="url(#p921e1ab895)" style="fill: none; stroke: #b2b2b2; stroke-width: 0.8; stroke-linecap: square"/>
   </g>
   <g id="line2d_80">
    <path d="M 53.721227 46.35678 
L 73.459257 39.895436 
L 87.463612 40.25336 
L 98.326234 39.242443 
L 107.201642 42.527742 
L 121.205997 43.034234 
L 129.979883 45.999707 
L 132.068618 46.439045 
L 151.806648 62.466267 
L 165.811003 69.559479 
L 178.582888 78.420526 
L 185.549033 86.790679 
L 199.553388 101.294473 
L 219.291418 113.09078 
L 233.295773 118.394528 
" clip-path="url(#p921e1ab895)" style="fill: none; stroke: #b2b2b2; stroke-width: 0.8; stroke-linecap: square"/>
   </g>
   <g id="line2d_81">
    <path d="M 53.721227 63.782364 
L 73.459257 57.267841 
L 87.463612 52.129761 
L 98.326234 49.831329 
L 107.201642 49.831363 
L 121.205997 47.945436 
L 129.979883 45.999707 
L 132.068618 44.929088 
L 151.806648 37.933007 
L 165.811003 40.651404 
L 178.582888 39.77214 
L 185.549033 42.354224 
L 199.553388 49.91417 
L 219.291418 68.923625 
L 233.295773 83.230743 
" clip-path="url(#p921e1ab895)" style="fill: none; stroke: #b2b2b2; stroke-width: 0.8; stroke-linecap: square"/>
   </g>
   <g id="line2d_82">
    <path d="M 53.721227 58.90969 
L 73.459257 51.205591 
L 87.463612 46.815101 
L 98.326234 45.738917 
L 107.201642 45.741685 
L 121.205997 45.919537 
L 129.979883 45.999707 
L 132.068618 45.266746 
L 151.806648 47.011438 
L 165.811003 48.02948 
L 178.582888 47.998187 
L 185.549033 52.642251 
L 199.553388 64.598592 
L 219.291418 73.277566 
L 233.295773 86.928908 
" clip-path="url(#p921e1ab895)" style="fill: none; stroke: #b2b2b2; stroke-width: 0.8; stroke-linecap: square"/>
   </g>
   <g id="line2d_83">
    <path d="M 53.721227 36.440487 
L 73.459257 35.751987 
L 87.463612 34.985746 
L 98.326234 37.818937 
L 107.201642 39.314906 
L 121.205997 42.243553 
L 129.979883 45.999707 
L 132.068618 46.985781 
L 151.806648 49.921251 
L 165.811003 53.923113 
L 178.582888 62.286914 
L 185.549033 68.59494 
L 199.553388 76.741329 
L 219.291418 94.88968 
L 233.295773 110.296539 
" clip-path="url(#p921e1ab895)" style="fill: none; stroke: #b2b2b2; stroke-width: 0.8; stroke-linecap: square"/>
   </g>
   <g id="line2d_84">
    <path d="M 53.721227 59.218621 
L 73.459257 58.31349 
L 87.463612 57.598814 
L 98.326234 52.599564 
L 107.201642 48.249178 
L 121.205997 46.189998 
L 129.979883 45.999707 
L 132.068618 45.420145 
L 151.806648 45.497668 
L 165.811003 48.080998 
L 178.582888 51.578942 
L 185.549033 57.528944 
L 199.553388 67.149026 
L 219.291418 77.772934 
L 233.295773 86.823337 
" clip-path="url(#p921e1ab895)" style="fill: none; stroke: #b2b2b2; stroke-width: 0.8; stroke-linecap: square"/>
   </g>
   <g id="line2d_85">
    <path d="M 53.721227 60.760261 
L 73.459257 56.961198 
L 87.463612 54.421345 
L 98.326234 49.871458 
L 107.201642 48.908407 
L 121.205997 45.955241 
L 129.979883 45.999707 
L 132.068618 45.58672 
L 151.806648 46.361959 
L 165.811003 46.838181 
L 178.582888 52.294332 
L 185.549033 56.418661 
L 199.553388 63.952977 
L 219.291418 79.071261 
L 233.295773 99.436948 
" clip-path="url(#p921e1ab895)" style="fill: none; stroke: #b2b2b2; stroke-width: 0.8; stroke-linecap: square"/>
   </g>
   <g id="line2d_86">
    <path d="M 53.721227 66.567889 
L 73.459257 59.489018 
L 87.463612 55.1601 
L 98.326234 53.269443 
L 107.201642 52.397524 
L 121.205997 47.28911 
L 129.979883 45.999707 
L 132.068618 46.315706 
L 151.806648 48.513909 
L 165.811003 51.037538 
L 178.582888 56.810264 
L 185.549033 62.583704 
L 199.553388 69.52547 
L 219.291418 84.789946 
L 233.295773 97.753242 
" clip-path="url(#p921e1ab895)" style="fill: none; stroke: #b2b2b2; stroke-width: 0.8; stroke-linecap: square"/>
   </g>
   <g id="line2d_87">
    <path d="M 53.721227 48.428213 
L 73.459257 47.874097 
L 87.463612 45.725851 
L 98.326234 45.155528 
L 107.201642 45.395046 
L 121.205997 46.38939 
L 129.979883 45.999707 
L 132.068618 44.6072 
L 151.806648 47.781306 
L 165.811003 48.273386 
L 178.582888 54.876795 
L 185.549033 57.247782 
L 199.553388 66.375581 
L 219.291418 87.134234 
L 233.295773 104.047746 
" clip-path="url(#p921e1ab895)" style="fill: none; stroke: #b2b2b2; stroke-width: 0.8; stroke-linecap: square"/>
   </g>
   <g id="line2d_88">
    <path d="M 53.721227 31.237911 
L 73.459257 29.920505 
L 87.463612 30.048727 
L 98.326234 32.886681 
L 107.201642 33.334738 
L 121.205997 39.153286 
L 129.979883 45.999707 
L 132.068618 47.132487 
L 151.806648 62.440414 
L 165.811003 75.778696 
L 178.582888 87.753714 
L 185.549033 92.663496 
L 199.553388 97.151605 
L 219.291418 105.129821 
L 233.295773 116.096995 
" clip-path="url(#p921e1ab895)" style="fill: none; stroke: #b2b2b2; stroke-width: 0.8; stroke-linecap: square"/>
   </g>
   <g id="line2d_89">
    <path d="M 53.721227 31.837192 
L 73.459257 32.376346 
L 87.463612 32.152777 
L 98.326234 34.322444 
L 107.201642 36.200545 
L 121.205997 42.229691 
L 129.979883 45.999707 
L 132.068618 48.566893 
L 151.806648 57.286655 
L 165.811003 61.039287 
L 178.582888 65.614872 
L 185.549033 69.435177 
L 199.553388 74.136583 
L 219.291418 82.435513 
L 233.295773 89.785563 
" clip-path="url(#p921e1ab895)" style="fill: none; stroke: #b2b2b2; stroke-width: 0.8; stroke-linecap: square"/>
   </g>
   <g id="line2d_90">
    <path d="M 53.721227 58.736986 
L 73.459257 52.141654 
L 87.463612 47.378217 
L 98.326234 46.048282 
L 107.201642 43.990583 
L 121.205997 43.767439 
L 129.979883 45.999707 
L 132.068618 44.713631 
L 151.806648 46.102033 
L 165.811003 47.791735 
L 178.582888 49.160322 
L 185.549033 47.268016 
L 199.553388 57.641844 
L 219.291418 78.446982 
L 233.295773 97.79928 
" clip-path="url(#p921e1ab895)" style="fill: none; stroke: #b2b2b2; stroke-width: 0.8; stroke-linecap: square"/>
   </g>
   <g id="line2d_91">
    <path d="M 53.721227 29.108738 
L 73.459257 28.850225 
L 87.463612 30.354624 
L 98.326234 32.584872 
L 107.201642 34.920031 
L 121.205997 42.281294 
L 129.979883 45.999707 
L 132.068618 47.41922 
L 151.806648 56.783323 
L 165.811003 62.641225 
L 178.582888 63.415284 
L 185.549033 65.851775 
L 199.553388 71.878282 
L 219.291418 80.466641 
L 233.295773 96.266118 
" clip-path="url(#p921e1ab895)" style="fill: none; stroke: #b2b2b2; stroke-width: 0.8; stroke-linecap: square"/>
   </g>
   <g id="line2d_92">
    <path d="M 53.721227 42.576028 
L 73.459257 38.577011 
L 87.463612 38.140759 
L 98.326234 40.520408 
L 107.201642 41.982058 
L 121.205997 44.355941 
L 129.979883 45.999707 
L 132.068618 47.055338 
L 151.806648 52.01908 
L 165.811003 56.978224 
L 178.582888 62.531693 
L 185.549033 66.184801 
L 199.553388 73.916515 
L 219.291418 83.889782 
L 233.295773 89.175306 
" clip-path="url(#p921e1ab895)" style="fill: none; stroke: #b2b2b2; stroke-width: 0.8; stroke-linecap: square"/>
   </g>
   <g id="line2d_93">
    <path d="M 53.721227 49.91997 
L 73.459257 47.897808 
L 87.463612 47.756605 
L 98.326234 44.613887 
L 107.201642 44.48519 
L 121.205997 45.680422 
L 129.979883 45.999707 
L 132.068618 47.118699 
L 151.806648 58.638706 
L 165.811003 65.958871 
L 178.582888 71.887991 
L 185.549033 73.10015 
L 199.553388 81.580018 
L 219.291418 96.657994 
L 233.295773 108.378816 
" clip-path="url(#p921e1ab895)" style="fill: none; stroke: #b2b2b2; stroke-width: 0.8; stroke-linecap: square"/>
   </g>
   <g id="line2d_94">
    <path d="M 53.721227 40.085577 
L 73.459257 37.403667 
L 87.463612 39.474732 
L 98.326234 39.019539 
L 107.201642 42.879234 
L 121.205997 44.198781 
L 129.979883 45.999707 
L 132.068618 46.028067 
L 151.806648 51.051278 
L 165.811003 55.752027 
L 178.582888 58.443647 
L 185.549033 62.204384 
L 199.553388 62.509247 
L 219.291418 70.290818 
L 233.295773 83.587064 
" clip-path="url(#p921e1ab895)" style="fill: none; stroke: #b2b2b2; stroke-width: 0.8; stroke-linecap: square"/>
   </g>
   <g id="line2d_95">
    <path d="M 53.721227 49.535787 
L 73.459257 44.671668 
L 87.463612 43.607956 
L 98.326234 44.909366 
L 107.201642 44.278547 
L 121.205997 44.769178 
L 129.979883 45.999707 
L 132.068618 47.869206 
L 151.806648 53.974915 
L 165.811003 56.576401 
L 178.582888 59.1572 
L 185.549033 61.563329 
L 199.553388 70.000379 
L 219.291418 85.437924 
L 233.295773 101.748959 
" clip-path="url(#p921e1ab895)" style="fill: none; stroke: #b2b2b2; stroke-width: 0.8; stroke-linecap: square"/>
   </g>
   <g id="line2d_96">
    <path d="M 53.721227 38.679659 
L 73.459257 40.707803 
L 87.463612 39.28429 
L 98.326234 38.1211 
L 107.201642 37.540968 
L 121.205997 44.890591 
L 129.979883 45.999707 
L 132.068618 47.441301 
L 151.806648 52.501823 
L 165.811003 56.208009 
L 178.582888 62.068179 
L 185.549033 65.936986 
L 199.553388 77.697915 
L 219.291418 96.661094 
L 233.295773 120.145226 
" clip-path="url(#p921e1ab895)" style="fill: none; stroke: #b2b2b2; stroke-width: 0.8; stroke-linecap: square"/>
   </g>
   <g id="line2d_97">
    <path d="M 53.721227 48.869185 
L 73.459257 40.297625 
L 87.463612 36.375259 
L 98.326234 36.741519 
L 107.201642 37.711782 
L 121.205997 44.784628 
L 129.979883 45.999707 
L 132.068618 46.501986 
L 151.806648 52.275957 
L 165.811003 62.645247 
L 178.582888 73.940141 
L 185.549033 79.439121 
L 199.553388 91.957402 
L 219.291418 108.748833 
L 233.295773 120.634883 
" clip-path="url(#p921e1ab895)" style="fill: none; stroke: #b2b2b2; stroke-width: 0.8; stroke-linecap: square"/>
   </g>
   <g id="line2d_98">
    <path d="M 53.721227 44.309636 
L 73.459257 39.72986 
L 87.463612 40.401182 
L 98.326234 41.832268 
L 107.201642 43.215488 
L 121.205997 44.479289 
L 129.979883 45.999707 
L 132.068618 45.691471 
L 151.806648 46.95121 
L 165.811003 51.307498 
L 178.582888 56.811082 
L 185.549033 54.127393 
L 199.553388 56.413094 
L 219.291418 65.765744 
L 233.295773 78.304483 
" clip-path="url(#p921e1ab895)" style="fill: none; stroke: #b2b2b2; stroke-width: 0.8; stroke-linecap: square"/>
   </g>
   <g id="line2d_99">
    <path d="M 53.721227 42.411167 
L 73.459257 39.367449 
L 87.463612 39.884346 
L 98.326234 44.11794 
L 107.201642 44.376307 
L 121.205997 44.352213 
L 129.979883 45.999707 
L 132.068618 44.748532 
L 151.806648 50.850927 
L 165.811003 59.343878 
L 178.582888 69.946412 
L 185.549033 73.051854 
L 199.553388 87.073956 
L 219.291418 102.654763 
L 233.295773 112.962669 
" clip-path="url(#p921e1ab895)" style="fill: none; stroke: #b2b2b2; stroke-width: 0.8; stroke-linecap: square"/>
   </g>
   <g id="line2d_100">
    <path d="M 53.721227 51.693323 
L 73.459257 45.726193 
L 87.463612 41.299119 
L 98.326234 37.063191 
L 107.201642 37.767488 
L 121.205997 41.399538 
L 129.979883 45.999707 
L 132.068618 46.82389 
L 151.806648 52.432818 
L 165.811003 51.275383 
L 178.582888 51.1128 
L 185.549033 57.618208 
L 199.553388 60.152558 
L 219.291418 83.238211 
L 233.295773 97.925907 
" clip-path="url(#p921e1ab895)" style="fill: none; stroke: #b2b2b2; stroke-width: 0.8; stroke-linecap: square"/>
   </g>
   <g id="line2d_101">
    <path d="M 53.721227 13.1472 
L 73.459257 16.093581 
L 87.463612 22.421806 
L 98.326234 24.537554 
L 107.201642 29.13506 
L 121.205997 38.470584 
L 129.979883 45.999707 
L 132.068618 48.106494 
L 151.806648 59.953056 
L 165.811003 73.575706 
L 178.582888 81.595081 
L 185.549033 84.651666 
L 199.553388 93.133494 
L 219.291418 102.869791 
L 233.295773 115.089576 
" clip-path="url(#p921e1ab895)" style="fill: none; stroke: #b2b2b2; stroke-width: 0.8; stroke-linecap: square"/>
   </g>
   <g id="line2d_102">
    <path d="M 53.721227 43.633725 
L 73.459257 41.340959 
L 87.463612 42.399654 
L 98.326234 43.472094 
L 107.201642 41.528039 
L 121.205997 45.435549 
L 129.979883 45.999707 
L 132.068618 46.374939 
L 151.806648 48.088095 
L 165.811003 49.750703 
L 178.582888 55.033699 
L 185.549033 57.051085 
L 199.553388 65.769922 
L 219.291418 79.933112 
L 233.295773 99.195239 
" clip-path="url(#p921e1ab895)" style="fill: none; stroke: #b2b2b2; stroke-width: 0.8; stroke-linecap: square"/>
   </g>
   <g id="line2d_103">
    <path d="M 53.721227 52.855877 
L 73.459257 50.749546 
L 87.463612 48.363559 
L 98.326234 48.626528 
L 107.201642 48.479921 
L 121.205997 46.72893 
L 129.979883 45.999707 
L 132.068618 45.642599 
L 151.806648 58.5408 
L 165.811003 64.860469 
L 178.582888 69.095191 
L 185.549033 72.571393 
L 199.553388 84.107326 
L 219.291418 100.894819 
L 233.295773 110.939673 
" clip-path="url(#p921e1ab895)" style="fill: none; stroke: #b2b2b2; stroke-width: 0.8; stroke-linecap: square"/>
   </g>
   <g id="line2d_104">
    <path d="M 53.721227 39.361265 
L 73.459257 35.785 
L 87.463612 35.567242 
L 98.326234 36.395629 
L 107.201642 38.401506 
L 121.205997 43.019474 
L 129.979883 45.999707 
L 132.068618 47.284695 
L 151.806648 56.905056 
L 165.811003 57.698863 
L 178.582888 61.86317 
L 185.549033 66.711124 
L 199.553388 68.161069 
L 219.291418 76.348654 
L 233.295773 85.944438 
" clip-path="url(#p921e1ab895)" style="fill: none; stroke: #b2b2b2; stroke-width: 0.8; stroke-linecap: square"/>
   </g>
   <g id="line2d_105">
    <path d="M 53.721227 39.820125 
L 73.459257 39.757344 
L 87.463612 37.538509 
L 98.326234 42.337458 
L 107.201642 44.000743 
L 121.205997 45.239252 
L 129.979883 45.999707 
L 132.068618 46.900986 
L 151.806648 55.615939 
L 165.811003 60.99576 
L 178.582888 73.796076 
L 185.549033 76.665572 
L 199.553388 82.778314 
L 219.291418 96.188586 
L 233.295773 108.629318 
" clip-path="url(#p921e1ab895)" style="fill: none; stroke: #b2b2b2; stroke-width: 0.8; stroke-linecap: square"/>
   </g>
   <g id="line2d_106">
    <path d="M 53.721227 54.659983 
L 73.459257 54.448366 
L 87.463612 51.597219 
L 98.326234 51.160904 
L 107.201642 49.661594 
L 121.205997 48.532485 
L 129.979883 45.999707 
L 132.068618 45.663383 
L 151.806648 45.446085 
L 165.811003 42.25821 
L 178.582888 48.433772 
L 185.549033 51.249129 
L 199.553388 55.503633 
L 219.291418 66.168606 
L 233.295773 77.084163 
" clip-path="url(#p921e1ab895)" style="fill: none; stroke: #b2b2b2; stroke-width: 0.8; stroke-linecap: square"/>
   </g>
   <g id="line2d_107">
    <path d="M 53.721227 62.159976 
L 73.459257 55.274405 
L 87.463612 50.200206 
L 98.326234 49.643346 
L 107.201642 47.263724 
L 121.205997 45.225014 
L 129.979883 45.999707 
L 132.068618 46.914676 
L 151.806648 51.031237 
L 165.811003 55.73278 
L 178.582888 60.386518 
L 185.549033 60.597822 
L 199.553388 67.448414 
L 219.291418 87.21844 
L 233.295773 103.741151 
" clip-path="url(#p921e1ab895)" style="fill: none; stroke: #b2b2b2; stroke-width: 0.8; stroke-linecap: square"/>
   </g>
   <g id="line2d_108">
    <path d="M 53.721227 65.056675 
L 73.459257 62.440349 
L 87.463612 58.453561 
L 98.326234 55.281985 
L 107.201642 53.083002 
L 121.205997 49.175418 
L 129.979883 45.999707 
L 132.068618 46.259562 
L 151.806648 44.907148 
L 165.811003 46.35693 
L 178.582888 52.143067 
L 185.549033 56.481207 
L 199.553388 60.97572 
L 219.291418 70.001571 
L 233.295773 81.527654 
" clip-path="url(#p921e1ab895)" style="fill: none; stroke: #b2b2b2; stroke-width: 0.8; stroke-linecap: square"/>
   </g>
   <g id="line2d_109">
    <path d="M 53.721227 31.074699 
L 73.459257 31.180295 
L 87.463612 34.240931 
L 98.326234 38.028405 
L 107.201642 36.732605 
L 121.205997 40.363494 
L 129.979883 45.999707 
L 132.068618 46.89445 
L 151.806648 54.675745 
L 165.811003 66.008032 
L 178.582888 71.380801 
L 185.549033 73.187596 
L 199.553388 77.833319 
L 219.291418 85.209547 
L 233.295773 98.60243 
" clip-path="url(#p921e1ab895)" style="fill: none; stroke: #b2b2b2; stroke-width: 0.8; stroke-linecap: square"/>
   </g>
   <g id="line2d_110">
    <path d="M 53.721227 37.501616 
L 73.459257 33.633868 
L 87.463612 32.169383 
L 98.326234 34.200733 
L 107.201642 39.585467 
L 121.205997 43.745405 
L 129.979883 45.999707 
L 132.068618 46.168655 
L 151.806648 50.594054 
L 165.811003 54.881433 
L 178.582888 63.522377 
L 185.549033 66.392679 
L 199.553388 73.770147 
L 219.291418 89.837918 
L 233.295773 100.346312 
" clip-path="url(#p921e1ab895)" style="fill: none; stroke: #b2b2b2; stroke-width: 0.8; stroke-linecap: square"/>
   </g>
   <g id="line2d_111">
    <path d="M 53.721227 34.838779 
L 73.459257 34.897052 
L 87.463612 37.657088 
L 98.326234 39.869635 
L 107.201642 42.049397 
L 121.205997 44.716894 
L 129.979883 45.999707 
L 132.068618 47.256845 
L 151.806648 46.158469 
L 165.811003 47.915258 
L 178.582888 57.290104 
L 185.549033 60.880338 
L 199.553388 67.911736 
L 219.291418 82.815776 
L 233.295773 99.255108 
" clip-path="url(#p921e1ab895)" style="fill: none; stroke: #b2b2b2; stroke-width: 0.8; stroke-linecap: square"/>
   </g>
   <g id="line2d_112">
    <path d="M 53.721227 59.284047 
L 73.459257 53.845486 
L 87.463612 51.78341 
L 98.326234 50.858057 
L 107.201642 50.140618 
L 121.205997 46.832865 
L 129.979883 45.999707 
L 132.068618 45.340095 
L 151.806648 43.089868 
L 165.811003 44.818527 
L 178.582888 48.973711 
L 185.549033 53.817464 
L 199.553388 62.666663 
L 219.291418 80.633892 
L 233.295773 92.848426 
" clip-path="url(#p921e1ab895)" style="fill: none; stroke: #b2b2b2; stroke-width: 0.8; stroke-linecap: square"/>
   </g>
   <g id="line2d_113">
    <path d="M 53.721227 44.751981 
L 73.459257 42.286307 
L 87.463612 41.448337 
L 98.326234 42.071361 
L 107.201642 42.670095 
L 121.205997 44.608903 
L 129.979883 45.999707 
L 132.068618 46.2848 
L 151.806648 51.000267 
L 165.811003 55.542339 
L 178.582888 60.923638 
L 185.549033 64.524619 
L 199.553388 72.16378 
L 219.291418 86.001561 
L 233.295773 99.055255 
" clip-path="url(#p921e1ab895)" style="fill: none; stroke: #ff0000; stroke-width: 2; stroke-linecap: square"/>
   </g>
   <g id="line2d_114">
    <path d="M 53.721227 20.001666 
L 73.459257 20.765578 
L 87.463612 23.247929 
L 98.326234 26.928677 
L 107.201642 31.224569 
L 121.205997 39.970163 
L 129.979883 45.999706 
L 132.068618 43.940766 
L 151.806648 40.480394 
L 165.811003 40.241502 
L 178.582888 42.04958 
L 185.549033 43.773735 
L 199.553388 48.601821 
L 219.291418 59.406093 
L 233.295773 70.177684 
" clip-path="url(#p921e1ab895)" style="fill: none; stroke-dasharray: 7.4,3.2; stroke-dashoffset: 0; stroke: #ff0000; stroke-width: 2"/>
   </g>
   <g id="line2d_115">
    <path d="M 53.721227 69.502296 
L 73.459257 63.807037 
L 87.463612 59.648746 
L 98.326234 57.214046 
L 107.201642 54.115621 
L 121.205997 49.247642 
L 129.979883 45.999708 
L 132.068618 48.628835 
L 151.806648 61.52014 
L 165.811003 70.843176 
L 178.582888 79.797695 
L 185.549033 85.275504 
L 199.553388 95.72574 
L 219.291418 112.597029 
L 233.295773 127.932827 
" clip-path="url(#p921e1ab895)" style="fill: none; stroke-dasharray: 7.4,3.2; stroke-dashoffset: 0; stroke: #ff0000; stroke-width: 2"/>
   </g>
   <g id="line2d_116">
    <path d="M 53.721227 44.813263 
L 73.459257 42.292787 
L 87.463612 41.599958 
L 98.326234 41.952564 
L 107.201642 42.71426 
L 121.205997 44.670425 
L 129.979883 45.999707 
L 132.068618 46.286891 
L 151.806648 51.049256 
L 165.811003 55.585448 
L 178.582888 61.065639 
L 185.549033 64.468854 
L 199.553388 72.144215 
L 219.291418 85.967952 
L 233.295773 99.093549 
" clip-path="url(#p921e1ab895)" style="fill: none; stroke: #0000ff; stroke-width: 2; stroke-linecap: square"/>
   </g>
   <g id="line2d_117">
    <path d="M 53.721227 20.119146 
L 73.459257 20.948976 
L 87.463612 23.406892 
L 98.326234 27.000962 
L 107.201642 31.147099 
L 121.205997 39.937659 
L 129.979883 45.999707 
L 132.068618 44.206564 
L 151.806648 40.503215 
L 165.811003 40.382268 
L 178.582888 42.10328 
L 185.549033 43.679588 
L 199.553388 48.627327 
L 219.291418 59.302228 
L 233.295773 70.309799 
" clip-path="url(#p921e1ab895)" style="fill: none; stroke-dasharray: 7.4,3.2; stroke-dashoffset: 0; stroke: #0000ff; stroke-width: 2"/>
   </g>
   <g id="line2d_118">
    <path d="M 53.721227 69.507381 
L 73.459257 63.636598 
L 87.463612 59.793024 
L 98.326234 56.904166 
L 107.201642 54.28142 
L 121.205997 49.403192 
L 129.979883 45.999707 
L 132.068618 48.367219 
L 151.806648 61.595297 
L 165.811003 70.788629 
L 178.582888 80.027998 
L 185.549033 85.258121 
L 199.553388 95.661103 
L 219.291418 112.633675 
L 233.295773 127.877298 
" clip-path="url(#p921e1ab895)" style="fill: none; stroke-dasharray: 7.4,3.2; stroke-dashoffset: 0; stroke: #0000ff; stroke-width: 2"/>
   </g>
   <g id="patch_3">
    <path d="M 44.7425 138.0384 
L 44.7425 7.2 
" style="fill: none; stroke: #000000; stroke-width: 0.8; stroke-linejoin: miter; stroke-linecap: square"/>
   </g>
   <g id="patch_4">
    <path d="M 242.2745 138.0384 
L 242.2745 7.2 
" style="fill: none; stroke: #000000; stroke-width: 0.8; stroke-linejoin: miter; stroke-linecap: square"/>
   </g>
   <g id="patch_5">
    <path d="M 44.7425 138.0384 
L 242.2745 138.0384 
" style="fill: none; stroke: #000000; stroke-width: 0.8; stroke-linejoin: miter; stroke-linecap: square"/>
   </g>
   <g id="patch_6">
    <path d="M 44.7425 7.2 
L 242.2745 7.2 
" style="fill: none; stroke: #000000; stroke-width: 0.8; stroke-linejoin: miter; stroke-linecap: square"/>
   </g>
   <g id="legend_1">
    <g id="patch_7">
     <path d="M 247.8745 104.47295 
L 432.5945 104.47295 
Q 434.1945 104.47295 434.1945 102.87295 
L 434.1945 42.36545 
Q 434.1945 40.76545 432.5945 40.76545 
L 247.8745 40.76545 
Q 246.2745 40.76545 246.2745 42.36545 
L 246.2745 102.87295 
Q 246.2745 104.47295 247.8745 104.47295 
z
" style="fill: #ffffff; opacity: 0.8; stroke: #cccccc; stroke-linejoin: miter"/>
    </g>
    <g id="line2d_119">
     <path d="M 249.4745 47.2442 
L 257.4745 47.2442 
L 265.4745 47.2442 
" style="fill: none; stroke: #b2b2b2; stroke-width: 0.8; stroke-linecap: square"/>
    </g>
    <g id="text_7">
     <!-- Individual selected GMs -->
     <g transform="translate(271.8745 50.0442) scale(0.08 -0.08)">
      <defs>
       <path id="DejaVuSans-49" d="M 628 4666 
L 1259 4666 
L 1259 0 
L 628 0 
L 628 4666 
z
" transform="scale(0.015625)"/>
       <path id="DejaVuSans-76" d="M 191 3500 
L 800 3500 
L 1894 563 
L 2988 3500 
L 3597 3500 
L 2284 0 
L 1503 0 
L 191 3500 
z
" transform="scale(0.015625)"/>
       <path id="DejaVuSans-75" d="M 544 1381 
L 544 3500 
L 1119 3500 
L 1119 1403 
Q 1119 906 1312 657 
Q 1506 409 1894 409 
Q 2359 409 2629 706 
Q 2900 1003 2900 1516 
L 2900 3500 
L 3475 3500 
L 3475 0 
L 2900 0 
L 2900 538 
Q 2691 219 2414 64 
Q 2138 -91 1772 -91 
Q 1169 -91 856 284 
Q 544 659 544 1381 
z
M 1991 3584 
L 1991 3584 
z
" transform="scale(0.015625)"/>
       <path id="DejaVuSans-47" d="M 3809 666 
L 3809 1919 
L 2778 1919 
L 2778 2438 
L 4434 2438 
L 4434 434 
Q 4069 175 3628 42 
Q 3188 -91 2688 -91 
Q 1594 -91 976 548 
Q 359 1188 359 2328 
Q 359 3472 976 4111 
Q 1594 4750 2688 4750 
Q 3144 4750 3555 4637 
Q 3966 4525 4313 4306 
L 4313 3634 
Q 3963 3931 3569 4081 
Q 3175 4231 2741 4231 
Q 1884 4231 1454 3753 
Q 1025 3275 1025 2328 
Q 1025 1384 1454 906 
Q 1884 428 2741 428 
Q 3075 428 3337 486 
Q 3600 544 3809 666 
z
" transform="scale(0.015625)"/>
       <path id="DejaVuSans-4d" d="M 628 4666 
L 1569 4666 
L 2759 1491 
L 3956 4666 
L 4897 4666 
L 4897 0 
L 4281 0 
L 4281 4097 
L 3078 897 
L 2444 897 
L 1241 4097 
L 1241 0 
L 628 0 
L 628 4666 
z
" transform="scale(0.015625)"/>
      </defs>
      <use xlink:href="#DejaVuSans-49"/>
      <use xlink:href="#DejaVuSans-6e" x="29.492188"/>
      <use xlink:href="#DejaVuSans-64" x="92.871094"/>
      <use xlink:href="#DejaVuSans-69" x="156.347656"/>
      <use xlink:href="#DejaVuSans-76" x="184.130859"/>
      <use xlink:href="#DejaVuSans-69" x="243.310547"/>
      <use xlink:href="#DejaVuSans-64" x="271.09375"/>
      <use xlink:href="#DejaVuSans-75" x="334.570312"/>
      <use xlink:href="#DejaVuSans-61" x="397.949219"/>
      <use xlink:href="#DejaVuSans-6c" x="459.228516"/>
      <use xlink:href="#DejaVuSans-20" x="487.011719"/>
      <use xlink:href="#DejaVuSans-73" x="518.798828"/>
      <use xlink:href="#DejaVuSans-65" x="570.898438"/>
      <use xlink:href="#DejaVuSans-6c" x="632.421875"/>
      <use xlink:href="#DejaVuSans-65" x="660.205078"/>
      <use xlink:href="#DejaVuSans-63" x="721.728516"/>
      <use xlink:href="#DejaVuSans-74" x="776.708984"/>
      <use xlink:href="#DejaVuSans-65" x="815.917969"/>
      <use xlink:href="#DejaVuSans-64" x="877.441406"/>
      <use xlink:href="#DejaVuSans-20" x="940.917969"/>
      <use xlink:href="#DejaVuSans-47" x="972.705078"/>
      <use xlink:href="#DejaVuSans-4d" x="1050.195312"/>
      <use xlink:href="#DejaVuSans-73" x="1136.474609"/>
     </g>
    </g>
    <g id="line2d_120">
     <path d="M 249.4745 58.9867 
L 257.4745 58.9867 
L 265.4745 58.9867 
" style="fill: none; stroke: #ff0000; stroke-width: 2; stroke-linecap: square"/>
    </g>
    <g id="text_8">
     <!-- GCIM median -->
     <g transform="translate(271.8745 61.7867) scale(0.08 -0.08)">
      <defs>
       <path id="DejaVuSans-43" d="M 4122 4306 
L 4122 3641 
Q 3803 3938 3442 4084 
Q 3081 4231 2675 4231 
Q 1875 4231 1450 3742 
Q 1025 3253 1025 2328 
Q 1025 1406 1450 917 
Q 1875 428 2675 428 
Q 3081 428 3442 575 
Q 3803 722 4122 1019 
L 4122 359 
Q 3791 134 3420 21 
Q 3050 -91 2638 -91 
Q 1578 -91 968 557 
Q 359 1206 359 2328 
Q 359 3453 968 4101 
Q 1578 4750 2638 4750 
Q 3056 4750 3426 4639 
Q 3797 4528 4122 4306 
z
" transform="scale(0.015625)"/>
       <path id="DejaVuSans-6d" d="M 3328 2828 
Q 3544 3216 3844 3400 
Q 4144 3584 4550 3584 
Q 5097 3584 5394 3201 
Q 5691 2819 5691 2113 
L 5691 0 
L 5113 0 
L 5113 2094 
Q 5113 2597 4934 2840 
Q 4756 3084 4391 3084 
Q 3944 3084 3684 2787 
Q 3425 2491 3425 1978 
L 3425 0 
L 2847 0 
L 2847 2094 
Q 2847 2600 2669 2842 
Q 2491 3084 2119 3084 
Q 1678 3084 1418 2786 
Q 1159 2488 1159 1978 
L 1159 0 
L 581 0 
L 581 3500 
L 1159 3500 
L 1159 2956 
Q 1356 3278 1631 3431 
Q 1906 3584 2284 3584 
Q 2666 3584 2933 3390 
Q 3200 3197 3328 2828 
z
" transform="scale(0.015625)"/>
      </defs>
      <use xlink:href="#DejaVuSans-47"/>
      <use xlink:href="#DejaVuSans-43" x="77.490234"/>
      <use xlink:href="#DejaVuSans-49" x="147.314453"/>
      <use xlink:href="#DejaVuSans-4d" x="176.806641"/>
      <use xlink:href="#DejaVuSans-20" x="263.085938"/>
      <use xlink:href="#DejaVuSans-6d" x="294.873047"/>
      <use xlink:href="#DejaVuSans-65" x="392.285156"/>
      <use xlink:href="#DejaVuSans-64" x="453.808594"/>
      <use xlink:href="#DejaVuSans-69" x="517.285156"/>
      <use xlink:href="#DejaVuSans-61" x="545.068359"/>
      <use xlink:href="#DejaVuSans-6e" x="606.347656"/>
     </g>
    </g>
    <g id="line2d_121">
     <path d="M 249.4745 72.01045 
L 257.4745 72.01045 
L 265.4745 72.01045 
" style="fill: none; stroke-dasharray: 7.4,3.2; stroke-dashoffset: 0; stroke: #ff0000; stroke-width: 2"/>
    </g>
    <g id="text_9">
     <!-- GCIM $16^{th}$ and $84^{th}$ percentiles -->
     <g transform="translate(271.8745 74.81045) scale(0.08 -0.08)">
      <defs>
       <path id="DejaVuSans-36" d="M 2113 2584 
Q 1688 2584 1439 2293 
Q 1191 2003 1191 1497 
Q 1191 994 1439 701 
Q 1688 409 2113 409 
Q 2538 409 2786 701 
Q 3034 994 3034 1497 
Q 3034 2003 2786 2293 
Q 2538 2584 2113 2584 
z
M 3366 4563 
L 3366 3988 
Q 3128 4100 2886 4159 
Q 2644 4219 2406 4219 
Q 1781 4219 1451 3797 
Q 1122 3375 1075 2522 
Q 1259 2794 1537 2939 
Q 1816 3084 2150 3084 
Q 2853 3084 3261 2657 
Q 3669 2231 3669 1497 
Q 3669 778 3244 343 
Q 2819 -91 2113 -91 
Q 1303 -91 875 529 
Q 447 1150 447 2328 
Q 447 3434 972 4092 
Q 1497 4750 2381 4750 
Q 2619 4750 2861 4703 
Q 3103 4656 3366 4563 
z
" transform="scale(0.015625)"/>
       <path id="DejaVuSans-Oblique-74" d="M 2706 3500 
L 2619 3053 
L 1472 3053 
L 1100 1153 
Q 1081 1047 1072 975 
Q 1063 903 1063 863 
Q 1063 663 1183 572 
Q 1303 481 1569 481 
L 2150 481 
L 2053 0 
L 1503 0 
Q 991 0 739 200 
Q 488 400 488 806 
Q 488 878 497 964 
Q 506 1050 525 1153 
L 897 3053 
L 409 3053 
L 500 3500 
L 978 3500 
L 1172 4494 
L 1747 4494 
L 1556 3500 
L 2706 3500 
z
" transform="scale(0.015625)"/>
       <path id="DejaVuSans-Oblique-68" d="M 3566 2113 
L 3156 0 
L 2578 0 
L 2988 2091 
Q 3016 2238 3031 2350 
Q 3047 2463 3047 2528 
Q 3047 2791 2881 2937 
Q 2716 3084 2419 3084 
Q 1956 3084 1617 2771 
Q 1278 2459 1178 1941 
L 800 0 
L 225 0 
L 1172 4863 
L 1747 4863 
L 1375 2950 
Q 1594 3244 1934 3414 
Q 2275 3584 2650 3584 
Q 3113 3584 3367 3334 
Q 3622 3084 3622 2631 
Q 3622 2519 3608 2391 
Q 3594 2263 3566 2113 
z
" transform="scale(0.015625)"/>
       <path id="DejaVuSans-38" d="M 2034 2216 
Q 1584 2216 1326 1975 
Q 1069 1734 1069 1313 
Q 1069 891 1326 650 
Q 1584 409 2034 409 
Q 2484 409 2743 651 
Q 3003 894 3003 1313 
Q 3003 1734 2745 1975 
Q 2488 2216 2034 2216 
z
M 1403 2484 
Q 997 2584 770 2862 
Q 544 3141 544 3541 
Q 544 4100 942 4425 
Q 1341 4750 2034 4750 
Q 2731 4750 3128 4425 
Q 3525 4100 3525 3541 
Q 3525 3141 3298 2862 
Q 3072 2584 2669 2484 
Q 3125 2378 3379 2068 
Q 3634 1759 3634 1313 
Q 3634 634 3220 271 
Q 2806 -91 2034 -91 
Q 1263 -91 848 271 
Q 434 634 434 1313 
Q 434 1759 690 2068 
Q 947 2378 1403 2484 
z
M 1172 3481 
Q 1172 3119 1398 2916 
Q 1625 2713 2034 2713 
Q 2441 2713 2670 2916 
Q 2900 3119 2900 3481 
Q 2900 3844 2670 4047 
Q 2441 4250 2034 4250 
Q 1625 4250 1398 4047 
Q 1172 3844 1172 3481 
z
" transform="scale(0.015625)"/>
       <path id="DejaVuSans-34" d="M 2419 4116 
L 825 1625 
L 2419 1625 
L 2419 4116 
z
M 2253 4666 
L 3047 4666 
L 3047 1625 
L 3713 1625 
L 3713 1100 
L 3047 1100 
L 3047 0 
L 2419 0 
L 2419 1100 
L 313 1100 
L 313 1709 
L 2253 4666 
z
" transform="scale(0.015625)"/>
      </defs>
      <use xlink:href="#DejaVuSans-47" transform="translate(0 0.529687)"/>
      <use xlink:href="#DejaVuSans-43" transform="translate(77.490234 0.529687)"/>
      <use xlink:href="#DejaVuSans-49" transform="translate(147.314453 0.529687)"/>
      <use xlink:href="#DejaVuSans-4d" transform="translate(176.806641 0.529687)"/>
      <use xlink:href="#DejaVuSans-20" transform="translate(263.085938 0.529687)"/>
      <use xlink:href="#DejaVuSans-31" transform="translate(294.873047 0.529687)"/>
      <use xlink:href="#DejaVuSans-36" transform="translate(358.496094 0.529687)"/>
      <use xlink:href="#DejaVuSans-Oblique-74" transform="translate(423.076172 38.810937) scale(0.7)"/>
      <use xlink:href="#DejaVuSans-Oblique-68" transform="translate(450.522461 38.810937) scale(0.7)"/>
      <use xlink:href="#DejaVuSans-20" transform="translate(497.62207 0.529687)"/>
      <use xlink:href="#DejaVuSans-61" transform="translate(529.40918 0.529687)"/>
      <use xlink:href="#DejaVuSans-6e" transform="translate(590.688477 0.529687)"/>
      <use xlink:href="#DejaVuSans-64" transform="translate(654.067383 0.529687)"/>
      <use xlink:href="#DejaVuSans-20" transform="translate(717.543945 0.529687)"/>
      <use xlink:href="#DejaVuSans-38" transform="translate(749.331055 0.529687)"/>
      <use xlink:href="#DejaVuSans-34" transform="translate(812.954102 0.529687)"/>
      <use xlink:href="#DejaVuSans-Oblique-74" transform="translate(877.53418 38.810937) scale(0.7)"/>
      <use xlink:href="#DejaVuSans-Oblique-68" transform="translate(904.980469 38.810937) scale(0.7)"/>
      <use xlink:href="#DejaVuSans-20" transform="translate(952.080078 0.529687)"/>
      <use xlink:href="#DejaVuSans-70" transform="translate(983.867188 0.529687)"/>
      <use xlink:href="#DejaVuSans-65" transform="translate(1047.34375 0.529687)"/>
      <use xlink:href="#DejaVuSans-72" transform="translate(1108.867188 0.529687)"/>
      <use xlink:href="#DejaVuSans-63" transform="translate(1149.980469 0.529687)"/>
      <use xlink:href="#DejaVuSans-65" transform="translate(1204.960938 0.529687)"/>
      <use xlink:href="#DejaVuSans-6e" transform="translate(1266.484375 0.529687)"/>
      <use xlink:href="#DejaVuSans-74" transform="translate(1329.863281 0.529687)"/>
      <use xlink:href="#DejaVuSans-69" transform="translate(1369.072266 0.529687)"/>
      <use xlink:href="#DejaVuSans-6c" transform="translate(1396.855469 0.529687)"/>
      <use xlink:href="#DejaVuSans-65" transform="translate(1424.638672 0.529687)"/>
      <use xlink:href="#DejaVuSans-73" transform="translate(1486.162109 0.529687)"/>
     </g>
    </g>
    <g id="line2d_122">
     <path d="M 249.4745 83.7692 
L 257.4745 83.7692 
L 265.4745 83.7692 
" style="fill: none; stroke: #0000ff; stroke-width: 2; stroke-linecap: square"/>
    </g>
    <g id="text_10">
     <!-- Selected GMs median -->
     <g transform="translate(271.8745 86.5692) scale(0.08 -0.08)">
      <use xlink:href="#DejaVuSans-53"/>
      <use xlink:href="#DejaVuSans-65" x="63.476562"/>
      <use xlink:href="#DejaVuSans-6c" x="125"/>
      <use xlink:href="#DejaVuSans-65" x="152.783203"/>
      <use xlink:href="#DejaVuSans-63" x="214.306641"/>
      <use xlink:href="#DejaVuSans-74" x="269.287109"/>
      <use xlink:href="#DejaVuSans-65" x="308.496094"/>
      <use xlink:href="#DejaVuSans-64" x="370.019531"/>
      <use xlink:href="#DejaVuSans-20" x="433.496094"/>
      <use xlink:href="#DejaVuSans-47" x="465.283203"/>
      <use xlink:href="#DejaVuSans-4d" x="542.773438"/>
      <use xlink:href="#DejaVuSans-73" x="629.052734"/>
      <use xlink:href="#DejaVuSans-20" x="681.152344"/>
      <use xlink:href="#DejaVuSans-6d" x="712.939453"/>
      <use xlink:href="#DejaVuSans-65" x="810.351562"/>
      <use xlink:href="#DejaVuSans-64" x="871.875"/>
      <use xlink:href="#DejaVuSans-69" x="935.351562"/>
      <use xlink:href="#DejaVuSans-61" x="963.134766"/>
      <use xlink:href="#DejaVuSans-6e" x="1024.414062"/>
     </g>
    </g>
    <g id="line2d_123">
     <path d="M 249.4745 96.79295 
L 257.4745 96.79295 
L 265.4745 96.79295 
" style="fill: none; stroke-dasharray: 7.4,3.2; stroke-dashoffset: 0; stroke: #0000ff; stroke-width: 2"/>
    </g>
    <g id="text_11">
     <!-- Selected GMs, $16^{th}$ and $84^{th}$ percentiles -->
     <g transform="translate(271.8745 99.59295) scale(0.08 -0.08)">
      <use xlink:href="#DejaVuSans-53" transform="translate(0 0.529687)"/>
      <use xlink:href="#DejaVuSans-65" transform="translate(63.476562 0.529687)"/>
      <use xlink:href="#DejaVuSans-6c" transform="translate(125 0.529687)"/>
      <use xlink:href="#DejaVuSans-65" transform="translate(152.783203 0.529687)"/>
      <use xlink:href="#DejaVuSans-63" transform="translate(214.306641 0.529687)"/>
      <use xlink:href="#DejaVuSans-74" transform="translate(269.287109 0.529687)"/>
      <use xlink:href="#DejaVuSans-65" transform="translate(308.496094 0.529687)"/>
      <use xlink:href="#DejaVuSans-64" transform="translate(370.019531 0.529687)"/>
      <use xlink:href="#DejaVuSans-20" transform="translate(433.496094 0.529687)"/>
      <use xlink:href="#DejaVuSans-47" transform="translate(465.283203 0.529687)"/>
      <use xlink:href="#DejaVuSans-4d" transform="translate(542.773438 0.529687)"/>
      <use xlink:href="#DejaVuSans-73" transform="translate(629.052734 0.529687)"/>
      <use xlink:href="#DejaVuSans-2c" transform="translate(681.152344 0.529687)"/>
      <use xlink:href="#DejaVuSans-20" transform="translate(712.939453 0.529687)"/>
      <use xlink:href="#DejaVuSans-31" transform="translate(744.726562 0.529687)"/>
      <use xlink:href="#DejaVuSans-36" transform="translate(808.349609 0.529687)"/>
      <use xlink:href="#DejaVuSans-Oblique-74" transform="translate(872.929688 38.810937) scale(0.7)"/>
      <use xlink:href="#DejaVuSans-Oblique-68" transform="translate(900.375977 38.810937) scale(0.7)"/>
      <use xlink:href="#DejaVuSans-20" transform="translate(947.475586 0.529687)"/>
      <use xlink:href="#DejaVuSans-61" transform="translate(979.262695 0.529687)"/>
      <use xlink:href="#DejaVuSans-6e" transform="translate(1040.541992 0.529687)"/>
      <use xlink:href="#DejaVuSans-64" transform="translate(1103.920898 0.529687)"/>
      <use xlink:href="#DejaVuSans-20" transform="translate(1167.397461 0.529687)"/>
      <use xlink:href="#DejaVuSans-38" transform="translate(1199.18457 0.529687)"/>
      <use xlink:href="#DejaVuSans-34" transform="translate(1262.807617 0.529687)"/>
      <use xlink:href="#DejaVuSans-Oblique-74" transform="translate(1327.387695 38.810937) scale(0.7)"/>
      <use xlink:href="#DejaVuSans-Oblique-68" transform="translate(1354.833984 38.810937) scale(0.7)"/>
      <use xlink:href="#DejaVuSans-20" transform="translate(1401.933594 0.529687)"/>
      <use xlink:href="#DejaVuSans-70" transform="translate(1433.720703 0.529687)"/>
      <use xlink:href="#DejaVuSans-65" transform="translate(1497.197266 0.529687)"/>
      <use xlink:href="#DejaVuSans-72" transform="translate(1558.720703 0.529687)"/>
      <use xlink:href="#DejaVuSans-63" transform="translate(1599.833984 0.529687)"/>
      <use xlink:href="#DejaVuSans-65" transform="translate(1654.814453 0.529687)"/>
      <use xlink:href="#DejaVuSans-6e" transform="translate(1716.337891 0.529687)"/>
      <use xlink:href="#DejaVuSans-74" transform="translate(1779.716797 0.529687)"/>
      <use xlink:href="#DejaVuSans-69" transform="translate(1818.925781 0.529687)"/>
      <use xlink:href="#DejaVuSans-6c" transform="translate(1846.708984 0.529687)"/>
      <use xlink:href="#DejaVuSans-65" transform="translate(1874.492188 0.529687)"/>
      <use xlink:href="#DejaVuSans-73" transform="translate(1936.015625 0.529687)"/>
     </g>
    </g>
   </g>
  </g>
 </g>
 <defs>
  <clipPath id="p921e1ab895">
   <rect x="44.7425" y="7.2" width="197.532" height="130.8384"/>
  </clipPath>
 </defs>
</svg>
