<?xml version="1.0" encoding="utf-8" standalone="no"?>
<!DOCTYPE svg PUBLIC "-//W3C//DTD SVG 1.1//EN"
  "http://www.w3.org/Graphics/SVG/1.1/DTD/svg11.dtd">
<svg xmlns:xlink="http://www.w3.org/1999/xlink" width="441.3945pt" height="171.7234pt" viewBox="0 0 441.3945 171.7234" xmlns="http://www.w3.org/2000/svg" version="1.1">
 <metadata>
  <rdf:RDF xmlns:dc="http://purl.org/dc/elements/1.1/" xmlns:cc="http://creativecommons.org/ns#" xmlns:rdf="http://www.w3.org/1999/02/22-rdf-syntax-ns#">
   <cc:Work>
    <dc:type rdf:resource="http://purl.org/dc/dcmitype/StillImage"/>
    <dc:date>2024-11-11T12:09:07.676066</dc:date>
    <dc:format>image/svg+xml</dc:format>
    <dc:creator>
     <cc:Agent>
      <dc:title>Matplotlib v3.8.2, https://matplotlib.org/</dc:title>
     </cc:Agent>
    </dc:creator>
   </cc:Work>
  </rdf:RDF>
 </metadata>
 <defs>
  <style type="text/css">*{stroke-linejoin: round; stroke-linecap: butt}</style>
 </defs>
 <g id="figure_1">
  <g id="patch_1">
   <path d="M 0 171.7234 
L 441.3945 171.7234 
L 441.3945 0 
L 0 0 
z
" style="fill: #ffffff"/>
  </g>
  <g id="axes_1">
   <g id="patch_2">
    <path d="M 44.7425 138.0384 
L 242.2745 138.0384 
L 242.2745 7.2 
L 44.7425 7.2 
z
" style="fill: #ffffff"/>
   </g>
   <g id="matplotlib.axis_1">
    <g id="xtick_1">
     <g id="line2d_1">
      <path d="M 53.721227 138.0384 
L 53.721227 7.2 
" clip-path="url(#p6999757f76)" style="fill: none; stroke: #d9d9d9; stroke-width: 0.8; stroke-linecap: square"/>
     </g>
     <g id="line2d_2">
      <defs>
       <path id="m8c9e11b5dc" d="M 0 0 
L 0 3.5 
" style="stroke: #000000; stroke-width: 0.8"/>
      </defs>
      <g>
       <use xlink:href="#m8c9e11b5dc" x="53.721227" y="138.0384" style="stroke: #000000; stroke-width: 0.8"/>
      </g>
     </g>
     <g id="text_1">
      <!-- $\mathdefault{10^{-1}}$ -->
      <g transform="translate(44.321227 151.11715) scale(0.08 -0.08)">
       <defs>
        <path id="DejaVuSans-31" d="M 794 531 
L 1825 531 
L 1825 4091 
L 703 3866 
L 703 4441 
L 1819 4666 
L 2450 4666 
L 2450 531 
L 3481 531 
L 3481 0 
L 794 0 
L 794 531 
z
" transform="scale(0.015625)"/>
        <path id="DejaVuSans-30" d="M 2034 4250 
Q 1547 4250 1301 3770 
Q 1056 3291 1056 2328 
Q 1056 1369 1301 889 
Q 1547 409 2034 409 
Q 2525 409 2770 889 
Q 3016 1369 3016 2328 
Q 3016 3291 2770 3770 
Q 2525 4250 2034 4250 
z
M 2034 4750 
Q 2819 4750 3233 4129 
Q 3647 3509 3647 2328 
Q 3647 1150 3233 529 
Q 2819 -91 2034 -91 
Q 1250 -91 836 529 
Q 422 1150 422 2328 
Q 422 3509 836 4129 
Q 1250 4750 2034 4750 
z
" transform="scale(0.015625)"/>
        <path id="DejaVuSans-2212" d="M 678 2272 
L 4684 2272 
L 4684 1741 
L 678 1741 
L 678 2272 
z
" transform="scale(0.015625)"/>
       </defs>
       <use xlink:href="#DejaVuSans-31" transform="translate(0 0.684375)"/>
       <use xlink:href="#DejaVuSans-30" transform="translate(63.623047 0.684375)"/>
       <use xlink:href="#DejaVuSans-2212" transform="translate(128.203125 38.965625) scale(0.7)"/>
       <use xlink:href="#DejaVuSans-31" transform="translate(186.855469 38.965625) scale(0.7)"/>
      </g>
     </g>
    </g>
    <g id="xtick_2">
     <g id="line2d_3">
      <path d="M 159.417352 138.0384 
L 159.417352 7.2 
" clip-path="url(#p6999757f76)" style="fill: none; stroke: #d9d9d9; stroke-width: 0.8; stroke-linecap: square"/>
     </g>
     <g id="line2d_4">
      <g>
       <use xlink:href="#m8c9e11b5dc" x="159.417352" y="138.0384" style="stroke: #000000; stroke-width: 0.8"/>
      </g>
     </g>
     <g id="text_2">
      <!-- $\mathdefault{10^{0}}$ -->
      <g transform="translate(152.377352 151.11715) scale(0.08 -0.08)">
       <use xlink:href="#DejaVuSans-31" transform="translate(0 0.765625)"/>
       <use xlink:href="#DejaVuSans-30" transform="translate(63.623047 0.765625)"/>
       <use xlink:href="#DejaVuSans-30" transform="translate(128.203125 39.046875) scale(0.7)"/>
      </g>
     </g>
    </g>
    <g id="xtick_3">
     <g id="line2d_5">
      <path d="M 48.884838 138.0384 
L 48.884838 7.2 
" clip-path="url(#p6999757f76)" style="fill: none; stroke-dasharray: 2.96,1.28; stroke-dashoffset: 0; stroke: #f2f2f2; stroke-width: 0.8"/>
     </g>
     <g id="line2d_6">
      <defs>
       <path id="m10be7a8f3f" d="M 0 0 
L 0 2 
" style="stroke: #000000; stroke-width: 0.6"/>
      </defs>
      <g>
       <use xlink:href="#m10be7a8f3f" x="48.884838" y="138.0384" style="stroke: #000000; stroke-width: 0.6"/>
      </g>
     </g>
    </g>
    <g id="xtick_4">
     <g id="line2d_7">
      <path d="M 85.538931 138.0384 
L 85.538931 7.2 
" clip-path="url(#p6999757f76)" style="fill: none; stroke-dasharray: 2.96,1.28; stroke-dashoffset: 0; stroke: #f2f2f2; stroke-width: 0.8"/>
     </g>
     <g id="line2d_8">
      <g>
       <use xlink:href="#m10be7a8f3f" x="85.538931" y="138.0384" style="stroke: #000000; stroke-width: 0.6"/>
      </g>
     </g>
    </g>
    <g id="xtick_5">
     <g id="line2d_9">
      <path d="M 104.151095 138.0384 
L 104.151095 7.2 
" clip-path="url(#p6999757f76)" style="fill: none; stroke-dasharray: 2.96,1.28; stroke-dashoffset: 0; stroke: #f2f2f2; stroke-width: 0.8"/>
     </g>
     <g id="line2d_10">
      <g>
       <use xlink:href="#m10be7a8f3f" x="104.151095" y="138.0384" style="stroke: #000000; stroke-width: 0.6"/>
      </g>
     </g>
    </g>
    <g id="xtick_6">
     <g id="line2d_11">
      <path d="M 117.356635 138.0384 
L 117.356635 7.2 
" clip-path="url(#p6999757f76)" style="fill: none; stroke-dasharray: 2.96,1.28; stroke-dashoffset: 0; stroke: #f2f2f2; stroke-width: 0.8"/>
     </g>
     <g id="line2d_12">
      <g>
       <use xlink:href="#m10be7a8f3f" x="117.356635" y="138.0384" style="stroke: #000000; stroke-width: 0.6"/>
      </g>
     </g>
    </g>
    <g id="xtick_7">
     <g id="line2d_13">
      <path d="M 127.599648 138.0384 
L 127.599648 7.2 
" clip-path="url(#p6999757f76)" style="fill: none; stroke-dasharray: 2.96,1.28; stroke-dashoffset: 0; stroke: #f2f2f2; stroke-width: 0.8"/>
     </g>
     <g id="line2d_14">
      <g>
       <use xlink:href="#m10be7a8f3f" x="127.599648" y="138.0384" style="stroke: #000000; stroke-width: 0.6"/>
      </g>
     </g>
    </g>
    <g id="xtick_8">
     <g id="line2d_15">
      <path d="M 135.968799 138.0384 
L 135.968799 7.2 
" clip-path="url(#p6999757f76)" style="fill: none; stroke-dasharray: 2.96,1.28; stroke-dashoffset: 0; stroke: #f2f2f2; stroke-width: 0.8"/>
     </g>
     <g id="line2d_16">
      <g>
       <use xlink:href="#m10be7a8f3f" x="135.968799" y="138.0384" style="stroke: #000000; stroke-width: 0.6"/>
      </g>
     </g>
    </g>
    <g id="xtick_9">
     <g id="line2d_17">
      <path d="M 143.044815 138.0384 
L 143.044815 7.2 
" clip-path="url(#p6999757f76)" style="fill: none; stroke-dasharray: 2.96,1.28; stroke-dashoffset: 0; stroke: #f2f2f2; stroke-width: 0.8"/>
     </g>
     <g id="line2d_18">
      <g>
       <use xlink:href="#m10be7a8f3f" x="143.044815" y="138.0384" style="stroke: #000000; stroke-width: 0.6"/>
      </g>
     </g>
    </g>
    <g id="xtick_10">
     <g id="line2d_19">
      <path d="M 149.174339 138.0384 
L 149.174339 7.2 
" clip-path="url(#p6999757f76)" style="fill: none; stroke-dasharray: 2.96,1.28; stroke-dashoffset: 0; stroke: #f2f2f2; stroke-width: 0.8"/>
     </g>
     <g id="line2d_20">
      <g>
       <use xlink:href="#m10be7a8f3f" x="149.174339" y="138.0384" style="stroke: #000000; stroke-width: 0.6"/>
      </g>
     </g>
    </g>
    <g id="xtick_11">
     <g id="line2d_21">
      <path d="M 154.580963 138.0384 
L 154.580963 7.2 
" clip-path="url(#p6999757f76)" style="fill: none; stroke-dasharray: 2.96,1.28; stroke-dashoffset: 0; stroke: #f2f2f2; stroke-width: 0.8"/>
     </g>
     <g id="line2d_22">
      <g>
       <use xlink:href="#m10be7a8f3f" x="154.580963" y="138.0384" style="stroke: #000000; stroke-width: 0.6"/>
      </g>
     </g>
    </g>
    <g id="xtick_12">
     <g id="line2d_23">
      <path d="M 191.235056 138.0384 
L 191.235056 7.2 
" clip-path="url(#p6999757f76)" style="fill: none; stroke-dasharray: 2.96,1.28; stroke-dashoffset: 0; stroke: #f2f2f2; stroke-width: 0.8"/>
     </g>
     <g id="line2d_24">
      <g>
       <use xlink:href="#m10be7a8f3f" x="191.235056" y="138.0384" style="stroke: #000000; stroke-width: 0.6"/>
      </g>
     </g>
    </g>
    <g id="xtick_13">
     <g id="line2d_25">
      <path d="M 209.84722 138.0384 
L 209.84722 7.2 
" clip-path="url(#p6999757f76)" style="fill: none; stroke-dasharray: 2.96,1.28; stroke-dashoffset: 0; stroke: #f2f2f2; stroke-width: 0.8"/>
     </g>
     <g id="line2d_26">
      <g>
       <use xlink:href="#m10be7a8f3f" x="209.84722" y="138.0384" style="stroke: #000000; stroke-width: 0.6"/>
      </g>
     </g>
    </g>
    <g id="xtick_14">
     <g id="line2d_27">
      <path d="M 223.05276 138.0384 
L 223.05276 7.2 
" clip-path="url(#p6999757f76)" style="fill: none; stroke-dasharray: 2.96,1.28; stroke-dashoffset: 0; stroke: #f2f2f2; stroke-width: 0.8"/>
     </g>
     <g id="line2d_28">
      <g>
       <use xlink:href="#m10be7a8f3f" x="223.05276" y="138.0384" style="stroke: #000000; stroke-width: 0.6"/>
      </g>
     </g>
    </g>
    <g id="xtick_15">
     <g id="line2d_29">
      <path d="M 233.295773 138.0384 
L 233.295773 7.2 
" clip-path="url(#p6999757f76)" style="fill: none; stroke-dasharray: 2.96,1.28; stroke-dashoffset: 0; stroke: #f2f2f2; stroke-width: 0.8"/>
     </g>
     <g id="line2d_30">
      <g>
       <use xlink:href="#m10be7a8f3f" x="233.295773" y="138.0384" style="stroke: #000000; stroke-width: 0.6"/>
      </g>
     </g>
    </g>
    <g id="xtick_16">
     <g id="line2d_31">
      <path d="M 241.664924 138.0384 
L 241.664924 7.2 
" clip-path="url(#p6999757f76)" style="fill: none; stroke-dasharray: 2.96,1.28; stroke-dashoffset: 0; stroke: #f2f2f2; stroke-width: 0.8"/>
     </g>
     <g id="line2d_32">
      <g>
       <use xlink:href="#m10be7a8f3f" x="241.664924" y="138.0384" style="stroke: #000000; stroke-width: 0.6"/>
      </g>
     </g>
    </g>
    <g id="text_3">
     <!-- Period, T (s) -->
     <g transform="translate(119.576 162.85965) scale(0.08 -0.08)">
      <defs>
       <path id="DejaVuSans-50" d="M 1259 4147 
L 1259 2394 
L 2053 2394 
Q 2494 2394 2734 2622 
Q 2975 2850 2975 3272 
Q 2975 3691 2734 3919 
Q 2494 4147 2053 4147 
L 1259 4147 
z
M 628 4666 
L 2053 4666 
Q 2838 4666 3239 4311 
Q 3641 3956 3641 3272 
Q 3641 2581 3239 2228 
Q 2838 1875 2053 1875 
L 1259 1875 
L 1259 0 
L 628 0 
L 628 4666 
z
" transform="scale(0.015625)"/>
       <path id="DejaVuSans-65" d="M 3597 1894 
L 3597 1613 
L 953 1613 
Q 991 1019 1311 708 
Q 1631 397 2203 397 
Q 2534 397 2845 478 
Q 3156 559 3463 722 
L 3463 178 
Q 3153 47 2828 -22 
Q 2503 -91 2169 -91 
Q 1331 -91 842 396 
Q 353 884 353 1716 
Q 353 2575 817 3079 
Q 1281 3584 2069 3584 
Q 2775 3584 3186 3129 
Q 3597 2675 3597 1894 
z
M 3022 2063 
Q 3016 2534 2758 2815 
Q 2500 3097 2075 3097 
Q 1594 3097 1305 2825 
Q 1016 2553 972 2059 
L 3022 2063 
z
" transform="scale(0.015625)"/>
       <path id="DejaVuSans-72" d="M 2631 2963 
Q 2534 3019 2420 3045 
Q 2306 3072 2169 3072 
Q 1681 3072 1420 2755 
Q 1159 2438 1159 1844 
L 1159 0 
L 581 0 
L 581 3500 
L 1159 3500 
L 1159 2956 
Q 1341 3275 1631 3429 
Q 1922 3584 2338 3584 
Q 2397 3584 2469 3576 
Q 2541 3569 2628 3553 
L 2631 2963 
z
" transform="scale(0.015625)"/>
       <path id="DejaVuSans-69" d="M 603 3500 
L 1178 3500 
L 1178 0 
L 603 0 
L 603 3500 
z
M 603 4863 
L 1178 4863 
L 1178 4134 
L 603 4134 
L 603 4863 
z
" transform="scale(0.015625)"/>
       <path id="DejaVuSans-6f" d="M 1959 3097 
Q 1497 3097 1228 2736 
Q 959 2375 959 1747 
Q 959 1119 1226 758 
Q 1494 397 1959 397 
Q 2419 397 2687 759 
Q 2956 1122 2956 1747 
Q 2956 2369 2687 2733 
Q 2419 3097 1959 3097 
z
M 1959 3584 
Q 2709 3584 3137 3096 
Q 3566 2609 3566 1747 
Q 3566 888 3137 398 
Q 2709 -91 1959 -91 
Q 1206 -91 779 398 
Q 353 888 353 1747 
Q 353 2609 779 3096 
Q 1206 3584 1959 3584 
z
" transform="scale(0.015625)"/>
       <path id="DejaVuSans-64" d="M 2906 2969 
L 2906 4863 
L 3481 4863 
L 3481 0 
L 2906 0 
L 2906 525 
Q 2725 213 2448 61 
Q 2172 -91 1784 -91 
Q 1150 -91 751 415 
Q 353 922 353 1747 
Q 353 2572 751 3078 
Q 1150 3584 1784 3584 
Q 2172 3584 2448 3432 
Q 2725 3281 2906 2969 
z
M 947 1747 
Q 947 1113 1208 752 
Q 1469 391 1925 391 
Q 2381 391 2643 752 
Q 2906 1113 2906 1747 
Q 2906 2381 2643 2742 
Q 2381 3103 1925 3103 
Q 1469 3103 1208 2742 
Q 947 2381 947 1747 
z
" transform="scale(0.015625)"/>
       <path id="DejaVuSans-2c" d="M 750 794 
L 1409 794 
L 1409 256 
L 897 -744 
L 494 -744 
L 750 256 
L 750 794 
z
" transform="scale(0.015625)"/>
       <path id="DejaVuSans-20" transform="scale(0.015625)"/>
       <path id="DejaVuSans-54" d="M -19 4666 
L 3928 4666 
L 3928 4134 
L 2272 4134 
L 2272 0 
L 1638 0 
L 1638 4134 
L -19 4134 
L -19 4666 
z
" transform="scale(0.015625)"/>
       <path id="DejaVuSans-28" d="M 1984 4856 
Q 1566 4138 1362 3434 
Q 1159 2731 1159 2009 
Q 1159 1288 1364 580 
Q 1569 -128 1984 -844 
L 1484 -844 
Q 1016 -109 783 600 
Q 550 1309 550 2009 
Q 550 2706 781 3412 
Q 1013 4119 1484 4856 
L 1984 4856 
z
" transform="scale(0.015625)"/>
       <path id="DejaVuSans-73" d="M 2834 3397 
L 2834 2853 
Q 2591 2978 2328 3040 
Q 2066 3103 1784 3103 
Q 1356 3103 1142 2972 
Q 928 2841 928 2578 
Q 928 2378 1081 2264 
Q 1234 2150 1697 2047 
L 1894 2003 
Q 2506 1872 2764 1633 
Q 3022 1394 3022 966 
Q 3022 478 2636 193 
Q 2250 -91 1575 -91 
Q 1294 -91 989 -36 
Q 684 19 347 128 
L 347 722 
Q 666 556 975 473 
Q 1284 391 1588 391 
Q 1994 391 2212 530 
Q 2431 669 2431 922 
Q 2431 1156 2273 1281 
Q 2116 1406 1581 1522 
L 1381 1569 
Q 847 1681 609 1914 
Q 372 2147 372 2553 
Q 372 3047 722 3315 
Q 1072 3584 1716 3584 
Q 2034 3584 2315 3537 
Q 2597 3491 2834 3397 
z
" transform="scale(0.015625)"/>
       <path id="DejaVuSans-29" d="M 513 4856 
L 1013 4856 
Q 1481 4119 1714 3412 
Q 1947 2706 1947 2009 
Q 1947 1309 1714 600 
Q 1481 -109 1013 -844 
L 513 -844 
Q 928 -128 1133 580 
Q 1338 1288 1338 2009 
Q 1338 2731 1133 3434 
Q 928 4138 513 4856 
z
" transform="scale(0.015625)"/>
      </defs>
      <use xlink:href="#DejaVuSans-50"/>
      <use xlink:href="#DejaVuSans-65" x="56.677734"/>
      <use xlink:href="#DejaVuSans-72" x="118.201172"/>
      <use xlink:href="#DejaVuSans-69" x="159.314453"/>
      <use xlink:href="#DejaVuSans-6f" x="187.097656"/>
      <use xlink:href="#DejaVuSans-64" x="248.279297"/>
      <use xlink:href="#DejaVuSans-2c" x="311.755859"/>
      <use xlink:href="#DejaVuSans-20" x="343.542969"/>
      <use xlink:href="#DejaVuSans-54" x="375.330078"/>
      <use xlink:href="#DejaVuSans-20" x="436.414062"/>
      <use xlink:href="#DejaVuSans-28" x="468.201172"/>
      <use xlink:href="#DejaVuSans-73" x="507.214844"/>
      <use xlink:href="#DejaVuSans-29" x="559.314453"/>
     </g>
    </g>
   </g>
   <g id="matplotlib.axis_2">
    <g id="ytick_1">
     <g id="line2d_33">
      <path d="M 44.7425 91.425381 
L 242.2745 91.425381 
" clip-path="url(#p6999757f76)" style="fill: none; stroke: #d9d9d9; stroke-width: 0.8; stroke-linecap: square"/>
     </g>
     <g id="line2d_34">
      <defs>
       <path id="m8e640cfdfb" d="M 0 0 
L -3.5 0 
" style="stroke: #000000; stroke-width: 0.8"/>
      </defs>
      <g>
       <use xlink:href="#m8e640cfdfb" x="44.7425" y="91.425381" style="stroke: #000000; stroke-width: 0.8"/>
      </g>
     </g>
     <g id="text_4">
      <!-- $\mathdefault{10^{-1}}$ -->
      <g transform="translate(18.9425 94.464756) scale(0.08 -0.08)">
       <use xlink:href="#DejaVuSans-31" transform="translate(0 0.684375)"/>
       <use xlink:href="#DejaVuSans-30" transform="translate(63.623047 0.684375)"/>
       <use xlink:href="#DejaVuSans-2212" transform="translate(128.203125 38.965625) scale(0.7)"/>
       <use xlink:href="#DejaVuSans-31" transform="translate(186.855469 38.965625) scale(0.7)"/>
      </g>
     </g>
    </g>
    <g id="ytick_2">
     <g id="line2d_35">
      <path d="M 44.7425 41.65803 
L 242.2745 41.65803 
" clip-path="url(#p6999757f76)" style="fill: none; stroke: #d9d9d9; stroke-width: 0.8; stroke-linecap: square"/>
     </g>
     <g id="line2d_36">
      <g>
       <use xlink:href="#m8e640cfdfb" x="44.7425" y="41.65803" style="stroke: #000000; stroke-width: 0.8"/>
      </g>
     </g>
     <g id="text_5">
      <!-- $\mathdefault{10^{0}}$ -->
      <g transform="translate(23.6625 44.697405) scale(0.08 -0.08)">
       <use xlink:href="#DejaVuSans-31" transform="translate(0 0.765625)"/>
       <use xlink:href="#DejaVuSans-30" transform="translate(63.623047 0.765625)"/>
       <use xlink:href="#DejaVuSans-30" transform="translate(128.203125 39.046875) scale(0.7)"/>
      </g>
     </g>
    </g>
    <g id="ytick_3">
     <g id="line2d_37">
      <path d="M 44.7425 126.211267 
L 242.2745 126.211267 
" clip-path="url(#p6999757f76)" style="fill: none; stroke-dasharray: 2.96,1.28; stroke-dashoffset: 0; stroke: #f2f2f2; stroke-width: 0.8"/>
     </g>
     <g id="line2d_38">
      <defs>
       <path id="m7df63085ab" d="M 0 0 
L -2 0 
" style="stroke: #000000; stroke-width: 0.6"/>
      </defs>
      <g>
       <use xlink:href="#m7df63085ab" x="44.7425" y="126.211267" style="stroke: #000000; stroke-width: 0.6"/>
      </g>
     </g>
    </g>
    <g id="ytick_4">
     <g id="line2d_39">
      <path d="M 44.7425 117.447671 
L 242.2745 117.447671 
" clip-path="url(#p6999757f76)" style="fill: none; stroke-dasharray: 2.96,1.28; stroke-dashoffset: 0; stroke: #f2f2f2; stroke-width: 0.8"/>
     </g>
     <g id="line2d_40">
      <g>
       <use xlink:href="#m7df63085ab" x="44.7425" y="117.447671" style="stroke: #000000; stroke-width: 0.6"/>
      </g>
     </g>
    </g>
    <g id="ytick_5">
     <g id="line2d_41">
      <path d="M 44.7425 111.229801 
L 242.2745 111.229801 
" clip-path="url(#p6999757f76)" style="fill: none; stroke-dasharray: 2.96,1.28; stroke-dashoffset: 0; stroke: #f2f2f2; stroke-width: 0.8"/>
     </g>
     <g id="line2d_42">
      <g>
       <use xlink:href="#m7df63085ab" x="44.7425" y="111.229801" style="stroke: #000000; stroke-width: 0.6"/>
      </g>
     </g>
    </g>
    <g id="ytick_6">
     <g id="line2d_43">
      <path d="M 44.7425 106.406847 
L 242.2745 106.406847 
" clip-path="url(#p6999757f76)" style="fill: none; stroke-dasharray: 2.96,1.28; stroke-dashoffset: 0; stroke: #f2f2f2; stroke-width: 0.8"/>
     </g>
     <g id="line2d_44">
      <g>
       <use xlink:href="#m7df63085ab" x="44.7425" y="106.406847" style="stroke: #000000; stroke-width: 0.6"/>
      </g>
     </g>
    </g>
    <g id="ytick_7">
     <g id="line2d_45">
      <path d="M 44.7425 102.466206 
L 242.2745 102.466206 
" clip-path="url(#p6999757f76)" style="fill: none; stroke-dasharray: 2.96,1.28; stroke-dashoffset: 0; stroke: #f2f2f2; stroke-width: 0.8"/>
     </g>
     <g id="line2d_46">
      <g>
       <use xlink:href="#m7df63085ab" x="44.7425" y="102.466206" style="stroke: #000000; stroke-width: 0.6"/>
      </g>
     </g>
    </g>
    <g id="ytick_8">
     <g id="line2d_47">
      <path d="M 44.7425 99.134441 
L 242.2745 99.134441 
" clip-path="url(#p6999757f76)" style="fill: none; stroke-dasharray: 2.96,1.28; stroke-dashoffset: 0; stroke: #f2f2f2; stroke-width: 0.8"/>
     </g>
     <g id="line2d_48">
      <g>
       <use xlink:href="#m7df63085ab" x="44.7425" y="99.134441" style="stroke: #000000; stroke-width: 0.6"/>
      </g>
     </g>
    </g>
    <g id="ytick_9">
     <g id="line2d_49">
      <path d="M 44.7425 96.248336 
L 242.2745 96.248336 
" clip-path="url(#p6999757f76)" style="fill: none; stroke-dasharray: 2.96,1.28; stroke-dashoffset: 0; stroke: #f2f2f2; stroke-width: 0.8"/>
     </g>
     <g id="line2d_50">
      <g>
       <use xlink:href="#m7df63085ab" x="44.7425" y="96.248336" style="stroke: #000000; stroke-width: 0.6"/>
      </g>
     </g>
    </g>
    <g id="ytick_10">
     <g id="line2d_51">
      <path d="M 44.7425 93.70261 
L 242.2745 93.70261 
" clip-path="url(#p6999757f76)" style="fill: none; stroke-dasharray: 2.96,1.28; stroke-dashoffset: 0; stroke: #f2f2f2; stroke-width: 0.8"/>
     </g>
     <g id="line2d_52">
      <g>
       <use xlink:href="#m7df63085ab" x="44.7425" y="93.70261" style="stroke: #000000; stroke-width: 0.6"/>
      </g>
     </g>
    </g>
    <g id="ytick_11">
     <g id="line2d_53">
      <path d="M 44.7425 76.443916 
L 242.2745 76.443916 
" clip-path="url(#p6999757f76)" style="fill: none; stroke-dasharray: 2.96,1.28; stroke-dashoffset: 0; stroke: #f2f2f2; stroke-width: 0.8"/>
     </g>
     <g id="line2d_54">
      <g>
       <use xlink:href="#m7df63085ab" x="44.7425" y="76.443916" style="stroke: #000000; stroke-width: 0.6"/>
      </g>
     </g>
    </g>
    <g id="ytick_12">
     <g id="line2d_55">
      <path d="M 44.7425 67.68032 
L 242.2745 67.68032 
" clip-path="url(#p6999757f76)" style="fill: none; stroke-dasharray: 2.96,1.28; stroke-dashoffset: 0; stroke: #f2f2f2; stroke-width: 0.8"/>
     </g>
     <g id="line2d_56">
      <g>
       <use xlink:href="#m7df63085ab" x="44.7425" y="67.68032" style="stroke: #000000; stroke-width: 0.6"/>
      </g>
     </g>
    </g>
    <g id="ytick_13">
     <g id="line2d_57">
      <path d="M 44.7425 61.46245 
L 242.2745 61.46245 
" clip-path="url(#p6999757f76)" style="fill: none; stroke-dasharray: 2.96,1.28; stroke-dashoffset: 0; stroke: #f2f2f2; stroke-width: 0.8"/>
     </g>
     <g id="line2d_58">
      <g>
       <use xlink:href="#m7df63085ab" x="44.7425" y="61.46245" style="stroke: #000000; stroke-width: 0.6"/>
      </g>
     </g>
    </g>
    <g id="ytick_14">
     <g id="line2d_59">
      <path d="M 44.7425 56.639495 
L 242.2745 56.639495 
" clip-path="url(#p6999757f76)" style="fill: none; stroke-dasharray: 2.96,1.28; stroke-dashoffset: 0; stroke: #f2f2f2; stroke-width: 0.8"/>
     </g>
     <g id="line2d_60">
      <g>
       <use xlink:href="#m7df63085ab" x="44.7425" y="56.639495" style="stroke: #000000; stroke-width: 0.6"/>
      </g>
     </g>
    </g>
    <g id="ytick_15">
     <g id="line2d_61">
      <path d="M 44.7425 52.698855 
L 242.2745 52.698855 
" clip-path="url(#p6999757f76)" style="fill: none; stroke-dasharray: 2.96,1.28; stroke-dashoffset: 0; stroke: #f2f2f2; stroke-width: 0.8"/>
     </g>
     <g id="line2d_62">
      <g>
       <use xlink:href="#m7df63085ab" x="44.7425" y="52.698855" style="stroke: #000000; stroke-width: 0.6"/>
      </g>
     </g>
    </g>
    <g id="ytick_16">
     <g id="line2d_63">
      <path d="M 44.7425 49.36709 
L 242.2745 49.36709 
" clip-path="url(#p6999757f76)" style="fill: none; stroke-dasharray: 2.96,1.28; stroke-dashoffset: 0; stroke: #f2f2f2; stroke-width: 0.8"/>
     </g>
     <g id="line2d_64">
      <g>
       <use xlink:href="#m7df63085ab" x="44.7425" y="49.36709" style="stroke: #000000; stroke-width: 0.6"/>
      </g>
     </g>
    </g>
    <g id="ytick_17">
     <g id="line2d_65">
      <path d="M 44.7425 46.480985 
L 242.2745 46.480985 
" clip-path="url(#p6999757f76)" style="fill: none; stroke-dasharray: 2.96,1.28; stroke-dashoffset: 0; stroke: #f2f2f2; stroke-width: 0.8"/>
     </g>
     <g id="line2d_66">
      <g>
       <use xlink:href="#m7df63085ab" x="44.7425" y="46.480985" style="stroke: #000000; stroke-width: 0.6"/>
      </g>
     </g>
    </g>
    <g id="ytick_18">
     <g id="line2d_67">
      <path d="M 44.7425 43.935259 
L 242.2745 43.935259 
" clip-path="url(#p6999757f76)" style="fill: none; stroke-dasharray: 2.96,1.28; stroke-dashoffset: 0; stroke: #f2f2f2; stroke-width: 0.8"/>
     </g>
     <g id="line2d_68">
      <g>
       <use xlink:href="#m7df63085ab" x="44.7425" y="43.935259" style="stroke: #000000; stroke-width: 0.6"/>
      </g>
     </g>
    </g>
    <g id="ytick_19">
     <g id="line2d_69">
      <path d="M 44.7425 26.676564 
L 242.2745 26.676564 
" clip-path="url(#p6999757f76)" style="fill: none; stroke-dasharray: 2.96,1.28; stroke-dashoffset: 0; stroke: #f2f2f2; stroke-width: 0.8"/>
     </g>
     <g id="line2d_70">
      <g>
       <use xlink:href="#m7df63085ab" x="44.7425" y="26.676564" style="stroke: #000000; stroke-width: 0.6"/>
      </g>
     </g>
    </g>
    <g id="ytick_20">
     <g id="line2d_71">
      <path d="M 44.7425 17.912969 
L 242.2745 17.912969 
" clip-path="url(#p6999757f76)" style="fill: none; stroke-dasharray: 2.96,1.28; stroke-dashoffset: 0; stroke: #f2f2f2; stroke-width: 0.8"/>
     </g>
     <g id="line2d_72">
      <g>
       <use xlink:href="#m7df63085ab" x="44.7425" y="17.912969" style="stroke: #000000; stroke-width: 0.6"/>
      </g>
     </g>
    </g>
    <g id="ytick_21">
     <g id="line2d_73">
      <path d="M 44.7425 11.695099 
L 242.2745 11.695099 
" clip-path="url(#p6999757f76)" style="fill: none; stroke-dasharray: 2.96,1.28; stroke-dashoffset: 0; stroke: #f2f2f2; stroke-width: 0.8"/>
     </g>
     <g id="line2d_74">
      <g>
       <use xlink:href="#m7df63085ab" x="44.7425" y="11.695099" style="stroke: #000000; stroke-width: 0.6"/>
      </g>
     </g>
    </g>
    <g id="text_6">
     <!-- Spectral acceleration, SA (g) -->
     <g transform="translate(13.27875 129.871075) rotate(-90) scale(0.08 -0.08)">
      <defs>
       <path id="DejaVuSans-53" d="M 3425 4513 
L 3425 3897 
Q 3066 4069 2747 4153 
Q 2428 4238 2131 4238 
Q 1616 4238 1336 4038 
Q 1056 3838 1056 3469 
Q 1056 3159 1242 3001 
Q 1428 2844 1947 2747 
L 2328 2669 
Q 3034 2534 3370 2195 
Q 3706 1856 3706 1288 
Q 3706 609 3251 259 
Q 2797 -91 1919 -91 
Q 1588 -91 1214 -16 
Q 841 59 441 206 
L 441 856 
Q 825 641 1194 531 
Q 1563 422 1919 422 
Q 2459 422 2753 634 
Q 3047 847 3047 1241 
Q 3047 1584 2836 1778 
Q 2625 1972 2144 2069 
L 1759 2144 
Q 1053 2284 737 2584 
Q 422 2884 422 3419 
Q 422 4038 858 4394 
Q 1294 4750 2059 4750 
Q 2388 4750 2728 4690 
Q 3069 4631 3425 4513 
z
" transform="scale(0.015625)"/>
       <path id="DejaVuSans-70" d="M 1159 525 
L 1159 -1331 
L 581 -1331 
L 581 3500 
L 1159 3500 
L 1159 2969 
Q 1341 3281 1617 3432 
Q 1894 3584 2278 3584 
Q 2916 3584 3314 3078 
Q 3713 2572 3713 1747 
Q 3713 922 3314 415 
Q 2916 -91 2278 -91 
Q 1894 -91 1617 61 
Q 1341 213 1159 525 
z
M 3116 1747 
Q 3116 2381 2855 2742 
Q 2594 3103 2138 3103 
Q 1681 3103 1420 2742 
Q 1159 2381 1159 1747 
Q 1159 1113 1420 752 
Q 1681 391 2138 391 
Q 2594 391 2855 752 
Q 3116 1113 3116 1747 
z
" transform="scale(0.015625)"/>
       <path id="DejaVuSans-63" d="M 3122 3366 
L 3122 2828 
Q 2878 2963 2633 3030 
Q 2388 3097 2138 3097 
Q 1578 3097 1268 2742 
Q 959 2388 959 1747 
Q 959 1106 1268 751 
Q 1578 397 2138 397 
Q 2388 397 2633 464 
Q 2878 531 3122 666 
L 3122 134 
Q 2881 22 2623 -34 
Q 2366 -91 2075 -91 
Q 1284 -91 818 406 
Q 353 903 353 1747 
Q 353 2603 823 3093 
Q 1294 3584 2113 3584 
Q 2378 3584 2631 3529 
Q 2884 3475 3122 3366 
z
" transform="scale(0.015625)"/>
       <path id="DejaVuSans-74" d="M 1172 4494 
L 1172 3500 
L 2356 3500 
L 2356 3053 
L 1172 3053 
L 1172 1153 
Q 1172 725 1289 603 
Q 1406 481 1766 481 
L 2356 481 
L 2356 0 
L 1766 0 
Q 1100 0 847 248 
Q 594 497 594 1153 
L 594 3053 
L 172 3053 
L 172 3500 
L 594 3500 
L 594 4494 
L 1172 4494 
z
" transform="scale(0.015625)"/>
       <path id="DejaVuSans-61" d="M 2194 1759 
Q 1497 1759 1228 1600 
Q 959 1441 959 1056 
Q 959 750 1161 570 
Q 1363 391 1709 391 
Q 2188 391 2477 730 
Q 2766 1069 2766 1631 
L 2766 1759 
L 2194 1759 
z
M 3341 1997 
L 3341 0 
L 2766 0 
L 2766 531 
Q 2569 213 2275 61 
Q 1981 -91 1556 -91 
Q 1019 -91 701 211 
Q 384 513 384 1019 
Q 384 1609 779 1909 
Q 1175 2209 1959 2209 
L 2766 2209 
L 2766 2266 
Q 2766 2663 2505 2880 
Q 2244 3097 1772 3097 
Q 1472 3097 1187 3025 
Q 903 2953 641 2809 
L 641 3341 
Q 956 3463 1253 3523 
Q 1550 3584 1831 3584 
Q 2591 3584 2966 3190 
Q 3341 2797 3341 1997 
z
" transform="scale(0.015625)"/>
       <path id="DejaVuSans-6c" d="M 603 4863 
L 1178 4863 
L 1178 0 
L 603 0 
L 603 4863 
z
" transform="scale(0.015625)"/>
       <path id="DejaVuSans-6e" d="M 3513 2113 
L 3513 0 
L 2938 0 
L 2938 2094 
Q 2938 2591 2744 2837 
Q 2550 3084 2163 3084 
Q 1697 3084 1428 2787 
Q 1159 2491 1159 1978 
L 1159 0 
L 581 0 
L 581 3500 
L 1159 3500 
L 1159 2956 
Q 1366 3272 1645 3428 
Q 1925 3584 2291 3584 
Q 2894 3584 3203 3211 
Q 3513 2838 3513 2113 
z
" transform="scale(0.015625)"/>
       <path id="DejaVuSans-41" d="M 2188 4044 
L 1331 1722 
L 3047 1722 
L 2188 4044 
z
M 1831 4666 
L 2547 4666 
L 4325 0 
L 3669 0 
L 3244 1197 
L 1141 1197 
L 716 0 
L 50 0 
L 1831 4666 
z
" transform="scale(0.015625)"/>
       <path id="DejaVuSans-67" d="M 2906 1791 
Q 2906 2416 2648 2759 
Q 2391 3103 1925 3103 
Q 1463 3103 1205 2759 
Q 947 2416 947 1791 
Q 947 1169 1205 825 
Q 1463 481 1925 481 
Q 2391 481 2648 825 
Q 2906 1169 2906 1791 
z
M 3481 434 
Q 3481 -459 3084 -895 
Q 2688 -1331 1869 -1331 
Q 1566 -1331 1297 -1286 
Q 1028 -1241 775 -1147 
L 775 -588 
Q 1028 -725 1275 -790 
Q 1522 -856 1778 -856 
Q 2344 -856 2625 -561 
Q 2906 -266 2906 331 
L 2906 616 
Q 2728 306 2450 153 
Q 2172 0 1784 0 
Q 1141 0 747 490 
Q 353 981 353 1791 
Q 353 2603 747 3093 
Q 1141 3584 1784 3584 
Q 2172 3584 2450 3431 
Q 2728 3278 2906 2969 
L 2906 3500 
L 3481 3500 
L 3481 434 
z
" transform="scale(0.015625)"/>
      </defs>
      <use xlink:href="#DejaVuSans-53"/>
      <use xlink:href="#DejaVuSans-70" x="63.476562"/>
      <use xlink:href="#DejaVuSans-65" x="126.953125"/>
      <use xlink:href="#DejaVuSans-63" x="188.476562"/>
      <use xlink:href="#DejaVuSans-74" x="243.457031"/>
      <use xlink:href="#DejaVuSans-72" x="282.666016"/>
      <use xlink:href="#DejaVuSans-61" x="323.779297"/>
      <use xlink:href="#DejaVuSans-6c" x="385.058594"/>
      <use xlink:href="#DejaVuSans-20" x="412.841797"/>
      <use xlink:href="#DejaVuSans-61" x="444.628906"/>
      <use xlink:href="#DejaVuSans-63" x="505.908203"/>
      <use xlink:href="#DejaVuSans-63" x="560.888672"/>
      <use xlink:href="#DejaVuSans-65" x="615.869141"/>
      <use xlink:href="#DejaVuSans-6c" x="677.392578"/>
      <use xlink:href="#DejaVuSans-65" x="705.175781"/>
      <use xlink:href="#DejaVuSans-72" x="766.699219"/>
      <use xlink:href="#DejaVuSans-61" x="807.8125"/>
      <use xlink:href="#DejaVuSans-74" x="869.091797"/>
      <use xlink:href="#DejaVuSans-69" x="908.300781"/>
      <use xlink:href="#DejaVuSans-6f" x="936.083984"/>
      <use xlink:href="#DejaVuSans-6e" x="997.265625"/>
      <use xlink:href="#DejaVuSans-2c" x="1060.644531"/>
      <use xlink:href="#DejaVuSans-20" x="1092.431641"/>
      <use xlink:href="#DejaVuSans-53" x="1124.21875"/>
      <use xlink:href="#DejaVuSans-41" x="1189.570312"/>
      <use xlink:href="#DejaVuSans-20" x="1257.978516"/>
      <use xlink:href="#DejaVuSans-28" x="1289.765625"/>
      <use xlink:href="#DejaVuSans-67" x="1328.779297"/>
      <use xlink:href="#DejaVuSans-29" x="1392.255859"/>
     </g>
    </g>
   </g>
   <g id="line2d_75">
    <path d="M 53.721227 63.533184 
L 72.333391 63.2081 
L 85.538931 62.669639 
L 95.781944 57.202769 
L 104.151095 58.746506 
L 117.356635 58.408568 
L 127.599648 41.305515 
L 146.211812 67.876895 
L 159.417352 84.170575 
L 171.460723 88.69108 
L 178.029516 95.809003 
L 191.235056 118.944077 
L 209.84722 120.406685 
L 223.05276 116.894251 
L 233.295773 120.576724 
" clip-path="url(#p6999757f76)" style="fill: none; stroke: #b2b2b2; stroke-width: 0.8; stroke-linecap: square"/>
   </g>
   <g id="line2d_76">
    <path d="M 53.721227 62.801264 
L 72.333391 78.810351 
L 85.538931 79.418559 
L 95.781944 76.472851 
L 104.151095 77.198933 
L 117.356635 71.254715 
L 127.599648 76.344314 
L 146.211812 84.042411 
L 159.417352 88.137058 
L 171.460723 81.81406 
L 178.029516 83.993222 
L 191.235056 91.474586 
L 209.84722 88.24261 
L 223.05276 92.640748 
L 233.295773 102.374266 
" clip-path="url(#p6999757f76)" style="fill: none; stroke: #b2b2b2; stroke-width: 0.8; stroke-linecap: square"/>
   </g>
   <g id="line2d_77">
    <path d="M 53.721227 36.951602 
L 72.333391 48.48939 
L 85.538931 67.292203 
L 95.781944 63.005308 
L 104.151095 67.043562 
L 117.356635 71.939922 
L 127.599648 73.843714 
L 146.211812 79.838377 
L 159.417352 82.164802 
L 171.460723 87.855972 
L 178.029516 84.651904 
L 191.235056 85.409091 
L 209.84722 91.275908 
L 223.05276 96.772042 
L 233.295773 102.759567 
" clip-path="url(#p6999757f76)" style="fill: none; stroke: #b2b2b2; stroke-width: 0.8; stroke-linecap: square"/>
   </g>
   <g id="line2d_78">
    <path d="M 53.721227 58.416302 
L 72.333391 54.21185 
L 85.538931 47.640721 
L 95.781944 46.735483 
L 104.151095 47.860144 
L 117.356635 52.184816 
L 127.599648 49.50479 
L 146.211812 75.235969 
L 159.417352 78.427898 
L 171.460723 89.094047 
L 178.029516 88.066767 
L 191.235056 91.137022 
L 209.84722 89.975846 
L 223.05276 107.004594 
L 233.295773 118.464779 
" clip-path="url(#p6999757f76)" style="fill: none; stroke: #b2b2b2; stroke-width: 0.8; stroke-linecap: square"/>
   </g>
   <g id="line2d_79">
    <path d="M 53.721227 56.294251 
L 72.333391 47.195196 
L 85.538931 52.875283 
L 95.781944 55.131833 
L 104.151095 64.387663 
L 117.356635 72.579624 
L 127.599648 71.706234 
L 146.211812 73.554196 
L 159.417352 85.396949 
L 171.460723 87.21634 
L 178.029516 85.318813 
L 191.235056 87.727017 
L 209.84722 92.901465 
L 223.05276 106.074406 
L 233.295773 117.003031 
" clip-path="url(#p6999757f76)" style="fill: none; stroke: #b2b2b2; stroke-width: 0.8; stroke-linecap: square"/>
   </g>
   <g id="line2d_80">
    <path d="M 53.721227 75.011847 
L 72.333391 65.780528 
L 85.538931 63.636948 
L 95.781944 58.956739 
L 104.151095 63.686418 
L 117.356635 68.866206 
L 127.599648 71.658919 
L 146.211812 71.470055 
L 159.417352 72.467817 
L 171.460723 87.128214 
L 178.029516 86.88808 
L 191.235056 105.098267 
L 209.84722 99.114947 
L 223.05276 94.242565 
L 233.295773 105.37554 
" clip-path="url(#p6999757f76)" style="fill: none; stroke: #b2b2b2; stroke-width: 0.8; stroke-linecap: square"/>
   </g>
   <g id="line2d_81">
    <path d="M 53.721227 51.961254 
L 72.333391 42.044381 
L 85.538931 51.068649 
L 95.781944 46.319504 
L 104.151095 40.23592 
L 117.356635 57.617561 
L 127.599648 56.35889 
L 146.211812 71.826254 
L 159.417352 74.893499 
L 171.460723 82.373227 
L 178.029516 92.370444 
L 191.235056 92.497078 
L 209.84722 120.482838 
L 223.05276 125.723251 
L 233.295773 131.276491 
" clip-path="url(#p6999757f76)" style="fill: none; stroke: #b2b2b2; stroke-width: 0.8; stroke-linecap: square"/>
   </g>
   <g id="line2d_82">
    <path d="M 53.721227 65.25366 
L 72.333391 60.547257 
L 85.538931 47.112454 
L 95.781944 51.471223 
L 104.151095 57.299329 
L 117.356635 59.856699 
L 127.599648 67.555571 
L 146.211812 66.703941 
L 159.417352 79.726284 
L 171.460723 89.027374 
L 178.029516 79.900066 
L 191.235056 100.956966 
L 209.84722 95.498527 
L 223.05276 105.982513 
L 233.295773 111.537019 
" clip-path="url(#p6999757f76)" style="fill: none; stroke: #b2b2b2; stroke-width: 0.8; stroke-linecap: square"/>
   </g>
   <g id="line2d_83">
    <path d="M 53.721227 62.871362 
L 72.333391 58.212502 
L 85.538931 60.703464 
L 95.781944 57.403296 
L 104.151095 51.905103 
L 117.356635 58.263662 
L 127.599648 63.107712 
L 146.211812 69.776696 
L 159.417352 82.715663 
L 171.460723 81.294861 
L 178.029516 85.075353 
L 191.235056 86.963811 
L 209.84722 100.72929 
L 223.05276 105.23855 
L 233.295773 126.088355 
" clip-path="url(#p6999757f76)" style="fill: none; stroke: #b2b2b2; stroke-width: 0.8; stroke-linecap: square"/>
   </g>
   <g id="line2d_84">
    <path d="M 53.721227 76.356132 
L 72.333391 69.064716 
L 85.538931 66.853579 
L 95.781944 60.899189 
L 104.151095 65.564632 
L 117.356635 85.807249 
L 127.599648 88.422731 
L 146.211812 89.099642 
L 159.417352 82.229987 
L 171.460723 84.286737 
L 178.029516 85.1764 
L 191.235056 86.67842 
L 209.84722 88.553024 
L 223.05276 97.254319 
L 233.295773 100.876302 
" clip-path="url(#p6999757f76)" style="fill: none; stroke: #b2b2b2; stroke-width: 0.8; stroke-linecap: square"/>
   </g>
   <g id="line2d_85">
    <path d="M 53.721227 62.609257 
L 72.333391 51.632655 
L 85.538931 54.828787 
L 95.781944 65.07464 
L 104.151095 68.742287 
L 117.356635 73.414065 
L 127.599648 73.153137 
L 146.211812 69.031441 
L 159.417352 71.086948 
L 171.460723 85.873487 
L 178.029516 89.537778 
L 191.235056 99.010949 
L 209.84722 108.472762 
L 223.05276 109.623381 
L 233.295773 121.229688 
" clip-path="url(#p6999757f76)" style="fill: none; stroke: #b2b2b2; stroke-width: 0.8; stroke-linecap: square"/>
   </g>
   <g id="line2d_86">
    <path d="M 53.721227 59.394003 
L 72.333391 50.572581 
L 85.538931 46.284333 
L 95.781944 44.704824 
L 104.151095 47.064491 
L 117.356635 64.090804 
L 127.599648 63.178345 
L 146.211812 73.995943 
L 159.417352 81.485141 
L 171.460723 85.851743 
L 178.029516 91.097499 
L 191.235056 95.19753 
L 209.84722 97.792389 
L 223.05276 99.760063 
L 233.295773 106.746226 
" clip-path="url(#p6999757f76)" style="fill: none; stroke: #b2b2b2; stroke-width: 0.8; stroke-linecap: square"/>
   </g>
   <g id="line2d_87">
    <path d="M 53.721227 73.314093 
L 72.333391 60.987708 
L 85.538931 58.208485 
L 95.781944 55.513599 
L 104.151095 47.754653 
L 117.356635 67.937322 
L 127.599648 73.823419 
L 146.211812 78.387184 
L 159.417352 78.529908 
L 171.460723 82.106232 
L 178.029516 81.898668 
L 191.235056 86.933282 
L 209.84722 94.309363 
L 223.05276 101.805558 
L 233.295773 108.542372 
" clip-path="url(#p6999757f76)" style="fill: none; stroke: #b2b2b2; stroke-width: 0.8; stroke-linecap: square"/>
   </g>
   <g id="line2d_88">
    <path d="M 53.721227 73.152694 
L 72.333391 52.807095 
L 85.538931 63.560499 
L 95.781944 68.688889 
L 104.151095 67.723661 
L 117.356635 72.676917 
L 127.599648 81.744864 
L 146.211812 81.636655 
L 159.417352 87.35745 
L 171.460723 81.046298 
L 178.029516 77.803537 
L 191.235056 81.0464 
L 209.84722 91.972109 
L 223.05276 107.060282 
L 233.295773 116.590168 
" clip-path="url(#p6999757f76)" style="fill: none; stroke: #b2b2b2; stroke-width: 0.8; stroke-linecap: square"/>
   </g>
   <g id="line2d_89">
    <path d="M 53.721227 61.253525 
L 72.333391 65.426653 
L 85.538931 61.872021 
L 95.781944 69.554785 
L 104.151095 76.059629 
L 117.356635 71.064424 
L 127.599648 63.051278 
L 146.211812 74.861471 
L 159.417352 79.102167 
L 171.460723 83.386185 
L 178.029516 83.551925 
L 191.235056 94.887199 
L 209.84722 108.116831 
L 223.05276 106.197869 
L 233.295773 106.464329 
" clip-path="url(#p6999757f76)" style="fill: none; stroke: #b2b2b2; stroke-width: 0.8; stroke-linecap: square"/>
   </g>
   <g id="line2d_90">
    <path d="M 53.721227 62.092748 
L 72.333391 58.957194 
L 85.538931 61.828247 
L 95.781944 71.903138 
L 104.151095 83.110499 
L 117.356635 72.597891 
L 127.599648 81.445471 
L 146.211812 89.972214 
L 159.417352 84.533683 
L 171.460723 88.724165 
L 178.029516 92.21275 
L 191.235056 88.749136 
L 209.84722 92.944428 
L 223.05276 95.361829 
L 233.295773 112.218238 
" clip-path="url(#p6999757f76)" style="fill: none; stroke: #b2b2b2; stroke-width: 0.8; stroke-linecap: square"/>
   </g>
   <g id="line2d_91">
    <path d="M 53.721227 30.55079 
L 72.333391 13.1472 
L 85.538931 27.911229 
L 95.781944 33.747678 
L 104.151095 44.64232 
L 117.356635 52.081346 
L 127.599648 72.136664 
L 146.211812 81.558383 
L 159.417352 83.292824 
L 171.460723 84.885799 
L 178.029516 85.21364 
L 191.235056 92.619561 
L 209.84722 109.33923 
L 223.05276 115.071086 
L 233.295773 115.216773 
" clip-path="url(#p6999757f76)" style="fill: none; stroke: #b2b2b2; stroke-width: 0.8; stroke-linecap: square"/>
   </g>
   <g id="line2d_92">
    <path d="M 53.721227 41.446816 
L 72.333391 31.247541 
L 85.538931 27.395045 
L 95.781944 38.480055 
L 104.151095 28.179624 
L 117.356635 46.731872 
L 127.599648 55.931671 
L 146.211812 72.138535 
L 159.417352 77.631651 
L 171.460723 85.810321 
L 178.029516 94.803911 
L 191.235056 96.073241 
L 209.84722 110.745516 
L 223.05276 119.190264 
L 233.295773 119.226318 
" clip-path="url(#p6999757f76)" style="fill: none; stroke: #b2b2b2; stroke-width: 0.8; stroke-linecap: square"/>
   </g>
   <g id="line2d_93">
    <path d="M 53.721227 57.390842 
L 72.333391 51.0169 
L 85.538931 56.941613 
L 95.781944 62.433552 
L 104.151095 59.139305 
L 117.356635 66.755618 
L 127.599648 73.950187 
L 146.211812 74.017613 
L 159.417352 78.074962 
L 171.460723 84.907002 
L 178.029516 81.606444 
L 191.235056 94.736655 
L 209.84722 95.125309 
L 223.05276 119.042698 
L 233.295773 124.012656 
" clip-path="url(#p6999757f76)" style="fill: none; stroke: #b2b2b2; stroke-width: 0.8; stroke-linecap: square"/>
   </g>
   <g id="line2d_94">
    <path d="M 53.721227 66.351264 
L 72.333391 64.520495 
L 85.538931 65.050506 
L 95.781944 56.930694 
L 104.151095 49.504347 
L 117.356635 56.81901 
L 127.599648 61.996668 
L 146.211812 74.659645 
L 159.417352 78.235281 
L 171.460723 80.369237 
L 178.029516 87.262995 
L 191.235056 97.171849 
L 209.84722 99.975752 
L 223.05276 101.193418 
L 233.295773 95.00815 
" clip-path="url(#p6999757f76)" style="fill: none; stroke: #b2b2b2; stroke-width: 0.8; stroke-linecap: square"/>
   </g>
   <g id="line2d_95">
    <path d="M 53.721227 70.745573 
L 72.333391 68.069748 
L 85.538931 65.961808 
L 95.781944 63.346624 
L 104.151095 66.775014 
L 117.356635 58.126541 
L 127.599648 67.593134 
L 146.211812 72.599305 
L 159.417352 67.141417 
L 171.460723 85.85719 
L 178.029516 93.76105 
L 191.235056 96.909213 
L 209.84722 108.420055 
L 223.05276 101.864182 
L 233.295773 116.002706 
" clip-path="url(#p6999757f76)" style="fill: none; stroke: #b2b2b2; stroke-width: 0.8; stroke-linecap: square"/>
   </g>
   <g id="line2d_96">
    <path d="M 53.721227 55.969833 
L 72.333391 53.218996 
L 85.538931 51.996224 
L 95.781944 46.190783 
L 104.151095 54.352774 
L 117.356635 63.536654 
L 127.599648 72.268563 
L 146.211812 81.666952 
L 159.417352 83.723607 
L 171.460723 87.588366 
L 178.029516 87.319621 
L 191.235056 87.807235 
L 209.84722 96.52688 
L 223.05276 92.067393 
L 233.295773 102.868766 
" clip-path="url(#p6999757f76)" style="fill: none; stroke: #b2b2b2; stroke-width: 0.8; stroke-linecap: square"/>
   </g>
   <g id="line2d_97">
    <path d="M 53.721227 73.766518 
L 72.333391 67.881858 
L 85.538931 68.180007 
L 95.781944 59.119199 
L 104.151095 71.888299 
L 117.356635 76.814973 
L 127.599648 72.969663 
L 146.211812 79.492152 
L 159.417352 92.850617 
L 171.460723 85.536573 
L 178.029516 88.2174 
L 191.235056 86.204509 
L 209.84722 90.472531 
L 223.05276 101.031218 
L 233.295773 108.681484 
" clip-path="url(#p6999757f76)" style="fill: none; stroke: #b2b2b2; stroke-width: 0.8; stroke-linecap: square"/>
   </g>
   <g id="line2d_98">
    <path d="M 53.721227 67.644629 
L 72.333391 63.391192 
L 85.538931 60.838469 
L 95.781944 72.097626 
L 104.151095 67.326627 
L 117.356635 59.011989 
L 127.599648 74.520212 
L 146.211812 84.144483 
L 159.417352 83.689444 
L 171.460723 77.934044 
L 178.029516 84.521458 
L 191.235056 96.351931 
L 209.84722 92.948711 
L 223.05276 97.114951 
L 233.295773 116.154958 
" clip-path="url(#p6999757f76)" style="fill: none; stroke: #b2b2b2; stroke-width: 0.8; stroke-linecap: square"/>
   </g>
   <g id="line2d_99">
    <path d="M 53.721227 57.267251 
L 72.333391 42.777137 
L 85.538931 44.746597 
L 95.781944 50.376456 
L 104.151095 56.618825 
L 117.356635 57.695434 
L 127.599648 62.175518 
L 146.211812 69.70739 
L 159.417352 87.91459 
L 171.460723 93.87663 
L 178.029516 89.846562 
L 191.235056 93.200927 
L 209.84722 93.868596 
L 223.05276 96.091249 
L 233.295773 109.348116 
" clip-path="url(#p6999757f76)" style="fill: none; stroke: #b2b2b2; stroke-width: 0.8; stroke-linecap: square"/>
   </g>
   <g id="line2d_100">
    <path d="M 53.721227 40.616412 
L 72.333391 39.602253 
L 85.538931 36.572476 
L 95.781944 50.771438 
L 104.151095 56.258886 
L 117.356635 62.24621 
L 127.599648 65.41095 
L 146.211812 74.687366 
L 159.417352 78.107028 
L 171.460723 89.455154 
L 178.029516 90.796622 
L 191.235056 90.955047 
L 209.84722 98.795848 
L 223.05276 113.565178 
L 233.295773 121.235232 
" clip-path="url(#p6999757f76)" style="fill: none; stroke: #b2b2b2; stroke-width: 0.8; stroke-linecap: square"/>
   </g>
   <g id="line2d_101">
    <path d="M 53.721227 28.877564 
L 72.333391 30.752836 
L 85.538931 20.450278 
L 95.781944 25.614233 
L 104.151095 34.174065 
L 117.356635 44.408603 
L 127.599648 55.164728 
L 146.211812 78.498538 
L 159.417352 81.74985 
L 171.460723 85.790535 
L 178.029516 93.840383 
L 191.235056 99.944269 
L 209.84722 102.337603 
L 223.05276 99.520539 
L 233.295773 116.354806 
" clip-path="url(#p6999757f76)" style="fill: none; stroke: #b2b2b2; stroke-width: 0.8; stroke-linecap: square"/>
   </g>
   <g id="line2d_102">
    <path d="M 53.721227 66.047163 
L 72.333391 63.69221 
L 85.538931 54.006606 
L 95.781944 49.308722 
L 104.151095 45.141351 
L 117.356635 56.051387 
L 127.599648 56.230361 
L 146.211812 63.400352 
L 159.417352 80.951807 
L 171.460723 88.912737 
L 178.029516 96.2733 
L 191.235056 96.383984 
L 209.84722 100.696598 
L 223.05276 105.500541 
L 233.295773 112.053095 
" clip-path="url(#p6999757f76)" style="fill: none; stroke: #b2b2b2; stroke-width: 0.8; stroke-linecap: square"/>
   </g>
   <g id="line2d_103">
    <path d="M 53.721227 66.108552 
L 72.333391 59.821931 
L 85.538931 54.627052 
L 95.781944 56.988972 
L 104.151095 61.749601 
L 117.356635 58.245965 
L 127.599648 66.215768 
L 146.211812 73.453663 
L 159.417352 72.42894 
L 171.460723 80.515531 
L 178.029516 84.629474 
L 191.235056 94.757188 
L 209.84722 106.875662 
L 223.05276 131.450742 
L 233.295773 132.0912 
" clip-path="url(#p6999757f76)" style="fill: none; stroke: #b2b2b2; stroke-width: 0.8; stroke-linecap: square"/>
   </g>
   <g id="line2d_104">
    <path d="M 53.721227 80.968098 
L 72.333391 83.810041 
L 85.538931 82.444634 
L 95.781944 83.968521 
L 104.151095 81.147577 
L 117.356635 81.466951 
L 127.599648 85.344345 
L 146.211812 88.300201 
L 159.417352 85.285262 
L 171.460723 82.694175 
L 178.029516 81.585718 
L 191.235056 85.075264 
L 209.84722 97.365525 
L 223.05276 99.787487 
L 233.295773 91.707676 
" clip-path="url(#p6999757f76)" style="fill: none; stroke: #b2b2b2; stroke-width: 0.8; stroke-linecap: square"/>
   </g>
   <g id="line2d_105">
    <path d="M 53.721227 68.966864 
L 72.333391 61.622615 
L 85.538931 58.420506 
L 95.781944 60.738103 
L 104.151095 58.578858 
L 117.356635 63.335169 
L 127.599648 72.56579 
L 146.211812 84.039899 
L 159.417352 84.990509 
L 171.460723 95.364114 
L 178.029516 87.788096 
L 191.235056 89.133032 
L 209.84722 88.390299 
L 223.05276 109.675409 
L 233.295773 104.980824 
" clip-path="url(#p6999757f76)" style="fill: none; stroke: #b2b2b2; stroke-width: 0.8; stroke-linecap: square"/>
   </g>
   <g id="line2d_106">
    <path d="M 53.721227 50.510215 
L 72.333391 49.947562 
L 85.538931 41.560658 
L 95.781944 31.452271 
L 104.151095 41.12265 
L 117.356635 33.376466 
L 127.599648 52.28404 
L 146.211812 65.111236 
L 159.417352 81.047381 
L 171.460723 90.327216 
L 178.029516 98.850605 
L 191.235056 97.190399 
L 209.84722 99.691866 
L 223.05276 119.745645 
L 233.295773 128.780094 
" clip-path="url(#p6999757f76)" style="fill: none; stroke: #b2b2b2; stroke-width: 0.8; stroke-linecap: square"/>
   </g>
   <g id="line2d_107">
    <path d="M 53.721227 67.97488 
L 72.333391 67.045952 
L 85.538931 67.241022 
L 95.781944 71.362683 
L 104.151095 71.249048 
L 117.356635 69.662962 
L 127.599648 65.195957 
L 146.211812 75.24566 
L 159.417352 85.571274 
L 171.460723 77.745696 
L 178.029516 77.301619 
L 191.235056 91.573702 
L 209.84722 106.38614 
L 223.05276 110.239287 
L 233.295773 113.732928 
" clip-path="url(#p6999757f76)" style="fill: none; stroke: #b2b2b2; stroke-width: 0.8; stroke-linecap: square"/>
   </g>
   <g id="line2d_108">
    <path d="M 53.721227 35.66986 
L 72.333391 37.953407 
L 85.538931 33.388585 
L 95.781944 51.76922 
L 104.151095 52.304227 
L 117.356635 60.325912 
L 127.599648 67.61661 
L 146.211812 74.971338 
L 159.417352 85.927135 
L 171.460723 91.194516 
L 178.029516 91.931161 
L 191.235056 92.737421 
L 209.84722 101.910667 
L 223.05276 97.435697 
L 233.295773 101.48057 
" clip-path="url(#p6999757f76)" style="fill: none; stroke: #b2b2b2; stroke-width: 0.8; stroke-linecap: square"/>
   </g>
   <g id="line2d_109">
    <path d="M 53.721227 46.684507 
L 72.333391 60.528986 
L 85.538931 62.460378 
L 95.781944 68.471658 
L 104.151095 61.534379 
L 117.356635 67.919953 
L 127.599648 75.491269 
L 146.211812 81.384184 
L 159.417352 84.422807 
L 171.460723 83.554055 
L 178.029516 96.087053 
L 191.235056 95.636081 
L 209.84722 91.835901 
L 223.05276 109.807554 
L 233.295773 112.719165 
" clip-path="url(#p6999757f76)" style="fill: none; stroke: #b2b2b2; stroke-width: 0.8; stroke-linecap: square"/>
   </g>
   <g id="line2d_110">
    <path d="M 53.721227 69.926882 
L 72.333391 64.010787 
L 85.538931 67.625322 
L 95.781944 71.40537 
L 104.151095 76.744887 
L 117.356635 78.053213 
L 127.599648 79.486081 
L 146.211812 85.574936 
L 159.417352 89.509036 
L 171.460723 93.318696 
L 178.029516 87.594108 
L 191.235056 90.038256 
L 209.84722 98.475819 
L 223.05276 100.408051 
L 233.295773 95.197632 
" clip-path="url(#p6999757f76)" style="fill: none; stroke: #b2b2b2; stroke-width: 0.8; stroke-linecap: square"/>
   </g>
   <g id="line2d_111">
    <path d="M 53.721227 48.265254 
L 72.333391 45.42261 
L 85.538931 48.973868 
L 95.781944 47.747421 
L 104.151095 49.734158 
L 117.356635 58.696999 
L 127.599648 69.089471 
L 146.211812 76.642358 
L 159.417352 77.033861 
L 171.460723 97.102401 
L 178.029516 91.871525 
L 191.235056 89.310461 
L 209.84722 93.109507 
L 223.05276 93.865211 
L 233.295773 104.549642 
" clip-path="url(#p6999757f76)" style="fill: none; stroke: #b2b2b2; stroke-width: 0.8; stroke-linecap: square"/>
   </g>
   <g id="line2d_112">
    <path d="M 53.721227 40.29463 
L 72.333391 39.955619 
L 85.538931 32.993939 
L 95.781944 45.243278 
L 104.151095 55.762552 
L 117.356635 64.086604 
L 127.599648 71.183069 
L 146.211812 77.160783 
L 159.417352 77.203794 
L 171.460723 83.282056 
L 178.029516 91.811211 
L 191.235056 90.363979 
L 209.84722 105.075287 
L 223.05276 111.425461 
L 233.295773 121.792196 
" clip-path="url(#p6999757f76)" style="fill: none; stroke: #b2b2b2; stroke-width: 0.8; stroke-linecap: square"/>
   </g>
   <g id="line2d_113">
    <path d="M 53.721227 65.643937 
L 72.333391 67.850703 
L 85.538931 64.848011 
L 95.781944 65.266848 
L 104.151095 66.638775 
L 117.356635 73.971647 
L 127.599648 79.11526 
L 146.211812 88.908165 
L 159.417352 85.564696 
L 171.460723 82.431614 
L 178.029516 78.793476 
L 191.235056 91.172689 
L 209.84722 101.424526 
L 223.05276 105.514263 
L 233.295773 116.414876 
" clip-path="url(#p6999757f76)" style="fill: none; stroke: #b2b2b2; stroke-width: 0.8; stroke-linecap: square"/>
   </g>
   <g id="line2d_114">
    <path d="M 53.721227 78.126134 
L 72.333391 71.740953 
L 85.538931 63.546458 
L 95.781944 58.184478 
L 104.151095 54.12294 
L 117.356635 64.730033 
L 127.599648 67.284332 
L 146.211812 74.104928 
L 159.417352 81.045988 
L 171.460723 84.705372 
L 178.029516 87.836742 
L 191.235056 88.951028 
L 209.84722 100.999509 
L 223.05276 106.869058 
L 233.295773 112.819879 
" clip-path="url(#p6999757f76)" style="fill: none; stroke: #b2b2b2; stroke-width: 0.8; stroke-linecap: square"/>
   </g>
   <g id="line2d_115">
    <path d="M 53.721227 61.596336 
L 72.333391 57.785083 
L 85.538931 51.248846 
L 95.781944 52.422278 
L 104.151095 57.294714 
L 117.356635 62.329821 
L 127.599648 60.337966 
L 146.211812 79.323714 
L 159.417352 85.896648 
L 171.460723 83.314145 
L 178.029516 87.744113 
L 191.235056 82.400638 
L 209.84722 112.521271 
L 223.05276 103.59559 
L 233.295773 112.070086 
" clip-path="url(#p6999757f76)" style="fill: none; stroke: #b2b2b2; stroke-width: 0.8; stroke-linecap: square"/>
   </g>
   <g id="line2d_116">
    <path d="M 53.721227 55.057056 
L 72.333391 50.024567 
L 85.538931 49.841854 
L 95.781944 44.540922 
L 104.151095 52.224903 
L 117.356635 52.152818 
L 127.599648 62.532428 
L 146.211812 68.307409 
L 159.417352 80.272281 
L 171.460723 90.337976 
L 178.029516 91.885632 
L 191.235056 94.204748 
L 209.84722 98.877395 
L 223.05276 115.376129 
L 233.295773 113.758031 
" clip-path="url(#p6999757f76)" style="fill: none; stroke: #b2b2b2; stroke-width: 0.8; stroke-linecap: square"/>
   </g>
   <g id="line2d_117">
    <path d="M 53.721227 79.132736 
L 72.333391 68.955113 
L 85.538931 64.223785 
L 95.781944 69.557723 
L 104.151095 66.294463 
L 117.356635 79.915219 
L 127.599648 73.413108 
L 146.211812 84.8756 
L 159.417352 88.527545 
L 171.460723 84.550096 
L 178.029516 86.011121 
L 191.235056 92.533574 
L 209.84722 97.30369 
L 223.05276 100.791857 
L 233.295773 102.030253 
" clip-path="url(#p6999757f76)" style="fill: none; stroke: #b2b2b2; stroke-width: 0.8; stroke-linecap: square"/>
   </g>
   <g id="line2d_118">
    <path d="M 53.721227 28.483278 
L 72.333391 22.967773 
L 85.538931 38.411834 
L 95.781944 36.977215 
L 104.151095 44.152906 
L 117.356635 48.574094 
L 127.599648 62.370761 
L 146.211812 74.657569 
L 159.417352 87.664433 
L 171.460723 94.531021 
L 178.029516 91.374687 
L 191.235056 106.335161 
L 209.84722 108.444916 
L 223.05276 106.225472 
L 233.295773 106.205875 
" clip-path="url(#p6999757f76)" style="fill: none; stroke: #b2b2b2; stroke-width: 0.8; stroke-linecap: square"/>
   </g>
   <g id="line2d_119">
    <path d="M 53.721227 57.214923 
L 72.333391 58.502174 
L 85.538931 52.888303 
L 95.781944 55.55924 
L 104.151095 48.58715 
L 117.356635 62.396635 
L 127.599648 61.910983 
L 146.211812 63.697717 
L 159.417352 84.935899 
L 171.460723 87.584048 
L 178.029516 90.778765 
L 191.235056 90.735385 
L 209.84722 104.336974 
L 223.05276 114.309219 
L 233.295773 127.934211 
" clip-path="url(#p6999757f76)" style="fill: none; stroke: #b2b2b2; stroke-width: 0.8; stroke-linecap: square"/>
   </g>
   <g id="line2d_120">
    <path d="M 53.721227 79.637369 
L 72.333391 72.571027 
L 85.538931 81.546028 
L 95.781944 84.630493 
L 104.151095 83.510132 
L 117.356635 86.825685 
L 127.599648 78.927491 
L 146.211812 75.149408 
L 159.417352 75.366951 
L 171.460723 78.134314 
L 178.029516 89.320307 
L 191.235056 98.843443 
L 209.84722 109.467157 
L 223.05276 111.20726 
L 233.295773 119.129092 
" clip-path="url(#p6999757f76)" style="fill: none; stroke: #b2b2b2; stroke-width: 0.8; stroke-linecap: square"/>
   </g>
   <g id="line2d_121">
    <path d="M 53.721227 63.35065 
L 72.333391 53.684434 
L 85.538931 46.961633 
L 95.781944 46.096955 
L 104.151095 57.511032 
L 117.356635 57.465562 
L 127.599648 60.036153 
L 146.211812 73.223776 
L 159.417352 79.395304 
L 171.460723 92.16581 
L 178.029516 95.038681 
L 191.235056 96.224213 
L 209.84722 96.585894 
L 223.05276 107.759221 
L 233.295773 103.737331 
" clip-path="url(#p6999757f76)" style="fill: none; stroke: #b2b2b2; stroke-width: 0.8; stroke-linecap: square"/>
   </g>
   <g id="line2d_122">
    <path d="M 53.721227 59.33654 
L 72.333391 48.444811 
L 85.538931 47.397437 
L 95.781944 63.516685 
L 104.151095 63.362263 
L 117.356635 68.235469 
L 127.599648 63.327596 
L 146.211812 77.29837 
L 159.417352 87.014995 
L 171.460723 98.810462 
L 178.029516 89.974049 
L 191.235056 90.097474 
L 209.84722 85.615173 
L 223.05276 83.317648 
L 233.295773 85.358874 
" clip-path="url(#p6999757f76)" style="fill: none; stroke: #b2b2b2; stroke-width: 0.8; stroke-linecap: square"/>
   </g>
   <g id="line2d_123">
    <path d="M 53.721227 62.548352 
L 72.333391 57.427579 
L 85.538931 54.878644 
L 95.781944 57.005976 
L 104.151095 58.254483 
L 117.356635 57.662072 
L 127.599648 68.81206 
L 146.211812 75.865292 
L 159.417352 83.497145 
L 171.460723 87.716456 
L 178.029516 80.66719 
L 191.235056 91.730839 
L 209.84722 107.434475 
L 223.05276 107.896415 
L 233.295773 111.48473 
" clip-path="url(#p6999757f76)" style="fill: none; stroke: #b2b2b2; stroke-width: 0.8; stroke-linecap: square"/>
   </g>
   <g id="line2d_124">
    <path d="M 53.721227 45.803586 
L 72.333391 42.562069 
L 85.538931 45.055958 
L 95.781944 49.295921 
L 104.151095 52.35515 
L 117.356635 58.51805 
L 127.599648 64.488556 
L 146.211812 73.8255 
L 159.417352 79.583297 
L 171.460723 87.388083 
L 178.029516 91.418529 
L 191.235056 94.347559 
L 209.84722 107.522103 
L 223.05276 105.401049 
L 233.295773 115.298042 
" clip-path="url(#p6999757f76)" style="fill: none; stroke: #b2b2b2; stroke-width: 0.8; stroke-linecap: square"/>
   </g>
   <g id="line2d_125">
    <path d="M 53.721227 59.415621 
L 72.333391 55.151247 
L 85.538931 54.597682 
L 95.781944 56.585755 
L 104.151095 58.548365 
L 117.356635 63.798047 
L 127.599648 67.905622 
L 146.211812 76.24109 
L 159.417352 81.444977 
L 171.460723 85.947385 
L 178.029516 88.004609 
L 191.235056 92.637078 
L 209.84722 99.890092 
L 223.05276 105.605542 
L 233.295773 112.043593 
" clip-path="url(#p6999757f76)" style="fill: none; stroke: #ff0000; stroke-width: 2; stroke-linecap: square"/>
   </g>
   <g id="line2d_126">
    <path d="M 53.721227 32.591275 
L 72.333391 27.811279 
L 85.538931 28.20834 
L 95.781944 31.292778 
L 104.151095 34.486478 
L 117.356635 42.559759 
L 127.599648 49.429287 
L 146.211812 63.205004 
L 159.417352 71.514848 
L 171.460723 76.411613 
L 178.029516 77.83924 
L 191.235056 80.419757 
L 209.84722 84.16839 
L 223.05276 88.006936 
L 233.295773 92.494086 
" clip-path="url(#p6999757f76)" style="fill: none; stroke-dasharray: 7.4,3.2; stroke-dashoffset: 0; stroke: #ff0000; stroke-width: 2"/>
   </g>
   <g id="line2d_127">
    <path d="M 53.721227 86.239967 
L 72.333391 82.491216 
L 85.538931 80.987023 
L 95.781944 81.878731 
L 104.151095 82.610253 
L 117.356635 85.036335 
L 127.599648 86.381956 
L 146.211812 89.277176 
L 159.417352 91.375105 
L 171.460723 95.483157 
L 178.029516 98.169978 
L 191.235056 104.854398 
L 209.84722 115.611794 
L 223.05276 123.204149 
L 233.295773 131.5931 
" clip-path="url(#p6999757f76)" style="fill: none; stroke-dasharray: 7.4,3.2; stroke-dashoffset: 0; stroke: #ff0000; stroke-width: 2"/>
   </g>
   <g id="line2d_128">
    <path d="M 53.721227 59.384849 
L 72.333391 55.198046 
L 85.538931 54.72979 
L 95.781944 56.593147 
L 104.151095 58.652434 
L 117.356635 63.735748 
L 127.599648 67.871646 
L 146.211812 76.300035 
L 159.417352 81.759482 
L 171.460723 86.469229 
L 178.029516 88.142189 
L 191.235056 93.089236 
L 209.84722 99.993828 
L 223.05276 105.619853 
L 233.295773 111.951187 
" clip-path="url(#p6999757f76)" style="fill: none; stroke: #0000ff; stroke-width: 2; stroke-linecap: square"/>
   </g>
   <g id="line2d_129">
    <path d="M 53.721227 32.556586 
L 72.333391 27.846893 
L 85.538931 28.171903 
L 95.781944 31.57224 
L 104.151095 34.451483 
L 117.356635 42.922662 
L 127.599648 49.518031 
L 146.211812 63.335365 
L 159.417352 71.635213 
L 171.460723 76.940988 
L 178.029516 78.016658 
L 191.235056 80.452813 
L 209.84722 84.013516 
L 223.05276 87.57877 
L 233.295773 92.128872 
" clip-path="url(#p6999757f76)" style="fill: none; stroke-dasharray: 7.4,3.2; stroke-dashoffset: 0; stroke: #0000ff; stroke-width: 2"/>
   </g>
   <g id="line2d_130">
    <path d="M 53.721227 86.213113 
L 72.333391 82.5492 
L 85.538931 81.287677 
L 95.781944 81.614055 
L 104.151095 82.853386 
L 117.356635 84.548833 
L 127.599648 86.225262 
L 146.211812 89.264705 
L 159.417352 91.883751 
L 171.460723 95.99747 
L 178.029516 98.26772 
L 191.235056 105.725658 
L 209.84722 115.974141 
L 223.05276 123.660937 
L 233.295773 131.773503 
" clip-path="url(#p6999757f76)" style="fill: none; stroke-dasharray: 7.4,3.2; stroke-dashoffset: 0; stroke: #0000ff; stroke-width: 2"/>
   </g>
   <g id="patch_3">
    <path d="M 44.7425 138.0384 
L 44.7425 7.2 
" style="fill: none; stroke: #000000; stroke-width: 0.8; stroke-linejoin: miter; stroke-linecap: square"/>
   </g>
   <g id="patch_4">
    <path d="M 242.2745 138.0384 
L 242.2745 7.2 
" style="fill: none; stroke: #000000; stroke-width: 0.8; stroke-linejoin: miter; stroke-linecap: square"/>
   </g>
   <g id="patch_5">
    <path d="M 44.7425 138.0384 
L 242.2745 138.0384 
" style="fill: none; stroke: #000000; stroke-width: 0.8; stroke-linejoin: miter; stroke-linecap: square"/>
   </g>
   <g id="patch_6">
    <path d="M 44.7425 7.2 
L 242.2745 7.2 
" style="fill: none; stroke: #000000; stroke-width: 0.8; stroke-linejoin: miter; stroke-linecap: square"/>
   </g>
   <g id="legend_1">
    <g id="patch_7">
     <path d="M 247.8745 104.47295 
L 432.5945 104.47295 
Q 434.1945 104.47295 434.1945 102.87295 
L 434.1945 42.36545 
Q 434.1945 40.76545 432.5945 40.76545 
L 247.8745 40.76545 
Q 246.2745 40.76545 246.2745 42.36545 
L 246.2745 102.87295 
Q 246.2745 104.47295 247.8745 104.47295 
z
" style="fill: #ffffff; opacity: 0.8; stroke: #cccccc; stroke-linejoin: miter"/>
    </g>
    <g id="line2d_131">
     <path d="M 249.4745 47.2442 
L 257.4745 47.2442 
L 265.4745 47.2442 
" style="fill: none; stroke: #b2b2b2; stroke-width: 0.8; stroke-linecap: square"/>
    </g>
    <g id="text_7">
     <!-- Individual selected GMs -->
     <g transform="translate(271.8745 50.0442) scale(0.08 -0.08)">
      <defs>
       <path id="DejaVuSans-49" d="M 628 4666 
L 1259 4666 
L 1259 0 
L 628 0 
L 628 4666 
z
" transform="scale(0.015625)"/>
       <path id="DejaVuSans-76" d="M 191 3500 
L 800 3500 
L 1894 563 
L 2988 3500 
L 3597 3500 
L 2284 0 
L 1503 0 
L 191 3500 
z
" transform="scale(0.015625)"/>
       <path id="DejaVuSans-75" d="M 544 1381 
L 544 3500 
L 1119 3500 
L 1119 1403 
Q 1119 906 1312 657 
Q 1506 409 1894 409 
Q 2359 409 2629 706 
Q 2900 1003 2900 1516 
L 2900 3500 
L 3475 3500 
L 3475 0 
L 2900 0 
L 2900 538 
Q 2691 219 2414 64 
Q 2138 -91 1772 -91 
Q 1169 -91 856 284 
Q 544 659 544 1381 
z
M 1991 3584 
L 1991 3584 
z
" transform="scale(0.015625)"/>
       <path id="DejaVuSans-47" d="M 3809 666 
L 3809 1919 
L 2778 1919 
L 2778 2438 
L 4434 2438 
L 4434 434 
Q 4069 175 3628 42 
Q 3188 -91 2688 -91 
Q 1594 -91 976 548 
Q 359 1188 359 2328 
Q 359 3472 976 4111 
Q 1594 4750 2688 4750 
Q 3144 4750 3555 4637 
Q 3966 4525 4313 4306 
L 4313 3634 
Q 3963 3931 3569 4081 
Q 3175 4231 2741 4231 
Q 1884 4231 1454 3753 
Q 1025 3275 1025 2328 
Q 1025 1384 1454 906 
Q 1884 428 2741 428 
Q 3075 428 3337 486 
Q 3600 544 3809 666 
z
" transform="scale(0.015625)"/>
       <path id="DejaVuSans-4d" d="M 628 4666 
L 1569 4666 
L 2759 1491 
L 3956 4666 
L 4897 4666 
L 4897 0 
L 4281 0 
L 4281 4097 
L 3078 897 
L 2444 897 
L 1241 4097 
L 1241 0 
L 628 0 
L 628 4666 
z
" transform="scale(0.015625)"/>
      </defs>
      <use xlink:href="#DejaVuSans-49"/>
      <use xlink:href="#DejaVuSans-6e" x="29.492188"/>
      <use xlink:href="#DejaVuSans-64" x="92.871094"/>
      <use xlink:href="#DejaVuSans-69" x="156.347656"/>
      <use xlink:href="#DejaVuSans-76" x="184.130859"/>
      <use xlink:href="#DejaVuSans-69" x="243.310547"/>
      <use xlink:href="#DejaVuSans-64" x="271.09375"/>
      <use xlink:href="#DejaVuSans-75" x="334.570312"/>
      <use xlink:href="#DejaVuSans-61" x="397.949219"/>
      <use xlink:href="#DejaVuSans-6c" x="459.228516"/>
      <use xlink:href="#DejaVuSans-20" x="487.011719"/>
      <use xlink:href="#DejaVuSans-73" x="518.798828"/>
      <use xlink:href="#DejaVuSans-65" x="570.898438"/>
      <use xlink:href="#DejaVuSans-6c" x="632.421875"/>
      <use xlink:href="#DejaVuSans-65" x="660.205078"/>
      <use xlink:href="#DejaVuSans-63" x="721.728516"/>
      <use xlink:href="#DejaVuSans-74" x="776.708984"/>
      <use xlink:href="#DejaVuSans-65" x="815.917969"/>
      <use xlink:href="#DejaVuSans-64" x="877.441406"/>
      <use xlink:href="#DejaVuSans-20" x="940.917969"/>
      <use xlink:href="#DejaVuSans-47" x="972.705078"/>
      <use xlink:href="#DejaVuSans-4d" x="1050.195312"/>
      <use xlink:href="#DejaVuSans-73" x="1136.474609"/>
     </g>
    </g>
    <g id="line2d_132">
     <path d="M 249.4745 58.9867 
L 257.4745 58.9867 
L 265.4745 58.9867 
" style="fill: none; stroke: #ff0000; stroke-width: 2; stroke-linecap: square"/>
    </g>
    <g id="text_8">
     <!-- GCIM median -->
     <g transform="translate(271.8745 61.7867) scale(0.08 -0.08)">
      <defs>
       <path id="DejaVuSans-43" d="M 4122 4306 
L 4122 3641 
Q 3803 3938 3442 4084 
Q 3081 4231 2675 4231 
Q 1875 4231 1450 3742 
Q 1025 3253 1025 2328 
Q 1025 1406 1450 917 
Q 1875 428 2675 428 
Q 3081 428 3442 575 
Q 3803 722 4122 1019 
L 4122 359 
Q 3791 134 3420 21 
Q 3050 -91 2638 -91 
Q 1578 -91 968 557 
Q 359 1206 359 2328 
Q 359 3453 968 4101 
Q 1578 4750 2638 4750 
Q 3056 4750 3426 4639 
Q 3797 4528 4122 4306 
z
" transform="scale(0.015625)"/>
       <path id="DejaVuSans-6d" d="M 3328 2828 
Q 3544 3216 3844 3400 
Q 4144 3584 4550 3584 
Q 5097 3584 5394 3201 
Q 5691 2819 5691 2113 
L 5691 0 
L 5113 0 
L 5113 2094 
Q 5113 2597 4934 2840 
Q 4756 3084 4391 3084 
Q 3944 3084 3684 2787 
Q 3425 2491 3425 1978 
L 3425 0 
L 2847 0 
L 2847 2094 
Q 2847 2600 2669 2842 
Q 2491 3084 2119 3084 
Q 1678 3084 1418 2786 
Q 1159 2488 1159 1978 
L 1159 0 
L 581 0 
L 581 3500 
L 1159 3500 
L 1159 2956 
Q 1356 3278 1631 3431 
Q 1906 3584 2284 3584 
Q 2666 3584 2933 3390 
Q 3200 3197 3328 2828 
z
" transform="scale(0.015625)"/>
      </defs>
      <use xlink:href="#DejaVuSans-47"/>
      <use xlink:href="#DejaVuSans-43" x="77.490234"/>
      <use xlink:href="#DejaVuSans-49" x="147.314453"/>
      <use xlink:href="#DejaVuSans-4d" x="176.806641"/>
      <use xlink:href="#DejaVuSans-20" x="263.085938"/>
      <use xlink:href="#DejaVuSans-6d" x="294.873047"/>
      <use xlink:href="#DejaVuSans-65" x="392.285156"/>
      <use xlink:href="#DejaVuSans-64" x="453.808594"/>
      <use xlink:href="#DejaVuSans-69" x="517.285156"/>
      <use xlink:href="#DejaVuSans-61" x="545.068359"/>
      <use xlink:href="#DejaVuSans-6e" x="606.347656"/>
     </g>
    </g>
    <g id="line2d_133">
     <path d="M 249.4745 72.01045 
L 257.4745 72.01045 
L 265.4745 72.01045 
" style="fill: none; stroke-dasharray: 7.4,3.2; stroke-dashoffset: 0; stroke: #ff0000; stroke-width: 2"/>
    </g>
    <g id="text_9">
     <!-- GCIM $16^{th}$ and $84^{th}$ percentiles -->
     <g transform="translate(271.8745 74.81045) scale(0.08 -0.08)">
      <defs>
       <path id="DejaVuSans-36" d="M 2113 2584 
Q 1688 2584 1439 2293 
Q 1191 2003 1191 1497 
Q 1191 994 1439 701 
Q 1688 409 2113 409 
Q 2538 409 2786 701 
Q 3034 994 3034 1497 
Q 3034 2003 2786 2293 
Q 2538 2584 2113 2584 
z
M 3366 4563 
L 3366 3988 
Q 3128 4100 2886 4159 
Q 2644 4219 2406 4219 
Q 1781 4219 1451 3797 
Q 1122 3375 1075 2522 
Q 1259 2794 1537 2939 
Q 1816 3084 2150 3084 
Q 2853 3084 3261 2657 
Q 3669 2231 3669 1497 
Q 3669 778 3244 343 
Q 2819 -91 2113 -91 
Q 1303 -91 875 529 
Q 447 1150 447 2328 
Q 447 3434 972 4092 
Q 1497 4750 2381 4750 
Q 2619 4750 2861 4703 
Q 3103 4656 3366 4563 
z
" transform="scale(0.015625)"/>
       <path id="DejaVuSans-Oblique-74" d="M 2706 3500 
L 2619 3053 
L 1472 3053 
L 1100 1153 
Q 1081 1047 1072 975 
Q 1063 903 1063 863 
Q 1063 663 1183 572 
Q 1303 481 1569 481 
L 2150 481 
L 2053 0 
L 1503 0 
Q 991 0 739 200 
Q 488 400 488 806 
Q 488 878 497 964 
Q 506 1050 525 1153 
L 897 3053 
L 409 3053 
L 500 3500 
L 978 3500 
L 1172 4494 
L 1747 4494 
L 1556 3500 
L 2706 3500 
z
" transform="scale(0.015625)"/>
       <path id="DejaVuSans-Oblique-68" d="M 3566 2113 
L 3156 0 
L 2578 0 
L 2988 2091 
Q 3016 2238 3031 2350 
Q 3047 2463 3047 2528 
Q 3047 2791 2881 2937 
Q 2716 3084 2419 3084 
Q 1956 3084 1617 2771 
Q 1278 2459 1178 1941 
L 800 0 
L 225 0 
L 1172 4863 
L 1747 4863 
L 1375 2950 
Q 1594 3244 1934 3414 
Q 2275 3584 2650 3584 
Q 3113 3584 3367 3334 
Q 3622 3084 3622 2631 
Q 3622 2519 3608 2391 
Q 3594 2263 3566 2113 
z
" transform="scale(0.015625)"/>
       <path id="DejaVuSans-38" d="M 2034 2216 
Q 1584 2216 1326 1975 
Q 1069 1734 1069 1313 
Q 1069 891 1326 650 
Q 1584 409 2034 409 
Q 2484 409 2743 651 
Q 3003 894 3003 1313 
Q 3003 1734 2745 1975 
Q 2488 2216 2034 2216 
z
M 1403 2484 
Q 997 2584 770 2862 
Q 544 3141 544 3541 
Q 544 4100 942 4425 
Q 1341 4750 2034 4750 
Q 2731 4750 3128 4425 
Q 3525 4100 3525 3541 
Q 3525 3141 3298 2862 
Q 3072 2584 2669 2484 
Q 3125 2378 3379 2068 
Q 3634 1759 3634 1313 
Q 3634 634 3220 271 
Q 2806 -91 2034 -91 
Q 1263 -91 848 271 
Q 434 634 434 1313 
Q 434 1759 690 2068 
Q 947 2378 1403 2484 
z
M 1172 3481 
Q 1172 3119 1398 2916 
Q 1625 2713 2034 2713 
Q 2441 2713 2670 2916 
Q 2900 3119 2900 3481 
Q 2900 3844 2670 4047 
Q 2441 4250 2034 4250 
Q 1625 4250 1398 4047 
Q 1172 3844 1172 3481 
z
" transform="scale(0.015625)"/>
       <path id="DejaVuSans-34" d="M 2419 4116 
L 825 1625 
L 2419 1625 
L 2419 4116 
z
M 2253 4666 
L 3047 4666 
L 3047 1625 
L 3713 1625 
L 3713 1100 
L 3047 1100 
L 3047 0 
L 2419 0 
L 2419 1100 
L 313 1100 
L 313 1709 
L 2253 4666 
z
" transform="scale(0.015625)"/>
      </defs>
      <use xlink:href="#DejaVuSans-47" transform="translate(0 0.529687)"/>
      <use xlink:href="#DejaVuSans-43" transform="translate(77.490234 0.529687)"/>
      <use xlink:href="#DejaVuSans-49" transform="translate(147.314453 0.529687)"/>
      <use xlink:href="#DejaVuSans-4d" transform="translate(176.806641 0.529687)"/>
      <use xlink:href="#DejaVuSans-20" transform="translate(263.085938 0.529687)"/>
      <use xlink:href="#DejaVuSans-31" transform="translate(294.873047 0.529687)"/>
      <use xlink:href="#DejaVuSans-36" transform="translate(358.496094 0.529687)"/>
      <use xlink:href="#DejaVuSans-Oblique-74" transform="translate(423.076172 38.810937) scale(0.7)"/>
      <use xlink:href="#DejaVuSans-Oblique-68" transform="translate(450.522461 38.810937) scale(0.7)"/>
      <use xlink:href="#DejaVuSans-20" transform="translate(497.62207 0.529687)"/>
      <use xlink:href="#DejaVuSans-61" transform="translate(529.40918 0.529687)"/>
      <use xlink:href="#DejaVuSans-6e" transform="translate(590.688477 0.529687)"/>
      <use xlink:href="#DejaVuSans-64" transform="translate(654.067383 0.529687)"/>
      <use xlink:href="#DejaVuSans-20" transform="translate(717.543945 0.529687)"/>
      <use xlink:href="#DejaVuSans-38" transform="translate(749.331055 0.529687)"/>
      <use xlink:href="#DejaVuSans-34" transform="translate(812.954102 0.529687)"/>
      <use xlink:href="#DejaVuSans-Oblique-74" transform="translate(877.53418 38.810937) scale(0.7)"/>
      <use xlink:href="#DejaVuSans-Oblique-68" transform="translate(904.980469 38.810937) scale(0.7)"/>
      <use xlink:href="#DejaVuSans-20" transform="translate(952.080078 0.529687)"/>
      <use xlink:href="#DejaVuSans-70" transform="translate(983.867188 0.529687)"/>
      <use xlink:href="#DejaVuSans-65" transform="translate(1047.34375 0.529687)"/>
      <use xlink:href="#DejaVuSans-72" transform="translate(1108.867188 0.529687)"/>
      <use xlink:href="#DejaVuSans-63" transform="translate(1149.980469 0.529687)"/>
      <use xlink:href="#DejaVuSans-65" transform="translate(1204.960938 0.529687)"/>
      <use xlink:href="#DejaVuSans-6e" transform="translate(1266.484375 0.529687)"/>
      <use xlink:href="#DejaVuSans-74" transform="translate(1329.863281 0.529687)"/>
      <use xlink:href="#DejaVuSans-69" transform="translate(1369.072266 0.529687)"/>
      <use xlink:href="#DejaVuSans-6c" transform="translate(1396.855469 0.529687)"/>
      <use xlink:href="#DejaVuSans-65" transform="translate(1424.638672 0.529687)"/>
      <use xlink:href="#DejaVuSans-73" transform="translate(1486.162109 0.529687)"/>
     </g>
    </g>
    <g id="line2d_134">
     <path d="M 249.4745 83.7692 
L 257.4745 83.7692 
L 265.4745 83.7692 
" style="fill: none; stroke: #0000ff; stroke-width: 2; stroke-linecap: square"/>
    </g>
    <g id="text_10">
     <!-- Selected GMs median -->
     <g transform="translate(271.8745 86.5692) scale(0.08 -0.08)">
      <use xlink:href="#DejaVuSans-53"/>
      <use xlink:href="#DejaVuSans-65" x="63.476562"/>
      <use xlink:href="#DejaVuSans-6c" x="125"/>
      <use xlink:href="#DejaVuSans-65" x="152.783203"/>
      <use xlink:href="#DejaVuSans-63" x="214.306641"/>
      <use xlink:href="#DejaVuSans-74" x="269.287109"/>
      <use xlink:href="#DejaVuSans-65" x="308.496094"/>
      <use xlink:href="#DejaVuSans-64" x="370.019531"/>
      <use xlink:href="#DejaVuSans-20" x="433.496094"/>
      <use xlink:href="#DejaVuSans-47" x="465.283203"/>
      <use xlink:href="#DejaVuSans-4d" x="542.773438"/>
      <use xlink:href="#DejaVuSans-73" x="629.052734"/>
      <use xlink:href="#DejaVuSans-20" x="681.152344"/>
      <use xlink:href="#DejaVuSans-6d" x="712.939453"/>
      <use xlink:href="#DejaVuSans-65" x="810.351562"/>
      <use xlink:href="#DejaVuSans-64" x="871.875"/>
      <use xlink:href="#DejaVuSans-69" x="935.351562"/>
      <use xlink:href="#DejaVuSans-61" x="963.134766"/>
      <use xlink:href="#DejaVuSans-6e" x="1024.414062"/>
     </g>
    </g>
    <g id="line2d_135">
     <path d="M 249.4745 96.79295 
L 257.4745 96.79295 
L 265.4745 96.79295 
" style="fill: none; stroke-dasharray: 7.4,3.2; stroke-dashoffset: 0; stroke: #0000ff; stroke-width: 2"/>
    </g>
    <g id="text_11">
     <!-- Selected GMs, $16^{th}$ and $84^{th}$ percentiles -->
     <g transform="translate(271.8745 99.59295) scale(0.08 -0.08)">
      <use xlink:href="#DejaVuSans-53" transform="translate(0 0.529687)"/>
      <use xlink:href="#DejaVuSans-65" transform="translate(63.476562 0.529687)"/>
      <use xlink:href="#DejaVuSans-6c" transform="translate(125 0.529687)"/>
      <use xlink:href="#DejaVuSans-65" transform="translate(152.783203 0.529687)"/>
      <use xlink:href="#DejaVuSans-63" transform="translate(214.306641 0.529687)"/>
      <use xlink:href="#DejaVuSans-74" transform="translate(269.287109 0.529687)"/>
      <use xlink:href="#DejaVuSans-65" transform="translate(308.496094 0.529687)"/>
      <use xlink:href="#DejaVuSans-64" transform="translate(370.019531 0.529687)"/>
      <use xlink:href="#DejaVuSans-20" transform="translate(433.496094 0.529687)"/>
      <use xlink:href="#DejaVuSans-47" transform="translate(465.283203 0.529687)"/>
      <use xlink:href="#DejaVuSans-4d" transform="translate(542.773438 0.529687)"/>
      <use xlink:href="#DejaVuSans-73" transform="translate(629.052734 0.529687)"/>
      <use xlink:href="#DejaVuSans-2c" transform="translate(681.152344 0.529687)"/>
      <use xlink:href="#DejaVuSans-20" transform="translate(712.939453 0.529687)"/>
      <use xlink:href="#DejaVuSans-31" transform="translate(744.726562 0.529687)"/>
      <use xlink:href="#DejaVuSans-36" transform="translate(808.349609 0.529687)"/>
      <use xlink:href="#DejaVuSans-Oblique-74" transform="translate(872.929688 38.810937) scale(0.7)"/>
      <use xlink:href="#DejaVuSans-Oblique-68" transform="translate(900.375977 38.810937) scale(0.7)"/>
      <use xlink:href="#DejaVuSans-20" transform="translate(947.475586 0.529687)"/>
      <use xlink:href="#DejaVuSans-61" transform="translate(979.262695 0.529687)"/>
      <use xlink:href="#DejaVuSans-6e" transform="translate(1040.541992 0.529687)"/>
      <use xlink:href="#DejaVuSans-64" transform="translate(1103.920898 0.529687)"/>
      <use xlink:href="#DejaVuSans-20" transform="translate(1167.397461 0.529687)"/>
      <use xlink:href="#DejaVuSans-38" transform="translate(1199.18457 0.529687)"/>
      <use xlink:href="#DejaVuSans-34" transform="translate(1262.807617 0.529687)"/>
      <use xlink:href="#DejaVuSans-Oblique-74" transform="translate(1327.387695 38.810937) scale(0.7)"/>
      <use xlink:href="#DejaVuSans-Oblique-68" transform="translate(1354.833984 38.810937) scale(0.7)"/>
      <use xlink:href="#DejaVuSans-20" transform="translate(1401.933594 0.529687)"/>
      <use xlink:href="#DejaVuSans-70" transform="translate(1433.720703 0.529687)"/>
      <use xlink:href="#DejaVuSans-65" transform="translate(1497.197266 0.529687)"/>
      <use xlink:href="#DejaVuSans-72" transform="translate(1558.720703 0.529687)"/>
      <use xlink:href="#DejaVuSans-63" transform="translate(1599.833984 0.529687)"/>
      <use xlink:href="#DejaVuSans-65" transform="translate(1654.814453 0.529687)"/>
      <use xlink:href="#DejaVuSans-6e" transform="translate(1716.337891 0.529687)"/>
      <use xlink:href="#DejaVuSans-74" transform="translate(1779.716797 0.529687)"/>
      <use xlink:href="#DejaVuSans-69" transform="translate(1818.925781 0.529687)"/>
      <use xlink:href="#DejaVuSans-6c" transform="translate(1846.708984 0.529687)"/>
      <use xlink:href="#DejaVuSans-65" transform="translate(1874.492188 0.529687)"/>
      <use xlink:href="#DejaVuSans-73" transform="translate(1936.015625 0.529687)"/>
     </g>
    </g>
   </g>
  </g>
 </g>
 <defs>
  <clipPath id="p6999757f76">
   <rect x="44.7425" y="7.2" width="197.532" height="130.8384"/>
  </clipPath>
 </defs>
</svg>
