<?xml version="1.0" encoding="utf-8" standalone="no"?>
<!DOCTYPE svg PUBLIC "-//W3C//DTD SVG 1.1//EN"
  "http://www.w3.org/Graphics/SVG/1.1/DTD/svg11.dtd">
<svg xmlns:xlink="http://www.w3.org/1999/xlink" width="436.6745pt" height="171.7234pt" viewBox="0 0 436.6745 171.7234" xmlns="http://www.w3.org/2000/svg" version="1.1">
 <metadata>
  <rdf:RDF xmlns:dc="http://purl.org/dc/elements/1.1/" xmlns:cc="http://creativecommons.org/ns#" xmlns:rdf="http://www.w3.org/1999/02/22-rdf-syntax-ns#">
   <cc:Work>
    <dc:type rdf:resource="http://purl.org/dc/dcmitype/StillImage"/>
    <dc:date>2024-11-14T19:18:50.116888</dc:date>
    <dc:format>image/svg+xml</dc:format>
    <dc:creator>
     <cc:Agent>
      <dc:title>Matplotlib v3.8.2, https://matplotlib.org/</dc:title>
     </cc:Agent>
    </dc:creator>
   </cc:Work>
  </rdf:RDF>
 </metadata>
 <defs>
  <style type="text/css">*{stroke-linejoin: round; stroke-linecap: butt}</style>
 </defs>
 <g id="figure_1">
  <g id="patch_1">
   <path d="M 0 171.7234 
L 436.6745 171.7234 
L 436.6745 0 
L 0 0 
z
" style="fill: #ffffff"/>
  </g>
  <g id="axes_1">
   <g id="patch_2">
    <path d="M 40.0225 138.0384 
L 237.5545 138.0384 
L 237.5545 7.2 
L 40.0225 7.2 
z
" style="fill: #ffffff"/>
   </g>
   <g id="matplotlib.axis_1">
    <g id="xtick_1">
     <g id="line2d_1">
      <path d="M 49.001227 138.0384 
L 49.001227 7.2 
" clip-path="url(#p98eee4f4f2)" style="fill: none; stroke: #d9d9d9; stroke-width: 0.8; stroke-linecap: square"/>
     </g>
     <g id="line2d_2">
      <defs>
       <path id="m4a139142e5" d="M 0 0 
L 0 3.5 
" style="stroke: #000000; stroke-width: 0.8"/>
      </defs>
      <g>
       <use xlink:href="#m4a139142e5" x="49.001227" y="138.0384" style="stroke: #000000; stroke-width: 0.8"/>
      </g>
     </g>
     <g id="text_1">
      <!-- $\mathdefault{10^{-1}}$ -->
      <g transform="translate(39.601227 151.11715) scale(0.08 -0.08)">
       <defs>
        <path id="DejaVuSans-31" d="M 794 531 
L 1825 531 
L 1825 4091 
L 703 3866 
L 703 4441 
L 1819 4666 
L 2450 4666 
L 2450 531 
L 3481 531 
L 3481 0 
L 794 0 
L 794 531 
z
" transform="scale(0.015625)"/>
        <path id="DejaVuSans-30" d="M 2034 4250 
Q 1547 4250 1301 3770 
Q 1056 3291 1056 2328 
Q 1056 1369 1301 889 
Q 1547 409 2034 409 
Q 2525 409 2770 889 
Q 3016 1369 3016 2328 
Q 3016 3291 2770 3770 
Q 2525 4250 2034 4250 
z
M 2034 4750 
Q 2819 4750 3233 4129 
Q 3647 3509 3647 2328 
Q 3647 1150 3233 529 
Q 2819 -91 2034 -91 
Q 1250 -91 836 529 
Q 422 1150 422 2328 
Q 422 3509 836 4129 
Q 1250 4750 2034 4750 
z
" transform="scale(0.015625)"/>
        <path id="DejaVuSans-2212" d="M 678 2272 
L 4684 2272 
L 4684 1741 
L 678 1741 
L 678 2272 
z
" transform="scale(0.015625)"/>
       </defs>
       <use xlink:href="#DejaVuSans-31" transform="translate(0 0.684375)"/>
       <use xlink:href="#DejaVuSans-30" transform="translate(63.623047 0.684375)"/>
       <use xlink:href="#DejaVuSans-2212" transform="translate(128.203125 38.965625) scale(0.7)"/>
       <use xlink:href="#DejaVuSans-31" transform="translate(186.855469 38.965625) scale(0.7)"/>
      </g>
     </g>
    </g>
    <g id="xtick_2">
     <g id="line2d_3">
      <path d="M 161.091003 138.0384 
L 161.091003 7.2 
" clip-path="url(#p98eee4f4f2)" style="fill: none; stroke: #d9d9d9; stroke-width: 0.8; stroke-linecap: square"/>
     </g>
     <g id="line2d_4">
      <g>
       <use xlink:href="#m4a139142e5" x="161.091003" y="138.0384" style="stroke: #000000; stroke-width: 0.8"/>
      </g>
     </g>
     <g id="text_2">
      <!-- $\mathdefault{10^{0}}$ -->
      <g transform="translate(154.051003 151.11715) scale(0.08 -0.08)">
       <use xlink:href="#DejaVuSans-31" transform="translate(0 0.765625)"/>
       <use xlink:href="#DejaVuSans-30" transform="translate(63.623047 0.765625)"/>
       <use xlink:href="#DejaVuSans-30" transform="translate(128.203125 39.046875) scale(0.7)"/>
      </g>
     </g>
    </g>
    <g id="xtick_3">
     <g id="line2d_5">
      <path d="M 43.87228 138.0384 
L 43.87228 7.2 
" clip-path="url(#p98eee4f4f2)" style="fill: none; stroke-dasharray: 2.96,1.28; stroke-dashoffset: 0; stroke: #f2f2f2; stroke-width: 0.8"/>
     </g>
     <g id="line2d_6">
      <defs>
       <path id="me5dc5ee757" d="M 0 0 
L 0 2 
" style="stroke: #000000; stroke-width: 0.6"/>
      </defs>
      <g>
       <use xlink:href="#me5dc5ee757" x="43.87228" y="138.0384" style="stroke: #000000; stroke-width: 0.6"/>
      </g>
     </g>
    </g>
    <g id="xtick_4">
     <g id="line2d_7">
      <path d="M 82.743612 138.0384 
L 82.743612 7.2 
" clip-path="url(#p98eee4f4f2)" style="fill: none; stroke-dasharray: 2.96,1.28; stroke-dashoffset: 0; stroke: #f2f2f2; stroke-width: 0.8"/>
     </g>
     <g id="line2d_8">
      <g>
       <use xlink:href="#me5dc5ee757" x="82.743612" y="138.0384" style="stroke: #000000; stroke-width: 0.6"/>
      </g>
     </g>
    </g>
    <g id="xtick_5">
     <g id="line2d_9">
      <path d="M 102.481642 138.0384 
L 102.481642 7.2 
" clip-path="url(#p98eee4f4f2)" style="fill: none; stroke-dasharray: 2.96,1.28; stroke-dashoffset: 0; stroke: #f2f2f2; stroke-width: 0.8"/>
     </g>
     <g id="line2d_10">
      <g>
       <use xlink:href="#me5dc5ee757" x="102.481642" y="138.0384" style="stroke: #000000; stroke-width: 0.6"/>
      </g>
     </g>
    </g>
    <g id="xtick_6">
     <g id="line2d_11">
      <path d="M 116.485997 138.0384 
L 116.485997 7.2 
" clip-path="url(#p98eee4f4f2)" style="fill: none; stroke-dasharray: 2.96,1.28; stroke-dashoffset: 0; stroke: #f2f2f2; stroke-width: 0.8"/>
     </g>
     <g id="line2d_12">
      <g>
       <use xlink:href="#me5dc5ee757" x="116.485997" y="138.0384" style="stroke: #000000; stroke-width: 0.6"/>
      </g>
     </g>
    </g>
    <g id="xtick_7">
     <g id="line2d_13">
      <path d="M 127.348618 138.0384 
L 127.348618 7.2 
" clip-path="url(#p98eee4f4f2)" style="fill: none; stroke-dasharray: 2.96,1.28; stroke-dashoffset: 0; stroke: #f2f2f2; stroke-width: 0.8"/>
     </g>
     <g id="line2d_14">
      <g>
       <use xlink:href="#me5dc5ee757" x="127.348618" y="138.0384" style="stroke: #000000; stroke-width: 0.6"/>
      </g>
     </g>
    </g>
    <g id="xtick_8">
     <g id="line2d_15">
      <path d="M 136.224027 138.0384 
L 136.224027 7.2 
" clip-path="url(#p98eee4f4f2)" style="fill: none; stroke-dasharray: 2.96,1.28; stroke-dashoffset: 0; stroke: #f2f2f2; stroke-width: 0.8"/>
     </g>
     <g id="line2d_16">
      <g>
       <use xlink:href="#me5dc5ee757" x="136.224027" y="138.0384" style="stroke: #000000; stroke-width: 0.6"/>
      </g>
     </g>
    </g>
    <g id="xtick_9">
     <g id="line2d_17">
      <path d="M 143.728077 138.0384 
L 143.728077 7.2 
" clip-path="url(#p98eee4f4f2)" style="fill: none; stroke-dasharray: 2.96,1.28; stroke-dashoffset: 0; stroke: #f2f2f2; stroke-width: 0.8"/>
     </g>
     <g id="line2d_18">
      <g>
       <use xlink:href="#me5dc5ee757" x="143.728077" y="138.0384" style="stroke: #000000; stroke-width: 0.6"/>
      </g>
     </g>
    </g>
    <g id="xtick_10">
     <g id="line2d_19">
      <path d="M 150.228382 138.0384 
L 150.228382 7.2 
" clip-path="url(#p98eee4f4f2)" style="fill: none; stroke-dasharray: 2.96,1.28; stroke-dashoffset: 0; stroke: #f2f2f2; stroke-width: 0.8"/>
     </g>
     <g id="line2d_20">
      <g>
       <use xlink:href="#me5dc5ee757" x="150.228382" y="138.0384" style="stroke: #000000; stroke-width: 0.6"/>
      </g>
     </g>
    </g>
    <g id="xtick_11">
     <g id="line2d_21">
      <path d="M 155.962056 138.0384 
L 155.962056 7.2 
" clip-path="url(#p98eee4f4f2)" style="fill: none; stroke-dasharray: 2.96,1.28; stroke-dashoffset: 0; stroke: #f2f2f2; stroke-width: 0.8"/>
     </g>
     <g id="line2d_22">
      <g>
       <use xlink:href="#me5dc5ee757" x="155.962056" y="138.0384" style="stroke: #000000; stroke-width: 0.6"/>
      </g>
     </g>
    </g>
    <g id="xtick_12">
     <g id="line2d_23">
      <path d="M 194.833388 138.0384 
L 194.833388 7.2 
" clip-path="url(#p98eee4f4f2)" style="fill: none; stroke-dasharray: 2.96,1.28; stroke-dashoffset: 0; stroke: #f2f2f2; stroke-width: 0.8"/>
     </g>
     <g id="line2d_24">
      <g>
       <use xlink:href="#me5dc5ee757" x="194.833388" y="138.0384" style="stroke: #000000; stroke-width: 0.6"/>
      </g>
     </g>
    </g>
    <g id="xtick_13">
     <g id="line2d_25">
      <path d="M 214.571418 138.0384 
L 214.571418 7.2 
" clip-path="url(#p98eee4f4f2)" style="fill: none; stroke-dasharray: 2.96,1.28; stroke-dashoffset: 0; stroke: #f2f2f2; stroke-width: 0.8"/>
     </g>
     <g id="line2d_26">
      <g>
       <use xlink:href="#me5dc5ee757" x="214.571418" y="138.0384" style="stroke: #000000; stroke-width: 0.6"/>
      </g>
     </g>
    </g>
    <g id="xtick_14">
     <g id="line2d_27">
      <path d="M 228.575773 138.0384 
L 228.575773 7.2 
" clip-path="url(#p98eee4f4f2)" style="fill: none; stroke-dasharray: 2.96,1.28; stroke-dashoffset: 0; stroke: #f2f2f2; stroke-width: 0.8"/>
     </g>
     <g id="line2d_28">
      <g>
       <use xlink:href="#me5dc5ee757" x="228.575773" y="138.0384" style="stroke: #000000; stroke-width: 0.6"/>
      </g>
     </g>
    </g>
    <g id="text_3">
     <!-- Period, T (s) -->
     <g transform="translate(114.856 162.85965) scale(0.08 -0.08)">
      <defs>
       <path id="DejaVuSans-50" d="M 1259 4147 
L 1259 2394 
L 2053 2394 
Q 2494 2394 2734 2622 
Q 2975 2850 2975 3272 
Q 2975 3691 2734 3919 
Q 2494 4147 2053 4147 
L 1259 4147 
z
M 628 4666 
L 2053 4666 
Q 2838 4666 3239 4311 
Q 3641 3956 3641 3272 
Q 3641 2581 3239 2228 
Q 2838 1875 2053 1875 
L 1259 1875 
L 1259 0 
L 628 0 
L 628 4666 
z
" transform="scale(0.015625)"/>
       <path id="DejaVuSans-65" d="M 3597 1894 
L 3597 1613 
L 953 1613 
Q 991 1019 1311 708 
Q 1631 397 2203 397 
Q 2534 397 2845 478 
Q 3156 559 3463 722 
L 3463 178 
Q 3153 47 2828 -22 
Q 2503 -91 2169 -91 
Q 1331 -91 842 396 
Q 353 884 353 1716 
Q 353 2575 817 3079 
Q 1281 3584 2069 3584 
Q 2775 3584 3186 3129 
Q 3597 2675 3597 1894 
z
M 3022 2063 
Q 3016 2534 2758 2815 
Q 2500 3097 2075 3097 
Q 1594 3097 1305 2825 
Q 1016 2553 972 2059 
L 3022 2063 
z
" transform="scale(0.015625)"/>
       <path id="DejaVuSans-72" d="M 2631 2963 
Q 2534 3019 2420 3045 
Q 2306 3072 2169 3072 
Q 1681 3072 1420 2755 
Q 1159 2438 1159 1844 
L 1159 0 
L 581 0 
L 581 3500 
L 1159 3500 
L 1159 2956 
Q 1341 3275 1631 3429 
Q 1922 3584 2338 3584 
Q 2397 3584 2469 3576 
Q 2541 3569 2628 3553 
L 2631 2963 
z
" transform="scale(0.015625)"/>
       <path id="DejaVuSans-69" d="M 603 3500 
L 1178 3500 
L 1178 0 
L 603 0 
L 603 3500 
z
M 603 4863 
L 1178 4863 
L 1178 4134 
L 603 4134 
L 603 4863 
z
" transform="scale(0.015625)"/>
       <path id="DejaVuSans-6f" d="M 1959 3097 
Q 1497 3097 1228 2736 
Q 959 2375 959 1747 
Q 959 1119 1226 758 
Q 1494 397 1959 397 
Q 2419 397 2687 759 
Q 2956 1122 2956 1747 
Q 2956 2369 2687 2733 
Q 2419 3097 1959 3097 
z
M 1959 3584 
Q 2709 3584 3137 3096 
Q 3566 2609 3566 1747 
Q 3566 888 3137 398 
Q 2709 -91 1959 -91 
Q 1206 -91 779 398 
Q 353 888 353 1747 
Q 353 2609 779 3096 
Q 1206 3584 1959 3584 
z
" transform="scale(0.015625)"/>
       <path id="DejaVuSans-64" d="M 2906 2969 
L 2906 4863 
L 3481 4863 
L 3481 0 
L 2906 0 
L 2906 525 
Q 2725 213 2448 61 
Q 2172 -91 1784 -91 
Q 1150 -91 751 415 
Q 353 922 353 1747 
Q 353 2572 751 3078 
Q 1150 3584 1784 3584 
Q 2172 3584 2448 3432 
Q 2725 3281 2906 2969 
z
M 947 1747 
Q 947 1113 1208 752 
Q 1469 391 1925 391 
Q 2381 391 2643 752 
Q 2906 1113 2906 1747 
Q 2906 2381 2643 2742 
Q 2381 3103 1925 3103 
Q 1469 3103 1208 2742 
Q 947 2381 947 1747 
z
" transform="scale(0.015625)"/>
       <path id="DejaVuSans-2c" d="M 750 794 
L 1409 794 
L 1409 256 
L 897 -744 
L 494 -744 
L 750 256 
L 750 794 
z
" transform="scale(0.015625)"/>
       <path id="DejaVuSans-20" transform="scale(0.015625)"/>
       <path id="DejaVuSans-54" d="M -19 4666 
L 3928 4666 
L 3928 4134 
L 2272 4134 
L 2272 0 
L 1638 0 
L 1638 4134 
L -19 4134 
L -19 4666 
z
" transform="scale(0.015625)"/>
       <path id="DejaVuSans-28" d="M 1984 4856 
Q 1566 4138 1362 3434 
Q 1159 2731 1159 2009 
Q 1159 1288 1364 580 
Q 1569 -128 1984 -844 
L 1484 -844 
Q 1016 -109 783 600 
Q 550 1309 550 2009 
Q 550 2706 781 3412 
Q 1013 4119 1484 4856 
L 1984 4856 
z
" transform="scale(0.015625)"/>
       <path id="DejaVuSans-73" d="M 2834 3397 
L 2834 2853 
Q 2591 2978 2328 3040 
Q 2066 3103 1784 3103 
Q 1356 3103 1142 2972 
Q 928 2841 928 2578 
Q 928 2378 1081 2264 
Q 1234 2150 1697 2047 
L 1894 2003 
Q 2506 1872 2764 1633 
Q 3022 1394 3022 966 
Q 3022 478 2636 193 
Q 2250 -91 1575 -91 
Q 1294 -91 989 -36 
Q 684 19 347 128 
L 347 722 
Q 666 556 975 473 
Q 1284 391 1588 391 
Q 1994 391 2212 530 
Q 2431 669 2431 922 
Q 2431 1156 2273 1281 
Q 2116 1406 1581 1522 
L 1381 1569 
Q 847 1681 609 1914 
Q 372 2147 372 2553 
Q 372 3047 722 3315 
Q 1072 3584 1716 3584 
Q 2034 3584 2315 3537 
Q 2597 3491 2834 3397 
z
" transform="scale(0.015625)"/>
       <path id="DejaVuSans-29" d="M 513 4856 
L 1013 4856 
Q 1481 4119 1714 3412 
Q 1947 2706 1947 2009 
Q 1947 1309 1714 600 
Q 1481 -109 1013 -844 
L 513 -844 
Q 928 -128 1133 580 
Q 1338 1288 1338 2009 
Q 1338 2731 1133 3434 
Q 928 4138 513 4856 
z
" transform="scale(0.015625)"/>
      </defs>
      <use xlink:href="#DejaVuSans-50"/>
      <use xlink:href="#DejaVuSans-65" x="56.677734"/>
      <use xlink:href="#DejaVuSans-72" x="118.201172"/>
      <use xlink:href="#DejaVuSans-69" x="159.314453"/>
      <use xlink:href="#DejaVuSans-6f" x="187.097656"/>
      <use xlink:href="#DejaVuSans-64" x="248.279297"/>
      <use xlink:href="#DejaVuSans-2c" x="311.755859"/>
      <use xlink:href="#DejaVuSans-20" x="343.542969"/>
      <use xlink:href="#DejaVuSans-54" x="375.330078"/>
      <use xlink:href="#DejaVuSans-20" x="436.414062"/>
      <use xlink:href="#DejaVuSans-28" x="468.201172"/>
      <use xlink:href="#DejaVuSans-73" x="507.214844"/>
      <use xlink:href="#DejaVuSans-29" x="559.314453"/>
     </g>
    </g>
   </g>
   <g id="matplotlib.axis_2">
    <g id="ytick_1">
     <g id="line2d_29">
      <path d="M 40.0225 90.566818 
L 237.5545 90.566818 
" clip-path="url(#p98eee4f4f2)" style="fill: none; stroke: #d9d9d9; stroke-width: 0.8; stroke-linecap: square"/>
     </g>
     <g id="line2d_30">
      <defs>
       <path id="m85241ee503" d="M 0 0 
L -3.5 0 
" style="stroke: #000000; stroke-width: 0.8"/>
      </defs>
      <g>
       <use xlink:href="#m85241ee503" x="40.0225" y="90.566818" style="stroke: #000000; stroke-width: 0.8"/>
      </g>
     </g>
     <g id="text_4">
      <!-- $\mathdefault{10^{2}}$ -->
      <g transform="translate(18.9425 93.606193) scale(0.08 -0.08)">
       <defs>
        <path id="DejaVuSans-32" d="M 1228 531 
L 3431 531 
L 3431 0 
L 469 0 
L 469 531 
Q 828 903 1448 1529 
Q 2069 2156 2228 2338 
Q 2531 2678 2651 2914 
Q 2772 3150 2772 3378 
Q 2772 3750 2511 3984 
Q 2250 4219 1831 4219 
Q 1534 4219 1204 4116 
Q 875 4013 500 3803 
L 500 4441 
Q 881 4594 1212 4672 
Q 1544 4750 1819 4750 
Q 2544 4750 2975 4387 
Q 3406 4025 3406 3419 
Q 3406 3131 3298 2873 
Q 3191 2616 2906 2266 
Q 2828 2175 2409 1742 
Q 1991 1309 1228 531 
z
" transform="scale(0.015625)"/>
       </defs>
       <use xlink:href="#DejaVuSans-31" transform="translate(0 0.765625)"/>
       <use xlink:href="#DejaVuSans-30" transform="translate(63.623047 0.765625)"/>
       <use xlink:href="#DejaVuSans-32" transform="translate(128.203125 39.046875) scale(0.7)"/>
      </g>
     </g>
    </g>
    <g id="ytick_2">
     <g id="line2d_31">
      <path d="M 40.0225 128.229943 
L 237.5545 128.229943 
" clip-path="url(#p98eee4f4f2)" style="fill: none; stroke-dasharray: 2.96,1.28; stroke-dashoffset: 0; stroke: #f2f2f2; stroke-width: 0.8"/>
     </g>
     <g id="line2d_32">
      <defs>
       <path id="m90a4c07aaf" d="M 0 0 
L -2 0 
" style="stroke: #000000; stroke-width: 0.6"/>
      </defs>
      <g>
       <use xlink:href="#m90a4c07aaf" x="40.0225" y="128.229943" style="stroke: #000000; stroke-width: 0.6"/>
      </g>
     </g>
    </g>
    <g id="ytick_3">
     <g id="line2d_33">
      <path d="M 40.0225 119.057872 
L 237.5545 119.057872 
" clip-path="url(#p98eee4f4f2)" style="fill: none; stroke-dasharray: 2.96,1.28; stroke-dashoffset: 0; stroke: #f2f2f2; stroke-width: 0.8"/>
     </g>
     <g id="line2d_34">
      <g>
       <use xlink:href="#m90a4c07aaf" x="40.0225" y="119.057872" style="stroke: #000000; stroke-width: 0.6"/>
      </g>
     </g>
    </g>
    <g id="ytick_4">
     <g id="line2d_35">
      <path d="M 40.0225 111.563745 
L 237.5545 111.563745 
" clip-path="url(#p98eee4f4f2)" style="fill: none; stroke-dasharray: 2.96,1.28; stroke-dashoffset: 0; stroke: #f2f2f2; stroke-width: 0.8"/>
     </g>
     <g id="line2d_36">
      <g>
       <use xlink:href="#m90a4c07aaf" x="40.0225" y="111.563745" style="stroke: #000000; stroke-width: 0.6"/>
      </g>
     </g>
    </g>
    <g id="ytick_5">
     <g id="line2d_37">
      <path d="M 40.0225 105.22755 
L 237.5545 105.22755 
" clip-path="url(#p98eee4f4f2)" style="fill: none; stroke-dasharray: 2.96,1.28; stroke-dashoffset: 0; stroke: #f2f2f2; stroke-width: 0.8"/>
     </g>
     <g id="line2d_38">
      <g>
       <use xlink:href="#m90a4c07aaf" x="40.0225" y="105.22755" style="stroke: #000000; stroke-width: 0.6"/>
      </g>
     </g>
    </g>
    <g id="ytick_6">
     <g id="line2d_39">
      <path d="M 40.0225 99.738889 
L 237.5545 99.738889 
" clip-path="url(#p98eee4f4f2)" style="fill: none; stroke-dasharray: 2.96,1.28; stroke-dashoffset: 0; stroke: #f2f2f2; stroke-width: 0.8"/>
     </g>
     <g id="line2d_40">
      <g>
       <use xlink:href="#m90a4c07aaf" x="40.0225" y="99.738889" style="stroke: #000000; stroke-width: 0.6"/>
      </g>
     </g>
    </g>
    <g id="ytick_7">
     <g id="line2d_41">
      <path d="M 40.0225 94.897547 
L 237.5545 94.897547 
" clip-path="url(#p98eee4f4f2)" style="fill: none; stroke-dasharray: 2.96,1.28; stroke-dashoffset: 0; stroke: #f2f2f2; stroke-width: 0.8"/>
     </g>
     <g id="line2d_42">
      <g>
       <use xlink:href="#m90a4c07aaf" x="40.0225" y="94.897547" style="stroke: #000000; stroke-width: 0.6"/>
      </g>
     </g>
    </g>
    <g id="ytick_8">
     <g id="line2d_43">
      <path d="M 40.0225 62.075764 
L 237.5545 62.075764 
" clip-path="url(#p98eee4f4f2)" style="fill: none; stroke-dasharray: 2.96,1.28; stroke-dashoffset: 0; stroke: #f2f2f2; stroke-width: 0.8"/>
     </g>
     <g id="line2d_44">
      <g>
       <use xlink:href="#m90a4c07aaf" x="40.0225" y="62.075764" style="stroke: #000000; stroke-width: 0.6"/>
      </g>
     </g>
    </g>
    <g id="ytick_9">
     <g id="line2d_45">
      <path d="M 40.0225 45.409566 
L 237.5545 45.409566 
" clip-path="url(#p98eee4f4f2)" style="fill: none; stroke-dasharray: 2.96,1.28; stroke-dashoffset: 0; stroke: #f2f2f2; stroke-width: 0.8"/>
     </g>
     <g id="line2d_46">
      <g>
       <use xlink:href="#m90a4c07aaf" x="40.0225" y="45.409566" style="stroke: #000000; stroke-width: 0.6"/>
      </g>
     </g>
    </g>
    <g id="ytick_10">
     <g id="line2d_47">
      <path d="M 40.0225 33.58471 
L 237.5545 33.58471 
" clip-path="url(#p98eee4f4f2)" style="fill: none; stroke-dasharray: 2.96,1.28; stroke-dashoffset: 0; stroke: #f2f2f2; stroke-width: 0.8"/>
     </g>
     <g id="line2d_48">
      <g>
       <use xlink:href="#m90a4c07aaf" x="40.0225" y="33.58471" style="stroke: #000000; stroke-width: 0.6"/>
      </g>
     </g>
    </g>
    <g id="ytick_11">
     <g id="line2d_49">
      <path d="M 40.0225 24.412639 
L 237.5545 24.412639 
" clip-path="url(#p98eee4f4f2)" style="fill: none; stroke-dasharray: 2.96,1.28; stroke-dashoffset: 0; stroke: #f2f2f2; stroke-width: 0.8"/>
     </g>
     <g id="line2d_50">
      <g>
       <use xlink:href="#m90a4c07aaf" x="40.0225" y="24.412639" style="stroke: #000000; stroke-width: 0.6"/>
      </g>
     </g>
    </g>
    <g id="ytick_12">
     <g id="line2d_51">
      <path d="M 40.0225 16.918512 
L 237.5545 16.918512 
" clip-path="url(#p98eee4f4f2)" style="fill: none; stroke-dasharray: 2.96,1.28; stroke-dashoffset: 0; stroke: #f2f2f2; stroke-width: 0.8"/>
     </g>
     <g id="line2d_52">
      <g>
       <use xlink:href="#m90a4c07aaf" x="40.0225" y="16.918512" style="stroke: #000000; stroke-width: 0.6"/>
      </g>
     </g>
    </g>
    <g id="ytick_13">
     <g id="line2d_53">
      <path d="M 40.0225 10.582317 
L 237.5545 10.582317 
" clip-path="url(#p98eee4f4f2)" style="fill: none; stroke-dasharray: 2.96,1.28; stroke-dashoffset: 0; stroke: #f2f2f2; stroke-width: 0.8"/>
     </g>
     <g id="line2d_54">
      <g>
       <use xlink:href="#m90a4c07aaf" x="40.0225" y="10.582317" style="stroke: #000000; stroke-width: 0.6"/>
      </g>
     </g>
    </g>
    <g id="text_5">
     <!-- Spectral acceleration, SA (g) -->
     <g transform="translate(13.27875 129.871075) rotate(-90) scale(0.08 -0.08)">
      <defs>
       <path id="DejaVuSans-53" d="M 3425 4513 
L 3425 3897 
Q 3066 4069 2747 4153 
Q 2428 4238 2131 4238 
Q 1616 4238 1336 4038 
Q 1056 3838 1056 3469 
Q 1056 3159 1242 3001 
Q 1428 2844 1947 2747 
L 2328 2669 
Q 3034 2534 3370 2195 
Q 3706 1856 3706 1288 
Q 3706 609 3251 259 
Q 2797 -91 1919 -91 
Q 1588 -91 1214 -16 
Q 841 59 441 206 
L 441 856 
Q 825 641 1194 531 
Q 1563 422 1919 422 
Q 2459 422 2753 634 
Q 3047 847 3047 1241 
Q 3047 1584 2836 1778 
Q 2625 1972 2144 2069 
L 1759 2144 
Q 1053 2284 737 2584 
Q 422 2884 422 3419 
Q 422 4038 858 4394 
Q 1294 4750 2059 4750 
Q 2388 4750 2728 4690 
Q 3069 4631 3425 4513 
z
" transform="scale(0.015625)"/>
       <path id="DejaVuSans-70" d="M 1159 525 
L 1159 -1331 
L 581 -1331 
L 581 3500 
L 1159 3500 
L 1159 2969 
Q 1341 3281 1617 3432 
Q 1894 3584 2278 3584 
Q 2916 3584 3314 3078 
Q 3713 2572 3713 1747 
Q 3713 922 3314 415 
Q 2916 -91 2278 -91 
Q 1894 -91 1617 61 
Q 1341 213 1159 525 
z
M 3116 1747 
Q 3116 2381 2855 2742 
Q 2594 3103 2138 3103 
Q 1681 3103 1420 2742 
Q 1159 2381 1159 1747 
Q 1159 1113 1420 752 
Q 1681 391 2138 391 
Q 2594 391 2855 752 
Q 3116 1113 3116 1747 
z
" transform="scale(0.015625)"/>
       <path id="DejaVuSans-63" d="M 3122 3366 
L 3122 2828 
Q 2878 2963 2633 3030 
Q 2388 3097 2138 3097 
Q 1578 3097 1268 2742 
Q 959 2388 959 1747 
Q 959 1106 1268 751 
Q 1578 397 2138 397 
Q 2388 397 2633 464 
Q 2878 531 3122 666 
L 3122 134 
Q 2881 22 2623 -34 
Q 2366 -91 2075 -91 
Q 1284 -91 818 406 
Q 353 903 353 1747 
Q 353 2603 823 3093 
Q 1294 3584 2113 3584 
Q 2378 3584 2631 3529 
Q 2884 3475 3122 3366 
z
" transform="scale(0.015625)"/>
       <path id="DejaVuSans-74" d="M 1172 4494 
L 1172 3500 
L 2356 3500 
L 2356 3053 
L 1172 3053 
L 1172 1153 
Q 1172 725 1289 603 
Q 1406 481 1766 481 
L 2356 481 
L 2356 0 
L 1766 0 
Q 1100 0 847 248 
Q 594 497 594 1153 
L 594 3053 
L 172 3053 
L 172 3500 
L 594 3500 
L 594 4494 
L 1172 4494 
z
" transform="scale(0.015625)"/>
       <path id="DejaVuSans-61" d="M 2194 1759 
Q 1497 1759 1228 1600 
Q 959 1441 959 1056 
Q 959 750 1161 570 
Q 1363 391 1709 391 
Q 2188 391 2477 730 
Q 2766 1069 2766 1631 
L 2766 1759 
L 2194 1759 
z
M 3341 1997 
L 3341 0 
L 2766 0 
L 2766 531 
Q 2569 213 2275 61 
Q 1981 -91 1556 -91 
Q 1019 -91 701 211 
Q 384 513 384 1019 
Q 384 1609 779 1909 
Q 1175 2209 1959 2209 
L 2766 2209 
L 2766 2266 
Q 2766 2663 2505 2880 
Q 2244 3097 1772 3097 
Q 1472 3097 1187 3025 
Q 903 2953 641 2809 
L 641 3341 
Q 956 3463 1253 3523 
Q 1550 3584 1831 3584 
Q 2591 3584 2966 3190 
Q 3341 2797 3341 1997 
z
" transform="scale(0.015625)"/>
       <path id="DejaVuSans-6c" d="M 603 4863 
L 1178 4863 
L 1178 0 
L 603 0 
L 603 4863 
z
" transform="scale(0.015625)"/>
       <path id="DejaVuSans-6e" d="M 3513 2113 
L 3513 0 
L 2938 0 
L 2938 2094 
Q 2938 2591 2744 2837 
Q 2550 3084 2163 3084 
Q 1697 3084 1428 2787 
Q 1159 2491 1159 1978 
L 1159 0 
L 581 0 
L 581 3500 
L 1159 3500 
L 1159 2956 
Q 1366 3272 1645 3428 
Q 1925 3584 2291 3584 
Q 2894 3584 3203 3211 
Q 3513 2838 3513 2113 
z
" transform="scale(0.015625)"/>
       <path id="DejaVuSans-41" d="M 2188 4044 
L 1331 1722 
L 3047 1722 
L 2188 4044 
z
M 1831 4666 
L 2547 4666 
L 4325 0 
L 3669 0 
L 3244 1197 
L 1141 1197 
L 716 0 
L 50 0 
L 1831 4666 
z
" transform="scale(0.015625)"/>
       <path id="DejaVuSans-67" d="M 2906 1791 
Q 2906 2416 2648 2759 
Q 2391 3103 1925 3103 
Q 1463 3103 1205 2759 
Q 947 2416 947 1791 
Q 947 1169 1205 825 
Q 1463 481 1925 481 
Q 2391 481 2648 825 
Q 2906 1169 2906 1791 
z
M 3481 434 
Q 3481 -459 3084 -895 
Q 2688 -1331 1869 -1331 
Q 1566 -1331 1297 -1286 
Q 1028 -1241 775 -1147 
L 775 -588 
Q 1028 -725 1275 -790 
Q 1522 -856 1778 -856 
Q 2344 -856 2625 -561 
Q 2906 -266 2906 331 
L 2906 616 
Q 2728 306 2450 153 
Q 2172 0 1784 0 
Q 1141 0 747 490 
Q 353 981 353 1791 
Q 353 2603 747 3093 
Q 1141 3584 1784 3584 
Q 2172 3584 2450 3431 
Q 2728 3278 2906 2969 
L 2906 3500 
L 3481 3500 
L 3481 434 
z
" transform="scale(0.015625)"/>
      </defs>
      <use xlink:href="#DejaVuSans-53"/>
      <use xlink:href="#DejaVuSans-70" x="63.476562"/>
      <use xlink:href="#DejaVuSans-65" x="126.953125"/>
      <use xlink:href="#DejaVuSans-63" x="188.476562"/>
      <use xlink:href="#DejaVuSans-74" x="243.457031"/>
      <use xlink:href="#DejaVuSans-72" x="282.666016"/>
      <use xlink:href="#DejaVuSans-61" x="323.779297"/>
      <use xlink:href="#DejaVuSans-6c" x="385.058594"/>
      <use xlink:href="#DejaVuSans-20" x="412.841797"/>
      <use xlink:href="#DejaVuSans-61" x="444.628906"/>
      <use xlink:href="#DejaVuSans-63" x="505.908203"/>
      <use xlink:href="#DejaVuSans-63" x="560.888672"/>
      <use xlink:href="#DejaVuSans-65" x="615.869141"/>
      <use xlink:href="#DejaVuSans-6c" x="677.392578"/>
      <use xlink:href="#DejaVuSans-65" x="705.175781"/>
      <use xlink:href="#DejaVuSans-72" x="766.699219"/>
      <use xlink:href="#DejaVuSans-61" x="807.8125"/>
      <use xlink:href="#DejaVuSans-74" x="869.091797"/>
      <use xlink:href="#DejaVuSans-69" x="908.300781"/>
      <use xlink:href="#DejaVuSans-6f" x="936.083984"/>
      <use xlink:href="#DejaVuSans-6e" x="997.265625"/>
      <use xlink:href="#DejaVuSans-2c" x="1060.644531"/>
      <use xlink:href="#DejaVuSans-20" x="1092.431641"/>
      <use xlink:href="#DejaVuSans-53" x="1124.21875"/>
      <use xlink:href="#DejaVuSans-41" x="1189.570312"/>
      <use xlink:href="#DejaVuSans-20" x="1257.978516"/>
      <use xlink:href="#DejaVuSans-28" x="1289.765625"/>
      <use xlink:href="#DejaVuSans-67" x="1328.779297"/>
      <use xlink:href="#DejaVuSans-29" x="1392.255859"/>
     </g>
    </g>
   </g>
   <g id="line2d_55">
    <path d="M 49.001227 100.76969 
L 68.739257 83.063793 
L 82.743612 74.871065 
L 93.606234 67.816395 
L 102.481642 64.010476 
L 116.485997 60.307778 
L 125.259883 60.28617 
L 127.348618 59.534539 
L 147.086648 61.836775 
L 161.091003 55.799079 
L 173.862888 58.070486 
L 180.829033 61.453054 
L 194.833388 52.38154 
L 214.571418 55.133501 
L 228.575773 64.60016 
" clip-path="url(#p98eee4f4f2)" style="fill: none; stroke: #b2b2b2; stroke-width: 0.8; stroke-linecap: square"/>
   </g>
   <g id="line2d_56">
    <path d="M 49.001227 127.150297 
L 68.739257 106.353662 
L 82.743612 95.775721 
L 93.606234 85.093002 
L 102.481642 76.84568 
L 116.485997 67.373419 
L 125.259883 60.28617 
L 127.348618 58.226982 
L 147.086648 46.321864 
L 161.091003 40.107592 
L 173.862888 37.610893 
L 180.829033 36.946508 
L 194.833388 37.217783 
L 214.571418 38.249036 
L 228.575773 48.959586 
" clip-path="url(#p98eee4f4f2)" style="fill: none; stroke: #b2b2b2; stroke-width: 0.8; stroke-linecap: square"/>
   </g>
   <g id="line2d_57">
    <path d="M 49.001227 126.341802 
L 68.739257 105.581362 
L 82.743612 95.053496 
L 93.606234 84.472802 
L 102.481642 76.356286 
L 116.485997 67.115924 
L 125.259883 60.28617 
L 127.348618 58.336924 
L 147.086648 47.223404 
L 161.091003 41.650143 
L 173.862888 40.40103 
L 180.829033 39.504875 
L 194.833388 42.020518 
L 214.571418 35.359115 
L 228.575773 43.325195 
" clip-path="url(#p98eee4f4f2)" style="fill: none; stroke: #b2b2b2; stroke-width: 0.8; stroke-linecap: square"/>
   </g>
   <g id="line2d_58">
    <path d="M 49.001227 123.961134 
L 68.739257 103.365173 
L 82.743612 96.146499 
L 93.606234 84.989708 
L 102.481642 76.641588 
L 116.485997 67.282643 
L 125.259883 60.28617 
L 127.348618 58.201114 
L 147.086648 45.475472 
L 161.091003 39.528974 
L 173.862888 38.068274 
L 180.829033 38.867353 
L 194.833388 44.14172 
L 214.571418 38.409955 
L 228.575773 46.289823 
" clip-path="url(#p98eee4f4f2)" style="fill: none; stroke: #b2b2b2; stroke-width: 0.8; stroke-linecap: square"/>
   </g>
   <g id="line2d_59">
    <path d="M 49.001227 125.535371 
L 68.739257 104.906911 
L 82.743612 94.477378 
L 93.606234 84.0708 
L 102.481642 76.143649 
L 116.485997 67.104172 
L 125.259883 60.28617 
L 127.348618 58.287389 
L 147.086648 46.789773 
L 161.091003 40.199681 
L 173.862888 38.524564 
L 180.829033 37.077307 
L 194.833388 32.053106 
L 214.571418 35.241879 
L 228.575773 39.910507 
" clip-path="url(#p98eee4f4f2)" style="fill: none; stroke: #b2b2b2; stroke-width: 0.8; stroke-linecap: square"/>
   </g>
   <g id="line2d_60">
    <path d="M 49.001227 119.154156 
L 68.739257 105.795192 
L 82.743612 96.306143 
L 93.606234 86.715081 
L 102.481642 80.143366 
L 116.485997 71.076747 
L 125.259883 60.28617 
L 127.348618 58.553926 
L 147.086648 51.333469 
L 161.091003 44.418686 
L 173.862888 41.937937 
L 180.829033 41.136305 
L 194.833388 44.325387 
L 214.571418 41.589289 
L 228.575773 47.668507 
" clip-path="url(#p98eee4f4f2)" style="fill: none; stroke: #b2b2b2; stroke-width: 0.8; stroke-linecap: square"/>
   </g>
   <g id="line2d_61">
    <path d="M 49.001227 123.68291 
L 68.739257 104.334704 
L 82.743612 94.342028 
L 93.606234 84.183361 
L 102.481642 77.172719 
L 116.485997 67.114884 
L 125.259883 60.28617 
L 127.348618 58.764685 
L 147.086648 48.298839 
L 161.091003 45.261432 
L 173.862888 45.092211 
L 180.829033 43.84826 
L 194.833388 38.985513 
L 214.571418 33.915354 
L 228.575773 34.680183 
" clip-path="url(#p98eee4f4f2)" style="fill: none; stroke: #b2b2b2; stroke-width: 0.8; stroke-linecap: square"/>
   </g>
   <g id="line2d_62">
    <path d="M 49.001227 101.694962 
L 68.739257 85.035488 
L 82.743612 77.783965 
L 93.606234 71.730693 
L 102.481642 67.68703 
L 116.485997 62.397829 
L 125.259883 60.28617 
L 127.348618 60.265167 
L 147.086648 55.836743 
L 161.091003 50.111362 
L 173.862888 45.193702 
L 180.829033 40.519851 
L 194.833388 37.575192 
L 214.571418 34.508835 
L 228.575773 37.887562 
" clip-path="url(#p98eee4f4f2)" style="fill: none; stroke: #b2b2b2; stroke-width: 0.8; stroke-linecap: square"/>
   </g>
   <g id="line2d_63">
    <path d="M 49.001227 123.108874 
L 68.739257 103.838402 
L 82.743612 93.873219 
L 93.606234 83.780622 
L 102.481642 76.887012 
L 116.485997 67.038486 
L 125.259883 60.28617 
L 127.348618 58.786573 
L 147.086648 48.307508 
L 161.091003 42.441594 
L 173.862888 39.214141 
L 180.829033 40.432205 
L 194.833388 44.969535 
L 214.571418 37.322011 
L 228.575773 43.552701 
" clip-path="url(#p98eee4f4f2)" style="fill: none; stroke: #b2b2b2; stroke-width: 0.8; stroke-linecap: square"/>
   </g>
   <g id="line2d_64">
    <path d="M 49.001227 123.075173 
L 68.739257 102.617159 
L 82.743612 95.445388 
L 93.606234 84.38085 
L 102.481642 76.052457 
L 116.485997 66.792187 
L 125.259883 60.28617 
L 127.348618 58.513862 
L 147.086648 50.284309 
L 161.091003 51.062584 
L 173.862888 50.128589 
L 180.829033 38.819525 
L 194.833388 38.702153 
L 214.571418 43.191644 
L 228.575773 37.970974 
" clip-path="url(#p98eee4f4f2)" style="fill: none; stroke: #b2b2b2; stroke-width: 0.8; stroke-linecap: square"/>
   </g>
   <g id="line2d_65">
    <path d="M 49.001227 121.093946 
L 68.739257 100.642366 
L 82.743612 93.553821 
L 93.606234 82.654208 
L 102.481642 74.665381 
L 116.485997 66.100671 
L 125.259883 60.28617 
L 127.348618 58.871189 
L 147.086648 53.683408 
L 161.091003 61.169266 
L 173.862888 63.818885 
L 180.829033 58.300629 
L 194.833388 47.416976 
L 214.571418 42.446382 
L 228.575773 49.271408 
" clip-path="url(#p98eee4f4f2)" style="fill: none; stroke: #b2b2b2; stroke-width: 0.8; stroke-linecap: square"/>
   </g>
   <g id="line2d_66">
    <path d="M 49.001227 124.507071 
L 68.739257 104.061323 
L 82.743612 93.863805 
L 93.606234 83.728074 
L 102.481642 75.723602 
L 116.485997 66.729259 
L 125.259883 60.28617 
L 127.348618 58.498534 
L 147.086648 48.627949 
L 161.091003 42.724419 
L 173.862888 41.346736 
L 180.829033 42.149803 
L 194.833388 41.76336 
L 214.571418 34.529815 
L 228.575773 39.962159 
" clip-path="url(#p98eee4f4f2)" style="fill: none; stroke: #b2b2b2; stroke-width: 0.8; stroke-linecap: square"/>
   </g>
   <g id="line2d_67">
    <path d="M 49.001227 123.293944 
L 68.739257 103.985656 
L 82.743612 94.049016 
L 93.606234 83.971363 
L 102.481642 77.004074 
L 116.485997 67.070638 
L 125.259883 60.28617 
L 127.348618 58.74948 
L 147.086648 47.033666 
L 161.091003 40.947461 
L 173.862888 39.492861 
L 180.829033 40.915702 
L 194.833388 38.185621 
L 214.571418 35.717435 
L 228.575773 37.261447 
" clip-path="url(#p98eee4f4f2)" style="fill: none; stroke: #b2b2b2; stroke-width: 0.8; stroke-linecap: square"/>
   </g>
   <g id="line2d_68">
    <path d="M 49.001227 124.879244 
L 68.739257 104.254898 
L 82.743612 93.86584 
L 93.606234 83.507044 
L 102.481642 75.635006 
L 116.485997 66.761268 
L 125.259883 60.28617 
L 127.348618 58.448002 
L 147.086648 48.605913 
L 161.091003 46.029442 
L 173.862888 50.531194 
L 180.829033 50.562714 
L 194.833388 47.755493 
L 214.571418 49.858046 
L 228.575773 47.822879 
" clip-path="url(#p98eee4f4f2)" style="fill: none; stroke: #b2b2b2; stroke-width: 0.8; stroke-linecap: square"/>
   </g>
   <g id="line2d_69">
    <path d="M 49.001227 124.145366 
L 68.739257 104.654265 
L 82.743612 94.561202 
L 93.606234 84.301762 
L 102.481642 77.249115 
L 116.485997 67.176023 
L 125.259883 60.28617 
L 127.348618 58.725861 
L 147.086648 46.29328 
L 161.091003 41.095688 
L 173.862888 43.282722 
L 180.829033 48.703278 
L 194.833388 52.839277 
L 214.571418 39.881871 
L 228.575773 44.982788 
" clip-path="url(#p98eee4f4f2)" style="fill: none; stroke: #b2b2b2; stroke-width: 0.8; stroke-linecap: square"/>
   </g>
   <g id="line2d_70">
    <path d="M 49.001227 121.950087 
L 68.739257 102.216683 
L 82.743612 92.783044 
L 93.606234 83.280945 
L 102.481642 75.789058 
L 116.485997 67.003638 
L 125.259883 60.28617 
L 127.348618 58.446999 
L 147.086648 51.749994 
L 161.091003 55.791071 
L 173.862888 52.909293 
L 180.829033 52.845831 
L 194.833388 51.379829 
L 214.571418 49.046278 
L 228.575773 51.478994 
" clip-path="url(#p98eee4f4f2)" style="fill: none; stroke: #b2b2b2; stroke-width: 0.8; stroke-linecap: square"/>
   </g>
   <g id="line2d_71">
    <path d="M 49.001227 125.570472 
L 68.739257 104.890512 
L 82.743612 94.424375 
L 93.606234 83.949761 
L 102.481642 75.944588 
L 116.485997 66.901054 
L 125.259883 60.28617 
L 127.348618 58.416156 
L 147.086648 48.572647 
L 161.091003 46.1405 
L 173.862888 42.963759 
L 180.829033 42.042452 
L 194.833388 44.738732 
L 214.571418 38.674385 
L 228.575773 47.027369 
" clip-path="url(#p98eee4f4f2)" style="fill: none; stroke: #b2b2b2; stroke-width: 0.8; stroke-linecap: square"/>
   </g>
   <g id="line2d_72">
    <path d="M 49.001227 120.283046 
L 68.739257 103.963064 
L 82.743612 90.627393 
L 93.606234 82.396314 
L 102.481642 75.860263 
L 116.485997 65.424773 
L 125.259883 60.28617 
L 127.348618 58.661786 
L 147.086648 51.254441 
L 161.091003 50.69329 
L 173.862888 52.468547 
L 180.829033 49.372836 
L 194.833388 47.037535 
L 214.571418 46.842613 
L 228.575773 45.935091 
" clip-path="url(#p98eee4f4f2)" style="fill: none; stroke: #b2b2b2; stroke-width: 0.8; stroke-linecap: square"/>
   </g>
   <g id="line2d_73">
    <path d="M 49.001227 123.631893 
L 68.739257 104.181295 
L 82.743612 94.125823 
L 93.606234 83.92713 
L 102.481642 76.935538 
L 116.485997 67.006856 
L 125.259883 60.28617 
L 127.348618 58.776138 
L 147.086648 47.675139 
L 161.091003 43.076296 
L 173.862888 43.325002 
L 180.829033 44.648292 
L 194.833388 45.568105 
L 214.571418 45.34938 
L 228.575773 50.721618 
" clip-path="url(#p98eee4f4f2)" style="fill: none; stroke: #b2b2b2; stroke-width: 0.8; stroke-linecap: square"/>
   </g>
   <g id="line2d_74">
    <path d="M 49.001227 124.222564 
L 68.739257 103.676292 
L 82.743612 93.339812 
L 93.606234 83.033164 
L 102.481642 75.214143 
L 116.485997 66.472301 
L 125.259883 60.28617 
L 127.348618 58.615224 
L 147.086648 52.015924 
L 161.091003 55.000328 
L 173.862888 58.387204 
L 180.829033 54.746679 
L 194.833388 56.772058 
L 214.571418 57.489803 
L 228.575773 61.414031 
" clip-path="url(#p98eee4f4f2)" style="fill: none; stroke: #b2b2b2; stroke-width: 0.8; stroke-linecap: square"/>
   </g>
   <g id="line2d_75">
    <path d="M 49.001227 125.548524 
L 68.739257 104.948436 
L 82.743612 94.524031 
L 93.606234 84.091455 
L 102.481642 76.128684 
L 116.485997 67.058703 
L 125.259883 60.28617 
L 127.348618 58.336034 
L 147.086648 46.366178 
L 161.091003 40.982951 
L 173.862888 43.365729 
L 180.829033 47.038415 
L 194.833388 53.97457 
L 214.571418 44.299099 
L 228.575773 52.754852 
" clip-path="url(#p98eee4f4f2)" style="fill: none; stroke: #b2b2b2; stroke-width: 0.8; stroke-linecap: square"/>
   </g>
   <g id="line2d_76">
    <path d="M 49.001227 125.334211 
L 68.739257 105.7884 
L 82.743612 95.628494 
L 93.606234 85.242361 
L 102.481642 78.038931 
L 116.485997 67.600457 
L 125.259883 60.28617 
L 127.348618 58.599757 
L 147.086648 45.04471 
L 161.091003 36.842728 
L 173.862888 31.563584 
L 180.829033 29.770491 
L 194.833388 31.777475 
L 214.571418 39.615925 
L 228.575773 36.821466 
" clip-path="url(#p98eee4f4f2)" style="fill: none; stroke: #b2b2b2; stroke-width: 0.8; stroke-linecap: square"/>
   </g>
   <g id="line2d_77">
    <path d="M 49.001227 123.37882 
L 68.739257 103.933179 
L 82.743612 93.858915 
L 93.606234 83.625365 
L 102.481642 76.620769 
L 116.485997 66.78474 
L 125.259883 60.28617 
L 127.348618 58.848829 
L 147.086648 48.840573 
L 161.091003 45.567861 
L 173.862888 46.687984 
L 180.829033 47.577388 
L 194.833388 39.594504 
L 214.571418 42.111978 
L 228.575773 43.130038 
" clip-path="url(#p98eee4f4f2)" style="fill: none; stroke: #b2b2b2; stroke-width: 0.8; stroke-linecap: square"/>
   </g>
   <g id="line2d_78">
    <path d="M 49.001227 110.106554 
L 68.739257 90.443086 
L 82.743612 81.086442 
L 93.606234 72.509257 
L 102.481642 66.88011 
L 116.485997 62.183955 
L 125.259883 60.28617 
L 127.348618 59.672399 
L 147.086648 60.719547 
L 161.091003 61.591818 
L 173.862888 51.714531 
L 180.829033 49.843848 
L 194.833388 44.707266 
L 214.571418 51.542462 
L 228.575773 48.603305 
" clip-path="url(#p98eee4f4f2)" style="fill: none; stroke: #b2b2b2; stroke-width: 0.8; stroke-linecap: square"/>
   </g>
   <g id="line2d_79">
    <path d="M 49.001227 124.358763 
L 68.739257 103.810335 
L 82.743612 93.462476 
L 93.606234 83.176989 
L 102.481642 75.412065 
L 116.485997 66.713377 
L 125.259883 60.28617 
L 127.348618 58.431823 
L 147.086648 48.539865 
L 161.091003 44.450389 
L 173.862888 44.849796 
L 180.829033 46.016209 
L 194.833388 57.337689 
L 214.571418 57.515973 
L 228.575773 43.908478 
" clip-path="url(#p98eee4f4f2)" style="fill: none; stroke: #b2b2b2; stroke-width: 0.8; stroke-linecap: square"/>
   </g>
   <g id="line2d_80">
    <path d="M 49.001227 127.107601 
L 68.739257 106.402476 
L 82.743612 95.89442 
L 93.606234 85.290473 
L 102.481642 77.063958 
L 116.485997 67.529717 
L 125.259883 60.28617 
L 127.348618 58.160029 
L 147.086648 45.181079 
L 161.091003 37.276858 
L 173.862888 33.777603 
L 180.829033 32.689266 
L 194.833388 35.264181 
L 214.571418 35.54693 
L 228.575773 41.829961 
" clip-path="url(#p98eee4f4f2)" style="fill: none; stroke: #b2b2b2; stroke-width: 0.8; stroke-linecap: square"/>
   </g>
   <g id="line2d_81">
    <path d="M 49.001227 121.135907 
L 68.739257 104.067498 
L 82.743612 93.520373 
L 93.606234 84.545014 
L 102.481642 77.275279 
L 116.485997 66.718131 
L 125.259883 60.28617 
L 127.348618 58.644129 
L 147.086648 47.12161 
L 161.091003 42.736609 
L 173.862888 42.74529 
L 180.829033 42.095679 
L 194.833388 38.751407 
L 214.571418 34.727935 
L 228.575773 43.737344 
" clip-path="url(#p98eee4f4f2)" style="fill: none; stroke: #b2b2b2; stroke-width: 0.8; stroke-linecap: square"/>
   </g>
   <g id="line2d_82">
    <path d="M 49.001227 124.710291 
L 68.739257 104.187978 
L 82.743612 93.864611 
L 93.606234 83.563998 
L 102.481642 75.710948 
L 116.485997 66.822892 
L 125.259883 60.28617 
L 127.348618 58.419982 
L 147.086648 49.18873 
L 161.091003 41.799846 
L 173.862888 37.381632 
L 180.829033 36.486753 
L 194.833388 39.493135 
L 214.571418 36.494923 
L 228.575773 40.326492 
" clip-path="url(#p98eee4f4f2)" style="fill: none; stroke: #b2b2b2; stroke-width: 0.8; stroke-linecap: square"/>
   </g>
   <g id="line2d_83">
    <path d="M 49.001227 120.546497 
L 68.739257 101.511243 
L 82.743612 91.796145 
L 93.606234 82.05767 
L 102.481642 75.496773 
L 116.485997 66.37183 
L 125.259883 60.28617 
L 127.348618 58.915599 
L 147.086648 47.247423 
L 161.091003 39.865638 
L 173.862888 35.921585 
L 180.829033 28.864296 
L 194.833388 28.276043 
L 214.571418 26.476124 
L 228.575773 24.05012 
" clip-path="url(#p98eee4f4f2)" style="fill: none; stroke: #b2b2b2; stroke-width: 0.8; stroke-linecap: square"/>
   </g>
   <g id="line2d_84">
    <path d="M 49.001227 124.036112 
L 68.739257 103.447608 
L 82.743612 93.102179 
L 93.606234 82.829357 
L 102.481642 75.080839 
L 116.485997 66.448905 
L 125.259883 60.28617 
L 127.348618 58.491854 
L 147.086648 47.382082 
L 161.091003 44.025214 
L 173.862888 45.466627 
L 180.829033 44.448768 
L 194.833388 46.814118 
L 214.571418 48.869414 
L 228.575773 42.70865 
" clip-path="url(#p98eee4f4f2)" style="fill: none; stroke: #b2b2b2; stroke-width: 0.8; stroke-linecap: square"/>
   </g>
   <g id="line2d_85">
    <path d="M 49.001227 122.584386 
L 68.739257 103.266785 
L 82.743612 93.3397 
L 93.606234 83.337723 
L 102.481642 76.523815 
L 116.485997 66.873631 
L 125.259883 60.28617 
L 127.348618 58.793272 
L 147.086648 48.017075 
L 161.091003 43.071385 
L 173.862888 42.51261 
L 180.829033 43.390344 
L 194.833388 40.587862 
L 214.571418 47.098131 
L 228.575773 39.37131 
" clip-path="url(#p98eee4f4f2)" style="fill: none; stroke: #b2b2b2; stroke-width: 0.8; stroke-linecap: square"/>
   </g>
   <g id="line2d_86">
    <path d="M 49.001227 117.116459 
L 68.739257 101.010765 
L 82.743612 89.830705 
L 93.606234 81.417615 
L 102.481642 74.832926 
L 116.485997 65.342391 
L 125.259883 60.28617 
L 127.348618 59.172395 
L 147.086648 50.706139 
L 161.091003 46.887918 
L 173.862888 48.199874 
L 180.829033 53.256341 
L 194.833388 53.389036 
L 214.571418 45.452821 
L 228.575773 47.617721 
" clip-path="url(#p98eee4f4f2)" style="fill: none; stroke: #b2b2b2; stroke-width: 0.8; stroke-linecap: square"/>
   </g>
   <g id="line2d_87">
    <path d="M 49.001227 123.412742 
L 68.739257 103.951906 
L 82.743612 93.884739 
L 93.606234 83.671916 
L 102.481642 76.679611 
L 116.485997 66.81237 
L 125.259883 60.28617 
L 127.348618 58.861539 
L 147.086648 49.837439 
L 161.091003 49.41013 
L 173.862888 47.505105 
L 180.829033 43.915648 
L 194.833388 41.713316 
L 214.571418 43.542973 
L 228.575773 43.976534 
" clip-path="url(#p98eee4f4f2)" style="fill: none; stroke: #b2b2b2; stroke-width: 0.8; stroke-linecap: square"/>
   </g>
   <g id="line2d_88">
    <path d="M 49.001227 118.991079 
L 68.739257 99.598036 
L 82.743612 94.554485 
L 93.606234 84.441378 
L 102.481642 77.472855 
L 116.485997 67.412456 
L 125.259883 60.28617 
L 127.348618 58.623131 
L 147.086648 44.854396 
L 161.091003 38.036441 
L 173.862888 40.831289 
L 180.829033 36.141244 
L 194.833388 30.247362 
L 214.571418 34.100783 
L 228.575773 33.848009 
" clip-path="url(#p98eee4f4f2)" style="fill: none; stroke: #b2b2b2; stroke-width: 0.8; stroke-linecap: square"/>
   </g>
   <g id="line2d_89">
    <path d="M 49.001227 125.062265 
L 68.739257 104.402082 
L 82.743612 93.955731 
L 93.606234 83.512319 
L 102.481642 75.552754 
L 116.485997 66.641381 
L 125.259883 60.28617 
L 127.348618 58.524861 
L 147.086648 49.194532 
L 161.091003 45.437974 
L 173.862888 48.84613 
L 180.829033 55.448555 
L 194.833388 54.462848 
L 214.571418 56.868682 
L 228.575773 57.648414 
" clip-path="url(#p98eee4f4f2)" style="fill: none; stroke: #b2b2b2; stroke-width: 0.8; stroke-linecap: square"/>
   </g>
   <g id="line2d_90">
    <path d="M 49.001227 117.41936 
L 68.739257 98.640687 
L 82.743612 89.21252 
L 93.606234 79.903082 
L 102.481642 73.650831 
L 116.485997 65.273956 
L 125.259883 60.28617 
L 127.348618 59.263341 
L 147.086648 53.392142 
L 161.091003 48.357984 
L 173.862888 48.619099 
L 180.829033 51.230996 
L 194.833388 45.927631 
L 214.571418 53.596123 
L 228.575773 53.595229 
" clip-path="url(#p98eee4f4f2)" style="fill: none; stroke: #b2b2b2; stroke-width: 0.8; stroke-linecap: square"/>
   </g>
   <g id="line2d_91">
    <path d="M 49.001227 120.688799 
L 68.739257 100.28437 
L 82.743612 90.130234 
L 93.606234 80.212501 
L 102.481642 72.926298 
L 116.485997 65.246171 
L 125.259883 60.28617 
L 127.348618 59.050415 
L 147.086648 52.579402 
L 161.091003 50.868028 
L 173.862888 53.260657 
L 180.829033 53.442169 
L 194.833388 56.639872 
L 214.571418 55.715961 
L 228.575773 58.185835 
" clip-path="url(#p98eee4f4f2)" style="fill: none; stroke: #b2b2b2; stroke-width: 0.8; stroke-linecap: square"/>
   </g>
   <g id="line2d_92">
    <path d="M 49.001227 117.397754 
L 68.739257 97.2082 
L 82.743612 87.291285 
L 93.606234 77.754952 
L 102.481642 70.936644 
L 116.485997 64.133526 
L 125.259883 60.28617 
L 127.348618 59.474093 
L 147.086648 56.054216 
L 161.091003 53.683421 
L 173.862888 52.432352 
L 180.829033 51.309849 
L 194.833388 55.658491 
L 214.571418 52.479668 
L 228.575773 61.357142 
" clip-path="url(#p98eee4f4f2)" style="fill: none; stroke: #b2b2b2; stroke-width: 0.8; stroke-linecap: square"/>
   </g>
   <g id="line2d_93">
    <path d="M 49.001227 114.984194 
L 68.739257 96.101147 
L 82.743612 86.649316 
L 93.606234 77.495698 
L 102.481642 71.637919 
L 116.485997 64.308732 
L 125.259883 60.28617 
L 127.348618 59.483973 
L 147.086648 55.204524 
L 161.091003 49.722021 
L 173.862888 48.67235 
L 180.829033 48.207264 
L 194.833388 40.623659 
L 214.571418 46.001204 
L 228.575773 49.662657 
" clip-path="url(#p98eee4f4f2)" style="fill: none; stroke: #b2b2b2; stroke-width: 0.8; stroke-linecap: square"/>
   </g>
   <g id="line2d_94">
    <path d="M 49.001227 118.34036 
L 68.739257 99.412327 
L 82.743612 89.924538 
L 93.606234 80.716469 
L 102.481642 74.307201 
L 116.485997 65.634396 
L 125.259883 60.28617 
L 127.348618 59.163925 
L 147.086648 51.833886 
L 161.091003 43.957337 
L 173.862888 39.702212 
L 180.829033 37.364803 
L 194.833388 28.555861 
L 214.571418 21.536187 
L 228.575773 24.344003 
" clip-path="url(#p98eee4f4f2)" style="fill: none; stroke: #b2b2b2; stroke-width: 0.8; stroke-linecap: square"/>
   </g>
   <g id="line2d_95">
    <path d="M 49.001227 115.271053 
L 68.739257 95.229463 
L 82.743612 88.413792 
L 93.606234 78.21638 
L 102.481642 71.040785 
L 116.485997 64.125706 
L 125.259883 60.28617 
L 127.348618 59.541732 
L 147.086648 59.578916 
L 161.091003 54.0367 
L 173.862888 49.030637 
L 180.829033 48.604002 
L 194.833388 49.981365 
L 214.571418 52.422047 
L 228.575773 52.632286 
" clip-path="url(#p98eee4f4f2)" style="fill: none; stroke: #b2b2b2; stroke-width: 0.8; stroke-linecap: square"/>
   </g>
   <g id="line2d_96">
    <path d="M 49.001227 122.559766 
L 68.739257 102.345601 
L 82.743612 92.311608 
L 93.606234 82.38875 
L 102.481642 74.917528 
L 116.485997 66.470531 
L 125.259883 60.28617 
L 127.348618 58.557298 
L 147.086648 49.792574 
L 161.091003 47.952896 
L 173.862888 48.77374 
L 180.829033 44.812064 
L 194.833388 39.638526 
L 214.571418 41.750498 
L 228.575773 45.113793 
" clip-path="url(#p98eee4f4f2)" style="fill: none; stroke: #b2b2b2; stroke-width: 0.8; stroke-linecap: square"/>
   </g>
   <g id="line2d_97">
    <path d="M 49.001227 127.087248 
L 68.739257 106.288117 
L 82.743612 95.720411 
L 93.606234 85.069202 
L 102.481642 76.854792 
L 116.485997 67.413241 
L 125.259883 60.28617 
L 127.348618 58.200609 
L 147.086648 45.772143 
L 161.091003 38.60722 
L 173.862888 34.697982 
L 180.829033 34.26274 
L 194.833388 40.109706 
L 214.571418 40.737276 
L 228.575773 44.032342 
" clip-path="url(#p98eee4f4f2)" style="fill: none; stroke: #b2b2b2; stroke-width: 0.8; stroke-linecap: square"/>
   </g>
   <g id="line2d_98">
    <path d="M 49.001227 121.588955 
L 68.739257 102.418108 
L 82.743612 92.642001 
L 93.606234 82.868643 
L 102.481642 76.287624 
L 116.485997 66.846615 
L 125.259883 60.28617 
L 127.348618 58.822941 
L 147.086648 48.250898 
L 161.091003 43.441578 
L 173.862888 41.111533 
L 180.829033 39.765115 
L 194.833388 37.930222 
L 214.571418 45.738669 
L 228.575773 39.655147 
" clip-path="url(#p98eee4f4f2)" style="fill: none; stroke: #b2b2b2; stroke-width: 0.8; stroke-linecap: square"/>
   </g>
   <g id="line2d_99">
    <path d="M 49.001227 117.141224 
L 68.739257 97.360951 
L 82.743612 90.591423 
L 93.606234 80.428015 
L 102.481642 73.124261 
L 116.485997 65.35501 
L 125.259883 60.28617 
L 127.348618 58.916452 
L 147.086648 52.185346 
L 161.091003 50.543423 
L 173.862888 43.580225 
L 180.829033 39.862604 
L 194.833388 38.254486 
L 214.571418 41.7441 
L 228.575773 42.120221 
" clip-path="url(#p98eee4f4f2)" style="fill: none; stroke: #b2b2b2; stroke-width: 0.8; stroke-linecap: square"/>
   </g>
   <g id="line2d_100">
    <path d="M 49.001227 119.963855 
L 68.739257 100.007674 
L 82.743612 90.238939 
L 93.606234 82.49344 
L 102.481642 75.073255 
L 116.485997 66.40561 
L 125.259883 60.28617 
L 127.348618 58.667677 
L 147.086648 52.029858 
L 161.091003 46.367193 
L 173.862888 42.121034 
L 180.829033 40.332842 
L 194.833388 37.711606 
L 214.571418 36.388299 
L 228.575773 35.637648 
" clip-path="url(#p98eee4f4f2)" style="fill: none; stroke: #b2b2b2; stroke-width: 0.8; stroke-linecap: square"/>
   </g>
   <g id="line2d_101">
    <path d="M 49.001227 119.701489 
L 68.739257 103.329616 
L 82.743612 91.911672 
L 93.606234 83.258068 
L 102.481642 76.393398 
L 116.485997 66.147735 
L 125.259883 60.28617 
L 127.348618 58.907162 
L 147.086648 48.12952 
L 161.091003 43.428447 
L 173.862888 43.404497 
L 180.829033 45.51383 
L 194.833388 41.878598 
L 214.571418 43.305723 
L 228.575773 45.495754 
" clip-path="url(#p98eee4f4f2)" style="fill: none; stroke: #b2b2b2; stroke-width: 0.8; stroke-linecap: square"/>
   </g>
   <g id="line2d_102">
    <path d="M 49.001227 118.373663 
L 68.739257 98.227089 
L 82.743612 91.326155 
L 93.606234 80.880325 
L 102.481642 73.402126 
L 116.485997 65.55201 
L 125.259883 60.28617 
L 127.348618 58.926943 
L 147.086648 53.124616 
L 161.091003 56.353314 
L 173.862888 60.868558 
L 180.829033 68.19913 
L 194.833388 67.59847 
L 214.571418 63.940884 
L 228.575773 69.4002 
" clip-path="url(#p98eee4f4f2)" style="fill: none; stroke: #b2b2b2; stroke-width: 0.8; stroke-linecap: square"/>
   </g>
   <g id="line2d_103">
    <path d="M 49.001227 124.139828 
L 68.739257 104.697553 
L 82.743612 94.65276 
L 93.606234 84.46806 
L 102.481642 77.480654 
L 116.485997 67.488014 
L 125.259883 60.28617 
L 127.348618 58.594252 
L 147.086648 44.55538 
L 161.091003 34.810052 
L 173.862888 27.008054 
L 180.829033 30.631565 
L 194.833388 24.196855 
L 214.571418 14.218041 
L 228.575773 13.1472 
" clip-path="url(#p98eee4f4f2)" style="fill: none; stroke: #b2b2b2; stroke-width: 0.8; stroke-linecap: square"/>
   </g>
   <g id="line2d_104">
    <path d="M 49.001227 121.287788 
L 68.739257 101.631906 
L 82.743612 91.760924 
L 93.606234 82.140378 
L 102.481642 74.676037 
L 116.485997 67.40331 
L 125.259883 60.28617 
L 127.348618 58.202153 
L 147.086648 47.156595 
L 161.091003 43.983744 
L 173.862888 38.985869 
L 180.829033 40.864728 
L 194.833388 51.171051 
L 214.571418 39.51533 
L 228.575773 37.815302 
" clip-path="url(#p98eee4f4f2)" style="fill: none; stroke: #b2b2b2; stroke-width: 0.8; stroke-linecap: square"/>
   </g>
   <g id="line2d_105">
    <path d="M 49.001227 121.263448 
L 68.739257 101.61972 
L 82.743612 91.52909 
L 93.606234 83.189064 
L 102.481642 74.848435 
L 116.485997 66.13215 
L 125.259883 60.28617 
L 127.348618 58.759468 
L 147.086648 49.994787 
L 161.091003 45.867717 
L 173.862888 44.78624 
L 180.829033 44.059274 
L 194.833388 43.493882 
L 214.571418 42.521537 
L 228.575773 44.624304 
" clip-path="url(#p98eee4f4f2)" style="fill: none; stroke: #ff0000; stroke-width: 2; stroke-linecap: square"/>
   </g>
   <g id="line2d_106">
    <path d="M 49.001227 110.435696 
L 68.739257 91.997907 
L 82.743612 83.169151 
L 93.606234 75.987859 
L 102.481642 69.060216 
L 116.485997 62.824638 
L 125.259883 60.286169 
L 127.348618 57.097005 
L 147.086648 42.084913 
L 161.091003 33.714651 
L 173.862888 30.1821 
L 180.829033 28.119266 
L 194.833388 26.276998 
L 214.571418 23.864822 
L 228.575773 25.007378 
" clip-path="url(#p98eee4f4f2)" style="fill: none; stroke-dasharray: 7.4,3.2; stroke-dashoffset: 0; stroke: #ff0000; stroke-width: 2"/>
   </g>
   <g id="line2d_107">
    <path d="M 49.001227 132.0912 
L 68.739257 111.241533 
L 82.743612 99.889028 
L 93.606234 90.390269 
L 102.481642 80.636654 
L 116.485997 69.439663 
L 125.259883 60.286171 
L 127.348618 60.421932 
L 147.086648 57.90466 
L 161.091003 58.020782 
L 173.862888 59.390379 
L 180.829033 59.999282 
L 194.833388 60.710767 
L 214.571418 61.178251 
L 228.575773 64.24123 
" clip-path="url(#p98eee4f4f2)" style="fill: none; stroke-dasharray: 7.4,3.2; stroke-dashoffset: 0; stroke: #ff0000; stroke-width: 2"/>
   </g>
   <g id="line2d_108">
    <path d="M 49.001227 121.148551 
L 68.739257 101.707416 
L 82.743612 92.087001 
L 93.606234 82.271799 
L 102.481642 75.108814 
L 116.485997 66.307401 
L 125.259883 60.28617 
L 127.348618 58.758983 
L 147.086648 49.902038 
L 161.091003 45.94692 
L 173.862888 44.728124 
L 180.829033 44.285608 
L 194.833388 43.561933 
L 214.571418 42.522216 
L 228.575773 44.665009 
" clip-path="url(#p98eee4f4f2)" style="fill: none; stroke: #0000ff; stroke-width: 2; stroke-linecap: square"/>
   </g>
   <g id="line2d_109">
    <path d="M 49.001227 110.438256 
L 68.739257 92.09811 
L 82.743612 83.557839 
L 93.606234 75.232538 
L 102.481642 69.413848 
L 116.485997 63.095919 
L 125.259883 60.28617 
L 127.348618 57.895794 
L 147.086648 41.99452 
L 161.091003 33.72789 
L 173.862888 30.167649 
L 180.829033 28.357593 
L 194.833388 26.392936 
L 214.571418 24.015459 
L 228.575773 24.954227 
" clip-path="url(#p98eee4f4f2)" style="fill: none; stroke-dasharray: 7.4,3.2; stroke-dashoffset: 0; stroke: #0000ff; stroke-width: 2"/>
   </g>
   <g id="line2d_110">
    <path d="M 49.001227 131.858846 
L 68.739257 111.316723 
L 82.743612 100.616163 
L 93.606234 89.311059 
L 102.481642 80.80378 
L 116.485997 69.518883 
L 125.259883 60.28617 
L 127.348618 59.622171 
L 147.086648 57.809557 
L 161.091003 58.16595 
L 173.862888 59.288599 
L 180.829033 60.213623 
L 194.833388 60.73093 
L 214.571418 61.028973 
L 228.575773 64.37579 
" clip-path="url(#p98eee4f4f2)" style="fill: none; stroke-dasharray: 7.4,3.2; stroke-dashoffset: 0; stroke: #0000ff; stroke-width: 2"/>
   </g>
   <g id="patch_3">
    <path d="M 40.0225 138.0384 
L 40.0225 7.2 
" style="fill: none; stroke: #000000; stroke-width: 0.8; stroke-linejoin: miter; stroke-linecap: square"/>
   </g>
   <g id="patch_4">
    <path d="M 237.5545 138.0384 
L 237.5545 7.2 
" style="fill: none; stroke: #000000; stroke-width: 0.8; stroke-linejoin: miter; stroke-linecap: square"/>
   </g>
   <g id="patch_5">
    <path d="M 40.0225 138.0384 
L 237.5545 138.0384 
" style="fill: none; stroke: #000000; stroke-width: 0.8; stroke-linejoin: miter; stroke-linecap: square"/>
   </g>
   <g id="patch_6">
    <path d="M 40.0225 7.2 
L 237.5545 7.2 
" style="fill: none; stroke: #000000; stroke-width: 0.8; stroke-linejoin: miter; stroke-linecap: square"/>
   </g>
   <g id="legend_1">
    <g id="patch_7">
     <path d="M 243.1545 104.47295 
L 427.8745 104.47295 
Q 429.4745 104.47295 429.4745 102.87295 
L 429.4745 42.36545 
Q 429.4745 40.76545 427.8745 40.76545 
L 243.1545 40.76545 
Q 241.5545 40.76545 241.5545 42.36545 
L 241.5545 102.87295 
Q 241.5545 104.47295 243.1545 104.47295 
z
" style="fill: #ffffff; opacity: 0.8; stroke: #cccccc; stroke-linejoin: miter"/>
    </g>
    <g id="line2d_111">
     <path d="M 244.7545 47.2442 
L 252.7545 47.2442 
L 260.7545 47.2442 
" style="fill: none; stroke: #b2b2b2; stroke-width: 0.8; stroke-linecap: square"/>
    </g>
    <g id="text_6">
     <!-- Individual selected GMs -->
     <g transform="translate(267.1545 50.0442) scale(0.08 -0.08)">
      <defs>
       <path id="DejaVuSans-49" d="M 628 4666 
L 1259 4666 
L 1259 0 
L 628 0 
L 628 4666 
z
" transform="scale(0.015625)"/>
       <path id="DejaVuSans-76" d="M 191 3500 
L 800 3500 
L 1894 563 
L 2988 3500 
L 3597 3500 
L 2284 0 
L 1503 0 
L 191 3500 
z
" transform="scale(0.015625)"/>
       <path id="DejaVuSans-75" d="M 544 1381 
L 544 3500 
L 1119 3500 
L 1119 1403 
Q 1119 906 1312 657 
Q 1506 409 1894 409 
Q 2359 409 2629 706 
Q 2900 1003 2900 1516 
L 2900 3500 
L 3475 3500 
L 3475 0 
L 2900 0 
L 2900 538 
Q 2691 219 2414 64 
Q 2138 -91 1772 -91 
Q 1169 -91 856 284 
Q 544 659 544 1381 
z
M 1991 3584 
L 1991 3584 
z
" transform="scale(0.015625)"/>
       <path id="DejaVuSans-47" d="M 3809 666 
L 3809 1919 
L 2778 1919 
L 2778 2438 
L 4434 2438 
L 4434 434 
Q 4069 175 3628 42 
Q 3188 -91 2688 -91 
Q 1594 -91 976 548 
Q 359 1188 359 2328 
Q 359 3472 976 4111 
Q 1594 4750 2688 4750 
Q 3144 4750 3555 4637 
Q 3966 4525 4313 4306 
L 4313 3634 
Q 3963 3931 3569 4081 
Q 3175 4231 2741 4231 
Q 1884 4231 1454 3753 
Q 1025 3275 1025 2328 
Q 1025 1384 1454 906 
Q 1884 428 2741 428 
Q 3075 428 3337 486 
Q 3600 544 3809 666 
z
" transform="scale(0.015625)"/>
       <path id="DejaVuSans-4d" d="M 628 4666 
L 1569 4666 
L 2759 1491 
L 3956 4666 
L 4897 4666 
L 4897 0 
L 4281 0 
L 4281 4097 
L 3078 897 
L 2444 897 
L 1241 4097 
L 1241 0 
L 628 0 
L 628 4666 
z
" transform="scale(0.015625)"/>
      </defs>
      <use xlink:href="#DejaVuSans-49"/>
      <use xlink:href="#DejaVuSans-6e" x="29.492188"/>
      <use xlink:href="#DejaVuSans-64" x="92.871094"/>
      <use xlink:href="#DejaVuSans-69" x="156.347656"/>
      <use xlink:href="#DejaVuSans-76" x="184.130859"/>
      <use xlink:href="#DejaVuSans-69" x="243.310547"/>
      <use xlink:href="#DejaVuSans-64" x="271.09375"/>
      <use xlink:href="#DejaVuSans-75" x="334.570312"/>
      <use xlink:href="#DejaVuSans-61" x="397.949219"/>
      <use xlink:href="#DejaVuSans-6c" x="459.228516"/>
      <use xlink:href="#DejaVuSans-20" x="487.011719"/>
      <use xlink:href="#DejaVuSans-73" x="518.798828"/>
      <use xlink:href="#DejaVuSans-65" x="570.898438"/>
      <use xlink:href="#DejaVuSans-6c" x="632.421875"/>
      <use xlink:href="#DejaVuSans-65" x="660.205078"/>
      <use xlink:href="#DejaVuSans-63" x="721.728516"/>
      <use xlink:href="#DejaVuSans-74" x="776.708984"/>
      <use xlink:href="#DejaVuSans-65" x="815.917969"/>
      <use xlink:href="#DejaVuSans-64" x="877.441406"/>
      <use xlink:href="#DejaVuSans-20" x="940.917969"/>
      <use xlink:href="#DejaVuSans-47" x="972.705078"/>
      <use xlink:href="#DejaVuSans-4d" x="1050.195312"/>
      <use xlink:href="#DejaVuSans-73" x="1136.474609"/>
     </g>
    </g>
    <g id="line2d_112">
     <path d="M 244.7545 58.9867 
L 252.7545 58.9867 
L 260.7545 58.9867 
" style="fill: none; stroke: #ff0000; stroke-width: 2; stroke-linecap: square"/>
    </g>
    <g id="text_7">
     <!-- GCIM median -->
     <g transform="translate(267.1545 61.7867) scale(0.08 -0.08)">
      <defs>
       <path id="DejaVuSans-43" d="M 4122 4306 
L 4122 3641 
Q 3803 3938 3442 4084 
Q 3081 4231 2675 4231 
Q 1875 4231 1450 3742 
Q 1025 3253 1025 2328 
Q 1025 1406 1450 917 
Q 1875 428 2675 428 
Q 3081 428 3442 575 
Q 3803 722 4122 1019 
L 4122 359 
Q 3791 134 3420 21 
Q 3050 -91 2638 -91 
Q 1578 -91 968 557 
Q 359 1206 359 2328 
Q 359 3453 968 4101 
Q 1578 4750 2638 4750 
Q 3056 4750 3426 4639 
Q 3797 4528 4122 4306 
z
" transform="scale(0.015625)"/>
       <path id="DejaVuSans-6d" d="M 3328 2828 
Q 3544 3216 3844 3400 
Q 4144 3584 4550 3584 
Q 5097 3584 5394 3201 
Q 5691 2819 5691 2113 
L 5691 0 
L 5113 0 
L 5113 2094 
Q 5113 2597 4934 2840 
Q 4756 3084 4391 3084 
Q 3944 3084 3684 2787 
Q 3425 2491 3425 1978 
L 3425 0 
L 2847 0 
L 2847 2094 
Q 2847 2600 2669 2842 
Q 2491 3084 2119 3084 
Q 1678 3084 1418 2786 
Q 1159 2488 1159 1978 
L 1159 0 
L 581 0 
L 581 3500 
L 1159 3500 
L 1159 2956 
Q 1356 3278 1631 3431 
Q 1906 3584 2284 3584 
Q 2666 3584 2933 3390 
Q 3200 3197 3328 2828 
z
" transform="scale(0.015625)"/>
      </defs>
      <use xlink:href="#DejaVuSans-47"/>
      <use xlink:href="#DejaVuSans-43" x="77.490234"/>
      <use xlink:href="#DejaVuSans-49" x="147.314453"/>
      <use xlink:href="#DejaVuSans-4d" x="176.806641"/>
      <use xlink:href="#DejaVuSans-20" x="263.085938"/>
      <use xlink:href="#DejaVuSans-6d" x="294.873047"/>
      <use xlink:href="#DejaVuSans-65" x="392.285156"/>
      <use xlink:href="#DejaVuSans-64" x="453.808594"/>
      <use xlink:href="#DejaVuSans-69" x="517.285156"/>
      <use xlink:href="#DejaVuSans-61" x="545.068359"/>
      <use xlink:href="#DejaVuSans-6e" x="606.347656"/>
     </g>
    </g>
    <g id="line2d_113">
     <path d="M 244.7545 72.01045 
L 252.7545 72.01045 
L 260.7545 72.01045 
" style="fill: none; stroke-dasharray: 7.4,3.2; stroke-dashoffset: 0; stroke: #ff0000; stroke-width: 2"/>
    </g>
    <g id="text_8">
     <!-- GCIM $16^{th}$ and $84^{th}$ percentiles -->
     <g transform="translate(267.1545 74.81045) scale(0.08 -0.08)">
      <defs>
       <path id="DejaVuSans-36" d="M 2113 2584 
Q 1688 2584 1439 2293 
Q 1191 2003 1191 1497 
Q 1191 994 1439 701 
Q 1688 409 2113 409 
Q 2538 409 2786 701 
Q 3034 994 3034 1497 
Q 3034 2003 2786 2293 
Q 2538 2584 2113 2584 
z
M 3366 4563 
L 3366 3988 
Q 3128 4100 2886 4159 
Q 2644 4219 2406 4219 
Q 1781 4219 1451 3797 
Q 1122 3375 1075 2522 
Q 1259 2794 1537 2939 
Q 1816 3084 2150 3084 
Q 2853 3084 3261 2657 
Q 3669 2231 3669 1497 
Q 3669 778 3244 343 
Q 2819 -91 2113 -91 
Q 1303 -91 875 529 
Q 447 1150 447 2328 
Q 447 3434 972 4092 
Q 1497 4750 2381 4750 
Q 2619 4750 2861 4703 
Q 3103 4656 3366 4563 
z
" transform="scale(0.015625)"/>
       <path id="DejaVuSans-Oblique-74" d="M 2706 3500 
L 2619 3053 
L 1472 3053 
L 1100 1153 
Q 1081 1047 1072 975 
Q 1063 903 1063 863 
Q 1063 663 1183 572 
Q 1303 481 1569 481 
L 2150 481 
L 2053 0 
L 1503 0 
Q 991 0 739 200 
Q 488 400 488 806 
Q 488 878 497 964 
Q 506 1050 525 1153 
L 897 3053 
L 409 3053 
L 500 3500 
L 978 3500 
L 1172 4494 
L 1747 4494 
L 1556 3500 
L 2706 3500 
z
" transform="scale(0.015625)"/>
       <path id="DejaVuSans-Oblique-68" d="M 3566 2113 
L 3156 0 
L 2578 0 
L 2988 2091 
Q 3016 2238 3031 2350 
Q 3047 2463 3047 2528 
Q 3047 2791 2881 2937 
Q 2716 3084 2419 3084 
Q 1956 3084 1617 2771 
Q 1278 2459 1178 1941 
L 800 0 
L 225 0 
L 1172 4863 
L 1747 4863 
L 1375 2950 
Q 1594 3244 1934 3414 
Q 2275 3584 2650 3584 
Q 3113 3584 3367 3334 
Q 3622 3084 3622 2631 
Q 3622 2519 3608 2391 
Q 3594 2263 3566 2113 
z
" transform="scale(0.015625)"/>
       <path id="DejaVuSans-38" d="M 2034 2216 
Q 1584 2216 1326 1975 
Q 1069 1734 1069 1313 
Q 1069 891 1326 650 
Q 1584 409 2034 409 
Q 2484 409 2743 651 
Q 3003 894 3003 1313 
Q 3003 1734 2745 1975 
Q 2488 2216 2034 2216 
z
M 1403 2484 
Q 997 2584 770 2862 
Q 544 3141 544 3541 
Q 544 4100 942 4425 
Q 1341 4750 2034 4750 
Q 2731 4750 3128 4425 
Q 3525 4100 3525 3541 
Q 3525 3141 3298 2862 
Q 3072 2584 2669 2484 
Q 3125 2378 3379 2068 
Q 3634 1759 3634 1313 
Q 3634 634 3220 271 
Q 2806 -91 2034 -91 
Q 1263 -91 848 271 
Q 434 634 434 1313 
Q 434 1759 690 2068 
Q 947 2378 1403 2484 
z
M 1172 3481 
Q 1172 3119 1398 2916 
Q 1625 2713 2034 2713 
Q 2441 2713 2670 2916 
Q 2900 3119 2900 3481 
Q 2900 3844 2670 4047 
Q 2441 4250 2034 4250 
Q 1625 4250 1398 4047 
Q 1172 3844 1172 3481 
z
" transform="scale(0.015625)"/>
       <path id="DejaVuSans-34" d="M 2419 4116 
L 825 1625 
L 2419 1625 
L 2419 4116 
z
M 2253 4666 
L 3047 4666 
L 3047 1625 
L 3713 1625 
L 3713 1100 
L 3047 1100 
L 3047 0 
L 2419 0 
L 2419 1100 
L 313 1100 
L 313 1709 
L 2253 4666 
z
" transform="scale(0.015625)"/>
      </defs>
      <use xlink:href="#DejaVuSans-47" transform="translate(0 0.529687)"/>
      <use xlink:href="#DejaVuSans-43" transform="translate(77.490234 0.529687)"/>
      <use xlink:href="#DejaVuSans-49" transform="translate(147.314453 0.529687)"/>
      <use xlink:href="#DejaVuSans-4d" transform="translate(176.806641 0.529687)"/>
      <use xlink:href="#DejaVuSans-20" transform="translate(263.085938 0.529687)"/>
      <use xlink:href="#DejaVuSans-31" transform="translate(294.873047 0.529687)"/>
      <use xlink:href="#DejaVuSans-36" transform="translate(358.496094 0.529687)"/>
      <use xlink:href="#DejaVuSans-Oblique-74" transform="translate(423.076172 38.810937) scale(0.7)"/>
      <use xlink:href="#DejaVuSans-Oblique-68" transform="translate(450.522461 38.810937) scale(0.7)"/>
      <use xlink:href="#DejaVuSans-20" transform="translate(497.62207 0.529687)"/>
      <use xlink:href="#DejaVuSans-61" transform="translate(529.40918 0.529687)"/>
      <use xlink:href="#DejaVuSans-6e" transform="translate(590.688477 0.529687)"/>
      <use xlink:href="#DejaVuSans-64" transform="translate(654.067383 0.529687)"/>
      <use xlink:href="#DejaVuSans-20" transform="translate(717.543945 0.529687)"/>
      <use xlink:href="#DejaVuSans-38" transform="translate(749.331055 0.529687)"/>
      <use xlink:href="#DejaVuSans-34" transform="translate(812.954102 0.529687)"/>
      <use xlink:href="#DejaVuSans-Oblique-74" transform="translate(877.53418 38.810937) scale(0.7)"/>
      <use xlink:href="#DejaVuSans-Oblique-68" transform="translate(904.980469 38.810937) scale(0.7)"/>
      <use xlink:href="#DejaVuSans-20" transform="translate(952.080078 0.529687)"/>
      <use xlink:href="#DejaVuSans-70" transform="translate(983.867188 0.529687)"/>
      <use xlink:href="#DejaVuSans-65" transform="translate(1047.34375 0.529687)"/>
      <use xlink:href="#DejaVuSans-72" transform="translate(1108.867188 0.529687)"/>
      <use xlink:href="#DejaVuSans-63" transform="translate(1149.980469 0.529687)"/>
      <use xlink:href="#DejaVuSans-65" transform="translate(1204.960938 0.529687)"/>
      <use xlink:href="#DejaVuSans-6e" transform="translate(1266.484375 0.529687)"/>
      <use xlink:href="#DejaVuSans-74" transform="translate(1329.863281 0.529687)"/>
      <use xlink:href="#DejaVuSans-69" transform="translate(1369.072266 0.529687)"/>
      <use xlink:href="#DejaVuSans-6c" transform="translate(1396.855469 0.529687)"/>
      <use xlink:href="#DejaVuSans-65" transform="translate(1424.638672 0.529687)"/>
      <use xlink:href="#DejaVuSans-73" transform="translate(1486.162109 0.529687)"/>
     </g>
    </g>
    <g id="line2d_114">
     <path d="M 244.7545 83.7692 
L 252.7545 83.7692 
L 260.7545 83.7692 
" style="fill: none; stroke: #0000ff; stroke-width: 2; stroke-linecap: square"/>
    </g>
    <g id="text_9">
     <!-- Selected GMs median -->
     <g transform="translate(267.1545 86.5692) scale(0.08 -0.08)">
      <use xlink:href="#DejaVuSans-53"/>
      <use xlink:href="#DejaVuSans-65" x="63.476562"/>
      <use xlink:href="#DejaVuSans-6c" x="125"/>
      <use xlink:href="#DejaVuSans-65" x="152.783203"/>
      <use xlink:href="#DejaVuSans-63" x="214.306641"/>
      <use xlink:href="#DejaVuSans-74" x="269.287109"/>
      <use xlink:href="#DejaVuSans-65" x="308.496094"/>
      <use xlink:href="#DejaVuSans-64" x="370.019531"/>
      <use xlink:href="#DejaVuSans-20" x="433.496094"/>
      <use xlink:href="#DejaVuSans-47" x="465.283203"/>
      <use xlink:href="#DejaVuSans-4d" x="542.773438"/>
      <use xlink:href="#DejaVuSans-73" x="629.052734"/>
      <use xlink:href="#DejaVuSans-20" x="681.152344"/>
      <use xlink:href="#DejaVuSans-6d" x="712.939453"/>
      <use xlink:href="#DejaVuSans-65" x="810.351562"/>
      <use xlink:href="#DejaVuSans-64" x="871.875"/>
      <use xlink:href="#DejaVuSans-69" x="935.351562"/>
      <use xlink:href="#DejaVuSans-61" x="963.134766"/>
      <use xlink:href="#DejaVuSans-6e" x="1024.414062"/>
     </g>
    </g>
    <g id="line2d_115">
     <path d="M 244.7545 96.79295 
L 252.7545 96.79295 
L 260.7545 96.79295 
" style="fill: none; stroke-dasharray: 7.4,3.2; stroke-dashoffset: 0; stroke: #0000ff; stroke-width: 2"/>
    </g>
    <g id="text_10">
     <!-- Selected GMs, $16^{th}$ and $84^{th}$ percentiles -->
     <g transform="translate(267.1545 99.59295) scale(0.08 -0.08)">
      <use xlink:href="#DejaVuSans-53" transform="translate(0 0.529687)"/>
      <use xlink:href="#DejaVuSans-65" transform="translate(63.476562 0.529687)"/>
      <use xlink:href="#DejaVuSans-6c" transform="translate(125 0.529687)"/>
      <use xlink:href="#DejaVuSans-65" transform="translate(152.783203 0.529687)"/>
      <use xlink:href="#DejaVuSans-63" transform="translate(214.306641 0.529687)"/>
      <use xlink:href="#DejaVuSans-74" transform="translate(269.287109 0.529687)"/>
      <use xlink:href="#DejaVuSans-65" transform="translate(308.496094 0.529687)"/>
      <use xlink:href="#DejaVuSans-64" transform="translate(370.019531 0.529687)"/>
      <use xlink:href="#DejaVuSans-20" transform="translate(433.496094 0.529687)"/>
      <use xlink:href="#DejaVuSans-47" transform="translate(465.283203 0.529687)"/>
      <use xlink:href="#DejaVuSans-4d" transform="translate(542.773438 0.529687)"/>
      <use xlink:href="#DejaVuSans-73" transform="translate(629.052734 0.529687)"/>
      <use xlink:href="#DejaVuSans-2c" transform="translate(681.152344 0.529687)"/>
      <use xlink:href="#DejaVuSans-20" transform="translate(712.939453 0.529687)"/>
      <use xlink:href="#DejaVuSans-31" transform="translate(744.726562 0.529687)"/>
      <use xlink:href="#DejaVuSans-36" transform="translate(808.349609 0.529687)"/>
      <use xlink:href="#DejaVuSans-Oblique-74" transform="translate(872.929688 38.810937) scale(0.7)"/>
      <use xlink:href="#DejaVuSans-Oblique-68" transform="translate(900.375977 38.810937) scale(0.7)"/>
      <use xlink:href="#DejaVuSans-20" transform="translate(947.475586 0.529687)"/>
      <use xlink:href="#DejaVuSans-61" transform="translate(979.262695 0.529687)"/>
      <use xlink:href="#DejaVuSans-6e" transform="translate(1040.541992 0.529687)"/>
      <use xlink:href="#DejaVuSans-64" transform="translate(1103.920898 0.529687)"/>
      <use xlink:href="#DejaVuSans-20" transform="translate(1167.397461 0.529687)"/>
      <use xlink:href="#DejaVuSans-38" transform="translate(1199.18457 0.529687)"/>
      <use xlink:href="#DejaVuSans-34" transform="translate(1262.807617 0.529687)"/>
      <use xlink:href="#DejaVuSans-Oblique-74" transform="translate(1327.387695 38.810937) scale(0.7)"/>
      <use xlink:href="#DejaVuSans-Oblique-68" transform="translate(1354.833984 38.810937) scale(0.7)"/>
      <use xlink:href="#DejaVuSans-20" transform="translate(1401.933594 0.529687)"/>
      <use xlink:href="#DejaVuSans-70" transform="translate(1433.720703 0.529687)"/>
      <use xlink:href="#DejaVuSans-65" transform="translate(1497.197266 0.529687)"/>
      <use xlink:href="#DejaVuSans-72" transform="translate(1558.720703 0.529687)"/>
      <use xlink:href="#DejaVuSans-63" transform="translate(1599.833984 0.529687)"/>
      <use xlink:href="#DejaVuSans-65" transform="translate(1654.814453 0.529687)"/>
      <use xlink:href="#DejaVuSans-6e" transform="translate(1716.337891 0.529687)"/>
      <use xlink:href="#DejaVuSans-74" transform="translate(1779.716797 0.529687)"/>
      <use xlink:href="#DejaVuSans-69" transform="translate(1818.925781 0.529687)"/>
      <use xlink:href="#DejaVuSans-6c" transform="translate(1846.708984 0.529687)"/>
      <use xlink:href="#DejaVuSans-65" transform="translate(1874.492188 0.529687)"/>
      <use xlink:href="#DejaVuSans-73" transform="translate(1936.015625 0.529687)"/>
     </g>
    </g>
   </g>
  </g>
 </g>
 <defs>
  <clipPath id="p98eee4f4f2">
   <rect x="40.0225" y="7.2" width="197.532" height="130.8384"/>
  </clipPath>
 </defs>
</svg>
