<?xml version="1.0" encoding="utf-8" standalone="no"?>
<!DOCTYPE svg PUBLIC "-//W3C//DTD SVG 1.1//EN"
  "http://www.w3.org/Graphics/SVG/1.1/DTD/svg11.dtd">
<svg xmlns:xlink="http://www.w3.org/1999/xlink" width="441.3945pt" height="171.7234pt" viewBox="0 0 441.3945 171.7234" xmlns="http://www.w3.org/2000/svg" version="1.1">
 <metadata>
  <rdf:RDF xmlns:dc="http://purl.org/dc/elements/1.1/" xmlns:cc="http://creativecommons.org/ns#" xmlns:rdf="http://www.w3.org/1999/02/22-rdf-syntax-ns#">
   <cc:Work>
    <dc:type rdf:resource="http://purl.org/dc/dcmitype/StillImage"/>
    <dc:date>2024-11-04T16:05:31.174180</dc:date>
    <dc:format>image/svg+xml</dc:format>
    <dc:creator>
     <cc:Agent>
      <dc:title>Matplotlib v3.8.2, https://matplotlib.org/</dc:title>
     </cc:Agent>
    </dc:creator>
   </cc:Work>
  </rdf:RDF>
 </metadata>
 <defs>
  <style type="text/css">*{stroke-linejoin: round; stroke-linecap: butt}</style>
 </defs>
 <g id="figure_1">
  <g id="patch_1">
   <path d="M 0 171.7234 
L 441.3945 171.7234 
L 441.3945 0 
L 0 0 
z
" style="fill: #ffffff"/>
  </g>
  <g id="axes_1">
   <g id="patch_2">
    <path d="M 44.7425 138.0384 
L 242.2745 138.0384 
L 242.2745 7.2 
L 44.7425 7.2 
z
" style="fill: #ffffff"/>
   </g>
   <g id="matplotlib.axis_1">
    <g id="xtick_1">
     <g id="line2d_1">
      <path d="M 53.721227 138.0384 
L 53.721227 7.2 
" clip-path="url(#p977c7812ad)" style="fill: none; stroke: #d9d9d9; stroke-width: 0.8; stroke-linecap: square"/>
     </g>
     <g id="line2d_2">
      <defs>
       <path id="m885bfe2cec" d="M 0 0 
L 0 3.5 
" style="stroke: #000000; stroke-width: 0.8"/>
      </defs>
      <g>
       <use xlink:href="#m885bfe2cec" x="53.721227" y="138.0384" style="stroke: #000000; stroke-width: 0.8"/>
      </g>
     </g>
     <g id="text_1">
      <!-- $\mathdefault{10^{-1}}$ -->
      <g transform="translate(44.321227 151.11715) scale(0.08 -0.08)">
       <defs>
        <path id="DejaVuSans-31" d="M 794 531 
L 1825 531 
L 1825 4091 
L 703 3866 
L 703 4441 
L 1819 4666 
L 2450 4666 
L 2450 531 
L 3481 531 
L 3481 0 
L 794 0 
L 794 531 
z
" transform="scale(0.015625)"/>
        <path id="DejaVuSans-30" d="M 2034 4250 
Q 1547 4250 1301 3770 
Q 1056 3291 1056 2328 
Q 1056 1369 1301 889 
Q 1547 409 2034 409 
Q 2525 409 2770 889 
Q 3016 1369 3016 2328 
Q 3016 3291 2770 3770 
Q 2525 4250 2034 4250 
z
M 2034 4750 
Q 2819 4750 3233 4129 
Q 3647 3509 3647 2328 
Q 3647 1150 3233 529 
Q 2819 -91 2034 -91 
Q 1250 -91 836 529 
Q 422 1150 422 2328 
Q 422 3509 836 4129 
Q 1250 4750 2034 4750 
z
" transform="scale(0.015625)"/>
        <path id="DejaVuSans-2212" d="M 678 2272 
L 4684 2272 
L 4684 1741 
L 678 1741 
L 678 2272 
z
" transform="scale(0.015625)"/>
       </defs>
       <use xlink:href="#DejaVuSans-31" transform="translate(0 0.684375)"/>
       <use xlink:href="#DejaVuSans-30" transform="translate(63.623047 0.684375)"/>
       <use xlink:href="#DejaVuSans-2212" transform="translate(128.203125 38.965625) scale(0.7)"/>
       <use xlink:href="#DejaVuSans-31" transform="translate(186.855469 38.965625) scale(0.7)"/>
      </g>
     </g>
    </g>
    <g id="xtick_2">
     <g id="line2d_3">
      <path d="M 159.417352 138.0384 
L 159.417352 7.2 
" clip-path="url(#p977c7812ad)" style="fill: none; stroke: #d9d9d9; stroke-width: 0.8; stroke-linecap: square"/>
     </g>
     <g id="line2d_4">
      <g>
       <use xlink:href="#m885bfe2cec" x="159.417352" y="138.0384" style="stroke: #000000; stroke-width: 0.8"/>
      </g>
     </g>
     <g id="text_2">
      <!-- $\mathdefault{10^{0}}$ -->
      <g transform="translate(152.377352 151.11715) scale(0.08 -0.08)">
       <use xlink:href="#DejaVuSans-31" transform="translate(0 0.765625)"/>
       <use xlink:href="#DejaVuSans-30" transform="translate(63.623047 0.765625)"/>
       <use xlink:href="#DejaVuSans-30" transform="translate(128.203125 39.046875) scale(0.7)"/>
      </g>
     </g>
    </g>
    <g id="xtick_3">
     <g id="line2d_5">
      <path d="M 48.884838 138.0384 
L 48.884838 7.2 
" clip-path="url(#p977c7812ad)" style="fill: none; stroke-dasharray: 2.96,1.28; stroke-dashoffset: 0; stroke: #f2f2f2; stroke-width: 0.8"/>
     </g>
     <g id="line2d_6">
      <defs>
       <path id="m27f7a78b70" d="M 0 0 
L 0 2 
" style="stroke: #000000; stroke-width: 0.6"/>
      </defs>
      <g>
       <use xlink:href="#m27f7a78b70" x="48.884838" y="138.0384" style="stroke: #000000; stroke-width: 0.6"/>
      </g>
     </g>
    </g>
    <g id="xtick_4">
     <g id="line2d_7">
      <path d="M 85.538931 138.0384 
L 85.538931 7.2 
" clip-path="url(#p977c7812ad)" style="fill: none; stroke-dasharray: 2.96,1.28; stroke-dashoffset: 0; stroke: #f2f2f2; stroke-width: 0.8"/>
     </g>
     <g id="line2d_8">
      <g>
       <use xlink:href="#m27f7a78b70" x="85.538931" y="138.0384" style="stroke: #000000; stroke-width: 0.6"/>
      </g>
     </g>
    </g>
    <g id="xtick_5">
     <g id="line2d_9">
      <path d="M 104.151095 138.0384 
L 104.151095 7.2 
" clip-path="url(#p977c7812ad)" style="fill: none; stroke-dasharray: 2.96,1.28; stroke-dashoffset: 0; stroke: #f2f2f2; stroke-width: 0.8"/>
     </g>
     <g id="line2d_10">
      <g>
       <use xlink:href="#m27f7a78b70" x="104.151095" y="138.0384" style="stroke: #000000; stroke-width: 0.6"/>
      </g>
     </g>
    </g>
    <g id="xtick_6">
     <g id="line2d_11">
      <path d="M 117.356635 138.0384 
L 117.356635 7.2 
" clip-path="url(#p977c7812ad)" style="fill: none; stroke-dasharray: 2.96,1.28; stroke-dashoffset: 0; stroke: #f2f2f2; stroke-width: 0.8"/>
     </g>
     <g id="line2d_12">
      <g>
       <use xlink:href="#m27f7a78b70" x="117.356635" y="138.0384" style="stroke: #000000; stroke-width: 0.6"/>
      </g>
     </g>
    </g>
    <g id="xtick_7">
     <g id="line2d_13">
      <path d="M 127.599648 138.0384 
L 127.599648 7.2 
" clip-path="url(#p977c7812ad)" style="fill: none; stroke-dasharray: 2.96,1.28; stroke-dashoffset: 0; stroke: #f2f2f2; stroke-width: 0.8"/>
     </g>
     <g id="line2d_14">
      <g>
       <use xlink:href="#m27f7a78b70" x="127.599648" y="138.0384" style="stroke: #000000; stroke-width: 0.6"/>
      </g>
     </g>
    </g>
    <g id="xtick_8">
     <g id="line2d_15">
      <path d="M 135.968799 138.0384 
L 135.968799 7.2 
" clip-path="url(#p977c7812ad)" style="fill: none; stroke-dasharray: 2.96,1.28; stroke-dashoffset: 0; stroke: #f2f2f2; stroke-width: 0.8"/>
     </g>
     <g id="line2d_16">
      <g>
       <use xlink:href="#m27f7a78b70" x="135.968799" y="138.0384" style="stroke: #000000; stroke-width: 0.6"/>
      </g>
     </g>
    </g>
    <g id="xtick_9">
     <g id="line2d_17">
      <path d="M 143.044815 138.0384 
L 143.044815 7.2 
" clip-path="url(#p977c7812ad)" style="fill: none; stroke-dasharray: 2.96,1.28; stroke-dashoffset: 0; stroke: #f2f2f2; stroke-width: 0.8"/>
     </g>
     <g id="line2d_18">
      <g>
       <use xlink:href="#m27f7a78b70" x="143.044815" y="138.0384" style="stroke: #000000; stroke-width: 0.6"/>
      </g>
     </g>
    </g>
    <g id="xtick_10">
     <g id="line2d_19">
      <path d="M 149.174339 138.0384 
L 149.174339 7.2 
" clip-path="url(#p977c7812ad)" style="fill: none; stroke-dasharray: 2.96,1.28; stroke-dashoffset: 0; stroke: #f2f2f2; stroke-width: 0.8"/>
     </g>
     <g id="line2d_20">
      <g>
       <use xlink:href="#m27f7a78b70" x="149.174339" y="138.0384" style="stroke: #000000; stroke-width: 0.6"/>
      </g>
     </g>
    </g>
    <g id="xtick_11">
     <g id="line2d_21">
      <path d="M 154.580963 138.0384 
L 154.580963 7.2 
" clip-path="url(#p977c7812ad)" style="fill: none; stroke-dasharray: 2.96,1.28; stroke-dashoffset: 0; stroke: #f2f2f2; stroke-width: 0.8"/>
     </g>
     <g id="line2d_22">
      <g>
       <use xlink:href="#m27f7a78b70" x="154.580963" y="138.0384" style="stroke: #000000; stroke-width: 0.6"/>
      </g>
     </g>
    </g>
    <g id="xtick_12">
     <g id="line2d_23">
      <path d="M 191.235056 138.0384 
L 191.235056 7.2 
" clip-path="url(#p977c7812ad)" style="fill: none; stroke-dasharray: 2.96,1.28; stroke-dashoffset: 0; stroke: #f2f2f2; stroke-width: 0.8"/>
     </g>
     <g id="line2d_24">
      <g>
       <use xlink:href="#m27f7a78b70" x="191.235056" y="138.0384" style="stroke: #000000; stroke-width: 0.6"/>
      </g>
     </g>
    </g>
    <g id="xtick_13">
     <g id="line2d_25">
      <path d="M 209.84722 138.0384 
L 209.84722 7.2 
" clip-path="url(#p977c7812ad)" style="fill: none; stroke-dasharray: 2.96,1.28; stroke-dashoffset: 0; stroke: #f2f2f2; stroke-width: 0.8"/>
     </g>
     <g id="line2d_26">
      <g>
       <use xlink:href="#m27f7a78b70" x="209.84722" y="138.0384" style="stroke: #000000; stroke-width: 0.6"/>
      </g>
     </g>
    </g>
    <g id="xtick_14">
     <g id="line2d_27">
      <path d="M 223.05276 138.0384 
L 223.05276 7.2 
" clip-path="url(#p977c7812ad)" style="fill: none; stroke-dasharray: 2.96,1.28; stroke-dashoffset: 0; stroke: #f2f2f2; stroke-width: 0.8"/>
     </g>
     <g id="line2d_28">
      <g>
       <use xlink:href="#m27f7a78b70" x="223.05276" y="138.0384" style="stroke: #000000; stroke-width: 0.6"/>
      </g>
     </g>
    </g>
    <g id="xtick_15">
     <g id="line2d_29">
      <path d="M 233.295773 138.0384 
L 233.295773 7.2 
" clip-path="url(#p977c7812ad)" style="fill: none; stroke-dasharray: 2.96,1.28; stroke-dashoffset: 0; stroke: #f2f2f2; stroke-width: 0.8"/>
     </g>
     <g id="line2d_30">
      <g>
       <use xlink:href="#m27f7a78b70" x="233.295773" y="138.0384" style="stroke: #000000; stroke-width: 0.6"/>
      </g>
     </g>
    </g>
    <g id="xtick_16">
     <g id="line2d_31">
      <path d="M 241.664924 138.0384 
L 241.664924 7.2 
" clip-path="url(#p977c7812ad)" style="fill: none; stroke-dasharray: 2.96,1.28; stroke-dashoffset: 0; stroke: #f2f2f2; stroke-width: 0.8"/>
     </g>
     <g id="line2d_32">
      <g>
       <use xlink:href="#m27f7a78b70" x="241.664924" y="138.0384" style="stroke: #000000; stroke-width: 0.6"/>
      </g>
     </g>
    </g>
    <g id="text_3">
     <!-- Period, T (s) -->
     <g transform="translate(119.576 162.85965) scale(0.08 -0.08)">
      <defs>
       <path id="DejaVuSans-50" d="M 1259 4147 
L 1259 2394 
L 2053 2394 
Q 2494 2394 2734 2622 
Q 2975 2850 2975 3272 
Q 2975 3691 2734 3919 
Q 2494 4147 2053 4147 
L 1259 4147 
z
M 628 4666 
L 2053 4666 
Q 2838 4666 3239 4311 
Q 3641 3956 3641 3272 
Q 3641 2581 3239 2228 
Q 2838 1875 2053 1875 
L 1259 1875 
L 1259 0 
L 628 0 
L 628 4666 
z
" transform="scale(0.015625)"/>
       <path id="DejaVuSans-65" d="M 3597 1894 
L 3597 1613 
L 953 1613 
Q 991 1019 1311 708 
Q 1631 397 2203 397 
Q 2534 397 2845 478 
Q 3156 559 3463 722 
L 3463 178 
Q 3153 47 2828 -22 
Q 2503 -91 2169 -91 
Q 1331 -91 842 396 
Q 353 884 353 1716 
Q 353 2575 817 3079 
Q 1281 3584 2069 3584 
Q 2775 3584 3186 3129 
Q 3597 2675 3597 1894 
z
M 3022 2063 
Q 3016 2534 2758 2815 
Q 2500 3097 2075 3097 
Q 1594 3097 1305 2825 
Q 1016 2553 972 2059 
L 3022 2063 
z
" transform="scale(0.015625)"/>
       <path id="DejaVuSans-72" d="M 2631 2963 
Q 2534 3019 2420 3045 
Q 2306 3072 2169 3072 
Q 1681 3072 1420 2755 
Q 1159 2438 1159 1844 
L 1159 0 
L 581 0 
L 581 3500 
L 1159 3500 
L 1159 2956 
Q 1341 3275 1631 3429 
Q 1922 3584 2338 3584 
Q 2397 3584 2469 3576 
Q 2541 3569 2628 3553 
L 2631 2963 
z
" transform="scale(0.015625)"/>
       <path id="DejaVuSans-69" d="M 603 3500 
L 1178 3500 
L 1178 0 
L 603 0 
L 603 3500 
z
M 603 4863 
L 1178 4863 
L 1178 4134 
L 603 4134 
L 603 4863 
z
" transform="scale(0.015625)"/>
       <path id="DejaVuSans-6f" d="M 1959 3097 
Q 1497 3097 1228 2736 
Q 959 2375 959 1747 
Q 959 1119 1226 758 
Q 1494 397 1959 397 
Q 2419 397 2687 759 
Q 2956 1122 2956 1747 
Q 2956 2369 2687 2733 
Q 2419 3097 1959 3097 
z
M 1959 3584 
Q 2709 3584 3137 3096 
Q 3566 2609 3566 1747 
Q 3566 888 3137 398 
Q 2709 -91 1959 -91 
Q 1206 -91 779 398 
Q 353 888 353 1747 
Q 353 2609 779 3096 
Q 1206 3584 1959 3584 
z
" transform="scale(0.015625)"/>
       <path id="DejaVuSans-64" d="M 2906 2969 
L 2906 4863 
L 3481 4863 
L 3481 0 
L 2906 0 
L 2906 525 
Q 2725 213 2448 61 
Q 2172 -91 1784 -91 
Q 1150 -91 751 415 
Q 353 922 353 1747 
Q 353 2572 751 3078 
Q 1150 3584 1784 3584 
Q 2172 3584 2448 3432 
Q 2725 3281 2906 2969 
z
M 947 1747 
Q 947 1113 1208 752 
Q 1469 391 1925 391 
Q 2381 391 2643 752 
Q 2906 1113 2906 1747 
Q 2906 2381 2643 2742 
Q 2381 3103 1925 3103 
Q 1469 3103 1208 2742 
Q 947 2381 947 1747 
z
" transform="scale(0.015625)"/>
       <path id="DejaVuSans-2c" d="M 750 794 
L 1409 794 
L 1409 256 
L 897 -744 
L 494 -744 
L 750 256 
L 750 794 
z
" transform="scale(0.015625)"/>
       <path id="DejaVuSans-20" transform="scale(0.015625)"/>
       <path id="DejaVuSans-54" d="M -19 4666 
L 3928 4666 
L 3928 4134 
L 2272 4134 
L 2272 0 
L 1638 0 
L 1638 4134 
L -19 4134 
L -19 4666 
z
" transform="scale(0.015625)"/>
       <path id="DejaVuSans-28" d="M 1984 4856 
Q 1566 4138 1362 3434 
Q 1159 2731 1159 2009 
Q 1159 1288 1364 580 
Q 1569 -128 1984 -844 
L 1484 -844 
Q 1016 -109 783 600 
Q 550 1309 550 2009 
Q 550 2706 781 3412 
Q 1013 4119 1484 4856 
L 1984 4856 
z
" transform="scale(0.015625)"/>
       <path id="DejaVuSans-73" d="M 2834 3397 
L 2834 2853 
Q 2591 2978 2328 3040 
Q 2066 3103 1784 3103 
Q 1356 3103 1142 2972 
Q 928 2841 928 2578 
Q 928 2378 1081 2264 
Q 1234 2150 1697 2047 
L 1894 2003 
Q 2506 1872 2764 1633 
Q 3022 1394 3022 966 
Q 3022 478 2636 193 
Q 2250 -91 1575 -91 
Q 1294 -91 989 -36 
Q 684 19 347 128 
L 347 722 
Q 666 556 975 473 
Q 1284 391 1588 391 
Q 1994 391 2212 530 
Q 2431 669 2431 922 
Q 2431 1156 2273 1281 
Q 2116 1406 1581 1522 
L 1381 1569 
Q 847 1681 609 1914 
Q 372 2147 372 2553 
Q 372 3047 722 3315 
Q 1072 3584 1716 3584 
Q 2034 3584 2315 3537 
Q 2597 3491 2834 3397 
z
" transform="scale(0.015625)"/>
       <path id="DejaVuSans-29" d="M 513 4856 
L 1013 4856 
Q 1481 4119 1714 3412 
Q 1947 2706 1947 2009 
Q 1947 1309 1714 600 
Q 1481 -109 1013 -844 
L 513 -844 
Q 928 -128 1133 580 
Q 1338 1288 1338 2009 
Q 1338 2731 1133 3434 
Q 928 4138 513 4856 
z
" transform="scale(0.015625)"/>
      </defs>
      <use xlink:href="#DejaVuSans-50"/>
      <use xlink:href="#DejaVuSans-65" x="56.677734"/>
      <use xlink:href="#DejaVuSans-72" x="118.201172"/>
      <use xlink:href="#DejaVuSans-69" x="159.314453"/>
      <use xlink:href="#DejaVuSans-6f" x="187.097656"/>
      <use xlink:href="#DejaVuSans-64" x="248.279297"/>
      <use xlink:href="#DejaVuSans-2c" x="311.755859"/>
      <use xlink:href="#DejaVuSans-20" x="343.542969"/>
      <use xlink:href="#DejaVuSans-54" x="375.330078"/>
      <use xlink:href="#DejaVuSans-20" x="436.414062"/>
      <use xlink:href="#DejaVuSans-28" x="468.201172"/>
      <use xlink:href="#DejaVuSans-73" x="507.214844"/>
      <use xlink:href="#DejaVuSans-29" x="559.314453"/>
     </g>
    </g>
   </g>
   <g id="matplotlib.axis_2">
    <g id="ytick_1">
     <g id="line2d_33">
      <path d="M 44.7425 113.617334 
L 242.2745 113.617334 
" clip-path="url(#p977c7812ad)" style="fill: none; stroke: #d9d9d9; stroke-width: 0.8; stroke-linecap: square"/>
     </g>
     <g id="line2d_34">
      <defs>
       <path id="mba713d2f38" d="M 0 0 
L -3.5 0 
" style="stroke: #000000; stroke-width: 0.8"/>
      </defs>
      <g>
       <use xlink:href="#mba713d2f38" x="44.7425" y="113.617334" style="stroke: #000000; stroke-width: 0.8"/>
      </g>
     </g>
     <g id="text_4">
      <!-- $\mathdefault{10^{-1}}$ -->
      <g transform="translate(18.9425 116.656709) scale(0.08 -0.08)">
       <use xlink:href="#DejaVuSans-31" transform="translate(0 0.684375)"/>
       <use xlink:href="#DejaVuSans-30" transform="translate(63.623047 0.684375)"/>
       <use xlink:href="#DejaVuSans-2212" transform="translate(128.203125 38.965625) scale(0.7)"/>
       <use xlink:href="#DejaVuSans-31" transform="translate(186.855469 38.965625) scale(0.7)"/>
      </g>
     </g>
    </g>
    <g id="ytick_2">
     <g id="line2d_35">
      <path d="M 44.7425 65.043806 
L 242.2745 65.043806 
" clip-path="url(#p977c7812ad)" style="fill: none; stroke: #d9d9d9; stroke-width: 0.8; stroke-linecap: square"/>
     </g>
     <g id="line2d_36">
      <g>
       <use xlink:href="#mba713d2f38" x="44.7425" y="65.043806" style="stroke: #000000; stroke-width: 0.8"/>
      </g>
     </g>
     <g id="text_5">
      <!-- $\mathdefault{10^{0}}$ -->
      <g transform="translate(23.6625 68.083181) scale(0.08 -0.08)">
       <use xlink:href="#DejaVuSans-31" transform="translate(0 0.765625)"/>
       <use xlink:href="#DejaVuSans-30" transform="translate(63.623047 0.765625)"/>
       <use xlink:href="#DejaVuSans-30" transform="translate(128.203125 39.046875) scale(0.7)"/>
      </g>
     </g>
    </g>
    <g id="ytick_3">
     <g id="line2d_37">
      <path d="M 44.7425 16.470278 
L 242.2745 16.470278 
" clip-path="url(#p977c7812ad)" style="fill: none; stroke: #d9d9d9; stroke-width: 0.8; stroke-linecap: square"/>
     </g>
     <g id="line2d_38">
      <g>
       <use xlink:href="#mba713d2f38" x="44.7425" y="16.470278" style="stroke: #000000; stroke-width: 0.8"/>
      </g>
     </g>
     <g id="text_6">
      <!-- $\mathdefault{10^{1}}$ -->
      <g transform="translate(23.6625 19.509653) scale(0.08 -0.08)">
       <use xlink:href="#DejaVuSans-31" transform="translate(0 0.684375)"/>
       <use xlink:href="#DejaVuSans-30" transform="translate(63.623047 0.684375)"/>
       <use xlink:href="#DejaVuSans-31" transform="translate(128.203125 38.965625) scale(0.7)"/>
      </g>
     </g>
    </g>
    <g id="ytick_4">
     <g id="line2d_39">
      <path d="M 44.7425 132.946685 
L 242.2745 132.946685 
" clip-path="url(#p977c7812ad)" style="fill: none; stroke-dasharray: 2.96,1.28; stroke-dashoffset: 0; stroke: #f2f2f2; stroke-width: 0.8"/>
     </g>
     <g id="line2d_40">
      <defs>
       <path id="mf9f7fd9e28" d="M 0 0 
L -2 0 
" style="stroke: #000000; stroke-width: 0.6"/>
      </defs>
      <g>
       <use xlink:href="#mf9f7fd9e28" x="44.7425" y="132.946685" style="stroke: #000000; stroke-width: 0.6"/>
      </g>
     </g>
    </g>
    <g id="ytick_5">
     <g id="line2d_41">
      <path d="M 44.7425 128.239424 
L 242.2745 128.239424 
" clip-path="url(#p977c7812ad)" style="fill: none; stroke-dasharray: 2.96,1.28; stroke-dashoffset: 0; stroke: #f2f2f2; stroke-width: 0.8"/>
     </g>
     <g id="line2d_42">
      <g>
       <use xlink:href="#mf9f7fd9e28" x="44.7425" y="128.239424" style="stroke: #000000; stroke-width: 0.6"/>
      </g>
     </g>
    </g>
    <g id="ytick_6">
     <g id="line2d_43">
      <path d="M 44.7425 124.393311 
L 242.2745 124.393311 
" clip-path="url(#p977c7812ad)" style="fill: none; stroke-dasharray: 2.96,1.28; stroke-dashoffset: 0; stroke: #f2f2f2; stroke-width: 0.8"/>
     </g>
     <g id="line2d_44">
      <g>
       <use xlink:href="#mf9f7fd9e28" x="44.7425" y="124.393311" style="stroke: #000000; stroke-width: 0.6"/>
      </g>
     </g>
    </g>
    <g id="ytick_7">
     <g id="line2d_45">
      <path d="M 44.7425 121.141469 
L 242.2745 121.141469 
" clip-path="url(#p977c7812ad)" style="fill: none; stroke-dasharray: 2.96,1.28; stroke-dashoffset: 0; stroke: #f2f2f2; stroke-width: 0.8"/>
     </g>
     <g id="line2d_46">
      <g>
       <use xlink:href="#mf9f7fd9e28" x="44.7425" y="121.141469" style="stroke: #000000; stroke-width: 0.6"/>
      </g>
     </g>
    </g>
    <g id="ytick_8">
     <g id="line2d_47">
      <path d="M 44.7425 118.324596 
L 242.2745 118.324596 
" clip-path="url(#p977c7812ad)" style="fill: none; stroke-dasharray: 2.96,1.28; stroke-dashoffset: 0; stroke: #f2f2f2; stroke-width: 0.8"/>
     </g>
     <g id="line2d_48">
      <g>
       <use xlink:href="#mf9f7fd9e28" x="44.7425" y="118.324596" style="stroke: #000000; stroke-width: 0.6"/>
      </g>
     </g>
    </g>
    <g id="ytick_9">
     <g id="line2d_49">
      <path d="M 44.7425 115.839937 
L 242.2745 115.839937 
" clip-path="url(#p977c7812ad)" style="fill: none; stroke-dasharray: 2.96,1.28; stroke-dashoffset: 0; stroke: #f2f2f2; stroke-width: 0.8"/>
     </g>
     <g id="line2d_50">
      <g>
       <use xlink:href="#mf9f7fd9e28" x="44.7425" y="115.839937" style="stroke: #000000; stroke-width: 0.6"/>
      </g>
     </g>
    </g>
    <g id="ytick_10">
     <g id="line2d_51">
      <path d="M 44.7425 98.995245 
L 242.2745 98.995245 
" clip-path="url(#p977c7812ad)" style="fill: none; stroke-dasharray: 2.96,1.28; stroke-dashoffset: 0; stroke: #f2f2f2; stroke-width: 0.8"/>
     </g>
     <g id="line2d_52">
      <g>
       <use xlink:href="#mf9f7fd9e28" x="44.7425" y="98.995245" style="stroke: #000000; stroke-width: 0.6"/>
      </g>
     </g>
    </g>
    <g id="ytick_11">
     <g id="line2d_53">
      <path d="M 44.7425 90.441872 
L 242.2745 90.441872 
" clip-path="url(#p977c7812ad)" style="fill: none; stroke-dasharray: 2.96,1.28; stroke-dashoffset: 0; stroke: #f2f2f2; stroke-width: 0.8"/>
     </g>
     <g id="line2d_54">
      <g>
       <use xlink:href="#mf9f7fd9e28" x="44.7425" y="90.441872" style="stroke: #000000; stroke-width: 0.6"/>
      </g>
     </g>
    </g>
    <g id="ytick_12">
     <g id="line2d_55">
      <path d="M 44.7425 84.373156 
L 242.2745 84.373156 
" clip-path="url(#p977c7812ad)" style="fill: none; stroke-dasharray: 2.96,1.28; stroke-dashoffset: 0; stroke: #f2f2f2; stroke-width: 0.8"/>
     </g>
     <g id="line2d_56">
      <g>
       <use xlink:href="#mf9f7fd9e28" x="44.7425" y="84.373156" style="stroke: #000000; stroke-width: 0.6"/>
      </g>
     </g>
    </g>
    <g id="ytick_13">
     <g id="line2d_57">
      <path d="M 44.7425 79.665895 
L 242.2745 79.665895 
" clip-path="url(#p977c7812ad)" style="fill: none; stroke-dasharray: 2.96,1.28; stroke-dashoffset: 0; stroke: #f2f2f2; stroke-width: 0.8"/>
     </g>
     <g id="line2d_58">
      <g>
       <use xlink:href="#mf9f7fd9e28" x="44.7425" y="79.665895" style="stroke: #000000; stroke-width: 0.6"/>
      </g>
     </g>
    </g>
    <g id="ytick_14">
     <g id="line2d_59">
      <path d="M 44.7425 75.819783 
L 242.2745 75.819783 
" clip-path="url(#p977c7812ad)" style="fill: none; stroke-dasharray: 2.96,1.28; stroke-dashoffset: 0; stroke: #f2f2f2; stroke-width: 0.8"/>
     </g>
     <g id="line2d_60">
      <g>
       <use xlink:href="#mf9f7fd9e28" x="44.7425" y="75.819783" style="stroke: #000000; stroke-width: 0.6"/>
      </g>
     </g>
    </g>
    <g id="ytick_15">
     <g id="line2d_61">
      <path d="M 44.7425 72.567941 
L 242.2745 72.567941 
" clip-path="url(#p977c7812ad)" style="fill: none; stroke-dasharray: 2.96,1.28; stroke-dashoffset: 0; stroke: #f2f2f2; stroke-width: 0.8"/>
     </g>
     <g id="line2d_62">
      <g>
       <use xlink:href="#mf9f7fd9e28" x="44.7425" y="72.567941" style="stroke: #000000; stroke-width: 0.6"/>
      </g>
     </g>
    </g>
    <g id="ytick_16">
     <g id="line2d_63">
      <path d="M 44.7425 69.751067 
L 242.2745 69.751067 
" clip-path="url(#p977c7812ad)" style="fill: none; stroke-dasharray: 2.96,1.28; stroke-dashoffset: 0; stroke: #f2f2f2; stroke-width: 0.8"/>
     </g>
     <g id="line2d_64">
      <g>
       <use xlink:href="#mf9f7fd9e28" x="44.7425" y="69.751067" style="stroke: #000000; stroke-width: 0.6"/>
      </g>
     </g>
    </g>
    <g id="ytick_17">
     <g id="line2d_65">
      <path d="M 44.7425 67.266409 
L 242.2745 67.266409 
" clip-path="url(#p977c7812ad)" style="fill: none; stroke-dasharray: 2.96,1.28; stroke-dashoffset: 0; stroke: #f2f2f2; stroke-width: 0.8"/>
     </g>
     <g id="line2d_66">
      <g>
       <use xlink:href="#mf9f7fd9e28" x="44.7425" y="67.266409" style="stroke: #000000; stroke-width: 0.6"/>
      </g>
     </g>
    </g>
    <g id="ytick_18">
     <g id="line2d_67">
      <path d="M 44.7425 50.421717 
L 242.2745 50.421717 
" clip-path="url(#p977c7812ad)" style="fill: none; stroke-dasharray: 2.96,1.28; stroke-dashoffset: 0; stroke: #f2f2f2; stroke-width: 0.8"/>
     </g>
     <g id="line2d_68">
      <g>
       <use xlink:href="#mf9f7fd9e28" x="44.7425" y="50.421717" style="stroke: #000000; stroke-width: 0.6"/>
      </g>
     </g>
    </g>
    <g id="ytick_19">
     <g id="line2d_69">
      <path d="M 44.7425 41.868343 
L 242.2745 41.868343 
" clip-path="url(#p977c7812ad)" style="fill: none; stroke-dasharray: 2.96,1.28; stroke-dashoffset: 0; stroke: #f2f2f2; stroke-width: 0.8"/>
     </g>
     <g id="line2d_70">
      <g>
       <use xlink:href="#mf9f7fd9e28" x="44.7425" y="41.868343" style="stroke: #000000; stroke-width: 0.6"/>
      </g>
     </g>
    </g>
    <g id="ytick_20">
     <g id="line2d_71">
      <path d="M 44.7425 35.799628 
L 242.2745 35.799628 
" clip-path="url(#p977c7812ad)" style="fill: none; stroke-dasharray: 2.96,1.28; stroke-dashoffset: 0; stroke: #f2f2f2; stroke-width: 0.8"/>
     </g>
     <g id="line2d_72">
      <g>
       <use xlink:href="#mf9f7fd9e28" x="44.7425" y="35.799628" style="stroke: #000000; stroke-width: 0.6"/>
      </g>
     </g>
    </g>
    <g id="ytick_21">
     <g id="line2d_73">
      <path d="M 44.7425 31.092367 
L 242.2745 31.092367 
" clip-path="url(#p977c7812ad)" style="fill: none; stroke-dasharray: 2.96,1.28; stroke-dashoffset: 0; stroke: #f2f2f2; stroke-width: 0.8"/>
     </g>
     <g id="line2d_74">
      <g>
       <use xlink:href="#mf9f7fd9e28" x="44.7425" y="31.092367" style="stroke: #000000; stroke-width: 0.6"/>
      </g>
     </g>
    </g>
    <g id="ytick_22">
     <g id="line2d_75">
      <path d="M 44.7425 27.246254 
L 242.2745 27.246254 
" clip-path="url(#p977c7812ad)" style="fill: none; stroke-dasharray: 2.96,1.28; stroke-dashoffset: 0; stroke: #f2f2f2; stroke-width: 0.8"/>
     </g>
     <g id="line2d_76">
      <g>
       <use xlink:href="#mf9f7fd9e28" x="44.7425" y="27.246254" style="stroke: #000000; stroke-width: 0.6"/>
      </g>
     </g>
    </g>
    <g id="ytick_23">
     <g id="line2d_77">
      <path d="M 44.7425 23.994412 
L 242.2745 23.994412 
" clip-path="url(#p977c7812ad)" style="fill: none; stroke-dasharray: 2.96,1.28; stroke-dashoffset: 0; stroke: #f2f2f2; stroke-width: 0.8"/>
     </g>
     <g id="line2d_78">
      <g>
       <use xlink:href="#mf9f7fd9e28" x="44.7425" y="23.994412" style="stroke: #000000; stroke-width: 0.6"/>
      </g>
     </g>
    </g>
    <g id="ytick_24">
     <g id="line2d_79">
      <path d="M 44.7425 21.177539 
L 242.2745 21.177539 
" clip-path="url(#p977c7812ad)" style="fill: none; stroke-dasharray: 2.96,1.28; stroke-dashoffset: 0; stroke: #f2f2f2; stroke-width: 0.8"/>
     </g>
     <g id="line2d_80">
      <g>
       <use xlink:href="#mf9f7fd9e28" x="44.7425" y="21.177539" style="stroke: #000000; stroke-width: 0.6"/>
      </g>
     </g>
    </g>
    <g id="ytick_25">
     <g id="line2d_81">
      <path d="M 44.7425 18.69288 
L 242.2745 18.69288 
" clip-path="url(#p977c7812ad)" style="fill: none; stroke-dasharray: 2.96,1.28; stroke-dashoffset: 0; stroke: #f2f2f2; stroke-width: 0.8"/>
     </g>
     <g id="line2d_82">
      <g>
       <use xlink:href="#mf9f7fd9e28" x="44.7425" y="18.69288" style="stroke: #000000; stroke-width: 0.6"/>
      </g>
     </g>
    </g>
    <g id="text_7">
     <!-- Spectral acceleration, SA (g) -->
     <g transform="translate(13.27875 129.871075) rotate(-90) scale(0.08 -0.08)">
      <defs>
       <path id="DejaVuSans-53" d="M 3425 4513 
L 3425 3897 
Q 3066 4069 2747 4153 
Q 2428 4238 2131 4238 
Q 1616 4238 1336 4038 
Q 1056 3838 1056 3469 
Q 1056 3159 1242 3001 
Q 1428 2844 1947 2747 
L 2328 2669 
Q 3034 2534 3370 2195 
Q 3706 1856 3706 1288 
Q 3706 609 3251 259 
Q 2797 -91 1919 -91 
Q 1588 -91 1214 -16 
Q 841 59 441 206 
L 441 856 
Q 825 641 1194 531 
Q 1563 422 1919 422 
Q 2459 422 2753 634 
Q 3047 847 3047 1241 
Q 3047 1584 2836 1778 
Q 2625 1972 2144 2069 
L 1759 2144 
Q 1053 2284 737 2584 
Q 422 2884 422 3419 
Q 422 4038 858 4394 
Q 1294 4750 2059 4750 
Q 2388 4750 2728 4690 
Q 3069 4631 3425 4513 
z
" transform="scale(0.015625)"/>
       <path id="DejaVuSans-70" d="M 1159 525 
L 1159 -1331 
L 581 -1331 
L 581 3500 
L 1159 3500 
L 1159 2969 
Q 1341 3281 1617 3432 
Q 1894 3584 2278 3584 
Q 2916 3584 3314 3078 
Q 3713 2572 3713 1747 
Q 3713 922 3314 415 
Q 2916 -91 2278 -91 
Q 1894 -91 1617 61 
Q 1341 213 1159 525 
z
M 3116 1747 
Q 3116 2381 2855 2742 
Q 2594 3103 2138 3103 
Q 1681 3103 1420 2742 
Q 1159 2381 1159 1747 
Q 1159 1113 1420 752 
Q 1681 391 2138 391 
Q 2594 391 2855 752 
Q 3116 1113 3116 1747 
z
" transform="scale(0.015625)"/>
       <path id="DejaVuSans-63" d="M 3122 3366 
L 3122 2828 
Q 2878 2963 2633 3030 
Q 2388 3097 2138 3097 
Q 1578 3097 1268 2742 
Q 959 2388 959 1747 
Q 959 1106 1268 751 
Q 1578 397 2138 397 
Q 2388 397 2633 464 
Q 2878 531 3122 666 
L 3122 134 
Q 2881 22 2623 -34 
Q 2366 -91 2075 -91 
Q 1284 -91 818 406 
Q 353 903 353 1747 
Q 353 2603 823 3093 
Q 1294 3584 2113 3584 
Q 2378 3584 2631 3529 
Q 2884 3475 3122 3366 
z
" transform="scale(0.015625)"/>
       <path id="DejaVuSans-74" d="M 1172 4494 
L 1172 3500 
L 2356 3500 
L 2356 3053 
L 1172 3053 
L 1172 1153 
Q 1172 725 1289 603 
Q 1406 481 1766 481 
L 2356 481 
L 2356 0 
L 1766 0 
Q 1100 0 847 248 
Q 594 497 594 1153 
L 594 3053 
L 172 3053 
L 172 3500 
L 594 3500 
L 594 4494 
L 1172 4494 
z
" transform="scale(0.015625)"/>
       <path id="DejaVuSans-61" d="M 2194 1759 
Q 1497 1759 1228 1600 
Q 959 1441 959 1056 
Q 959 750 1161 570 
Q 1363 391 1709 391 
Q 2188 391 2477 730 
Q 2766 1069 2766 1631 
L 2766 1759 
L 2194 1759 
z
M 3341 1997 
L 3341 0 
L 2766 0 
L 2766 531 
Q 2569 213 2275 61 
Q 1981 -91 1556 -91 
Q 1019 -91 701 211 
Q 384 513 384 1019 
Q 384 1609 779 1909 
Q 1175 2209 1959 2209 
L 2766 2209 
L 2766 2266 
Q 2766 2663 2505 2880 
Q 2244 3097 1772 3097 
Q 1472 3097 1187 3025 
Q 903 2953 641 2809 
L 641 3341 
Q 956 3463 1253 3523 
Q 1550 3584 1831 3584 
Q 2591 3584 2966 3190 
Q 3341 2797 3341 1997 
z
" transform="scale(0.015625)"/>
       <path id="DejaVuSans-6c" d="M 603 4863 
L 1178 4863 
L 1178 0 
L 603 0 
L 603 4863 
z
" transform="scale(0.015625)"/>
       <path id="DejaVuSans-6e" d="M 3513 2113 
L 3513 0 
L 2938 0 
L 2938 2094 
Q 2938 2591 2744 2837 
Q 2550 3084 2163 3084 
Q 1697 3084 1428 2787 
Q 1159 2491 1159 1978 
L 1159 0 
L 581 0 
L 581 3500 
L 1159 3500 
L 1159 2956 
Q 1366 3272 1645 3428 
Q 1925 3584 2291 3584 
Q 2894 3584 3203 3211 
Q 3513 2838 3513 2113 
z
" transform="scale(0.015625)"/>
       <path id="DejaVuSans-41" d="M 2188 4044 
L 1331 1722 
L 3047 1722 
L 2188 4044 
z
M 1831 4666 
L 2547 4666 
L 4325 0 
L 3669 0 
L 3244 1197 
L 1141 1197 
L 716 0 
L 50 0 
L 1831 4666 
z
" transform="scale(0.015625)"/>
       <path id="DejaVuSans-67" d="M 2906 1791 
Q 2906 2416 2648 2759 
Q 2391 3103 1925 3103 
Q 1463 3103 1205 2759 
Q 947 2416 947 1791 
Q 947 1169 1205 825 
Q 1463 481 1925 481 
Q 2391 481 2648 825 
Q 2906 1169 2906 1791 
z
M 3481 434 
Q 3481 -459 3084 -895 
Q 2688 -1331 1869 -1331 
Q 1566 -1331 1297 -1286 
Q 1028 -1241 775 -1147 
L 775 -588 
Q 1028 -725 1275 -790 
Q 1522 -856 1778 -856 
Q 2344 -856 2625 -561 
Q 2906 -266 2906 331 
L 2906 616 
Q 2728 306 2450 153 
Q 2172 0 1784 0 
Q 1141 0 747 490 
Q 353 981 353 1791 
Q 353 2603 747 3093 
Q 1141 3584 1784 3584 
Q 2172 3584 2450 3431 
Q 2728 3278 2906 2969 
L 2906 3500 
L 3481 3500 
L 3481 434 
z
" transform="scale(0.015625)"/>
      </defs>
      <use xlink:href="#DejaVuSans-53"/>
      <use xlink:href="#DejaVuSans-70" x="63.476562"/>
      <use xlink:href="#DejaVuSans-65" x="126.953125"/>
      <use xlink:href="#DejaVuSans-63" x="188.476562"/>
      <use xlink:href="#DejaVuSans-74" x="243.457031"/>
      <use xlink:href="#DejaVuSans-72" x="282.666016"/>
      <use xlink:href="#DejaVuSans-61" x="323.779297"/>
      <use xlink:href="#DejaVuSans-6c" x="385.058594"/>
      <use xlink:href="#DejaVuSans-20" x="412.841797"/>
      <use xlink:href="#DejaVuSans-61" x="444.628906"/>
      <use xlink:href="#DejaVuSans-63" x="505.908203"/>
      <use xlink:href="#DejaVuSans-63" x="560.888672"/>
      <use xlink:href="#DejaVuSans-65" x="615.869141"/>
      <use xlink:href="#DejaVuSans-6c" x="677.392578"/>
      <use xlink:href="#DejaVuSans-65" x="705.175781"/>
      <use xlink:href="#DejaVuSans-72" x="766.699219"/>
      <use xlink:href="#DejaVuSans-61" x="807.8125"/>
      <use xlink:href="#DejaVuSans-74" x="869.091797"/>
      <use xlink:href="#DejaVuSans-69" x="908.300781"/>
      <use xlink:href="#DejaVuSans-6f" x="936.083984"/>
      <use xlink:href="#DejaVuSans-6e" x="997.265625"/>
      <use xlink:href="#DejaVuSans-2c" x="1060.644531"/>
      <use xlink:href="#DejaVuSans-20" x="1092.431641"/>
      <use xlink:href="#DejaVuSans-53" x="1124.21875"/>
      <use xlink:href="#DejaVuSans-41" x="1189.570312"/>
      <use xlink:href="#DejaVuSans-20" x="1257.978516"/>
      <use xlink:href="#DejaVuSans-28" x="1289.765625"/>
      <use xlink:href="#DejaVuSans-67" x="1328.779297"/>
      <use xlink:href="#DejaVuSans-29" x="1392.255859"/>
     </g>
    </g>
   </g>
   <g id="line2d_83">
    <path d="M 53.721227 61.698369 
L 72.333391 61.381083 
L 85.538931 60.855538 
L 95.781944 55.519808 
L 104.151095 57.026514 
L 117.356635 56.696683 
L 125.630055 42.294524 
L 127.599648 40.003898 
L 146.211812 65.937883 
L 159.417352 81.840709 
L 171.460723 86.252775 
L 178.029516 93.199954 
L 191.235056 115.780061 
L 209.84722 117.207585 
L 223.05276 113.779407 
L 233.295773 117.373545 
" clip-path="url(#p977c7812ad)" style="fill: none; stroke: #b2b2b2; stroke-width: 0.8; stroke-linecap: square"/>
   </g>
   <g id="line2d_84">
    <path d="M 53.721227 65.003797 
L 72.333391 61.768191 
L 85.538931 53.386271 
L 95.781944 57.155774 
L 104.151095 48.678535 
L 117.356635 52.277541 
L 125.630055 42.294524 
L 127.599648 40.362755 
L 146.211812 49.994455 
L 159.417352 46.458995 
L 171.460723 45.305773 
L 178.029516 46.479358 
L 191.235056 74.590516 
L 209.84722 86.134696 
L 223.05276 89.250347 
L 233.295773 106.546429 
" clip-path="url(#p977c7812ad)" style="fill: none; stroke: #b2b2b2; stroke-width: 0.8; stroke-linecap: square"/>
   </g>
   <g id="line2d_85">
    <path d="M 53.721227 50.734299 
L 72.333391 41.044735 
L 85.538931 35.315029 
L 95.781944 34.030397 
L 104.151095 40.498026 
L 117.356635 36.180104 
L 125.630055 42.294524 
L 127.599648 48.344898 
L 146.211812 57.786655 
L 159.417352 64.874772 
L 171.460723 73.840104 
L 178.029516 83.219766 
L 191.235056 92.34974 
L 209.84722 95.807289 
L 223.05276 97.512183 
L 233.295773 106.007405 
" clip-path="url(#p977c7812ad)" style="fill: none; stroke: #b2b2b2; stroke-width: 0.8; stroke-linecap: square"/>
   </g>
   <g id="line2d_86">
    <path d="M 53.721227 62.38683 
L 72.333391 55.734329 
L 85.538931 51.43077 
L 95.781944 46.518347 
L 104.151095 35.95722 
L 117.356635 38.050101 
L 125.630055 42.294524 
L 127.599648 45.349327 
L 146.211812 50.77896 
L 159.417352 54.19085 
L 171.460723 57.741874 
L 178.029516 58.211633 
L 191.235056 60.199431 
L 209.84722 72.53491 
L 223.05276 87.293862 
L 233.295773 101.31075 
" clip-path="url(#p977c7812ad)" style="fill: none; stroke: #b2b2b2; stroke-width: 0.8; stroke-linecap: square"/>
   </g>
   <g id="line2d_87">
    <path d="M 53.721227 62.657494 
L 72.333391 57.198642 
L 85.538931 51.488106 
L 95.781944 45.872796 
L 104.151095 41.425366 
L 117.356635 45.6831 
L 125.630055 42.294524 
L 127.599648 46.270515 
L 146.211812 55.418322 
L 159.417352 64.479801 
L 171.460723 68.600226 
L 178.029516 75.096807 
L 191.235056 70.672137 
L 209.84722 79.074588 
L 223.05276 90.762459 
L 233.295773 104.285196 
" clip-path="url(#p977c7812ad)" style="fill: none; stroke: #b2b2b2; stroke-width: 0.8; stroke-linecap: square"/>
   </g>
   <g id="line2d_88">
    <path d="M 53.721227 32.899261 
L 72.333391 25.018142 
L 85.538931 23.301035 
L 95.781944 33.885473 
L 104.151095 33.163243 
L 117.356635 37.049979 
L 125.630055 42.294524 
L 127.599648 39.964702 
L 146.211812 67.579859 
L 159.417352 67.385784 
L 171.460723 83.648525 
L 178.029516 95.042702 
L 191.235056 85.988149 
L 209.84722 85.989698 
L 223.05276 91.789212 
L 233.295773 100.129788 
" clip-path="url(#p977c7812ad)" style="fill: none; stroke: #b2b2b2; stroke-width: 0.8; stroke-linecap: square"/>
   </g>
   <g id="line2d_89">
    <path d="M 53.721227 15.724719 
L 72.333391 18.320047 
L 85.538931 13.1472 
L 95.781944 30.827619 
L 104.151095 31.077132 
L 117.356635 38.392539 
L 125.630055 42.294524 
L 127.599648 46.382431 
L 146.211812 51.958817 
L 159.417352 54.061085 
L 171.460723 66.4013 
L 178.029516 68.020152 
L 191.235056 87.537462 
L 209.84722 86.052466 
L 223.05276 94.897028 
L 233.295773 111.499877 
" clip-path="url(#p977c7812ad)" style="fill: none; stroke: #b2b2b2; stroke-width: 0.8; stroke-linecap: square"/>
   </g>
   <g id="line2d_90">
    <path d="M 53.721227 50.215725 
L 72.333391 47.381645 
L 85.538931 46.890969 
L 95.781944 40.636897 
L 104.151095 45.436688 
L 117.356635 39.664761 
L 125.630055 42.294524 
L 127.599648 42.2725 
L 146.211812 49.463183 
L 159.417352 57.792497 
L 171.460723 69.079442 
L 178.029516 77.095354 
L 191.235056 80.340412 
L 209.84722 100.117554 
L 223.05276 113.952121 
L 233.295773 113.448934 
" clip-path="url(#p977c7812ad)" style="fill: none; stroke: #b2b2b2; stroke-width: 0.8; stroke-linecap: square"/>
   </g>
   <g id="line2d_91">
    <path d="M 53.721227 58.158321 
L 72.333391 56.837549 
L 85.538931 52.444759 
L 95.781944 55.069012 
L 104.151095 44.17353 
L 117.356635 37.889133 
L 125.630055 42.294524 
L 127.599648 40.657074 
L 146.211812 47.156589 
L 159.417352 50.544763 
L 171.460723 66.261178 
L 178.029516 67.252935 
L 191.235056 75.652352 
L 209.84722 64.581175 
L 223.05276 85.990339 
L 233.295773 100.027884 
" clip-path="url(#p977c7812ad)" style="fill: none; stroke: #b2b2b2; stroke-width: 0.8; stroke-linecap: square"/>
   </g>
   <g id="line2d_92">
    <path d="M 53.721227 60.596825 
L 72.333391 48.943224 
L 85.538931 51.008121 
L 95.781944 39.27459 
L 104.151095 34.973606 
L 117.356635 38.08003 
L 125.630055 42.294524 
L 127.599648 45.062107 
L 146.211812 65.038397 
L 159.417352 66.871397 
L 171.460723 74.907332 
L 178.029516 73.530605 
L 191.235056 85.886731 
L 209.84722 97.883585 
L 223.05276 96.829353 
L 233.295773 104.942142 
" clip-path="url(#p977c7812ad)" style="fill: none; stroke: #b2b2b2; stroke-width: 0.8; stroke-linecap: square"/>
   </g>
   <g id="line2d_93">
    <path d="M 53.721227 52.871418 
L 72.333391 45.02456 
L 85.538931 45.368953 
L 95.781944 49.503666 
L 104.151095 44.695655 
L 117.356635 44.420124 
L 125.630055 42.294524 
L 127.599648 40.507621 
L 146.211812 49.716866 
L 159.417352 61.041801 
L 171.460723 69.627827 
L 178.029516 68.251618 
L 191.235056 75.664272 
L 209.84722 99.50974 
L 223.05276 108.834444 
L 233.295773 106.849491 
" clip-path="url(#p977c7812ad)" style="fill: none; stroke: #b2b2b2; stroke-width: 0.8; stroke-linecap: square"/>
   </g>
   <g id="line2d_94">
    <path d="M 53.721227 47.88618 
L 72.333391 39.455109 
L 85.538931 43.611766 
L 95.781944 39.400136 
L 104.151095 43.947329 
L 117.356635 37.220601 
L 125.630055 42.294524 
L 127.599648 42.561357 
L 146.211812 54.165138 
L 159.417352 58.329874 
L 171.460723 53.456024 
L 178.029516 58.794992 
L 191.235056 76.329717 
L 209.84722 95.037485 
L 223.05276 102.965921 
L 233.295773 100.856074 
" clip-path="url(#p977c7812ad)" style="fill: none; stroke: #b2b2b2; stroke-width: 0.8; stroke-linecap: square"/>
   </g>
   <g id="line2d_95">
    <path d="M 53.721227 48.540684 
L 72.333391 53.086971 
L 85.538931 41.688855 
L 95.781944 40.037428 
L 104.151095 37.525991 
L 117.356635 36.657219 
L 125.630055 42.294524 
L 127.599648 42.550712 
L 146.211812 63.632741 
L 159.417352 69.089326 
L 171.460723 85.937126 
L 178.029516 76.396981 
L 191.235056 84.702596 
L 209.84722 103.767351 
L 223.05276 109.825215 
L 233.295773 122.919812 
" clip-path="url(#p977c7812ad)" style="fill: none; stroke: #b2b2b2; stroke-width: 0.8; stroke-linecap: square"/>
   </g>
   <g id="line2d_96">
    <path d="M 53.721227 66.683512 
L 72.333391 60.14704 
L 85.538931 53.714441 
L 95.781944 54.257331 
L 104.151095 48.612803 
L 117.356635 48.092935 
L 125.630055 42.294524 
L 127.599648 43.861773 
L 146.211812 58.570185 
L 159.417352 71.019075 
L 171.460723 78.998437 
L 178.029516 76.674119 
L 191.235056 75.628321 
L 209.84722 87.304539 
L 223.05276 96.469158 
L 233.295773 98.54687 
" clip-path="url(#p977c7812ad)" style="fill: none; stroke: #b2b2b2; stroke-width: 0.8; stroke-linecap: square"/>
   </g>
   <g id="line2d_97">
    <path d="M 53.721227 73.15775 
L 72.333391 63.278955 
L 85.538931 59.873498 
L 95.781944 64.291642 
L 104.151095 58.667047 
L 117.356635 45.216309 
L 125.630055 42.294524 
L 127.599648 43.221452 
L 146.211812 48.801815 
L 159.417352 56.167488 
L 171.460723 59.641105 
L 178.029516 60.071081 
L 191.235056 75.848777 
L 209.84722 82.937547 
L 223.05276 93.639666 
L 233.295773 102.079492 
" clip-path="url(#p977c7812ad)" style="fill: none; stroke: #b2b2b2; stroke-width: 0.8; stroke-linecap: square"/>
   </g>
   <g id="line2d_98">
    <path d="M 53.721227 62.197237 
L 72.333391 55.475431 
L 85.538931 54.517087 
L 95.781944 47.792525 
L 104.151095 47.088616 
L 117.356635 40.853755 
L 125.630055 42.294524 
L 127.599648 43.881061 
L 146.211812 54.932481 
L 159.417352 59.161837 
L 171.460723 61.446768 
L 178.029516 64.649885 
L 191.235056 78.055705 
L 209.84722 97.227831 
L 223.05276 114.125859 
L 233.295773 122.780516 
" clip-path="url(#p977c7812ad)" style="fill: none; stroke: #b2b2b2; stroke-width: 0.8; stroke-linecap: square"/>
   </g>
   <g id="line2d_99">
    <path d="M 53.721227 58.221395 
L 72.333391 53.372742 
L 85.538931 44.725744 
L 95.781944 50.139936 
L 104.151095 48.858922 
L 117.356635 42.843871 
L 125.630055 42.294524 
L 127.599648 40.705039 
L 146.211812 43.819714 
L 159.417352 50.323895 
L 171.460723 38.590127 
L 178.029516 47.434221 
L 191.235056 50.139608 
L 209.84722 83.42977 
L 223.05276 91.380566 
L 233.295773 104.888788 
" clip-path="url(#p977c7812ad)" style="fill: none; stroke: #b2b2b2; stroke-width: 0.8; stroke-linecap: square"/>
   </g>
   <g id="line2d_100">
    <path d="M 53.721227 55.904952 
L 72.333391 46.165017 
L 85.538931 47.730982 
L 95.781944 47.577045 
L 104.151095 39.292155 
L 117.356635 36.572731 
L 125.630055 42.294524 
L 127.599648 43.718741 
L 146.211812 65.367373 
L 159.417352 55.990602 
L 171.460723 72.862384 
L 178.029516 74.401731 
L 191.235056 80.962201 
L 209.84722 85.888917 
L 223.05276 102.399158 
L 233.295773 99.628218 
" clip-path="url(#p977c7812ad)" style="fill: none; stroke: #b2b2b2; stroke-width: 0.8; stroke-linecap: square"/>
   </g>
   <g id="line2d_101">
    <path d="M 53.721227 48.474007 
L 72.333391 39.336949 
L 85.538931 37.567516 
L 95.781944 28.356654 
L 104.151095 31.849585 
L 117.356635 39.441397 
L 125.630055 42.294524 
L 127.599648 42.009601 
L 146.211812 51.971049 
L 159.417352 68.102746 
L 171.460723 64.288764 
L 178.029516 73.415684 
L 191.235056 81.074324 
L 209.84722 88.711293 
L 223.05276 92.572347 
L 233.295773 95.851543 
" clip-path="url(#p977c7812ad)" style="fill: none; stroke: #b2b2b2; stroke-width: 0.8; stroke-linecap: square"/>
   </g>
   <g id="line2d_102">
    <path d="M 53.721227 45.885348 
L 72.333391 36.314148 
L 85.538931 39.563346 
L 95.781944 41.919128 
L 104.151095 39.506361 
L 117.356635 39.74745 
L 125.630055 42.294524 
L 127.599648 44.684452 
L 146.211812 35.454401 
L 159.417352 44.939941 
L 171.460723 50.298596 
L 178.029516 53.480986 
L 191.235056 64.786752 
L 209.84722 83.28437 
L 223.05276 96.157335 
L 233.295773 101.426516 
" clip-path="url(#p977c7812ad)" style="fill: none; stroke: #b2b2b2; stroke-width: 0.8; stroke-linecap: square"/>
   </g>
   <g id="line2d_103">
    <path d="M 53.721227 57.747925 
L 72.333391 43.026811 
L 85.538931 50.88017 
L 95.781944 49.111596 
L 104.151095 48.72528 
L 117.356635 44.822159 
L 125.630055 42.294524 
L 127.599648 39.656164 
L 146.211812 43.330157 
L 159.417352 53.728579 
L 171.460723 53.001237 
L 178.029516 61.503366 
L 191.235056 71.582281 
L 209.84722 80.692564 
L 223.05276 92.810901 
L 233.295773 111.475791 
" clip-path="url(#p977c7812ad)" style="fill: none; stroke: #b2b2b2; stroke-width: 0.8; stroke-linecap: square"/>
   </g>
   <g id="line2d_104">
    <path d="M 53.721227 58.368777 
L 72.333391 57.487974 
L 85.538931 53.091392 
L 95.781944 51.777193 
L 104.151095 54.502099 
L 117.356635 49.825467 
L 125.630055 42.294524 
L 127.599648 39.48788 
L 146.211812 35.981448 
L 159.417352 38.652829 
L 171.460723 57.05675 
L 178.029516 62.397176 
L 191.235056 72.881154 
L 209.84722 86.704326 
L 223.05276 107.066823 
L 233.295773 98.276275 
" clip-path="url(#p977c7812ad)" style="fill: none; stroke: #b2b2b2; stroke-width: 0.8; stroke-linecap: square"/>
   </g>
   <g id="line2d_105">
    <path d="M 53.721227 58.544873 
L 72.333391 57.830412 
L 85.538931 50.807337 
L 95.781944 46.59241 
L 104.151095 45.008457 
L 117.356635 45.195179 
L 125.630055 42.294524 
L 127.599648 45.210563 
L 146.211812 44.77759 
L 159.417352 56.618518 
L 171.460723 57.101117 
L 178.029516 69.026221 
L 191.235056 76.084419 
L 209.84722 77.881894 
L 223.05276 86.181256 
L 233.295773 100.144964 
" clip-path="url(#p977c7812ad)" style="fill: none; stroke: #b2b2b2; stroke-width: 0.8; stroke-linecap: square"/>
   </g>
   <g id="line2d_106">
    <path d="M 53.721227 36.993634 
L 72.333391 33.703608 
L 85.538931 27.579401 
L 95.781944 21.538465 
L 104.151095 26.737466 
L 117.356635 36.288225 
L 125.630055 42.294524 
L 127.599648 47.44407 
L 146.211812 57.749267 
L 159.417352 59.219379 
L 171.460723 64.482137 
L 178.029516 70.06901 
L 191.235056 84.526226 
L 209.84722 101.846445 
L 223.05276 105.38778 
L 233.295773 118.317191 
" clip-path="url(#p977c7812ad)" style="fill: none; stroke: #b2b2b2; stroke-width: 0.8; stroke-linecap: square"/>
   </g>
   <g id="line2d_107">
    <path d="M 53.721227 57.473149 
L 72.333391 53.034586 
L 85.538931 45.690946 
L 95.781944 44.373469 
L 104.151095 43.632089 
L 117.356635 38.061848 
L 125.630055 42.294524 
L 127.599648 41.500077 
L 146.211812 51.77021 
L 159.417352 64.17626 
L 171.460723 69.489921 
L 178.029516 71.91785 
L 191.235056 74.845913 
L 209.84722 92.248009 
L 223.05276 109.968268 
L 233.295773 106.047234 
" clip-path="url(#p977c7812ad)" style="fill: none; stroke: #b2b2b2; stroke-width: 0.8; stroke-linecap: square"/>
   </g>
   <g id="line2d_108">
    <path d="M 53.721227 68.3896 
L 72.333391 63.380439 
L 85.538931 62.472846 
L 95.781944 51.16001 
L 104.151095 50.128136 
L 117.356635 50.726837 
L 125.630055 42.294524 
L 127.599648 40.542446 
L 146.211812 52.556532 
L 159.417352 69.40297 
L 171.460723 66.878728 
L 178.029516 76.590415 
L 191.235056 87.086308 
L 209.84722 105.701277 
L 223.05276 126.196476 
L 233.295773 130.402029 
" clip-path="url(#p977c7812ad)" style="fill: none; stroke: #b2b2b2; stroke-width: 0.8; stroke-linecap: square"/>
   </g>
   <g id="line2d_109">
    <path d="M 53.721227 54.059063 
L 72.333391 50.155152 
L 85.538931 57.873037 
L 95.781944 57.023213 
L 104.151095 41.656864 
L 117.356635 46.316374 
L 125.630055 42.294524 
L 127.599648 44.098397 
L 146.211812 48.048593 
L 159.417352 47.148885 
L 171.460723 61.126186 
L 178.029516 63.924458 
L 191.235056 79.019878 
L 209.84722 80.866279 
L 223.05276 89.086676 
L 233.295773 97.08072 
" clip-path="url(#p977c7812ad)" style="fill: none; stroke: #b2b2b2; stroke-width: 0.8; stroke-linecap: square"/>
   </g>
   <g id="line2d_110">
    <path d="M 53.721227 61.222877 
L 72.333391 55.364182 
L 85.538931 51.576711 
L 95.781944 55.841663 
L 104.151095 54.399424 
L 117.356635 44.453776 
L 125.630055 42.294524 
L 127.599648 43.813377 
L 146.211812 50.312995 
L 159.417352 57.090133 
L 171.460723 58.492273 
L 178.029516 64.570054 
L 191.235056 75.053481 
L 209.84722 88.290864 
L 223.05276 102.410205 
L 233.295773 116.534457 
" clip-path="url(#p977c7812ad)" style="fill: none; stroke: #b2b2b2; stroke-width: 0.8; stroke-linecap: square"/>
   </g>
   <g id="line2d_111">
    <path d="M 53.721227 49.245749 
L 72.333391 52.4976 
L 85.538931 47.161911 
L 95.781944 46.119073 
L 104.151095 43.270097 
L 117.356635 39.649103 
L 125.630055 42.294524 
L 127.599648 43.817387 
L 146.211812 64.722889 
L 159.417352 77.995059 
L 171.460723 74.97072 
L 178.029516 79.500182 
L 191.235056 99.90061 
L 209.84722 112.489586 
L 223.05276 123.935857 
L 233.295773 132.0912 
" clip-path="url(#p977c7812ad)" style="fill: none; stroke: #b2b2b2; stroke-width: 0.8; stroke-linecap: square"/>
   </g>
   <g id="line2d_112">
    <path d="M 53.721227 49.150949 
L 72.333391 39.959036 
L 85.538931 39.944009 
L 95.781944 37.202674 
L 104.151095 47.768301 
L 117.356635 44.17082 
L 125.630055 42.294524 
L 127.599648 42.615826 
L 146.211812 57.068169 
L 159.417352 54.987663 
L 171.460723 65.385995 
L 178.029516 64.39861 
L 191.235056 68.310553 
L 209.84722 85.515223 
L 223.05276 96.681213 
L 233.295773 109.380755 
" clip-path="url(#p977c7812ad)" style="fill: none; stroke: #b2b2b2; stroke-width: 0.8; stroke-linecap: square"/>
   </g>
   <g id="line2d_113">
    <path d="M 53.721227 57.177986 
L 72.333391 45.046825 
L 85.538931 43.915102 
L 95.781944 47.276764 
L 104.151095 37.128649 
L 117.356635 47.376289 
L 125.630055 42.294524 
L 127.599648 43.803537 
L 146.211812 47.436568 
L 159.417352 37.086149 
L 171.460723 47.884651 
L 178.029516 51.354322 
L 191.235056 62.948046 
L 209.84722 68.954388 
L 223.05276 68.587217 
L 233.295773 71.713848 
" clip-path="url(#p977c7812ad)" style="fill: none; stroke: #b2b2b2; stroke-width: 0.8; stroke-linecap: square"/>
   </g>
   <g id="line2d_114">
    <path d="M 53.721227 47.203356 
L 72.333391 53.427759 
L 85.538931 45.059572 
L 95.781944 41.526144 
L 104.151095 46.393193 
L 117.356635 42.57491 
L 125.630055 42.294524 
L 127.599648 45.100152 
L 146.211812 57.660667 
L 159.417352 70.896571 
L 171.460723 79.556357 
L 178.029516 83.365623 
L 191.235056 93.837963 
L 209.84722 96.335188 
L 223.05276 106.320381 
L 233.295773 110.849286 
" clip-path="url(#p977c7812ad)" style="fill: none; stroke: #b2b2b2; stroke-width: 0.8; stroke-linecap: square"/>
   </g>
   <g id="line2d_115">
    <path d="M 53.721227 48.494713 
L 72.333391 44.981345 
L 85.538931 48.160021 
L 95.781944 37.518556 
L 104.151095 42.299289 
L 117.356635 45.056266 
L 125.630055 42.294524 
L 127.599648 41.422918 
L 146.211812 46.572139 
L 159.417352 45.177746 
L 171.460723 62.184536 
L 178.029516 61.942971 
L 191.235056 61.359728 
L 209.84722 59.409638 
L 223.05276 81.193838 
L 233.295773 92.594966 
" clip-path="url(#p977c7812ad)" style="fill: none; stroke: #b2b2b2; stroke-width: 0.8; stroke-linecap: square"/>
   </g>
   <g id="line2d_116">
    <path d="M 53.721227 48.066075 
L 72.333391 46.513183 
L 85.538931 42.043936 
L 95.781944 41.346033 
L 104.151095 42.354468 
L 117.356635 41.302743 
L 125.630055 42.294524 
L 127.599648 47.048303 
L 146.211812 47.338181 
L 159.417352 57.055175 
L 171.460723 67.742645 
L 178.029516 70.655836 
L 191.235056 70.091282 
L 209.84722 87.373562 
L 223.05276 92.630037 
L 233.295773 100.185052 
" clip-path="url(#p977c7812ad)" style="fill: none; stroke: #b2b2b2; stroke-width: 0.8; stroke-linecap: square"/>
   </g>
   <g id="line2d_117">
    <path d="M 53.721227 37.675281 
L 72.333391 42.724369 
L 85.538931 45.305014 
L 95.781944 39.961788 
L 104.151095 37.862531 
L 117.356635 39.398625 
L 125.630055 42.294524 
L 127.599648 43.132914 
L 146.211812 56.159037 
L 159.417352 65.634307 
L 171.460723 75.635802 
L 178.029516 80.048347 
L 191.235056 81.419131 
L 209.84722 90.66521 
L 223.05276 84.124259 
L 233.295773 87.678351 
" clip-path="url(#p977c7812ad)" style="fill: none; stroke: #b2b2b2; stroke-width: 0.8; stroke-linecap: square"/>
   </g>
   <g id="line2d_118">
    <path d="M 53.721227 31.999262 
L 72.333391 31.431628 
L 85.538931 29.478065 
L 95.781944 34.003538 
L 104.151095 33.956205 
L 117.356635 42.479304 
L 125.630055 42.294524 
L 127.599648 42.524438 
L 146.211812 39.340699 
L 159.417352 49.636121 
L 171.460723 62.662076 
L 178.029516 62.009256 
L 191.235056 72.372248 
L 209.84722 84.651829 
L 223.05276 90.852054 
L 233.295773 109.680413 
" clip-path="url(#p977c7812ad)" style="fill: none; stroke: #b2b2b2; stroke-width: 0.8; stroke-linecap: square"/>
   </g>
   <g id="line2d_119">
    <path d="M 53.721227 68.168765 
L 72.333391 60.414342 
L 85.538931 53.119473 
L 95.781944 51.973286 
L 104.151095 52.37848 
L 117.356635 42.230324 
L 125.630055 42.294524 
L 127.599648 40.50208 
L 146.211812 51.000736 
L 159.417352 63.245522 
L 171.460723 65.06042 
L 178.029516 67.190955 
L 191.235056 71.733672 
L 209.84722 83.644509 
L 223.05276 93.780072 
L 233.295773 104.999342 
" clip-path="url(#p977c7812ad)" style="fill: none; stroke: #b2b2b2; stroke-width: 0.8; stroke-linecap: square"/>
   </g>
   <g id="line2d_120">
    <path d="M 53.721227 38.532386 
L 72.333391 27.972234 
L 85.538931 30.094787 
L 95.781944 37.183284 
L 104.151095 32.179654 
L 117.356635 33.720064 
L 125.630055 42.294524 
L 127.599648 39.620417 
L 146.211812 48.624284 
L 159.417352 59.922971 
L 171.460723 66.845442 
L 178.029516 67.645662 
L 191.235056 69.897628 
L 209.84722 93.043493 
L 223.05276 102.885827 
L 233.295773 111.567431 
" clip-path="url(#p977c7812ad)" style="fill: none; stroke: #b2b2b2; stroke-width: 0.8; stroke-linecap: square"/>
   </g>
   <g id="line2d_121">
    <path d="M 53.721227 57.312148 
L 72.333391 53.112744 
L 85.538931 49.237597 
L 95.781944 49.483685 
L 104.151095 38.994232 
L 117.356635 43.20117 
L 125.630055 42.294524 
L 127.599648 43.165548 
L 146.211812 53.068004 
L 159.417352 51.277978 
L 171.460723 72.067004 
L 178.029516 71.938599 
L 191.235056 81.211728 
L 209.84722 80.042039 
L 223.05276 88.302766 
L 233.295773 102.926404 
" clip-path="url(#p977c7812ad)" style="fill: none; stroke: #b2b2b2; stroke-width: 0.8; stroke-linecap: square"/>
   </g>
   <g id="line2d_122">
    <path d="M 53.721227 46.103382 
L 72.333391 31.191349 
L 85.538931 32.414374 
L 95.781944 36.203627 
L 104.151095 44.738814 
L 117.356635 42.407919 
L 125.630055 42.294524 
L 127.599648 42.131969 
L 146.211812 53.168401 
L 159.417352 62.422288 
L 171.460723 75.055051 
L 178.029516 81.876562 
L 191.235056 84.691118 
L 209.84722 106.129362 
L 223.05276 99.215126 
L 233.295773 116.830641 
" clip-path="url(#p977c7812ad)" style="fill: none; stroke: #b2b2b2; stroke-width: 0.8; stroke-linecap: square"/>
   </g>
   <g id="line2d_123">
    <path d="M 53.721227 62.374737 
L 72.333391 57.099616 
L 85.538931 51.889675 
L 95.781944 50.804475 
L 104.151095 51.611965 
L 117.356635 44.588934 
L 125.630055 42.294524 
L 127.599648 38.510011 
L 146.211812 44.971578 
L 159.417352 61.232815 
L 171.460723 60.826273 
L 178.029516 59.298279 
L 191.235056 72.154387 
L 209.84722 98.852455 
L 223.05276 107.76064 
L 233.295773 124.850121 
" clip-path="url(#p977c7812ad)" style="fill: none; stroke: #b2b2b2; stroke-width: 0.8; stroke-linecap: square"/>
   </g>
   <g id="line2d_124">
    <path d="M 53.721227 34.636969 
L 72.333391 30.61378 
L 85.538931 30.843942 
L 95.781944 30.378869 
L 104.151095 32.56688 
L 117.356635 36.761466 
L 125.630055 42.294524 
L 127.599648 41.809709 
L 146.211812 54.139979 
L 159.417352 68.059307 
L 171.460723 67.899864 
L 178.029516 79.569804 
L 191.235056 88.265846 
L 209.84722 96.659073 
L 223.05276 112.164786 
L 233.295773 131.131276 
" clip-path="url(#p977c7812ad)" style="fill: none; stroke: #b2b2b2; stroke-width: 0.8; stroke-linecap: square"/>
   </g>
   <g id="line2d_125">
    <path d="M 53.721227 60.028075 
L 72.333391 54.281142 
L 85.538931 52.067847 
L 95.781944 43.550952 
L 104.151095 44.427241 
L 117.356635 45.038721 
L 125.630055 42.294524 
L 127.599648 40.993109 
L 146.211812 47.001129 
L 159.417352 57.517301 
L 171.460723 67.649777 
L 178.029516 65.635692 
L 191.235056 78.988999 
L 209.84722 82.700911 
L 223.05276 107.550635 
L 233.295773 117.992256 
" clip-path="url(#p977c7812ad)" style="fill: none; stroke: #b2b2b2; stroke-width: 0.8; stroke-linecap: square"/>
   </g>
   <g id="line2d_126">
    <path d="M 53.721227 54.162959 
L 72.333391 49.473232 
L 85.538931 48.770772 
L 95.781944 40.032711 
L 104.151095 33.804034 
L 117.356635 40.485556 
L 125.630055 42.294524 
L 127.599648 45.5388 
L 146.211812 53.582555 
L 159.417352 59.599491 
L 171.460723 67.048929 
L 178.029516 73.97329 
L 191.235056 81.470029 
L 209.84722 103.020368 
L 223.05276 99.65223 
L 233.295773 100.227489 
" clip-path="url(#p977c7812ad)" style="fill: none; stroke: #b2b2b2; stroke-width: 0.8; stroke-linecap: square"/>
   </g>
   <g id="line2d_127">
    <path d="M 53.721227 52.693558 
L 72.333391 45.821578 
L 85.538931 40.309793 
L 95.781944 41.07427 
L 104.151095 33.665177 
L 117.356635 35.142519 
L 125.630055 42.294524 
L 127.599648 46.347592 
L 146.211812 63.671168 
L 159.417352 59.408032 
L 171.460723 63.180363 
L 178.029516 62.7706 
L 191.235056 59.18357 
L 209.84722 72.408093 
L 223.05276 80.880932 
L 233.295773 93.011197 
" clip-path="url(#p977c7812ad)" style="fill: none; stroke: #b2b2b2; stroke-width: 0.8; stroke-linecap: square"/>
   </g>
   <g id="line2d_128">
    <path d="M 53.721227 42.057878 
L 72.333391 29.329155 
L 85.538931 31.488422 
L 95.781944 35.294416 
L 104.151095 39.514484 
L 117.356635 44.5458 
L 125.630055 42.294524 
L 127.599648 41.862182 
L 146.211812 41.279401 
L 159.417352 40.045666 
L 171.460723 47.73345 
L 178.029516 54.246732 
L 191.235056 65.736533 
L 209.84722 88.18987 
L 223.05276 104.954414 
L 233.295773 114.041051 
" clip-path="url(#p977c7812ad)" style="fill: none; stroke: #b2b2b2; stroke-width: 0.8; stroke-linecap: square"/>
   </g>
   <g id="line2d_129">
    <path d="M 53.721227 40.828674 
L 72.333391 38.967185 
L 85.538931 35.329539 
L 95.781944 36.952935 
L 104.151095 36.400828 
L 117.356635 40.506621 
L 125.630055 42.294524 
L 127.599648 43.980705 
L 146.211812 51.581526 
L 159.417352 61.037948 
L 171.460723 52.691889 
L 178.029516 58.256388 
L 191.235056 72.174443 
L 209.84722 83.220904 
L 223.05276 102.682365 
L 233.295773 101.251427 
" clip-path="url(#p977c7812ad)" style="fill: none; stroke: #b2b2b2; stroke-width: 0.8; stroke-linecap: square"/>
   </g>
   <g id="line2d_130">
    <path d="M 53.721227 60.433056 
L 72.333391 60.60733 
L 85.538931 54.280241 
L 95.781944 55.112677 
L 104.151095 54.450566 
L 117.356635 43.677689 
L 125.630055 42.294524 
L 127.599648 43.568997 
L 146.211812 55.056284 
L 159.417352 62.459587 
L 171.460723 61.02178 
L 178.029516 55.87179 
L 191.235056 71.169958 
L 209.84722 89.7575 
L 223.05276 97.773218 
L 233.295773 115.610111 
" clip-path="url(#p977c7812ad)" style="fill: none; stroke: #b2b2b2; stroke-width: 0.8; stroke-linecap: square"/>
   </g>
   <g id="line2d_131">
    <path d="M 53.721227 53.541743 
L 72.333391 57.1786 
L 85.538931 50.302795 
L 95.781944 56.426276 
L 104.151095 54.232468 
L 117.356635 48.429399 
L 125.630055 42.294524 
L 127.599648 41.769128 
L 146.211812 50.241729 
L 159.417352 63.23777 
L 171.460723 73.568055 
L 178.029516 75.411313 
L 191.235056 89.340205 
L 209.84722 100.077334 
L 223.05276 115.462773 
L 233.295773 126.415263 
" clip-path="url(#p977c7812ad)" style="fill: none; stroke: #b2b2b2; stroke-width: 0.8; stroke-linecap: square"/>
   </g>
   <g id="line2d_132">
    <path d="M 53.721227 45.941336 
L 72.333391 46.102611 
L 85.538931 37.701668 
L 95.781944 30.01838 
L 104.151095 38.718269 
L 117.356635 37.979715 
L 125.630055 42.294524 
L 127.599648 40.976353 
L 146.211812 42.046088 
L 159.417352 53.093765 
L 171.460723 57.152568 
L 178.029516 60.479432 
L 191.235056 71.15554 
L 209.84722 88.912095 
L 223.05276 94.411362 
L 233.295773 97.742335 
" clip-path="url(#p977c7812ad)" style="fill: none; stroke: #b2b2b2; stroke-width: 0.8; stroke-linecap: square"/>
   </g>
   <g id="line2d_133">
    <path d="M 53.721227 52.472761 
L 72.333391 47.655628 
L 85.538931 45.010379 
L 95.781944 43.8767 
L 104.151095 42.762727 
L 117.356635 42.352142 
L 125.630055 42.294524 
L 127.599648 42.988762 
L 146.211812 51.645544 
L 159.417352 58.34158 
L 171.460723 64.596671 
L 178.029516 68.366979 
L 191.235056 77.230296 
L 209.84722 89.130289 
L 223.05276 98.752744 
L 233.295773 107.234114 
" clip-path="url(#p977c7812ad)" style="fill: none; stroke: #ff0000; stroke-width: 2; stroke-linecap: square"/>
   </g>
   <g id="line2d_134">
    <path d="M 53.721227 30.544467 
L 72.333391 25.626134 
L 85.538931 25.07319 
L 95.781944 26.064537 
L 104.151095 27.490744 
L 117.356635 33.013136 
L 125.630055 42.294523 
L 127.599648 38.160411 
L 146.211812 36.833865 
L 159.417352 40.029602 
L 171.460723 44.174431 
L 178.029516 47.319585 
L 191.235056 55.592784 
L 209.84722 66.511392 
L 223.05276 76.154797 
L 233.295773 83.879293 
" clip-path="url(#p977c7812ad)" style="fill: none; stroke-dasharray: 7.4,3.2; stroke-dashoffset: 0; stroke: #ff0000; stroke-width: 2"/>
   </g>
   <g id="line2d_135">
    <path d="M 53.721227 74.401055 
L 72.333391 69.685121 
L 85.538931 64.947567 
L 95.781944 61.688863 
L 104.151095 58.034711 
L 117.356635 51.691149 
L 125.630055 42.294524 
L 127.599648 47.817112 
L 146.211812 66.457224 
L 159.417352 76.653558 
L 171.460723 85.018911 
L 178.029516 89.414373 
L 191.235056 98.867808 
L 209.84722 111.749186 
L 223.05276 121.350691 
L 233.295773 130.588935 
" clip-path="url(#p977c7812ad)" style="fill: none; stroke-dasharray: 7.4,3.2; stroke-dashoffset: 0; stroke: #ff0000; stroke-width: 2"/>
   </g>
   <g id="line2d_136">
    <path d="M 53.721227 52.370541 
L 72.333391 47.560286 
L 85.538931 44.930407 
L 95.781944 43.978573 
L 104.151095 42.719199 
L 117.356635 42.148884 
L 125.630055 42.294524 
L 127.599648 42.887341 
L 146.211812 51.956058 
L 159.417352 58.59468 
L 171.460723 64.972754 
L 178.029516 68.363187 
L 191.235056 77.213643 
L 209.84722 89.175333 
L 223.05276 98.826727 
L 233.295773 107.448963 
" clip-path="url(#p977c7812ad)" style="fill: none; stroke: #0000ff; stroke-width: 2; stroke-linecap: square"/>
   </g>
   <g id="line2d_137">
    <path d="M 53.721227 30.604238 
L 72.333391 25.698371 
L 85.538931 24.815531 
L 95.781944 26.105658 
L 104.151095 27.718733 
L 117.356635 32.66966 
L 125.630055 42.294524 
L 127.599648 38.309379 
L 146.211812 37.0477 
L 159.417352 40.108156 
L 171.460723 44.694399 
L 178.029516 47.515843 
L 191.235056 55.363978 
L 209.84722 66.437822 
L 223.05276 76.414757 
L 233.295773 84.280136 
" clip-path="url(#p977c7812ad)" style="fill: none; stroke-dasharray: 7.4,3.2; stroke-dashoffset: 0; stroke: #0000ff; stroke-width: 2"/>
   </g>
   <g id="line2d_138">
    <path d="M 53.721227 74.136844 
L 72.333391 69.422202 
L 85.538931 65.045284 
L 95.781944 61.851487 
L 104.151095 57.719665 
L 117.356635 51.628107 
L 125.630055 42.294524 
L 127.599648 47.465303 
L 146.211812 66.864415 
L 159.417352 77.081205 
L 171.460723 85.251108 
L 178.029516 89.210531 
L 191.235056 99.063307 
L 209.84722 111.912845 
L 223.05276 121.238698 
L 233.295773 130.61779 
" clip-path="url(#p977c7812ad)" style="fill: none; stroke-dasharray: 7.4,3.2; stroke-dashoffset: 0; stroke: #0000ff; stroke-width: 2"/>
   </g>
   <g id="patch_3">
    <path d="M 44.7425 138.0384 
L 44.7425 7.2 
" style="fill: none; stroke: #000000; stroke-width: 0.8; stroke-linejoin: miter; stroke-linecap: square"/>
   </g>
   <g id="patch_4">
    <path d="M 242.2745 138.0384 
L 242.2745 7.2 
" style="fill: none; stroke: #000000; stroke-width: 0.8; stroke-linejoin: miter; stroke-linecap: square"/>
   </g>
   <g id="patch_5">
    <path d="M 44.7425 138.0384 
L 242.2745 138.0384 
" style="fill: none; stroke: #000000; stroke-width: 0.8; stroke-linejoin: miter; stroke-linecap: square"/>
   </g>
   <g id="patch_6">
    <path d="M 44.7425 7.2 
L 242.2745 7.2 
" style="fill: none; stroke: #000000; stroke-width: 0.8; stroke-linejoin: miter; stroke-linecap: square"/>
   </g>
   <g id="legend_1">
    <g id="patch_7">
     <path d="M 247.8745 104.47295 
L 432.5945 104.47295 
Q 434.1945 104.47295 434.1945 102.87295 
L 434.1945 42.36545 
Q 434.1945 40.76545 432.5945 40.76545 
L 247.8745 40.76545 
Q 246.2745 40.76545 246.2745 42.36545 
L 246.2745 102.87295 
Q 246.2745 104.47295 247.8745 104.47295 
z
" style="fill: #ffffff; opacity: 0.8; stroke: #cccccc; stroke-linejoin: miter"/>
    </g>
    <g id="line2d_139">
     <path d="M 249.4745 47.2442 
L 257.4745 47.2442 
L 265.4745 47.2442 
" style="fill: none; stroke: #b2b2b2; stroke-width: 0.8; stroke-linecap: square"/>
    </g>
    <g id="text_8">
     <!-- Individual selected GMs -->
     <g transform="translate(271.8745 50.0442) scale(0.08 -0.08)">
      <defs>
       <path id="DejaVuSans-49" d="M 628 4666 
L 1259 4666 
L 1259 0 
L 628 0 
L 628 4666 
z
" transform="scale(0.015625)"/>
       <path id="DejaVuSans-76" d="M 191 3500 
L 800 3500 
L 1894 563 
L 2988 3500 
L 3597 3500 
L 2284 0 
L 1503 0 
L 191 3500 
z
" transform="scale(0.015625)"/>
       <path id="DejaVuSans-75" d="M 544 1381 
L 544 3500 
L 1119 3500 
L 1119 1403 
Q 1119 906 1312 657 
Q 1506 409 1894 409 
Q 2359 409 2629 706 
Q 2900 1003 2900 1516 
L 2900 3500 
L 3475 3500 
L 3475 0 
L 2900 0 
L 2900 538 
Q 2691 219 2414 64 
Q 2138 -91 1772 -91 
Q 1169 -91 856 284 
Q 544 659 544 1381 
z
M 1991 3584 
L 1991 3584 
z
" transform="scale(0.015625)"/>
       <path id="DejaVuSans-47" d="M 3809 666 
L 3809 1919 
L 2778 1919 
L 2778 2438 
L 4434 2438 
L 4434 434 
Q 4069 175 3628 42 
Q 3188 -91 2688 -91 
Q 1594 -91 976 548 
Q 359 1188 359 2328 
Q 359 3472 976 4111 
Q 1594 4750 2688 4750 
Q 3144 4750 3555 4637 
Q 3966 4525 4313 4306 
L 4313 3634 
Q 3963 3931 3569 4081 
Q 3175 4231 2741 4231 
Q 1884 4231 1454 3753 
Q 1025 3275 1025 2328 
Q 1025 1384 1454 906 
Q 1884 428 2741 428 
Q 3075 428 3337 486 
Q 3600 544 3809 666 
z
" transform="scale(0.015625)"/>
       <path id="DejaVuSans-4d" d="M 628 4666 
L 1569 4666 
L 2759 1491 
L 3956 4666 
L 4897 4666 
L 4897 0 
L 4281 0 
L 4281 4097 
L 3078 897 
L 2444 897 
L 1241 4097 
L 1241 0 
L 628 0 
L 628 4666 
z
" transform="scale(0.015625)"/>
      </defs>
      <use xlink:href="#DejaVuSans-49"/>
      <use xlink:href="#DejaVuSans-6e" x="29.492188"/>
      <use xlink:href="#DejaVuSans-64" x="92.871094"/>
      <use xlink:href="#DejaVuSans-69" x="156.347656"/>
      <use xlink:href="#DejaVuSans-76" x="184.130859"/>
      <use xlink:href="#DejaVuSans-69" x="243.310547"/>
      <use xlink:href="#DejaVuSans-64" x="271.09375"/>
      <use xlink:href="#DejaVuSans-75" x="334.570312"/>
      <use xlink:href="#DejaVuSans-61" x="397.949219"/>
      <use xlink:href="#DejaVuSans-6c" x="459.228516"/>
      <use xlink:href="#DejaVuSans-20" x="487.011719"/>
      <use xlink:href="#DejaVuSans-73" x="518.798828"/>
      <use xlink:href="#DejaVuSans-65" x="570.898438"/>
      <use xlink:href="#DejaVuSans-6c" x="632.421875"/>
      <use xlink:href="#DejaVuSans-65" x="660.205078"/>
      <use xlink:href="#DejaVuSans-63" x="721.728516"/>
      <use xlink:href="#DejaVuSans-74" x="776.708984"/>
      <use xlink:href="#DejaVuSans-65" x="815.917969"/>
      <use xlink:href="#DejaVuSans-64" x="877.441406"/>
      <use xlink:href="#DejaVuSans-20" x="940.917969"/>
      <use xlink:href="#DejaVuSans-47" x="972.705078"/>
      <use xlink:href="#DejaVuSans-4d" x="1050.195312"/>
      <use xlink:href="#DejaVuSans-73" x="1136.474609"/>
     </g>
    </g>
    <g id="line2d_140">
     <path d="M 249.4745 58.9867 
L 257.4745 58.9867 
L 265.4745 58.9867 
" style="fill: none; stroke: #ff0000; stroke-width: 2; stroke-linecap: square"/>
    </g>
    <g id="text_9">
     <!-- GCIM median -->
     <g transform="translate(271.8745 61.7867) scale(0.08 -0.08)">
      <defs>
       <path id="DejaVuSans-43" d="M 4122 4306 
L 4122 3641 
Q 3803 3938 3442 4084 
Q 3081 4231 2675 4231 
Q 1875 4231 1450 3742 
Q 1025 3253 1025 2328 
Q 1025 1406 1450 917 
Q 1875 428 2675 428 
Q 3081 428 3442 575 
Q 3803 722 4122 1019 
L 4122 359 
Q 3791 134 3420 21 
Q 3050 -91 2638 -91 
Q 1578 -91 968 557 
Q 359 1206 359 2328 
Q 359 3453 968 4101 
Q 1578 4750 2638 4750 
Q 3056 4750 3426 4639 
Q 3797 4528 4122 4306 
z
" transform="scale(0.015625)"/>
       <path id="DejaVuSans-6d" d="M 3328 2828 
Q 3544 3216 3844 3400 
Q 4144 3584 4550 3584 
Q 5097 3584 5394 3201 
Q 5691 2819 5691 2113 
L 5691 0 
L 5113 0 
L 5113 2094 
Q 5113 2597 4934 2840 
Q 4756 3084 4391 3084 
Q 3944 3084 3684 2787 
Q 3425 2491 3425 1978 
L 3425 0 
L 2847 0 
L 2847 2094 
Q 2847 2600 2669 2842 
Q 2491 3084 2119 3084 
Q 1678 3084 1418 2786 
Q 1159 2488 1159 1978 
L 1159 0 
L 581 0 
L 581 3500 
L 1159 3500 
L 1159 2956 
Q 1356 3278 1631 3431 
Q 1906 3584 2284 3584 
Q 2666 3584 2933 3390 
Q 3200 3197 3328 2828 
z
" transform="scale(0.015625)"/>
      </defs>
      <use xlink:href="#DejaVuSans-47"/>
      <use xlink:href="#DejaVuSans-43" x="77.490234"/>
      <use xlink:href="#DejaVuSans-49" x="147.314453"/>
      <use xlink:href="#DejaVuSans-4d" x="176.806641"/>
      <use xlink:href="#DejaVuSans-20" x="263.085938"/>
      <use xlink:href="#DejaVuSans-6d" x="294.873047"/>
      <use xlink:href="#DejaVuSans-65" x="392.285156"/>
      <use xlink:href="#DejaVuSans-64" x="453.808594"/>
      <use xlink:href="#DejaVuSans-69" x="517.285156"/>
      <use xlink:href="#DejaVuSans-61" x="545.068359"/>
      <use xlink:href="#DejaVuSans-6e" x="606.347656"/>
     </g>
    </g>
    <g id="line2d_141">
     <path d="M 249.4745 72.01045 
L 257.4745 72.01045 
L 265.4745 72.01045 
" style="fill: none; stroke-dasharray: 7.4,3.2; stroke-dashoffset: 0; stroke: #ff0000; stroke-width: 2"/>
    </g>
    <g id="text_10">
     <!-- GCIM $16^{th}$ and $84^{th}$ percentiles -->
     <g transform="translate(271.8745 74.81045) scale(0.08 -0.08)">
      <defs>
       <path id="DejaVuSans-36" d="M 2113 2584 
Q 1688 2584 1439 2293 
Q 1191 2003 1191 1497 
Q 1191 994 1439 701 
Q 1688 409 2113 409 
Q 2538 409 2786 701 
Q 3034 994 3034 1497 
Q 3034 2003 2786 2293 
Q 2538 2584 2113 2584 
z
M 3366 4563 
L 3366 3988 
Q 3128 4100 2886 4159 
Q 2644 4219 2406 4219 
Q 1781 4219 1451 3797 
Q 1122 3375 1075 2522 
Q 1259 2794 1537 2939 
Q 1816 3084 2150 3084 
Q 2853 3084 3261 2657 
Q 3669 2231 3669 1497 
Q 3669 778 3244 343 
Q 2819 -91 2113 -91 
Q 1303 -91 875 529 
Q 447 1150 447 2328 
Q 447 3434 972 4092 
Q 1497 4750 2381 4750 
Q 2619 4750 2861 4703 
Q 3103 4656 3366 4563 
z
" transform="scale(0.015625)"/>
       <path id="DejaVuSans-Oblique-74" d="M 2706 3500 
L 2619 3053 
L 1472 3053 
L 1100 1153 
Q 1081 1047 1072 975 
Q 1063 903 1063 863 
Q 1063 663 1183 572 
Q 1303 481 1569 481 
L 2150 481 
L 2053 0 
L 1503 0 
Q 991 0 739 200 
Q 488 400 488 806 
Q 488 878 497 964 
Q 506 1050 525 1153 
L 897 3053 
L 409 3053 
L 500 3500 
L 978 3500 
L 1172 4494 
L 1747 4494 
L 1556 3500 
L 2706 3500 
z
" transform="scale(0.015625)"/>
       <path id="DejaVuSans-Oblique-68" d="M 3566 2113 
L 3156 0 
L 2578 0 
L 2988 2091 
Q 3016 2238 3031 2350 
Q 3047 2463 3047 2528 
Q 3047 2791 2881 2937 
Q 2716 3084 2419 3084 
Q 1956 3084 1617 2771 
Q 1278 2459 1178 1941 
L 800 0 
L 225 0 
L 1172 4863 
L 1747 4863 
L 1375 2950 
Q 1594 3244 1934 3414 
Q 2275 3584 2650 3584 
Q 3113 3584 3367 3334 
Q 3622 3084 3622 2631 
Q 3622 2519 3608 2391 
Q 3594 2263 3566 2113 
z
" transform="scale(0.015625)"/>
       <path id="DejaVuSans-38" d="M 2034 2216 
Q 1584 2216 1326 1975 
Q 1069 1734 1069 1313 
Q 1069 891 1326 650 
Q 1584 409 2034 409 
Q 2484 409 2743 651 
Q 3003 894 3003 1313 
Q 3003 1734 2745 1975 
Q 2488 2216 2034 2216 
z
M 1403 2484 
Q 997 2584 770 2862 
Q 544 3141 544 3541 
Q 544 4100 942 4425 
Q 1341 4750 2034 4750 
Q 2731 4750 3128 4425 
Q 3525 4100 3525 3541 
Q 3525 3141 3298 2862 
Q 3072 2584 2669 2484 
Q 3125 2378 3379 2068 
Q 3634 1759 3634 1313 
Q 3634 634 3220 271 
Q 2806 -91 2034 -91 
Q 1263 -91 848 271 
Q 434 634 434 1313 
Q 434 1759 690 2068 
Q 947 2378 1403 2484 
z
M 1172 3481 
Q 1172 3119 1398 2916 
Q 1625 2713 2034 2713 
Q 2441 2713 2670 2916 
Q 2900 3119 2900 3481 
Q 2900 3844 2670 4047 
Q 2441 4250 2034 4250 
Q 1625 4250 1398 4047 
Q 1172 3844 1172 3481 
z
" transform="scale(0.015625)"/>
       <path id="DejaVuSans-34" d="M 2419 4116 
L 825 1625 
L 2419 1625 
L 2419 4116 
z
M 2253 4666 
L 3047 4666 
L 3047 1625 
L 3713 1625 
L 3713 1100 
L 3047 1100 
L 3047 0 
L 2419 0 
L 2419 1100 
L 313 1100 
L 313 1709 
L 2253 4666 
z
" transform="scale(0.015625)"/>
      </defs>
      <use xlink:href="#DejaVuSans-47" transform="translate(0 0.529687)"/>
      <use xlink:href="#DejaVuSans-43" transform="translate(77.490234 0.529687)"/>
      <use xlink:href="#DejaVuSans-49" transform="translate(147.314453 0.529687)"/>
      <use xlink:href="#DejaVuSans-4d" transform="translate(176.806641 0.529687)"/>
      <use xlink:href="#DejaVuSans-20" transform="translate(263.085938 0.529687)"/>
      <use xlink:href="#DejaVuSans-31" transform="translate(294.873047 0.529687)"/>
      <use xlink:href="#DejaVuSans-36" transform="translate(358.496094 0.529687)"/>
      <use xlink:href="#DejaVuSans-Oblique-74" transform="translate(423.076172 38.810937) scale(0.7)"/>
      <use xlink:href="#DejaVuSans-Oblique-68" transform="translate(450.522461 38.810937) scale(0.7)"/>
      <use xlink:href="#DejaVuSans-20" transform="translate(497.62207 0.529687)"/>
      <use xlink:href="#DejaVuSans-61" transform="translate(529.40918 0.529687)"/>
      <use xlink:href="#DejaVuSans-6e" transform="translate(590.688477 0.529687)"/>
      <use xlink:href="#DejaVuSans-64" transform="translate(654.067383 0.529687)"/>
      <use xlink:href="#DejaVuSans-20" transform="translate(717.543945 0.529687)"/>
      <use xlink:href="#DejaVuSans-38" transform="translate(749.331055 0.529687)"/>
      <use xlink:href="#DejaVuSans-34" transform="translate(812.954102 0.529687)"/>
      <use xlink:href="#DejaVuSans-Oblique-74" transform="translate(877.53418 38.810937) scale(0.7)"/>
      <use xlink:href="#DejaVuSans-Oblique-68" transform="translate(904.980469 38.810937) scale(0.7)"/>
      <use xlink:href="#DejaVuSans-20" transform="translate(952.080078 0.529687)"/>
      <use xlink:href="#DejaVuSans-70" transform="translate(983.867188 0.529687)"/>
      <use xlink:href="#DejaVuSans-65" transform="translate(1047.34375 0.529687)"/>
      <use xlink:href="#DejaVuSans-72" transform="translate(1108.867188 0.529687)"/>
      <use xlink:href="#DejaVuSans-63" transform="translate(1149.980469 0.529687)"/>
      <use xlink:href="#DejaVuSans-65" transform="translate(1204.960938 0.529687)"/>
      <use xlink:href="#DejaVuSans-6e" transform="translate(1266.484375 0.529687)"/>
      <use xlink:href="#DejaVuSans-74" transform="translate(1329.863281 0.529687)"/>
      <use xlink:href="#DejaVuSans-69" transform="translate(1369.072266 0.529687)"/>
      <use xlink:href="#DejaVuSans-6c" transform="translate(1396.855469 0.529687)"/>
      <use xlink:href="#DejaVuSans-65" transform="translate(1424.638672 0.529687)"/>
      <use xlink:href="#DejaVuSans-73" transform="translate(1486.162109 0.529687)"/>
     </g>
    </g>
    <g id="line2d_142">
     <path d="M 249.4745 83.7692 
L 257.4745 83.7692 
L 265.4745 83.7692 
" style="fill: none; stroke: #0000ff; stroke-width: 2; stroke-linecap: square"/>
    </g>
    <g id="text_11">
     <!-- Selected GMs median -->
     <g transform="translate(271.8745 86.5692) scale(0.08 -0.08)">
      <use xlink:href="#DejaVuSans-53"/>
      <use xlink:href="#DejaVuSans-65" x="63.476562"/>
      <use xlink:href="#DejaVuSans-6c" x="125"/>
      <use xlink:href="#DejaVuSans-65" x="152.783203"/>
      <use xlink:href="#DejaVuSans-63" x="214.306641"/>
      <use xlink:href="#DejaVuSans-74" x="269.287109"/>
      <use xlink:href="#DejaVuSans-65" x="308.496094"/>
      <use xlink:href="#DejaVuSans-64" x="370.019531"/>
      <use xlink:href="#DejaVuSans-20" x="433.496094"/>
      <use xlink:href="#DejaVuSans-47" x="465.283203"/>
      <use xlink:href="#DejaVuSans-4d" x="542.773438"/>
      <use xlink:href="#DejaVuSans-73" x="629.052734"/>
      <use xlink:href="#DejaVuSans-20" x="681.152344"/>
      <use xlink:href="#DejaVuSans-6d" x="712.939453"/>
      <use xlink:href="#DejaVuSans-65" x="810.351562"/>
      <use xlink:href="#DejaVuSans-64" x="871.875"/>
      <use xlink:href="#DejaVuSans-69" x="935.351562"/>
      <use xlink:href="#DejaVuSans-61" x="963.134766"/>
      <use xlink:href="#DejaVuSans-6e" x="1024.414062"/>
     </g>
    </g>
    <g id="line2d_143">
     <path d="M 249.4745 96.79295 
L 257.4745 96.79295 
L 265.4745 96.79295 
" style="fill: none; stroke-dasharray: 7.4,3.2; stroke-dashoffset: 0; stroke: #0000ff; stroke-width: 2"/>
    </g>
    <g id="text_12">
     <!-- Selected GMs, $16^{th}$ and $84^{th}$ percentiles -->
     <g transform="translate(271.8745 99.59295) scale(0.08 -0.08)">
      <use xlink:href="#DejaVuSans-53" transform="translate(0 0.529687)"/>
      <use xlink:href="#DejaVuSans-65" transform="translate(63.476562 0.529687)"/>
      <use xlink:href="#DejaVuSans-6c" transform="translate(125 0.529687)"/>
      <use xlink:href="#DejaVuSans-65" transform="translate(152.783203 0.529687)"/>
      <use xlink:href="#DejaVuSans-63" transform="translate(214.306641 0.529687)"/>
      <use xlink:href="#DejaVuSans-74" transform="translate(269.287109 0.529687)"/>
      <use xlink:href="#DejaVuSans-65" transform="translate(308.496094 0.529687)"/>
      <use xlink:href="#DejaVuSans-64" transform="translate(370.019531 0.529687)"/>
      <use xlink:href="#DejaVuSans-20" transform="translate(433.496094 0.529687)"/>
      <use xlink:href="#DejaVuSans-47" transform="translate(465.283203 0.529687)"/>
      <use xlink:href="#DejaVuSans-4d" transform="translate(542.773438 0.529687)"/>
      <use xlink:href="#DejaVuSans-73" transform="translate(629.052734 0.529687)"/>
      <use xlink:href="#DejaVuSans-2c" transform="translate(681.152344 0.529687)"/>
      <use xlink:href="#DejaVuSans-20" transform="translate(712.939453 0.529687)"/>
      <use xlink:href="#DejaVuSans-31" transform="translate(744.726562 0.529687)"/>
      <use xlink:href="#DejaVuSans-36" transform="translate(808.349609 0.529687)"/>
      <use xlink:href="#DejaVuSans-Oblique-74" transform="translate(872.929688 38.810937) scale(0.7)"/>
      <use xlink:href="#DejaVuSans-Oblique-68" transform="translate(900.375977 38.810937) scale(0.7)"/>
      <use xlink:href="#DejaVuSans-20" transform="translate(947.475586 0.529687)"/>
      <use xlink:href="#DejaVuSans-61" transform="translate(979.262695 0.529687)"/>
      <use xlink:href="#DejaVuSans-6e" transform="translate(1040.541992 0.529687)"/>
      <use xlink:href="#DejaVuSans-64" transform="translate(1103.920898 0.529687)"/>
      <use xlink:href="#DejaVuSans-20" transform="translate(1167.397461 0.529687)"/>
      <use xlink:href="#DejaVuSans-38" transform="translate(1199.18457 0.529687)"/>
      <use xlink:href="#DejaVuSans-34" transform="translate(1262.807617 0.529687)"/>
      <use xlink:href="#DejaVuSans-Oblique-74" transform="translate(1327.387695 38.810937) scale(0.7)"/>
      <use xlink:href="#DejaVuSans-Oblique-68" transform="translate(1354.833984 38.810937) scale(0.7)"/>
      <use xlink:href="#DejaVuSans-20" transform="translate(1401.933594 0.529687)"/>
      <use xlink:href="#DejaVuSans-70" transform="translate(1433.720703 0.529687)"/>
      <use xlink:href="#DejaVuSans-65" transform="translate(1497.197266 0.529687)"/>
      <use xlink:href="#DejaVuSans-72" transform="translate(1558.720703 0.529687)"/>
      <use xlink:href="#DejaVuSans-63" transform="translate(1599.833984 0.529687)"/>
      <use xlink:href="#DejaVuSans-65" transform="translate(1654.814453 0.529687)"/>
      <use xlink:href="#DejaVuSans-6e" transform="translate(1716.337891 0.529687)"/>
      <use xlink:href="#DejaVuSans-74" transform="translate(1779.716797 0.529687)"/>
      <use xlink:href="#DejaVuSans-69" transform="translate(1818.925781 0.529687)"/>
      <use xlink:href="#DejaVuSans-6c" transform="translate(1846.708984 0.529687)"/>
      <use xlink:href="#DejaVuSans-65" transform="translate(1874.492188 0.529687)"/>
      <use xlink:href="#DejaVuSans-73" transform="translate(1936.015625 0.529687)"/>
     </g>
    </g>
   </g>
  </g>
 </g>
 <defs>
  <clipPath id="p977c7812ad">
   <rect x="44.7425" y="7.2" width="197.532" height="130.8384"/>
  </clipPath>
 </defs>
</svg>
