<?xml version="1.0" encoding="utf-8" standalone="no"?>
<!DOCTYPE svg PUBLIC "-//W3C//DTD SVG 1.1//EN"
  "http://www.w3.org/Graphics/SVG/1.1/DTD/svg11.dtd">
<svg xmlns:xlink="http://www.w3.org/1999/xlink" width="441.3945pt" height="171.7234pt" viewBox="0 0 441.3945 171.7234" xmlns="http://www.w3.org/2000/svg" version="1.1">
 <metadata>
  <rdf:RDF xmlns:dc="http://purl.org/dc/elements/1.1/" xmlns:cc="http://creativecommons.org/ns#" xmlns:rdf="http://www.w3.org/1999/02/22-rdf-syntax-ns#">
   <cc:Work>
    <dc:type rdf:resource="http://purl.org/dc/dcmitype/StillImage"/>
    <dc:date>2024-10-30T18:00:19.667588</dc:date>
    <dc:format>image/svg+xml</dc:format>
    <dc:creator>
     <cc:Agent>
      <dc:title>Matplotlib v3.8.2, https://matplotlib.org/</dc:title>
     </cc:Agent>
    </dc:creator>
   </cc:Work>
  </rdf:RDF>
 </metadata>
 <defs>
  <style type="text/css">*{stroke-linejoin: round; stroke-linecap: butt}</style>
 </defs>
 <g id="figure_1">
  <g id="patch_1">
   <path d="M 0 171.7234 
L 441.3945 171.7234 
L 441.3945 0 
L 0 0 
z
" style="fill: #ffffff"/>
  </g>
  <g id="axes_1">
   <g id="patch_2">
    <path d="M 44.7425 138.0384 
L 242.2745 138.0384 
L 242.2745 7.2 
L 44.7425 7.2 
z
" style="fill: #ffffff"/>
   </g>
   <g id="matplotlib.axis_1">
    <g id="xtick_1">
     <g id="line2d_1">
      <path d="M 53.721227 138.0384 
L 53.721227 7.2 
" clip-path="url(#pec9ae2747d)" style="fill: none; stroke: #d9d9d9; stroke-width: 0.8; stroke-linecap: square"/>
     </g>
     <g id="line2d_2">
      <defs>
       <path id="mce71daecfd" d="M 0 0 
L 0 3.5 
" style="stroke: #000000; stroke-width: 0.8"/>
      </defs>
      <g>
       <use xlink:href="#mce71daecfd" x="53.721227" y="138.0384" style="stroke: #000000; stroke-width: 0.8"/>
      </g>
     </g>
     <g id="text_1">
      <!-- $\mathdefault{10^{-1}}$ -->
      <g transform="translate(44.321227 151.11715) scale(0.08 -0.08)">
       <defs>
        <path id="DejaVuSans-31" d="M 794 531 
L 1825 531 
L 1825 4091 
L 703 3866 
L 703 4441 
L 1819 4666 
L 2450 4666 
L 2450 531 
L 3481 531 
L 3481 0 
L 794 0 
L 794 531 
z
" transform="scale(0.015625)"/>
        <path id="DejaVuSans-30" d="M 2034 4250 
Q 1547 4250 1301 3770 
Q 1056 3291 1056 2328 
Q 1056 1369 1301 889 
Q 1547 409 2034 409 
Q 2525 409 2770 889 
Q 3016 1369 3016 2328 
Q 3016 3291 2770 3770 
Q 2525 4250 2034 4250 
z
M 2034 4750 
Q 2819 4750 3233 4129 
Q 3647 3509 3647 2328 
Q 3647 1150 3233 529 
Q 2819 -91 2034 -91 
Q 1250 -91 836 529 
Q 422 1150 422 2328 
Q 422 3509 836 4129 
Q 1250 4750 2034 4750 
z
" transform="scale(0.015625)"/>
        <path id="DejaVuSans-2212" d="M 678 2272 
L 4684 2272 
L 4684 1741 
L 678 1741 
L 678 2272 
z
" transform="scale(0.015625)"/>
       </defs>
       <use xlink:href="#DejaVuSans-31" transform="translate(0 0.684375)"/>
       <use xlink:href="#DejaVuSans-30" transform="translate(63.623047 0.684375)"/>
       <use xlink:href="#DejaVuSans-2212" transform="translate(128.203125 38.965625) scale(0.7)"/>
       <use xlink:href="#DejaVuSans-31" transform="translate(186.855469 38.965625) scale(0.7)"/>
      </g>
     </g>
    </g>
    <g id="xtick_2">
     <g id="line2d_3">
      <path d="M 159.417352 138.0384 
L 159.417352 7.2 
" clip-path="url(#pec9ae2747d)" style="fill: none; stroke: #d9d9d9; stroke-width: 0.8; stroke-linecap: square"/>
     </g>
     <g id="line2d_4">
      <g>
       <use xlink:href="#mce71daecfd" x="159.417352" y="138.0384" style="stroke: #000000; stroke-width: 0.8"/>
      </g>
     </g>
     <g id="text_2">
      <!-- $\mathdefault{10^{0}}$ -->
      <g transform="translate(152.377352 151.11715) scale(0.08 -0.08)">
       <use xlink:href="#DejaVuSans-31" transform="translate(0 0.765625)"/>
       <use xlink:href="#DejaVuSans-30" transform="translate(63.623047 0.765625)"/>
       <use xlink:href="#DejaVuSans-30" transform="translate(128.203125 39.046875) scale(0.7)"/>
      </g>
     </g>
    </g>
    <g id="xtick_3">
     <g id="line2d_5">
      <path d="M 48.884838 138.0384 
L 48.884838 7.2 
" clip-path="url(#pec9ae2747d)" style="fill: none; stroke-dasharray: 2.96,1.28; stroke-dashoffset: 0; stroke: #f2f2f2; stroke-width: 0.8"/>
     </g>
     <g id="line2d_6">
      <defs>
       <path id="m57ff252567" d="M 0 0 
L 0 2 
" style="stroke: #000000; stroke-width: 0.6"/>
      </defs>
      <g>
       <use xlink:href="#m57ff252567" x="48.884838" y="138.0384" style="stroke: #000000; stroke-width: 0.6"/>
      </g>
     </g>
    </g>
    <g id="xtick_4">
     <g id="line2d_7">
      <path d="M 85.538931 138.0384 
L 85.538931 7.2 
" clip-path="url(#pec9ae2747d)" style="fill: none; stroke-dasharray: 2.96,1.28; stroke-dashoffset: 0; stroke: #f2f2f2; stroke-width: 0.8"/>
     </g>
     <g id="line2d_8">
      <g>
       <use xlink:href="#m57ff252567" x="85.538931" y="138.0384" style="stroke: #000000; stroke-width: 0.6"/>
      </g>
     </g>
    </g>
    <g id="xtick_5">
     <g id="line2d_9">
      <path d="M 104.151095 138.0384 
L 104.151095 7.2 
" clip-path="url(#pec9ae2747d)" style="fill: none; stroke-dasharray: 2.96,1.28; stroke-dashoffset: 0; stroke: #f2f2f2; stroke-width: 0.8"/>
     </g>
     <g id="line2d_10">
      <g>
       <use xlink:href="#m57ff252567" x="104.151095" y="138.0384" style="stroke: #000000; stroke-width: 0.6"/>
      </g>
     </g>
    </g>
    <g id="xtick_6">
     <g id="line2d_11">
      <path d="M 117.356635 138.0384 
L 117.356635 7.2 
" clip-path="url(#pec9ae2747d)" style="fill: none; stroke-dasharray: 2.96,1.28; stroke-dashoffset: 0; stroke: #f2f2f2; stroke-width: 0.8"/>
     </g>
     <g id="line2d_12">
      <g>
       <use xlink:href="#m57ff252567" x="117.356635" y="138.0384" style="stroke: #000000; stroke-width: 0.6"/>
      </g>
     </g>
    </g>
    <g id="xtick_7">
     <g id="line2d_13">
      <path d="M 127.599648 138.0384 
L 127.599648 7.2 
" clip-path="url(#pec9ae2747d)" style="fill: none; stroke-dasharray: 2.96,1.28; stroke-dashoffset: 0; stroke: #f2f2f2; stroke-width: 0.8"/>
     </g>
     <g id="line2d_14">
      <g>
       <use xlink:href="#m57ff252567" x="127.599648" y="138.0384" style="stroke: #000000; stroke-width: 0.6"/>
      </g>
     </g>
    </g>
    <g id="xtick_8">
     <g id="line2d_15">
      <path d="M 135.968799 138.0384 
L 135.968799 7.2 
" clip-path="url(#pec9ae2747d)" style="fill: none; stroke-dasharray: 2.96,1.28; stroke-dashoffset: 0; stroke: #f2f2f2; stroke-width: 0.8"/>
     </g>
     <g id="line2d_16">
      <g>
       <use xlink:href="#m57ff252567" x="135.968799" y="138.0384" style="stroke: #000000; stroke-width: 0.6"/>
      </g>
     </g>
    </g>
    <g id="xtick_9">
     <g id="line2d_17">
      <path d="M 143.044815 138.0384 
L 143.044815 7.2 
" clip-path="url(#pec9ae2747d)" style="fill: none; stroke-dasharray: 2.96,1.28; stroke-dashoffset: 0; stroke: #f2f2f2; stroke-width: 0.8"/>
     </g>
     <g id="line2d_18">
      <g>
       <use xlink:href="#m57ff252567" x="143.044815" y="138.0384" style="stroke: #000000; stroke-width: 0.6"/>
      </g>
     </g>
    </g>
    <g id="xtick_10">
     <g id="line2d_19">
      <path d="M 149.174339 138.0384 
L 149.174339 7.2 
" clip-path="url(#pec9ae2747d)" style="fill: none; stroke-dasharray: 2.96,1.28; stroke-dashoffset: 0; stroke: #f2f2f2; stroke-width: 0.8"/>
     </g>
     <g id="line2d_20">
      <g>
       <use xlink:href="#m57ff252567" x="149.174339" y="138.0384" style="stroke: #000000; stroke-width: 0.6"/>
      </g>
     </g>
    </g>
    <g id="xtick_11">
     <g id="line2d_21">
      <path d="M 154.580963 138.0384 
L 154.580963 7.2 
" clip-path="url(#pec9ae2747d)" style="fill: none; stroke-dasharray: 2.96,1.28; stroke-dashoffset: 0; stroke: #f2f2f2; stroke-width: 0.8"/>
     </g>
     <g id="line2d_22">
      <g>
       <use xlink:href="#m57ff252567" x="154.580963" y="138.0384" style="stroke: #000000; stroke-width: 0.6"/>
      </g>
     </g>
    </g>
    <g id="xtick_12">
     <g id="line2d_23">
      <path d="M 191.235056 138.0384 
L 191.235056 7.2 
" clip-path="url(#pec9ae2747d)" style="fill: none; stroke-dasharray: 2.96,1.28; stroke-dashoffset: 0; stroke: #f2f2f2; stroke-width: 0.8"/>
     </g>
     <g id="line2d_24">
      <g>
       <use xlink:href="#m57ff252567" x="191.235056" y="138.0384" style="stroke: #000000; stroke-width: 0.6"/>
      </g>
     </g>
    </g>
    <g id="xtick_13">
     <g id="line2d_25">
      <path d="M 209.84722 138.0384 
L 209.84722 7.2 
" clip-path="url(#pec9ae2747d)" style="fill: none; stroke-dasharray: 2.96,1.28; stroke-dashoffset: 0; stroke: #f2f2f2; stroke-width: 0.8"/>
     </g>
     <g id="line2d_26">
      <g>
       <use xlink:href="#m57ff252567" x="209.84722" y="138.0384" style="stroke: #000000; stroke-width: 0.6"/>
      </g>
     </g>
    </g>
    <g id="xtick_14">
     <g id="line2d_27">
      <path d="M 223.05276 138.0384 
L 223.05276 7.2 
" clip-path="url(#pec9ae2747d)" style="fill: none; stroke-dasharray: 2.96,1.28; stroke-dashoffset: 0; stroke: #f2f2f2; stroke-width: 0.8"/>
     </g>
     <g id="line2d_28">
      <g>
       <use xlink:href="#m57ff252567" x="223.05276" y="138.0384" style="stroke: #000000; stroke-width: 0.6"/>
      </g>
     </g>
    </g>
    <g id="xtick_15">
     <g id="line2d_29">
      <path d="M 233.295773 138.0384 
L 233.295773 7.2 
" clip-path="url(#pec9ae2747d)" style="fill: none; stroke-dasharray: 2.96,1.28; stroke-dashoffset: 0; stroke: #f2f2f2; stroke-width: 0.8"/>
     </g>
     <g id="line2d_30">
      <g>
       <use xlink:href="#m57ff252567" x="233.295773" y="138.0384" style="stroke: #000000; stroke-width: 0.6"/>
      </g>
     </g>
    </g>
    <g id="xtick_16">
     <g id="line2d_31">
      <path d="M 241.664924 138.0384 
L 241.664924 7.2 
" clip-path="url(#pec9ae2747d)" style="fill: none; stroke-dasharray: 2.96,1.28; stroke-dashoffset: 0; stroke: #f2f2f2; stroke-width: 0.8"/>
     </g>
     <g id="line2d_32">
      <g>
       <use xlink:href="#m57ff252567" x="241.664924" y="138.0384" style="stroke: #000000; stroke-width: 0.6"/>
      </g>
     </g>
    </g>
    <g id="text_3">
     <!-- Period, T (s) -->
     <g transform="translate(119.576 162.85965) scale(0.08 -0.08)">
      <defs>
       <path id="DejaVuSans-50" d="M 1259 4147 
L 1259 2394 
L 2053 2394 
Q 2494 2394 2734 2622 
Q 2975 2850 2975 3272 
Q 2975 3691 2734 3919 
Q 2494 4147 2053 4147 
L 1259 4147 
z
M 628 4666 
L 2053 4666 
Q 2838 4666 3239 4311 
Q 3641 3956 3641 3272 
Q 3641 2581 3239 2228 
Q 2838 1875 2053 1875 
L 1259 1875 
L 1259 0 
L 628 0 
L 628 4666 
z
" transform="scale(0.015625)"/>
       <path id="DejaVuSans-65" d="M 3597 1894 
L 3597 1613 
L 953 1613 
Q 991 1019 1311 708 
Q 1631 397 2203 397 
Q 2534 397 2845 478 
Q 3156 559 3463 722 
L 3463 178 
Q 3153 47 2828 -22 
Q 2503 -91 2169 -91 
Q 1331 -91 842 396 
Q 353 884 353 1716 
Q 353 2575 817 3079 
Q 1281 3584 2069 3584 
Q 2775 3584 3186 3129 
Q 3597 2675 3597 1894 
z
M 3022 2063 
Q 3016 2534 2758 2815 
Q 2500 3097 2075 3097 
Q 1594 3097 1305 2825 
Q 1016 2553 972 2059 
L 3022 2063 
z
" transform="scale(0.015625)"/>
       <path id="DejaVuSans-72" d="M 2631 2963 
Q 2534 3019 2420 3045 
Q 2306 3072 2169 3072 
Q 1681 3072 1420 2755 
Q 1159 2438 1159 1844 
L 1159 0 
L 581 0 
L 581 3500 
L 1159 3500 
L 1159 2956 
Q 1341 3275 1631 3429 
Q 1922 3584 2338 3584 
Q 2397 3584 2469 3576 
Q 2541 3569 2628 3553 
L 2631 2963 
z
" transform="scale(0.015625)"/>
       <path id="DejaVuSans-69" d="M 603 3500 
L 1178 3500 
L 1178 0 
L 603 0 
L 603 3500 
z
M 603 4863 
L 1178 4863 
L 1178 4134 
L 603 4134 
L 603 4863 
z
" transform="scale(0.015625)"/>
       <path id="DejaVuSans-6f" d="M 1959 3097 
Q 1497 3097 1228 2736 
Q 959 2375 959 1747 
Q 959 1119 1226 758 
Q 1494 397 1959 397 
Q 2419 397 2687 759 
Q 2956 1122 2956 1747 
Q 2956 2369 2687 2733 
Q 2419 3097 1959 3097 
z
M 1959 3584 
Q 2709 3584 3137 3096 
Q 3566 2609 3566 1747 
Q 3566 888 3137 398 
Q 2709 -91 1959 -91 
Q 1206 -91 779 398 
Q 353 888 353 1747 
Q 353 2609 779 3096 
Q 1206 3584 1959 3584 
z
" transform="scale(0.015625)"/>
       <path id="DejaVuSans-64" d="M 2906 2969 
L 2906 4863 
L 3481 4863 
L 3481 0 
L 2906 0 
L 2906 525 
Q 2725 213 2448 61 
Q 2172 -91 1784 -91 
Q 1150 -91 751 415 
Q 353 922 353 1747 
Q 353 2572 751 3078 
Q 1150 3584 1784 3584 
Q 2172 3584 2448 3432 
Q 2725 3281 2906 2969 
z
M 947 1747 
Q 947 1113 1208 752 
Q 1469 391 1925 391 
Q 2381 391 2643 752 
Q 2906 1113 2906 1747 
Q 2906 2381 2643 2742 
Q 2381 3103 1925 3103 
Q 1469 3103 1208 2742 
Q 947 2381 947 1747 
z
" transform="scale(0.015625)"/>
       <path id="DejaVuSans-2c" d="M 750 794 
L 1409 794 
L 1409 256 
L 897 -744 
L 494 -744 
L 750 256 
L 750 794 
z
" transform="scale(0.015625)"/>
       <path id="DejaVuSans-20" transform="scale(0.015625)"/>
       <path id="DejaVuSans-54" d="M -19 4666 
L 3928 4666 
L 3928 4134 
L 2272 4134 
L 2272 0 
L 1638 0 
L 1638 4134 
L -19 4134 
L -19 4666 
z
" transform="scale(0.015625)"/>
       <path id="DejaVuSans-28" d="M 1984 4856 
Q 1566 4138 1362 3434 
Q 1159 2731 1159 2009 
Q 1159 1288 1364 580 
Q 1569 -128 1984 -844 
L 1484 -844 
Q 1016 -109 783 600 
Q 550 1309 550 2009 
Q 550 2706 781 3412 
Q 1013 4119 1484 4856 
L 1984 4856 
z
" transform="scale(0.015625)"/>
       <path id="DejaVuSans-73" d="M 2834 3397 
L 2834 2853 
Q 2591 2978 2328 3040 
Q 2066 3103 1784 3103 
Q 1356 3103 1142 2972 
Q 928 2841 928 2578 
Q 928 2378 1081 2264 
Q 1234 2150 1697 2047 
L 1894 2003 
Q 2506 1872 2764 1633 
Q 3022 1394 3022 966 
Q 3022 478 2636 193 
Q 2250 -91 1575 -91 
Q 1294 -91 989 -36 
Q 684 19 347 128 
L 347 722 
Q 666 556 975 473 
Q 1284 391 1588 391 
Q 1994 391 2212 530 
Q 2431 669 2431 922 
Q 2431 1156 2273 1281 
Q 2116 1406 1581 1522 
L 1381 1569 
Q 847 1681 609 1914 
Q 372 2147 372 2553 
Q 372 3047 722 3315 
Q 1072 3584 1716 3584 
Q 2034 3584 2315 3537 
Q 2597 3491 2834 3397 
z
" transform="scale(0.015625)"/>
       <path id="DejaVuSans-29" d="M 513 4856 
L 1013 4856 
Q 1481 4119 1714 3412 
Q 1947 2706 1947 2009 
Q 1947 1309 1714 600 
Q 1481 -109 1013 -844 
L 513 -844 
Q 928 -128 1133 580 
Q 1338 1288 1338 2009 
Q 1338 2731 1133 3434 
Q 928 4138 513 4856 
z
" transform="scale(0.015625)"/>
      </defs>
      <use xlink:href="#DejaVuSans-50"/>
      <use xlink:href="#DejaVuSans-65" x="56.677734"/>
      <use xlink:href="#DejaVuSans-72" x="118.201172"/>
      <use xlink:href="#DejaVuSans-69" x="159.314453"/>
      <use xlink:href="#DejaVuSans-6f" x="187.097656"/>
      <use xlink:href="#DejaVuSans-64" x="248.279297"/>
      <use xlink:href="#DejaVuSans-2c" x="311.755859"/>
      <use xlink:href="#DejaVuSans-20" x="343.542969"/>
      <use xlink:href="#DejaVuSans-54" x="375.330078"/>
      <use xlink:href="#DejaVuSans-20" x="436.414062"/>
      <use xlink:href="#DejaVuSans-28" x="468.201172"/>
      <use xlink:href="#DejaVuSans-73" x="507.214844"/>
      <use xlink:href="#DejaVuSans-29" x="559.314453"/>
     </g>
    </g>
   </g>
   <g id="matplotlib.axis_2">
    <g id="ytick_1">
     <g id="line2d_33">
      <path d="M 44.7425 116.198083 
L 242.2745 116.198083 
" clip-path="url(#pec9ae2747d)" style="fill: none; stroke: #d9d9d9; stroke-width: 0.8; stroke-linecap: square"/>
     </g>
     <g id="line2d_34">
      <defs>
       <path id="me79fcd9411" d="M 0 0 
L -3.5 0 
" style="stroke: #000000; stroke-width: 0.8"/>
      </defs>
      <g>
       <use xlink:href="#me79fcd9411" x="44.7425" y="116.198083" style="stroke: #000000; stroke-width: 0.8"/>
      </g>
     </g>
     <g id="text_4">
      <!-- $\mathdefault{10^{-2}}$ -->
      <g transform="translate(18.9425 119.237458) scale(0.08 -0.08)">
       <defs>
        <path id="DejaVuSans-32" d="M 1228 531 
L 3431 531 
L 3431 0 
L 469 0 
L 469 531 
Q 828 903 1448 1529 
Q 2069 2156 2228 2338 
Q 2531 2678 2651 2914 
Q 2772 3150 2772 3378 
Q 2772 3750 2511 3984 
Q 2250 4219 1831 4219 
Q 1534 4219 1204 4116 
Q 875 4013 500 3803 
L 500 4441 
Q 881 4594 1212 4672 
Q 1544 4750 1819 4750 
Q 2544 4750 2975 4387 
Q 3406 4025 3406 3419 
Q 3406 3131 3298 2873 
Q 3191 2616 2906 2266 
Q 2828 2175 2409 1742 
Q 1991 1309 1228 531 
z
" transform="scale(0.015625)"/>
       </defs>
       <use xlink:href="#DejaVuSans-31" transform="translate(0 0.765625)"/>
       <use xlink:href="#DejaVuSans-30" transform="translate(63.623047 0.765625)"/>
       <use xlink:href="#DejaVuSans-2212" transform="translate(128.203125 39.046875) scale(0.7)"/>
       <use xlink:href="#DejaVuSans-32" transform="translate(186.855469 39.046875) scale(0.7)"/>
      </g>
     </g>
    </g>
    <g id="ytick_2">
     <g id="line2d_35">
      <path d="M 44.7425 68.082327 
L 242.2745 68.082327 
" clip-path="url(#pec9ae2747d)" style="fill: none; stroke: #d9d9d9; stroke-width: 0.8; stroke-linecap: square"/>
     </g>
     <g id="line2d_36">
      <g>
       <use xlink:href="#me79fcd9411" x="44.7425" y="68.082327" style="stroke: #000000; stroke-width: 0.8"/>
      </g>
     </g>
     <g id="text_5">
      <!-- $\mathdefault{10^{-1}}$ -->
      <g transform="translate(18.9425 71.121702) scale(0.08 -0.08)">
       <use xlink:href="#DejaVuSans-31" transform="translate(0 0.684375)"/>
       <use xlink:href="#DejaVuSans-30" transform="translate(63.623047 0.684375)"/>
       <use xlink:href="#DejaVuSans-2212" transform="translate(128.203125 38.965625) scale(0.7)"/>
       <use xlink:href="#DejaVuSans-31" transform="translate(186.855469 38.965625) scale(0.7)"/>
      </g>
     </g>
    </g>
    <g id="ytick_3">
     <g id="line2d_37">
      <path d="M 44.7425 19.966571 
L 242.2745 19.966571 
" clip-path="url(#pec9ae2747d)" style="fill: none; stroke: #d9d9d9; stroke-width: 0.8; stroke-linecap: square"/>
     </g>
     <g id="line2d_38">
      <g>
       <use xlink:href="#me79fcd9411" x="44.7425" y="19.966571" style="stroke: #000000; stroke-width: 0.8"/>
      </g>
     </g>
     <g id="text_6">
      <!-- $\mathdefault{10^{0}}$ -->
      <g transform="translate(23.6625 23.005946) scale(0.08 -0.08)">
       <use xlink:href="#DejaVuSans-31" transform="translate(0 0.765625)"/>
       <use xlink:href="#DejaVuSans-30" transform="translate(63.623047 0.765625)"/>
       <use xlink:href="#DejaVuSans-30" transform="translate(128.203125 39.046875) scale(0.7)"/>
      </g>
     </g>
    </g>
    <g id="ytick_4">
     <g id="line2d_39">
      <path d="M 44.7425 135.345268 
L 242.2745 135.345268 
" clip-path="url(#pec9ae2747d)" style="fill: none; stroke-dasharray: 2.96,1.28; stroke-dashoffset: 0; stroke: #f2f2f2; stroke-width: 0.8"/>
     </g>
     <g id="line2d_40">
      <defs>
       <path id="mb6c9430343" d="M 0 0 
L -2 0 
" style="stroke: #000000; stroke-width: 0.6"/>
      </defs>
      <g>
       <use xlink:href="#mb6c9430343" x="44.7425" y="135.345268" style="stroke: #000000; stroke-width: 0.6"/>
      </g>
     </g>
    </g>
    <g id="ytick_5">
     <g id="line2d_41">
      <path d="M 44.7425 130.682369 
L 242.2745 130.682369 
" clip-path="url(#pec9ae2747d)" style="fill: none; stroke-dasharray: 2.96,1.28; stroke-dashoffset: 0; stroke: #f2f2f2; stroke-width: 0.8"/>
     </g>
     <g id="line2d_42">
      <g>
       <use xlink:href="#mb6c9430343" x="44.7425" y="130.682369" style="stroke: #000000; stroke-width: 0.6"/>
      </g>
     </g>
    </g>
    <g id="ytick_6">
     <g id="line2d_43">
      <path d="M 44.7425 126.872504 
L 242.2745 126.872504 
" clip-path="url(#pec9ae2747d)" style="fill: none; stroke-dasharray: 2.96,1.28; stroke-dashoffset: 0; stroke: #f2f2f2; stroke-width: 0.8"/>
     </g>
     <g id="line2d_44">
      <g>
       <use xlink:href="#mb6c9430343" x="44.7425" y="126.872504" style="stroke: #000000; stroke-width: 0.6"/>
      </g>
     </g>
    </g>
    <g id="ytick_7">
     <g id="line2d_45">
      <path d="M 44.7425 123.651308 
L 242.2745 123.651308 
" clip-path="url(#pec9ae2747d)" style="fill: none; stroke-dasharray: 2.96,1.28; stroke-dashoffset: 0; stroke: #f2f2f2; stroke-width: 0.8"/>
     </g>
     <g id="line2d_46">
      <g>
       <use xlink:href="#mb6c9430343" x="44.7425" y="123.651308" style="stroke: #000000; stroke-width: 0.6"/>
      </g>
     </g>
    </g>
    <g id="ytick_8">
     <g id="line2d_47">
      <path d="M 44.7425 120.860982 
L 242.2745 120.860982 
" clip-path="url(#pec9ae2747d)" style="fill: none; stroke-dasharray: 2.96,1.28; stroke-dashoffset: 0; stroke: #f2f2f2; stroke-width: 0.8"/>
     </g>
     <g id="line2d_48">
      <g>
       <use xlink:href="#mb6c9430343" x="44.7425" y="120.860982" style="stroke: #000000; stroke-width: 0.6"/>
      </g>
     </g>
    </g>
    <g id="ytick_9">
     <g id="line2d_49">
      <path d="M 44.7425 118.399739 
L 242.2745 118.399739 
" clip-path="url(#pec9ae2747d)" style="fill: none; stroke-dasharray: 2.96,1.28; stroke-dashoffset: 0; stroke: #f2f2f2; stroke-width: 0.8"/>
     </g>
     <g id="line2d_50">
      <g>
       <use xlink:href="#mb6c9430343" x="44.7425" y="118.399739" style="stroke: #000000; stroke-width: 0.6"/>
      </g>
     </g>
    </g>
    <g id="ytick_10">
     <g id="line2d_51">
      <path d="M 44.7425 101.713797 
L 242.2745 101.713797 
" clip-path="url(#pec9ae2747d)" style="fill: none; stroke-dasharray: 2.96,1.28; stroke-dashoffset: 0; stroke: #f2f2f2; stroke-width: 0.8"/>
     </g>
     <g id="line2d_52">
      <g>
       <use xlink:href="#mb6c9430343" x="44.7425" y="101.713797" style="stroke: #000000; stroke-width: 0.6"/>
      </g>
     </g>
    </g>
    <g id="ytick_11">
     <g id="line2d_53">
      <path d="M 44.7425 93.241033 
L 242.2745 93.241033 
" clip-path="url(#pec9ae2747d)" style="fill: none; stroke-dasharray: 2.96,1.28; stroke-dashoffset: 0; stroke: #f2f2f2; stroke-width: 0.8"/>
     </g>
     <g id="line2d_54">
      <g>
       <use xlink:href="#mb6c9430343" x="44.7425" y="93.241033" style="stroke: #000000; stroke-width: 0.6"/>
      </g>
     </g>
    </g>
    <g id="ytick_12">
     <g id="line2d_55">
      <path d="M 44.7425 87.229511 
L 242.2745 87.229511 
" clip-path="url(#pec9ae2747d)" style="fill: none; stroke-dasharray: 2.96,1.28; stroke-dashoffset: 0; stroke: #f2f2f2; stroke-width: 0.8"/>
     </g>
     <g id="line2d_56">
      <g>
       <use xlink:href="#mb6c9430343" x="44.7425" y="87.229511" style="stroke: #000000; stroke-width: 0.6"/>
      </g>
     </g>
    </g>
    <g id="ytick_13">
     <g id="line2d_57">
      <path d="M 44.7425 82.566613 
L 242.2745 82.566613 
" clip-path="url(#pec9ae2747d)" style="fill: none; stroke-dasharray: 2.96,1.28; stroke-dashoffset: 0; stroke: #f2f2f2; stroke-width: 0.8"/>
     </g>
     <g id="line2d_58">
      <g>
       <use xlink:href="#mb6c9430343" x="44.7425" y="82.566613" style="stroke: #000000; stroke-width: 0.6"/>
      </g>
     </g>
    </g>
    <g id="ytick_14">
     <g id="line2d_59">
      <path d="M 44.7425 78.756747 
L 242.2745 78.756747 
" clip-path="url(#pec9ae2747d)" style="fill: none; stroke-dasharray: 2.96,1.28; stroke-dashoffset: 0; stroke: #f2f2f2; stroke-width: 0.8"/>
     </g>
     <g id="line2d_60">
      <g>
       <use xlink:href="#mb6c9430343" x="44.7425" y="78.756747" style="stroke: #000000; stroke-width: 0.6"/>
      </g>
     </g>
    </g>
    <g id="ytick_15">
     <g id="line2d_61">
      <path d="M 44.7425 75.535552 
L 242.2745 75.535552 
" clip-path="url(#pec9ae2747d)" style="fill: none; stroke-dasharray: 2.96,1.28; stroke-dashoffset: 0; stroke: #f2f2f2; stroke-width: 0.8"/>
     </g>
     <g id="line2d_62">
      <g>
       <use xlink:href="#mb6c9430343" x="44.7425" y="75.535552" style="stroke: #000000; stroke-width: 0.6"/>
      </g>
     </g>
    </g>
    <g id="ytick_16">
     <g id="line2d_63">
      <path d="M 44.7425 72.745226 
L 242.2745 72.745226 
" clip-path="url(#pec9ae2747d)" style="fill: none; stroke-dasharray: 2.96,1.28; stroke-dashoffset: 0; stroke: #f2f2f2; stroke-width: 0.8"/>
     </g>
     <g id="line2d_64">
      <g>
       <use xlink:href="#mb6c9430343" x="44.7425" y="72.745226" style="stroke: #000000; stroke-width: 0.6"/>
      </g>
     </g>
    </g>
    <g id="ytick_17">
     <g id="line2d_65">
      <path d="M 44.7425 70.283983 
L 242.2745 70.283983 
" clip-path="url(#pec9ae2747d)" style="fill: none; stroke-dasharray: 2.96,1.28; stroke-dashoffset: 0; stroke: #f2f2f2; stroke-width: 0.8"/>
     </g>
     <g id="line2d_66">
      <g>
       <use xlink:href="#mb6c9430343" x="44.7425" y="70.283983" style="stroke: #000000; stroke-width: 0.6"/>
      </g>
     </g>
    </g>
    <g id="ytick_18">
     <g id="line2d_67">
      <path d="M 44.7425 53.598041 
L 242.2745 53.598041 
" clip-path="url(#pec9ae2747d)" style="fill: none; stroke-dasharray: 2.96,1.28; stroke-dashoffset: 0; stroke: #f2f2f2; stroke-width: 0.8"/>
     </g>
     <g id="line2d_68">
      <g>
       <use xlink:href="#mb6c9430343" x="44.7425" y="53.598041" style="stroke: #000000; stroke-width: 0.6"/>
      </g>
     </g>
    </g>
    <g id="ytick_19">
     <g id="line2d_69">
      <path d="M 44.7425 45.125277 
L 242.2745 45.125277 
" clip-path="url(#pec9ae2747d)" style="fill: none; stroke-dasharray: 2.96,1.28; stroke-dashoffset: 0; stroke: #f2f2f2; stroke-width: 0.8"/>
     </g>
     <g id="line2d_70">
      <g>
       <use xlink:href="#mb6c9430343" x="44.7425" y="45.125277" style="stroke: #000000; stroke-width: 0.6"/>
      </g>
     </g>
    </g>
    <g id="ytick_20">
     <g id="line2d_71">
      <path d="M 44.7425 39.113755 
L 242.2745 39.113755 
" clip-path="url(#pec9ae2747d)" style="fill: none; stroke-dasharray: 2.96,1.28; stroke-dashoffset: 0; stroke: #f2f2f2; stroke-width: 0.8"/>
     </g>
     <g id="line2d_72">
      <g>
       <use xlink:href="#mb6c9430343" x="44.7425" y="39.113755" style="stroke: #000000; stroke-width: 0.6"/>
      </g>
     </g>
    </g>
    <g id="ytick_21">
     <g id="line2d_73">
      <path d="M 44.7425 34.450857 
L 242.2745 34.450857 
" clip-path="url(#pec9ae2747d)" style="fill: none; stroke-dasharray: 2.96,1.28; stroke-dashoffset: 0; stroke: #f2f2f2; stroke-width: 0.8"/>
     </g>
     <g id="line2d_74">
      <g>
       <use xlink:href="#mb6c9430343" x="44.7425" y="34.450857" style="stroke: #000000; stroke-width: 0.6"/>
      </g>
     </g>
    </g>
    <g id="ytick_22">
     <g id="line2d_75">
      <path d="M 44.7425 30.640991 
L 242.2745 30.640991 
" clip-path="url(#pec9ae2747d)" style="fill: none; stroke-dasharray: 2.96,1.28; stroke-dashoffset: 0; stroke: #f2f2f2; stroke-width: 0.8"/>
     </g>
     <g id="line2d_76">
      <g>
       <use xlink:href="#mb6c9430343" x="44.7425" y="30.640991" style="stroke: #000000; stroke-width: 0.6"/>
      </g>
     </g>
    </g>
    <g id="ytick_23">
     <g id="line2d_77">
      <path d="M 44.7425 27.419796 
L 242.2745 27.419796 
" clip-path="url(#pec9ae2747d)" style="fill: none; stroke-dasharray: 2.96,1.28; stroke-dashoffset: 0; stroke: #f2f2f2; stroke-width: 0.8"/>
     </g>
     <g id="line2d_78">
      <g>
       <use xlink:href="#mb6c9430343" x="44.7425" y="27.419796" style="stroke: #000000; stroke-width: 0.6"/>
      </g>
     </g>
    </g>
    <g id="ytick_24">
     <g id="line2d_79">
      <path d="M 44.7425 24.629469 
L 242.2745 24.629469 
" clip-path="url(#pec9ae2747d)" style="fill: none; stroke-dasharray: 2.96,1.28; stroke-dashoffset: 0; stroke: #f2f2f2; stroke-width: 0.8"/>
     </g>
     <g id="line2d_80">
      <g>
       <use xlink:href="#mb6c9430343" x="44.7425" y="24.629469" style="stroke: #000000; stroke-width: 0.6"/>
      </g>
     </g>
    </g>
    <g id="ytick_25">
     <g id="line2d_81">
      <path d="M 44.7425 22.168227 
L 242.2745 22.168227 
" clip-path="url(#pec9ae2747d)" style="fill: none; stroke-dasharray: 2.96,1.28; stroke-dashoffset: 0; stroke: #f2f2f2; stroke-width: 0.8"/>
     </g>
     <g id="line2d_82">
      <g>
       <use xlink:href="#mb6c9430343" x="44.7425" y="22.168227" style="stroke: #000000; stroke-width: 0.6"/>
      </g>
     </g>
    </g>
    <g id="text_7">
     <!-- Spectral acceleration, SA (g) -->
     <g transform="translate(13.27875 129.871075) rotate(-90) scale(0.08 -0.08)">
      <defs>
       <path id="DejaVuSans-53" d="M 3425 4513 
L 3425 3897 
Q 3066 4069 2747 4153 
Q 2428 4238 2131 4238 
Q 1616 4238 1336 4038 
Q 1056 3838 1056 3469 
Q 1056 3159 1242 3001 
Q 1428 2844 1947 2747 
L 2328 2669 
Q 3034 2534 3370 2195 
Q 3706 1856 3706 1288 
Q 3706 609 3251 259 
Q 2797 -91 1919 -91 
Q 1588 -91 1214 -16 
Q 841 59 441 206 
L 441 856 
Q 825 641 1194 531 
Q 1563 422 1919 422 
Q 2459 422 2753 634 
Q 3047 847 3047 1241 
Q 3047 1584 2836 1778 
Q 2625 1972 2144 2069 
L 1759 2144 
Q 1053 2284 737 2584 
Q 422 2884 422 3419 
Q 422 4038 858 4394 
Q 1294 4750 2059 4750 
Q 2388 4750 2728 4690 
Q 3069 4631 3425 4513 
z
" transform="scale(0.015625)"/>
       <path id="DejaVuSans-70" d="M 1159 525 
L 1159 -1331 
L 581 -1331 
L 581 3500 
L 1159 3500 
L 1159 2969 
Q 1341 3281 1617 3432 
Q 1894 3584 2278 3584 
Q 2916 3584 3314 3078 
Q 3713 2572 3713 1747 
Q 3713 922 3314 415 
Q 2916 -91 2278 -91 
Q 1894 -91 1617 61 
Q 1341 213 1159 525 
z
M 3116 1747 
Q 3116 2381 2855 2742 
Q 2594 3103 2138 3103 
Q 1681 3103 1420 2742 
Q 1159 2381 1159 1747 
Q 1159 1113 1420 752 
Q 1681 391 2138 391 
Q 2594 391 2855 752 
Q 3116 1113 3116 1747 
z
" transform="scale(0.015625)"/>
       <path id="DejaVuSans-63" d="M 3122 3366 
L 3122 2828 
Q 2878 2963 2633 3030 
Q 2388 3097 2138 3097 
Q 1578 3097 1268 2742 
Q 959 2388 959 1747 
Q 959 1106 1268 751 
Q 1578 397 2138 397 
Q 2388 397 2633 464 
Q 2878 531 3122 666 
L 3122 134 
Q 2881 22 2623 -34 
Q 2366 -91 2075 -91 
Q 1284 -91 818 406 
Q 353 903 353 1747 
Q 353 2603 823 3093 
Q 1294 3584 2113 3584 
Q 2378 3584 2631 3529 
Q 2884 3475 3122 3366 
z
" transform="scale(0.015625)"/>
       <path id="DejaVuSans-74" d="M 1172 4494 
L 1172 3500 
L 2356 3500 
L 2356 3053 
L 1172 3053 
L 1172 1153 
Q 1172 725 1289 603 
Q 1406 481 1766 481 
L 2356 481 
L 2356 0 
L 1766 0 
Q 1100 0 847 248 
Q 594 497 594 1153 
L 594 3053 
L 172 3053 
L 172 3500 
L 594 3500 
L 594 4494 
L 1172 4494 
z
" transform="scale(0.015625)"/>
       <path id="DejaVuSans-61" d="M 2194 1759 
Q 1497 1759 1228 1600 
Q 959 1441 959 1056 
Q 959 750 1161 570 
Q 1363 391 1709 391 
Q 2188 391 2477 730 
Q 2766 1069 2766 1631 
L 2766 1759 
L 2194 1759 
z
M 3341 1997 
L 3341 0 
L 2766 0 
L 2766 531 
Q 2569 213 2275 61 
Q 1981 -91 1556 -91 
Q 1019 -91 701 211 
Q 384 513 384 1019 
Q 384 1609 779 1909 
Q 1175 2209 1959 2209 
L 2766 2209 
L 2766 2266 
Q 2766 2663 2505 2880 
Q 2244 3097 1772 3097 
Q 1472 3097 1187 3025 
Q 903 2953 641 2809 
L 641 3341 
Q 956 3463 1253 3523 
Q 1550 3584 1831 3584 
Q 2591 3584 2966 3190 
Q 3341 2797 3341 1997 
z
" transform="scale(0.015625)"/>
       <path id="DejaVuSans-6c" d="M 603 4863 
L 1178 4863 
L 1178 0 
L 603 0 
L 603 4863 
z
" transform="scale(0.015625)"/>
       <path id="DejaVuSans-6e" d="M 3513 2113 
L 3513 0 
L 2938 0 
L 2938 2094 
Q 2938 2591 2744 2837 
Q 2550 3084 2163 3084 
Q 1697 3084 1428 2787 
Q 1159 2491 1159 1978 
L 1159 0 
L 581 0 
L 581 3500 
L 1159 3500 
L 1159 2956 
Q 1366 3272 1645 3428 
Q 1925 3584 2291 3584 
Q 2894 3584 3203 3211 
Q 3513 2838 3513 2113 
z
" transform="scale(0.015625)"/>
       <path id="DejaVuSans-41" d="M 2188 4044 
L 1331 1722 
L 3047 1722 
L 2188 4044 
z
M 1831 4666 
L 2547 4666 
L 4325 0 
L 3669 0 
L 3244 1197 
L 1141 1197 
L 716 0 
L 50 0 
L 1831 4666 
z
" transform="scale(0.015625)"/>
       <path id="DejaVuSans-67" d="M 2906 1791 
Q 2906 2416 2648 2759 
Q 2391 3103 1925 3103 
Q 1463 3103 1205 2759 
Q 947 2416 947 1791 
Q 947 1169 1205 825 
Q 1463 481 1925 481 
Q 2391 481 2648 825 
Q 2906 1169 2906 1791 
z
M 3481 434 
Q 3481 -459 3084 -895 
Q 2688 -1331 1869 -1331 
Q 1566 -1331 1297 -1286 
Q 1028 -1241 775 -1147 
L 775 -588 
Q 1028 -725 1275 -790 
Q 1522 -856 1778 -856 
Q 2344 -856 2625 -561 
Q 2906 -266 2906 331 
L 2906 616 
Q 2728 306 2450 153 
Q 2172 0 1784 0 
Q 1141 0 747 490 
Q 353 981 353 1791 
Q 353 2603 747 3093 
Q 1141 3584 1784 3584 
Q 2172 3584 2450 3431 
Q 2728 3278 2906 2969 
L 2906 3500 
L 3481 3500 
L 3481 434 
z
" transform="scale(0.015625)"/>
      </defs>
      <use xlink:href="#DejaVuSans-53"/>
      <use xlink:href="#DejaVuSans-70" x="63.476562"/>
      <use xlink:href="#DejaVuSans-65" x="126.953125"/>
      <use xlink:href="#DejaVuSans-63" x="188.476562"/>
      <use xlink:href="#DejaVuSans-74" x="243.457031"/>
      <use xlink:href="#DejaVuSans-72" x="282.666016"/>
      <use xlink:href="#DejaVuSans-61" x="323.779297"/>
      <use xlink:href="#DejaVuSans-6c" x="385.058594"/>
      <use xlink:href="#DejaVuSans-20" x="412.841797"/>
      <use xlink:href="#DejaVuSans-61" x="444.628906"/>
      <use xlink:href="#DejaVuSans-63" x="505.908203"/>
      <use xlink:href="#DejaVuSans-63" x="560.888672"/>
      <use xlink:href="#DejaVuSans-65" x="615.869141"/>
      <use xlink:href="#DejaVuSans-6c" x="677.392578"/>
      <use xlink:href="#DejaVuSans-65" x="705.175781"/>
      <use xlink:href="#DejaVuSans-72" x="766.699219"/>
      <use xlink:href="#DejaVuSans-61" x="807.8125"/>
      <use xlink:href="#DejaVuSans-74" x="869.091797"/>
      <use xlink:href="#DejaVuSans-69" x="908.300781"/>
      <use xlink:href="#DejaVuSans-6f" x="936.083984"/>
      <use xlink:href="#DejaVuSans-6e" x="997.265625"/>
      <use xlink:href="#DejaVuSans-2c" x="1060.644531"/>
      <use xlink:href="#DejaVuSans-20" x="1092.431641"/>
      <use xlink:href="#DejaVuSans-53" x="1124.21875"/>
      <use xlink:href="#DejaVuSans-41" x="1189.570312"/>
      <use xlink:href="#DejaVuSans-20" x="1257.978516"/>
      <use xlink:href="#DejaVuSans-28" x="1289.765625"/>
      <use xlink:href="#DejaVuSans-67" x="1328.779297"/>
      <use xlink:href="#DejaVuSans-29" x="1392.255859"/>
     </g>
    </g>
   </g>
   <g id="line2d_83">
    <path d="M 53.721227 64.358184 
L 72.333391 63.723735 
L 85.538931 62.029392 
L 95.781944 61.966511 
L 104.151095 59.925981 
L 117.356635 59.111362 
L 126.011788 52.578502 
L 127.599648 52.390639 
L 146.211812 52.453047 
L 159.417352 38.965175 
L 171.460723 43.79516 
L 178.029516 36.179802 
L 191.235056 40.670614 
L 209.84722 76.497753 
L 223.05276 84.308023 
L 233.295773 94.427014 
" clip-path="url(#pec9ae2747d)" style="fill: none; stroke: #b2b2b2; stroke-width: 0.8; stroke-linecap: square"/>
   </g>
   <g id="line2d_84">
    <path d="M 53.721227 62.331309 
L 72.333391 55.767351 
L 85.538931 60.732276 
L 95.781944 62.228601 
L 104.151095 56.245874 
L 117.356635 56.211842 
L 126.011788 52.578502 
L 127.599648 51.215192 
L 146.211812 51.453733 
L 159.417352 44.205044 
L 171.460723 49.087497 
L 178.029516 56.973771 
L 191.235056 67.677833 
L 209.84722 76.947693 
L 223.05276 79.667556 
L 233.295773 89.882687 
" clip-path="url(#pec9ae2747d)" style="fill: none; stroke: #b2b2b2; stroke-width: 0.8; stroke-linecap: square"/>
   </g>
   <g id="line2d_85">
    <path d="M 53.721227 45.118626 
L 72.333391 36.420482 
L 85.538931 32.471287 
L 95.781944 35.197869 
L 104.151095 37.038278 
L 117.356635 49.907468 
L 126.011788 52.578502 
L 127.599648 54.310595 
L 146.211812 74.255201 
L 159.417352 77.240886 
L 171.460723 88.991162 
L 178.029516 88.252742 
L 191.235056 86.020057 
L 209.84722 86.694437 
L 223.05276 90.431064 
L 233.295773 95.411811 
" clip-path="url(#pec9ae2747d)" style="fill: none; stroke: #b2b2b2; stroke-width: 0.8; stroke-linecap: square"/>
   </g>
   <g id="line2d_86">
    <path d="M 53.721227 38.448164 
L 72.333391 43.529339 
L 85.538931 55.327023 
L 95.781944 55.044855 
L 104.151095 59.040476 
L 117.356635 57.516592 
L 126.011788 52.578502 
L 127.599648 52.289843 
L 146.211812 57.428457 
L 159.417352 52.107031 
L 171.460723 64.113351 
L 178.029516 63.678542 
L 191.235056 67.73468 
L 209.84722 74.305224 
L 223.05276 92.905631 
L 233.295773 101.176391 
" clip-path="url(#pec9ae2747d)" style="fill: none; stroke: #b2b2b2; stroke-width: 0.8; stroke-linecap: square"/>
   </g>
   <g id="line2d_87">
    <path d="M 53.721227 39.461039 
L 72.333391 43.546964 
L 85.538931 38.1615 
L 95.781944 35.800337 
L 104.151095 45.061 
L 117.356635 54.379796 
L 126.011788 52.578502 
L 127.599648 51.079653 
L 146.211812 62.14152 
L 159.417352 55.78612 
L 171.460723 57.561138 
L 178.029516 60.566914 
L 191.235056 64.711949 
L 209.84722 81.590605 
L 223.05276 90.116956 
L 233.295773 94.331195 
" clip-path="url(#pec9ae2747d)" style="fill: none; stroke: #b2b2b2; stroke-width: 0.8; stroke-linecap: square"/>
   </g>
   <g id="line2d_88">
    <path d="M 53.721227 40.670191 
L 72.333391 30.222561 
L 85.538931 31.443037 
L 95.781944 35.47115 
L 104.151095 43.92506 
L 117.356635 52.128772 
L 126.011788 52.578502 
L 127.599648 51.591124 
L 146.211812 44.570944 
L 159.417352 40.950809 
L 171.460723 53.160154 
L 178.029516 58.012944 
L 191.235056 72.596872 
L 209.84722 84.378231 
L 223.05276 89.516196 
L 233.295773 100.839696 
" clip-path="url(#pec9ae2747d)" style="fill: none; stroke: #b2b2b2; stroke-width: 0.8; stroke-linecap: square"/>
   </g>
   <g id="line2d_89">
    <path d="M 53.721227 27.832439 
L 72.333391 18.240296 
L 85.538931 13.1472 
L 95.781944 29.067957 
L 104.151095 46.379644 
L 117.356635 50.137638 
L 126.011788 52.578502 
L 127.599648 52.562743 
L 146.211812 56.738933 
L 159.417352 62.114654 
L 171.460723 61.687312 
L 178.029516 54.954007 
L 191.235056 61.985374 
L 209.84722 89.073127 
L 223.05276 93.789964 
L 233.295773 102.852954 
" clip-path="url(#pec9ae2747d)" style="fill: none; stroke: #b2b2b2; stroke-width: 0.8; stroke-linecap: square"/>
   </g>
   <g id="line2d_90">
    <path d="M 53.721227 35.703489 
L 72.333391 35.112864 
L 85.538931 28.514328 
L 95.781944 34.733134 
L 104.151095 32.632002 
L 117.356635 44.860068 
L 126.011788 52.578502 
L 127.599648 51.992095 
L 146.211812 59.16732 
L 159.417352 62.625575 
L 171.460723 71.232996 
L 178.029516 68.298808 
L 191.235056 65.12136 
L 209.84722 71.276272 
L 223.05276 85.570373 
L 233.295773 94.37123 
" clip-path="url(#pec9ae2747d)" style="fill: none; stroke: #b2b2b2; stroke-width: 0.8; stroke-linecap: square"/>
   </g>
   <g id="line2d_91">
    <path d="M 53.721227 43.737592 
L 72.333391 38.088815 
L 85.538931 48.50134 
L 95.781944 42.682854 
L 104.151095 34.778465 
L 117.356635 51.192211 
L 126.011788 52.578502 
L 127.599648 53.094225 
L 146.211812 60.597989 
L 159.417352 55.595174 
L 171.460723 70.980823 
L 178.029516 65.976414 
L 191.235056 60.669912 
L 209.84722 65.431338 
L 223.05276 83.175849 
L 233.295773 99.86524 
" clip-path="url(#pec9ae2747d)" style="fill: none; stroke: #b2b2b2; stroke-width: 0.8; stroke-linecap: square"/>
   </g>
   <g id="line2d_92">
    <path d="M 53.721227 38.340231 
L 72.333391 26.22691 
L 85.538931 28.04307 
L 95.781944 37.710258 
L 104.151095 33.416383 
L 117.356635 50.809903 
L 126.011788 52.578502 
L 127.599648 54.445041 
L 146.211812 70.716914 
L 159.417352 66.59974 
L 171.460723 73.832648 
L 178.029516 72.225777 
L 191.235056 70.808657 
L 209.84722 77.631119 
L 223.05276 90.199418 
L 233.295773 91.01893 
" clip-path="url(#pec9ae2747d)" style="fill: none; stroke: #b2b2b2; stroke-width: 0.8; stroke-linecap: square"/>
   </g>
   <g id="line2d_93">
    <path d="M 53.721227 46.713283 
L 72.333391 38.403975 
L 85.538931 36.380034 
L 95.781944 45.545324 
L 104.151095 43.77973 
L 117.356635 38.187921 
L 126.011788 52.578502 
L 127.599648 54.359471 
L 146.211812 60.940602 
L 159.417352 64.14894 
L 171.460723 53.046055 
L 178.029516 61.87489 
L 191.235056 67.588452 
L 209.84722 76.549241 
L 223.05276 91.987424 
L 233.295773 92.705551 
" clip-path="url(#pec9ae2747d)" style="fill: none; stroke: #b2b2b2; stroke-width: 0.8; stroke-linecap: square"/>
   </g>
   <g id="line2d_94">
    <path d="M 53.721227 43.603289 
L 72.333391 32.990961 
L 85.538931 36.081025 
L 95.781944 45.986856 
L 104.151095 49.532787 
L 117.356635 54.049526 
L 126.011788 52.578502 
L 127.599648 53.797257 
L 146.211812 49.812345 
L 159.417352 51.799637 
L 171.460723 66.095465 
L 178.029516 69.638152 
L 191.235056 78.796944 
L 209.84722 87.944754 
L 223.05276 89.057189 
L 233.295773 100.278325 
" clip-path="url(#pec9ae2747d)" style="fill: none; stroke: #b2b2b2; stroke-width: 0.8; stroke-linecap: square"/>
   </g>
   <g id="line2d_95">
    <path d="M 53.721227 53.040533 
L 72.333391 48.71388 
L 85.538931 48.244796 
L 95.781944 43.749189 
L 104.151095 49.45829 
L 117.356635 51.396429 
L 126.011788 52.578502 
L 127.599648 51.623176 
L 146.211812 57.80911 
L 159.417352 58.828987 
L 171.460723 63.214168 
L 178.029516 63.530146 
L 191.235056 60.384602 
L 209.84722 81.273426 
L 223.05276 89.431367 
L 233.295773 96.380974 
" clip-path="url(#pec9ae2747d)" style="fill: none; stroke: #b2b2b2; stroke-width: 0.8; stroke-linecap: square"/>
   </g>
   <g id="line2d_96">
    <path d="M 53.721227 41.605924 
L 72.333391 49.914793 
L 85.538931 48.723383 
L 95.781944 50.905889 
L 104.151095 59.46866 
L 117.356635 55.180763 
L 126.011788 52.578502 
L 127.599648 52.567518 
L 146.211812 59.53764 
L 159.417352 57.132844 
L 171.460723 51.524405 
L 178.029516 56.473048 
L 191.235056 73.481033 
L 209.84722 69.542315 
L 223.05276 80.113038 
L 233.295773 91.002969 
" clip-path="url(#pec9ae2747d)" style="fill: none; stroke: #b2b2b2; stroke-width: 0.8; stroke-linecap: square"/>
   </g>
   <g id="line2d_97">
    <path d="M 53.721227 57.747043 
L 72.333391 51.766833 
L 85.538931 53.824532 
L 95.781944 49.240788 
L 104.151095 53.967661 
L 117.356635 58.166837 
L 126.011788 52.578502 
L 127.599648 49.46456 
L 146.211812 56.459164 
L 159.417352 53.366755 
L 171.460723 51.652012 
L 178.029516 64.50657 
L 191.235056 79.664945 
L 209.84722 85.973903 
L 223.05276 93.45911 
L 233.295773 96.491793 
" clip-path="url(#pec9ae2747d)" style="fill: none; stroke: #b2b2b2; stroke-width: 0.8; stroke-linecap: square"/>
   </g>
   <g id="line2d_98">
    <path d="M 53.721227 39.743828 
L 72.333391 36.609885 
L 85.538931 39.021011 
L 95.781944 43.120265 
L 104.151095 46.07797 
L 117.356635 52.036345 
L 126.011788 52.578502 
L 127.599648 57.808713 
L 146.211812 66.835798 
L 159.417352 72.402515 
L 171.460723 79.948289 
L 178.029516 83.844979 
L 191.235056 86.676806 
L 209.84722 99.414135 
L 223.05276 97.36347 
L 233.295773 106.932019 
" clip-path="url(#pec9ae2747d)" style="fill: none; stroke: #b2b2b2; stroke-width: 0.8; stroke-linecap: square"/>
   </g>
   <g id="line2d_99">
    <path d="M 53.721227 50.046287 
L 72.333391 49.493448 
L 85.538931 40.543195 
L 95.781944 38.701157 
L 104.151095 43.629238 
L 117.356635 49.443833 
L 126.011788 52.578502 
L 127.599648 51.419753 
L 146.211812 56.299994 
L 159.417352 58.4433 
L 171.460723 65.191184 
L 178.029516 65.546379 
L 191.235056 62.425707 
L 209.84722 68.180085 
L 223.05276 85.731517 
L 233.295773 94.938345 
" clip-path="url(#pec9ae2747d)" style="fill: none; stroke: #b2b2b2; stroke-width: 0.8; stroke-linecap: square"/>
   </g>
   <g id="line2d_100">
    <path d="M 53.721227 48.122418 
L 72.333391 35.966343 
L 85.538931 39.023207 
L 95.781944 40.650738 
L 104.151095 40.40534 
L 117.356635 47.112618 
L 126.011788 52.578502 
L 127.599648 48.907958 
L 146.211812 54.344852 
L 159.417352 53.245217 
L 171.460723 53.568625 
L 178.029516 59.183067 
L 191.235056 66.914589 
L 209.84722 98.741861 
L 223.05276 96.319817 
L 233.295773 102.378742 
" clip-path="url(#pec9ae2747d)" style="fill: none; stroke: #b2b2b2; stroke-width: 0.8; stroke-linecap: square"/>
   </g>
   <g id="line2d_101">
    <path d="M 53.721227 52.786576 
L 72.333391 44.781957 
L 85.538931 50.036704 
L 95.781944 39.214603 
L 104.151095 45.132746 
L 117.356635 51.025323 
L 126.011788 52.578502 
L 127.599648 52.219374 
L 146.211812 51.229678 
L 159.417352 55.927349 
L 171.460723 57.05692 
L 178.029516 57.995405 
L 191.235056 56.118166 
L 209.84722 72.283443 
L 223.05276 83.108477 
L 233.295773 89.186767 
" clip-path="url(#pec9ae2747d)" style="fill: none; stroke: #b2b2b2; stroke-width: 0.8; stroke-linecap: square"/>
   </g>
   <g id="line2d_102">
    <path d="M 53.721227 57.765231 
L 72.333391 42.347873 
L 85.538931 42.320082 
L 95.781944 50.169902 
L 104.151095 46.067887 
L 117.356635 48.272795 
L 126.011788 52.578502 
L 127.599648 56.395253 
L 146.211812 63.095149 
L 159.417352 71.411379 
L 171.460723 61.32693 
L 178.029516 66.280662 
L 191.235056 76.331879 
L 209.84722 93.74994 
L 223.05276 98.806583 
L 233.295773 94.576471 
" clip-path="url(#pec9ae2747d)" style="fill: none; stroke: #b2b2b2; stroke-width: 0.8; stroke-linecap: square"/>
   </g>
   <g id="line2d_103">
    <path d="M 53.721227 58.093981 
L 72.333391 54.334047 
L 85.538931 46.853792 
L 95.781944 54.101067 
L 104.151095 50.826474 
L 117.356635 55.175391 
L 126.011788 52.578502 
L 127.599648 49.789435 
L 146.211812 56.839922 
L 159.417352 71.189362 
L 171.460723 76.93361 
L 178.029516 75.51137 
L 191.235056 79.125375 
L 209.84722 96.362441 
L 223.05276 102.258359 
L 233.295773 108.620933 
" clip-path="url(#pec9ae2747d)" style="fill: none; stroke: #b2b2b2; stroke-width: 0.8; stroke-linecap: square"/>
   </g>
   <g id="line2d_104">
    <path d="M 53.721227 57.262649 
L 72.333391 46.196405 
L 85.538931 46.682418 
L 95.781944 53.086728 
L 104.151095 39.729273 
L 117.356635 54.104268 
L 126.011788 52.578502 
L 127.599648 51.181016 
L 146.211812 52.296068 
L 159.417352 50.380115 
L 171.460723 40.522987 
L 178.029516 42.375701 
L 191.235056 51.219095 
L 209.84722 58.140853 
L 223.05276 77.718455 
L 233.295773 81.456319 
" clip-path="url(#pec9ae2747d)" style="fill: none; stroke: #b2b2b2; stroke-width: 0.8; stroke-linecap: square"/>
   </g>
   <g id="line2d_105">
    <path d="M 53.721227 50.573536 
L 72.333391 53.572071 
L 85.538931 55.20289 
L 95.781944 54.83655 
L 104.151095 55.778226 
L 117.356635 54.18215 
L 126.011788 52.578502 
L 127.599648 51.779308 
L 146.211812 38.67203 
L 159.417352 50.436007 
L 171.460723 56.313295 
L 178.029516 62.607717 
L 191.235056 65.300521 
L 209.84722 74.481294 
L 223.05276 82.14316 
L 233.295773 88.986812 
" clip-path="url(#pec9ae2747d)" style="fill: none; stroke: #b2b2b2; stroke-width: 0.8; stroke-linecap: square"/>
   </g>
   <g id="line2d_106">
    <path d="M 53.721227 47.919479 
L 72.333391 53.962065 
L 85.538931 45.985255 
L 95.781944 46.350251 
L 104.151095 48.249812 
L 117.356635 50.450959 
L 126.011788 52.578502 
L 127.599648 51.136605 
L 146.211812 66.456654 
L 159.417352 68.979775 
L 171.460723 71.013796 
L 178.029516 73.215166 
L 191.235056 78.001116 
L 209.84722 95.942508 
L 223.05276 113.161394 
L 233.295773 106.256614 
" clip-path="url(#pec9ae2747d)" style="fill: none; stroke: #b2b2b2; stroke-width: 0.8; stroke-linecap: square"/>
   </g>
   <g id="line2d_107">
    <path d="M 53.721227 41.766216 
L 72.333391 42.835047 
L 85.538931 43.882933 
L 95.781944 40.707 
L 104.151095 39.580936 
L 117.356635 42.650967 
L 126.011788 52.578502 
L 127.599648 51.30032 
L 146.211812 65.926537 
L 159.417352 71.042862 
L 171.460723 80.085995 
L 178.029516 84.524765 
L 191.235056 94.160432 
L 209.84722 105.473279 
L 223.05276 118.003717 
L 233.295773 132.0912 
" clip-path="url(#pec9ae2747d)" style="fill: none; stroke: #b2b2b2; stroke-width: 0.8; stroke-linecap: square"/>
   </g>
   <g id="line2d_108">
    <path d="M 53.721227 47.546448 
L 72.333391 48.518776 
L 85.538931 41.460782 
L 95.781944 41.890221 
L 104.151095 43.305365 
L 117.356635 42.626096 
L 126.011788 52.578502 
L 127.599648 53.249777 
L 146.211812 54.99565 
L 159.417352 50.607225 
L 171.460723 73.360509 
L 178.029516 72.711407 
L 191.235056 77.63713 
L 209.84722 82.894554 
L 223.05276 103.547989 
L 233.295773 109.359353 
" clip-path="url(#pec9ae2747d)" style="fill: none; stroke: #b2b2b2; stroke-width: 0.8; stroke-linecap: square"/>
   </g>
   <g id="line2d_109">
    <path d="M 53.721227 52.483147 
L 72.333391 40.343753 
L 85.538931 39.77306 
L 95.781944 43.013138 
L 104.151095 48.397347 
L 117.356635 47.449782 
L 126.011788 52.578502 
L 127.599648 55.739449 
L 146.211812 58.909448 
L 159.417352 54.218214 
L 171.460723 59.695975 
L 178.029516 63.946583 
L 191.235056 66.586762 
L 209.84722 80.940968 
L 223.05276 90.89246 
L 233.295773 95.813229 
" clip-path="url(#pec9ae2747d)" style="fill: none; stroke: #b2b2b2; stroke-width: 0.8; stroke-linecap: square"/>
   </g>
   <g id="line2d_110">
    <path d="M 53.721227 51.832348 
L 72.333391 44.783618 
L 85.538931 41.848968 
L 95.781944 48.89834 
L 104.151095 53.097793 
L 117.356635 52.078913 
L 126.011788 52.578502 
L 127.599648 52.934105 
L 146.211812 55.298709 
L 159.417352 61.998624 
L 171.460723 59.225224 
L 178.029516 62.539614 
L 191.235056 71.101686 
L 209.84722 71.191367 
L 223.05276 86.288049 
L 233.295773 98.903187 
" clip-path="url(#pec9ae2747d)" style="fill: none; stroke: #b2b2b2; stroke-width: 0.8; stroke-linecap: square"/>
   </g>
   <g id="line2d_111">
    <path d="M 53.721227 68.040991 
L 72.333391 65.519382 
L 85.538931 58.20739 
L 95.781944 56.149543 
L 104.151095 51.648413 
L 117.356635 51.615953 
L 126.011788 52.578502 
L 127.599648 55.119824 
L 146.211812 52.045655 
L 159.417352 52.312322 
L 171.460723 58.551765 
L 178.029516 64.341429 
L 191.235056 70.695112 
L 209.84722 72.63862 
L 223.05276 77.438197 
L 233.295773 89.35258 
" clip-path="url(#pec9ae2747d)" style="fill: none; stroke: #b2b2b2; stroke-width: 0.8; stroke-linecap: square"/>
   </g>
   <g id="line2d_112">
    <path d="M 53.721227 56.295946 
L 72.333391 51.456014 
L 85.538931 46.566487 
L 95.781944 45.853567 
L 104.151095 49.409576 
L 117.356635 52.508837 
L 126.011788 52.578502 
L 127.599648 50.253749 
L 146.211812 61.94234 
L 159.417352 68.551827 
L 171.460723 74.297001 
L 178.029516 76.068812 
L 191.235056 79.461006 
L 209.84722 93.429402 
L 223.05276 106.211025 
L 233.295773 119.609546 
" clip-path="url(#pec9ae2747d)" style="fill: none; stroke: #b2b2b2; stroke-width: 0.8; stroke-linecap: square"/>
   </g>
   <g id="line2d_113">
    <path d="M 53.721227 18.813792 
L 72.333391 15.194956 
L 85.538931 20.029388 
L 95.781944 29.137193 
L 104.151095 33.172928 
L 117.356635 43.482486 
L 126.011788 52.578502 
L 127.599648 54.484348 
L 146.211812 53.802109 
L 159.417352 61.443488 
L 171.460723 65.677055 
L 178.029516 75.338757 
L 191.235056 88.895702 
L 209.84722 87.903987 
L 223.05276 88.927103 
L 233.295773 88.29123 
" clip-path="url(#pec9ae2747d)" style="fill: none; stroke: #b2b2b2; stroke-width: 0.8; stroke-linecap: square"/>
   </g>
   <g id="line2d_114">
    <path d="M 53.721227 53.999298 
L 72.333391 61.367995 
L 85.538931 52.176269 
L 95.781944 55.499606 
L 104.151095 54.697894 
L 117.356635 52.521396 
L 126.011788 52.578502 
L 127.599648 53.548622 
L 146.211812 59.890332 
L 159.417352 65.602362 
L 171.460723 66.175898 
L 178.029516 65.102685 
L 191.235056 70.347249 
L 209.84722 81.602293 
L 223.05276 76.067267 
L 233.295773 87.779177 
" clip-path="url(#pec9ae2747d)" style="fill: none; stroke: #b2b2b2; stroke-width: 0.8; stroke-linecap: square"/>
   </g>
   <g id="line2d_115">
    <path d="M 53.721227 34.605259 
L 72.333391 33.076077 
L 85.538931 34.536117 
L 95.781944 35.495432 
L 104.151095 43.40431 
L 117.356635 44.031505 
L 126.011788 52.578502 
L 127.599648 54.363724 
L 146.211812 49.431915 
L 159.417352 63.125752 
L 171.460723 64.489072 
L 178.029516 55.206554 
L 191.235056 71.905784 
L 209.84722 72.882717 
L 223.05276 76.326048 
L 233.295773 70.28532 
" clip-path="url(#pec9ae2747d)" style="fill: none; stroke: #b2b2b2; stroke-width: 0.8; stroke-linecap: square"/>
   </g>
   <g id="line2d_116">
    <path d="M 53.721227 47.058733 
L 72.333391 38.088895 
L 85.538931 45.496947 
L 95.781944 42.591535 
L 104.151095 43.625143 
L 117.356635 51.811502 
L 126.011788 52.578502 
L 127.599648 53.988727 
L 146.211812 56.537973 
L 159.417352 54.009212 
L 171.460723 68.508737 
L 178.029516 63.384251 
L 191.235056 62.324551 
L 209.84722 89.204471 
L 223.05276 97.805175 
L 233.295773 103.517073 
" clip-path="url(#pec9ae2747d)" style="fill: none; stroke: #b2b2b2; stroke-width: 0.8; stroke-linecap: square"/>
   </g>
   <g id="line2d_117">
    <path d="M 53.721227 38.692537 
L 72.333391 29.637016 
L 85.538931 41.681048 
L 95.781944 38.912796 
L 104.151095 43.074509 
L 117.356635 41.324795 
L 126.011788 52.578502 
L 127.599648 53.567032 
L 146.211812 53.426234 
L 159.417352 66.929318 
L 171.460723 62.941562 
L 178.029516 63.125442 
L 191.235056 68.243033 
L 209.84722 75.735676 
L 223.05276 90.944638 
L 233.295773 101.513301 
" clip-path="url(#pec9ae2747d)" style="fill: none; stroke: #b2b2b2; stroke-width: 0.8; stroke-linecap: square"/>
   </g>
   <g id="line2d_118">
    <path d="M 53.721227 46.891172 
L 72.333391 42.12604 
L 85.538931 51.382246 
L 95.781944 46.522785 
L 104.151095 53.415611 
L 117.356635 52.315825 
L 126.011788 52.578502 
L 127.599648 56.879866 
L 146.211812 55.75023 
L 159.417352 59.549002 
L 171.460723 73.313702 
L 178.029516 74.149793 
L 191.235056 80.462112 
L 209.84722 78.496581 
L 223.05276 77.766748 
L 233.295773 75.921672 
" clip-path="url(#pec9ae2747d)" style="fill: none; stroke: #b2b2b2; stroke-width: 0.8; stroke-linecap: square"/>
   </g>
   <g id="line2d_119">
    <path d="M 53.721227 50.108376 
L 72.333391 45.316358 
L 85.538931 36.111954 
L 95.781944 26.848418 
L 104.151095 21.74322 
L 117.356635 37.537968 
L 126.011788 52.578502 
L 127.599648 53.226308 
L 146.211812 51.87578 
L 159.417352 70.766686 
L 171.460723 76.085589 
L 178.029516 75.120941 
L 191.235056 78.642384 
L 209.84722 80.263848 
L 223.05276 89.283005 
L 233.295773 86.208303 
" clip-path="url(#pec9ae2747d)" style="fill: none; stroke: #b2b2b2; stroke-width: 0.8; stroke-linecap: square"/>
   </g>
   <g id="line2d_120">
    <path d="M 53.721227 24.707185 
L 72.333391 21.744914 
L 85.538931 21.304176 
L 95.781944 28.272218 
L 104.151095 40.352473 
L 117.356635 49.147099 
L 126.011788 52.578502 
L 127.599648 53.092586 
L 146.211812 45.58749 
L 159.417352 47.201896 
L 171.460723 50.04136 
L 178.029516 49.489452 
L 191.235056 49.733087 
L 209.84722 51.028856 
L 223.05276 47.280373 
L 233.295773 64.55109 
" clip-path="url(#pec9ae2747d)" style="fill: none; stroke: #b2b2b2; stroke-width: 0.8; stroke-linecap: square"/>
   </g>
   <g id="line2d_121">
    <path d="M 53.721227 56.327627 
L 72.333391 47.952387 
L 85.538931 47.381858 
L 95.781944 49.87911 
L 104.151095 39.749206 
L 117.356635 49.484792 
L 126.011788 52.578502 
L 127.599648 54.432565 
L 146.211812 40.506783 
L 159.417352 40.409977 
L 171.460723 41.89478 
L 178.029516 48.39362 
L 191.235056 62.523852 
L 209.84722 72.758284 
L 223.05276 71.565269 
L 233.295773 83.90168 
" clip-path="url(#pec9ae2747d)" style="fill: none; stroke: #b2b2b2; stroke-width: 0.8; stroke-linecap: square"/>
   </g>
   <g id="line2d_122">
    <path d="M 53.721227 45.474177 
L 72.333391 43.277637 
L 85.538931 36.539421 
L 95.781944 28.767637 
L 104.151095 34.029938 
L 117.356635 43.990336 
L 126.011788 52.578502 
L 127.599648 52.538921 
L 146.211812 58.865014 
L 159.417352 62.654056 
L 171.460723 62.791507 
L 178.029516 72.27097 
L 191.235056 88.319687 
L 209.84722 90.884196 
L 223.05276 104.655888 
L 233.295773 113.682086 
" clip-path="url(#pec9ae2747d)" style="fill: none; stroke: #b2b2b2; stroke-width: 0.8; stroke-linecap: square"/>
   </g>
   <g id="line2d_123">
    <path d="M 53.721227 16.348352 
L 72.333391 22.833411 
L 85.538931 37.173844 
L 95.781944 43.101271 
L 104.151095 49.915047 
L 117.356635 53.31521 
L 126.011788 52.578502 
L 127.599648 51.377726 
L 146.211812 59.465637 
L 159.417352 59.369245 
L 171.460723 61.527118 
L 178.029516 67.968492 
L 191.235056 81.712406 
L 209.84722 83.678359 
L 223.05276 90.09785 
L 233.295773 95.002754 
" clip-path="url(#pec9ae2747d)" style="fill: none; stroke: #b2b2b2; stroke-width: 0.8; stroke-linecap: square"/>
   </g>
   <g id="line2d_124">
    <path d="M 53.721227 36.353477 
L 72.333391 40.408852 
L 85.538931 33.55099 
L 95.781944 38.284476 
L 104.151095 43.964709 
L 117.356635 47.36952 
L 126.011788 52.578502 
L 127.599648 57.600066 
L 146.211812 61.650478 
L 159.417352 60.957626 
L 171.460723 61.622446 
L 178.029516 63.357313 
L 191.235056 72.904499 
L 209.84722 64.481505 
L 223.05276 76.222606 
L 233.295773 94.537339 
" clip-path="url(#pec9ae2747d)" style="fill: none; stroke: #b2b2b2; stroke-width: 0.8; stroke-linecap: square"/>
   </g>
   <g id="line2d_125">
    <path d="M 53.721227 54.55323 
L 72.333391 52.505887 
L 85.538931 47.027844 
L 95.781944 49.329084 
L 104.151095 43.673856 
L 117.356635 54.191035 
L 126.011788 52.578502 
L 127.599648 51.44065 
L 146.211812 42.440961 
L 159.417352 54.5093 
L 171.460723 54.818455 
L 178.029516 58.155564 
L 191.235056 66.847173 
L 209.84722 87.867068 
L 223.05276 92.89199 
L 233.295773 94.822004 
" clip-path="url(#pec9ae2747d)" style="fill: none; stroke: #b2b2b2; stroke-width: 0.8; stroke-linecap: square"/>
   </g>
   <g id="line2d_126">
    <path d="M 53.721227 43.584368 
L 72.333391 45.269231 
L 85.538931 47.252887 
L 95.781944 51.324137 
L 104.151095 49.988702 
L 117.356635 46.571916 
L 126.011788 52.578502 
L 127.599648 50.605935 
L 146.211812 49.567123 
L 159.417352 50.507007 
L 171.460723 62.373184 
L 178.029516 68.787491 
L 191.235056 75.819328 
L 209.84722 89.196768 
L 223.05276 88.533 
L 233.295773 99.788607 
" clip-path="url(#pec9ae2747d)" style="fill: none; stroke: #b2b2b2; stroke-width: 0.8; stroke-linecap: square"/>
   </g>
   <g id="line2d_127">
    <path d="M 53.721227 71.153658 
L 72.333391 62.77782 
L 85.538931 57.419074 
L 95.781944 62.939782 
L 104.151095 56.336478 
L 117.356635 51.988922 
L 126.011788 52.578502 
L 127.599648 52.024376 
L 146.211812 60.933513 
L 159.417352 66.313389 
L 171.460723 65.640449 
L 178.029516 69.390948 
L 191.235056 80.35397 
L 209.84722 98.547729 
L 223.05276 97.677135 
L 233.295773 103.203968 
" clip-path="url(#pec9ae2747d)" style="fill: none; stroke: #b2b2b2; stroke-width: 0.8; stroke-linecap: square"/>
   </g>
   <g id="line2d_128">
    <path d="M 53.721227 44.999824 
L 72.333391 45.161485 
L 85.538931 48.235076 
L 95.781944 52.841828 
L 104.151095 46.501121 
L 117.356635 52.522906 
L 126.011788 52.578502 
L 127.599648 51.269151 
L 146.211812 44.87367 
L 159.417352 51.909628 
L 171.460723 55.198789 
L 178.029516 50.568286 
L 191.235056 62.149233 
L 209.84722 76.511899 
L 223.05276 88.070671 
L 233.295773 92.088434 
" clip-path="url(#pec9ae2747d)" style="fill: none; stroke: #b2b2b2; stroke-width: 0.8; stroke-linecap: square"/>
   </g>
   <g id="line2d_129">
    <path d="M 53.721227 46.240702 
L 72.333391 39.724648 
L 85.538931 42.526008 
L 95.781944 35.875338 
L 104.151095 51.680709 
L 117.356635 50.150307 
L 126.011788 52.578502 
L 127.599648 54.972477 
L 146.211812 50.377815 
L 159.417352 68.034675 
L 171.460723 65.500323 
L 178.029516 73.430234 
L 191.235056 73.642212 
L 209.84722 84.33152 
L 223.05276 98.052038 
L 233.295773 97.311761 
" clip-path="url(#pec9ae2747d)" style="fill: none; stroke: #b2b2b2; stroke-width: 0.8; stroke-linecap: square"/>
   </g>
   <g id="line2d_130">
    <path d="M 53.721227 54.343613 
L 72.333391 45.456803 
L 85.538931 44.871549 
L 95.781944 46.795634 
L 104.151095 50.135992 
L 117.356635 45.234004 
L 126.011788 52.578502 
L 127.599648 50.170373 
L 146.211812 67.22609 
L 159.417352 74.048386 
L 171.460723 75.544171 
L 178.029516 84.036395 
L 191.235056 85.907502 
L 209.84722 102.029049 
L 223.05276 100.129821 
L 233.295773 114.199101 
" clip-path="url(#pec9ae2747d)" style="fill: none; stroke: #b2b2b2; stroke-width: 0.8; stroke-linecap: square"/>
   </g>
   <g id="line2d_131">
    <path d="M 53.721227 51.054859 
L 72.333391 39.727936 
L 85.538931 48.25552 
L 95.781944 42.399744 
L 104.151095 44.660967 
L 117.356635 49.056952 
L 126.011788 52.578502 
L 127.599648 52.090375 
L 146.211812 48.923424 
L 159.417352 65.82504 
L 171.460723 74.344644 
L 178.029516 82.795229 
L 191.235056 78.873818 
L 209.84722 90.612435 
L 223.05276 95.485449 
L 233.295773 116.709713 
" clip-path="url(#pec9ae2747d)" style="fill: none; stroke: #b2b2b2; stroke-width: 0.8; stroke-linecap: square"/>
   </g>
   <g id="line2d_132">
    <path d="M 53.721227 40.131415 
L 72.333391 36.869445 
L 85.538931 44.51583 
L 95.781944 38.761092 
L 104.151095 46.46642 
L 117.356635 52.905668 
L 126.011788 52.578502 
L 127.599648 52.368519 
L 146.211812 60.019992 
L 159.417352 62.465313 
L 171.460723 61.716966 
L 178.029516 72.171184 
L 191.235056 85.986798 
L 209.84722 83.791341 
L 223.05276 83.850847 
L 233.295773 91.0886 
" clip-path="url(#pec9ae2747d)" style="fill: none; stroke: #b2b2b2; stroke-width: 0.8; stroke-linecap: square"/>
   </g>
   <g id="line2d_133">
    <path d="M 53.721227 46.626344 
L 72.333391 42.648237 
L 85.538931 42.491723 
L 95.781944 44.259794 
L 104.151095 46.013757 
L 117.356635 50.086656 
L 126.011788 52.578502 
L 127.599648 52.677607 
L 146.211812 55.93194 
L 159.417352 59.16106 
L 171.460723 63.181494 
L 178.029516 65.5168 
L 191.235056 71.59198 
L 209.84722 81.767977 
L 223.05276 89.416026 
L 233.295773 97.031844 
" clip-path="url(#pec9ae2747d)" style="fill: none; stroke: #ff0000; stroke-width: 2; stroke-linecap: square"/>
   </g>
   <g id="line2d_134">
    <path d="M 53.721227 24.840202 
L 72.333391 20.745337 
L 85.538931 22.644359 
L 95.781944 26.498028 
L 104.151095 30.74005 
L 117.356635 40.611291 
L 126.011788 52.578502 
L 127.599648 48.37123 
L 146.211812 41.402013 
L 159.417352 41.117372 
L 171.460723 43.024337 
L 178.029516 44.73039 
L 191.235056 50.204078 
L 209.84722 59.390927 
L 223.05276 67.051476 
L 233.295773 73.9135 
" clip-path="url(#pec9ae2747d)" style="fill: none; stroke-dasharray: 7.4,3.2; stroke-dashoffset: 0; stroke: #ff0000; stroke-width: 2"/>
   </g>
   <g id="line2d_135">
    <path d="M 53.721227 68.412485 
L 72.333391 64.551137 
L 85.538931 62.339086 
L 95.781944 62.021559 
L 104.151095 61.287463 
L 117.356635 59.562021 
L 126.011788 52.578502 
L 127.599648 56.983985 
L 146.211812 70.461866 
L 159.417352 77.204748 
L 171.460723 83.33865 
L 178.029516 86.30321 
L 191.235056 92.979883 
L 209.84722 104.145027 
L 223.05276 111.780577 
L 233.295773 120.150189 
" clip-path="url(#pec9ae2747d)" style="fill: none; stroke-dasharray: 7.4,3.2; stroke-dashoffset: 0; stroke: #ff0000; stroke-width: 2"/>
   </g>
   <g id="line2d_136">
    <path d="M 53.721227 46.688641 
L 72.333391 42.638165 
L 85.538931 42.730009 
L 95.781944 44.113075 
L 104.151095 45.931518 
L 117.356635 50.05851 
L 126.011788 52.578502 
L 127.599648 52.801202 
L 146.211812 56.008479 
L 159.417352 59.164896 
L 171.460723 63.145445 
L 178.029516 65.681584 
L 191.235056 71.705261 
L 209.84722 81.815655 
L 223.05276 89.487095 
L 233.295773 96.678042 
" clip-path="url(#pec9ae2747d)" style="fill: none; stroke: #0000ff; stroke-width: 2; stroke-linecap: square"/>
   </g>
   <g id="line2d_137">
    <path d="M 53.721227 24.720584 
L 72.333391 20.651951 
L 85.538931 22.696223 
L 95.781944 26.33771 
L 104.151095 30.546512 
L 117.356635 40.516031 
L 126.011788 52.578502 
L 127.599648 48.826375 
L 146.211812 41.241944 
L 159.417352 41.154518 
L 171.460723 42.832898 
L 178.029516 44.654923 
L 191.235056 50.376363 
L 209.84722 59.383834 
L 223.05276 66.962125 
L 233.295773 73.466916 
" clip-path="url(#pec9ae2747d)" style="fill: none; stroke-dasharray: 7.4,3.2; stroke-dashoffset: 0; stroke: #0000ff; stroke-width: 2"/>
   </g>
   <g id="line2d_138">
    <path d="M 53.721227 68.656699 
L 72.333391 64.624378 
L 85.538931 62.763795 
L 95.781944 61.88844 
L 104.151095 61.316525 
L 117.356635 59.600989 
L 126.011788 52.578502 
L 127.599648 56.77603 
L 146.211812 70.775015 
L 159.417352 77.175274 
L 171.460723 83.457993 
L 178.029516 86.708244 
L 191.235056 93.034158 
L 209.84722 104.247477 
L 223.05276 112.012065 
L 233.295773 119.889168 
" clip-path="url(#pec9ae2747d)" style="fill: none; stroke-dasharray: 7.4,3.2; stroke-dashoffset: 0; stroke: #0000ff; stroke-width: 2"/>
   </g>
   <g id="patch_3">
    <path d="M 44.7425 138.0384 
L 44.7425 7.2 
" style="fill: none; stroke: #000000; stroke-width: 0.8; stroke-linejoin: miter; stroke-linecap: square"/>
   </g>
   <g id="patch_4">
    <path d="M 242.2745 138.0384 
L 242.2745 7.2 
" style="fill: none; stroke: #000000; stroke-width: 0.8; stroke-linejoin: miter; stroke-linecap: square"/>
   </g>
   <g id="patch_5">
    <path d="M 44.7425 138.0384 
L 242.2745 138.0384 
" style="fill: none; stroke: #000000; stroke-width: 0.8; stroke-linejoin: miter; stroke-linecap: square"/>
   </g>
   <g id="patch_6">
    <path d="M 44.7425 7.2 
L 242.2745 7.2 
" style="fill: none; stroke: #000000; stroke-width: 0.8; stroke-linejoin: miter; stroke-linecap: square"/>
   </g>
   <g id="legend_1">
    <g id="patch_7">
     <path d="M 247.8745 104.47295 
L 432.5945 104.47295 
Q 434.1945 104.47295 434.1945 102.87295 
L 434.1945 42.36545 
Q 434.1945 40.76545 432.5945 40.76545 
L 247.8745 40.76545 
Q 246.2745 40.76545 246.2745 42.36545 
L 246.2745 102.87295 
Q 246.2745 104.47295 247.8745 104.47295 
z
" style="fill: #ffffff; opacity: 0.8; stroke: #cccccc; stroke-linejoin: miter"/>
    </g>
    <g id="line2d_139">
     <path d="M 249.4745 47.2442 
L 257.4745 47.2442 
L 265.4745 47.2442 
" style="fill: none; stroke: #b2b2b2; stroke-width: 0.8; stroke-linecap: square"/>
    </g>
    <g id="text_8">
     <!-- Individual selected GMs -->
     <g transform="translate(271.8745 50.0442) scale(0.08 -0.08)">
      <defs>
       <path id="DejaVuSans-49" d="M 628 4666 
L 1259 4666 
L 1259 0 
L 628 0 
L 628 4666 
z
" transform="scale(0.015625)"/>
       <path id="DejaVuSans-76" d="M 191 3500 
L 800 3500 
L 1894 563 
L 2988 3500 
L 3597 3500 
L 2284 0 
L 1503 0 
L 191 3500 
z
" transform="scale(0.015625)"/>
       <path id="DejaVuSans-75" d="M 544 1381 
L 544 3500 
L 1119 3500 
L 1119 1403 
Q 1119 906 1312 657 
Q 1506 409 1894 409 
Q 2359 409 2629 706 
Q 2900 1003 2900 1516 
L 2900 3500 
L 3475 3500 
L 3475 0 
L 2900 0 
L 2900 538 
Q 2691 219 2414 64 
Q 2138 -91 1772 -91 
Q 1169 -91 856 284 
Q 544 659 544 1381 
z
M 1991 3584 
L 1991 3584 
z
" transform="scale(0.015625)"/>
       <path id="DejaVuSans-47" d="M 3809 666 
L 3809 1919 
L 2778 1919 
L 2778 2438 
L 4434 2438 
L 4434 434 
Q 4069 175 3628 42 
Q 3188 -91 2688 -91 
Q 1594 -91 976 548 
Q 359 1188 359 2328 
Q 359 3472 976 4111 
Q 1594 4750 2688 4750 
Q 3144 4750 3555 4637 
Q 3966 4525 4313 4306 
L 4313 3634 
Q 3963 3931 3569 4081 
Q 3175 4231 2741 4231 
Q 1884 4231 1454 3753 
Q 1025 3275 1025 2328 
Q 1025 1384 1454 906 
Q 1884 428 2741 428 
Q 3075 428 3337 486 
Q 3600 544 3809 666 
z
" transform="scale(0.015625)"/>
       <path id="DejaVuSans-4d" d="M 628 4666 
L 1569 4666 
L 2759 1491 
L 3956 4666 
L 4897 4666 
L 4897 0 
L 4281 0 
L 4281 4097 
L 3078 897 
L 2444 897 
L 1241 4097 
L 1241 0 
L 628 0 
L 628 4666 
z
" transform="scale(0.015625)"/>
      </defs>
      <use xlink:href="#DejaVuSans-49"/>
      <use xlink:href="#DejaVuSans-6e" x="29.492188"/>
      <use xlink:href="#DejaVuSans-64" x="92.871094"/>
      <use xlink:href="#DejaVuSans-69" x="156.347656"/>
      <use xlink:href="#DejaVuSans-76" x="184.130859"/>
      <use xlink:href="#DejaVuSans-69" x="243.310547"/>
      <use xlink:href="#DejaVuSans-64" x="271.09375"/>
      <use xlink:href="#DejaVuSans-75" x="334.570312"/>
      <use xlink:href="#DejaVuSans-61" x="397.949219"/>
      <use xlink:href="#DejaVuSans-6c" x="459.228516"/>
      <use xlink:href="#DejaVuSans-20" x="487.011719"/>
      <use xlink:href="#DejaVuSans-73" x="518.798828"/>
      <use xlink:href="#DejaVuSans-65" x="570.898438"/>
      <use xlink:href="#DejaVuSans-6c" x="632.421875"/>
      <use xlink:href="#DejaVuSans-65" x="660.205078"/>
      <use xlink:href="#DejaVuSans-63" x="721.728516"/>
      <use xlink:href="#DejaVuSans-74" x="776.708984"/>
      <use xlink:href="#DejaVuSans-65" x="815.917969"/>
      <use xlink:href="#DejaVuSans-64" x="877.441406"/>
      <use xlink:href="#DejaVuSans-20" x="940.917969"/>
      <use xlink:href="#DejaVuSans-47" x="972.705078"/>
      <use xlink:href="#DejaVuSans-4d" x="1050.195312"/>
      <use xlink:href="#DejaVuSans-73" x="1136.474609"/>
     </g>
    </g>
    <g id="line2d_140">
     <path d="M 249.4745 58.9867 
L 257.4745 58.9867 
L 265.4745 58.9867 
" style="fill: none; stroke: #ff0000; stroke-width: 2; stroke-linecap: square"/>
    </g>
    <g id="text_9">
     <!-- GCIM median -->
     <g transform="translate(271.8745 61.7867) scale(0.08 -0.08)">
      <defs>
       <path id="DejaVuSans-43" d="M 4122 4306 
L 4122 3641 
Q 3803 3938 3442 4084 
Q 3081 4231 2675 4231 
Q 1875 4231 1450 3742 
Q 1025 3253 1025 2328 
Q 1025 1406 1450 917 
Q 1875 428 2675 428 
Q 3081 428 3442 575 
Q 3803 722 4122 1019 
L 4122 359 
Q 3791 134 3420 21 
Q 3050 -91 2638 -91 
Q 1578 -91 968 557 
Q 359 1206 359 2328 
Q 359 3453 968 4101 
Q 1578 4750 2638 4750 
Q 3056 4750 3426 4639 
Q 3797 4528 4122 4306 
z
" transform="scale(0.015625)"/>
       <path id="DejaVuSans-6d" d="M 3328 2828 
Q 3544 3216 3844 3400 
Q 4144 3584 4550 3584 
Q 5097 3584 5394 3201 
Q 5691 2819 5691 2113 
L 5691 0 
L 5113 0 
L 5113 2094 
Q 5113 2597 4934 2840 
Q 4756 3084 4391 3084 
Q 3944 3084 3684 2787 
Q 3425 2491 3425 1978 
L 3425 0 
L 2847 0 
L 2847 2094 
Q 2847 2600 2669 2842 
Q 2491 3084 2119 3084 
Q 1678 3084 1418 2786 
Q 1159 2488 1159 1978 
L 1159 0 
L 581 0 
L 581 3500 
L 1159 3500 
L 1159 2956 
Q 1356 3278 1631 3431 
Q 1906 3584 2284 3584 
Q 2666 3584 2933 3390 
Q 3200 3197 3328 2828 
z
" transform="scale(0.015625)"/>
      </defs>
      <use xlink:href="#DejaVuSans-47"/>
      <use xlink:href="#DejaVuSans-43" x="77.490234"/>
      <use xlink:href="#DejaVuSans-49" x="147.314453"/>
      <use xlink:href="#DejaVuSans-4d" x="176.806641"/>
      <use xlink:href="#DejaVuSans-20" x="263.085938"/>
      <use xlink:href="#DejaVuSans-6d" x="294.873047"/>
      <use xlink:href="#DejaVuSans-65" x="392.285156"/>
      <use xlink:href="#DejaVuSans-64" x="453.808594"/>
      <use xlink:href="#DejaVuSans-69" x="517.285156"/>
      <use xlink:href="#DejaVuSans-61" x="545.068359"/>
      <use xlink:href="#DejaVuSans-6e" x="606.347656"/>
     </g>
    </g>
    <g id="line2d_141">
     <path d="M 249.4745 72.01045 
L 257.4745 72.01045 
L 265.4745 72.01045 
" style="fill: none; stroke-dasharray: 7.4,3.2; stroke-dashoffset: 0; stroke: #ff0000; stroke-width: 2"/>
    </g>
    <g id="text_10">
     <!-- GCIM $16^{th}$ and $84^{th}$ percentiles -->
     <g transform="translate(271.8745 74.81045) scale(0.08 -0.08)">
      <defs>
       <path id="DejaVuSans-36" d="M 2113 2584 
Q 1688 2584 1439 2293 
Q 1191 2003 1191 1497 
Q 1191 994 1439 701 
Q 1688 409 2113 409 
Q 2538 409 2786 701 
Q 3034 994 3034 1497 
Q 3034 2003 2786 2293 
Q 2538 2584 2113 2584 
z
M 3366 4563 
L 3366 3988 
Q 3128 4100 2886 4159 
Q 2644 4219 2406 4219 
Q 1781 4219 1451 3797 
Q 1122 3375 1075 2522 
Q 1259 2794 1537 2939 
Q 1816 3084 2150 3084 
Q 2853 3084 3261 2657 
Q 3669 2231 3669 1497 
Q 3669 778 3244 343 
Q 2819 -91 2113 -91 
Q 1303 -91 875 529 
Q 447 1150 447 2328 
Q 447 3434 972 4092 
Q 1497 4750 2381 4750 
Q 2619 4750 2861 4703 
Q 3103 4656 3366 4563 
z
" transform="scale(0.015625)"/>
       <path id="DejaVuSans-Oblique-74" d="M 2706 3500 
L 2619 3053 
L 1472 3053 
L 1100 1153 
Q 1081 1047 1072 975 
Q 1063 903 1063 863 
Q 1063 663 1183 572 
Q 1303 481 1569 481 
L 2150 481 
L 2053 0 
L 1503 0 
Q 991 0 739 200 
Q 488 400 488 806 
Q 488 878 497 964 
Q 506 1050 525 1153 
L 897 3053 
L 409 3053 
L 500 3500 
L 978 3500 
L 1172 4494 
L 1747 4494 
L 1556 3500 
L 2706 3500 
z
" transform="scale(0.015625)"/>
       <path id="DejaVuSans-Oblique-68" d="M 3566 2113 
L 3156 0 
L 2578 0 
L 2988 2091 
Q 3016 2238 3031 2350 
Q 3047 2463 3047 2528 
Q 3047 2791 2881 2937 
Q 2716 3084 2419 3084 
Q 1956 3084 1617 2771 
Q 1278 2459 1178 1941 
L 800 0 
L 225 0 
L 1172 4863 
L 1747 4863 
L 1375 2950 
Q 1594 3244 1934 3414 
Q 2275 3584 2650 3584 
Q 3113 3584 3367 3334 
Q 3622 3084 3622 2631 
Q 3622 2519 3608 2391 
Q 3594 2263 3566 2113 
z
" transform="scale(0.015625)"/>
       <path id="DejaVuSans-38" d="M 2034 2216 
Q 1584 2216 1326 1975 
Q 1069 1734 1069 1313 
Q 1069 891 1326 650 
Q 1584 409 2034 409 
Q 2484 409 2743 651 
Q 3003 894 3003 1313 
Q 3003 1734 2745 1975 
Q 2488 2216 2034 2216 
z
M 1403 2484 
Q 997 2584 770 2862 
Q 544 3141 544 3541 
Q 544 4100 942 4425 
Q 1341 4750 2034 4750 
Q 2731 4750 3128 4425 
Q 3525 4100 3525 3541 
Q 3525 3141 3298 2862 
Q 3072 2584 2669 2484 
Q 3125 2378 3379 2068 
Q 3634 1759 3634 1313 
Q 3634 634 3220 271 
Q 2806 -91 2034 -91 
Q 1263 -91 848 271 
Q 434 634 434 1313 
Q 434 1759 690 2068 
Q 947 2378 1403 2484 
z
M 1172 3481 
Q 1172 3119 1398 2916 
Q 1625 2713 2034 2713 
Q 2441 2713 2670 2916 
Q 2900 3119 2900 3481 
Q 2900 3844 2670 4047 
Q 2441 4250 2034 4250 
Q 1625 4250 1398 4047 
Q 1172 3844 1172 3481 
z
" transform="scale(0.015625)"/>
       <path id="DejaVuSans-34" d="M 2419 4116 
L 825 1625 
L 2419 1625 
L 2419 4116 
z
M 2253 4666 
L 3047 4666 
L 3047 1625 
L 3713 1625 
L 3713 1100 
L 3047 1100 
L 3047 0 
L 2419 0 
L 2419 1100 
L 313 1100 
L 313 1709 
L 2253 4666 
z
" transform="scale(0.015625)"/>
      </defs>
      <use xlink:href="#DejaVuSans-47" transform="translate(0 0.529687)"/>
      <use xlink:href="#DejaVuSans-43" transform="translate(77.490234 0.529687)"/>
      <use xlink:href="#DejaVuSans-49" transform="translate(147.314453 0.529687)"/>
      <use xlink:href="#DejaVuSans-4d" transform="translate(176.806641 0.529687)"/>
      <use xlink:href="#DejaVuSans-20" transform="translate(263.085938 0.529687)"/>
      <use xlink:href="#DejaVuSans-31" transform="translate(294.873047 0.529687)"/>
      <use xlink:href="#DejaVuSans-36" transform="translate(358.496094 0.529687)"/>
      <use xlink:href="#DejaVuSans-Oblique-74" transform="translate(423.076172 38.810937) scale(0.7)"/>
      <use xlink:href="#DejaVuSans-Oblique-68" transform="translate(450.522461 38.810937) scale(0.7)"/>
      <use xlink:href="#DejaVuSans-20" transform="translate(497.62207 0.529687)"/>
      <use xlink:href="#DejaVuSans-61" transform="translate(529.40918 0.529687)"/>
      <use xlink:href="#DejaVuSans-6e" transform="translate(590.688477 0.529687)"/>
      <use xlink:href="#DejaVuSans-64" transform="translate(654.067383 0.529687)"/>
      <use xlink:href="#DejaVuSans-20" transform="translate(717.543945 0.529687)"/>
      <use xlink:href="#DejaVuSans-38" transform="translate(749.331055 0.529687)"/>
      <use xlink:href="#DejaVuSans-34" transform="translate(812.954102 0.529687)"/>
      <use xlink:href="#DejaVuSans-Oblique-74" transform="translate(877.53418 38.810937) scale(0.7)"/>
      <use xlink:href="#DejaVuSans-Oblique-68" transform="translate(904.980469 38.810937) scale(0.7)"/>
      <use xlink:href="#DejaVuSans-20" transform="translate(952.080078 0.529687)"/>
      <use xlink:href="#DejaVuSans-70" transform="translate(983.867188 0.529687)"/>
      <use xlink:href="#DejaVuSans-65" transform="translate(1047.34375 0.529687)"/>
      <use xlink:href="#DejaVuSans-72" transform="translate(1108.867188 0.529687)"/>
      <use xlink:href="#DejaVuSans-63" transform="translate(1149.980469 0.529687)"/>
      <use xlink:href="#DejaVuSans-65" transform="translate(1204.960938 0.529687)"/>
      <use xlink:href="#DejaVuSans-6e" transform="translate(1266.484375 0.529687)"/>
      <use xlink:href="#DejaVuSans-74" transform="translate(1329.863281 0.529687)"/>
      <use xlink:href="#DejaVuSans-69" transform="translate(1369.072266 0.529687)"/>
      <use xlink:href="#DejaVuSans-6c" transform="translate(1396.855469 0.529687)"/>
      <use xlink:href="#DejaVuSans-65" transform="translate(1424.638672 0.529687)"/>
      <use xlink:href="#DejaVuSans-73" transform="translate(1486.162109 0.529687)"/>
     </g>
    </g>
    <g id="line2d_142">
     <path d="M 249.4745 83.7692 
L 257.4745 83.7692 
L 265.4745 83.7692 
" style="fill: none; stroke: #0000ff; stroke-width: 2; stroke-linecap: square"/>
    </g>
    <g id="text_11">
     <!-- Selected GMs median -->
     <g transform="translate(271.8745 86.5692) scale(0.08 -0.08)">
      <use xlink:href="#DejaVuSans-53"/>
      <use xlink:href="#DejaVuSans-65" x="63.476562"/>
      <use xlink:href="#DejaVuSans-6c" x="125"/>
      <use xlink:href="#DejaVuSans-65" x="152.783203"/>
      <use xlink:href="#DejaVuSans-63" x="214.306641"/>
      <use xlink:href="#DejaVuSans-74" x="269.287109"/>
      <use xlink:href="#DejaVuSans-65" x="308.496094"/>
      <use xlink:href="#DejaVuSans-64" x="370.019531"/>
      <use xlink:href="#DejaVuSans-20" x="433.496094"/>
      <use xlink:href="#DejaVuSans-47" x="465.283203"/>
      <use xlink:href="#DejaVuSans-4d" x="542.773438"/>
      <use xlink:href="#DejaVuSans-73" x="629.052734"/>
      <use xlink:href="#DejaVuSans-20" x="681.152344"/>
      <use xlink:href="#DejaVuSans-6d" x="712.939453"/>
      <use xlink:href="#DejaVuSans-65" x="810.351562"/>
      <use xlink:href="#DejaVuSans-64" x="871.875"/>
      <use xlink:href="#DejaVuSans-69" x="935.351562"/>
      <use xlink:href="#DejaVuSans-61" x="963.134766"/>
      <use xlink:href="#DejaVuSans-6e" x="1024.414062"/>
     </g>
    </g>
    <g id="line2d_143">
     <path d="M 249.4745 96.79295 
L 257.4745 96.79295 
L 265.4745 96.79295 
" style="fill: none; stroke-dasharray: 7.4,3.2; stroke-dashoffset: 0; stroke: #0000ff; stroke-width: 2"/>
    </g>
    <g id="text_12">
     <!-- Selected GMs, $16^{th}$ and $84^{th}$ percentiles -->
     <g transform="translate(271.8745 99.59295) scale(0.08 -0.08)">
      <use xlink:href="#DejaVuSans-53" transform="translate(0 0.529687)"/>
      <use xlink:href="#DejaVuSans-65" transform="translate(63.476562 0.529687)"/>
      <use xlink:href="#DejaVuSans-6c" transform="translate(125 0.529687)"/>
      <use xlink:href="#DejaVuSans-65" transform="translate(152.783203 0.529687)"/>
      <use xlink:href="#DejaVuSans-63" transform="translate(214.306641 0.529687)"/>
      <use xlink:href="#DejaVuSans-74" transform="translate(269.287109 0.529687)"/>
      <use xlink:href="#DejaVuSans-65" transform="translate(308.496094 0.529687)"/>
      <use xlink:href="#DejaVuSans-64" transform="translate(370.019531 0.529687)"/>
      <use xlink:href="#DejaVuSans-20" transform="translate(433.496094 0.529687)"/>
      <use xlink:href="#DejaVuSans-47" transform="translate(465.283203 0.529687)"/>
      <use xlink:href="#DejaVuSans-4d" transform="translate(542.773438 0.529687)"/>
      <use xlink:href="#DejaVuSans-73" transform="translate(629.052734 0.529687)"/>
      <use xlink:href="#DejaVuSans-2c" transform="translate(681.152344 0.529687)"/>
      <use xlink:href="#DejaVuSans-20" transform="translate(712.939453 0.529687)"/>
      <use xlink:href="#DejaVuSans-31" transform="translate(744.726562 0.529687)"/>
      <use xlink:href="#DejaVuSans-36" transform="translate(808.349609 0.529687)"/>
      <use xlink:href="#DejaVuSans-Oblique-74" transform="translate(872.929688 38.810937) scale(0.7)"/>
      <use xlink:href="#DejaVuSans-Oblique-68" transform="translate(900.375977 38.810937) scale(0.7)"/>
      <use xlink:href="#DejaVuSans-20" transform="translate(947.475586 0.529687)"/>
      <use xlink:href="#DejaVuSans-61" transform="translate(979.262695 0.529687)"/>
      <use xlink:href="#DejaVuSans-6e" transform="translate(1040.541992 0.529687)"/>
      <use xlink:href="#DejaVuSans-64" transform="translate(1103.920898 0.529687)"/>
      <use xlink:href="#DejaVuSans-20" transform="translate(1167.397461 0.529687)"/>
      <use xlink:href="#DejaVuSans-38" transform="translate(1199.18457 0.529687)"/>
      <use xlink:href="#DejaVuSans-34" transform="translate(1262.807617 0.529687)"/>
      <use xlink:href="#DejaVuSans-Oblique-74" transform="translate(1327.387695 38.810937) scale(0.7)"/>
      <use xlink:href="#DejaVuSans-Oblique-68" transform="translate(1354.833984 38.810937) scale(0.7)"/>
      <use xlink:href="#DejaVuSans-20" transform="translate(1401.933594 0.529687)"/>
      <use xlink:href="#DejaVuSans-70" transform="translate(1433.720703 0.529687)"/>
      <use xlink:href="#DejaVuSans-65" transform="translate(1497.197266 0.529687)"/>
      <use xlink:href="#DejaVuSans-72" transform="translate(1558.720703 0.529687)"/>
      <use xlink:href="#DejaVuSans-63" transform="translate(1599.833984 0.529687)"/>
      <use xlink:href="#DejaVuSans-65" transform="translate(1654.814453 0.529687)"/>
      <use xlink:href="#DejaVuSans-6e" transform="translate(1716.337891 0.529687)"/>
      <use xlink:href="#DejaVuSans-74" transform="translate(1779.716797 0.529687)"/>
      <use xlink:href="#DejaVuSans-69" transform="translate(1818.925781 0.529687)"/>
      <use xlink:href="#DejaVuSans-6c" transform="translate(1846.708984 0.529687)"/>
      <use xlink:href="#DejaVuSans-65" transform="translate(1874.492188 0.529687)"/>
      <use xlink:href="#DejaVuSans-73" transform="translate(1936.015625 0.529687)"/>
     </g>
    </g>
   </g>
  </g>
 </g>
 <defs>
  <clipPath id="pec9ae2747d">
   <rect x="44.7425" y="7.2" width="197.532" height="130.8384"/>
  </clipPath>
 </defs>
</svg>
