<?xml version="1.0" encoding="utf-8" standalone="no"?>
<!DOCTYPE svg PUBLIC "-//W3C//DTD SVG 1.1//EN"
  "http://www.w3.org/Graphics/SVG/1.1/DTD/svg11.dtd">
<svg xmlns:xlink="http://www.w3.org/1999/xlink" width="441.3945pt" height="171.7234pt" viewBox="0 0 441.3945 171.7234" xmlns="http://www.w3.org/2000/svg" version="1.1">
 <metadata>
  <rdf:RDF xmlns:dc="http://purl.org/dc/elements/1.1/" xmlns:cc="http://creativecommons.org/ns#" xmlns:rdf="http://www.w3.org/1999/02/22-rdf-syntax-ns#">
   <cc:Work>
    <dc:type rdf:resource="http://purl.org/dc/dcmitype/StillImage"/>
    <dc:date>2024-11-11T18:20:40.873171</dc:date>
    <dc:format>image/svg+xml</dc:format>
    <dc:creator>
     <cc:Agent>
      <dc:title>Matplotlib v3.8.2, https://matplotlib.org/</dc:title>
     </cc:Agent>
    </dc:creator>
   </cc:Work>
  </rdf:RDF>
 </metadata>
 <defs>
  <style type="text/css">*{stroke-linejoin: round; stroke-linecap: butt}</style>
 </defs>
 <g id="figure_1">
  <g id="patch_1">
   <path d="M 0 171.7234 
L 441.3945 171.7234 
L 441.3945 0 
L 0 0 
z
" style="fill: #ffffff"/>
  </g>
  <g id="axes_1">
   <g id="patch_2">
    <path d="M 44.7425 138.0384 
L 242.2745 138.0384 
L 242.2745 7.2 
L 44.7425 7.2 
z
" style="fill: #ffffff"/>
   </g>
   <g id="matplotlib.axis_1">
    <g id="xtick_1">
     <g id="line2d_1">
      <path d="M 53.721227 138.0384 
L 53.721227 7.2 
" clip-path="url(#pacdae85a50)" style="fill: none; stroke: #d9d9d9; stroke-width: 0.8; stroke-linecap: square"/>
     </g>
     <g id="line2d_2">
      <defs>
       <path id="m361e18cef2" d="M 0 0 
L 0 3.5 
" style="stroke: #000000; stroke-width: 0.8"/>
      </defs>
      <g>
       <use xlink:href="#m361e18cef2" x="53.721227" y="138.0384" style="stroke: #000000; stroke-width: 0.8"/>
      </g>
     </g>
     <g id="text_1">
      <!-- $\mathdefault{10^{-1}}$ -->
      <g transform="translate(44.321227 151.11715) scale(0.08 -0.08)">
       <defs>
        <path id="DejaVuSans-31" d="M 794 531 
L 1825 531 
L 1825 4091 
L 703 3866 
L 703 4441 
L 1819 4666 
L 2450 4666 
L 2450 531 
L 3481 531 
L 3481 0 
L 794 0 
L 794 531 
z
" transform="scale(0.015625)"/>
        <path id="DejaVuSans-30" d="M 2034 4250 
Q 1547 4250 1301 3770 
Q 1056 3291 1056 2328 
Q 1056 1369 1301 889 
Q 1547 409 2034 409 
Q 2525 409 2770 889 
Q 3016 1369 3016 2328 
Q 3016 3291 2770 3770 
Q 2525 4250 2034 4250 
z
M 2034 4750 
Q 2819 4750 3233 4129 
Q 3647 3509 3647 2328 
Q 3647 1150 3233 529 
Q 2819 -91 2034 -91 
Q 1250 -91 836 529 
Q 422 1150 422 2328 
Q 422 3509 836 4129 
Q 1250 4750 2034 4750 
z
" transform="scale(0.015625)"/>
        <path id="DejaVuSans-2212" d="M 678 2272 
L 4684 2272 
L 4684 1741 
L 678 1741 
L 678 2272 
z
" transform="scale(0.015625)"/>
       </defs>
       <use xlink:href="#DejaVuSans-31" transform="translate(0 0.684375)"/>
       <use xlink:href="#DejaVuSans-30" transform="translate(63.623047 0.684375)"/>
       <use xlink:href="#DejaVuSans-2212" transform="translate(128.203125 38.965625) scale(0.7)"/>
       <use xlink:href="#DejaVuSans-31" transform="translate(186.855469 38.965625) scale(0.7)"/>
      </g>
     </g>
    </g>
    <g id="xtick_2">
     <g id="line2d_3">
      <path d="M 165.811003 138.0384 
L 165.811003 7.2 
" clip-path="url(#pacdae85a50)" style="fill: none; stroke: #d9d9d9; stroke-width: 0.8; stroke-linecap: square"/>
     </g>
     <g id="line2d_4">
      <g>
       <use xlink:href="#m361e18cef2" x="165.811003" y="138.0384" style="stroke: #000000; stroke-width: 0.8"/>
      </g>
     </g>
     <g id="text_2">
      <!-- $\mathdefault{10^{0}}$ -->
      <g transform="translate(158.771003 151.11715) scale(0.08 -0.08)">
       <use xlink:href="#DejaVuSans-31" transform="translate(0 0.765625)"/>
       <use xlink:href="#DejaVuSans-30" transform="translate(63.623047 0.765625)"/>
       <use xlink:href="#DejaVuSans-30" transform="translate(128.203125 39.046875) scale(0.7)"/>
      </g>
     </g>
    </g>
    <g id="xtick_3">
     <g id="line2d_5">
      <path d="M 48.59228 138.0384 
L 48.59228 7.2 
" clip-path="url(#pacdae85a50)" style="fill: none; stroke-dasharray: 2.96,1.28; stroke-dashoffset: 0; stroke: #f2f2f2; stroke-width: 0.8"/>
     </g>
     <g id="line2d_6">
      <defs>
       <path id="m56e1e59659" d="M 0 0 
L 0 2 
" style="stroke: #000000; stroke-width: 0.6"/>
      </defs>
      <g>
       <use xlink:href="#m56e1e59659" x="48.59228" y="138.0384" style="stroke: #000000; stroke-width: 0.6"/>
      </g>
     </g>
    </g>
    <g id="xtick_4">
     <g id="line2d_7">
      <path d="M 87.463612 138.0384 
L 87.463612 7.2 
" clip-path="url(#pacdae85a50)" style="fill: none; stroke-dasharray: 2.96,1.28; stroke-dashoffset: 0; stroke: #f2f2f2; stroke-width: 0.8"/>
     </g>
     <g id="line2d_8">
      <g>
       <use xlink:href="#m56e1e59659" x="87.463612" y="138.0384" style="stroke: #000000; stroke-width: 0.6"/>
      </g>
     </g>
    </g>
    <g id="xtick_5">
     <g id="line2d_9">
      <path d="M 107.201642 138.0384 
L 107.201642 7.2 
" clip-path="url(#pacdae85a50)" style="fill: none; stroke-dasharray: 2.96,1.28; stroke-dashoffset: 0; stroke: #f2f2f2; stroke-width: 0.8"/>
     </g>
     <g id="line2d_10">
      <g>
       <use xlink:href="#m56e1e59659" x="107.201642" y="138.0384" style="stroke: #000000; stroke-width: 0.6"/>
      </g>
     </g>
    </g>
    <g id="xtick_6">
     <g id="line2d_11">
      <path d="M 121.205997 138.0384 
L 121.205997 7.2 
" clip-path="url(#pacdae85a50)" style="fill: none; stroke-dasharray: 2.96,1.28; stroke-dashoffset: 0; stroke: #f2f2f2; stroke-width: 0.8"/>
     </g>
     <g id="line2d_12">
      <g>
       <use xlink:href="#m56e1e59659" x="121.205997" y="138.0384" style="stroke: #000000; stroke-width: 0.6"/>
      </g>
     </g>
    </g>
    <g id="xtick_7">
     <g id="line2d_13">
      <path d="M 132.068618 138.0384 
L 132.068618 7.2 
" clip-path="url(#pacdae85a50)" style="fill: none; stroke-dasharray: 2.96,1.28; stroke-dashoffset: 0; stroke: #f2f2f2; stroke-width: 0.8"/>
     </g>
     <g id="line2d_14">
      <g>
       <use xlink:href="#m56e1e59659" x="132.068618" y="138.0384" style="stroke: #000000; stroke-width: 0.6"/>
      </g>
     </g>
    </g>
    <g id="xtick_8">
     <g id="line2d_15">
      <path d="M 140.944027 138.0384 
L 140.944027 7.2 
" clip-path="url(#pacdae85a50)" style="fill: none; stroke-dasharray: 2.96,1.28; stroke-dashoffset: 0; stroke: #f2f2f2; stroke-width: 0.8"/>
     </g>
     <g id="line2d_16">
      <g>
       <use xlink:href="#m56e1e59659" x="140.944027" y="138.0384" style="stroke: #000000; stroke-width: 0.6"/>
      </g>
     </g>
    </g>
    <g id="xtick_9">
     <g id="line2d_17">
      <path d="M 148.448077 138.0384 
L 148.448077 7.2 
" clip-path="url(#pacdae85a50)" style="fill: none; stroke-dasharray: 2.96,1.28; stroke-dashoffset: 0; stroke: #f2f2f2; stroke-width: 0.8"/>
     </g>
     <g id="line2d_18">
      <g>
       <use xlink:href="#m56e1e59659" x="148.448077" y="138.0384" style="stroke: #000000; stroke-width: 0.6"/>
      </g>
     </g>
    </g>
    <g id="xtick_10">
     <g id="line2d_19">
      <path d="M 154.948382 138.0384 
L 154.948382 7.2 
" clip-path="url(#pacdae85a50)" style="fill: none; stroke-dasharray: 2.96,1.28; stroke-dashoffset: 0; stroke: #f2f2f2; stroke-width: 0.8"/>
     </g>
     <g id="line2d_20">
      <g>
       <use xlink:href="#m56e1e59659" x="154.948382" y="138.0384" style="stroke: #000000; stroke-width: 0.6"/>
      </g>
     </g>
    </g>
    <g id="xtick_11">
     <g id="line2d_21">
      <path d="M 160.682056 138.0384 
L 160.682056 7.2 
" clip-path="url(#pacdae85a50)" style="fill: none; stroke-dasharray: 2.96,1.28; stroke-dashoffset: 0; stroke: #f2f2f2; stroke-width: 0.8"/>
     </g>
     <g id="line2d_22">
      <g>
       <use xlink:href="#m56e1e59659" x="160.682056" y="138.0384" style="stroke: #000000; stroke-width: 0.6"/>
      </g>
     </g>
    </g>
    <g id="xtick_12">
     <g id="line2d_23">
      <path d="M 199.553388 138.0384 
L 199.553388 7.2 
" clip-path="url(#pacdae85a50)" style="fill: none; stroke-dasharray: 2.96,1.28; stroke-dashoffset: 0; stroke: #f2f2f2; stroke-width: 0.8"/>
     </g>
     <g id="line2d_24">
      <g>
       <use xlink:href="#m56e1e59659" x="199.553388" y="138.0384" style="stroke: #000000; stroke-width: 0.6"/>
      </g>
     </g>
    </g>
    <g id="xtick_13">
     <g id="line2d_25">
      <path d="M 219.291418 138.0384 
L 219.291418 7.2 
" clip-path="url(#pacdae85a50)" style="fill: none; stroke-dasharray: 2.96,1.28; stroke-dashoffset: 0; stroke: #f2f2f2; stroke-width: 0.8"/>
     </g>
     <g id="line2d_26">
      <g>
       <use xlink:href="#m56e1e59659" x="219.291418" y="138.0384" style="stroke: #000000; stroke-width: 0.6"/>
      </g>
     </g>
    </g>
    <g id="xtick_14">
     <g id="line2d_27">
      <path d="M 233.295773 138.0384 
L 233.295773 7.2 
" clip-path="url(#pacdae85a50)" style="fill: none; stroke-dasharray: 2.96,1.28; stroke-dashoffset: 0; stroke: #f2f2f2; stroke-width: 0.8"/>
     </g>
     <g id="line2d_28">
      <g>
       <use xlink:href="#m56e1e59659" x="233.295773" y="138.0384" style="stroke: #000000; stroke-width: 0.6"/>
      </g>
     </g>
    </g>
    <g id="text_3">
     <!-- Period, T (s) -->
     <g transform="translate(119.576 162.85965) scale(0.08 -0.08)">
      <defs>
       <path id="DejaVuSans-50" d="M 1259 4147 
L 1259 2394 
L 2053 2394 
Q 2494 2394 2734 2622 
Q 2975 2850 2975 3272 
Q 2975 3691 2734 3919 
Q 2494 4147 2053 4147 
L 1259 4147 
z
M 628 4666 
L 2053 4666 
Q 2838 4666 3239 4311 
Q 3641 3956 3641 3272 
Q 3641 2581 3239 2228 
Q 2838 1875 2053 1875 
L 1259 1875 
L 1259 0 
L 628 0 
L 628 4666 
z
" transform="scale(0.015625)"/>
       <path id="DejaVuSans-65" d="M 3597 1894 
L 3597 1613 
L 953 1613 
Q 991 1019 1311 708 
Q 1631 397 2203 397 
Q 2534 397 2845 478 
Q 3156 559 3463 722 
L 3463 178 
Q 3153 47 2828 -22 
Q 2503 -91 2169 -91 
Q 1331 -91 842 396 
Q 353 884 353 1716 
Q 353 2575 817 3079 
Q 1281 3584 2069 3584 
Q 2775 3584 3186 3129 
Q 3597 2675 3597 1894 
z
M 3022 2063 
Q 3016 2534 2758 2815 
Q 2500 3097 2075 3097 
Q 1594 3097 1305 2825 
Q 1016 2553 972 2059 
L 3022 2063 
z
" transform="scale(0.015625)"/>
       <path id="DejaVuSans-72" d="M 2631 2963 
Q 2534 3019 2420 3045 
Q 2306 3072 2169 3072 
Q 1681 3072 1420 2755 
Q 1159 2438 1159 1844 
L 1159 0 
L 581 0 
L 581 3500 
L 1159 3500 
L 1159 2956 
Q 1341 3275 1631 3429 
Q 1922 3584 2338 3584 
Q 2397 3584 2469 3576 
Q 2541 3569 2628 3553 
L 2631 2963 
z
" transform="scale(0.015625)"/>
       <path id="DejaVuSans-69" d="M 603 3500 
L 1178 3500 
L 1178 0 
L 603 0 
L 603 3500 
z
M 603 4863 
L 1178 4863 
L 1178 4134 
L 603 4134 
L 603 4863 
z
" transform="scale(0.015625)"/>
       <path id="DejaVuSans-6f" d="M 1959 3097 
Q 1497 3097 1228 2736 
Q 959 2375 959 1747 
Q 959 1119 1226 758 
Q 1494 397 1959 397 
Q 2419 397 2687 759 
Q 2956 1122 2956 1747 
Q 2956 2369 2687 2733 
Q 2419 3097 1959 3097 
z
M 1959 3584 
Q 2709 3584 3137 3096 
Q 3566 2609 3566 1747 
Q 3566 888 3137 398 
Q 2709 -91 1959 -91 
Q 1206 -91 779 398 
Q 353 888 353 1747 
Q 353 2609 779 3096 
Q 1206 3584 1959 3584 
z
" transform="scale(0.015625)"/>
       <path id="DejaVuSans-64" d="M 2906 2969 
L 2906 4863 
L 3481 4863 
L 3481 0 
L 2906 0 
L 2906 525 
Q 2725 213 2448 61 
Q 2172 -91 1784 -91 
Q 1150 -91 751 415 
Q 353 922 353 1747 
Q 353 2572 751 3078 
Q 1150 3584 1784 3584 
Q 2172 3584 2448 3432 
Q 2725 3281 2906 2969 
z
M 947 1747 
Q 947 1113 1208 752 
Q 1469 391 1925 391 
Q 2381 391 2643 752 
Q 2906 1113 2906 1747 
Q 2906 2381 2643 2742 
Q 2381 3103 1925 3103 
Q 1469 3103 1208 2742 
Q 947 2381 947 1747 
z
" transform="scale(0.015625)"/>
       <path id="DejaVuSans-2c" d="M 750 794 
L 1409 794 
L 1409 256 
L 897 -744 
L 494 -744 
L 750 256 
L 750 794 
z
" transform="scale(0.015625)"/>
       <path id="DejaVuSans-20" transform="scale(0.015625)"/>
       <path id="DejaVuSans-54" d="M -19 4666 
L 3928 4666 
L 3928 4134 
L 2272 4134 
L 2272 0 
L 1638 0 
L 1638 4134 
L -19 4134 
L -19 4666 
z
" transform="scale(0.015625)"/>
       <path id="DejaVuSans-28" d="M 1984 4856 
Q 1566 4138 1362 3434 
Q 1159 2731 1159 2009 
Q 1159 1288 1364 580 
Q 1569 -128 1984 -844 
L 1484 -844 
Q 1016 -109 783 600 
Q 550 1309 550 2009 
Q 550 2706 781 3412 
Q 1013 4119 1484 4856 
L 1984 4856 
z
" transform="scale(0.015625)"/>
       <path id="DejaVuSans-73" d="M 2834 3397 
L 2834 2853 
Q 2591 2978 2328 3040 
Q 2066 3103 1784 3103 
Q 1356 3103 1142 2972 
Q 928 2841 928 2578 
Q 928 2378 1081 2264 
Q 1234 2150 1697 2047 
L 1894 2003 
Q 2506 1872 2764 1633 
Q 3022 1394 3022 966 
Q 3022 478 2636 193 
Q 2250 -91 1575 -91 
Q 1294 -91 989 -36 
Q 684 19 347 128 
L 347 722 
Q 666 556 975 473 
Q 1284 391 1588 391 
Q 1994 391 2212 530 
Q 2431 669 2431 922 
Q 2431 1156 2273 1281 
Q 2116 1406 1581 1522 
L 1381 1569 
Q 847 1681 609 1914 
Q 372 2147 372 2553 
Q 372 3047 722 3315 
Q 1072 3584 1716 3584 
Q 2034 3584 2315 3537 
Q 2597 3491 2834 3397 
z
" transform="scale(0.015625)"/>
       <path id="DejaVuSans-29" d="M 513 4856 
L 1013 4856 
Q 1481 4119 1714 3412 
Q 1947 2706 1947 2009 
Q 1947 1309 1714 600 
Q 1481 -109 1013 -844 
L 513 -844 
Q 928 -128 1133 580 
Q 1338 1288 1338 2009 
Q 1338 2731 1133 3434 
Q 928 4138 513 4856 
z
" transform="scale(0.015625)"/>
      </defs>
      <use xlink:href="#DejaVuSans-50"/>
      <use xlink:href="#DejaVuSans-65" x="56.677734"/>
      <use xlink:href="#DejaVuSans-72" x="118.201172"/>
      <use xlink:href="#DejaVuSans-69" x="159.314453"/>
      <use xlink:href="#DejaVuSans-6f" x="187.097656"/>
      <use xlink:href="#DejaVuSans-64" x="248.279297"/>
      <use xlink:href="#DejaVuSans-2c" x="311.755859"/>
      <use xlink:href="#DejaVuSans-20" x="343.542969"/>
      <use xlink:href="#DejaVuSans-54" x="375.330078"/>
      <use xlink:href="#DejaVuSans-20" x="436.414062"/>
      <use xlink:href="#DejaVuSans-28" x="468.201172"/>
      <use xlink:href="#DejaVuSans-73" x="507.214844"/>
      <use xlink:href="#DejaVuSans-29" x="559.314453"/>
     </g>
    </g>
   </g>
   <g id="matplotlib.axis_2">
    <g id="ytick_1">
     <g id="line2d_29">
      <path d="M 44.7425 117.82761 
L 242.2745 117.82761 
" clip-path="url(#pacdae85a50)" style="fill: none; stroke: #d9d9d9; stroke-width: 0.8; stroke-linecap: square"/>
     </g>
     <g id="line2d_30">
      <defs>
       <path id="mcf53b90fa0" d="M 0 0 
L -3.5 0 
" style="stroke: #000000; stroke-width: 0.8"/>
      </defs>
      <g>
       <use xlink:href="#mcf53b90fa0" x="44.7425" y="117.82761" style="stroke: #000000; stroke-width: 0.8"/>
      </g>
     </g>
     <g id="text_4">
      <!-- $\mathdefault{10^{-1}}$ -->
      <g transform="translate(18.9425 120.866985) scale(0.08 -0.08)">
       <use xlink:href="#DejaVuSans-31" transform="translate(0 0.684375)"/>
       <use xlink:href="#DejaVuSans-30" transform="translate(63.623047 0.684375)"/>
       <use xlink:href="#DejaVuSans-2212" transform="translate(128.203125 38.965625) scale(0.7)"/>
       <use xlink:href="#DejaVuSans-31" transform="translate(186.855469 38.965625) scale(0.7)"/>
      </g>
     </g>
    </g>
    <g id="ytick_2">
     <g id="line2d_31">
      <path d="M 44.7425 51.94089 
L 242.2745 51.94089 
" clip-path="url(#pacdae85a50)" style="fill: none; stroke: #d9d9d9; stroke-width: 0.8; stroke-linecap: square"/>
     </g>
     <g id="line2d_32">
      <g>
       <use xlink:href="#mcf53b90fa0" x="44.7425" y="51.94089" style="stroke: #000000; stroke-width: 0.8"/>
      </g>
     </g>
     <g id="text_5">
      <!-- $\mathdefault{10^{0}}$ -->
      <g transform="translate(23.6625 54.980265) scale(0.08 -0.08)">
       <use xlink:href="#DejaVuSans-31" transform="translate(0 0.765625)"/>
       <use xlink:href="#DejaVuSans-30" transform="translate(63.623047 0.765625)"/>
       <use xlink:href="#DejaVuSans-30" transform="translate(128.203125 39.046875) scale(0.7)"/>
      </g>
     </g>
    </g>
    <g id="ytick_3">
     <g id="line2d_33">
      <path d="M 44.7425 137.661489 
L 242.2745 137.661489 
" clip-path="url(#pacdae85a50)" style="fill: none; stroke-dasharray: 2.96,1.28; stroke-dashoffset: 0; stroke: #f2f2f2; stroke-width: 0.8"/>
     </g>
     <g id="line2d_34">
      <defs>
       <path id="m45ec17c0d7" d="M 0 0 
L -2 0 
" style="stroke: #000000; stroke-width: 0.6"/>
      </defs>
      <g>
       <use xlink:href="#m45ec17c0d7" x="44.7425" y="137.661489" style="stroke: #000000; stroke-width: 0.6"/>
      </g>
     </g>
    </g>
    <g id="ytick_4">
     <g id="line2d_35">
      <path d="M 44.7425 132.444497 
L 242.2745 132.444497 
" clip-path="url(#pacdae85a50)" style="fill: none; stroke-dasharray: 2.96,1.28; stroke-dashoffset: 0; stroke: #f2f2f2; stroke-width: 0.8"/>
     </g>
     <g id="line2d_36">
      <g>
       <use xlink:href="#m45ec17c0d7" x="44.7425" y="132.444497" style="stroke: #000000; stroke-width: 0.6"/>
      </g>
     </g>
    </g>
    <g id="ytick_5">
     <g id="line2d_37">
      <path d="M 44.7425 128.033592 
L 242.2745 128.033592 
" clip-path="url(#pacdae85a50)" style="fill: none; stroke-dasharray: 2.96,1.28; stroke-dashoffset: 0; stroke: #f2f2f2; stroke-width: 0.8"/>
     </g>
     <g id="line2d_38">
      <g>
       <use xlink:href="#m45ec17c0d7" x="44.7425" y="128.033592" style="stroke: #000000; stroke-width: 0.6"/>
      </g>
     </g>
    </g>
    <g id="ytick_6">
     <g id="line2d_39">
      <path d="M 44.7425 124.212693 
L 242.2745 124.212693 
" clip-path="url(#pacdae85a50)" style="fill: none; stroke-dasharray: 2.96,1.28; stroke-dashoffset: 0; stroke: #f2f2f2; stroke-width: 0.8"/>
     </g>
     <g id="line2d_40">
      <g>
       <use xlink:href="#m45ec17c0d7" x="44.7425" y="124.212693" style="stroke: #000000; stroke-width: 0.6"/>
      </g>
     </g>
    </g>
    <g id="ytick_7">
     <g id="line2d_41">
      <path d="M 44.7425 120.842421 
L 242.2745 120.842421 
" clip-path="url(#pacdae85a50)" style="fill: none; stroke-dasharray: 2.96,1.28; stroke-dashoffset: 0; stroke: #f2f2f2; stroke-width: 0.8"/>
     </g>
     <g id="line2d_42">
      <g>
       <use xlink:href="#m45ec17c0d7" x="44.7425" y="120.842421" style="stroke: #000000; stroke-width: 0.6"/>
      </g>
     </g>
    </g>
    <g id="ytick_8">
     <g id="line2d_43">
      <path d="M 44.7425 97.993731 
L 242.2745 97.993731 
" clip-path="url(#pacdae85a50)" style="fill: none; stroke-dasharray: 2.96,1.28; stroke-dashoffset: 0; stroke: #f2f2f2; stroke-width: 0.8"/>
     </g>
     <g id="line2d_44">
      <g>
       <use xlink:href="#m45ec17c0d7" x="44.7425" y="97.993731" style="stroke: #000000; stroke-width: 0.6"/>
      </g>
     </g>
    </g>
    <g id="ytick_9">
     <g id="line2d_45">
      <path d="M 44.7425 86.391655 
L 242.2745 86.391655 
" clip-path="url(#pacdae85a50)" style="fill: none; stroke-dasharray: 2.96,1.28; stroke-dashoffset: 0; stroke: #f2f2f2; stroke-width: 0.8"/>
     </g>
     <g id="line2d_46">
      <g>
       <use xlink:href="#m45ec17c0d7" x="44.7425" y="86.391655" style="stroke: #000000; stroke-width: 0.6"/>
      </g>
     </g>
    </g>
    <g id="ytick_10">
     <g id="line2d_47">
      <path d="M 44.7425 78.159852 
L 242.2745 78.159852 
" clip-path="url(#pacdae85a50)" style="fill: none; stroke-dasharray: 2.96,1.28; stroke-dashoffset: 0; stroke: #f2f2f2; stroke-width: 0.8"/>
     </g>
     <g id="line2d_48">
      <g>
       <use xlink:href="#m45ec17c0d7" x="44.7425" y="78.159852" style="stroke: #000000; stroke-width: 0.6"/>
      </g>
     </g>
    </g>
    <g id="ytick_11">
     <g id="line2d_49">
      <path d="M 44.7425 71.774769 
L 242.2745 71.774769 
" clip-path="url(#pacdae85a50)" style="fill: none; stroke-dasharray: 2.96,1.28; stroke-dashoffset: 0; stroke: #f2f2f2; stroke-width: 0.8"/>
     </g>
     <g id="line2d_50">
      <g>
       <use xlink:href="#m45ec17c0d7" x="44.7425" y="71.774769" style="stroke: #000000; stroke-width: 0.6"/>
      </g>
     </g>
    </g>
    <g id="ytick_12">
     <g id="line2d_51">
      <path d="M 44.7425 66.557776 
L 242.2745 66.557776 
" clip-path="url(#pacdae85a50)" style="fill: none; stroke-dasharray: 2.96,1.28; stroke-dashoffset: 0; stroke: #f2f2f2; stroke-width: 0.8"/>
     </g>
     <g id="line2d_52">
      <g>
       <use xlink:href="#m45ec17c0d7" x="44.7425" y="66.557776" style="stroke: #000000; stroke-width: 0.6"/>
      </g>
     </g>
    </g>
    <g id="ytick_13">
     <g id="line2d_53">
      <path d="M 44.7425 62.146872 
L 242.2745 62.146872 
" clip-path="url(#pacdae85a50)" style="fill: none; stroke-dasharray: 2.96,1.28; stroke-dashoffset: 0; stroke: #f2f2f2; stroke-width: 0.8"/>
     </g>
     <g id="line2d_54">
      <g>
       <use xlink:href="#m45ec17c0d7" x="44.7425" y="62.146872" style="stroke: #000000; stroke-width: 0.6"/>
      </g>
     </g>
    </g>
    <g id="ytick_14">
     <g id="line2d_55">
      <path d="M 44.7425 58.325973 
L 242.2745 58.325973 
" clip-path="url(#pacdae85a50)" style="fill: none; stroke-dasharray: 2.96,1.28; stroke-dashoffset: 0; stroke: #f2f2f2; stroke-width: 0.8"/>
     </g>
     <g id="line2d_56">
      <g>
       <use xlink:href="#m45ec17c0d7" x="44.7425" y="58.325973" style="stroke: #000000; stroke-width: 0.6"/>
      </g>
     </g>
    </g>
    <g id="ytick_15">
     <g id="line2d_57">
      <path d="M 44.7425 54.955701 
L 242.2745 54.955701 
" clip-path="url(#pacdae85a50)" style="fill: none; stroke-dasharray: 2.96,1.28; stroke-dashoffset: 0; stroke: #f2f2f2; stroke-width: 0.8"/>
     </g>
     <g id="line2d_58">
      <g>
       <use xlink:href="#m45ec17c0d7" x="44.7425" y="54.955701" style="stroke: #000000; stroke-width: 0.6"/>
      </g>
     </g>
    </g>
    <g id="ytick_16">
     <g id="line2d_59">
      <path d="M 44.7425 32.107011 
L 242.2745 32.107011 
" clip-path="url(#pacdae85a50)" style="fill: none; stroke-dasharray: 2.96,1.28; stroke-dashoffset: 0; stroke: #f2f2f2; stroke-width: 0.8"/>
     </g>
     <g id="line2d_60">
      <g>
       <use xlink:href="#m45ec17c0d7" x="44.7425" y="32.107011" style="stroke: #000000; stroke-width: 0.6"/>
      </g>
     </g>
    </g>
    <g id="ytick_17">
     <g id="line2d_61">
      <path d="M 44.7425 20.504935 
L 242.2745 20.504935 
" clip-path="url(#pacdae85a50)" style="fill: none; stroke-dasharray: 2.96,1.28; stroke-dashoffset: 0; stroke: #f2f2f2; stroke-width: 0.8"/>
     </g>
     <g id="line2d_62">
      <g>
       <use xlink:href="#m45ec17c0d7" x="44.7425" y="20.504935" style="stroke: #000000; stroke-width: 0.6"/>
      </g>
     </g>
    </g>
    <g id="ytick_18">
     <g id="line2d_63">
      <path d="M 44.7425 12.273131 
L 242.2745 12.273131 
" clip-path="url(#pacdae85a50)" style="fill: none; stroke-dasharray: 2.96,1.28; stroke-dashoffset: 0; stroke: #f2f2f2; stroke-width: 0.8"/>
     </g>
     <g id="line2d_64">
      <g>
       <use xlink:href="#m45ec17c0d7" x="44.7425" y="12.273131" style="stroke: #000000; stroke-width: 0.6"/>
      </g>
     </g>
    </g>
    <g id="text_6">
     <!-- Spectral acceleration, SA (g) -->
     <g transform="translate(13.27875 129.871075) rotate(-90) scale(0.08 -0.08)">
      <defs>
       <path id="DejaVuSans-53" d="M 3425 4513 
L 3425 3897 
Q 3066 4069 2747 4153 
Q 2428 4238 2131 4238 
Q 1616 4238 1336 4038 
Q 1056 3838 1056 3469 
Q 1056 3159 1242 3001 
Q 1428 2844 1947 2747 
L 2328 2669 
Q 3034 2534 3370 2195 
Q 3706 1856 3706 1288 
Q 3706 609 3251 259 
Q 2797 -91 1919 -91 
Q 1588 -91 1214 -16 
Q 841 59 441 206 
L 441 856 
Q 825 641 1194 531 
Q 1563 422 1919 422 
Q 2459 422 2753 634 
Q 3047 847 3047 1241 
Q 3047 1584 2836 1778 
Q 2625 1972 2144 2069 
L 1759 2144 
Q 1053 2284 737 2584 
Q 422 2884 422 3419 
Q 422 4038 858 4394 
Q 1294 4750 2059 4750 
Q 2388 4750 2728 4690 
Q 3069 4631 3425 4513 
z
" transform="scale(0.015625)"/>
       <path id="DejaVuSans-70" d="M 1159 525 
L 1159 -1331 
L 581 -1331 
L 581 3500 
L 1159 3500 
L 1159 2969 
Q 1341 3281 1617 3432 
Q 1894 3584 2278 3584 
Q 2916 3584 3314 3078 
Q 3713 2572 3713 1747 
Q 3713 922 3314 415 
Q 2916 -91 2278 -91 
Q 1894 -91 1617 61 
Q 1341 213 1159 525 
z
M 3116 1747 
Q 3116 2381 2855 2742 
Q 2594 3103 2138 3103 
Q 1681 3103 1420 2742 
Q 1159 2381 1159 1747 
Q 1159 1113 1420 752 
Q 1681 391 2138 391 
Q 2594 391 2855 752 
Q 3116 1113 3116 1747 
z
" transform="scale(0.015625)"/>
       <path id="DejaVuSans-63" d="M 3122 3366 
L 3122 2828 
Q 2878 2963 2633 3030 
Q 2388 3097 2138 3097 
Q 1578 3097 1268 2742 
Q 959 2388 959 1747 
Q 959 1106 1268 751 
Q 1578 397 2138 397 
Q 2388 397 2633 464 
Q 2878 531 3122 666 
L 3122 134 
Q 2881 22 2623 -34 
Q 2366 -91 2075 -91 
Q 1284 -91 818 406 
Q 353 903 353 1747 
Q 353 2603 823 3093 
Q 1294 3584 2113 3584 
Q 2378 3584 2631 3529 
Q 2884 3475 3122 3366 
z
" transform="scale(0.015625)"/>
       <path id="DejaVuSans-74" d="M 1172 4494 
L 1172 3500 
L 2356 3500 
L 2356 3053 
L 1172 3053 
L 1172 1153 
Q 1172 725 1289 603 
Q 1406 481 1766 481 
L 2356 481 
L 2356 0 
L 1766 0 
Q 1100 0 847 248 
Q 594 497 594 1153 
L 594 3053 
L 172 3053 
L 172 3500 
L 594 3500 
L 594 4494 
L 1172 4494 
z
" transform="scale(0.015625)"/>
       <path id="DejaVuSans-61" d="M 2194 1759 
Q 1497 1759 1228 1600 
Q 959 1441 959 1056 
Q 959 750 1161 570 
Q 1363 391 1709 391 
Q 2188 391 2477 730 
Q 2766 1069 2766 1631 
L 2766 1759 
L 2194 1759 
z
M 3341 1997 
L 3341 0 
L 2766 0 
L 2766 531 
Q 2569 213 2275 61 
Q 1981 -91 1556 -91 
Q 1019 -91 701 211 
Q 384 513 384 1019 
Q 384 1609 779 1909 
Q 1175 2209 1959 2209 
L 2766 2209 
L 2766 2266 
Q 2766 2663 2505 2880 
Q 2244 3097 1772 3097 
Q 1472 3097 1187 3025 
Q 903 2953 641 2809 
L 641 3341 
Q 956 3463 1253 3523 
Q 1550 3584 1831 3584 
Q 2591 3584 2966 3190 
Q 3341 2797 3341 1997 
z
" transform="scale(0.015625)"/>
       <path id="DejaVuSans-6c" d="M 603 4863 
L 1178 4863 
L 1178 0 
L 603 0 
L 603 4863 
z
" transform="scale(0.015625)"/>
       <path id="DejaVuSans-6e" d="M 3513 2113 
L 3513 0 
L 2938 0 
L 2938 2094 
Q 2938 2591 2744 2837 
Q 2550 3084 2163 3084 
Q 1697 3084 1428 2787 
Q 1159 2491 1159 1978 
L 1159 0 
L 581 0 
L 581 3500 
L 1159 3500 
L 1159 2956 
Q 1366 3272 1645 3428 
Q 1925 3584 2291 3584 
Q 2894 3584 3203 3211 
Q 3513 2838 3513 2113 
z
" transform="scale(0.015625)"/>
       <path id="DejaVuSans-41" d="M 2188 4044 
L 1331 1722 
L 3047 1722 
L 2188 4044 
z
M 1831 4666 
L 2547 4666 
L 4325 0 
L 3669 0 
L 3244 1197 
L 1141 1197 
L 716 0 
L 50 0 
L 1831 4666 
z
" transform="scale(0.015625)"/>
       <path id="DejaVuSans-67" d="M 2906 1791 
Q 2906 2416 2648 2759 
Q 2391 3103 1925 3103 
Q 1463 3103 1205 2759 
Q 947 2416 947 1791 
Q 947 1169 1205 825 
Q 1463 481 1925 481 
Q 2391 481 2648 825 
Q 2906 1169 2906 1791 
z
M 3481 434 
Q 3481 -459 3084 -895 
Q 2688 -1331 1869 -1331 
Q 1566 -1331 1297 -1286 
Q 1028 -1241 775 -1147 
L 775 -588 
Q 1028 -725 1275 -790 
Q 1522 -856 1778 -856 
Q 2344 -856 2625 -561 
Q 2906 -266 2906 331 
L 2906 616 
Q 2728 306 2450 153 
Q 2172 0 1784 0 
Q 1141 0 747 490 
Q 353 981 353 1791 
Q 353 2603 747 3093 
Q 1141 3584 1784 3584 
Q 2172 3584 2450 3431 
Q 2728 3278 2906 2969 
L 2906 3500 
L 3481 3500 
L 3481 434 
z
" transform="scale(0.015625)"/>
      </defs>
      <use xlink:href="#DejaVuSans-53"/>
      <use xlink:href="#DejaVuSans-70" x="63.476562"/>
      <use xlink:href="#DejaVuSans-65" x="126.953125"/>
      <use xlink:href="#DejaVuSans-63" x="188.476562"/>
      <use xlink:href="#DejaVuSans-74" x="243.457031"/>
      <use xlink:href="#DejaVuSans-72" x="282.666016"/>
      <use xlink:href="#DejaVuSans-61" x="323.779297"/>
      <use xlink:href="#DejaVuSans-6c" x="385.058594"/>
      <use xlink:href="#DejaVuSans-20" x="412.841797"/>
      <use xlink:href="#DejaVuSans-61" x="444.628906"/>
      <use xlink:href="#DejaVuSans-63" x="505.908203"/>
      <use xlink:href="#DejaVuSans-63" x="560.888672"/>
      <use xlink:href="#DejaVuSans-65" x="615.869141"/>
      <use xlink:href="#DejaVuSans-6c" x="677.392578"/>
      <use xlink:href="#DejaVuSans-65" x="705.175781"/>
      <use xlink:href="#DejaVuSans-72" x="766.699219"/>
      <use xlink:href="#DejaVuSans-61" x="807.8125"/>
      <use xlink:href="#DejaVuSans-74" x="869.091797"/>
      <use xlink:href="#DejaVuSans-69" x="908.300781"/>
      <use xlink:href="#DejaVuSans-6f" x="936.083984"/>
      <use xlink:href="#DejaVuSans-6e" x="997.265625"/>
      <use xlink:href="#DejaVuSans-2c" x="1060.644531"/>
      <use xlink:href="#DejaVuSans-20" x="1092.431641"/>
      <use xlink:href="#DejaVuSans-53" x="1124.21875"/>
      <use xlink:href="#DejaVuSans-41" x="1189.570312"/>
      <use xlink:href="#DejaVuSans-20" x="1257.978516"/>
      <use xlink:href="#DejaVuSans-28" x="1289.765625"/>
      <use xlink:href="#DejaVuSans-67" x="1328.779297"/>
      <use xlink:href="#DejaVuSans-29" x="1392.255859"/>
     </g>
    </g>
   </g>
   <g id="line2d_65">
    <path d="M 53.721227 24.499737 
L 73.459257 25.004512 
L 87.463612 28.125397 
L 98.326234 29.18235 
L 107.201642 32.427472 
L 121.205997 40.66879 
L 130.384708 43.566371 
L 132.068618 44.891548 
L 151.806648 56.149284 
L 165.811003 65.368418 
L 178.582888 73.644506 
L 185.549033 77.054717 
L 199.553388 81.147361 
L 219.291418 83.21018 
L 233.295773 93.411772 
" clip-path="url(#pacdae85a50)" style="fill: none; stroke: #b2b2b2; stroke-width: 0.8; stroke-linecap: square"/>
   </g>
   <g id="line2d_66">
    <path d="M 53.721227 65.083752 
L 73.459257 61.336024 
L 87.463612 57.63192 
L 98.326234 53.606442 
L 107.201642 50.473211 
L 121.205997 45.749964 
L 130.384708 43.566371 
L 132.068618 43.332497 
L 151.806648 43.583538 
L 165.811003 45.003304 
L 178.582888 50.516901 
L 185.549033 54.413272 
L 199.553388 61.406929 
L 219.291418 73.97681 
L 233.295773 84.625991 
" clip-path="url(#pacdae85a50)" style="fill: none; stroke: #b2b2b2; stroke-width: 0.8; stroke-linecap: square"/>
   </g>
   <g id="line2d_67">
    <path d="M 53.721227 46.302942 
L 73.459257 42.157767 
L 87.463612 41.251278 
L 98.326234 42.360332 
L 107.201642 41.822751 
L 121.205997 42.240865 
L 130.384708 43.566371 
L 132.068618 44.882691 
L 151.806648 50.085941 
L 165.811003 52.302912 
L 178.582888 54.502255 
L 185.549033 56.552744 
L 199.553388 63.742749 
L 219.291418 76.898536 
L 233.295773 90.798708 
" clip-path="url(#pacdae85a50)" style="fill: none; stroke: #b2b2b2; stroke-width: 0.8; stroke-linecap: square"/>
   </g>
   <g id="line2d_68">
    <path d="M 53.721227 37.3539 
L 73.459257 37.462593 
L 87.463612 38.158378 
L 98.326234 40.852441 
L 107.201642 40.493175 
L 121.205997 42.421514 
L 130.384708 43.566371 
L 132.068618 44.428406 
L 151.806648 48.020007 
L 165.811003 51.838017 
L 178.582888 59.558136 
L 185.549033 62.961918 
L 199.553388 75.892154 
L 219.291418 93.180879 
L 233.295773 107.777935 
" clip-path="url(#pacdae85a50)" style="fill: none; stroke: #b2b2b2; stroke-width: 0.8; stroke-linecap: square"/>
   </g>
   <g id="line2d_69">
    <path d="M 53.721227 26.511757 
L 73.459257 25.818226 
L 87.463612 28.372405 
L 98.326234 28.9655 
L 107.201642 33.759555 
L 121.205997 39.562471 
L 130.384708 43.566371 
L 132.068618 43.441645 
L 151.806648 55.978414 
L 165.811003 64.886331 
L 178.582888 74.745873 
L 185.549033 79.808311 
L 199.553388 90.012145 
L 219.291418 105.030082 
L 233.295773 116.407207 
" clip-path="url(#pacdae85a50)" style="fill: none; stroke: #b2b2b2; stroke-width: 0.8; stroke-linecap: square"/>
   </g>
   <g id="line2d_70">
    <path d="M 53.721227 52.032189 
L 73.459257 45.462558 
L 87.463612 41.596543 
L 98.326234 41.154893 
L 107.201642 41.088874 
L 121.205997 41.018896 
L 130.384708 43.566371 
L 132.068618 45.220509 
L 151.806648 50.003453 
L 165.811003 57.992385 
L 178.582888 64.334639 
L 185.549033 70.515104 
L 199.553388 81.565854 
L 219.291418 96.791865 
L 233.295773 111.232494 
" clip-path="url(#pacdae85a50)" style="fill: none; stroke: #b2b2b2; stroke-width: 0.8; stroke-linecap: square"/>
   </g>
   <g id="line2d_71">
    <path d="M 53.721227 35.008084 
L 73.459257 35.36174 
L 87.463612 36.827614 
L 98.326234 36.451298 
L 107.201642 39.59495 
L 121.205997 42.652193 
L 130.384708 43.566371 
L 132.068618 43.509751 
L 151.806648 45.177964 
L 165.811003 54.041645 
L 178.582888 57.883599 
L 185.549033 61.326151 
L 199.553388 66.110512 
L 219.291418 75.945932 
L 233.295773 88.154013 
" clip-path="url(#pacdae85a50)" style="fill: none; stroke: #b2b2b2; stroke-width: 0.8; stroke-linecap: square"/>
   </g>
   <g id="line2d_72">
    <path d="M 53.721227 55.177526 
L 73.459257 47.354525 
L 87.463612 46.428999 
L 98.326234 45.90478 
L 107.201642 44.319019 
L 121.205997 43.144083 
L 130.384708 43.566371 
L 132.068618 43.549092 
L 151.806648 41.937966 
L 165.811003 47.983934 
L 178.582888 53.90736 
L 185.549033 60.104476 
L 199.553388 68.771197 
L 219.291418 82.377041 
L 233.295773 93.738847 
" clip-path="url(#pacdae85a50)" style="fill: none; stroke: #b2b2b2; stroke-width: 0.8; stroke-linecap: square"/>
   </g>
   <g id="line2d_73">
    <path d="M 53.721227 53.657684 
L 73.459257 45.878002 
L 87.463612 44.804076 
L 98.326234 46.67836 
L 107.201642 46.900033 
L 121.205997 43.67696 
L 130.384708 43.566371 
L 132.068618 43.506465 
L 151.806648 44.744371 
L 165.811003 55.0204 
L 178.582888 64.243508 
L 185.549033 69.864982 
L 199.553388 83.709801 
L 219.291418 103.27619 
L 233.295773 118.248616 
" clip-path="url(#pacdae85a50)" style="fill: none; stroke: #b2b2b2; stroke-width: 0.8; stroke-linecap: square"/>
   </g>
   <g id="line2d_74">
    <path d="M 53.721227 55.31887 
L 73.459257 49.311525 
L 87.463612 47.232153 
L 98.326234 45.590776 
L 107.201642 45.415834 
L 121.205997 42.658075 
L 130.384708 43.566371 
L 132.068618 44.959694 
L 151.806648 51.086282 
L 165.811003 56.694941 
L 178.582888 61.814901 
L 185.549033 66.586728 
L 199.553388 74.049155 
L 219.291418 92.861569 
L 233.295773 105.99826 
" clip-path="url(#pacdae85a50)" style="fill: none; stroke: #b2b2b2; stroke-width: 0.8; stroke-linecap: square"/>
   </g>
   <g id="line2d_75">
    <path d="M 53.721227 45.669095 
L 73.459257 43.260998 
L 87.463612 41.320106 
L 98.326234 42.584589 
L 107.201642 41.992235 
L 121.205997 43.071799 
L 130.384708 43.566371 
L 132.068618 43.519565 
L 151.806648 44.983467 
L 165.811003 49.139376 
L 178.582888 56.36377 
L 185.549033 60.882242 
L 199.553388 68.862559 
L 219.291418 85.542352 
L 233.295773 101.53904 
" clip-path="url(#pacdae85a50)" style="fill: none; stroke: #b2b2b2; stroke-width: 0.8; stroke-linecap: square"/>
   </g>
   <g id="line2d_76">
    <path d="M 53.721227 42.285799 
L 73.459257 39.984581 
L 87.463612 36.064042 
L 98.326234 39.953333 
L 107.201642 40.800966 
L 121.205997 41.997794 
L 130.384708 43.566371 
L 132.068618 43.077587 
L 151.806648 52.664097 
L 165.811003 59.137897 
L 178.582888 66.349367 
L 185.549033 73.503979 
L 199.553388 75.481057 
L 219.291418 89.127573 
L 233.295773 101.298667 
" clip-path="url(#pacdae85a50)" style="fill: none; stroke: #b2b2b2; stroke-width: 0.8; stroke-linecap: square"/>
   </g>
   <g id="line2d_77">
    <path d="M 53.721227 45.658494 
L 73.459257 42.915918 
L 87.463612 41.779423 
L 98.326234 40.8242 
L 107.201642 39.835398 
L 121.205997 42.623051 
L 130.384708 43.566371 
L 132.068618 45.89398 
L 151.806648 56.537409 
L 165.811003 60.932978 
L 178.582888 67.626481 
L 185.549033 75.889074 
L 199.553388 89.422639 
L 219.291418 104.913873 
L 233.295773 114.780642 
" clip-path="url(#pacdae85a50)" style="fill: none; stroke: #b2b2b2; stroke-width: 0.8; stroke-linecap: square"/>
   </g>
   <g id="line2d_78">
    <path d="M 53.721227 34.215292 
L 73.459257 34.462144 
L 87.463612 32.416935 
L 98.326234 32.600706 
L 107.201642 37.68518 
L 121.205997 42.771878 
L 130.384708 43.566371 
L 132.068618 43.18028 
L 151.806648 47.708686 
L 165.811003 51.977753 
L 178.582888 60.866045 
L 185.549033 67.454335 
L 199.553388 76.237794 
L 219.291418 92.223754 
L 233.295773 103.00071 
" clip-path="url(#pacdae85a50)" style="fill: none; stroke: #b2b2b2; stroke-width: 0.8; stroke-linecap: square"/>
   </g>
   <g id="line2d_79">
    <path d="M 53.721227 28.969938 
L 73.459257 30.379542 
L 87.463612 32.972478 
L 98.326234 34.648995 
L 107.201642 38.510948 
L 121.205997 42.182445 
L 130.384708 43.566371 
L 132.068618 43.889334 
L 151.806648 49.254171 
L 165.811003 54.119123 
L 178.582888 57.762085 
L 185.549033 60.165222 
L 199.553388 71.422063 
L 219.291418 93.116624 
L 233.295773 110.190382 
" clip-path="url(#pacdae85a50)" style="fill: none; stroke: #b2b2b2; stroke-width: 0.8; stroke-linecap: square"/>
   </g>
   <g id="line2d_80">
    <path d="M 53.721227 52.401152 
L 73.459257 46.910035 
L 87.463612 44.878027 
L 98.326234 42.01268 
L 107.201642 42.344269 
L 121.205997 41.008278 
L 130.384708 43.566371 
L 132.068618 43.029304 
L 151.806648 46.991486 
L 165.811003 53.470742 
L 178.582888 58.33079 
L 185.549033 62.87979 
L 199.553388 68.370103 
L 219.291418 85.853699 
L 233.295773 102.567394 
" clip-path="url(#pacdae85a50)" style="fill: none; stroke: #b2b2b2; stroke-width: 0.8; stroke-linecap: square"/>
   </g>
   <g id="line2d_81">
    <path d="M 53.721227 53.197772 
L 73.459257 49.104111 
L 87.463612 45.648252 
L 98.326234 45.046372 
L 107.201642 44.214619 
L 121.205997 43.472257 
L 130.384708 43.566371 
L 132.068618 44.010714 
L 151.806648 44.388046 
L 165.811003 48.692713 
L 178.582888 53.684993 
L 185.549033 57.981192 
L 199.553388 64.028632 
L 219.291418 84.381686 
L 233.295773 97.581551 
" clip-path="url(#pacdae85a50)" style="fill: none; stroke: #b2b2b2; stroke-width: 0.8; stroke-linecap: square"/>
   </g>
   <g id="line2d_82">
    <path d="M 53.721227 49.844453 
L 73.459257 45.406283 
L 87.463612 44.448538 
L 98.326234 43.122677 
L 107.201642 43.430141 
L 121.205997 41.141275 
L 130.384708 43.566371 
L 132.068618 42.944513 
L 151.806648 44.915142 
L 165.811003 51.702036 
L 178.582888 58.982424 
L 185.549033 64.319822 
L 199.553388 74.609391 
L 219.291418 87.255205 
L 233.295773 99.78728 
" clip-path="url(#pacdae85a50)" style="fill: none; stroke: #b2b2b2; stroke-width: 0.8; stroke-linecap: square"/>
   </g>
   <g id="line2d_83">
    <path d="M 53.721227 44.745475 
L 73.459257 42.953793 
L 87.463612 42.092627 
L 98.326234 40.972816 
L 107.201642 40.328582 
L 121.205997 43.32105 
L 130.384708 43.566371 
L 132.068618 44.262738 
L 151.806648 51.974326 
L 165.811003 57.571228 
L 178.582888 66.245269 
L 185.549033 73.733325 
L 199.553388 86.877736 
L 219.291418 111.582427 
L 233.295773 129.259503 
" clip-path="url(#pacdae85a50)" style="fill: none; stroke: #b2b2b2; stroke-width: 0.8; stroke-linecap: square"/>
   </g>
   <g id="line2d_84">
    <path d="M 53.721227 29.116774 
L 73.459257 28.203309 
L 87.463612 23.616566 
L 98.326234 27.149467 
L 107.201642 30.795422 
L 121.205997 37.908847 
L 130.384708 43.566371 
L 132.068618 44.547774 
L 151.806648 57.317919 
L 165.811003 63.695743 
L 178.582888 72.81573 
L 185.549033 78.203252 
L 199.553388 83.841418 
L 219.291418 93.496444 
L 233.295773 104.523408 
" clip-path="url(#pacdae85a50)" style="fill: none; stroke: #b2b2b2; stroke-width: 0.8; stroke-linecap: square"/>
   </g>
   <g id="line2d_85">
    <path d="M 53.721227 56.0197 
L 73.459257 52.72412 
L 87.463612 49.798661 
L 98.326234 50.141603 
L 107.201642 49.760911 
L 121.205997 46.132056 
L 130.384708 43.566371 
L 132.068618 43.631004 
L 151.806648 43.563468 
L 165.811003 47.305587 
L 178.582888 48.888789 
L 185.549033 48.564034 
L 199.553388 53.377905 
L 219.291418 66.442461 
L 233.295773 81.633688 
" clip-path="url(#pacdae85a50)" style="fill: none; stroke: #b2b2b2; stroke-width: 0.8; stroke-linecap: square"/>
   </g>
   <g id="line2d_86">
    <path d="M 53.721227 44.911443 
L 73.459257 39.656075 
L 87.463612 38.883873 
L 98.326234 37.877592 
L 107.201642 35.560702 
L 121.205997 41.308887 
L 130.384708 43.566371 
L 132.068618 43.220477 
L 151.806648 41.877104 
L 165.811003 44.42379 
L 178.582888 45.985489 
L 185.549033 49.595173 
L 199.553388 58.201731 
L 219.291418 73.876001 
L 233.295773 91.260687 
" clip-path="url(#pacdae85a50)" style="fill: none; stroke: #b2b2b2; stroke-width: 0.8; stroke-linecap: square"/>
   </g>
   <g id="line2d_87">
    <path d="M 53.721227 54.256634 
L 73.459257 51.245435 
L 87.463612 48.038406 
L 98.326234 45.067514 
L 107.201642 42.77284 
L 121.205997 43.227922 
L 130.384708 43.566371 
L 132.068618 43.66278 
L 151.806648 47.373169 
L 165.811003 54.749013 
L 178.582888 62.705752 
L 185.549033 67.50602 
L 199.553388 80.675023 
L 219.291418 100.400889 
L 233.295773 119.651755 
" clip-path="url(#pacdae85a50)" style="fill: none; stroke: #b2b2b2; stroke-width: 0.8; stroke-linecap: square"/>
   </g>
   <g id="line2d_88">
    <path d="M 53.721227 37.356135 
L 73.459257 35.999556 
L 87.463612 38.884775 
L 98.326234 42.749523 
L 107.201642 44.532028 
L 121.205997 43.221117 
L 130.384708 43.566371 
L 132.068618 43.650443 
L 151.806648 46.933558 
L 165.811003 54.602819 
L 178.582888 62.614433 
L 185.549033 69.206354 
L 199.553388 78.078884 
L 219.291418 95.474446 
L 233.295773 108.44322 
" clip-path="url(#pacdae85a50)" style="fill: none; stroke: #b2b2b2; stroke-width: 0.8; stroke-linecap: square"/>
   </g>
   <g id="line2d_89">
    <path d="M 53.721227 43.830582 
L 73.459257 40.04533 
L 87.463612 40.066894 
L 98.326234 38.213839 
L 107.201642 39.606066 
L 121.205997 41.051313 
L 130.384708 43.566371 
L 132.068618 43.644604 
L 151.806648 49.751007 
L 165.811003 53.906647 
L 178.582888 60.283806 
L 185.549033 65.671815 
L 199.553388 75.886331 
L 219.291418 93.656097 
L 233.295773 109.768699 
" clip-path="url(#pacdae85a50)" style="fill: none; stroke: #b2b2b2; stroke-width: 0.8; stroke-linecap: square"/>
   </g>
   <g id="line2d_90">
    <path d="M 53.721227 46.622264 
L 73.459257 45.004246 
L 87.463612 44.057084 
L 98.326234 46.695949 
L 107.201642 46.01746 
L 121.205997 42.335744 
L 130.384708 43.566371 
L 132.068618 43.255045 
L 151.806648 55.335469 
L 165.811003 65.573658 
L 178.582888 74.770138 
L 185.549033 78.473667 
L 199.553388 86.408882 
L 219.291418 97.800083 
L 233.295773 107.156254 
" clip-path="url(#pacdae85a50)" style="fill: none; stroke: #b2b2b2; stroke-width: 0.8; stroke-linecap: square"/>
   </g>
   <g id="line2d_91">
    <path d="M 53.721227 52.475961 
L 73.459257 46.370829 
L 87.463612 40.867493 
L 98.326234 39.86533 
L 107.201642 38.412944 
L 121.205997 41.2748 
L 130.384708 43.566371 
L 132.068618 44.991666 
L 151.806648 53.883302 
L 165.811003 59.738533 
L 178.582888 69.391204 
L 185.549033 73.908248 
L 199.553388 85.569193 
L 219.291418 99.793974 
L 233.295773 111.010731 
" clip-path="url(#pacdae85a50)" style="fill: none; stroke: #b2b2b2; stroke-width: 0.8; stroke-linecap: square"/>
   </g>
   <g id="line2d_92">
    <path d="M 53.721227 61.490275 
L 73.459257 56.385898 
L 87.463612 54.721134 
L 98.326234 52.181736 
L 107.201642 48.519408 
L 121.205997 43.482361 
L 130.384708 43.566371 
L 132.068618 43.399126 
L 151.806648 51.522487 
L 165.811003 60.675235 
L 178.582888 68.797696 
L 185.549033 75.453698 
L 199.553388 89.278405 
L 219.291418 112.347918 
L 233.295773 132.0912 
" clip-path="url(#pacdae85a50)" style="fill: none; stroke: #b2b2b2; stroke-width: 0.8; stroke-linecap: square"/>
   </g>
   <g id="line2d_93">
    <path d="M 53.721227 45.851661 
L 73.459257 46.773878 
L 87.463612 42.523191 
L 98.326234 40.845028 
L 107.201642 39.472389 
L 121.205997 42.326665 
L 130.384708 43.566371 
L 132.068618 44.3948 
L 151.806648 51.189683 
L 165.811003 55.804578 
L 178.582888 63.164772 
L 185.549033 66.751268 
L 199.553388 73.96584 
L 219.291418 89.453071 
L 233.295773 106.641739 
" clip-path="url(#pacdae85a50)" style="fill: none; stroke: #b2b2b2; stroke-width: 0.8; stroke-linecap: square"/>
   </g>
   <g id="line2d_94">
    <path d="M 53.721227 42.608543 
L 73.459257 40.238036 
L 87.463612 37.954938 
L 98.326234 37.506704 
L 107.201642 38.868236 
L 121.205997 41.680791 
L 130.384708 43.566371 
L 132.068618 43.515934 
L 151.806648 50.596125 
L 165.811003 52.504377 
L 178.582888 60.746013 
L 185.549033 64.434042 
L 199.553388 70.734312 
L 219.291418 87.464034 
L 233.295773 104.139776 
" clip-path="url(#pacdae85a50)" style="fill: none; stroke: #b2b2b2; stroke-width: 0.8; stroke-linecap: square"/>
   </g>
   <g id="line2d_95">
    <path d="M 53.721227 54.961325 
L 73.459257 54.152531 
L 87.463612 52.254698 
L 98.326234 49.950368 
L 107.201642 48.627194 
L 121.205997 45.127021 
L 130.384708 43.566371 
L 132.068618 43.165312 
L 151.806648 42.945872 
L 165.811003 49.732139 
L 178.582888 53.311963 
L 185.549033 56.990712 
L 199.553388 64.789039 
L 219.291418 79.94898 
L 233.295773 89.902789 
" clip-path="url(#pacdae85a50)" style="fill: none; stroke: #b2b2b2; stroke-width: 0.8; stroke-linecap: square"/>
   </g>
   <g id="line2d_96">
    <path d="M 53.721227 55.838891 
L 73.459257 49.3033 
L 87.463612 46.352039 
L 98.326234 44.9913 
L 107.201642 44.880502 
L 121.205997 41.571048 
L 130.384708 43.566371 
L 132.068618 42.917524 
L 151.806648 47.366443 
L 165.811003 51.782846 
L 178.582888 57.484058 
L 185.549033 61.100608 
L 199.553388 67.147364 
L 219.291418 82.174018 
L 233.295773 89.993931 
" clip-path="url(#pacdae85a50)" style="fill: none; stroke: #b2b2b2; stroke-width: 0.8; stroke-linecap: square"/>
   </g>
   <g id="line2d_97">
    <path d="M 53.721227 41.886849 
L 73.459257 40.959301 
L 87.463612 38.653122 
L 98.326234 40.61348 
L 107.201642 41.272537 
L 121.205997 42.61949 
L 130.384708 43.566371 
L 132.068618 45.10456 
L 151.806648 53.10906 
L 165.811003 60.738101 
L 178.582888 64.198458 
L 185.549033 64.851923 
L 199.553388 77.752387 
L 219.291418 90.162953 
L 233.295773 103.42892 
" clip-path="url(#pacdae85a50)" style="fill: none; stroke: #b2b2b2; stroke-width: 0.8; stroke-linecap: square"/>
   </g>
   <g id="line2d_98">
    <path d="M 53.721227 31.970462 
L 73.459257 31.890885 
L 87.463612 34.23895 
L 98.326234 36.412828 
L 107.201642 37.271792 
L 121.205997 40.168909 
L 130.384708 43.566371 
L 132.068618 43.606875 
L 151.806648 55.999781 
L 165.811003 65.503912 
L 178.582888 77.163721 
L 185.549033 81.763907 
L 199.553388 93.21822 
L 219.291418 114.328964 
L 233.295773 130.653494 
" clip-path="url(#pacdae85a50)" style="fill: none; stroke: #b2b2b2; stroke-width: 0.8; stroke-linecap: square"/>
   </g>
   <g id="line2d_99">
    <path d="M 53.721227 42.397622 
L 73.459257 39.541806 
L 87.463612 36.581947 
L 98.326234 36.073302 
L 107.201642 35.528728 
L 121.205997 41.163918 
L 130.384708 43.566371 
L 132.068618 43.760644 
L 151.806648 55.817311 
L 165.811003 64.447356 
L 178.582888 74.040572 
L 185.549033 78.881421 
L 199.553388 90.188765 
L 219.291418 107.121882 
L 233.295773 122.753661 
" clip-path="url(#pacdae85a50)" style="fill: none; stroke: #b2b2b2; stroke-width: 0.8; stroke-linecap: square"/>
   </g>
   <g id="line2d_100">
    <path d="M 53.721227 42.650314 
L 73.459257 39.674011 
L 87.463612 36.575772 
L 98.326234 38.396578 
L 107.201642 38.46144 
L 121.205997 40.192497 
L 130.384708 43.566371 
L 132.068618 43.605382 
L 151.806648 52.114571 
L 165.811003 56.201187 
L 178.582888 61.058693 
L 185.549033 65.24736 
L 199.553388 72.371043 
L 219.291418 88.831951 
L 233.295773 105.280407 
" clip-path="url(#pacdae85a50)" style="fill: none; stroke: #b2b2b2; stroke-width: 0.8; stroke-linecap: square"/>
   </g>
   <g id="line2d_101">
    <path d="M 53.721227 35.169177 
L 73.459257 31.23407 
L 87.463612 31.402194 
L 98.326234 32.201689 
L 107.201642 33.478621 
L 121.205997 37.796569 
L 130.384708 43.566371 
L 132.068618 44.351803 
L 151.806648 49.887044 
L 165.811003 54.9497 
L 178.582888 56.9421 
L 185.549033 58.783271 
L 199.553388 64.363262 
L 219.291418 75.026589 
L 233.295773 88.489176 
" clip-path="url(#pacdae85a50)" style="fill: none; stroke: #b2b2b2; stroke-width: 0.8; stroke-linecap: square"/>
   </g>
   <g id="line2d_102">
    <path d="M 53.721227 23.405154 
L 73.459257 20.570722 
L 87.463612 23.22979 
L 98.326234 28.024227 
L 107.201642 32.022449 
L 121.205997 36.802119 
L 130.384708 43.566371 
L 132.068618 43.585547 
L 151.806648 57.370668 
L 165.811003 63.716843 
L 178.582888 69.941876 
L 185.549033 73.24571 
L 199.553388 82.588191 
L 219.291418 97.240625 
L 233.295773 103.376387 
" clip-path="url(#pacdae85a50)" style="fill: none; stroke: #b2b2b2; stroke-width: 0.8; stroke-linecap: square"/>
   </g>
   <g id="line2d_103">
    <path d="M 53.721227 46.411405 
L 73.459257 44.563426 
L 87.463612 41.547858 
L 98.326234 38.647574 
L 107.201642 41.230869 
L 121.205997 41.750353 
L 130.384708 43.566371 
L 132.068618 43.633927 
L 151.806648 48.209422 
L 165.811003 50.523905 
L 178.582888 54.798519 
L 185.549033 57.181234 
L 199.553388 62.566286 
L 219.291418 69.796669 
L 233.295773 79.676223 
" clip-path="url(#pacdae85a50)" style="fill: none; stroke: #b2b2b2; stroke-width: 0.8; stroke-linecap: square"/>
   </g>
   <g id="line2d_104">
    <path d="M 53.721227 45.828077 
L 73.459257 41.7748 
L 87.463612 43.014532 
L 98.326234 45.028885 
L 107.201642 43.909853 
L 121.205997 44.310117 
L 130.384708 43.566371 
L 132.068618 43.626879 
L 151.806648 51.834351 
L 165.811003 56.385752 
L 178.582888 65.087116 
L 185.549033 68.299571 
L 199.553388 78.996339 
L 219.291418 91.199324 
L 233.295773 101.693015 
" clip-path="url(#pacdae85a50)" style="fill: none; stroke: #b2b2b2; stroke-width: 0.8; stroke-linecap: square"/>
   </g>
   <g id="line2d_105">
    <path d="M 53.721227 48.504563 
L 73.459257 45.936011 
L 87.463612 43.133034 
L 98.326234 44.326406 
L 107.201642 42.766172 
L 121.205997 42.393564 
L 130.384708 43.566371 
L 132.068618 43.566465 
L 151.806648 53.155536 
L 165.811003 58.428138 
L 178.582888 69.389692 
L 185.549033 73.893437 
L 199.553388 87.082829 
L 219.291418 104.296086 
L 233.295773 114.290226 
" clip-path="url(#pacdae85a50)" style="fill: none; stroke: #b2b2b2; stroke-width: 0.8; stroke-linecap: square"/>
   </g>
   <g id="line2d_106">
    <path d="M 53.721227 13.1472 
L 73.459257 15.024405 
L 87.463612 22.196247 
L 98.326234 24.599674 
L 107.201642 29.008987 
L 121.205997 36.024591 
L 130.384708 43.566371 
L 132.068618 45.04499 
L 151.806648 59.560591 
L 165.811003 77.592524 
L 178.582888 85.791032 
L 185.549033 92.077791 
L 199.553388 103.360264 
L 219.291418 113.809155 
L 233.295773 124.05402 
" clip-path="url(#pacdae85a50)" style="fill: none; stroke: #b2b2b2; stroke-width: 0.8; stroke-linecap: square"/>
   </g>
   <g id="line2d_107">
    <path d="M 53.721227 56.663924 
L 73.459257 50.668393 
L 87.463612 48.533772 
L 98.326234 46.769243 
L 107.201642 44.712414 
L 121.205997 42.428548 
L 130.384708 43.566371 
L 132.068618 42.800178 
L 151.806648 47.105896 
L 165.811003 47.557501 
L 178.582888 53.392317 
L 185.549033 56.045181 
L 199.553388 64.074673 
L 219.291418 79.058984 
L 233.295773 90.702296 
" clip-path="url(#pacdae85a50)" style="fill: none; stroke: #b2b2b2; stroke-width: 0.8; stroke-linecap: square"/>
   </g>
   <g id="line2d_108">
    <path d="M 53.721227 38.554465 
L 73.459257 34.047982 
L 87.463612 32.836433 
L 98.326234 34.024542 
L 107.201642 32.568569 
L 121.205997 37.609768 
L 130.384708 43.566371 
L 132.068618 43.44984 
L 151.806648 51.470717 
L 165.811003 61.584826 
L 178.582888 67.040974 
L 185.549033 72.461011 
L 199.553388 80.631959 
L 219.291418 90.306926 
L 233.295773 102.847183 
" clip-path="url(#pacdae85a50)" style="fill: none; stroke: #b2b2b2; stroke-width: 0.8; stroke-linecap: square"/>
   </g>
   <g id="line2d_109">
    <path d="M 53.721227 51.917138 
L 73.459257 44.596273 
L 87.463612 39.636305 
L 98.326234 37.419122 
L 107.201642 37.835566 
L 121.205997 40.934139 
L 130.384708 43.566371 
L 132.068618 43.132306 
L 151.806648 52.057229 
L 165.811003 58.451622 
L 178.582888 63.044871 
L 185.549033 67.918649 
L 199.553388 73.624697 
L 219.291418 89.610238 
L 233.295773 98.737285 
" clip-path="url(#pacdae85a50)" style="fill: none; stroke: #b2b2b2; stroke-width: 0.8; stroke-linecap: square"/>
   </g>
   <g id="line2d_110">
    <path d="M 53.721227 53.333062 
L 73.459257 51.007934 
L 87.463612 49.046844 
L 98.326234 45.376716 
L 107.201642 43.075738 
L 121.205997 43.112437 
L 130.384708 43.566371 
L 132.068618 43.952889 
L 151.806648 49.260568 
L 165.811003 57.569972 
L 178.582888 64.497917 
L 185.549033 67.453344 
L 199.553388 76.037471 
L 219.291418 87.179754 
L 233.295773 100.681413 
" clip-path="url(#pacdae85a50)" style="fill: none; stroke: #b2b2b2; stroke-width: 0.8; stroke-linecap: square"/>
   </g>
   <g id="line2d_111">
    <path d="M 53.721227 43.546587 
L 73.459257 37.07482 
L 87.463612 34.760113 
L 98.326234 36.809783 
L 107.201642 37.2618 
L 121.205997 41.711403 
L 130.384708 43.566371 
L 132.068618 45.01251 
L 151.806648 50.758702 
L 165.811003 56.496255 
L 178.582888 62.460666 
L 185.549033 67.060635 
L 199.553388 75.208236 
L 219.291418 90.372608 
L 233.295773 104.006857 
" clip-path="url(#pacdae85a50)" style="fill: none; stroke: #b2b2b2; stroke-width: 0.8; stroke-linecap: square"/>
   </g>
   <g id="line2d_112">
    <path d="M 53.721227 46.239503 
L 73.459257 41.660649 
L 87.463612 37.658405 
L 98.326234 36.415697 
L 107.201642 38.304079 
L 121.205997 40.061275 
L 130.384708 43.566371 
L 132.068618 44.344564 
L 151.806648 50.946999 
L 165.811003 54.495155 
L 178.582888 62.194428 
L 185.549033 68.031031 
L 199.553388 74.386567 
L 219.291418 89.136251 
L 233.295773 98.567462 
" clip-path="url(#pacdae85a50)" style="fill: none; stroke: #b2b2b2; stroke-width: 0.8; stroke-linecap: square"/>
   </g>
   <g id="line2d_113">
    <path d="M 53.721227 50.617566 
L 73.459257 44.843059 
L 87.463612 43.14035 
L 98.326234 44.284579 
L 107.201642 40.446892 
L 121.205997 42.790307 
L 130.384708 43.566371 
L 132.068618 44.0862 
L 151.806648 48.136883 
L 165.811003 50.341183 
L 178.582888 54.217634 
L 185.549033 54.704843 
L 199.553388 69.306197 
L 219.291418 88.817301 
L 233.295773 107.795979 
" clip-path="url(#pacdae85a50)" style="fill: none; stroke: #b2b2b2; stroke-width: 0.8; stroke-linecap: square"/>
   </g>
   <g id="line2d_114">
    <path d="M 53.721227 60.783949 
L 73.459257 58.101241 
L 87.463612 55.206117 
L 98.326234 52.337531 
L 107.201642 48.800304 
L 121.205997 45.135338 
L 130.384708 43.566371 
L 132.068618 43.58043 
L 151.806648 41.593502 
L 165.811003 44.684474 
L 178.582888 50.331904 
L 185.549033 53.699241 
L 199.553388 62.974239 
L 219.291418 75.860696 
L 233.295773 85.128501 
" clip-path="url(#pacdae85a50)" style="fill: none; stroke: #b2b2b2; stroke-width: 0.8; stroke-linecap: square"/>
   </g>
   <g id="line2d_115">
    <path d="M 53.721227 45.004814 
L 73.459257 41.896571 
L 87.463612 40.420786 
L 98.326234 40.497959 
L 107.201642 40.588512 
L 121.205997 41.976123 
L 130.384708 43.566371 
L 132.068618 43.929568 
L 151.806648 49.937909 
L 165.811003 55.853402 
L 178.582888 62.342662 
L 185.549033 66.661509 
L 199.553388 75.575767 
L 219.291418 90.637043 
L 233.295773 103.715715 
" clip-path="url(#pacdae85a50)" style="fill: none; stroke: #ff0000; stroke-width: 2; stroke-linecap: square"/>
   </g>
   <g id="line2d_116">
    <path d="M 53.721227 23.803205 
L 73.459257 23.439527 
L 87.463612 24.784909 
L 98.326234 27.460172 
L 107.201642 30.682047 
L 121.205997 37.924522 
L 130.384708 43.566371 
L 132.068618 42.132127 
L 151.806648 41.143984 
L 165.811003 42.958761 
L 178.582888 46.378948 
L 185.549033 49.088701 
L 199.553388 55.584849 
L 219.291418 68.035677 
L 233.295773 79.157283 
" clip-path="url(#pacdae85a50)" style="fill: none; stroke-dasharray: 7.4,3.2; stroke-dashoffset: 0; stroke: #ff0000; stroke-width: 2"/>
   </g>
   <g id="line2d_117">
    <path d="M 53.721227 66.206423 
L 73.459257 60.353615 
L 87.463612 56.056663 
L 98.326234 53.535745 
L 107.201642 50.494977 
L 121.205997 46.027724 
L 130.384708 43.566372 
L 132.068618 45.727009 
L 151.806648 58.731834 
L 165.811003 68.748043 
L 178.582888 78.306375 
L 185.549033 84.234316 
L 199.553388 95.566685 
L 219.291418 113.238409 
L 233.295773 128.274146 
" clip-path="url(#pacdae85a50)" style="fill: none; stroke-dasharray: 7.4,3.2; stroke-dashoffset: 0; stroke: #ff0000; stroke-width: 2"/>
   </g>
   <g id="line2d_118">
    <path d="M 53.721227 44.926022 
L 73.459257 41.795944 
L 87.463612 40.429215 
L 98.326234 40.470227 
L 107.201642 40.624402 
L 121.205997 41.860751 
L 130.384708 43.566371 
L 132.068618 43.875456 
L 151.806648 49.88457 
L 165.811003 55.84079 
L 178.582888 62.358305 
L 185.549033 66.669117 
L 199.553388 75.568116 
L 219.291418 90.640633 
L 233.295773 103.775588 
" clip-path="url(#pacdae85a50)" style="fill: none; stroke: #0000ff; stroke-width: 2; stroke-linecap: square"/>
   </g>
   <g id="line2d_119">
    <path d="M 53.721227 23.716626 
L 73.459257 23.383921 
L 87.463612 24.891246 
L 98.326234 27.395174 
L 107.201642 30.680609 
L 121.205997 37.706179 
L 130.384708 43.566371 
L 132.068618 42.457264 
L 151.806648 40.918039 
L 165.811003 42.982356 
L 178.582888 46.466345 
L 185.549033 49.014423 
L 199.553388 55.439983 
L 219.291418 67.953318 
L 233.295773 79.20079 
" clip-path="url(#pacdae85a50)" style="fill: none; stroke-dasharray: 7.4,3.2; stroke-dashoffset: 0; stroke: #0000ff; stroke-width: 2"/>
   </g>
   <g id="line2d_120">
    <path d="M 53.721227 66.135418 
L 73.459257 60.207968 
L 87.463612 55.967183 
L 98.326234 53.54528 
L 107.201642 50.568196 
L 121.205997 46.015323 
L 130.384708 43.566371 
L 132.068618 45.293648 
L 151.806648 58.8511 
L 165.811003 68.699224 
L 178.582888 78.250264 
L 185.549033 84.323811 
L 199.553388 95.696248 
L 219.291418 113.327948 
L 233.295773 128.350386 
" clip-path="url(#pacdae85a50)" style="fill: none; stroke-dasharray: 7.4,3.2; stroke-dashoffset: 0; stroke: #0000ff; stroke-width: 2"/>
   </g>
   <g id="patch_3">
    <path d="M 44.7425 138.0384 
L 44.7425 7.2 
" style="fill: none; stroke: #000000; stroke-width: 0.8; stroke-linejoin: miter; stroke-linecap: square"/>
   </g>
   <g id="patch_4">
    <path d="M 242.2745 138.0384 
L 242.2745 7.2 
" style="fill: none; stroke: #000000; stroke-width: 0.8; stroke-linejoin: miter; stroke-linecap: square"/>
   </g>
   <g id="patch_5">
    <path d="M 44.7425 138.0384 
L 242.2745 138.0384 
" style="fill: none; stroke: #000000; stroke-width: 0.8; stroke-linejoin: miter; stroke-linecap: square"/>
   </g>
   <g id="patch_6">
    <path d="M 44.7425 7.2 
L 242.2745 7.2 
" style="fill: none; stroke: #000000; stroke-width: 0.8; stroke-linejoin: miter; stroke-linecap: square"/>
   </g>
   <g id="legend_1">
    <g id="patch_7">
     <path d="M 247.8745 104.47295 
L 432.5945 104.47295 
Q 434.1945 104.47295 434.1945 102.87295 
L 434.1945 42.36545 
Q 434.1945 40.76545 432.5945 40.76545 
L 247.8745 40.76545 
Q 246.2745 40.76545 246.2745 42.36545 
L 246.2745 102.87295 
Q 246.2745 104.47295 247.8745 104.47295 
z
" style="fill: #ffffff; opacity: 0.8; stroke: #cccccc; stroke-linejoin: miter"/>
    </g>
    <g id="line2d_121">
     <path d="M 249.4745 47.2442 
L 257.4745 47.2442 
L 265.4745 47.2442 
" style="fill: none; stroke: #b2b2b2; stroke-width: 0.8; stroke-linecap: square"/>
    </g>
    <g id="text_7">
     <!-- Individual selected GMs -->
     <g transform="translate(271.8745 50.0442) scale(0.08 -0.08)">
      <defs>
       <path id="DejaVuSans-49" d="M 628 4666 
L 1259 4666 
L 1259 0 
L 628 0 
L 628 4666 
z
" transform="scale(0.015625)"/>
       <path id="DejaVuSans-76" d="M 191 3500 
L 800 3500 
L 1894 563 
L 2988 3500 
L 3597 3500 
L 2284 0 
L 1503 0 
L 191 3500 
z
" transform="scale(0.015625)"/>
       <path id="DejaVuSans-75" d="M 544 1381 
L 544 3500 
L 1119 3500 
L 1119 1403 
Q 1119 906 1312 657 
Q 1506 409 1894 409 
Q 2359 409 2629 706 
Q 2900 1003 2900 1516 
L 2900 3500 
L 3475 3500 
L 3475 0 
L 2900 0 
L 2900 538 
Q 2691 219 2414 64 
Q 2138 -91 1772 -91 
Q 1169 -91 856 284 
Q 544 659 544 1381 
z
M 1991 3584 
L 1991 3584 
z
" transform="scale(0.015625)"/>
       <path id="DejaVuSans-47" d="M 3809 666 
L 3809 1919 
L 2778 1919 
L 2778 2438 
L 4434 2438 
L 4434 434 
Q 4069 175 3628 42 
Q 3188 -91 2688 -91 
Q 1594 -91 976 548 
Q 359 1188 359 2328 
Q 359 3472 976 4111 
Q 1594 4750 2688 4750 
Q 3144 4750 3555 4637 
Q 3966 4525 4313 4306 
L 4313 3634 
Q 3963 3931 3569 4081 
Q 3175 4231 2741 4231 
Q 1884 4231 1454 3753 
Q 1025 3275 1025 2328 
Q 1025 1384 1454 906 
Q 1884 428 2741 428 
Q 3075 428 3337 486 
Q 3600 544 3809 666 
z
" transform="scale(0.015625)"/>
       <path id="DejaVuSans-4d" d="M 628 4666 
L 1569 4666 
L 2759 1491 
L 3956 4666 
L 4897 4666 
L 4897 0 
L 4281 0 
L 4281 4097 
L 3078 897 
L 2444 897 
L 1241 4097 
L 1241 0 
L 628 0 
L 628 4666 
z
" transform="scale(0.015625)"/>
      </defs>
      <use xlink:href="#DejaVuSans-49"/>
      <use xlink:href="#DejaVuSans-6e" x="29.492188"/>
      <use xlink:href="#DejaVuSans-64" x="92.871094"/>
      <use xlink:href="#DejaVuSans-69" x="156.347656"/>
      <use xlink:href="#DejaVuSans-76" x="184.130859"/>
      <use xlink:href="#DejaVuSans-69" x="243.310547"/>
      <use xlink:href="#DejaVuSans-64" x="271.09375"/>
      <use xlink:href="#DejaVuSans-75" x="334.570312"/>
      <use xlink:href="#DejaVuSans-61" x="397.949219"/>
      <use xlink:href="#DejaVuSans-6c" x="459.228516"/>
      <use xlink:href="#DejaVuSans-20" x="487.011719"/>
      <use xlink:href="#DejaVuSans-73" x="518.798828"/>
      <use xlink:href="#DejaVuSans-65" x="570.898438"/>
      <use xlink:href="#DejaVuSans-6c" x="632.421875"/>
      <use xlink:href="#DejaVuSans-65" x="660.205078"/>
      <use xlink:href="#DejaVuSans-63" x="721.728516"/>
      <use xlink:href="#DejaVuSans-74" x="776.708984"/>
      <use xlink:href="#DejaVuSans-65" x="815.917969"/>
      <use xlink:href="#DejaVuSans-64" x="877.441406"/>
      <use xlink:href="#DejaVuSans-20" x="940.917969"/>
      <use xlink:href="#DejaVuSans-47" x="972.705078"/>
      <use xlink:href="#DejaVuSans-4d" x="1050.195312"/>
      <use xlink:href="#DejaVuSans-73" x="1136.474609"/>
     </g>
    </g>
    <g id="line2d_122">
     <path d="M 249.4745 58.9867 
L 257.4745 58.9867 
L 265.4745 58.9867 
" style="fill: none; stroke: #ff0000; stroke-width: 2; stroke-linecap: square"/>
    </g>
    <g id="text_8">
     <!-- GCIM median -->
     <g transform="translate(271.8745 61.7867) scale(0.08 -0.08)">
      <defs>
       <path id="DejaVuSans-43" d="M 4122 4306 
L 4122 3641 
Q 3803 3938 3442 4084 
Q 3081 4231 2675 4231 
Q 1875 4231 1450 3742 
Q 1025 3253 1025 2328 
Q 1025 1406 1450 917 
Q 1875 428 2675 428 
Q 3081 428 3442 575 
Q 3803 722 4122 1019 
L 4122 359 
Q 3791 134 3420 21 
Q 3050 -91 2638 -91 
Q 1578 -91 968 557 
Q 359 1206 359 2328 
Q 359 3453 968 4101 
Q 1578 4750 2638 4750 
Q 3056 4750 3426 4639 
Q 3797 4528 4122 4306 
z
" transform="scale(0.015625)"/>
       <path id="DejaVuSans-6d" d="M 3328 2828 
Q 3544 3216 3844 3400 
Q 4144 3584 4550 3584 
Q 5097 3584 5394 3201 
Q 5691 2819 5691 2113 
L 5691 0 
L 5113 0 
L 5113 2094 
Q 5113 2597 4934 2840 
Q 4756 3084 4391 3084 
Q 3944 3084 3684 2787 
Q 3425 2491 3425 1978 
L 3425 0 
L 2847 0 
L 2847 2094 
Q 2847 2600 2669 2842 
Q 2491 3084 2119 3084 
Q 1678 3084 1418 2786 
Q 1159 2488 1159 1978 
L 1159 0 
L 581 0 
L 581 3500 
L 1159 3500 
L 1159 2956 
Q 1356 3278 1631 3431 
Q 1906 3584 2284 3584 
Q 2666 3584 2933 3390 
Q 3200 3197 3328 2828 
z
" transform="scale(0.015625)"/>
      </defs>
      <use xlink:href="#DejaVuSans-47"/>
      <use xlink:href="#DejaVuSans-43" x="77.490234"/>
      <use xlink:href="#DejaVuSans-49" x="147.314453"/>
      <use xlink:href="#DejaVuSans-4d" x="176.806641"/>
      <use xlink:href="#DejaVuSans-20" x="263.085938"/>
      <use xlink:href="#DejaVuSans-6d" x="294.873047"/>
      <use xlink:href="#DejaVuSans-65" x="392.285156"/>
      <use xlink:href="#DejaVuSans-64" x="453.808594"/>
      <use xlink:href="#DejaVuSans-69" x="517.285156"/>
      <use xlink:href="#DejaVuSans-61" x="545.068359"/>
      <use xlink:href="#DejaVuSans-6e" x="606.347656"/>
     </g>
    </g>
    <g id="line2d_123">
     <path d="M 249.4745 72.01045 
L 257.4745 72.01045 
L 265.4745 72.01045 
" style="fill: none; stroke-dasharray: 7.4,3.2; stroke-dashoffset: 0; stroke: #ff0000; stroke-width: 2"/>
    </g>
    <g id="text_9">
     <!-- GCIM $16^{th}$ and $84^{th}$ percentiles -->
     <g transform="translate(271.8745 74.81045) scale(0.08 -0.08)">
      <defs>
       <path id="DejaVuSans-36" d="M 2113 2584 
Q 1688 2584 1439 2293 
Q 1191 2003 1191 1497 
Q 1191 994 1439 701 
Q 1688 409 2113 409 
Q 2538 409 2786 701 
Q 3034 994 3034 1497 
Q 3034 2003 2786 2293 
Q 2538 2584 2113 2584 
z
M 3366 4563 
L 3366 3988 
Q 3128 4100 2886 4159 
Q 2644 4219 2406 4219 
Q 1781 4219 1451 3797 
Q 1122 3375 1075 2522 
Q 1259 2794 1537 2939 
Q 1816 3084 2150 3084 
Q 2853 3084 3261 2657 
Q 3669 2231 3669 1497 
Q 3669 778 3244 343 
Q 2819 -91 2113 -91 
Q 1303 -91 875 529 
Q 447 1150 447 2328 
Q 447 3434 972 4092 
Q 1497 4750 2381 4750 
Q 2619 4750 2861 4703 
Q 3103 4656 3366 4563 
z
" transform="scale(0.015625)"/>
       <path id="DejaVuSans-Oblique-74" d="M 2706 3500 
L 2619 3053 
L 1472 3053 
L 1100 1153 
Q 1081 1047 1072 975 
Q 1063 903 1063 863 
Q 1063 663 1183 572 
Q 1303 481 1569 481 
L 2150 481 
L 2053 0 
L 1503 0 
Q 991 0 739 200 
Q 488 400 488 806 
Q 488 878 497 964 
Q 506 1050 525 1153 
L 897 3053 
L 409 3053 
L 500 3500 
L 978 3500 
L 1172 4494 
L 1747 4494 
L 1556 3500 
L 2706 3500 
z
" transform="scale(0.015625)"/>
       <path id="DejaVuSans-Oblique-68" d="M 3566 2113 
L 3156 0 
L 2578 0 
L 2988 2091 
Q 3016 2238 3031 2350 
Q 3047 2463 3047 2528 
Q 3047 2791 2881 2937 
Q 2716 3084 2419 3084 
Q 1956 3084 1617 2771 
Q 1278 2459 1178 1941 
L 800 0 
L 225 0 
L 1172 4863 
L 1747 4863 
L 1375 2950 
Q 1594 3244 1934 3414 
Q 2275 3584 2650 3584 
Q 3113 3584 3367 3334 
Q 3622 3084 3622 2631 
Q 3622 2519 3608 2391 
Q 3594 2263 3566 2113 
z
" transform="scale(0.015625)"/>
       <path id="DejaVuSans-38" d="M 2034 2216 
Q 1584 2216 1326 1975 
Q 1069 1734 1069 1313 
Q 1069 891 1326 650 
Q 1584 409 2034 409 
Q 2484 409 2743 651 
Q 3003 894 3003 1313 
Q 3003 1734 2745 1975 
Q 2488 2216 2034 2216 
z
M 1403 2484 
Q 997 2584 770 2862 
Q 544 3141 544 3541 
Q 544 4100 942 4425 
Q 1341 4750 2034 4750 
Q 2731 4750 3128 4425 
Q 3525 4100 3525 3541 
Q 3525 3141 3298 2862 
Q 3072 2584 2669 2484 
Q 3125 2378 3379 2068 
Q 3634 1759 3634 1313 
Q 3634 634 3220 271 
Q 2806 -91 2034 -91 
Q 1263 -91 848 271 
Q 434 634 434 1313 
Q 434 1759 690 2068 
Q 947 2378 1403 2484 
z
M 1172 3481 
Q 1172 3119 1398 2916 
Q 1625 2713 2034 2713 
Q 2441 2713 2670 2916 
Q 2900 3119 2900 3481 
Q 2900 3844 2670 4047 
Q 2441 4250 2034 4250 
Q 1625 4250 1398 4047 
Q 1172 3844 1172 3481 
z
" transform="scale(0.015625)"/>
       <path id="DejaVuSans-34" d="M 2419 4116 
L 825 1625 
L 2419 1625 
L 2419 4116 
z
M 2253 4666 
L 3047 4666 
L 3047 1625 
L 3713 1625 
L 3713 1100 
L 3047 1100 
L 3047 0 
L 2419 0 
L 2419 1100 
L 313 1100 
L 313 1709 
L 2253 4666 
z
" transform="scale(0.015625)"/>
      </defs>
      <use xlink:href="#DejaVuSans-47" transform="translate(0 0.529687)"/>
      <use xlink:href="#DejaVuSans-43" transform="translate(77.490234 0.529687)"/>
      <use xlink:href="#DejaVuSans-49" transform="translate(147.314453 0.529687)"/>
      <use xlink:href="#DejaVuSans-4d" transform="translate(176.806641 0.529687)"/>
      <use xlink:href="#DejaVuSans-20" transform="translate(263.085938 0.529687)"/>
      <use xlink:href="#DejaVuSans-31" transform="translate(294.873047 0.529687)"/>
      <use xlink:href="#DejaVuSans-36" transform="translate(358.496094 0.529687)"/>
      <use xlink:href="#DejaVuSans-Oblique-74" transform="translate(423.076172 38.810937) scale(0.7)"/>
      <use xlink:href="#DejaVuSans-Oblique-68" transform="translate(450.522461 38.810937) scale(0.7)"/>
      <use xlink:href="#DejaVuSans-20" transform="translate(497.62207 0.529687)"/>
      <use xlink:href="#DejaVuSans-61" transform="translate(529.40918 0.529687)"/>
      <use xlink:href="#DejaVuSans-6e" transform="translate(590.688477 0.529687)"/>
      <use xlink:href="#DejaVuSans-64" transform="translate(654.067383 0.529687)"/>
      <use xlink:href="#DejaVuSans-20" transform="translate(717.543945 0.529687)"/>
      <use xlink:href="#DejaVuSans-38" transform="translate(749.331055 0.529687)"/>
      <use xlink:href="#DejaVuSans-34" transform="translate(812.954102 0.529687)"/>
      <use xlink:href="#DejaVuSans-Oblique-74" transform="translate(877.53418 38.810937) scale(0.7)"/>
      <use xlink:href="#DejaVuSans-Oblique-68" transform="translate(904.980469 38.810937) scale(0.7)"/>
      <use xlink:href="#DejaVuSans-20" transform="translate(952.080078 0.529687)"/>
      <use xlink:href="#DejaVuSans-70" transform="translate(983.867188 0.529687)"/>
      <use xlink:href="#DejaVuSans-65" transform="translate(1047.34375 0.529687)"/>
      <use xlink:href="#DejaVuSans-72" transform="translate(1108.867188 0.529687)"/>
      <use xlink:href="#DejaVuSans-63" transform="translate(1149.980469 0.529687)"/>
      <use xlink:href="#DejaVuSans-65" transform="translate(1204.960938 0.529687)"/>
      <use xlink:href="#DejaVuSans-6e" transform="translate(1266.484375 0.529687)"/>
      <use xlink:href="#DejaVuSans-74" transform="translate(1329.863281 0.529687)"/>
      <use xlink:href="#DejaVuSans-69" transform="translate(1369.072266 0.529687)"/>
      <use xlink:href="#DejaVuSans-6c" transform="translate(1396.855469 0.529687)"/>
      <use xlink:href="#DejaVuSans-65" transform="translate(1424.638672 0.529687)"/>
      <use xlink:href="#DejaVuSans-73" transform="translate(1486.162109 0.529687)"/>
     </g>
    </g>
    <g id="line2d_124">
     <path d="M 249.4745 83.7692 
L 257.4745 83.7692 
L 265.4745 83.7692 
" style="fill: none; stroke: #0000ff; stroke-width: 2; stroke-linecap: square"/>
    </g>
    <g id="text_10">
     <!-- Selected GMs median -->
     <g transform="translate(271.8745 86.5692) scale(0.08 -0.08)">
      <use xlink:href="#DejaVuSans-53"/>
      <use xlink:href="#DejaVuSans-65" x="63.476562"/>
      <use xlink:href="#DejaVuSans-6c" x="125"/>
      <use xlink:href="#DejaVuSans-65" x="152.783203"/>
      <use xlink:href="#DejaVuSans-63" x="214.306641"/>
      <use xlink:href="#DejaVuSans-74" x="269.287109"/>
      <use xlink:href="#DejaVuSans-65" x="308.496094"/>
      <use xlink:href="#DejaVuSans-64" x="370.019531"/>
      <use xlink:href="#DejaVuSans-20" x="433.496094"/>
      <use xlink:href="#DejaVuSans-47" x="465.283203"/>
      <use xlink:href="#DejaVuSans-4d" x="542.773438"/>
      <use xlink:href="#DejaVuSans-73" x="629.052734"/>
      <use xlink:href="#DejaVuSans-20" x="681.152344"/>
      <use xlink:href="#DejaVuSans-6d" x="712.939453"/>
      <use xlink:href="#DejaVuSans-65" x="810.351562"/>
      <use xlink:href="#DejaVuSans-64" x="871.875"/>
      <use xlink:href="#DejaVuSans-69" x="935.351562"/>
      <use xlink:href="#DejaVuSans-61" x="963.134766"/>
      <use xlink:href="#DejaVuSans-6e" x="1024.414062"/>
     </g>
    </g>
    <g id="line2d_125">
     <path d="M 249.4745 96.79295 
L 257.4745 96.79295 
L 265.4745 96.79295 
" style="fill: none; stroke-dasharray: 7.4,3.2; stroke-dashoffset: 0; stroke: #0000ff; stroke-width: 2"/>
    </g>
    <g id="text_11">
     <!-- Selected GMs, $16^{th}$ and $84^{th}$ percentiles -->
     <g transform="translate(271.8745 99.59295) scale(0.08 -0.08)">
      <use xlink:href="#DejaVuSans-53" transform="translate(0 0.529687)"/>
      <use xlink:href="#DejaVuSans-65" transform="translate(63.476562 0.529687)"/>
      <use xlink:href="#DejaVuSans-6c" transform="translate(125 0.529687)"/>
      <use xlink:href="#DejaVuSans-65" transform="translate(152.783203 0.529687)"/>
      <use xlink:href="#DejaVuSans-63" transform="translate(214.306641 0.529687)"/>
      <use xlink:href="#DejaVuSans-74" transform="translate(269.287109 0.529687)"/>
      <use xlink:href="#DejaVuSans-65" transform="translate(308.496094 0.529687)"/>
      <use xlink:href="#DejaVuSans-64" transform="translate(370.019531 0.529687)"/>
      <use xlink:href="#DejaVuSans-20" transform="translate(433.496094 0.529687)"/>
      <use xlink:href="#DejaVuSans-47" transform="translate(465.283203 0.529687)"/>
      <use xlink:href="#DejaVuSans-4d" transform="translate(542.773438 0.529687)"/>
      <use xlink:href="#DejaVuSans-73" transform="translate(629.052734 0.529687)"/>
      <use xlink:href="#DejaVuSans-2c" transform="translate(681.152344 0.529687)"/>
      <use xlink:href="#DejaVuSans-20" transform="translate(712.939453 0.529687)"/>
      <use xlink:href="#DejaVuSans-31" transform="translate(744.726562 0.529687)"/>
      <use xlink:href="#DejaVuSans-36" transform="translate(808.349609 0.529687)"/>
      <use xlink:href="#DejaVuSans-Oblique-74" transform="translate(872.929688 38.810937) scale(0.7)"/>
      <use xlink:href="#DejaVuSans-Oblique-68" transform="translate(900.375977 38.810937) scale(0.7)"/>
      <use xlink:href="#DejaVuSans-20" transform="translate(947.475586 0.529687)"/>
      <use xlink:href="#DejaVuSans-61" transform="translate(979.262695 0.529687)"/>
      <use xlink:href="#DejaVuSans-6e" transform="translate(1040.541992 0.529687)"/>
      <use xlink:href="#DejaVuSans-64" transform="translate(1103.920898 0.529687)"/>
      <use xlink:href="#DejaVuSans-20" transform="translate(1167.397461 0.529687)"/>
      <use xlink:href="#DejaVuSans-38" transform="translate(1199.18457 0.529687)"/>
      <use xlink:href="#DejaVuSans-34" transform="translate(1262.807617 0.529687)"/>
      <use xlink:href="#DejaVuSans-Oblique-74" transform="translate(1327.387695 38.810937) scale(0.7)"/>
      <use xlink:href="#DejaVuSans-Oblique-68" transform="translate(1354.833984 38.810937) scale(0.7)"/>
      <use xlink:href="#DejaVuSans-20" transform="translate(1401.933594 0.529687)"/>
      <use xlink:href="#DejaVuSans-70" transform="translate(1433.720703 0.529687)"/>
      <use xlink:href="#DejaVuSans-65" transform="translate(1497.197266 0.529687)"/>
      <use xlink:href="#DejaVuSans-72" transform="translate(1558.720703 0.529687)"/>
      <use xlink:href="#DejaVuSans-63" transform="translate(1599.833984 0.529687)"/>
      <use xlink:href="#DejaVuSans-65" transform="translate(1654.814453 0.529687)"/>
      <use xlink:href="#DejaVuSans-6e" transform="translate(1716.337891 0.529687)"/>
      <use xlink:href="#DejaVuSans-74" transform="translate(1779.716797 0.529687)"/>
      <use xlink:href="#DejaVuSans-69" transform="translate(1818.925781 0.529687)"/>
      <use xlink:href="#DejaVuSans-6c" transform="translate(1846.708984 0.529687)"/>
      <use xlink:href="#DejaVuSans-65" transform="translate(1874.492188 0.529687)"/>
      <use xlink:href="#DejaVuSans-73" transform="translate(1936.015625 0.529687)"/>
     </g>
    </g>
   </g>
  </g>
 </g>
 <defs>
  <clipPath id="pacdae85a50">
   <rect x="44.7425" y="7.2" width="197.532" height="130.8384"/>
  </clipPath>
 </defs>
</svg>
