<?xml version="1.0" encoding="utf-8" standalone="no"?>
<!DOCTYPE svg PUBLIC "-//W3C//DTD SVG 1.1//EN"
  "http://www.w3.org/Graphics/SVG/1.1/DTD/svg11.dtd">
<svg xmlns:xlink="http://www.w3.org/1999/xlink" width="441.3945pt" height="171.7234pt" viewBox="0 0 441.3945 171.7234" xmlns="http://www.w3.org/2000/svg" version="1.1">
 <metadata>
  <rdf:RDF xmlns:dc="http://purl.org/dc/elements/1.1/" xmlns:cc="http://creativecommons.org/ns#" xmlns:rdf="http://www.w3.org/1999/02/22-rdf-syntax-ns#">
   <cc:Work>
    <dc:type rdf:resource="http://purl.org/dc/dcmitype/StillImage"/>
    <dc:date>2024-10-30T18:00:21.101578</dc:date>
    <dc:format>image/svg+xml</dc:format>
    <dc:creator>
     <cc:Agent>
      <dc:title>Matplotlib v3.8.2, https://matplotlib.org/</dc:title>
     </cc:Agent>
    </dc:creator>
   </cc:Work>
  </rdf:RDF>
 </metadata>
 <defs>
  <style type="text/css">*{stroke-linejoin: round; stroke-linecap: butt}</style>
 </defs>
 <g id="figure_1">
  <g id="patch_1">
   <path d="M 0 171.7234 
L 441.3945 171.7234 
L 441.3945 0 
L 0 0 
z
" style="fill: #ffffff"/>
  </g>
  <g id="axes_1">
   <g id="patch_2">
    <path d="M 44.7425 138.0384 
L 242.2745 138.0384 
L 242.2745 7.2 
L 44.7425 7.2 
z
" style="fill: #ffffff"/>
   </g>
   <g id="matplotlib.axis_1">
    <g id="xtick_1">
     <g id="line2d_1">
      <path d="M 53.721227 138.0384 
L 53.721227 7.2 
" clip-path="url(#p2c6bfc0955)" style="fill: none; stroke: #d9d9d9; stroke-width: 0.8; stroke-linecap: square"/>
     </g>
     <g id="line2d_2">
      <defs>
       <path id="mce0544d5ed" d="M 0 0 
L 0 3.5 
" style="stroke: #000000; stroke-width: 0.8"/>
      </defs>
      <g>
       <use xlink:href="#mce0544d5ed" x="53.721227" y="138.0384" style="stroke: #000000; stroke-width: 0.8"/>
      </g>
     </g>
     <g id="text_1">
      <!-- $\mathdefault{10^{-1}}$ -->
      <g transform="translate(44.321227 151.11715) scale(0.08 -0.08)">
       <defs>
        <path id="DejaVuSans-31" d="M 794 531 
L 1825 531 
L 1825 4091 
L 703 3866 
L 703 4441 
L 1819 4666 
L 2450 4666 
L 2450 531 
L 3481 531 
L 3481 0 
L 794 0 
L 794 531 
z
" transform="scale(0.015625)"/>
        <path id="DejaVuSans-30" d="M 2034 4250 
Q 1547 4250 1301 3770 
Q 1056 3291 1056 2328 
Q 1056 1369 1301 889 
Q 1547 409 2034 409 
Q 2525 409 2770 889 
Q 3016 1369 3016 2328 
Q 3016 3291 2770 3770 
Q 2525 4250 2034 4250 
z
M 2034 4750 
Q 2819 4750 3233 4129 
Q 3647 3509 3647 2328 
Q 3647 1150 3233 529 
Q 2819 -91 2034 -91 
Q 1250 -91 836 529 
Q 422 1150 422 2328 
Q 422 3509 836 4129 
Q 1250 4750 2034 4750 
z
" transform="scale(0.015625)"/>
        <path id="DejaVuSans-2212" d="M 678 2272 
L 4684 2272 
L 4684 1741 
L 678 1741 
L 678 2272 
z
" transform="scale(0.015625)"/>
       </defs>
       <use xlink:href="#DejaVuSans-31" transform="translate(0 0.684375)"/>
       <use xlink:href="#DejaVuSans-30" transform="translate(63.623047 0.684375)"/>
       <use xlink:href="#DejaVuSans-2212" transform="translate(128.203125 38.965625) scale(0.7)"/>
       <use xlink:href="#DejaVuSans-31" transform="translate(186.855469 38.965625) scale(0.7)"/>
      </g>
     </g>
    </g>
    <g id="xtick_2">
     <g id="line2d_3">
      <path d="M 159.417352 138.0384 
L 159.417352 7.2 
" clip-path="url(#p2c6bfc0955)" style="fill: none; stroke: #d9d9d9; stroke-width: 0.8; stroke-linecap: square"/>
     </g>
     <g id="line2d_4">
      <g>
       <use xlink:href="#mce0544d5ed" x="159.417352" y="138.0384" style="stroke: #000000; stroke-width: 0.8"/>
      </g>
     </g>
     <g id="text_2">
      <!-- $\mathdefault{10^{0}}$ -->
      <g transform="translate(152.377352 151.11715) scale(0.08 -0.08)">
       <use xlink:href="#DejaVuSans-31" transform="translate(0 0.765625)"/>
       <use xlink:href="#DejaVuSans-30" transform="translate(63.623047 0.765625)"/>
       <use xlink:href="#DejaVuSans-30" transform="translate(128.203125 39.046875) scale(0.7)"/>
      </g>
     </g>
    </g>
    <g id="xtick_3">
     <g id="line2d_5">
      <path d="M 48.884838 138.0384 
L 48.884838 7.2 
" clip-path="url(#p2c6bfc0955)" style="fill: none; stroke-dasharray: 2.96,1.28; stroke-dashoffset: 0; stroke: #f2f2f2; stroke-width: 0.8"/>
     </g>
     <g id="line2d_6">
      <defs>
       <path id="m58048d2536" d="M 0 0 
L 0 2 
" style="stroke: #000000; stroke-width: 0.6"/>
      </defs>
      <g>
       <use xlink:href="#m58048d2536" x="48.884838" y="138.0384" style="stroke: #000000; stroke-width: 0.6"/>
      </g>
     </g>
    </g>
    <g id="xtick_4">
     <g id="line2d_7">
      <path d="M 85.538931 138.0384 
L 85.538931 7.2 
" clip-path="url(#p2c6bfc0955)" style="fill: none; stroke-dasharray: 2.96,1.28; stroke-dashoffset: 0; stroke: #f2f2f2; stroke-width: 0.8"/>
     </g>
     <g id="line2d_8">
      <g>
       <use xlink:href="#m58048d2536" x="85.538931" y="138.0384" style="stroke: #000000; stroke-width: 0.6"/>
      </g>
     </g>
    </g>
    <g id="xtick_5">
     <g id="line2d_9">
      <path d="M 104.151095 138.0384 
L 104.151095 7.2 
" clip-path="url(#p2c6bfc0955)" style="fill: none; stroke-dasharray: 2.96,1.28; stroke-dashoffset: 0; stroke: #f2f2f2; stroke-width: 0.8"/>
     </g>
     <g id="line2d_10">
      <g>
       <use xlink:href="#m58048d2536" x="104.151095" y="138.0384" style="stroke: #000000; stroke-width: 0.6"/>
      </g>
     </g>
    </g>
    <g id="xtick_6">
     <g id="line2d_11">
      <path d="M 117.356635 138.0384 
L 117.356635 7.2 
" clip-path="url(#p2c6bfc0955)" style="fill: none; stroke-dasharray: 2.96,1.28; stroke-dashoffset: 0; stroke: #f2f2f2; stroke-width: 0.8"/>
     </g>
     <g id="line2d_12">
      <g>
       <use xlink:href="#m58048d2536" x="117.356635" y="138.0384" style="stroke: #000000; stroke-width: 0.6"/>
      </g>
     </g>
    </g>
    <g id="xtick_7">
     <g id="line2d_13">
      <path d="M 127.599648 138.0384 
L 127.599648 7.2 
" clip-path="url(#p2c6bfc0955)" style="fill: none; stroke-dasharray: 2.96,1.28; stroke-dashoffset: 0; stroke: #f2f2f2; stroke-width: 0.8"/>
     </g>
     <g id="line2d_14">
      <g>
       <use xlink:href="#m58048d2536" x="127.599648" y="138.0384" style="stroke: #000000; stroke-width: 0.6"/>
      </g>
     </g>
    </g>
    <g id="xtick_8">
     <g id="line2d_15">
      <path d="M 135.968799 138.0384 
L 135.968799 7.2 
" clip-path="url(#p2c6bfc0955)" style="fill: none; stroke-dasharray: 2.96,1.28; stroke-dashoffset: 0; stroke: #f2f2f2; stroke-width: 0.8"/>
     </g>
     <g id="line2d_16">
      <g>
       <use xlink:href="#m58048d2536" x="135.968799" y="138.0384" style="stroke: #000000; stroke-width: 0.6"/>
      </g>
     </g>
    </g>
    <g id="xtick_9">
     <g id="line2d_17">
      <path d="M 143.044815 138.0384 
L 143.044815 7.2 
" clip-path="url(#p2c6bfc0955)" style="fill: none; stroke-dasharray: 2.96,1.28; stroke-dashoffset: 0; stroke: #f2f2f2; stroke-width: 0.8"/>
     </g>
     <g id="line2d_18">
      <g>
       <use xlink:href="#m58048d2536" x="143.044815" y="138.0384" style="stroke: #000000; stroke-width: 0.6"/>
      </g>
     </g>
    </g>
    <g id="xtick_10">
     <g id="line2d_19">
      <path d="M 149.174339 138.0384 
L 149.174339 7.2 
" clip-path="url(#p2c6bfc0955)" style="fill: none; stroke-dasharray: 2.96,1.28; stroke-dashoffset: 0; stroke: #f2f2f2; stroke-width: 0.8"/>
     </g>
     <g id="line2d_20">
      <g>
       <use xlink:href="#m58048d2536" x="149.174339" y="138.0384" style="stroke: #000000; stroke-width: 0.6"/>
      </g>
     </g>
    </g>
    <g id="xtick_11">
     <g id="line2d_21">
      <path d="M 154.580963 138.0384 
L 154.580963 7.2 
" clip-path="url(#p2c6bfc0955)" style="fill: none; stroke-dasharray: 2.96,1.28; stroke-dashoffset: 0; stroke: #f2f2f2; stroke-width: 0.8"/>
     </g>
     <g id="line2d_22">
      <g>
       <use xlink:href="#m58048d2536" x="154.580963" y="138.0384" style="stroke: #000000; stroke-width: 0.6"/>
      </g>
     </g>
    </g>
    <g id="xtick_12">
     <g id="line2d_23">
      <path d="M 191.235056 138.0384 
L 191.235056 7.2 
" clip-path="url(#p2c6bfc0955)" style="fill: none; stroke-dasharray: 2.96,1.28; stroke-dashoffset: 0; stroke: #f2f2f2; stroke-width: 0.8"/>
     </g>
     <g id="line2d_24">
      <g>
       <use xlink:href="#m58048d2536" x="191.235056" y="138.0384" style="stroke: #000000; stroke-width: 0.6"/>
      </g>
     </g>
    </g>
    <g id="xtick_13">
     <g id="line2d_25">
      <path d="M 209.84722 138.0384 
L 209.84722 7.2 
" clip-path="url(#p2c6bfc0955)" style="fill: none; stroke-dasharray: 2.96,1.28; stroke-dashoffset: 0; stroke: #f2f2f2; stroke-width: 0.8"/>
     </g>
     <g id="line2d_26">
      <g>
       <use xlink:href="#m58048d2536" x="209.84722" y="138.0384" style="stroke: #000000; stroke-width: 0.6"/>
      </g>
     </g>
    </g>
    <g id="xtick_14">
     <g id="line2d_27">
      <path d="M 223.05276 138.0384 
L 223.05276 7.2 
" clip-path="url(#p2c6bfc0955)" style="fill: none; stroke-dasharray: 2.96,1.28; stroke-dashoffset: 0; stroke: #f2f2f2; stroke-width: 0.8"/>
     </g>
     <g id="line2d_28">
      <g>
       <use xlink:href="#m58048d2536" x="223.05276" y="138.0384" style="stroke: #000000; stroke-width: 0.6"/>
      </g>
     </g>
    </g>
    <g id="xtick_15">
     <g id="line2d_29">
      <path d="M 233.295773 138.0384 
L 233.295773 7.2 
" clip-path="url(#p2c6bfc0955)" style="fill: none; stroke-dasharray: 2.96,1.28; stroke-dashoffset: 0; stroke: #f2f2f2; stroke-width: 0.8"/>
     </g>
     <g id="line2d_30">
      <g>
       <use xlink:href="#m58048d2536" x="233.295773" y="138.0384" style="stroke: #000000; stroke-width: 0.6"/>
      </g>
     </g>
    </g>
    <g id="xtick_16">
     <g id="line2d_31">
      <path d="M 241.664924 138.0384 
L 241.664924 7.2 
" clip-path="url(#p2c6bfc0955)" style="fill: none; stroke-dasharray: 2.96,1.28; stroke-dashoffset: 0; stroke: #f2f2f2; stroke-width: 0.8"/>
     </g>
     <g id="line2d_32">
      <g>
       <use xlink:href="#m58048d2536" x="241.664924" y="138.0384" style="stroke: #000000; stroke-width: 0.6"/>
      </g>
     </g>
    </g>
    <g id="text_3">
     <!-- Period, T (s) -->
     <g transform="translate(119.576 162.85965) scale(0.08 -0.08)">
      <defs>
       <path id="DejaVuSans-50" d="M 1259 4147 
L 1259 2394 
L 2053 2394 
Q 2494 2394 2734 2622 
Q 2975 2850 2975 3272 
Q 2975 3691 2734 3919 
Q 2494 4147 2053 4147 
L 1259 4147 
z
M 628 4666 
L 2053 4666 
Q 2838 4666 3239 4311 
Q 3641 3956 3641 3272 
Q 3641 2581 3239 2228 
Q 2838 1875 2053 1875 
L 1259 1875 
L 1259 0 
L 628 0 
L 628 4666 
z
" transform="scale(0.015625)"/>
       <path id="DejaVuSans-65" d="M 3597 1894 
L 3597 1613 
L 953 1613 
Q 991 1019 1311 708 
Q 1631 397 2203 397 
Q 2534 397 2845 478 
Q 3156 559 3463 722 
L 3463 178 
Q 3153 47 2828 -22 
Q 2503 -91 2169 -91 
Q 1331 -91 842 396 
Q 353 884 353 1716 
Q 353 2575 817 3079 
Q 1281 3584 2069 3584 
Q 2775 3584 3186 3129 
Q 3597 2675 3597 1894 
z
M 3022 2063 
Q 3016 2534 2758 2815 
Q 2500 3097 2075 3097 
Q 1594 3097 1305 2825 
Q 1016 2553 972 2059 
L 3022 2063 
z
" transform="scale(0.015625)"/>
       <path id="DejaVuSans-72" d="M 2631 2963 
Q 2534 3019 2420 3045 
Q 2306 3072 2169 3072 
Q 1681 3072 1420 2755 
Q 1159 2438 1159 1844 
L 1159 0 
L 581 0 
L 581 3500 
L 1159 3500 
L 1159 2956 
Q 1341 3275 1631 3429 
Q 1922 3584 2338 3584 
Q 2397 3584 2469 3576 
Q 2541 3569 2628 3553 
L 2631 2963 
z
" transform="scale(0.015625)"/>
       <path id="DejaVuSans-69" d="M 603 3500 
L 1178 3500 
L 1178 0 
L 603 0 
L 603 3500 
z
M 603 4863 
L 1178 4863 
L 1178 4134 
L 603 4134 
L 603 4863 
z
" transform="scale(0.015625)"/>
       <path id="DejaVuSans-6f" d="M 1959 3097 
Q 1497 3097 1228 2736 
Q 959 2375 959 1747 
Q 959 1119 1226 758 
Q 1494 397 1959 397 
Q 2419 397 2687 759 
Q 2956 1122 2956 1747 
Q 2956 2369 2687 2733 
Q 2419 3097 1959 3097 
z
M 1959 3584 
Q 2709 3584 3137 3096 
Q 3566 2609 3566 1747 
Q 3566 888 3137 398 
Q 2709 -91 1959 -91 
Q 1206 -91 779 398 
Q 353 888 353 1747 
Q 353 2609 779 3096 
Q 1206 3584 1959 3584 
z
" transform="scale(0.015625)"/>
       <path id="DejaVuSans-64" d="M 2906 2969 
L 2906 4863 
L 3481 4863 
L 3481 0 
L 2906 0 
L 2906 525 
Q 2725 213 2448 61 
Q 2172 -91 1784 -91 
Q 1150 -91 751 415 
Q 353 922 353 1747 
Q 353 2572 751 3078 
Q 1150 3584 1784 3584 
Q 2172 3584 2448 3432 
Q 2725 3281 2906 2969 
z
M 947 1747 
Q 947 1113 1208 752 
Q 1469 391 1925 391 
Q 2381 391 2643 752 
Q 2906 1113 2906 1747 
Q 2906 2381 2643 2742 
Q 2381 3103 1925 3103 
Q 1469 3103 1208 2742 
Q 947 2381 947 1747 
z
" transform="scale(0.015625)"/>
       <path id="DejaVuSans-2c" d="M 750 794 
L 1409 794 
L 1409 256 
L 897 -744 
L 494 -744 
L 750 256 
L 750 794 
z
" transform="scale(0.015625)"/>
       <path id="DejaVuSans-20" transform="scale(0.015625)"/>
       <path id="DejaVuSans-54" d="M -19 4666 
L 3928 4666 
L 3928 4134 
L 2272 4134 
L 2272 0 
L 1638 0 
L 1638 4134 
L -19 4134 
L -19 4666 
z
" transform="scale(0.015625)"/>
       <path id="DejaVuSans-28" d="M 1984 4856 
Q 1566 4138 1362 3434 
Q 1159 2731 1159 2009 
Q 1159 1288 1364 580 
Q 1569 -128 1984 -844 
L 1484 -844 
Q 1016 -109 783 600 
Q 550 1309 550 2009 
Q 550 2706 781 3412 
Q 1013 4119 1484 4856 
L 1984 4856 
z
" transform="scale(0.015625)"/>
       <path id="DejaVuSans-73" d="M 2834 3397 
L 2834 2853 
Q 2591 2978 2328 3040 
Q 2066 3103 1784 3103 
Q 1356 3103 1142 2972 
Q 928 2841 928 2578 
Q 928 2378 1081 2264 
Q 1234 2150 1697 2047 
L 1894 2003 
Q 2506 1872 2764 1633 
Q 3022 1394 3022 966 
Q 3022 478 2636 193 
Q 2250 -91 1575 -91 
Q 1294 -91 989 -36 
Q 684 19 347 128 
L 347 722 
Q 666 556 975 473 
Q 1284 391 1588 391 
Q 1994 391 2212 530 
Q 2431 669 2431 922 
Q 2431 1156 2273 1281 
Q 2116 1406 1581 1522 
L 1381 1569 
Q 847 1681 609 1914 
Q 372 2147 372 2553 
Q 372 3047 722 3315 
Q 1072 3584 1716 3584 
Q 2034 3584 2315 3537 
Q 2597 3491 2834 3397 
z
" transform="scale(0.015625)"/>
       <path id="DejaVuSans-29" d="M 513 4856 
L 1013 4856 
Q 1481 4119 1714 3412 
Q 1947 2706 1947 2009 
Q 1947 1309 1714 600 
Q 1481 -109 1013 -844 
L 513 -844 
Q 928 -128 1133 580 
Q 1338 1288 1338 2009 
Q 1338 2731 1133 3434 
Q 928 4138 513 4856 
z
" transform="scale(0.015625)"/>
      </defs>
      <use xlink:href="#DejaVuSans-50"/>
      <use xlink:href="#DejaVuSans-65" x="56.677734"/>
      <use xlink:href="#DejaVuSans-72" x="118.201172"/>
      <use xlink:href="#DejaVuSans-69" x="159.314453"/>
      <use xlink:href="#DejaVuSans-6f" x="187.097656"/>
      <use xlink:href="#DejaVuSans-64" x="248.279297"/>
      <use xlink:href="#DejaVuSans-2c" x="311.755859"/>
      <use xlink:href="#DejaVuSans-20" x="343.542969"/>
      <use xlink:href="#DejaVuSans-54" x="375.330078"/>
      <use xlink:href="#DejaVuSans-20" x="436.414062"/>
      <use xlink:href="#DejaVuSans-28" x="468.201172"/>
      <use xlink:href="#DejaVuSans-73" x="507.214844"/>
      <use xlink:href="#DejaVuSans-29" x="559.314453"/>
     </g>
    </g>
   </g>
   <g id="matplotlib.axis_2">
    <g id="ytick_1">
     <g id="line2d_33">
      <path d="M 44.7425 103.144171 
L 242.2745 103.144171 
" clip-path="url(#p2c6bfc0955)" style="fill: none; stroke: #d9d9d9; stroke-width: 0.8; stroke-linecap: square"/>
     </g>
     <g id="line2d_34">
      <defs>
       <path id="m2755ea84b6" d="M 0 0 
L -3.5 0 
" style="stroke: #000000; stroke-width: 0.8"/>
      </defs>
      <g>
       <use xlink:href="#m2755ea84b6" x="44.7425" y="103.144171" style="stroke: #000000; stroke-width: 0.8"/>
      </g>
     </g>
     <g id="text_4">
      <!-- $\mathdefault{10^{-1}}$ -->
      <g transform="translate(18.9425 106.183546) scale(0.08 -0.08)">
       <use xlink:href="#DejaVuSans-31" transform="translate(0 0.684375)"/>
       <use xlink:href="#DejaVuSans-30" transform="translate(63.623047 0.684375)"/>
       <use xlink:href="#DejaVuSans-2212" transform="translate(128.203125 38.965625) scale(0.7)"/>
       <use xlink:href="#DejaVuSans-31" transform="translate(186.855469 38.965625) scale(0.7)"/>
      </g>
     </g>
    </g>
    <g id="ytick_2">
     <g id="line2d_35">
      <path d="M 44.7425 49.799988 
L 242.2745 49.799988 
" clip-path="url(#p2c6bfc0955)" style="fill: none; stroke: #d9d9d9; stroke-width: 0.8; stroke-linecap: square"/>
     </g>
     <g id="line2d_36">
      <g>
       <use xlink:href="#m2755ea84b6" x="44.7425" y="49.799988" style="stroke: #000000; stroke-width: 0.8"/>
      </g>
     </g>
     <g id="text_5">
      <!-- $\mathdefault{10^{0}}$ -->
      <g transform="translate(23.6625 52.839363) scale(0.08 -0.08)">
       <use xlink:href="#DejaVuSans-31" transform="translate(0 0.765625)"/>
       <use xlink:href="#DejaVuSans-30" transform="translate(63.623047 0.765625)"/>
       <use xlink:href="#DejaVuSans-30" transform="translate(128.203125 39.046875) scale(0.7)"/>
      </g>
     </g>
    </g>
    <g id="ytick_3">
     <g id="line2d_37">
      <path d="M 44.7425 131.03671 
L 242.2745 131.03671 
" clip-path="url(#p2c6bfc0955)" style="fill: none; stroke-dasharray: 2.96,1.28; stroke-dashoffset: 0; stroke: #f2f2f2; stroke-width: 0.8"/>
     </g>
     <g id="line2d_38">
      <defs>
       <path id="m91666869b6" d="M 0 0 
L -2 0 
" style="stroke: #000000; stroke-width: 0.6"/>
      </defs>
      <g>
       <use xlink:href="#m91666869b6" x="44.7425" y="131.03671" style="stroke: #000000; stroke-width: 0.6"/>
      </g>
     </g>
    </g>
    <g id="ytick_4">
     <g id="line2d_39">
      <path d="M 44.7425 124.371955 
L 242.2745 124.371955 
" clip-path="url(#p2c6bfc0955)" style="fill: none; stroke-dasharray: 2.96,1.28; stroke-dashoffset: 0; stroke: #f2f2f2; stroke-width: 0.8"/>
     </g>
     <g id="line2d_40">
      <g>
       <use xlink:href="#m91666869b6" x="44.7425" y="124.371955" style="stroke: #000000; stroke-width: 0.6"/>
      </g>
     </g>
    </g>
    <g id="ytick_5">
     <g id="line2d_41">
      <path d="M 44.7425 119.20237 
L 242.2745 119.20237 
" clip-path="url(#p2c6bfc0955)" style="fill: none; stroke-dasharray: 2.96,1.28; stroke-dashoffset: 0; stroke: #f2f2f2; stroke-width: 0.8"/>
     </g>
     <g id="line2d_42">
      <g>
       <use xlink:href="#m91666869b6" x="44.7425" y="119.20237" style="stroke: #000000; stroke-width: 0.6"/>
      </g>
     </g>
    </g>
    <g id="ytick_6">
     <g id="line2d_43">
      <path d="M 44.7425 114.978511 
L 242.2745 114.978511 
" clip-path="url(#p2c6bfc0955)" style="fill: none; stroke-dasharray: 2.96,1.28; stroke-dashoffset: 0; stroke: #f2f2f2; stroke-width: 0.8"/>
     </g>
     <g id="line2d_44">
      <g>
       <use xlink:href="#m91666869b6" x="44.7425" y="114.978511" style="stroke: #000000; stroke-width: 0.6"/>
      </g>
     </g>
    </g>
    <g id="ytick_7">
     <g id="line2d_45">
      <path d="M 44.7425 111.407289 
L 242.2745 111.407289 
" clip-path="url(#p2c6bfc0955)" style="fill: none; stroke-dasharray: 2.96,1.28; stroke-dashoffset: 0; stroke: #f2f2f2; stroke-width: 0.8"/>
     </g>
     <g id="line2d_46">
      <g>
       <use xlink:href="#m91666869b6" x="44.7425" y="111.407289" style="stroke: #000000; stroke-width: 0.6"/>
      </g>
     </g>
    </g>
    <g id="ytick_8">
     <g id="line2d_47">
      <path d="M 44.7425 108.313756 
L 242.2745 108.313756 
" clip-path="url(#p2c6bfc0955)" style="fill: none; stroke-dasharray: 2.96,1.28; stroke-dashoffset: 0; stroke: #f2f2f2; stroke-width: 0.8"/>
     </g>
     <g id="line2d_48">
      <g>
       <use xlink:href="#m91666869b6" x="44.7425" y="108.313756" style="stroke: #000000; stroke-width: 0.6"/>
      </g>
     </g>
    </g>
    <g id="ytick_9">
     <g id="line2d_49">
      <path d="M 44.7425 105.585067 
L 242.2745 105.585067 
" clip-path="url(#p2c6bfc0955)" style="fill: none; stroke-dasharray: 2.96,1.28; stroke-dashoffset: 0; stroke: #f2f2f2; stroke-width: 0.8"/>
     </g>
     <g id="line2d_50">
      <g>
       <use xlink:href="#m91666869b6" x="44.7425" y="105.585067" style="stroke: #000000; stroke-width: 0.6"/>
      </g>
     </g>
    </g>
    <g id="ytick_10">
     <g id="line2d_51">
      <path d="M 44.7425 87.085972 
L 242.2745 87.085972 
" clip-path="url(#p2c6bfc0955)" style="fill: none; stroke-dasharray: 2.96,1.28; stroke-dashoffset: 0; stroke: #f2f2f2; stroke-width: 0.8"/>
     </g>
     <g id="line2d_52">
      <g>
       <use xlink:href="#m91666869b6" x="44.7425" y="87.085972" style="stroke: #000000; stroke-width: 0.6"/>
      </g>
     </g>
    </g>
    <g id="ytick_11">
     <g id="line2d_53">
      <path d="M 44.7425 77.692527 
L 242.2745 77.692527 
" clip-path="url(#p2c6bfc0955)" style="fill: none; stroke-dasharray: 2.96,1.28; stroke-dashoffset: 0; stroke: #f2f2f2; stroke-width: 0.8"/>
     </g>
     <g id="line2d_54">
      <g>
       <use xlink:href="#m91666869b6" x="44.7425" y="77.692527" style="stroke: #000000; stroke-width: 0.6"/>
      </g>
     </g>
    </g>
    <g id="ytick_12">
     <g id="line2d_55">
      <path d="M 44.7425 71.027772 
L 242.2745 71.027772 
" clip-path="url(#p2c6bfc0955)" style="fill: none; stroke-dasharray: 2.96,1.28; stroke-dashoffset: 0; stroke: #f2f2f2; stroke-width: 0.8"/>
     </g>
     <g id="line2d_56">
      <g>
       <use xlink:href="#m91666869b6" x="44.7425" y="71.027772" style="stroke: #000000; stroke-width: 0.6"/>
      </g>
     </g>
    </g>
    <g id="ytick_13">
     <g id="line2d_57">
      <path d="M 44.7425 65.858187 
L 242.2745 65.858187 
" clip-path="url(#p2c6bfc0955)" style="fill: none; stroke-dasharray: 2.96,1.28; stroke-dashoffset: 0; stroke: #f2f2f2; stroke-width: 0.8"/>
     </g>
     <g id="line2d_58">
      <g>
       <use xlink:href="#m91666869b6" x="44.7425" y="65.858187" style="stroke: #000000; stroke-width: 0.6"/>
      </g>
     </g>
    </g>
    <g id="ytick_14">
     <g id="line2d_59">
      <path d="M 44.7425 61.634328 
L 242.2745 61.634328 
" clip-path="url(#p2c6bfc0955)" style="fill: none; stroke-dasharray: 2.96,1.28; stroke-dashoffset: 0; stroke: #f2f2f2; stroke-width: 0.8"/>
     </g>
     <g id="line2d_60">
      <g>
       <use xlink:href="#m91666869b6" x="44.7425" y="61.634328" style="stroke: #000000; stroke-width: 0.6"/>
      </g>
     </g>
    </g>
    <g id="ytick_15">
     <g id="line2d_61">
      <path d="M 44.7425 58.063106 
L 242.2745 58.063106 
" clip-path="url(#p2c6bfc0955)" style="fill: none; stroke-dasharray: 2.96,1.28; stroke-dashoffset: 0; stroke: #f2f2f2; stroke-width: 0.8"/>
     </g>
     <g id="line2d_62">
      <g>
       <use xlink:href="#m91666869b6" x="44.7425" y="58.063106" style="stroke: #000000; stroke-width: 0.6"/>
      </g>
     </g>
    </g>
    <g id="ytick_16">
     <g id="line2d_63">
      <path d="M 44.7425 54.969573 
L 242.2745 54.969573 
" clip-path="url(#p2c6bfc0955)" style="fill: none; stroke-dasharray: 2.96,1.28; stroke-dashoffset: 0; stroke: #f2f2f2; stroke-width: 0.8"/>
     </g>
     <g id="line2d_64">
      <g>
       <use xlink:href="#m91666869b6" x="44.7425" y="54.969573" style="stroke: #000000; stroke-width: 0.6"/>
      </g>
     </g>
    </g>
    <g id="ytick_17">
     <g id="line2d_65">
      <path d="M 44.7425 52.240884 
L 242.2745 52.240884 
" clip-path="url(#p2c6bfc0955)" style="fill: none; stroke-dasharray: 2.96,1.28; stroke-dashoffset: 0; stroke: #f2f2f2; stroke-width: 0.8"/>
     </g>
     <g id="line2d_66">
      <g>
       <use xlink:href="#m91666869b6" x="44.7425" y="52.240884" style="stroke: #000000; stroke-width: 0.6"/>
      </g>
     </g>
    </g>
    <g id="ytick_18">
     <g id="line2d_67">
      <path d="M 44.7425 33.741788 
L 242.2745 33.741788 
" clip-path="url(#p2c6bfc0955)" style="fill: none; stroke-dasharray: 2.96,1.28; stroke-dashoffset: 0; stroke: #f2f2f2; stroke-width: 0.8"/>
     </g>
     <g id="line2d_68">
      <g>
       <use xlink:href="#m91666869b6" x="44.7425" y="33.741788" style="stroke: #000000; stroke-width: 0.6"/>
      </g>
     </g>
    </g>
    <g id="ytick_19">
     <g id="line2d_69">
      <path d="M 44.7425 24.348344 
L 242.2745 24.348344 
" clip-path="url(#p2c6bfc0955)" style="fill: none; stroke-dasharray: 2.96,1.28; stroke-dashoffset: 0; stroke: #f2f2f2; stroke-width: 0.8"/>
     </g>
     <g id="line2d_70">
      <g>
       <use xlink:href="#m91666869b6" x="44.7425" y="24.348344" style="stroke: #000000; stroke-width: 0.6"/>
      </g>
     </g>
    </g>
    <g id="ytick_20">
     <g id="line2d_71">
      <path d="M 44.7425 17.683589 
L 242.2745 17.683589 
" clip-path="url(#p2c6bfc0955)" style="fill: none; stroke-dasharray: 2.96,1.28; stroke-dashoffset: 0; stroke: #f2f2f2; stroke-width: 0.8"/>
     </g>
     <g id="line2d_72">
      <g>
       <use xlink:href="#m91666869b6" x="44.7425" y="17.683589" style="stroke: #000000; stroke-width: 0.6"/>
      </g>
     </g>
    </g>
    <g id="ytick_21">
     <g id="line2d_73">
      <path d="M 44.7425 12.514004 
L 242.2745 12.514004 
" clip-path="url(#p2c6bfc0955)" style="fill: none; stroke-dasharray: 2.96,1.28; stroke-dashoffset: 0; stroke: #f2f2f2; stroke-width: 0.8"/>
     </g>
     <g id="line2d_74">
      <g>
       <use xlink:href="#m91666869b6" x="44.7425" y="12.514004" style="stroke: #000000; stroke-width: 0.6"/>
      </g>
     </g>
    </g>
    <g id="ytick_22">
     <g id="line2d_75">
      <path d="M 44.7425 8.290145 
L 242.2745 8.290145 
" clip-path="url(#p2c6bfc0955)" style="fill: none; stroke-dasharray: 2.96,1.28; stroke-dashoffset: 0; stroke: #f2f2f2; stroke-width: 0.8"/>
     </g>
     <g id="line2d_76">
      <g>
       <use xlink:href="#m91666869b6" x="44.7425" y="8.290145" style="stroke: #000000; stroke-width: 0.6"/>
      </g>
     </g>
    </g>
    <g id="text_6">
     <!-- Spectral acceleration, SA (g) -->
     <g transform="translate(13.27875 129.871075) rotate(-90) scale(0.08 -0.08)">
      <defs>
       <path id="DejaVuSans-53" d="M 3425 4513 
L 3425 3897 
Q 3066 4069 2747 4153 
Q 2428 4238 2131 4238 
Q 1616 4238 1336 4038 
Q 1056 3838 1056 3469 
Q 1056 3159 1242 3001 
Q 1428 2844 1947 2747 
L 2328 2669 
Q 3034 2534 3370 2195 
Q 3706 1856 3706 1288 
Q 3706 609 3251 259 
Q 2797 -91 1919 -91 
Q 1588 -91 1214 -16 
Q 841 59 441 206 
L 441 856 
Q 825 641 1194 531 
Q 1563 422 1919 422 
Q 2459 422 2753 634 
Q 3047 847 3047 1241 
Q 3047 1584 2836 1778 
Q 2625 1972 2144 2069 
L 1759 2144 
Q 1053 2284 737 2584 
Q 422 2884 422 3419 
Q 422 4038 858 4394 
Q 1294 4750 2059 4750 
Q 2388 4750 2728 4690 
Q 3069 4631 3425 4513 
z
" transform="scale(0.015625)"/>
       <path id="DejaVuSans-70" d="M 1159 525 
L 1159 -1331 
L 581 -1331 
L 581 3500 
L 1159 3500 
L 1159 2969 
Q 1341 3281 1617 3432 
Q 1894 3584 2278 3584 
Q 2916 3584 3314 3078 
Q 3713 2572 3713 1747 
Q 3713 922 3314 415 
Q 2916 -91 2278 -91 
Q 1894 -91 1617 61 
Q 1341 213 1159 525 
z
M 3116 1747 
Q 3116 2381 2855 2742 
Q 2594 3103 2138 3103 
Q 1681 3103 1420 2742 
Q 1159 2381 1159 1747 
Q 1159 1113 1420 752 
Q 1681 391 2138 391 
Q 2594 391 2855 752 
Q 3116 1113 3116 1747 
z
" transform="scale(0.015625)"/>
       <path id="DejaVuSans-63" d="M 3122 3366 
L 3122 2828 
Q 2878 2963 2633 3030 
Q 2388 3097 2138 3097 
Q 1578 3097 1268 2742 
Q 959 2388 959 1747 
Q 959 1106 1268 751 
Q 1578 397 2138 397 
Q 2388 397 2633 464 
Q 2878 531 3122 666 
L 3122 134 
Q 2881 22 2623 -34 
Q 2366 -91 2075 -91 
Q 1284 -91 818 406 
Q 353 903 353 1747 
Q 353 2603 823 3093 
Q 1294 3584 2113 3584 
Q 2378 3584 2631 3529 
Q 2884 3475 3122 3366 
z
" transform="scale(0.015625)"/>
       <path id="DejaVuSans-74" d="M 1172 4494 
L 1172 3500 
L 2356 3500 
L 2356 3053 
L 1172 3053 
L 1172 1153 
Q 1172 725 1289 603 
Q 1406 481 1766 481 
L 2356 481 
L 2356 0 
L 1766 0 
Q 1100 0 847 248 
Q 594 497 594 1153 
L 594 3053 
L 172 3053 
L 172 3500 
L 594 3500 
L 594 4494 
L 1172 4494 
z
" transform="scale(0.015625)"/>
       <path id="DejaVuSans-61" d="M 2194 1759 
Q 1497 1759 1228 1600 
Q 959 1441 959 1056 
Q 959 750 1161 570 
Q 1363 391 1709 391 
Q 2188 391 2477 730 
Q 2766 1069 2766 1631 
L 2766 1759 
L 2194 1759 
z
M 3341 1997 
L 3341 0 
L 2766 0 
L 2766 531 
Q 2569 213 2275 61 
Q 1981 -91 1556 -91 
Q 1019 -91 701 211 
Q 384 513 384 1019 
Q 384 1609 779 1909 
Q 1175 2209 1959 2209 
L 2766 2209 
L 2766 2266 
Q 2766 2663 2505 2880 
Q 2244 3097 1772 3097 
Q 1472 3097 1187 3025 
Q 903 2953 641 2809 
L 641 3341 
Q 956 3463 1253 3523 
Q 1550 3584 1831 3584 
Q 2591 3584 2966 3190 
Q 3341 2797 3341 1997 
z
" transform="scale(0.015625)"/>
       <path id="DejaVuSans-6c" d="M 603 4863 
L 1178 4863 
L 1178 0 
L 603 0 
L 603 4863 
z
" transform="scale(0.015625)"/>
       <path id="DejaVuSans-6e" d="M 3513 2113 
L 3513 0 
L 2938 0 
L 2938 2094 
Q 2938 2591 2744 2837 
Q 2550 3084 2163 3084 
Q 1697 3084 1428 2787 
Q 1159 2491 1159 1978 
L 1159 0 
L 581 0 
L 581 3500 
L 1159 3500 
L 1159 2956 
Q 1366 3272 1645 3428 
Q 1925 3584 2291 3584 
Q 2894 3584 3203 3211 
Q 3513 2838 3513 2113 
z
" transform="scale(0.015625)"/>
       <path id="DejaVuSans-41" d="M 2188 4044 
L 1331 1722 
L 3047 1722 
L 2188 4044 
z
M 1831 4666 
L 2547 4666 
L 4325 0 
L 3669 0 
L 3244 1197 
L 1141 1197 
L 716 0 
L 50 0 
L 1831 4666 
z
" transform="scale(0.015625)"/>
       <path id="DejaVuSans-67" d="M 2906 1791 
Q 2906 2416 2648 2759 
Q 2391 3103 1925 3103 
Q 1463 3103 1205 2759 
Q 947 2416 947 1791 
Q 947 1169 1205 825 
Q 1463 481 1925 481 
Q 2391 481 2648 825 
Q 2906 1169 2906 1791 
z
M 3481 434 
Q 3481 -459 3084 -895 
Q 2688 -1331 1869 -1331 
Q 1566 -1331 1297 -1286 
Q 1028 -1241 775 -1147 
L 775 -588 
Q 1028 -725 1275 -790 
Q 1522 -856 1778 -856 
Q 2344 -856 2625 -561 
Q 2906 -266 2906 331 
L 2906 616 
Q 2728 306 2450 153 
Q 2172 0 1784 0 
Q 1141 0 747 490 
Q 353 981 353 1791 
Q 353 2603 747 3093 
Q 1141 3584 1784 3584 
Q 2172 3584 2450 3431 
Q 2728 3278 2906 2969 
L 2906 3500 
L 3481 3500 
L 3481 434 
z
" transform="scale(0.015625)"/>
      </defs>
      <use xlink:href="#DejaVuSans-53"/>
      <use xlink:href="#DejaVuSans-70" x="63.476562"/>
      <use xlink:href="#DejaVuSans-65" x="126.953125"/>
      <use xlink:href="#DejaVuSans-63" x="188.476562"/>
      <use xlink:href="#DejaVuSans-74" x="243.457031"/>
      <use xlink:href="#DejaVuSans-72" x="282.666016"/>
      <use xlink:href="#DejaVuSans-61" x="323.779297"/>
      <use xlink:href="#DejaVuSans-6c" x="385.058594"/>
      <use xlink:href="#DejaVuSans-20" x="412.841797"/>
      <use xlink:href="#DejaVuSans-61" x="444.628906"/>
      <use xlink:href="#DejaVuSans-63" x="505.908203"/>
      <use xlink:href="#DejaVuSans-63" x="560.888672"/>
      <use xlink:href="#DejaVuSans-65" x="615.869141"/>
      <use xlink:href="#DejaVuSans-6c" x="677.392578"/>
      <use xlink:href="#DejaVuSans-65" x="705.175781"/>
      <use xlink:href="#DejaVuSans-72" x="766.699219"/>
      <use xlink:href="#DejaVuSans-61" x="807.8125"/>
      <use xlink:href="#DejaVuSans-74" x="869.091797"/>
      <use xlink:href="#DejaVuSans-69" x="908.300781"/>
      <use xlink:href="#DejaVuSans-6f" x="936.083984"/>
      <use xlink:href="#DejaVuSans-6e" x="997.265625"/>
      <use xlink:href="#DejaVuSans-2c" x="1060.644531"/>
      <use xlink:href="#DejaVuSans-20" x="1092.431641"/>
      <use xlink:href="#DejaVuSans-53" x="1124.21875"/>
      <use xlink:href="#DejaVuSans-41" x="1189.570312"/>
      <use xlink:href="#DejaVuSans-20" x="1257.978516"/>
      <use xlink:href="#DejaVuSans-28" x="1289.765625"/>
      <use xlink:href="#DejaVuSans-67" x="1328.779297"/>
      <use xlink:href="#DejaVuSans-29" x="1392.255859"/>
     </g>
    </g>
   </g>
   <g id="line2d_77">
    <path d="M 53.721227 18.13101 
L 72.333391 23.928104 
L 85.538931 16.173844 
L 95.781944 16.600169 
L 104.151095 13.1472 
L 117.356635 30.228993 
L 126.011788 46.764445 
L 127.599648 46.321413 
L 146.211812 47.781685 
L 159.417352 54.501184 
L 171.460723 59.605126 
L 178.029516 50.001033 
L 191.235056 70.168955 
L 209.84722 93.045137 
L 223.05276 96.702089 
L 233.295773 110.238098 
" clip-path="url(#p2c6bfc0955)" style="fill: none; stroke: #b2b2b2; stroke-width: 0.8; stroke-linecap: square"/>
   </g>
   <g id="line2d_78">
    <path d="M 53.721227 30.638662 
L 72.333391 39.722287 
L 85.538931 46.343056 
L 95.781944 44.293712 
L 104.151095 49.002391 
L 117.356635 54.853346 
L 126.011788 46.764445 
L 127.599648 47.294406 
L 146.211812 53.614945 
L 159.417352 51.964417 
L 171.460723 57.65754 
L 178.029516 55.631309 
L 191.235056 46.36076 
L 209.84722 47.315552 
L 223.05276 62.741392 
L 233.295773 79.98387 
" clip-path="url(#p2c6bfc0955)" style="fill: none; stroke: #b2b2b2; stroke-width: 0.8; stroke-linecap: square"/>
   </g>
   <g id="line2d_79">
    <path d="M 53.721227 53.620324 
L 72.333391 48.319498 
L 85.538931 35.410452 
L 95.781944 41.919684 
L 104.151095 43.263571 
L 117.356635 53.18154 
L 126.011788 46.764445 
L 127.599648 45.130614 
L 146.211812 37.698144 
L 159.417352 52.596427 
L 171.460723 63.219431 
L 178.029516 57.67301 
L 191.235056 64.622381 
L 209.84722 97.542756 
L 223.05276 116.592109 
L 233.295773 132.0912 
" clip-path="url(#p2c6bfc0955)" style="fill: none; stroke: #b2b2b2; stroke-width: 0.8; stroke-linecap: square"/>
   </g>
   <g id="line2d_80">
    <path d="M 53.721227 77.700793 
L 72.333391 74.043911 
L 85.538931 68.479467 
L 95.781944 67.360283 
L 104.151095 65.540347 
L 117.356635 53.630803 
L 126.011788 46.764445 
L 127.599648 47.250811 
L 146.211812 65.380818 
L 159.417352 62.121749 
L 171.460723 72.2072 
L 178.029516 71.429268 
L 191.235056 83.816564 
L 209.84722 90.336048 
L 223.05276 114.885665 
L 233.295773 123.088787 
" clip-path="url(#p2c6bfc0955)" style="fill: none; stroke: #b2b2b2; stroke-width: 0.8; stroke-linecap: square"/>
   </g>
   <g id="line2d_81">
    <path d="M 53.721227 49.08401 
L 72.333391 48.901626 
L 85.538931 45.320443 
L 95.781944 51.835408 
L 104.151095 44.356763 
L 117.356635 42.181248 
L 126.011788 46.764445 
L 127.599648 44.04838 
L 146.211812 59.115163 
L 159.417352 60.130976 
L 171.460723 71.391679 
L 178.029516 68.050155 
L 191.235056 82.675201 
L 209.84722 76.846106 
L 223.05276 74.300078 
L 233.295773 79.026407 
" clip-path="url(#p2c6bfc0955)" style="fill: none; stroke: #b2b2b2; stroke-width: 0.8; stroke-linecap: square"/>
   </g>
   <g id="line2d_82">
    <path d="M 53.721227 34.787171 
L 72.333391 32.777388 
L 85.538931 35.759396 
L 95.781944 39.111267 
L 104.151095 51.80281 
L 117.356635 56.867885 
L 126.011788 46.764445 
L 127.599648 44.705763 
L 146.211812 64.494393 
L 159.417352 75.534059 
L 171.460723 69.537106 
L 178.029516 77.156154 
L 191.235056 87.056223 
L 209.84722 77.129927 
L 223.05276 79.55681 
L 233.295773 84.641805 
" clip-path="url(#p2c6bfc0955)" style="fill: none; stroke: #b2b2b2; stroke-width: 0.8; stroke-linecap: square"/>
   </g>
   <g id="line2d_83">
    <path d="M 53.721227 35.256441 
L 72.333391 34.633058 
L 85.538931 32.487625 
L 95.781944 37.457568 
L 104.151095 37.405586 
L 117.356635 46.765782 
L 126.011788 46.764445 
L 127.599648 46.815349 
L 146.211812 43.318919 
L 159.417352 54.625507 
L 171.460723 68.930807 
L 178.029516 68.213871 
L 191.235056 79.594666 
L 209.84722 93.080287 
L 223.05276 99.889468 
L 233.295773 120.567056 
" clip-path="url(#p2c6bfc0955)" style="fill: none; stroke: #b2b2b2; stroke-width: 0.8; stroke-linecap: square"/>
   </g>
   <g id="line2d_84">
    <path d="M 53.721227 39.245108 
L 72.333391 38.203413 
L 85.538931 34.826808 
L 95.781944 33.979406 
L 104.151095 39.64287 
L 117.356635 42.676533 
L 126.011788 46.764445 
L 127.599648 44.040018 
L 146.211812 46.767375 
L 159.417352 60.480397 
L 171.460723 58.987315 
L 178.029516 61.038004 
L 191.235056 60.157382 
L 209.84722 71.288736 
L 223.05276 83.778682 
L 233.295773 101.741138 
" clip-path="url(#p2c6bfc0955)" style="fill: none; stroke: #b2b2b2; stroke-width: 0.8; stroke-linecap: square"/>
   </g>
   <g id="line2d_85">
    <path d="M 53.721227 49.542798 
L 72.333391 39.588374 
L 85.538931 34.804547 
L 95.781944 51.352805 
L 104.151095 52.098986 
L 117.356635 52.339336 
L 126.011788 46.764445 
L 127.599648 49.685286 
L 146.211812 69.746552 
L 159.417352 62.332246 
L 171.460723 69.493482 
L 178.029516 65.802636 
L 191.235056 83.44722 
L 209.84722 81.440001 
L 223.05276 83.797716 
L 233.295773 92.558822 
" clip-path="url(#p2c6bfc0955)" style="fill: none; stroke: #b2b2b2; stroke-width: 0.8; stroke-linecap: square"/>
   </g>
   <g id="line2d_86">
    <path d="M 53.721227 55.328658 
L 72.333391 50.924027 
L 85.538931 44.895874 
L 95.781944 50.934828 
L 104.151095 52.55796 
L 117.356635 41.976769 
L 126.011788 46.764445 
L 127.599648 48.414656 
L 146.211812 31.100699 
L 159.417352 59.104634 
L 171.460723 69.785132 
L 178.029516 77.419711 
L 191.235056 84.461218 
L 209.84722 93.196101 
L 223.05276 98.122471 
L 233.295773 108.036756 
" clip-path="url(#p2c6bfc0955)" style="fill: none; stroke: #b2b2b2; stroke-width: 0.8; stroke-linecap: square"/>
   </g>
   <g id="line2d_87">
    <path d="M 53.721227 36.879663 
L 72.333391 38.143144 
L 85.538931 41.150913 
L 95.781944 47.433536 
L 104.151095 51.407955 
L 117.356635 39.858558 
L 126.011788 46.764445 
L 127.599648 40.72853 
L 146.211812 57.320709 
L 159.417352 67.574523 
L 171.460723 75.290542 
L 178.029516 71.55043 
L 191.235056 72.521673 
L 209.84722 89.932445 
L 223.05276 94.983737 
L 233.295773 105.329605 
" clip-path="url(#p2c6bfc0955)" style="fill: none; stroke: #b2b2b2; stroke-width: 0.8; stroke-linecap: square"/>
   </g>
   <g id="line2d_88">
    <path d="M 53.721227 50.178997 
L 72.333391 43.743447 
L 85.538931 47.994859 
L 95.781944 58.711017 
L 104.151095 50.361829 
L 117.356635 44.253456 
L 126.011788 46.764445 
L 127.599648 44.437744 
L 146.211812 52.682199 
L 159.417352 52.808498 
L 171.460723 69.930023 
L 178.029516 75.125155 
L 191.235056 76.483059 
L 209.84722 82.110569 
L 223.05276 93.760836 
L 233.295773 101.32561 
" clip-path="url(#p2c6bfc0955)" style="fill: none; stroke: #b2b2b2; stroke-width: 0.8; stroke-linecap: square"/>
   </g>
   <g id="line2d_89">
    <path d="M 53.721227 37.747724 
L 72.333391 29.297426 
L 85.538931 27.345135 
L 95.781944 34.716702 
L 104.151095 32.38597 
L 117.356635 48.275622 
L 126.011788 46.764445 
L 127.599648 49.265384 
L 146.211812 56.335056 
L 159.417352 68.125187 
L 171.460723 69.927215 
L 178.029516 82.162508 
L 191.235056 88.044801 
L 209.84722 94.207272 
L 223.05276 94.816581 
L 233.295773 100.432242 
" clip-path="url(#p2c6bfc0955)" style="fill: none; stroke: #b2b2b2; stroke-width: 0.8; stroke-linecap: square"/>
   </g>
   <g id="line2d_90">
    <path d="M 53.721227 43.576207 
L 72.333391 36.450068 
L 85.538931 41.526521 
L 95.781944 40.468679 
L 104.151095 38.330539 
L 117.356635 36.008311 
L 126.011788 46.764445 
L 127.599648 52.254568 
L 146.211812 57.55443 
L 159.417352 63.025852 
L 171.460723 67.754901 
L 178.029516 62.317509 
L 191.235056 73.709009 
L 209.84722 88.839771 
L 223.05276 92.981345 
L 233.295773 117.445142 
" clip-path="url(#p2c6bfc0955)" style="fill: none; stroke: #b2b2b2; stroke-width: 0.8; stroke-linecap: square"/>
   </g>
   <g id="line2d_91">
    <path d="M 53.721227 57.769225 
L 72.333391 48.089746 
L 85.538931 44.535451 
L 95.781944 48.819108 
L 104.151095 46.704648 
L 117.356635 41.237938 
L 126.011788 46.764445 
L 127.599648 47.029191 
L 146.211812 61.210229 
L 159.417352 68.351233 
L 171.460723 62.556268 
L 178.029516 63.067074 
L 191.235056 71.048113 
L 209.84722 74.105046 
L 223.05276 102.488313 
L 233.295773 111.833514 
" clip-path="url(#p2c6bfc0955)" style="fill: none; stroke: #b2b2b2; stroke-width: 0.8; stroke-linecap: square"/>
   </g>
   <g id="line2d_92">
    <path d="M 53.721227 41.474427 
L 72.333391 43.560611 
L 85.538931 42.221215 
L 95.781944 42.854019 
L 104.151095 46.594618 
L 117.356635 48.090314 
L 126.011788 46.764445 
L 127.599648 45.363827 
L 146.211812 60.772609 
L 159.417352 66.344056 
L 171.460723 71.363229 
L 178.029516 77.774412 
L 191.235056 79.027139 
L 209.84722 79.843964 
L 223.05276 96.944269 
L 233.295773 103.491284 
" clip-path="url(#p2c6bfc0955)" style="fill: none; stroke: #b2b2b2; stroke-width: 0.8; stroke-linecap: square"/>
   </g>
   <g id="line2d_93">
    <path d="M 53.721227 50.205471 
L 72.333391 47.849559 
L 85.538931 52.334477 
L 95.781944 57.554268 
L 104.151095 51.851448 
L 117.356635 53.263239 
L 126.011788 46.764445 
L 127.599648 45.546361 
L 146.211812 47.423711 
L 159.417352 53.765422 
L 171.460723 56.340473 
L 178.029516 69.74367 
L 191.235056 65.390476 
L 209.84722 84.038046 
L 223.05276 90.853546 
L 233.295773 86.579603 
" clip-path="url(#p2c6bfc0955)" style="fill: none; stroke: #b2b2b2; stroke-width: 0.8; stroke-linecap: square"/>
   </g>
   <g id="line2d_94">
    <path d="M 53.721227 68.062268 
L 72.333391 55.821467 
L 85.538931 60.58237 
L 95.781944 50.438897 
L 104.151095 44.214851 
L 117.356635 40.993435 
L 126.011788 46.764445 
L 127.599648 46.845336 
L 146.211812 57.755931 
L 159.417352 63.614057 
L 171.460723 57.609705 
L 178.029516 50.585551 
L 191.235056 62.541637 
L 209.84722 92.449547 
L 223.05276 106.832951 
L 233.295773 121.588452 
" clip-path="url(#p2c6bfc0955)" style="fill: none; stroke: #b2b2b2; stroke-width: 0.8; stroke-linecap: square"/>
   </g>
   <g id="line2d_95">
    <path d="M 53.721227 55.013841 
L 72.333391 44.372615 
L 85.538931 38.080165 
L 95.781944 36.669364 
L 104.151095 43.772212 
L 117.356635 39.030205 
L 126.011788 46.764445 
L 127.599648 52.389765 
L 146.211812 62.758845 
L 159.417352 70.543122 
L 171.460723 80.388985 
L 178.029516 90.689872 
L 191.235056 100.716547 
L 209.84722 104.513679 
L 223.05276 106.38602 
L 233.295773 115.715602 
" clip-path="url(#p2c6bfc0955)" style="fill: none; stroke: #b2b2b2; stroke-width: 0.8; stroke-linecap: square"/>
   </g>
   <g id="line2d_96">
    <path d="M 53.721227 26.620923 
L 72.333391 18.318523 
L 85.538931 28.761712 
L 95.781944 31.726787 
L 104.151095 38.579738 
L 117.356635 43.323637 
L 126.011788 46.764445 
L 127.599648 48.081613 
L 146.211812 52.893843 
L 159.417352 47.962586 
L 171.460723 57.009182 
L 178.029516 64.482308 
L 191.235056 84.424043 
L 209.84722 81.207052 
L 223.05276 81.645758 
L 233.295773 86.062702 
" clip-path="url(#p2c6bfc0955)" style="fill: none; stroke: #b2b2b2; stroke-width: 0.8; stroke-linecap: square"/>
   </g>
   <g id="line2d_97">
    <path d="M 53.721227 66.306642 
L 72.333391 57.375735 
L 85.538931 59.607708 
L 95.781944 57.522339 
L 104.151095 57.545126 
L 117.356635 51.770621 
L 126.011788 46.764445 
L 127.599648 43.740583 
L 146.211812 65.673993 
L 159.417352 69.628898 
L 171.460723 79.06226 
L 178.029516 79.586473 
L 191.235056 93.727688 
L 209.84722 105.06026 
L 223.05276 104.66246 
L 233.295773 97.65154 
" clip-path="url(#p2c6bfc0955)" style="fill: none; stroke: #b2b2b2; stroke-width: 0.8; stroke-linecap: square"/>
   </g>
   <g id="line2d_98">
    <path d="M 53.721227 64.770225 
L 72.333391 62.328738 
L 85.538931 57.335981 
L 95.781944 49.875714 
L 104.151095 52.295758 
L 117.356635 47.688072 
L 126.011788 46.764445 
L 127.599648 43.836605 
L 146.211812 59.035902 
L 159.417352 58.33014 
L 171.460723 68.225596 
L 178.029516 70.825732 
L 191.235056 69.280108 
L 209.84722 78.159018 
L 223.05276 90.526924 
L 233.295773 99.465811 
" clip-path="url(#p2c6bfc0955)" style="fill: none; stroke: #b2b2b2; stroke-width: 0.8; stroke-linecap: square"/>
   </g>
   <g id="line2d_99">
    <path d="M 53.721227 68.889924 
L 72.333391 67.190745 
L 85.538931 63.936728 
L 95.781944 63.858382 
L 104.151095 62.769266 
L 117.356635 51.92911 
L 126.011788 46.764445 
L 127.599648 47.542176 
L 146.211812 65.408245 
L 159.417352 58.73763 
L 171.460723 62.111211 
L 178.029516 57.620662 
L 191.235056 63.316484 
L 209.84722 72.159458 
L 223.05276 88.645316 
L 233.295773 100.387824 
" clip-path="url(#p2c6bfc0955)" style="fill: none; stroke: #b2b2b2; stroke-width: 0.8; stroke-linecap: square"/>
   </g>
   <g id="line2d_100">
    <path d="M 53.721227 48.498351 
L 72.333391 33.801283 
L 85.538931 35.837476 
L 95.781944 35.471801 
L 104.151095 43.474081 
L 117.356635 48.420986 
L 126.011788 46.764445 
L 127.599648 46.739733 
L 146.211812 53.206408 
L 159.417352 50.43526 
L 171.460723 49.101289 
L 178.029516 58.411107 
L 191.235056 79.738264 
L 209.84722 90.041806 
L 223.05276 98.998947 
L 233.295773 101.526384 
" clip-path="url(#p2c6bfc0955)" style="fill: none; stroke: #b2b2b2; stroke-width: 0.8; stroke-linecap: square"/>
   </g>
   <g id="line2d_101">
    <path d="M 53.721227 43.887419 
L 72.333391 33.950123 
L 85.538931 25.677143 
L 95.781944 33.861392 
L 104.151095 29.547773 
L 117.356635 41.782396 
L 126.011788 46.764445 
L 127.599648 46.982731 
L 146.211812 44.450065 
L 159.417352 51.612564 
L 171.460723 57.840816 
L 178.029516 67.124005 
L 191.235056 77.435999 
L 209.84722 81.02211 
L 223.05276 84.868617 
L 233.295773 91.795964 
" clip-path="url(#p2c6bfc0955)" style="fill: none; stroke: #b2b2b2; stroke-width: 0.8; stroke-linecap: square"/>
   </g>
   <g id="line2d_102">
    <path d="M 53.721227 56.93712 
L 72.333391 54.005825 
L 85.538931 57.014281 
L 95.781944 47.318402 
L 104.151095 47.391487 
L 117.356635 48.287955 
L 126.011788 46.764445 
L 127.599648 47.392093 
L 146.211812 51.261998 
L 159.417352 63.9879 
L 171.460723 59.964221 
L 178.029516 61.320407 
L 191.235056 67.35794 
L 209.84722 80.260957 
L 223.05276 87.398656 
L 233.295773 99.755618 
" clip-path="url(#p2c6bfc0955)" style="fill: none; stroke: #b2b2b2; stroke-width: 0.8; stroke-linecap: square"/>
   </g>
   <g id="line2d_103">
    <path d="M 53.721227 67.076323 
L 72.333391 55.543643 
L 85.538931 54.237718 
L 95.781944 51.376196 
L 104.151095 45.957608 
L 117.356635 46.172066 
L 126.011788 46.764445 
L 127.599648 47.0816 
L 146.211812 46.788118 
L 159.417352 52.537428 
L 171.460723 52.205868 
L 178.029516 50.79128 
L 191.235056 57.736007 
L 209.84722 66.374899 
L 223.05276 74.271437 
L 233.295773 79.562732 
" clip-path="url(#p2c6bfc0955)" style="fill: none; stroke: #b2b2b2; stroke-width: 0.8; stroke-linecap: square"/>
   </g>
   <g id="line2d_104">
    <path d="M 53.721227 63.19583 
L 72.333391 51.790606 
L 85.538931 45.362033 
L 95.781944 45.726587 
L 104.151095 39.71759 
L 117.356635 42.878064 
L 126.011788 46.764445 
L 127.599648 44.016729 
L 146.211812 51.066592 
L 159.417352 56.659573 
L 171.460723 54.959955 
L 178.029516 56.518829 
L 191.235056 68.461529 
L 209.84722 74.446138 
L 223.05276 80.252907 
L 233.295773 88.761668 
" clip-path="url(#p2c6bfc0955)" style="fill: none; stroke: #b2b2b2; stroke-width: 0.8; stroke-linecap: square"/>
   </g>
   <g id="line2d_105">
    <path d="M 53.721227 71.020673 
L 72.333391 66.006734 
L 85.538931 64.327686 
L 95.781944 62.314171 
L 104.151095 52.221799 
L 117.356635 46.936409 
L 126.011788 46.764445 
L 127.599648 46.692067 
L 146.211812 44.616892 
L 159.417352 61.284381 
L 171.460723 69.009181 
L 178.029516 71.129251 
L 191.235056 80.121363 
L 209.84722 93.561693 
L 223.05276 107.174133 
L 233.295773 105.621318 
" clip-path="url(#p2c6bfc0955)" style="fill: none; stroke: #b2b2b2; stroke-width: 0.8; stroke-linecap: square"/>
   </g>
   <g id="line2d_106">
    <path d="M 53.721227 37.562045 
L 72.333391 27.007266 
L 85.538931 36.342326 
L 95.781944 36.590336 
L 104.151095 40.499473 
L 117.356635 44.028553 
L 126.011788 46.764445 
L 127.599648 46.276536 
L 146.211812 54.842556 
L 159.417352 49.596342 
L 171.460723 63.7637 
L 178.029516 61.257619 
L 191.235056 71.803135 
L 209.84722 94.318545 
L 223.05276 92.003799 
L 233.295773 103.498145 
" clip-path="url(#p2c6bfc0955)" style="fill: none; stroke: #b2b2b2; stroke-width: 0.8; stroke-linecap: square"/>
   </g>
   <g id="line2d_107">
    <path d="M 53.721227 42.603104 
L 72.333391 46.083106 
L 85.538931 51.756294 
L 95.781944 49.89651 
L 104.151095 48.109899 
L 117.356635 51.661389 
L 126.011788 46.764445 
L 127.599648 47.04595 
L 146.211812 48.606771 
L 159.417352 55.979729 
L 171.460723 59.031553 
L 178.029516 78.062779 
L 191.235056 84.801209 
L 209.84722 94.094303 
L 223.05276 99.2106 
L 233.295773 102.322643 
" clip-path="url(#p2c6bfc0955)" style="fill: none; stroke: #b2b2b2; stroke-width: 0.8; stroke-linecap: square"/>
   </g>
   <g id="line2d_108">
    <path d="M 53.721227 42.199177 
L 72.333391 48.175049 
L 85.538931 38.050231 
L 95.781944 39.087603 
L 104.151095 39.555251 
L 117.356635 42.780124 
L 126.011788 46.764445 
L 127.599648 47.067897 
L 146.211812 49.821163 
L 159.417352 53.502457 
L 171.460723 62.58005 
L 178.029516 67.900359 
L 191.235056 67.881571 
L 209.84722 93.558502 
L 223.05276 105.683332 
L 233.295773 116.854024 
" clip-path="url(#p2c6bfc0955)" style="fill: none; stroke: #b2b2b2; stroke-width: 0.8; stroke-linecap: square"/>
   </g>
   <g id="line2d_109">
    <path d="M 53.721227 60.637358 
L 72.333391 54.328861 
L 85.538931 38.467206 
L 95.781944 34.471847 
L 104.151095 39.661874 
L 117.356635 40.413791 
L 126.011788 46.764445 
L 127.599648 47.074257 
L 146.211812 50.796492 
L 159.417352 59.585071 
L 171.460723 73.355234 
L 178.029516 74.058453 
L 191.235056 80.175339 
L 209.84722 92.321213 
L 223.05276 104.984945 
L 233.295773 107.100195 
" clip-path="url(#p2c6bfc0955)" style="fill: none; stroke: #b2b2b2; stroke-width: 0.8; stroke-linecap: square"/>
   </g>
   <g id="line2d_110">
    <path d="M 53.721227 47.361942 
L 72.333391 42.368245 
L 85.538931 45.038235 
L 95.781944 41.500881 
L 104.151095 35.607527 
L 117.356635 42.423082 
L 126.011788 46.764445 
L 127.599648 47.615279 
L 146.211812 54.763571 
L 159.417352 68.632475 
L 171.460723 67.109557 
L 178.029516 71.161757 
L 191.235056 73.185941 
L 209.84722 87.940759 
L 223.05276 92.774105 
L 233.295773 115.122407 
" clip-path="url(#p2c6bfc0955)" style="fill: none; stroke: #b2b2b2; stroke-width: 0.8; stroke-linecap: square"/>
   </g>
   <g id="line2d_111">
    <path d="M 53.721227 60.743847 
L 72.333391 55.124957 
L 85.538931 48.746596 
L 95.781944 49.346646 
L 104.151095 52.099501 
L 117.356635 51.066111 
L 126.011788 46.764445 
L 127.599648 49.450415 
L 146.211812 47.241624 
L 159.417352 38.310622 
L 171.460723 43.44145 
L 178.029516 49.155488 
L 191.235056 62.579477 
L 209.84722 77.302961 
L 223.05276 94.046918 
L 233.295773 110.198894 
" clip-path="url(#p2c6bfc0955)" style="fill: none; stroke: #b2b2b2; stroke-width: 0.8; stroke-linecap: square"/>
   </g>
   <g id="line2d_112">
    <path d="M 53.721227 50.091559 
L 72.333391 49.007273 
L 85.538931 51.498028 
L 95.781944 41.107148 
L 104.151095 42.983788 
L 117.356635 43.972097 
L 126.011788 46.764445 
L 127.599648 46.151118 
L 146.211812 44.561047 
L 159.417352 42.482383 
L 171.460723 33.216041 
L 178.029516 43.765407 
L 191.235056 57.941581 
L 209.84722 71.339831 
L 223.05276 91.598454 
L 233.295773 112.256019 
" clip-path="url(#p2c6bfc0955)" style="fill: none; stroke: #b2b2b2; stroke-width: 0.8; stroke-linecap: square"/>
   </g>
   <g id="line2d_113">
    <path d="M 53.721227 63.285526 
L 72.333391 61.089238 
L 85.538931 54.42677 
L 95.781944 46.290028 
L 104.151095 47.68685 
L 117.356635 40.060841 
L 126.011788 46.764445 
L 127.599648 48.732995 
L 146.211812 55.881751 
L 159.417352 50.254847 
L 171.460723 51.021017 
L 178.029516 54.461014 
L 191.235056 65.779974 
L 209.84722 92.482681 
L 223.05276 102.361652 
L 233.295773 110.180987 
" clip-path="url(#p2c6bfc0955)" style="fill: none; stroke: #b2b2b2; stroke-width: 0.8; stroke-linecap: square"/>
   </g>
   <g id="line2d_114">
    <path d="M 53.721227 35.197735 
L 72.333391 23.004132 
L 85.538931 23.014104 
L 95.781944 21.205148 
L 104.151095 35.891402 
L 117.356635 43.87756 
L 126.011788 46.764445 
L 127.599648 50.707653 
L 146.211812 47.471048 
L 159.417352 55.98557 
L 171.460723 58.764391 
L 178.029516 62.111092 
L 191.235056 71.086377 
L 209.84722 86.625478 
L 223.05276 102.49001 
L 233.295773 106.178455 
" clip-path="url(#p2c6bfc0955)" style="fill: none; stroke: #b2b2b2; stroke-width: 0.8; stroke-linecap: square"/>
   </g>
   <g id="line2d_115">
    <path d="M 53.721227 40.89544 
L 72.333391 31.714081 
L 85.538931 31.170349 
L 95.781944 38.417043 
L 104.151095 39.823427 
L 117.356635 39.474881 
L 126.011788 46.764445 
L 127.599648 50.711979 
L 146.211812 63.558255 
L 159.417352 76.656432 
L 171.460723 80.670796 
L 178.029516 78.356414 
L 191.235056 89.191139 
L 209.84722 98.510338 
L 223.05276 114.886662 
L 233.295773 115.765332 
" clip-path="url(#p2c6bfc0955)" style="fill: none; stroke: #b2b2b2; stroke-width: 0.8; stroke-linecap: square"/>
   </g>
   <g id="line2d_116">
    <path d="M 53.721227 55.239214 
L 72.333391 53.904147 
L 85.538931 49.797521 
L 95.781944 46.016911 
L 104.151095 39.790875 
L 117.356635 49.468984 
L 126.011788 46.764445 
L 127.599648 48.692717 
L 146.211812 40.525952 
L 159.417352 43.519532 
L 171.460723 49.879884 
L 178.029516 61.786046 
L 191.235056 62.656596 
L 209.84722 71.635942 
L 223.05276 78.33043 
L 233.295773 80.07182 
" clip-path="url(#p2c6bfc0955)" style="fill: none; stroke: #b2b2b2; stroke-width: 0.8; stroke-linecap: square"/>
   </g>
   <g id="line2d_117">
    <path d="M 53.721227 45.974481 
L 72.333391 42.160381 
L 85.538931 40.932686 
L 95.781944 43.807607 
L 104.151095 40.722649 
L 117.356635 46.979093 
L 126.011788 46.764445 
L 127.599648 48.469171 
L 146.211812 56.568203 
L 159.417352 60.211166 
L 171.460723 73.603308 
L 178.029516 77.851762 
L 191.235056 84.033024 
L 209.84722 100.221748 
L 223.05276 110.285003 
L 233.295773 119.549801 
" clip-path="url(#p2c6bfc0955)" style="fill: none; stroke: #b2b2b2; stroke-width: 0.8; stroke-linecap: square"/>
   </g>
   <g id="line2d_118">
    <path d="M 53.721227 48.370071 
L 72.333391 41.160679 
L 85.538931 41.087639 
L 95.781944 40.713389 
L 104.151095 40.655768 
L 117.356635 46.03583 
L 126.011788 46.764445 
L 127.599648 46.741841 
L 146.211812 47.176196 
L 159.417352 60.751322 
L 171.460723 69.431478 
L 178.029516 84.517298 
L 191.235056 91.75112 
L 209.84722 106.578396 
L 223.05276 116.834159 
L 233.295773 119.468906 
" clip-path="url(#p2c6bfc0955)" style="fill: none; stroke: #b2b2b2; stroke-width: 0.8; stroke-linecap: square"/>
   </g>
   <g id="line2d_119">
    <path d="M 53.721227 53.074306 
L 72.333391 38.508705 
L 85.538931 35.839835 
L 95.781944 37.201665 
L 104.151095 38.325597 
L 117.356635 36.50413 
L 126.011788 46.764445 
L 127.599648 49.189402 
L 146.211812 55.748416 
L 159.417352 73.826206 
L 171.460723 77.47265 
L 178.029516 78.742167 
L 191.235056 83.622364 
L 209.84722 85.510799 
L 223.05276 87.903601 
L 233.295773 101.184933 
" clip-path="url(#p2c6bfc0955)" style="fill: none; stroke: #b2b2b2; stroke-width: 0.8; stroke-linecap: square"/>
   </g>
   <g id="line2d_120">
    <path d="M 53.721227 59.621713 
L 72.333391 56.768297 
L 85.538931 51.733159 
L 95.781944 46.212747 
L 104.151095 47.765168 
L 117.356635 46.124175 
L 126.011788 46.764445 
L 127.599648 48.98991 
L 146.211812 62.636096 
L 159.417352 66.715027 
L 171.460723 67.769381 
L 178.029516 74.235777 
L 191.235056 77.659223 
L 209.84722 96.879267 
L 223.05276 97.652379 
L 233.295773 98.04797 
" clip-path="url(#p2c6bfc0955)" style="fill: none; stroke: #b2b2b2; stroke-width: 0.8; stroke-linecap: square"/>
   </g>
   <g id="line2d_121">
    <path d="M 53.721227 56.260891 
L 72.333391 51.889783 
L 85.538931 45.055526 
L 95.781944 41.886678 
L 104.151095 38.898616 
L 117.356635 49.625166 
L 126.011788 46.764445 
L 127.599648 45.685661 
L 146.211812 41.625733 
L 159.417352 33.645509 
L 171.460723 42.92432 
L 178.029516 38.120201 
L 191.235056 45.701495 
L 209.84722 49.919118 
L 223.05276 73.921851 
L 233.295773 84.936285 
" clip-path="url(#p2c6bfc0955)" style="fill: none; stroke: #b2b2b2; stroke-width: 0.8; stroke-linecap: square"/>
   </g>
   <g id="line2d_122">
    <path d="M 53.721227 55.205258 
L 72.333391 52.892321 
L 85.538931 46.888865 
L 95.781944 41.762328 
L 104.151095 37.467769 
L 117.356635 43.29078 
L 126.011788 46.764445 
L 127.599648 45.885607 
L 146.211812 55.445767 
L 159.417352 79.978369 
L 171.460723 90.408065 
L 178.029516 84.02312 
L 191.235056 87.315384 
L 209.84722 106.543285 
L 223.05276 116.493424 
L 233.295773 121.965058 
" clip-path="url(#p2c6bfc0955)" style="fill: none; stroke: #b2b2b2; stroke-width: 0.8; stroke-linecap: square"/>
   </g>
   <g id="line2d_123">
    <path d="M 53.721227 59.871135 
L 72.333391 59.963655 
L 85.538931 50.771351 
L 95.781944 46.057242 
L 104.151095 49.774015 
L 117.356635 45.34318 
L 126.011788 46.764445 
L 127.599648 45.799442 
L 146.211812 43.540083 
L 159.417352 36.958174 
L 171.460723 37.604928 
L 178.029516 45.096123 
L 191.235056 53.181073 
L 209.84722 73.925372 
L 223.05276 74.768331 
L 233.295773 91.037212 
" clip-path="url(#p2c6bfc0955)" style="fill: none; stroke: #b2b2b2; stroke-width: 0.8; stroke-linecap: square"/>
   </g>
   <g id="line2d_124">
    <path d="M 53.721227 43.213591 
L 72.333391 31.842119 
L 85.538931 32.578591 
L 95.781944 32.471997 
L 104.151095 33.129648 
L 117.356635 47.655818 
L 126.011788 46.764445 
L 127.599648 45.186059 
L 146.211812 54.784641 
L 159.417352 46.484698 
L 171.460723 55.852219 
L 178.029516 65.929782 
L 191.235056 81.781005 
L 209.84722 86.267322 
L 223.05276 92.974526 
L 233.295773 100.129127 
" clip-path="url(#p2c6bfc0955)" style="fill: none; stroke: #b2b2b2; stroke-width: 0.8; stroke-linecap: square"/>
   </g>
   <g id="line2d_125">
    <path d="M 53.721227 55.535071 
L 72.333391 57.240892 
L 85.538931 49.140597 
L 95.781944 51.922963 
L 104.151095 47.430423 
L 117.356635 45.780132 
L 126.011788 46.764445 
L 127.599648 47.348423 
L 146.211812 58.199783 
L 159.417352 57.366031 
L 171.460723 66.182857 
L 178.029516 67.25311 
L 191.235056 77.818683 
L 209.84722 78.310705 
L 223.05276 95.982452 
L 233.295773 111.882255 
" clip-path="url(#p2c6bfc0955)" style="fill: none; stroke: #b2b2b2; stroke-width: 0.8; stroke-linecap: square"/>
   </g>
   <g id="line2d_126">
    <path d="M 53.721227 59.404162 
L 72.333391 56.460037 
L 85.538931 55.487126 
L 95.781944 54.012676 
L 104.151095 49.299564 
L 117.356635 49.628354 
L 126.011788 46.764445 
L 127.599648 47.553669 
L 146.211812 56.789257 
L 159.417352 48.795038 
L 171.460723 50.0934 
L 178.029516 54.691436 
L 191.235056 62.747984 
L 209.84722 85.965046 
L 223.05276 98.060242 
L 233.295773 106.658696 
" clip-path="url(#p2c6bfc0955)" style="fill: none; stroke: #b2b2b2; stroke-width: 0.8; stroke-linecap: square"/>
   </g>
   <g id="line2d_127">
    <path d="M 53.721227 50.711366 
L 72.333391 45.923354 
L 85.538931 44.152547 
L 95.781944 44.142074 
L 104.151095 44.135054 
L 117.356635 45.67242 
L 126.011788 46.764445 
L 127.599648 47.088782 
L 146.211812 53.103303 
L 159.417352 57.979697 
L 171.460723 63.069803 
L 178.029516 66.206738 
L 191.235056 74.002655 
L 209.84722 85.270149 
L 223.05276 94.666642 
L 233.295773 103.425578 
" clip-path="url(#p2c6bfc0955)" style="fill: none; stroke: #ff0000; stroke-width: 2; stroke-linecap: square"/>
   </g>
   <g id="line2d_128">
    <path d="M 53.721227 26.557866 
L 72.333391 21.640408 
L 85.538931 22.148499 
L 95.781944 24.450253 
L 104.151095 27.201653 
L 117.356635 35.167429 
L 126.011788 46.764444 
L 127.599648 42.314459 
L 146.211812 36.994504 
L 159.417352 37.975319 
L 171.460723 40.722299 
L 178.029516 43.161603 
L 191.235056 50.290668 
L 209.84722 60.46153 
L 223.05276 69.871881 
L 233.295773 77.795114 
" clip-path="url(#p2c6bfc0955)" style="fill: none; stroke-dasharray: 7.4,3.2; stroke-dashoffset: 0; stroke: #ff0000; stroke-width: 2"/>
   </g>
   <g id="line2d_129">
    <path d="M 53.721227 74.864866 
L 72.333391 70.2063 
L 85.538931 66.156596 
L 95.781944 63.833895 
L 104.151095 61.068455 
L 117.356635 56.177411 
L 126.011788 46.764445 
L 127.599648 51.863106 
L 146.211812 69.212103 
L 159.417352 77.984075 
L 171.460723 85.417307 
L 178.029516 89.251873 
L 191.235056 97.714642 
L 209.84722 110.078768 
L 223.05276 119.461403 
L 233.295773 129.056043 
" clip-path="url(#p2c6bfc0955)" style="fill: none; stroke-dasharray: 7.4,3.2; stroke-dashoffset: 0; stroke: #ff0000; stroke-width: 2"/>
   </g>
   <g id="line2d_130">
    <path d="M 53.721227 50.675877 
L 72.333391 45.987499 
L 85.538931 44.003882 
L 95.781944 44.230838 
L 104.151095 44.182437 
L 117.356635 45.621934 
L 126.011788 46.764445 
L 127.599648 47.000986 
L 146.211812 53.156377 
L 159.417352 57.959138 
L 171.460723 63.11284 
L 178.029516 66.115572 
L 191.235056 74.122723 
L 209.84722 85.27612 
L 223.05276 94.642122 
L 233.295773 103.614314 
" clip-path="url(#p2c6bfc0955)" style="fill: none; stroke: #0000ff; stroke-width: 2; stroke-linecap: square"/>
   </g>
   <g id="line2d_131">
    <path d="M 53.721227 26.288362 
L 72.333391 21.840925 
L 85.538931 21.808129 
L 95.781944 24.675119 
L 104.151095 27.13596 
L 117.356635 35.076112 
L 126.011788 46.764445 
L 127.599648 42.618751 
L 146.211812 37.129609 
L 159.417352 37.91221 
L 171.460723 40.609925 
L 178.029516 43.140212 
L 191.235056 50.45728 
L 209.84722 60.390949 
L 223.05276 69.90928 
L 233.295773 77.960075 
" clip-path="url(#p2c6bfc0955)" style="fill: none; stroke-dasharray: 7.4,3.2; stroke-dashoffset: 0; stroke: #0000ff; stroke-width: 2"/>
   </g>
   <g id="line2d_132">
    <path d="M 53.721227 75.063392 
L 72.333391 70.134073 
L 85.538931 66.199636 
L 95.781944 63.786557 
L 104.151095 61.228914 
L 117.356635 56.167756 
L 126.011788 46.764445 
L 127.599648 51.383221 
L 146.211812 69.183146 
L 159.417352 78.006067 
L 171.460723 85.615756 
L 178.029516 89.090932 
L 191.235056 97.788166 
L 209.84722 110.16129 
L 223.05276 119.374965 
L 233.295773 129.268553 
" clip-path="url(#p2c6bfc0955)" style="fill: none; stroke-dasharray: 7.4,3.2; stroke-dashoffset: 0; stroke: #0000ff; stroke-width: 2"/>
   </g>
   <g id="patch_3">
    <path d="M 44.7425 138.0384 
L 44.7425 7.2 
" style="fill: none; stroke: #000000; stroke-width: 0.8; stroke-linejoin: miter; stroke-linecap: square"/>
   </g>
   <g id="patch_4">
    <path d="M 242.2745 138.0384 
L 242.2745 7.2 
" style="fill: none; stroke: #000000; stroke-width: 0.8; stroke-linejoin: miter; stroke-linecap: square"/>
   </g>
   <g id="patch_5">
    <path d="M 44.7425 138.0384 
L 242.2745 138.0384 
" style="fill: none; stroke: #000000; stroke-width: 0.8; stroke-linejoin: miter; stroke-linecap: square"/>
   </g>
   <g id="patch_6">
    <path d="M 44.7425 7.2 
L 242.2745 7.2 
" style="fill: none; stroke: #000000; stroke-width: 0.8; stroke-linejoin: miter; stroke-linecap: square"/>
   </g>
   <g id="legend_1">
    <g id="patch_7">
     <path d="M 247.8745 104.47295 
L 432.5945 104.47295 
Q 434.1945 104.47295 434.1945 102.87295 
L 434.1945 42.36545 
Q 434.1945 40.76545 432.5945 40.76545 
L 247.8745 40.76545 
Q 246.2745 40.76545 246.2745 42.36545 
L 246.2745 102.87295 
Q 246.2745 104.47295 247.8745 104.47295 
z
" style="fill: #ffffff; opacity: 0.8; stroke: #cccccc; stroke-linejoin: miter"/>
    </g>
    <g id="line2d_133">
     <path d="M 249.4745 47.2442 
L 257.4745 47.2442 
L 265.4745 47.2442 
" style="fill: none; stroke: #b2b2b2; stroke-width: 0.8; stroke-linecap: square"/>
    </g>
    <g id="text_7">
     <!-- Individual selected GMs -->
     <g transform="translate(271.8745 50.0442) scale(0.08 -0.08)">
      <defs>
       <path id="DejaVuSans-49" d="M 628 4666 
L 1259 4666 
L 1259 0 
L 628 0 
L 628 4666 
z
" transform="scale(0.015625)"/>
       <path id="DejaVuSans-76" d="M 191 3500 
L 800 3500 
L 1894 563 
L 2988 3500 
L 3597 3500 
L 2284 0 
L 1503 0 
L 191 3500 
z
" transform="scale(0.015625)"/>
       <path id="DejaVuSans-75" d="M 544 1381 
L 544 3500 
L 1119 3500 
L 1119 1403 
Q 1119 906 1312 657 
Q 1506 409 1894 409 
Q 2359 409 2629 706 
Q 2900 1003 2900 1516 
L 2900 3500 
L 3475 3500 
L 3475 0 
L 2900 0 
L 2900 538 
Q 2691 219 2414 64 
Q 2138 -91 1772 -91 
Q 1169 -91 856 284 
Q 544 659 544 1381 
z
M 1991 3584 
L 1991 3584 
z
" transform="scale(0.015625)"/>
       <path id="DejaVuSans-47" d="M 3809 666 
L 3809 1919 
L 2778 1919 
L 2778 2438 
L 4434 2438 
L 4434 434 
Q 4069 175 3628 42 
Q 3188 -91 2688 -91 
Q 1594 -91 976 548 
Q 359 1188 359 2328 
Q 359 3472 976 4111 
Q 1594 4750 2688 4750 
Q 3144 4750 3555 4637 
Q 3966 4525 4313 4306 
L 4313 3634 
Q 3963 3931 3569 4081 
Q 3175 4231 2741 4231 
Q 1884 4231 1454 3753 
Q 1025 3275 1025 2328 
Q 1025 1384 1454 906 
Q 1884 428 2741 428 
Q 3075 428 3337 486 
Q 3600 544 3809 666 
z
" transform="scale(0.015625)"/>
       <path id="DejaVuSans-4d" d="M 628 4666 
L 1569 4666 
L 2759 1491 
L 3956 4666 
L 4897 4666 
L 4897 0 
L 4281 0 
L 4281 4097 
L 3078 897 
L 2444 897 
L 1241 4097 
L 1241 0 
L 628 0 
L 628 4666 
z
" transform="scale(0.015625)"/>
      </defs>
      <use xlink:href="#DejaVuSans-49"/>
      <use xlink:href="#DejaVuSans-6e" x="29.492188"/>
      <use xlink:href="#DejaVuSans-64" x="92.871094"/>
      <use xlink:href="#DejaVuSans-69" x="156.347656"/>
      <use xlink:href="#DejaVuSans-76" x="184.130859"/>
      <use xlink:href="#DejaVuSans-69" x="243.310547"/>
      <use xlink:href="#DejaVuSans-64" x="271.09375"/>
      <use xlink:href="#DejaVuSans-75" x="334.570312"/>
      <use xlink:href="#DejaVuSans-61" x="397.949219"/>
      <use xlink:href="#DejaVuSans-6c" x="459.228516"/>
      <use xlink:href="#DejaVuSans-20" x="487.011719"/>
      <use xlink:href="#DejaVuSans-73" x="518.798828"/>
      <use xlink:href="#DejaVuSans-65" x="570.898438"/>
      <use xlink:href="#DejaVuSans-6c" x="632.421875"/>
      <use xlink:href="#DejaVuSans-65" x="660.205078"/>
      <use xlink:href="#DejaVuSans-63" x="721.728516"/>
      <use xlink:href="#DejaVuSans-74" x="776.708984"/>
      <use xlink:href="#DejaVuSans-65" x="815.917969"/>
      <use xlink:href="#DejaVuSans-64" x="877.441406"/>
      <use xlink:href="#DejaVuSans-20" x="940.917969"/>
      <use xlink:href="#DejaVuSans-47" x="972.705078"/>
      <use xlink:href="#DejaVuSans-4d" x="1050.195312"/>
      <use xlink:href="#DejaVuSans-73" x="1136.474609"/>
     </g>
    </g>
    <g id="line2d_134">
     <path d="M 249.4745 58.9867 
L 257.4745 58.9867 
L 265.4745 58.9867 
" style="fill: none; stroke: #ff0000; stroke-width: 2; stroke-linecap: square"/>
    </g>
    <g id="text_8">
     <!-- GCIM median -->
     <g transform="translate(271.8745 61.7867) scale(0.08 -0.08)">
      <defs>
       <path id="DejaVuSans-43" d="M 4122 4306 
L 4122 3641 
Q 3803 3938 3442 4084 
Q 3081 4231 2675 4231 
Q 1875 4231 1450 3742 
Q 1025 3253 1025 2328 
Q 1025 1406 1450 917 
Q 1875 428 2675 428 
Q 3081 428 3442 575 
Q 3803 722 4122 1019 
L 4122 359 
Q 3791 134 3420 21 
Q 3050 -91 2638 -91 
Q 1578 -91 968 557 
Q 359 1206 359 2328 
Q 359 3453 968 4101 
Q 1578 4750 2638 4750 
Q 3056 4750 3426 4639 
Q 3797 4528 4122 4306 
z
" transform="scale(0.015625)"/>
       <path id="DejaVuSans-6d" d="M 3328 2828 
Q 3544 3216 3844 3400 
Q 4144 3584 4550 3584 
Q 5097 3584 5394 3201 
Q 5691 2819 5691 2113 
L 5691 0 
L 5113 0 
L 5113 2094 
Q 5113 2597 4934 2840 
Q 4756 3084 4391 3084 
Q 3944 3084 3684 2787 
Q 3425 2491 3425 1978 
L 3425 0 
L 2847 0 
L 2847 2094 
Q 2847 2600 2669 2842 
Q 2491 3084 2119 3084 
Q 1678 3084 1418 2786 
Q 1159 2488 1159 1978 
L 1159 0 
L 581 0 
L 581 3500 
L 1159 3500 
L 1159 2956 
Q 1356 3278 1631 3431 
Q 1906 3584 2284 3584 
Q 2666 3584 2933 3390 
Q 3200 3197 3328 2828 
z
" transform="scale(0.015625)"/>
      </defs>
      <use xlink:href="#DejaVuSans-47"/>
      <use xlink:href="#DejaVuSans-43" x="77.490234"/>
      <use xlink:href="#DejaVuSans-49" x="147.314453"/>
      <use xlink:href="#DejaVuSans-4d" x="176.806641"/>
      <use xlink:href="#DejaVuSans-20" x="263.085938"/>
      <use xlink:href="#DejaVuSans-6d" x="294.873047"/>
      <use xlink:href="#DejaVuSans-65" x="392.285156"/>
      <use xlink:href="#DejaVuSans-64" x="453.808594"/>
      <use xlink:href="#DejaVuSans-69" x="517.285156"/>
      <use xlink:href="#DejaVuSans-61" x="545.068359"/>
      <use xlink:href="#DejaVuSans-6e" x="606.347656"/>
     </g>
    </g>
    <g id="line2d_135">
     <path d="M 249.4745 72.01045 
L 257.4745 72.01045 
L 265.4745 72.01045 
" style="fill: none; stroke-dasharray: 7.4,3.2; stroke-dashoffset: 0; stroke: #ff0000; stroke-width: 2"/>
    </g>
    <g id="text_9">
     <!-- GCIM $16^{th}$ and $84^{th}$ percentiles -->
     <g transform="translate(271.8745 74.81045) scale(0.08 -0.08)">
      <defs>
       <path id="DejaVuSans-36" d="M 2113 2584 
Q 1688 2584 1439 2293 
Q 1191 2003 1191 1497 
Q 1191 994 1439 701 
Q 1688 409 2113 409 
Q 2538 409 2786 701 
Q 3034 994 3034 1497 
Q 3034 2003 2786 2293 
Q 2538 2584 2113 2584 
z
M 3366 4563 
L 3366 3988 
Q 3128 4100 2886 4159 
Q 2644 4219 2406 4219 
Q 1781 4219 1451 3797 
Q 1122 3375 1075 2522 
Q 1259 2794 1537 2939 
Q 1816 3084 2150 3084 
Q 2853 3084 3261 2657 
Q 3669 2231 3669 1497 
Q 3669 778 3244 343 
Q 2819 -91 2113 -91 
Q 1303 -91 875 529 
Q 447 1150 447 2328 
Q 447 3434 972 4092 
Q 1497 4750 2381 4750 
Q 2619 4750 2861 4703 
Q 3103 4656 3366 4563 
z
" transform="scale(0.015625)"/>
       <path id="DejaVuSans-Oblique-74" d="M 2706 3500 
L 2619 3053 
L 1472 3053 
L 1100 1153 
Q 1081 1047 1072 975 
Q 1063 903 1063 863 
Q 1063 663 1183 572 
Q 1303 481 1569 481 
L 2150 481 
L 2053 0 
L 1503 0 
Q 991 0 739 200 
Q 488 400 488 806 
Q 488 878 497 964 
Q 506 1050 525 1153 
L 897 3053 
L 409 3053 
L 500 3500 
L 978 3500 
L 1172 4494 
L 1747 4494 
L 1556 3500 
L 2706 3500 
z
" transform="scale(0.015625)"/>
       <path id="DejaVuSans-Oblique-68" d="M 3566 2113 
L 3156 0 
L 2578 0 
L 2988 2091 
Q 3016 2238 3031 2350 
Q 3047 2463 3047 2528 
Q 3047 2791 2881 2937 
Q 2716 3084 2419 3084 
Q 1956 3084 1617 2771 
Q 1278 2459 1178 1941 
L 800 0 
L 225 0 
L 1172 4863 
L 1747 4863 
L 1375 2950 
Q 1594 3244 1934 3414 
Q 2275 3584 2650 3584 
Q 3113 3584 3367 3334 
Q 3622 3084 3622 2631 
Q 3622 2519 3608 2391 
Q 3594 2263 3566 2113 
z
" transform="scale(0.015625)"/>
       <path id="DejaVuSans-38" d="M 2034 2216 
Q 1584 2216 1326 1975 
Q 1069 1734 1069 1313 
Q 1069 891 1326 650 
Q 1584 409 2034 409 
Q 2484 409 2743 651 
Q 3003 894 3003 1313 
Q 3003 1734 2745 1975 
Q 2488 2216 2034 2216 
z
M 1403 2484 
Q 997 2584 770 2862 
Q 544 3141 544 3541 
Q 544 4100 942 4425 
Q 1341 4750 2034 4750 
Q 2731 4750 3128 4425 
Q 3525 4100 3525 3541 
Q 3525 3141 3298 2862 
Q 3072 2584 2669 2484 
Q 3125 2378 3379 2068 
Q 3634 1759 3634 1313 
Q 3634 634 3220 271 
Q 2806 -91 2034 -91 
Q 1263 -91 848 271 
Q 434 634 434 1313 
Q 434 1759 690 2068 
Q 947 2378 1403 2484 
z
M 1172 3481 
Q 1172 3119 1398 2916 
Q 1625 2713 2034 2713 
Q 2441 2713 2670 2916 
Q 2900 3119 2900 3481 
Q 2900 3844 2670 4047 
Q 2441 4250 2034 4250 
Q 1625 4250 1398 4047 
Q 1172 3844 1172 3481 
z
" transform="scale(0.015625)"/>
       <path id="DejaVuSans-34" d="M 2419 4116 
L 825 1625 
L 2419 1625 
L 2419 4116 
z
M 2253 4666 
L 3047 4666 
L 3047 1625 
L 3713 1625 
L 3713 1100 
L 3047 1100 
L 3047 0 
L 2419 0 
L 2419 1100 
L 313 1100 
L 313 1709 
L 2253 4666 
z
" transform="scale(0.015625)"/>
      </defs>
      <use xlink:href="#DejaVuSans-47" transform="translate(0 0.529687)"/>
      <use xlink:href="#DejaVuSans-43" transform="translate(77.490234 0.529687)"/>
      <use xlink:href="#DejaVuSans-49" transform="translate(147.314453 0.529687)"/>
      <use xlink:href="#DejaVuSans-4d" transform="translate(176.806641 0.529687)"/>
      <use xlink:href="#DejaVuSans-20" transform="translate(263.085938 0.529687)"/>
      <use xlink:href="#DejaVuSans-31" transform="translate(294.873047 0.529687)"/>
      <use xlink:href="#DejaVuSans-36" transform="translate(358.496094 0.529687)"/>
      <use xlink:href="#DejaVuSans-Oblique-74" transform="translate(423.076172 38.810937) scale(0.7)"/>
      <use xlink:href="#DejaVuSans-Oblique-68" transform="translate(450.522461 38.810937) scale(0.7)"/>
      <use xlink:href="#DejaVuSans-20" transform="translate(497.62207 0.529687)"/>
      <use xlink:href="#DejaVuSans-61" transform="translate(529.40918 0.529687)"/>
      <use xlink:href="#DejaVuSans-6e" transform="translate(590.688477 0.529687)"/>
      <use xlink:href="#DejaVuSans-64" transform="translate(654.067383 0.529687)"/>
      <use xlink:href="#DejaVuSans-20" transform="translate(717.543945 0.529687)"/>
      <use xlink:href="#DejaVuSans-38" transform="translate(749.331055 0.529687)"/>
      <use xlink:href="#DejaVuSans-34" transform="translate(812.954102 0.529687)"/>
      <use xlink:href="#DejaVuSans-Oblique-74" transform="translate(877.53418 38.810937) scale(0.7)"/>
      <use xlink:href="#DejaVuSans-Oblique-68" transform="translate(904.980469 38.810937) scale(0.7)"/>
      <use xlink:href="#DejaVuSans-20" transform="translate(952.080078 0.529687)"/>
      <use xlink:href="#DejaVuSans-70" transform="translate(983.867188 0.529687)"/>
      <use xlink:href="#DejaVuSans-65" transform="translate(1047.34375 0.529687)"/>
      <use xlink:href="#DejaVuSans-72" transform="translate(1108.867188 0.529687)"/>
      <use xlink:href="#DejaVuSans-63" transform="translate(1149.980469 0.529687)"/>
      <use xlink:href="#DejaVuSans-65" transform="translate(1204.960938 0.529687)"/>
      <use xlink:href="#DejaVuSans-6e" transform="translate(1266.484375 0.529687)"/>
      <use xlink:href="#DejaVuSans-74" transform="translate(1329.863281 0.529687)"/>
      <use xlink:href="#DejaVuSans-69" transform="translate(1369.072266 0.529687)"/>
      <use xlink:href="#DejaVuSans-6c" transform="translate(1396.855469 0.529687)"/>
      <use xlink:href="#DejaVuSans-65" transform="translate(1424.638672 0.529687)"/>
      <use xlink:href="#DejaVuSans-73" transform="translate(1486.162109 0.529687)"/>
     </g>
    </g>
    <g id="line2d_136">
     <path d="M 249.4745 83.7692 
L 257.4745 83.7692 
L 265.4745 83.7692 
" style="fill: none; stroke: #0000ff; stroke-width: 2; stroke-linecap: square"/>
    </g>
    <g id="text_10">
     <!-- Selected GMs median -->
     <g transform="translate(271.8745 86.5692) scale(0.08 -0.08)">
      <use xlink:href="#DejaVuSans-53"/>
      <use xlink:href="#DejaVuSans-65" x="63.476562"/>
      <use xlink:href="#DejaVuSans-6c" x="125"/>
      <use xlink:href="#DejaVuSans-65" x="152.783203"/>
      <use xlink:href="#DejaVuSans-63" x="214.306641"/>
      <use xlink:href="#DejaVuSans-74" x="269.287109"/>
      <use xlink:href="#DejaVuSans-65" x="308.496094"/>
      <use xlink:href="#DejaVuSans-64" x="370.019531"/>
      <use xlink:href="#DejaVuSans-20" x="433.496094"/>
      <use xlink:href="#DejaVuSans-47" x="465.283203"/>
      <use xlink:href="#DejaVuSans-4d" x="542.773438"/>
      <use xlink:href="#DejaVuSans-73" x="629.052734"/>
      <use xlink:href="#DejaVuSans-20" x="681.152344"/>
      <use xlink:href="#DejaVuSans-6d" x="712.939453"/>
      <use xlink:href="#DejaVuSans-65" x="810.351562"/>
      <use xlink:href="#DejaVuSans-64" x="871.875"/>
      <use xlink:href="#DejaVuSans-69" x="935.351562"/>
      <use xlink:href="#DejaVuSans-61" x="963.134766"/>
      <use xlink:href="#DejaVuSans-6e" x="1024.414062"/>
     </g>
    </g>
    <g id="line2d_137">
     <path d="M 249.4745 96.79295 
L 257.4745 96.79295 
L 265.4745 96.79295 
" style="fill: none; stroke-dasharray: 7.4,3.2; stroke-dashoffset: 0; stroke: #0000ff; stroke-width: 2"/>
    </g>
    <g id="text_11">
     <!-- Selected GMs, $16^{th}$ and $84^{th}$ percentiles -->
     <g transform="translate(271.8745 99.59295) scale(0.08 -0.08)">
      <use xlink:href="#DejaVuSans-53" transform="translate(0 0.529687)"/>
      <use xlink:href="#DejaVuSans-65" transform="translate(63.476562 0.529687)"/>
      <use xlink:href="#DejaVuSans-6c" transform="translate(125 0.529687)"/>
      <use xlink:href="#DejaVuSans-65" transform="translate(152.783203 0.529687)"/>
      <use xlink:href="#DejaVuSans-63" transform="translate(214.306641 0.529687)"/>
      <use xlink:href="#DejaVuSans-74" transform="translate(269.287109 0.529687)"/>
      <use xlink:href="#DejaVuSans-65" transform="translate(308.496094 0.529687)"/>
      <use xlink:href="#DejaVuSans-64" transform="translate(370.019531 0.529687)"/>
      <use xlink:href="#DejaVuSans-20" transform="translate(433.496094 0.529687)"/>
      <use xlink:href="#DejaVuSans-47" transform="translate(465.283203 0.529687)"/>
      <use xlink:href="#DejaVuSans-4d" transform="translate(542.773438 0.529687)"/>
      <use xlink:href="#DejaVuSans-73" transform="translate(629.052734 0.529687)"/>
      <use xlink:href="#DejaVuSans-2c" transform="translate(681.152344 0.529687)"/>
      <use xlink:href="#DejaVuSans-20" transform="translate(712.939453 0.529687)"/>
      <use xlink:href="#DejaVuSans-31" transform="translate(744.726562 0.529687)"/>
      <use xlink:href="#DejaVuSans-36" transform="translate(808.349609 0.529687)"/>
      <use xlink:href="#DejaVuSans-Oblique-74" transform="translate(872.929688 38.810937) scale(0.7)"/>
      <use xlink:href="#DejaVuSans-Oblique-68" transform="translate(900.375977 38.810937) scale(0.7)"/>
      <use xlink:href="#DejaVuSans-20" transform="translate(947.475586 0.529687)"/>
      <use xlink:href="#DejaVuSans-61" transform="translate(979.262695 0.529687)"/>
      <use xlink:href="#DejaVuSans-6e" transform="translate(1040.541992 0.529687)"/>
      <use xlink:href="#DejaVuSans-64" transform="translate(1103.920898 0.529687)"/>
      <use xlink:href="#DejaVuSans-20" transform="translate(1167.397461 0.529687)"/>
      <use xlink:href="#DejaVuSans-38" transform="translate(1199.18457 0.529687)"/>
      <use xlink:href="#DejaVuSans-34" transform="translate(1262.807617 0.529687)"/>
      <use xlink:href="#DejaVuSans-Oblique-74" transform="translate(1327.387695 38.810937) scale(0.7)"/>
      <use xlink:href="#DejaVuSans-Oblique-68" transform="translate(1354.833984 38.810937) scale(0.7)"/>
      <use xlink:href="#DejaVuSans-20" transform="translate(1401.933594 0.529687)"/>
      <use xlink:href="#DejaVuSans-70" transform="translate(1433.720703 0.529687)"/>
      <use xlink:href="#DejaVuSans-65" transform="translate(1497.197266 0.529687)"/>
      <use xlink:href="#DejaVuSans-72" transform="translate(1558.720703 0.529687)"/>
      <use xlink:href="#DejaVuSans-63" transform="translate(1599.833984 0.529687)"/>
      <use xlink:href="#DejaVuSans-65" transform="translate(1654.814453 0.529687)"/>
      <use xlink:href="#DejaVuSans-6e" transform="translate(1716.337891 0.529687)"/>
      <use xlink:href="#DejaVuSans-74" transform="translate(1779.716797 0.529687)"/>
      <use xlink:href="#DejaVuSans-69" transform="translate(1818.925781 0.529687)"/>
      <use xlink:href="#DejaVuSans-6c" transform="translate(1846.708984 0.529687)"/>
      <use xlink:href="#DejaVuSans-65" transform="translate(1874.492188 0.529687)"/>
      <use xlink:href="#DejaVuSans-73" transform="translate(1936.015625 0.529687)"/>
     </g>
    </g>
   </g>
  </g>
 </g>
 <defs>
  <clipPath id="p2c6bfc0955">
   <rect x="44.7425" y="7.2" width="197.532" height="130.8384"/>
  </clipPath>
 </defs>
</svg>
