<?xml version="1.0" encoding="utf-8" standalone="no"?>
<!DOCTYPE svg PUBLIC "-//W3C//DTD SVG 1.1//EN"
  "http://www.w3.org/Graphics/SVG/1.1/DTD/svg11.dtd">
<svg xmlns:xlink="http://www.w3.org/1999/xlink" width="436.6745pt" height="171.7234pt" viewBox="0 0 436.6745 171.7234" xmlns="http://www.w3.org/2000/svg" version="1.1">
 <metadata>
  <rdf:RDF xmlns:dc="http://purl.org/dc/elements/1.1/" xmlns:cc="http://creativecommons.org/ns#" xmlns:rdf="http://www.w3.org/1999/02/22-rdf-syntax-ns#">
   <cc:Work>
    <dc:type rdf:resource="http://purl.org/dc/dcmitype/StillImage"/>
    <dc:date>2024-11-13T10:28:32.119981</dc:date>
    <dc:format>image/svg+xml</dc:format>
    <dc:creator>
     <cc:Agent>
      <dc:title>Matplotlib v3.8.2, https://matplotlib.org/</dc:title>
     </cc:Agent>
    </dc:creator>
   </cc:Work>
  </rdf:RDF>
 </metadata>
 <defs>
  <style type="text/css">*{stroke-linejoin: round; stroke-linecap: butt}</style>
 </defs>
 <g id="figure_1">
  <g id="patch_1">
   <path d="M 0 171.7234 
L 436.6745 171.7234 
L 436.6745 0 
L 0 0 
z
" style="fill: #ffffff"/>
  </g>
  <g id="axes_1">
   <g id="patch_2">
    <path d="M 40.0225 138.0384 
L 237.5545 138.0384 
L 237.5545 7.2 
L 40.0225 7.2 
z
" style="fill: #ffffff"/>
   </g>
   <g id="matplotlib.axis_1">
    <g id="xtick_1">
     <g id="line2d_1">
      <path d="M 49.001227 138.0384 
L 49.001227 7.2 
" clip-path="url(#p79164966a4)" style="fill: none; stroke: #d9d9d9; stroke-width: 0.8; stroke-linecap: square"/>
     </g>
     <g id="line2d_2">
      <defs>
       <path id="m85da7c10a5" d="M 0 0 
L 0 3.5 
" style="stroke: #000000; stroke-width: 0.8"/>
      </defs>
      <g>
       <use xlink:href="#m85da7c10a5" x="49.001227" y="138.0384" style="stroke: #000000; stroke-width: 0.8"/>
      </g>
     </g>
     <g id="text_1">
      <!-- $\mathdefault{10^{-1}}$ -->
      <g transform="translate(39.601227 151.11715) scale(0.08 -0.08)">
       <defs>
        <path id="DejaVuSans-31" d="M 794 531 
L 1825 531 
L 1825 4091 
L 703 3866 
L 703 4441 
L 1819 4666 
L 2450 4666 
L 2450 531 
L 3481 531 
L 3481 0 
L 794 0 
L 794 531 
z
" transform="scale(0.015625)"/>
        <path id="DejaVuSans-30" d="M 2034 4250 
Q 1547 4250 1301 3770 
Q 1056 3291 1056 2328 
Q 1056 1369 1301 889 
Q 1547 409 2034 409 
Q 2525 409 2770 889 
Q 3016 1369 3016 2328 
Q 3016 3291 2770 3770 
Q 2525 4250 2034 4250 
z
M 2034 4750 
Q 2819 4750 3233 4129 
Q 3647 3509 3647 2328 
Q 3647 1150 3233 529 
Q 2819 -91 2034 -91 
Q 1250 -91 836 529 
Q 422 1150 422 2328 
Q 422 3509 836 4129 
Q 1250 4750 2034 4750 
z
" transform="scale(0.015625)"/>
        <path id="DejaVuSans-2212" d="M 678 2272 
L 4684 2272 
L 4684 1741 
L 678 1741 
L 678 2272 
z
" transform="scale(0.015625)"/>
       </defs>
       <use xlink:href="#DejaVuSans-31" transform="translate(0 0.684375)"/>
       <use xlink:href="#DejaVuSans-30" transform="translate(63.623047 0.684375)"/>
       <use xlink:href="#DejaVuSans-2212" transform="translate(128.203125 38.965625) scale(0.7)"/>
       <use xlink:href="#DejaVuSans-31" transform="translate(186.855469 38.965625) scale(0.7)"/>
      </g>
     </g>
    </g>
    <g id="xtick_2">
     <g id="line2d_3">
      <path d="M 161.091003 138.0384 
L 161.091003 7.2 
" clip-path="url(#p79164966a4)" style="fill: none; stroke: #d9d9d9; stroke-width: 0.8; stroke-linecap: square"/>
     </g>
     <g id="line2d_4">
      <g>
       <use xlink:href="#m85da7c10a5" x="161.091003" y="138.0384" style="stroke: #000000; stroke-width: 0.8"/>
      </g>
     </g>
     <g id="text_2">
      <!-- $\mathdefault{10^{0}}$ -->
      <g transform="translate(154.051003 151.11715) scale(0.08 -0.08)">
       <use xlink:href="#DejaVuSans-31" transform="translate(0 0.765625)"/>
       <use xlink:href="#DejaVuSans-30" transform="translate(63.623047 0.765625)"/>
       <use xlink:href="#DejaVuSans-30" transform="translate(128.203125 39.046875) scale(0.7)"/>
      </g>
     </g>
    </g>
    <g id="xtick_3">
     <g id="line2d_5">
      <path d="M 43.87228 138.0384 
L 43.87228 7.2 
" clip-path="url(#p79164966a4)" style="fill: none; stroke-dasharray: 2.96,1.28; stroke-dashoffset: 0; stroke: #f2f2f2; stroke-width: 0.8"/>
     </g>
     <g id="line2d_6">
      <defs>
       <path id="m4372cc4dbe" d="M 0 0 
L 0 2 
" style="stroke: #000000; stroke-width: 0.6"/>
      </defs>
      <g>
       <use xlink:href="#m4372cc4dbe" x="43.87228" y="138.0384" style="stroke: #000000; stroke-width: 0.6"/>
      </g>
     </g>
    </g>
    <g id="xtick_4">
     <g id="line2d_7">
      <path d="M 82.743612 138.0384 
L 82.743612 7.2 
" clip-path="url(#p79164966a4)" style="fill: none; stroke-dasharray: 2.96,1.28; stroke-dashoffset: 0; stroke: #f2f2f2; stroke-width: 0.8"/>
     </g>
     <g id="line2d_8">
      <g>
       <use xlink:href="#m4372cc4dbe" x="82.743612" y="138.0384" style="stroke: #000000; stroke-width: 0.6"/>
      </g>
     </g>
    </g>
    <g id="xtick_5">
     <g id="line2d_9">
      <path d="M 102.481642 138.0384 
L 102.481642 7.2 
" clip-path="url(#p79164966a4)" style="fill: none; stroke-dasharray: 2.96,1.28; stroke-dashoffset: 0; stroke: #f2f2f2; stroke-width: 0.8"/>
     </g>
     <g id="line2d_10">
      <g>
       <use xlink:href="#m4372cc4dbe" x="102.481642" y="138.0384" style="stroke: #000000; stroke-width: 0.6"/>
      </g>
     </g>
    </g>
    <g id="xtick_6">
     <g id="line2d_11">
      <path d="M 116.485997 138.0384 
L 116.485997 7.2 
" clip-path="url(#p79164966a4)" style="fill: none; stroke-dasharray: 2.96,1.28; stroke-dashoffset: 0; stroke: #f2f2f2; stroke-width: 0.8"/>
     </g>
     <g id="line2d_12">
      <g>
       <use xlink:href="#m4372cc4dbe" x="116.485997" y="138.0384" style="stroke: #000000; stroke-width: 0.6"/>
      </g>
     </g>
    </g>
    <g id="xtick_7">
     <g id="line2d_13">
      <path d="M 127.348618 138.0384 
L 127.348618 7.2 
" clip-path="url(#p79164966a4)" style="fill: none; stroke-dasharray: 2.96,1.28; stroke-dashoffset: 0; stroke: #f2f2f2; stroke-width: 0.8"/>
     </g>
     <g id="line2d_14">
      <g>
       <use xlink:href="#m4372cc4dbe" x="127.348618" y="138.0384" style="stroke: #000000; stroke-width: 0.6"/>
      </g>
     </g>
    </g>
    <g id="xtick_8">
     <g id="line2d_15">
      <path d="M 136.224027 138.0384 
L 136.224027 7.2 
" clip-path="url(#p79164966a4)" style="fill: none; stroke-dasharray: 2.96,1.28; stroke-dashoffset: 0; stroke: #f2f2f2; stroke-width: 0.8"/>
     </g>
     <g id="line2d_16">
      <g>
       <use xlink:href="#m4372cc4dbe" x="136.224027" y="138.0384" style="stroke: #000000; stroke-width: 0.6"/>
      </g>
     </g>
    </g>
    <g id="xtick_9">
     <g id="line2d_17">
      <path d="M 143.728077 138.0384 
L 143.728077 7.2 
" clip-path="url(#p79164966a4)" style="fill: none; stroke-dasharray: 2.96,1.28; stroke-dashoffset: 0; stroke: #f2f2f2; stroke-width: 0.8"/>
     </g>
     <g id="line2d_18">
      <g>
       <use xlink:href="#m4372cc4dbe" x="143.728077" y="138.0384" style="stroke: #000000; stroke-width: 0.6"/>
      </g>
     </g>
    </g>
    <g id="xtick_10">
     <g id="line2d_19">
      <path d="M 150.228382 138.0384 
L 150.228382 7.2 
" clip-path="url(#p79164966a4)" style="fill: none; stroke-dasharray: 2.96,1.28; stroke-dashoffset: 0; stroke: #f2f2f2; stroke-width: 0.8"/>
     </g>
     <g id="line2d_20">
      <g>
       <use xlink:href="#m4372cc4dbe" x="150.228382" y="138.0384" style="stroke: #000000; stroke-width: 0.6"/>
      </g>
     </g>
    </g>
    <g id="xtick_11">
     <g id="line2d_21">
      <path d="M 155.962056 138.0384 
L 155.962056 7.2 
" clip-path="url(#p79164966a4)" style="fill: none; stroke-dasharray: 2.96,1.28; stroke-dashoffset: 0; stroke: #f2f2f2; stroke-width: 0.8"/>
     </g>
     <g id="line2d_22">
      <g>
       <use xlink:href="#m4372cc4dbe" x="155.962056" y="138.0384" style="stroke: #000000; stroke-width: 0.6"/>
      </g>
     </g>
    </g>
    <g id="xtick_12">
     <g id="line2d_23">
      <path d="M 194.833388 138.0384 
L 194.833388 7.2 
" clip-path="url(#p79164966a4)" style="fill: none; stroke-dasharray: 2.96,1.28; stroke-dashoffset: 0; stroke: #f2f2f2; stroke-width: 0.8"/>
     </g>
     <g id="line2d_24">
      <g>
       <use xlink:href="#m4372cc4dbe" x="194.833388" y="138.0384" style="stroke: #000000; stroke-width: 0.6"/>
      </g>
     </g>
    </g>
    <g id="xtick_13">
     <g id="line2d_25">
      <path d="M 214.571418 138.0384 
L 214.571418 7.2 
" clip-path="url(#p79164966a4)" style="fill: none; stroke-dasharray: 2.96,1.28; stroke-dashoffset: 0; stroke: #f2f2f2; stroke-width: 0.8"/>
     </g>
     <g id="line2d_26">
      <g>
       <use xlink:href="#m4372cc4dbe" x="214.571418" y="138.0384" style="stroke: #000000; stroke-width: 0.6"/>
      </g>
     </g>
    </g>
    <g id="xtick_14">
     <g id="line2d_27">
      <path d="M 228.575773 138.0384 
L 228.575773 7.2 
" clip-path="url(#p79164966a4)" style="fill: none; stroke-dasharray: 2.96,1.28; stroke-dashoffset: 0; stroke: #f2f2f2; stroke-width: 0.8"/>
     </g>
     <g id="line2d_28">
      <g>
       <use xlink:href="#m4372cc4dbe" x="228.575773" y="138.0384" style="stroke: #000000; stroke-width: 0.6"/>
      </g>
     </g>
    </g>
    <g id="text_3">
     <!-- Period, T (s) -->
     <g transform="translate(114.856 162.85965) scale(0.08 -0.08)">
      <defs>
       <path id="DejaVuSans-50" d="M 1259 4147 
L 1259 2394 
L 2053 2394 
Q 2494 2394 2734 2622 
Q 2975 2850 2975 3272 
Q 2975 3691 2734 3919 
Q 2494 4147 2053 4147 
L 1259 4147 
z
M 628 4666 
L 2053 4666 
Q 2838 4666 3239 4311 
Q 3641 3956 3641 3272 
Q 3641 2581 3239 2228 
Q 2838 1875 2053 1875 
L 1259 1875 
L 1259 0 
L 628 0 
L 628 4666 
z
" transform="scale(0.015625)"/>
       <path id="DejaVuSans-65" d="M 3597 1894 
L 3597 1613 
L 953 1613 
Q 991 1019 1311 708 
Q 1631 397 2203 397 
Q 2534 397 2845 478 
Q 3156 559 3463 722 
L 3463 178 
Q 3153 47 2828 -22 
Q 2503 -91 2169 -91 
Q 1331 -91 842 396 
Q 353 884 353 1716 
Q 353 2575 817 3079 
Q 1281 3584 2069 3584 
Q 2775 3584 3186 3129 
Q 3597 2675 3597 1894 
z
M 3022 2063 
Q 3016 2534 2758 2815 
Q 2500 3097 2075 3097 
Q 1594 3097 1305 2825 
Q 1016 2553 972 2059 
L 3022 2063 
z
" transform="scale(0.015625)"/>
       <path id="DejaVuSans-72" d="M 2631 2963 
Q 2534 3019 2420 3045 
Q 2306 3072 2169 3072 
Q 1681 3072 1420 2755 
Q 1159 2438 1159 1844 
L 1159 0 
L 581 0 
L 581 3500 
L 1159 3500 
L 1159 2956 
Q 1341 3275 1631 3429 
Q 1922 3584 2338 3584 
Q 2397 3584 2469 3576 
Q 2541 3569 2628 3553 
L 2631 2963 
z
" transform="scale(0.015625)"/>
       <path id="DejaVuSans-69" d="M 603 3500 
L 1178 3500 
L 1178 0 
L 603 0 
L 603 3500 
z
M 603 4863 
L 1178 4863 
L 1178 4134 
L 603 4134 
L 603 4863 
z
" transform="scale(0.015625)"/>
       <path id="DejaVuSans-6f" d="M 1959 3097 
Q 1497 3097 1228 2736 
Q 959 2375 959 1747 
Q 959 1119 1226 758 
Q 1494 397 1959 397 
Q 2419 397 2687 759 
Q 2956 1122 2956 1747 
Q 2956 2369 2687 2733 
Q 2419 3097 1959 3097 
z
M 1959 3584 
Q 2709 3584 3137 3096 
Q 3566 2609 3566 1747 
Q 3566 888 3137 398 
Q 2709 -91 1959 -91 
Q 1206 -91 779 398 
Q 353 888 353 1747 
Q 353 2609 779 3096 
Q 1206 3584 1959 3584 
z
" transform="scale(0.015625)"/>
       <path id="DejaVuSans-64" d="M 2906 2969 
L 2906 4863 
L 3481 4863 
L 3481 0 
L 2906 0 
L 2906 525 
Q 2725 213 2448 61 
Q 2172 -91 1784 -91 
Q 1150 -91 751 415 
Q 353 922 353 1747 
Q 353 2572 751 3078 
Q 1150 3584 1784 3584 
Q 2172 3584 2448 3432 
Q 2725 3281 2906 2969 
z
M 947 1747 
Q 947 1113 1208 752 
Q 1469 391 1925 391 
Q 2381 391 2643 752 
Q 2906 1113 2906 1747 
Q 2906 2381 2643 2742 
Q 2381 3103 1925 3103 
Q 1469 3103 1208 2742 
Q 947 2381 947 1747 
z
" transform="scale(0.015625)"/>
       <path id="DejaVuSans-2c" d="M 750 794 
L 1409 794 
L 1409 256 
L 897 -744 
L 494 -744 
L 750 256 
L 750 794 
z
" transform="scale(0.015625)"/>
       <path id="DejaVuSans-20" transform="scale(0.015625)"/>
       <path id="DejaVuSans-54" d="M -19 4666 
L 3928 4666 
L 3928 4134 
L 2272 4134 
L 2272 0 
L 1638 0 
L 1638 4134 
L -19 4134 
L -19 4666 
z
" transform="scale(0.015625)"/>
       <path id="DejaVuSans-28" d="M 1984 4856 
Q 1566 4138 1362 3434 
Q 1159 2731 1159 2009 
Q 1159 1288 1364 580 
Q 1569 -128 1984 -844 
L 1484 -844 
Q 1016 -109 783 600 
Q 550 1309 550 2009 
Q 550 2706 781 3412 
Q 1013 4119 1484 4856 
L 1984 4856 
z
" transform="scale(0.015625)"/>
       <path id="DejaVuSans-73" d="M 2834 3397 
L 2834 2853 
Q 2591 2978 2328 3040 
Q 2066 3103 1784 3103 
Q 1356 3103 1142 2972 
Q 928 2841 928 2578 
Q 928 2378 1081 2264 
Q 1234 2150 1697 2047 
L 1894 2003 
Q 2506 1872 2764 1633 
Q 3022 1394 3022 966 
Q 3022 478 2636 193 
Q 2250 -91 1575 -91 
Q 1294 -91 989 -36 
Q 684 19 347 128 
L 347 722 
Q 666 556 975 473 
Q 1284 391 1588 391 
Q 1994 391 2212 530 
Q 2431 669 2431 922 
Q 2431 1156 2273 1281 
Q 2116 1406 1581 1522 
L 1381 1569 
Q 847 1681 609 1914 
Q 372 2147 372 2553 
Q 372 3047 722 3315 
Q 1072 3584 1716 3584 
Q 2034 3584 2315 3537 
Q 2597 3491 2834 3397 
z
" transform="scale(0.015625)"/>
       <path id="DejaVuSans-29" d="M 513 4856 
L 1013 4856 
Q 1481 4119 1714 3412 
Q 1947 2706 1947 2009 
Q 1947 1309 1714 600 
Q 1481 -109 1013 -844 
L 513 -844 
Q 928 -128 1133 580 
Q 1338 1288 1338 2009 
Q 1338 2731 1133 3434 
Q 928 4138 513 4856 
z
" transform="scale(0.015625)"/>
      </defs>
      <use xlink:href="#DejaVuSans-50"/>
      <use xlink:href="#DejaVuSans-65" x="56.677734"/>
      <use xlink:href="#DejaVuSans-72" x="118.201172"/>
      <use xlink:href="#DejaVuSans-69" x="159.314453"/>
      <use xlink:href="#DejaVuSans-6f" x="187.097656"/>
      <use xlink:href="#DejaVuSans-64" x="248.279297"/>
      <use xlink:href="#DejaVuSans-2c" x="311.755859"/>
      <use xlink:href="#DejaVuSans-20" x="343.542969"/>
      <use xlink:href="#DejaVuSans-54" x="375.330078"/>
      <use xlink:href="#DejaVuSans-20" x="436.414062"/>
      <use xlink:href="#DejaVuSans-28" x="468.201172"/>
      <use xlink:href="#DejaVuSans-73" x="507.214844"/>
      <use xlink:href="#DejaVuSans-29" x="559.314453"/>
     </g>
    </g>
   </g>
   <g id="matplotlib.axis_2">
    <g id="ytick_1">
     <g id="line2d_29">
      <path d="M 40.0225 104.947548 
L 237.5545 104.947548 
" clip-path="url(#p79164966a4)" style="fill: none; stroke: #d9d9d9; stroke-width: 0.8; stroke-linecap: square"/>
     </g>
     <g id="line2d_30">
      <defs>
       <path id="m14cfb15ad4" d="M 0 0 
L -3.5 0 
" style="stroke: #000000; stroke-width: 0.8"/>
      </defs>
      <g>
       <use xlink:href="#m14cfb15ad4" x="40.0225" y="104.947548" style="stroke: #000000; stroke-width: 0.8"/>
      </g>
     </g>
     <g id="text_4">
      <!-- $\mathdefault{10^{1}}$ -->
      <g transform="translate(18.9425 107.986923) scale(0.08 -0.08)">
       <use xlink:href="#DejaVuSans-31" transform="translate(0 0.684375)"/>
       <use xlink:href="#DejaVuSans-30" transform="translate(63.623047 0.684375)"/>
       <use xlink:href="#DejaVuSans-31" transform="translate(128.203125 38.965625) scale(0.7)"/>
      </g>
     </g>
    </g>
    <g id="ytick_2">
     <g id="line2d_31">
      <path d="M 40.0225 134.452821 
L 237.5545 134.452821 
" clip-path="url(#p79164966a4)" style="fill: none; stroke-dasharray: 2.96,1.28; stroke-dashoffset: 0; stroke: #f2f2f2; stroke-width: 0.8"/>
     </g>
     <g id="line2d_32">
      <defs>
       <path id="m48ca9aff4a" d="M 0 0 
L -2 0 
" style="stroke: #000000; stroke-width: 0.6"/>
      </defs>
      <g>
       <use xlink:href="#m48ca9aff4a" x="40.0225" y="134.452821" style="stroke: #000000; stroke-width: 0.6"/>
      </g>
     </g>
    </g>
    <g id="ytick_3">
     <g id="line2d_33">
      <path d="M 40.0225 126.691919 
L 237.5545 126.691919 
" clip-path="url(#p79164966a4)" style="fill: none; stroke-dasharray: 2.96,1.28; stroke-dashoffset: 0; stroke: #f2f2f2; stroke-width: 0.8"/>
     </g>
     <g id="line2d_34">
      <g>
       <use xlink:href="#m48ca9aff4a" x="40.0225" y="126.691919" style="stroke: #000000; stroke-width: 0.6"/>
      </g>
     </g>
    </g>
    <g id="ytick_4">
     <g id="line2d_35">
      <path d="M 40.0225 120.13017 
L 237.5545 120.13017 
" clip-path="url(#p79164966a4)" style="fill: none; stroke-dasharray: 2.96,1.28; stroke-dashoffset: 0; stroke: #f2f2f2; stroke-width: 0.8"/>
     </g>
     <g id="line2d_36">
      <g>
       <use xlink:href="#m48ca9aff4a" x="40.0225" y="120.13017" style="stroke: #000000; stroke-width: 0.6"/>
      </g>
     </g>
    </g>
    <g id="ytick_5">
     <g id="line2d_37">
      <path d="M 40.0225 114.446124 
L 237.5545 114.446124 
" clip-path="url(#p79164966a4)" style="fill: none; stroke-dasharray: 2.96,1.28; stroke-dashoffset: 0; stroke: #f2f2f2; stroke-width: 0.8"/>
     </g>
     <g id="line2d_38">
      <g>
       <use xlink:href="#m48ca9aff4a" x="40.0225" y="114.446124" style="stroke: #000000; stroke-width: 0.6"/>
      </g>
     </g>
    </g>
    <g id="ytick_6">
     <g id="line2d_39">
      <path d="M 40.0225 109.432441 
L 237.5545 109.432441 
" clip-path="url(#p79164966a4)" style="fill: none; stroke-dasharray: 2.96,1.28; stroke-dashoffset: 0; stroke: #f2f2f2; stroke-width: 0.8"/>
     </g>
     <g id="line2d_40">
      <g>
       <use xlink:href="#m48ca9aff4a" x="40.0225" y="109.432441" style="stroke: #000000; stroke-width: 0.6"/>
      </g>
     </g>
    </g>
    <g id="ytick_7">
     <g id="line2d_41">
      <path d="M 40.0225 75.442274 
L 237.5545 75.442274 
" clip-path="url(#p79164966a4)" style="fill: none; stroke-dasharray: 2.96,1.28; stroke-dashoffset: 0; stroke: #f2f2f2; stroke-width: 0.8"/>
     </g>
     <g id="line2d_42">
      <g>
       <use xlink:href="#m48ca9aff4a" x="40.0225" y="75.442274" style="stroke: #000000; stroke-width: 0.6"/>
      </g>
     </g>
    </g>
    <g id="ytick_8">
     <g id="line2d_43">
      <path d="M 40.0225 58.182795 
L 237.5545 58.182795 
" clip-path="url(#p79164966a4)" style="fill: none; stroke-dasharray: 2.96,1.28; stroke-dashoffset: 0; stroke: #f2f2f2; stroke-width: 0.8"/>
     </g>
     <g id="line2d_44">
      <g>
       <use xlink:href="#m48ca9aff4a" x="40.0225" y="58.182795" style="stroke: #000000; stroke-width: 0.6"/>
      </g>
     </g>
    </g>
    <g id="ytick_9">
     <g id="line2d_45">
      <path d="M 40.0225 45.937 
L 237.5545 45.937 
" clip-path="url(#p79164966a4)" style="fill: none; stroke-dasharray: 2.96,1.28; stroke-dashoffset: 0; stroke: #f2f2f2; stroke-width: 0.8"/>
     </g>
     <g id="line2d_46">
      <g>
       <use xlink:href="#m48ca9aff4a" x="40.0225" y="45.937" style="stroke: #000000; stroke-width: 0.6"/>
      </g>
     </g>
    </g>
    <g id="ytick_10">
     <g id="line2d_47">
      <path d="M 40.0225 36.438424 
L 237.5545 36.438424 
" clip-path="url(#p79164966a4)" style="fill: none; stroke-dasharray: 2.96,1.28; stroke-dashoffset: 0; stroke: #f2f2f2; stroke-width: 0.8"/>
     </g>
     <g id="line2d_48">
      <g>
       <use xlink:href="#m48ca9aff4a" x="40.0225" y="36.438424" style="stroke: #000000; stroke-width: 0.6"/>
      </g>
     </g>
    </g>
    <g id="ytick_11">
     <g id="line2d_49">
      <path d="M 40.0225 28.677521 
L 237.5545 28.677521 
" clip-path="url(#p79164966a4)" style="fill: none; stroke-dasharray: 2.96,1.28; stroke-dashoffset: 0; stroke: #f2f2f2; stroke-width: 0.8"/>
     </g>
     <g id="line2d_50">
      <g>
       <use xlink:href="#m48ca9aff4a" x="40.0225" y="28.677521" style="stroke: #000000; stroke-width: 0.6"/>
      </g>
     </g>
    </g>
    <g id="ytick_12">
     <g id="line2d_51">
      <path d="M 40.0225 22.115772 
L 237.5545 22.115772 
" clip-path="url(#p79164966a4)" style="fill: none; stroke-dasharray: 2.96,1.28; stroke-dashoffset: 0; stroke: #f2f2f2; stroke-width: 0.8"/>
     </g>
     <g id="line2d_52">
      <g>
       <use xlink:href="#m48ca9aff4a" x="40.0225" y="22.115772" style="stroke: #000000; stroke-width: 0.6"/>
      </g>
     </g>
    </g>
    <g id="ytick_13">
     <g id="line2d_53">
      <path d="M 40.0225 16.431726 
L 237.5545 16.431726 
" clip-path="url(#p79164966a4)" style="fill: none; stroke-dasharray: 2.96,1.28; stroke-dashoffset: 0; stroke: #f2f2f2; stroke-width: 0.8"/>
     </g>
     <g id="line2d_54">
      <g>
       <use xlink:href="#m48ca9aff4a" x="40.0225" y="16.431726" style="stroke: #000000; stroke-width: 0.6"/>
      </g>
     </g>
    </g>
    <g id="ytick_14">
     <g id="line2d_55">
      <path d="M 40.0225 11.418043 
L 237.5545 11.418043 
" clip-path="url(#p79164966a4)" style="fill: none; stroke-dasharray: 2.96,1.28; stroke-dashoffset: 0; stroke: #f2f2f2; stroke-width: 0.8"/>
     </g>
     <g id="line2d_56">
      <g>
       <use xlink:href="#m48ca9aff4a" x="40.0225" y="11.418043" style="stroke: #000000; stroke-width: 0.6"/>
      </g>
     </g>
    </g>
    <g id="text_5">
     <!-- Spectral acceleration, SA (g) -->
     <g transform="translate(13.27875 129.871075) rotate(-90) scale(0.08 -0.08)">
      <defs>
       <path id="DejaVuSans-53" d="M 3425 4513 
L 3425 3897 
Q 3066 4069 2747 4153 
Q 2428 4238 2131 4238 
Q 1616 4238 1336 4038 
Q 1056 3838 1056 3469 
Q 1056 3159 1242 3001 
Q 1428 2844 1947 2747 
L 2328 2669 
Q 3034 2534 3370 2195 
Q 3706 1856 3706 1288 
Q 3706 609 3251 259 
Q 2797 -91 1919 -91 
Q 1588 -91 1214 -16 
Q 841 59 441 206 
L 441 856 
Q 825 641 1194 531 
Q 1563 422 1919 422 
Q 2459 422 2753 634 
Q 3047 847 3047 1241 
Q 3047 1584 2836 1778 
Q 2625 1972 2144 2069 
L 1759 2144 
Q 1053 2284 737 2584 
Q 422 2884 422 3419 
Q 422 4038 858 4394 
Q 1294 4750 2059 4750 
Q 2388 4750 2728 4690 
Q 3069 4631 3425 4513 
z
" transform="scale(0.015625)"/>
       <path id="DejaVuSans-70" d="M 1159 525 
L 1159 -1331 
L 581 -1331 
L 581 3500 
L 1159 3500 
L 1159 2969 
Q 1341 3281 1617 3432 
Q 1894 3584 2278 3584 
Q 2916 3584 3314 3078 
Q 3713 2572 3713 1747 
Q 3713 922 3314 415 
Q 2916 -91 2278 -91 
Q 1894 -91 1617 61 
Q 1341 213 1159 525 
z
M 3116 1747 
Q 3116 2381 2855 2742 
Q 2594 3103 2138 3103 
Q 1681 3103 1420 2742 
Q 1159 2381 1159 1747 
Q 1159 1113 1420 752 
Q 1681 391 2138 391 
Q 2594 391 2855 752 
Q 3116 1113 3116 1747 
z
" transform="scale(0.015625)"/>
       <path id="DejaVuSans-63" d="M 3122 3366 
L 3122 2828 
Q 2878 2963 2633 3030 
Q 2388 3097 2138 3097 
Q 1578 3097 1268 2742 
Q 959 2388 959 1747 
Q 959 1106 1268 751 
Q 1578 397 2138 397 
Q 2388 397 2633 464 
Q 2878 531 3122 666 
L 3122 134 
Q 2881 22 2623 -34 
Q 2366 -91 2075 -91 
Q 1284 -91 818 406 
Q 353 903 353 1747 
Q 353 2603 823 3093 
Q 1294 3584 2113 3584 
Q 2378 3584 2631 3529 
Q 2884 3475 3122 3366 
z
" transform="scale(0.015625)"/>
       <path id="DejaVuSans-74" d="M 1172 4494 
L 1172 3500 
L 2356 3500 
L 2356 3053 
L 1172 3053 
L 1172 1153 
Q 1172 725 1289 603 
Q 1406 481 1766 481 
L 2356 481 
L 2356 0 
L 1766 0 
Q 1100 0 847 248 
Q 594 497 594 1153 
L 594 3053 
L 172 3053 
L 172 3500 
L 594 3500 
L 594 4494 
L 1172 4494 
z
" transform="scale(0.015625)"/>
       <path id="DejaVuSans-61" d="M 2194 1759 
Q 1497 1759 1228 1600 
Q 959 1441 959 1056 
Q 959 750 1161 570 
Q 1363 391 1709 391 
Q 2188 391 2477 730 
Q 2766 1069 2766 1631 
L 2766 1759 
L 2194 1759 
z
M 3341 1997 
L 3341 0 
L 2766 0 
L 2766 531 
Q 2569 213 2275 61 
Q 1981 -91 1556 -91 
Q 1019 -91 701 211 
Q 384 513 384 1019 
Q 384 1609 779 1909 
Q 1175 2209 1959 2209 
L 2766 2209 
L 2766 2266 
Q 2766 2663 2505 2880 
Q 2244 3097 1772 3097 
Q 1472 3097 1187 3025 
Q 903 2953 641 2809 
L 641 3341 
Q 956 3463 1253 3523 
Q 1550 3584 1831 3584 
Q 2591 3584 2966 3190 
Q 3341 2797 3341 1997 
z
" transform="scale(0.015625)"/>
       <path id="DejaVuSans-6c" d="M 603 4863 
L 1178 4863 
L 1178 0 
L 603 0 
L 603 4863 
z
" transform="scale(0.015625)"/>
       <path id="DejaVuSans-6e" d="M 3513 2113 
L 3513 0 
L 2938 0 
L 2938 2094 
Q 2938 2591 2744 2837 
Q 2550 3084 2163 3084 
Q 1697 3084 1428 2787 
Q 1159 2491 1159 1978 
L 1159 0 
L 581 0 
L 581 3500 
L 1159 3500 
L 1159 2956 
Q 1366 3272 1645 3428 
Q 1925 3584 2291 3584 
Q 2894 3584 3203 3211 
Q 3513 2838 3513 2113 
z
" transform="scale(0.015625)"/>
       <path id="DejaVuSans-41" d="M 2188 4044 
L 1331 1722 
L 3047 1722 
L 2188 4044 
z
M 1831 4666 
L 2547 4666 
L 4325 0 
L 3669 0 
L 3244 1197 
L 1141 1197 
L 716 0 
L 50 0 
L 1831 4666 
z
" transform="scale(0.015625)"/>
       <path id="DejaVuSans-67" d="M 2906 1791 
Q 2906 2416 2648 2759 
Q 2391 3103 1925 3103 
Q 1463 3103 1205 2759 
Q 947 2416 947 1791 
Q 947 1169 1205 825 
Q 1463 481 1925 481 
Q 2391 481 2648 825 
Q 2906 1169 2906 1791 
z
M 3481 434 
Q 3481 -459 3084 -895 
Q 2688 -1331 1869 -1331 
Q 1566 -1331 1297 -1286 
Q 1028 -1241 775 -1147 
L 775 -588 
Q 1028 -725 1275 -790 
Q 1522 -856 1778 -856 
Q 2344 -856 2625 -561 
Q 2906 -266 2906 331 
L 2906 616 
Q 2728 306 2450 153 
Q 2172 0 1784 0 
Q 1141 0 747 490 
Q 353 981 353 1791 
Q 353 2603 747 3093 
Q 1141 3584 1784 3584 
Q 2172 3584 2450 3431 
Q 2728 3278 2906 2969 
L 2906 3500 
L 3481 3500 
L 3481 434 
z
" transform="scale(0.015625)"/>
      </defs>
      <use xlink:href="#DejaVuSans-53"/>
      <use xlink:href="#DejaVuSans-70" x="63.476562"/>
      <use xlink:href="#DejaVuSans-65" x="126.953125"/>
      <use xlink:href="#DejaVuSans-63" x="188.476562"/>
      <use xlink:href="#DejaVuSans-74" x="243.457031"/>
      <use xlink:href="#DejaVuSans-72" x="282.666016"/>
      <use xlink:href="#DejaVuSans-61" x="323.779297"/>
      <use xlink:href="#DejaVuSans-6c" x="385.058594"/>
      <use xlink:href="#DejaVuSans-20" x="412.841797"/>
      <use xlink:href="#DejaVuSans-61" x="444.628906"/>
      <use xlink:href="#DejaVuSans-63" x="505.908203"/>
      <use xlink:href="#DejaVuSans-63" x="560.888672"/>
      <use xlink:href="#DejaVuSans-65" x="615.869141"/>
      <use xlink:href="#DejaVuSans-6c" x="677.392578"/>
      <use xlink:href="#DejaVuSans-65" x="705.175781"/>
      <use xlink:href="#DejaVuSans-72" x="766.699219"/>
      <use xlink:href="#DejaVuSans-61" x="807.8125"/>
      <use xlink:href="#DejaVuSans-74" x="869.091797"/>
      <use xlink:href="#DejaVuSans-69" x="908.300781"/>
      <use xlink:href="#DejaVuSans-6f" x="936.083984"/>
      <use xlink:href="#DejaVuSans-6e" x="997.265625"/>
      <use xlink:href="#DejaVuSans-2c" x="1060.644531"/>
      <use xlink:href="#DejaVuSans-20" x="1092.431641"/>
      <use xlink:href="#DejaVuSans-53" x="1124.21875"/>
      <use xlink:href="#DejaVuSans-41" x="1189.570312"/>
      <use xlink:href="#DejaVuSans-20" x="1257.978516"/>
      <use xlink:href="#DejaVuSans-28" x="1289.765625"/>
      <use xlink:href="#DejaVuSans-67" x="1328.779297"/>
      <use xlink:href="#DejaVuSans-29" x="1392.255859"/>
     </g>
    </g>
   </g>
   <g id="line2d_57">
    <path d="M 49.001227 121.280751 
L 68.739257 101.531091 
L 82.743612 91.530171 
L 93.606234 81.682362 
L 102.481642 75.209937 
L 116.485997 66.689896 
L 125.664708 61.532083 
L 127.348618 60.756987 
L 147.086648 58.248011 
L 161.091003 63.800361 
L 173.862888 72.913957 
L 180.829033 73.603848 
L 194.833388 71.540082 
L 214.571418 70.923381 
L 228.575773 80.345043 
" clip-path="url(#p79164966a4)" style="fill: none; stroke: #b2b2b2; stroke-width: 0.8; stroke-linecap: square"/>
   </g>
   <g id="line2d_58">
    <path d="M 49.001227 124.052059 
L 68.739257 106.410448 
L 82.743612 95.534716 
L 93.606234 86.300516 
L 102.481642 79.11493 
L 116.485997 68.709582 
L 125.664708 61.532083 
L 127.348618 60.000771 
L 147.086648 44.607257 
L 161.091003 34.478451 
L 173.862888 26.468995 
L 180.829033 22.988021 
L 194.833388 19.135064 
L 214.571418 13.981783 
L 228.575773 13.1472 
" clip-path="url(#p79164966a4)" style="fill: none; stroke: #b2b2b2; stroke-width: 0.8; stroke-linecap: square"/>
   </g>
   <g id="line2d_59">
    <path d="M 49.001227 124.133297 
L 68.739257 103.580611 
L 82.743612 96.510983 
L 93.606234 85.455936 
L 102.481642 77.060405 
L 116.485997 67.228745 
L 125.664708 61.532083 
L 127.348618 59.470505 
L 147.086648 41.786236 
L 161.091003 31.838312 
L 173.862888 37.44978 
L 180.829033 35.534517 
L 194.833388 27.838529 
L 214.571418 19.39856 
L 228.575773 18.916172 
" clip-path="url(#p79164966a4)" style="fill: none; stroke: #b2b2b2; stroke-width: 0.8; stroke-linecap: square"/>
   </g>
   <g id="line2d_60">
    <path d="M 49.001227 120.826486 
L 68.739257 100.754824 
L 82.743612 90.381373 
L 93.606234 87.461623 
L 102.481642 80.160118 
L 116.485997 69.474018 
L 125.664708 61.532083 
L 127.348618 60.116141 
L 147.086648 45.400542 
L 161.091003 40.76009 
L 173.862888 34.045889 
L 180.829033 31.823167 
L 194.833388 30.947611 
L 214.571418 31.440402 
L 228.575773 32.776525 
" clip-path="url(#p79164966a4)" style="fill: none; stroke: #b2b2b2; stroke-width: 0.8; stroke-linecap: square"/>
   </g>
   <g id="line2d_61">
    <path d="M 49.001227 122.920129 
L 68.739257 105.190311 
L 82.743612 94.157997 
L 93.606234 86.510552 
L 102.481642 79.213611 
L 116.485997 68.44156 
L 125.664708 61.532083 
L 127.348618 60.134955 
L 147.086648 46.068972 
L 161.091003 38.094582 
L 173.862888 33.24006 
L 180.829033 32.51524 
L 194.833388 34.177449 
L 214.571418 27.337326 
L 228.575773 29.166129 
" clip-path="url(#p79164966a4)" style="fill: none; stroke: #b2b2b2; stroke-width: 0.8; stroke-linecap: square"/>
   </g>
   <g id="line2d_62">
    <path d="M 49.001227 124.358817 
L 68.739257 102.922964 
L 82.743612 95.419945 
L 93.606234 86.405788 
L 102.481642 78.235996 
L 116.485997 69.475671 
L 125.664708 61.532083 
L 127.348618 59.659369 
L 147.086648 46.475219 
L 161.091003 40.956866 
L 173.862888 36.132291 
L 180.829033 34.5763 
L 194.833388 34.180731 
L 214.571418 50.412312 
L 228.575773 38.346502 
" clip-path="url(#p79164966a4)" style="fill: none; stroke: #b2b2b2; stroke-width: 0.8; stroke-linecap: square"/>
   </g>
   <g id="line2d_63">
    <path d="M 49.001227 116.250174 
L 68.739257 96.944556 
L 82.743612 92.686627 
L 93.606234 83.801576 
L 102.481642 77.79922 
L 116.485997 63.017405 
L 125.664708 61.532083 
L 127.348618 60.23512 
L 147.086648 48.593272 
L 161.091003 42.488644 
L 173.862888 37.646509 
L 180.829033 35.987893 
L 194.833388 34.587984 
L 214.571418 32.129105 
L 228.575773 29.056054 
" clip-path="url(#p79164966a4)" style="fill: none; stroke: #b2b2b2; stroke-width: 0.8; stroke-linecap: square"/>
   </g>
   <g id="line2d_64">
    <path d="M 49.001227 121.472715 
L 68.739257 101.723758 
L 82.743612 91.559627 
L 93.606234 85.491227 
L 102.481642 78.65215 
L 116.485997 68.695453 
L 125.664708 61.532083 
L 127.348618 60.322254 
L 147.086648 47.890419 
L 161.091003 41.518057 
L 173.862888 38.977646 
L 180.829033 37.884236 
L 194.833388 34.90048 
L 214.571418 37.693029 
L 228.575773 38.69984 
" clip-path="url(#p79164966a4)" style="fill: none; stroke: #b2b2b2; stroke-width: 0.8; stroke-linecap: square"/>
   </g>
   <g id="line2d_65">
    <path d="M 49.001227 123.627906 
L 68.739257 102.961329 
L 82.743612 92.844848 
L 93.606234 84.823626 
L 102.481642 77.139299 
L 116.485997 68.163104 
L 125.664708 61.532083 
L 127.348618 60.149718 
L 147.086648 53.275607 
L 161.091003 47.411363 
L 173.862888 43.01405 
L 180.829033 41.162203 
L 194.833388 38.447656 
L 214.571418 37.077242 
L 228.575773 36.29987 
" clip-path="url(#p79164966a4)" style="fill: none; stroke: #b2b2b2; stroke-width: 0.8; stroke-linecap: square"/>
   </g>
   <g id="line2d_66">
    <path d="M 49.001227 119.862924 
L 68.739257 100.650381 
L 82.743612 91.231853 
L 93.606234 81.554598 
L 102.481642 75.14105 
L 116.485997 66.715116 
L 125.664708 61.532083 
L 127.348618 60.720485 
L 147.086648 52.567705 
L 161.091003 47.389226 
L 173.862888 42.585696 
L 180.829033 42.520806 
L 194.833388 49.046716 
L 214.571418 44.48265 
L 228.575773 43.190472 
" clip-path="url(#p79164966a4)" style="fill: none; stroke: #b2b2b2; stroke-width: 0.8; stroke-linecap: square"/>
   </g>
   <g id="line2d_67">
    <path d="M 49.001227 117.275334 
L 68.739257 102.991315 
L 82.743612 92.760422 
L 93.606234 84.164627 
L 102.481642 77.315181 
L 116.485997 67.822973 
L 125.664708 61.532083 
L 127.348618 60.318536 
L 147.086648 50.090383 
L 161.091003 44.073078 
L 173.862888 40.85989 
L 180.829033 40.944666 
L 194.833388 41.281975 
L 214.571418 43.465533 
L 228.575773 39.469953 
" clip-path="url(#p79164966a4)" style="fill: none; stroke: #b2b2b2; stroke-width: 0.8; stroke-linecap: square"/>
   </g>
   <g id="line2d_68">
    <path d="M 49.001227 117.522862 
L 68.739257 100.305069 
L 82.743612 91.558614 
L 93.606234 83.924894 
L 102.481642 76.287257 
L 116.485997 68.161983 
L 125.664708 61.532083 
L 127.348618 60.082673 
L 147.086648 51.00245 
L 161.091003 50.654278 
L 173.862888 48.854157 
L 180.829033 43.306644 
L 194.833388 39.903869 
L 214.571418 34.419601 
L 228.575773 32.080927 
" clip-path="url(#p79164966a4)" style="fill: none; stroke: #b2b2b2; stroke-width: 0.8; stroke-linecap: square"/>
   </g>
   <g id="line2d_69">
    <path d="M 49.001227 122.571626 
L 68.739257 103.107255 
L 82.743612 93.744986 
L 93.606234 84.663399 
L 102.481642 74.214783 
L 116.485997 69.434516 
L 125.664708 61.532083 
L 127.348618 59.85275 
L 147.086648 52.203914 
L 161.091003 41.382375 
L 173.862888 38.626218 
L 180.829033 38.299217 
L 194.833388 33.539903 
L 214.571418 33.556103 
L 228.575773 35.123832 
" clip-path="url(#p79164966a4)" style="fill: none; stroke: #b2b2b2; stroke-width: 0.8; stroke-linecap: square"/>
   </g>
   <g id="line2d_70">
    <path d="M 49.001227 112.213418 
L 68.739257 94.889026 
L 82.743612 87.18988 
L 93.606234 80.427936 
L 102.481642 73.869271 
L 116.485997 67.061223 
L 125.664708 61.532083 
L 127.348618 60.460705 
L 147.086648 50.23089 
L 161.091003 46.580075 
L 173.862888 38.591887 
L 180.829033 40.820487 
L 194.833388 38.398064 
L 214.571418 38.453574 
L 228.575773 24.896261 
" clip-path="url(#p79164966a4)" style="fill: none; stroke: #b2b2b2; stroke-width: 0.8; stroke-linecap: square"/>
   </g>
   <g id="line2d_71">
    <path d="M 49.001227 119.041243 
L 68.739257 101.796042 
L 82.743612 93.458387 
L 93.606234 84.621563 
L 102.481642 77.739444 
L 116.485997 68.011394 
L 125.664708 61.532083 
L 127.348618 60.193377 
L 147.086648 51.620903 
L 161.091003 46.173707 
L 173.862888 44.059873 
L 180.829033 43.021358 
L 194.833388 36.151107 
L 214.571418 27.200694 
L 228.575773 32.90087 
" clip-path="url(#p79164966a4)" style="fill: none; stroke: #b2b2b2; stroke-width: 0.8; stroke-linecap: square"/>
   </g>
   <g id="line2d_72">
    <path d="M 49.001227 118.397029 
L 68.739257 102.429877 
L 82.743612 95.022129 
L 93.606234 87.187759 
L 102.481642 77.146702 
L 116.485997 67.400914 
L 125.664708 61.532083 
L 127.348618 59.977654 
L 147.086648 48.06901 
L 161.091003 39.91554 
L 173.862888 36.80393 
L 180.829033 33.036674 
L 194.833388 30.803485 
L 214.571418 33.797811 
L 228.575773 32.703855 
" clip-path="url(#p79164966a4)" style="fill: none; stroke: #b2b2b2; stroke-width: 0.8; stroke-linecap: square"/>
   </g>
   <g id="line2d_73">
    <path d="M 49.001227 120.500847 
L 68.739257 101.770672 
L 82.743612 93.554676 
L 93.606234 84.714776 
L 102.481642 76.638328 
L 116.485997 66.1235 
L 125.664708 61.532083 
L 127.348618 59.612137 
L 147.086648 52.764747 
L 161.091003 41.549074 
L 173.862888 35.274158 
L 180.829033 32.28851 
L 194.833388 26.156583 
L 214.571418 22.636998 
L 228.575773 26.748457 
" clip-path="url(#p79164966a4)" style="fill: none; stroke: #b2b2b2; stroke-width: 0.8; stroke-linecap: square"/>
   </g>
   <g id="line2d_74">
    <path d="M 49.001227 121.596872 
L 68.739257 102.404655 
L 82.743612 92.896618 
L 93.606234 83.353442 
L 102.481642 76.760174 
L 116.485997 67.520536 
L 125.664708 61.532083 
L 127.348618 60.591891 
L 147.086648 55.07165 
L 161.091003 52.167438 
L 173.862888 44.553844 
L 180.829033 42.000207 
L 194.833388 45.429921 
L 214.571418 44.900005 
L 228.575773 51.939473 
" clip-path="url(#p79164966a4)" style="fill: none; stroke: #b2b2b2; stroke-width: 0.8; stroke-linecap: square"/>
   </g>
   <g id="line2d_75">
    <path d="M 49.001227 125.410091 
L 68.739257 104.867916 
L 82.743612 94.836724 
L 93.606234 84.845672 
L 102.481642 76.927157 
L 116.485997 68.115337 
L 125.664708 61.532083 
L 127.348618 60.015416 
L 147.086648 45.034996 
L 161.091003 35.388314 
L 173.862888 38.337307 
L 180.829033 34.474571 
L 194.833388 28.486137 
L 214.571418 32.22976 
L 228.575773 37.784712 
" clip-path="url(#p79164966a4)" style="fill: none; stroke: #b2b2b2; stroke-width: 0.8; stroke-linecap: square"/>
   </g>
   <g id="line2d_76">
    <path d="M 49.001227 116.88257 
L 68.739257 96.859641 
L 82.743612 86.513716 
L 93.606234 84.749588 
L 102.481642 78.354932 
L 116.485997 68.478682 
L 125.664708 61.532083 
L 127.348618 60.347041 
L 147.086648 50.278884 
L 161.091003 47.379645 
L 173.862888 46.115546 
L 180.829033 42.45221 
L 194.833388 41.595907 
L 214.571418 40.721712 
L 228.575773 37.928898 
" clip-path="url(#p79164966a4)" style="fill: none; stroke: #b2b2b2; stroke-width: 0.8; stroke-linecap: square"/>
   </g>
   <g id="line2d_77">
    <path d="M 49.001227 123.287875 
L 68.739257 103.336883 
L 82.743612 93.078649 
L 93.606234 82.674921 
L 102.481642 75.403137 
L 116.485997 68.686553 
L 125.664708 61.532083 
L 127.348618 63.890258 
L 147.086648 49.193944 
L 161.091003 39.813444 
L 173.862888 31.681653 
L 180.829033 27.409497 
L 194.833388 23.329113 
L 214.571418 23.517356 
L 228.575773 21.696516 
" clip-path="url(#p79164966a4)" style="fill: none; stroke: #b2b2b2; stroke-width: 0.8; stroke-linecap: square"/>
   </g>
   <g id="line2d_78">
    <path d="M 49.001227 117.601161 
L 68.739257 98.064332 
L 82.743612 88.162626 
L 93.606234 78.243651 
L 102.481642 71.457009 
L 116.485997 61.345553 
L 125.664708 61.532083 
L 127.348618 60.228418 
L 147.086648 48.377913 
L 161.091003 40.996684 
L 173.862888 37.663 
L 180.829033 37.685585 
L 194.833388 35.063565 
L 214.571418 29.182301 
L 228.575773 36.835807 
" clip-path="url(#p79164966a4)" style="fill: none; stroke: #b2b2b2; stroke-width: 0.8; stroke-linecap: square"/>
   </g>
   <g id="line2d_79">
    <path d="M 49.001227 126.683669 
L 68.739257 105.37557 
L 82.743612 94.54658 
L 93.606234 86.773048 
L 102.481642 78.6619 
L 116.485997 69.158794 
L 125.664708 61.532083 
L 127.348618 59.754048 
L 147.086648 47.106989 
L 161.091003 39.783666 
L 173.862888 35.7284 
L 180.829033 35.875471 
L 194.833388 39.775812 
L 214.571418 38.731095 
L 228.575773 33.24582 
" clip-path="url(#p79164966a4)" style="fill: none; stroke: #b2b2b2; stroke-width: 0.8; stroke-linecap: square"/>
   </g>
   <g id="line2d_80">
    <path d="M 49.001227 130.997713 
L 68.739257 109.460919 
L 82.743612 98.52297 
L 93.606234 87.490235 
L 102.481642 78.983867 
L 116.485997 69.217645 
L 125.664708 61.532083 
L 127.348618 59.786162 
L 147.086648 47.647309 
L 161.091003 41.533745 
L 173.862888 37.620367 
L 180.829033 35.880432 
L 194.833388 37.035578 
L 214.571418 29.956496 
L 228.575773 37.772659 
" clip-path="url(#p79164966a4)" style="fill: none; stroke: #b2b2b2; stroke-width: 0.8; stroke-linecap: square"/>
   </g>
   <g id="line2d_81">
    <path d="M 49.001227 124.266013 
L 68.739257 103.744555 
L 82.743612 96.054044 
L 93.606234 86.058532 
L 102.481642 78.007231 
L 116.485997 67.121855 
L 125.664708 61.532083 
L 127.348618 59.666201 
L 147.086648 42.535884 
L 161.091003 36.953421 
L 173.862888 32.420103 
L 180.829033 29.098839 
L 194.833388 27.197962 
L 214.571418 23.257586 
L 228.575773 22.141798 
" clip-path="url(#p79164966a4)" style="fill: none; stroke: #b2b2b2; stroke-width: 0.8; stroke-linecap: square"/>
   </g>
   <g id="line2d_82">
    <path d="M 49.001227 121.200577 
L 68.739257 101.458592 
L 82.743612 91.475201 
L 93.606234 81.658681 
L 102.481642 75.225395 
L 116.485997 66.758017 
L 125.664708 61.532083 
L 127.348618 60.715976 
L 147.086648 54.840321 
L 161.091003 49.361339 
L 173.862888 43.42175 
L 180.829033 40.786688 
L 194.833388 38.889681 
L 214.571418 38.191875 
L 228.575773 49.224981 
" clip-path="url(#p79164966a4)" style="fill: none; stroke: #b2b2b2; stroke-width: 0.8; stroke-linecap: square"/>
   </g>
   <g id="line2d_83">
    <path d="M 49.001227 126.942632 
L 68.739257 109.008546 
L 82.743612 97.769219 
L 93.606234 88.02309 
L 102.481642 80.231158 
L 116.485997 68.910716 
L 125.664708 61.532083 
L 127.348618 60.038241 
L 147.086648 45.823598 
L 161.091003 37.713454 
L 173.862888 31.710454 
L 180.829033 29.280057 
L 194.833388 27.123047 
L 214.571418 33.546112 
L 228.575773 35.914738 
" clip-path="url(#p79164966a4)" style="fill: none; stroke: #b2b2b2; stroke-width: 0.8; stroke-linecap: square"/>
   </g>
   <g id="line2d_84">
    <path d="M 49.001227 113.597705 
L 68.739257 93.70421 
L 82.743612 84.507413 
L 93.606234 76.434366 
L 102.481642 71.429477 
L 116.485997 66.559338 
L 125.664708 61.532083 
L 127.348618 60.487219 
L 147.086648 51.935531 
L 161.091003 48.64997 
L 173.862888 50.037221 
L 180.829033 49.692649 
L 194.833388 46.526298 
L 214.571418 43.504366 
L 228.575773 45.561884 
" clip-path="url(#p79164966a4)" style="fill: none; stroke: #b2b2b2; stroke-width: 0.8; stroke-linecap: square"/>
   </g>
   <g id="line2d_85">
    <path d="M 49.001227 112.572565 
L 68.739257 93.609837 
L 82.743612 85.248437 
L 93.606234 77.405374 
L 102.481642 72.759305 
L 116.485997 67.937376 
L 125.664708 61.532083 
L 127.348618 59.764929 
L 147.086648 46.503728 
L 161.091003 36.574387 
L 173.862888 28.052834 
L 180.829033 23.618117 
L 194.833388 19.101634 
L 214.571418 19.749548 
L 228.575773 29.581674 
" clip-path="url(#p79164966a4)" style="fill: none; stroke: #b2b2b2; stroke-width: 0.8; stroke-linecap: square"/>
   </g>
   <g id="line2d_86">
    <path d="M 49.001227 117.230889 
L 68.739257 97.808874 
L 82.743612 87.971031 
L 93.606234 84.529932 
L 102.481642 77.879375 
L 116.485997 68.088152 
L 125.664708 61.532083 
L 127.348618 60.454986 
L 147.086648 52.087788 
L 161.091003 47.697412 
L 173.862888 47.217738 
L 180.829033 47.818082 
L 194.833388 43.985068 
L 214.571418 39.637447 
L 228.575773 39.719085 
" clip-path="url(#p79164966a4)" style="fill: none; stroke: #b2b2b2; stroke-width: 0.8; stroke-linecap: square"/>
   </g>
   <g id="line2d_87">
    <path d="M 49.001227 109.908048 
L 68.739257 90.7658 
L 82.743612 82.081547 
L 93.606234 73.888082 
L 102.481642 68.537673 
L 116.485997 64.218579 
L 125.664708 61.532083 
L 127.348618 60.894044 
L 147.086648 56.32562 
L 161.091003 48.105351 
L 173.862888 45.098124 
L 180.829033 46.265631 
L 194.833388 42.087167 
L 214.571418 52.810458 
L 228.575773 46.84842 
" clip-path="url(#p79164966a4)" style="fill: none; stroke: #b2b2b2; stroke-width: 0.8; stroke-linecap: square"/>
   </g>
   <g id="line2d_88">
    <path d="M 49.001227 121.644189 
L 68.739257 101.782954 
L 82.743612 92.412922 
L 93.606234 83.710015 
L 102.481642 77.058246 
L 116.485997 68.248644 
L 125.664708 61.532083 
L 127.348618 60.114755 
L 147.086648 51.735039 
L 161.091003 45.490832 
L 173.862888 39.799862 
L 180.829033 36.189189 
L 194.833388 39.780636 
L 214.571418 38.050236 
L 228.575773 35.640944 
" clip-path="url(#p79164966a4)" style="fill: none; stroke: #b2b2b2; stroke-width: 0.8; stroke-linecap: square"/>
   </g>
   <g id="line2d_89">
    <path d="M 49.001227 123.534283 
L 68.739257 103.29235 
L 82.743612 93.618631 
L 93.606234 84.467157 
L 102.481642 76.633892 
L 116.485997 67.864948 
L 125.664708 61.532083 
L 127.348618 60.146002 
L 147.086648 49.355566 
L 161.091003 43.22266 
L 173.862888 40.635888 
L 180.829033 37.828361 
L 194.833388 40.401994 
L 214.571418 41.507063 
L 228.575773 40.740792 
" clip-path="url(#p79164966a4)" style="fill: none; stroke: #b2b2b2; stroke-width: 0.8; stroke-linecap: square"/>
   </g>
   <g id="line2d_90">
    <path d="M 49.001227 122.925857 
L 68.739257 102.857948 
L 82.743612 93.012065 
L 93.606234 83.579187 
L 102.481642 76.752323 
L 116.485997 68.935513 
L 125.664708 61.532083 
L 127.348618 58.37156 
L 147.086648 50.377803 
L 161.091003 43.906555 
L 173.862888 44.16022 
L 180.829033 45.987072 
L 194.833388 43.362119 
L 214.571418 36.655836 
L 228.575773 33.713684 
" clip-path="url(#p79164966a4)" style="fill: none; stroke: #b2b2b2; stroke-width: 0.8; stroke-linecap: square"/>
   </g>
   <g id="line2d_91">
    <path d="M 49.001227 131.759804 
L 68.739257 110.202513 
L 82.743612 99.226722 
L 93.606234 88.134998 
L 102.481642 79.537594 
L 116.485997 69.558522 
L 125.664708 61.532083 
L 127.348618 59.675806 
L 147.086648 45.934696 
L 161.091003 37.60686 
L 173.862888 31.372109 
L 180.829033 27.593776 
L 194.833388 21.346559 
L 214.571418 23.37869 
L 228.575773 23.199089 
" clip-path="url(#p79164966a4)" style="fill: none; stroke: #b2b2b2; stroke-width: 0.8; stroke-linecap: square"/>
   </g>
   <g id="line2d_92">
    <path d="M 49.001227 120.636583 
L 68.739257 99.934532 
L 82.743612 89.806304 
L 93.606234 80.19542 
L 102.481642 73.374132 
L 116.485997 66.360342 
L 125.664708 61.532083 
L 127.348618 60.506701 
L 147.086648 50.283193 
L 161.091003 42.553131 
L 173.862888 38.70491 
L 180.829033 35.893252 
L 194.833388 34.225166 
L 214.571418 41.494854 
L 228.575773 38.122988 
" clip-path="url(#p79164966a4)" style="fill: none; stroke: #b2b2b2; stroke-width: 0.8; stroke-linecap: square"/>
   </g>
   <g id="line2d_93">
    <path d="M 49.001227 130.353802 
L 68.739257 108.8519 
L 82.743612 97.939774 
L 93.606234 86.978881 
L 102.481642 78.573321 
L 116.485997 68.986628 
L 125.664708 61.532083 
L 127.348618 59.855274 
L 147.086648 48.400282 
L 161.091003 42.30598 
L 173.862888 37.958505 
L 180.829033 32.978499 
L 194.833388 27.404007 
L 214.571418 21.092317 
L 228.575773 32.516929 
" clip-path="url(#p79164966a4)" style="fill: none; stroke: #b2b2b2; stroke-width: 0.8; stroke-linecap: square"/>
   </g>
   <g id="line2d_94">
    <path d="M 49.001227 104.427609 
L 68.739257 87.175093 
L 82.743612 79.665432 
L 93.606234 73.396677 
L 102.481642 69.209068 
L 116.485997 63.731583 
L 125.664708 61.532083 
L 127.348618 61.523003 
L 147.086648 56.936937 
L 161.091003 51.007744 
L 173.862888 45.915026 
L 180.829033 41.074796 
L 194.833388 38.025314 
L 214.571418 34.849802 
L 228.575773 38.348803 
" clip-path="url(#p79164966a4)" style="fill: none; stroke: #b2b2b2; stroke-width: 0.8; stroke-linecap: square"/>
   </g>
   <g id="line2d_95">
    <path d="M 49.001227 127.057165 
L 68.739257 109.10593 
L 82.743612 97.851156 
L 93.606234 88.088875 
L 102.481642 80.284273 
L 116.485997 68.935524 
L 125.664708 61.532083 
L 127.348618 60.034177 
L 147.086648 46.039199 
L 161.091003 38.991975 
L 173.862888 34.892205 
L 180.829033 32.40891 
L 194.833388 34.375922 
L 214.571418 36.473443 
L 228.575773 36.827748 
" clip-path="url(#p79164966a4)" style="fill: none; stroke: #b2b2b2; stroke-width: 0.8; stroke-linecap: square"/>
   </g>
   <g id="line2d_96">
    <path d="M 49.001227 130.439052 
L 68.739257 108.941277 
L 82.743612 98.032595 
L 93.606234 87.069272 
L 102.481642 78.651979 
L 116.485997 69.039926 
L 125.664708 61.532083 
L 127.348618 59.831584 
L 147.086648 47.943573 
L 161.091003 41.830189 
L 173.862888 40.154631 
L 180.829033 39.258475 
L 194.833388 38.408725 
L 214.571418 30.181361 
L 228.575773 38.205212 
" clip-path="url(#p79164966a4)" style="fill: none; stroke: #b2b2b2; stroke-width: 0.8; stroke-linecap: square"/>
   </g>
   <g id="line2d_97">
    <path d="M 49.001227 114.649454 
L 68.739257 94.986199 
L 82.743612 86.021686 
L 93.606234 76.424978 
L 102.481642 69.800442 
L 116.485997 64.225469 
L 125.664708 61.532083 
L 127.348618 61.122058 
L 147.086648 55.618412 
L 161.091003 46.908405 
L 173.862888 41.202966 
L 180.829033 40.337277 
L 194.833388 36.845237 
L 214.571418 34.057456 
L 228.575773 40.28068 
" clip-path="url(#p79164966a4)" style="fill: none; stroke: #b2b2b2; stroke-width: 0.8; stroke-linecap: square"/>
   </g>
   <g id="line2d_98">
    <path d="M 49.001227 111.836747 
L 68.739257 95.290045 
L 82.743612 85.665933 
L 93.606234 77.938962 
L 102.481642 72.020243 
L 116.485997 64.948019 
L 125.664708 61.532083 
L 127.348618 60.95641 
L 147.086648 52.5947 
L 161.091003 46.355401 
L 173.862888 48.618523 
L 180.829033 42.632102 
L 194.833388 44.304551 
L 214.571418 37.719753 
L 228.575773 35.385834 
" clip-path="url(#p79164966a4)" style="fill: none; stroke: #b2b2b2; stroke-width: 0.8; stroke-linecap: square"/>
   </g>
   <g id="line2d_99">
    <path d="M 49.001227 114.62521 
L 68.739257 97.832472 
L 82.743612 87.966808 
L 93.606234 80.079883 
L 102.481642 74.092768 
L 116.485997 66.328333 
L 125.664708 61.532083 
L 127.348618 60.762551 
L 147.086648 61.301541 
L 161.091003 55.155622 
L 173.862888 51.481391 
L 180.829033 50.479684 
L 194.833388 42.484444 
L 214.571418 36.690516 
L 228.575773 39.008408 
" clip-path="url(#p79164966a4)" style="fill: none; stroke: #b2b2b2; stroke-width: 0.8; stroke-linecap: square"/>
   </g>
   <g id="line2d_100">
    <path d="M 49.001227 126.616863 
L 68.739257 106.61393 
L 82.743612 96.32799 
L 93.606234 85.934102 
L 102.481642 78.774445 
L 116.485997 68.531656 
L 125.664708 61.532083 
L 127.348618 60.37327 
L 147.086648 52.529237 
L 161.091003 54.838849 
L 173.862888 54.977642 
L 180.829033 48.76047 
L 194.833388 43.128634 
L 214.571418 45.262398 
L 228.575773 55.141979 
" clip-path="url(#p79164966a4)" style="fill: none; stroke: #b2b2b2; stroke-width: 0.8; stroke-linecap: square"/>
   </g>
   <g id="line2d_101">
    <path d="M 49.001227 123.114056 
L 68.739257 103.377341 
L 82.743612 93.377626 
L 93.606234 83.452369 
L 102.481642 76.76818 
L 116.485997 67.525069 
L 125.664708 61.532083 
L 127.348618 60.584036 
L 147.086648 50.880455 
L 161.091003 42.464258 
L 173.862888 41.128299 
L 180.829033 43.539119 
L 194.833388 46.362624 
L 214.571418 39.458983 
L 228.575773 38.547619 
" clip-path="url(#p79164966a4)" style="fill: none; stroke: #b2b2b2; stroke-width: 0.8; stroke-linecap: square"/>
   </g>
   <g id="line2d_102">
    <path d="M 49.001227 121.620355 
L 68.739257 100.764603 
L 82.743612 90.559959 
L 93.606234 80.780284 
L 102.481642 73.86044 
L 116.485997 66.952686 
L 125.664708 61.532083 
L 127.348618 60.082555 
L 147.086648 48.090725 
L 161.091003 41.916899 
L 173.862888 35.19568 
L 180.829033 32.113026 
L 194.833388 30.514895 
L 214.571418 31.666653 
L 228.575773 32.573421 
" clip-path="url(#p79164966a4)" style="fill: none; stroke: #b2b2b2; stroke-width: 0.8; stroke-linecap: square"/>
   </g>
   <g id="line2d_103">
    <path d="M 49.001227 120.934409 
L 68.739257 103.546549 
L 82.743612 92.946054 
L 93.606234 84.05131 
L 102.481642 77.165044 
L 116.485997 67.464071 
L 125.664708 61.532083 
L 127.348618 60.403733 
L 147.086648 50.996674 
L 161.091003 46.504048 
L 173.862888 44.574996 
L 180.829033 43.478424 
L 194.833388 40.17221 
L 214.571418 34.307127 
L 228.575773 39.338333 
" clip-path="url(#p79164966a4)" style="fill: none; stroke: #b2b2b2; stroke-width: 0.8; stroke-linecap: square"/>
   </g>
   <g id="line2d_104">
    <path d="M 49.001227 113.355066 
L 68.739257 93.912372 
L 82.743612 85.021203 
L 93.606234 77.503045 
L 102.481642 72.437523 
L 116.485997 67.082197 
L 125.664708 61.532083 
L 127.348618 60.030616 
L 147.086648 54.787646 
L 161.091003 54.272799 
L 173.862888 47.658548 
L 180.829033 47.705301 
L 194.833388 44.899371 
L 214.571418 38.744998 
L 228.575773 38.118002 
" clip-path="url(#p79164966a4)" style="fill: none; stroke: #b2b2b2; stroke-width: 0.8; stroke-linecap: square"/>
   </g>
   <g id="line2d_105">
    <path d="M 49.001227 113.877583 
L 68.739257 95.156385 
L 82.743612 86.455184 
L 93.606234 77.579467 
L 102.481642 72.274399 
L 116.485997 65.9244 
L 125.664708 61.532083 
L 127.348618 60.85174 
L 147.086648 55.087414 
L 161.091003 54.622104 
L 173.862888 46.752922 
L 180.829033 45.642928 
L 194.833388 48.065541 
L 214.571418 51.500566 
L 228.575773 49.180102 
" clip-path="url(#p79164966a4)" style="fill: none; stroke: #b2b2b2; stroke-width: 0.8; stroke-linecap: square"/>
   </g>
   <g id="line2d_106">
    <path d="M 49.001227 126.419263 
L 68.739257 106.710052 
L 82.743612 96.505902 
L 93.606234 86.122899 
L 102.481642 78.955569 
L 116.485997 68.886805 
L 125.664708 61.532083 
L 127.348618 60.209847 
L 147.086648 45.954512 
L 161.091003 36.318047 
L 173.862888 37.391383 
L 180.829033 35.194329 
L 194.833388 33.937753 
L 214.571418 33.155267 
L 228.575773 30.456682 
" clip-path="url(#p79164966a4)" style="fill: none; stroke: #b2b2b2; stroke-width: 0.8; stroke-linecap: square"/>
   </g>
   <g id="line2d_107">
    <path d="M 49.001227 120.662751 
L 68.739257 101.345216 
L 82.743612 91.673785 
L 93.606234 83.766937 
L 102.481642 75.861645 
L 116.485997 67.47667 
L 125.664708 61.532083 
L 127.348618 60.258381 
L 147.086648 50.111408 
L 161.091003 43.963202 
L 173.862888 40.831487 
L 180.829033 38.758901 
L 194.833388 36.952387 
L 214.571418 35.451319 
L 228.575773 36.629237 
" clip-path="url(#p79164966a4)" style="fill: none; stroke: #ff0000; stroke-width: 2; stroke-linecap: square"/>
   </g>
   <g id="line2d_108">
    <path d="M 49.001227 109.354924 
L 68.739257 91.283388 
L 82.743612 82.91717 
L 93.606234 76.213385 
L 102.481642 69.772187 
L 116.485997 63.965877 
L 125.664708 61.532082 
L 127.348618 58.709313 
L 147.086648 42.017383 
L 161.091003 31.456199 
L 173.862888 25.765483 
L 180.829033 22.300335 
L 194.833388 19.163474 
L 214.571418 16.167758 
L 228.575773 16.349928 
" clip-path="url(#p79164966a4)" style="fill: none; stroke-dasharray: 7.4,3.2; stroke-dashoffset: 0; stroke: #ff0000; stroke-width: 2"/>
   </g>
   <g id="line2d_109">
    <path d="M 49.001227 131.970578 
L 68.739257 111.407044 
L 82.743612 100.4304 
L 93.606234 91.320489 
L 102.481642 81.951104 
L 116.485997 70.987463 
L 125.664708 61.532084 
L 127.348618 61.807448 
L 147.086648 58.205433 
L 161.091003 56.470204 
L 173.862888 55.897492 
L 180.829033 55.217468 
L 194.833388 54.741301 
L 214.571418 54.734881 
L 228.575773 56.908546 
" clip-path="url(#p79164966a4)" style="fill: none; stroke-dasharray: 7.4,3.2; stroke-dashoffset: 0; stroke: #ff0000; stroke-width: 2"/>
   </g>
   <g id="line2d_110">
    <path d="M 49.001227 120.686267 
L 68.739257 101.415286 
L 82.743612 91.904519 
L 93.606234 83.216183 
L 102.481642 76.155587 
L 116.485997 67.44549 
L 125.664708 61.532083 
L 127.348618 60.282693 
L 147.086648 50.170146 
L 161.091003 44.149094 
L 173.862888 40.755581 
L 180.829033 38.834936 
L 194.833388 36.894198 
L 214.571418 35.491791 
L 228.575773 36.508234 
" clip-path="url(#p79164966a4)" style="fill: none; stroke: #0000ff; stroke-width: 2; stroke-linecap: square"/>
   </g>
   <g id="line2d_111">
    <path d="M 49.001227 109.281334 
L 68.739257 91.339274 
L 82.743612 82.965786 
L 93.606234 75.646219 
L 102.481642 70.265649 
L 116.485997 63.925966 
L 125.664708 61.532083 
L 127.348618 58.853886 
L 147.086648 42.099575 
L 161.091003 31.811627 
L 173.862888 25.626404 
L 180.829033 22.467983 
L 194.833388 19.188908 
L 214.571418 16.08307 
L 228.575773 16.200488 
" clip-path="url(#p79164966a4)" style="fill: none; stroke-dasharray: 7.4,3.2; stroke-dashoffset: 0; stroke: #0000ff; stroke-width: 2"/>
   </g>
   <g id="line2d_112">
    <path d="M 49.001227 132.0912 
L 68.739257 111.491299 
L 82.743612 100.843252 
L 93.606234 90.786148 
L 102.481642 82.045525 
L 116.485997 70.965015 
L 125.664708 61.532083 
L 127.348618 61.7115 
L 147.086648 58.240717 
L 161.091003 56.486562 
L 173.862888 55.884758 
L 180.829033 55.201889 
L 194.833388 54.599487 
L 214.571418 54.900512 
L 228.575773 56.815979 
" clip-path="url(#p79164966a4)" style="fill: none; stroke-dasharray: 7.4,3.2; stroke-dashoffset: 0; stroke: #0000ff; stroke-width: 2"/>
   </g>
   <g id="patch_3">
    <path d="M 40.0225 138.0384 
L 40.0225 7.2 
" style="fill: none; stroke: #000000; stroke-width: 0.8; stroke-linejoin: miter; stroke-linecap: square"/>
   </g>
   <g id="patch_4">
    <path d="M 237.5545 138.0384 
L 237.5545 7.2 
" style="fill: none; stroke: #000000; stroke-width: 0.8; stroke-linejoin: miter; stroke-linecap: square"/>
   </g>
   <g id="patch_5">
    <path d="M 40.0225 138.0384 
L 237.5545 138.0384 
" style="fill: none; stroke: #000000; stroke-width: 0.8; stroke-linejoin: miter; stroke-linecap: square"/>
   </g>
   <g id="patch_6">
    <path d="M 40.0225 7.2 
L 237.5545 7.2 
" style="fill: none; stroke: #000000; stroke-width: 0.8; stroke-linejoin: miter; stroke-linecap: square"/>
   </g>
   <g id="legend_1">
    <g id="patch_7">
     <path d="M 243.1545 104.47295 
L 427.8745 104.47295 
Q 429.4745 104.47295 429.4745 102.87295 
L 429.4745 42.36545 
Q 429.4745 40.76545 427.8745 40.76545 
L 243.1545 40.76545 
Q 241.5545 40.76545 241.5545 42.36545 
L 241.5545 102.87295 
Q 241.5545 104.47295 243.1545 104.47295 
z
" style="fill: #ffffff; opacity: 0.8; stroke: #cccccc; stroke-linejoin: miter"/>
    </g>
    <g id="line2d_113">
     <path d="M 244.7545 47.2442 
L 252.7545 47.2442 
L 260.7545 47.2442 
" style="fill: none; stroke: #b2b2b2; stroke-width: 0.8; stroke-linecap: square"/>
    </g>
    <g id="text_6">
     <!-- Individual selected GMs -->
     <g transform="translate(267.1545 50.0442) scale(0.08 -0.08)">
      <defs>
       <path id="DejaVuSans-49" d="M 628 4666 
L 1259 4666 
L 1259 0 
L 628 0 
L 628 4666 
z
" transform="scale(0.015625)"/>
       <path id="DejaVuSans-76" d="M 191 3500 
L 800 3500 
L 1894 563 
L 2988 3500 
L 3597 3500 
L 2284 0 
L 1503 0 
L 191 3500 
z
" transform="scale(0.015625)"/>
       <path id="DejaVuSans-75" d="M 544 1381 
L 544 3500 
L 1119 3500 
L 1119 1403 
Q 1119 906 1312 657 
Q 1506 409 1894 409 
Q 2359 409 2629 706 
Q 2900 1003 2900 1516 
L 2900 3500 
L 3475 3500 
L 3475 0 
L 2900 0 
L 2900 538 
Q 2691 219 2414 64 
Q 2138 -91 1772 -91 
Q 1169 -91 856 284 
Q 544 659 544 1381 
z
M 1991 3584 
L 1991 3584 
z
" transform="scale(0.015625)"/>
       <path id="DejaVuSans-47" d="M 3809 666 
L 3809 1919 
L 2778 1919 
L 2778 2438 
L 4434 2438 
L 4434 434 
Q 4069 175 3628 42 
Q 3188 -91 2688 -91 
Q 1594 -91 976 548 
Q 359 1188 359 2328 
Q 359 3472 976 4111 
Q 1594 4750 2688 4750 
Q 3144 4750 3555 4637 
Q 3966 4525 4313 4306 
L 4313 3634 
Q 3963 3931 3569 4081 
Q 3175 4231 2741 4231 
Q 1884 4231 1454 3753 
Q 1025 3275 1025 2328 
Q 1025 1384 1454 906 
Q 1884 428 2741 428 
Q 3075 428 3337 486 
Q 3600 544 3809 666 
z
" transform="scale(0.015625)"/>
       <path id="DejaVuSans-4d" d="M 628 4666 
L 1569 4666 
L 2759 1491 
L 3956 4666 
L 4897 4666 
L 4897 0 
L 4281 0 
L 4281 4097 
L 3078 897 
L 2444 897 
L 1241 4097 
L 1241 0 
L 628 0 
L 628 4666 
z
" transform="scale(0.015625)"/>
      </defs>
      <use xlink:href="#DejaVuSans-49"/>
      <use xlink:href="#DejaVuSans-6e" x="29.492188"/>
      <use xlink:href="#DejaVuSans-64" x="92.871094"/>
      <use xlink:href="#DejaVuSans-69" x="156.347656"/>
      <use xlink:href="#DejaVuSans-76" x="184.130859"/>
      <use xlink:href="#DejaVuSans-69" x="243.310547"/>
      <use xlink:href="#DejaVuSans-64" x="271.09375"/>
      <use xlink:href="#DejaVuSans-75" x="334.570312"/>
      <use xlink:href="#DejaVuSans-61" x="397.949219"/>
      <use xlink:href="#DejaVuSans-6c" x="459.228516"/>
      <use xlink:href="#DejaVuSans-20" x="487.011719"/>
      <use xlink:href="#DejaVuSans-73" x="518.798828"/>
      <use xlink:href="#DejaVuSans-65" x="570.898438"/>
      <use xlink:href="#DejaVuSans-6c" x="632.421875"/>
      <use xlink:href="#DejaVuSans-65" x="660.205078"/>
      <use xlink:href="#DejaVuSans-63" x="721.728516"/>
      <use xlink:href="#DejaVuSans-74" x="776.708984"/>
      <use xlink:href="#DejaVuSans-65" x="815.917969"/>
      <use xlink:href="#DejaVuSans-64" x="877.441406"/>
      <use xlink:href="#DejaVuSans-20" x="940.917969"/>
      <use xlink:href="#DejaVuSans-47" x="972.705078"/>
      <use xlink:href="#DejaVuSans-4d" x="1050.195312"/>
      <use xlink:href="#DejaVuSans-73" x="1136.474609"/>
     </g>
    </g>
    <g id="line2d_114">
     <path d="M 244.7545 58.9867 
L 252.7545 58.9867 
L 260.7545 58.9867 
" style="fill: none; stroke: #ff0000; stroke-width: 2; stroke-linecap: square"/>
    </g>
    <g id="text_7">
     <!-- GCIM median -->
     <g transform="translate(267.1545 61.7867) scale(0.08 -0.08)">
      <defs>
       <path id="DejaVuSans-43" d="M 4122 4306 
L 4122 3641 
Q 3803 3938 3442 4084 
Q 3081 4231 2675 4231 
Q 1875 4231 1450 3742 
Q 1025 3253 1025 2328 
Q 1025 1406 1450 917 
Q 1875 428 2675 428 
Q 3081 428 3442 575 
Q 3803 722 4122 1019 
L 4122 359 
Q 3791 134 3420 21 
Q 3050 -91 2638 -91 
Q 1578 -91 968 557 
Q 359 1206 359 2328 
Q 359 3453 968 4101 
Q 1578 4750 2638 4750 
Q 3056 4750 3426 4639 
Q 3797 4528 4122 4306 
z
" transform="scale(0.015625)"/>
       <path id="DejaVuSans-6d" d="M 3328 2828 
Q 3544 3216 3844 3400 
Q 4144 3584 4550 3584 
Q 5097 3584 5394 3201 
Q 5691 2819 5691 2113 
L 5691 0 
L 5113 0 
L 5113 2094 
Q 5113 2597 4934 2840 
Q 4756 3084 4391 3084 
Q 3944 3084 3684 2787 
Q 3425 2491 3425 1978 
L 3425 0 
L 2847 0 
L 2847 2094 
Q 2847 2600 2669 2842 
Q 2491 3084 2119 3084 
Q 1678 3084 1418 2786 
Q 1159 2488 1159 1978 
L 1159 0 
L 581 0 
L 581 3500 
L 1159 3500 
L 1159 2956 
Q 1356 3278 1631 3431 
Q 1906 3584 2284 3584 
Q 2666 3584 2933 3390 
Q 3200 3197 3328 2828 
z
" transform="scale(0.015625)"/>
      </defs>
      <use xlink:href="#DejaVuSans-47"/>
      <use xlink:href="#DejaVuSans-43" x="77.490234"/>
      <use xlink:href="#DejaVuSans-49" x="147.314453"/>
      <use xlink:href="#DejaVuSans-4d" x="176.806641"/>
      <use xlink:href="#DejaVuSans-20" x="263.085938"/>
      <use xlink:href="#DejaVuSans-6d" x="294.873047"/>
      <use xlink:href="#DejaVuSans-65" x="392.285156"/>
      <use xlink:href="#DejaVuSans-64" x="453.808594"/>
      <use xlink:href="#DejaVuSans-69" x="517.285156"/>
      <use xlink:href="#DejaVuSans-61" x="545.068359"/>
      <use xlink:href="#DejaVuSans-6e" x="606.347656"/>
     </g>
    </g>
    <g id="line2d_115">
     <path d="M 244.7545 72.01045 
L 252.7545 72.01045 
L 260.7545 72.01045 
" style="fill: none; stroke-dasharray: 7.4,3.2; stroke-dashoffset: 0; stroke: #ff0000; stroke-width: 2"/>
    </g>
    <g id="text_8">
     <!-- GCIM $16^{th}$ and $84^{th}$ percentiles -->
     <g transform="translate(267.1545 74.81045) scale(0.08 -0.08)">
      <defs>
       <path id="DejaVuSans-36" d="M 2113 2584 
Q 1688 2584 1439 2293 
Q 1191 2003 1191 1497 
Q 1191 994 1439 701 
Q 1688 409 2113 409 
Q 2538 409 2786 701 
Q 3034 994 3034 1497 
Q 3034 2003 2786 2293 
Q 2538 2584 2113 2584 
z
M 3366 4563 
L 3366 3988 
Q 3128 4100 2886 4159 
Q 2644 4219 2406 4219 
Q 1781 4219 1451 3797 
Q 1122 3375 1075 2522 
Q 1259 2794 1537 2939 
Q 1816 3084 2150 3084 
Q 2853 3084 3261 2657 
Q 3669 2231 3669 1497 
Q 3669 778 3244 343 
Q 2819 -91 2113 -91 
Q 1303 -91 875 529 
Q 447 1150 447 2328 
Q 447 3434 972 4092 
Q 1497 4750 2381 4750 
Q 2619 4750 2861 4703 
Q 3103 4656 3366 4563 
z
" transform="scale(0.015625)"/>
       <path id="DejaVuSans-Oblique-74" d="M 2706 3500 
L 2619 3053 
L 1472 3053 
L 1100 1153 
Q 1081 1047 1072 975 
Q 1063 903 1063 863 
Q 1063 663 1183 572 
Q 1303 481 1569 481 
L 2150 481 
L 2053 0 
L 1503 0 
Q 991 0 739 200 
Q 488 400 488 806 
Q 488 878 497 964 
Q 506 1050 525 1153 
L 897 3053 
L 409 3053 
L 500 3500 
L 978 3500 
L 1172 4494 
L 1747 4494 
L 1556 3500 
L 2706 3500 
z
" transform="scale(0.015625)"/>
       <path id="DejaVuSans-Oblique-68" d="M 3566 2113 
L 3156 0 
L 2578 0 
L 2988 2091 
Q 3016 2238 3031 2350 
Q 3047 2463 3047 2528 
Q 3047 2791 2881 2937 
Q 2716 3084 2419 3084 
Q 1956 3084 1617 2771 
Q 1278 2459 1178 1941 
L 800 0 
L 225 0 
L 1172 4863 
L 1747 4863 
L 1375 2950 
Q 1594 3244 1934 3414 
Q 2275 3584 2650 3584 
Q 3113 3584 3367 3334 
Q 3622 3084 3622 2631 
Q 3622 2519 3608 2391 
Q 3594 2263 3566 2113 
z
" transform="scale(0.015625)"/>
       <path id="DejaVuSans-38" d="M 2034 2216 
Q 1584 2216 1326 1975 
Q 1069 1734 1069 1313 
Q 1069 891 1326 650 
Q 1584 409 2034 409 
Q 2484 409 2743 651 
Q 3003 894 3003 1313 
Q 3003 1734 2745 1975 
Q 2488 2216 2034 2216 
z
M 1403 2484 
Q 997 2584 770 2862 
Q 544 3141 544 3541 
Q 544 4100 942 4425 
Q 1341 4750 2034 4750 
Q 2731 4750 3128 4425 
Q 3525 4100 3525 3541 
Q 3525 3141 3298 2862 
Q 3072 2584 2669 2484 
Q 3125 2378 3379 2068 
Q 3634 1759 3634 1313 
Q 3634 634 3220 271 
Q 2806 -91 2034 -91 
Q 1263 -91 848 271 
Q 434 634 434 1313 
Q 434 1759 690 2068 
Q 947 2378 1403 2484 
z
M 1172 3481 
Q 1172 3119 1398 2916 
Q 1625 2713 2034 2713 
Q 2441 2713 2670 2916 
Q 2900 3119 2900 3481 
Q 2900 3844 2670 4047 
Q 2441 4250 2034 4250 
Q 1625 4250 1398 4047 
Q 1172 3844 1172 3481 
z
" transform="scale(0.015625)"/>
       <path id="DejaVuSans-34" d="M 2419 4116 
L 825 1625 
L 2419 1625 
L 2419 4116 
z
M 2253 4666 
L 3047 4666 
L 3047 1625 
L 3713 1625 
L 3713 1100 
L 3047 1100 
L 3047 0 
L 2419 0 
L 2419 1100 
L 313 1100 
L 313 1709 
L 2253 4666 
z
" transform="scale(0.015625)"/>
      </defs>
      <use xlink:href="#DejaVuSans-47" transform="translate(0 0.529687)"/>
      <use xlink:href="#DejaVuSans-43" transform="translate(77.490234 0.529687)"/>
      <use xlink:href="#DejaVuSans-49" transform="translate(147.314453 0.529687)"/>
      <use xlink:href="#DejaVuSans-4d" transform="translate(176.806641 0.529687)"/>
      <use xlink:href="#DejaVuSans-20" transform="translate(263.085938 0.529687)"/>
      <use xlink:href="#DejaVuSans-31" transform="translate(294.873047 0.529687)"/>
      <use xlink:href="#DejaVuSans-36" transform="translate(358.496094 0.529687)"/>
      <use xlink:href="#DejaVuSans-Oblique-74" transform="translate(423.076172 38.810937) scale(0.7)"/>
      <use xlink:href="#DejaVuSans-Oblique-68" transform="translate(450.522461 38.810937) scale(0.7)"/>
      <use xlink:href="#DejaVuSans-20" transform="translate(497.62207 0.529687)"/>
      <use xlink:href="#DejaVuSans-61" transform="translate(529.40918 0.529687)"/>
      <use xlink:href="#DejaVuSans-6e" transform="translate(590.688477 0.529687)"/>
      <use xlink:href="#DejaVuSans-64" transform="translate(654.067383 0.529687)"/>
      <use xlink:href="#DejaVuSans-20" transform="translate(717.543945 0.529687)"/>
      <use xlink:href="#DejaVuSans-38" transform="translate(749.331055 0.529687)"/>
      <use xlink:href="#DejaVuSans-34" transform="translate(812.954102 0.529687)"/>
      <use xlink:href="#DejaVuSans-Oblique-74" transform="translate(877.53418 38.810937) scale(0.7)"/>
      <use xlink:href="#DejaVuSans-Oblique-68" transform="translate(904.980469 38.810937) scale(0.7)"/>
      <use xlink:href="#DejaVuSans-20" transform="translate(952.080078 0.529687)"/>
      <use xlink:href="#DejaVuSans-70" transform="translate(983.867188 0.529687)"/>
      <use xlink:href="#DejaVuSans-65" transform="translate(1047.34375 0.529687)"/>
      <use xlink:href="#DejaVuSans-72" transform="translate(1108.867188 0.529687)"/>
      <use xlink:href="#DejaVuSans-63" transform="translate(1149.980469 0.529687)"/>
      <use xlink:href="#DejaVuSans-65" transform="translate(1204.960938 0.529687)"/>
      <use xlink:href="#DejaVuSans-6e" transform="translate(1266.484375 0.529687)"/>
      <use xlink:href="#DejaVuSans-74" transform="translate(1329.863281 0.529687)"/>
      <use xlink:href="#DejaVuSans-69" transform="translate(1369.072266 0.529687)"/>
      <use xlink:href="#DejaVuSans-6c" transform="translate(1396.855469 0.529687)"/>
      <use xlink:href="#DejaVuSans-65" transform="translate(1424.638672 0.529687)"/>
      <use xlink:href="#DejaVuSans-73" transform="translate(1486.162109 0.529687)"/>
     </g>
    </g>
    <g id="line2d_116">
     <path d="M 244.7545 83.7692 
L 252.7545 83.7692 
L 260.7545 83.7692 
" style="fill: none; stroke: #0000ff; stroke-width: 2; stroke-linecap: square"/>
    </g>
    <g id="text_9">
     <!-- Selected GMs median -->
     <g transform="translate(267.1545 86.5692) scale(0.08 -0.08)">
      <use xlink:href="#DejaVuSans-53"/>
      <use xlink:href="#DejaVuSans-65" x="63.476562"/>
      <use xlink:href="#DejaVuSans-6c" x="125"/>
      <use xlink:href="#DejaVuSans-65" x="152.783203"/>
      <use xlink:href="#DejaVuSans-63" x="214.306641"/>
      <use xlink:href="#DejaVuSans-74" x="269.287109"/>
      <use xlink:href="#DejaVuSans-65" x="308.496094"/>
      <use xlink:href="#DejaVuSans-64" x="370.019531"/>
      <use xlink:href="#DejaVuSans-20" x="433.496094"/>
      <use xlink:href="#DejaVuSans-47" x="465.283203"/>
      <use xlink:href="#DejaVuSans-4d" x="542.773438"/>
      <use xlink:href="#DejaVuSans-73" x="629.052734"/>
      <use xlink:href="#DejaVuSans-20" x="681.152344"/>
      <use xlink:href="#DejaVuSans-6d" x="712.939453"/>
      <use xlink:href="#DejaVuSans-65" x="810.351562"/>
      <use xlink:href="#DejaVuSans-64" x="871.875"/>
      <use xlink:href="#DejaVuSans-69" x="935.351562"/>
      <use xlink:href="#DejaVuSans-61" x="963.134766"/>
      <use xlink:href="#DejaVuSans-6e" x="1024.414062"/>
     </g>
    </g>
    <g id="line2d_117">
     <path d="M 244.7545 96.79295 
L 252.7545 96.79295 
L 260.7545 96.79295 
" style="fill: none; stroke-dasharray: 7.4,3.2; stroke-dashoffset: 0; stroke: #0000ff; stroke-width: 2"/>
    </g>
    <g id="text_10">
     <!-- Selected GMs, $16^{th}$ and $84^{th}$ percentiles -->
     <g transform="translate(267.1545 99.59295) scale(0.08 -0.08)">
      <use xlink:href="#DejaVuSans-53" transform="translate(0 0.529687)"/>
      <use xlink:href="#DejaVuSans-65" transform="translate(63.476562 0.529687)"/>
      <use xlink:href="#DejaVuSans-6c" transform="translate(125 0.529687)"/>
      <use xlink:href="#DejaVuSans-65" transform="translate(152.783203 0.529687)"/>
      <use xlink:href="#DejaVuSans-63" transform="translate(214.306641 0.529687)"/>
      <use xlink:href="#DejaVuSans-74" transform="translate(269.287109 0.529687)"/>
      <use xlink:href="#DejaVuSans-65" transform="translate(308.496094 0.529687)"/>
      <use xlink:href="#DejaVuSans-64" transform="translate(370.019531 0.529687)"/>
      <use xlink:href="#DejaVuSans-20" transform="translate(433.496094 0.529687)"/>
      <use xlink:href="#DejaVuSans-47" transform="translate(465.283203 0.529687)"/>
      <use xlink:href="#DejaVuSans-4d" transform="translate(542.773438 0.529687)"/>
      <use xlink:href="#DejaVuSans-73" transform="translate(629.052734 0.529687)"/>
      <use xlink:href="#DejaVuSans-2c" transform="translate(681.152344 0.529687)"/>
      <use xlink:href="#DejaVuSans-20" transform="translate(712.939453 0.529687)"/>
      <use xlink:href="#DejaVuSans-31" transform="translate(744.726562 0.529687)"/>
      <use xlink:href="#DejaVuSans-36" transform="translate(808.349609 0.529687)"/>
      <use xlink:href="#DejaVuSans-Oblique-74" transform="translate(872.929688 38.810937) scale(0.7)"/>
      <use xlink:href="#DejaVuSans-Oblique-68" transform="translate(900.375977 38.810937) scale(0.7)"/>
      <use xlink:href="#DejaVuSans-20" transform="translate(947.475586 0.529687)"/>
      <use xlink:href="#DejaVuSans-61" transform="translate(979.262695 0.529687)"/>
      <use xlink:href="#DejaVuSans-6e" transform="translate(1040.541992 0.529687)"/>
      <use xlink:href="#DejaVuSans-64" transform="translate(1103.920898 0.529687)"/>
      <use xlink:href="#DejaVuSans-20" transform="translate(1167.397461 0.529687)"/>
      <use xlink:href="#DejaVuSans-38" transform="translate(1199.18457 0.529687)"/>
      <use xlink:href="#DejaVuSans-34" transform="translate(1262.807617 0.529687)"/>
      <use xlink:href="#DejaVuSans-Oblique-74" transform="translate(1327.387695 38.810937) scale(0.7)"/>
      <use xlink:href="#DejaVuSans-Oblique-68" transform="translate(1354.833984 38.810937) scale(0.7)"/>
      <use xlink:href="#DejaVuSans-20" transform="translate(1401.933594 0.529687)"/>
      <use xlink:href="#DejaVuSans-70" transform="translate(1433.720703 0.529687)"/>
      <use xlink:href="#DejaVuSans-65" transform="translate(1497.197266 0.529687)"/>
      <use xlink:href="#DejaVuSans-72" transform="translate(1558.720703 0.529687)"/>
      <use xlink:href="#DejaVuSans-63" transform="translate(1599.833984 0.529687)"/>
      <use xlink:href="#DejaVuSans-65" transform="translate(1654.814453 0.529687)"/>
      <use xlink:href="#DejaVuSans-6e" transform="translate(1716.337891 0.529687)"/>
      <use xlink:href="#DejaVuSans-74" transform="translate(1779.716797 0.529687)"/>
      <use xlink:href="#DejaVuSans-69" transform="translate(1818.925781 0.529687)"/>
      <use xlink:href="#DejaVuSans-6c" transform="translate(1846.708984 0.529687)"/>
      <use xlink:href="#DejaVuSans-65" transform="translate(1874.492188 0.529687)"/>
      <use xlink:href="#DejaVuSans-73" transform="translate(1936.015625 0.529687)"/>
     </g>
    </g>
   </g>
  </g>
 </g>
 <defs>
  <clipPath id="p79164966a4">
   <rect x="40.0225" y="7.2" width="197.532" height="130.8384"/>
  </clipPath>
 </defs>
</svg>
