<?xml version="1.0" encoding="utf-8" standalone="no"?>
<!DOCTYPE svg PUBLIC "-//W3C//DTD SVG 1.1//EN"
  "http://www.w3.org/Graphics/SVG/1.1/DTD/svg11.dtd">
<svg xmlns:xlink="http://www.w3.org/1999/xlink" width="441.3945pt" height="171.7234pt" viewBox="0 0 441.3945 171.7234" xmlns="http://www.w3.org/2000/svg" version="1.1">
 <metadata>
  <rdf:RDF xmlns:dc="http://purl.org/dc/elements/1.1/" xmlns:cc="http://creativecommons.org/ns#" xmlns:rdf="http://www.w3.org/1999/02/22-rdf-syntax-ns#">
   <cc:Work>
    <dc:type rdf:resource="http://purl.org/dc/dcmitype/StillImage"/>
    <dc:date>2024-11-11T18:20:40.521915</dc:date>
    <dc:format>image/svg+xml</dc:format>
    <dc:creator>
     <cc:Agent>
      <dc:title>Matplotlib v3.8.2, https://matplotlib.org/</dc:title>
     </cc:Agent>
    </dc:creator>
   </cc:Work>
  </rdf:RDF>
 </metadata>
 <defs>
  <style type="text/css">*{stroke-linejoin: round; stroke-linecap: butt}</style>
 </defs>
 <g id="figure_1">
  <g id="patch_1">
   <path d="M 0 171.7234 
L 441.3945 171.7234 
L 441.3945 0 
L 0 0 
z
" style="fill: #ffffff"/>
  </g>
  <g id="axes_1">
   <g id="patch_2">
    <path d="M 44.7425 138.0384 
L 242.2745 138.0384 
L 242.2745 7.2 
L 44.7425 7.2 
z
" style="fill: #ffffff"/>
   </g>
   <g id="matplotlib.axis_1">
    <g id="xtick_1">
     <g id="line2d_1">
      <path d="M 53.721227 138.0384 
L 53.721227 7.2 
" clip-path="url(#p8c8d942165)" style="fill: none; stroke: #d9d9d9; stroke-width: 0.8; stroke-linecap: square"/>
     </g>
     <g id="line2d_2">
      <defs>
       <path id="mee8b111c11" d="M 0 0 
L 0 3.5 
" style="stroke: #000000; stroke-width: 0.8"/>
      </defs>
      <g>
       <use xlink:href="#mee8b111c11" x="53.721227" y="138.0384" style="stroke: #000000; stroke-width: 0.8"/>
      </g>
     </g>
     <g id="text_1">
      <!-- $\mathdefault{10^{-1}}$ -->
      <g transform="translate(44.321227 151.11715) scale(0.08 -0.08)">
       <defs>
        <path id="DejaVuSans-31" d="M 794 531 
L 1825 531 
L 1825 4091 
L 703 3866 
L 703 4441 
L 1819 4666 
L 2450 4666 
L 2450 531 
L 3481 531 
L 3481 0 
L 794 0 
L 794 531 
z
" transform="scale(0.015625)"/>
        <path id="DejaVuSans-30" d="M 2034 4250 
Q 1547 4250 1301 3770 
Q 1056 3291 1056 2328 
Q 1056 1369 1301 889 
Q 1547 409 2034 409 
Q 2525 409 2770 889 
Q 3016 1369 3016 2328 
Q 3016 3291 2770 3770 
Q 2525 4250 2034 4250 
z
M 2034 4750 
Q 2819 4750 3233 4129 
Q 3647 3509 3647 2328 
Q 3647 1150 3233 529 
Q 2819 -91 2034 -91 
Q 1250 -91 836 529 
Q 422 1150 422 2328 
Q 422 3509 836 4129 
Q 1250 4750 2034 4750 
z
" transform="scale(0.015625)"/>
        <path id="DejaVuSans-2212" d="M 678 2272 
L 4684 2272 
L 4684 1741 
L 678 1741 
L 678 2272 
z
" transform="scale(0.015625)"/>
       </defs>
       <use xlink:href="#DejaVuSans-31" transform="translate(0 0.684375)"/>
       <use xlink:href="#DejaVuSans-30" transform="translate(63.623047 0.684375)"/>
       <use xlink:href="#DejaVuSans-2212" transform="translate(128.203125 38.965625) scale(0.7)"/>
       <use xlink:href="#DejaVuSans-31" transform="translate(186.855469 38.965625) scale(0.7)"/>
      </g>
     </g>
    </g>
    <g id="xtick_2">
     <g id="line2d_3">
      <path d="M 165.811003 138.0384 
L 165.811003 7.2 
" clip-path="url(#p8c8d942165)" style="fill: none; stroke: #d9d9d9; stroke-width: 0.8; stroke-linecap: square"/>
     </g>
     <g id="line2d_4">
      <g>
       <use xlink:href="#mee8b111c11" x="165.811003" y="138.0384" style="stroke: #000000; stroke-width: 0.8"/>
      </g>
     </g>
     <g id="text_2">
      <!-- $\mathdefault{10^{0}}$ -->
      <g transform="translate(158.771003 151.11715) scale(0.08 -0.08)">
       <use xlink:href="#DejaVuSans-31" transform="translate(0 0.765625)"/>
       <use xlink:href="#DejaVuSans-30" transform="translate(63.623047 0.765625)"/>
       <use xlink:href="#DejaVuSans-30" transform="translate(128.203125 39.046875) scale(0.7)"/>
      </g>
     </g>
    </g>
    <g id="xtick_3">
     <g id="line2d_5">
      <path d="M 48.59228 138.0384 
L 48.59228 7.2 
" clip-path="url(#p8c8d942165)" style="fill: none; stroke-dasharray: 2.96,1.28; stroke-dashoffset: 0; stroke: #f2f2f2; stroke-width: 0.8"/>
     </g>
     <g id="line2d_6">
      <defs>
       <path id="mfab6c3f79f" d="M 0 0 
L 0 2 
" style="stroke: #000000; stroke-width: 0.6"/>
      </defs>
      <g>
       <use xlink:href="#mfab6c3f79f" x="48.59228" y="138.0384" style="stroke: #000000; stroke-width: 0.6"/>
      </g>
     </g>
    </g>
    <g id="xtick_4">
     <g id="line2d_7">
      <path d="M 87.463612 138.0384 
L 87.463612 7.2 
" clip-path="url(#p8c8d942165)" style="fill: none; stroke-dasharray: 2.96,1.28; stroke-dashoffset: 0; stroke: #f2f2f2; stroke-width: 0.8"/>
     </g>
     <g id="line2d_8">
      <g>
       <use xlink:href="#mfab6c3f79f" x="87.463612" y="138.0384" style="stroke: #000000; stroke-width: 0.6"/>
      </g>
     </g>
    </g>
    <g id="xtick_5">
     <g id="line2d_9">
      <path d="M 107.201642 138.0384 
L 107.201642 7.2 
" clip-path="url(#p8c8d942165)" style="fill: none; stroke-dasharray: 2.96,1.28; stroke-dashoffset: 0; stroke: #f2f2f2; stroke-width: 0.8"/>
     </g>
     <g id="line2d_10">
      <g>
       <use xlink:href="#mfab6c3f79f" x="107.201642" y="138.0384" style="stroke: #000000; stroke-width: 0.6"/>
      </g>
     </g>
    </g>
    <g id="xtick_6">
     <g id="line2d_11">
      <path d="M 121.205997 138.0384 
L 121.205997 7.2 
" clip-path="url(#p8c8d942165)" style="fill: none; stroke-dasharray: 2.96,1.28; stroke-dashoffset: 0; stroke: #f2f2f2; stroke-width: 0.8"/>
     </g>
     <g id="line2d_12">
      <g>
       <use xlink:href="#mfab6c3f79f" x="121.205997" y="138.0384" style="stroke: #000000; stroke-width: 0.6"/>
      </g>
     </g>
    </g>
    <g id="xtick_7">
     <g id="line2d_13">
      <path d="M 132.068618 138.0384 
L 132.068618 7.2 
" clip-path="url(#p8c8d942165)" style="fill: none; stroke-dasharray: 2.96,1.28; stroke-dashoffset: 0; stroke: #f2f2f2; stroke-width: 0.8"/>
     </g>
     <g id="line2d_14">
      <g>
       <use xlink:href="#mfab6c3f79f" x="132.068618" y="138.0384" style="stroke: #000000; stroke-width: 0.6"/>
      </g>
     </g>
    </g>
    <g id="xtick_8">
     <g id="line2d_15">
      <path d="M 140.944027 138.0384 
L 140.944027 7.2 
" clip-path="url(#p8c8d942165)" style="fill: none; stroke-dasharray: 2.96,1.28; stroke-dashoffset: 0; stroke: #f2f2f2; stroke-width: 0.8"/>
     </g>
     <g id="line2d_16">
      <g>
       <use xlink:href="#mfab6c3f79f" x="140.944027" y="138.0384" style="stroke: #000000; stroke-width: 0.6"/>
      </g>
     </g>
    </g>
    <g id="xtick_9">
     <g id="line2d_17">
      <path d="M 148.448077 138.0384 
L 148.448077 7.2 
" clip-path="url(#p8c8d942165)" style="fill: none; stroke-dasharray: 2.96,1.28; stroke-dashoffset: 0; stroke: #f2f2f2; stroke-width: 0.8"/>
     </g>
     <g id="line2d_18">
      <g>
       <use xlink:href="#mfab6c3f79f" x="148.448077" y="138.0384" style="stroke: #000000; stroke-width: 0.6"/>
      </g>
     </g>
    </g>
    <g id="xtick_10">
     <g id="line2d_19">
      <path d="M 154.948382 138.0384 
L 154.948382 7.2 
" clip-path="url(#p8c8d942165)" style="fill: none; stroke-dasharray: 2.96,1.28; stroke-dashoffset: 0; stroke: #f2f2f2; stroke-width: 0.8"/>
     </g>
     <g id="line2d_20">
      <g>
       <use xlink:href="#mfab6c3f79f" x="154.948382" y="138.0384" style="stroke: #000000; stroke-width: 0.6"/>
      </g>
     </g>
    </g>
    <g id="xtick_11">
     <g id="line2d_21">
      <path d="M 160.682056 138.0384 
L 160.682056 7.2 
" clip-path="url(#p8c8d942165)" style="fill: none; stroke-dasharray: 2.96,1.28; stroke-dashoffset: 0; stroke: #f2f2f2; stroke-width: 0.8"/>
     </g>
     <g id="line2d_22">
      <g>
       <use xlink:href="#mfab6c3f79f" x="160.682056" y="138.0384" style="stroke: #000000; stroke-width: 0.6"/>
      </g>
     </g>
    </g>
    <g id="xtick_12">
     <g id="line2d_23">
      <path d="M 199.553388 138.0384 
L 199.553388 7.2 
" clip-path="url(#p8c8d942165)" style="fill: none; stroke-dasharray: 2.96,1.28; stroke-dashoffset: 0; stroke: #f2f2f2; stroke-width: 0.8"/>
     </g>
     <g id="line2d_24">
      <g>
       <use xlink:href="#mfab6c3f79f" x="199.553388" y="138.0384" style="stroke: #000000; stroke-width: 0.6"/>
      </g>
     </g>
    </g>
    <g id="xtick_13">
     <g id="line2d_25">
      <path d="M 219.291418 138.0384 
L 219.291418 7.2 
" clip-path="url(#p8c8d942165)" style="fill: none; stroke-dasharray: 2.96,1.28; stroke-dashoffset: 0; stroke: #f2f2f2; stroke-width: 0.8"/>
     </g>
     <g id="line2d_26">
      <g>
       <use xlink:href="#mfab6c3f79f" x="219.291418" y="138.0384" style="stroke: #000000; stroke-width: 0.6"/>
      </g>
     </g>
    </g>
    <g id="xtick_14">
     <g id="line2d_27">
      <path d="M 233.295773 138.0384 
L 233.295773 7.2 
" clip-path="url(#p8c8d942165)" style="fill: none; stroke-dasharray: 2.96,1.28; stroke-dashoffset: 0; stroke: #f2f2f2; stroke-width: 0.8"/>
     </g>
     <g id="line2d_28">
      <g>
       <use xlink:href="#mfab6c3f79f" x="233.295773" y="138.0384" style="stroke: #000000; stroke-width: 0.6"/>
      </g>
     </g>
    </g>
    <g id="text_3">
     <!-- Period, T (s) -->
     <g transform="translate(119.576 162.85965) scale(0.08 -0.08)">
      <defs>
       <path id="DejaVuSans-50" d="M 1259 4147 
L 1259 2394 
L 2053 2394 
Q 2494 2394 2734 2622 
Q 2975 2850 2975 3272 
Q 2975 3691 2734 3919 
Q 2494 4147 2053 4147 
L 1259 4147 
z
M 628 4666 
L 2053 4666 
Q 2838 4666 3239 4311 
Q 3641 3956 3641 3272 
Q 3641 2581 3239 2228 
Q 2838 1875 2053 1875 
L 1259 1875 
L 1259 0 
L 628 0 
L 628 4666 
z
" transform="scale(0.015625)"/>
       <path id="DejaVuSans-65" d="M 3597 1894 
L 3597 1613 
L 953 1613 
Q 991 1019 1311 708 
Q 1631 397 2203 397 
Q 2534 397 2845 478 
Q 3156 559 3463 722 
L 3463 178 
Q 3153 47 2828 -22 
Q 2503 -91 2169 -91 
Q 1331 -91 842 396 
Q 353 884 353 1716 
Q 353 2575 817 3079 
Q 1281 3584 2069 3584 
Q 2775 3584 3186 3129 
Q 3597 2675 3597 1894 
z
M 3022 2063 
Q 3016 2534 2758 2815 
Q 2500 3097 2075 3097 
Q 1594 3097 1305 2825 
Q 1016 2553 972 2059 
L 3022 2063 
z
" transform="scale(0.015625)"/>
       <path id="DejaVuSans-72" d="M 2631 2963 
Q 2534 3019 2420 3045 
Q 2306 3072 2169 3072 
Q 1681 3072 1420 2755 
Q 1159 2438 1159 1844 
L 1159 0 
L 581 0 
L 581 3500 
L 1159 3500 
L 1159 2956 
Q 1341 3275 1631 3429 
Q 1922 3584 2338 3584 
Q 2397 3584 2469 3576 
Q 2541 3569 2628 3553 
L 2631 2963 
z
" transform="scale(0.015625)"/>
       <path id="DejaVuSans-69" d="M 603 3500 
L 1178 3500 
L 1178 0 
L 603 0 
L 603 3500 
z
M 603 4863 
L 1178 4863 
L 1178 4134 
L 603 4134 
L 603 4863 
z
" transform="scale(0.015625)"/>
       <path id="DejaVuSans-6f" d="M 1959 3097 
Q 1497 3097 1228 2736 
Q 959 2375 959 1747 
Q 959 1119 1226 758 
Q 1494 397 1959 397 
Q 2419 397 2687 759 
Q 2956 1122 2956 1747 
Q 2956 2369 2687 2733 
Q 2419 3097 1959 3097 
z
M 1959 3584 
Q 2709 3584 3137 3096 
Q 3566 2609 3566 1747 
Q 3566 888 3137 398 
Q 2709 -91 1959 -91 
Q 1206 -91 779 398 
Q 353 888 353 1747 
Q 353 2609 779 3096 
Q 1206 3584 1959 3584 
z
" transform="scale(0.015625)"/>
       <path id="DejaVuSans-64" d="M 2906 2969 
L 2906 4863 
L 3481 4863 
L 3481 0 
L 2906 0 
L 2906 525 
Q 2725 213 2448 61 
Q 2172 -91 1784 -91 
Q 1150 -91 751 415 
Q 353 922 353 1747 
Q 353 2572 751 3078 
Q 1150 3584 1784 3584 
Q 2172 3584 2448 3432 
Q 2725 3281 2906 2969 
z
M 947 1747 
Q 947 1113 1208 752 
Q 1469 391 1925 391 
Q 2381 391 2643 752 
Q 2906 1113 2906 1747 
Q 2906 2381 2643 2742 
Q 2381 3103 1925 3103 
Q 1469 3103 1208 2742 
Q 947 2381 947 1747 
z
" transform="scale(0.015625)"/>
       <path id="DejaVuSans-2c" d="M 750 794 
L 1409 794 
L 1409 256 
L 897 -744 
L 494 -744 
L 750 256 
L 750 794 
z
" transform="scale(0.015625)"/>
       <path id="DejaVuSans-20" transform="scale(0.015625)"/>
       <path id="DejaVuSans-54" d="M -19 4666 
L 3928 4666 
L 3928 4134 
L 2272 4134 
L 2272 0 
L 1638 0 
L 1638 4134 
L -19 4134 
L -19 4666 
z
" transform="scale(0.015625)"/>
       <path id="DejaVuSans-28" d="M 1984 4856 
Q 1566 4138 1362 3434 
Q 1159 2731 1159 2009 
Q 1159 1288 1364 580 
Q 1569 -128 1984 -844 
L 1484 -844 
Q 1016 -109 783 600 
Q 550 1309 550 2009 
Q 550 2706 781 3412 
Q 1013 4119 1484 4856 
L 1984 4856 
z
" transform="scale(0.015625)"/>
       <path id="DejaVuSans-73" d="M 2834 3397 
L 2834 2853 
Q 2591 2978 2328 3040 
Q 2066 3103 1784 3103 
Q 1356 3103 1142 2972 
Q 928 2841 928 2578 
Q 928 2378 1081 2264 
Q 1234 2150 1697 2047 
L 1894 2003 
Q 2506 1872 2764 1633 
Q 3022 1394 3022 966 
Q 3022 478 2636 193 
Q 2250 -91 1575 -91 
Q 1294 -91 989 -36 
Q 684 19 347 128 
L 347 722 
Q 666 556 975 473 
Q 1284 391 1588 391 
Q 1994 391 2212 530 
Q 2431 669 2431 922 
Q 2431 1156 2273 1281 
Q 2116 1406 1581 1522 
L 1381 1569 
Q 847 1681 609 1914 
Q 372 2147 372 2553 
Q 372 3047 722 3315 
Q 1072 3584 1716 3584 
Q 2034 3584 2315 3537 
Q 2597 3491 2834 3397 
z
" transform="scale(0.015625)"/>
       <path id="DejaVuSans-29" d="M 513 4856 
L 1013 4856 
Q 1481 4119 1714 3412 
Q 1947 2706 1947 2009 
Q 1947 1309 1714 600 
Q 1481 -109 1013 -844 
L 513 -844 
Q 928 -128 1133 580 
Q 1338 1288 1338 2009 
Q 1338 2731 1133 3434 
Q 928 4138 513 4856 
z
" transform="scale(0.015625)"/>
      </defs>
      <use xlink:href="#DejaVuSans-50"/>
      <use xlink:href="#DejaVuSans-65" x="56.677734"/>
      <use xlink:href="#DejaVuSans-72" x="118.201172"/>
      <use xlink:href="#DejaVuSans-69" x="159.314453"/>
      <use xlink:href="#DejaVuSans-6f" x="187.097656"/>
      <use xlink:href="#DejaVuSans-64" x="248.279297"/>
      <use xlink:href="#DejaVuSans-2c" x="311.755859"/>
      <use xlink:href="#DejaVuSans-20" x="343.542969"/>
      <use xlink:href="#DejaVuSans-54" x="375.330078"/>
      <use xlink:href="#DejaVuSans-20" x="436.414062"/>
      <use xlink:href="#DejaVuSans-28" x="468.201172"/>
      <use xlink:href="#DejaVuSans-73" x="507.214844"/>
      <use xlink:href="#DejaVuSans-29" x="559.314453"/>
     </g>
    </g>
   </g>
   <g id="matplotlib.axis_2">
    <g id="ytick_1">
     <g id="line2d_29">
      <path d="M 44.7425 108.542168 
L 242.2745 108.542168 
" clip-path="url(#p8c8d942165)" style="fill: none; stroke: #d9d9d9; stroke-width: 0.8; stroke-linecap: square"/>
     </g>
     <g id="line2d_30">
      <defs>
       <path id="mb889f8646e" d="M 0 0 
L -3.5 0 
" style="stroke: #000000; stroke-width: 0.8"/>
      </defs>
      <g>
       <use xlink:href="#mb889f8646e" x="44.7425" y="108.542168" style="stroke: #000000; stroke-width: 0.8"/>
      </g>
     </g>
     <g id="text_4">
      <!-- $\mathdefault{10^{-1}}$ -->
      <g transform="translate(18.9425 111.581543) scale(0.08 -0.08)">
       <use xlink:href="#DejaVuSans-31" transform="translate(0 0.684375)"/>
       <use xlink:href="#DejaVuSans-30" transform="translate(63.623047 0.684375)"/>
       <use xlink:href="#DejaVuSans-2212" transform="translate(128.203125 38.965625) scale(0.7)"/>
       <use xlink:href="#DejaVuSans-31" transform="translate(186.855469 38.965625) scale(0.7)"/>
      </g>
     </g>
    </g>
    <g id="ytick_2">
     <g id="line2d_31">
      <path d="M 44.7425 42.324795 
L 242.2745 42.324795 
" clip-path="url(#p8c8d942165)" style="fill: none; stroke: #d9d9d9; stroke-width: 0.8; stroke-linecap: square"/>
     </g>
     <g id="line2d_32">
      <g>
       <use xlink:href="#mb889f8646e" x="44.7425" y="42.324795" style="stroke: #000000; stroke-width: 0.8"/>
      </g>
     </g>
     <g id="text_5">
      <!-- $\mathdefault{10^{0}}$ -->
      <g transform="translate(23.6625 45.36417) scale(0.08 -0.08)">
       <use xlink:href="#DejaVuSans-31" transform="translate(0 0.765625)"/>
       <use xlink:href="#DejaVuSans-30" transform="translate(63.623047 0.765625)"/>
       <use xlink:href="#DejaVuSans-30" transform="translate(128.203125 39.046875) scale(0.7)"/>
      </g>
     </g>
    </g>
    <g id="ytick_3">
     <g id="line2d_33">
      <path d="M 44.7425 134.892709 
L 242.2745 134.892709 
" clip-path="url(#p8c8d942165)" style="fill: none; stroke-dasharray: 2.96,1.28; stroke-dashoffset: 0; stroke: #f2f2f2; stroke-width: 0.8"/>
     </g>
     <g id="line2d_34">
      <defs>
       <path id="m2ccae70548" d="M 0 0 
L -2 0 
" style="stroke: #000000; stroke-width: 0.6"/>
      </defs>
      <g>
       <use xlink:href="#m2ccae70548" x="44.7425" y="134.892709" style="stroke: #000000; stroke-width: 0.6"/>
      </g>
     </g>
    </g>
    <g id="ytick_4">
     <g id="line2d_35">
      <path d="M 44.7425 128.475583 
L 242.2745 128.475583 
" clip-path="url(#p8c8d942165)" style="fill: none; stroke-dasharray: 2.96,1.28; stroke-dashoffset: 0; stroke: #f2f2f2; stroke-width: 0.8"/>
     </g>
     <g id="line2d_36">
      <g>
       <use xlink:href="#m2ccae70548" x="44.7425" y="128.475583" style="stroke: #000000; stroke-width: 0.6"/>
      </g>
     </g>
    </g>
    <g id="ytick_5">
     <g id="line2d_37">
      <path d="M 44.7425 123.232409 
L 242.2745 123.232409 
" clip-path="url(#p8c8d942165)" style="fill: none; stroke-dasharray: 2.96,1.28; stroke-dashoffset: 0; stroke: #f2f2f2; stroke-width: 0.8"/>
     </g>
     <g id="line2d_38">
      <g>
       <use xlink:href="#m2ccae70548" x="44.7425" y="123.232409" style="stroke: #000000; stroke-width: 0.6"/>
      </g>
     </g>
    </g>
    <g id="ytick_6">
     <g id="line2d_39">
      <path d="M 44.7425 118.799368 
L 242.2745 118.799368 
" clip-path="url(#p8c8d942165)" style="fill: none; stroke-dasharray: 2.96,1.28; stroke-dashoffset: 0; stroke: #f2f2f2; stroke-width: 0.8"/>
     </g>
     <g id="line2d_40">
      <g>
       <use xlink:href="#m2ccae70548" x="44.7425" y="118.799368" style="stroke: #000000; stroke-width: 0.6"/>
      </g>
     </g>
    </g>
    <g id="ytick_7">
     <g id="line2d_41">
      <path d="M 44.7425 114.959294 
L 242.2745 114.959294 
" clip-path="url(#p8c8d942165)" style="fill: none; stroke-dasharray: 2.96,1.28; stroke-dashoffset: 0; stroke: #f2f2f2; stroke-width: 0.8"/>
     </g>
     <g id="line2d_42">
      <g>
       <use xlink:href="#m2ccae70548" x="44.7425" y="114.959294" style="stroke: #000000; stroke-width: 0.6"/>
      </g>
     </g>
    </g>
    <g id="ytick_8">
     <g id="line2d_43">
      <path d="M 44.7425 111.572108 
L 242.2745 111.572108 
" clip-path="url(#p8c8d942165)" style="fill: none; stroke-dasharray: 2.96,1.28; stroke-dashoffset: 0; stroke: #f2f2f2; stroke-width: 0.8"/>
     </g>
     <g id="line2d_44">
      <g>
       <use xlink:href="#m2ccae70548" x="44.7425" y="111.572108" style="stroke: #000000; stroke-width: 0.6"/>
      </g>
     </g>
    </g>
    <g id="ytick_9">
     <g id="line2d_45">
      <path d="M 44.7425 88.608752 
L 242.2745 88.608752 
" clip-path="url(#p8c8d942165)" style="fill: none; stroke-dasharray: 2.96,1.28; stroke-dashoffset: 0; stroke: #f2f2f2; stroke-width: 0.8"/>
     </g>
     <g id="line2d_46">
      <g>
       <use xlink:href="#m2ccae70548" x="44.7425" y="88.608752" style="stroke: #000000; stroke-width: 0.6"/>
      </g>
     </g>
    </g>
    <g id="ytick_10">
     <g id="line2d_47">
      <path d="M 44.7425 76.948452 
L 242.2745 76.948452 
" clip-path="url(#p8c8d942165)" style="fill: none; stroke-dasharray: 2.96,1.28; stroke-dashoffset: 0; stroke: #f2f2f2; stroke-width: 0.8"/>
     </g>
     <g id="line2d_48">
      <g>
       <use xlink:href="#m2ccae70548" x="44.7425" y="76.948452" style="stroke: #000000; stroke-width: 0.6"/>
      </g>
     </g>
    </g>
    <g id="ytick_11">
     <g id="line2d_49">
      <path d="M 44.7425 68.675337 
L 242.2745 68.675337 
" clip-path="url(#p8c8d942165)" style="fill: none; stroke-dasharray: 2.96,1.28; stroke-dashoffset: 0; stroke: #f2f2f2; stroke-width: 0.8"/>
     </g>
     <g id="line2d_50">
      <g>
       <use xlink:href="#m2ccae70548" x="44.7425" y="68.675337" style="stroke: #000000; stroke-width: 0.6"/>
      </g>
     </g>
    </g>
    <g id="ytick_12">
     <g id="line2d_51">
      <path d="M 44.7425 62.258211 
L 242.2745 62.258211 
" clip-path="url(#p8c8d942165)" style="fill: none; stroke-dasharray: 2.96,1.28; stroke-dashoffset: 0; stroke: #f2f2f2; stroke-width: 0.8"/>
     </g>
     <g id="line2d_52">
      <g>
       <use xlink:href="#m2ccae70548" x="44.7425" y="62.258211" style="stroke: #000000; stroke-width: 0.6"/>
      </g>
     </g>
    </g>
    <g id="ytick_13">
     <g id="line2d_53">
      <path d="M 44.7425 57.015037 
L 242.2745 57.015037 
" clip-path="url(#p8c8d942165)" style="fill: none; stroke-dasharray: 2.96,1.28; stroke-dashoffset: 0; stroke: #f2f2f2; stroke-width: 0.8"/>
     </g>
     <g id="line2d_54">
      <g>
       <use xlink:href="#m2ccae70548" x="44.7425" y="57.015037" style="stroke: #000000; stroke-width: 0.6"/>
      </g>
     </g>
    </g>
    <g id="ytick_14">
     <g id="line2d_55">
      <path d="M 44.7425 52.581996 
L 242.2745 52.581996 
" clip-path="url(#p8c8d942165)" style="fill: none; stroke-dasharray: 2.96,1.28; stroke-dashoffset: 0; stroke: #f2f2f2; stroke-width: 0.8"/>
     </g>
     <g id="line2d_56">
      <g>
       <use xlink:href="#m2ccae70548" x="44.7425" y="52.581996" style="stroke: #000000; stroke-width: 0.6"/>
      </g>
     </g>
    </g>
    <g id="ytick_15">
     <g id="line2d_57">
      <path d="M 44.7425 48.741922 
L 242.2745 48.741922 
" clip-path="url(#p8c8d942165)" style="fill: none; stroke-dasharray: 2.96,1.28; stroke-dashoffset: 0; stroke: #f2f2f2; stroke-width: 0.8"/>
     </g>
     <g id="line2d_58">
      <g>
       <use xlink:href="#m2ccae70548" x="44.7425" y="48.741922" style="stroke: #000000; stroke-width: 0.6"/>
      </g>
     </g>
    </g>
    <g id="ytick_16">
     <g id="line2d_59">
      <path d="M 44.7425 45.354736 
L 242.2745 45.354736 
" clip-path="url(#p8c8d942165)" style="fill: none; stroke-dasharray: 2.96,1.28; stroke-dashoffset: 0; stroke: #f2f2f2; stroke-width: 0.8"/>
     </g>
     <g id="line2d_60">
      <g>
       <use xlink:href="#m2ccae70548" x="44.7425" y="45.354736" style="stroke: #000000; stroke-width: 0.6"/>
      </g>
     </g>
    </g>
    <g id="ytick_17">
     <g id="line2d_61">
      <path d="M 44.7425 22.39138 
L 242.2745 22.39138 
" clip-path="url(#p8c8d942165)" style="fill: none; stroke-dasharray: 2.96,1.28; stroke-dashoffset: 0; stroke: #f2f2f2; stroke-width: 0.8"/>
     </g>
     <g id="line2d_62">
      <g>
       <use xlink:href="#m2ccae70548" x="44.7425" y="22.39138" style="stroke: #000000; stroke-width: 0.6"/>
      </g>
     </g>
    </g>
    <g id="ytick_18">
     <g id="line2d_63">
      <path d="M 44.7425 10.73108 
L 242.2745 10.73108 
" clip-path="url(#p8c8d942165)" style="fill: none; stroke-dasharray: 2.96,1.28; stroke-dashoffset: 0; stroke: #f2f2f2; stroke-width: 0.8"/>
     </g>
     <g id="line2d_64">
      <g>
       <use xlink:href="#m2ccae70548" x="44.7425" y="10.73108" style="stroke: #000000; stroke-width: 0.6"/>
      </g>
     </g>
    </g>
    <g id="text_6">
     <!-- Spectral acceleration, SA (g) -->
     <g transform="translate(13.27875 129.871075) rotate(-90) scale(0.08 -0.08)">
      <defs>
       <path id="DejaVuSans-53" d="M 3425 4513 
L 3425 3897 
Q 3066 4069 2747 4153 
Q 2428 4238 2131 4238 
Q 1616 4238 1336 4038 
Q 1056 3838 1056 3469 
Q 1056 3159 1242 3001 
Q 1428 2844 1947 2747 
L 2328 2669 
Q 3034 2534 3370 2195 
Q 3706 1856 3706 1288 
Q 3706 609 3251 259 
Q 2797 -91 1919 -91 
Q 1588 -91 1214 -16 
Q 841 59 441 206 
L 441 856 
Q 825 641 1194 531 
Q 1563 422 1919 422 
Q 2459 422 2753 634 
Q 3047 847 3047 1241 
Q 3047 1584 2836 1778 
Q 2625 1972 2144 2069 
L 1759 2144 
Q 1053 2284 737 2584 
Q 422 2884 422 3419 
Q 422 4038 858 4394 
Q 1294 4750 2059 4750 
Q 2388 4750 2728 4690 
Q 3069 4631 3425 4513 
z
" transform="scale(0.015625)"/>
       <path id="DejaVuSans-70" d="M 1159 525 
L 1159 -1331 
L 581 -1331 
L 581 3500 
L 1159 3500 
L 1159 2969 
Q 1341 3281 1617 3432 
Q 1894 3584 2278 3584 
Q 2916 3584 3314 3078 
Q 3713 2572 3713 1747 
Q 3713 922 3314 415 
Q 2916 -91 2278 -91 
Q 1894 -91 1617 61 
Q 1341 213 1159 525 
z
M 3116 1747 
Q 3116 2381 2855 2742 
Q 2594 3103 2138 3103 
Q 1681 3103 1420 2742 
Q 1159 2381 1159 1747 
Q 1159 1113 1420 752 
Q 1681 391 2138 391 
Q 2594 391 2855 752 
Q 3116 1113 3116 1747 
z
" transform="scale(0.015625)"/>
       <path id="DejaVuSans-63" d="M 3122 3366 
L 3122 2828 
Q 2878 2963 2633 3030 
Q 2388 3097 2138 3097 
Q 1578 3097 1268 2742 
Q 959 2388 959 1747 
Q 959 1106 1268 751 
Q 1578 397 2138 397 
Q 2388 397 2633 464 
Q 2878 531 3122 666 
L 3122 134 
Q 2881 22 2623 -34 
Q 2366 -91 2075 -91 
Q 1284 -91 818 406 
Q 353 903 353 1747 
Q 353 2603 823 3093 
Q 1294 3584 2113 3584 
Q 2378 3584 2631 3529 
Q 2884 3475 3122 3366 
z
" transform="scale(0.015625)"/>
       <path id="DejaVuSans-74" d="M 1172 4494 
L 1172 3500 
L 2356 3500 
L 2356 3053 
L 1172 3053 
L 1172 1153 
Q 1172 725 1289 603 
Q 1406 481 1766 481 
L 2356 481 
L 2356 0 
L 1766 0 
Q 1100 0 847 248 
Q 594 497 594 1153 
L 594 3053 
L 172 3053 
L 172 3500 
L 594 3500 
L 594 4494 
L 1172 4494 
z
" transform="scale(0.015625)"/>
       <path id="DejaVuSans-61" d="M 2194 1759 
Q 1497 1759 1228 1600 
Q 959 1441 959 1056 
Q 959 750 1161 570 
Q 1363 391 1709 391 
Q 2188 391 2477 730 
Q 2766 1069 2766 1631 
L 2766 1759 
L 2194 1759 
z
M 3341 1997 
L 3341 0 
L 2766 0 
L 2766 531 
Q 2569 213 2275 61 
Q 1981 -91 1556 -91 
Q 1019 -91 701 211 
Q 384 513 384 1019 
Q 384 1609 779 1909 
Q 1175 2209 1959 2209 
L 2766 2209 
L 2766 2266 
Q 2766 2663 2505 2880 
Q 2244 3097 1772 3097 
Q 1472 3097 1187 3025 
Q 903 2953 641 2809 
L 641 3341 
Q 956 3463 1253 3523 
Q 1550 3584 1831 3584 
Q 2591 3584 2966 3190 
Q 3341 2797 3341 1997 
z
" transform="scale(0.015625)"/>
       <path id="DejaVuSans-6c" d="M 603 4863 
L 1178 4863 
L 1178 0 
L 603 0 
L 603 4863 
z
" transform="scale(0.015625)"/>
       <path id="DejaVuSans-6e" d="M 3513 2113 
L 3513 0 
L 2938 0 
L 2938 2094 
Q 2938 2591 2744 2837 
Q 2550 3084 2163 3084 
Q 1697 3084 1428 2787 
Q 1159 2491 1159 1978 
L 1159 0 
L 581 0 
L 581 3500 
L 1159 3500 
L 1159 2956 
Q 1366 3272 1645 3428 
Q 1925 3584 2291 3584 
Q 2894 3584 3203 3211 
Q 3513 2838 3513 2113 
z
" transform="scale(0.015625)"/>
       <path id="DejaVuSans-41" d="M 2188 4044 
L 1331 1722 
L 3047 1722 
L 2188 4044 
z
M 1831 4666 
L 2547 4666 
L 4325 0 
L 3669 0 
L 3244 1197 
L 1141 1197 
L 716 0 
L 50 0 
L 1831 4666 
z
" transform="scale(0.015625)"/>
       <path id="DejaVuSans-67" d="M 2906 1791 
Q 2906 2416 2648 2759 
Q 2391 3103 1925 3103 
Q 1463 3103 1205 2759 
Q 947 2416 947 1791 
Q 947 1169 1205 825 
Q 1463 481 1925 481 
Q 2391 481 2648 825 
Q 2906 1169 2906 1791 
z
M 3481 434 
Q 3481 -459 3084 -895 
Q 2688 -1331 1869 -1331 
Q 1566 -1331 1297 -1286 
Q 1028 -1241 775 -1147 
L 775 -588 
Q 1028 -725 1275 -790 
Q 1522 -856 1778 -856 
Q 2344 -856 2625 -561 
Q 2906 -266 2906 331 
L 2906 616 
Q 2728 306 2450 153 
Q 2172 0 1784 0 
Q 1141 0 747 490 
Q 353 981 353 1791 
Q 353 2603 747 3093 
Q 1141 3584 1784 3584 
Q 2172 3584 2450 3431 
Q 2728 3278 2906 2969 
L 2906 3500 
L 3481 3500 
L 3481 434 
z
" transform="scale(0.015625)"/>
      </defs>
      <use xlink:href="#DejaVuSans-53"/>
      <use xlink:href="#DejaVuSans-70" x="63.476562"/>
      <use xlink:href="#DejaVuSans-65" x="126.953125"/>
      <use xlink:href="#DejaVuSans-63" x="188.476562"/>
      <use xlink:href="#DejaVuSans-74" x="243.457031"/>
      <use xlink:href="#DejaVuSans-72" x="282.666016"/>
      <use xlink:href="#DejaVuSans-61" x="323.779297"/>
      <use xlink:href="#DejaVuSans-6c" x="385.058594"/>
      <use xlink:href="#DejaVuSans-20" x="412.841797"/>
      <use xlink:href="#DejaVuSans-61" x="444.628906"/>
      <use xlink:href="#DejaVuSans-63" x="505.908203"/>
      <use xlink:href="#DejaVuSans-63" x="560.888672"/>
      <use xlink:href="#DejaVuSans-65" x="615.869141"/>
      <use xlink:href="#DejaVuSans-6c" x="677.392578"/>
      <use xlink:href="#DejaVuSans-65" x="705.175781"/>
      <use xlink:href="#DejaVuSans-72" x="766.699219"/>
      <use xlink:href="#DejaVuSans-61" x="807.8125"/>
      <use xlink:href="#DejaVuSans-74" x="869.091797"/>
      <use xlink:href="#DejaVuSans-69" x="908.300781"/>
      <use xlink:href="#DejaVuSans-6f" x="936.083984"/>
      <use xlink:href="#DejaVuSans-6e" x="997.265625"/>
      <use xlink:href="#DejaVuSans-2c" x="1060.644531"/>
      <use xlink:href="#DejaVuSans-20" x="1092.431641"/>
      <use xlink:href="#DejaVuSans-53" x="1124.21875"/>
      <use xlink:href="#DejaVuSans-41" x="1189.570312"/>
      <use xlink:href="#DejaVuSans-20" x="1257.978516"/>
      <use xlink:href="#DejaVuSans-28" x="1289.765625"/>
      <use xlink:href="#DejaVuSans-67" x="1328.779297"/>
      <use xlink:href="#DejaVuSans-29" x="1392.255859"/>
     </g>
    </g>
   </g>
   <g id="line2d_65">
    <path d="M 53.721227 53.341202 
L 73.459257 49.346536 
L 87.463612 50.724926 
L 98.326234 49.890996 
L 107.201642 50.298938 
L 121.205997 46.381421 
L 130.384708 43.79988 
L 132.068618 44.084898 
L 151.806648 42.281554 
L 165.811003 44.655206 
L 178.582888 50.408986 
L 185.549033 57.074235 
L 199.553388 64.786549 
L 219.291418 80.08632 
L 233.295773 95.904082 
" clip-path="url(#p8c8d942165)" style="fill: none; stroke: #b2b2b2; stroke-width: 0.8; stroke-linecap: square"/>
   </g>
   <g id="line2d_66">
    <path d="M 53.721227 44.771732 
L 73.459257 37.523529 
L 87.463612 32.60742 
L 98.326234 32.671488 
L 107.201642 31.710024 
L 121.205997 37.193047 
L 130.384708 43.79988 
L 132.068618 45.846414 
L 151.806648 57.577772 
L 165.811003 64.059008 
L 178.582888 66.47656 
L 185.549033 68.475073 
L 199.553388 74.46377 
L 219.291418 86.298198 
L 233.295773 103.371819 
" clip-path="url(#p8c8d942165)" style="fill: none; stroke: #b2b2b2; stroke-width: 0.8; stroke-linecap: square"/>
   </g>
   <g id="line2d_67">
    <path d="M 53.721227 27.113502 
L 73.459257 27.237932 
L 87.463612 27.425254 
L 98.326234 28.571326 
L 107.201642 32.037752 
L 121.205997 38.403396 
L 130.384708 43.79988 
L 132.068618 44.574073 
L 151.806648 53.702468 
L 165.811003 63.110462 
L 178.582888 68.297226 
L 185.549033 68.399641 
L 199.553388 69.487509 
L 219.291418 81.796958 
L 233.295773 94.975675 
" clip-path="url(#p8c8d942165)" style="fill: none; stroke: #b2b2b2; stroke-width: 0.8; stroke-linecap: square"/>
   </g>
   <g id="line2d_68">
    <path d="M 53.721227 58.42766 
L 73.459257 54.165768 
L 87.463612 51.358289 
L 98.326234 47.195563 
L 107.201642 44.533978 
L 121.205997 44.229181 
L 130.384708 43.79988 
L 132.068618 42.861597 
L 151.806648 43.915959 
L 165.811003 44.467929 
L 178.582888 50.024303 
L 185.549033 54.731919 
L 199.553388 67.490478 
L 219.291418 89.431059 
L 233.295773 104.676209 
" clip-path="url(#p8c8d942165)" style="fill: none; stroke: #b2b2b2; stroke-width: 0.8; stroke-linecap: square"/>
   </g>
   <g id="line2d_69">
    <path d="M 53.721227 40.191561 
L 73.459257 38.780513 
L 87.463612 37.041835 
L 98.326234 36.250787 
L 107.201642 41.573552 
L 121.205997 43.173444 
L 130.384708 43.79988 
L 132.068618 44.734715 
L 151.806648 51.680224 
L 165.811003 59.481806 
L 178.582888 64.884833 
L 185.549033 68.378027 
L 199.553388 78.328841 
L 219.291418 99.57908 
L 233.295773 116.929049 
" clip-path="url(#p8c8d942165)" style="fill: none; stroke: #b2b2b2; stroke-width: 0.8; stroke-linecap: square"/>
   </g>
   <g id="line2d_70">
    <path d="M 53.721227 58.095695 
L 73.459257 55.483615 
L 87.463612 53.669309 
L 98.326234 52.537141 
L 107.201642 49.209769 
L 121.205997 45.196312 
L 130.384708 43.79988 
L 132.068618 44.684565 
L 151.806648 45.908295 
L 165.811003 47.72268 
L 178.582888 50.17885 
L 185.549033 52.323798 
L 199.553388 61.467036 
L 219.291418 75.003678 
L 233.295773 88.80656 
" clip-path="url(#p8c8d942165)" style="fill: none; stroke: #b2b2b2; stroke-width: 0.8; stroke-linecap: square"/>
   </g>
   <g id="line2d_71">
    <path d="M 53.721227 52.966417 
L 73.459257 48.561872 
L 87.463612 45.855432 
L 98.326234 41.429243 
L 107.201642 40.128359 
L 121.205997 41.214195 
L 130.384708 43.79988 
L 132.068618 44.612662 
L 151.806648 50.14864 
L 165.811003 54.577729 
L 178.582888 54.155487 
L 185.549033 59.144188 
L 199.553388 65.081608 
L 219.291418 77.163229 
L 233.295773 88.265899 
" clip-path="url(#p8c8d942165)" style="fill: none; stroke: #b2b2b2; stroke-width: 0.8; stroke-linecap: square"/>
   </g>
   <g id="line2d_72">
    <path d="M 53.721227 52.587118 
L 73.459257 49.103495 
L 87.463612 45.611607 
L 98.326234 44.20024 
L 107.201642 43.940419 
L 121.205997 42.03849 
L 130.384708 43.79988 
L 132.068618 44.160321 
L 151.806648 47.127995 
L 165.811003 52.438033 
L 178.582888 56.983681 
L 185.549033 61.495325 
L 199.553388 73.573589 
L 219.291418 91.197484 
L 233.295773 107.090249 
" clip-path="url(#p8c8d942165)" style="fill: none; stroke: #b2b2b2; stroke-width: 0.8; stroke-linecap: square"/>
   </g>
   <g id="line2d_73">
    <path d="M 53.721227 52.097853 
L 73.459257 47.961566 
L 87.463612 44.184539 
L 98.326234 41.736393 
L 107.201642 40.875743 
L 121.205997 42.580322 
L 130.384708 43.79988 
L 132.068618 43.75243 
L 151.806648 52.304872 
L 165.811003 60.882426 
L 178.582888 67.240381 
L 185.549033 69.700426 
L 199.553388 76.298306 
L 219.291418 92.657804 
L 233.295773 109.612104 
" clip-path="url(#p8c8d942165)" style="fill: none; stroke: #b2b2b2; stroke-width: 0.8; stroke-linecap: square"/>
   </g>
   <g id="line2d_74">
    <path d="M 53.721227 32.298531 
L 73.459257 30.922235 
L 87.463612 32.36251 
L 98.326234 32.781918 
L 107.201642 34.594116 
L 121.205997 40.694979 
L 130.384708 43.79988 
L 132.068618 44.511549 
L 151.806648 59.6571 
L 165.811003 67.133574 
L 178.582888 75.556878 
L 185.549033 79.316165 
L 199.553388 87.548421 
L 219.291418 104.071519 
L 233.295773 117.05924 
" clip-path="url(#p8c8d942165)" style="fill: none; stroke: #b2b2b2; stroke-width: 0.8; stroke-linecap: square"/>
   </g>
   <g id="line2d_75">
    <path d="M 53.721227 33.65042 
L 73.459257 31.466546 
L 87.463612 32.277105 
L 98.326234 33.876676 
L 107.201642 36.442104 
L 121.205997 39.493272 
L 130.384708 43.79988 
L 132.068618 44.559283 
L 151.806648 56.076704 
L 165.811003 61.936467 
L 178.582888 66.405505 
L 185.549033 68.972701 
L 199.553388 75.863117 
L 219.291418 83.235085 
L 233.295773 92.189 
" clip-path="url(#p8c8d942165)" style="fill: none; stroke: #b2b2b2; stroke-width: 0.8; stroke-linecap: square"/>
   </g>
   <g id="line2d_76">
    <path d="M 53.721227 30.510754 
L 73.459257 33.625524 
L 87.463612 33.244611 
L 98.326234 33.514711 
L 107.201642 36.176577 
L 121.205997 42.755705 
L 130.384708 43.79988 
L 132.068618 43.479106 
L 151.806648 53.989668 
L 165.811003 64.361578 
L 178.582888 72.702815 
L 185.549033 78.216825 
L 199.553388 85.835919 
L 219.291418 96.590777 
L 233.295773 104.786242 
" clip-path="url(#p8c8d942165)" style="fill: none; stroke: #b2b2b2; stroke-width: 0.8; stroke-linecap: square"/>
   </g>
   <g id="line2d_77">
    <path d="M 53.721227 47.37524 
L 73.459257 42.042477 
L 87.463612 40.590947 
L 98.326234 41.690478 
L 107.201642 40.540279 
L 121.205997 43.242278 
L 130.384708 43.79988 
L 132.068618 44.848131 
L 151.806648 50.162497 
L 165.811003 48.800776 
L 178.582888 54.927611 
L 185.549033 59.899938 
L 199.553388 72.806697 
L 219.291418 98.245892 
L 233.295773 116.563689 
" clip-path="url(#p8c8d942165)" style="fill: none; stroke: #b2b2b2; stroke-width: 0.8; stroke-linecap: square"/>
   </g>
   <g id="line2d_78">
    <path d="M 53.721227 53.495798 
L 73.459257 49.368693 
L 87.463612 48.467621 
L 98.326234 49.233835 
L 107.201642 47.627801 
L 121.205997 44.40087 
L 130.384708 43.79988 
L 132.068618 43.707932 
L 151.806648 45.669562 
L 165.811003 52.526589 
L 178.582888 55.762358 
L 185.549033 58.360973 
L 199.553388 67.848052 
L 219.291418 79.27878 
L 233.295773 89.20831 
" clip-path="url(#p8c8d942165)" style="fill: none; stroke: #b2b2b2; stroke-width: 0.8; stroke-linecap: square"/>
   </g>
   <g id="line2d_79">
    <path d="M 53.721227 50.925727 
L 73.459257 47.270217 
L 87.463612 47.088173 
L 98.326234 48.058044 
L 107.201642 45.464127 
L 121.205997 44.807396 
L 130.384708 43.79988 
L 132.068618 44.435297 
L 151.806648 42.912471 
L 165.811003 45.001664 
L 178.582888 45.967687 
L 185.549033 45.884753 
L 199.553388 52.816907 
L 219.291418 63.598189 
L 233.295773 71.675904 
" clip-path="url(#p8c8d942165)" style="fill: none; stroke: #b2b2b2; stroke-width: 0.8; stroke-linecap: square"/>
   </g>
   <g id="line2d_80">
    <path d="M 53.721227 38.09613 
L 73.459257 38.114898 
L 87.463612 38.030025 
L 98.326234 39.12156 
L 107.201642 42.849583 
L 121.205997 43.805058 
L 130.384708 43.79988 
L 132.068618 43.785704 
L 151.806648 50.471899 
L 165.811003 60.035633 
L 178.582888 71.035174 
L 185.549033 75.98577 
L 199.553388 88.665076 
L 219.291418 101.621792 
L 233.295773 112.579021 
" clip-path="url(#p8c8d942165)" style="fill: none; stroke: #b2b2b2; stroke-width: 0.8; stroke-linecap: square"/>
   </g>
   <g id="line2d_81">
    <path d="M 53.721227 42.74225 
L 73.459257 35.653764 
L 87.463612 39.103914 
L 98.326234 40.198941 
L 107.201642 40.004907 
L 121.205997 42.163671 
L 130.384708 43.79988 
L 132.068618 45.975896 
L 151.806648 54.954053 
L 165.811003 62.907092 
L 178.582888 69.140177 
L 185.549033 75.543186 
L 199.553388 82.314146 
L 219.291418 95.206865 
L 233.295773 108.919892 
" clip-path="url(#p8c8d942165)" style="fill: none; stroke: #b2b2b2; stroke-width: 0.8; stroke-linecap: square"/>
   </g>
   <g id="line2d_82">
    <path d="M 53.721227 37.496187 
L 73.459257 34.524718 
L 87.463612 31.566256 
L 98.326234 33.208562 
L 107.201642 34.884805 
L 121.205997 39.633572 
L 130.384708 43.79988 
L 132.068618 45.196249 
L 151.806648 51.318912 
L 165.811003 53.105529 
L 178.582888 63.592025 
L 185.549033 68.603402 
L 199.553388 78.070297 
L 219.291418 89.361991 
L 233.295773 96.267876 
" clip-path="url(#p8c8d942165)" style="fill: none; stroke: #b2b2b2; stroke-width: 0.8; stroke-linecap: square"/>
   </g>
   <g id="line2d_83">
    <path d="M 53.721227 39.795978 
L 73.459257 36.87858 
L 87.463612 37.530084 
L 98.326234 39.300411 
L 107.201642 41.748127 
L 121.205997 41.813481 
L 130.384708 43.79988 
L 132.068618 46.101288 
L 151.806648 53.334444 
L 165.811003 59.249772 
L 178.582888 65.431346 
L 185.549033 69.475638 
L 199.553388 77.472921 
L 219.291418 89.848349 
L 233.295773 101.00414 
" clip-path="url(#p8c8d942165)" style="fill: none; stroke: #b2b2b2; stroke-width: 0.8; stroke-linecap: square"/>
   </g>
   <g id="line2d_84">
    <path d="M 53.721227 36.627904 
L 73.459257 35.69749 
L 87.463612 37.7496 
L 98.326234 38.946086 
L 107.201642 41.391408 
L 121.205997 41.7871 
L 130.384708 43.79988 
L 132.068618 44.001579 
L 151.806648 50.559644 
L 165.811003 58.421474 
L 178.582888 67.035874 
L 185.549033 73.537544 
L 199.553388 85.582111 
L 219.291418 102.616456 
L 233.295773 110.517785 
" clip-path="url(#p8c8d942165)" style="fill: none; stroke: #b2b2b2; stroke-width: 0.8; stroke-linecap: square"/>
   </g>
   <g id="line2d_85">
    <path d="M 53.721227 41.503706 
L 73.459257 42.220278 
L 87.463612 39.864105 
L 98.326234 40.954577 
L 107.201642 42.155489 
L 121.205997 42.020894 
L 130.384708 43.79988 
L 132.068618 45.012467 
L 151.806648 52.292148 
L 165.811003 57.324811 
L 178.582888 64.501023 
L 185.549033 69.61244 
L 199.553388 75.629692 
L 219.291418 80.833559 
L 233.295773 88.500826 
" clip-path="url(#p8c8d942165)" style="fill: none; stroke: #b2b2b2; stroke-width: 0.8; stroke-linecap: square"/>
   </g>
   <g id="line2d_86">
    <path d="M 53.721227 41.289188 
L 73.459257 38.420825 
L 87.463612 37.719494 
L 98.326234 40.468225 
L 107.201642 41.759892 
L 121.205997 41.414293 
L 130.384708 43.79988 
L 132.068618 43.210553 
L 151.806648 46.685658 
L 165.811003 51.313674 
L 178.582888 61.345375 
L 185.549033 67.080874 
L 199.553388 81.419525 
L 219.291418 91.812839 
L 233.295773 103.621605 
" clip-path="url(#p8c8d942165)" style="fill: none; stroke: #b2b2b2; stroke-width: 0.8; stroke-linecap: square"/>
   </g>
   <g id="line2d_87">
    <path d="M 53.721227 35.198643 
L 73.459257 35.554073 
L 87.463612 37.027304 
L 98.326234 36.6491 
L 107.201642 39.808527 
L 121.205997 42.881114 
L 130.384708 43.79988 
L 132.068618 43.742975 
L 151.806648 45.419559 
L 165.811003 54.327723 
L 178.582888 58.188959 
L 185.549033 61.648787 
L 199.553388 66.457157 
L 219.291418 76.341937 
L 233.295773 88.611284 
" clip-path="url(#p8c8d942165)" style="fill: none; stroke: #b2b2b2; stroke-width: 0.8; stroke-linecap: square"/>
   </g>
   <g id="line2d_88">
    <path d="M 53.721227 42.038219 
L 73.459257 39.342482 
L 87.463612 38.500763 
L 98.326234 36.323 
L 107.201642 38.263173 
L 121.205997 41.153287 
L 130.384708 43.79988 
L 132.068618 43.331541 
L 151.806648 50.302382 
L 165.811003 55.806855 
L 178.582888 61.172648 
L 185.549033 65.796146 
L 199.553388 69.562948 
L 219.291418 79.357486 
L 233.295773 88.191852 
" clip-path="url(#p8c8d942165)" style="fill: none; stroke: #b2b2b2; stroke-width: 0.8; stroke-linecap: square"/>
   </g>
   <g id="line2d_89">
    <path d="M 53.721227 47.394362 
L 73.459257 45.784369 
L 87.463612 45.493154 
L 98.326234 43.397976 
L 107.201642 43.764711 
L 121.205997 42.007836 
L 130.384708 43.79988 
L 132.068618 43.122697 
L 151.806648 45.718394 
L 165.811003 54.222984 
L 178.582888 61.611381 
L 185.549033 68.399872 
L 199.553388 80.34826 
L 219.291418 93.026229 
L 233.295773 100.873246 
" clip-path="url(#p8c8d942165)" style="fill: none; stroke: #b2b2b2; stroke-width: 0.8; stroke-linecap: square"/>
   </g>
   <g id="line2d_90">
    <path d="M 53.721227 48.561038 
L 73.459257 45.999638 
L 87.463612 43.888043 
L 98.326234 42.187955 
L 107.201642 38.633203 
L 121.205997 39.77932 
L 130.384708 43.79988 
L 132.068618 44.292128 
L 151.806648 45.502994 
L 165.811003 49.1527 
L 178.582888 52.048352 
L 185.549033 54.321389 
L 199.553388 62.114668 
L 219.291418 75.769682 
L 233.295773 91.433335 
" clip-path="url(#p8c8d942165)" style="fill: none; stroke: #b2b2b2; stroke-width: 0.8; stroke-linecap: square"/>
   </g>
   <g id="line2d_91">
    <path d="M 53.721227 50.121079 
L 73.459257 48.483843 
L 87.463612 46.830757 
L 98.326234 47.018891 
L 107.201642 45.437957 
L 121.205997 43.507023 
L 130.384708 43.79988 
L 132.068618 44.077735 
L 151.806648 51.91787 
L 165.811003 57.825936 
L 178.582888 66.108813 
L 185.549033 70.775724 
L 199.553388 82.835444 
L 219.291418 99.302282 
L 233.295773 109.205237 
" clip-path="url(#p8c8d942165)" style="fill: none; stroke: #b2b2b2; stroke-width: 0.8; stroke-linecap: square"/>
   </g>
   <g id="line2d_92">
    <path d="M 53.721227 38.525109 
L 73.459257 35.922037 
L 87.463612 35.094363 
L 98.326234 36.266708 
L 107.201642 35.840946 
L 121.205997 40.447914 
L 130.384708 43.79988 
L 132.068618 44.142855 
L 151.806648 48.667516 
L 165.811003 52.322227 
L 178.582888 59.788284 
L 185.549033 61.041829 
L 199.553388 68.289171 
L 219.291418 81.45751 
L 233.295773 101.292547 
" clip-path="url(#p8c8d942165)" style="fill: none; stroke: #b2b2b2; stroke-width: 0.8; stroke-linecap: square"/>
   </g>
   <g id="line2d_93">
    <path d="M 53.721227 29.915492 
L 73.459257 27.977758 
L 87.463612 26.682874 
L 98.326234 29.695791 
L 107.201642 32.172242 
L 121.205997 38.923997 
L 130.384708 43.79988 
L 132.068618 43.774423 
L 151.806648 52.929705 
L 165.811003 56.645022 
L 178.582888 59.219447 
L 185.549033 60.157442 
L 199.553388 65.00426 
L 219.291418 72.030389 
L 233.295773 84.674829 
" clip-path="url(#p8c8d942165)" style="fill: none; stroke: #b2b2b2; stroke-width: 0.8; stroke-linecap: square"/>
   </g>
   <g id="line2d_94">
    <path d="M 53.721227 56.218503 
L 73.459257 49.809517 
L 87.463612 46.751468 
L 98.326234 44.357424 
L 107.201642 41.659111 
L 121.205997 43.128703 
L 130.384708 43.79988 
L 132.068618 44.308305 
L 151.806648 52.670759 
L 165.811003 61.262408 
L 178.582888 71.826584 
L 185.549033 75.371195 
L 199.553388 85.329905 
L 219.291418 98.805582 
L 233.295773 114.20037 
" clip-path="url(#p8c8d942165)" style="fill: none; stroke: #b2b2b2; stroke-width: 0.8; stroke-linecap: square"/>
   </g>
   <g id="line2d_95">
    <path d="M 53.721227 44.027337 
L 73.459257 40.815646 
L 87.463612 40.348354 
L 98.326234 40.790965 
L 107.201642 43.381485 
L 121.205997 42.475884 
L 130.384708 43.79988 
L 132.068618 44.707901 
L 151.806648 50.231005 
L 165.811003 55.155945 
L 178.582888 63.057825 
L 185.549033 66.042537 
L 199.553388 69.538831 
L 219.291418 74.001631 
L 233.295773 82.849397 
" clip-path="url(#p8c8d942165)" style="fill: none; stroke: #b2b2b2; stroke-width: 0.8; stroke-linecap: square"/>
   </g>
   <g id="line2d_96">
    <path d="M 53.721227 62.136662 
L 73.459257 56.955883 
L 87.463612 49.784896 
L 98.326234 47.907203 
L 107.201642 45.977337 
L 121.205997 43.248474 
L 130.384708 43.79988 
L 132.068618 42.342614 
L 151.806648 39.879489 
L 165.811003 38.177552 
L 178.582888 43.046589 
L 185.549033 47.592915 
L 199.553388 53.697101 
L 219.291418 72.393172 
L 233.295773 85.996776 
" clip-path="url(#p8c8d942165)" style="fill: none; stroke: #b2b2b2; stroke-width: 0.8; stroke-linecap: square"/>
   </g>
   <g id="line2d_97">
    <path d="M 53.721227 49.793955 
L 73.459257 41.613183 
L 87.463612 38.03308 
L 98.326234 40.443476 
L 107.201642 42.55236 
L 121.205997 44.563582 
L 130.384708 43.79988 
L 132.068618 43.605154 
L 151.806648 44.769272 
L 165.811003 49.624639 
L 178.582888 49.929938 
L 185.549033 50.578525 
L 199.553388 59.347466 
L 219.291418 70.251734 
L 233.295773 83.325587 
" clip-path="url(#p8c8d942165)" style="fill: none; stroke: #b2b2b2; stroke-width: 0.8; stroke-linecap: square"/>
   </g>
   <g id="line2d_98">
    <path d="M 53.721227 64.363487 
L 73.459257 57.850906 
L 87.463612 52.753572 
L 98.326234 50.479455 
L 107.201642 47.317796 
L 121.205997 43.6781 
L 130.384708 43.79988 
L 132.068618 44.198505 
L 151.806648 47.421133 
L 165.811003 50.709861 
L 178.582888 55.524447 
L 185.549033 55.730457 
L 199.553388 62.002852 
L 219.291418 77.413292 
L 233.295773 91.73968 
" clip-path="url(#p8c8d942165)" style="fill: none; stroke: #b2b2b2; stroke-width: 0.8; stroke-linecap: square"/>
   </g>
   <g id="line2d_99">
    <path d="M 53.721227 48.178799 
L 73.459257 45.169437 
L 87.463612 41.350286 
L 98.326234 43.121663 
L 107.201642 43.950354 
L 121.205997 43.543151 
L 130.384708 43.79988 
L 132.068618 43.273782 
L 151.806648 48.295038 
L 165.811003 54.720147 
L 178.582888 59.437051 
L 185.549033 61.277987 
L 199.553388 68.078616 
L 219.291418 77.716828 
L 233.295773 81.755622 
" clip-path="url(#p8c8d942165)" style="fill: none; stroke: #b2b2b2; stroke-width: 0.8; stroke-linecap: square"/>
   </g>
   <g id="line2d_100">
    <path d="M 53.721227 35.425849 
L 73.459257 34.836169 
L 87.463612 34.179906 
L 98.326234 36.606451 
L 107.201642 37.887706 
L 121.205997 40.396007 
L 130.384708 43.79988 
L 132.068618 44.457587 
L 151.806648 46.971733 
L 165.811003 50.399211 
L 178.582888 57.562565 
L 185.549033 62.965206 
L 199.553388 69.942352 
L 219.291418 85.485888 
L 233.295773 98.681416 
" clip-path="url(#p8c8d942165)" style="fill: none; stroke: #b2b2b2; stroke-width: 0.8; stroke-linecap: square"/>
   </g>
   <g id="line2d_101">
    <path d="M 53.721227 41.460038 
L 73.459257 36.134742 
L 87.463612 35.927209 
L 98.326234 37.075689 
L 107.201642 37.896342 
L 121.205997 40.692959 
L 130.384708 43.79988 
L 132.068618 44.71412 
L 151.806648 52.695274 
L 165.811003 57.057544 
L 178.582888 61.699466 
L 185.549033 68.40002 
L 199.553388 77.941164 
L 219.291418 97.911365 
L 233.295773 109.310259 
" clip-path="url(#p8c8d942165)" style="fill: none; stroke: #b2b2b2; stroke-width: 0.8; stroke-linecap: square"/>
   </g>
   <g id="line2d_102">
    <path d="M 53.721227 53.615584 
L 73.459257 51.278787 
L 87.463612 49.307856 
L 98.326234 45.61931 
L 107.201642 43.306784 
L 121.205997 43.343667 
L 130.384708 43.79988 
L 132.068618 44.188337 
L 151.806648 49.522653 
L 165.811003 57.873757 
L 178.582888 64.83647 
L 185.549033 67.806728 
L 199.553388 76.433935 
L 219.291418 87.632135 
L 233.295773 101.201552 
" clip-path="url(#p8c8d942165)" style="fill: none; stroke: #b2b2b2; stroke-width: 0.8; stroke-linecap: square"/>
   </g>
   <g id="line2d_103">
    <path d="M 53.721227 65.368967 
L 73.459257 60.126012 
L 87.463612 56.974021 
L 98.326234 54.959026 
L 107.201642 52.128565 
L 121.205997 46.551028 
L 130.384708 43.79988 
L 132.068618 43.91137 
L 151.806648 43.341376 
L 165.811003 43.72842 
L 178.582888 48.63794 
L 185.549033 50.943094 
L 199.553388 59.199202 
L 219.291418 76.584343 
L 233.295773 91.532795 
" clip-path="url(#p8c8d942165)" style="fill: none; stroke: #b2b2b2; stroke-width: 0.8; stroke-linecap: square"/>
   </g>
   <g id="line2d_104">
    <path d="M 53.721227 56.852775 
L 73.459257 52.871577 
L 87.463612 48.588155 
L 98.326234 45.640828 
L 107.201642 45.38235 
L 121.205997 45.029395 
L 130.384708 43.79988 
L 132.068618 43.752897 
L 151.806648 44.195406 
L 165.811003 46.092777 
L 178.582888 48.588111 
L 185.549033 52.757124 
L 199.553388 57.747932 
L 219.291418 73.381712 
L 233.295773 83.394969 
" clip-path="url(#p8c8d942165)" style="fill: none; stroke: #b2b2b2; stroke-width: 0.8; stroke-linecap: square"/>
   </g>
   <g id="line2d_105">
    <path d="M 53.721227 32.111899 
L 73.459257 33.389042 
L 87.463612 34.687223 
L 98.326234 36.650429 
L 107.201642 37.045124 
L 121.205997 41.390703 
L 130.384708 43.79988 
L 132.068618 44.494161 
L 151.806648 51.795019 
L 165.811003 53.335823 
L 178.582888 61.78982 
L 185.549033 63.070488 
L 199.553388 69.892377 
L 219.291418 81.684629 
L 233.295773 99.670219 
" clip-path="url(#p8c8d942165)" style="fill: none; stroke: #b2b2b2; stroke-width: 0.8; stroke-linecap: square"/>
   </g>
   <g id="line2d_106">
    <path d="M 53.721227 42.802373 
L 73.459257 46.02568 
L 87.463612 44.554411 
L 98.326234 44.233794 
L 107.201642 41.593174 
L 121.205997 42.046555 
L 130.384708 43.79988 
L 132.068618 43.099481 
L 151.806648 50.699915 
L 165.811003 55.965615 
L 178.582888 59.554366 
L 185.549033 63.989031 
L 199.553388 70.103806 
L 219.291418 83.368665 
L 233.295773 97.21802 
" clip-path="url(#p8c8d942165)" style="fill: none; stroke: #b2b2b2; stroke-width: 0.8; stroke-linecap: square"/>
   </g>
   <g id="line2d_107">
    <path d="M 53.721227 48.619843 
L 73.459257 45.018621 
L 87.463612 40.978647 
L 98.326234 39.701728 
L 107.201642 39.028133 
L 121.205997 40.646149 
L 130.384708 43.79988 
L 132.068618 44.355355 
L 151.806648 45.941268 
L 165.811003 48.130525 
L 178.582888 55.340396 
L 185.549033 58.927386 
L 199.553388 61.92553 
L 219.291418 74.308644 
L 233.295773 84.953832 
" clip-path="url(#p8c8d942165)" style="fill: none; stroke: #b2b2b2; stroke-width: 0.8; stroke-linecap: square"/>
   </g>
   <g id="line2d_108">
    <path d="M 53.721227 13.1472 
L 73.459257 15.577389 
L 87.463612 21.092102 
L 98.326234 26.791193 
L 107.201642 29.726307 
L 121.205997 36.488145 
L 130.384708 43.79988 
L 132.068618 44.785369 
L 151.806648 55.482627 
L 165.811003 64.733299 
L 178.582888 76.971547 
L 185.549033 83.807157 
L 199.553388 97.942164 
L 219.291418 115.988589 
L 233.295773 132.0912 
" clip-path="url(#p8c8d942165)" style="fill: none; stroke: #b2b2b2; stroke-width: 0.8; stroke-linecap: square"/>
   </g>
   <g id="line2d_109">
    <path d="M 53.721227 34.830617 
L 73.459257 27.024548 
L 87.463612 27.468009 
L 98.326234 31.352273 
L 107.201642 36.502561 
L 121.205997 41.046024 
L 130.384708 43.79988 
L 132.068618 44.376554 
L 151.806648 49.652076 
L 165.811003 54.950912 
L 178.582888 59.115109 
L 185.549033 65.336053 
L 199.553388 74.14137 
L 219.291418 91.437662 
L 233.295773 104.24539 
" clip-path="url(#p8c8d942165)" style="fill: none; stroke: #b2b2b2; stroke-width: 0.8; stroke-linecap: square"/>
   </g>
   <g id="line2d_110">
    <path d="M 53.721227 59.162774 
L 73.459257 55.775824 
L 87.463612 54.204057 
L 98.326234 53.575098 
L 107.201642 50.768085 
L 121.205997 45.793096 
L 130.384708 43.79988 
L 132.068618 43.602656 
L 151.806648 44.937752 
L 165.811003 52.799819 
L 178.582888 63.331326 
L 185.549033 68.880563 
L 199.553388 82.798633 
L 219.291418 102.095025 
L 233.295773 117.254996 
" clip-path="url(#p8c8d942165)" style="fill: none; stroke: #b2b2b2; stroke-width: 0.8; stroke-linecap: square"/>
   </g>
   <g id="line2d_111">
    <path d="M 53.721227 32.499421 
L 73.459257 31.63711 
L 87.463612 31.864146 
L 98.326234 35.968305 
L 107.201642 38.725207 
L 121.205997 40.688626 
L 130.384708 43.79988 
L 132.068618 45.128344 
L 151.806648 56.742169 
L 165.811003 65.304585 
L 178.582888 73.961742 
L 185.549033 79.016558 
L 199.553388 91.153623 
L 219.291418 109.317369 
L 233.295773 124.051001 
" clip-path="url(#p8c8d942165)" style="fill: none; stroke: #b2b2b2; stroke-width: 0.8; stroke-linecap: square"/>
   </g>
   <g id="line2d_112">
    <path d="M 53.721227 29.322112 
L 73.459257 29.929741 
L 87.463612 31.893748 
L 98.326234 33.667101 
L 107.201642 35.87174 
L 121.205997 41.399623 
L 130.384708 43.79988 
L 132.068618 45.27147 
L 151.806648 55.293149 
L 165.811003 63.611988 
L 178.582888 76.822972 
L 185.549033 81.323085 
L 199.553388 88.811561 
L 219.291418 103.282651 
L 233.295773 112.565932 
" clip-path="url(#p8c8d942165)" style="fill: none; stroke: #b2b2b2; stroke-width: 0.8; stroke-linecap: square"/>
   </g>
   <g id="line2d_113">
    <path d="M 53.721227 48.450269 
L 73.459257 42.407216 
L 87.463612 39.884529 
L 98.326234 39.786975 
L 107.201642 38.797377 
L 121.205997 41.902282 
L 130.384708 43.79988 
L 132.068618 42.886789 
L 151.806648 43.576869 
L 165.811003 49.430717 
L 178.582888 54.595258 
L 185.549033 60.609293 
L 199.553388 70.55113 
L 219.291418 91.067646 
L 233.295773 106.735863 
" clip-path="url(#p8c8d942165)" style="fill: none; stroke: #b2b2b2; stroke-width: 0.8; stroke-linecap: square"/>
   </g>
   <g id="line2d_114">
    <path d="M 53.721227 52.166006 
L 73.459257 46.356532 
L 87.463612 39.68982 
L 98.326234 39.646937 
L 107.201642 43.101037 
L 121.205997 43.278032 
L 130.384708 43.79988 
L 132.068618 42.878013 
L 151.806648 49.48351 
L 165.811003 53.460328 
L 178.582888 58.128738 
L 185.549033 58.222674 
L 199.553388 65.333562 
L 219.291418 83.836674 
L 233.295773 97.679036 
" clip-path="url(#p8c8d942165)" style="fill: none; stroke: #b2b2b2; stroke-width: 0.8; stroke-linecap: square"/>
   </g>
   <g id="line2d_115">
    <path d="M 53.721227 44.456218 
L 73.459257 41.639491 
L 87.463612 40.388975 
L 98.326234 40.605708 
L 107.201642 40.825498 
L 121.205997 42.306406 
L 130.384708 43.79988 
L 132.068618 44.114337 
L 151.806648 49.555367 
L 165.811003 54.882526 
L 178.582888 60.827645 
L 185.549033 64.789384 
L 199.553388 73.018388 
L 219.291418 87.161918 
L 233.295773 99.712444 
" clip-path="url(#p8c8d942165)" style="fill: none; stroke: #ff0000; stroke-width: 2; stroke-linecap: square"/>
   </g>
   <g id="line2d_116">
    <path d="M 53.721227 23.148209 
L 73.459257 23.08982 
L 87.463612 24.674629 
L 98.326234 27.502492 
L 107.201642 30.869318 
L 121.205997 38.234472 
L 130.384708 43.799879 
L 132.068618 42.307876 
L 151.806648 40.71731 
L 165.811003 41.923173 
L 178.582888 44.783818 
L 185.549033 47.128387 
L 199.553388 52.927146 
L 219.291418 64.447127 
L 233.295773 75.030766 
" clip-path="url(#p8c8d942165)" style="fill: none; stroke-dasharray: 7.4,3.2; stroke-dashoffset: 0; stroke: #ff0000; stroke-width: 2"/>
   </g>
   <g id="line2d_117">
    <path d="M 53.721227 65.764227 
L 73.459257 60.189161 
L 87.463612 56.103321 
L 98.326234 53.708924 
L 107.201642 50.781679 
L 121.205997 46.378339 
L 130.384708 43.79988 
L 132.068618 45.920799 
L 151.806648 58.393423 
L 165.811003 67.841878 
L 178.582888 76.871472 
L 185.549033 82.45038 
L 199.553388 93.109631 
L 219.291418 109.876708 
L 233.295773 124.394122 
" clip-path="url(#p8c8d942165)" style="fill: none; stroke-dasharray: 7.4,3.2; stroke-dashoffset: 0; stroke: #ff0000; stroke-width: 2"/>
   </g>
   <g id="line2d_118">
    <path d="M 53.721227 44.554179 
L 73.459257 41.680777 
L 87.463612 40.358116 
L 98.326234 40.515039 
L 107.201642 40.929349 
L 121.205997 42.169461 
L 130.384708 43.79988 
L 132.068618 44.179197 
L 151.806648 49.535769 
L 165.811003 54.806865 
L 178.582888 60.879006 
L 185.549033 64.700042 
L 199.553388 72.987512 
L 219.291418 87.095733 
L 233.295773 99.745228 
" clip-path="url(#p8c8d942165)" style="fill: none; stroke: #0000ff; stroke-width: 2; stroke-linecap: square"/>
   </g>
   <g id="line2d_119">
    <path d="M 53.721227 23.161849 
L 73.459257 23.054981 
L 87.463612 24.562303 
L 98.326234 27.591035 
L 107.201642 30.987861 
L 121.205997 37.904671 
L 130.384708 43.79988 
L 132.068618 42.578884 
L 151.806648 40.748231 
L 165.811003 41.926915 
L 178.582888 44.685122 
L 185.549033 47.124073 
L 199.553388 52.924913 
L 219.291418 64.332101 
L 233.295773 74.956907 
" clip-path="url(#p8c8d942165)" style="fill: none; stroke-dasharray: 7.4,3.2; stroke-dashoffset: 0; stroke: #0000ff; stroke-width: 2"/>
   </g>
   <g id="line2d_120">
    <path d="M 53.721227 65.946509 
L 73.459257 60.306573 
L 87.463612 56.15393 
L 98.326234 53.439043 
L 107.201642 50.870837 
L 121.205997 46.434251 
L 130.384708 43.79988 
L 132.068618 45.779509 
L 151.806648 58.323307 
L 165.811003 67.686814 
L 178.582888 77.07289 
L 185.549033 82.276011 
L 199.553388 93.05011 
L 219.291418 109.859365 
L 233.295773 124.53355 
" clip-path="url(#p8c8d942165)" style="fill: none; stroke-dasharray: 7.4,3.2; stroke-dashoffset: 0; stroke: #0000ff; stroke-width: 2"/>
   </g>
   <g id="patch_3">
    <path d="M 44.7425 138.0384 
L 44.7425 7.2 
" style="fill: none; stroke: #000000; stroke-width: 0.8; stroke-linejoin: miter; stroke-linecap: square"/>
   </g>
   <g id="patch_4">
    <path d="M 242.2745 138.0384 
L 242.2745 7.2 
" style="fill: none; stroke: #000000; stroke-width: 0.8; stroke-linejoin: miter; stroke-linecap: square"/>
   </g>
   <g id="patch_5">
    <path d="M 44.7425 138.0384 
L 242.2745 138.0384 
" style="fill: none; stroke: #000000; stroke-width: 0.8; stroke-linejoin: miter; stroke-linecap: square"/>
   </g>
   <g id="patch_6">
    <path d="M 44.7425 7.2 
L 242.2745 7.2 
" style="fill: none; stroke: #000000; stroke-width: 0.8; stroke-linejoin: miter; stroke-linecap: square"/>
   </g>
   <g id="legend_1">
    <g id="patch_7">
     <path d="M 247.8745 104.47295 
L 432.5945 104.47295 
Q 434.1945 104.47295 434.1945 102.87295 
L 434.1945 42.36545 
Q 434.1945 40.76545 432.5945 40.76545 
L 247.8745 40.76545 
Q 246.2745 40.76545 246.2745 42.36545 
L 246.2745 102.87295 
Q 246.2745 104.47295 247.8745 104.47295 
z
" style="fill: #ffffff; opacity: 0.8; stroke: #cccccc; stroke-linejoin: miter"/>
    </g>
    <g id="line2d_121">
     <path d="M 249.4745 47.2442 
L 257.4745 47.2442 
L 265.4745 47.2442 
" style="fill: none; stroke: #b2b2b2; stroke-width: 0.8; stroke-linecap: square"/>
    </g>
    <g id="text_7">
     <!-- Individual selected GMs -->
     <g transform="translate(271.8745 50.0442) scale(0.08 -0.08)">
      <defs>
       <path id="DejaVuSans-49" d="M 628 4666 
L 1259 4666 
L 1259 0 
L 628 0 
L 628 4666 
z
" transform="scale(0.015625)"/>
       <path id="DejaVuSans-76" d="M 191 3500 
L 800 3500 
L 1894 563 
L 2988 3500 
L 3597 3500 
L 2284 0 
L 1503 0 
L 191 3500 
z
" transform="scale(0.015625)"/>
       <path id="DejaVuSans-75" d="M 544 1381 
L 544 3500 
L 1119 3500 
L 1119 1403 
Q 1119 906 1312 657 
Q 1506 409 1894 409 
Q 2359 409 2629 706 
Q 2900 1003 2900 1516 
L 2900 3500 
L 3475 3500 
L 3475 0 
L 2900 0 
L 2900 538 
Q 2691 219 2414 64 
Q 2138 -91 1772 -91 
Q 1169 -91 856 284 
Q 544 659 544 1381 
z
M 1991 3584 
L 1991 3584 
z
" transform="scale(0.015625)"/>
       <path id="DejaVuSans-47" d="M 3809 666 
L 3809 1919 
L 2778 1919 
L 2778 2438 
L 4434 2438 
L 4434 434 
Q 4069 175 3628 42 
Q 3188 -91 2688 -91 
Q 1594 -91 976 548 
Q 359 1188 359 2328 
Q 359 3472 976 4111 
Q 1594 4750 2688 4750 
Q 3144 4750 3555 4637 
Q 3966 4525 4313 4306 
L 4313 3634 
Q 3963 3931 3569 4081 
Q 3175 4231 2741 4231 
Q 1884 4231 1454 3753 
Q 1025 3275 1025 2328 
Q 1025 1384 1454 906 
Q 1884 428 2741 428 
Q 3075 428 3337 486 
Q 3600 544 3809 666 
z
" transform="scale(0.015625)"/>
       <path id="DejaVuSans-4d" d="M 628 4666 
L 1569 4666 
L 2759 1491 
L 3956 4666 
L 4897 4666 
L 4897 0 
L 4281 0 
L 4281 4097 
L 3078 897 
L 2444 897 
L 1241 4097 
L 1241 0 
L 628 0 
L 628 4666 
z
" transform="scale(0.015625)"/>
      </defs>
      <use xlink:href="#DejaVuSans-49"/>
      <use xlink:href="#DejaVuSans-6e" x="29.492188"/>
      <use xlink:href="#DejaVuSans-64" x="92.871094"/>
      <use xlink:href="#DejaVuSans-69" x="156.347656"/>
      <use xlink:href="#DejaVuSans-76" x="184.130859"/>
      <use xlink:href="#DejaVuSans-69" x="243.310547"/>
      <use xlink:href="#DejaVuSans-64" x="271.09375"/>
      <use xlink:href="#DejaVuSans-75" x="334.570312"/>
      <use xlink:href="#DejaVuSans-61" x="397.949219"/>
      <use xlink:href="#DejaVuSans-6c" x="459.228516"/>
      <use xlink:href="#DejaVuSans-20" x="487.011719"/>
      <use xlink:href="#DejaVuSans-73" x="518.798828"/>
      <use xlink:href="#DejaVuSans-65" x="570.898438"/>
      <use xlink:href="#DejaVuSans-6c" x="632.421875"/>
      <use xlink:href="#DejaVuSans-65" x="660.205078"/>
      <use xlink:href="#DejaVuSans-63" x="721.728516"/>
      <use xlink:href="#DejaVuSans-74" x="776.708984"/>
      <use xlink:href="#DejaVuSans-65" x="815.917969"/>
      <use xlink:href="#DejaVuSans-64" x="877.441406"/>
      <use xlink:href="#DejaVuSans-20" x="940.917969"/>
      <use xlink:href="#DejaVuSans-47" x="972.705078"/>
      <use xlink:href="#DejaVuSans-4d" x="1050.195312"/>
      <use xlink:href="#DejaVuSans-73" x="1136.474609"/>
     </g>
    </g>
    <g id="line2d_122">
     <path d="M 249.4745 58.9867 
L 257.4745 58.9867 
L 265.4745 58.9867 
" style="fill: none; stroke: #ff0000; stroke-width: 2; stroke-linecap: square"/>
    </g>
    <g id="text_8">
     <!-- GCIM median -->
     <g transform="translate(271.8745 61.7867) scale(0.08 -0.08)">
      <defs>
       <path id="DejaVuSans-43" d="M 4122 4306 
L 4122 3641 
Q 3803 3938 3442 4084 
Q 3081 4231 2675 4231 
Q 1875 4231 1450 3742 
Q 1025 3253 1025 2328 
Q 1025 1406 1450 917 
Q 1875 428 2675 428 
Q 3081 428 3442 575 
Q 3803 722 4122 1019 
L 4122 359 
Q 3791 134 3420 21 
Q 3050 -91 2638 -91 
Q 1578 -91 968 557 
Q 359 1206 359 2328 
Q 359 3453 968 4101 
Q 1578 4750 2638 4750 
Q 3056 4750 3426 4639 
Q 3797 4528 4122 4306 
z
" transform="scale(0.015625)"/>
       <path id="DejaVuSans-6d" d="M 3328 2828 
Q 3544 3216 3844 3400 
Q 4144 3584 4550 3584 
Q 5097 3584 5394 3201 
Q 5691 2819 5691 2113 
L 5691 0 
L 5113 0 
L 5113 2094 
Q 5113 2597 4934 2840 
Q 4756 3084 4391 3084 
Q 3944 3084 3684 2787 
Q 3425 2491 3425 1978 
L 3425 0 
L 2847 0 
L 2847 2094 
Q 2847 2600 2669 2842 
Q 2491 3084 2119 3084 
Q 1678 3084 1418 2786 
Q 1159 2488 1159 1978 
L 1159 0 
L 581 0 
L 581 3500 
L 1159 3500 
L 1159 2956 
Q 1356 3278 1631 3431 
Q 1906 3584 2284 3584 
Q 2666 3584 2933 3390 
Q 3200 3197 3328 2828 
z
" transform="scale(0.015625)"/>
      </defs>
      <use xlink:href="#DejaVuSans-47"/>
      <use xlink:href="#DejaVuSans-43" x="77.490234"/>
      <use xlink:href="#DejaVuSans-49" x="147.314453"/>
      <use xlink:href="#DejaVuSans-4d" x="176.806641"/>
      <use xlink:href="#DejaVuSans-20" x="263.085938"/>
      <use xlink:href="#DejaVuSans-6d" x="294.873047"/>
      <use xlink:href="#DejaVuSans-65" x="392.285156"/>
      <use xlink:href="#DejaVuSans-64" x="453.808594"/>
      <use xlink:href="#DejaVuSans-69" x="517.285156"/>
      <use xlink:href="#DejaVuSans-61" x="545.068359"/>
      <use xlink:href="#DejaVuSans-6e" x="606.347656"/>
     </g>
    </g>
    <g id="line2d_123">
     <path d="M 249.4745 72.01045 
L 257.4745 72.01045 
L 265.4745 72.01045 
" style="fill: none; stroke-dasharray: 7.4,3.2; stroke-dashoffset: 0; stroke: #ff0000; stroke-width: 2"/>
    </g>
    <g id="text_9">
     <!-- GCIM $16^{th}$ and $84^{th}$ percentiles -->
     <g transform="translate(271.8745 74.81045) scale(0.08 -0.08)">
      <defs>
       <path id="DejaVuSans-36" d="M 2113 2584 
Q 1688 2584 1439 2293 
Q 1191 2003 1191 1497 
Q 1191 994 1439 701 
Q 1688 409 2113 409 
Q 2538 409 2786 701 
Q 3034 994 3034 1497 
Q 3034 2003 2786 2293 
Q 2538 2584 2113 2584 
z
M 3366 4563 
L 3366 3988 
Q 3128 4100 2886 4159 
Q 2644 4219 2406 4219 
Q 1781 4219 1451 3797 
Q 1122 3375 1075 2522 
Q 1259 2794 1537 2939 
Q 1816 3084 2150 3084 
Q 2853 3084 3261 2657 
Q 3669 2231 3669 1497 
Q 3669 778 3244 343 
Q 2819 -91 2113 -91 
Q 1303 -91 875 529 
Q 447 1150 447 2328 
Q 447 3434 972 4092 
Q 1497 4750 2381 4750 
Q 2619 4750 2861 4703 
Q 3103 4656 3366 4563 
z
" transform="scale(0.015625)"/>
       <path id="DejaVuSans-Oblique-74" d="M 2706 3500 
L 2619 3053 
L 1472 3053 
L 1100 1153 
Q 1081 1047 1072 975 
Q 1063 903 1063 863 
Q 1063 663 1183 572 
Q 1303 481 1569 481 
L 2150 481 
L 2053 0 
L 1503 0 
Q 991 0 739 200 
Q 488 400 488 806 
Q 488 878 497 964 
Q 506 1050 525 1153 
L 897 3053 
L 409 3053 
L 500 3500 
L 978 3500 
L 1172 4494 
L 1747 4494 
L 1556 3500 
L 2706 3500 
z
" transform="scale(0.015625)"/>
       <path id="DejaVuSans-Oblique-68" d="M 3566 2113 
L 3156 0 
L 2578 0 
L 2988 2091 
Q 3016 2238 3031 2350 
Q 3047 2463 3047 2528 
Q 3047 2791 2881 2937 
Q 2716 3084 2419 3084 
Q 1956 3084 1617 2771 
Q 1278 2459 1178 1941 
L 800 0 
L 225 0 
L 1172 4863 
L 1747 4863 
L 1375 2950 
Q 1594 3244 1934 3414 
Q 2275 3584 2650 3584 
Q 3113 3584 3367 3334 
Q 3622 3084 3622 2631 
Q 3622 2519 3608 2391 
Q 3594 2263 3566 2113 
z
" transform="scale(0.015625)"/>
       <path id="DejaVuSans-38" d="M 2034 2216 
Q 1584 2216 1326 1975 
Q 1069 1734 1069 1313 
Q 1069 891 1326 650 
Q 1584 409 2034 409 
Q 2484 409 2743 651 
Q 3003 894 3003 1313 
Q 3003 1734 2745 1975 
Q 2488 2216 2034 2216 
z
M 1403 2484 
Q 997 2584 770 2862 
Q 544 3141 544 3541 
Q 544 4100 942 4425 
Q 1341 4750 2034 4750 
Q 2731 4750 3128 4425 
Q 3525 4100 3525 3541 
Q 3525 3141 3298 2862 
Q 3072 2584 2669 2484 
Q 3125 2378 3379 2068 
Q 3634 1759 3634 1313 
Q 3634 634 3220 271 
Q 2806 -91 2034 -91 
Q 1263 -91 848 271 
Q 434 634 434 1313 
Q 434 1759 690 2068 
Q 947 2378 1403 2484 
z
M 1172 3481 
Q 1172 3119 1398 2916 
Q 1625 2713 2034 2713 
Q 2441 2713 2670 2916 
Q 2900 3119 2900 3481 
Q 2900 3844 2670 4047 
Q 2441 4250 2034 4250 
Q 1625 4250 1398 4047 
Q 1172 3844 1172 3481 
z
" transform="scale(0.015625)"/>
       <path id="DejaVuSans-34" d="M 2419 4116 
L 825 1625 
L 2419 1625 
L 2419 4116 
z
M 2253 4666 
L 3047 4666 
L 3047 1625 
L 3713 1625 
L 3713 1100 
L 3047 1100 
L 3047 0 
L 2419 0 
L 2419 1100 
L 313 1100 
L 313 1709 
L 2253 4666 
z
" transform="scale(0.015625)"/>
      </defs>
      <use xlink:href="#DejaVuSans-47" transform="translate(0 0.529687)"/>
      <use xlink:href="#DejaVuSans-43" transform="translate(77.490234 0.529687)"/>
      <use xlink:href="#DejaVuSans-49" transform="translate(147.314453 0.529687)"/>
      <use xlink:href="#DejaVuSans-4d" transform="translate(176.806641 0.529687)"/>
      <use xlink:href="#DejaVuSans-20" transform="translate(263.085938 0.529687)"/>
      <use xlink:href="#DejaVuSans-31" transform="translate(294.873047 0.529687)"/>
      <use xlink:href="#DejaVuSans-36" transform="translate(358.496094 0.529687)"/>
      <use xlink:href="#DejaVuSans-Oblique-74" transform="translate(423.076172 38.810937) scale(0.7)"/>
      <use xlink:href="#DejaVuSans-Oblique-68" transform="translate(450.522461 38.810937) scale(0.7)"/>
      <use xlink:href="#DejaVuSans-20" transform="translate(497.62207 0.529687)"/>
      <use xlink:href="#DejaVuSans-61" transform="translate(529.40918 0.529687)"/>
      <use xlink:href="#DejaVuSans-6e" transform="translate(590.688477 0.529687)"/>
      <use xlink:href="#DejaVuSans-64" transform="translate(654.067383 0.529687)"/>
      <use xlink:href="#DejaVuSans-20" transform="translate(717.543945 0.529687)"/>
      <use xlink:href="#DejaVuSans-38" transform="translate(749.331055 0.529687)"/>
      <use xlink:href="#DejaVuSans-34" transform="translate(812.954102 0.529687)"/>
      <use xlink:href="#DejaVuSans-Oblique-74" transform="translate(877.53418 38.810937) scale(0.7)"/>
      <use xlink:href="#DejaVuSans-Oblique-68" transform="translate(904.980469 38.810937) scale(0.7)"/>
      <use xlink:href="#DejaVuSans-20" transform="translate(952.080078 0.529687)"/>
      <use xlink:href="#DejaVuSans-70" transform="translate(983.867188 0.529687)"/>
      <use xlink:href="#DejaVuSans-65" transform="translate(1047.34375 0.529687)"/>
      <use xlink:href="#DejaVuSans-72" transform="translate(1108.867188 0.529687)"/>
      <use xlink:href="#DejaVuSans-63" transform="translate(1149.980469 0.529687)"/>
      <use xlink:href="#DejaVuSans-65" transform="translate(1204.960938 0.529687)"/>
      <use xlink:href="#DejaVuSans-6e" transform="translate(1266.484375 0.529687)"/>
      <use xlink:href="#DejaVuSans-74" transform="translate(1329.863281 0.529687)"/>
      <use xlink:href="#DejaVuSans-69" transform="translate(1369.072266 0.529687)"/>
      <use xlink:href="#DejaVuSans-6c" transform="translate(1396.855469 0.529687)"/>
      <use xlink:href="#DejaVuSans-65" transform="translate(1424.638672 0.529687)"/>
      <use xlink:href="#DejaVuSans-73" transform="translate(1486.162109 0.529687)"/>
     </g>
    </g>
    <g id="line2d_124">
     <path d="M 249.4745 83.7692 
L 257.4745 83.7692 
L 265.4745 83.7692 
" style="fill: none; stroke: #0000ff; stroke-width: 2; stroke-linecap: square"/>
    </g>
    <g id="text_10">
     <!-- Selected GMs median -->
     <g transform="translate(271.8745 86.5692) scale(0.08 -0.08)">
      <use xlink:href="#DejaVuSans-53"/>
      <use xlink:href="#DejaVuSans-65" x="63.476562"/>
      <use xlink:href="#DejaVuSans-6c" x="125"/>
      <use xlink:href="#DejaVuSans-65" x="152.783203"/>
      <use xlink:href="#DejaVuSans-63" x="214.306641"/>
      <use xlink:href="#DejaVuSans-74" x="269.287109"/>
      <use xlink:href="#DejaVuSans-65" x="308.496094"/>
      <use xlink:href="#DejaVuSans-64" x="370.019531"/>
      <use xlink:href="#DejaVuSans-20" x="433.496094"/>
      <use xlink:href="#DejaVuSans-47" x="465.283203"/>
      <use xlink:href="#DejaVuSans-4d" x="542.773438"/>
      <use xlink:href="#DejaVuSans-73" x="629.052734"/>
      <use xlink:href="#DejaVuSans-20" x="681.152344"/>
      <use xlink:href="#DejaVuSans-6d" x="712.939453"/>
      <use xlink:href="#DejaVuSans-65" x="810.351562"/>
      <use xlink:href="#DejaVuSans-64" x="871.875"/>
      <use xlink:href="#DejaVuSans-69" x="935.351562"/>
      <use xlink:href="#DejaVuSans-61" x="963.134766"/>
      <use xlink:href="#DejaVuSans-6e" x="1024.414062"/>
     </g>
    </g>
    <g id="line2d_125">
     <path d="M 249.4745 96.79295 
L 257.4745 96.79295 
L 265.4745 96.79295 
" style="fill: none; stroke-dasharray: 7.4,3.2; stroke-dashoffset: 0; stroke: #0000ff; stroke-width: 2"/>
    </g>
    <g id="text_11">
     <!-- Selected GMs, $16^{th}$ and $84^{th}$ percentiles -->
     <g transform="translate(271.8745 99.59295) scale(0.08 -0.08)">
      <use xlink:href="#DejaVuSans-53" transform="translate(0 0.529687)"/>
      <use xlink:href="#DejaVuSans-65" transform="translate(63.476562 0.529687)"/>
      <use xlink:href="#DejaVuSans-6c" transform="translate(125 0.529687)"/>
      <use xlink:href="#DejaVuSans-65" transform="translate(152.783203 0.529687)"/>
      <use xlink:href="#DejaVuSans-63" transform="translate(214.306641 0.529687)"/>
      <use xlink:href="#DejaVuSans-74" transform="translate(269.287109 0.529687)"/>
      <use xlink:href="#DejaVuSans-65" transform="translate(308.496094 0.529687)"/>
      <use xlink:href="#DejaVuSans-64" transform="translate(370.019531 0.529687)"/>
      <use xlink:href="#DejaVuSans-20" transform="translate(433.496094 0.529687)"/>
      <use xlink:href="#DejaVuSans-47" transform="translate(465.283203 0.529687)"/>
      <use xlink:href="#DejaVuSans-4d" transform="translate(542.773438 0.529687)"/>
      <use xlink:href="#DejaVuSans-73" transform="translate(629.052734 0.529687)"/>
      <use xlink:href="#DejaVuSans-2c" transform="translate(681.152344 0.529687)"/>
      <use xlink:href="#DejaVuSans-20" transform="translate(712.939453 0.529687)"/>
      <use xlink:href="#DejaVuSans-31" transform="translate(744.726562 0.529687)"/>
      <use xlink:href="#DejaVuSans-36" transform="translate(808.349609 0.529687)"/>
      <use xlink:href="#DejaVuSans-Oblique-74" transform="translate(872.929688 38.810937) scale(0.7)"/>
      <use xlink:href="#DejaVuSans-Oblique-68" transform="translate(900.375977 38.810937) scale(0.7)"/>
      <use xlink:href="#DejaVuSans-20" transform="translate(947.475586 0.529687)"/>
      <use xlink:href="#DejaVuSans-61" transform="translate(979.262695 0.529687)"/>
      <use xlink:href="#DejaVuSans-6e" transform="translate(1040.541992 0.529687)"/>
      <use xlink:href="#DejaVuSans-64" transform="translate(1103.920898 0.529687)"/>
      <use xlink:href="#DejaVuSans-20" transform="translate(1167.397461 0.529687)"/>
      <use xlink:href="#DejaVuSans-38" transform="translate(1199.18457 0.529687)"/>
      <use xlink:href="#DejaVuSans-34" transform="translate(1262.807617 0.529687)"/>
      <use xlink:href="#DejaVuSans-Oblique-74" transform="translate(1327.387695 38.810937) scale(0.7)"/>
      <use xlink:href="#DejaVuSans-Oblique-68" transform="translate(1354.833984 38.810937) scale(0.7)"/>
      <use xlink:href="#DejaVuSans-20" transform="translate(1401.933594 0.529687)"/>
      <use xlink:href="#DejaVuSans-70" transform="translate(1433.720703 0.529687)"/>
      <use xlink:href="#DejaVuSans-65" transform="translate(1497.197266 0.529687)"/>
      <use xlink:href="#DejaVuSans-72" transform="translate(1558.720703 0.529687)"/>
      <use xlink:href="#DejaVuSans-63" transform="translate(1599.833984 0.529687)"/>
      <use xlink:href="#DejaVuSans-65" transform="translate(1654.814453 0.529687)"/>
      <use xlink:href="#DejaVuSans-6e" transform="translate(1716.337891 0.529687)"/>
      <use xlink:href="#DejaVuSans-74" transform="translate(1779.716797 0.529687)"/>
      <use xlink:href="#DejaVuSans-69" transform="translate(1818.925781 0.529687)"/>
      <use xlink:href="#DejaVuSans-6c" transform="translate(1846.708984 0.529687)"/>
      <use xlink:href="#DejaVuSans-65" transform="translate(1874.492188 0.529687)"/>
      <use xlink:href="#DejaVuSans-73" transform="translate(1936.015625 0.529687)"/>
     </g>
    </g>
   </g>
  </g>
 </g>
 <defs>
  <clipPath id="p8c8d942165">
   <rect x="44.7425" y="7.2" width="197.532" height="130.8384"/>
  </clipPath>
 </defs>
</svg>
