<?xml version="1.0" encoding="utf-8" standalone="no"?>
<!DOCTYPE svg PUBLIC "-//W3C//DTD SVG 1.1//EN"
  "http://www.w3.org/Graphics/SVG/1.1/DTD/svg11.dtd">
<svg xmlns:xlink="http://www.w3.org/1999/xlink" width="441.3945pt" height="171.7234pt" viewBox="0 0 441.3945 171.7234" xmlns="http://www.w3.org/2000/svg" version="1.1">
 <metadata>
  <rdf:RDF xmlns:dc="http://purl.org/dc/elements/1.1/" xmlns:cc="http://creativecommons.org/ns#" xmlns:rdf="http://www.w3.org/1999/02/22-rdf-syntax-ns#">
   <cc:Work>
    <dc:type rdf:resource="http://purl.org/dc/dcmitype/StillImage"/>
    <dc:date>2024-11-11T18:20:39.277580</dc:date>
    <dc:format>image/svg+xml</dc:format>
    <dc:creator>
     <cc:Agent>
      <dc:title>Matplotlib v3.8.2, https://matplotlib.org/</dc:title>
     </cc:Agent>
    </dc:creator>
   </cc:Work>
  </rdf:RDF>
 </metadata>
 <defs>
  <style type="text/css">*{stroke-linejoin: round; stroke-linecap: butt}</style>
 </defs>
 <g id="figure_1">
  <g id="patch_1">
   <path d="M 0 171.7234 
L 441.3945 171.7234 
L 441.3945 0 
L 0 0 
z
" style="fill: #ffffff"/>
  </g>
  <g id="axes_1">
   <g id="patch_2">
    <path d="M 44.7425 138.0384 
L 242.2745 138.0384 
L 242.2745 7.2 
L 44.7425 7.2 
z
" style="fill: #ffffff"/>
   </g>
   <g id="matplotlib.axis_1">
    <g id="xtick_1">
     <g id="line2d_1">
      <path d="M 53.721227 138.0384 
L 53.721227 7.2 
" clip-path="url(#pceafc25a8a)" style="fill: none; stroke: #d9d9d9; stroke-width: 0.8; stroke-linecap: square"/>
     </g>
     <g id="line2d_2">
      <defs>
       <path id="mddf635fa54" d="M 0 0 
L 0 3.5 
" style="stroke: #000000; stroke-width: 0.8"/>
      </defs>
      <g>
       <use xlink:href="#mddf635fa54" x="53.721227" y="138.0384" style="stroke: #000000; stroke-width: 0.8"/>
      </g>
     </g>
     <g id="text_1">
      <!-- $\mathdefault{10^{-1}}$ -->
      <g transform="translate(44.321227 151.11715) scale(0.08 -0.08)">
       <defs>
        <path id="DejaVuSans-31" d="M 794 531 
L 1825 531 
L 1825 4091 
L 703 3866 
L 703 4441 
L 1819 4666 
L 2450 4666 
L 2450 531 
L 3481 531 
L 3481 0 
L 794 0 
L 794 531 
z
" transform="scale(0.015625)"/>
        <path id="DejaVuSans-30" d="M 2034 4250 
Q 1547 4250 1301 3770 
Q 1056 3291 1056 2328 
Q 1056 1369 1301 889 
Q 1547 409 2034 409 
Q 2525 409 2770 889 
Q 3016 1369 3016 2328 
Q 3016 3291 2770 3770 
Q 2525 4250 2034 4250 
z
M 2034 4750 
Q 2819 4750 3233 4129 
Q 3647 3509 3647 2328 
Q 3647 1150 3233 529 
Q 2819 -91 2034 -91 
Q 1250 -91 836 529 
Q 422 1150 422 2328 
Q 422 3509 836 4129 
Q 1250 4750 2034 4750 
z
" transform="scale(0.015625)"/>
        <path id="DejaVuSans-2212" d="M 678 2272 
L 4684 2272 
L 4684 1741 
L 678 1741 
L 678 2272 
z
" transform="scale(0.015625)"/>
       </defs>
       <use xlink:href="#DejaVuSans-31" transform="translate(0 0.684375)"/>
       <use xlink:href="#DejaVuSans-30" transform="translate(63.623047 0.684375)"/>
       <use xlink:href="#DejaVuSans-2212" transform="translate(128.203125 38.965625) scale(0.7)"/>
       <use xlink:href="#DejaVuSans-31" transform="translate(186.855469 38.965625) scale(0.7)"/>
      </g>
     </g>
    </g>
    <g id="xtick_2">
     <g id="line2d_3">
      <path d="M 165.811003 138.0384 
L 165.811003 7.2 
" clip-path="url(#pceafc25a8a)" style="fill: none; stroke: #d9d9d9; stroke-width: 0.8; stroke-linecap: square"/>
     </g>
     <g id="line2d_4">
      <g>
       <use xlink:href="#mddf635fa54" x="165.811003" y="138.0384" style="stroke: #000000; stroke-width: 0.8"/>
      </g>
     </g>
     <g id="text_2">
      <!-- $\mathdefault{10^{0}}$ -->
      <g transform="translate(158.771003 151.11715) scale(0.08 -0.08)">
       <use xlink:href="#DejaVuSans-31" transform="translate(0 0.765625)"/>
       <use xlink:href="#DejaVuSans-30" transform="translate(63.623047 0.765625)"/>
       <use xlink:href="#DejaVuSans-30" transform="translate(128.203125 39.046875) scale(0.7)"/>
      </g>
     </g>
    </g>
    <g id="xtick_3">
     <g id="line2d_5">
      <path d="M 48.59228 138.0384 
L 48.59228 7.2 
" clip-path="url(#pceafc25a8a)" style="fill: none; stroke-dasharray: 2.96,1.28; stroke-dashoffset: 0; stroke: #f2f2f2; stroke-width: 0.8"/>
     </g>
     <g id="line2d_6">
      <defs>
       <path id="mbf4f1685d9" d="M 0 0 
L 0 2 
" style="stroke: #000000; stroke-width: 0.6"/>
      </defs>
      <g>
       <use xlink:href="#mbf4f1685d9" x="48.59228" y="138.0384" style="stroke: #000000; stroke-width: 0.6"/>
      </g>
     </g>
    </g>
    <g id="xtick_4">
     <g id="line2d_7">
      <path d="M 87.463612 138.0384 
L 87.463612 7.2 
" clip-path="url(#pceafc25a8a)" style="fill: none; stroke-dasharray: 2.96,1.28; stroke-dashoffset: 0; stroke: #f2f2f2; stroke-width: 0.8"/>
     </g>
     <g id="line2d_8">
      <g>
       <use xlink:href="#mbf4f1685d9" x="87.463612" y="138.0384" style="stroke: #000000; stroke-width: 0.6"/>
      </g>
     </g>
    </g>
    <g id="xtick_5">
     <g id="line2d_9">
      <path d="M 107.201642 138.0384 
L 107.201642 7.2 
" clip-path="url(#pceafc25a8a)" style="fill: none; stroke-dasharray: 2.96,1.28; stroke-dashoffset: 0; stroke: #f2f2f2; stroke-width: 0.8"/>
     </g>
     <g id="line2d_10">
      <g>
       <use xlink:href="#mbf4f1685d9" x="107.201642" y="138.0384" style="stroke: #000000; stroke-width: 0.6"/>
      </g>
     </g>
    </g>
    <g id="xtick_6">
     <g id="line2d_11">
      <path d="M 121.205997 138.0384 
L 121.205997 7.2 
" clip-path="url(#pceafc25a8a)" style="fill: none; stroke-dasharray: 2.96,1.28; stroke-dashoffset: 0; stroke: #f2f2f2; stroke-width: 0.8"/>
     </g>
     <g id="line2d_12">
      <g>
       <use xlink:href="#mbf4f1685d9" x="121.205997" y="138.0384" style="stroke: #000000; stroke-width: 0.6"/>
      </g>
     </g>
    </g>
    <g id="xtick_7">
     <g id="line2d_13">
      <path d="M 132.068618 138.0384 
L 132.068618 7.2 
" clip-path="url(#pceafc25a8a)" style="fill: none; stroke-dasharray: 2.96,1.28; stroke-dashoffset: 0; stroke: #f2f2f2; stroke-width: 0.8"/>
     </g>
     <g id="line2d_14">
      <g>
       <use xlink:href="#mbf4f1685d9" x="132.068618" y="138.0384" style="stroke: #000000; stroke-width: 0.6"/>
      </g>
     </g>
    </g>
    <g id="xtick_8">
     <g id="line2d_15">
      <path d="M 140.944027 138.0384 
L 140.944027 7.2 
" clip-path="url(#pceafc25a8a)" style="fill: none; stroke-dasharray: 2.96,1.28; stroke-dashoffset: 0; stroke: #f2f2f2; stroke-width: 0.8"/>
     </g>
     <g id="line2d_16">
      <g>
       <use xlink:href="#mbf4f1685d9" x="140.944027" y="138.0384" style="stroke: #000000; stroke-width: 0.6"/>
      </g>
     </g>
    </g>
    <g id="xtick_9">
     <g id="line2d_17">
      <path d="M 148.448077 138.0384 
L 148.448077 7.2 
" clip-path="url(#pceafc25a8a)" style="fill: none; stroke-dasharray: 2.96,1.28; stroke-dashoffset: 0; stroke: #f2f2f2; stroke-width: 0.8"/>
     </g>
     <g id="line2d_18">
      <g>
       <use xlink:href="#mbf4f1685d9" x="148.448077" y="138.0384" style="stroke: #000000; stroke-width: 0.6"/>
      </g>
     </g>
    </g>
    <g id="xtick_10">
     <g id="line2d_19">
      <path d="M 154.948382 138.0384 
L 154.948382 7.2 
" clip-path="url(#pceafc25a8a)" style="fill: none; stroke-dasharray: 2.96,1.28; stroke-dashoffset: 0; stroke: #f2f2f2; stroke-width: 0.8"/>
     </g>
     <g id="line2d_20">
      <g>
       <use xlink:href="#mbf4f1685d9" x="154.948382" y="138.0384" style="stroke: #000000; stroke-width: 0.6"/>
      </g>
     </g>
    </g>
    <g id="xtick_11">
     <g id="line2d_21">
      <path d="M 160.682056 138.0384 
L 160.682056 7.2 
" clip-path="url(#pceafc25a8a)" style="fill: none; stroke-dasharray: 2.96,1.28; stroke-dashoffset: 0; stroke: #f2f2f2; stroke-width: 0.8"/>
     </g>
     <g id="line2d_22">
      <g>
       <use xlink:href="#mbf4f1685d9" x="160.682056" y="138.0384" style="stroke: #000000; stroke-width: 0.6"/>
      </g>
     </g>
    </g>
    <g id="xtick_12">
     <g id="line2d_23">
      <path d="M 199.553388 138.0384 
L 199.553388 7.2 
" clip-path="url(#pceafc25a8a)" style="fill: none; stroke-dasharray: 2.96,1.28; stroke-dashoffset: 0; stroke: #f2f2f2; stroke-width: 0.8"/>
     </g>
     <g id="line2d_24">
      <g>
       <use xlink:href="#mbf4f1685d9" x="199.553388" y="138.0384" style="stroke: #000000; stroke-width: 0.6"/>
      </g>
     </g>
    </g>
    <g id="xtick_13">
     <g id="line2d_25">
      <path d="M 219.291418 138.0384 
L 219.291418 7.2 
" clip-path="url(#pceafc25a8a)" style="fill: none; stroke-dasharray: 2.96,1.28; stroke-dashoffset: 0; stroke: #f2f2f2; stroke-width: 0.8"/>
     </g>
     <g id="line2d_26">
      <g>
       <use xlink:href="#mbf4f1685d9" x="219.291418" y="138.0384" style="stroke: #000000; stroke-width: 0.6"/>
      </g>
     </g>
    </g>
    <g id="xtick_14">
     <g id="line2d_27">
      <path d="M 233.295773 138.0384 
L 233.295773 7.2 
" clip-path="url(#pceafc25a8a)" style="fill: none; stroke-dasharray: 2.96,1.28; stroke-dashoffset: 0; stroke: #f2f2f2; stroke-width: 0.8"/>
     </g>
     <g id="line2d_28">
      <g>
       <use xlink:href="#mbf4f1685d9" x="233.295773" y="138.0384" style="stroke: #000000; stroke-width: 0.6"/>
      </g>
     </g>
    </g>
    <g id="text_3">
     <!-- Period, T (s) -->
     <g transform="translate(119.576 162.85965) scale(0.08 -0.08)">
      <defs>
       <path id="DejaVuSans-50" d="M 1259 4147 
L 1259 2394 
L 2053 2394 
Q 2494 2394 2734 2622 
Q 2975 2850 2975 3272 
Q 2975 3691 2734 3919 
Q 2494 4147 2053 4147 
L 1259 4147 
z
M 628 4666 
L 2053 4666 
Q 2838 4666 3239 4311 
Q 3641 3956 3641 3272 
Q 3641 2581 3239 2228 
Q 2838 1875 2053 1875 
L 1259 1875 
L 1259 0 
L 628 0 
L 628 4666 
z
" transform="scale(0.015625)"/>
       <path id="DejaVuSans-65" d="M 3597 1894 
L 3597 1613 
L 953 1613 
Q 991 1019 1311 708 
Q 1631 397 2203 397 
Q 2534 397 2845 478 
Q 3156 559 3463 722 
L 3463 178 
Q 3153 47 2828 -22 
Q 2503 -91 2169 -91 
Q 1331 -91 842 396 
Q 353 884 353 1716 
Q 353 2575 817 3079 
Q 1281 3584 2069 3584 
Q 2775 3584 3186 3129 
Q 3597 2675 3597 1894 
z
M 3022 2063 
Q 3016 2534 2758 2815 
Q 2500 3097 2075 3097 
Q 1594 3097 1305 2825 
Q 1016 2553 972 2059 
L 3022 2063 
z
" transform="scale(0.015625)"/>
       <path id="DejaVuSans-72" d="M 2631 2963 
Q 2534 3019 2420 3045 
Q 2306 3072 2169 3072 
Q 1681 3072 1420 2755 
Q 1159 2438 1159 1844 
L 1159 0 
L 581 0 
L 581 3500 
L 1159 3500 
L 1159 2956 
Q 1341 3275 1631 3429 
Q 1922 3584 2338 3584 
Q 2397 3584 2469 3576 
Q 2541 3569 2628 3553 
L 2631 2963 
z
" transform="scale(0.015625)"/>
       <path id="DejaVuSans-69" d="M 603 3500 
L 1178 3500 
L 1178 0 
L 603 0 
L 603 3500 
z
M 603 4863 
L 1178 4863 
L 1178 4134 
L 603 4134 
L 603 4863 
z
" transform="scale(0.015625)"/>
       <path id="DejaVuSans-6f" d="M 1959 3097 
Q 1497 3097 1228 2736 
Q 959 2375 959 1747 
Q 959 1119 1226 758 
Q 1494 397 1959 397 
Q 2419 397 2687 759 
Q 2956 1122 2956 1747 
Q 2956 2369 2687 2733 
Q 2419 3097 1959 3097 
z
M 1959 3584 
Q 2709 3584 3137 3096 
Q 3566 2609 3566 1747 
Q 3566 888 3137 398 
Q 2709 -91 1959 -91 
Q 1206 -91 779 398 
Q 353 888 353 1747 
Q 353 2609 779 3096 
Q 1206 3584 1959 3584 
z
" transform="scale(0.015625)"/>
       <path id="DejaVuSans-64" d="M 2906 2969 
L 2906 4863 
L 3481 4863 
L 3481 0 
L 2906 0 
L 2906 525 
Q 2725 213 2448 61 
Q 2172 -91 1784 -91 
Q 1150 -91 751 415 
Q 353 922 353 1747 
Q 353 2572 751 3078 
Q 1150 3584 1784 3584 
Q 2172 3584 2448 3432 
Q 2725 3281 2906 2969 
z
M 947 1747 
Q 947 1113 1208 752 
Q 1469 391 1925 391 
Q 2381 391 2643 752 
Q 2906 1113 2906 1747 
Q 2906 2381 2643 2742 
Q 2381 3103 1925 3103 
Q 1469 3103 1208 2742 
Q 947 2381 947 1747 
z
" transform="scale(0.015625)"/>
       <path id="DejaVuSans-2c" d="M 750 794 
L 1409 794 
L 1409 256 
L 897 -744 
L 494 -744 
L 750 256 
L 750 794 
z
" transform="scale(0.015625)"/>
       <path id="DejaVuSans-20" transform="scale(0.015625)"/>
       <path id="DejaVuSans-54" d="M -19 4666 
L 3928 4666 
L 3928 4134 
L 2272 4134 
L 2272 0 
L 1638 0 
L 1638 4134 
L -19 4134 
L -19 4666 
z
" transform="scale(0.015625)"/>
       <path id="DejaVuSans-28" d="M 1984 4856 
Q 1566 4138 1362 3434 
Q 1159 2731 1159 2009 
Q 1159 1288 1364 580 
Q 1569 -128 1984 -844 
L 1484 -844 
Q 1016 -109 783 600 
Q 550 1309 550 2009 
Q 550 2706 781 3412 
Q 1013 4119 1484 4856 
L 1984 4856 
z
" transform="scale(0.015625)"/>
       <path id="DejaVuSans-73" d="M 2834 3397 
L 2834 2853 
Q 2591 2978 2328 3040 
Q 2066 3103 1784 3103 
Q 1356 3103 1142 2972 
Q 928 2841 928 2578 
Q 928 2378 1081 2264 
Q 1234 2150 1697 2047 
L 1894 2003 
Q 2506 1872 2764 1633 
Q 3022 1394 3022 966 
Q 3022 478 2636 193 
Q 2250 -91 1575 -91 
Q 1294 -91 989 -36 
Q 684 19 347 128 
L 347 722 
Q 666 556 975 473 
Q 1284 391 1588 391 
Q 1994 391 2212 530 
Q 2431 669 2431 922 
Q 2431 1156 2273 1281 
Q 2116 1406 1581 1522 
L 1381 1569 
Q 847 1681 609 1914 
Q 372 2147 372 2553 
Q 372 3047 722 3315 
Q 1072 3584 1716 3584 
Q 2034 3584 2315 3537 
Q 2597 3491 2834 3397 
z
" transform="scale(0.015625)"/>
       <path id="DejaVuSans-29" d="M 513 4856 
L 1013 4856 
Q 1481 4119 1714 3412 
Q 1947 2706 1947 2009 
Q 1947 1309 1714 600 
Q 1481 -109 1013 -844 
L 513 -844 
Q 928 -128 1133 580 
Q 1338 1288 1338 2009 
Q 1338 2731 1133 3434 
Q 928 4138 513 4856 
z
" transform="scale(0.015625)"/>
      </defs>
      <use xlink:href="#DejaVuSans-50"/>
      <use xlink:href="#DejaVuSans-65" x="56.677734"/>
      <use xlink:href="#DejaVuSans-72" x="118.201172"/>
      <use xlink:href="#DejaVuSans-69" x="159.314453"/>
      <use xlink:href="#DejaVuSans-6f" x="187.097656"/>
      <use xlink:href="#DejaVuSans-64" x="248.279297"/>
      <use xlink:href="#DejaVuSans-2c" x="311.755859"/>
      <use xlink:href="#DejaVuSans-20" x="343.542969"/>
      <use xlink:href="#DejaVuSans-54" x="375.330078"/>
      <use xlink:href="#DejaVuSans-20" x="436.414062"/>
      <use xlink:href="#DejaVuSans-28" x="468.201172"/>
      <use xlink:href="#DejaVuSans-73" x="507.214844"/>
      <use xlink:href="#DejaVuSans-29" x="559.314453"/>
     </g>
    </g>
   </g>
   <g id="matplotlib.axis_2">
    <g id="ytick_1">
     <g id="line2d_29">
      <path d="M 44.7425 79.24334 
L 242.2745 79.24334 
" clip-path="url(#pceafc25a8a)" style="fill: none; stroke: #d9d9d9; stroke-width: 0.8; stroke-linecap: square"/>
     </g>
     <g id="line2d_30">
      <defs>
       <path id="md452f07a14" d="M 0 0 
L -3.5 0 
" style="stroke: #000000; stroke-width: 0.8"/>
      </defs>
      <g>
       <use xlink:href="#md452f07a14" x="44.7425" y="79.24334" style="stroke: #000000; stroke-width: 0.8"/>
      </g>
     </g>
     <g id="text_4">
      <!-- $\mathdefault{10^{-1}}$ -->
      <g transform="translate(18.9425 82.282715) scale(0.08 -0.08)">
       <use xlink:href="#DejaVuSans-31" transform="translate(0 0.684375)"/>
       <use xlink:href="#DejaVuSans-30" transform="translate(63.623047 0.684375)"/>
       <use xlink:href="#DejaVuSans-2212" transform="translate(128.203125 38.965625) scale(0.7)"/>
       <use xlink:href="#DejaVuSans-31" transform="translate(186.855469 38.965625) scale(0.7)"/>
      </g>
     </g>
    </g>
    <g id="ytick_2">
     <g id="line2d_31">
      <path d="M 44.7425 130.471783 
L 242.2745 130.471783 
" clip-path="url(#pceafc25a8a)" style="fill: none; stroke-dasharray: 2.96,1.28; stroke-dashoffset: 0; stroke: #f2f2f2; stroke-width: 0.8"/>
     </g>
     <g id="line2d_32">
      <defs>
       <path id="m270a8581fb" d="M 0 0 
L -2 0 
" style="stroke: #000000; stroke-width: 0.6"/>
      </defs>
      <g>
       <use xlink:href="#m270a8581fb" x="44.7425" y="130.471783" style="stroke: #000000; stroke-width: 0.6"/>
      </g>
     </g>
    </g>
    <g id="ytick_3">
     <g id="line2d_33">
      <path d="M 44.7425 117.56582 
L 242.2745 117.56582 
" clip-path="url(#pceafc25a8a)" style="fill: none; stroke-dasharray: 2.96,1.28; stroke-dashoffset: 0; stroke: #f2f2f2; stroke-width: 0.8"/>
     </g>
     <g id="line2d_34">
      <g>
       <use xlink:href="#m270a8581fb" x="44.7425" y="117.56582" style="stroke: #000000; stroke-width: 0.6"/>
      </g>
     </g>
    </g>
    <g id="ytick_4">
     <g id="line2d_35">
      <path d="M 44.7425 108.408894 
L 242.2745 108.408894 
" clip-path="url(#pceafc25a8a)" style="fill: none; stroke-dasharray: 2.96,1.28; stroke-dashoffset: 0; stroke: #f2f2f2; stroke-width: 0.8"/>
     </g>
     <g id="line2d_36">
      <g>
       <use xlink:href="#m270a8581fb" x="44.7425" y="108.408894" style="stroke: #000000; stroke-width: 0.6"/>
      </g>
     </g>
    </g>
    <g id="ytick_5">
     <g id="line2d_37">
      <path d="M 44.7425 101.30623 
L 242.2745 101.30623 
" clip-path="url(#pceafc25a8a)" style="fill: none; stroke-dasharray: 2.96,1.28; stroke-dashoffset: 0; stroke: #f2f2f2; stroke-width: 0.8"/>
     </g>
     <g id="line2d_38">
      <g>
       <use xlink:href="#m270a8581fb" x="44.7425" y="101.30623" style="stroke: #000000; stroke-width: 0.6"/>
      </g>
     </g>
    </g>
    <g id="ytick_6">
     <g id="line2d_39">
      <path d="M 44.7425 95.502931 
L 242.2745 95.502931 
" clip-path="url(#pceafc25a8a)" style="fill: none; stroke-dasharray: 2.96,1.28; stroke-dashoffset: 0; stroke: #f2f2f2; stroke-width: 0.8"/>
     </g>
     <g id="line2d_40">
      <g>
       <use xlink:href="#m270a8581fb" x="44.7425" y="95.502931" style="stroke: #000000; stroke-width: 0.6"/>
      </g>
     </g>
    </g>
    <g id="ytick_7">
     <g id="line2d_41">
      <path d="M 44.7425 90.596311 
L 242.2745 90.596311 
" clip-path="url(#pceafc25a8a)" style="fill: none; stroke-dasharray: 2.96,1.28; stroke-dashoffset: 0; stroke: #f2f2f2; stroke-width: 0.8"/>
     </g>
     <g id="line2d_42">
      <g>
       <use xlink:href="#m270a8581fb" x="44.7425" y="90.596311" style="stroke: #000000; stroke-width: 0.6"/>
      </g>
     </g>
    </g>
    <g id="ytick_8">
     <g id="line2d_43">
      <path d="M 44.7425 86.346004 
L 242.2745 86.346004 
" clip-path="url(#pceafc25a8a)" style="fill: none; stroke-dasharray: 2.96,1.28; stroke-dashoffset: 0; stroke: #f2f2f2; stroke-width: 0.8"/>
     </g>
     <g id="line2d_44">
      <g>
       <use xlink:href="#m270a8581fb" x="44.7425" y="86.346004" style="stroke: #000000; stroke-width: 0.6"/>
      </g>
     </g>
    </g>
    <g id="ytick_9">
     <g id="line2d_45">
      <path d="M 44.7425 82.596968 
L 242.2745 82.596968 
" clip-path="url(#pceafc25a8a)" style="fill: none; stroke-dasharray: 2.96,1.28; stroke-dashoffset: 0; stroke: #f2f2f2; stroke-width: 0.8"/>
     </g>
     <g id="line2d_46">
      <g>
       <use xlink:href="#m270a8581fb" x="44.7425" y="82.596968" style="stroke: #000000; stroke-width: 0.6"/>
      </g>
     </g>
    </g>
    <g id="ytick_10">
     <g id="line2d_47">
      <path d="M 44.7425 57.180451 
L 242.2745 57.180451 
" clip-path="url(#pceafc25a8a)" style="fill: none; stroke-dasharray: 2.96,1.28; stroke-dashoffset: 0; stroke: #f2f2f2; stroke-width: 0.8"/>
     </g>
     <g id="line2d_48">
      <g>
       <use xlink:href="#m270a8581fb" x="44.7425" y="57.180451" style="stroke: #000000; stroke-width: 0.6"/>
      </g>
     </g>
    </g>
    <g id="ytick_11">
     <g id="line2d_49">
      <path d="M 44.7425 44.274488 
L 242.2745 44.274488 
" clip-path="url(#pceafc25a8a)" style="fill: none; stroke-dasharray: 2.96,1.28; stroke-dashoffset: 0; stroke: #f2f2f2; stroke-width: 0.8"/>
     </g>
     <g id="line2d_50">
      <g>
       <use xlink:href="#m270a8581fb" x="44.7425" y="44.274488" style="stroke: #000000; stroke-width: 0.6"/>
      </g>
     </g>
    </g>
    <g id="ytick_12">
     <g id="line2d_51">
      <path d="M 44.7425 35.117562 
L 242.2745 35.117562 
" clip-path="url(#pceafc25a8a)" style="fill: none; stroke-dasharray: 2.96,1.28; stroke-dashoffset: 0; stroke: #f2f2f2; stroke-width: 0.8"/>
     </g>
     <g id="line2d_52">
      <g>
       <use xlink:href="#m270a8581fb" x="44.7425" y="35.117562" style="stroke: #000000; stroke-width: 0.6"/>
      </g>
     </g>
    </g>
    <g id="ytick_13">
     <g id="line2d_53">
      <path d="M 44.7425 28.014898 
L 242.2745 28.014898 
" clip-path="url(#pceafc25a8a)" style="fill: none; stroke-dasharray: 2.96,1.28; stroke-dashoffset: 0; stroke: #f2f2f2; stroke-width: 0.8"/>
     </g>
     <g id="line2d_54">
      <g>
       <use xlink:href="#m270a8581fb" x="44.7425" y="28.014898" style="stroke: #000000; stroke-width: 0.6"/>
      </g>
     </g>
    </g>
    <g id="ytick_14">
     <g id="line2d_55">
      <path d="M 44.7425 22.211599 
L 242.2745 22.211599 
" clip-path="url(#pceafc25a8a)" style="fill: none; stroke-dasharray: 2.96,1.28; stroke-dashoffset: 0; stroke: #f2f2f2; stroke-width: 0.8"/>
     </g>
     <g id="line2d_56">
      <g>
       <use xlink:href="#m270a8581fb" x="44.7425" y="22.211599" style="stroke: #000000; stroke-width: 0.6"/>
      </g>
     </g>
    </g>
    <g id="ytick_15">
     <g id="line2d_57">
      <path d="M 44.7425 17.304979 
L 242.2745 17.304979 
" clip-path="url(#pceafc25a8a)" style="fill: none; stroke-dasharray: 2.96,1.28; stroke-dashoffset: 0; stroke: #f2f2f2; stroke-width: 0.8"/>
     </g>
     <g id="line2d_58">
      <g>
       <use xlink:href="#m270a8581fb" x="44.7425" y="17.304979" style="stroke: #000000; stroke-width: 0.6"/>
      </g>
     </g>
    </g>
    <g id="ytick_16">
     <g id="line2d_59">
      <path d="M 44.7425 13.054672 
L 242.2745 13.054672 
" clip-path="url(#pceafc25a8a)" style="fill: none; stroke-dasharray: 2.96,1.28; stroke-dashoffset: 0; stroke: #f2f2f2; stroke-width: 0.8"/>
     </g>
     <g id="line2d_60">
      <g>
       <use xlink:href="#m270a8581fb" x="44.7425" y="13.054672" style="stroke: #000000; stroke-width: 0.6"/>
      </g>
     </g>
    </g>
    <g id="ytick_17">
     <g id="line2d_61">
      <path d="M 44.7425 9.305636 
L 242.2745 9.305636 
" clip-path="url(#pceafc25a8a)" style="fill: none; stroke-dasharray: 2.96,1.28; stroke-dashoffset: 0; stroke: #f2f2f2; stroke-width: 0.8"/>
     </g>
     <g id="line2d_62">
      <g>
       <use xlink:href="#m270a8581fb" x="44.7425" y="9.305636" style="stroke: #000000; stroke-width: 0.6"/>
      </g>
     </g>
    </g>
    <g id="text_5">
     <!-- Spectral acceleration, SA (g) -->
     <g transform="translate(13.27875 129.871075) rotate(-90) scale(0.08 -0.08)">
      <defs>
       <path id="DejaVuSans-53" d="M 3425 4513 
L 3425 3897 
Q 3066 4069 2747 4153 
Q 2428 4238 2131 4238 
Q 1616 4238 1336 4038 
Q 1056 3838 1056 3469 
Q 1056 3159 1242 3001 
Q 1428 2844 1947 2747 
L 2328 2669 
Q 3034 2534 3370 2195 
Q 3706 1856 3706 1288 
Q 3706 609 3251 259 
Q 2797 -91 1919 -91 
Q 1588 -91 1214 -16 
Q 841 59 441 206 
L 441 856 
Q 825 641 1194 531 
Q 1563 422 1919 422 
Q 2459 422 2753 634 
Q 3047 847 3047 1241 
Q 3047 1584 2836 1778 
Q 2625 1972 2144 2069 
L 1759 2144 
Q 1053 2284 737 2584 
Q 422 2884 422 3419 
Q 422 4038 858 4394 
Q 1294 4750 2059 4750 
Q 2388 4750 2728 4690 
Q 3069 4631 3425 4513 
z
" transform="scale(0.015625)"/>
       <path id="DejaVuSans-70" d="M 1159 525 
L 1159 -1331 
L 581 -1331 
L 581 3500 
L 1159 3500 
L 1159 2969 
Q 1341 3281 1617 3432 
Q 1894 3584 2278 3584 
Q 2916 3584 3314 3078 
Q 3713 2572 3713 1747 
Q 3713 922 3314 415 
Q 2916 -91 2278 -91 
Q 1894 -91 1617 61 
Q 1341 213 1159 525 
z
M 3116 1747 
Q 3116 2381 2855 2742 
Q 2594 3103 2138 3103 
Q 1681 3103 1420 2742 
Q 1159 2381 1159 1747 
Q 1159 1113 1420 752 
Q 1681 391 2138 391 
Q 2594 391 2855 752 
Q 3116 1113 3116 1747 
z
" transform="scale(0.015625)"/>
       <path id="DejaVuSans-63" d="M 3122 3366 
L 3122 2828 
Q 2878 2963 2633 3030 
Q 2388 3097 2138 3097 
Q 1578 3097 1268 2742 
Q 959 2388 959 1747 
Q 959 1106 1268 751 
Q 1578 397 2138 397 
Q 2388 397 2633 464 
Q 2878 531 3122 666 
L 3122 134 
Q 2881 22 2623 -34 
Q 2366 -91 2075 -91 
Q 1284 -91 818 406 
Q 353 903 353 1747 
Q 353 2603 823 3093 
Q 1294 3584 2113 3584 
Q 2378 3584 2631 3529 
Q 2884 3475 3122 3366 
z
" transform="scale(0.015625)"/>
       <path id="DejaVuSans-74" d="M 1172 4494 
L 1172 3500 
L 2356 3500 
L 2356 3053 
L 1172 3053 
L 1172 1153 
Q 1172 725 1289 603 
Q 1406 481 1766 481 
L 2356 481 
L 2356 0 
L 1766 0 
Q 1100 0 847 248 
Q 594 497 594 1153 
L 594 3053 
L 172 3053 
L 172 3500 
L 594 3500 
L 594 4494 
L 1172 4494 
z
" transform="scale(0.015625)"/>
       <path id="DejaVuSans-61" d="M 2194 1759 
Q 1497 1759 1228 1600 
Q 959 1441 959 1056 
Q 959 750 1161 570 
Q 1363 391 1709 391 
Q 2188 391 2477 730 
Q 2766 1069 2766 1631 
L 2766 1759 
L 2194 1759 
z
M 3341 1997 
L 3341 0 
L 2766 0 
L 2766 531 
Q 2569 213 2275 61 
Q 1981 -91 1556 -91 
Q 1019 -91 701 211 
Q 384 513 384 1019 
Q 384 1609 779 1909 
Q 1175 2209 1959 2209 
L 2766 2209 
L 2766 2266 
Q 2766 2663 2505 2880 
Q 2244 3097 1772 3097 
Q 1472 3097 1187 3025 
Q 903 2953 641 2809 
L 641 3341 
Q 956 3463 1253 3523 
Q 1550 3584 1831 3584 
Q 2591 3584 2966 3190 
Q 3341 2797 3341 1997 
z
" transform="scale(0.015625)"/>
       <path id="DejaVuSans-6c" d="M 603 4863 
L 1178 4863 
L 1178 0 
L 603 0 
L 603 4863 
z
" transform="scale(0.015625)"/>
       <path id="DejaVuSans-6e" d="M 3513 2113 
L 3513 0 
L 2938 0 
L 2938 2094 
Q 2938 2591 2744 2837 
Q 2550 3084 2163 3084 
Q 1697 3084 1428 2787 
Q 1159 2491 1159 1978 
L 1159 0 
L 581 0 
L 581 3500 
L 1159 3500 
L 1159 2956 
Q 1366 3272 1645 3428 
Q 1925 3584 2291 3584 
Q 2894 3584 3203 3211 
Q 3513 2838 3513 2113 
z
" transform="scale(0.015625)"/>
       <path id="DejaVuSans-41" d="M 2188 4044 
L 1331 1722 
L 3047 1722 
L 2188 4044 
z
M 1831 4666 
L 2547 4666 
L 4325 0 
L 3669 0 
L 3244 1197 
L 1141 1197 
L 716 0 
L 50 0 
L 1831 4666 
z
" transform="scale(0.015625)"/>
       <path id="DejaVuSans-67" d="M 2906 1791 
Q 2906 2416 2648 2759 
Q 2391 3103 1925 3103 
Q 1463 3103 1205 2759 
Q 947 2416 947 1791 
Q 947 1169 1205 825 
Q 1463 481 1925 481 
Q 2391 481 2648 825 
Q 2906 1169 2906 1791 
z
M 3481 434 
Q 3481 -459 3084 -895 
Q 2688 -1331 1869 -1331 
Q 1566 -1331 1297 -1286 
Q 1028 -1241 775 -1147 
L 775 -588 
Q 1028 -725 1275 -790 
Q 1522 -856 1778 -856 
Q 2344 -856 2625 -561 
Q 2906 -266 2906 331 
L 2906 616 
Q 2728 306 2450 153 
Q 2172 0 1784 0 
Q 1141 0 747 490 
Q 353 981 353 1791 
Q 353 2603 747 3093 
Q 1141 3584 1784 3584 
Q 2172 3584 2450 3431 
Q 2728 3278 2906 2969 
L 2906 3500 
L 3481 3500 
L 3481 434 
z
" transform="scale(0.015625)"/>
      </defs>
      <use xlink:href="#DejaVuSans-53"/>
      <use xlink:href="#DejaVuSans-70" x="63.476562"/>
      <use xlink:href="#DejaVuSans-65" x="126.953125"/>
      <use xlink:href="#DejaVuSans-63" x="188.476562"/>
      <use xlink:href="#DejaVuSans-74" x="243.457031"/>
      <use xlink:href="#DejaVuSans-72" x="282.666016"/>
      <use xlink:href="#DejaVuSans-61" x="323.779297"/>
      <use xlink:href="#DejaVuSans-6c" x="385.058594"/>
      <use xlink:href="#DejaVuSans-20" x="412.841797"/>
      <use xlink:href="#DejaVuSans-61" x="444.628906"/>
      <use xlink:href="#DejaVuSans-63" x="505.908203"/>
      <use xlink:href="#DejaVuSans-63" x="560.888672"/>
      <use xlink:href="#DejaVuSans-65" x="615.869141"/>
      <use xlink:href="#DejaVuSans-6c" x="677.392578"/>
      <use xlink:href="#DejaVuSans-65" x="705.175781"/>
      <use xlink:href="#DejaVuSans-72" x="766.699219"/>
      <use xlink:href="#DejaVuSans-61" x="807.8125"/>
      <use xlink:href="#DejaVuSans-74" x="869.091797"/>
      <use xlink:href="#DejaVuSans-69" x="908.300781"/>
      <use xlink:href="#DejaVuSans-6f" x="936.083984"/>
      <use xlink:href="#DejaVuSans-6e" x="997.265625"/>
      <use xlink:href="#DejaVuSans-2c" x="1060.644531"/>
      <use xlink:href="#DejaVuSans-20" x="1092.431641"/>
      <use xlink:href="#DejaVuSans-53" x="1124.21875"/>
      <use xlink:href="#DejaVuSans-41" x="1189.570312"/>
      <use xlink:href="#DejaVuSans-20" x="1257.978516"/>
      <use xlink:href="#DejaVuSans-28" x="1289.765625"/>
      <use xlink:href="#DejaVuSans-67" x="1328.779297"/>
      <use xlink:href="#DejaVuSans-29" x="1392.255859"/>
     </g>
    </g>
   </g>
   <g id="line2d_63">
    <path d="M 53.721227 39.841414 
L 73.459257 33.340304 
L 87.463612 32.263788 
L 98.326234 31.215166 
L 107.201642 33.373757 
L 121.205997 41.559854 
L 130.384708 46.470533 
L 132.068618 48.185979 
L 151.806648 61.66703 
L 165.811003 68.63746 
L 178.582888 73.642803 
L 185.549033 78.08845 
L 199.553388 85.664853 
L 219.291418 102.178094 
L 233.295773 113.739322 
" clip-path="url(#pceafc25a8a)" style="fill: none; stroke: #b2b2b2; stroke-width: 0.8; stroke-linecap: square"/>
   </g>
   <g id="line2d_64">
    <path d="M 53.721227 39.248085 
L 73.459257 41.170699 
L 87.463612 39.821255 
L 98.326234 38.718589 
L 107.201642 38.168643 
L 121.205997 45.135845 
L 130.384708 46.470533 
L 132.068618 47.553834 
L 151.806648 52.351044 
L 165.811003 55.864386 
L 178.582888 61.419636 
L 185.549033 65.087138 
L 199.553388 76.236113 
L 219.291418 94.212586 
L 233.295773 116.474774 
" clip-path="url(#pceafc25a8a)" style="fill: none; stroke: #b2b2b2; stroke-width: 0.8; stroke-linecap: square"/>
   </g>
   <g id="line2d_65">
    <path d="M 53.721227 39.946235 
L 73.459257 36.556052 
L 87.463612 36.349625 
L 98.326234 37.134908 
L 107.201642 39.036414 
L 121.205997 43.414096 
L 130.384708 46.470533 
L 132.068618 47.457387 
L 151.806648 56.577174 
L 165.811003 57.329677 
L 178.582888 61.277304 
L 185.549033 65.873005 
L 199.553388 67.247505 
L 219.291418 75.009067 
L 233.295773 84.105557 
" clip-path="url(#pceafc25a8a)" style="fill: none; stroke: #b2b2b2; stroke-width: 0.8; stroke-linecap: square"/>
   </g>
   <g id="line2d_66">
    <path d="M 53.721227 37.257528 
L 73.459257 34.949054 
L 87.463612 32.780523 
L 98.326234 33.531669 
L 107.201642 35.429942 
L 121.205997 42.696628 
L 130.384708 46.470533 
L 132.068618 47.841998 
L 151.806648 56.421658 
L 165.811003 60.236438 
L 178.582888 66.375788 
L 185.549033 69.284113 
L 199.553388 73.698532 
L 219.291418 81.771084 
L 233.295773 90.893268 
" clip-path="url(#pceafc25a8a)" style="fill: none; stroke: #b2b2b2; stroke-width: 0.8; stroke-linecap: square"/>
   </g>
   <g id="line2d_67">
    <path d="M 53.721227 36.643145 
L 73.459257 38.281814 
L 87.463612 39.671205 
L 98.326234 39.994762 
L 107.201642 41.526646 
L 121.205997 43.416531 
L 130.384708 46.470533 
L 132.068618 46.479348 
L 151.806648 51.317668 
L 165.811003 56.547301 
L 178.582888 62.861992 
L 185.549033 62.61645 
L 199.553388 65.197291 
L 219.291418 77.613831 
L 233.295773 92.089237 
" clip-path="url(#pceafc25a8a)" style="fill: none; stroke: #b2b2b2; stroke-width: 0.8; stroke-linecap: square"/>
   </g>
   <g id="line2d_68">
    <path d="M 53.721227 48.163913 
L 73.459257 47.592154 
L 87.463612 47.793852 
L 98.326234 48.992777 
L 107.201642 49.108246 
L 121.205997 47.371135 
L 130.384708 46.470533 
L 132.068618 47.723749 
L 151.806648 53.706868 
L 165.811003 60.855802 
L 178.582888 63.151977 
L 185.549033 60.896448 
L 199.553388 65.727353 
L 219.291418 73.621076 
L 233.295773 85.155952 
" clip-path="url(#pceafc25a8a)" style="fill: none; stroke: #b2b2b2; stroke-width: 0.8; stroke-linecap: square"/>
   </g>
   <g id="line2d_69">
    <path d="M 53.721227 42.476328 
L 73.459257 43.443225 
L 87.463612 46.429637 
L 98.326234 48.062357 
L 107.201642 45.772124 
L 121.205997 44.151871 
L 130.384708 46.470533 
L 132.068618 46.862507 
L 151.806648 48.249391 
L 165.811003 52.399283 
L 178.582888 56.407968 
L 185.549033 60.582037 
L 199.553388 74.334756 
L 219.291418 89.176203 
L 233.295773 100.078344 
" clip-path="url(#pceafc25a8a)" style="fill: none; stroke: #b2b2b2; stroke-width: 0.8; stroke-linecap: square"/>
   </g>
   <g id="line2d_70">
    <path d="M 53.721227 38.202519 
L 73.459257 40.464912 
L 87.463612 43.183294 
L 98.326234 43.031378 
L 107.201642 44.851865 
L 121.205997 45.003398 
L 130.384708 46.470533 
L 132.068618 47.394199 
L 151.806648 45.763857 
L 165.811003 52.168236 
L 178.582888 57.77937 
L 185.549033 61.408735 
L 199.553388 63.949728 
L 219.291418 78.042916 
L 233.295773 93.392409 
" clip-path="url(#pceafc25a8a)" style="fill: none; stroke: #b2b2b2; stroke-width: 0.8; stroke-linecap: square"/>
   </g>
   <g id="line2d_71">
    <path d="M 53.721227 32.004194 
L 73.459257 34.971911 
L 87.463612 33.709741 
L 98.326234 35.640289 
L 107.201642 36.024885 
L 121.205997 43.749824 
L 130.384708 46.470533 
L 132.068618 46.691749 
L 151.806648 48.931145 
L 165.811003 55.68315 
L 178.582888 58.757951 
L 185.549033 62.609333 
L 199.553388 68.777142 
L 219.291418 78.438729 
L 233.295773 93.186173 
" clip-path="url(#pceafc25a8a)" style="fill: none; stroke: #b2b2b2; stroke-width: 0.8; stroke-linecap: square"/>
   </g>
   <g id="line2d_72">
    <path d="M 53.721227 60.462239 
L 73.459257 54.656072 
L 87.463612 53.244298 
L 98.326234 53.458331 
L 107.201642 53.003044 
L 121.205997 49.775342 
L 130.384708 46.470533 
L 132.068618 45.16591 
L 151.806648 48.76982 
L 165.811003 55.329005 
L 178.582888 57.292609 
L 185.549033 55.945909 
L 199.553388 57.493121 
L 219.291418 63.900684 
L 233.295773 79.683082 
" clip-path="url(#pceafc25a8a)" style="fill: none; stroke: #b2b2b2; stroke-width: 0.8; stroke-linecap: square"/>
   </g>
   <g id="line2d_73">
    <path d="M 53.721227 40.748721 
L 73.459257 42.238916 
L 87.463612 42.208998 
L 98.326234 43.100024 
L 107.201642 45.533733 
L 121.205997 45.916895 
L 130.384708 46.470533 
L 132.068618 46.439463 
L 151.806648 46.265237 
L 165.811003 47.916962 
L 178.582888 55.143718 
L 185.549033 57.396555 
L 199.553388 67.132161 
L 219.291418 83.66008 
L 233.295773 97.843865 
" clip-path="url(#pceafc25a8a)" style="fill: none; stroke: #b2b2b2; stroke-width: 0.8; stroke-linecap: square"/>
   </g>
   <g id="line2d_74">
    <path d="M 53.721227 54.234869 
L 73.459257 51.047362 
L 87.463612 50.461715 
L 98.326234 51.285302 
L 107.201642 48.648495 
L 121.205997 47.186191 
L 130.384708 46.470533 
L 132.068618 45.373343 
L 151.806648 44.316209 
L 165.811003 45.49446 
L 178.582888 46.913397 
L 185.549033 50.358279 
L 199.553388 59.419097 
L 219.291418 78.084261 
L 233.295773 94.654715 
" clip-path="url(#pceafc25a8a)" style="fill: none; stroke: #b2b2b2; stroke-width: 0.8; stroke-linecap: square"/>
   </g>
   <g id="line2d_75">
    <path d="M 53.721227 60.755874 
L 73.459257 56.084551 
L 87.463612 53.634261 
L 98.326234 51.61889 
L 107.201642 49.535593 
L 121.205997 45.664623 
L 130.384708 46.470533 
L 132.068618 46.210138 
L 151.806648 45.776223 
L 165.811003 48.312578 
L 178.582888 51.774519 
L 185.549033 54.714438 
L 199.553388 58.452036 
L 219.291418 62.130087 
L 233.295773 74.493423 
" clip-path="url(#pceafc25a8a)" style="fill: none; stroke: #b2b2b2; stroke-width: 0.8; stroke-linecap: square"/>
   </g>
   <g id="line2d_76">
    <path d="M 53.721227 46.064663 
L 73.459257 45.641784 
L 87.463612 40.296396 
L 98.326234 41.334815 
L 107.201642 39.273237 
L 121.205997 43.041392 
L 130.384708 46.470533 
L 132.068618 46.865292 
L 151.806648 44.292054 
L 165.811003 45.984023 
L 178.582888 54.79419 
L 185.549033 57.113079 
L 199.553388 59.436014 
L 219.291418 66.643071 
L 233.295773 85.604275 
" clip-path="url(#pceafc25a8a)" style="fill: none; stroke: #b2b2b2; stroke-width: 0.8; stroke-linecap: square"/>
   </g>
   <g id="line2d_77">
    <path d="M 53.721227 64.659448 
L 73.459257 64.19393 
L 87.463612 61.864771 
L 98.326234 59.003249 
L 107.201642 55.972965 
L 121.205997 48.735649 
L 130.384708 46.470533 
L 132.068618 45.901256 
L 151.806648 40.912505 
L 165.811003 38.260394 
L 178.582888 41.468325 
L 185.549033 43.019666 
L 199.553388 47.255264 
L 219.291418 54.489178 
L 233.295773 60.421552 
" clip-path="url(#pceafc25a8a)" style="fill: none; stroke: #b2b2b2; stroke-width: 0.8; stroke-linecap: square"/>
   </g>
   <g id="line2d_78">
    <path d="M 53.721227 55.260509 
L 73.459257 49.911826 
L 87.463612 46.514975 
L 98.326234 46.09348 
L 107.201642 47.697531 
L 121.205997 46.559335 
L 130.384708 46.470533 
L 132.068618 45.375108 
L 151.806648 47.211996 
L 165.811003 50.03699 
L 178.582888 50.897909 
L 185.549033 55.693426 
L 199.553388 60.84687 
L 219.291418 79.128088 
L 233.295773 89.942237 
" clip-path="url(#pceafc25a8a)" style="fill: none; stroke: #b2b2b2; stroke-width: 0.8; stroke-linecap: square"/>
   </g>
   <g id="line2d_79">
    <path d="M 53.721227 60.010298 
L 73.459257 58.692945 
L 87.463612 56.066002 
L 98.326234 52.454526 
L 107.201642 50.254946 
L 121.205997 48.793488 
L 130.384708 46.470533 
L 132.068618 46.314792 
L 151.806648 39.227336 
L 165.811003 35.182944 
L 178.582888 34.411671 
L 185.549033 35.789818 
L 199.553388 41.826646 
L 219.291418 55.997848 
L 233.295773 72.750522 
" clip-path="url(#pceafc25a8a)" style="fill: none; stroke: #b2b2b2; stroke-width: 0.8; stroke-linecap: square"/>
   </g>
   <g id="line2d_80">
    <path d="M 53.721227 58.257819 
L 73.459257 49.834007 
L 87.463612 47.460086 
L 98.326234 46.175098 
L 107.201642 46.187739 
L 121.205997 46.951303 
L 130.384708 46.470533 
L 132.068618 45.856835 
L 151.806648 50.993719 
L 165.811003 51.37788 
L 178.582888 51.981592 
L 185.549033 54.251285 
L 199.553388 59.933526 
L 219.291418 66.992758 
L 233.295773 74.290635 
" clip-path="url(#pceafc25a8a)" style="fill: none; stroke: #b2b2b2; stroke-width: 0.8; stroke-linecap: square"/>
   </g>
   <g id="line2d_81">
    <path d="M 53.721227 46.703778 
L 73.459257 46.451519 
L 87.463612 46.4946 
L 98.326234 46.997343 
L 107.201642 46.269328 
L 121.205997 46.154671 
L 130.384708 46.470533 
L 132.068618 47.916982 
L 151.806648 46.633173 
L 165.811003 50.795838 
L 178.582888 56.79257 
L 185.549033 57.82812 
L 199.553388 62.328986 
L 219.291418 74.646513 
L 233.295773 88.311344 
" clip-path="url(#pceafc25a8a)" style="fill: none; stroke: #b2b2b2; stroke-width: 0.8; stroke-linecap: square"/>
   </g>
   <g id="line2d_82">
    <path d="M 53.721227 40.160507 
L 73.459257 39.287938 
L 87.463612 37.728905 
L 98.326234 39.243475 
L 107.201642 41.430099 
L 121.205997 43.370213 
L 130.384708 46.470533 
L 132.068618 47.373034 
L 151.806648 53.379607 
L 165.811003 51.95924 
L 178.582888 58.269259 
L 185.549033 62.095013 
L 199.553388 67.658767 
L 219.291418 79.252952 
L 233.295773 86.915386 
" clip-path="url(#pceafc25a8a)" style="fill: none; stroke: #b2b2b2; stroke-width: 0.8; stroke-linecap: square"/>
   </g>
   <g id="line2d_83">
    <path d="M 53.721227 59.305881 
L 73.459257 55.979496 
L 87.463612 51.809058 
L 98.326234 50.616264 
L 107.201642 49.570675 
L 121.205997 48.194678 
L 130.384708 46.470533 
L 132.068618 46.554688 
L 151.806648 42.67614 
L 165.811003 39.285541 
L 178.582888 41.37644 
L 185.549033 42.445311 
L 199.553388 49.764301 
L 219.291418 65.113556 
L 233.295773 84.158011 
" clip-path="url(#pceafc25a8a)" style="fill: none; stroke: #b2b2b2; stroke-width: 0.8; stroke-linecap: square"/>
   </g>
   <g id="line2d_84">
    <path d="M 53.721227 35.556495 
L 73.459257 38.009427 
L 87.463612 35.688852 
L 98.326234 35.948945 
L 107.201642 38.462469 
L 121.205997 41.614227 
L 130.384708 46.470533 
L 132.068618 46.153888 
L 151.806648 52.278066 
L 165.811003 54.607599 
L 178.582888 59.239019 
L 185.549033 60.441049 
L 199.553388 65.955352 
L 219.291418 77.929416 
L 233.295773 85.753241 
" clip-path="url(#pceafc25a8a)" style="fill: none; stroke: #b2b2b2; stroke-width: 0.8; stroke-linecap: square"/>
   </g>
   <g id="line2d_85">
    <path d="M 53.721227 44.788891 
L 73.459257 45.778391 
L 87.463612 46.686783 
L 98.326234 46.250058 
L 107.201642 47.911021 
L 121.205997 47.745863 
L 130.384708 46.470533 
L 132.068618 46.178312 
L 151.806648 53.765343 
L 165.811003 55.164413 
L 178.582888 60.452814 
L 185.549033 67.989833 
L 199.553388 76.775089 
L 219.291418 86.73008 
L 233.295773 96.672185 
" clip-path="url(#pceafc25a8a)" style="fill: none; stroke: #b2b2b2; stroke-width: 0.8; stroke-linecap: square"/>
   </g>
   <g id="line2d_86">
    <path d="M 53.721227 29.761559 
L 73.459257 29.22089 
L 87.463612 31.030277 
L 98.326234 34.19186 
L 107.201642 36.772689 
L 121.205997 45.26949 
L 130.384708 46.470533 
L 132.068618 46.849985 
L 151.806648 52.960083 
L 165.811003 51.967816 
L 178.582888 60.119619 
L 185.549033 65.79985 
L 199.553388 71.509979 
L 219.291418 86.920517 
L 233.295773 98.648335 
" clip-path="url(#pceafc25a8a)" style="fill: none; stroke: #b2b2b2; stroke-width: 0.8; stroke-linecap: square"/>
   </g>
   <g id="line2d_87">
    <path d="M 53.721227 27.505987 
L 73.459257 29.594176 
L 87.463612 33.133875 
L 98.326234 35.732918 
L 107.201642 37.280612 
L 121.205997 43.671454 
L 130.384708 46.470533 
L 132.068618 47.082655 
L 151.806648 57.732216 
L 165.811003 61.772498 
L 178.582888 65.599874 
L 185.549033 67.167533 
L 199.553388 72.015625 
L 219.291418 83.114323 
L 233.295773 91.888775 
" clip-path="url(#pceafc25a8a)" style="fill: none; stroke: #b2b2b2; stroke-width: 0.8; stroke-linecap: square"/>
   </g>
   <g id="line2d_88">
    <path d="M 53.721227 51.381779 
L 73.459257 48.249912 
L 87.463612 43.660115 
L 98.326234 43.740966 
L 107.201642 44.903564 
L 121.205997 45.621507 
L 130.384708 46.470533 
L 132.068618 47.582689 
L 151.806648 57.113189 
L 165.811003 56.848481 
L 178.582888 64.327311 
L 185.549033 68.608354 
L 199.553388 70.673366 
L 219.291418 85.965965 
L 233.295773 90.819457 
" clip-path="url(#pceafc25a8a)" style="fill: none; stroke: #b2b2b2; stroke-width: 0.8; stroke-linecap: square"/>
   </g>
   <g id="line2d_89">
    <path d="M 53.721227 42.431668 
L 73.459257 39.306177 
L 87.463612 41.541865 
L 98.326234 44.013889 
L 107.201642 44.211296 
L 121.205997 43.740687 
L 130.384708 46.470533 
L 132.068618 44.747211 
L 151.806648 45.782064 
L 165.811003 47.795892 
L 178.582888 53.92909 
L 185.549033 58.623319 
L 199.553388 68.672462 
L 219.291418 78.86395 
L 233.295773 83.830404 
" clip-path="url(#pceafc25a8a)" style="fill: none; stroke: #b2b2b2; stroke-width: 0.8; stroke-linecap: square"/>
   </g>
   <g id="line2d_90">
    <path d="M 53.721227 33.161414 
L 73.459257 34.08088 
L 87.463612 34.113251 
L 98.326234 33.010071 
L 107.201642 35.692154 
L 121.205997 44.03381 
L 130.384708 46.470533 
L 132.068618 46.260792 
L 151.806648 56.57463 
L 165.811003 61.326354 
L 178.582888 64.624208 
L 185.549033 70.700248 
L 199.553388 75.101632 
L 219.291418 86.515918 
L 233.295773 98.023013 
" clip-path="url(#pceafc25a8a)" style="fill: none; stroke: #b2b2b2; stroke-width: 0.8; stroke-linecap: square"/>
   </g>
   <g id="line2d_91">
    <path d="M 53.721227 47.342616 
L 73.459257 45.433918 
L 87.463612 46.856077 
L 98.326234 47.482786 
L 107.201642 47.224893 
L 121.205997 46.078952 
L 130.384708 46.470533 
L 132.068618 47.696008 
L 151.806648 55.092192 
L 165.811003 65.55783 
L 178.582888 73.486142 
L 185.549033 77.139074 
L 199.553388 91.31717 
L 219.291418 110.983163 
L 233.295773 132.0912 
" clip-path="url(#pceafc25a8a)" style="fill: none; stroke: #b2b2b2; stroke-width: 0.8; stroke-linecap: square"/>
   </g>
   <g id="line2d_92">
    <path d="M 53.721227 35.546922 
L 73.459257 29.950484 
L 87.463612 29.025258 
L 98.326234 32.835228 
L 107.201642 35.754879 
L 121.205997 42.577398 
L 130.384708 46.470533 
L 132.068618 47.44286 
L 151.806648 50.006313 
L 165.811003 55.486333 
L 178.582888 54.884979 
L 185.549033 55.379918 
L 199.553388 58.45537 
L 219.291418 74.682639 
L 233.295773 77.653067 
" clip-path="url(#pceafc25a8a)" style="fill: none; stroke: #b2b2b2; stroke-width: 0.8; stroke-linecap: square"/>
   </g>
   <g id="line2d_93">
    <path d="M 53.721227 28.30399 
L 73.459257 29.722348 
L 87.463612 31.405675 
L 98.326234 38.04848 
L 107.201642 40.215358 
L 121.205997 42.957134 
L 130.384708 46.470533 
L 132.068618 48.167574 
L 151.806648 54.516989 
L 165.811003 60.858384 
L 178.582888 67.24179 
L 185.549033 69.820587 
L 199.553388 77.319541 
L 219.291418 81.354304 
L 233.295773 92.804506 
" clip-path="url(#pceafc25a8a)" style="fill: none; stroke: #b2b2b2; stroke-width: 0.8; stroke-linecap: square"/>
   </g>
   <g id="line2d_94">
    <path d="M 53.721227 61.29175 
L 73.459257 56.323903 
L 87.463612 53.867901 
L 98.326234 53.506292 
L 107.201642 52.786779 
L 121.205997 50.438994 
L 130.384708 46.470533 
L 132.068618 45.854665 
L 151.806648 48.246534 
L 165.811003 50.341574 
L 178.582888 53.420365 
L 185.549033 57.809058 
L 199.553388 71.487448 
L 219.291418 86.291363 
L 233.295773 89.82628 
" clip-path="url(#pceafc25a8a)" style="fill: none; stroke: #b2b2b2; stroke-width: 0.8; stroke-linecap: square"/>
   </g>
   <g id="line2d_95">
    <path d="M 53.721227 49.514649 
L 73.459257 44.903624 
L 87.463612 43.89526 
L 98.326234 45.128954 
L 107.201642 44.530958 
L 121.205997 44.99606 
L 130.384708 46.470533 
L 132.068618 47.934785 
L 151.806648 53.722797 
L 165.811003 56.188921 
L 178.582888 58.635434 
L 185.549033 60.916365 
L 199.553388 68.914412 
L 219.291418 83.548699 
L 233.295773 99.011027 
" clip-path="url(#pceafc25a8a)" style="fill: none; stroke: #b2b2b2; stroke-width: 0.8; stroke-linecap: square"/>
   </g>
   <g id="line2d_96">
    <path d="M 53.721227 60.737034 
L 73.459257 56.818251 
L 87.463612 54.718678 
L 98.326234 54.580841 
L 107.201642 52.956417 
L 121.205997 50.57579 
L 130.384708 46.470533 
L 132.068618 47.210191 
L 151.806648 45.343606 
L 165.811003 48.928742 
L 178.582888 51.010796 
L 185.549033 50.251209 
L 199.553388 58.889983 
L 219.291418 70.199787 
L 233.295773 80.955443 
" clip-path="url(#pceafc25a8a)" style="fill: none; stroke: #b2b2b2; stroke-width: 0.8; stroke-linecap: square"/>
   </g>
   <g id="line2d_97">
    <path d="M 53.721227 55.78381 
L 73.459257 51.014173 
L 87.463612 47.663172 
L 98.326234 46.932391 
L 107.201642 45.79763 
L 121.205997 45.204099 
L 130.384708 46.470533 
L 132.068618 45.90054 
L 151.806648 48.741397 
L 165.811003 54.441458 
L 178.582888 55.348491 
L 185.549033 58.900356 
L 199.553388 62.989183 
L 219.291418 75.083979 
L 233.295773 86.549686 
" clip-path="url(#pceafc25a8a)" style="fill: none; stroke: #b2b2b2; stroke-width: 0.8; stroke-linecap: square"/>
   </g>
   <g id="line2d_98">
    <path d="M 53.721227 20.833092 
L 73.459257 19.71803 
L 87.463612 23.661299 
L 98.326234 29.124597 
L 107.201642 33.643054 
L 121.205997 42.106045 
L 130.384708 46.470533 
L 132.068618 46.518094 
L 151.806648 50.365778 
L 165.811003 52.303348 
L 178.582888 59.072343 
L 185.549033 64.292061 
L 199.553388 68.218546 
L 219.291418 77.291714 
L 233.295773 86.193799 
" clip-path="url(#pceafc25a8a)" style="fill: none; stroke: #b2b2b2; stroke-width: 0.8; stroke-linecap: square"/>
   </g>
   <g id="line2d_99">
    <path d="M 53.721227 40.583106 
L 73.459257 40.103533 
L 87.463612 41.972067 
L 98.326234 41.536888 
L 107.201642 42.949856 
L 121.205997 44.068809 
L 130.384708 46.470533 
L 132.068618 45.963793 
L 151.806648 51.630625 
L 165.811003 56.278802 
L 178.582888 63.479209 
L 185.549033 71.202661 
L 199.553388 81.340503 
L 219.291418 97.043516 
L 233.295773 107.988068 
" clip-path="url(#pceafc25a8a)" style="fill: none; stroke: #b2b2b2; stroke-width: 0.8; stroke-linecap: square"/>
   </g>
   <g id="line2d_100">
    <path d="M 53.721227 58.266238 
L 73.459257 49.981873 
L 87.463612 48.46167 
L 98.326234 48.168676 
L 107.201642 47.727019 
L 121.205997 45.371709 
L 130.384708 46.470533 
L 132.068618 46.9124 
L 151.806648 49.737992 
L 165.811003 50.577156 
L 178.582888 52.945085 
L 185.549033 57.411488 
L 199.553388 60.187945 
L 219.291418 67.15171 
L 233.295773 76.013076 
" clip-path="url(#pceafc25a8a)" style="fill: none; stroke: #b2b2b2; stroke-width: 0.8; stroke-linecap: square"/>
   </g>
   <g id="line2d_101">
    <path d="M 53.721227 50.202442 
L 73.459257 47.929679 
L 87.463612 45.12077 
L 98.326234 43.864002 
L 107.201642 43.40448 
L 121.205997 45.596459 
L 130.384708 46.470533 
L 132.068618 47.306128 
L 151.806648 51.466819 
L 165.811003 58.558522 
L 178.582888 65.086455 
L 185.549033 65.23634 
L 199.553388 67.088382 
L 219.291418 78.892045 
L 233.295773 92.335621 
" clip-path="url(#pceafc25a8a)" style="fill: none; stroke: #b2b2b2; stroke-width: 0.8; stroke-linecap: square"/>
   </g>
   <g id="line2d_102">
    <path d="M 53.721227 39.730338 
L 73.459257 39.924545 
L 87.463612 39.860746 
L 98.326234 40.256748 
L 107.201642 40.829221 
L 121.205997 44.799543 
L 130.384708 46.470533 
L 132.068618 46.183199 
L 151.806648 51.032479 
L 165.811003 52.639836 
L 178.582888 58.015095 
L 185.549033 61.410852 
L 199.553388 67.651797 
L 219.291418 82.613497 
L 233.295773 91.294408 
" clip-path="url(#pceafc25a8a)" style="fill: none; stroke: #b2b2b2; stroke-width: 0.8; stroke-linecap: square"/>
   </g>
   <g id="line2d_103">
    <path d="M 53.721227 32.02726 
L 73.459257 35.684017 
L 87.463612 38.67433 
L 98.326234 39.643445 
L 107.201642 41.403918 
L 121.205997 44.860386 
L 130.384708 46.470533 
L 132.068618 46.395988 
L 151.806648 55.03498 
L 165.811003 62.914283 
L 178.582888 68.062878 
L 185.549033 70.708557 
L 199.553388 73.063633 
L 219.291418 82.790007 
L 233.295773 93.164011 
" clip-path="url(#pceafc25a8a)" style="fill: none; stroke: #b2b2b2; stroke-width: 0.8; stroke-linecap: square"/>
   </g>
   <g id="line2d_104">
    <path d="M 53.721227 46.840053 
L 73.459257 43.890876 
L 87.463612 42.841464 
L 98.326234 42.790652 
L 107.201642 43.846275 
L 121.205997 45.600551 
L 130.384708 46.470533 
L 132.068618 46.240285 
L 151.806648 46.195142 
L 165.811003 48.868658 
L 178.582888 48.266493 
L 185.549033 48.466573 
L 199.553388 49.180074 
L 219.291418 57.604971 
L 233.295773 68.26375 
" clip-path="url(#pceafc25a8a)" style="fill: none; stroke: #b2b2b2; stroke-width: 0.8; stroke-linecap: square"/>
   </g>
   <g id="line2d_105">
    <path d="M 53.721227 27.959404 
L 73.459257 22.030453 
L 87.463612 26.879336 
L 98.326234 30.714985 
L 107.201642 35.75235 
L 121.205997 42.799764 
L 130.384708 46.470533 
L 132.068618 46.532438 
L 151.806648 52.541474 
L 165.811003 62.299561 
L 178.582888 72.343773 
L 185.549033 78.262652 
L 199.553388 87.885278 
L 219.291418 95.813092 
L 233.295773 106.287678 
" clip-path="url(#pceafc25a8a)" style="fill: none; stroke: #b2b2b2; stroke-width: 0.8; stroke-linecap: square"/>
   </g>
   <g id="line2d_106">
    <path d="M 53.721227 52.399472 
L 73.459257 49.110883 
L 87.463612 46.748916 
L 98.326234 45.742824 
L 107.201642 47.184782 
L 121.205997 47.148739 
L 130.384708 46.470533 
L 132.068618 47.126443 
L 151.806648 45.927703 
L 165.811003 47.29098 
L 178.582888 51.769644 
L 185.549033 53.793233 
L 199.553388 65.379843 
L 219.291418 81.024548 
L 233.295773 99.222422 
" clip-path="url(#pceafc25a8a)" style="fill: none; stroke: #b2b2b2; stroke-width: 0.8; stroke-linecap: square"/>
   </g>
   <g id="line2d_107">
    <path d="M 53.721227 36.669459 
L 73.459257 34.165962 
L 87.463612 35.008271 
L 98.326234 36.947241 
L 107.201642 38.472046 
L 121.205997 43.854353 
L 130.384708 46.470533 
L 132.068618 46.655885 
L 151.806648 51.230375 
L 165.811003 52.846353 
L 178.582888 57.450992 
L 185.549033 61.471056 
L 199.553388 69.861169 
L 219.291418 84.064655 
L 233.295773 98.404442 
" clip-path="url(#pceafc25a8a)" style="fill: none; stroke: #b2b2b2; stroke-width: 0.8; stroke-linecap: square"/>
   </g>
   <g id="line2d_108">
    <path d="M 53.721227 60.530276 
L 73.459257 57.164792 
L 87.463612 52.130235 
L 98.326234 50.212355 
L 107.201642 47.346113 
L 121.205997 46.894533 
L 130.384708 46.470533 
L 132.068618 46.250677 
L 151.806648 42.228758 
L 165.811003 43.544695 
L 178.582888 46.336986 
L 185.549033 44.412197 
L 199.553388 46.427933 
L 219.291418 61.492878 
L 233.295773 73.741652 
" clip-path="url(#pceafc25a8a)" style="fill: none; stroke: #b2b2b2; stroke-width: 0.8; stroke-linecap: square"/>
   </g>
   <g id="line2d_109">
    <path d="M 53.721227 51.065494 
L 73.459257 44.900925 
L 87.463612 44.487383 
L 98.326234 39.954354 
L 107.201642 40.744421 
L 121.205997 45.493243 
L 130.384708 46.470533 
L 132.068618 48.071321 
L 151.806648 54.352229 
L 165.811003 65.081495 
L 178.582888 73.668787 
L 185.549033 78.79981 
L 199.553388 90.953168 
L 219.291418 102.571908 
L 233.295773 111.427196 
" clip-path="url(#pceafc25a8a)" style="fill: none; stroke: #b2b2b2; stroke-width: 0.8; stroke-linecap: square"/>
   </g>
   <g id="line2d_110">
    <path d="M 53.721227 33.123501 
L 73.459257 33.351695 
L 87.463612 35.513667 
L 98.326234 37.213358 
L 107.201642 38.149734 
L 121.205997 40.608024 
L 130.384708 46.470533 
L 132.068618 46.504755 
L 151.806648 50.013936 
L 165.811003 53.248259 
L 178.582888 54.658445 
L 185.549033 56.133187 
L 199.553388 61.802591 
L 219.291418 62.447405 
L 233.295773 65.718867 
" clip-path="url(#pceafc25a8a)" style="fill: none; stroke: #b2b2b2; stroke-width: 0.8; stroke-linecap: square"/>
   </g>
   <g id="line2d_111">
    <path d="M 53.721227 35.028839 
L 73.459257 28.846368 
L 87.463612 32.984626 
L 98.326234 37.267436 
L 107.201642 41.163548 
L 121.205997 46.401134 
L 130.384708 46.470533 
L 132.068618 46.205155 
L 151.806648 46.832138 
L 165.811003 49.206994 
L 178.582888 48.803249 
L 185.549033 50.127534 
L 199.553388 55.596843 
L 219.291418 65.487481 
L 233.295773 76.703562 
" clip-path="url(#pceafc25a8a)" style="fill: none; stroke: #b2b2b2; stroke-width: 0.8; stroke-linecap: square"/>
   </g>
   <g id="line2d_112">
    <path d="M 53.721227 13.1472 
L 73.459257 17.509713 
L 87.463612 21.558968 
L 98.326234 30.186404 
L 107.201642 35.644319 
L 121.205997 42.274836 
L 130.384708 46.470533 
L 132.068618 47.198712 
L 151.806648 60.780745 
L 165.811003 73.088223 
L 178.582888 79.978509 
L 185.549033 84.876301 
L 199.553388 92.408725 
L 219.291418 107.2359 
L 233.295773 116.379629 
" clip-path="url(#pceafc25a8a)" style="fill: none; stroke: #b2b2b2; stroke-width: 0.8; stroke-linecap: square"/>
   </g>
   <g id="line2d_113">
    <path d="M 53.721227 44.094012 
L 73.459257 42.1837 
L 87.463612 41.714283 
L 98.326234 42.501284 
L 107.201642 43.250824 
L 121.205997 45.229323 
L 130.384708 46.470533 
L 132.068618 46.619818 
L 151.806648 50.293362 
L 165.811003 53.760064 
L 178.582888 58.073153 
L 185.549033 60.969056 
L 199.553388 67.207433 
L 219.291418 78.956935 
L 233.295773 90.513961 
" clip-path="url(#pceafc25a8a)" style="fill: none; stroke: #ff0000; stroke-width: 2; stroke-linecap: square"/>
   </g>
   <g id="line2d_114">
    <path d="M 53.721227 20.509682 
L 73.459257 21.65238 
L 87.463612 24.321184 
L 98.326234 27.998259 
L 107.201642 32.231031 
L 121.205997 40.722388 
L 130.384708 46.470532 
L 132.068618 44.620373 
L 151.806648 40.511141 
L 165.811003 39.416272 
L 178.582888 40.315374 
L 185.549033 41.421347 
L 199.553388 44.969855 
L 219.291418 53.815537 
L 233.295773 63.195555 
" clip-path="url(#pceafc25a8a)" style="fill: none; stroke-dasharray: 7.4,3.2; stroke-dashoffset: 0; stroke: #ff0000; stroke-width: 2"/>
   </g>
   <g id="line2d_115">
    <path d="M 53.721227 67.678342 
L 73.459257 62.71502 
L 87.463612 59.107383 
L 98.326234 57.004308 
L 107.201642 54.270617 
L 121.205997 49.736259 
L 130.384708 46.470533 
L 132.068618 48.619263 
L 151.806648 60.075583 
L 165.811003 68.103856 
L 178.582888 75.830932 
L 185.549033 80.516766 
L 199.553388 89.44501 
L 219.291418 104.098332 
L 233.295773 117.832367 
" clip-path="url(#pceafc25a8a)" style="fill: none; stroke-dasharray: 7.4,3.2; stroke-dashoffset: 0; stroke: #ff0000; stroke-width: 2"/>
   </g>
   <g id="line2d_116">
    <path d="M 53.721227 44.038454 
L 73.459257 42.150207 
L 87.463612 41.779555 
L 98.326234 42.454607 
L 107.201642 43.188635 
L 121.205997 45.184931 
L 130.384708 46.470533 
L 132.068618 46.7333 
L 151.806648 50.333729 
L 165.811003 53.793821 
L 178.582888 58.100977 
L 185.549033 60.984957 
L 199.553388 67.190062 
L 219.291418 79.036242 
L 233.295773 90.516978 
" clip-path="url(#pceafc25a8a)" style="fill: none; stroke: #0000ff; stroke-width: 2; stroke-linecap: square"/>
   </g>
   <g id="line2d_117">
    <path d="M 53.721227 20.530391 
L 73.459257 21.469056 
L 87.463612 24.392219 
L 98.326234 28.222773 
L 107.201642 32.00865 
L 121.205997 40.633333 
L 130.384708 46.470533 
L 132.068618 45.114249 
L 151.806648 40.526369 
L 165.811003 39.184779 
L 178.582888 40.538321 
L 185.549033 41.347497 
L 199.553388 44.897063 
L 219.291418 53.827721 
L 233.295773 63.19116 
" clip-path="url(#pceafc25a8a)" style="fill: none; stroke-dasharray: 7.4,3.2; stroke-dashoffset: 0; stroke: #0000ff; stroke-width: 2"/>
   </g>
   <g id="line2d_118">
    <path d="M 53.721227 67.546517 
L 73.459257 62.831359 
L 87.463612 59.166892 
L 98.326234 56.68644 
L 107.201642 54.36862 
L 121.205997 49.73653 
L 130.384708 46.470533 
L 132.068618 48.352352 
L 151.806648 60.141089 
L 165.811003 68.402863 
L 178.582888 75.663633 
L 185.549033 80.622418 
L 199.553388 89.483062 
L 219.291418 104.244762 
L 233.295773 117.842795 
" clip-path="url(#pceafc25a8a)" style="fill: none; stroke-dasharray: 7.4,3.2; stroke-dashoffset: 0; stroke: #0000ff; stroke-width: 2"/>
   </g>
   <g id="patch_3">
    <path d="M 44.7425 138.0384 
L 44.7425 7.2 
" style="fill: none; stroke: #000000; stroke-width: 0.8; stroke-linejoin: miter; stroke-linecap: square"/>
   </g>
   <g id="patch_4">
    <path d="M 242.2745 138.0384 
L 242.2745 7.2 
" style="fill: none; stroke: #000000; stroke-width: 0.8; stroke-linejoin: miter; stroke-linecap: square"/>
   </g>
   <g id="patch_5">
    <path d="M 44.7425 138.0384 
L 242.2745 138.0384 
" style="fill: none; stroke: #000000; stroke-width: 0.8; stroke-linejoin: miter; stroke-linecap: square"/>
   </g>
   <g id="patch_6">
    <path d="M 44.7425 7.2 
L 242.2745 7.2 
" style="fill: none; stroke: #000000; stroke-width: 0.8; stroke-linejoin: miter; stroke-linecap: square"/>
   </g>
   <g id="legend_1">
    <g id="patch_7">
     <path d="M 247.8745 104.47295 
L 432.5945 104.47295 
Q 434.1945 104.47295 434.1945 102.87295 
L 434.1945 42.36545 
Q 434.1945 40.76545 432.5945 40.76545 
L 247.8745 40.76545 
Q 246.2745 40.76545 246.2745 42.36545 
L 246.2745 102.87295 
Q 246.2745 104.47295 247.8745 104.47295 
z
" style="fill: #ffffff; opacity: 0.8; stroke: #cccccc; stroke-linejoin: miter"/>
    </g>
    <g id="line2d_119">
     <path d="M 249.4745 47.2442 
L 257.4745 47.2442 
L 265.4745 47.2442 
" style="fill: none; stroke: #b2b2b2; stroke-width: 0.8; stroke-linecap: square"/>
    </g>
    <g id="text_6">
     <!-- Individual selected GMs -->
     <g transform="translate(271.8745 50.0442) scale(0.08 -0.08)">
      <defs>
       <path id="DejaVuSans-49" d="M 628 4666 
L 1259 4666 
L 1259 0 
L 628 0 
L 628 4666 
z
" transform="scale(0.015625)"/>
       <path id="DejaVuSans-76" d="M 191 3500 
L 800 3500 
L 1894 563 
L 2988 3500 
L 3597 3500 
L 2284 0 
L 1503 0 
L 191 3500 
z
" transform="scale(0.015625)"/>
       <path id="DejaVuSans-75" d="M 544 1381 
L 544 3500 
L 1119 3500 
L 1119 1403 
Q 1119 906 1312 657 
Q 1506 409 1894 409 
Q 2359 409 2629 706 
Q 2900 1003 2900 1516 
L 2900 3500 
L 3475 3500 
L 3475 0 
L 2900 0 
L 2900 538 
Q 2691 219 2414 64 
Q 2138 -91 1772 -91 
Q 1169 -91 856 284 
Q 544 659 544 1381 
z
M 1991 3584 
L 1991 3584 
z
" transform="scale(0.015625)"/>
       <path id="DejaVuSans-47" d="M 3809 666 
L 3809 1919 
L 2778 1919 
L 2778 2438 
L 4434 2438 
L 4434 434 
Q 4069 175 3628 42 
Q 3188 -91 2688 -91 
Q 1594 -91 976 548 
Q 359 1188 359 2328 
Q 359 3472 976 4111 
Q 1594 4750 2688 4750 
Q 3144 4750 3555 4637 
Q 3966 4525 4313 4306 
L 4313 3634 
Q 3963 3931 3569 4081 
Q 3175 4231 2741 4231 
Q 1884 4231 1454 3753 
Q 1025 3275 1025 2328 
Q 1025 1384 1454 906 
Q 1884 428 2741 428 
Q 3075 428 3337 486 
Q 3600 544 3809 666 
z
" transform="scale(0.015625)"/>
       <path id="DejaVuSans-4d" d="M 628 4666 
L 1569 4666 
L 2759 1491 
L 3956 4666 
L 4897 4666 
L 4897 0 
L 4281 0 
L 4281 4097 
L 3078 897 
L 2444 897 
L 1241 4097 
L 1241 0 
L 628 0 
L 628 4666 
z
" transform="scale(0.015625)"/>
      </defs>
      <use xlink:href="#DejaVuSans-49"/>
      <use xlink:href="#DejaVuSans-6e" x="29.492188"/>
      <use xlink:href="#DejaVuSans-64" x="92.871094"/>
      <use xlink:href="#DejaVuSans-69" x="156.347656"/>
      <use xlink:href="#DejaVuSans-76" x="184.130859"/>
      <use xlink:href="#DejaVuSans-69" x="243.310547"/>
      <use xlink:href="#DejaVuSans-64" x="271.09375"/>
      <use xlink:href="#DejaVuSans-75" x="334.570312"/>
      <use xlink:href="#DejaVuSans-61" x="397.949219"/>
      <use xlink:href="#DejaVuSans-6c" x="459.228516"/>
      <use xlink:href="#DejaVuSans-20" x="487.011719"/>
      <use xlink:href="#DejaVuSans-73" x="518.798828"/>
      <use xlink:href="#DejaVuSans-65" x="570.898438"/>
      <use xlink:href="#DejaVuSans-6c" x="632.421875"/>
      <use xlink:href="#DejaVuSans-65" x="660.205078"/>
      <use xlink:href="#DejaVuSans-63" x="721.728516"/>
      <use xlink:href="#DejaVuSans-74" x="776.708984"/>
      <use xlink:href="#DejaVuSans-65" x="815.917969"/>
      <use xlink:href="#DejaVuSans-64" x="877.441406"/>
      <use xlink:href="#DejaVuSans-20" x="940.917969"/>
      <use xlink:href="#DejaVuSans-47" x="972.705078"/>
      <use xlink:href="#DejaVuSans-4d" x="1050.195312"/>
      <use xlink:href="#DejaVuSans-73" x="1136.474609"/>
     </g>
    </g>
    <g id="line2d_120">
     <path d="M 249.4745 58.9867 
L 257.4745 58.9867 
L 265.4745 58.9867 
" style="fill: none; stroke: #ff0000; stroke-width: 2; stroke-linecap: square"/>
    </g>
    <g id="text_7">
     <!-- GCIM median -->
     <g transform="translate(271.8745 61.7867) scale(0.08 -0.08)">
      <defs>
       <path id="DejaVuSans-43" d="M 4122 4306 
L 4122 3641 
Q 3803 3938 3442 4084 
Q 3081 4231 2675 4231 
Q 1875 4231 1450 3742 
Q 1025 3253 1025 2328 
Q 1025 1406 1450 917 
Q 1875 428 2675 428 
Q 3081 428 3442 575 
Q 3803 722 4122 1019 
L 4122 359 
Q 3791 134 3420 21 
Q 3050 -91 2638 -91 
Q 1578 -91 968 557 
Q 359 1206 359 2328 
Q 359 3453 968 4101 
Q 1578 4750 2638 4750 
Q 3056 4750 3426 4639 
Q 3797 4528 4122 4306 
z
" transform="scale(0.015625)"/>
       <path id="DejaVuSans-6d" d="M 3328 2828 
Q 3544 3216 3844 3400 
Q 4144 3584 4550 3584 
Q 5097 3584 5394 3201 
Q 5691 2819 5691 2113 
L 5691 0 
L 5113 0 
L 5113 2094 
Q 5113 2597 4934 2840 
Q 4756 3084 4391 3084 
Q 3944 3084 3684 2787 
Q 3425 2491 3425 1978 
L 3425 0 
L 2847 0 
L 2847 2094 
Q 2847 2600 2669 2842 
Q 2491 3084 2119 3084 
Q 1678 3084 1418 2786 
Q 1159 2488 1159 1978 
L 1159 0 
L 581 0 
L 581 3500 
L 1159 3500 
L 1159 2956 
Q 1356 3278 1631 3431 
Q 1906 3584 2284 3584 
Q 2666 3584 2933 3390 
Q 3200 3197 3328 2828 
z
" transform="scale(0.015625)"/>
      </defs>
      <use xlink:href="#DejaVuSans-47"/>
      <use xlink:href="#DejaVuSans-43" x="77.490234"/>
      <use xlink:href="#DejaVuSans-49" x="147.314453"/>
      <use xlink:href="#DejaVuSans-4d" x="176.806641"/>
      <use xlink:href="#DejaVuSans-20" x="263.085938"/>
      <use xlink:href="#DejaVuSans-6d" x="294.873047"/>
      <use xlink:href="#DejaVuSans-65" x="392.285156"/>
      <use xlink:href="#DejaVuSans-64" x="453.808594"/>
      <use xlink:href="#DejaVuSans-69" x="517.285156"/>
      <use xlink:href="#DejaVuSans-61" x="545.068359"/>
      <use xlink:href="#DejaVuSans-6e" x="606.347656"/>
     </g>
    </g>
    <g id="line2d_121">
     <path d="M 249.4745 72.01045 
L 257.4745 72.01045 
L 265.4745 72.01045 
" style="fill: none; stroke-dasharray: 7.4,3.2; stroke-dashoffset: 0; stroke: #ff0000; stroke-width: 2"/>
    </g>
    <g id="text_8">
     <!-- GCIM $16^{th}$ and $84^{th}$ percentiles -->
     <g transform="translate(271.8745 74.81045) scale(0.08 -0.08)">
      <defs>
       <path id="DejaVuSans-36" d="M 2113 2584 
Q 1688 2584 1439 2293 
Q 1191 2003 1191 1497 
Q 1191 994 1439 701 
Q 1688 409 2113 409 
Q 2538 409 2786 701 
Q 3034 994 3034 1497 
Q 3034 2003 2786 2293 
Q 2538 2584 2113 2584 
z
M 3366 4563 
L 3366 3988 
Q 3128 4100 2886 4159 
Q 2644 4219 2406 4219 
Q 1781 4219 1451 3797 
Q 1122 3375 1075 2522 
Q 1259 2794 1537 2939 
Q 1816 3084 2150 3084 
Q 2853 3084 3261 2657 
Q 3669 2231 3669 1497 
Q 3669 778 3244 343 
Q 2819 -91 2113 -91 
Q 1303 -91 875 529 
Q 447 1150 447 2328 
Q 447 3434 972 4092 
Q 1497 4750 2381 4750 
Q 2619 4750 2861 4703 
Q 3103 4656 3366 4563 
z
" transform="scale(0.015625)"/>
       <path id="DejaVuSans-Oblique-74" d="M 2706 3500 
L 2619 3053 
L 1472 3053 
L 1100 1153 
Q 1081 1047 1072 975 
Q 1063 903 1063 863 
Q 1063 663 1183 572 
Q 1303 481 1569 481 
L 2150 481 
L 2053 0 
L 1503 0 
Q 991 0 739 200 
Q 488 400 488 806 
Q 488 878 497 964 
Q 506 1050 525 1153 
L 897 3053 
L 409 3053 
L 500 3500 
L 978 3500 
L 1172 4494 
L 1747 4494 
L 1556 3500 
L 2706 3500 
z
" transform="scale(0.015625)"/>
       <path id="DejaVuSans-Oblique-68" d="M 3566 2113 
L 3156 0 
L 2578 0 
L 2988 2091 
Q 3016 2238 3031 2350 
Q 3047 2463 3047 2528 
Q 3047 2791 2881 2937 
Q 2716 3084 2419 3084 
Q 1956 3084 1617 2771 
Q 1278 2459 1178 1941 
L 800 0 
L 225 0 
L 1172 4863 
L 1747 4863 
L 1375 2950 
Q 1594 3244 1934 3414 
Q 2275 3584 2650 3584 
Q 3113 3584 3367 3334 
Q 3622 3084 3622 2631 
Q 3622 2519 3608 2391 
Q 3594 2263 3566 2113 
z
" transform="scale(0.015625)"/>
       <path id="DejaVuSans-38" d="M 2034 2216 
Q 1584 2216 1326 1975 
Q 1069 1734 1069 1313 
Q 1069 891 1326 650 
Q 1584 409 2034 409 
Q 2484 409 2743 651 
Q 3003 894 3003 1313 
Q 3003 1734 2745 1975 
Q 2488 2216 2034 2216 
z
M 1403 2484 
Q 997 2584 770 2862 
Q 544 3141 544 3541 
Q 544 4100 942 4425 
Q 1341 4750 2034 4750 
Q 2731 4750 3128 4425 
Q 3525 4100 3525 3541 
Q 3525 3141 3298 2862 
Q 3072 2584 2669 2484 
Q 3125 2378 3379 2068 
Q 3634 1759 3634 1313 
Q 3634 634 3220 271 
Q 2806 -91 2034 -91 
Q 1263 -91 848 271 
Q 434 634 434 1313 
Q 434 1759 690 2068 
Q 947 2378 1403 2484 
z
M 1172 3481 
Q 1172 3119 1398 2916 
Q 1625 2713 2034 2713 
Q 2441 2713 2670 2916 
Q 2900 3119 2900 3481 
Q 2900 3844 2670 4047 
Q 2441 4250 2034 4250 
Q 1625 4250 1398 4047 
Q 1172 3844 1172 3481 
z
" transform="scale(0.015625)"/>
       <path id="DejaVuSans-34" d="M 2419 4116 
L 825 1625 
L 2419 1625 
L 2419 4116 
z
M 2253 4666 
L 3047 4666 
L 3047 1625 
L 3713 1625 
L 3713 1100 
L 3047 1100 
L 3047 0 
L 2419 0 
L 2419 1100 
L 313 1100 
L 313 1709 
L 2253 4666 
z
" transform="scale(0.015625)"/>
      </defs>
      <use xlink:href="#DejaVuSans-47" transform="translate(0 0.529687)"/>
      <use xlink:href="#DejaVuSans-43" transform="translate(77.490234 0.529687)"/>
      <use xlink:href="#DejaVuSans-49" transform="translate(147.314453 0.529687)"/>
      <use xlink:href="#DejaVuSans-4d" transform="translate(176.806641 0.529687)"/>
      <use xlink:href="#DejaVuSans-20" transform="translate(263.085938 0.529687)"/>
      <use xlink:href="#DejaVuSans-31" transform="translate(294.873047 0.529687)"/>
      <use xlink:href="#DejaVuSans-36" transform="translate(358.496094 0.529687)"/>
      <use xlink:href="#DejaVuSans-Oblique-74" transform="translate(423.076172 38.810937) scale(0.7)"/>
      <use xlink:href="#DejaVuSans-Oblique-68" transform="translate(450.522461 38.810937) scale(0.7)"/>
      <use xlink:href="#DejaVuSans-20" transform="translate(497.62207 0.529687)"/>
      <use xlink:href="#DejaVuSans-61" transform="translate(529.40918 0.529687)"/>
      <use xlink:href="#DejaVuSans-6e" transform="translate(590.688477 0.529687)"/>
      <use xlink:href="#DejaVuSans-64" transform="translate(654.067383 0.529687)"/>
      <use xlink:href="#DejaVuSans-20" transform="translate(717.543945 0.529687)"/>
      <use xlink:href="#DejaVuSans-38" transform="translate(749.331055 0.529687)"/>
      <use xlink:href="#DejaVuSans-34" transform="translate(812.954102 0.529687)"/>
      <use xlink:href="#DejaVuSans-Oblique-74" transform="translate(877.53418 38.810937) scale(0.7)"/>
      <use xlink:href="#DejaVuSans-Oblique-68" transform="translate(904.980469 38.810937) scale(0.7)"/>
      <use xlink:href="#DejaVuSans-20" transform="translate(952.080078 0.529687)"/>
      <use xlink:href="#DejaVuSans-70" transform="translate(983.867188 0.529687)"/>
      <use xlink:href="#DejaVuSans-65" transform="translate(1047.34375 0.529687)"/>
      <use xlink:href="#DejaVuSans-72" transform="translate(1108.867188 0.529687)"/>
      <use xlink:href="#DejaVuSans-63" transform="translate(1149.980469 0.529687)"/>
      <use xlink:href="#DejaVuSans-65" transform="translate(1204.960938 0.529687)"/>
      <use xlink:href="#DejaVuSans-6e" transform="translate(1266.484375 0.529687)"/>
      <use xlink:href="#DejaVuSans-74" transform="translate(1329.863281 0.529687)"/>
      <use xlink:href="#DejaVuSans-69" transform="translate(1369.072266 0.529687)"/>
      <use xlink:href="#DejaVuSans-6c" transform="translate(1396.855469 0.529687)"/>
      <use xlink:href="#DejaVuSans-65" transform="translate(1424.638672 0.529687)"/>
      <use xlink:href="#DejaVuSans-73" transform="translate(1486.162109 0.529687)"/>
     </g>
    </g>
    <g id="line2d_122">
     <path d="M 249.4745 83.7692 
L 257.4745 83.7692 
L 265.4745 83.7692 
" style="fill: none; stroke: #0000ff; stroke-width: 2; stroke-linecap: square"/>
    </g>
    <g id="text_9">
     <!-- Selected GMs median -->
     <g transform="translate(271.8745 86.5692) scale(0.08 -0.08)">
      <use xlink:href="#DejaVuSans-53"/>
      <use xlink:href="#DejaVuSans-65" x="63.476562"/>
      <use xlink:href="#DejaVuSans-6c" x="125"/>
      <use xlink:href="#DejaVuSans-65" x="152.783203"/>
      <use xlink:href="#DejaVuSans-63" x="214.306641"/>
      <use xlink:href="#DejaVuSans-74" x="269.287109"/>
      <use xlink:href="#DejaVuSans-65" x="308.496094"/>
      <use xlink:href="#DejaVuSans-64" x="370.019531"/>
      <use xlink:href="#DejaVuSans-20" x="433.496094"/>
      <use xlink:href="#DejaVuSans-47" x="465.283203"/>
      <use xlink:href="#DejaVuSans-4d" x="542.773438"/>
      <use xlink:href="#DejaVuSans-73" x="629.052734"/>
      <use xlink:href="#DejaVuSans-20" x="681.152344"/>
      <use xlink:href="#DejaVuSans-6d" x="712.939453"/>
      <use xlink:href="#DejaVuSans-65" x="810.351562"/>
      <use xlink:href="#DejaVuSans-64" x="871.875"/>
      <use xlink:href="#DejaVuSans-69" x="935.351562"/>
      <use xlink:href="#DejaVuSans-61" x="963.134766"/>
      <use xlink:href="#DejaVuSans-6e" x="1024.414062"/>
     </g>
    </g>
    <g id="line2d_123">
     <path d="M 249.4745 96.79295 
L 257.4745 96.79295 
L 265.4745 96.79295 
" style="fill: none; stroke-dasharray: 7.4,3.2; stroke-dashoffset: 0; stroke: #0000ff; stroke-width: 2"/>
    </g>
    <g id="text_10">
     <!-- Selected GMs, $16^{th}$ and $84^{th}$ percentiles -->
     <g transform="translate(271.8745 99.59295) scale(0.08 -0.08)">
      <use xlink:href="#DejaVuSans-53" transform="translate(0 0.529687)"/>
      <use xlink:href="#DejaVuSans-65" transform="translate(63.476562 0.529687)"/>
      <use xlink:href="#DejaVuSans-6c" transform="translate(125 0.529687)"/>
      <use xlink:href="#DejaVuSans-65" transform="translate(152.783203 0.529687)"/>
      <use xlink:href="#DejaVuSans-63" transform="translate(214.306641 0.529687)"/>
      <use xlink:href="#DejaVuSans-74" transform="translate(269.287109 0.529687)"/>
      <use xlink:href="#DejaVuSans-65" transform="translate(308.496094 0.529687)"/>
      <use xlink:href="#DejaVuSans-64" transform="translate(370.019531 0.529687)"/>
      <use xlink:href="#DejaVuSans-20" transform="translate(433.496094 0.529687)"/>
      <use xlink:href="#DejaVuSans-47" transform="translate(465.283203 0.529687)"/>
      <use xlink:href="#DejaVuSans-4d" transform="translate(542.773438 0.529687)"/>
      <use xlink:href="#DejaVuSans-73" transform="translate(629.052734 0.529687)"/>
      <use xlink:href="#DejaVuSans-2c" transform="translate(681.152344 0.529687)"/>
      <use xlink:href="#DejaVuSans-20" transform="translate(712.939453 0.529687)"/>
      <use xlink:href="#DejaVuSans-31" transform="translate(744.726562 0.529687)"/>
      <use xlink:href="#DejaVuSans-36" transform="translate(808.349609 0.529687)"/>
      <use xlink:href="#DejaVuSans-Oblique-74" transform="translate(872.929688 38.810937) scale(0.7)"/>
      <use xlink:href="#DejaVuSans-Oblique-68" transform="translate(900.375977 38.810937) scale(0.7)"/>
      <use xlink:href="#DejaVuSans-20" transform="translate(947.475586 0.529687)"/>
      <use xlink:href="#DejaVuSans-61" transform="translate(979.262695 0.529687)"/>
      <use xlink:href="#DejaVuSans-6e" transform="translate(1040.541992 0.529687)"/>
      <use xlink:href="#DejaVuSans-64" transform="translate(1103.920898 0.529687)"/>
      <use xlink:href="#DejaVuSans-20" transform="translate(1167.397461 0.529687)"/>
      <use xlink:href="#DejaVuSans-38" transform="translate(1199.18457 0.529687)"/>
      <use xlink:href="#DejaVuSans-34" transform="translate(1262.807617 0.529687)"/>
      <use xlink:href="#DejaVuSans-Oblique-74" transform="translate(1327.387695 38.810937) scale(0.7)"/>
      <use xlink:href="#DejaVuSans-Oblique-68" transform="translate(1354.833984 38.810937) scale(0.7)"/>
      <use xlink:href="#DejaVuSans-20" transform="translate(1401.933594 0.529687)"/>
      <use xlink:href="#DejaVuSans-70" transform="translate(1433.720703 0.529687)"/>
      <use xlink:href="#DejaVuSans-65" transform="translate(1497.197266 0.529687)"/>
      <use xlink:href="#DejaVuSans-72" transform="translate(1558.720703 0.529687)"/>
      <use xlink:href="#DejaVuSans-63" transform="translate(1599.833984 0.529687)"/>
      <use xlink:href="#DejaVuSans-65" transform="translate(1654.814453 0.529687)"/>
      <use xlink:href="#DejaVuSans-6e" transform="translate(1716.337891 0.529687)"/>
      <use xlink:href="#DejaVuSans-74" transform="translate(1779.716797 0.529687)"/>
      <use xlink:href="#DejaVuSans-69" transform="translate(1818.925781 0.529687)"/>
      <use xlink:href="#DejaVuSans-6c" transform="translate(1846.708984 0.529687)"/>
      <use xlink:href="#DejaVuSans-65" transform="translate(1874.492188 0.529687)"/>
      <use xlink:href="#DejaVuSans-73" transform="translate(1936.015625 0.529687)"/>
     </g>
    </g>
   </g>
  </g>
 </g>
 <defs>
  <clipPath id="pceafc25a8a">
   <rect x="44.7425" y="7.2" width="197.532" height="130.8384"/>
  </clipPath>
 </defs>
</svg>
