<?xml version="1.0" encoding="utf-8" standalone="no"?>
<!DOCTYPE svg PUBLIC "-//W3C//DTD SVG 1.1//EN"
  "http://www.w3.org/Graphics/SVG/1.1/DTD/svg11.dtd">
<svg xmlns:xlink="http://www.w3.org/1999/xlink" width="441.3945pt" height="171.7234pt" viewBox="0 0 441.3945 171.7234" xmlns="http://www.w3.org/2000/svg" version="1.1">
 <metadata>
  <rdf:RDF xmlns:dc="http://purl.org/dc/elements/1.1/" xmlns:cc="http://creativecommons.org/ns#" xmlns:rdf="http://www.w3.org/1999/02/22-rdf-syntax-ns#">
   <cc:Work>
    <dc:type rdf:resource="http://purl.org/dc/dcmitype/StillImage"/>
    <dc:date>2024-11-13T17:40:39.468024</dc:date>
    <dc:format>image/svg+xml</dc:format>
    <dc:creator>
     <cc:Agent>
      <dc:title>Matplotlib v3.8.2, https://matplotlib.org/</dc:title>
     </cc:Agent>
    </dc:creator>
   </cc:Work>
  </rdf:RDF>
 </metadata>
 <defs>
  <style type="text/css">*{stroke-linejoin: round; stroke-linecap: butt}</style>
 </defs>
 <g id="figure_1">
  <g id="patch_1">
   <path d="M 0 171.7234 
L 441.3945 171.7234 
L 441.3945 0 
L 0 0 
z
" style="fill: #ffffff"/>
  </g>
  <g id="axes_1">
   <g id="patch_2">
    <path d="M 44.7425 138.0384 
L 242.2745 138.0384 
L 242.2745 7.2 
L 44.7425 7.2 
z
" style="fill: #ffffff"/>
   </g>
   <g id="matplotlib.axis_1">
    <g id="xtick_1">
     <g id="line2d_1">
      <path d="M 53.721227 138.0384 
L 53.721227 7.2 
" clip-path="url(#p69cadb3beb)" style="fill: none; stroke: #d9d9d9; stroke-width: 0.8; stroke-linecap: square"/>
     </g>
     <g id="line2d_2">
      <defs>
       <path id="ma0239a044a" d="M 0 0 
L 0 3.5 
" style="stroke: #000000; stroke-width: 0.8"/>
      </defs>
      <g>
       <use xlink:href="#ma0239a044a" x="53.721227" y="138.0384" style="stroke: #000000; stroke-width: 0.8"/>
      </g>
     </g>
     <g id="text_1">
      <!-- $\mathdefault{10^{-1}}$ -->
      <g transform="translate(44.321227 151.11715) scale(0.08 -0.08)">
       <defs>
        <path id="DejaVuSans-31" d="M 794 531 
L 1825 531 
L 1825 4091 
L 703 3866 
L 703 4441 
L 1819 4666 
L 2450 4666 
L 2450 531 
L 3481 531 
L 3481 0 
L 794 0 
L 794 531 
z
" transform="scale(0.015625)"/>
        <path id="DejaVuSans-30" d="M 2034 4250 
Q 1547 4250 1301 3770 
Q 1056 3291 1056 2328 
Q 1056 1369 1301 889 
Q 1547 409 2034 409 
Q 2525 409 2770 889 
Q 3016 1369 3016 2328 
Q 3016 3291 2770 3770 
Q 2525 4250 2034 4250 
z
M 2034 4750 
Q 2819 4750 3233 4129 
Q 3647 3509 3647 2328 
Q 3647 1150 3233 529 
Q 2819 -91 2034 -91 
Q 1250 -91 836 529 
Q 422 1150 422 2328 
Q 422 3509 836 4129 
Q 1250 4750 2034 4750 
z
" transform="scale(0.015625)"/>
        <path id="DejaVuSans-2212" d="M 678 2272 
L 4684 2272 
L 4684 1741 
L 678 1741 
L 678 2272 
z
" transform="scale(0.015625)"/>
       </defs>
       <use xlink:href="#DejaVuSans-31" transform="translate(0 0.684375)"/>
       <use xlink:href="#DejaVuSans-30" transform="translate(63.623047 0.684375)"/>
       <use xlink:href="#DejaVuSans-2212" transform="translate(128.203125 38.965625) scale(0.7)"/>
       <use xlink:href="#DejaVuSans-31" transform="translate(186.855469 38.965625) scale(0.7)"/>
      </g>
     </g>
    </g>
    <g id="xtick_2">
     <g id="line2d_3">
      <path d="M 165.811003 138.0384 
L 165.811003 7.2 
" clip-path="url(#p69cadb3beb)" style="fill: none; stroke: #d9d9d9; stroke-width: 0.8; stroke-linecap: square"/>
     </g>
     <g id="line2d_4">
      <g>
       <use xlink:href="#ma0239a044a" x="165.811003" y="138.0384" style="stroke: #000000; stroke-width: 0.8"/>
      </g>
     </g>
     <g id="text_2">
      <!-- $\mathdefault{10^{0}}$ -->
      <g transform="translate(158.771003 151.11715) scale(0.08 -0.08)">
       <use xlink:href="#DejaVuSans-31" transform="translate(0 0.765625)"/>
       <use xlink:href="#DejaVuSans-30" transform="translate(63.623047 0.765625)"/>
       <use xlink:href="#DejaVuSans-30" transform="translate(128.203125 39.046875) scale(0.7)"/>
      </g>
     </g>
    </g>
    <g id="xtick_3">
     <g id="line2d_5">
      <path d="M 48.59228 138.0384 
L 48.59228 7.2 
" clip-path="url(#p69cadb3beb)" style="fill: none; stroke-dasharray: 2.96,1.28; stroke-dashoffset: 0; stroke: #f2f2f2; stroke-width: 0.8"/>
     </g>
     <g id="line2d_6">
      <defs>
       <path id="m2088a3407d" d="M 0 0 
L 0 2 
" style="stroke: #000000; stroke-width: 0.6"/>
      </defs>
      <g>
       <use xlink:href="#m2088a3407d" x="48.59228" y="138.0384" style="stroke: #000000; stroke-width: 0.6"/>
      </g>
     </g>
    </g>
    <g id="xtick_4">
     <g id="line2d_7">
      <path d="M 87.463612 138.0384 
L 87.463612 7.2 
" clip-path="url(#p69cadb3beb)" style="fill: none; stroke-dasharray: 2.96,1.28; stroke-dashoffset: 0; stroke: #f2f2f2; stroke-width: 0.8"/>
     </g>
     <g id="line2d_8">
      <g>
       <use xlink:href="#m2088a3407d" x="87.463612" y="138.0384" style="stroke: #000000; stroke-width: 0.6"/>
      </g>
     </g>
    </g>
    <g id="xtick_5">
     <g id="line2d_9">
      <path d="M 107.201642 138.0384 
L 107.201642 7.2 
" clip-path="url(#p69cadb3beb)" style="fill: none; stroke-dasharray: 2.96,1.28; stroke-dashoffset: 0; stroke: #f2f2f2; stroke-width: 0.8"/>
     </g>
     <g id="line2d_10">
      <g>
       <use xlink:href="#m2088a3407d" x="107.201642" y="138.0384" style="stroke: #000000; stroke-width: 0.6"/>
      </g>
     </g>
    </g>
    <g id="xtick_6">
     <g id="line2d_11">
      <path d="M 121.205997 138.0384 
L 121.205997 7.2 
" clip-path="url(#p69cadb3beb)" style="fill: none; stroke-dasharray: 2.96,1.28; stroke-dashoffset: 0; stroke: #f2f2f2; stroke-width: 0.8"/>
     </g>
     <g id="line2d_12">
      <g>
       <use xlink:href="#m2088a3407d" x="121.205997" y="138.0384" style="stroke: #000000; stroke-width: 0.6"/>
      </g>
     </g>
    </g>
    <g id="xtick_7">
     <g id="line2d_13">
      <path d="M 132.068618 138.0384 
L 132.068618 7.2 
" clip-path="url(#p69cadb3beb)" style="fill: none; stroke-dasharray: 2.96,1.28; stroke-dashoffset: 0; stroke: #f2f2f2; stroke-width: 0.8"/>
     </g>
     <g id="line2d_14">
      <g>
       <use xlink:href="#m2088a3407d" x="132.068618" y="138.0384" style="stroke: #000000; stroke-width: 0.6"/>
      </g>
     </g>
    </g>
    <g id="xtick_8">
     <g id="line2d_15">
      <path d="M 140.944027 138.0384 
L 140.944027 7.2 
" clip-path="url(#p69cadb3beb)" style="fill: none; stroke-dasharray: 2.96,1.28; stroke-dashoffset: 0; stroke: #f2f2f2; stroke-width: 0.8"/>
     </g>
     <g id="line2d_16">
      <g>
       <use xlink:href="#m2088a3407d" x="140.944027" y="138.0384" style="stroke: #000000; stroke-width: 0.6"/>
      </g>
     </g>
    </g>
    <g id="xtick_9">
     <g id="line2d_17">
      <path d="M 148.448077 138.0384 
L 148.448077 7.2 
" clip-path="url(#p69cadb3beb)" style="fill: none; stroke-dasharray: 2.96,1.28; stroke-dashoffset: 0; stroke: #f2f2f2; stroke-width: 0.8"/>
     </g>
     <g id="line2d_18">
      <g>
       <use xlink:href="#m2088a3407d" x="148.448077" y="138.0384" style="stroke: #000000; stroke-width: 0.6"/>
      </g>
     </g>
    </g>
    <g id="xtick_10">
     <g id="line2d_19">
      <path d="M 154.948382 138.0384 
L 154.948382 7.2 
" clip-path="url(#p69cadb3beb)" style="fill: none; stroke-dasharray: 2.96,1.28; stroke-dashoffset: 0; stroke: #f2f2f2; stroke-width: 0.8"/>
     </g>
     <g id="line2d_20">
      <g>
       <use xlink:href="#m2088a3407d" x="154.948382" y="138.0384" style="stroke: #000000; stroke-width: 0.6"/>
      </g>
     </g>
    </g>
    <g id="xtick_11">
     <g id="line2d_21">
      <path d="M 160.682056 138.0384 
L 160.682056 7.2 
" clip-path="url(#p69cadb3beb)" style="fill: none; stroke-dasharray: 2.96,1.28; stroke-dashoffset: 0; stroke: #f2f2f2; stroke-width: 0.8"/>
     </g>
     <g id="line2d_22">
      <g>
       <use xlink:href="#m2088a3407d" x="160.682056" y="138.0384" style="stroke: #000000; stroke-width: 0.6"/>
      </g>
     </g>
    </g>
    <g id="xtick_12">
     <g id="line2d_23">
      <path d="M 199.553388 138.0384 
L 199.553388 7.2 
" clip-path="url(#p69cadb3beb)" style="fill: none; stroke-dasharray: 2.96,1.28; stroke-dashoffset: 0; stroke: #f2f2f2; stroke-width: 0.8"/>
     </g>
     <g id="line2d_24">
      <g>
       <use xlink:href="#m2088a3407d" x="199.553388" y="138.0384" style="stroke: #000000; stroke-width: 0.6"/>
      </g>
     </g>
    </g>
    <g id="xtick_13">
     <g id="line2d_25">
      <path d="M 219.291418 138.0384 
L 219.291418 7.2 
" clip-path="url(#p69cadb3beb)" style="fill: none; stroke-dasharray: 2.96,1.28; stroke-dashoffset: 0; stroke: #f2f2f2; stroke-width: 0.8"/>
     </g>
     <g id="line2d_26">
      <g>
       <use xlink:href="#m2088a3407d" x="219.291418" y="138.0384" style="stroke: #000000; stroke-width: 0.6"/>
      </g>
     </g>
    </g>
    <g id="xtick_14">
     <g id="line2d_27">
      <path d="M 233.295773 138.0384 
L 233.295773 7.2 
" clip-path="url(#p69cadb3beb)" style="fill: none; stroke-dasharray: 2.96,1.28; stroke-dashoffset: 0; stroke: #f2f2f2; stroke-width: 0.8"/>
     </g>
     <g id="line2d_28">
      <g>
       <use xlink:href="#m2088a3407d" x="233.295773" y="138.0384" style="stroke: #000000; stroke-width: 0.6"/>
      </g>
     </g>
    </g>
    <g id="text_3">
     <!-- Period, T (s) -->
     <g transform="translate(119.576 162.85965) scale(0.08 -0.08)">
      <defs>
       <path id="DejaVuSans-50" d="M 1259 4147 
L 1259 2394 
L 2053 2394 
Q 2494 2394 2734 2622 
Q 2975 2850 2975 3272 
Q 2975 3691 2734 3919 
Q 2494 4147 2053 4147 
L 1259 4147 
z
M 628 4666 
L 2053 4666 
Q 2838 4666 3239 4311 
Q 3641 3956 3641 3272 
Q 3641 2581 3239 2228 
Q 2838 1875 2053 1875 
L 1259 1875 
L 1259 0 
L 628 0 
L 628 4666 
z
" transform="scale(0.015625)"/>
       <path id="DejaVuSans-65" d="M 3597 1894 
L 3597 1613 
L 953 1613 
Q 991 1019 1311 708 
Q 1631 397 2203 397 
Q 2534 397 2845 478 
Q 3156 559 3463 722 
L 3463 178 
Q 3153 47 2828 -22 
Q 2503 -91 2169 -91 
Q 1331 -91 842 396 
Q 353 884 353 1716 
Q 353 2575 817 3079 
Q 1281 3584 2069 3584 
Q 2775 3584 3186 3129 
Q 3597 2675 3597 1894 
z
M 3022 2063 
Q 3016 2534 2758 2815 
Q 2500 3097 2075 3097 
Q 1594 3097 1305 2825 
Q 1016 2553 972 2059 
L 3022 2063 
z
" transform="scale(0.015625)"/>
       <path id="DejaVuSans-72" d="M 2631 2963 
Q 2534 3019 2420 3045 
Q 2306 3072 2169 3072 
Q 1681 3072 1420 2755 
Q 1159 2438 1159 1844 
L 1159 0 
L 581 0 
L 581 3500 
L 1159 3500 
L 1159 2956 
Q 1341 3275 1631 3429 
Q 1922 3584 2338 3584 
Q 2397 3584 2469 3576 
Q 2541 3569 2628 3553 
L 2631 2963 
z
" transform="scale(0.015625)"/>
       <path id="DejaVuSans-69" d="M 603 3500 
L 1178 3500 
L 1178 0 
L 603 0 
L 603 3500 
z
M 603 4863 
L 1178 4863 
L 1178 4134 
L 603 4134 
L 603 4863 
z
" transform="scale(0.015625)"/>
       <path id="DejaVuSans-6f" d="M 1959 3097 
Q 1497 3097 1228 2736 
Q 959 2375 959 1747 
Q 959 1119 1226 758 
Q 1494 397 1959 397 
Q 2419 397 2687 759 
Q 2956 1122 2956 1747 
Q 2956 2369 2687 2733 
Q 2419 3097 1959 3097 
z
M 1959 3584 
Q 2709 3584 3137 3096 
Q 3566 2609 3566 1747 
Q 3566 888 3137 398 
Q 2709 -91 1959 -91 
Q 1206 -91 779 398 
Q 353 888 353 1747 
Q 353 2609 779 3096 
Q 1206 3584 1959 3584 
z
" transform="scale(0.015625)"/>
       <path id="DejaVuSans-64" d="M 2906 2969 
L 2906 4863 
L 3481 4863 
L 3481 0 
L 2906 0 
L 2906 525 
Q 2725 213 2448 61 
Q 2172 -91 1784 -91 
Q 1150 -91 751 415 
Q 353 922 353 1747 
Q 353 2572 751 3078 
Q 1150 3584 1784 3584 
Q 2172 3584 2448 3432 
Q 2725 3281 2906 2969 
z
M 947 1747 
Q 947 1113 1208 752 
Q 1469 391 1925 391 
Q 2381 391 2643 752 
Q 2906 1113 2906 1747 
Q 2906 2381 2643 2742 
Q 2381 3103 1925 3103 
Q 1469 3103 1208 2742 
Q 947 2381 947 1747 
z
" transform="scale(0.015625)"/>
       <path id="DejaVuSans-2c" d="M 750 794 
L 1409 794 
L 1409 256 
L 897 -744 
L 494 -744 
L 750 256 
L 750 794 
z
" transform="scale(0.015625)"/>
       <path id="DejaVuSans-20" transform="scale(0.015625)"/>
       <path id="DejaVuSans-54" d="M -19 4666 
L 3928 4666 
L 3928 4134 
L 2272 4134 
L 2272 0 
L 1638 0 
L 1638 4134 
L -19 4134 
L -19 4666 
z
" transform="scale(0.015625)"/>
       <path id="DejaVuSans-28" d="M 1984 4856 
Q 1566 4138 1362 3434 
Q 1159 2731 1159 2009 
Q 1159 1288 1364 580 
Q 1569 -128 1984 -844 
L 1484 -844 
Q 1016 -109 783 600 
Q 550 1309 550 2009 
Q 550 2706 781 3412 
Q 1013 4119 1484 4856 
L 1984 4856 
z
" transform="scale(0.015625)"/>
       <path id="DejaVuSans-73" d="M 2834 3397 
L 2834 2853 
Q 2591 2978 2328 3040 
Q 2066 3103 1784 3103 
Q 1356 3103 1142 2972 
Q 928 2841 928 2578 
Q 928 2378 1081 2264 
Q 1234 2150 1697 2047 
L 1894 2003 
Q 2506 1872 2764 1633 
Q 3022 1394 3022 966 
Q 3022 478 2636 193 
Q 2250 -91 1575 -91 
Q 1294 -91 989 -36 
Q 684 19 347 128 
L 347 722 
Q 666 556 975 473 
Q 1284 391 1588 391 
Q 1994 391 2212 530 
Q 2431 669 2431 922 
Q 2431 1156 2273 1281 
Q 2116 1406 1581 1522 
L 1381 1569 
Q 847 1681 609 1914 
Q 372 2147 372 2553 
Q 372 3047 722 3315 
Q 1072 3584 1716 3584 
Q 2034 3584 2315 3537 
Q 2597 3491 2834 3397 
z
" transform="scale(0.015625)"/>
       <path id="DejaVuSans-29" d="M 513 4856 
L 1013 4856 
Q 1481 4119 1714 3412 
Q 1947 2706 1947 2009 
Q 1947 1309 1714 600 
Q 1481 -109 1013 -844 
L 513 -844 
Q 928 -128 1133 580 
Q 1338 1288 1338 2009 
Q 1338 2731 1133 3434 
Q 928 4138 513 4856 
z
" transform="scale(0.015625)"/>
      </defs>
      <use xlink:href="#DejaVuSans-50"/>
      <use xlink:href="#DejaVuSans-65" x="56.677734"/>
      <use xlink:href="#DejaVuSans-72" x="118.201172"/>
      <use xlink:href="#DejaVuSans-69" x="159.314453"/>
      <use xlink:href="#DejaVuSans-6f" x="187.097656"/>
      <use xlink:href="#DejaVuSans-64" x="248.279297"/>
      <use xlink:href="#DejaVuSans-2c" x="311.755859"/>
      <use xlink:href="#DejaVuSans-20" x="343.542969"/>
      <use xlink:href="#DejaVuSans-54" x="375.330078"/>
      <use xlink:href="#DejaVuSans-20" x="436.414062"/>
      <use xlink:href="#DejaVuSans-28" x="468.201172"/>
      <use xlink:href="#DejaVuSans-73" x="507.214844"/>
      <use xlink:href="#DejaVuSans-29" x="559.314453"/>
     </g>
    </g>
   </g>
   <g id="matplotlib.axis_2">
    <g id="ytick_1">
     <g id="line2d_29">
      <path d="M 44.7425 123.814162 
L 242.2745 123.814162 
" clip-path="url(#p69cadb3beb)" style="fill: none; stroke: #d9d9d9; stroke-width: 0.8; stroke-linecap: square"/>
     </g>
     <g id="line2d_30">
      <defs>
       <path id="mce03efeeb4" d="M 0 0 
L -3.5 0 
" style="stroke: #000000; stroke-width: 0.8"/>
      </defs>
      <g>
       <use xlink:href="#mce03efeeb4" x="44.7425" y="123.814162" style="stroke: #000000; stroke-width: 0.8"/>
      </g>
     </g>
     <g id="text_4">
      <!-- $\mathdefault{10^{-1}}$ -->
      <g transform="translate(18.9425 126.853537) scale(0.08 -0.08)">
       <use xlink:href="#DejaVuSans-31" transform="translate(0 0.684375)"/>
       <use xlink:href="#DejaVuSans-30" transform="translate(63.623047 0.684375)"/>
       <use xlink:href="#DejaVuSans-2212" transform="translate(128.203125 38.965625) scale(0.7)"/>
       <use xlink:href="#DejaVuSans-31" transform="translate(186.855469 38.965625) scale(0.7)"/>
      </g>
     </g>
    </g>
    <g id="ytick_2">
     <g id="line2d_31">
      <path d="M 44.7425 56.533134 
L 242.2745 56.533134 
" clip-path="url(#p69cadb3beb)" style="fill: none; stroke: #d9d9d9; stroke-width: 0.8; stroke-linecap: square"/>
     </g>
     <g id="line2d_32">
      <g>
       <use xlink:href="#mce03efeeb4" x="44.7425" y="56.533134" style="stroke: #000000; stroke-width: 0.8"/>
      </g>
     </g>
     <g id="text_5">
      <!-- $\mathdefault{10^{0}}$ -->
      <g transform="translate(23.6625 59.572509) scale(0.08 -0.08)">
       <use xlink:href="#DejaVuSans-31" transform="translate(0 0.765625)"/>
       <use xlink:href="#DejaVuSans-30" transform="translate(63.623047 0.765625)"/>
       <use xlink:href="#DejaVuSans-30" transform="translate(128.203125 39.046875) scale(0.7)"/>
      </g>
     </g>
    </g>
    <g id="ytick_3">
     <g id="line2d_33">
      <path d="M 44.7425 134.236125 
L 242.2745 134.236125 
" clip-path="url(#p69cadb3beb)" style="fill: none; stroke-dasharray: 2.96,1.28; stroke-dashoffset: 0; stroke: #f2f2f2; stroke-width: 0.8"/>
     </g>
     <g id="line2d_34">
      <defs>
       <path id="m934bf2e2f1" d="M 0 0 
L -2 0 
" style="stroke: #000000; stroke-width: 0.6"/>
      </defs>
      <g>
       <use xlink:href="#m934bf2e2f1" x="44.7425" y="134.236125" style="stroke: #000000; stroke-width: 0.6"/>
      </g>
     </g>
    </g>
    <g id="ytick_4">
     <g id="line2d_35">
      <path d="M 44.7425 130.334367 
L 242.2745 130.334367 
" clip-path="url(#p69cadb3beb)" style="fill: none; stroke-dasharray: 2.96,1.28; stroke-dashoffset: 0; stroke: #f2f2f2; stroke-width: 0.8"/>
     </g>
     <g id="line2d_36">
      <g>
       <use xlink:href="#m934bf2e2f1" x="44.7425" y="130.334367" style="stroke: #000000; stroke-width: 0.6"/>
      </g>
     </g>
    </g>
    <g id="ytick_5">
     <g id="line2d_37">
      <path d="M 44.7425 126.892773 
L 242.2745 126.892773 
" clip-path="url(#p69cadb3beb)" style="fill: none; stroke-dasharray: 2.96,1.28; stroke-dashoffset: 0; stroke: #f2f2f2; stroke-width: 0.8"/>
     </g>
     <g id="line2d_38">
      <g>
       <use xlink:href="#m934bf2e2f1" x="44.7425" y="126.892773" style="stroke: #000000; stroke-width: 0.6"/>
      </g>
     </g>
    </g>
    <g id="ytick_6">
     <g id="line2d_39">
      <path d="M 44.7425 103.560554 
L 242.2745 103.560554 
" clip-path="url(#p69cadb3beb)" style="fill: none; stroke-dasharray: 2.96,1.28; stroke-dashoffset: 0; stroke: #f2f2f2; stroke-width: 0.8"/>
     </g>
     <g id="line2d_40">
      <g>
       <use xlink:href="#m934bf2e2f1" x="44.7425" y="103.560554" style="stroke: #000000; stroke-width: 0.6"/>
      </g>
     </g>
    </g>
    <g id="ytick_7">
     <g id="line2d_41">
      <path d="M 44.7425 91.712953 
L 242.2745 91.712953 
" clip-path="url(#p69cadb3beb)" style="fill: none; stroke-dasharray: 2.96,1.28; stroke-dashoffset: 0; stroke: #f2f2f2; stroke-width: 0.8"/>
     </g>
     <g id="line2d_42">
      <g>
       <use xlink:href="#m934bf2e2f1" x="44.7425" y="91.712953" style="stroke: #000000; stroke-width: 0.6"/>
      </g>
     </g>
    </g>
    <g id="ytick_8">
     <g id="line2d_43">
      <path d="M 44.7425 83.306947 
L 242.2745 83.306947 
" clip-path="url(#p69cadb3beb)" style="fill: none; stroke-dasharray: 2.96,1.28; stroke-dashoffset: 0; stroke: #f2f2f2; stroke-width: 0.8"/>
     </g>
     <g id="line2d_44">
      <g>
       <use xlink:href="#m934bf2e2f1" x="44.7425" y="83.306947" style="stroke: #000000; stroke-width: 0.6"/>
      </g>
     </g>
    </g>
    <g id="ytick_9">
     <g id="line2d_45">
      <path d="M 44.7425 76.786742 
L 242.2745 76.786742 
" clip-path="url(#p69cadb3beb)" style="fill: none; stroke-dasharray: 2.96,1.28; stroke-dashoffset: 0; stroke: #f2f2f2; stroke-width: 0.8"/>
     </g>
     <g id="line2d_46">
      <g>
       <use xlink:href="#m934bf2e2f1" x="44.7425" y="76.786742" style="stroke: #000000; stroke-width: 0.6"/>
      </g>
     </g>
    </g>
    <g id="ytick_10">
     <g id="line2d_47">
      <path d="M 44.7425 71.459346 
L 242.2745 71.459346 
" clip-path="url(#p69cadb3beb)" style="fill: none; stroke-dasharray: 2.96,1.28; stroke-dashoffset: 0; stroke: #f2f2f2; stroke-width: 0.8"/>
     </g>
     <g id="line2d_48">
      <g>
       <use xlink:href="#m934bf2e2f1" x="44.7425" y="71.459346" style="stroke: #000000; stroke-width: 0.6"/>
      </g>
     </g>
    </g>
    <g id="ytick_11">
     <g id="line2d_49">
      <path d="M 44.7425 66.955097 
L 242.2745 66.955097 
" clip-path="url(#p69cadb3beb)" style="fill: none; stroke-dasharray: 2.96,1.28; stroke-dashoffset: 0; stroke: #f2f2f2; stroke-width: 0.8"/>
     </g>
     <g id="line2d_50">
      <g>
       <use xlink:href="#m934bf2e2f1" x="44.7425" y="66.955097" style="stroke: #000000; stroke-width: 0.6"/>
      </g>
     </g>
    </g>
    <g id="ytick_12">
     <g id="line2d_51">
      <path d="M 44.7425 63.053339 
L 242.2745 63.053339 
" clip-path="url(#p69cadb3beb)" style="fill: none; stroke-dasharray: 2.96,1.28; stroke-dashoffset: 0; stroke: #f2f2f2; stroke-width: 0.8"/>
     </g>
     <g id="line2d_52">
      <g>
       <use xlink:href="#m934bf2e2f1" x="44.7425" y="63.053339" style="stroke: #000000; stroke-width: 0.6"/>
      </g>
     </g>
    </g>
    <g id="ytick_13">
     <g id="line2d_53">
      <path d="M 44.7425 59.611745 
L 242.2745 59.611745 
" clip-path="url(#p69cadb3beb)" style="fill: none; stroke-dasharray: 2.96,1.28; stroke-dashoffset: 0; stroke: #f2f2f2; stroke-width: 0.8"/>
     </g>
     <g id="line2d_54">
      <g>
       <use xlink:href="#m934bf2e2f1" x="44.7425" y="59.611745" style="stroke: #000000; stroke-width: 0.6"/>
      </g>
     </g>
    </g>
    <g id="ytick_14">
     <g id="line2d_55">
      <path d="M 44.7425 36.279527 
L 242.2745 36.279527 
" clip-path="url(#p69cadb3beb)" style="fill: none; stroke-dasharray: 2.96,1.28; stroke-dashoffset: 0; stroke: #f2f2f2; stroke-width: 0.8"/>
     </g>
     <g id="line2d_56">
      <g>
       <use xlink:href="#m934bf2e2f1" x="44.7425" y="36.279527" style="stroke: #000000; stroke-width: 0.6"/>
      </g>
     </g>
    </g>
    <g id="ytick_15">
     <g id="line2d_57">
      <path d="M 44.7425 24.431926 
L 242.2745 24.431926 
" clip-path="url(#p69cadb3beb)" style="fill: none; stroke-dasharray: 2.96,1.28; stroke-dashoffset: 0; stroke: #f2f2f2; stroke-width: 0.8"/>
     </g>
     <g id="line2d_58">
      <g>
       <use xlink:href="#m934bf2e2f1" x="44.7425" y="24.431926" style="stroke: #000000; stroke-width: 0.6"/>
      </g>
     </g>
    </g>
    <g id="ytick_16">
     <g id="line2d_59">
      <path d="M 44.7425 16.025919 
L 242.2745 16.025919 
" clip-path="url(#p69cadb3beb)" style="fill: none; stroke-dasharray: 2.96,1.28; stroke-dashoffset: 0; stroke: #f2f2f2; stroke-width: 0.8"/>
     </g>
     <g id="line2d_60">
      <g>
       <use xlink:href="#m934bf2e2f1" x="44.7425" y="16.025919" style="stroke: #000000; stroke-width: 0.6"/>
      </g>
     </g>
    </g>
    <g id="ytick_17">
     <g id="line2d_61">
      <path d="M 44.7425 9.505714 
L 242.2745 9.505714 
" clip-path="url(#p69cadb3beb)" style="fill: none; stroke-dasharray: 2.96,1.28; stroke-dashoffset: 0; stroke: #f2f2f2; stroke-width: 0.8"/>
     </g>
     <g id="line2d_62">
      <g>
       <use xlink:href="#m934bf2e2f1" x="44.7425" y="9.505714" style="stroke: #000000; stroke-width: 0.6"/>
      </g>
     </g>
    </g>
    <g id="text_6">
     <!-- Spectral acceleration, SA (g) -->
     <g transform="translate(13.27875 129.871075) rotate(-90) scale(0.08 -0.08)">
      <defs>
       <path id="DejaVuSans-53" d="M 3425 4513 
L 3425 3897 
Q 3066 4069 2747 4153 
Q 2428 4238 2131 4238 
Q 1616 4238 1336 4038 
Q 1056 3838 1056 3469 
Q 1056 3159 1242 3001 
Q 1428 2844 1947 2747 
L 2328 2669 
Q 3034 2534 3370 2195 
Q 3706 1856 3706 1288 
Q 3706 609 3251 259 
Q 2797 -91 1919 -91 
Q 1588 -91 1214 -16 
Q 841 59 441 206 
L 441 856 
Q 825 641 1194 531 
Q 1563 422 1919 422 
Q 2459 422 2753 634 
Q 3047 847 3047 1241 
Q 3047 1584 2836 1778 
Q 2625 1972 2144 2069 
L 1759 2144 
Q 1053 2284 737 2584 
Q 422 2884 422 3419 
Q 422 4038 858 4394 
Q 1294 4750 2059 4750 
Q 2388 4750 2728 4690 
Q 3069 4631 3425 4513 
z
" transform="scale(0.015625)"/>
       <path id="DejaVuSans-70" d="M 1159 525 
L 1159 -1331 
L 581 -1331 
L 581 3500 
L 1159 3500 
L 1159 2969 
Q 1341 3281 1617 3432 
Q 1894 3584 2278 3584 
Q 2916 3584 3314 3078 
Q 3713 2572 3713 1747 
Q 3713 922 3314 415 
Q 2916 -91 2278 -91 
Q 1894 -91 1617 61 
Q 1341 213 1159 525 
z
M 3116 1747 
Q 3116 2381 2855 2742 
Q 2594 3103 2138 3103 
Q 1681 3103 1420 2742 
Q 1159 2381 1159 1747 
Q 1159 1113 1420 752 
Q 1681 391 2138 391 
Q 2594 391 2855 752 
Q 3116 1113 3116 1747 
z
" transform="scale(0.015625)"/>
       <path id="DejaVuSans-63" d="M 3122 3366 
L 3122 2828 
Q 2878 2963 2633 3030 
Q 2388 3097 2138 3097 
Q 1578 3097 1268 2742 
Q 959 2388 959 1747 
Q 959 1106 1268 751 
Q 1578 397 2138 397 
Q 2388 397 2633 464 
Q 2878 531 3122 666 
L 3122 134 
Q 2881 22 2623 -34 
Q 2366 -91 2075 -91 
Q 1284 -91 818 406 
Q 353 903 353 1747 
Q 353 2603 823 3093 
Q 1294 3584 2113 3584 
Q 2378 3584 2631 3529 
Q 2884 3475 3122 3366 
z
" transform="scale(0.015625)"/>
       <path id="DejaVuSans-74" d="M 1172 4494 
L 1172 3500 
L 2356 3500 
L 2356 3053 
L 1172 3053 
L 1172 1153 
Q 1172 725 1289 603 
Q 1406 481 1766 481 
L 2356 481 
L 2356 0 
L 1766 0 
Q 1100 0 847 248 
Q 594 497 594 1153 
L 594 3053 
L 172 3053 
L 172 3500 
L 594 3500 
L 594 4494 
L 1172 4494 
z
" transform="scale(0.015625)"/>
       <path id="DejaVuSans-61" d="M 2194 1759 
Q 1497 1759 1228 1600 
Q 959 1441 959 1056 
Q 959 750 1161 570 
Q 1363 391 1709 391 
Q 2188 391 2477 730 
Q 2766 1069 2766 1631 
L 2766 1759 
L 2194 1759 
z
M 3341 1997 
L 3341 0 
L 2766 0 
L 2766 531 
Q 2569 213 2275 61 
Q 1981 -91 1556 -91 
Q 1019 -91 701 211 
Q 384 513 384 1019 
Q 384 1609 779 1909 
Q 1175 2209 1959 2209 
L 2766 2209 
L 2766 2266 
Q 2766 2663 2505 2880 
Q 2244 3097 1772 3097 
Q 1472 3097 1187 3025 
Q 903 2953 641 2809 
L 641 3341 
Q 956 3463 1253 3523 
Q 1550 3584 1831 3584 
Q 2591 3584 2966 3190 
Q 3341 2797 3341 1997 
z
" transform="scale(0.015625)"/>
       <path id="DejaVuSans-6c" d="M 603 4863 
L 1178 4863 
L 1178 0 
L 603 0 
L 603 4863 
z
" transform="scale(0.015625)"/>
       <path id="DejaVuSans-6e" d="M 3513 2113 
L 3513 0 
L 2938 0 
L 2938 2094 
Q 2938 2591 2744 2837 
Q 2550 3084 2163 3084 
Q 1697 3084 1428 2787 
Q 1159 2491 1159 1978 
L 1159 0 
L 581 0 
L 581 3500 
L 1159 3500 
L 1159 2956 
Q 1366 3272 1645 3428 
Q 1925 3584 2291 3584 
Q 2894 3584 3203 3211 
Q 3513 2838 3513 2113 
z
" transform="scale(0.015625)"/>
       <path id="DejaVuSans-41" d="M 2188 4044 
L 1331 1722 
L 3047 1722 
L 2188 4044 
z
M 1831 4666 
L 2547 4666 
L 4325 0 
L 3669 0 
L 3244 1197 
L 1141 1197 
L 716 0 
L 50 0 
L 1831 4666 
z
" transform="scale(0.015625)"/>
       <path id="DejaVuSans-67" d="M 2906 1791 
Q 2906 2416 2648 2759 
Q 2391 3103 1925 3103 
Q 1463 3103 1205 2759 
Q 947 2416 947 1791 
Q 947 1169 1205 825 
Q 1463 481 1925 481 
Q 2391 481 2648 825 
Q 2906 1169 2906 1791 
z
M 3481 434 
Q 3481 -459 3084 -895 
Q 2688 -1331 1869 -1331 
Q 1566 -1331 1297 -1286 
Q 1028 -1241 775 -1147 
L 775 -588 
Q 1028 -725 1275 -790 
Q 1522 -856 1778 -856 
Q 2344 -856 2625 -561 
Q 2906 -266 2906 331 
L 2906 616 
Q 2728 306 2450 153 
Q 2172 0 1784 0 
Q 1141 0 747 490 
Q 353 981 353 1791 
Q 353 2603 747 3093 
Q 1141 3584 1784 3584 
Q 2172 3584 2450 3431 
Q 2728 3278 2906 2969 
L 2906 3500 
L 3481 3500 
L 3481 434 
z
" transform="scale(0.015625)"/>
      </defs>
      <use xlink:href="#DejaVuSans-53"/>
      <use xlink:href="#DejaVuSans-70" x="63.476562"/>
      <use xlink:href="#DejaVuSans-65" x="126.953125"/>
      <use xlink:href="#DejaVuSans-63" x="188.476562"/>
      <use xlink:href="#DejaVuSans-74" x="243.457031"/>
      <use xlink:href="#DejaVuSans-72" x="282.666016"/>
      <use xlink:href="#DejaVuSans-61" x="323.779297"/>
      <use xlink:href="#DejaVuSans-6c" x="385.058594"/>
      <use xlink:href="#DejaVuSans-20" x="412.841797"/>
      <use xlink:href="#DejaVuSans-61" x="444.628906"/>
      <use xlink:href="#DejaVuSans-63" x="505.908203"/>
      <use xlink:href="#DejaVuSans-63" x="560.888672"/>
      <use xlink:href="#DejaVuSans-65" x="615.869141"/>
      <use xlink:href="#DejaVuSans-6c" x="677.392578"/>
      <use xlink:href="#DejaVuSans-65" x="705.175781"/>
      <use xlink:href="#DejaVuSans-72" x="766.699219"/>
      <use xlink:href="#DejaVuSans-61" x="807.8125"/>
      <use xlink:href="#DejaVuSans-74" x="869.091797"/>
      <use xlink:href="#DejaVuSans-69" x="908.300781"/>
      <use xlink:href="#DejaVuSans-6f" x="936.083984"/>
      <use xlink:href="#DejaVuSans-6e" x="997.265625"/>
      <use xlink:href="#DejaVuSans-2c" x="1060.644531"/>
      <use xlink:href="#DejaVuSans-20" x="1092.431641"/>
      <use xlink:href="#DejaVuSans-53" x="1124.21875"/>
      <use xlink:href="#DejaVuSans-41" x="1189.570312"/>
      <use xlink:href="#DejaVuSans-20" x="1257.978516"/>
      <use xlink:href="#DejaVuSans-28" x="1289.765625"/>
      <use xlink:href="#DejaVuSans-67" x="1328.779297"/>
      <use xlink:href="#DejaVuSans-29" x="1392.255859"/>
     </g>
    </g>
   </g>
   <g id="line2d_63">
    <path d="M 53.721227 48.030453 
L 73.459257 45.622871 
L 87.463612 41.444338 
L 98.326234 38.245706 
L 107.201642 35.224331 
L 121.205997 33.200169 
L 130.384708 32.968088 
L 132.068618 33.493761 
L 151.806648 42.662927 
L 165.811003 54.51501 
L 178.582888 68.386573 
L 185.549033 76.131757 
L 199.553388 90.70816 
L 219.291418 115.34852 
L 233.295773 132.0912 
" clip-path="url(#p69cadb3beb)" style="fill: none; stroke: #b2b2b2; stroke-width: 0.8; stroke-linecap: square"/>
   </g>
   <g id="line2d_64">
    <path d="M 53.721227 53.855725 
L 73.459257 44.300774 
L 87.463612 40.582474 
L 98.326234 37.396111 
L 107.201642 35.796073 
L 121.205997 32.742207 
L 130.384708 32.968088 
L 132.068618 33.06002 
L 151.806648 38.669907 
L 165.811003 44.490225 
L 178.582888 47.840638 
L 185.549033 51.578992 
L 199.553388 55.467389 
L 219.291418 72.964633 
L 233.295773 85.897004 
" clip-path="url(#p69cadb3beb)" style="fill: none; stroke: #b2b2b2; stroke-width: 0.8; stroke-linecap: square"/>
   </g>
   <g id="line2d_65">
    <path d="M 53.721227 48.4118 
L 73.459257 41.268988 
L 87.463612 35.283473 
L 98.326234 30.930743 
L 107.201642 31.675618 
L 121.205997 31.079807 
L 130.384708 32.968088 
L 132.068618 33.150251 
L 151.806648 42.725093 
L 165.811003 50.761728 
L 178.582888 55.872237 
L 185.549033 58.305548 
L 199.553388 61.220629 
L 219.291418 71.215539 
L 233.295773 77.140745 
" clip-path="url(#p69cadb3beb)" style="fill: none; stroke: #b2b2b2; stroke-width: 0.8; stroke-linecap: square"/>
   </g>
   <g id="line2d_66">
    <path d="M 53.721227 47.830744 
L 73.459257 39.626427 
L 87.463612 37.174427 
L 98.326234 37.434021 
L 107.201642 36.73535 
L 121.205997 34.282638 
L 130.384708 32.968088 
L 132.068618 32.998684 
L 151.806648 35.074582 
L 165.811003 40.050304 
L 178.582888 43.756512 
L 185.549033 46.580381 
L 199.553388 57.174205 
L 219.291418 70.372076 
L 233.295773 84.378095 
" clip-path="url(#p69cadb3beb)" style="fill: none; stroke: #b2b2b2; stroke-width: 0.8; stroke-linecap: square"/>
   </g>
   <g id="line2d_67">
    <path d="M 53.721227 47.424206 
L 73.459257 44.017216 
L 87.463612 40.598847 
L 98.326234 39.854195 
L 107.201642 38.125788 
L 121.205997 34.499289 
L 130.384708 32.968088 
L 132.068618 33.238619 
L 151.806648 33.440169 
L 165.811003 36.419597 
L 178.582888 42.760935 
L 185.549033 48.130517 
L 199.553388 57.029655 
L 219.291418 74.475029 
L 233.295773 89.540169 
" clip-path="url(#p69cadb3beb)" style="fill: none; stroke: #b2b2b2; stroke-width: 0.8; stroke-linecap: square"/>
   </g>
   <g id="line2d_68">
    <path d="M 53.721227 46.256949 
L 73.459257 39.500851 
L 87.463612 35.06801 
L 98.326234 31.732822 
L 107.201642 29.749919 
L 121.205997 29.44027 
L 130.384708 32.968088 
L 132.068618 34.510557 
L 151.806648 40.477398 
L 165.811003 53.117045 
L 178.582888 62.662051 
L 185.549033 69.509411 
L 199.553388 84.067423 
L 219.291418 96.281072 
L 233.295773 105.46846 
" clip-path="url(#p69cadb3beb)" style="fill: none; stroke: #b2b2b2; stroke-width: 0.8; stroke-linecap: square"/>
   </g>
   <g id="line2d_69">
    <path d="M 53.721227 32.906244 
L 73.459257 29.630998 
L 87.463612 25.682021 
L 98.326234 23.886724 
L 107.201642 24.605695 
L 121.205997 29.369571 
L 130.384708 32.968088 
L 132.068618 34.291373 
L 151.806648 47.041325 
L 165.811003 56.351184 
L 178.582888 65.542559 
L 185.549033 71.290717 
L 199.553388 79.667266 
L 219.291418 91.924468 
L 233.295773 101.784869 
" clip-path="url(#p69cadb3beb)" style="fill: none; stroke: #b2b2b2; stroke-width: 0.8; stroke-linecap: square"/>
   </g>
   <g id="line2d_70">
    <path d="M 53.721227 22.811085 
L 73.459257 21.977346 
L 87.463612 24.579555 
L 98.326234 28.549669 
L 107.201642 31.645175 
L 121.205997 32.081063 
L 130.384708 32.968088 
L 132.068618 32.578497 
L 151.806648 43.45665 
L 165.811003 55.546574 
L 178.582888 61.859816 
L 185.549033 67.877558 
L 199.553388 79.985994 
L 219.291418 101.713412 
L 233.295773 119.041931 
" clip-path="url(#p69cadb3beb)" style="fill: none; stroke: #b2b2b2; stroke-width: 0.8; stroke-linecap: square"/>
   </g>
   <g id="line2d_71">
    <path d="M 53.721227 19.873612 
L 73.459257 19.696286 
L 87.463612 21.366444 
L 98.326234 23.375591 
L 107.201642 24.876094 
L 121.205997 29.272735 
L 130.384708 32.968088 
L 132.068618 32.70532 
L 151.806648 43.957006 
L 165.811003 54.373048 
L 178.582888 63.795631 
L 185.549033 64.314072 
L 199.553388 73.544966 
L 219.291418 84.305486 
L 233.295773 101.273864 
" clip-path="url(#p69cadb3beb)" style="fill: none; stroke: #b2b2b2; stroke-width: 0.8; stroke-linecap: square"/>
   </g>
   <g id="line2d_72">
    <path d="M 53.721227 49.823676 
L 73.459257 46.437286 
L 87.463612 41.170561 
L 98.326234 35.126754 
L 107.201642 33.807296 
L 121.205997 34.13762 
L 130.384708 32.968088 
L 132.068618 32.966348 
L 151.806648 36.221797 
L 165.811003 40.881983 
L 178.582888 45.703954 
L 185.549033 49.497112 
L 199.553388 58.605623 
L 219.291418 77.583639 
L 233.295773 93.232869 
" clip-path="url(#p69cadb3beb)" style="fill: none; stroke: #b2b2b2; stroke-width: 0.8; stroke-linecap: square"/>
   </g>
   <g id="line2d_73">
    <path d="M 53.721227 24.286363 
L 73.459257 23.489897 
L 87.463612 26.573039 
L 98.326234 28.642798 
L 107.201642 28.584053 
L 121.205997 30.364451 
L 130.384708 32.968088 
L 132.068618 33.802892 
L 151.806648 42.40649 
L 165.811003 49.570925 
L 178.582888 58.104655 
L 185.549033 65.837855 
L 199.553388 78.045029 
L 219.291418 97.259361 
L 233.295773 112.188197 
" clip-path="url(#p69cadb3beb)" style="fill: none; stroke: #b2b2b2; stroke-width: 0.8; stroke-linecap: square"/>
   </g>
   <g id="line2d_74">
    <path d="M 53.721227 40.311255 
L 73.459257 38.28453 
L 87.463612 36.656589 
L 98.326234 33.665448 
L 107.201642 32.773943 
L 121.205997 33.220082 
L 130.384708 32.968088 
L 132.068618 33.229568 
L 151.806648 42.002967 
L 165.811003 46.094206 
L 178.582888 50.122774 
L 185.549033 52.057769 
L 199.553388 63.524085 
L 219.291418 87.080509 
L 233.295773 105.475978 
" clip-path="url(#p69cadb3beb)" style="fill: none; stroke: #b2b2b2; stroke-width: 0.8; stroke-linecap: square"/>
   </g>
   <g id="line2d_75">
    <path d="M 53.721227 48.89717 
L 73.459257 43.889403 
L 87.463612 41.996319 
L 98.326234 38.526067 
L 107.201642 36.460226 
L 121.205997 35.113628 
L 130.384708 32.968088 
L 132.068618 33.80919 
L 151.806648 42.346923 
L 165.811003 50.684891 
L 178.582888 59.157755 
L 185.549033 63.764557 
L 199.553388 72.020361 
L 219.291418 86.942888 
L 233.295773 105.453226 
" clip-path="url(#p69cadb3beb)" style="fill: none; stroke: #b2b2b2; stroke-width: 0.8; stroke-linecap: square"/>
   </g>
   <g id="line2d_76">
    <path d="M 53.721227 22.088373 
L 73.459257 20.374237 
L 87.463612 19.200365 
L 98.326234 18.882751 
L 107.201642 21.598271 
L 121.205997 29.156695 
L 130.384708 32.968088 
L 132.068618 33.207664 
L 151.806648 43.513928 
L 165.811003 52.017146 
L 178.582888 63.020972 
L 185.549033 68.619079 
L 199.553388 78.283137 
L 219.291418 90.915888 
L 233.295773 105.72836 
" clip-path="url(#p69cadb3beb)" style="fill: none; stroke: #b2b2b2; stroke-width: 0.8; stroke-linecap: square"/>
   </g>
   <g id="line2d_77">
    <path d="M 53.721227 24.459544 
L 73.459257 23.860392 
L 87.463612 23.193587 
L 98.326234 25.659111 
L 107.201642 26.960946 
L 121.205997 29.509538 
L 130.384708 32.968088 
L 132.068618 33.63636 
L 151.806648 36.190891 
L 165.811003 39.673425 
L 178.582888 46.951844 
L 185.549033 52.441268 
L 199.553388 59.530488 
L 219.291418 75.323702 
L 233.295773 88.731191 
" clip-path="url(#p69cadb3beb)" style="fill: none; stroke: #b2b2b2; stroke-width: 0.8; stroke-linecap: square"/>
   </g>
   <g id="line2d_78">
    <path d="M 53.721227 19.91573 
L 73.459257 17.927105 
L 87.463612 19.055053 
L 98.326234 19.656801 
L 107.201642 21.586729 
L 121.205997 28.373303 
L 130.384708 32.968088 
L 132.068618 34.031865 
L 151.806648 50.321895 
L 165.811003 61.524103 
L 178.582888 74.492783 
L 185.549033 79.739929 
L 199.553388 88.405235 
L 219.291418 106.032809 
L 233.295773 117.679094 
" clip-path="url(#p69cadb3beb)" style="fill: none; stroke: #b2b2b2; stroke-width: 0.8; stroke-linecap: square"/>
   </g>
   <g id="line2d_79">
    <path d="M 53.721227 48.8931 
L 73.459257 42.920039 
L 87.463612 37.987271 
L 98.326234 33.389644 
L 107.201642 31.092414 
L 121.205997 32.548188 
L 130.384708 32.968088 
L 132.068618 32.898251 
L 151.806648 36.702669 
L 165.811003 42.811452 
L 178.582888 45.994343 
L 185.549033 49.143429 
L 199.553388 57.655906 
L 219.291418 73.278158 
L 233.295773 89.37073 
" clip-path="url(#p69cadb3beb)" style="fill: none; stroke: #b2b2b2; stroke-width: 0.8; stroke-linecap: square"/>
   </g>
   <g id="line2d_80">
    <path d="M 53.721227 43.27033 
L 73.459257 39.025533 
L 87.463612 35.244764 
L 98.326234 32.286699 
L 107.201642 30.992104 
L 121.205997 32.282278 
L 130.384708 32.968088 
L 132.068618 33.353051 
L 151.806648 38.449847 
L 165.811003 44.036849 
L 178.582888 51.314865 
L 185.549033 57.303785 
L 199.553388 68.213393 
L 219.291418 86.846591 
L 233.295773 103.105767 
" clip-path="url(#p69cadb3beb)" style="fill: none; stroke: #b2b2b2; stroke-width: 0.8; stroke-linecap: square"/>
   </g>
   <g id="line2d_81">
    <path d="M 53.721227 23.613846 
L 73.459257 25.001871 
L 87.463612 24.719444 
L 98.326234 26.248487 
L 107.201642 26.222171 
L 121.205997 29.322652 
L 130.384708 32.968088 
L 132.068618 33.553329 
L 151.806648 38.724497 
L 165.811003 42.799566 
L 178.582888 50.687787 
L 185.549033 54.118863 
L 199.553388 62.915715 
L 219.291418 75.849311 
L 233.295773 86.098198 
" clip-path="url(#p69cadb3beb)" style="fill: none; stroke: #b2b2b2; stroke-width: 0.8; stroke-linecap: square"/>
   </g>
   <g id="line2d_82">
    <path d="M 53.721227 30.249948 
L 73.459257 25.196846 
L 87.463612 17.496886 
L 98.326234 16.177199 
L 107.201642 17.66905 
L 121.205997 26.132987 
L 130.384708 32.968088 
L 132.068618 34.875556 
L 151.806648 47.291185 
L 165.811003 56.505959 
L 178.582888 64.398165 
L 185.549033 67.407966 
L 199.553388 78.334888 
L 219.291418 88.629345 
L 233.295773 101.286556 
" clip-path="url(#p69cadb3beb)" style="fill: none; stroke: #b2b2b2; stroke-width: 0.8; stroke-linecap: square"/>
   </g>
   <g id="line2d_83">
    <path d="M 53.721227 41.896476 
L 73.459257 38.356896 
L 87.463612 34.808917 
L 98.326234 33.37488 
L 107.201642 33.110885 
L 121.205997 31.178404 
L 130.384708 32.968088 
L 132.068618 33.334319 
L 151.806648 36.349663 
L 165.811003 41.744996 
L 178.582888 46.363662 
L 185.549033 50.947776 
L 199.553388 63.220055 
L 219.291418 81.127044 
L 233.295773 97.275095 
" clip-path="url(#p69cadb3beb)" style="fill: none; stroke: #b2b2b2; stroke-width: 0.8; stroke-linecap: square"/>
   </g>
   <g id="line2d_84">
    <path d="M 53.721227 35.104484 
L 73.459257 32.303869 
L 87.463612 31.143323 
L 98.326234 30.167886 
L 107.201642 29.158159 
L 121.205997 32.004805 
L 130.384708 32.968088 
L 132.068618 35.344954 
L 151.806648 46.213621 
L 165.811003 50.702209 
L 178.582888 57.537362 
L 185.549033 65.974809 
L 199.553388 79.794774 
L 219.291418 95.613837 
L 233.295773 105.689408 
" clip-path="url(#p69cadb3beb)" style="fill: none; stroke: #b2b2b2; stroke-width: 0.8; stroke-linecap: square"/>
   </g>
   <g id="line2d_85">
    <path d="M 53.721227 38.40499 
L 73.459257 33.736245 
L 87.463612 31.877387 
L 98.326234 31.847998 
L 107.201642 29.490907 
L 121.205997 28.668189 
L 130.384708 32.968088 
L 132.068618 33.492403 
L 151.806648 43.456313 
L 165.811003 51.728285 
L 178.582888 59.790657 
L 185.549033 64.404687 
L 199.553388 82.081317 
L 219.291418 103.871527 
L 233.295773 122.656688 
" clip-path="url(#p69cadb3beb)" style="fill: none; stroke: #b2b2b2; stroke-width: 0.8; stroke-linecap: square"/>
   </g>
   <g id="line2d_86">
    <path d="M 53.721227 20.561814 
L 73.459257 18.346362 
L 87.463612 21.280733 
L 98.326234 23.761827 
L 107.201642 26.020732 
L 121.205997 29.345886 
L 130.384708 32.968088 
L 132.068618 33.220845 
L 151.806648 47.14513 
L 165.811003 54.852755 
L 178.582888 62.803334 
L 185.549033 66.724012 
L 199.553388 74.671076 
L 219.291418 88.805439 
L 233.295773 100.214858 
" clip-path="url(#p69cadb3beb)" style="fill: none; stroke: #b2b2b2; stroke-width: 0.8; stroke-linecap: square"/>
   </g>
   <g id="line2d_87">
    <path d="M 53.721227 28.899871 
L 73.459257 25.935611 
L 87.463612 26.59758 
L 98.326234 28.396344 
L 107.201642 30.883378 
L 121.205997 30.949781 
L 130.384708 32.968088 
L 132.068618 35.306464 
L 151.806648 42.655806 
L 165.811003 48.666153 
L 178.582888 54.947023 
L 185.549033 59.056278 
L 199.553388 67.182022 
L 219.291418 79.756238 
L 233.295773 91.091225 
" clip-path="url(#p69cadb3beb)" style="fill: none; stroke: #b2b2b2; stroke-width: 0.8; stroke-linecap: square"/>
   </g>
   <g id="line2d_88">
    <path d="M 53.721227 35.545133 
L 73.459257 26.874081 
L 87.463612 25.078286 
L 98.326234 27.520734 
L 107.201642 26.260166 
L 121.205997 29.650486 
L 130.384708 32.968088 
L 132.068618 33.02906 
L 151.806648 38.191953 
L 165.811003 47.172113 
L 178.582888 53.757937 
L 185.549033 57.923256 
L 199.553388 71.216923 
L 219.291418 89.245695 
L 233.295773 105.734284 
" clip-path="url(#p69cadb3beb)" style="fill: none; stroke: #b2b2b2; stroke-width: 0.8; stroke-linecap: square"/>
   </g>
   <g id="line2d_89">
    <path d="M 53.721227 27.57753 
L 73.459257 19.39743 
L 87.463612 18.456255 
L 98.326234 19.140005 
L 107.201642 23.515808 
L 121.205997 28.178238 
L 130.384708 32.968088 
L 132.068618 32.498726 
L 151.806648 46.218091 
L 165.811003 55.026302 
L 178.582888 60.560736 
L 185.549033 67.061006 
L 199.553388 78.290458 
L 219.291418 98.393121 
L 233.295773 111.060967 
" clip-path="url(#p69cadb3beb)" style="fill: none; stroke: #b2b2b2; stroke-width: 0.8; stroke-linecap: square"/>
   </g>
   <g id="line2d_90">
    <path d="M 53.721227 15.552561 
L 73.459257 14.844353 
L 87.463612 17.452584 
L 98.326234 18.05823 
L 107.201642 22.953737 
L 121.205997 28.879456 
L 130.384708 32.968088 
L 132.068618 32.840721 
L 151.806648 45.642796 
L 165.811003 54.739224 
L 178.582888 64.807416 
L 185.549033 69.976986 
L 199.553388 80.396756 
L 219.291418 95.732505 
L 233.295773 107.350395 
" clip-path="url(#p69cadb3beb)" style="fill: none; stroke: #b2b2b2; stroke-width: 0.8; stroke-linecap: square"/>
   </g>
   <g id="line2d_91">
    <path d="M 53.721227 53.720156 
L 73.459257 46.531157 
L 87.463612 41.055134 
L 98.326234 41.218456 
L 107.201642 37.553146 
L 121.205997 34.147586 
L 130.384708 32.968088 
L 132.068618 32.928965 
L 151.806648 38.959537 
L 165.811003 42.772404 
L 178.582888 49.912596 
L 185.549033 52.717903 
L 199.553388 63.933609 
L 219.291418 83.598095 
L 233.295773 101.691638 
" clip-path="url(#p69cadb3beb)" style="fill: none; stroke: #b2b2b2; stroke-width: 0.8; stroke-linecap: square"/>
   </g>
   <g id="line2d_92">
    <path d="M 53.721227 42.167949 
L 73.459257 35.690012 
L 87.463612 31.92137 
L 98.326234 30.915735 
L 107.201642 30.916694 
L 121.205997 31.38655 
L 130.384708 32.968088 
L 132.068618 32.195596 
L 151.806648 38.156091 
L 165.811003 42.79052 
L 178.582888 50.490672 
L 185.549033 56.314262 
L 199.553388 67.606478 
L 219.291418 84.203726 
L 233.295773 100.811994 
" clip-path="url(#p69cadb3beb)" style="fill: none; stroke: #b2b2b2; stroke-width: 0.8; stroke-linecap: square"/>
   </g>
   <g id="line2d_93">
    <path d="M 53.721227 31.893469 
L 73.459257 24.691121 
L 87.463612 28.196691 
L 98.326234 29.309307 
L 107.201642 29.112156 
L 121.205997 31.305596 
L 130.384708 32.968088 
L 132.068618 35.179058 
L 151.806648 44.301432 
L 165.811003 52.38222 
L 178.582888 58.715428 
L 185.549033 65.221289 
L 199.553388 72.101012 
L 219.291418 85.200828 
L 233.295773 99.134129 
" clip-path="url(#p69cadb3beb)" style="fill: none; stroke: #b2b2b2; stroke-width: 0.8; stroke-linecap: square"/>
   </g>
   <g id="line2d_94">
    <path d="M 53.721227 43.483575 
L 73.459257 43.232195 
L 87.463612 41.926578 
L 98.326234 40.408416 
L 107.201642 39.271524 
L 121.205997 34.65459 
L 130.384708 32.968088 
L 132.068618 32.29753 
L 151.806648 33.426259 
L 165.811003 39.714669 
L 178.582888 48.517043 
L 185.549033 55.306526 
L 199.553388 70.526841 
L 219.291418 95.251354 
L 233.295773 112.847583 
" clip-path="url(#p69cadb3beb)" style="fill: none; stroke: #b2b2b2; stroke-width: 0.8; stroke-linecap: square"/>
   </g>
   <g id="line2d_95">
    <path d="M 53.721227 29.232841 
L 73.459257 27.323496 
L 87.463612 22.571583 
L 98.326234 22.412455 
L 107.201642 23.767868 
L 121.205997 29.056613 
L 130.384708 32.968088 
L 132.068618 32.655638 
L 151.806648 44.664814 
L 165.811003 53.702909 
L 178.582888 63.587708 
L 185.549033 66.681786 
L 199.553388 75.574431 
L 219.291418 97.969876 
L 233.295773 111.947621 
" clip-path="url(#p69cadb3beb)" style="fill: none; stroke: #b2b2b2; stroke-width: 0.8; stroke-linecap: square"/>
   </g>
   <g id="line2d_96">
    <path d="M 53.721227 48.049379 
L 73.459257 43.16452 
L 87.463612 36.640267 
L 98.326234 33.87073 
L 107.201642 33.848267 
L 121.205997 31.679358 
L 130.384708 32.968088 
L 132.068618 32.601457 
L 151.806648 33.102401 
L 165.811003 37.892869 
L 178.582888 43.871071 
L 185.549033 45.073429 
L 199.553388 50.890256 
L 219.291418 70.758296 
L 233.295773 84.700914 
" clip-path="url(#p69cadb3beb)" style="fill: none; stroke: #b2b2b2; stroke-width: 0.8; stroke-linecap: square"/>
   </g>
   <g id="line2d_97">
    <path d="M 53.721227 26.311614 
L 73.459257 25.607046 
L 87.463612 28.355087 
L 98.326234 29.595895 
L 107.201642 31.871876 
L 121.205997 33.310698 
L 130.384708 32.968088 
L 132.068618 33.192031 
L 151.806648 32.814521 
L 165.811003 39.185525 
L 178.582888 44.439942 
L 185.549033 50.522469 
L 199.553388 65.144195 
L 219.291418 81.549017 
L 233.295773 93.75461 
" clip-path="url(#p69cadb3beb)" style="fill: none; stroke: #b2b2b2; stroke-width: 0.8; stroke-linecap: square"/>
   </g>
   <g id="line2d_98">
    <path d="M 53.721227 34.721682 
L 73.459257 32.261318 
L 87.463612 28.493304 
L 98.326234 27.120308 
L 107.201642 27.490798 
L 121.205997 29.88665 
L 130.384708 32.968088 
L 132.068618 33.296748 
L 151.806648 36.808638 
L 165.811003 43.733739 
L 178.582888 54.109921 
L 185.549033 60.380009 
L 199.553388 72.996185 
L 219.291418 86.708465 
L 233.295773 98.745541 
" clip-path="url(#p69cadb3beb)" style="fill: none; stroke: #b2b2b2; stroke-width: 0.8; stroke-linecap: square"/>
   </g>
   <g id="line2d_99">
    <path d="M 53.721227 28.634717 
L 73.459257 26.553196 
L 87.463612 23.486531 
L 98.326234 21.939632 
L 107.201642 20.844231 
L 121.205997 28.621551 
L 130.384708 32.968088 
L 132.068618 34.045676 
L 151.806648 42.443239 
L 165.811003 51.313118 
L 178.582888 60.642148 
L 185.549033 62.676217 
L 199.553388 66.217952 
L 219.291418 83.531667 
L 233.295773 102.784261 
" clip-path="url(#p69cadb3beb)" style="fill: none; stroke: #b2b2b2; stroke-width: 0.8; stroke-linecap: square"/>
   </g>
   <g id="line2d_100">
    <path d="M 53.721227 50.576091 
L 73.459257 45.946267 
L 87.463612 44.556731 
L 98.326234 43.220769 
L 107.201642 41.306749 
L 121.205997 36.517582 
L 130.384708 32.968088 
L 132.068618 32.870718 
L 151.806648 32.291073 
L 165.811003 34.510776 
L 178.582888 41.852992 
L 185.549033 44.663053 
L 199.553388 51.904111 
L 219.291418 67.75774 
L 233.295773 81.058829 
" clip-path="url(#p69cadb3beb)" style="fill: none; stroke: #b2b2b2; stroke-width: 0.8; stroke-linecap: square"/>
   </g>
   <g id="line2d_101">
    <path d="M 53.721227 24.239146 
L 73.459257 22.159475 
L 87.463612 23.086852 
L 98.326234 25.511559 
L 107.201642 27.63879 
L 121.205997 29.137405 
L 130.384708 32.968088 
L 132.068618 33.674342 
L 151.806648 38.424897 
L 165.811003 44.728196 
L 178.582888 52.146474 
L 185.549033 58.955004 
L 199.553388 69.059616 
L 219.291418 88.995656 
L 233.295773 105.646355 
" clip-path="url(#p69cadb3beb)" style="fill: none; stroke: #b2b2b2; stroke-width: 0.8; stroke-linecap: square"/>
   </g>
   <g id="line2d_102">
    <path d="M 53.721227 27.504862 
L 73.459257 27.554022 
L 87.463612 23.835506 
L 98.326234 24.260364 
L 107.201642 27.608333 
L 121.205997 30.277573 
L 130.384708 32.968088 
L 132.068618 33.09837 
L 151.806648 38.476838 
L 165.811003 47.185855 
L 178.582888 56.729866 
L 185.549033 61.09399 
L 199.553388 71.857443 
L 219.291418 94.42842 
L 233.295773 109.947776 
" clip-path="url(#p69cadb3beb)" style="fill: none; stroke: #b2b2b2; stroke-width: 0.8; stroke-linecap: square"/>
   </g>
   <g id="line2d_103">
    <path d="M 53.721227 23.06498 
L 73.459257 23.115692 
L 87.463612 25.517553 
L 98.326234 27.442975 
L 107.201642 29.339867 
L 121.205997 31.661199 
L 130.384708 32.968088 
L 132.068618 33.871536 
L 151.806648 32.915698 
L 165.811003 34.444506 
L 178.582888 42.602765 
L 185.549033 45.727089 
L 199.553388 51.846013 
L 219.291418 64.815934 
L 233.295773 79.12191 
" clip-path="url(#p69cadb3beb)" style="fill: none; stroke: #b2b2b2; stroke-width: 0.8; stroke-linecap: square"/>
   </g>
   <g id="line2d_104">
    <path d="M 53.721227 29.958112 
L 73.459257 22.875228 
L 87.463612 21.850078 
L 98.326234 23.143665 
L 107.201642 25.08317 
L 121.205997 30.488696 
L 130.384708 32.968088 
L 132.068618 34.868838 
L 151.806648 44.264574 
L 165.811003 53.74166 
L 178.582888 63.344033 
L 185.549033 70.865879 
L 199.553388 83.27511 
L 219.291418 107.68352 
L 233.295773 127.924098 
" clip-path="url(#p69cadb3beb)" style="fill: none; stroke: #b2b2b2; stroke-width: 0.8; stroke-linecap: square"/>
   </g>
   <g id="line2d_105">
    <path d="M 53.721227 34.706936 
L 73.459257 34.02991 
L 87.463612 31.911235 
L 98.326234 33.701063 
L 107.201642 34.128408 
L 121.205997 33.456399 
L 130.384708 32.968088 
L 132.068618 33.075857 
L 151.806648 37.464134 
L 165.811003 43.150855 
L 178.582888 55.062222 
L 185.549033 64.018414 
L 199.553388 79.362694 
L 219.291418 97.640164 
L 233.295773 108.412885 
" clip-path="url(#p69cadb3beb)" style="fill: none; stroke: #b2b2b2; stroke-width: 0.8; stroke-linecap: square"/>
   </g>
   <g id="line2d_106">
    <path d="M 53.721227 33.452145 
L 73.459257 31.239941 
L 87.463612 30.232098 
L 98.326234 31.297738 
L 107.201642 30.596006 
L 121.205997 32.38839 
L 130.384708 32.968088 
L 132.068618 32.797061 
L 151.806648 40.793802 
L 165.811003 46.761851 
L 178.582888 55.466394 
L 185.549033 60.360924 
L 199.553388 70.089612 
L 219.291418 87.702623 
L 233.295773 103.063711 
" clip-path="url(#p69cadb3beb)" style="fill: none; stroke: #b2b2b2; stroke-width: 0.8; stroke-linecap: square"/>
   </g>
   <g id="line2d_107">
    <path d="M 53.721227 45.651563 
L 73.459257 38.861173 
L 87.463612 37.909652 
L 98.326234 36.128908 
L 107.201642 33.32886 
L 121.205997 32.831673 
L 130.384708 32.968088 
L 132.068618 33.105595 
L 151.806648 34.244619 
L 165.811003 39.185331 
L 178.582888 43.054644 
L 185.549033 46.530685 
L 199.553388 56.0204 
L 219.291418 71.005697 
L 233.295773 83.043397 
" clip-path="url(#p69cadb3beb)" style="fill: none; stroke: #b2b2b2; stroke-width: 0.8; stroke-linecap: square"/>
   </g>
   <g id="line2d_108">
    <path d="M 53.721227 44.211147 
L 73.459257 41.342902 
L 87.463612 38.040951 
L 98.326234 34.618112 
L 107.201642 31.994313 
L 121.205997 30.252304 
L 130.384708 32.968088 
L 132.068618 32.847366 
L 151.806648 37.224674 
L 165.811003 44.618591 
L 178.582888 55.158015 
L 185.549033 60.243363 
L 199.553388 71.665045 
L 219.291418 87.863688 
L 233.295773 101.964787 
" clip-path="url(#p69cadb3beb)" style="fill: none; stroke: #b2b2b2; stroke-width: 0.8; stroke-linecap: square"/>
   </g>
   <g id="line2d_109">
    <path d="M 53.721227 24.562861 
L 73.459257 22.949624 
L 87.463612 20.16302 
L 98.326234 23.725598 
L 107.201642 24.111627 
L 121.205997 30.079125 
L 130.384708 32.968088 
L 132.068618 33.784193 
L 151.806648 48.17199 
L 165.811003 58.378914 
L 178.582888 72.970305 
L 185.549033 77.829937 
L 199.553388 94.25631 
L 219.291418 110.469124 
L 233.295773 127.395623 
" clip-path="url(#p69cadb3beb)" style="fill: none; stroke: #b2b2b2; stroke-width: 0.8; stroke-linecap: square"/>
   </g>
   <g id="line2d_110">
    <path d="M 53.721227 43.779303 
L 73.459257 40.117506 
L 87.463612 38.497624 
L 98.326234 36.017101 
L 107.201642 34.668899 
L 121.205997 31.584853 
L 130.384708 32.968088 
L 132.068618 33.558936 
L 151.806648 36.433039 
L 165.811003 46.741528 
L 178.582888 51.96887 
L 185.549033 54.9198 
L 199.553388 64.983791 
L 219.291418 86.875021 
L 233.295773 105.062344 
" clip-path="url(#p69cadb3beb)" style="fill: none; stroke: #b2b2b2; stroke-width: 0.8; stroke-linecap: square"/>
   </g>
   <g id="line2d_111">
    <path d="M 53.721227 26.583185 
L 73.459257 22.634057 
L 87.463612 21.222463 
L 98.326234 23.767042 
L 107.201642 28.588226 
L 121.205997 30.479025 
L 130.384708 32.968088 
L 132.068618 33.738905 
L 151.806648 44.899789 
L 165.811003 47.46368 
L 178.582888 54.836109 
L 185.549033 65.658638 
L 199.553388 75.468247 
L 219.291418 87.830147 
L 233.295773 88.004355 
" clip-path="url(#p69cadb3beb)" style="fill: none; stroke: #b2b2b2; stroke-width: 0.8; stroke-linecap: square"/>
   </g>
   <g id="line2d_112">
    <path d="M 53.721227 49.384941 
L 73.459257 43.223358 
L 87.463612 41.725243 
L 98.326234 36.216573 
L 107.201642 34.759803 
L 121.205997 32.442162 
L 130.384708 32.968088 
L 132.068618 32.978186 
L 151.806648 41.070512 
L 165.811003 43.946631 
L 178.582888 48.890067 
L 185.549033 50.003649 
L 199.553388 61.072533 
L 219.291418 74.67184 
L 233.295773 90.351835 
" clip-path="url(#p69cadb3beb)" style="fill: none; stroke: #b2b2b2; stroke-width: 0.8; stroke-linecap: square"/>
   </g>
   <g id="line2d_113">
    <path d="M 53.721227 35.634987 
L 73.459257 31.994835 
L 87.463612 30.13467 
L 98.326234 30.002242 
L 107.201642 29.899248 
L 121.205997 31.185191 
L 130.384708 32.968088 
L 132.068618 33.415711 
L 151.806648 40.458021 
L 165.811003 47.436717 
L 178.582888 54.938617 
L 185.549033 59.923768 
L 199.553388 70.134635 
L 219.291418 87.022297 
L 233.295773 101.27897 
" clip-path="url(#p69cadb3beb)" style="fill: none; stroke: #ff0000; stroke-width: 2; stroke-linecap: square"/>
   </g>
   <g id="line2d_114">
    <path d="M 53.721227 13.984706 
L 73.459257 13.1472 
L 87.463612 14.167903 
L 98.326234 16.688548 
L 107.201642 19.783141 
L 121.205997 27.04785 
L 130.384708 32.968087 
L 132.068618 31.580232 
L 151.806648 31.477998 
L 165.811003 34.269197 
L 178.582888 38.637077 
L 185.549033 41.979081 
L 199.553388 49.720665 
L 219.291418 63.942637 
L 233.295773 76.200828 
" clip-path="url(#p69cadb3beb)" style="fill: none; stroke-dasharray: 7.4,3.2; stroke-dashoffset: 0; stroke: #ff0000; stroke-width: 2"/>
   </g>
   <g id="line2d_115">
    <path d="M 53.721227 57.285269 
L 73.459257 50.842471 
L 87.463612 46.101436 
L 98.326234 43.315937 
L 107.201642 40.015356 
L 121.205997 35.322533 
L 130.384708 32.968089 
L 132.068618 35.25119 
L 151.806648 49.438044 
L 165.811003 60.604236 
L 178.582888 71.240158 
L 185.549033 77.868455 
L 199.553388 90.548605 
L 219.291418 110.101958 
L 233.295773 126.357112 
" clip-path="url(#p69cadb3beb)" style="fill: none; stroke-dasharray: 7.4,3.2; stroke-dashoffset: 0; stroke: #ff0000; stroke-width: 2"/>
   </g>
   <g id="line2d_116">
    <path d="M 53.721227 35.652873 
L 73.459257 32.058939 
L 87.463612 30.259282 
L 98.326234 29.755553 
L 107.201642 29.908093 
L 121.205997 31.2126 
L 130.384708 32.968088 
L 132.068618 33.422425 
L 151.806648 40.378082 
L 165.811003 47.304072 
L 178.582888 55.027285 
L 185.549033 59.829674 
L 199.553388 70.142096 
L 219.291418 87.067975 
L 233.295773 101.269112 
" clip-path="url(#p69cadb3beb)" style="fill: none; stroke: #0000ff; stroke-width: 2; stroke-linecap: square"/>
   </g>
   <g id="line2d_117">
    <path d="M 53.721227 14.159209 
L 73.459257 13.285768 
L 87.463612 14.234857 
L 98.326234 16.615989 
L 107.201642 19.631855 
L 121.205997 26.950438 
L 130.384708 32.968088 
L 132.068618 31.935929 
L 151.806648 31.129842 
L 165.811003 34.217721 
L 178.582888 38.76323 
L 185.549033 42.03192 
L 199.553388 49.51572 
L 219.291418 64.019897 
L 233.295773 75.984065 
" clip-path="url(#p69cadb3beb)" style="fill: none; stroke-dasharray: 7.4,3.2; stroke-dashoffset: 0; stroke: #0000ff; stroke-width: 2"/>
   </g>
   <g id="line2d_118">
    <path d="M 53.721227 57.146538 
L 73.459257 50.832111 
L 87.463612 46.283706 
L 98.326234 42.895117 
L 107.201642 40.18433 
L 121.205997 35.474761 
L 130.384708 32.968088 
L 132.068618 34.908921 
L 151.806648 49.626322 
L 165.811003 60.390423 
L 178.582888 71.291341 
L 185.549033 77.627427 
L 199.553388 90.768472 
L 219.291418 110.116052 
L 233.295773 126.55416 
" clip-path="url(#p69cadb3beb)" style="fill: none; stroke-dasharray: 7.4,3.2; stroke-dashoffset: 0; stroke: #0000ff; stroke-width: 2"/>
   </g>
   <g id="patch_3">
    <path d="M 44.7425 138.0384 
L 44.7425 7.2 
" style="fill: none; stroke: #000000; stroke-width: 0.8; stroke-linejoin: miter; stroke-linecap: square"/>
   </g>
   <g id="patch_4">
    <path d="M 242.2745 138.0384 
L 242.2745 7.2 
" style="fill: none; stroke: #000000; stroke-width: 0.8; stroke-linejoin: miter; stroke-linecap: square"/>
   </g>
   <g id="patch_5">
    <path d="M 44.7425 138.0384 
L 242.2745 138.0384 
" style="fill: none; stroke: #000000; stroke-width: 0.8; stroke-linejoin: miter; stroke-linecap: square"/>
   </g>
   <g id="patch_6">
    <path d="M 44.7425 7.2 
L 242.2745 7.2 
" style="fill: none; stroke: #000000; stroke-width: 0.8; stroke-linejoin: miter; stroke-linecap: square"/>
   </g>
   <g id="legend_1">
    <g id="patch_7">
     <path d="M 247.8745 104.47295 
L 432.5945 104.47295 
Q 434.1945 104.47295 434.1945 102.87295 
L 434.1945 42.36545 
Q 434.1945 40.76545 432.5945 40.76545 
L 247.8745 40.76545 
Q 246.2745 40.76545 246.2745 42.36545 
L 246.2745 102.87295 
Q 246.2745 104.47295 247.8745 104.47295 
z
" style="fill: #ffffff; opacity: 0.8; stroke: #cccccc; stroke-linejoin: miter"/>
    </g>
    <g id="line2d_119">
     <path d="M 249.4745 47.2442 
L 257.4745 47.2442 
L 265.4745 47.2442 
" style="fill: none; stroke: #b2b2b2; stroke-width: 0.8; stroke-linecap: square"/>
    </g>
    <g id="text_7">
     <!-- Individual selected GMs -->
     <g transform="translate(271.8745 50.0442) scale(0.08 -0.08)">
      <defs>
       <path id="DejaVuSans-49" d="M 628 4666 
L 1259 4666 
L 1259 0 
L 628 0 
L 628 4666 
z
" transform="scale(0.015625)"/>
       <path id="DejaVuSans-76" d="M 191 3500 
L 800 3500 
L 1894 563 
L 2988 3500 
L 3597 3500 
L 2284 0 
L 1503 0 
L 191 3500 
z
" transform="scale(0.015625)"/>
       <path id="DejaVuSans-75" d="M 544 1381 
L 544 3500 
L 1119 3500 
L 1119 1403 
Q 1119 906 1312 657 
Q 1506 409 1894 409 
Q 2359 409 2629 706 
Q 2900 1003 2900 1516 
L 2900 3500 
L 3475 3500 
L 3475 0 
L 2900 0 
L 2900 538 
Q 2691 219 2414 64 
Q 2138 -91 1772 -91 
Q 1169 -91 856 284 
Q 544 659 544 1381 
z
M 1991 3584 
L 1991 3584 
z
" transform="scale(0.015625)"/>
       <path id="DejaVuSans-47" d="M 3809 666 
L 3809 1919 
L 2778 1919 
L 2778 2438 
L 4434 2438 
L 4434 434 
Q 4069 175 3628 42 
Q 3188 -91 2688 -91 
Q 1594 -91 976 548 
Q 359 1188 359 2328 
Q 359 3472 976 4111 
Q 1594 4750 2688 4750 
Q 3144 4750 3555 4637 
Q 3966 4525 4313 4306 
L 4313 3634 
Q 3963 3931 3569 4081 
Q 3175 4231 2741 4231 
Q 1884 4231 1454 3753 
Q 1025 3275 1025 2328 
Q 1025 1384 1454 906 
Q 1884 428 2741 428 
Q 3075 428 3337 486 
Q 3600 544 3809 666 
z
" transform="scale(0.015625)"/>
       <path id="DejaVuSans-4d" d="M 628 4666 
L 1569 4666 
L 2759 1491 
L 3956 4666 
L 4897 4666 
L 4897 0 
L 4281 0 
L 4281 4097 
L 3078 897 
L 2444 897 
L 1241 4097 
L 1241 0 
L 628 0 
L 628 4666 
z
" transform="scale(0.015625)"/>
      </defs>
      <use xlink:href="#DejaVuSans-49"/>
      <use xlink:href="#DejaVuSans-6e" x="29.492188"/>
      <use xlink:href="#DejaVuSans-64" x="92.871094"/>
      <use xlink:href="#DejaVuSans-69" x="156.347656"/>
      <use xlink:href="#DejaVuSans-76" x="184.130859"/>
      <use xlink:href="#DejaVuSans-69" x="243.310547"/>
      <use xlink:href="#DejaVuSans-64" x="271.09375"/>
      <use xlink:href="#DejaVuSans-75" x="334.570312"/>
      <use xlink:href="#DejaVuSans-61" x="397.949219"/>
      <use xlink:href="#DejaVuSans-6c" x="459.228516"/>
      <use xlink:href="#DejaVuSans-20" x="487.011719"/>
      <use xlink:href="#DejaVuSans-73" x="518.798828"/>
      <use xlink:href="#DejaVuSans-65" x="570.898438"/>
      <use xlink:href="#DejaVuSans-6c" x="632.421875"/>
      <use xlink:href="#DejaVuSans-65" x="660.205078"/>
      <use xlink:href="#DejaVuSans-63" x="721.728516"/>
      <use xlink:href="#DejaVuSans-74" x="776.708984"/>
      <use xlink:href="#DejaVuSans-65" x="815.917969"/>
      <use xlink:href="#DejaVuSans-64" x="877.441406"/>
      <use xlink:href="#DejaVuSans-20" x="940.917969"/>
      <use xlink:href="#DejaVuSans-47" x="972.705078"/>
      <use xlink:href="#DejaVuSans-4d" x="1050.195312"/>
      <use xlink:href="#DejaVuSans-73" x="1136.474609"/>
     </g>
    </g>
    <g id="line2d_120">
     <path d="M 249.4745 58.9867 
L 257.4745 58.9867 
L 265.4745 58.9867 
" style="fill: none; stroke: #ff0000; stroke-width: 2; stroke-linecap: square"/>
    </g>
    <g id="text_8">
     <!-- GCIM median -->
     <g transform="translate(271.8745 61.7867) scale(0.08 -0.08)">
      <defs>
       <path id="DejaVuSans-43" d="M 4122 4306 
L 4122 3641 
Q 3803 3938 3442 4084 
Q 3081 4231 2675 4231 
Q 1875 4231 1450 3742 
Q 1025 3253 1025 2328 
Q 1025 1406 1450 917 
Q 1875 428 2675 428 
Q 3081 428 3442 575 
Q 3803 722 4122 1019 
L 4122 359 
Q 3791 134 3420 21 
Q 3050 -91 2638 -91 
Q 1578 -91 968 557 
Q 359 1206 359 2328 
Q 359 3453 968 4101 
Q 1578 4750 2638 4750 
Q 3056 4750 3426 4639 
Q 3797 4528 4122 4306 
z
" transform="scale(0.015625)"/>
       <path id="DejaVuSans-6d" d="M 3328 2828 
Q 3544 3216 3844 3400 
Q 4144 3584 4550 3584 
Q 5097 3584 5394 3201 
Q 5691 2819 5691 2113 
L 5691 0 
L 5113 0 
L 5113 2094 
Q 5113 2597 4934 2840 
Q 4756 3084 4391 3084 
Q 3944 3084 3684 2787 
Q 3425 2491 3425 1978 
L 3425 0 
L 2847 0 
L 2847 2094 
Q 2847 2600 2669 2842 
Q 2491 3084 2119 3084 
Q 1678 3084 1418 2786 
Q 1159 2488 1159 1978 
L 1159 0 
L 581 0 
L 581 3500 
L 1159 3500 
L 1159 2956 
Q 1356 3278 1631 3431 
Q 1906 3584 2284 3584 
Q 2666 3584 2933 3390 
Q 3200 3197 3328 2828 
z
" transform="scale(0.015625)"/>
      </defs>
      <use xlink:href="#DejaVuSans-47"/>
      <use xlink:href="#DejaVuSans-43" x="77.490234"/>
      <use xlink:href="#DejaVuSans-49" x="147.314453"/>
      <use xlink:href="#DejaVuSans-4d" x="176.806641"/>
      <use xlink:href="#DejaVuSans-20" x="263.085938"/>
      <use xlink:href="#DejaVuSans-6d" x="294.873047"/>
      <use xlink:href="#DejaVuSans-65" x="392.285156"/>
      <use xlink:href="#DejaVuSans-64" x="453.808594"/>
      <use xlink:href="#DejaVuSans-69" x="517.285156"/>
      <use xlink:href="#DejaVuSans-61" x="545.068359"/>
      <use xlink:href="#DejaVuSans-6e" x="606.347656"/>
     </g>
    </g>
    <g id="line2d_121">
     <path d="M 249.4745 72.01045 
L 257.4745 72.01045 
L 265.4745 72.01045 
" style="fill: none; stroke-dasharray: 7.4,3.2; stroke-dashoffset: 0; stroke: #ff0000; stroke-width: 2"/>
    </g>
    <g id="text_9">
     <!-- GCIM $16^{th}$ and $84^{th}$ percentiles -->
     <g transform="translate(271.8745 74.81045) scale(0.08 -0.08)">
      <defs>
       <path id="DejaVuSans-36" d="M 2113 2584 
Q 1688 2584 1439 2293 
Q 1191 2003 1191 1497 
Q 1191 994 1439 701 
Q 1688 409 2113 409 
Q 2538 409 2786 701 
Q 3034 994 3034 1497 
Q 3034 2003 2786 2293 
Q 2538 2584 2113 2584 
z
M 3366 4563 
L 3366 3988 
Q 3128 4100 2886 4159 
Q 2644 4219 2406 4219 
Q 1781 4219 1451 3797 
Q 1122 3375 1075 2522 
Q 1259 2794 1537 2939 
Q 1816 3084 2150 3084 
Q 2853 3084 3261 2657 
Q 3669 2231 3669 1497 
Q 3669 778 3244 343 
Q 2819 -91 2113 -91 
Q 1303 -91 875 529 
Q 447 1150 447 2328 
Q 447 3434 972 4092 
Q 1497 4750 2381 4750 
Q 2619 4750 2861 4703 
Q 3103 4656 3366 4563 
z
" transform="scale(0.015625)"/>
       <path id="DejaVuSans-Oblique-74" d="M 2706 3500 
L 2619 3053 
L 1472 3053 
L 1100 1153 
Q 1081 1047 1072 975 
Q 1063 903 1063 863 
Q 1063 663 1183 572 
Q 1303 481 1569 481 
L 2150 481 
L 2053 0 
L 1503 0 
Q 991 0 739 200 
Q 488 400 488 806 
Q 488 878 497 964 
Q 506 1050 525 1153 
L 897 3053 
L 409 3053 
L 500 3500 
L 978 3500 
L 1172 4494 
L 1747 4494 
L 1556 3500 
L 2706 3500 
z
" transform="scale(0.015625)"/>
       <path id="DejaVuSans-Oblique-68" d="M 3566 2113 
L 3156 0 
L 2578 0 
L 2988 2091 
Q 3016 2238 3031 2350 
Q 3047 2463 3047 2528 
Q 3047 2791 2881 2937 
Q 2716 3084 2419 3084 
Q 1956 3084 1617 2771 
Q 1278 2459 1178 1941 
L 800 0 
L 225 0 
L 1172 4863 
L 1747 4863 
L 1375 2950 
Q 1594 3244 1934 3414 
Q 2275 3584 2650 3584 
Q 3113 3584 3367 3334 
Q 3622 3084 3622 2631 
Q 3622 2519 3608 2391 
Q 3594 2263 3566 2113 
z
" transform="scale(0.015625)"/>
       <path id="DejaVuSans-38" d="M 2034 2216 
Q 1584 2216 1326 1975 
Q 1069 1734 1069 1313 
Q 1069 891 1326 650 
Q 1584 409 2034 409 
Q 2484 409 2743 651 
Q 3003 894 3003 1313 
Q 3003 1734 2745 1975 
Q 2488 2216 2034 2216 
z
M 1403 2484 
Q 997 2584 770 2862 
Q 544 3141 544 3541 
Q 544 4100 942 4425 
Q 1341 4750 2034 4750 
Q 2731 4750 3128 4425 
Q 3525 4100 3525 3541 
Q 3525 3141 3298 2862 
Q 3072 2584 2669 2484 
Q 3125 2378 3379 2068 
Q 3634 1759 3634 1313 
Q 3634 634 3220 271 
Q 2806 -91 2034 -91 
Q 1263 -91 848 271 
Q 434 634 434 1313 
Q 434 1759 690 2068 
Q 947 2378 1403 2484 
z
M 1172 3481 
Q 1172 3119 1398 2916 
Q 1625 2713 2034 2713 
Q 2441 2713 2670 2916 
Q 2900 3119 2900 3481 
Q 2900 3844 2670 4047 
Q 2441 4250 2034 4250 
Q 1625 4250 1398 4047 
Q 1172 3844 1172 3481 
z
" transform="scale(0.015625)"/>
       <path id="DejaVuSans-34" d="M 2419 4116 
L 825 1625 
L 2419 1625 
L 2419 4116 
z
M 2253 4666 
L 3047 4666 
L 3047 1625 
L 3713 1625 
L 3713 1100 
L 3047 1100 
L 3047 0 
L 2419 0 
L 2419 1100 
L 313 1100 
L 313 1709 
L 2253 4666 
z
" transform="scale(0.015625)"/>
      </defs>
      <use xlink:href="#DejaVuSans-47" transform="translate(0 0.529687)"/>
      <use xlink:href="#DejaVuSans-43" transform="translate(77.490234 0.529687)"/>
      <use xlink:href="#DejaVuSans-49" transform="translate(147.314453 0.529687)"/>
      <use xlink:href="#DejaVuSans-4d" transform="translate(176.806641 0.529687)"/>
      <use xlink:href="#DejaVuSans-20" transform="translate(263.085938 0.529687)"/>
      <use xlink:href="#DejaVuSans-31" transform="translate(294.873047 0.529687)"/>
      <use xlink:href="#DejaVuSans-36" transform="translate(358.496094 0.529687)"/>
      <use xlink:href="#DejaVuSans-Oblique-74" transform="translate(423.076172 38.810937) scale(0.7)"/>
      <use xlink:href="#DejaVuSans-Oblique-68" transform="translate(450.522461 38.810937) scale(0.7)"/>
      <use xlink:href="#DejaVuSans-20" transform="translate(497.62207 0.529687)"/>
      <use xlink:href="#DejaVuSans-61" transform="translate(529.40918 0.529687)"/>
      <use xlink:href="#DejaVuSans-6e" transform="translate(590.688477 0.529687)"/>
      <use xlink:href="#DejaVuSans-64" transform="translate(654.067383 0.529687)"/>
      <use xlink:href="#DejaVuSans-20" transform="translate(717.543945 0.529687)"/>
      <use xlink:href="#DejaVuSans-38" transform="translate(749.331055 0.529687)"/>
      <use xlink:href="#DejaVuSans-34" transform="translate(812.954102 0.529687)"/>
      <use xlink:href="#DejaVuSans-Oblique-74" transform="translate(877.53418 38.810937) scale(0.7)"/>
      <use xlink:href="#DejaVuSans-Oblique-68" transform="translate(904.980469 38.810937) scale(0.7)"/>
      <use xlink:href="#DejaVuSans-20" transform="translate(952.080078 0.529687)"/>
      <use xlink:href="#DejaVuSans-70" transform="translate(983.867188 0.529687)"/>
      <use xlink:href="#DejaVuSans-65" transform="translate(1047.34375 0.529687)"/>
      <use xlink:href="#DejaVuSans-72" transform="translate(1108.867188 0.529687)"/>
      <use xlink:href="#DejaVuSans-63" transform="translate(1149.980469 0.529687)"/>
      <use xlink:href="#DejaVuSans-65" transform="translate(1204.960938 0.529687)"/>
      <use xlink:href="#DejaVuSans-6e" transform="translate(1266.484375 0.529687)"/>
      <use xlink:href="#DejaVuSans-74" transform="translate(1329.863281 0.529687)"/>
      <use xlink:href="#DejaVuSans-69" transform="translate(1369.072266 0.529687)"/>
      <use xlink:href="#DejaVuSans-6c" transform="translate(1396.855469 0.529687)"/>
      <use xlink:href="#DejaVuSans-65" transform="translate(1424.638672 0.529687)"/>
      <use xlink:href="#DejaVuSans-73" transform="translate(1486.162109 0.529687)"/>
     </g>
    </g>
    <g id="line2d_122">
     <path d="M 249.4745 83.7692 
L 257.4745 83.7692 
L 265.4745 83.7692 
" style="fill: none; stroke: #0000ff; stroke-width: 2; stroke-linecap: square"/>
    </g>
    <g id="text_10">
     <!-- Selected GMs median -->
     <g transform="translate(271.8745 86.5692) scale(0.08 -0.08)">
      <use xlink:href="#DejaVuSans-53"/>
      <use xlink:href="#DejaVuSans-65" x="63.476562"/>
      <use xlink:href="#DejaVuSans-6c" x="125"/>
      <use xlink:href="#DejaVuSans-65" x="152.783203"/>
      <use xlink:href="#DejaVuSans-63" x="214.306641"/>
      <use xlink:href="#DejaVuSans-74" x="269.287109"/>
      <use xlink:href="#DejaVuSans-65" x="308.496094"/>
      <use xlink:href="#DejaVuSans-64" x="370.019531"/>
      <use xlink:href="#DejaVuSans-20" x="433.496094"/>
      <use xlink:href="#DejaVuSans-47" x="465.283203"/>
      <use xlink:href="#DejaVuSans-4d" x="542.773438"/>
      <use xlink:href="#DejaVuSans-73" x="629.052734"/>
      <use xlink:href="#DejaVuSans-20" x="681.152344"/>
      <use xlink:href="#DejaVuSans-6d" x="712.939453"/>
      <use xlink:href="#DejaVuSans-65" x="810.351562"/>
      <use xlink:href="#DejaVuSans-64" x="871.875"/>
      <use xlink:href="#DejaVuSans-69" x="935.351562"/>
      <use xlink:href="#DejaVuSans-61" x="963.134766"/>
      <use xlink:href="#DejaVuSans-6e" x="1024.414062"/>
     </g>
    </g>
    <g id="line2d_123">
     <path d="M 249.4745 96.79295 
L 257.4745 96.79295 
L 265.4745 96.79295 
" style="fill: none; stroke-dasharray: 7.4,3.2; stroke-dashoffset: 0; stroke: #0000ff; stroke-width: 2"/>
    </g>
    <g id="text_11">
     <!-- Selected GMs, $16^{th}$ and $84^{th}$ percentiles -->
     <g transform="translate(271.8745 99.59295) scale(0.08 -0.08)">
      <use xlink:href="#DejaVuSans-53" transform="translate(0 0.529687)"/>
      <use xlink:href="#DejaVuSans-65" transform="translate(63.476562 0.529687)"/>
      <use xlink:href="#DejaVuSans-6c" transform="translate(125 0.529687)"/>
      <use xlink:href="#DejaVuSans-65" transform="translate(152.783203 0.529687)"/>
      <use xlink:href="#DejaVuSans-63" transform="translate(214.306641 0.529687)"/>
      <use xlink:href="#DejaVuSans-74" transform="translate(269.287109 0.529687)"/>
      <use xlink:href="#DejaVuSans-65" transform="translate(308.496094 0.529687)"/>
      <use xlink:href="#DejaVuSans-64" transform="translate(370.019531 0.529687)"/>
      <use xlink:href="#DejaVuSans-20" transform="translate(433.496094 0.529687)"/>
      <use xlink:href="#DejaVuSans-47" transform="translate(465.283203 0.529687)"/>
      <use xlink:href="#DejaVuSans-4d" transform="translate(542.773438 0.529687)"/>
      <use xlink:href="#DejaVuSans-73" transform="translate(629.052734 0.529687)"/>
      <use xlink:href="#DejaVuSans-2c" transform="translate(681.152344 0.529687)"/>
      <use xlink:href="#DejaVuSans-20" transform="translate(712.939453 0.529687)"/>
      <use xlink:href="#DejaVuSans-31" transform="translate(744.726562 0.529687)"/>
      <use xlink:href="#DejaVuSans-36" transform="translate(808.349609 0.529687)"/>
      <use xlink:href="#DejaVuSans-Oblique-74" transform="translate(872.929688 38.810937) scale(0.7)"/>
      <use xlink:href="#DejaVuSans-Oblique-68" transform="translate(900.375977 38.810937) scale(0.7)"/>
      <use xlink:href="#DejaVuSans-20" transform="translate(947.475586 0.529687)"/>
      <use xlink:href="#DejaVuSans-61" transform="translate(979.262695 0.529687)"/>
      <use xlink:href="#DejaVuSans-6e" transform="translate(1040.541992 0.529687)"/>
      <use xlink:href="#DejaVuSans-64" transform="translate(1103.920898 0.529687)"/>
      <use xlink:href="#DejaVuSans-20" transform="translate(1167.397461 0.529687)"/>
      <use xlink:href="#DejaVuSans-38" transform="translate(1199.18457 0.529687)"/>
      <use xlink:href="#DejaVuSans-34" transform="translate(1262.807617 0.529687)"/>
      <use xlink:href="#DejaVuSans-Oblique-74" transform="translate(1327.387695 38.810937) scale(0.7)"/>
      <use xlink:href="#DejaVuSans-Oblique-68" transform="translate(1354.833984 38.810937) scale(0.7)"/>
      <use xlink:href="#DejaVuSans-20" transform="translate(1401.933594 0.529687)"/>
      <use xlink:href="#DejaVuSans-70" transform="translate(1433.720703 0.529687)"/>
      <use xlink:href="#DejaVuSans-65" transform="translate(1497.197266 0.529687)"/>
      <use xlink:href="#DejaVuSans-72" transform="translate(1558.720703 0.529687)"/>
      <use xlink:href="#DejaVuSans-63" transform="translate(1599.833984 0.529687)"/>
      <use xlink:href="#DejaVuSans-65" transform="translate(1654.814453 0.529687)"/>
      <use xlink:href="#DejaVuSans-6e" transform="translate(1716.337891 0.529687)"/>
      <use xlink:href="#DejaVuSans-74" transform="translate(1779.716797 0.529687)"/>
      <use xlink:href="#DejaVuSans-69" transform="translate(1818.925781 0.529687)"/>
      <use xlink:href="#DejaVuSans-6c" transform="translate(1846.708984 0.529687)"/>
      <use xlink:href="#DejaVuSans-65" transform="translate(1874.492188 0.529687)"/>
      <use xlink:href="#DejaVuSans-73" transform="translate(1936.015625 0.529687)"/>
     </g>
    </g>
   </g>
  </g>
 </g>
 <defs>
  <clipPath id="p69cadb3beb">
   <rect x="44.7425" y="7.2" width="197.532" height="130.8384"/>
  </clipPath>
 </defs>
</svg>
