<?xml version="1.0" encoding="utf-8" standalone="no"?>
<!DOCTYPE svg PUBLIC "-//W3C//DTD SVG 1.1//EN"
  "http://www.w3.org/Graphics/SVG/1.1/DTD/svg11.dtd">
<svg xmlns:xlink="http://www.w3.org/1999/xlink" width="441.3945pt" height="171.7234pt" viewBox="0 0 441.3945 171.7234" xmlns="http://www.w3.org/2000/svg" version="1.1">
 <metadata>
  <rdf:RDF xmlns:dc="http://purl.org/dc/elements/1.1/" xmlns:cc="http://creativecommons.org/ns#" xmlns:rdf="http://www.w3.org/1999/02/22-rdf-syntax-ns#">
   <cc:Work>
    <dc:type rdf:resource="http://purl.org/dc/dcmitype/StillImage"/>
    <dc:date>2024-11-11T11:42:53.433839</dc:date>
    <dc:format>image/svg+xml</dc:format>
    <dc:creator>
     <cc:Agent>
      <dc:title>Matplotlib v3.8.2, https://matplotlib.org/</dc:title>
     </cc:Agent>
    </dc:creator>
   </cc:Work>
  </rdf:RDF>
 </metadata>
 <defs>
  <style type="text/css">*{stroke-linejoin: round; stroke-linecap: butt}</style>
 </defs>
 <g id="figure_1">
  <g id="patch_1">
   <path d="M 0 171.7234 
L 441.3945 171.7234 
L 441.3945 0 
L 0 0 
z
" style="fill: #ffffff"/>
  </g>
  <g id="axes_1">
   <g id="patch_2">
    <path d="M 44.7425 138.0384 
L 242.2745 138.0384 
L 242.2745 7.2 
L 44.7425 7.2 
z
" style="fill: #ffffff"/>
   </g>
   <g id="matplotlib.axis_1">
    <g id="xtick_1">
     <g id="line2d_1">
      <path d="M 53.721227 138.0384 
L 53.721227 7.2 
" clip-path="url(#pc31abc2047)" style="fill: none; stroke: #d9d9d9; stroke-width: 0.8; stroke-linecap: square"/>
     </g>
     <g id="line2d_2">
      <defs>
       <path id="m92197d85f1" d="M 0 0 
L 0 3.5 
" style="stroke: #000000; stroke-width: 0.8"/>
      </defs>
      <g>
       <use xlink:href="#m92197d85f1" x="53.721227" y="138.0384" style="stroke: #000000; stroke-width: 0.8"/>
      </g>
     </g>
     <g id="text_1">
      <!-- $\mathdefault{10^{-1}}$ -->
      <g transform="translate(44.321227 151.11715) scale(0.08 -0.08)">
       <defs>
        <path id="DejaVuSans-31" d="M 794 531 
L 1825 531 
L 1825 4091 
L 703 3866 
L 703 4441 
L 1819 4666 
L 2450 4666 
L 2450 531 
L 3481 531 
L 3481 0 
L 794 0 
L 794 531 
z
" transform="scale(0.015625)"/>
        <path id="DejaVuSans-30" d="M 2034 4250 
Q 1547 4250 1301 3770 
Q 1056 3291 1056 2328 
Q 1056 1369 1301 889 
Q 1547 409 2034 409 
Q 2525 409 2770 889 
Q 3016 1369 3016 2328 
Q 3016 3291 2770 3770 
Q 2525 4250 2034 4250 
z
M 2034 4750 
Q 2819 4750 3233 4129 
Q 3647 3509 3647 2328 
Q 3647 1150 3233 529 
Q 2819 -91 2034 -91 
Q 1250 -91 836 529 
Q 422 1150 422 2328 
Q 422 3509 836 4129 
Q 1250 4750 2034 4750 
z
" transform="scale(0.015625)"/>
        <path id="DejaVuSans-2212" d="M 678 2272 
L 4684 2272 
L 4684 1741 
L 678 1741 
L 678 2272 
z
" transform="scale(0.015625)"/>
       </defs>
       <use xlink:href="#DejaVuSans-31" transform="translate(0 0.684375)"/>
       <use xlink:href="#DejaVuSans-30" transform="translate(63.623047 0.684375)"/>
       <use xlink:href="#DejaVuSans-2212" transform="translate(128.203125 38.965625) scale(0.7)"/>
       <use xlink:href="#DejaVuSans-31" transform="translate(186.855469 38.965625) scale(0.7)"/>
      </g>
     </g>
    </g>
    <g id="xtick_2">
     <g id="line2d_3">
      <path d="M 159.417352 138.0384 
L 159.417352 7.2 
" clip-path="url(#pc31abc2047)" style="fill: none; stroke: #d9d9d9; stroke-width: 0.8; stroke-linecap: square"/>
     </g>
     <g id="line2d_4">
      <g>
       <use xlink:href="#m92197d85f1" x="159.417352" y="138.0384" style="stroke: #000000; stroke-width: 0.8"/>
      </g>
     </g>
     <g id="text_2">
      <!-- $\mathdefault{10^{0}}$ -->
      <g transform="translate(152.377352 151.11715) scale(0.08 -0.08)">
       <use xlink:href="#DejaVuSans-31" transform="translate(0 0.765625)"/>
       <use xlink:href="#DejaVuSans-30" transform="translate(63.623047 0.765625)"/>
       <use xlink:href="#DejaVuSans-30" transform="translate(128.203125 39.046875) scale(0.7)"/>
      </g>
     </g>
    </g>
    <g id="xtick_3">
     <g id="line2d_5">
      <path d="M 48.884838 138.0384 
L 48.884838 7.2 
" clip-path="url(#pc31abc2047)" style="fill: none; stroke-dasharray: 2.96,1.28; stroke-dashoffset: 0; stroke: #f2f2f2; stroke-width: 0.8"/>
     </g>
     <g id="line2d_6">
      <defs>
       <path id="m947ce157d4" d="M 0 0 
L 0 2 
" style="stroke: #000000; stroke-width: 0.6"/>
      </defs>
      <g>
       <use xlink:href="#m947ce157d4" x="48.884838" y="138.0384" style="stroke: #000000; stroke-width: 0.6"/>
      </g>
     </g>
    </g>
    <g id="xtick_4">
     <g id="line2d_7">
      <path d="M 85.538931 138.0384 
L 85.538931 7.2 
" clip-path="url(#pc31abc2047)" style="fill: none; stroke-dasharray: 2.96,1.28; stroke-dashoffset: 0; stroke: #f2f2f2; stroke-width: 0.8"/>
     </g>
     <g id="line2d_8">
      <g>
       <use xlink:href="#m947ce157d4" x="85.538931" y="138.0384" style="stroke: #000000; stroke-width: 0.6"/>
      </g>
     </g>
    </g>
    <g id="xtick_5">
     <g id="line2d_9">
      <path d="M 104.151095 138.0384 
L 104.151095 7.2 
" clip-path="url(#pc31abc2047)" style="fill: none; stroke-dasharray: 2.96,1.28; stroke-dashoffset: 0; stroke: #f2f2f2; stroke-width: 0.8"/>
     </g>
     <g id="line2d_10">
      <g>
       <use xlink:href="#m947ce157d4" x="104.151095" y="138.0384" style="stroke: #000000; stroke-width: 0.6"/>
      </g>
     </g>
    </g>
    <g id="xtick_6">
     <g id="line2d_11">
      <path d="M 117.356635 138.0384 
L 117.356635 7.2 
" clip-path="url(#pc31abc2047)" style="fill: none; stroke-dasharray: 2.96,1.28; stroke-dashoffset: 0; stroke: #f2f2f2; stroke-width: 0.8"/>
     </g>
     <g id="line2d_12">
      <g>
       <use xlink:href="#m947ce157d4" x="117.356635" y="138.0384" style="stroke: #000000; stroke-width: 0.6"/>
      </g>
     </g>
    </g>
    <g id="xtick_7">
     <g id="line2d_13">
      <path d="M 127.599648 138.0384 
L 127.599648 7.2 
" clip-path="url(#pc31abc2047)" style="fill: none; stroke-dasharray: 2.96,1.28; stroke-dashoffset: 0; stroke: #f2f2f2; stroke-width: 0.8"/>
     </g>
     <g id="line2d_14">
      <g>
       <use xlink:href="#m947ce157d4" x="127.599648" y="138.0384" style="stroke: #000000; stroke-width: 0.6"/>
      </g>
     </g>
    </g>
    <g id="xtick_8">
     <g id="line2d_15">
      <path d="M 135.968799 138.0384 
L 135.968799 7.2 
" clip-path="url(#pc31abc2047)" style="fill: none; stroke-dasharray: 2.96,1.28; stroke-dashoffset: 0; stroke: #f2f2f2; stroke-width: 0.8"/>
     </g>
     <g id="line2d_16">
      <g>
       <use xlink:href="#m947ce157d4" x="135.968799" y="138.0384" style="stroke: #000000; stroke-width: 0.6"/>
      </g>
     </g>
    </g>
    <g id="xtick_9">
     <g id="line2d_17">
      <path d="M 143.044815 138.0384 
L 143.044815 7.2 
" clip-path="url(#pc31abc2047)" style="fill: none; stroke-dasharray: 2.96,1.28; stroke-dashoffset: 0; stroke: #f2f2f2; stroke-width: 0.8"/>
     </g>
     <g id="line2d_18">
      <g>
       <use xlink:href="#m947ce157d4" x="143.044815" y="138.0384" style="stroke: #000000; stroke-width: 0.6"/>
      </g>
     </g>
    </g>
    <g id="xtick_10">
     <g id="line2d_19">
      <path d="M 149.174339 138.0384 
L 149.174339 7.2 
" clip-path="url(#pc31abc2047)" style="fill: none; stroke-dasharray: 2.96,1.28; stroke-dashoffset: 0; stroke: #f2f2f2; stroke-width: 0.8"/>
     </g>
     <g id="line2d_20">
      <g>
       <use xlink:href="#m947ce157d4" x="149.174339" y="138.0384" style="stroke: #000000; stroke-width: 0.6"/>
      </g>
     </g>
    </g>
    <g id="xtick_11">
     <g id="line2d_21">
      <path d="M 154.580963 138.0384 
L 154.580963 7.2 
" clip-path="url(#pc31abc2047)" style="fill: none; stroke-dasharray: 2.96,1.28; stroke-dashoffset: 0; stroke: #f2f2f2; stroke-width: 0.8"/>
     </g>
     <g id="line2d_22">
      <g>
       <use xlink:href="#m947ce157d4" x="154.580963" y="138.0384" style="stroke: #000000; stroke-width: 0.6"/>
      </g>
     </g>
    </g>
    <g id="xtick_12">
     <g id="line2d_23">
      <path d="M 191.235056 138.0384 
L 191.235056 7.2 
" clip-path="url(#pc31abc2047)" style="fill: none; stroke-dasharray: 2.96,1.28; stroke-dashoffset: 0; stroke: #f2f2f2; stroke-width: 0.8"/>
     </g>
     <g id="line2d_24">
      <g>
       <use xlink:href="#m947ce157d4" x="191.235056" y="138.0384" style="stroke: #000000; stroke-width: 0.6"/>
      </g>
     </g>
    </g>
    <g id="xtick_13">
     <g id="line2d_25">
      <path d="M 209.84722 138.0384 
L 209.84722 7.2 
" clip-path="url(#pc31abc2047)" style="fill: none; stroke-dasharray: 2.96,1.28; stroke-dashoffset: 0; stroke: #f2f2f2; stroke-width: 0.8"/>
     </g>
     <g id="line2d_26">
      <g>
       <use xlink:href="#m947ce157d4" x="209.84722" y="138.0384" style="stroke: #000000; stroke-width: 0.6"/>
      </g>
     </g>
    </g>
    <g id="xtick_14">
     <g id="line2d_27">
      <path d="M 223.05276 138.0384 
L 223.05276 7.2 
" clip-path="url(#pc31abc2047)" style="fill: none; stroke-dasharray: 2.96,1.28; stroke-dashoffset: 0; stroke: #f2f2f2; stroke-width: 0.8"/>
     </g>
     <g id="line2d_28">
      <g>
       <use xlink:href="#m947ce157d4" x="223.05276" y="138.0384" style="stroke: #000000; stroke-width: 0.6"/>
      </g>
     </g>
    </g>
    <g id="xtick_15">
     <g id="line2d_29">
      <path d="M 233.295773 138.0384 
L 233.295773 7.2 
" clip-path="url(#pc31abc2047)" style="fill: none; stroke-dasharray: 2.96,1.28; stroke-dashoffset: 0; stroke: #f2f2f2; stroke-width: 0.8"/>
     </g>
     <g id="line2d_30">
      <g>
       <use xlink:href="#m947ce157d4" x="233.295773" y="138.0384" style="stroke: #000000; stroke-width: 0.6"/>
      </g>
     </g>
    </g>
    <g id="xtick_16">
     <g id="line2d_31">
      <path d="M 241.664924 138.0384 
L 241.664924 7.2 
" clip-path="url(#pc31abc2047)" style="fill: none; stroke-dasharray: 2.96,1.28; stroke-dashoffset: 0; stroke: #f2f2f2; stroke-width: 0.8"/>
     </g>
     <g id="line2d_32">
      <g>
       <use xlink:href="#m947ce157d4" x="241.664924" y="138.0384" style="stroke: #000000; stroke-width: 0.6"/>
      </g>
     </g>
    </g>
    <g id="text_3">
     <!-- Period, T (s) -->
     <g transform="translate(119.576 162.85965) scale(0.08 -0.08)">
      <defs>
       <path id="DejaVuSans-50" d="M 1259 4147 
L 1259 2394 
L 2053 2394 
Q 2494 2394 2734 2622 
Q 2975 2850 2975 3272 
Q 2975 3691 2734 3919 
Q 2494 4147 2053 4147 
L 1259 4147 
z
M 628 4666 
L 2053 4666 
Q 2838 4666 3239 4311 
Q 3641 3956 3641 3272 
Q 3641 2581 3239 2228 
Q 2838 1875 2053 1875 
L 1259 1875 
L 1259 0 
L 628 0 
L 628 4666 
z
" transform="scale(0.015625)"/>
       <path id="DejaVuSans-65" d="M 3597 1894 
L 3597 1613 
L 953 1613 
Q 991 1019 1311 708 
Q 1631 397 2203 397 
Q 2534 397 2845 478 
Q 3156 559 3463 722 
L 3463 178 
Q 3153 47 2828 -22 
Q 2503 -91 2169 -91 
Q 1331 -91 842 396 
Q 353 884 353 1716 
Q 353 2575 817 3079 
Q 1281 3584 2069 3584 
Q 2775 3584 3186 3129 
Q 3597 2675 3597 1894 
z
M 3022 2063 
Q 3016 2534 2758 2815 
Q 2500 3097 2075 3097 
Q 1594 3097 1305 2825 
Q 1016 2553 972 2059 
L 3022 2063 
z
" transform="scale(0.015625)"/>
       <path id="DejaVuSans-72" d="M 2631 2963 
Q 2534 3019 2420 3045 
Q 2306 3072 2169 3072 
Q 1681 3072 1420 2755 
Q 1159 2438 1159 1844 
L 1159 0 
L 581 0 
L 581 3500 
L 1159 3500 
L 1159 2956 
Q 1341 3275 1631 3429 
Q 1922 3584 2338 3584 
Q 2397 3584 2469 3576 
Q 2541 3569 2628 3553 
L 2631 2963 
z
" transform="scale(0.015625)"/>
       <path id="DejaVuSans-69" d="M 603 3500 
L 1178 3500 
L 1178 0 
L 603 0 
L 603 3500 
z
M 603 4863 
L 1178 4863 
L 1178 4134 
L 603 4134 
L 603 4863 
z
" transform="scale(0.015625)"/>
       <path id="DejaVuSans-6f" d="M 1959 3097 
Q 1497 3097 1228 2736 
Q 959 2375 959 1747 
Q 959 1119 1226 758 
Q 1494 397 1959 397 
Q 2419 397 2687 759 
Q 2956 1122 2956 1747 
Q 2956 2369 2687 2733 
Q 2419 3097 1959 3097 
z
M 1959 3584 
Q 2709 3584 3137 3096 
Q 3566 2609 3566 1747 
Q 3566 888 3137 398 
Q 2709 -91 1959 -91 
Q 1206 -91 779 398 
Q 353 888 353 1747 
Q 353 2609 779 3096 
Q 1206 3584 1959 3584 
z
" transform="scale(0.015625)"/>
       <path id="DejaVuSans-64" d="M 2906 2969 
L 2906 4863 
L 3481 4863 
L 3481 0 
L 2906 0 
L 2906 525 
Q 2725 213 2448 61 
Q 2172 -91 1784 -91 
Q 1150 -91 751 415 
Q 353 922 353 1747 
Q 353 2572 751 3078 
Q 1150 3584 1784 3584 
Q 2172 3584 2448 3432 
Q 2725 3281 2906 2969 
z
M 947 1747 
Q 947 1113 1208 752 
Q 1469 391 1925 391 
Q 2381 391 2643 752 
Q 2906 1113 2906 1747 
Q 2906 2381 2643 2742 
Q 2381 3103 1925 3103 
Q 1469 3103 1208 2742 
Q 947 2381 947 1747 
z
" transform="scale(0.015625)"/>
       <path id="DejaVuSans-2c" d="M 750 794 
L 1409 794 
L 1409 256 
L 897 -744 
L 494 -744 
L 750 256 
L 750 794 
z
" transform="scale(0.015625)"/>
       <path id="DejaVuSans-20" transform="scale(0.015625)"/>
       <path id="DejaVuSans-54" d="M -19 4666 
L 3928 4666 
L 3928 4134 
L 2272 4134 
L 2272 0 
L 1638 0 
L 1638 4134 
L -19 4134 
L -19 4666 
z
" transform="scale(0.015625)"/>
       <path id="DejaVuSans-28" d="M 1984 4856 
Q 1566 4138 1362 3434 
Q 1159 2731 1159 2009 
Q 1159 1288 1364 580 
Q 1569 -128 1984 -844 
L 1484 -844 
Q 1016 -109 783 600 
Q 550 1309 550 2009 
Q 550 2706 781 3412 
Q 1013 4119 1484 4856 
L 1984 4856 
z
" transform="scale(0.015625)"/>
       <path id="DejaVuSans-73" d="M 2834 3397 
L 2834 2853 
Q 2591 2978 2328 3040 
Q 2066 3103 1784 3103 
Q 1356 3103 1142 2972 
Q 928 2841 928 2578 
Q 928 2378 1081 2264 
Q 1234 2150 1697 2047 
L 1894 2003 
Q 2506 1872 2764 1633 
Q 3022 1394 3022 966 
Q 3022 478 2636 193 
Q 2250 -91 1575 -91 
Q 1294 -91 989 -36 
Q 684 19 347 128 
L 347 722 
Q 666 556 975 473 
Q 1284 391 1588 391 
Q 1994 391 2212 530 
Q 2431 669 2431 922 
Q 2431 1156 2273 1281 
Q 2116 1406 1581 1522 
L 1381 1569 
Q 847 1681 609 1914 
Q 372 2147 372 2553 
Q 372 3047 722 3315 
Q 1072 3584 1716 3584 
Q 2034 3584 2315 3537 
Q 2597 3491 2834 3397 
z
" transform="scale(0.015625)"/>
       <path id="DejaVuSans-29" d="M 513 4856 
L 1013 4856 
Q 1481 4119 1714 3412 
Q 1947 2706 1947 2009 
Q 1947 1309 1714 600 
Q 1481 -109 1013 -844 
L 513 -844 
Q 928 -128 1133 580 
Q 1338 1288 1338 2009 
Q 1338 2731 1133 3434 
Q 928 4138 513 4856 
z
" transform="scale(0.015625)"/>
      </defs>
      <use xlink:href="#DejaVuSans-50"/>
      <use xlink:href="#DejaVuSans-65" x="56.677734"/>
      <use xlink:href="#DejaVuSans-72" x="118.201172"/>
      <use xlink:href="#DejaVuSans-69" x="159.314453"/>
      <use xlink:href="#DejaVuSans-6f" x="187.097656"/>
      <use xlink:href="#DejaVuSans-64" x="248.279297"/>
      <use xlink:href="#DejaVuSans-2c" x="311.755859"/>
      <use xlink:href="#DejaVuSans-20" x="343.542969"/>
      <use xlink:href="#DejaVuSans-54" x="375.330078"/>
      <use xlink:href="#DejaVuSans-20" x="436.414062"/>
      <use xlink:href="#DejaVuSans-28" x="468.201172"/>
      <use xlink:href="#DejaVuSans-73" x="507.214844"/>
      <use xlink:href="#DejaVuSans-29" x="559.314453"/>
     </g>
    </g>
   </g>
   <g id="matplotlib.axis_2">
    <g id="ytick_1">
     <g id="line2d_33">
      <path d="M 44.7425 86.075967 
L 242.2745 86.075967 
" clip-path="url(#pc31abc2047)" style="fill: none; stroke: #d9d9d9; stroke-width: 0.8; stroke-linecap: square"/>
     </g>
     <g id="line2d_34">
      <defs>
       <path id="m0d4c753424" d="M 0 0 
L -3.5 0 
" style="stroke: #000000; stroke-width: 0.8"/>
      </defs>
      <g>
       <use xlink:href="#m0d4c753424" x="44.7425" y="86.075967" style="stroke: #000000; stroke-width: 0.8"/>
      </g>
     </g>
     <g id="text_4">
      <!-- $\mathdefault{10^{-1}}$ -->
      <g transform="translate(18.9425 89.115342) scale(0.08 -0.08)">
       <use xlink:href="#DejaVuSans-31" transform="translate(0 0.684375)"/>
       <use xlink:href="#DejaVuSans-30" transform="translate(63.623047 0.684375)"/>
       <use xlink:href="#DejaVuSans-2212" transform="translate(128.203125 38.965625) scale(0.7)"/>
       <use xlink:href="#DejaVuSans-31" transform="translate(186.855469 38.965625) scale(0.7)"/>
      </g>
     </g>
    </g>
    <g id="ytick_2">
     <g id="line2d_35">
      <path d="M 44.7425 33.882121 
L 242.2745 33.882121 
" clip-path="url(#pc31abc2047)" style="fill: none; stroke: #d9d9d9; stroke-width: 0.8; stroke-linecap: square"/>
     </g>
     <g id="line2d_36">
      <g>
       <use xlink:href="#m0d4c753424" x="44.7425" y="33.882121" style="stroke: #000000; stroke-width: 0.8"/>
      </g>
     </g>
     <g id="text_5">
      <!-- $\mathdefault{10^{0}}$ -->
      <g transform="translate(23.6625 36.921496) scale(0.08 -0.08)">
       <use xlink:href="#DejaVuSans-31" transform="translate(0 0.765625)"/>
       <use xlink:href="#DejaVuSans-30" transform="translate(63.623047 0.765625)"/>
       <use xlink:href="#DejaVuSans-30" transform="translate(128.203125 39.046875) scale(0.7)"/>
      </g>
     </g>
    </g>
    <g id="ytick_3">
     <g id="line2d_37">
      <path d="M 44.7425 122.557899 
L 242.2745 122.557899 
" clip-path="url(#pc31abc2047)" style="fill: none; stroke-dasharray: 2.96,1.28; stroke-dashoffset: 0; stroke: #f2f2f2; stroke-width: 0.8"/>
     </g>
     <g id="line2d_38">
      <defs>
       <path id="mb122b19e69" d="M 0 0 
L -2 0 
" style="stroke: #000000; stroke-width: 0.6"/>
      </defs>
      <g>
       <use xlink:href="#mb122b19e69" x="44.7425" y="122.557899" style="stroke: #000000; stroke-width: 0.6"/>
      </g>
     </g>
    </g>
    <g id="ytick_4">
     <g id="line2d_39">
      <path d="M 44.7425 113.367019 
L 242.2745 113.367019 
" clip-path="url(#pc31abc2047)" style="fill: none; stroke-dasharray: 2.96,1.28; stroke-dashoffset: 0; stroke: #f2f2f2; stroke-width: 0.8"/>
     </g>
     <g id="line2d_40">
      <g>
       <use xlink:href="#mb122b19e69" x="44.7425" y="113.367019" style="stroke: #000000; stroke-width: 0.6"/>
      </g>
     </g>
    </g>
    <g id="ytick_5">
     <g id="line2d_41">
      <path d="M 44.7425 106.845986 
L 242.2745 106.845986 
" clip-path="url(#pc31abc2047)" style="fill: none; stroke-dasharray: 2.96,1.28; stroke-dashoffset: 0; stroke: #f2f2f2; stroke-width: 0.8"/>
     </g>
     <g id="line2d_42">
      <g>
       <use xlink:href="#mb122b19e69" x="44.7425" y="106.845986" style="stroke: #000000; stroke-width: 0.6"/>
      </g>
     </g>
    </g>
    <g id="ytick_6">
     <g id="line2d_43">
      <path d="M 44.7425 101.78788 
L 242.2745 101.78788 
" clip-path="url(#pc31abc2047)" style="fill: none; stroke-dasharray: 2.96,1.28; stroke-dashoffset: 0; stroke: #f2f2f2; stroke-width: 0.8"/>
     </g>
     <g id="line2d_44">
      <g>
       <use xlink:href="#mb122b19e69" x="44.7425" y="101.78788" style="stroke: #000000; stroke-width: 0.6"/>
      </g>
     </g>
    </g>
    <g id="ytick_7">
     <g id="line2d_45">
      <path d="M 44.7425 97.655106 
L 242.2745 97.655106 
" clip-path="url(#pc31abc2047)" style="fill: none; stroke-dasharray: 2.96,1.28; stroke-dashoffset: 0; stroke: #f2f2f2; stroke-width: 0.8"/>
     </g>
     <g id="line2d_46">
      <g>
       <use xlink:href="#mb122b19e69" x="44.7425" y="97.655106" style="stroke: #000000; stroke-width: 0.6"/>
      </g>
     </g>
    </g>
    <g id="ytick_8">
     <g id="line2d_47">
      <path d="M 44.7425 94.160896 
L 242.2745 94.160896 
" clip-path="url(#pc31abc2047)" style="fill: none; stroke-dasharray: 2.96,1.28; stroke-dashoffset: 0; stroke: #f2f2f2; stroke-width: 0.8"/>
     </g>
     <g id="line2d_48">
      <g>
       <use xlink:href="#mb122b19e69" x="44.7425" y="94.160896" style="stroke: #000000; stroke-width: 0.6"/>
      </g>
     </g>
    </g>
    <g id="ytick_9">
     <g id="line2d_49">
      <path d="M 44.7425 91.134073 
L 242.2745 91.134073 
" clip-path="url(#pc31abc2047)" style="fill: none; stroke-dasharray: 2.96,1.28; stroke-dashoffset: 0; stroke: #f2f2f2; stroke-width: 0.8"/>
     </g>
     <g id="line2d_50">
      <g>
       <use xlink:href="#mb122b19e69" x="44.7425" y="91.134073" style="stroke: #000000; stroke-width: 0.6"/>
      </g>
     </g>
    </g>
    <g id="ytick_10">
     <g id="line2d_51">
      <path d="M 44.7425 88.464226 
L 242.2745 88.464226 
" clip-path="url(#pc31abc2047)" style="fill: none; stroke-dasharray: 2.96,1.28; stroke-dashoffset: 0; stroke: #f2f2f2; stroke-width: 0.8"/>
     </g>
     <g id="line2d_52">
      <g>
       <use xlink:href="#mb122b19e69" x="44.7425" y="88.464226" style="stroke: #000000; stroke-width: 0.6"/>
      </g>
     </g>
    </g>
    <g id="ytick_11">
     <g id="line2d_53">
      <path d="M 44.7425 70.364054 
L 242.2745 70.364054 
" clip-path="url(#pc31abc2047)" style="fill: none; stroke-dasharray: 2.96,1.28; stroke-dashoffset: 0; stroke: #f2f2f2; stroke-width: 0.8"/>
     </g>
     <g id="line2d_54">
      <g>
       <use xlink:href="#mb122b19e69" x="44.7425" y="70.364054" style="stroke: #000000; stroke-width: 0.6"/>
      </g>
     </g>
    </g>
    <g id="ytick_12">
     <g id="line2d_55">
      <path d="M 44.7425 61.173174 
L 242.2745 61.173174 
" clip-path="url(#pc31abc2047)" style="fill: none; stroke-dasharray: 2.96,1.28; stroke-dashoffset: 0; stroke: #f2f2f2; stroke-width: 0.8"/>
     </g>
     <g id="line2d_56">
      <g>
       <use xlink:href="#mb122b19e69" x="44.7425" y="61.173174" style="stroke: #000000; stroke-width: 0.6"/>
      </g>
     </g>
    </g>
    <g id="ytick_13">
     <g id="line2d_57">
      <path d="M 44.7425 54.652141 
L 242.2745 54.652141 
" clip-path="url(#pc31abc2047)" style="fill: none; stroke-dasharray: 2.96,1.28; stroke-dashoffset: 0; stroke: #f2f2f2; stroke-width: 0.8"/>
     </g>
     <g id="line2d_58">
      <g>
       <use xlink:href="#mb122b19e69" x="44.7425" y="54.652141" style="stroke: #000000; stroke-width: 0.6"/>
      </g>
     </g>
    </g>
    <g id="ytick_14">
     <g id="line2d_59">
      <path d="M 44.7425 49.594034 
L 242.2745 49.594034 
" clip-path="url(#pc31abc2047)" style="fill: none; stroke-dasharray: 2.96,1.28; stroke-dashoffset: 0; stroke: #f2f2f2; stroke-width: 0.8"/>
     </g>
     <g id="line2d_60">
      <g>
       <use xlink:href="#mb122b19e69" x="44.7425" y="49.594034" style="stroke: #000000; stroke-width: 0.6"/>
      </g>
     </g>
    </g>
    <g id="ytick_15">
     <g id="line2d_61">
      <path d="M 44.7425 45.461261 
L 242.2745 45.461261 
" clip-path="url(#pc31abc2047)" style="fill: none; stroke-dasharray: 2.96,1.28; stroke-dashoffset: 0; stroke: #f2f2f2; stroke-width: 0.8"/>
     </g>
     <g id="line2d_62">
      <g>
       <use xlink:href="#mb122b19e69" x="44.7425" y="45.461261" style="stroke: #000000; stroke-width: 0.6"/>
      </g>
     </g>
    </g>
    <g id="ytick_16">
     <g id="line2d_63">
      <path d="M 44.7425 41.96705 
L 242.2745 41.96705 
" clip-path="url(#pc31abc2047)" style="fill: none; stroke-dasharray: 2.96,1.28; stroke-dashoffset: 0; stroke: #f2f2f2; stroke-width: 0.8"/>
     </g>
     <g id="line2d_64">
      <g>
       <use xlink:href="#mb122b19e69" x="44.7425" y="41.96705" style="stroke: #000000; stroke-width: 0.6"/>
      </g>
     </g>
    </g>
    <g id="ytick_17">
     <g id="line2d_65">
      <path d="M 44.7425 38.940227 
L 242.2745 38.940227 
" clip-path="url(#pc31abc2047)" style="fill: none; stroke-dasharray: 2.96,1.28; stroke-dashoffset: 0; stroke: #f2f2f2; stroke-width: 0.8"/>
     </g>
     <g id="line2d_66">
      <g>
       <use xlink:href="#mb122b19e69" x="44.7425" y="38.940227" style="stroke: #000000; stroke-width: 0.6"/>
      </g>
     </g>
    </g>
    <g id="ytick_18">
     <g id="line2d_67">
      <path d="M 44.7425 36.270381 
L 242.2745 36.270381 
" clip-path="url(#pc31abc2047)" style="fill: none; stroke-dasharray: 2.96,1.28; stroke-dashoffset: 0; stroke: #f2f2f2; stroke-width: 0.8"/>
     </g>
     <g id="line2d_68">
      <g>
       <use xlink:href="#mb122b19e69" x="44.7425" y="36.270381" style="stroke: #000000; stroke-width: 0.6"/>
      </g>
     </g>
    </g>
    <g id="ytick_19">
     <g id="line2d_69">
      <path d="M 44.7425 18.170208 
L 242.2745 18.170208 
" clip-path="url(#pc31abc2047)" style="fill: none; stroke-dasharray: 2.96,1.28; stroke-dashoffset: 0; stroke: #f2f2f2; stroke-width: 0.8"/>
     </g>
     <g id="line2d_70">
      <g>
       <use xlink:href="#mb122b19e69" x="44.7425" y="18.170208" style="stroke: #000000; stroke-width: 0.6"/>
      </g>
     </g>
    </g>
    <g id="ytick_20">
     <g id="line2d_71">
      <path d="M 44.7425 8.979328 
L 242.2745 8.979328 
" clip-path="url(#pc31abc2047)" style="fill: none; stroke-dasharray: 2.96,1.28; stroke-dashoffset: 0; stroke: #f2f2f2; stroke-width: 0.8"/>
     </g>
     <g id="line2d_72">
      <g>
       <use xlink:href="#mb122b19e69" x="44.7425" y="8.979328" style="stroke: #000000; stroke-width: 0.6"/>
      </g>
     </g>
    </g>
    <g id="text_6">
     <!-- Spectral acceleration, SA (g) -->
     <g transform="translate(13.27875 129.871075) rotate(-90) scale(0.08 -0.08)">
      <defs>
       <path id="DejaVuSans-53" d="M 3425 4513 
L 3425 3897 
Q 3066 4069 2747 4153 
Q 2428 4238 2131 4238 
Q 1616 4238 1336 4038 
Q 1056 3838 1056 3469 
Q 1056 3159 1242 3001 
Q 1428 2844 1947 2747 
L 2328 2669 
Q 3034 2534 3370 2195 
Q 3706 1856 3706 1288 
Q 3706 609 3251 259 
Q 2797 -91 1919 -91 
Q 1588 -91 1214 -16 
Q 841 59 441 206 
L 441 856 
Q 825 641 1194 531 
Q 1563 422 1919 422 
Q 2459 422 2753 634 
Q 3047 847 3047 1241 
Q 3047 1584 2836 1778 
Q 2625 1972 2144 2069 
L 1759 2144 
Q 1053 2284 737 2584 
Q 422 2884 422 3419 
Q 422 4038 858 4394 
Q 1294 4750 2059 4750 
Q 2388 4750 2728 4690 
Q 3069 4631 3425 4513 
z
" transform="scale(0.015625)"/>
       <path id="DejaVuSans-70" d="M 1159 525 
L 1159 -1331 
L 581 -1331 
L 581 3500 
L 1159 3500 
L 1159 2969 
Q 1341 3281 1617 3432 
Q 1894 3584 2278 3584 
Q 2916 3584 3314 3078 
Q 3713 2572 3713 1747 
Q 3713 922 3314 415 
Q 2916 -91 2278 -91 
Q 1894 -91 1617 61 
Q 1341 213 1159 525 
z
M 3116 1747 
Q 3116 2381 2855 2742 
Q 2594 3103 2138 3103 
Q 1681 3103 1420 2742 
Q 1159 2381 1159 1747 
Q 1159 1113 1420 752 
Q 1681 391 2138 391 
Q 2594 391 2855 752 
Q 3116 1113 3116 1747 
z
" transform="scale(0.015625)"/>
       <path id="DejaVuSans-63" d="M 3122 3366 
L 3122 2828 
Q 2878 2963 2633 3030 
Q 2388 3097 2138 3097 
Q 1578 3097 1268 2742 
Q 959 2388 959 1747 
Q 959 1106 1268 751 
Q 1578 397 2138 397 
Q 2388 397 2633 464 
Q 2878 531 3122 666 
L 3122 134 
Q 2881 22 2623 -34 
Q 2366 -91 2075 -91 
Q 1284 -91 818 406 
Q 353 903 353 1747 
Q 353 2603 823 3093 
Q 1294 3584 2113 3584 
Q 2378 3584 2631 3529 
Q 2884 3475 3122 3366 
z
" transform="scale(0.015625)"/>
       <path id="DejaVuSans-74" d="M 1172 4494 
L 1172 3500 
L 2356 3500 
L 2356 3053 
L 1172 3053 
L 1172 1153 
Q 1172 725 1289 603 
Q 1406 481 1766 481 
L 2356 481 
L 2356 0 
L 1766 0 
Q 1100 0 847 248 
Q 594 497 594 1153 
L 594 3053 
L 172 3053 
L 172 3500 
L 594 3500 
L 594 4494 
L 1172 4494 
z
" transform="scale(0.015625)"/>
       <path id="DejaVuSans-61" d="M 2194 1759 
Q 1497 1759 1228 1600 
Q 959 1441 959 1056 
Q 959 750 1161 570 
Q 1363 391 1709 391 
Q 2188 391 2477 730 
Q 2766 1069 2766 1631 
L 2766 1759 
L 2194 1759 
z
M 3341 1997 
L 3341 0 
L 2766 0 
L 2766 531 
Q 2569 213 2275 61 
Q 1981 -91 1556 -91 
Q 1019 -91 701 211 
Q 384 513 384 1019 
Q 384 1609 779 1909 
Q 1175 2209 1959 2209 
L 2766 2209 
L 2766 2266 
Q 2766 2663 2505 2880 
Q 2244 3097 1772 3097 
Q 1472 3097 1187 3025 
Q 903 2953 641 2809 
L 641 3341 
Q 956 3463 1253 3523 
Q 1550 3584 1831 3584 
Q 2591 3584 2966 3190 
Q 3341 2797 3341 1997 
z
" transform="scale(0.015625)"/>
       <path id="DejaVuSans-6c" d="M 603 4863 
L 1178 4863 
L 1178 0 
L 603 0 
L 603 4863 
z
" transform="scale(0.015625)"/>
       <path id="DejaVuSans-6e" d="M 3513 2113 
L 3513 0 
L 2938 0 
L 2938 2094 
Q 2938 2591 2744 2837 
Q 2550 3084 2163 3084 
Q 1697 3084 1428 2787 
Q 1159 2491 1159 1978 
L 1159 0 
L 581 0 
L 581 3500 
L 1159 3500 
L 1159 2956 
Q 1366 3272 1645 3428 
Q 1925 3584 2291 3584 
Q 2894 3584 3203 3211 
Q 3513 2838 3513 2113 
z
" transform="scale(0.015625)"/>
       <path id="DejaVuSans-41" d="M 2188 4044 
L 1331 1722 
L 3047 1722 
L 2188 4044 
z
M 1831 4666 
L 2547 4666 
L 4325 0 
L 3669 0 
L 3244 1197 
L 1141 1197 
L 716 0 
L 50 0 
L 1831 4666 
z
" transform="scale(0.015625)"/>
       <path id="DejaVuSans-67" d="M 2906 1791 
Q 2906 2416 2648 2759 
Q 2391 3103 1925 3103 
Q 1463 3103 1205 2759 
Q 947 2416 947 1791 
Q 947 1169 1205 825 
Q 1463 481 1925 481 
Q 2391 481 2648 825 
Q 2906 1169 2906 1791 
z
M 3481 434 
Q 3481 -459 3084 -895 
Q 2688 -1331 1869 -1331 
Q 1566 -1331 1297 -1286 
Q 1028 -1241 775 -1147 
L 775 -588 
Q 1028 -725 1275 -790 
Q 1522 -856 1778 -856 
Q 2344 -856 2625 -561 
Q 2906 -266 2906 331 
L 2906 616 
Q 2728 306 2450 153 
Q 2172 0 1784 0 
Q 1141 0 747 490 
Q 353 981 353 1791 
Q 353 2603 747 3093 
Q 1141 3584 1784 3584 
Q 2172 3584 2450 3431 
Q 2728 3278 2906 2969 
L 2906 3500 
L 3481 3500 
L 3481 434 
z
" transform="scale(0.015625)"/>
      </defs>
      <use xlink:href="#DejaVuSans-53"/>
      <use xlink:href="#DejaVuSans-70" x="63.476562"/>
      <use xlink:href="#DejaVuSans-65" x="126.953125"/>
      <use xlink:href="#DejaVuSans-63" x="188.476562"/>
      <use xlink:href="#DejaVuSans-74" x="243.457031"/>
      <use xlink:href="#DejaVuSans-72" x="282.666016"/>
      <use xlink:href="#DejaVuSans-61" x="323.779297"/>
      <use xlink:href="#DejaVuSans-6c" x="385.058594"/>
      <use xlink:href="#DejaVuSans-20" x="412.841797"/>
      <use xlink:href="#DejaVuSans-61" x="444.628906"/>
      <use xlink:href="#DejaVuSans-63" x="505.908203"/>
      <use xlink:href="#DejaVuSans-63" x="560.888672"/>
      <use xlink:href="#DejaVuSans-65" x="615.869141"/>
      <use xlink:href="#DejaVuSans-6c" x="677.392578"/>
      <use xlink:href="#DejaVuSans-65" x="705.175781"/>
      <use xlink:href="#DejaVuSans-72" x="766.699219"/>
      <use xlink:href="#DejaVuSans-61" x="807.8125"/>
      <use xlink:href="#DejaVuSans-74" x="869.091797"/>
      <use xlink:href="#DejaVuSans-69" x="908.300781"/>
      <use xlink:href="#DejaVuSans-6f" x="936.083984"/>
      <use xlink:href="#DejaVuSans-6e" x="997.265625"/>
      <use xlink:href="#DejaVuSans-2c" x="1060.644531"/>
      <use xlink:href="#DejaVuSans-20" x="1092.431641"/>
      <use xlink:href="#DejaVuSans-53" x="1124.21875"/>
      <use xlink:href="#DejaVuSans-41" x="1189.570312"/>
      <use xlink:href="#DejaVuSans-20" x="1257.978516"/>
      <use xlink:href="#DejaVuSans-28" x="1289.765625"/>
      <use xlink:href="#DejaVuSans-67" x="1328.779297"/>
      <use xlink:href="#DejaVuSans-29" x="1392.255859"/>
     </g>
    </g>
   </g>
   <g id="line2d_73">
    <path d="M 53.721227 44.2033 
L 72.333391 36.703067 
L 85.538931 34.168384 
L 95.781944 24.634813 
L 104.151095 24.977145 
L 117.356635 26.151983 
L 127.599648 38.547553 
L 146.211812 74.590883 
L 159.417352 78.511324 
L 171.460723 84.136804 
L 178.029516 90.503119 
L 191.235056 86.803215 
L 209.84722 79.828804 
L 223.05276 90.35561 
L 233.295773 91.317718 
" clip-path="url(#pc31abc2047)" style="fill: none; stroke: #b2b2b2; stroke-width: 0.8; stroke-linecap: square"/>
   </g>
   <g id="line2d_74">
    <path d="M 53.721227 55.222446 
L 72.333391 51.183314 
L 85.538931 62.722429 
L 95.781944 73.148789 
L 104.151095 82.831105 
L 117.356635 70.366718 
L 127.599648 83.554184 
L 146.211812 87.178958 
L 159.417352 86.947771 
L 171.460723 92.105463 
L 178.029516 88.186514 
L 191.235056 86.595818 
L 209.84722 79.993677 
L 223.05276 92.888158 
L 233.295773 95.262149 
" clip-path="url(#pc31abc2047)" style="fill: none; stroke: #b2b2b2; stroke-width: 0.8; stroke-linecap: square"/>
   </g>
   <g id="line2d_75">
    <path d="M 53.721227 46.560928 
L 72.333391 43.589352 
L 85.538931 40.788351 
L 95.781944 41.964017 
L 104.151095 42.057123 
L 117.356635 58.257955 
L 127.599648 64.514428 
L 146.211812 73.097647 
L 159.417352 76.330417 
L 171.460723 67.204484 
L 178.029516 81.298066 
L 191.235056 91.023033 
L 209.84722 107.948508 
L 223.05276 104.782775 
L 233.295773 105.939202 
" clip-path="url(#pc31abc2047)" style="fill: none; stroke: #b2b2b2; stroke-width: 0.8; stroke-linecap: square"/>
   </g>
   <g id="line2d_76">
    <path d="M 53.721227 43.016792 
L 72.333391 26.676231 
L 85.538931 35.251421 
L 95.781944 39.346189 
L 104.151095 39.731909 
L 117.356635 60.153953 
L 127.599648 57.729647 
L 146.211812 75.275273 
L 159.417352 91.958795 
L 171.460723 89.144289 
L 178.029516 77.419409 
L 191.235056 79.038656 
L 209.84722 89.622641 
L 223.05276 102.997363 
L 233.295773 100.264029 
" clip-path="url(#pc31abc2047)" style="fill: none; stroke: #b2b2b2; stroke-width: 0.8; stroke-linecap: square"/>
   </g>
   <g id="line2d_77">
    <path d="M 53.721227 49.736433 
L 72.333391 40.193737 
L 85.538931 46.150767 
L 95.781944 48.517338 
L 104.151095 58.224453 
L 117.356635 66.815828 
L 127.599648 65.899854 
L 146.211812 67.837916 
L 159.417352 80.258084 
L 171.460723 82.166182 
L 178.029516 80.176138 
L 191.235056 82.701758 
L 209.84722 88.128495 
L 223.05276 101.943706 
L 233.295773 113.405176 
" clip-path="url(#pc31abc2047)" style="fill: none; stroke: #b2b2b2; stroke-width: 0.8; stroke-linecap: square"/>
   </g>
   <g id="line2d_78">
    <path d="M 53.721227 41.02165 
L 72.333391 38.040409 
L 85.538931 41.764814 
L 95.781944 40.47857 
L 104.151095 42.562173 
L 117.356635 51.962013 
L 127.599648 62.861188 
L 146.211812 70.78233 
L 159.417352 71.192921 
L 171.460723 92.239938 
L 178.029516 86.754022 
L 191.235056 84.068088 
L 209.84722 88.052363 
L 223.05276 88.844913 
L 233.295773 100.050283 
" clip-path="url(#pc31abc2047)" style="fill: none; stroke: #b2b2b2; stroke-width: 0.8; stroke-linecap: square"/>
   </g>
   <g id="line2d_79">
    <path d="M 53.721227 44.326562 
L 72.333391 33.921429 
L 85.538931 28.396664 
L 95.781944 45.666797 
L 104.151095 64.44575 
L 117.356635 68.522255 
L 127.599648 71.152903 
L 146.211812 75.683049 
L 159.417352 81.514393 
L 171.460723 81.050832 
L 178.029516 73.746839 
L 191.235056 81.374156 
L 209.84722 110.757753 
L 223.05276 115.874369 
L 233.295773 125.7055 
" clip-path="url(#pc31abc2047)" style="fill: none; stroke: #b2b2b2; stroke-width: 0.8; stroke-linecap: square"/>
   </g>
   <g id="line2d_80">
    <path d="M 53.721227 59.330573 
L 72.333391 57.476568 
L 85.538931 59.086758 
L 95.781944 62.664702 
L 104.151095 53.764951 
L 117.356635 62.528195 
L 127.599648 60.057751 
L 146.211812 62.292336 
L 159.417352 68.456257 
L 171.460723 73.875328 
L 178.029516 81.487757 
L 191.235056 85.807508 
L 209.84722 110.397133 
L 223.05276 98.747399 
L 233.295773 97.1438 
" clip-path="url(#pc31abc2047)" style="fill: none; stroke: #b2b2b2; stroke-width: 0.8; stroke-linecap: square"/>
   </g>
   <g id="line2d_81">
    <path d="M 53.721227 51.171759 
L 72.333391 45.07623 
L 85.538931 51.683292 
L 95.781944 51.181213 
L 104.151095 65.55757 
L 117.356635 71.251536 
L 127.599648 67.544489 
L 146.211812 77.628875 
L 159.417352 79.218852 
L 171.460723 78.975642 
L 178.029516 87.388358 
L 191.235056 90.315713 
L 209.84722 85.664214 
L 223.05276 101.577262 
L 233.295773 103.64379 
" clip-path="url(#pc31abc2047)" style="fill: none; stroke: #b2b2b2; stroke-width: 0.8; stroke-linecap: square"/>
   </g>
   <g id="line2d_82">
    <path d="M 53.721227 61.621235 
L 72.333391 60.647015 
L 85.538931 60.851597 
L 95.781944 65.174216 
L 104.151095 65.055041 
L 117.356635 63.391622 
L 127.599648 58.706821 
L 146.211812 69.246514 
L 159.417352 80.075572 
L 171.460723 71.868444 
L 178.029516 71.402716 
L 191.235056 86.370659 
L 209.84722 101.905303 
L 223.05276 105.946317 
L 233.295773 109.610297 
" clip-path="url(#pc31abc2047)" style="fill: none; stroke: #b2b2b2; stroke-width: 0.8; stroke-linecap: square"/>
   </g>
   <g id="line2d_83">
    <path d="M 53.721227 55.073585 
L 72.333391 50.153257 
L 85.538931 52.439899 
L 95.781944 57.490905 
L 104.151095 52.621476 
L 117.356635 59.835748 
L 127.599648 61.216938 
L 146.211812 72.044385 
L 159.417352 73.912555 
L 171.460723 86.183169 
L 178.029516 77.863874 
L 191.235056 78.458913 
L 209.84722 92.487425 
L 223.05276 114.609547 
L 233.295773 116.876042 
" clip-path="url(#pc31abc2047)" style="fill: none; stroke: #b2b2b2; stroke-width: 0.8; stroke-linecap: square"/>
   </g>
   <g id="line2d_84">
    <path d="M 53.721227 38.01648 
L 72.333391 43.441891 
L 85.538931 46.214879 
L 95.781944 40.473408 
L 104.151095 38.217687 
L 117.356635 39.868271 
L 127.599648 43.880886 
L 146.211812 57.877881 
L 159.417352 68.059369 
L 171.460723 78.806303 
L 178.029516 83.547727 
L 191.235056 85.020678 
L 209.84722 94.955893 
L 223.05276 87.927428 
L 233.295773 91.746415 
" clip-path="url(#pc31abc2047)" style="fill: none; stroke: #b2b2b2; stroke-width: 0.8; stroke-linecap: square"/>
   </g>
   <g id="line2d_85">
    <path d="M 53.721227 46.388696 
L 72.333391 33.248701 
L 85.538931 35.21879 
L 95.781944 45.705328 
L 104.151095 41.047523 
L 117.356635 59.915244 
L 127.599648 63.858482 
L 146.211812 81.50949 
L 159.417352 77.043362 
L 171.460723 84.889301 
L 178.029516 83.146238 
L 191.235056 81.609009 
L 209.84722 89.009714 
L 223.05276 102.64325 
L 233.295773 103.53222 
" clip-path="url(#pc31abc2047)" style="fill: none; stroke: #b2b2b2; stroke-width: 0.8; stroke-linecap: square"/>
   </g>
   <g id="line2d_86">
    <path d="M 53.721227 50.51479 
L 72.333391 53.072665 
L 85.538931 58.115959 
L 95.781944 50.746919 
L 104.151095 52.557595 
L 117.356635 47.283827 
L 127.599648 63.452642 
L 146.211812 64.996296 
L 159.417352 70.681934 
L 171.460723 81.095817 
L 178.029516 76.00511 
L 191.235056 88.032738 
L 209.84722 100.260177 
L 223.05276 105.952385 
L 233.295773 105.080421 
" clip-path="url(#pc31abc2047)" style="fill: none; stroke: #b2b2b2; stroke-width: 0.8; stroke-linecap: square"/>
   </g>
   <g id="line2d_87">
    <path d="M 53.721227 92.305973 
L 72.333391 92.72177 
L 85.538931 82.053981 
L 95.781944 83.994984 
L 104.151095 76.087937 
L 117.356635 77.364256 
L 127.599648 81.658226 
L 146.211812 80.578177 
L 159.417352 81.152499 
L 171.460723 78.901423 
L 178.029516 78.328281 
L 191.235056 76.379285 
L 209.84722 86.344877 
L 223.05276 88.065689 
L 233.295773 109.38489 
" clip-path="url(#pc31abc2047)" style="fill: none; stroke: #b2b2b2; stroke-width: 0.8; stroke-linecap: square"/>
   </g>
   <g id="line2d_88">
    <path d="M 53.721227 49.121989 
L 72.333391 29.267479 
L 85.538931 40.582632 
L 95.781944 38.221838 
L 104.151095 39.826586 
L 117.356635 51.000239 
L 127.599648 56.197387 
L 146.211812 69.855556 
L 159.417352 72.751913 
L 171.460723 76.972427 
L 178.029516 82.271413 
L 191.235056 91.334863 
L 209.84722 112.675517 
L 223.05276 106.985474 
L 233.295773 104.810597 
" clip-path="url(#pc31abc2047)" style="fill: none; stroke: #b2b2b2; stroke-width: 0.8; stroke-linecap: square"/>
   </g>
   <g id="line2d_89">
    <path d="M 53.721227 53.986358 
L 72.333391 51.684973 
L 85.538931 44.889228 
L 95.781944 47.173581 
L 104.151095 52.811389 
L 117.356635 57.521714 
L 127.599648 57.042247 
L 146.211812 76.230404 
L 159.417352 77.825987 
L 171.460723 70.511281 
L 178.029516 80.253897 
L 191.235056 96.995294 
L 209.84722 85.291258 
L 223.05276 92.747855 
L 233.295773 113.712648 
" clip-path="url(#pc31abc2047)" style="fill: none; stroke: #b2b2b2; stroke-width: 0.8; stroke-linecap: square"/>
   </g>
   <g id="line2d_90">
    <path d="M 53.721227 48.117029 
L 72.333391 31.277195 
L 85.538931 29.789532 
L 95.781944 42.797303 
L 104.151095 41.263484 
L 117.356635 34.269061 
L 127.599648 50.209218 
L 146.211812 64.508068 
L 159.417352 72.602276 
L 171.460723 79.663775 
L 178.029516 91.252557 
L 191.235056 92.151619 
L 209.84722 96.946882 
L 223.05276 98.63327 
L 233.295773 103.63886 
" clip-path="url(#pc31abc2047)" style="fill: none; stroke: #b2b2b2; stroke-width: 0.8; stroke-linecap: square"/>
   </g>
   <g id="line2d_91">
    <path d="M 53.721227 45.888306 
L 72.333391 51.320443 
L 85.538931 61.819412 
L 95.781944 62.155714 
L 104.151095 65.607873 
L 117.356635 71.439859 
L 127.599648 75.900848 
L 146.211812 71.365439 
L 159.417352 72.87756 
L 171.460723 74.772155 
L 178.029516 74.555888 
L 191.235056 89.423888 
L 209.84722 90.703189 
L 223.05276 114.202049 
L 233.295773 131.104232 
" clip-path="url(#pc31abc2047)" style="fill: none; stroke: #b2b2b2; stroke-width: 0.8; stroke-linecap: square"/>
   </g>
   <g id="line2d_92">
    <path d="M 53.721227 58.161474 
L 72.333391 62.531001 
L 85.538931 62.503748 
L 95.781944 54.551967 
L 104.151095 66.833081 
L 117.356635 69.747872 
L 127.599648 65.332558 
L 146.211812 59.494746 
L 159.417352 81.667532 
L 171.460723 86.315632 
L 178.029516 91.662438 
L 191.235056 81.822676 
L 209.84722 87.414438 
L 223.05276 105.11088 
L 233.295773 115.566784 
" clip-path="url(#pc31abc2047)" style="fill: none; stroke: #b2b2b2; stroke-width: 0.8; stroke-linecap: square"/>
   </g>
   <g id="line2d_93">
    <path d="M 53.721227 34.05709 
L 72.333391 28.241768 
L 85.538931 26.696015 
L 95.781944 30.027692 
L 104.151095 37.35661 
L 117.356635 51.755151 
L 127.599648 58.00327 
L 146.211812 60.270051 
L 159.417352 71.467275 
L 171.460723 84.215649 
L 178.029516 88.651416 
L 191.235056 83.641066 
L 209.84722 106.600405 
L 223.05276 114.331364 
L 233.295773 101.389939 
" clip-path="url(#pc31abc2047)" style="fill: none; stroke: #b2b2b2; stroke-width: 0.8; stroke-linecap: square"/>
   </g>
   <g id="line2d_94">
    <path d="M 53.721227 55.750782 
L 72.333391 51.752319 
L 85.538931 62.238988 
L 95.781944 71.067924 
L 104.151095 65.833258 
L 117.356635 65.669974 
L 127.599648 72.312289 
L 146.211812 74.765412 
L 159.417352 81.370617 
L 171.460723 76.890661 
L 178.029516 84.007683 
L 191.235056 83.120683 
L 209.84722 85.79586 
L 223.05276 88.070452 
L 233.295773 107.850224 
" clip-path="url(#pc31abc2047)" style="fill: none; stroke: #b2b2b2; stroke-width: 0.8; stroke-linecap: square"/>
   </g>
   <g id="line2d_95">
    <path d="M 53.721227 52.053404 
L 72.333391 47.643957 
L 85.538931 40.75244 
L 95.781944 39.803066 
L 104.151095 40.982562 
L 117.356635 45.51809 
L 127.599648 42.707395 
L 146.211812 69.693143 
L 159.417352 73.0407 
L 171.460723 84.226896 
L 178.029516 83.149529 
L 191.235056 86.36948 
L 209.84722 85.151688 
L 223.05276 103.010703 
L 233.295773 115.029649 
" clip-path="url(#pc31abc2047)" style="fill: none; stroke: #b2b2b2; stroke-width: 0.8; stroke-linecap: square"/>
   </g>
   <g id="line2d_96">
    <path d="M 53.721227 55.361889 
L 72.333391 51.364812 
L 85.538931 44.509889 
L 95.781944 45.740534 
L 104.151095 50.850534 
L 117.356635 56.131136 
L 127.599648 54.042165 
L 146.211812 73.953597 
L 159.417352 80.847006 
L 171.460723 78.138588 
L 178.029516 82.784547 
L 191.235056 77.180541 
L 209.84722 108.769759 
L 223.05276 99.408891 
L 233.295773 108.296575 
" clip-path="url(#pc31abc2047)" style="fill: none; stroke: #b2b2b2; stroke-width: 0.8; stroke-linecap: square"/>
   </g>
   <g id="line2d_97">
    <path d="M 53.721227 49.774227 
L 72.333391 56.645387 
L 85.538931 58.313047 
L 95.781944 55.304597 
L 104.151095 62.001283 
L 117.356635 71.566154 
L 127.599648 75.236395 
L 146.211812 70.944786 
L 159.417352 80.658657 
L 171.460723 76.744119 
L 178.029516 80.010216 
L 191.235056 89.278243 
L 209.84722 89.425291 
L 223.05276 90.156308 
L 233.295773 96.513616 
" clip-path="url(#pc31abc2047)" style="fill: none; stroke: #b2b2b2; stroke-width: 0.8; stroke-linecap: square"/>
   </g>
   <g id="line2d_98">
    <path d="M 53.721227 50.237393 
L 72.333391 51.259848 
L 85.538931 54.336617 
L 95.781944 59.329818 
L 104.151095 61.060487 
L 117.356635 58.551994 
L 127.599648 66.723677 
L 146.211812 56.082759 
L 159.417352 77.304757 
L 171.460723 85.518283 
L 178.029516 89.358122 
L 191.235056 87.478502 
L 209.84722 90.966282 
L 223.05276 95.227738 
L 233.295773 107.566209 
" clip-path="url(#pc31abc2047)" style="fill: none; stroke: #b2b2b2; stroke-width: 0.8; stroke-linecap: square"/>
   </g>
   <g id="line2d_99">
    <path d="M 53.721227 65.689038 
L 72.333391 73.682274 
L 85.538931 63.711496 
L 95.781944 67.316505 
L 104.151095 66.446843 
L 117.356635 64.085875 
L 127.599648 65.200164 
L 146.211812 72.07937 
L 159.417352 78.275529 
L 171.460723 78.897675 
L 178.029516 77.733501 
L 191.235056 83.422572 
L 209.84722 95.631546 
L 223.05276 89.627394 
L 233.295773 102.331957 
" clip-path="url(#pc31abc2047)" style="fill: none; stroke: #b2b2b2; stroke-width: 0.8; stroke-linecap: square"/>
   </g>
   <g id="line2d_100">
    <path d="M 53.721227 55.16128 
L 72.333391 51.515599 
L 85.538931 49.268745 
L 95.781944 39.928889 
L 104.151095 47.461167 
L 117.356635 58.89069 
L 127.599648 66.192377 
L 146.211812 72.799872 
L 159.417352 76.077228 
L 171.460723 82.717817 
L 178.029516 84.93282 
L 191.235056 92.480691 
L 209.84722 92.811562 
L 223.05276 94.406618 
L 233.295773 87.109912 
" clip-path="url(#pc31abc2047)" style="fill: none; stroke: #b2b2b2; stroke-width: 0.8; stroke-linecap: square"/>
   </g>
   <g id="line2d_101">
    <path d="M 53.721227 49.981102 
L 72.333391 53.151166 
L 85.538931 52.32994 
L 95.781944 42.727081 
L 104.151095 49.24177 
L 117.356635 54.181054 
L 127.599648 54.68381 
L 146.211812 62.918446 
L 159.417352 74.875619 
L 171.460723 83.228383 
L 178.029516 82.53211 
L 191.235056 82.840113 
L 209.84722 94.105412 
L 223.05276 113.630015 
L 233.295773 126.549082 
" clip-path="url(#pc31abc2047)" style="fill: none; stroke: #b2b2b2; stroke-width: 0.8; stroke-linecap: square"/>
   </g>
   <g id="line2d_102">
    <path d="M 53.721227 57.560203 
L 72.333391 45.055205 
L 85.538931 40.658437 
L 95.781944 33.890107 
L 104.151095 31.427695 
L 117.356635 47.275405 
L 127.599648 49.208448 
L 146.211812 67.866366 
L 159.417352 70.778239 
L 171.460723 76.187372 
L 178.029516 78.242176 
L 191.235056 98.003232 
L 209.84722 97.380374 
L 223.05276 104.879766 
L 233.295773 106.214019 
" clip-path="url(#pc31abc2047)" style="fill: none; stroke: #b2b2b2; stroke-width: 0.8; stroke-linecap: square"/>
   </g>
   <g id="line2d_103">
    <path d="M 53.721227 49.392193 
L 72.333391 46.507234 
L 85.538931 45.224843 
L 95.781944 39.136348 
L 104.151095 47.696292 
L 117.356635 57.327948 
L 127.599648 66.485596 
L 146.211812 76.34222 
L 159.417352 78.499151 
L 171.460723 82.552343 
L 178.029516 82.270494 
L 191.235056 82.781883 
L 209.84722 91.92667 
L 223.05276 87.249752 
L 233.295773 98.577766 
" clip-path="url(#pc31abc2047)" style="fill: none; stroke: #b2b2b2; stroke-width: 0.8; stroke-linecap: square"/>
   </g>
   <g id="line2d_104">
    <path d="M 53.721227 45.143754 
L 72.333391 41.983874 
L 85.538931 40.901812 
L 95.781944 44.076006 
L 104.151095 50.976795 
L 117.356635 38.922617 
L 127.599648 48.908012 
L 146.211812 59.5006 
L 159.417352 65.222016 
L 171.460723 77.50184 
L 178.029516 81.967721 
L 191.235056 90.065088 
L 209.84722 105.101038 
L 223.05276 119.240344 
L 233.295773 132.0912 
" clip-path="url(#pc31abc2047)" style="fill: none; stroke: #b2b2b2; stroke-width: 0.8; stroke-linecap: square"/>
   </g>
   <g id="line2d_105">
    <path d="M 53.721227 67.507998 
L 72.333391 54.580618 
L 85.538931 51.66589 
L 95.781944 48.83961 
L 104.151095 40.702362 
L 117.356635 61.869073 
L 127.599648 68.042156 
L 146.211812 72.828436 
L 159.417352 72.978119 
L 171.460723 76.728813 
L 178.029516 76.511128 
L 191.235056 81.791214 
L 209.84722 89.526929 
L 223.05276 97.388614 
L 233.295773 104.453893 
" clip-path="url(#pc31abc2047)" style="fill: none; stroke: #b2b2b2; stroke-width: 0.8; stroke-linecap: square"/>
   </g>
   <g id="line2d_106">
    <path d="M 53.721227 56.517209 
L 72.333391 58.19764 
L 85.538931 45.678348 
L 95.781944 59.384519 
L 104.151095 61.989041 
L 117.356635 55.79842 
L 127.599648 53.979006 
L 146.211812 78.619076 
L 159.417352 74.475567 
L 171.460723 82.875151 
L 178.029516 87.395253 
L 191.235056 87.706291 
L 209.84722 93.518901 
L 223.05276 98.633699 
L 233.295773 107.053041 
" clip-path="url(#pc31abc2047)" style="fill: none; stroke: #b2b2b2; stroke-width: 0.8; stroke-linecap: square"/>
   </g>
   <g id="line2d_107">
    <path d="M 53.721227 59.612449 
L 72.333391 61.926809 
L 85.538931 58.777716 
L 95.781944 59.216974 
L 104.151095 60.655792 
L 117.356635 68.34619 
L 127.599648 73.74059 
L 146.211812 84.010964 
L 159.417352 80.504479 
L 171.460723 77.218638 
L 178.029516 73.403116 
L 191.235056 86.385899 
L 209.84722 97.137583 
L 223.05276 101.426722 
L 233.295773 112.858813 
" clip-path="url(#pc31abc2047)" style="fill: none; stroke: #b2b2b2; stroke-width: 0.8; stroke-linecap: square"/>
   </g>
   <g id="line2d_108">
    <path d="M 53.721227 77.758311 
L 72.333391 61.88232 
L 85.538931 51.352045 
L 95.781944 59.257017 
L 104.151095 69.42739 
L 117.356635 76.419887 
L 127.599648 67.377757 
L 146.211812 80.369116 
L 159.417352 73.059448 
L 171.460723 74.367062 
L 178.029516 83.569988 
L 191.235056 86.678724 
L 209.84722 98.18287 
L 223.05276 92.911096 
L 233.295773 94.394123 
" clip-path="url(#pc31abc2047)" style="fill: none; stroke: #b2b2b2; stroke-width: 0.8; stroke-linecap: square"/>
   </g>
   <g id="line2d_109">
    <path d="M 53.721227 46.198172 
L 72.333391 35.472055 
L 85.538931 30.925064 
L 95.781944 44.750646 
L 104.151095 42.562643 
L 117.356635 43.62831 
L 127.599648 48.220767 
L 146.211812 69.793669 
L 159.417352 70.553413 
L 171.460723 76.173645 
L 178.029516 84.181867 
L 191.235056 92.366373 
L 209.84722 104.646525 
L 223.05276 103.142576 
L 233.295773 107.853149 
" clip-path="url(#pc31abc2047)" style="fill: none; stroke: #b2b2b2; stroke-width: 0.8; stroke-linecap: square"/>
   </g>
   <g id="line2d_110">
    <path d="M 53.721227 59.303891 
L 72.333391 53.106881 
L 85.538931 53.989427 
L 95.781944 56.414857 
L 104.151095 52.33941 
L 117.356635 61.757909 
L 127.599648 63.203622 
L 146.211812 62.50008 
L 159.417352 72.020703 
L 171.460723 83.969716 
L 178.029516 87.355548 
L 191.235056 104.184529 
L 209.84722 97.024009 
L 223.05276 95.538571 
L 233.295773 106.406488 
" clip-path="url(#pc31abc2047)" style="fill: none; stroke: #b2b2b2; stroke-width: 0.8; stroke-linecap: square"/>
   </g>
   <g id="line2d_111">
    <path d="M 53.721227 25.203559 
L 72.333391 29.723249 
L 85.538931 32.458477 
L 95.781944 31.652249 
L 104.151095 35.696162 
L 117.356635 47.006122 
L 127.599648 65.737826 
L 146.211812 67.028206 
L 159.417352 74.569601 
L 171.460723 82.191634 
L 178.029516 83.254899 
L 191.235056 95.066551 
L 209.84722 111.010688 
L 223.05276 102.699561 
L 233.295773 118.614819 
" clip-path="url(#pc31abc2047)" style="fill: none; stroke: #b2b2b2; stroke-width: 0.8; stroke-linecap: square"/>
   </g>
   <g id="line2d_112">
    <path d="M 53.721227 75.058401 
L 72.333391 71.359904 
L 85.538931 61.523048 
L 95.781944 67.213875 
L 104.151095 62.3085 
L 117.356635 57.819416 
L 127.599648 64.470018 
L 146.211812 64.871928 
L 159.417352 73.355868 
L 171.460723 76.899487 
L 178.029516 82.272973 
L 191.235056 97.773361 
L 209.84722 99.61271 
L 223.05276 105.434483 
L 233.295773 108.559649 
" clip-path="url(#pc31abc2047)" style="fill: none; stroke: #b2b2b2; stroke-width: 0.8; stroke-linecap: square"/>
   </g>
   <g id="line2d_113">
    <path d="M 53.721227 42.268541 
L 72.333391 40.075524 
L 85.538931 35.522289 
L 95.781944 39.565255 
L 104.151095 37.28567 
L 117.356635 41.502024 
L 127.599648 56.802839 
L 146.211812 59.847253 
L 159.417352 71.496004 
L 171.460723 84.978751 
L 178.029516 93.424217 
L 191.235056 96.994231 
L 209.84722 101.213701 
L 223.05276 113.850189 
L 233.295773 110.253337 
" clip-path="url(#pc31abc2047)" style="fill: none; stroke: #b2b2b2; stroke-width: 0.8; stroke-linecap: square"/>
   </g>
   <g id="line2d_114">
    <path d="M 53.721227 51.61492 
L 72.333391 40.835885 
L 85.538931 42.530821 
L 95.781944 42.377683 
L 104.151095 45.373427 
L 117.356635 49.558352 
L 127.599648 50.456027 
L 146.211812 69.091826 
L 159.417352 74.354976 
L 171.460723 78.142311 
L 178.029516 88.842101 
L 191.235056 94.109865 
L 209.84722 95.692634 
L 223.05276 100.939657 
L 233.295773 101.765456 
" clip-path="url(#pc31abc2047)" style="fill: none; stroke: #b2b2b2; stroke-width: 0.8; stroke-linecap: square"/>
   </g>
   <g id="line2d_115">
    <path d="M 53.721227 84.065297 
L 72.333391 76.916967 
L 85.538931 72.292652 
L 95.781944 67.014092 
L 104.151095 55.665816 
L 117.356635 57.914685 
L 127.599648 65.757942 
L 146.211812 71.59226 
L 159.417352 75.258447 
L 171.460723 79.07414 
L 178.029516 79.578911 
L 191.235056 81.714865 
L 209.84722 94.96974 
L 223.05276 110.828718 
L 233.295773 125.890322 
" clip-path="url(#pc31abc2047)" style="fill: none; stroke: #b2b2b2; stroke-width: 0.8; stroke-linecap: square"/>
   </g>
   <g id="line2d_116">
    <path d="M 53.721227 63.616375 
L 72.333391 58.345589 
L 85.538931 62.163419 
L 95.781944 54.706651 
L 104.151095 56.884553 
L 117.356635 64.154891 
L 127.599648 54.200152 
L 146.211812 68.956667 
L 159.417352 67.601276 
L 171.460723 88.08057 
L 178.029516 79.5822 
L 191.235056 93.380456 
L 209.84722 97.052907 
L 223.05276 117.830573 
L 233.295773 122.433638 
" clip-path="url(#pc31abc2047)" style="fill: none; stroke: #b2b2b2; stroke-width: 0.8; stroke-linecap: square"/>
   </g>
   <g id="line2d_117">
    <path d="M 53.721227 80.881381 
L 72.333391 73.606431 
L 85.538931 76.427024 
L 95.781944 73.073534 
L 104.151095 70.490313 
L 117.356635 69.452569 
L 127.599648 79.542606 
L 146.211812 76.931876 
L 159.417352 75.849935 
L 171.460723 79.701839 
L 178.029516 81.211679 
L 191.235056 80.674515 
L 209.84722 89.136107 
L 223.05276 88.153108 
L 233.295773 101.554361 
" clip-path="url(#pc31abc2047)" style="fill: none; stroke: #b2b2b2; stroke-width: 0.8; stroke-linecap: square"/>
   </g>
   <g id="line2d_118">
    <path d="M 53.721227 52.059062 
L 72.333391 39.390299 
L 85.538931 44.787993 
L 95.781944 50.409441 
L 104.151095 52.215249 
L 117.356635 67.973953 
L 127.599648 74.27971 
L 146.211812 68.198966 
L 159.417352 75.060097 
L 171.460723 81.119763 
L 178.029516 90.783194 
L 191.235056 94.342678 
L 209.84722 88.717716 
L 223.05276 96.032251 
L 233.295773 105.285601 
" clip-path="url(#pc31abc2047)" style="fill: none; stroke: #b2b2b2; stroke-width: 0.8; stroke-linecap: square"/>
   </g>
   <g id="line2d_119">
    <path d="M 53.721227 33.872355 
L 72.333391 33.785546 
L 85.538931 28.071241 
L 95.781944 28.291807 
L 104.151095 39.767271 
L 117.356635 43.624432 
L 127.599648 54.813163 
L 146.211812 66.287993 
L 159.417352 66.907304 
L 171.460723 81.965531 
L 178.029516 85.421567 
L 191.235056 100.609135 
L 209.84722 105.648386 
L 223.05276 113.238464 
L 233.295773 121.405607 
" clip-path="url(#pc31abc2047)" style="fill: none; stroke: #b2b2b2; stroke-width: 0.8; stroke-linecap: square"/>
   </g>
   <g id="line2d_120">
    <path d="M 53.721227 14.28626 
L 72.333391 19.425581 
L 85.538931 13.1472 
L 95.781944 21.555695 
L 104.151095 26.551041 
L 117.356635 52.406196 
L 127.599648 56.125608 
L 146.211812 78.178907 
L 159.417352 88.274535 
L 171.460723 80.670418 
L 178.029516 91.24986 
L 191.235056 95.224729 
L 209.84722 89.437675 
L 223.05276 95.232407 
L 233.295773 99.641171 
" clip-path="url(#pc31abc2047)" style="fill: none; stroke: #b2b2b2; stroke-width: 0.8; stroke-linecap: square"/>
   </g>
   <g id="line2d_121">
    <path d="M 53.721227 27.96116 
L 72.333391 30.356046 
L 85.538931 25.568658 
L 95.781944 44.845472 
L 104.151095 45.406564 
L 117.356635 53.819361 
L 127.599648 61.46553 
L 146.211812 69.17885 
L 159.417352 80.668817 
L 171.460723 86.193018 
L 178.029516 86.96558 
L 191.235056 87.81115 
L 209.84722 97.431654 
L 223.05276 92.738498 
L 233.295773 96.980587 
" clip-path="url(#pc31abc2047)" style="fill: none; stroke: #b2b2b2; stroke-width: 0.8; stroke-linecap: square"/>
   </g>
   <g id="line2d_122">
    <path d="M 53.721227 44.284542 
L 72.333391 35.301174 
L 85.538931 34.769167 
L 95.781944 41.85959 
L 104.151095 43.235647 
L 117.356635 42.894617 
L 127.599648 53.889392 
L 146.211812 66.458646 
L 159.417352 79.274368 
L 171.460723 83.202165 
L 178.029516 80.937691 
L 191.235056 91.538771 
L 209.84722 100.657007 
L 223.05276 116.680184 
L 233.295773 117.539906 
" clip-path="url(#pc31abc2047)" style="fill: none; stroke: #b2b2b2; stroke-width: 0.8; stroke-linecap: square"/>
   </g>
   <g id="line2d_123">
    <path d="M 53.721227 52.404013 
L 72.333391 47.92117 
L 85.538931 47.342726 
L 95.781944 49.438202 
L 104.151095 51.506842 
L 117.356635 57.046433 
L 127.599648 61.392934 
L 146.211812 70.23796 
L 159.417352 75.795926 
L 171.460723 80.608008 
L 178.029516 82.799614 
L 191.235056 87.691098 
L 209.84722 95.297568 
L 223.05276 101.266065 
L 233.295773 107.999555 
" clip-path="url(#pc31abc2047)" style="fill: none; stroke: #ff0000; stroke-width: 2; stroke-linecap: square"/>
   </g>
   <g id="line2d_124">
    <path d="M 53.721227 24.181548 
L 72.333391 19.154306 
L 85.538931 19.561008 
L 95.781944 22.786618 
L 104.151095 26.123861 
L 117.356635 34.578411 
L 127.599648 41.783529 
L 146.211812 56.318123 
L 159.417352 65.248663 
L 171.460723 70.681352 
L 178.029516 72.29453 
L 191.235056 75.086133 
L 209.84722 78.981127 
L 223.05276 82.942476 
L 233.295773 87.603478 
" clip-path="url(#pc31abc2047)" style="fill: none; stroke-dasharray: 7.4,3.2; stroke-dashoffset: 0; stroke: #ff0000; stroke-width: 2"/>
   </g>
   <g id="line2d_125">
    <path d="M 53.721227 80.626477 
L 72.333391 76.688035 
L 85.538931 75.124445 
L 95.781944 76.089786 
L 104.151095 76.889823 
L 117.356635 79.514455 
L 127.599648 81.002338 
L 146.211812 84.157797 
L 159.417352 86.343189 
L 171.460723 90.534663 
L 178.029516 93.304698 
L 191.235056 100.296063 
L 209.84722 111.61401 
L 223.05276 119.589654 
L 233.295773 128.395631 
" clip-path="url(#pc31abc2047)" style="fill: none; stroke-dasharray: 7.4,3.2; stroke-dashoffset: 0; stroke: #ff0000; stroke-width: 2"/>
   </g>
   <g id="line2d_126">
    <path d="M 53.721227 52.320372 
L 72.333391 48.106374 
L 85.538931 47.501706 
L 95.781944 49.497323 
L 104.151095 51.51948 
L 117.356635 57.069413 
L 127.599648 61.622531 
L 146.211812 70.480711 
L 159.417352 75.954383 
L 171.460723 80.625019 
L 178.029516 82.976649 
L 191.235056 88.00686 
L 209.84722 95.453438 
L 223.05276 101.255488 
L 233.295773 107.805183 
" clip-path="url(#pc31abc2047)" style="fill: none; stroke: #0000ff; stroke-width: 2; stroke-linecap: square"/>
   </g>
   <g id="line2d_127">
    <path d="M 53.721227 24.156828 
L 72.333391 19.144418 
L 85.538931 19.481337 
L 95.781944 22.919248 
L 104.151095 26.010731 
L 117.356635 34.776942 
L 127.599648 41.992967 
L 146.211812 56.697146 
L 159.417352 65.206531 
L 171.460723 70.536187 
L 178.029516 72.631053 
L 191.235056 75.498413 
L 209.84722 78.995015 
L 223.05276 82.947236 
L 233.295773 87.398057 
" clip-path="url(#pc31abc2047)" style="fill: none; stroke-dasharray: 7.4,3.2; stroke-dashoffset: 0; stroke: #0000ff; stroke-width: 2"/>
   </g>
   <g id="line2d_128">
    <path d="M 53.721227 80.483916 
L 72.333391 77.068329 
L 85.538931 75.522074 
L 95.781944 76.075397 
L 104.151095 77.02823 
L 117.356635 79.361884 
L 127.599648 81.252095 
L 146.211812 84.264276 
L 159.417352 86.702234 
L 171.460723 90.713852 
L 178.029516 93.322246 
L 191.235056 100.515307 
L 209.84722 111.911861 
L 223.05276 119.56374 
L 233.295773 128.21231 
" clip-path="url(#pc31abc2047)" style="fill: none; stroke-dasharray: 7.4,3.2; stroke-dashoffset: 0; stroke: #0000ff; stroke-width: 2"/>
   </g>
   <g id="patch_3">
    <path d="M 44.7425 138.0384 
L 44.7425 7.2 
" style="fill: none; stroke: #000000; stroke-width: 0.8; stroke-linejoin: miter; stroke-linecap: square"/>
   </g>
   <g id="patch_4">
    <path d="M 242.2745 138.0384 
L 242.2745 7.2 
" style="fill: none; stroke: #000000; stroke-width: 0.8; stroke-linejoin: miter; stroke-linecap: square"/>
   </g>
   <g id="patch_5">
    <path d="M 44.7425 138.0384 
L 242.2745 138.0384 
" style="fill: none; stroke: #000000; stroke-width: 0.8; stroke-linejoin: miter; stroke-linecap: square"/>
   </g>
   <g id="patch_6">
    <path d="M 44.7425 7.2 
L 242.2745 7.2 
" style="fill: none; stroke: #000000; stroke-width: 0.8; stroke-linejoin: miter; stroke-linecap: square"/>
   </g>
   <g id="legend_1">
    <g id="patch_7">
     <path d="M 247.8745 104.47295 
L 432.5945 104.47295 
Q 434.1945 104.47295 434.1945 102.87295 
L 434.1945 42.36545 
Q 434.1945 40.76545 432.5945 40.76545 
L 247.8745 40.76545 
Q 246.2745 40.76545 246.2745 42.36545 
L 246.2745 102.87295 
Q 246.2745 104.47295 247.8745 104.47295 
z
" style="fill: #ffffff; opacity: 0.8; stroke: #cccccc; stroke-linejoin: miter"/>
    </g>
    <g id="line2d_129">
     <path d="M 249.4745 47.2442 
L 257.4745 47.2442 
L 265.4745 47.2442 
" style="fill: none; stroke: #b2b2b2; stroke-width: 0.8; stroke-linecap: square"/>
    </g>
    <g id="text_7">
     <!-- Individual selected GMs -->
     <g transform="translate(271.8745 50.0442) scale(0.08 -0.08)">
      <defs>
       <path id="DejaVuSans-49" d="M 628 4666 
L 1259 4666 
L 1259 0 
L 628 0 
L 628 4666 
z
" transform="scale(0.015625)"/>
       <path id="DejaVuSans-76" d="M 191 3500 
L 800 3500 
L 1894 563 
L 2988 3500 
L 3597 3500 
L 2284 0 
L 1503 0 
L 191 3500 
z
" transform="scale(0.015625)"/>
       <path id="DejaVuSans-75" d="M 544 1381 
L 544 3500 
L 1119 3500 
L 1119 1403 
Q 1119 906 1312 657 
Q 1506 409 1894 409 
Q 2359 409 2629 706 
Q 2900 1003 2900 1516 
L 2900 3500 
L 3475 3500 
L 3475 0 
L 2900 0 
L 2900 538 
Q 2691 219 2414 64 
Q 2138 -91 1772 -91 
Q 1169 -91 856 284 
Q 544 659 544 1381 
z
M 1991 3584 
L 1991 3584 
z
" transform="scale(0.015625)"/>
       <path id="DejaVuSans-47" d="M 3809 666 
L 3809 1919 
L 2778 1919 
L 2778 2438 
L 4434 2438 
L 4434 434 
Q 4069 175 3628 42 
Q 3188 -91 2688 -91 
Q 1594 -91 976 548 
Q 359 1188 359 2328 
Q 359 3472 976 4111 
Q 1594 4750 2688 4750 
Q 3144 4750 3555 4637 
Q 3966 4525 4313 4306 
L 4313 3634 
Q 3963 3931 3569 4081 
Q 3175 4231 2741 4231 
Q 1884 4231 1454 3753 
Q 1025 3275 1025 2328 
Q 1025 1384 1454 906 
Q 1884 428 2741 428 
Q 3075 428 3337 486 
Q 3600 544 3809 666 
z
" transform="scale(0.015625)"/>
       <path id="DejaVuSans-4d" d="M 628 4666 
L 1569 4666 
L 2759 1491 
L 3956 4666 
L 4897 4666 
L 4897 0 
L 4281 0 
L 4281 4097 
L 3078 897 
L 2444 897 
L 1241 4097 
L 1241 0 
L 628 0 
L 628 4666 
z
" transform="scale(0.015625)"/>
      </defs>
      <use xlink:href="#DejaVuSans-49"/>
      <use xlink:href="#DejaVuSans-6e" x="29.492188"/>
      <use xlink:href="#DejaVuSans-64" x="92.871094"/>
      <use xlink:href="#DejaVuSans-69" x="156.347656"/>
      <use xlink:href="#DejaVuSans-76" x="184.130859"/>
      <use xlink:href="#DejaVuSans-69" x="243.310547"/>
      <use xlink:href="#DejaVuSans-64" x="271.09375"/>
      <use xlink:href="#DejaVuSans-75" x="334.570312"/>
      <use xlink:href="#DejaVuSans-61" x="397.949219"/>
      <use xlink:href="#DejaVuSans-6c" x="459.228516"/>
      <use xlink:href="#DejaVuSans-20" x="487.011719"/>
      <use xlink:href="#DejaVuSans-73" x="518.798828"/>
      <use xlink:href="#DejaVuSans-65" x="570.898438"/>
      <use xlink:href="#DejaVuSans-6c" x="632.421875"/>
      <use xlink:href="#DejaVuSans-65" x="660.205078"/>
      <use xlink:href="#DejaVuSans-63" x="721.728516"/>
      <use xlink:href="#DejaVuSans-74" x="776.708984"/>
      <use xlink:href="#DejaVuSans-65" x="815.917969"/>
      <use xlink:href="#DejaVuSans-64" x="877.441406"/>
      <use xlink:href="#DejaVuSans-20" x="940.917969"/>
      <use xlink:href="#DejaVuSans-47" x="972.705078"/>
      <use xlink:href="#DejaVuSans-4d" x="1050.195312"/>
      <use xlink:href="#DejaVuSans-73" x="1136.474609"/>
     </g>
    </g>
    <g id="line2d_130">
     <path d="M 249.4745 58.9867 
L 257.4745 58.9867 
L 265.4745 58.9867 
" style="fill: none; stroke: #ff0000; stroke-width: 2; stroke-linecap: square"/>
    </g>
    <g id="text_8">
     <!-- GCIM median -->
     <g transform="translate(271.8745 61.7867) scale(0.08 -0.08)">
      <defs>
       <path id="DejaVuSans-43" d="M 4122 4306 
L 4122 3641 
Q 3803 3938 3442 4084 
Q 3081 4231 2675 4231 
Q 1875 4231 1450 3742 
Q 1025 3253 1025 2328 
Q 1025 1406 1450 917 
Q 1875 428 2675 428 
Q 3081 428 3442 575 
Q 3803 722 4122 1019 
L 4122 359 
Q 3791 134 3420 21 
Q 3050 -91 2638 -91 
Q 1578 -91 968 557 
Q 359 1206 359 2328 
Q 359 3453 968 4101 
Q 1578 4750 2638 4750 
Q 3056 4750 3426 4639 
Q 3797 4528 4122 4306 
z
" transform="scale(0.015625)"/>
       <path id="DejaVuSans-6d" d="M 3328 2828 
Q 3544 3216 3844 3400 
Q 4144 3584 4550 3584 
Q 5097 3584 5394 3201 
Q 5691 2819 5691 2113 
L 5691 0 
L 5113 0 
L 5113 2094 
Q 5113 2597 4934 2840 
Q 4756 3084 4391 3084 
Q 3944 3084 3684 2787 
Q 3425 2491 3425 1978 
L 3425 0 
L 2847 0 
L 2847 2094 
Q 2847 2600 2669 2842 
Q 2491 3084 2119 3084 
Q 1678 3084 1418 2786 
Q 1159 2488 1159 1978 
L 1159 0 
L 581 0 
L 581 3500 
L 1159 3500 
L 1159 2956 
Q 1356 3278 1631 3431 
Q 1906 3584 2284 3584 
Q 2666 3584 2933 3390 
Q 3200 3197 3328 2828 
z
" transform="scale(0.015625)"/>
      </defs>
      <use xlink:href="#DejaVuSans-47"/>
      <use xlink:href="#DejaVuSans-43" x="77.490234"/>
      <use xlink:href="#DejaVuSans-49" x="147.314453"/>
      <use xlink:href="#DejaVuSans-4d" x="176.806641"/>
      <use xlink:href="#DejaVuSans-20" x="263.085938"/>
      <use xlink:href="#DejaVuSans-6d" x="294.873047"/>
      <use xlink:href="#DejaVuSans-65" x="392.285156"/>
      <use xlink:href="#DejaVuSans-64" x="453.808594"/>
      <use xlink:href="#DejaVuSans-69" x="517.285156"/>
      <use xlink:href="#DejaVuSans-61" x="545.068359"/>
      <use xlink:href="#DejaVuSans-6e" x="606.347656"/>
     </g>
    </g>
    <g id="line2d_131">
     <path d="M 249.4745 72.01045 
L 257.4745 72.01045 
L 265.4745 72.01045 
" style="fill: none; stroke-dasharray: 7.4,3.2; stroke-dashoffset: 0; stroke: #ff0000; stroke-width: 2"/>
    </g>
    <g id="text_9">
     <!-- GCIM $16^{th}$ and $84^{th}$ percentiles -->
     <g transform="translate(271.8745 74.81045) scale(0.08 -0.08)">
      <defs>
       <path id="DejaVuSans-36" d="M 2113 2584 
Q 1688 2584 1439 2293 
Q 1191 2003 1191 1497 
Q 1191 994 1439 701 
Q 1688 409 2113 409 
Q 2538 409 2786 701 
Q 3034 994 3034 1497 
Q 3034 2003 2786 2293 
Q 2538 2584 2113 2584 
z
M 3366 4563 
L 3366 3988 
Q 3128 4100 2886 4159 
Q 2644 4219 2406 4219 
Q 1781 4219 1451 3797 
Q 1122 3375 1075 2522 
Q 1259 2794 1537 2939 
Q 1816 3084 2150 3084 
Q 2853 3084 3261 2657 
Q 3669 2231 3669 1497 
Q 3669 778 3244 343 
Q 2819 -91 2113 -91 
Q 1303 -91 875 529 
Q 447 1150 447 2328 
Q 447 3434 972 4092 
Q 1497 4750 2381 4750 
Q 2619 4750 2861 4703 
Q 3103 4656 3366 4563 
z
" transform="scale(0.015625)"/>
       <path id="DejaVuSans-Oblique-74" d="M 2706 3500 
L 2619 3053 
L 1472 3053 
L 1100 1153 
Q 1081 1047 1072 975 
Q 1063 903 1063 863 
Q 1063 663 1183 572 
Q 1303 481 1569 481 
L 2150 481 
L 2053 0 
L 1503 0 
Q 991 0 739 200 
Q 488 400 488 806 
Q 488 878 497 964 
Q 506 1050 525 1153 
L 897 3053 
L 409 3053 
L 500 3500 
L 978 3500 
L 1172 4494 
L 1747 4494 
L 1556 3500 
L 2706 3500 
z
" transform="scale(0.015625)"/>
       <path id="DejaVuSans-Oblique-68" d="M 3566 2113 
L 3156 0 
L 2578 0 
L 2988 2091 
Q 3016 2238 3031 2350 
Q 3047 2463 3047 2528 
Q 3047 2791 2881 2937 
Q 2716 3084 2419 3084 
Q 1956 3084 1617 2771 
Q 1278 2459 1178 1941 
L 800 0 
L 225 0 
L 1172 4863 
L 1747 4863 
L 1375 2950 
Q 1594 3244 1934 3414 
Q 2275 3584 2650 3584 
Q 3113 3584 3367 3334 
Q 3622 3084 3622 2631 
Q 3622 2519 3608 2391 
Q 3594 2263 3566 2113 
z
" transform="scale(0.015625)"/>
       <path id="DejaVuSans-38" d="M 2034 2216 
Q 1584 2216 1326 1975 
Q 1069 1734 1069 1313 
Q 1069 891 1326 650 
Q 1584 409 2034 409 
Q 2484 409 2743 651 
Q 3003 894 3003 1313 
Q 3003 1734 2745 1975 
Q 2488 2216 2034 2216 
z
M 1403 2484 
Q 997 2584 770 2862 
Q 544 3141 544 3541 
Q 544 4100 942 4425 
Q 1341 4750 2034 4750 
Q 2731 4750 3128 4425 
Q 3525 4100 3525 3541 
Q 3525 3141 3298 2862 
Q 3072 2584 2669 2484 
Q 3125 2378 3379 2068 
Q 3634 1759 3634 1313 
Q 3634 634 3220 271 
Q 2806 -91 2034 -91 
Q 1263 -91 848 271 
Q 434 634 434 1313 
Q 434 1759 690 2068 
Q 947 2378 1403 2484 
z
M 1172 3481 
Q 1172 3119 1398 2916 
Q 1625 2713 2034 2713 
Q 2441 2713 2670 2916 
Q 2900 3119 2900 3481 
Q 2900 3844 2670 4047 
Q 2441 4250 2034 4250 
Q 1625 4250 1398 4047 
Q 1172 3844 1172 3481 
z
" transform="scale(0.015625)"/>
       <path id="DejaVuSans-34" d="M 2419 4116 
L 825 1625 
L 2419 1625 
L 2419 4116 
z
M 2253 4666 
L 3047 4666 
L 3047 1625 
L 3713 1625 
L 3713 1100 
L 3047 1100 
L 3047 0 
L 2419 0 
L 2419 1100 
L 313 1100 
L 313 1709 
L 2253 4666 
z
" transform="scale(0.015625)"/>
      </defs>
      <use xlink:href="#DejaVuSans-47" transform="translate(0 0.529687)"/>
      <use xlink:href="#DejaVuSans-43" transform="translate(77.490234 0.529687)"/>
      <use xlink:href="#DejaVuSans-49" transform="translate(147.314453 0.529687)"/>
      <use xlink:href="#DejaVuSans-4d" transform="translate(176.806641 0.529687)"/>
      <use xlink:href="#DejaVuSans-20" transform="translate(263.085938 0.529687)"/>
      <use xlink:href="#DejaVuSans-31" transform="translate(294.873047 0.529687)"/>
      <use xlink:href="#DejaVuSans-36" transform="translate(358.496094 0.529687)"/>
      <use xlink:href="#DejaVuSans-Oblique-74" transform="translate(423.076172 38.810937) scale(0.7)"/>
      <use xlink:href="#DejaVuSans-Oblique-68" transform="translate(450.522461 38.810937) scale(0.7)"/>
      <use xlink:href="#DejaVuSans-20" transform="translate(497.62207 0.529687)"/>
      <use xlink:href="#DejaVuSans-61" transform="translate(529.40918 0.529687)"/>
      <use xlink:href="#DejaVuSans-6e" transform="translate(590.688477 0.529687)"/>
      <use xlink:href="#DejaVuSans-64" transform="translate(654.067383 0.529687)"/>
      <use xlink:href="#DejaVuSans-20" transform="translate(717.543945 0.529687)"/>
      <use xlink:href="#DejaVuSans-38" transform="translate(749.331055 0.529687)"/>
      <use xlink:href="#DejaVuSans-34" transform="translate(812.954102 0.529687)"/>
      <use xlink:href="#DejaVuSans-Oblique-74" transform="translate(877.53418 38.810937) scale(0.7)"/>
      <use xlink:href="#DejaVuSans-Oblique-68" transform="translate(904.980469 38.810937) scale(0.7)"/>
      <use xlink:href="#DejaVuSans-20" transform="translate(952.080078 0.529687)"/>
      <use xlink:href="#DejaVuSans-70" transform="translate(983.867188 0.529687)"/>
      <use xlink:href="#DejaVuSans-65" transform="translate(1047.34375 0.529687)"/>
      <use xlink:href="#DejaVuSans-72" transform="translate(1108.867188 0.529687)"/>
      <use xlink:href="#DejaVuSans-63" transform="translate(1149.980469 0.529687)"/>
      <use xlink:href="#DejaVuSans-65" transform="translate(1204.960938 0.529687)"/>
      <use xlink:href="#DejaVuSans-6e" transform="translate(1266.484375 0.529687)"/>
      <use xlink:href="#DejaVuSans-74" transform="translate(1329.863281 0.529687)"/>
      <use xlink:href="#DejaVuSans-69" transform="translate(1369.072266 0.529687)"/>
      <use xlink:href="#DejaVuSans-6c" transform="translate(1396.855469 0.529687)"/>
      <use xlink:href="#DejaVuSans-65" transform="translate(1424.638672 0.529687)"/>
      <use xlink:href="#DejaVuSans-73" transform="translate(1486.162109 0.529687)"/>
     </g>
    </g>
    <g id="line2d_132">
     <path d="M 249.4745 83.7692 
L 257.4745 83.7692 
L 265.4745 83.7692 
" style="fill: none; stroke: #0000ff; stroke-width: 2; stroke-linecap: square"/>
    </g>
    <g id="text_10">
     <!-- Selected GMs median -->
     <g transform="translate(271.8745 86.5692) scale(0.08 -0.08)">
      <use xlink:href="#DejaVuSans-53"/>
      <use xlink:href="#DejaVuSans-65" x="63.476562"/>
      <use xlink:href="#DejaVuSans-6c" x="125"/>
      <use xlink:href="#DejaVuSans-65" x="152.783203"/>
      <use xlink:href="#DejaVuSans-63" x="214.306641"/>
      <use xlink:href="#DejaVuSans-74" x="269.287109"/>
      <use xlink:href="#DejaVuSans-65" x="308.496094"/>
      <use xlink:href="#DejaVuSans-64" x="370.019531"/>
      <use xlink:href="#DejaVuSans-20" x="433.496094"/>
      <use xlink:href="#DejaVuSans-47" x="465.283203"/>
      <use xlink:href="#DejaVuSans-4d" x="542.773438"/>
      <use xlink:href="#DejaVuSans-73" x="629.052734"/>
      <use xlink:href="#DejaVuSans-20" x="681.152344"/>
      <use xlink:href="#DejaVuSans-6d" x="712.939453"/>
      <use xlink:href="#DejaVuSans-65" x="810.351562"/>
      <use xlink:href="#DejaVuSans-64" x="871.875"/>
      <use xlink:href="#DejaVuSans-69" x="935.351562"/>
      <use xlink:href="#DejaVuSans-61" x="963.134766"/>
      <use xlink:href="#DejaVuSans-6e" x="1024.414062"/>
     </g>
    </g>
    <g id="line2d_133">
     <path d="M 249.4745 96.79295 
L 257.4745 96.79295 
L 265.4745 96.79295 
" style="fill: none; stroke-dasharray: 7.4,3.2; stroke-dashoffset: 0; stroke: #0000ff; stroke-width: 2"/>
    </g>
    <g id="text_11">
     <!-- Selected GMs, $16^{th}$ and $84^{th}$ percentiles -->
     <g transform="translate(271.8745 99.59295) scale(0.08 -0.08)">
      <use xlink:href="#DejaVuSans-53" transform="translate(0 0.529687)"/>
      <use xlink:href="#DejaVuSans-65" transform="translate(63.476562 0.529687)"/>
      <use xlink:href="#DejaVuSans-6c" transform="translate(125 0.529687)"/>
      <use xlink:href="#DejaVuSans-65" transform="translate(152.783203 0.529687)"/>
      <use xlink:href="#DejaVuSans-63" transform="translate(214.306641 0.529687)"/>
      <use xlink:href="#DejaVuSans-74" transform="translate(269.287109 0.529687)"/>
      <use xlink:href="#DejaVuSans-65" transform="translate(308.496094 0.529687)"/>
      <use xlink:href="#DejaVuSans-64" transform="translate(370.019531 0.529687)"/>
      <use xlink:href="#DejaVuSans-20" transform="translate(433.496094 0.529687)"/>
      <use xlink:href="#DejaVuSans-47" transform="translate(465.283203 0.529687)"/>
      <use xlink:href="#DejaVuSans-4d" transform="translate(542.773438 0.529687)"/>
      <use xlink:href="#DejaVuSans-73" transform="translate(629.052734 0.529687)"/>
      <use xlink:href="#DejaVuSans-2c" transform="translate(681.152344 0.529687)"/>
      <use xlink:href="#DejaVuSans-20" transform="translate(712.939453 0.529687)"/>
      <use xlink:href="#DejaVuSans-31" transform="translate(744.726562 0.529687)"/>
      <use xlink:href="#DejaVuSans-36" transform="translate(808.349609 0.529687)"/>
      <use xlink:href="#DejaVuSans-Oblique-74" transform="translate(872.929688 38.810937) scale(0.7)"/>
      <use xlink:href="#DejaVuSans-Oblique-68" transform="translate(900.375977 38.810937) scale(0.7)"/>
      <use xlink:href="#DejaVuSans-20" transform="translate(947.475586 0.529687)"/>
      <use xlink:href="#DejaVuSans-61" transform="translate(979.262695 0.529687)"/>
      <use xlink:href="#DejaVuSans-6e" transform="translate(1040.541992 0.529687)"/>
      <use xlink:href="#DejaVuSans-64" transform="translate(1103.920898 0.529687)"/>
      <use xlink:href="#DejaVuSans-20" transform="translate(1167.397461 0.529687)"/>
      <use xlink:href="#DejaVuSans-38" transform="translate(1199.18457 0.529687)"/>
      <use xlink:href="#DejaVuSans-34" transform="translate(1262.807617 0.529687)"/>
      <use xlink:href="#DejaVuSans-Oblique-74" transform="translate(1327.387695 38.810937) scale(0.7)"/>
      <use xlink:href="#DejaVuSans-Oblique-68" transform="translate(1354.833984 38.810937) scale(0.7)"/>
      <use xlink:href="#DejaVuSans-20" transform="translate(1401.933594 0.529687)"/>
      <use xlink:href="#DejaVuSans-70" transform="translate(1433.720703 0.529687)"/>
      <use xlink:href="#DejaVuSans-65" transform="translate(1497.197266 0.529687)"/>
      <use xlink:href="#DejaVuSans-72" transform="translate(1558.720703 0.529687)"/>
      <use xlink:href="#DejaVuSans-63" transform="translate(1599.833984 0.529687)"/>
      <use xlink:href="#DejaVuSans-65" transform="translate(1654.814453 0.529687)"/>
      <use xlink:href="#DejaVuSans-6e" transform="translate(1716.337891 0.529687)"/>
      <use xlink:href="#DejaVuSans-74" transform="translate(1779.716797 0.529687)"/>
      <use xlink:href="#DejaVuSans-69" transform="translate(1818.925781 0.529687)"/>
      <use xlink:href="#DejaVuSans-6c" transform="translate(1846.708984 0.529687)"/>
      <use xlink:href="#DejaVuSans-65" transform="translate(1874.492188 0.529687)"/>
      <use xlink:href="#DejaVuSans-73" transform="translate(1936.015625 0.529687)"/>
     </g>
    </g>
   </g>
  </g>
 </g>
 <defs>
  <clipPath id="pc31abc2047">
   <rect x="44.7425" y="7.2" width="197.532" height="130.8384"/>
  </clipPath>
 </defs>
</svg>
