<?xml version="1.0" encoding="utf-8" standalone="no"?>
<!DOCTYPE svg PUBLIC "-//W3C//DTD SVG 1.1//EN"
  "http://www.w3.org/Graphics/SVG/1.1/DTD/svg11.dtd">
<svg xmlns:xlink="http://www.w3.org/1999/xlink" width="441.3945pt" height="171.7234pt" viewBox="0 0 441.3945 171.7234" xmlns="http://www.w3.org/2000/svg" version="1.1">
 <metadata>
  <rdf:RDF xmlns:dc="http://purl.org/dc/elements/1.1/" xmlns:cc="http://creativecommons.org/ns#" xmlns:rdf="http://www.w3.org/1999/02/22-rdf-syntax-ns#">
   <cc:Work>
    <dc:type rdf:resource="http://purl.org/dc/dcmitype/StillImage"/>
    <dc:date>2024-11-04T11:54:07.058590</dc:date>
    <dc:format>image/svg+xml</dc:format>
    <dc:creator>
     <cc:Agent>
      <dc:title>Matplotlib v3.8.2, https://matplotlib.org/</dc:title>
     </cc:Agent>
    </dc:creator>
   </cc:Work>
  </rdf:RDF>
 </metadata>
 <defs>
  <style type="text/css">*{stroke-linejoin: round; stroke-linecap: butt}</style>
 </defs>
 <g id="figure_1">
  <g id="patch_1">
   <path d="M 0 171.7234 
L 441.3945 171.7234 
L 441.3945 0 
L 0 0 
z
" style="fill: #ffffff"/>
  </g>
  <g id="axes_1">
   <g id="patch_2">
    <path d="M 44.7425 138.0384 
L 242.2745 138.0384 
L 242.2745 7.2 
L 44.7425 7.2 
z
" style="fill: #ffffff"/>
   </g>
   <g id="matplotlib.axis_1">
    <g id="xtick_1">
     <g id="line2d_1">
      <path d="M 53.721227 138.0384 
L 53.721227 7.2 
" clip-path="url(#p18b533a20d)" style="fill: none; stroke: #d9d9d9; stroke-width: 0.8; stroke-linecap: square"/>
     </g>
     <g id="line2d_2">
      <defs>
       <path id="m1fff3bb3b8" d="M 0 0 
L 0 3.5 
" style="stroke: #000000; stroke-width: 0.8"/>
      </defs>
      <g>
       <use xlink:href="#m1fff3bb3b8" x="53.721227" y="138.0384" style="stroke: #000000; stroke-width: 0.8"/>
      </g>
     </g>
     <g id="text_1">
      <!-- $\mathdefault{10^{-1}}$ -->
      <g transform="translate(44.321227 151.11715) scale(0.08 -0.08)">
       <defs>
        <path id="DejaVuSans-31" d="M 794 531 
L 1825 531 
L 1825 4091 
L 703 3866 
L 703 4441 
L 1819 4666 
L 2450 4666 
L 2450 531 
L 3481 531 
L 3481 0 
L 794 0 
L 794 531 
z
" transform="scale(0.015625)"/>
        <path id="DejaVuSans-30" d="M 2034 4250 
Q 1547 4250 1301 3770 
Q 1056 3291 1056 2328 
Q 1056 1369 1301 889 
Q 1547 409 2034 409 
Q 2525 409 2770 889 
Q 3016 1369 3016 2328 
Q 3016 3291 2770 3770 
Q 2525 4250 2034 4250 
z
M 2034 4750 
Q 2819 4750 3233 4129 
Q 3647 3509 3647 2328 
Q 3647 1150 3233 529 
Q 2819 -91 2034 -91 
Q 1250 -91 836 529 
Q 422 1150 422 2328 
Q 422 3509 836 4129 
Q 1250 4750 2034 4750 
z
" transform="scale(0.015625)"/>
        <path id="DejaVuSans-2212" d="M 678 2272 
L 4684 2272 
L 4684 1741 
L 678 1741 
L 678 2272 
z
" transform="scale(0.015625)"/>
       </defs>
       <use xlink:href="#DejaVuSans-31" transform="translate(0 0.684375)"/>
       <use xlink:href="#DejaVuSans-30" transform="translate(63.623047 0.684375)"/>
       <use xlink:href="#DejaVuSans-2212" transform="translate(128.203125 38.965625) scale(0.7)"/>
       <use xlink:href="#DejaVuSans-31" transform="translate(186.855469 38.965625) scale(0.7)"/>
      </g>
     </g>
    </g>
    <g id="xtick_2">
     <g id="line2d_3">
      <path d="M 159.417352 138.0384 
L 159.417352 7.2 
" clip-path="url(#p18b533a20d)" style="fill: none; stroke: #d9d9d9; stroke-width: 0.8; stroke-linecap: square"/>
     </g>
     <g id="line2d_4">
      <g>
       <use xlink:href="#m1fff3bb3b8" x="159.417352" y="138.0384" style="stroke: #000000; stroke-width: 0.8"/>
      </g>
     </g>
     <g id="text_2">
      <!-- $\mathdefault{10^{0}}$ -->
      <g transform="translate(152.377352 151.11715) scale(0.08 -0.08)">
       <use xlink:href="#DejaVuSans-31" transform="translate(0 0.765625)"/>
       <use xlink:href="#DejaVuSans-30" transform="translate(63.623047 0.765625)"/>
       <use xlink:href="#DejaVuSans-30" transform="translate(128.203125 39.046875) scale(0.7)"/>
      </g>
     </g>
    </g>
    <g id="xtick_3">
     <g id="line2d_5">
      <path d="M 48.884838 138.0384 
L 48.884838 7.2 
" clip-path="url(#p18b533a20d)" style="fill: none; stroke-dasharray: 2.96,1.28; stroke-dashoffset: 0; stroke: #f2f2f2; stroke-width: 0.8"/>
     </g>
     <g id="line2d_6">
      <defs>
       <path id="m5a8c65b1ce" d="M 0 0 
L 0 2 
" style="stroke: #000000; stroke-width: 0.6"/>
      </defs>
      <g>
       <use xlink:href="#m5a8c65b1ce" x="48.884838" y="138.0384" style="stroke: #000000; stroke-width: 0.6"/>
      </g>
     </g>
    </g>
    <g id="xtick_4">
     <g id="line2d_7">
      <path d="M 85.538931 138.0384 
L 85.538931 7.2 
" clip-path="url(#p18b533a20d)" style="fill: none; stroke-dasharray: 2.96,1.28; stroke-dashoffset: 0; stroke: #f2f2f2; stroke-width: 0.8"/>
     </g>
     <g id="line2d_8">
      <g>
       <use xlink:href="#m5a8c65b1ce" x="85.538931" y="138.0384" style="stroke: #000000; stroke-width: 0.6"/>
      </g>
     </g>
    </g>
    <g id="xtick_5">
     <g id="line2d_9">
      <path d="M 104.151095 138.0384 
L 104.151095 7.2 
" clip-path="url(#p18b533a20d)" style="fill: none; stroke-dasharray: 2.96,1.28; stroke-dashoffset: 0; stroke: #f2f2f2; stroke-width: 0.8"/>
     </g>
     <g id="line2d_10">
      <g>
       <use xlink:href="#m5a8c65b1ce" x="104.151095" y="138.0384" style="stroke: #000000; stroke-width: 0.6"/>
      </g>
     </g>
    </g>
    <g id="xtick_6">
     <g id="line2d_11">
      <path d="M 117.356635 138.0384 
L 117.356635 7.2 
" clip-path="url(#p18b533a20d)" style="fill: none; stroke-dasharray: 2.96,1.28; stroke-dashoffset: 0; stroke: #f2f2f2; stroke-width: 0.8"/>
     </g>
     <g id="line2d_12">
      <g>
       <use xlink:href="#m5a8c65b1ce" x="117.356635" y="138.0384" style="stroke: #000000; stroke-width: 0.6"/>
      </g>
     </g>
    </g>
    <g id="xtick_7">
     <g id="line2d_13">
      <path d="M 127.599648 138.0384 
L 127.599648 7.2 
" clip-path="url(#p18b533a20d)" style="fill: none; stroke-dasharray: 2.96,1.28; stroke-dashoffset: 0; stroke: #f2f2f2; stroke-width: 0.8"/>
     </g>
     <g id="line2d_14">
      <g>
       <use xlink:href="#m5a8c65b1ce" x="127.599648" y="138.0384" style="stroke: #000000; stroke-width: 0.6"/>
      </g>
     </g>
    </g>
    <g id="xtick_8">
     <g id="line2d_15">
      <path d="M 135.968799 138.0384 
L 135.968799 7.2 
" clip-path="url(#p18b533a20d)" style="fill: none; stroke-dasharray: 2.96,1.28; stroke-dashoffset: 0; stroke: #f2f2f2; stroke-width: 0.8"/>
     </g>
     <g id="line2d_16">
      <g>
       <use xlink:href="#m5a8c65b1ce" x="135.968799" y="138.0384" style="stroke: #000000; stroke-width: 0.6"/>
      </g>
     </g>
    </g>
    <g id="xtick_9">
     <g id="line2d_17">
      <path d="M 143.044815 138.0384 
L 143.044815 7.2 
" clip-path="url(#p18b533a20d)" style="fill: none; stroke-dasharray: 2.96,1.28; stroke-dashoffset: 0; stroke: #f2f2f2; stroke-width: 0.8"/>
     </g>
     <g id="line2d_18">
      <g>
       <use xlink:href="#m5a8c65b1ce" x="143.044815" y="138.0384" style="stroke: #000000; stroke-width: 0.6"/>
      </g>
     </g>
    </g>
    <g id="xtick_10">
     <g id="line2d_19">
      <path d="M 149.174339 138.0384 
L 149.174339 7.2 
" clip-path="url(#p18b533a20d)" style="fill: none; stroke-dasharray: 2.96,1.28; stroke-dashoffset: 0; stroke: #f2f2f2; stroke-width: 0.8"/>
     </g>
     <g id="line2d_20">
      <g>
       <use xlink:href="#m5a8c65b1ce" x="149.174339" y="138.0384" style="stroke: #000000; stroke-width: 0.6"/>
      </g>
     </g>
    </g>
    <g id="xtick_11">
     <g id="line2d_21">
      <path d="M 154.580963 138.0384 
L 154.580963 7.2 
" clip-path="url(#p18b533a20d)" style="fill: none; stroke-dasharray: 2.96,1.28; stroke-dashoffset: 0; stroke: #f2f2f2; stroke-width: 0.8"/>
     </g>
     <g id="line2d_22">
      <g>
       <use xlink:href="#m5a8c65b1ce" x="154.580963" y="138.0384" style="stroke: #000000; stroke-width: 0.6"/>
      </g>
     </g>
    </g>
    <g id="xtick_12">
     <g id="line2d_23">
      <path d="M 191.235056 138.0384 
L 191.235056 7.2 
" clip-path="url(#p18b533a20d)" style="fill: none; stroke-dasharray: 2.96,1.28; stroke-dashoffset: 0; stroke: #f2f2f2; stroke-width: 0.8"/>
     </g>
     <g id="line2d_24">
      <g>
       <use xlink:href="#m5a8c65b1ce" x="191.235056" y="138.0384" style="stroke: #000000; stroke-width: 0.6"/>
      </g>
     </g>
    </g>
    <g id="xtick_13">
     <g id="line2d_25">
      <path d="M 209.84722 138.0384 
L 209.84722 7.2 
" clip-path="url(#p18b533a20d)" style="fill: none; stroke-dasharray: 2.96,1.28; stroke-dashoffset: 0; stroke: #f2f2f2; stroke-width: 0.8"/>
     </g>
     <g id="line2d_26">
      <g>
       <use xlink:href="#m5a8c65b1ce" x="209.84722" y="138.0384" style="stroke: #000000; stroke-width: 0.6"/>
      </g>
     </g>
    </g>
    <g id="xtick_14">
     <g id="line2d_27">
      <path d="M 223.05276 138.0384 
L 223.05276 7.2 
" clip-path="url(#p18b533a20d)" style="fill: none; stroke-dasharray: 2.96,1.28; stroke-dashoffset: 0; stroke: #f2f2f2; stroke-width: 0.8"/>
     </g>
     <g id="line2d_28">
      <g>
       <use xlink:href="#m5a8c65b1ce" x="223.05276" y="138.0384" style="stroke: #000000; stroke-width: 0.6"/>
      </g>
     </g>
    </g>
    <g id="xtick_15">
     <g id="line2d_29">
      <path d="M 233.295773 138.0384 
L 233.295773 7.2 
" clip-path="url(#p18b533a20d)" style="fill: none; stroke-dasharray: 2.96,1.28; stroke-dashoffset: 0; stroke: #f2f2f2; stroke-width: 0.8"/>
     </g>
     <g id="line2d_30">
      <g>
       <use xlink:href="#m5a8c65b1ce" x="233.295773" y="138.0384" style="stroke: #000000; stroke-width: 0.6"/>
      </g>
     </g>
    </g>
    <g id="xtick_16">
     <g id="line2d_31">
      <path d="M 241.664924 138.0384 
L 241.664924 7.2 
" clip-path="url(#p18b533a20d)" style="fill: none; stroke-dasharray: 2.96,1.28; stroke-dashoffset: 0; stroke: #f2f2f2; stroke-width: 0.8"/>
     </g>
     <g id="line2d_32">
      <g>
       <use xlink:href="#m5a8c65b1ce" x="241.664924" y="138.0384" style="stroke: #000000; stroke-width: 0.6"/>
      </g>
     </g>
    </g>
    <g id="text_3">
     <!-- Period, T (s) -->
     <g transform="translate(119.576 162.85965) scale(0.08 -0.08)">
      <defs>
       <path id="DejaVuSans-50" d="M 1259 4147 
L 1259 2394 
L 2053 2394 
Q 2494 2394 2734 2622 
Q 2975 2850 2975 3272 
Q 2975 3691 2734 3919 
Q 2494 4147 2053 4147 
L 1259 4147 
z
M 628 4666 
L 2053 4666 
Q 2838 4666 3239 4311 
Q 3641 3956 3641 3272 
Q 3641 2581 3239 2228 
Q 2838 1875 2053 1875 
L 1259 1875 
L 1259 0 
L 628 0 
L 628 4666 
z
" transform="scale(0.015625)"/>
       <path id="DejaVuSans-65" d="M 3597 1894 
L 3597 1613 
L 953 1613 
Q 991 1019 1311 708 
Q 1631 397 2203 397 
Q 2534 397 2845 478 
Q 3156 559 3463 722 
L 3463 178 
Q 3153 47 2828 -22 
Q 2503 -91 2169 -91 
Q 1331 -91 842 396 
Q 353 884 353 1716 
Q 353 2575 817 3079 
Q 1281 3584 2069 3584 
Q 2775 3584 3186 3129 
Q 3597 2675 3597 1894 
z
M 3022 2063 
Q 3016 2534 2758 2815 
Q 2500 3097 2075 3097 
Q 1594 3097 1305 2825 
Q 1016 2553 972 2059 
L 3022 2063 
z
" transform="scale(0.015625)"/>
       <path id="DejaVuSans-72" d="M 2631 2963 
Q 2534 3019 2420 3045 
Q 2306 3072 2169 3072 
Q 1681 3072 1420 2755 
Q 1159 2438 1159 1844 
L 1159 0 
L 581 0 
L 581 3500 
L 1159 3500 
L 1159 2956 
Q 1341 3275 1631 3429 
Q 1922 3584 2338 3584 
Q 2397 3584 2469 3576 
Q 2541 3569 2628 3553 
L 2631 2963 
z
" transform="scale(0.015625)"/>
       <path id="DejaVuSans-69" d="M 603 3500 
L 1178 3500 
L 1178 0 
L 603 0 
L 603 3500 
z
M 603 4863 
L 1178 4863 
L 1178 4134 
L 603 4134 
L 603 4863 
z
" transform="scale(0.015625)"/>
       <path id="DejaVuSans-6f" d="M 1959 3097 
Q 1497 3097 1228 2736 
Q 959 2375 959 1747 
Q 959 1119 1226 758 
Q 1494 397 1959 397 
Q 2419 397 2687 759 
Q 2956 1122 2956 1747 
Q 2956 2369 2687 2733 
Q 2419 3097 1959 3097 
z
M 1959 3584 
Q 2709 3584 3137 3096 
Q 3566 2609 3566 1747 
Q 3566 888 3137 398 
Q 2709 -91 1959 -91 
Q 1206 -91 779 398 
Q 353 888 353 1747 
Q 353 2609 779 3096 
Q 1206 3584 1959 3584 
z
" transform="scale(0.015625)"/>
       <path id="DejaVuSans-64" d="M 2906 2969 
L 2906 4863 
L 3481 4863 
L 3481 0 
L 2906 0 
L 2906 525 
Q 2725 213 2448 61 
Q 2172 -91 1784 -91 
Q 1150 -91 751 415 
Q 353 922 353 1747 
Q 353 2572 751 3078 
Q 1150 3584 1784 3584 
Q 2172 3584 2448 3432 
Q 2725 3281 2906 2969 
z
M 947 1747 
Q 947 1113 1208 752 
Q 1469 391 1925 391 
Q 2381 391 2643 752 
Q 2906 1113 2906 1747 
Q 2906 2381 2643 2742 
Q 2381 3103 1925 3103 
Q 1469 3103 1208 2742 
Q 947 2381 947 1747 
z
" transform="scale(0.015625)"/>
       <path id="DejaVuSans-2c" d="M 750 794 
L 1409 794 
L 1409 256 
L 897 -744 
L 494 -744 
L 750 256 
L 750 794 
z
" transform="scale(0.015625)"/>
       <path id="DejaVuSans-20" transform="scale(0.015625)"/>
       <path id="DejaVuSans-54" d="M -19 4666 
L 3928 4666 
L 3928 4134 
L 2272 4134 
L 2272 0 
L 1638 0 
L 1638 4134 
L -19 4134 
L -19 4666 
z
" transform="scale(0.015625)"/>
       <path id="DejaVuSans-28" d="M 1984 4856 
Q 1566 4138 1362 3434 
Q 1159 2731 1159 2009 
Q 1159 1288 1364 580 
Q 1569 -128 1984 -844 
L 1484 -844 
Q 1016 -109 783 600 
Q 550 1309 550 2009 
Q 550 2706 781 3412 
Q 1013 4119 1484 4856 
L 1984 4856 
z
" transform="scale(0.015625)"/>
       <path id="DejaVuSans-73" d="M 2834 3397 
L 2834 2853 
Q 2591 2978 2328 3040 
Q 2066 3103 1784 3103 
Q 1356 3103 1142 2972 
Q 928 2841 928 2578 
Q 928 2378 1081 2264 
Q 1234 2150 1697 2047 
L 1894 2003 
Q 2506 1872 2764 1633 
Q 3022 1394 3022 966 
Q 3022 478 2636 193 
Q 2250 -91 1575 -91 
Q 1294 -91 989 -36 
Q 684 19 347 128 
L 347 722 
Q 666 556 975 473 
Q 1284 391 1588 391 
Q 1994 391 2212 530 
Q 2431 669 2431 922 
Q 2431 1156 2273 1281 
Q 2116 1406 1581 1522 
L 1381 1569 
Q 847 1681 609 1914 
Q 372 2147 372 2553 
Q 372 3047 722 3315 
Q 1072 3584 1716 3584 
Q 2034 3584 2315 3537 
Q 2597 3491 2834 3397 
z
" transform="scale(0.015625)"/>
       <path id="DejaVuSans-29" d="M 513 4856 
L 1013 4856 
Q 1481 4119 1714 3412 
Q 1947 2706 1947 2009 
Q 1947 1309 1714 600 
Q 1481 -109 1013 -844 
L 513 -844 
Q 928 -128 1133 580 
Q 1338 1288 1338 2009 
Q 1338 2731 1133 3434 
Q 928 4138 513 4856 
z
" transform="scale(0.015625)"/>
      </defs>
      <use xlink:href="#DejaVuSans-50"/>
      <use xlink:href="#DejaVuSans-65" x="56.677734"/>
      <use xlink:href="#DejaVuSans-72" x="118.201172"/>
      <use xlink:href="#DejaVuSans-69" x="159.314453"/>
      <use xlink:href="#DejaVuSans-6f" x="187.097656"/>
      <use xlink:href="#DejaVuSans-64" x="248.279297"/>
      <use xlink:href="#DejaVuSans-2c" x="311.755859"/>
      <use xlink:href="#DejaVuSans-20" x="343.542969"/>
      <use xlink:href="#DejaVuSans-54" x="375.330078"/>
      <use xlink:href="#DejaVuSans-20" x="436.414062"/>
      <use xlink:href="#DejaVuSans-28" x="468.201172"/>
      <use xlink:href="#DejaVuSans-73" x="507.214844"/>
      <use xlink:href="#DejaVuSans-29" x="559.314453"/>
     </g>
    </g>
   </g>
   <g id="matplotlib.axis_2">
    <g id="ytick_1">
     <g id="line2d_33">
      <path d="M 44.7425 105.367696 
L 242.2745 105.367696 
" clip-path="url(#p18b533a20d)" style="fill: none; stroke: #d9d9d9; stroke-width: 0.8; stroke-linecap: square"/>
     </g>
     <g id="line2d_34">
      <defs>
       <path id="m83b98e2346" d="M 0 0 
L -3.5 0 
" style="stroke: #000000; stroke-width: 0.8"/>
      </defs>
      <g>
       <use xlink:href="#m83b98e2346" x="44.7425" y="105.367696" style="stroke: #000000; stroke-width: 0.8"/>
      </g>
     </g>
     <g id="text_4">
      <!-- $\mathdefault{10^{-1}}$ -->
      <g transform="translate(18.9425 108.407071) scale(0.08 -0.08)">
       <use xlink:href="#DejaVuSans-31" transform="translate(0 0.684375)"/>
       <use xlink:href="#DejaVuSans-30" transform="translate(63.623047 0.684375)"/>
       <use xlink:href="#DejaVuSans-2212" transform="translate(128.203125 38.965625) scale(0.7)"/>
       <use xlink:href="#DejaVuSans-31" transform="translate(186.855469 38.965625) scale(0.7)"/>
      </g>
     </g>
    </g>
    <g id="ytick_2">
     <g id="line2d_35">
      <path d="M 44.7425 60.273248 
L 242.2745 60.273248 
" clip-path="url(#p18b533a20d)" style="fill: none; stroke: #d9d9d9; stroke-width: 0.8; stroke-linecap: square"/>
     </g>
     <g id="line2d_36">
      <g>
       <use xlink:href="#m83b98e2346" x="44.7425" y="60.273248" style="stroke: #000000; stroke-width: 0.8"/>
      </g>
     </g>
     <g id="text_5">
      <!-- $\mathdefault{10^{0}}$ -->
      <g transform="translate(23.6625 63.312623) scale(0.08 -0.08)">
       <use xlink:href="#DejaVuSans-31" transform="translate(0 0.765625)"/>
       <use xlink:href="#DejaVuSans-30" transform="translate(63.623047 0.765625)"/>
       <use xlink:href="#DejaVuSans-30" transform="translate(128.203125 39.046875) scale(0.7)"/>
      </g>
     </g>
    </g>
    <g id="ytick_3">
     <g id="line2d_37">
      <path d="M 44.7425 15.1788 
L 242.2745 15.1788 
" clip-path="url(#p18b533a20d)" style="fill: none; stroke: #d9d9d9; stroke-width: 0.8; stroke-linecap: square"/>
     </g>
     <g id="line2d_38">
      <g>
       <use xlink:href="#m83b98e2346" x="44.7425" y="15.1788" style="stroke: #000000; stroke-width: 0.8"/>
      </g>
     </g>
     <g id="text_6">
      <!-- $\mathdefault{10^{1}}$ -->
      <g transform="translate(23.6625 18.218175) scale(0.08 -0.08)">
       <use xlink:href="#DejaVuSans-31" transform="translate(0 0.684375)"/>
       <use xlink:href="#DejaVuSans-30" transform="translate(63.623047 0.684375)"/>
       <use xlink:href="#DejaVuSans-31" transform="translate(128.203125 38.965625) scale(0.7)"/>
      </g>
     </g>
    </g>
    <g id="ytick_4">
     <g id="line2d_39">
      <path d="M 44.7425 136.887363 
L 242.2745 136.887363 
" clip-path="url(#p18b533a20d)" style="fill: none; stroke-dasharray: 2.96,1.28; stroke-dashoffset: 0; stroke: #f2f2f2; stroke-width: 0.8"/>
     </g>
     <g id="line2d_40">
      <defs>
       <path id="m99dbb5b954" d="M 0 0 
L -2 0 
" style="stroke: #000000; stroke-width: 0.6"/>
      </defs>
      <g>
       <use xlink:href="#m99dbb5b954" x="44.7425" y="136.887363" style="stroke: #000000; stroke-width: 0.6"/>
      </g>
     </g>
    </g>
    <g id="ytick_5">
     <g id="line2d_41">
      <path d="M 44.7425 128.946625 
L 242.2745 128.946625 
" clip-path="url(#p18b533a20d)" style="fill: none; stroke-dasharray: 2.96,1.28; stroke-dashoffset: 0; stroke: #f2f2f2; stroke-width: 0.8"/>
     </g>
     <g id="line2d_42">
      <g>
       <use xlink:href="#m99dbb5b954" x="44.7425" y="128.946625" style="stroke: #000000; stroke-width: 0.6"/>
      </g>
     </g>
    </g>
    <g id="ytick_6">
     <g id="line2d_43">
      <path d="M 44.7425 123.312581 
L 242.2745 123.312581 
" clip-path="url(#p18b533a20d)" style="fill: none; stroke-dasharray: 2.96,1.28; stroke-dashoffset: 0; stroke: #f2f2f2; stroke-width: 0.8"/>
     </g>
     <g id="line2d_44">
      <g>
       <use xlink:href="#m99dbb5b954" x="44.7425" y="123.312581" style="stroke: #000000; stroke-width: 0.6"/>
      </g>
     </g>
    </g>
    <g id="ytick_7">
     <g id="line2d_45">
      <path d="M 44.7425 118.942478 
L 242.2745 118.942478 
" clip-path="url(#p18b533a20d)" style="fill: none; stroke-dasharray: 2.96,1.28; stroke-dashoffset: 0; stroke: #f2f2f2; stroke-width: 0.8"/>
     </g>
     <g id="line2d_46">
      <g>
       <use xlink:href="#m99dbb5b954" x="44.7425" y="118.942478" style="stroke: #000000; stroke-width: 0.6"/>
      </g>
     </g>
    </g>
    <g id="ytick_8">
     <g id="line2d_47">
      <path d="M 44.7425 115.371843 
L 242.2745 115.371843 
" clip-path="url(#p18b533a20d)" style="fill: none; stroke-dasharray: 2.96,1.28; stroke-dashoffset: 0; stroke: #f2f2f2; stroke-width: 0.8"/>
     </g>
     <g id="line2d_48">
      <g>
       <use xlink:href="#m99dbb5b954" x="44.7425" y="115.371843" style="stroke: #000000; stroke-width: 0.6"/>
      </g>
     </g>
    </g>
    <g id="ytick_9">
     <g id="line2d_49">
      <path d="M 44.7425 112.352915 
L 242.2745 112.352915 
" clip-path="url(#p18b533a20d)" style="fill: none; stroke-dasharray: 2.96,1.28; stroke-dashoffset: 0; stroke: #f2f2f2; stroke-width: 0.8"/>
     </g>
     <g id="line2d_50">
      <g>
       <use xlink:href="#m99dbb5b954" x="44.7425" y="112.352915" style="stroke: #000000; stroke-width: 0.6"/>
      </g>
     </g>
    </g>
    <g id="ytick_10">
     <g id="line2d_51">
      <path d="M 44.7425 109.7378 
L 242.2745 109.7378 
" clip-path="url(#p18b533a20d)" style="fill: none; stroke-dasharray: 2.96,1.28; stroke-dashoffset: 0; stroke: #f2f2f2; stroke-width: 0.8"/>
     </g>
     <g id="line2d_52">
      <g>
       <use xlink:href="#m99dbb5b954" x="44.7425" y="109.7378" style="stroke: #000000; stroke-width: 0.6"/>
      </g>
     </g>
    </g>
    <g id="ytick_11">
     <g id="line2d_53">
      <path d="M 44.7425 107.431105 
L 242.2745 107.431105 
" clip-path="url(#p18b533a20d)" style="fill: none; stroke-dasharray: 2.96,1.28; stroke-dashoffset: 0; stroke: #f2f2f2; stroke-width: 0.8"/>
     </g>
     <g id="line2d_54">
      <g>
       <use xlink:href="#m99dbb5b954" x="44.7425" y="107.431105" style="stroke: #000000; stroke-width: 0.6"/>
      </g>
     </g>
    </g>
    <g id="ytick_12">
     <g id="line2d_55">
      <path d="M 44.7425 91.792915 
L 242.2745 91.792915 
" clip-path="url(#p18b533a20d)" style="fill: none; stroke-dasharray: 2.96,1.28; stroke-dashoffset: 0; stroke: #f2f2f2; stroke-width: 0.8"/>
     </g>
     <g id="line2d_56">
      <g>
       <use xlink:href="#m99dbb5b954" x="44.7425" y="91.792915" style="stroke: #000000; stroke-width: 0.6"/>
      </g>
     </g>
    </g>
    <g id="ytick_13">
     <g id="line2d_57">
      <path d="M 44.7425 83.852176 
L 242.2745 83.852176 
" clip-path="url(#p18b533a20d)" style="fill: none; stroke-dasharray: 2.96,1.28; stroke-dashoffset: 0; stroke: #f2f2f2; stroke-width: 0.8"/>
     </g>
     <g id="line2d_58">
      <g>
       <use xlink:href="#m99dbb5b954" x="44.7425" y="83.852176" style="stroke: #000000; stroke-width: 0.6"/>
      </g>
     </g>
    </g>
    <g id="ytick_14">
     <g id="line2d_59">
      <path d="M 44.7425 78.218133 
L 242.2745 78.218133 
" clip-path="url(#p18b533a20d)" style="fill: none; stroke-dasharray: 2.96,1.28; stroke-dashoffset: 0; stroke: #f2f2f2; stroke-width: 0.8"/>
     </g>
     <g id="line2d_60">
      <g>
       <use xlink:href="#m99dbb5b954" x="44.7425" y="78.218133" style="stroke: #000000; stroke-width: 0.6"/>
      </g>
     </g>
    </g>
    <g id="ytick_15">
     <g id="line2d_61">
      <path d="M 44.7425 73.84803 
L 242.2745 73.84803 
" clip-path="url(#p18b533a20d)" style="fill: none; stroke-dasharray: 2.96,1.28; stroke-dashoffset: 0; stroke: #f2f2f2; stroke-width: 0.8"/>
     </g>
     <g id="line2d_62">
      <g>
       <use xlink:href="#m99dbb5b954" x="44.7425" y="73.84803" style="stroke: #000000; stroke-width: 0.6"/>
      </g>
     </g>
    </g>
    <g id="ytick_16">
     <g id="line2d_63">
      <path d="M 44.7425 70.277395 
L 242.2745 70.277395 
" clip-path="url(#p18b533a20d)" style="fill: none; stroke-dasharray: 2.96,1.28; stroke-dashoffset: 0; stroke: #f2f2f2; stroke-width: 0.8"/>
     </g>
     <g id="line2d_64">
      <g>
       <use xlink:href="#m99dbb5b954" x="44.7425" y="70.277395" style="stroke: #000000; stroke-width: 0.6"/>
      </g>
     </g>
    </g>
    <g id="ytick_17">
     <g id="line2d_65">
      <path d="M 44.7425 67.258466 
L 242.2745 67.258466 
" clip-path="url(#p18b533a20d)" style="fill: none; stroke-dasharray: 2.96,1.28; stroke-dashoffset: 0; stroke: #f2f2f2; stroke-width: 0.8"/>
     </g>
     <g id="line2d_66">
      <g>
       <use xlink:href="#m99dbb5b954" x="44.7425" y="67.258466" style="stroke: #000000; stroke-width: 0.6"/>
      </g>
     </g>
    </g>
    <g id="ytick_18">
     <g id="line2d_67">
      <path d="M 44.7425 64.643352 
L 242.2745 64.643352 
" clip-path="url(#p18b533a20d)" style="fill: none; stroke-dasharray: 2.96,1.28; stroke-dashoffset: 0; stroke: #f2f2f2; stroke-width: 0.8"/>
     </g>
     <g id="line2d_68">
      <g>
       <use xlink:href="#m99dbb5b954" x="44.7425" y="64.643352" style="stroke: #000000; stroke-width: 0.6"/>
      </g>
     </g>
    </g>
    <g id="ytick_19">
     <g id="line2d_69">
      <path d="M 44.7425 62.336657 
L 242.2745 62.336657 
" clip-path="url(#p18b533a20d)" style="fill: none; stroke-dasharray: 2.96,1.28; stroke-dashoffset: 0; stroke: #f2f2f2; stroke-width: 0.8"/>
     </g>
     <g id="line2d_70">
      <g>
       <use xlink:href="#m99dbb5b954" x="44.7425" y="62.336657" style="stroke: #000000; stroke-width: 0.6"/>
      </g>
     </g>
    </g>
    <g id="ytick_20">
     <g id="line2d_71">
      <path d="M 44.7425 46.698466 
L 242.2745 46.698466 
" clip-path="url(#p18b533a20d)" style="fill: none; stroke-dasharray: 2.96,1.28; stroke-dashoffset: 0; stroke: #f2f2f2; stroke-width: 0.8"/>
     </g>
     <g id="line2d_72">
      <g>
       <use xlink:href="#m99dbb5b954" x="44.7425" y="46.698466" style="stroke: #000000; stroke-width: 0.6"/>
      </g>
     </g>
    </g>
    <g id="ytick_21">
     <g id="line2d_73">
      <path d="M 44.7425 38.757728 
L 242.2745 38.757728 
" clip-path="url(#p18b533a20d)" style="fill: none; stroke-dasharray: 2.96,1.28; stroke-dashoffset: 0; stroke: #f2f2f2; stroke-width: 0.8"/>
     </g>
     <g id="line2d_74">
      <g>
       <use xlink:href="#m99dbb5b954" x="44.7425" y="38.757728" style="stroke: #000000; stroke-width: 0.6"/>
      </g>
     </g>
    </g>
    <g id="ytick_22">
     <g id="line2d_75">
      <path d="M 44.7425 33.123685 
L 242.2745 33.123685 
" clip-path="url(#p18b533a20d)" style="fill: none; stroke-dasharray: 2.96,1.28; stroke-dashoffset: 0; stroke: #f2f2f2; stroke-width: 0.8"/>
     </g>
     <g id="line2d_76">
      <g>
       <use xlink:href="#m99dbb5b954" x="44.7425" y="33.123685" style="stroke: #000000; stroke-width: 0.6"/>
      </g>
     </g>
    </g>
    <g id="ytick_23">
     <g id="line2d_77">
      <path d="M 44.7425 28.753581 
L 242.2745 28.753581 
" clip-path="url(#p18b533a20d)" style="fill: none; stroke-dasharray: 2.96,1.28; stroke-dashoffset: 0; stroke: #f2f2f2; stroke-width: 0.8"/>
     </g>
     <g id="line2d_78">
      <g>
       <use xlink:href="#m99dbb5b954" x="44.7425" y="28.753581" style="stroke: #000000; stroke-width: 0.6"/>
      </g>
     </g>
    </g>
    <g id="ytick_24">
     <g id="line2d_79">
      <path d="M 44.7425 25.182947 
L 242.2745 25.182947 
" clip-path="url(#p18b533a20d)" style="fill: none; stroke-dasharray: 2.96,1.28; stroke-dashoffset: 0; stroke: #f2f2f2; stroke-width: 0.8"/>
     </g>
     <g id="line2d_80">
      <g>
       <use xlink:href="#m99dbb5b954" x="44.7425" y="25.182947" style="stroke: #000000; stroke-width: 0.6"/>
      </g>
     </g>
    </g>
    <g id="ytick_25">
     <g id="line2d_81">
      <path d="M 44.7425 22.164018 
L 242.2745 22.164018 
" clip-path="url(#p18b533a20d)" style="fill: none; stroke-dasharray: 2.96,1.28; stroke-dashoffset: 0; stroke: #f2f2f2; stroke-width: 0.8"/>
     </g>
     <g id="line2d_82">
      <g>
       <use xlink:href="#m99dbb5b954" x="44.7425" y="22.164018" style="stroke: #000000; stroke-width: 0.6"/>
      </g>
     </g>
    </g>
    <g id="ytick_26">
     <g id="line2d_83">
      <path d="M 44.7425 19.548903 
L 242.2745 19.548903 
" clip-path="url(#p18b533a20d)" style="fill: none; stroke-dasharray: 2.96,1.28; stroke-dashoffset: 0; stroke: #f2f2f2; stroke-width: 0.8"/>
     </g>
     <g id="line2d_84">
      <g>
       <use xlink:href="#m99dbb5b954" x="44.7425" y="19.548903" style="stroke: #000000; stroke-width: 0.6"/>
      </g>
     </g>
    </g>
    <g id="ytick_27">
     <g id="line2d_85">
      <path d="M 44.7425 17.242209 
L 242.2745 17.242209 
" clip-path="url(#p18b533a20d)" style="fill: none; stroke-dasharray: 2.96,1.28; stroke-dashoffset: 0; stroke: #f2f2f2; stroke-width: 0.8"/>
     </g>
     <g id="line2d_86">
      <g>
       <use xlink:href="#m99dbb5b954" x="44.7425" y="17.242209" style="stroke: #000000; stroke-width: 0.6"/>
      </g>
     </g>
    </g>
    <g id="text_7">
     <!-- Spectral acceleration, SA (g) -->
     <g transform="translate(13.27875 129.871075) rotate(-90) scale(0.08 -0.08)">
      <defs>
       <path id="DejaVuSans-53" d="M 3425 4513 
L 3425 3897 
Q 3066 4069 2747 4153 
Q 2428 4238 2131 4238 
Q 1616 4238 1336 4038 
Q 1056 3838 1056 3469 
Q 1056 3159 1242 3001 
Q 1428 2844 1947 2747 
L 2328 2669 
Q 3034 2534 3370 2195 
Q 3706 1856 3706 1288 
Q 3706 609 3251 259 
Q 2797 -91 1919 -91 
Q 1588 -91 1214 -16 
Q 841 59 441 206 
L 441 856 
Q 825 641 1194 531 
Q 1563 422 1919 422 
Q 2459 422 2753 634 
Q 3047 847 3047 1241 
Q 3047 1584 2836 1778 
Q 2625 1972 2144 2069 
L 1759 2144 
Q 1053 2284 737 2584 
Q 422 2884 422 3419 
Q 422 4038 858 4394 
Q 1294 4750 2059 4750 
Q 2388 4750 2728 4690 
Q 3069 4631 3425 4513 
z
" transform="scale(0.015625)"/>
       <path id="DejaVuSans-70" d="M 1159 525 
L 1159 -1331 
L 581 -1331 
L 581 3500 
L 1159 3500 
L 1159 2969 
Q 1341 3281 1617 3432 
Q 1894 3584 2278 3584 
Q 2916 3584 3314 3078 
Q 3713 2572 3713 1747 
Q 3713 922 3314 415 
Q 2916 -91 2278 -91 
Q 1894 -91 1617 61 
Q 1341 213 1159 525 
z
M 3116 1747 
Q 3116 2381 2855 2742 
Q 2594 3103 2138 3103 
Q 1681 3103 1420 2742 
Q 1159 2381 1159 1747 
Q 1159 1113 1420 752 
Q 1681 391 2138 391 
Q 2594 391 2855 752 
Q 3116 1113 3116 1747 
z
" transform="scale(0.015625)"/>
       <path id="DejaVuSans-63" d="M 3122 3366 
L 3122 2828 
Q 2878 2963 2633 3030 
Q 2388 3097 2138 3097 
Q 1578 3097 1268 2742 
Q 959 2388 959 1747 
Q 959 1106 1268 751 
Q 1578 397 2138 397 
Q 2388 397 2633 464 
Q 2878 531 3122 666 
L 3122 134 
Q 2881 22 2623 -34 
Q 2366 -91 2075 -91 
Q 1284 -91 818 406 
Q 353 903 353 1747 
Q 353 2603 823 3093 
Q 1294 3584 2113 3584 
Q 2378 3584 2631 3529 
Q 2884 3475 3122 3366 
z
" transform="scale(0.015625)"/>
       <path id="DejaVuSans-74" d="M 1172 4494 
L 1172 3500 
L 2356 3500 
L 2356 3053 
L 1172 3053 
L 1172 1153 
Q 1172 725 1289 603 
Q 1406 481 1766 481 
L 2356 481 
L 2356 0 
L 1766 0 
Q 1100 0 847 248 
Q 594 497 594 1153 
L 594 3053 
L 172 3053 
L 172 3500 
L 594 3500 
L 594 4494 
L 1172 4494 
z
" transform="scale(0.015625)"/>
       <path id="DejaVuSans-61" d="M 2194 1759 
Q 1497 1759 1228 1600 
Q 959 1441 959 1056 
Q 959 750 1161 570 
Q 1363 391 1709 391 
Q 2188 391 2477 730 
Q 2766 1069 2766 1631 
L 2766 1759 
L 2194 1759 
z
M 3341 1997 
L 3341 0 
L 2766 0 
L 2766 531 
Q 2569 213 2275 61 
Q 1981 -91 1556 -91 
Q 1019 -91 701 211 
Q 384 513 384 1019 
Q 384 1609 779 1909 
Q 1175 2209 1959 2209 
L 2766 2209 
L 2766 2266 
Q 2766 2663 2505 2880 
Q 2244 3097 1772 3097 
Q 1472 3097 1187 3025 
Q 903 2953 641 2809 
L 641 3341 
Q 956 3463 1253 3523 
Q 1550 3584 1831 3584 
Q 2591 3584 2966 3190 
Q 3341 2797 3341 1997 
z
" transform="scale(0.015625)"/>
       <path id="DejaVuSans-6c" d="M 603 4863 
L 1178 4863 
L 1178 0 
L 603 0 
L 603 4863 
z
" transform="scale(0.015625)"/>
       <path id="DejaVuSans-6e" d="M 3513 2113 
L 3513 0 
L 2938 0 
L 2938 2094 
Q 2938 2591 2744 2837 
Q 2550 3084 2163 3084 
Q 1697 3084 1428 2787 
Q 1159 2491 1159 1978 
L 1159 0 
L 581 0 
L 581 3500 
L 1159 3500 
L 1159 2956 
Q 1366 3272 1645 3428 
Q 1925 3584 2291 3584 
Q 2894 3584 3203 3211 
Q 3513 2838 3513 2113 
z
" transform="scale(0.015625)"/>
       <path id="DejaVuSans-41" d="M 2188 4044 
L 1331 1722 
L 3047 1722 
L 2188 4044 
z
M 1831 4666 
L 2547 4666 
L 4325 0 
L 3669 0 
L 3244 1197 
L 1141 1197 
L 716 0 
L 50 0 
L 1831 4666 
z
" transform="scale(0.015625)"/>
       <path id="DejaVuSans-67" d="M 2906 1791 
Q 2906 2416 2648 2759 
Q 2391 3103 1925 3103 
Q 1463 3103 1205 2759 
Q 947 2416 947 1791 
Q 947 1169 1205 825 
Q 1463 481 1925 481 
Q 2391 481 2648 825 
Q 2906 1169 2906 1791 
z
M 3481 434 
Q 3481 -459 3084 -895 
Q 2688 -1331 1869 -1331 
Q 1566 -1331 1297 -1286 
Q 1028 -1241 775 -1147 
L 775 -588 
Q 1028 -725 1275 -790 
Q 1522 -856 1778 -856 
Q 2344 -856 2625 -561 
Q 2906 -266 2906 331 
L 2906 616 
Q 2728 306 2450 153 
Q 2172 0 1784 0 
Q 1141 0 747 490 
Q 353 981 353 1791 
Q 353 2603 747 3093 
Q 1141 3584 1784 3584 
Q 2172 3584 2450 3431 
Q 2728 3278 2906 2969 
L 2906 3500 
L 3481 3500 
L 3481 434 
z
" transform="scale(0.015625)"/>
      </defs>
      <use xlink:href="#DejaVuSans-53"/>
      <use xlink:href="#DejaVuSans-70" x="63.476562"/>
      <use xlink:href="#DejaVuSans-65" x="126.953125"/>
      <use xlink:href="#DejaVuSans-63" x="188.476562"/>
      <use xlink:href="#DejaVuSans-74" x="243.457031"/>
      <use xlink:href="#DejaVuSans-72" x="282.666016"/>
      <use xlink:href="#DejaVuSans-61" x="323.779297"/>
      <use xlink:href="#DejaVuSans-6c" x="385.058594"/>
      <use xlink:href="#DejaVuSans-20" x="412.841797"/>
      <use xlink:href="#DejaVuSans-61" x="444.628906"/>
      <use xlink:href="#DejaVuSans-63" x="505.908203"/>
      <use xlink:href="#DejaVuSans-63" x="560.888672"/>
      <use xlink:href="#DejaVuSans-65" x="615.869141"/>
      <use xlink:href="#DejaVuSans-6c" x="677.392578"/>
      <use xlink:href="#DejaVuSans-65" x="705.175781"/>
      <use xlink:href="#DejaVuSans-72" x="766.699219"/>
      <use xlink:href="#DejaVuSans-61" x="807.8125"/>
      <use xlink:href="#DejaVuSans-74" x="869.091797"/>
      <use xlink:href="#DejaVuSans-69" x="908.300781"/>
      <use xlink:href="#DejaVuSans-6f" x="936.083984"/>
      <use xlink:href="#DejaVuSans-6e" x="997.265625"/>
      <use xlink:href="#DejaVuSans-2c" x="1060.644531"/>
      <use xlink:href="#DejaVuSans-20" x="1092.431641"/>
      <use xlink:href="#DejaVuSans-53" x="1124.21875"/>
      <use xlink:href="#DejaVuSans-41" x="1189.570312"/>
      <use xlink:href="#DejaVuSans-20" x="1257.978516"/>
      <use xlink:href="#DejaVuSans-28" x="1289.765625"/>
      <use xlink:href="#DejaVuSans-67" x="1328.779297"/>
      <use xlink:href="#DejaVuSans-29" x="1392.255859"/>
     </g>
    </g>
   </g>
   <g id="line2d_87">
    <path d="M 53.721227 63.595186 
L 72.333391 59.031253 
L 85.538931 57.450238 
L 95.781944 52.274247 
L 104.151095 56.599931 
L 117.356635 48.983195 
L 127.599648 44.315177 
L 128.328286 45.465151 
L 146.211812 62.641117 
L 159.417352 69.887833 
L 171.460723 71.578046 
L 178.029516 73.131096 
L 191.235056 85.050718 
L 209.84722 87.552647 
L 223.05276 88.707417 
L 233.295773 99.359077 
" clip-path="url(#p18b533a20d)" style="fill: none; stroke: #b2b2b2; stroke-width: 0.8; stroke-linecap: square"/>
   </g>
   <g id="line2d_88">
    <path d="M 53.721227 68.77191 
L 72.333391 62.222123 
L 85.538931 57.620018 
L 95.781944 55.346226 
L 104.151095 53.585975 
L 117.356635 46.270582 
L 127.599648 45.056501 
L 128.328286 45.465151 
L 146.211812 62.123882 
L 159.417352 55.852619 
L 171.460723 59.486871 
L 178.029516 64.168706 
L 191.235056 69.993795 
L 209.84722 77.64696 
L 223.05276 83.160582 
L 233.295773 93.974374 
" clip-path="url(#p18b533a20d)" style="fill: none; stroke: #b2b2b2; stroke-width: 0.8; stroke-linecap: square"/>
   </g>
   <g id="line2d_89">
    <path d="M 53.721227 52.137932 
L 72.333391 48.036312 
L 85.538931 50.306231 
L 95.781944 42.825817 
L 104.151095 54.99914 
L 117.356635 48.496435 
L 127.599648 45.47301 
L 128.328286 45.465151 
L 146.211812 57.38932 
L 159.417352 70.179437 
L 171.460723 83.560059 
L 178.029516 91.859242 
L 191.235056 105.905193 
L 209.84722 116.835878 
L 223.05276 124.647055 
L 233.295773 132.0912 
" clip-path="url(#p18b533a20d)" style="fill: none; stroke: #b2b2b2; stroke-width: 0.8; stroke-linecap: square"/>
   </g>
   <g id="line2d_90">
    <path d="M 53.721227 63.656897 
L 72.333391 62.248147 
L 85.538931 55.712026 
L 95.781944 50.000069 
L 104.151095 54.783228 
L 117.356635 45.588078 
L 127.599648 45.551586 
L 128.328286 45.465151 
L 146.211812 58.599578 
L 159.417352 65.165217 
L 171.460723 71.704583 
L 178.029516 79.239474 
L 191.235056 84.265786 
L 209.84722 83.22897 
L 223.05276 100.833111 
L 233.295773 100.12092 
" clip-path="url(#p18b533a20d)" style="fill: none; stroke: #b2b2b2; stroke-width: 0.8; stroke-linecap: square"/>
   </g>
   <g id="line2d_91">
    <path d="M 53.721227 55.749329 
L 72.333391 51.754083 
L 85.538931 52.205806 
L 95.781944 48.995833 
L 104.151095 44.607172 
L 117.356635 41.52275 
L 127.599648 44.306719 
L 128.328286 45.465151 
L 146.211812 64.217005 
L 159.417352 67.52497 
L 171.460723 63.06335 
L 178.029516 65.842939 
L 191.235056 82.394495 
L 209.84722 90.776076 
L 223.05276 96.031483 
L 233.295773 113.433116 
" clip-path="url(#p18b533a20d)" style="fill: none; stroke: #b2b2b2; stroke-width: 0.8; stroke-linecap: square"/>
   </g>
   <g id="line2d_92">
    <path d="M 53.721227 41.349517 
L 72.333391 43.11307 
L 85.538931 41.980814 
L 95.781944 42.515754 
L 104.151095 45.677865 
L 117.356635 46.94225 
L 127.599648 44.637418 
L 128.328286 45.465151 
L 146.211812 57.663215 
L 159.417352 62.373031 
L 171.460723 66.615984 
L 178.029516 72.035671 
L 191.235056 73.094662 
L 209.84722 73.785164 
L 223.05276 88.240888 
L 233.295773 93.775401 
" clip-path="url(#p18b533a20d)" style="fill: none; stroke: #b2b2b2; stroke-width: 0.8; stroke-linecap: square"/>
   </g>
   <g id="line2d_93">
    <path d="M 53.721227 60.057472 
L 72.333391 55.600313 
L 85.538931 45.994899 
L 95.781944 50.163534 
L 104.151095 49.323495 
L 117.356635 48.694103 
L 127.599648 44.839552 
L 128.328286 45.465151 
L 146.211812 52.950196 
L 159.417352 52.378589 
L 171.460723 61.110051 
L 178.029516 70.651114 
L 191.235056 82.213667 
L 209.84722 86.494243 
L 223.05276 90.70396 
L 233.295773 102.537087 
" clip-path="url(#p18b533a20d)" style="fill: none; stroke: #b2b2b2; stroke-width: 0.8; stroke-linecap: square"/>
   </g>
   <g id="line2d_94">
    <path d="M 53.721227 42.946823 
L 72.333391 56.123714 
L 85.538931 53.057542 
L 95.781944 50.352611 
L 104.151095 56.601206 
L 117.356635 50.046221 
L 127.599648 45.141339 
L 128.328286 45.465151 
L 146.211812 53.084552 
L 159.417352 50.528502 
L 171.460723 47.923185 
L 178.029516 51.383291 
L 191.235056 60.923704 
L 209.84722 75.494633 
L 223.05276 84.324352 
L 233.295773 92.44935 
" clip-path="url(#p18b533a20d)" style="fill: none; stroke: #b2b2b2; stroke-width: 0.8; stroke-linecap: square"/>
   </g>
   <g id="line2d_95">
    <path d="M 53.721227 53.833599 
L 72.333391 45.687237 
L 85.538931 47.65848 
L 95.781944 47.644693 
L 104.151095 39.934709 
L 117.356635 46.690189 
L 127.599648 45.125493 
L 128.328286 45.465151 
L 146.211812 54.174397 
L 159.417352 55.790663 
L 171.460723 62.980905 
L 178.029516 68.968062 
L 191.235056 73.271219 
L 209.84722 68.760329 
L 223.05276 71.159889 
L 233.295773 76.835732 
" clip-path="url(#p18b533a20d)" style="fill: none; stroke: #b2b2b2; stroke-width: 0.8; stroke-linecap: square"/>
   </g>
   <g id="line2d_96">
    <path d="M 53.721227 57.316375 
L 72.333391 50.248831 
L 85.538931 44.988476 
L 95.781944 46.025019 
L 104.151095 46.102432 
L 117.356635 45.149271 
L 127.599648 45.093578 
L 128.328286 45.465151 
L 146.211812 44.294601 
L 159.417352 41.91281 
L 171.460723 52.889373 
L 178.029516 56.575751 
L 191.235056 69.69649 
L 209.84722 81.522061 
L 223.05276 98.746616 
L 233.295773 108.059364 
" clip-path="url(#p18b533a20d)" style="fill: none; stroke: #b2b2b2; stroke-width: 0.8; stroke-linecap: square"/>
   </g>
   <g id="line2d_97">
    <path d="M 53.721227 50.573827 
L 72.333391 43.219476 
L 85.538931 46.121134 
L 95.781944 35.675565 
L 104.151095 32.716858 
L 117.356635 44.510013 
L 127.599648 46.279407 
L 128.328286 45.465151 
L 146.211812 56.59744 
L 159.417352 55.817674 
L 171.460723 55.747334 
L 178.029516 62.637106 
L 191.235056 76.211479 
L 209.84722 86.354453 
L 223.05276 95.524454 
L 233.295773 107.486031 
" clip-path="url(#p18b533a20d)" style="fill: none; stroke: #b2b2b2; stroke-width: 0.8; stroke-linecap: square"/>
   </g>
   <g id="line2d_98">
    <path d="M 53.721227 54.528368 
L 72.333391 45.83987 
L 85.538931 42.9857 
L 95.781944 41.279364 
L 104.151095 36.563007 
L 117.356635 41.270899 
L 127.599648 45.134853 
L 128.328286 45.465151 
L 146.211812 52.503279 
L 159.417352 60.34411 
L 171.460723 66.967033 
L 178.029516 69.350997 
L 191.235056 86.331096 
L 209.84722 89.030623 
L 223.05276 88.460379 
L 233.295773 105.751771 
" clip-path="url(#p18b533a20d)" style="fill: none; stroke: #b2b2b2; stroke-width: 0.8; stroke-linecap: square"/>
   </g>
   <g id="line2d_99">
    <path d="M 53.721227 51.651756 
L 72.333391 48.390033 
L 85.538931 51.341037 
L 95.781944 41.461767 
L 104.151095 45.90008 
L 117.356635 48.459588 
L 127.599648 45.086479 
L 128.328286 45.465151 
L 146.211812 49.866887 
L 159.417352 48.572367 
L 171.460723 64.361046 
L 178.029516 64.136782 
L 191.235056 63.595314 
L 209.84722 61.784899 
L 223.05276 82.008806 
L 233.295773 92.593328 
" clip-path="url(#p18b533a20d)" style="fill: none; stroke: #b2b2b2; stroke-width: 0.8; stroke-linecap: square"/>
   </g>
   <g id="line2d_100">
    <path d="M 53.721227 62.056219 
L 72.333391 55.587652 
L 85.538931 58.560747 
L 95.781944 48.563276 
L 104.151095 44.416717 
L 117.356635 47.279347 
L 127.599648 46.807832 
L 128.328286 45.465151 
L 146.211812 41.55031 
L 159.417352 56.420764 
L 171.460723 52.228688 
L 178.029516 49.396882 
L 191.235056 55.975263 
L 209.84722 72.13679 
L 223.05276 90.385486 
L 233.295773 100.553323 
" clip-path="url(#p18b533a20d)" style="fill: none; stroke: #b2b2b2; stroke-width: 0.8; stroke-linecap: square"/>
   </g>
   <g id="line2d_101">
    <path d="M 53.721227 58.554686 
L 72.333391 56.461727 
L 85.538931 61.390005 
L 95.781944 62.832738 
L 104.151095 58.746812 
L 117.356635 52.141183 
L 127.599648 44.891176 
L 128.328286 45.465151 
L 146.211812 44.148561 
L 159.417352 56.832955 
L 171.460723 62.700379 
L 178.029516 65.874638 
L 191.235056 65.888284 
L 209.84722 85.934517 
L 223.05276 91.950905 
L 233.295773 97.300028 
" clip-path="url(#p18b533a20d)" style="fill: none; stroke: #b2b2b2; stroke-width: 0.8; stroke-linecap: square"/>
   </g>
   <g id="line2d_102">
    <path d="M 53.721227 27.259507 
L 72.333391 30.763424 
L 85.538931 33.959105 
L 95.781944 26.109293 
L 104.151095 42.948233 
L 117.356635 42.04499 
L 127.599648 45.958583 
L 128.328286 45.465151 
L 146.211812 54.636532 
L 159.417352 59.472412 
L 171.460723 60.219563 
L 178.029516 58.843024 
L 191.235056 67.82199 
L 209.84722 88.423807 
L 223.05276 98.269287 
L 233.295773 109.689391 
" clip-path="url(#p18b533a20d)" style="fill: none; stroke: #b2b2b2; stroke-width: 0.8; stroke-linecap: square"/>
   </g>
   <g id="line2d_103">
    <path d="M 53.721227 61.40792 
L 72.333391 55.231904 
L 85.538931 51.236588 
L 95.781944 46.676017 
L 104.151095 36.871331 
L 117.356635 38.81431 
L 127.599648 45.590728 
L 128.328286 45.465151 
L 146.211812 50.631463 
L 159.417352 53.798976 
L 171.460723 57.095659 
L 178.029516 57.531771 
L 191.235056 59.377193 
L 209.84722 70.829143 
L 223.05276 84.530985 
L 233.295773 97.543912 
" clip-path="url(#p18b533a20d)" style="fill: none; stroke: #b2b2b2; stroke-width: 0.8; stroke-linecap: square"/>
   </g>
   <g id="line2d_104">
    <path d="M 53.721227 57.617258 
L 72.333391 55.210508 
L 85.538931 52.259606 
L 95.781944 51.049872 
L 104.151095 49.35664 
L 117.356635 50.883347 
L 127.599648 46.393242 
L 128.328286 45.465151 
L 146.211812 43.298434 
L 159.417352 63.454779 
L 171.460723 73.048527 
L 178.029516 65.799747 
L 191.235056 74.302377 
L 209.84722 73.929101 
L 223.05276 76.082486 
L 233.295773 80.672655 
" clip-path="url(#p18b533a20d)" style="fill: none; stroke: #b2b2b2; stroke-width: 0.8; stroke-linecap: square"/>
   </g>
   <g id="line2d_105">
    <path d="M 53.721227 58.520737 
L 72.333391 53.965311 
L 85.538931 41.891476 
L 95.781944 46.507875 
L 104.151095 45.6077 
L 117.356635 42.399052 
L 127.599648 44.504921 
L 128.328286 45.465151 
L 146.211812 63.415389 
L 159.417352 69.168967 
L 171.460723 66.682146 
L 178.029516 76.068388 
L 191.235056 79.889651 
L 209.84722 87.585526 
L 223.05276 101.432916 
L 233.295773 111.176678 
" clip-path="url(#p18b533a20d)" style="fill: none; stroke: #b2b2b2; stroke-width: 0.8; stroke-linecap: square"/>
   </g>
   <g id="line2d_106">
    <path d="M 53.721227 55.209949 
L 72.333391 49.811926 
L 85.538931 42.621468 
L 95.781944 41.515017 
L 104.151095 43.197721 
L 117.356635 45.750588 
L 127.599648 45.809962 
L 128.328286 45.465151 
L 146.211812 46.204102 
L 159.417352 44.098136 
L 171.460723 47.418166 
L 178.029516 55.40033 
L 191.235056 65.770782 
L 209.84722 79.800411 
L 223.05276 87.687111 
L 233.295773 91.436535 
" clip-path="url(#p18b533a20d)" style="fill: none; stroke: #b2b2b2; stroke-width: 0.8; stroke-linecap: square"/>
   </g>
   <g id="line2d_107">
    <path d="M 53.721227 54.189026 
L 72.333391 52.233787 
L 85.538931 47.158772 
L 95.781944 42.825059 
L 104.151095 39.194658 
L 117.356635 44.117135 
L 127.599648 46.310668 
L 128.328286 45.465151 
L 146.211812 54.392339 
L 159.417352 75.130948 
L 171.460723 83.947681 
L 178.029516 78.550174 
L 191.235056 81.333287 
L 209.84722 97.587572 
L 223.05276 105.998912 
L 233.295773 110.624351 
" clip-path="url(#p18b533a20d)" style="fill: none; stroke: #b2b2b2; stroke-width: 0.8; stroke-linecap: square"/>
   </g>
   <g id="line2d_108">
    <path d="M 53.721227 47.195129 
L 72.333391 39.666115 
L 85.538931 35.864134 
L 95.781944 31.87796 
L 104.151095 36.755679 
L 117.356635 46.438543 
L 127.599648 44.936121 
L 128.328286 45.465151 
L 146.211812 55.654898 
L 159.417352 52.479779 
L 171.460723 66.874773 
L 178.029516 61.856859 
L 191.235056 73.120164 
L 209.84722 82.61173 
L 223.05276 96.504899 
L 233.295773 101.83467 
" clip-path="url(#p18b533a20d)" style="fill: none; stroke: #b2b2b2; stroke-width: 0.8; stroke-linecap: square"/>
   </g>
   <g id="line2d_109">
    <path d="M 53.721227 48.593373 
L 72.333391 44.957343 
L 85.538931 45.414638 
L 95.781944 50.979461 
L 104.151095 49.879868 
L 117.356635 45.06459 
L 127.599648 44.92971 
L 128.328286 45.465151 
L 146.211812 61.209374 
L 159.417352 61.337737 
L 171.460723 64.477508 
L 178.029516 71.218225 
L 191.235056 70.937691 
L 209.84722 77.608099 
L 223.05276 73.398507 
L 233.295773 74.25353 
" clip-path="url(#p18b533a20d)" style="fill: none; stroke: #b2b2b2; stroke-width: 0.8; stroke-linecap: square"/>
   </g>
   <g id="line2d_110">
    <path d="M 53.721227 62.306033 
L 72.333391 61.493467 
L 85.538931 60.067042 
L 95.781944 60.314412 
L 104.151095 55.468587 
L 117.356635 50.4473 
L 127.599648 46.194812 
L 128.328286 45.465151 
L 146.211812 44.870989 
L 159.417352 51.020216 
L 171.460723 56.494165 
L 178.029516 57.745333 
L 191.235056 55.54097 
L 209.84722 84.315603 
L 223.05276 95.564319 
L 233.295773 94.311685 
" clip-path="url(#p18b533a20d)" style="fill: none; stroke: #b2b2b2; stroke-width: 0.8; stroke-linecap: square"/>
   </g>
   <g id="line2d_111">
    <path d="M 53.721227 50.084164 
L 72.333391 46.279206 
L 85.538931 46.016188 
L 95.781944 42.975838 
L 104.151095 46.441463 
L 117.356635 48.435207 
L 127.599648 46.282294 
L 128.328286 45.465151 
L 146.211812 42.989044 
L 159.417352 49.518981 
L 171.460723 50.32683 
L 178.029516 60.061853 
L 191.235056 71.882455 
L 209.84722 84.492131 
L 223.05276 88.763816 
L 233.295773 95.864401 
" clip-path="url(#p18b533a20d)" style="fill: none; stroke: #b2b2b2; stroke-width: 0.8; stroke-linecap: square"/>
   </g>
   <g id="line2d_112">
    <path d="M 53.721227 56.679299 
L 72.333391 49.397418 
L 85.538931 40.373961 
L 95.781944 38.98706 
L 104.151095 38.139458 
L 117.356635 44.54237 
L 127.599648 45.405644 
L 128.328286 45.465151 
L 146.211812 58.670427 
L 159.417352 71.350061 
L 171.460723 76.994318 
L 178.029516 82.653046 
L 191.235056 91.698541 
L 209.84722 100.434168 
L 223.05276 101.969606 
L 233.295773 96.565578 
" clip-path="url(#p18b533a20d)" style="fill: none; stroke: #b2b2b2; stroke-width: 0.8; stroke-linecap: square"/>
   </g>
   <g id="line2d_113">
    <path d="M 53.721227 43.352227 
L 72.333391 37.694897 
L 85.538931 40.237467 
L 95.781944 31.004149 
L 104.151095 31.824314 
L 117.356635 42.658652 
L 127.599648 46.380018 
L 128.328286 45.465151 
L 146.211812 59.969634 
L 159.417352 70.791125 
L 171.460723 69.54336 
L 178.029516 76.637973 
L 191.235056 78.073778 
L 209.84722 85.814666 
L 223.05276 95.581216 
L 233.295773 99.367195 
" clip-path="url(#p18b533a20d)" style="fill: none; stroke: #b2b2b2; stroke-width: 0.8; stroke-linecap: square"/>
   </g>
   <g id="line2d_114">
    <path d="M 53.721227 48.890739 
L 72.333391 38.654818 
L 85.538931 34.704644 
L 95.781944 31.545189 
L 104.151095 34.410229 
L 117.356635 40.094901 
L 127.599648 45.591578 
L 128.328286 45.465151 
L 146.211812 47.927367 
L 159.417352 46.959136 
L 171.460723 38.825919 
L 178.029516 40.179675 
L 191.235056 49.565165 
L 209.84722 60.902754 
L 223.05276 73.336377 
L 233.295773 83.414096 
" clip-path="url(#p18b533a20d)" style="fill: none; stroke: #b2b2b2; stroke-width: 0.8; stroke-linecap: square"/>
   </g>
   <g id="line2d_115">
    <path d="M 53.721227 54.553817 
L 72.333391 50.61356 
L 85.538931 44.214792 
L 95.781944 46.810363 
L 104.151095 36.270274 
L 117.356635 36.422832 
L 127.599648 47.047193 
L 128.328286 45.465151 
L 146.211812 46.203321 
L 159.417352 49.611289 
L 171.460723 58.817811 
L 178.029516 62.047367 
L 191.235056 65.550411 
L 209.84722 91.487896 
L 223.05276 103.526262 
L 233.295773 111.36247 
" clip-path="url(#p18b533a20d)" style="fill: none; stroke: #b2b2b2; stroke-width: 0.8; stroke-linecap: square"/>
   </g>
   <g id="line2d_116">
    <path d="M 53.721227 61.92701 
L 72.333391 55.555064 
L 85.538931 54.766908 
L 95.781944 48.604893 
L 104.151095 47.425875 
L 117.356635 49.645718 
L 127.599648 46.384787 
L 128.328286 45.465151 
L 146.211812 41.807352 
L 159.417352 50.91509 
L 171.460723 58.105834 
L 178.029516 59.968728 
L 191.235056 75.827769 
L 209.84722 86.467825 
L 223.05276 96.505926 
L 233.295773 104.055091 
" clip-path="url(#p18b533a20d)" style="fill: none; stroke: #b2b2b2; stroke-width: 0.8; stroke-linecap: square"/>
   </g>
   <g id="line2d_117">
    <path d="M 53.721227 51.465756 
L 72.333391 50.804685 
L 85.538931 40.835562 
L 95.781944 44.545565 
L 104.151095 45.37866 
L 117.356635 47.804102 
L 127.599648 45.359726 
L 128.328286 45.465151 
L 146.211812 47.31019 
L 159.417352 56.789084 
L 171.460723 71.442749 
L 178.029516 71.491104 
L 191.235056 85.943351 
L 209.84722 97.966693 
L 223.05276 106.135278 
L 233.295773 114.650255 
" clip-path="url(#p18b533a20d)" style="fill: none; stroke: #b2b2b2; stroke-width: 0.8; stroke-linecap: square"/>
   </g>
   <g id="line2d_118">
    <path d="M 53.721227 34.89407 
L 72.333391 28.978858 
L 85.538931 30.09412 
L 95.781944 35.934489 
L 104.151095 31.233527 
L 117.356635 39.699318 
L 127.599648 46.804734 
L 128.328286 45.465151 
L 146.211812 46.751215 
L 159.417352 53.724972 
L 171.460723 55.460016 
L 178.029516 59.638193 
L 191.235056 65.357419 
L 209.84722 84.46406 
L 223.05276 84.736454 
L 233.295773 93.248019 
" clip-path="url(#p18b533a20d)" style="fill: none; stroke: #b2b2b2; stroke-width: 0.8; stroke-linecap: square"/>
   </g>
   <g id="line2d_119">
    <path d="M 53.721227 57.070939 
L 72.333391 51.438351 
L 85.538931 44.979033 
L 95.781944 46.353067 
L 104.151095 42.825765 
L 117.356635 43.22684 
L 127.599648 46.352419 
L 128.328286 45.465151 
L 146.211812 52.098065 
L 159.417352 63.840637 
L 171.460723 74.383891 
L 178.029516 73.034977 
L 191.235056 73.16797 
L 209.84722 78.109192 
L 223.05276 88.342673 
L 233.295773 93.867872 
" clip-path="url(#p18b533a20d)" style="fill: none; stroke: #b2b2b2; stroke-width: 0.8; stroke-linecap: square"/>
   </g>
   <g id="line2d_120">
    <path d="M 53.721227 34.660057 
L 72.333391 37.492872 
L 85.538931 39.526659 
L 95.781944 38.411865 
L 104.151095 36.34585 
L 117.356635 35.090154 
L 127.599648 45.020138 
L 128.328286 45.465151 
L 146.211812 52.989373 
L 159.417352 58.805688 
L 171.460723 58.763009 
L 178.029516 64.390168 
L 191.235056 74.782718 
L 209.84722 86.419325 
L 223.05276 99.190113 
L 233.295773 110.888601 
" clip-path="url(#p18b533a20d)" style="fill: none; stroke: #b2b2b2; stroke-width: 0.8; stroke-linecap: square"/>
   </g>
   <g id="line2d_121">
    <path d="M 53.721227 43.775194 
L 72.333391 50.209311 
L 85.538931 47.610133 
L 95.781944 47.851117 
L 104.151095 45.415104 
L 117.356635 43.657287 
L 127.599648 45.494948 
L 128.328286 45.465151 
L 146.211812 47.546685 
L 159.417352 54.037124 
L 171.460723 60.078929 
L 178.029516 73.214784 
L 191.235056 74.716236 
L 209.84722 95.474415 
L 223.05276 99.15425 
L 233.295773 102.763378 
" clip-path="url(#p18b533a20d)" style="fill: none; stroke: #b2b2b2; stroke-width: 0.8; stroke-linecap: square"/>
   </g>
   <g id="line2d_122">
    <path d="M 53.721227 67.668738 
L 72.333391 65.43156 
L 85.538931 63.455842 
L 95.781944 62.453334 
L 104.151095 57.545307 
L 117.356635 50.567029 
L 127.599648 45.561873 
L 128.328286 45.465151 
L 146.211812 47.142174 
L 159.417352 55.339226 
L 171.460723 65.12557 
L 178.029516 74.676113 
L 191.235056 85.378202 
L 209.84722 100.457307 
L 223.05276 106.819835 
L 233.295773 114.305969 
" clip-path="url(#p18b533a20d)" style="fill: none; stroke: #b2b2b2; stroke-width: 0.8; stroke-linecap: square"/>
   </g>
   <g id="line2d_123">
    <path d="M 53.721227 59.866199 
L 72.333391 54.875844 
L 85.538931 53.58722 
L 95.781944 52.077245 
L 104.151095 50.711234 
L 117.356635 46.114879 
L 127.599648 44.700363 
L 128.328286 45.465151 
L 146.211812 51.465443 
L 159.417352 65.868698 
L 171.460723 70.14978 
L 178.029516 73.460444 
L 191.235056 84.851343 
L 209.84722 89.097033 
L 223.05276 100.99814 
L 233.295773 104.872909 
" clip-path="url(#p18b533a20d)" style="fill: none; stroke: #b2b2b2; stroke-width: 0.8; stroke-linecap: square"/>
   </g>
   <g id="line2d_124">
    <path d="M 53.721227 19.060452 
L 72.333391 13.1472 
L 85.538931 13.334314 
L 95.781944 25.404906 
L 104.151095 35.167112 
L 117.356635 35.746048 
L 127.599648 44.632333 
L 128.328286 45.465151 
L 146.211812 55.504312 
L 159.417352 55.567966 
L 171.460723 61.74714 
L 178.029516 75.390356 
L 191.235056 82.236106 
L 209.84722 85.296147 
L 223.05276 94.316971 
L 233.295773 106.574544 
" clip-path="url(#p18b533a20d)" style="fill: none; stroke: #b2b2b2; stroke-width: 0.8; stroke-linecap: square"/>
   </g>
   <g id="line2d_125">
    <path d="M 53.721227 63.243929 
L 72.333391 59.715813 
L 85.538931 56.000551 
L 95.781944 54.04274 
L 104.151095 51.247125 
L 117.356635 46.871197 
L 127.599648 45.45374 
L 128.328286 45.465151 
L 146.211812 43.743453 
L 159.417352 46.844015 
L 171.460723 51.961273 
L 178.029516 54.561986 
L 191.235056 63.705358 
L 209.84722 73.20491 
L 223.05276 72.96387 
L 233.295773 89.081404 
" clip-path="url(#p18b533a20d)" style="fill: none; stroke: #b2b2b2; stroke-width: 0.8; stroke-linecap: square"/>
   </g>
   <g id="line2d_126">
    <path d="M 53.721227 42.695854 
L 72.333391 43.763937 
L 85.538931 46.306551 
L 95.781944 51.61756 
L 104.151095 54.97733 
L 117.356635 45.21406 
L 127.599648 45.94949 
L 128.328286 45.465151 
L 146.211812 59.975671 
L 159.417352 68.643721 
L 171.460723 75.16645 
L 178.029516 72.00475 
L 191.235056 72.82579 
L 209.84722 87.543967 
L 223.05276 91.814071 
L 233.295773 100.559939 
" clip-path="url(#p18b533a20d)" style="fill: none; stroke: #b2b2b2; stroke-width: 0.8; stroke-linecap: square"/>
   </g>
   <g id="line2d_127">
    <path d="M 53.721227 61.397762 
L 72.333391 53.498488 
L 85.538931 53.115501 
L 95.781944 51.929666 
L 104.151095 48.882952 
L 117.356635 48.5733 
L 127.599648 45.481895 
L 128.328286 45.465151 
L 146.211812 58.679057 
L 159.417352 70.228936 
L 171.460723 71.304305 
L 178.029516 66.851672 
L 191.235056 76.751422 
L 209.84722 78.323575 
L 223.05276 98.131643 
L 233.295773 109.553339 
" clip-path="url(#p18b533a20d)" style="fill: none; stroke: #b2b2b2; stroke-width: 0.8; stroke-linecap: square"/>
   </g>
   <g id="line2d_128">
    <path d="M 53.721227 45.805635 
L 72.333391 33.988606 
L 85.538931 35.993216 
L 95.781944 39.526606 
L 104.151095 43.444411 
L 117.356635 48.115359 
L 127.599648 45.623956 
L 128.328286 45.465151 
L 146.211812 45.082916 
L 159.417352 43.937547 
L 171.460723 51.074693 
L 178.029516 57.121461 
L 191.235056 67.788305 
L 209.84722 88.633421 
L 223.05276 104.197204 
L 233.295773 112.633011 
" clip-path="url(#p18b533a20d)" style="fill: none; stroke: #b2b2b2; stroke-width: 0.8; stroke-linecap: square"/>
   </g>
   <g id="line2d_129">
    <path d="M 53.721227 44.622535 
L 72.333391 32.305183 
L 85.538931 37.770788 
L 95.781944 43.593331 
L 104.151095 38.912028 
L 117.356635 34.711378 
L 127.599648 44.496191 
L 128.328286 45.465151 
L 146.211812 52.773832 
L 159.417352 49.358961 
L 171.460723 59.112369 
L 178.029516 62.314006 
L 191.235056 71.3687 
L 209.84722 85.630358 
L 223.05276 95.995301 
L 233.295773 109.39511 
" clip-path="url(#p18b533a20d)" style="fill: none; stroke: #b2b2b2; stroke-width: 0.8; stroke-linecap: square"/>
   </g>
   <g id="line2d_130">
    <path d="M 53.721227 49.945945 
L 72.333391 46.758738 
L 85.538931 43.191206 
L 95.781944 46.882699 
L 104.151095 37.045346 
L 117.356635 44.597707 
L 127.599648 45.731466 
L 128.328286 45.465151 
L 146.211812 51.829655 
L 159.417352 54.265123 
L 171.460723 58.669478 
L 178.029516 60.126358 
L 191.235056 70.282559 
L 209.84722 76.637378 
L 223.05276 86.762541 
L 233.295773 89.085191 
" clip-path="url(#p18b533a20d)" style="fill: none; stroke: #b2b2b2; stroke-width: 0.8; stroke-linecap: square"/>
   </g>
   <g id="line2d_131">
    <path d="M 53.721227 66.076325 
L 72.333391 63.315983 
L 85.538931 58.075808 
L 95.781944 61.80775 
L 104.151095 52.183389 
L 117.356635 57.642915 
L 127.599648 45.859925 
L 128.328286 45.465151 
L 146.211812 48.582804 
L 159.417352 48.698344 
L 171.460723 59.906215 
L 178.029516 62.475685 
L 191.235056 67.710928 
L 209.84722 82.582684 
L 223.05276 95.005792 
L 233.295773 97.527828 
" clip-path="url(#p18b533a20d)" style="fill: none; stroke: #b2b2b2; stroke-width: 0.8; stroke-linecap: square"/>
   </g>
   <g id="line2d_132">
    <path d="M 53.721227 38.925123 
L 72.333391 26.76991 
L 85.538931 26.36654 
L 95.781944 38.359081 
L 104.151095 38.730892 
L 117.356635 42.946895 
L 127.599648 44.093551 
L 128.328286 45.465151 
L 146.211812 60.335773 
L 159.417352 62.156204 
L 171.460723 73.673368 
L 178.029516 75.461155 
L 191.235056 83.073898 
L 209.84722 93.576353 
L 223.05276 97.525728 
L 233.295773 107.001976 
" clip-path="url(#p18b533a20d)" style="fill: none; stroke: #b2b2b2; stroke-width: 0.8; stroke-linecap: square"/>
   </g>
   <g id="line2d_133">
    <path d="M 53.721227 64.129082 
L 72.333391 59.798876 
L 85.538931 60.359025 
L 95.781944 58.62485 
L 104.151095 54.975269 
L 117.356635 51.547252 
L 127.599648 46.051091 
L 128.328286 45.465151 
L 146.211812 45.93561 
L 159.417352 60.478693 
L 171.460723 56.714069 
L 178.029516 56.388353 
L 191.235056 74.779194 
L 209.84722 88.524759 
L 223.05276 100.845881 
L 233.295773 102.669811 
" clip-path="url(#p18b533a20d)" style="fill: none; stroke: #b2b2b2; stroke-width: 0.8; stroke-linecap: square"/>
   </g>
   <g id="line2d_134">
    <path d="M 53.721227 62.915269 
L 72.333391 60.728403 
L 85.538931 47.890483 
L 95.781944 52.536145 
L 104.151095 51.759951 
L 117.356635 53.418678 
L 127.599648 45.687999 
L 128.328286 45.465151 
L 146.211812 45.880212 
L 159.417352 53.959169 
L 171.460723 65.390175 
L 178.029516 73.267659 
L 191.235056 82.753886 
L 209.84722 84.67616 
L 223.05276 90.788011 
L 233.295773 99.743729 
" clip-path="url(#p18b533a20d)" style="fill: none; stroke: #b2b2b2; stroke-width: 0.8; stroke-linecap: square"/>
   </g>
   <g id="line2d_135">
    <path d="M 53.721227 46.893088 
L 72.333391 44.46882 
L 85.538931 39.15668 
L 95.781944 38.120192 
L 104.151095 40.169496 
L 117.356635 40.876224 
L 127.599648 44.620134 
L 128.328286 45.465151 
L 146.211812 65.864835 
L 159.417352 64.53265 
L 171.460723 79.577529 
L 178.029516 87.338868 
L 191.235056 86.155932 
L 209.84722 109.950766 
L 223.05276 116.30905 
L 233.295773 121.395627 
" clip-path="url(#p18b533a20d)" style="fill: none; stroke: #b2b2b2; stroke-width: 0.8; stroke-linecap: square"/>
   </g>
   <g id="line2d_136">
    <path d="M 53.721227 54.285635 
L 72.333391 52.767589 
L 85.538931 42.671222 
L 95.781944 42.888546 
L 104.151095 39.112066 
L 117.356635 31.720075 
L 127.599648 45.509397 
L 128.328286 45.465151 
L 146.211812 47.752826 
L 159.417352 57.875858 
L 171.460723 68.60544 
L 178.029516 70.039362 
L 191.235056 73.159488 
L 209.84722 82.557289 
L 223.05276 93.481293 
L 233.295773 100.991532 
" clip-path="url(#p18b533a20d)" style="fill: none; stroke: #b2b2b2; stroke-width: 0.8; stroke-linecap: square"/>
   </g>
   <g id="line2d_137">
    <path d="M 53.721227 52.81098 
L 72.333391 48.535699 
L 85.538931 46.38869 
L 95.781944 45.663021 
L 104.151095 44.950798 
L 117.356635 45.055138 
L 127.599648 45.344953 
L 128.328286 45.465151 
L 146.211812 52.26109 
L 159.417352 57.829221 
L 171.460723 63.178017 
L 178.029516 66.424749 
L 191.235056 74.173646 
L 209.84722 84.801572 
L 223.05276 93.467139 
L 233.295773 101.209606 
" clip-path="url(#p18b533a20d)" style="fill: none; stroke: #ff0000; stroke-width: 2; stroke-linecap: square"/>
   </g>
   <g id="line2d_138">
    <path d="M 53.721227 32.041094 
L 72.333391 27.572924 
L 85.538931 27.261865 
L 95.781944 28.388151 
L 104.151095 29.861828 
L 117.356635 34.987509 
L 127.599648 42.829563 
L 128.328286 45.465151 
L 146.211812 39.460454 
L 159.417352 41.465101 
L 171.460723 44.70094 
L 178.029516 47.301397 
L 191.235056 54.391446 
L 209.84722 63.995699 
L 223.05276 72.623489 
L 233.295773 79.638823 
" clip-path="url(#p18b533a20d)" style="fill: none; stroke-dasharray: 7.4,3.2; stroke-dashoffset: 0; stroke: #ff0000; stroke-width: 2"/>
   </g>
   <g id="line2d_139">
    <path d="M 53.721227 73.580866 
L 72.333391 69.498474 
L 85.538931 65.515515 
L 95.781944 62.937892 
L 104.151095 60.039767 
L 117.356635 55.122768 
L 127.599648 47.860344 
L 128.328286 45.465151 
L 146.211812 65.061726 
L 159.417352 74.193342 
L 171.460723 81.655094 
L 178.029516 85.548101 
L 191.235056 93.955845 
L 209.84722 105.607446 
L 223.05276 114.310789 
L 233.295773 122.78039 
" clip-path="url(#p18b533a20d)" style="fill: none; stroke-dasharray: 7.4,3.2; stroke-dashoffset: 0; stroke: #ff0000; stroke-width: 2"/>
   </g>
   <g id="line2d_140">
    <path d="M 53.721227 52.679273 
L 72.333391 48.707032 
L 85.538931 46.369608 
L 95.781944 45.733994 
L 104.151095 45.008269 
L 117.356635 45.158887 
L 127.599648 45.478915 
L 128.328286 45.465151 
L 146.211812 52.218582 
L 159.417352 57.672836 
L 171.460723 63.201912 
L 178.029516 66.661234 
L 191.235056 74.245844 
L 209.84722 84.775089 
L 223.05276 93.551042 
L 233.295773 101.186048 
" clip-path="url(#p18b533a20d)" style="fill: none; stroke: #0000ff; stroke-width: 2; stroke-linecap: square"/>
   </g>
   <g id="line2d_141">
    <path d="M 53.721227 32.132165 
L 72.333391 27.680852 
L 85.538931 27.17103 
L 95.781944 28.557493 
L 104.151095 29.912531 
L 117.356635 35.010795 
L 127.599648 44.074465 
L 128.328286 45.465151 
L 146.211812 39.031529 
L 159.417352 41.425859 
L 171.460723 44.505413 
L 178.029516 47.25864 
L 191.235056 54.117266 
L 209.84722 64.076633 
L 223.05276 72.67943 
L 233.295773 79.720418 
" clip-path="url(#p18b533a20d)" style="fill: none; stroke-dasharray: 7.4,3.2; stroke-dashoffset: 0; stroke: #0000ff; stroke-width: 2"/>
   </g>
   <g id="line2d_142">
    <path d="M 53.721227 73.226382 
L 72.333391 69.733213 
L 85.538931 65.568185 
L 95.781944 62.910496 
L 104.151095 60.104008 
L 117.356635 55.306979 
L 127.599648 46.883365 
L 128.328286 45.465151 
L 146.211812 65.405635 
L 159.417352 73.919812 
L 171.460723 81.898411 
L 178.029516 86.063828 
L 191.235056 94.374421 
L 209.84722 105.473545 
L 223.05276 114.422654 
L 233.295773 122.651678 
" clip-path="url(#p18b533a20d)" style="fill: none; stroke-dasharray: 7.4,3.2; stroke-dashoffset: 0; stroke: #0000ff; stroke-width: 2"/>
   </g>
   <g id="patch_3">
    <path d="M 44.7425 138.0384 
L 44.7425 7.2 
" style="fill: none; stroke: #000000; stroke-width: 0.8; stroke-linejoin: miter; stroke-linecap: square"/>
   </g>
   <g id="patch_4">
    <path d="M 242.2745 138.0384 
L 242.2745 7.2 
" style="fill: none; stroke: #000000; stroke-width: 0.8; stroke-linejoin: miter; stroke-linecap: square"/>
   </g>
   <g id="patch_5">
    <path d="M 44.7425 138.0384 
L 242.2745 138.0384 
" style="fill: none; stroke: #000000; stroke-width: 0.8; stroke-linejoin: miter; stroke-linecap: square"/>
   </g>
   <g id="patch_6">
    <path d="M 44.7425 7.2 
L 242.2745 7.2 
" style="fill: none; stroke: #000000; stroke-width: 0.8; stroke-linejoin: miter; stroke-linecap: square"/>
   </g>
   <g id="legend_1">
    <g id="patch_7">
     <path d="M 247.8745 104.47295 
L 432.5945 104.47295 
Q 434.1945 104.47295 434.1945 102.87295 
L 434.1945 42.36545 
Q 434.1945 40.76545 432.5945 40.76545 
L 247.8745 40.76545 
Q 246.2745 40.76545 246.2745 42.36545 
L 246.2745 102.87295 
Q 246.2745 104.47295 247.8745 104.47295 
z
" style="fill: #ffffff; opacity: 0.8; stroke: #cccccc; stroke-linejoin: miter"/>
    </g>
    <g id="line2d_143">
     <path d="M 249.4745 47.2442 
L 257.4745 47.2442 
L 265.4745 47.2442 
" style="fill: none; stroke: #b2b2b2; stroke-width: 0.8; stroke-linecap: square"/>
    </g>
    <g id="text_8">
     <!-- Individual selected GMs -->
     <g transform="translate(271.8745 50.0442) scale(0.08 -0.08)">
      <defs>
       <path id="DejaVuSans-49" d="M 628 4666 
L 1259 4666 
L 1259 0 
L 628 0 
L 628 4666 
z
" transform="scale(0.015625)"/>
       <path id="DejaVuSans-76" d="M 191 3500 
L 800 3500 
L 1894 563 
L 2988 3500 
L 3597 3500 
L 2284 0 
L 1503 0 
L 191 3500 
z
" transform="scale(0.015625)"/>
       <path id="DejaVuSans-75" d="M 544 1381 
L 544 3500 
L 1119 3500 
L 1119 1403 
Q 1119 906 1312 657 
Q 1506 409 1894 409 
Q 2359 409 2629 706 
Q 2900 1003 2900 1516 
L 2900 3500 
L 3475 3500 
L 3475 0 
L 2900 0 
L 2900 538 
Q 2691 219 2414 64 
Q 2138 -91 1772 -91 
Q 1169 -91 856 284 
Q 544 659 544 1381 
z
M 1991 3584 
L 1991 3584 
z
" transform="scale(0.015625)"/>
       <path id="DejaVuSans-47" d="M 3809 666 
L 3809 1919 
L 2778 1919 
L 2778 2438 
L 4434 2438 
L 4434 434 
Q 4069 175 3628 42 
Q 3188 -91 2688 -91 
Q 1594 -91 976 548 
Q 359 1188 359 2328 
Q 359 3472 976 4111 
Q 1594 4750 2688 4750 
Q 3144 4750 3555 4637 
Q 3966 4525 4313 4306 
L 4313 3634 
Q 3963 3931 3569 4081 
Q 3175 4231 2741 4231 
Q 1884 4231 1454 3753 
Q 1025 3275 1025 2328 
Q 1025 1384 1454 906 
Q 1884 428 2741 428 
Q 3075 428 3337 486 
Q 3600 544 3809 666 
z
" transform="scale(0.015625)"/>
       <path id="DejaVuSans-4d" d="M 628 4666 
L 1569 4666 
L 2759 1491 
L 3956 4666 
L 4897 4666 
L 4897 0 
L 4281 0 
L 4281 4097 
L 3078 897 
L 2444 897 
L 1241 4097 
L 1241 0 
L 628 0 
L 628 4666 
z
" transform="scale(0.015625)"/>
      </defs>
      <use xlink:href="#DejaVuSans-49"/>
      <use xlink:href="#DejaVuSans-6e" x="29.492188"/>
      <use xlink:href="#DejaVuSans-64" x="92.871094"/>
      <use xlink:href="#DejaVuSans-69" x="156.347656"/>
      <use xlink:href="#DejaVuSans-76" x="184.130859"/>
      <use xlink:href="#DejaVuSans-69" x="243.310547"/>
      <use xlink:href="#DejaVuSans-64" x="271.09375"/>
      <use xlink:href="#DejaVuSans-75" x="334.570312"/>
      <use xlink:href="#DejaVuSans-61" x="397.949219"/>
      <use xlink:href="#DejaVuSans-6c" x="459.228516"/>
      <use xlink:href="#DejaVuSans-20" x="487.011719"/>
      <use xlink:href="#DejaVuSans-73" x="518.798828"/>
      <use xlink:href="#DejaVuSans-65" x="570.898438"/>
      <use xlink:href="#DejaVuSans-6c" x="632.421875"/>
      <use xlink:href="#DejaVuSans-65" x="660.205078"/>
      <use xlink:href="#DejaVuSans-63" x="721.728516"/>
      <use xlink:href="#DejaVuSans-74" x="776.708984"/>
      <use xlink:href="#DejaVuSans-65" x="815.917969"/>
      <use xlink:href="#DejaVuSans-64" x="877.441406"/>
      <use xlink:href="#DejaVuSans-20" x="940.917969"/>
      <use xlink:href="#DejaVuSans-47" x="972.705078"/>
      <use xlink:href="#DejaVuSans-4d" x="1050.195312"/>
      <use xlink:href="#DejaVuSans-73" x="1136.474609"/>
     </g>
    </g>
    <g id="line2d_144">
     <path d="M 249.4745 58.9867 
L 257.4745 58.9867 
L 265.4745 58.9867 
" style="fill: none; stroke: #ff0000; stroke-width: 2; stroke-linecap: square"/>
    </g>
    <g id="text_9">
     <!-- GCIM median -->
     <g transform="translate(271.8745 61.7867) scale(0.08 -0.08)">
      <defs>
       <path id="DejaVuSans-43" d="M 4122 4306 
L 4122 3641 
Q 3803 3938 3442 4084 
Q 3081 4231 2675 4231 
Q 1875 4231 1450 3742 
Q 1025 3253 1025 2328 
Q 1025 1406 1450 917 
Q 1875 428 2675 428 
Q 3081 428 3442 575 
Q 3803 722 4122 1019 
L 4122 359 
Q 3791 134 3420 21 
Q 3050 -91 2638 -91 
Q 1578 -91 968 557 
Q 359 1206 359 2328 
Q 359 3453 968 4101 
Q 1578 4750 2638 4750 
Q 3056 4750 3426 4639 
Q 3797 4528 4122 4306 
z
" transform="scale(0.015625)"/>
       <path id="DejaVuSans-6d" d="M 3328 2828 
Q 3544 3216 3844 3400 
Q 4144 3584 4550 3584 
Q 5097 3584 5394 3201 
Q 5691 2819 5691 2113 
L 5691 0 
L 5113 0 
L 5113 2094 
Q 5113 2597 4934 2840 
Q 4756 3084 4391 3084 
Q 3944 3084 3684 2787 
Q 3425 2491 3425 1978 
L 3425 0 
L 2847 0 
L 2847 2094 
Q 2847 2600 2669 2842 
Q 2491 3084 2119 3084 
Q 1678 3084 1418 2786 
Q 1159 2488 1159 1978 
L 1159 0 
L 581 0 
L 581 3500 
L 1159 3500 
L 1159 2956 
Q 1356 3278 1631 3431 
Q 1906 3584 2284 3584 
Q 2666 3584 2933 3390 
Q 3200 3197 3328 2828 
z
" transform="scale(0.015625)"/>
      </defs>
      <use xlink:href="#DejaVuSans-47"/>
      <use xlink:href="#DejaVuSans-43" x="77.490234"/>
      <use xlink:href="#DejaVuSans-49" x="147.314453"/>
      <use xlink:href="#DejaVuSans-4d" x="176.806641"/>
      <use xlink:href="#DejaVuSans-20" x="263.085938"/>
      <use xlink:href="#DejaVuSans-6d" x="294.873047"/>
      <use xlink:href="#DejaVuSans-65" x="392.285156"/>
      <use xlink:href="#DejaVuSans-64" x="453.808594"/>
      <use xlink:href="#DejaVuSans-69" x="517.285156"/>
      <use xlink:href="#DejaVuSans-61" x="545.068359"/>
      <use xlink:href="#DejaVuSans-6e" x="606.347656"/>
     </g>
    </g>
    <g id="line2d_145">
     <path d="M 249.4745 72.01045 
L 257.4745 72.01045 
L 265.4745 72.01045 
" style="fill: none; stroke-dasharray: 7.4,3.2; stroke-dashoffset: 0; stroke: #ff0000; stroke-width: 2"/>
    </g>
    <g id="text_10">
     <!-- GCIM $16^{th}$ and $84^{th}$ percentiles -->
     <g transform="translate(271.8745 74.81045) scale(0.08 -0.08)">
      <defs>
       <path id="DejaVuSans-36" d="M 2113 2584 
Q 1688 2584 1439 2293 
Q 1191 2003 1191 1497 
Q 1191 994 1439 701 
Q 1688 409 2113 409 
Q 2538 409 2786 701 
Q 3034 994 3034 1497 
Q 3034 2003 2786 2293 
Q 2538 2584 2113 2584 
z
M 3366 4563 
L 3366 3988 
Q 3128 4100 2886 4159 
Q 2644 4219 2406 4219 
Q 1781 4219 1451 3797 
Q 1122 3375 1075 2522 
Q 1259 2794 1537 2939 
Q 1816 3084 2150 3084 
Q 2853 3084 3261 2657 
Q 3669 2231 3669 1497 
Q 3669 778 3244 343 
Q 2819 -91 2113 -91 
Q 1303 -91 875 529 
Q 447 1150 447 2328 
Q 447 3434 972 4092 
Q 1497 4750 2381 4750 
Q 2619 4750 2861 4703 
Q 3103 4656 3366 4563 
z
" transform="scale(0.015625)"/>
       <path id="DejaVuSans-Oblique-74" d="M 2706 3500 
L 2619 3053 
L 1472 3053 
L 1100 1153 
Q 1081 1047 1072 975 
Q 1063 903 1063 863 
Q 1063 663 1183 572 
Q 1303 481 1569 481 
L 2150 481 
L 2053 0 
L 1503 0 
Q 991 0 739 200 
Q 488 400 488 806 
Q 488 878 497 964 
Q 506 1050 525 1153 
L 897 3053 
L 409 3053 
L 500 3500 
L 978 3500 
L 1172 4494 
L 1747 4494 
L 1556 3500 
L 2706 3500 
z
" transform="scale(0.015625)"/>
       <path id="DejaVuSans-Oblique-68" d="M 3566 2113 
L 3156 0 
L 2578 0 
L 2988 2091 
Q 3016 2238 3031 2350 
Q 3047 2463 3047 2528 
Q 3047 2791 2881 2937 
Q 2716 3084 2419 3084 
Q 1956 3084 1617 2771 
Q 1278 2459 1178 1941 
L 800 0 
L 225 0 
L 1172 4863 
L 1747 4863 
L 1375 2950 
Q 1594 3244 1934 3414 
Q 2275 3584 2650 3584 
Q 3113 3584 3367 3334 
Q 3622 3084 3622 2631 
Q 3622 2519 3608 2391 
Q 3594 2263 3566 2113 
z
" transform="scale(0.015625)"/>
       <path id="DejaVuSans-38" d="M 2034 2216 
Q 1584 2216 1326 1975 
Q 1069 1734 1069 1313 
Q 1069 891 1326 650 
Q 1584 409 2034 409 
Q 2484 409 2743 651 
Q 3003 894 3003 1313 
Q 3003 1734 2745 1975 
Q 2488 2216 2034 2216 
z
M 1403 2484 
Q 997 2584 770 2862 
Q 544 3141 544 3541 
Q 544 4100 942 4425 
Q 1341 4750 2034 4750 
Q 2731 4750 3128 4425 
Q 3525 4100 3525 3541 
Q 3525 3141 3298 2862 
Q 3072 2584 2669 2484 
Q 3125 2378 3379 2068 
Q 3634 1759 3634 1313 
Q 3634 634 3220 271 
Q 2806 -91 2034 -91 
Q 1263 -91 848 271 
Q 434 634 434 1313 
Q 434 1759 690 2068 
Q 947 2378 1403 2484 
z
M 1172 3481 
Q 1172 3119 1398 2916 
Q 1625 2713 2034 2713 
Q 2441 2713 2670 2916 
Q 2900 3119 2900 3481 
Q 2900 3844 2670 4047 
Q 2441 4250 2034 4250 
Q 1625 4250 1398 4047 
Q 1172 3844 1172 3481 
z
" transform="scale(0.015625)"/>
       <path id="DejaVuSans-34" d="M 2419 4116 
L 825 1625 
L 2419 1625 
L 2419 4116 
z
M 2253 4666 
L 3047 4666 
L 3047 1625 
L 3713 1625 
L 3713 1100 
L 3047 1100 
L 3047 0 
L 2419 0 
L 2419 1100 
L 313 1100 
L 313 1709 
L 2253 4666 
z
" transform="scale(0.015625)"/>
      </defs>
      <use xlink:href="#DejaVuSans-47" transform="translate(0 0.529687)"/>
      <use xlink:href="#DejaVuSans-43" transform="translate(77.490234 0.529687)"/>
      <use xlink:href="#DejaVuSans-49" transform="translate(147.314453 0.529687)"/>
      <use xlink:href="#DejaVuSans-4d" transform="translate(176.806641 0.529687)"/>
      <use xlink:href="#DejaVuSans-20" transform="translate(263.085938 0.529687)"/>
      <use xlink:href="#DejaVuSans-31" transform="translate(294.873047 0.529687)"/>
      <use xlink:href="#DejaVuSans-36" transform="translate(358.496094 0.529687)"/>
      <use xlink:href="#DejaVuSans-Oblique-74" transform="translate(423.076172 38.810937) scale(0.7)"/>
      <use xlink:href="#DejaVuSans-Oblique-68" transform="translate(450.522461 38.810937) scale(0.7)"/>
      <use xlink:href="#DejaVuSans-20" transform="translate(497.62207 0.529687)"/>
      <use xlink:href="#DejaVuSans-61" transform="translate(529.40918 0.529687)"/>
      <use xlink:href="#DejaVuSans-6e" transform="translate(590.688477 0.529687)"/>
      <use xlink:href="#DejaVuSans-64" transform="translate(654.067383 0.529687)"/>
      <use xlink:href="#DejaVuSans-20" transform="translate(717.543945 0.529687)"/>
      <use xlink:href="#DejaVuSans-38" transform="translate(749.331055 0.529687)"/>
      <use xlink:href="#DejaVuSans-34" transform="translate(812.954102 0.529687)"/>
      <use xlink:href="#DejaVuSans-Oblique-74" transform="translate(877.53418 38.810937) scale(0.7)"/>
      <use xlink:href="#DejaVuSans-Oblique-68" transform="translate(904.980469 38.810937) scale(0.7)"/>
      <use xlink:href="#DejaVuSans-20" transform="translate(952.080078 0.529687)"/>
      <use xlink:href="#DejaVuSans-70" transform="translate(983.867188 0.529687)"/>
      <use xlink:href="#DejaVuSans-65" transform="translate(1047.34375 0.529687)"/>
      <use xlink:href="#DejaVuSans-72" transform="translate(1108.867188 0.529687)"/>
      <use xlink:href="#DejaVuSans-63" transform="translate(1149.980469 0.529687)"/>
      <use xlink:href="#DejaVuSans-65" transform="translate(1204.960938 0.529687)"/>
      <use xlink:href="#DejaVuSans-6e" transform="translate(1266.484375 0.529687)"/>
      <use xlink:href="#DejaVuSans-74" transform="translate(1329.863281 0.529687)"/>
      <use xlink:href="#DejaVuSans-69" transform="translate(1369.072266 0.529687)"/>
      <use xlink:href="#DejaVuSans-6c" transform="translate(1396.855469 0.529687)"/>
      <use xlink:href="#DejaVuSans-65" transform="translate(1424.638672 0.529687)"/>
      <use xlink:href="#DejaVuSans-73" transform="translate(1486.162109 0.529687)"/>
     </g>
    </g>
    <g id="line2d_146">
     <path d="M 249.4745 83.7692 
L 257.4745 83.7692 
L 265.4745 83.7692 
" style="fill: none; stroke: #0000ff; stroke-width: 2; stroke-linecap: square"/>
    </g>
    <g id="text_11">
     <!-- Selected GMs median -->
     <g transform="translate(271.8745 86.5692) scale(0.08 -0.08)">
      <use xlink:href="#DejaVuSans-53"/>
      <use xlink:href="#DejaVuSans-65" x="63.476562"/>
      <use xlink:href="#DejaVuSans-6c" x="125"/>
      <use xlink:href="#DejaVuSans-65" x="152.783203"/>
      <use xlink:href="#DejaVuSans-63" x="214.306641"/>
      <use xlink:href="#DejaVuSans-74" x="269.287109"/>
      <use xlink:href="#DejaVuSans-65" x="308.496094"/>
      <use xlink:href="#DejaVuSans-64" x="370.019531"/>
      <use xlink:href="#DejaVuSans-20" x="433.496094"/>
      <use xlink:href="#DejaVuSans-47" x="465.283203"/>
      <use xlink:href="#DejaVuSans-4d" x="542.773438"/>
      <use xlink:href="#DejaVuSans-73" x="629.052734"/>
      <use xlink:href="#DejaVuSans-20" x="681.152344"/>
      <use xlink:href="#DejaVuSans-6d" x="712.939453"/>
      <use xlink:href="#DejaVuSans-65" x="810.351562"/>
      <use xlink:href="#DejaVuSans-64" x="871.875"/>
      <use xlink:href="#DejaVuSans-69" x="935.351562"/>
      <use xlink:href="#DejaVuSans-61" x="963.134766"/>
      <use xlink:href="#DejaVuSans-6e" x="1024.414062"/>
     </g>
    </g>
    <g id="line2d_147">
     <path d="M 249.4745 96.79295 
L 257.4745 96.79295 
L 265.4745 96.79295 
" style="fill: none; stroke-dasharray: 7.4,3.2; stroke-dashoffset: 0; stroke: #0000ff; stroke-width: 2"/>
    </g>
    <g id="text_12">
     <!-- Selected GMs, $16^{th}$ and $84^{th}$ percentiles -->
     <g transform="translate(271.8745 99.59295) scale(0.08 -0.08)">
      <use xlink:href="#DejaVuSans-53" transform="translate(0 0.529687)"/>
      <use xlink:href="#DejaVuSans-65" transform="translate(63.476562 0.529687)"/>
      <use xlink:href="#DejaVuSans-6c" transform="translate(125 0.529687)"/>
      <use xlink:href="#DejaVuSans-65" transform="translate(152.783203 0.529687)"/>
      <use xlink:href="#DejaVuSans-63" transform="translate(214.306641 0.529687)"/>
      <use xlink:href="#DejaVuSans-74" transform="translate(269.287109 0.529687)"/>
      <use xlink:href="#DejaVuSans-65" transform="translate(308.496094 0.529687)"/>
      <use xlink:href="#DejaVuSans-64" transform="translate(370.019531 0.529687)"/>
      <use xlink:href="#DejaVuSans-20" transform="translate(433.496094 0.529687)"/>
      <use xlink:href="#DejaVuSans-47" transform="translate(465.283203 0.529687)"/>
      <use xlink:href="#DejaVuSans-4d" transform="translate(542.773438 0.529687)"/>
      <use xlink:href="#DejaVuSans-73" transform="translate(629.052734 0.529687)"/>
      <use xlink:href="#DejaVuSans-2c" transform="translate(681.152344 0.529687)"/>
      <use xlink:href="#DejaVuSans-20" transform="translate(712.939453 0.529687)"/>
      <use xlink:href="#DejaVuSans-31" transform="translate(744.726562 0.529687)"/>
      <use xlink:href="#DejaVuSans-36" transform="translate(808.349609 0.529687)"/>
      <use xlink:href="#DejaVuSans-Oblique-74" transform="translate(872.929688 38.810937) scale(0.7)"/>
      <use xlink:href="#DejaVuSans-Oblique-68" transform="translate(900.375977 38.810937) scale(0.7)"/>
      <use xlink:href="#DejaVuSans-20" transform="translate(947.475586 0.529687)"/>
      <use xlink:href="#DejaVuSans-61" transform="translate(979.262695 0.529687)"/>
      <use xlink:href="#DejaVuSans-6e" transform="translate(1040.541992 0.529687)"/>
      <use xlink:href="#DejaVuSans-64" transform="translate(1103.920898 0.529687)"/>
      <use xlink:href="#DejaVuSans-20" transform="translate(1167.397461 0.529687)"/>
      <use xlink:href="#DejaVuSans-38" transform="translate(1199.18457 0.529687)"/>
      <use xlink:href="#DejaVuSans-34" transform="translate(1262.807617 0.529687)"/>
      <use xlink:href="#DejaVuSans-Oblique-74" transform="translate(1327.387695 38.810937) scale(0.7)"/>
      <use xlink:href="#DejaVuSans-Oblique-68" transform="translate(1354.833984 38.810937) scale(0.7)"/>
      <use xlink:href="#DejaVuSans-20" transform="translate(1401.933594 0.529687)"/>
      <use xlink:href="#DejaVuSans-70" transform="translate(1433.720703 0.529687)"/>
      <use xlink:href="#DejaVuSans-65" transform="translate(1497.197266 0.529687)"/>
      <use xlink:href="#DejaVuSans-72" transform="translate(1558.720703 0.529687)"/>
      <use xlink:href="#DejaVuSans-63" transform="translate(1599.833984 0.529687)"/>
      <use xlink:href="#DejaVuSans-65" transform="translate(1654.814453 0.529687)"/>
      <use xlink:href="#DejaVuSans-6e" transform="translate(1716.337891 0.529687)"/>
      <use xlink:href="#DejaVuSans-74" transform="translate(1779.716797 0.529687)"/>
      <use xlink:href="#DejaVuSans-69" transform="translate(1818.925781 0.529687)"/>
      <use xlink:href="#DejaVuSans-6c" transform="translate(1846.708984 0.529687)"/>
      <use xlink:href="#DejaVuSans-65" transform="translate(1874.492188 0.529687)"/>
      <use xlink:href="#DejaVuSans-73" transform="translate(1936.015625 0.529687)"/>
     </g>
    </g>
   </g>
  </g>
 </g>
 <defs>
  <clipPath id="p18b533a20d">
   <rect x="44.7425" y="7.2" width="197.532" height="130.8384"/>
  </clipPath>
 </defs>
</svg>
