<?xml version="1.0" encoding="utf-8" standalone="no"?>
<!DOCTYPE svg PUBLIC "-//W3C//DTD SVG 1.1//EN"
  "http://www.w3.org/Graphics/SVG/1.1/DTD/svg11.dtd">
<svg xmlns:xlink="http://www.w3.org/1999/xlink" width="441.3945pt" height="171.7234pt" viewBox="0 0 441.3945 171.7234" xmlns="http://www.w3.org/2000/svg" version="1.1">
 <metadata>
  <rdf:RDF xmlns:dc="http://purl.org/dc/elements/1.1/" xmlns:cc="http://creativecommons.org/ns#" xmlns:rdf="http://www.w3.org/1999/02/22-rdf-syntax-ns#">
   <cc:Work>
    <dc:type rdf:resource="http://purl.org/dc/dcmitype/StillImage"/>
    <dc:date>2024-11-18T11:03:43.952905</dc:date>
    <dc:format>image/svg+xml</dc:format>
    <dc:creator>
     <cc:Agent>
      <dc:title>Matplotlib v3.8.2, https://matplotlib.org/</dc:title>
     </cc:Agent>
    </dc:creator>
   </cc:Work>
  </rdf:RDF>
 </metadata>
 <defs>
  <style type="text/css">*{stroke-linejoin: round; stroke-linecap: butt}</style>
 </defs>
 <g id="figure_1">
  <g id="patch_1">
   <path d="M 0 171.7234 
L 441.3945 171.7234 
L 441.3945 0 
L 0 0 
z
" style="fill: #ffffff"/>
  </g>
  <g id="axes_1">
   <g id="patch_2">
    <path d="M 44.7425 138.0384 
L 242.2745 138.0384 
L 242.2745 7.2 
L 44.7425 7.2 
z
" style="fill: #ffffff"/>
   </g>
   <g id="matplotlib.axis_1">
    <g id="xtick_1">
     <g id="line2d_1">
      <path d="M 53.721227 138.0384 
L 53.721227 7.2 
" clip-path="url(#p1d05fe7bcc)" style="fill: none; stroke: #d9d9d9; stroke-width: 0.8; stroke-linecap: square"/>
     </g>
     <g id="line2d_2">
      <defs>
       <path id="me504c37047" d="M 0 0 
L 0 3.5 
" style="stroke: #000000; stroke-width: 0.8"/>
      </defs>
      <g>
       <use xlink:href="#me504c37047" x="53.721227" y="138.0384" style="stroke: #000000; stroke-width: 0.8"/>
      </g>
     </g>
     <g id="text_1">
      <!-- $\mathdefault{10^{-1}}$ -->
      <g transform="translate(44.321227 151.11715) scale(0.08 -0.08)">
       <defs>
        <path id="DejaVuSans-31" d="M 794 531 
L 1825 531 
L 1825 4091 
L 703 3866 
L 703 4441 
L 1819 4666 
L 2450 4666 
L 2450 531 
L 3481 531 
L 3481 0 
L 794 0 
L 794 531 
z
" transform="scale(0.015625)"/>
        <path id="DejaVuSans-30" d="M 2034 4250 
Q 1547 4250 1301 3770 
Q 1056 3291 1056 2328 
Q 1056 1369 1301 889 
Q 1547 409 2034 409 
Q 2525 409 2770 889 
Q 3016 1369 3016 2328 
Q 3016 3291 2770 3770 
Q 2525 4250 2034 4250 
z
M 2034 4750 
Q 2819 4750 3233 4129 
Q 3647 3509 3647 2328 
Q 3647 1150 3233 529 
Q 2819 -91 2034 -91 
Q 1250 -91 836 529 
Q 422 1150 422 2328 
Q 422 3509 836 4129 
Q 1250 4750 2034 4750 
z
" transform="scale(0.015625)"/>
        <path id="DejaVuSans-2212" d="M 678 2272 
L 4684 2272 
L 4684 1741 
L 678 1741 
L 678 2272 
z
" transform="scale(0.015625)"/>
       </defs>
       <use xlink:href="#DejaVuSans-31" transform="translate(0 0.684375)"/>
       <use xlink:href="#DejaVuSans-30" transform="translate(63.623047 0.684375)"/>
       <use xlink:href="#DejaVuSans-2212" transform="translate(128.203125 38.965625) scale(0.7)"/>
       <use xlink:href="#DejaVuSans-31" transform="translate(186.855469 38.965625) scale(0.7)"/>
      </g>
     </g>
    </g>
    <g id="xtick_2">
     <g id="line2d_3">
      <path d="M 159.417352 138.0384 
L 159.417352 7.2 
" clip-path="url(#p1d05fe7bcc)" style="fill: none; stroke: #d9d9d9; stroke-width: 0.8; stroke-linecap: square"/>
     </g>
     <g id="line2d_4">
      <g>
       <use xlink:href="#me504c37047" x="159.417352" y="138.0384" style="stroke: #000000; stroke-width: 0.8"/>
      </g>
     </g>
     <g id="text_2">
      <!-- $\mathdefault{10^{0}}$ -->
      <g transform="translate(152.377352 151.11715) scale(0.08 -0.08)">
       <use xlink:href="#DejaVuSans-31" transform="translate(0 0.765625)"/>
       <use xlink:href="#DejaVuSans-30" transform="translate(63.623047 0.765625)"/>
       <use xlink:href="#DejaVuSans-30" transform="translate(128.203125 39.046875) scale(0.7)"/>
      </g>
     </g>
    </g>
    <g id="xtick_3">
     <g id="line2d_5">
      <path d="M 48.884838 138.0384 
L 48.884838 7.2 
" clip-path="url(#p1d05fe7bcc)" style="fill: none; stroke-dasharray: 2.96,1.28; stroke-dashoffset: 0; stroke: #f2f2f2; stroke-width: 0.8"/>
     </g>
     <g id="line2d_6">
      <defs>
       <path id="m2133f743d1" d="M 0 0 
L 0 2 
" style="stroke: #000000; stroke-width: 0.6"/>
      </defs>
      <g>
       <use xlink:href="#m2133f743d1" x="48.884838" y="138.0384" style="stroke: #000000; stroke-width: 0.6"/>
      </g>
     </g>
    </g>
    <g id="xtick_4">
     <g id="line2d_7">
      <path d="M 85.538931 138.0384 
L 85.538931 7.2 
" clip-path="url(#p1d05fe7bcc)" style="fill: none; stroke-dasharray: 2.96,1.28; stroke-dashoffset: 0; stroke: #f2f2f2; stroke-width: 0.8"/>
     </g>
     <g id="line2d_8">
      <g>
       <use xlink:href="#m2133f743d1" x="85.538931" y="138.0384" style="stroke: #000000; stroke-width: 0.6"/>
      </g>
     </g>
    </g>
    <g id="xtick_5">
     <g id="line2d_9">
      <path d="M 104.151095 138.0384 
L 104.151095 7.2 
" clip-path="url(#p1d05fe7bcc)" style="fill: none; stroke-dasharray: 2.96,1.28; stroke-dashoffset: 0; stroke: #f2f2f2; stroke-width: 0.8"/>
     </g>
     <g id="line2d_10">
      <g>
       <use xlink:href="#m2133f743d1" x="104.151095" y="138.0384" style="stroke: #000000; stroke-width: 0.6"/>
      </g>
     </g>
    </g>
    <g id="xtick_6">
     <g id="line2d_11">
      <path d="M 117.356635 138.0384 
L 117.356635 7.2 
" clip-path="url(#p1d05fe7bcc)" style="fill: none; stroke-dasharray: 2.96,1.28; stroke-dashoffset: 0; stroke: #f2f2f2; stroke-width: 0.8"/>
     </g>
     <g id="line2d_12">
      <g>
       <use xlink:href="#m2133f743d1" x="117.356635" y="138.0384" style="stroke: #000000; stroke-width: 0.6"/>
      </g>
     </g>
    </g>
    <g id="xtick_7">
     <g id="line2d_13">
      <path d="M 127.599648 138.0384 
L 127.599648 7.2 
" clip-path="url(#p1d05fe7bcc)" style="fill: none; stroke-dasharray: 2.96,1.28; stroke-dashoffset: 0; stroke: #f2f2f2; stroke-width: 0.8"/>
     </g>
     <g id="line2d_14">
      <g>
       <use xlink:href="#m2133f743d1" x="127.599648" y="138.0384" style="stroke: #000000; stroke-width: 0.6"/>
      </g>
     </g>
    </g>
    <g id="xtick_8">
     <g id="line2d_15">
      <path d="M 135.968799 138.0384 
L 135.968799 7.2 
" clip-path="url(#p1d05fe7bcc)" style="fill: none; stroke-dasharray: 2.96,1.28; stroke-dashoffset: 0; stroke: #f2f2f2; stroke-width: 0.8"/>
     </g>
     <g id="line2d_16">
      <g>
       <use xlink:href="#m2133f743d1" x="135.968799" y="138.0384" style="stroke: #000000; stroke-width: 0.6"/>
      </g>
     </g>
    </g>
    <g id="xtick_9">
     <g id="line2d_17">
      <path d="M 143.044815 138.0384 
L 143.044815 7.2 
" clip-path="url(#p1d05fe7bcc)" style="fill: none; stroke-dasharray: 2.96,1.28; stroke-dashoffset: 0; stroke: #f2f2f2; stroke-width: 0.8"/>
     </g>
     <g id="line2d_18">
      <g>
       <use xlink:href="#m2133f743d1" x="143.044815" y="138.0384" style="stroke: #000000; stroke-width: 0.6"/>
      </g>
     </g>
    </g>
    <g id="xtick_10">
     <g id="line2d_19">
      <path d="M 149.174339 138.0384 
L 149.174339 7.2 
" clip-path="url(#p1d05fe7bcc)" style="fill: none; stroke-dasharray: 2.96,1.28; stroke-dashoffset: 0; stroke: #f2f2f2; stroke-width: 0.8"/>
     </g>
     <g id="line2d_20">
      <g>
       <use xlink:href="#m2133f743d1" x="149.174339" y="138.0384" style="stroke: #000000; stroke-width: 0.6"/>
      </g>
     </g>
    </g>
    <g id="xtick_11">
     <g id="line2d_21">
      <path d="M 154.580963 138.0384 
L 154.580963 7.2 
" clip-path="url(#p1d05fe7bcc)" style="fill: none; stroke-dasharray: 2.96,1.28; stroke-dashoffset: 0; stroke: #f2f2f2; stroke-width: 0.8"/>
     </g>
     <g id="line2d_22">
      <g>
       <use xlink:href="#m2133f743d1" x="154.580963" y="138.0384" style="stroke: #000000; stroke-width: 0.6"/>
      </g>
     </g>
    </g>
    <g id="xtick_12">
     <g id="line2d_23">
      <path d="M 191.235056 138.0384 
L 191.235056 7.2 
" clip-path="url(#p1d05fe7bcc)" style="fill: none; stroke-dasharray: 2.96,1.28; stroke-dashoffset: 0; stroke: #f2f2f2; stroke-width: 0.8"/>
     </g>
     <g id="line2d_24">
      <g>
       <use xlink:href="#m2133f743d1" x="191.235056" y="138.0384" style="stroke: #000000; stroke-width: 0.6"/>
      </g>
     </g>
    </g>
    <g id="xtick_13">
     <g id="line2d_25">
      <path d="M 209.84722 138.0384 
L 209.84722 7.2 
" clip-path="url(#p1d05fe7bcc)" style="fill: none; stroke-dasharray: 2.96,1.28; stroke-dashoffset: 0; stroke: #f2f2f2; stroke-width: 0.8"/>
     </g>
     <g id="line2d_26">
      <g>
       <use xlink:href="#m2133f743d1" x="209.84722" y="138.0384" style="stroke: #000000; stroke-width: 0.6"/>
      </g>
     </g>
    </g>
    <g id="xtick_14">
     <g id="line2d_27">
      <path d="M 223.05276 138.0384 
L 223.05276 7.2 
" clip-path="url(#p1d05fe7bcc)" style="fill: none; stroke-dasharray: 2.96,1.28; stroke-dashoffset: 0; stroke: #f2f2f2; stroke-width: 0.8"/>
     </g>
     <g id="line2d_28">
      <g>
       <use xlink:href="#m2133f743d1" x="223.05276" y="138.0384" style="stroke: #000000; stroke-width: 0.6"/>
      </g>
     </g>
    </g>
    <g id="xtick_15">
     <g id="line2d_29">
      <path d="M 233.295773 138.0384 
L 233.295773 7.2 
" clip-path="url(#p1d05fe7bcc)" style="fill: none; stroke-dasharray: 2.96,1.28; stroke-dashoffset: 0; stroke: #f2f2f2; stroke-width: 0.8"/>
     </g>
     <g id="line2d_30">
      <g>
       <use xlink:href="#m2133f743d1" x="233.295773" y="138.0384" style="stroke: #000000; stroke-width: 0.6"/>
      </g>
     </g>
    </g>
    <g id="xtick_16">
     <g id="line2d_31">
      <path d="M 241.664924 138.0384 
L 241.664924 7.2 
" clip-path="url(#p1d05fe7bcc)" style="fill: none; stroke-dasharray: 2.96,1.28; stroke-dashoffset: 0; stroke: #f2f2f2; stroke-width: 0.8"/>
     </g>
     <g id="line2d_32">
      <g>
       <use xlink:href="#m2133f743d1" x="241.664924" y="138.0384" style="stroke: #000000; stroke-width: 0.6"/>
      </g>
     </g>
    </g>
    <g id="text_3">
     <!-- Period, T (s) -->
     <g transform="translate(119.576 162.85965) scale(0.08 -0.08)">
      <defs>
       <path id="DejaVuSans-50" d="M 1259 4147 
L 1259 2394 
L 2053 2394 
Q 2494 2394 2734 2622 
Q 2975 2850 2975 3272 
Q 2975 3691 2734 3919 
Q 2494 4147 2053 4147 
L 1259 4147 
z
M 628 4666 
L 2053 4666 
Q 2838 4666 3239 4311 
Q 3641 3956 3641 3272 
Q 3641 2581 3239 2228 
Q 2838 1875 2053 1875 
L 1259 1875 
L 1259 0 
L 628 0 
L 628 4666 
z
" transform="scale(0.015625)"/>
       <path id="DejaVuSans-65" d="M 3597 1894 
L 3597 1613 
L 953 1613 
Q 991 1019 1311 708 
Q 1631 397 2203 397 
Q 2534 397 2845 478 
Q 3156 559 3463 722 
L 3463 178 
Q 3153 47 2828 -22 
Q 2503 -91 2169 -91 
Q 1331 -91 842 396 
Q 353 884 353 1716 
Q 353 2575 817 3079 
Q 1281 3584 2069 3584 
Q 2775 3584 3186 3129 
Q 3597 2675 3597 1894 
z
M 3022 2063 
Q 3016 2534 2758 2815 
Q 2500 3097 2075 3097 
Q 1594 3097 1305 2825 
Q 1016 2553 972 2059 
L 3022 2063 
z
" transform="scale(0.015625)"/>
       <path id="DejaVuSans-72" d="M 2631 2963 
Q 2534 3019 2420 3045 
Q 2306 3072 2169 3072 
Q 1681 3072 1420 2755 
Q 1159 2438 1159 1844 
L 1159 0 
L 581 0 
L 581 3500 
L 1159 3500 
L 1159 2956 
Q 1341 3275 1631 3429 
Q 1922 3584 2338 3584 
Q 2397 3584 2469 3576 
Q 2541 3569 2628 3553 
L 2631 2963 
z
" transform="scale(0.015625)"/>
       <path id="DejaVuSans-69" d="M 603 3500 
L 1178 3500 
L 1178 0 
L 603 0 
L 603 3500 
z
M 603 4863 
L 1178 4863 
L 1178 4134 
L 603 4134 
L 603 4863 
z
" transform="scale(0.015625)"/>
       <path id="DejaVuSans-6f" d="M 1959 3097 
Q 1497 3097 1228 2736 
Q 959 2375 959 1747 
Q 959 1119 1226 758 
Q 1494 397 1959 397 
Q 2419 397 2687 759 
Q 2956 1122 2956 1747 
Q 2956 2369 2687 2733 
Q 2419 3097 1959 3097 
z
M 1959 3584 
Q 2709 3584 3137 3096 
Q 3566 2609 3566 1747 
Q 3566 888 3137 398 
Q 2709 -91 1959 -91 
Q 1206 -91 779 398 
Q 353 888 353 1747 
Q 353 2609 779 3096 
Q 1206 3584 1959 3584 
z
" transform="scale(0.015625)"/>
       <path id="DejaVuSans-64" d="M 2906 2969 
L 2906 4863 
L 3481 4863 
L 3481 0 
L 2906 0 
L 2906 525 
Q 2725 213 2448 61 
Q 2172 -91 1784 -91 
Q 1150 -91 751 415 
Q 353 922 353 1747 
Q 353 2572 751 3078 
Q 1150 3584 1784 3584 
Q 2172 3584 2448 3432 
Q 2725 3281 2906 2969 
z
M 947 1747 
Q 947 1113 1208 752 
Q 1469 391 1925 391 
Q 2381 391 2643 752 
Q 2906 1113 2906 1747 
Q 2906 2381 2643 2742 
Q 2381 3103 1925 3103 
Q 1469 3103 1208 2742 
Q 947 2381 947 1747 
z
" transform="scale(0.015625)"/>
       <path id="DejaVuSans-2c" d="M 750 794 
L 1409 794 
L 1409 256 
L 897 -744 
L 494 -744 
L 750 256 
L 750 794 
z
" transform="scale(0.015625)"/>
       <path id="DejaVuSans-20" transform="scale(0.015625)"/>
       <path id="DejaVuSans-54" d="M -19 4666 
L 3928 4666 
L 3928 4134 
L 2272 4134 
L 2272 0 
L 1638 0 
L 1638 4134 
L -19 4134 
L -19 4666 
z
" transform="scale(0.015625)"/>
       <path id="DejaVuSans-28" d="M 1984 4856 
Q 1566 4138 1362 3434 
Q 1159 2731 1159 2009 
Q 1159 1288 1364 580 
Q 1569 -128 1984 -844 
L 1484 -844 
Q 1016 -109 783 600 
Q 550 1309 550 2009 
Q 550 2706 781 3412 
Q 1013 4119 1484 4856 
L 1984 4856 
z
" transform="scale(0.015625)"/>
       <path id="DejaVuSans-73" d="M 2834 3397 
L 2834 2853 
Q 2591 2978 2328 3040 
Q 2066 3103 1784 3103 
Q 1356 3103 1142 2972 
Q 928 2841 928 2578 
Q 928 2378 1081 2264 
Q 1234 2150 1697 2047 
L 1894 2003 
Q 2506 1872 2764 1633 
Q 3022 1394 3022 966 
Q 3022 478 2636 193 
Q 2250 -91 1575 -91 
Q 1294 -91 989 -36 
Q 684 19 347 128 
L 347 722 
Q 666 556 975 473 
Q 1284 391 1588 391 
Q 1994 391 2212 530 
Q 2431 669 2431 922 
Q 2431 1156 2273 1281 
Q 2116 1406 1581 1522 
L 1381 1569 
Q 847 1681 609 1914 
Q 372 2147 372 2553 
Q 372 3047 722 3315 
Q 1072 3584 1716 3584 
Q 2034 3584 2315 3537 
Q 2597 3491 2834 3397 
z
" transform="scale(0.015625)"/>
       <path id="DejaVuSans-29" d="M 513 4856 
L 1013 4856 
Q 1481 4119 1714 3412 
Q 1947 2706 1947 2009 
Q 1947 1309 1714 600 
Q 1481 -109 1013 -844 
L 513 -844 
Q 928 -128 1133 580 
Q 1338 1288 1338 2009 
Q 1338 2731 1133 3434 
Q 928 4138 513 4856 
z
" transform="scale(0.015625)"/>
      </defs>
      <use xlink:href="#DejaVuSans-50"/>
      <use xlink:href="#DejaVuSans-65" x="56.677734"/>
      <use xlink:href="#DejaVuSans-72" x="118.201172"/>
      <use xlink:href="#DejaVuSans-69" x="159.314453"/>
      <use xlink:href="#DejaVuSans-6f" x="187.097656"/>
      <use xlink:href="#DejaVuSans-64" x="248.279297"/>
      <use xlink:href="#DejaVuSans-2c" x="311.755859"/>
      <use xlink:href="#DejaVuSans-20" x="343.542969"/>
      <use xlink:href="#DejaVuSans-54" x="375.330078"/>
      <use xlink:href="#DejaVuSans-20" x="436.414062"/>
      <use xlink:href="#DejaVuSans-28" x="468.201172"/>
      <use xlink:href="#DejaVuSans-73" x="507.214844"/>
      <use xlink:href="#DejaVuSans-29" x="559.314453"/>
     </g>
    </g>
   </g>
   <g id="matplotlib.axis_2">
    <g id="ytick_1">
     <g id="line2d_33">
      <path d="M 44.7425 123.273875 
L 242.2745 123.273875 
" clip-path="url(#p1d05fe7bcc)" style="fill: none; stroke: #d9d9d9; stroke-width: 0.8; stroke-linecap: square"/>
     </g>
     <g id="line2d_34">
      <defs>
       <path id="m7527a53e6a" d="M 0 0 
L -3.5 0 
" style="stroke: #000000; stroke-width: 0.8"/>
      </defs>
      <g>
       <use xlink:href="#m7527a53e6a" x="44.7425" y="123.273875" style="stroke: #000000; stroke-width: 0.8"/>
      </g>
     </g>
     <g id="text_4">
      <!-- $\mathdefault{10^{-2}}$ -->
      <g transform="translate(18.9425 126.31325) scale(0.08 -0.08)">
       <defs>
        <path id="DejaVuSans-32" d="M 1228 531 
L 3431 531 
L 3431 0 
L 469 0 
L 469 531 
Q 828 903 1448 1529 
Q 2069 2156 2228 2338 
Q 2531 2678 2651 2914 
Q 2772 3150 2772 3378 
Q 2772 3750 2511 3984 
Q 2250 4219 1831 4219 
Q 1534 4219 1204 4116 
Q 875 4013 500 3803 
L 500 4441 
Q 881 4594 1212 4672 
Q 1544 4750 1819 4750 
Q 2544 4750 2975 4387 
Q 3406 4025 3406 3419 
Q 3406 3131 3298 2873 
Q 3191 2616 2906 2266 
Q 2828 2175 2409 1742 
Q 1991 1309 1228 531 
z
" transform="scale(0.015625)"/>
       </defs>
       <use xlink:href="#DejaVuSans-31" transform="translate(0 0.765625)"/>
       <use xlink:href="#DejaVuSans-30" transform="translate(63.623047 0.765625)"/>
       <use xlink:href="#DejaVuSans-2212" transform="translate(128.203125 39.046875) scale(0.7)"/>
       <use xlink:href="#DejaVuSans-32" transform="translate(186.855469 39.046875) scale(0.7)"/>
      </g>
     </g>
    </g>
    <g id="ytick_2">
     <g id="line2d_35">
      <path d="M 44.7425 86.702406 
L 242.2745 86.702406 
" clip-path="url(#p1d05fe7bcc)" style="fill: none; stroke: #d9d9d9; stroke-width: 0.8; stroke-linecap: square"/>
     </g>
     <g id="line2d_36">
      <g>
       <use xlink:href="#m7527a53e6a" x="44.7425" y="86.702406" style="stroke: #000000; stroke-width: 0.8"/>
      </g>
     </g>
     <g id="text_5">
      <!-- $\mathdefault{10^{-1}}$ -->
      <g transform="translate(18.9425 89.741781) scale(0.08 -0.08)">
       <use xlink:href="#DejaVuSans-31" transform="translate(0 0.684375)"/>
       <use xlink:href="#DejaVuSans-30" transform="translate(63.623047 0.684375)"/>
       <use xlink:href="#DejaVuSans-2212" transform="translate(128.203125 38.965625) scale(0.7)"/>
       <use xlink:href="#DejaVuSans-31" transform="translate(186.855469 38.965625) scale(0.7)"/>
      </g>
     </g>
    </g>
    <g id="ytick_3">
     <g id="line2d_37">
      <path d="M 44.7425 50.130936 
L 242.2745 50.130936 
" clip-path="url(#p1d05fe7bcc)" style="fill: none; stroke: #d9d9d9; stroke-width: 0.8; stroke-linecap: square"/>
     </g>
     <g id="line2d_38">
      <g>
       <use xlink:href="#m7527a53e6a" x="44.7425" y="50.130936" style="stroke: #000000; stroke-width: 0.8"/>
      </g>
     </g>
     <g id="text_6">
      <!-- $\mathdefault{10^{0}}$ -->
      <g transform="translate(23.6625 53.170311) scale(0.08 -0.08)">
       <use xlink:href="#DejaVuSans-31" transform="translate(0 0.765625)"/>
       <use xlink:href="#DejaVuSans-30" transform="translate(63.623047 0.765625)"/>
       <use xlink:href="#DejaVuSans-30" transform="translate(128.203125 39.046875) scale(0.7)"/>
      </g>
     </g>
    </g>
    <g id="ytick_4">
     <g id="line2d_39">
      <path d="M 44.7425 13.559467 
L 242.2745 13.559467 
" clip-path="url(#p1d05fe7bcc)" style="fill: none; stroke: #d9d9d9; stroke-width: 0.8; stroke-linecap: square"/>
     </g>
     <g id="line2d_40">
      <g>
       <use xlink:href="#m7527a53e6a" x="44.7425" y="13.559467" style="stroke: #000000; stroke-width: 0.8"/>
      </g>
     </g>
     <g id="text_7">
      <!-- $\mathdefault{10^{1}}$ -->
      <g transform="translate(23.6625 16.598842) scale(0.08 -0.08)">
       <use xlink:href="#DejaVuSans-31" transform="translate(0 0.684375)"/>
       <use xlink:href="#DejaVuSans-30" transform="translate(63.623047 0.684375)"/>
       <use xlink:href="#DejaVuSans-31" transform="translate(128.203125 38.965625) scale(0.7)"/>
      </g>
     </g>
    </g>
    <g id="ytick_5">
     <g id="line2d_41">
      <path d="M 44.7425 137.827126 
L 242.2745 137.827126 
" clip-path="url(#p1d05fe7bcc)" style="fill: none; stroke-dasharray: 2.96,1.28; stroke-dashoffset: 0; stroke: #f2f2f2; stroke-width: 0.8"/>
     </g>
     <g id="line2d_42">
      <defs>
       <path id="m8e9e831a19" d="M 0 0 
L -2 0 
" style="stroke: #000000; stroke-width: 0.6"/>
      </defs>
      <g>
       <use xlink:href="#m8e9e831a19" x="44.7425" y="137.827126" style="stroke: #000000; stroke-width: 0.6"/>
      </g>
     </g>
    </g>
    <g id="ytick_6">
     <g id="line2d_43">
      <path d="M 44.7425 134.282985 
L 242.2745 134.282985 
" clip-path="url(#p1d05fe7bcc)" style="fill: none; stroke-dasharray: 2.96,1.28; stroke-dashoffset: 0; stroke: #f2f2f2; stroke-width: 0.8"/>
     </g>
     <g id="line2d_44">
      <g>
       <use xlink:href="#m8e9e831a19" x="44.7425" y="134.282985" style="stroke: #000000; stroke-width: 0.6"/>
      </g>
     </g>
    </g>
    <g id="ytick_7">
     <g id="line2d_45">
      <path d="M 44.7425 131.38721 
L 242.2745 131.38721 
" clip-path="url(#p1d05fe7bcc)" style="fill: none; stroke-dasharray: 2.96,1.28; stroke-dashoffset: 0; stroke: #f2f2f2; stroke-width: 0.8"/>
     </g>
     <g id="line2d_46">
      <g>
       <use xlink:href="#m8e9e831a19" x="44.7425" y="131.38721" style="stroke: #000000; stroke-width: 0.6"/>
      </g>
     </g>
    </g>
    <g id="ytick_8">
     <g id="line2d_47">
      <path d="M 44.7425 128.938868 
L 242.2745 128.938868 
" clip-path="url(#p1d05fe7bcc)" style="fill: none; stroke-dasharray: 2.96,1.28; stroke-dashoffset: 0; stroke: #f2f2f2; stroke-width: 0.8"/>
     </g>
     <g id="line2d_48">
      <g>
       <use xlink:href="#m8e9e831a19" x="44.7425" y="128.938868" style="stroke: #000000; stroke-width: 0.6"/>
      </g>
     </g>
    </g>
    <g id="ytick_9">
     <g id="line2d_49">
      <path d="M 44.7425 126.818017 
L 242.2745 126.818017 
" clip-path="url(#p1d05fe7bcc)" style="fill: none; stroke-dasharray: 2.96,1.28; stroke-dashoffset: 0; stroke: #f2f2f2; stroke-width: 0.8"/>
     </g>
     <g id="line2d_50">
      <g>
       <use xlink:href="#m8e9e831a19" x="44.7425" y="126.818017" style="stroke: #000000; stroke-width: 0.6"/>
      </g>
     </g>
    </g>
    <g id="ytick_10">
     <g id="line2d_51">
      <path d="M 44.7425 124.947294 
L 242.2745 124.947294 
" clip-path="url(#p1d05fe7bcc)" style="fill: none; stroke-dasharray: 2.96,1.28; stroke-dashoffset: 0; stroke: #f2f2f2; stroke-width: 0.8"/>
     </g>
     <g id="line2d_52">
      <g>
       <use xlink:href="#m8e9e831a19" x="44.7425" y="124.947294" style="stroke: #000000; stroke-width: 0.6"/>
      </g>
     </g>
    </g>
    <g id="ytick_11">
     <g id="line2d_53">
      <path d="M 44.7425 112.264766 
L 242.2745 112.264766 
" clip-path="url(#p1d05fe7bcc)" style="fill: none; stroke-dasharray: 2.96,1.28; stroke-dashoffset: 0; stroke: #f2f2f2; stroke-width: 0.8"/>
     </g>
     <g id="line2d_54">
      <g>
       <use xlink:href="#m8e9e831a19" x="44.7425" y="112.264766" style="stroke: #000000; stroke-width: 0.6"/>
      </g>
     </g>
    </g>
    <g id="ytick_12">
     <g id="line2d_55">
      <path d="M 44.7425 105.82485 
L 242.2745 105.82485 
" clip-path="url(#p1d05fe7bcc)" style="fill: none; stroke-dasharray: 2.96,1.28; stroke-dashoffset: 0; stroke: #f2f2f2; stroke-width: 0.8"/>
     </g>
     <g id="line2d_56">
      <g>
       <use xlink:href="#m8e9e831a19" x="44.7425" y="105.82485" style="stroke: #000000; stroke-width: 0.6"/>
      </g>
     </g>
    </g>
    <g id="ytick_13">
     <g id="line2d_57">
      <path d="M 44.7425 101.255657 
L 242.2745 101.255657 
" clip-path="url(#p1d05fe7bcc)" style="fill: none; stroke-dasharray: 2.96,1.28; stroke-dashoffset: 0; stroke: #f2f2f2; stroke-width: 0.8"/>
     </g>
     <g id="line2d_58">
      <g>
       <use xlink:href="#m8e9e831a19" x="44.7425" y="101.255657" style="stroke: #000000; stroke-width: 0.6"/>
      </g>
     </g>
    </g>
    <g id="ytick_14">
     <g id="line2d_59">
      <path d="M 44.7425 97.711515 
L 242.2745 97.711515 
" clip-path="url(#p1d05fe7bcc)" style="fill: none; stroke-dasharray: 2.96,1.28; stroke-dashoffset: 0; stroke: #f2f2f2; stroke-width: 0.8"/>
     </g>
     <g id="line2d_60">
      <g>
       <use xlink:href="#m8e9e831a19" x="44.7425" y="97.711515" style="stroke: #000000; stroke-width: 0.6"/>
      </g>
     </g>
    </g>
    <g id="ytick_15">
     <g id="line2d_61">
      <path d="M 44.7425 94.815741 
L 242.2745 94.815741 
" clip-path="url(#p1d05fe7bcc)" style="fill: none; stroke-dasharray: 2.96,1.28; stroke-dashoffset: 0; stroke: #f2f2f2; stroke-width: 0.8"/>
     </g>
     <g id="line2d_62">
      <g>
       <use xlink:href="#m8e9e831a19" x="44.7425" y="94.815741" style="stroke: #000000; stroke-width: 0.6"/>
      </g>
     </g>
    </g>
    <g id="ytick_16">
     <g id="line2d_63">
      <path d="M 44.7425 92.367398 
L 242.2745 92.367398 
" clip-path="url(#p1d05fe7bcc)" style="fill: none; stroke-dasharray: 2.96,1.28; stroke-dashoffset: 0; stroke: #f2f2f2; stroke-width: 0.8"/>
     </g>
     <g id="line2d_64">
      <g>
       <use xlink:href="#m8e9e831a19" x="44.7425" y="92.367398" style="stroke: #000000; stroke-width: 0.6"/>
      </g>
     </g>
    </g>
    <g id="ytick_17">
     <g id="line2d_65">
      <path d="M 44.7425 90.246547 
L 242.2745 90.246547 
" clip-path="url(#p1d05fe7bcc)" style="fill: none; stroke-dasharray: 2.96,1.28; stroke-dashoffset: 0; stroke: #f2f2f2; stroke-width: 0.8"/>
     </g>
     <g id="line2d_66">
      <g>
       <use xlink:href="#m8e9e831a19" x="44.7425" y="90.246547" style="stroke: #000000; stroke-width: 0.6"/>
      </g>
     </g>
    </g>
    <g id="ytick_18">
     <g id="line2d_67">
      <path d="M 44.7425 88.375825 
L 242.2745 88.375825 
" clip-path="url(#p1d05fe7bcc)" style="fill: none; stroke-dasharray: 2.96,1.28; stroke-dashoffset: 0; stroke: #f2f2f2; stroke-width: 0.8"/>
     </g>
     <g id="line2d_68">
      <g>
       <use xlink:href="#m8e9e831a19" x="44.7425" y="88.375825" style="stroke: #000000; stroke-width: 0.6"/>
      </g>
     </g>
    </g>
    <g id="ytick_19">
     <g id="line2d_69">
      <path d="M 44.7425 75.693297 
L 242.2745 75.693297 
" clip-path="url(#p1d05fe7bcc)" style="fill: none; stroke-dasharray: 2.96,1.28; stroke-dashoffset: 0; stroke: #f2f2f2; stroke-width: 0.8"/>
     </g>
     <g id="line2d_70">
      <g>
       <use xlink:href="#m8e9e831a19" x="44.7425" y="75.693297" style="stroke: #000000; stroke-width: 0.6"/>
      </g>
     </g>
    </g>
    <g id="ytick_20">
     <g id="line2d_71">
      <path d="M 44.7425 69.25338 
L 242.2745 69.25338 
" clip-path="url(#p1d05fe7bcc)" style="fill: none; stroke-dasharray: 2.96,1.28; stroke-dashoffset: 0; stroke: #f2f2f2; stroke-width: 0.8"/>
     </g>
     <g id="line2d_72">
      <g>
       <use xlink:href="#m8e9e831a19" x="44.7425" y="69.25338" style="stroke: #000000; stroke-width: 0.6"/>
      </g>
     </g>
    </g>
    <g id="ytick_21">
     <g id="line2d_73">
      <path d="M 44.7425 64.684187 
L 242.2745 64.684187 
" clip-path="url(#p1d05fe7bcc)" style="fill: none; stroke-dasharray: 2.96,1.28; stroke-dashoffset: 0; stroke: #f2f2f2; stroke-width: 0.8"/>
     </g>
     <g id="line2d_74">
      <g>
       <use xlink:href="#m8e9e831a19" x="44.7425" y="64.684187" style="stroke: #000000; stroke-width: 0.6"/>
      </g>
     </g>
    </g>
    <g id="ytick_22">
     <g id="line2d_75">
      <path d="M 44.7425 61.140046 
L 242.2745 61.140046 
" clip-path="url(#p1d05fe7bcc)" style="fill: none; stroke-dasharray: 2.96,1.28; stroke-dashoffset: 0; stroke: #f2f2f2; stroke-width: 0.8"/>
     </g>
     <g id="line2d_76">
      <g>
       <use xlink:href="#m8e9e831a19" x="44.7425" y="61.140046" style="stroke: #000000; stroke-width: 0.6"/>
      </g>
     </g>
    </g>
    <g id="ytick_23">
     <g id="line2d_77">
      <path d="M 44.7425 58.244271 
L 242.2745 58.244271 
" clip-path="url(#p1d05fe7bcc)" style="fill: none; stroke-dasharray: 2.96,1.28; stroke-dashoffset: 0; stroke: #f2f2f2; stroke-width: 0.8"/>
     </g>
     <g id="line2d_78">
      <g>
       <use xlink:href="#m8e9e831a19" x="44.7425" y="58.244271" style="stroke: #000000; stroke-width: 0.6"/>
      </g>
     </g>
    </g>
    <g id="ytick_24">
     <g id="line2d_79">
      <path d="M 44.7425 55.795929 
L 242.2745 55.795929 
" clip-path="url(#p1d05fe7bcc)" style="fill: none; stroke-dasharray: 2.96,1.28; stroke-dashoffset: 0; stroke: #f2f2f2; stroke-width: 0.8"/>
     </g>
     <g id="line2d_80">
      <g>
       <use xlink:href="#m8e9e831a19" x="44.7425" y="55.795929" style="stroke: #000000; stroke-width: 0.6"/>
      </g>
     </g>
    </g>
    <g id="ytick_25">
     <g id="line2d_81">
      <path d="M 44.7425 53.675078 
L 242.2745 53.675078 
" clip-path="url(#p1d05fe7bcc)" style="fill: none; stroke-dasharray: 2.96,1.28; stroke-dashoffset: 0; stroke: #f2f2f2; stroke-width: 0.8"/>
     </g>
     <g id="line2d_82">
      <g>
       <use xlink:href="#m8e9e831a19" x="44.7425" y="53.675078" style="stroke: #000000; stroke-width: 0.6"/>
      </g>
     </g>
    </g>
    <g id="ytick_26">
     <g id="line2d_83">
      <path d="M 44.7425 51.804355 
L 242.2745 51.804355 
" clip-path="url(#p1d05fe7bcc)" style="fill: none; stroke-dasharray: 2.96,1.28; stroke-dashoffset: 0; stroke: #f2f2f2; stroke-width: 0.8"/>
     </g>
     <g id="line2d_84">
      <g>
       <use xlink:href="#m8e9e831a19" x="44.7425" y="51.804355" style="stroke: #000000; stroke-width: 0.6"/>
      </g>
     </g>
    </g>
    <g id="ytick_27">
     <g id="line2d_85">
      <path d="M 44.7425 39.121827 
L 242.2745 39.121827 
" clip-path="url(#p1d05fe7bcc)" style="fill: none; stroke-dasharray: 2.96,1.28; stroke-dashoffset: 0; stroke: #f2f2f2; stroke-width: 0.8"/>
     </g>
     <g id="line2d_86">
      <g>
       <use xlink:href="#m8e9e831a19" x="44.7425" y="39.121827" style="stroke: #000000; stroke-width: 0.6"/>
      </g>
     </g>
    </g>
    <g id="ytick_28">
     <g id="line2d_87">
      <path d="M 44.7425 32.681911 
L 242.2745 32.681911 
" clip-path="url(#p1d05fe7bcc)" style="fill: none; stroke-dasharray: 2.96,1.28; stroke-dashoffset: 0; stroke: #f2f2f2; stroke-width: 0.8"/>
     </g>
     <g id="line2d_88">
      <g>
       <use xlink:href="#m8e9e831a19" x="44.7425" y="32.681911" style="stroke: #000000; stroke-width: 0.6"/>
      </g>
     </g>
    </g>
    <g id="ytick_29">
     <g id="line2d_89">
      <path d="M 44.7425 28.112718 
L 242.2745 28.112718 
" clip-path="url(#p1d05fe7bcc)" style="fill: none; stroke-dasharray: 2.96,1.28; stroke-dashoffset: 0; stroke: #f2f2f2; stroke-width: 0.8"/>
     </g>
     <g id="line2d_90">
      <g>
       <use xlink:href="#m8e9e831a19" x="44.7425" y="28.112718" style="stroke: #000000; stroke-width: 0.6"/>
      </g>
     </g>
    </g>
    <g id="ytick_30">
     <g id="line2d_91">
      <path d="M 44.7425 24.568576 
L 242.2745 24.568576 
" clip-path="url(#p1d05fe7bcc)" style="fill: none; stroke-dasharray: 2.96,1.28; stroke-dashoffset: 0; stroke: #f2f2f2; stroke-width: 0.8"/>
     </g>
     <g id="line2d_92">
      <g>
       <use xlink:href="#m8e9e831a19" x="44.7425" y="24.568576" style="stroke: #000000; stroke-width: 0.6"/>
      </g>
     </g>
    </g>
    <g id="ytick_31">
     <g id="line2d_93">
      <path d="M 44.7425 21.672802 
L 242.2745 21.672802 
" clip-path="url(#p1d05fe7bcc)" style="fill: none; stroke-dasharray: 2.96,1.28; stroke-dashoffset: 0; stroke: #f2f2f2; stroke-width: 0.8"/>
     </g>
     <g id="line2d_94">
      <g>
       <use xlink:href="#m8e9e831a19" x="44.7425" y="21.672802" style="stroke: #000000; stroke-width: 0.6"/>
      </g>
     </g>
    </g>
    <g id="ytick_32">
     <g id="line2d_95">
      <path d="M 44.7425 19.224459 
L 242.2745 19.224459 
" clip-path="url(#p1d05fe7bcc)" style="fill: none; stroke-dasharray: 2.96,1.28; stroke-dashoffset: 0; stroke: #f2f2f2; stroke-width: 0.8"/>
     </g>
     <g id="line2d_96">
      <g>
       <use xlink:href="#m8e9e831a19" x="44.7425" y="19.224459" style="stroke: #000000; stroke-width: 0.6"/>
      </g>
     </g>
    </g>
    <g id="ytick_33">
     <g id="line2d_97">
      <path d="M 44.7425 17.103608 
L 242.2745 17.103608 
" clip-path="url(#p1d05fe7bcc)" style="fill: none; stroke-dasharray: 2.96,1.28; stroke-dashoffset: 0; stroke: #f2f2f2; stroke-width: 0.8"/>
     </g>
     <g id="line2d_98">
      <g>
       <use xlink:href="#m8e9e831a19" x="44.7425" y="17.103608" style="stroke: #000000; stroke-width: 0.6"/>
      </g>
     </g>
    </g>
    <g id="ytick_34">
     <g id="line2d_99">
      <path d="M 44.7425 15.232885 
L 242.2745 15.232885 
" clip-path="url(#p1d05fe7bcc)" style="fill: none; stroke-dasharray: 2.96,1.28; stroke-dashoffset: 0; stroke: #f2f2f2; stroke-width: 0.8"/>
     </g>
     <g id="line2d_100">
      <g>
       <use xlink:href="#m8e9e831a19" x="44.7425" y="15.232885" style="stroke: #000000; stroke-width: 0.6"/>
      </g>
     </g>
    </g>
    <g id="text_8">
     <!-- Spectral acceleration, SA (g) -->
     <g transform="translate(13.27875 129.871075) rotate(-90) scale(0.08 -0.08)">
      <defs>
       <path id="DejaVuSans-53" d="M 3425 4513 
L 3425 3897 
Q 3066 4069 2747 4153 
Q 2428 4238 2131 4238 
Q 1616 4238 1336 4038 
Q 1056 3838 1056 3469 
Q 1056 3159 1242 3001 
Q 1428 2844 1947 2747 
L 2328 2669 
Q 3034 2534 3370 2195 
Q 3706 1856 3706 1288 
Q 3706 609 3251 259 
Q 2797 -91 1919 -91 
Q 1588 -91 1214 -16 
Q 841 59 441 206 
L 441 856 
Q 825 641 1194 531 
Q 1563 422 1919 422 
Q 2459 422 2753 634 
Q 3047 847 3047 1241 
Q 3047 1584 2836 1778 
Q 2625 1972 2144 2069 
L 1759 2144 
Q 1053 2284 737 2584 
Q 422 2884 422 3419 
Q 422 4038 858 4394 
Q 1294 4750 2059 4750 
Q 2388 4750 2728 4690 
Q 3069 4631 3425 4513 
z
" transform="scale(0.015625)"/>
       <path id="DejaVuSans-70" d="M 1159 525 
L 1159 -1331 
L 581 -1331 
L 581 3500 
L 1159 3500 
L 1159 2969 
Q 1341 3281 1617 3432 
Q 1894 3584 2278 3584 
Q 2916 3584 3314 3078 
Q 3713 2572 3713 1747 
Q 3713 922 3314 415 
Q 2916 -91 2278 -91 
Q 1894 -91 1617 61 
Q 1341 213 1159 525 
z
M 3116 1747 
Q 3116 2381 2855 2742 
Q 2594 3103 2138 3103 
Q 1681 3103 1420 2742 
Q 1159 2381 1159 1747 
Q 1159 1113 1420 752 
Q 1681 391 2138 391 
Q 2594 391 2855 752 
Q 3116 1113 3116 1747 
z
" transform="scale(0.015625)"/>
       <path id="DejaVuSans-63" d="M 3122 3366 
L 3122 2828 
Q 2878 2963 2633 3030 
Q 2388 3097 2138 3097 
Q 1578 3097 1268 2742 
Q 959 2388 959 1747 
Q 959 1106 1268 751 
Q 1578 397 2138 397 
Q 2388 397 2633 464 
Q 2878 531 3122 666 
L 3122 134 
Q 2881 22 2623 -34 
Q 2366 -91 2075 -91 
Q 1284 -91 818 406 
Q 353 903 353 1747 
Q 353 2603 823 3093 
Q 1294 3584 2113 3584 
Q 2378 3584 2631 3529 
Q 2884 3475 3122 3366 
z
" transform="scale(0.015625)"/>
       <path id="DejaVuSans-74" d="M 1172 4494 
L 1172 3500 
L 2356 3500 
L 2356 3053 
L 1172 3053 
L 1172 1153 
Q 1172 725 1289 603 
Q 1406 481 1766 481 
L 2356 481 
L 2356 0 
L 1766 0 
Q 1100 0 847 248 
Q 594 497 594 1153 
L 594 3053 
L 172 3053 
L 172 3500 
L 594 3500 
L 594 4494 
L 1172 4494 
z
" transform="scale(0.015625)"/>
       <path id="DejaVuSans-61" d="M 2194 1759 
Q 1497 1759 1228 1600 
Q 959 1441 959 1056 
Q 959 750 1161 570 
Q 1363 391 1709 391 
Q 2188 391 2477 730 
Q 2766 1069 2766 1631 
L 2766 1759 
L 2194 1759 
z
M 3341 1997 
L 3341 0 
L 2766 0 
L 2766 531 
Q 2569 213 2275 61 
Q 1981 -91 1556 -91 
Q 1019 -91 701 211 
Q 384 513 384 1019 
Q 384 1609 779 1909 
Q 1175 2209 1959 2209 
L 2766 2209 
L 2766 2266 
Q 2766 2663 2505 2880 
Q 2244 3097 1772 3097 
Q 1472 3097 1187 3025 
Q 903 2953 641 2809 
L 641 3341 
Q 956 3463 1253 3523 
Q 1550 3584 1831 3584 
Q 2591 3584 2966 3190 
Q 3341 2797 3341 1997 
z
" transform="scale(0.015625)"/>
       <path id="DejaVuSans-6c" d="M 603 4863 
L 1178 4863 
L 1178 0 
L 603 0 
L 603 4863 
z
" transform="scale(0.015625)"/>
       <path id="DejaVuSans-6e" d="M 3513 2113 
L 3513 0 
L 2938 0 
L 2938 2094 
Q 2938 2591 2744 2837 
Q 2550 3084 2163 3084 
Q 1697 3084 1428 2787 
Q 1159 2491 1159 1978 
L 1159 0 
L 581 0 
L 581 3500 
L 1159 3500 
L 1159 2956 
Q 1366 3272 1645 3428 
Q 1925 3584 2291 3584 
Q 2894 3584 3203 3211 
Q 3513 2838 3513 2113 
z
" transform="scale(0.015625)"/>
       <path id="DejaVuSans-41" d="M 2188 4044 
L 1331 1722 
L 3047 1722 
L 2188 4044 
z
M 1831 4666 
L 2547 4666 
L 4325 0 
L 3669 0 
L 3244 1197 
L 1141 1197 
L 716 0 
L 50 0 
L 1831 4666 
z
" transform="scale(0.015625)"/>
       <path id="DejaVuSans-67" d="M 2906 1791 
Q 2906 2416 2648 2759 
Q 2391 3103 1925 3103 
Q 1463 3103 1205 2759 
Q 947 2416 947 1791 
Q 947 1169 1205 825 
Q 1463 481 1925 481 
Q 2391 481 2648 825 
Q 2906 1169 2906 1791 
z
M 3481 434 
Q 3481 -459 3084 -895 
Q 2688 -1331 1869 -1331 
Q 1566 -1331 1297 -1286 
Q 1028 -1241 775 -1147 
L 775 -588 
Q 1028 -725 1275 -790 
Q 1522 -856 1778 -856 
Q 2344 -856 2625 -561 
Q 2906 -266 2906 331 
L 2906 616 
Q 2728 306 2450 153 
Q 2172 0 1784 0 
Q 1141 0 747 490 
Q 353 981 353 1791 
Q 353 2603 747 3093 
Q 1141 3584 1784 3584 
Q 2172 3584 2450 3431 
Q 2728 3278 2906 2969 
L 2906 3500 
L 3481 3500 
L 3481 434 
z
" transform="scale(0.015625)"/>
      </defs>
      <use xlink:href="#DejaVuSans-53"/>
      <use xlink:href="#DejaVuSans-70" x="63.476562"/>
      <use xlink:href="#DejaVuSans-65" x="126.953125"/>
      <use xlink:href="#DejaVuSans-63" x="188.476562"/>
      <use xlink:href="#DejaVuSans-74" x="243.457031"/>
      <use xlink:href="#DejaVuSans-72" x="282.666016"/>
      <use xlink:href="#DejaVuSans-61" x="323.779297"/>
      <use xlink:href="#DejaVuSans-6c" x="385.058594"/>
      <use xlink:href="#DejaVuSans-20" x="412.841797"/>
      <use xlink:href="#DejaVuSans-61" x="444.628906"/>
      <use xlink:href="#DejaVuSans-63" x="505.908203"/>
      <use xlink:href="#DejaVuSans-63" x="560.888672"/>
      <use xlink:href="#DejaVuSans-65" x="615.869141"/>
      <use xlink:href="#DejaVuSans-6c" x="677.392578"/>
      <use xlink:href="#DejaVuSans-65" x="705.175781"/>
      <use xlink:href="#DejaVuSans-72" x="766.699219"/>
      <use xlink:href="#DejaVuSans-61" x="807.8125"/>
      <use xlink:href="#DejaVuSans-74" x="869.091797"/>
      <use xlink:href="#DejaVuSans-69" x="908.300781"/>
      <use xlink:href="#DejaVuSans-6f" x="936.083984"/>
      <use xlink:href="#DejaVuSans-6e" x="997.265625"/>
      <use xlink:href="#DejaVuSans-2c" x="1060.644531"/>
      <use xlink:href="#DejaVuSans-20" x="1092.431641"/>
      <use xlink:href="#DejaVuSans-53" x="1124.21875"/>
      <use xlink:href="#DejaVuSans-41" x="1189.570312"/>
      <use xlink:href="#DejaVuSans-20" x="1257.978516"/>
      <use xlink:href="#DejaVuSans-28" x="1289.765625"/>
      <use xlink:href="#DejaVuSans-67" x="1328.779297"/>
      <use xlink:href="#DejaVuSans-29" x="1392.255859"/>
     </g>
    </g>
   </g>
   <g id="line2d_101">
    <path d="M 53.721227 46.301848 
L 72.333391 44.490483 
L 85.538931 45.091893 
L 95.781944 40.913559 
L 104.151095 44.424395 
L 117.356635 45.422645 
L 127.599648 42.458041 
L 128.328286 42.468664 
L 146.211812 50.773433 
L 159.417352 49.622522 
L 171.460723 58.341038 
L 178.029516 66.776016 
L 191.235056 63.383661 
L 209.84722 73.503665 
L 223.05276 88.074198 
L 233.295773 100.824977 
" clip-path="url(#p1d05fe7bcc)" style="fill: none; stroke: #b2b2b2; stroke-width: 0.8; stroke-linecap: square"/>
   </g>
   <g id="line2d_102">
    <path d="M 53.721227 60.862196 
L 72.333391 59.782248 
L 85.538931 53.580828 
L 95.781944 48.802308 
L 104.151095 51.2652 
L 117.356635 45.890085 
L 127.599648 42.080239 
L 128.328286 42.468664 
L 146.211812 50.202007 
L 159.417352 48.91293 
L 171.460723 49.687545 
L 178.029516 50.069123 
L 191.235056 63.511116 
L 209.84722 79.031818 
L 223.05276 94.083173 
L 233.295773 102.918099 
" clip-path="url(#p1d05fe7bcc)" style="fill: none; stroke: #b2b2b2; stroke-width: 0.8; stroke-linecap: square"/>
   </g>
   <g id="line2d_103">
    <path d="M 53.721227 47.908451 
L 72.333391 45.143835 
L 85.538931 42.395238 
L 95.781944 43.687358 
L 104.151095 42.000817 
L 117.356635 41.950702 
L 127.599648 41.471363 
L 128.328286 42.468664 
L 146.211812 46.351812 
L 159.417352 53.720563 
L 171.460723 57.155006 
L 178.029516 60.862743 
L 191.235056 69.560725 
L 209.84722 75.874185 
L 223.05276 82.281646 
L 233.295773 78.126044 
" clip-path="url(#p1d05fe7bcc)" style="fill: none; stroke: #b2b2b2; stroke-width: 0.8; stroke-linecap: square"/>
   </g>
   <g id="line2d_104">
    <path d="M 53.721227 47.254397 
L 72.333391 44.375703 
L 85.538931 44.704305 
L 95.781944 42.413892 
L 104.151095 40.302686 
L 117.356635 35.877513 
L 127.599648 42.415451 
L 128.328286 42.468664 
L 146.211812 37.444051 
L 159.417352 45.306495 
L 171.460723 39.985009 
L 178.029516 38.84266 
L 191.235056 44.556028 
L 209.84722 57.806533 
L 223.05276 66.319231 
L 233.295773 72.946728 
" clip-path="url(#p1d05fe7bcc)" style="fill: none; stroke: #b2b2b2; stroke-width: 0.8; stroke-linecap: square"/>
   </g>
   <g id="line2d_105">
    <path d="M 53.721227 58.393591 
L 72.333391 48.862653 
L 85.538931 49.210463 
L 95.781944 52.87713 
L 104.151095 48.202272 
L 117.356635 49.216023 
L 127.599648 42.524433 
L 128.328286 42.468664 
L 146.211812 45.345581 
L 159.417352 54.966965 
L 171.460723 60.059647 
L 178.029516 65.097134 
L 191.235056 73.885141 
L 209.84722 86.021092 
L 223.05276 94.074484 
L 233.295773 101.575097 
" clip-path="url(#p1d05fe7bcc)" style="fill: none; stroke: #b2b2b2; stroke-width: 0.8; stroke-linecap: square"/>
   </g>
   <g id="line2d_106">
    <path d="M 53.721227 59.77512 
L 72.333391 57.885624 
L 85.538931 53.828741 
L 95.781944 48.056506 
L 104.151095 44.93208 
L 117.356635 51.046832 
L 127.599648 42.63659 
L 128.328286 42.468664 
L 146.211812 49.163842 
L 159.417352 54.249611 
L 171.460723 63.795551 
L 178.029516 75.981962 
L 191.235056 86.499537 
L 209.84722 101.748186 
L 223.05276 108.822099 
L 233.295773 118.623865 
" clip-path="url(#p1d05fe7bcc)" style="fill: none; stroke: #b2b2b2; stroke-width: 0.8; stroke-linecap: square"/>
   </g>
   <g id="line2d_107">
    <path d="M 53.721227 40.421091 
L 72.333391 38.554004 
L 85.538931 37.127295 
L 95.781944 37.411785 
L 104.151095 36.323991 
L 117.356635 34.175488 
L 127.599648 41.853433 
L 128.328286 42.468664 
L 146.211812 57.182939 
L 159.417352 62.780315 
L 171.460723 64.982608 
L 178.029516 73.248255 
L 191.235056 67.954201 
L 209.84722 80.850457 
L 223.05276 94.846148 
L 233.295773 97.087335 
" clip-path="url(#p1d05fe7bcc)" style="fill: none; stroke: #b2b2b2; stroke-width: 0.8; stroke-linecap: square"/>
   </g>
   <g id="line2d_108">
    <path d="M 53.721227 30.497136 
L 72.333391 24.150132 
L 85.538931 27.066826 
L 95.781944 36.312665 
L 104.151095 38.767871 
L 117.356635 36.589924 
L 127.599648 41.846582 
L 128.328286 42.468664 
L 146.211812 47.082626 
L 159.417352 48.418863 
L 171.460723 57.242818 
L 178.029516 63.441545 
L 191.235056 68.422687 
L 209.84722 75.986739 
L 223.05276 79.661213 
L 233.295773 87.724495 
" clip-path="url(#p1d05fe7bcc)" style="fill: none; stroke: #b2b2b2; stroke-width: 0.8; stroke-linecap: square"/>
   </g>
   <g id="line2d_109">
    <path d="M 53.721227 42.05129 
L 72.333391 37.756536 
L 85.538931 39.338213 
L 95.781944 35.837765 
L 104.151095 37.929292 
L 117.356635 28.97967 
L 127.599648 41.783165 
L 128.328286 42.468664 
L 146.211812 59.305831 
L 159.417352 55.379736 
L 171.460723 63.688713 
L 178.029516 73.243615 
L 191.235056 81.549901 
L 209.84722 90.798426 
L 223.05276 100.588359 
L 233.295773 102.471651 
" clip-path="url(#p1d05fe7bcc)" style="fill: none; stroke: #b2b2b2; stroke-width: 0.8; stroke-linecap: square"/>
   </g>
   <g id="line2d_110">
    <path d="M 53.721227 45.989135 
L 72.333391 43.46516 
L 85.538931 47.78557 
L 95.781944 40.701184 
L 104.151095 43.660176 
L 117.356635 45.664506 
L 127.599648 42.329347 
L 128.328286 42.468664 
L 146.211812 50.892306 
L 159.417352 62.914196 
L 171.460723 75.805597 
L 178.029516 81.950957 
L 191.235056 92.31813 
L 209.84722 106.834112 
L 223.05276 117.847444 
L 233.295773 125.784298 
" clip-path="url(#p1d05fe7bcc)" style="fill: none; stroke: #b2b2b2; stroke-width: 0.8; stroke-linecap: square"/>
   </g>
   <g id="line2d_111">
    <path d="M 53.721227 44.484322 
L 72.333391 36.807106 
L 85.538931 41.099307 
L 95.781944 42.282579 
L 104.151095 38.864282 
L 117.356635 44.664249 
L 127.599648 41.696244 
L 128.328286 42.468664 
L 146.211812 57.995894 
L 159.417352 62.452953 
L 171.460723 70.076886 
L 178.029516 73.268778 
L 191.235056 85.38943 
L 209.84722 100.720345 
L 223.05276 112.730518 
L 233.295773 122.035757 
" clip-path="url(#p1d05fe7bcc)" style="fill: none; stroke: #b2b2b2; stroke-width: 0.8; stroke-linecap: square"/>
   </g>
   <g id="line2d_112">
    <path d="M 53.721227 31.827413 
L 72.333391 33.19747 
L 85.538931 30.771642 
L 95.781944 28.375777 
L 104.151095 33.657597 
L 117.356635 36.287087 
L 127.599648 42.570472 
L 128.328286 42.468664 
L 146.211812 48.120621 
L 159.417352 45.902084 
L 171.460723 43.628764 
L 178.029516 47.934411 
L 191.235056 64.140128 
L 209.84722 60.903435 
L 223.05276 59.378688 
L 233.295773 68.559516 
" clip-path="url(#p1d05fe7bcc)" style="fill: none; stroke: #b2b2b2; stroke-width: 0.8; stroke-linecap: square"/>
   </g>
   <g id="line2d_113">
    <path d="M 53.721227 52.81371 
L 72.333391 52.165017 
L 85.538931 48.162871 
L 95.781944 45.547882 
L 104.151095 46.904905 
L 117.356635 48.556325 
L 127.599648 42.151086 
L 128.328286 42.468664 
L 146.211812 40.361916 
L 159.417352 40.303413 
L 171.460723 48.250182 
L 178.029516 54.994835 
L 191.235056 66.528003 
L 209.84722 84.73751 
L 223.05276 93.814788 
L 233.295773 101.383382 
" clip-path="url(#p1d05fe7bcc)" style="fill: none; stroke: #b2b2b2; stroke-width: 0.8; stroke-linecap: square"/>
   </g>
   <g id="line2d_114">
    <path d="M 53.721227 26.634987 
L 72.333391 13.1472 
L 85.538931 13.317253 
L 95.781944 18.346957 
L 104.151095 24.489001 
L 117.356635 33.124638 
L 127.599648 41.935048 
L 128.328286 42.468664 
L 146.211812 47.868108 
L 159.417352 46.474548 
L 171.460723 58.511519 
L 178.029516 65.773444 
L 191.235056 72.848924 
L 209.84722 89.079695 
L 223.05276 98.098508 
L 233.295773 106.164534 
" clip-path="url(#p1d05fe7bcc)" style="fill: none; stroke: #b2b2b2; stroke-width: 0.8; stroke-linecap: square"/>
   </g>
   <g id="line2d_115">
    <path d="M 53.721227 40.095275 
L 72.333391 38.579569 
L 85.538931 36.692937 
L 95.781944 40.86903 
L 104.151095 39.708854 
L 117.356635 32.804764 
L 127.599648 41.720824 
L 128.328286 42.468664 
L 146.211812 52.426283 
L 159.417352 46.560076 
L 171.460723 49.079461 
L 178.029516 52.64721 
L 191.235056 61.212333 
L 209.84722 74.517345 
L 223.05276 83.244178 
L 233.295773 81.517834 
" clip-path="url(#p1d05fe7bcc)" style="fill: none; stroke: #b2b2b2; stroke-width: 0.8; stroke-linecap: square"/>
   </g>
   <g id="line2d_116">
    <path d="M 53.721227 37.596577 
L 72.333391 43.819652 
L 85.538931 40.016234 
L 95.781944 39.225747 
L 104.151095 44.719982 
L 117.356635 46.187988 
L 127.599648 42.656481 
L 128.328286 42.468664 
L 146.211812 48.362192 
L 159.417352 51.241508 
L 171.460723 49.610583 
L 178.029516 46.711798 
L 191.235056 56.63289 
L 209.84722 79.006131 
L 223.05276 85.306622 
L 233.295773 97.767015 
" clip-path="url(#p1d05fe7bcc)" style="fill: none; stroke: #b2b2b2; stroke-width: 0.8; stroke-linecap: square"/>
   </g>
   <g id="line2d_117">
    <path d="M 53.721227 44.998282 
L 72.333391 37.895604 
L 85.538931 36.031557 
L 95.781944 39.56022 
L 104.151095 38.232357 
L 117.356635 43.52217 
L 127.599648 42.139331 
L 128.328286 42.468664 
L 146.211812 49.453518 
L 159.417352 54.752753 
L 171.460723 62.449776 
L 178.029516 66.621474 
L 191.235056 65.290837 
L 209.84722 77.750532 
L 223.05276 99.709832 
L 233.295773 105.372064 
" clip-path="url(#p1d05fe7bcc)" style="fill: none; stroke: #b2b2b2; stroke-width: 0.8; stroke-linecap: square"/>
   </g>
   <g id="line2d_118">
    <path d="M 53.721227 49.006547 
L 72.333391 48.842641 
L 85.538931 45.685395 
L 95.781944 46.876489 
L 104.151095 45.444806 
L 117.356635 38.118514 
L 127.599648 41.795717 
L 128.328286 42.468664 
L 146.211812 53.089111 
L 159.417352 56.983525 
L 171.460723 60.597745 
L 178.029516 58.10295 
L 191.235056 63.920464 
L 209.84722 79.431147 
L 223.05276 87.848671 
L 233.295773 96.11264 
" clip-path="url(#p1d05fe7bcc)" style="fill: none; stroke: #b2b2b2; stroke-width: 0.8; stroke-linecap: square"/>
   </g>
   <g id="line2d_119">
    <path d="M 53.721227 52.8981 
L 72.333391 48.253638 
L 85.538931 48.908695 
L 95.781944 45.633091 
L 104.151095 46.457606 
L 117.356635 41.709328 
L 127.599648 42.400468 
L 128.328286 42.468664 
L 146.211812 44.337787 
L 159.417352 44.61733 
L 171.460723 51.461319 
L 178.029516 57.543248 
L 191.235056 67.965588 
L 209.84722 80.598731 
L 223.05276 91.870589 
L 233.295773 101.153358 
" clip-path="url(#p1d05fe7bcc)" style="fill: none; stroke: #b2b2b2; stroke-width: 0.8; stroke-linecap: square"/>
   </g>
   <g id="line2d_120">
    <path d="M 53.721227 45.431719 
L 72.333391 38.041405 
L 85.538931 42.460384 
L 95.781944 42.667365 
L 104.151095 38.369741 
L 117.356635 41.482852 
L 127.599648 42.156553 
L 128.328286 42.468664 
L 146.211812 65.745035 
L 159.417352 76.500848 
L 171.460723 80.108599 
L 178.029516 83.628557 
L 191.235056 86.02191 
L 209.84722 108.240691 
L 223.05276 119.122161 
L 233.295773 127.359195 
" clip-path="url(#p1d05fe7bcc)" style="fill: none; stroke: #b2b2b2; stroke-width: 0.8; stroke-linecap: square"/>
   </g>
   <g id="line2d_121">
    <path d="M 53.721227 45.86206 
L 72.333391 40.365477 
L 85.538931 33.000789 
L 95.781944 40.937274 
L 104.151095 39.263266 
L 117.356635 44.770711 
L 127.599648 42.399716 
L 128.328286 42.468664 
L 146.211812 52.642096 
L 159.417352 59.406804 
L 171.460723 72.540823 
L 178.029516 74.615131 
L 191.235056 82.856206 
L 209.84722 107.327923 
L 223.05276 116.102521 
L 233.295773 125.130559 
" clip-path="url(#p1d05fe7bcc)" style="fill: none; stroke: #b2b2b2; stroke-width: 0.8; stroke-linecap: square"/>
   </g>
   <g id="line2d_122">
    <path d="M 53.721227 40.981418 
L 72.333391 46.415198 
L 85.538931 41.692252 
L 95.781944 44.647959 
L 104.151095 39.562511 
L 117.356635 36.253376 
L 127.599648 41.784626 
L 128.328286 42.468664 
L 146.211812 56.782245 
L 159.417352 66.90249 
L 171.460723 70.171833 
L 178.029516 72.195512 
L 191.235056 84.068425 
L 209.84722 100.125337 
L 223.05276 109.009015 
L 233.295773 118.467386 
" clip-path="url(#p1d05fe7bcc)" style="fill: none; stroke: #b2b2b2; stroke-width: 0.8; stroke-linecap: square"/>
   </g>
   <g id="line2d_123">
    <path d="M 53.721227 44.666431 
L 72.333391 42.420582 
L 85.538931 44.548897 
L 95.781944 35.087931 
L 104.151095 40.582953 
L 117.356635 41.906015 
L 127.599648 41.99928 
L 128.328286 42.468664 
L 146.211812 53.651159 
L 159.417352 59.255293 
L 171.460723 64.632536 
L 178.029516 69.028826 
L 191.235056 80.154492 
L 209.84722 92.629367 
L 223.05276 100.353838 
L 233.295773 106.323337 
" clip-path="url(#p1d05fe7bcc)" style="fill: none; stroke: #b2b2b2; stroke-width: 0.8; stroke-linecap: square"/>
   </g>
   <g id="line2d_124">
    <path d="M 53.721227 32.335751 
L 72.333391 36.514749 
L 85.538931 36.774366 
L 95.781944 39.580582 
L 104.151095 33.797978 
L 117.356635 38.077105 
L 127.599648 42.63979 
L 128.328286 42.468664 
L 146.211812 40.204141 
L 159.417352 43.831665 
L 171.460723 54.325637 
L 178.029516 49.689603 
L 191.235056 65.390744 
L 209.84722 68.471133 
L 223.05276 65.292244 
L 233.295773 73.614328 
" clip-path="url(#p1d05fe7bcc)" style="fill: none; stroke: #b2b2b2; stroke-width: 0.8; stroke-linecap: square"/>
   </g>
   <g id="line2d_125">
    <path d="M 53.721227 48.996762 
L 72.333391 45.362645 
L 85.538931 36.512518 
L 95.781944 40.975089 
L 104.151095 41.896425 
L 117.356635 48.695943 
L 127.599648 43.176424 
L 128.328286 42.468664 
L 146.211812 38.080904 
L 159.417352 48.294804 
L 171.460723 55.577675 
L 178.029516 51.775185 
L 191.235056 56.539504 
L 209.84722 79.108909 
L 223.05276 92.16868 
L 233.295773 102.794479 
" clip-path="url(#p1d05fe7bcc)" style="fill: none; stroke: #b2b2b2; stroke-width: 0.8; stroke-linecap: square"/>
   </g>
   <g id="line2d_126">
    <path d="M 53.721227 26.716798 
L 72.333391 22.988432 
L 85.538931 29.378344 
L 95.781944 36.052404 
L 104.151095 33.105689 
L 117.356635 31.775065 
L 127.599648 41.612754 
L 128.328286 42.468664 
L 146.211812 66.579444 
L 159.417352 70.906382 
L 171.460723 69.292986 
L 178.029516 72.358366 
L 191.235056 77.155553 
L 209.84722 88.027563 
L 223.05276 101.982345 
L 233.295773 114.239124 
" clip-path="url(#p1d05fe7bcc)" style="fill: none; stroke: #b2b2b2; stroke-width: 0.8; stroke-linecap: square"/>
   </g>
   <g id="line2d_127">
    <path d="M 53.721227 54.28143 
L 72.333391 46.865107 
L 85.538931 46.514634 
L 95.781944 43.790099 
L 104.151095 48.227737 
L 117.356635 48.188015 
L 127.599648 42.621517 
L 128.328286 42.468664 
L 146.211812 55.577595 
L 159.417352 52.287307 
L 171.460723 57.069841 
L 178.029516 54.407613 
L 191.235056 63.101504 
L 209.84722 73.890712 
L 223.05276 76.190346 
L 233.295773 77.840123 
" clip-path="url(#p1d05fe7bcc)" style="fill: none; stroke: #b2b2b2; stroke-width: 0.8; stroke-linecap: square"/>
   </g>
   <g id="line2d_128">
    <path d="M 53.721227 33.949258 
L 72.333391 26.86863 
L 85.538931 25.859283 
L 95.781944 35.445777 
L 104.151095 40.698452 
L 117.356635 38.853589 
L 127.599648 42.477389 
L 128.328286 42.468664 
L 146.211812 49.606274 
L 159.417352 54.936932 
L 171.460723 57.098736 
L 178.029516 62.644023 
L 191.235056 71.967796 
L 209.84722 73.413778 
L 223.05276 84.924174 
L 233.295773 88.058768 
" clip-path="url(#p1d05fe7bcc)" style="fill: none; stroke: #b2b2b2; stroke-width: 0.8; stroke-linecap: square"/>
   </g>
   <g id="line2d_129">
    <path d="M 53.721227 35.40947 
L 72.333391 30.456796 
L 85.538931 32.586033 
L 95.781944 27.53104 
L 104.151095 39.544271 
L 117.356635 38.381054 
L 127.599648 42.046253 
L 128.328286 42.468664 
L 146.211812 38.553976 
L 159.417352 51.974472 
L 171.460723 50.048181 
L 178.029516 56.075489 
L 191.235056 56.236608 
L 209.84722 64.361258 
L 223.05276 74.789848 
L 233.295773 74.227184 
" clip-path="url(#p1d05fe7bcc)" style="fill: none; stroke: #b2b2b2; stroke-width: 0.8; stroke-linecap: square"/>
   </g>
   <g id="line2d_130">
    <path d="M 53.721227 37.217026 
L 72.333391 36.642813 
L 85.538931 41.450334 
L 95.781944 42.877099 
L 104.151095 38.368774 
L 117.356635 31.998335 
L 127.599648 42.055156 
L 128.328286 42.468664 
L 146.211812 62.530853 
L 159.417352 69.58937 
L 171.460723 80.276323 
L 178.029516 88.069852 
L 191.235056 103.429615 
L 209.84722 115.359883 
L 223.05276 125.265935 
L 233.295773 132.014725 
" clip-path="url(#p1d05fe7bcc)" style="fill: none; stroke: #b2b2b2; stroke-width: 0.8; stroke-linecap: square"/>
   </g>
   <g id="line2d_131">
    <path d="M 53.721227 49.068422 
L 72.333391 39.007863 
L 85.538931 42.449879 
L 95.781944 44.45823 
L 104.151095 41.803017 
L 117.356635 38.657457 
L 127.599648 43.141377 
L 128.328286 42.468664 
L 146.211812 52.715252 
L 159.417352 61.547396 
L 171.460723 70.579067 
L 178.029516 75.076322 
L 191.235056 83.42621 
L 209.84722 98.776563 
L 223.05276 109.646254 
L 233.295773 121.013451 
" clip-path="url(#p1d05fe7bcc)" style="fill: none; stroke: #b2b2b2; stroke-width: 0.8; stroke-linecap: square"/>
   </g>
   <g id="line2d_132">
    <path d="M 53.721227 29.083801 
L 72.333391 24.815743 
L 85.538931 34.847134 
L 95.781944 35.849695 
L 104.151095 32.733809 
L 117.356635 34.442271 
L 127.599648 42.421868 
L 128.328286 42.468664 
L 146.211812 38.698324 
L 159.417352 35.014323 
L 171.460723 49.372484 
L 178.029516 58.006953 
L 191.235056 59.238485 
L 209.84722 72.910065 
L 223.05276 86.958091 
L 233.295773 93.090702 
" clip-path="url(#p1d05fe7bcc)" style="fill: none; stroke: #b2b2b2; stroke-width: 0.8; stroke-linecap: square"/>
   </g>
   <g id="line2d_133">
    <path d="M 53.721227 52.618982 
L 72.333391 50.928603 
L 85.538931 44.497982 
L 95.781944 40.583639 
L 104.151095 38.93564 
L 117.356635 42.055576 
L 127.599648 41.865989 
L 128.328286 42.468664 
L 146.211812 48.025227 
L 159.417352 51.643995 
L 171.460723 66.681064 
L 178.029516 70.107976 
L 191.235056 76.256772 
L 209.84722 91.110739 
L 223.05276 97.378303 
L 233.295773 108.627042 
" clip-path="url(#p1d05fe7bcc)" style="fill: none; stroke: #b2b2b2; stroke-width: 0.8; stroke-linecap: square"/>
   </g>
   <g id="line2d_134">
    <path d="M 53.721227 49.054324 
L 72.333391 47.790045 
L 85.538931 43.297303 
L 95.781944 44.79863 
L 104.151095 43.685771 
L 117.356635 42.889225 
L 127.599648 42.64299 
L 128.328286 42.468664 
L 146.211812 40.60486 
L 159.417352 46.45099 
L 171.460723 54.581888 
L 178.029516 59.493126 
L 191.235056 67.682891 
L 209.84722 84.192851 
L 223.05276 95.355537 
L 233.295773 101.227207 
" clip-path="url(#p1d05fe7bcc)" style="fill: none; stroke: #b2b2b2; stroke-width: 0.8; stroke-linecap: square"/>
   </g>
   <g id="line2d_135">
    <path d="M 53.721227 52.181083 
L 72.333391 48.032768 
L 85.538931 39.155346 
L 95.781944 44.13764 
L 104.151095 48.287358 
L 117.356635 44.853875 
L 127.599648 41.7655 
L 128.328286 42.468664 
L 146.211812 50.762236 
L 159.417352 65.740761 
L 171.460723 79.450884 
L 178.029516 75.108457 
L 191.235056 87.633546 
L 209.84722 92.145178 
L 223.05276 97.861587 
L 233.295773 113.452719 
" clip-path="url(#p1d05fe7bcc)" style="fill: none; stroke: #b2b2b2; stroke-width: 0.8; stroke-linecap: square"/>
   </g>
   <g id="line2d_136">
    <path d="M 53.721227 29.89976 
L 72.333391 42.687288 
L 85.538931 41.646961 
L 95.781944 38.191225 
L 104.151095 38.541627 
L 117.356635 40.316669 
L 127.599648 42.300276 
L 128.328286 42.468664 
L 146.211812 47.548378 
L 159.417352 46.663952 
L 171.460723 47.822168 
L 178.029516 45.091407 
L 191.235056 55.392358 
L 209.84722 66.991023 
L 223.05276 78.686275 
L 233.295773 89.215056 
" clip-path="url(#p1d05fe7bcc)" style="fill: none; stroke: #b2b2b2; stroke-width: 0.8; stroke-linecap: square"/>
   </g>
   <g id="line2d_137">
    <path d="M 53.721227 43.248105 
L 72.333391 47.446387 
L 85.538931 50.884208 
L 95.781944 49.262665 
L 104.151095 47.377269 
L 117.356635 44.961221 
L 127.599648 42.56284 
L 128.328286 42.468664 
L 146.211812 50.68688 
L 159.417352 54.74583 
L 171.460723 51.103118 
L 178.029516 56.885896 
L 191.235056 58.697984 
L 209.84722 72.478459 
L 223.05276 82.905448 
L 233.295773 89.811808 
" clip-path="url(#p1d05fe7bcc)" style="fill: none; stroke: #b2b2b2; stroke-width: 0.8; stroke-linecap: square"/>
   </g>
   <g id="line2d_138">
    <path d="M 53.721227 48.675998 
L 72.333391 47.235909 
L 85.538931 45.452093 
L 95.781944 47.850355 
L 104.151095 45.576526 
L 117.356635 40.61322 
L 127.599648 42.585784 
L 128.328286 42.468664 
L 146.211812 47.783114 
L 159.417352 61.515235 
L 171.460723 73.253901 
L 178.029516 73.139088 
L 191.235056 70.384055 
L 209.84722 83.096505 
L 223.05276 94.58809 
L 233.295773 99.604381 
" clip-path="url(#p1d05fe7bcc)" style="fill: none; stroke: #b2b2b2; stroke-width: 0.8; stroke-linecap: square"/>
   </g>
   <g id="line2d_139">
    <path d="M 53.721227 44.074792 
L 72.333391 48.761204 
L 85.538931 42.460717 
L 95.781944 39.800365 
L 104.151095 43.464813 
L 117.356635 40.589992 
L 127.599648 42.49127 
L 128.328286 42.468664 
L 146.211812 51.948201 
L 159.417352 61.913638 
L 171.460723 68.433673 
L 178.029516 71.301706 
L 191.235056 79.18643 
L 209.84722 81.066614 
L 223.05276 88.58456 
L 233.295773 91.994416 
" clip-path="url(#p1d05fe7bcc)" style="fill: none; stroke: #b2b2b2; stroke-width: 0.8; stroke-linecap: square"/>
   </g>
   <g id="line2d_140">
    <path d="M 53.721227 43.802929 
L 72.333391 41.44453 
L 85.538931 44.913619 
L 95.781944 40.303691 
L 104.151095 36.573405 
L 117.356635 38.870757 
L 127.599648 41.731173 
L 128.328286 42.468664 
L 146.211812 57.575876 
L 159.417352 66.831923 
L 171.460723 63.304428 
L 178.029516 67.689537 
L 191.235056 73.942343 
L 209.84722 84.223982 
L 223.05276 84.699259 
L 233.295773 91.867715 
" clip-path="url(#p1d05fe7bcc)" style="fill: none; stroke: #b2b2b2; stroke-width: 0.8; stroke-linecap: square"/>
   </g>
   <g id="line2d_141">
    <path d="M 53.721227 46.681284 
L 72.333391 46.80271 
L 85.538931 40.47756 
L 95.781944 34.69274 
L 104.151095 41.242968 
L 117.356635 40.686904 
L 127.599648 42.943101 
L 128.328286 42.468664 
L 146.211812 43.748515 
L 159.417352 52.066415 
L 171.460723 55.122327 
L 178.029516 57.627155 
L 191.235056 65.665297 
L 209.84722 79.034376 
L 223.05276 83.174826 
L 233.295773 85.682747 
" clip-path="url(#p1d05fe7bcc)" style="fill: none; stroke: #b2b2b2; stroke-width: 0.8; stroke-linecap: square"/>
   </g>
   <g id="line2d_142">
    <path d="M 53.721227 57.157333 
L 72.333391 54.409231 
L 85.538931 44.998892 
L 95.781944 43.226004 
L 104.151095 44.888085 
L 117.356635 43.087885 
L 127.599648 42.533764 
L 128.328286 42.468664 
L 146.211812 49.21693 
L 159.417352 59.031604 
L 171.460723 61.624456 
L 178.029516 63.08194 
L 191.235056 69.912988 
L 209.84722 85.310042 
L 223.05276 93.809634 
L 233.295773 98.571265 
" clip-path="url(#p1d05fe7bcc)" style="fill: none; stroke: #b2b2b2; stroke-width: 0.8; stroke-linecap: square"/>
   </g>
   <g id="line2d_143">
    <path d="M 53.721227 31.001749 
L 72.333391 36.348764 
L 85.538931 38.076197 
L 95.781944 35.591317 
L 104.151095 37.542853 
L 117.356635 39.469369 
L 127.599648 42.333326 
L 128.328286 42.468664 
L 146.211812 48.439544 
L 159.417352 59.542935 
L 171.460723 57.942544 
L 178.029516 67.189854 
L 191.235056 71.351758 
L 209.84722 83.02543 
L 223.05276 76.78187 
L 233.295773 91.100413 
" clip-path="url(#p1d05fe7bcc)" style="fill: none; stroke: #b2b2b2; stroke-width: 0.8; stroke-linecap: square"/>
   </g>
   <g id="line2d_144">
    <path d="M 53.721227 44.990232 
L 72.333391 42.282429 
L 85.538931 45.536611 
L 95.781944 49.484689 
L 104.151095 44.232499 
L 117.356635 42.893201 
L 127.599648 41.802138 
L 128.328286 42.468664 
L 146.211812 45.500564 
L 159.417352 56.841297 
L 171.460723 63.206258 
L 178.029516 60.290959 
L 191.235056 65.017059 
L 209.84722 65.033608 
L 223.05276 79.491287 
L 233.295773 76.997565 
" clip-path="url(#p1d05fe7bcc)" style="fill: none; stroke: #b2b2b2; stroke-width: 0.8; stroke-linecap: square"/>
   </g>
   <g id="line2d_145">
    <path d="M 53.721227 50.021493 
L 72.333391 49.3235 
L 85.538931 46.604215 
L 95.781944 47.886239 
L 104.151095 52.020031 
L 117.356635 53.470021 
L 127.599648 42.153888 
L 128.328286 42.468664 
L 146.211812 53.321719 
L 159.417352 51.308117 
L 171.460723 48.367617 
L 178.029516 54.850173 
L 191.235056 64.678299 
L 209.84722 73.878735 
L 223.05276 79.047278 
L 233.295773 82.519782 
" clip-path="url(#p1d05fe7bcc)" style="fill: none; stroke: #b2b2b2; stroke-width: 0.8; stroke-linecap: square"/>
   </g>
   <g id="line2d_146">
    <path d="M 53.721227 51.131823 
L 72.333391 48.217478 
L 85.538931 46.534389 
L 95.781944 43.609977 
L 104.151095 41.714684 
L 117.356635 43.080132 
L 127.599648 42.896355 
L 128.328286 42.468664 
L 146.211812 37.652383 
L 159.417352 48.482997 
L 171.460723 52.045156 
L 178.029516 51.488872 
L 191.235056 53.98517 
L 209.84722 59.543164 
L 223.05276 68.239242 
L 233.295773 76.138737 
" clip-path="url(#p1d05fe7bcc)" style="fill: none; stroke: #b2b2b2; stroke-width: 0.8; stroke-linecap: square"/>
   </g>
   <g id="line2d_147">
    <path d="M 53.721227 25.530328 
L 72.333391 33.580986 
L 85.538931 37.312867 
L 95.781944 36.044394 
L 104.151095 36.520341 
L 117.356635 44.270735 
L 127.599648 42.031241 
L 128.328286 42.468664 
L 146.211812 47.307415 
L 159.417352 53.207301 
L 171.460723 59.400975 
L 178.029516 58.886453 
L 191.235056 56.451502 
L 209.84722 65.024952 
L 223.05276 65.089517 
L 233.295773 69.56602 
" clip-path="url(#p1d05fe7bcc)" style="fill: none; stroke: #b2b2b2; stroke-width: 0.8; stroke-linecap: square"/>
   </g>
   <g id="line2d_148">
    <path d="M 53.721227 47.424546 
L 72.333391 47.372252 
L 85.538931 49.884905 
L 95.781944 47.702702 
L 104.151095 45.026356 
L 117.356635 48.465759 
L 127.599648 41.997121 
L 128.328286 42.468664 
L 146.211812 63.469558 
L 159.417352 59.199725 
L 171.460723 59.558846 
L 178.029516 60.467747 
L 191.235056 57.499324 
L 209.84722 60.58941 
L 223.05276 64.540412 
L 233.295773 69.932277 
" clip-path="url(#p1d05fe7bcc)" style="fill: none; stroke: #b2b2b2; stroke-width: 0.8; stroke-linecap: square"/>
   </g>
   <g id="line2d_149">
    <path d="M 53.721227 39.873781 
L 72.333391 35.259608 
L 85.538931 28.393075 
L 95.781944 21.987305 
L 104.151095 29.124476 
L 117.356635 36.701356 
L 127.599648 41.923051 
L 128.328286 42.468664 
L 146.211812 48.072922 
L 159.417352 54.088336 
L 171.460723 51.814113 
L 178.029516 49.798876 
L 191.235056 53.891636 
L 209.84722 59.919814 
L 223.05276 72.42157 
L 233.295773 77.569909 
" clip-path="url(#p1d05fe7bcc)" style="fill: none; stroke: #b2b2b2; stroke-width: 0.8; stroke-linecap: square"/>
   </g>
   <g id="line2d_150">
    <path d="M 53.721227 46.562619 
L 72.333391 39.389841 
L 85.538931 39.242377 
L 95.781944 41.394837 
L 104.151095 38.355999 
L 117.356635 44.562322 
L 127.599648 41.634387 
L 128.328286 42.468664 
L 146.211812 57.770708 
L 159.417352 59.690745 
L 171.460723 76.507162 
L 178.029516 82.320901 
L 191.235056 95.231105 
L 209.84722 111.433693 
L 223.05276 123.778636 
L 233.295773 131.79415 
" clip-path="url(#p1d05fe7bcc)" style="fill: none; stroke: #b2b2b2; stroke-width: 0.8; stroke-linecap: square"/>
   </g>
   <g id="line2d_151">
    <path d="M 53.721227 46.923511 
L 72.333391 43.538472 
L 85.538931 42.020819 
L 95.781944 41.678227 
L 104.151095 41.342926 
L 117.356635 41.83509 
L 127.599648 42.351371 
L 128.328286 42.468664 
L 146.211812 47.31783 
L 159.417352 51.337988 
L 171.460723 55.317844 
L 178.029516 57.747607 
L 191.235056 63.636578 
L 209.84722 71.881054 
L 223.05276 78.663767 
L 233.295773 84.827855 
" clip-path="url(#p1d05fe7bcc)" style="fill: none; stroke: #ff0000; stroke-width: 2; stroke-linecap: square"/>
   </g>
   <g id="line2d_152">
    <path d="M 53.721227 30.079193 
L 72.333391 26.537721 
L 85.538931 26.509018 
L 95.781944 27.668356 
L 104.151095 29.105815 
L 117.356635 33.670271 
L 127.599648 40.311396 
L 128.328286 42.468664 
L 146.211812 36.93655 
L 159.417352 38.066733 
L 171.460723 40.332987 
L 178.029516 42.238623 
L 191.235056 47.59327 
L 209.84722 55.00755 
L 223.05276 61.759626 
L 233.295773 67.334011 
" clip-path="url(#p1d05fe7bcc)" style="fill: none; stroke-dasharray: 7.4,3.2; stroke-dashoffset: 0; stroke: #ff0000; stroke-width: 2"/>
   </g>
   <g id="line2d_153">
    <path d="M 53.721227 63.767829 
L 72.333391 60.539223 
L 85.538931 57.53262 
L 95.781944 55.688098 
L 104.151095 53.580037 
L 117.356635 49.999909 
L 127.599648 44.391345 
L 128.328286 42.468665 
L 146.211812 57.699109 
L 159.417352 64.609243 
L 171.460723 70.302702 
L 178.029516 73.256591 
L 191.235056 79.679885 
L 209.84722 88.754558 
L 223.05276 95.567907 
L 233.295773 102.3217 
" clip-path="url(#p1d05fe7bcc)" style="fill: none; stroke-dasharray: 7.4,3.2; stroke-dashoffset: 0; stroke: #ff0000; stroke-width: 2"/>
   </g>
   <g id="line2d_154">
    <path d="M 53.721227 43.754819 
L 72.333391 41.625065 
L 85.538931 40.765188 
L 95.781944 40.603618 
L 104.151095 40.94707 
L 117.356635 41.302169 
L 127.599648 42.223824 
L 128.328286 42.468664 
L 146.211812 49.931244 
L 159.417352 54.899485 
L 171.460723 60.114501 
L 178.029516 63.310074 
L 191.235056 70.160346 
L 209.84722 81.918837 
L 223.05276 90.536784 
L 233.295773 97.359905 
" clip-path="url(#p1d05fe7bcc)" style="fill: none; stroke: #0000ff; stroke-width: 2; stroke-linecap: square"/>
   </g>
   <g id="line2d_155">
    <path d="M 53.721227 26.064333 
L 72.333391 23.724705 
L 85.538931 25.612666 
L 95.781944 27.363742 
L 104.151095 30.262326 
L 117.356635 30.634635 
L 127.599648 41.407206 
L 128.328286 42.468664 
L 146.211812 35.839819 
L 159.417352 38.561968 
L 171.460723 40.646618 
L 178.029516 41.531765 
L 191.235056 46.056924 
L 209.84722 53.344798 
L 223.05276 58.79272 
L 233.295773 62.62861 
" clip-path="url(#p1d05fe7bcc)" style="fill: none; stroke-dasharray: 7.4,3.2; stroke-dashoffset: 0; stroke: #0000ff; stroke-width: 2"/>
   </g>
   <g id="line2d_156">
    <path d="M 53.721227 61.445306 
L 72.333391 59.525425 
L 85.538931 55.917711 
L 95.781944 53.843493 
L 104.151095 51.631814 
L 117.356635 51.969703 
L 127.599648 43.040442 
L 128.328286 42.468664 
L 146.211812 64.022668 
L 159.417352 71.237003 
L 171.460723 79.582384 
L 178.029516 85.088383 
L 191.235056 94.263767 
L 209.84722 110.492875 
L 223.05276 122.280847 
L 233.295773 132.0912 
" clip-path="url(#p1d05fe7bcc)" style="fill: none; stroke-dasharray: 7.4,3.2; stroke-dashoffset: 0; stroke: #0000ff; stroke-width: 2"/>
   </g>
   <g id="patch_3">
    <path d="M 44.7425 138.0384 
L 44.7425 7.2 
" style="fill: none; stroke: #000000; stroke-width: 0.8; stroke-linejoin: miter; stroke-linecap: square"/>
   </g>
   <g id="patch_4">
    <path d="M 242.2745 138.0384 
L 242.2745 7.2 
" style="fill: none; stroke: #000000; stroke-width: 0.8; stroke-linejoin: miter; stroke-linecap: square"/>
   </g>
   <g id="patch_5">
    <path d="M 44.7425 138.0384 
L 242.2745 138.0384 
" style="fill: none; stroke: #000000; stroke-width: 0.8; stroke-linejoin: miter; stroke-linecap: square"/>
   </g>
   <g id="patch_6">
    <path d="M 44.7425 7.2 
L 242.2745 7.2 
" style="fill: none; stroke: #000000; stroke-width: 0.8; stroke-linejoin: miter; stroke-linecap: square"/>
   </g>
   <g id="legend_1">
    <g id="patch_7">
     <path d="M 247.8745 104.47295 
L 432.5945 104.47295 
Q 434.1945 104.47295 434.1945 102.87295 
L 434.1945 42.36545 
Q 434.1945 40.76545 432.5945 40.76545 
L 247.8745 40.76545 
Q 246.2745 40.76545 246.2745 42.36545 
L 246.2745 102.87295 
Q 246.2745 104.47295 247.8745 104.47295 
z
" style="fill: #ffffff; opacity: 0.8; stroke: #cccccc; stroke-linejoin: miter"/>
    </g>
    <g id="line2d_157">
     <path d="M 249.4745 47.2442 
L 257.4745 47.2442 
L 265.4745 47.2442 
" style="fill: none; stroke: #b2b2b2; stroke-width: 0.8; stroke-linecap: square"/>
    </g>
    <g id="text_9">
     <!-- Individual selected GMs -->
     <g transform="translate(271.8745 50.0442) scale(0.08 -0.08)">
      <defs>
       <path id="DejaVuSans-49" d="M 628 4666 
L 1259 4666 
L 1259 0 
L 628 0 
L 628 4666 
z
" transform="scale(0.015625)"/>
       <path id="DejaVuSans-76" d="M 191 3500 
L 800 3500 
L 1894 563 
L 2988 3500 
L 3597 3500 
L 2284 0 
L 1503 0 
L 191 3500 
z
" transform="scale(0.015625)"/>
       <path id="DejaVuSans-75" d="M 544 1381 
L 544 3500 
L 1119 3500 
L 1119 1403 
Q 1119 906 1312 657 
Q 1506 409 1894 409 
Q 2359 409 2629 706 
Q 2900 1003 2900 1516 
L 2900 3500 
L 3475 3500 
L 3475 0 
L 2900 0 
L 2900 538 
Q 2691 219 2414 64 
Q 2138 -91 1772 -91 
Q 1169 -91 856 284 
Q 544 659 544 1381 
z
M 1991 3584 
L 1991 3584 
z
" transform="scale(0.015625)"/>
       <path id="DejaVuSans-47" d="M 3809 666 
L 3809 1919 
L 2778 1919 
L 2778 2438 
L 4434 2438 
L 4434 434 
Q 4069 175 3628 42 
Q 3188 -91 2688 -91 
Q 1594 -91 976 548 
Q 359 1188 359 2328 
Q 359 3472 976 4111 
Q 1594 4750 2688 4750 
Q 3144 4750 3555 4637 
Q 3966 4525 4313 4306 
L 4313 3634 
Q 3963 3931 3569 4081 
Q 3175 4231 2741 4231 
Q 1884 4231 1454 3753 
Q 1025 3275 1025 2328 
Q 1025 1384 1454 906 
Q 1884 428 2741 428 
Q 3075 428 3337 486 
Q 3600 544 3809 666 
z
" transform="scale(0.015625)"/>
       <path id="DejaVuSans-4d" d="M 628 4666 
L 1569 4666 
L 2759 1491 
L 3956 4666 
L 4897 4666 
L 4897 0 
L 4281 0 
L 4281 4097 
L 3078 897 
L 2444 897 
L 1241 4097 
L 1241 0 
L 628 0 
L 628 4666 
z
" transform="scale(0.015625)"/>
      </defs>
      <use xlink:href="#DejaVuSans-49"/>
      <use xlink:href="#DejaVuSans-6e" x="29.492188"/>
      <use xlink:href="#DejaVuSans-64" x="92.871094"/>
      <use xlink:href="#DejaVuSans-69" x="156.347656"/>
      <use xlink:href="#DejaVuSans-76" x="184.130859"/>
      <use xlink:href="#DejaVuSans-69" x="243.310547"/>
      <use xlink:href="#DejaVuSans-64" x="271.09375"/>
      <use xlink:href="#DejaVuSans-75" x="334.570312"/>
      <use xlink:href="#DejaVuSans-61" x="397.949219"/>
      <use xlink:href="#DejaVuSans-6c" x="459.228516"/>
      <use xlink:href="#DejaVuSans-20" x="487.011719"/>
      <use xlink:href="#DejaVuSans-73" x="518.798828"/>
      <use xlink:href="#DejaVuSans-65" x="570.898438"/>
      <use xlink:href="#DejaVuSans-6c" x="632.421875"/>
      <use xlink:href="#DejaVuSans-65" x="660.205078"/>
      <use xlink:href="#DejaVuSans-63" x="721.728516"/>
      <use xlink:href="#DejaVuSans-74" x="776.708984"/>
      <use xlink:href="#DejaVuSans-65" x="815.917969"/>
      <use xlink:href="#DejaVuSans-64" x="877.441406"/>
      <use xlink:href="#DejaVuSans-20" x="940.917969"/>
      <use xlink:href="#DejaVuSans-47" x="972.705078"/>
      <use xlink:href="#DejaVuSans-4d" x="1050.195312"/>
      <use xlink:href="#DejaVuSans-73" x="1136.474609"/>
     </g>
    </g>
    <g id="line2d_158">
     <path d="M 249.4745 58.9867 
L 257.4745 58.9867 
L 265.4745 58.9867 
" style="fill: none; stroke: #ff0000; stroke-width: 2; stroke-linecap: square"/>
    </g>
    <g id="text_10">
     <!-- GCIM median -->
     <g transform="translate(271.8745 61.7867) scale(0.08 -0.08)">
      <defs>
       <path id="DejaVuSans-43" d="M 4122 4306 
L 4122 3641 
Q 3803 3938 3442 4084 
Q 3081 4231 2675 4231 
Q 1875 4231 1450 3742 
Q 1025 3253 1025 2328 
Q 1025 1406 1450 917 
Q 1875 428 2675 428 
Q 3081 428 3442 575 
Q 3803 722 4122 1019 
L 4122 359 
Q 3791 134 3420 21 
Q 3050 -91 2638 -91 
Q 1578 -91 968 557 
Q 359 1206 359 2328 
Q 359 3453 968 4101 
Q 1578 4750 2638 4750 
Q 3056 4750 3426 4639 
Q 3797 4528 4122 4306 
z
" transform="scale(0.015625)"/>
       <path id="DejaVuSans-6d" d="M 3328 2828 
Q 3544 3216 3844 3400 
Q 4144 3584 4550 3584 
Q 5097 3584 5394 3201 
Q 5691 2819 5691 2113 
L 5691 0 
L 5113 0 
L 5113 2094 
Q 5113 2597 4934 2840 
Q 4756 3084 4391 3084 
Q 3944 3084 3684 2787 
Q 3425 2491 3425 1978 
L 3425 0 
L 2847 0 
L 2847 2094 
Q 2847 2600 2669 2842 
Q 2491 3084 2119 3084 
Q 1678 3084 1418 2786 
Q 1159 2488 1159 1978 
L 1159 0 
L 581 0 
L 581 3500 
L 1159 3500 
L 1159 2956 
Q 1356 3278 1631 3431 
Q 1906 3584 2284 3584 
Q 2666 3584 2933 3390 
Q 3200 3197 3328 2828 
z
" transform="scale(0.015625)"/>
      </defs>
      <use xlink:href="#DejaVuSans-47"/>
      <use xlink:href="#DejaVuSans-43" x="77.490234"/>
      <use xlink:href="#DejaVuSans-49" x="147.314453"/>
      <use xlink:href="#DejaVuSans-4d" x="176.806641"/>
      <use xlink:href="#DejaVuSans-20" x="263.085938"/>
      <use xlink:href="#DejaVuSans-6d" x="294.873047"/>
      <use xlink:href="#DejaVuSans-65" x="392.285156"/>
      <use xlink:href="#DejaVuSans-64" x="453.808594"/>
      <use xlink:href="#DejaVuSans-69" x="517.285156"/>
      <use xlink:href="#DejaVuSans-61" x="545.068359"/>
      <use xlink:href="#DejaVuSans-6e" x="606.347656"/>
     </g>
    </g>
    <g id="line2d_159">
     <path d="M 249.4745 72.01045 
L 257.4745 72.01045 
L 265.4745 72.01045 
" style="fill: none; stroke-dasharray: 7.4,3.2; stroke-dashoffset: 0; stroke: #ff0000; stroke-width: 2"/>
    </g>
    <g id="text_11">
     <!-- GCIM $16^{th}$ and $84^{th}$ percentiles -->
     <g transform="translate(271.8745 74.81045) scale(0.08 -0.08)">
      <defs>
       <path id="DejaVuSans-36" d="M 2113 2584 
Q 1688 2584 1439 2293 
Q 1191 2003 1191 1497 
Q 1191 994 1439 701 
Q 1688 409 2113 409 
Q 2538 409 2786 701 
Q 3034 994 3034 1497 
Q 3034 2003 2786 2293 
Q 2538 2584 2113 2584 
z
M 3366 4563 
L 3366 3988 
Q 3128 4100 2886 4159 
Q 2644 4219 2406 4219 
Q 1781 4219 1451 3797 
Q 1122 3375 1075 2522 
Q 1259 2794 1537 2939 
Q 1816 3084 2150 3084 
Q 2853 3084 3261 2657 
Q 3669 2231 3669 1497 
Q 3669 778 3244 343 
Q 2819 -91 2113 -91 
Q 1303 -91 875 529 
Q 447 1150 447 2328 
Q 447 3434 972 4092 
Q 1497 4750 2381 4750 
Q 2619 4750 2861 4703 
Q 3103 4656 3366 4563 
z
" transform="scale(0.015625)"/>
       <path id="DejaVuSans-Oblique-74" d="M 2706 3500 
L 2619 3053 
L 1472 3053 
L 1100 1153 
Q 1081 1047 1072 975 
Q 1063 903 1063 863 
Q 1063 663 1183 572 
Q 1303 481 1569 481 
L 2150 481 
L 2053 0 
L 1503 0 
Q 991 0 739 200 
Q 488 400 488 806 
Q 488 878 497 964 
Q 506 1050 525 1153 
L 897 3053 
L 409 3053 
L 500 3500 
L 978 3500 
L 1172 4494 
L 1747 4494 
L 1556 3500 
L 2706 3500 
z
" transform="scale(0.015625)"/>
       <path id="DejaVuSans-Oblique-68" d="M 3566 2113 
L 3156 0 
L 2578 0 
L 2988 2091 
Q 3016 2238 3031 2350 
Q 3047 2463 3047 2528 
Q 3047 2791 2881 2937 
Q 2716 3084 2419 3084 
Q 1956 3084 1617 2771 
Q 1278 2459 1178 1941 
L 800 0 
L 225 0 
L 1172 4863 
L 1747 4863 
L 1375 2950 
Q 1594 3244 1934 3414 
Q 2275 3584 2650 3584 
Q 3113 3584 3367 3334 
Q 3622 3084 3622 2631 
Q 3622 2519 3608 2391 
Q 3594 2263 3566 2113 
z
" transform="scale(0.015625)"/>
       <path id="DejaVuSans-38" d="M 2034 2216 
Q 1584 2216 1326 1975 
Q 1069 1734 1069 1313 
Q 1069 891 1326 650 
Q 1584 409 2034 409 
Q 2484 409 2743 651 
Q 3003 894 3003 1313 
Q 3003 1734 2745 1975 
Q 2488 2216 2034 2216 
z
M 1403 2484 
Q 997 2584 770 2862 
Q 544 3141 544 3541 
Q 544 4100 942 4425 
Q 1341 4750 2034 4750 
Q 2731 4750 3128 4425 
Q 3525 4100 3525 3541 
Q 3525 3141 3298 2862 
Q 3072 2584 2669 2484 
Q 3125 2378 3379 2068 
Q 3634 1759 3634 1313 
Q 3634 634 3220 271 
Q 2806 -91 2034 -91 
Q 1263 -91 848 271 
Q 434 634 434 1313 
Q 434 1759 690 2068 
Q 947 2378 1403 2484 
z
M 1172 3481 
Q 1172 3119 1398 2916 
Q 1625 2713 2034 2713 
Q 2441 2713 2670 2916 
Q 2900 3119 2900 3481 
Q 2900 3844 2670 4047 
Q 2441 4250 2034 4250 
Q 1625 4250 1398 4047 
Q 1172 3844 1172 3481 
z
" transform="scale(0.015625)"/>
       <path id="DejaVuSans-34" d="M 2419 4116 
L 825 1625 
L 2419 1625 
L 2419 4116 
z
M 2253 4666 
L 3047 4666 
L 3047 1625 
L 3713 1625 
L 3713 1100 
L 3047 1100 
L 3047 0 
L 2419 0 
L 2419 1100 
L 313 1100 
L 313 1709 
L 2253 4666 
z
" transform="scale(0.015625)"/>
      </defs>
      <use xlink:href="#DejaVuSans-47" transform="translate(0 0.529687)"/>
      <use xlink:href="#DejaVuSans-43" transform="translate(77.490234 0.529687)"/>
      <use xlink:href="#DejaVuSans-49" transform="translate(147.314453 0.529687)"/>
      <use xlink:href="#DejaVuSans-4d" transform="translate(176.806641 0.529687)"/>
      <use xlink:href="#DejaVuSans-20" transform="translate(263.085938 0.529687)"/>
      <use xlink:href="#DejaVuSans-31" transform="translate(294.873047 0.529687)"/>
      <use xlink:href="#DejaVuSans-36" transform="translate(358.496094 0.529687)"/>
      <use xlink:href="#DejaVuSans-Oblique-74" transform="translate(423.076172 38.810937) scale(0.7)"/>
      <use xlink:href="#DejaVuSans-Oblique-68" transform="translate(450.522461 38.810937) scale(0.7)"/>
      <use xlink:href="#DejaVuSans-20" transform="translate(497.62207 0.529687)"/>
      <use xlink:href="#DejaVuSans-61" transform="translate(529.40918 0.529687)"/>
      <use xlink:href="#DejaVuSans-6e" transform="translate(590.688477 0.529687)"/>
      <use xlink:href="#DejaVuSans-64" transform="translate(654.067383 0.529687)"/>
      <use xlink:href="#DejaVuSans-20" transform="translate(717.543945 0.529687)"/>
      <use xlink:href="#DejaVuSans-38" transform="translate(749.331055 0.529687)"/>
      <use xlink:href="#DejaVuSans-34" transform="translate(812.954102 0.529687)"/>
      <use xlink:href="#DejaVuSans-Oblique-74" transform="translate(877.53418 38.810937) scale(0.7)"/>
      <use xlink:href="#DejaVuSans-Oblique-68" transform="translate(904.980469 38.810937) scale(0.7)"/>
      <use xlink:href="#DejaVuSans-20" transform="translate(952.080078 0.529687)"/>
      <use xlink:href="#DejaVuSans-70" transform="translate(983.867188 0.529687)"/>
      <use xlink:href="#DejaVuSans-65" transform="translate(1047.34375 0.529687)"/>
      <use xlink:href="#DejaVuSans-72" transform="translate(1108.867188 0.529687)"/>
      <use xlink:href="#DejaVuSans-63" transform="translate(1149.980469 0.529687)"/>
      <use xlink:href="#DejaVuSans-65" transform="translate(1204.960938 0.529687)"/>
      <use xlink:href="#DejaVuSans-6e" transform="translate(1266.484375 0.529687)"/>
      <use xlink:href="#DejaVuSans-74" transform="translate(1329.863281 0.529687)"/>
      <use xlink:href="#DejaVuSans-69" transform="translate(1369.072266 0.529687)"/>
      <use xlink:href="#DejaVuSans-6c" transform="translate(1396.855469 0.529687)"/>
      <use xlink:href="#DejaVuSans-65" transform="translate(1424.638672 0.529687)"/>
      <use xlink:href="#DejaVuSans-73" transform="translate(1486.162109 0.529687)"/>
     </g>
    </g>
    <g id="line2d_160">
     <path d="M 249.4745 83.7692 
L 257.4745 83.7692 
L 265.4745 83.7692 
" style="fill: none; stroke: #0000ff; stroke-width: 2; stroke-linecap: square"/>
    </g>
    <g id="text_12">
     <!-- Selected GMs median -->
     <g transform="translate(271.8745 86.5692) scale(0.08 -0.08)">
      <use xlink:href="#DejaVuSans-53"/>
      <use xlink:href="#DejaVuSans-65" x="63.476562"/>
      <use xlink:href="#DejaVuSans-6c" x="125"/>
      <use xlink:href="#DejaVuSans-65" x="152.783203"/>
      <use xlink:href="#DejaVuSans-63" x="214.306641"/>
      <use xlink:href="#DejaVuSans-74" x="269.287109"/>
      <use xlink:href="#DejaVuSans-65" x="308.496094"/>
      <use xlink:href="#DejaVuSans-64" x="370.019531"/>
      <use xlink:href="#DejaVuSans-20" x="433.496094"/>
      <use xlink:href="#DejaVuSans-47" x="465.283203"/>
      <use xlink:href="#DejaVuSans-4d" x="542.773438"/>
      <use xlink:href="#DejaVuSans-73" x="629.052734"/>
      <use xlink:href="#DejaVuSans-20" x="681.152344"/>
      <use xlink:href="#DejaVuSans-6d" x="712.939453"/>
      <use xlink:href="#DejaVuSans-65" x="810.351562"/>
      <use xlink:href="#DejaVuSans-64" x="871.875"/>
      <use xlink:href="#DejaVuSans-69" x="935.351562"/>
      <use xlink:href="#DejaVuSans-61" x="963.134766"/>
      <use xlink:href="#DejaVuSans-6e" x="1024.414062"/>
     </g>
    </g>
    <g id="line2d_161">
     <path d="M 249.4745 96.79295 
L 257.4745 96.79295 
L 265.4745 96.79295 
" style="fill: none; stroke-dasharray: 7.4,3.2; stroke-dashoffset: 0; stroke: #0000ff; stroke-width: 2"/>
    </g>
    <g id="text_13">
     <!-- Selected GMs, $16^{th}$ and $84^{th}$ percentiles -->
     <g transform="translate(271.8745 99.59295) scale(0.08 -0.08)">
      <use xlink:href="#DejaVuSans-53" transform="translate(0 0.529687)"/>
      <use xlink:href="#DejaVuSans-65" transform="translate(63.476562 0.529687)"/>
      <use xlink:href="#DejaVuSans-6c" transform="translate(125 0.529687)"/>
      <use xlink:href="#DejaVuSans-65" transform="translate(152.783203 0.529687)"/>
      <use xlink:href="#DejaVuSans-63" transform="translate(214.306641 0.529687)"/>
      <use xlink:href="#DejaVuSans-74" transform="translate(269.287109 0.529687)"/>
      <use xlink:href="#DejaVuSans-65" transform="translate(308.496094 0.529687)"/>
      <use xlink:href="#DejaVuSans-64" transform="translate(370.019531 0.529687)"/>
      <use xlink:href="#DejaVuSans-20" transform="translate(433.496094 0.529687)"/>
      <use xlink:href="#DejaVuSans-47" transform="translate(465.283203 0.529687)"/>
      <use xlink:href="#DejaVuSans-4d" transform="translate(542.773438 0.529687)"/>
      <use xlink:href="#DejaVuSans-73" transform="translate(629.052734 0.529687)"/>
      <use xlink:href="#DejaVuSans-2c" transform="translate(681.152344 0.529687)"/>
      <use xlink:href="#DejaVuSans-20" transform="translate(712.939453 0.529687)"/>
      <use xlink:href="#DejaVuSans-31" transform="translate(744.726562 0.529687)"/>
      <use xlink:href="#DejaVuSans-36" transform="translate(808.349609 0.529687)"/>
      <use xlink:href="#DejaVuSans-Oblique-74" transform="translate(872.929688 38.810937) scale(0.7)"/>
      <use xlink:href="#DejaVuSans-Oblique-68" transform="translate(900.375977 38.810937) scale(0.7)"/>
      <use xlink:href="#DejaVuSans-20" transform="translate(947.475586 0.529687)"/>
      <use xlink:href="#DejaVuSans-61" transform="translate(979.262695 0.529687)"/>
      <use xlink:href="#DejaVuSans-6e" transform="translate(1040.541992 0.529687)"/>
      <use xlink:href="#DejaVuSans-64" transform="translate(1103.920898 0.529687)"/>
      <use xlink:href="#DejaVuSans-20" transform="translate(1167.397461 0.529687)"/>
      <use xlink:href="#DejaVuSans-38" transform="translate(1199.18457 0.529687)"/>
      <use xlink:href="#DejaVuSans-34" transform="translate(1262.807617 0.529687)"/>
      <use xlink:href="#DejaVuSans-Oblique-74" transform="translate(1327.387695 38.810937) scale(0.7)"/>
      <use xlink:href="#DejaVuSans-Oblique-68" transform="translate(1354.833984 38.810937) scale(0.7)"/>
      <use xlink:href="#DejaVuSans-20" transform="translate(1401.933594 0.529687)"/>
      <use xlink:href="#DejaVuSans-70" transform="translate(1433.720703 0.529687)"/>
      <use xlink:href="#DejaVuSans-65" transform="translate(1497.197266 0.529687)"/>
      <use xlink:href="#DejaVuSans-72" transform="translate(1558.720703 0.529687)"/>
      <use xlink:href="#DejaVuSans-63" transform="translate(1599.833984 0.529687)"/>
      <use xlink:href="#DejaVuSans-65" transform="translate(1654.814453 0.529687)"/>
      <use xlink:href="#DejaVuSans-6e" transform="translate(1716.337891 0.529687)"/>
      <use xlink:href="#DejaVuSans-74" transform="translate(1779.716797 0.529687)"/>
      <use xlink:href="#DejaVuSans-69" transform="translate(1818.925781 0.529687)"/>
      <use xlink:href="#DejaVuSans-6c" transform="translate(1846.708984 0.529687)"/>
      <use xlink:href="#DejaVuSans-65" transform="translate(1874.492188 0.529687)"/>
      <use xlink:href="#DejaVuSans-73" transform="translate(1936.015625 0.529687)"/>
     </g>
    </g>
   </g>
  </g>
 </g>
 <defs>
  <clipPath id="p1d05fe7bcc">
   <rect x="44.7425" y="7.2" width="197.532" height="130.8384"/>
  </clipPath>
 </defs>
</svg>
