<?xml version="1.0" encoding="utf-8" standalone="no"?>
<!DOCTYPE svg PUBLIC "-//W3C//DTD SVG 1.1//EN"
  "http://www.w3.org/Graphics/SVG/1.1/DTD/svg11.dtd">
<svg xmlns:xlink="http://www.w3.org/1999/xlink" width="441.3945pt" height="173.870473pt" viewBox="0 0 441.3945 173.870473" xmlns="http://www.w3.org/2000/svg" version="1.1">
 <metadata>
  <rdf:RDF xmlns:dc="http://purl.org/dc/elements/1.1/" xmlns:cc="http://creativecommons.org/ns#" xmlns:rdf="http://www.w3.org/1999/02/22-rdf-syntax-ns#">
   <cc:Work>
    <dc:type rdf:resource="http://purl.org/dc/dcmitype/StillImage"/>
    <dc:date>2024-11-07T23:44:22.902518</dc:date>
    <dc:format>image/svg+xml</dc:format>
    <dc:creator>
     <cc:Agent>
      <dc:title>Matplotlib v3.8.2, https://matplotlib.org/</dc:title>
     </cc:Agent>
    </dc:creator>
   </cc:Work>
  </rdf:RDF>
 </metadata>
 <defs>
  <style type="text/css">*{stroke-linejoin: round; stroke-linecap: butt}</style>
 </defs>
 <g id="figure_1">
  <g id="patch_1">
   <path d="M 0 173.870473 
L 441.3945 173.870473 
L 441.3945 0 
L 0 0 
z
" style="fill: #ffffff"/>
  </g>
  <g id="axes_1">
   <g id="patch_2">
    <path d="M 44.7425 140.185473 
L 242.2745 140.185473 
L 242.2745 9.347073 
L 44.7425 9.347073 
z
" style="fill: #ffffff"/>
   </g>
   <g id="matplotlib.axis_1">
    <g id="xtick_1">
     <g id="line2d_1">
      <path d="M 53.721227 140.185473 
L 53.721227 9.347073 
" clip-path="url(#p99616d77ac)" style="fill: none; stroke: #d9d9d9; stroke-width: 0.8; stroke-linecap: square"/>
     </g>
     <g id="line2d_2">
      <defs>
       <path id="m7f23c3703b" d="M 0 0 
L 0 3.5 
" style="stroke: #000000; stroke-width: 0.8"/>
      </defs>
      <g>
       <use xlink:href="#m7f23c3703b" x="53.721227" y="140.185473" style="stroke: #000000; stroke-width: 0.8"/>
      </g>
     </g>
     <g id="text_1">
      <!-- $\mathdefault{10^{-1}}$ -->
      <g transform="translate(44.321227 153.264223) scale(0.08 -0.08)">
       <defs>
        <path id="DejaVuSans-31" d="M 794 531 
L 1825 531 
L 1825 4091 
L 703 3866 
L 703 4441 
L 1819 4666 
L 2450 4666 
L 2450 531 
L 3481 531 
L 3481 0 
L 794 0 
L 794 531 
z
" transform="scale(0.015625)"/>
        <path id="DejaVuSans-30" d="M 2034 4250 
Q 1547 4250 1301 3770 
Q 1056 3291 1056 2328 
Q 1056 1369 1301 889 
Q 1547 409 2034 409 
Q 2525 409 2770 889 
Q 3016 1369 3016 2328 
Q 3016 3291 2770 3770 
Q 2525 4250 2034 4250 
z
M 2034 4750 
Q 2819 4750 3233 4129 
Q 3647 3509 3647 2328 
Q 3647 1150 3233 529 
Q 2819 -91 2034 -91 
Q 1250 -91 836 529 
Q 422 1150 422 2328 
Q 422 3509 836 4129 
Q 1250 4750 2034 4750 
z
" transform="scale(0.015625)"/>
        <path id="DejaVuSans-2212" d="M 678 2272 
L 4684 2272 
L 4684 1741 
L 678 1741 
L 678 2272 
z
" transform="scale(0.015625)"/>
       </defs>
       <use xlink:href="#DejaVuSans-31" transform="translate(0 0.684375)"/>
       <use xlink:href="#DejaVuSans-30" transform="translate(63.623047 0.684375)"/>
       <use xlink:href="#DejaVuSans-2212" transform="translate(128.203125 38.965625) scale(0.7)"/>
       <use xlink:href="#DejaVuSans-31" transform="translate(186.855469 38.965625) scale(0.7)"/>
      </g>
     </g>
    </g>
    <g id="xtick_2">
     <g id="line2d_3">
      <path d="M 159.417352 140.185473 
L 159.417352 9.347073 
" clip-path="url(#p99616d77ac)" style="fill: none; stroke: #d9d9d9; stroke-width: 0.8; stroke-linecap: square"/>
     </g>
     <g id="line2d_4">
      <g>
       <use xlink:href="#m7f23c3703b" x="159.417352" y="140.185473" style="stroke: #000000; stroke-width: 0.8"/>
      </g>
     </g>
     <g id="text_2">
      <!-- $\mathdefault{10^{0}}$ -->
      <g transform="translate(152.377352 153.264223) scale(0.08 -0.08)">
       <use xlink:href="#DejaVuSans-31" transform="translate(0 0.765625)"/>
       <use xlink:href="#DejaVuSans-30" transform="translate(63.623047 0.765625)"/>
       <use xlink:href="#DejaVuSans-30" transform="translate(128.203125 39.046875) scale(0.7)"/>
      </g>
     </g>
    </g>
    <g id="xtick_3">
     <g id="line2d_5">
      <path d="M 48.884838 140.185473 
L 48.884838 9.347073 
" clip-path="url(#p99616d77ac)" style="fill: none; stroke-dasharray: 2.96,1.28; stroke-dashoffset: 0; stroke: #f2f2f2; stroke-width: 0.8"/>
     </g>
     <g id="line2d_6">
      <defs>
       <path id="mf6f7de3656" d="M 0 0 
L 0 2 
" style="stroke: #000000; stroke-width: 0.6"/>
      </defs>
      <g>
       <use xlink:href="#mf6f7de3656" x="48.884838" y="140.185473" style="stroke: #000000; stroke-width: 0.6"/>
      </g>
     </g>
    </g>
    <g id="xtick_4">
     <g id="line2d_7">
      <path d="M 85.538931 140.185473 
L 85.538931 9.347073 
" clip-path="url(#p99616d77ac)" style="fill: none; stroke-dasharray: 2.96,1.28; stroke-dashoffset: 0; stroke: #f2f2f2; stroke-width: 0.8"/>
     </g>
     <g id="line2d_8">
      <g>
       <use xlink:href="#mf6f7de3656" x="85.538931" y="140.185473" style="stroke: #000000; stroke-width: 0.6"/>
      </g>
     </g>
    </g>
    <g id="xtick_5">
     <g id="line2d_9">
      <path d="M 104.151095 140.185473 
L 104.151095 9.347073 
" clip-path="url(#p99616d77ac)" style="fill: none; stroke-dasharray: 2.96,1.28; stroke-dashoffset: 0; stroke: #f2f2f2; stroke-width: 0.8"/>
     </g>
     <g id="line2d_10">
      <g>
       <use xlink:href="#mf6f7de3656" x="104.151095" y="140.185473" style="stroke: #000000; stroke-width: 0.6"/>
      </g>
     </g>
    </g>
    <g id="xtick_6">
     <g id="line2d_11">
      <path d="M 117.356635 140.185473 
L 117.356635 9.347073 
" clip-path="url(#p99616d77ac)" style="fill: none; stroke-dasharray: 2.96,1.28; stroke-dashoffset: 0; stroke: #f2f2f2; stroke-width: 0.8"/>
     </g>
     <g id="line2d_12">
      <g>
       <use xlink:href="#mf6f7de3656" x="117.356635" y="140.185473" style="stroke: #000000; stroke-width: 0.6"/>
      </g>
     </g>
    </g>
    <g id="xtick_7">
     <g id="line2d_13">
      <path d="M 127.599648 140.185473 
L 127.599648 9.347073 
" clip-path="url(#p99616d77ac)" style="fill: none; stroke-dasharray: 2.96,1.28; stroke-dashoffset: 0; stroke: #f2f2f2; stroke-width: 0.8"/>
     </g>
     <g id="line2d_14">
      <g>
       <use xlink:href="#mf6f7de3656" x="127.599648" y="140.185473" style="stroke: #000000; stroke-width: 0.6"/>
      </g>
     </g>
    </g>
    <g id="xtick_8">
     <g id="line2d_15">
      <path d="M 135.968799 140.185473 
L 135.968799 9.347073 
" clip-path="url(#p99616d77ac)" style="fill: none; stroke-dasharray: 2.96,1.28; stroke-dashoffset: 0; stroke: #f2f2f2; stroke-width: 0.8"/>
     </g>
     <g id="line2d_16">
      <g>
       <use xlink:href="#mf6f7de3656" x="135.968799" y="140.185473" style="stroke: #000000; stroke-width: 0.6"/>
      </g>
     </g>
    </g>
    <g id="xtick_9">
     <g id="line2d_17">
      <path d="M 143.044815 140.185473 
L 143.044815 9.347073 
" clip-path="url(#p99616d77ac)" style="fill: none; stroke-dasharray: 2.96,1.28; stroke-dashoffset: 0; stroke: #f2f2f2; stroke-width: 0.8"/>
     </g>
     <g id="line2d_18">
      <g>
       <use xlink:href="#mf6f7de3656" x="143.044815" y="140.185473" style="stroke: #000000; stroke-width: 0.6"/>
      </g>
     </g>
    </g>
    <g id="xtick_10">
     <g id="line2d_19">
      <path d="M 149.174339 140.185473 
L 149.174339 9.347073 
" clip-path="url(#p99616d77ac)" style="fill: none; stroke-dasharray: 2.96,1.28; stroke-dashoffset: 0; stroke: #f2f2f2; stroke-width: 0.8"/>
     </g>
     <g id="line2d_20">
      <g>
       <use xlink:href="#mf6f7de3656" x="149.174339" y="140.185473" style="stroke: #000000; stroke-width: 0.6"/>
      </g>
     </g>
    </g>
    <g id="xtick_11">
     <g id="line2d_21">
      <path d="M 154.580963 140.185473 
L 154.580963 9.347073 
" clip-path="url(#p99616d77ac)" style="fill: none; stroke-dasharray: 2.96,1.28; stroke-dashoffset: 0; stroke: #f2f2f2; stroke-width: 0.8"/>
     </g>
     <g id="line2d_22">
      <g>
       <use xlink:href="#mf6f7de3656" x="154.580963" y="140.185473" style="stroke: #000000; stroke-width: 0.6"/>
      </g>
     </g>
    </g>
    <g id="xtick_12">
     <g id="line2d_23">
      <path d="M 191.235056 140.185473 
L 191.235056 9.347073 
" clip-path="url(#p99616d77ac)" style="fill: none; stroke-dasharray: 2.96,1.28; stroke-dashoffset: 0; stroke: #f2f2f2; stroke-width: 0.8"/>
     </g>
     <g id="line2d_24">
      <g>
       <use xlink:href="#mf6f7de3656" x="191.235056" y="140.185473" style="stroke: #000000; stroke-width: 0.6"/>
      </g>
     </g>
    </g>
    <g id="xtick_13">
     <g id="line2d_25">
      <path d="M 209.84722 140.185473 
L 209.84722 9.347073 
" clip-path="url(#p99616d77ac)" style="fill: none; stroke-dasharray: 2.96,1.28; stroke-dashoffset: 0; stroke: #f2f2f2; stroke-width: 0.8"/>
     </g>
     <g id="line2d_26">
      <g>
       <use xlink:href="#mf6f7de3656" x="209.84722" y="140.185473" style="stroke: #000000; stroke-width: 0.6"/>
      </g>
     </g>
    </g>
    <g id="xtick_14">
     <g id="line2d_27">
      <path d="M 223.05276 140.185473 
L 223.05276 9.347073 
" clip-path="url(#p99616d77ac)" style="fill: none; stroke-dasharray: 2.96,1.28; stroke-dashoffset: 0; stroke: #f2f2f2; stroke-width: 0.8"/>
     </g>
     <g id="line2d_28">
      <g>
       <use xlink:href="#mf6f7de3656" x="223.05276" y="140.185473" style="stroke: #000000; stroke-width: 0.6"/>
      </g>
     </g>
    </g>
    <g id="xtick_15">
     <g id="line2d_29">
      <path d="M 233.295773 140.185473 
L 233.295773 9.347073 
" clip-path="url(#p99616d77ac)" style="fill: none; stroke-dasharray: 2.96,1.28; stroke-dashoffset: 0; stroke: #f2f2f2; stroke-width: 0.8"/>
     </g>
     <g id="line2d_30">
      <g>
       <use xlink:href="#mf6f7de3656" x="233.295773" y="140.185473" style="stroke: #000000; stroke-width: 0.6"/>
      </g>
     </g>
    </g>
    <g id="xtick_16">
     <g id="line2d_31">
      <path d="M 241.664924 140.185473 
L 241.664924 9.347073 
" clip-path="url(#p99616d77ac)" style="fill: none; stroke-dasharray: 2.96,1.28; stroke-dashoffset: 0; stroke: #f2f2f2; stroke-width: 0.8"/>
     </g>
     <g id="line2d_32">
      <g>
       <use xlink:href="#mf6f7de3656" x="241.664924" y="140.185473" style="stroke: #000000; stroke-width: 0.6"/>
      </g>
     </g>
    </g>
    <g id="text_3">
     <!-- Period, T (s) -->
     <g transform="translate(119.576 165.006723) scale(0.08 -0.08)">
      <defs>
       <path id="DejaVuSans-50" d="M 1259 4147 
L 1259 2394 
L 2053 2394 
Q 2494 2394 2734 2622 
Q 2975 2850 2975 3272 
Q 2975 3691 2734 3919 
Q 2494 4147 2053 4147 
L 1259 4147 
z
M 628 4666 
L 2053 4666 
Q 2838 4666 3239 4311 
Q 3641 3956 3641 3272 
Q 3641 2581 3239 2228 
Q 2838 1875 2053 1875 
L 1259 1875 
L 1259 0 
L 628 0 
L 628 4666 
z
" transform="scale(0.015625)"/>
       <path id="DejaVuSans-65" d="M 3597 1894 
L 3597 1613 
L 953 1613 
Q 991 1019 1311 708 
Q 1631 397 2203 397 
Q 2534 397 2845 478 
Q 3156 559 3463 722 
L 3463 178 
Q 3153 47 2828 -22 
Q 2503 -91 2169 -91 
Q 1331 -91 842 396 
Q 353 884 353 1716 
Q 353 2575 817 3079 
Q 1281 3584 2069 3584 
Q 2775 3584 3186 3129 
Q 3597 2675 3597 1894 
z
M 3022 2063 
Q 3016 2534 2758 2815 
Q 2500 3097 2075 3097 
Q 1594 3097 1305 2825 
Q 1016 2553 972 2059 
L 3022 2063 
z
" transform="scale(0.015625)"/>
       <path id="DejaVuSans-72" d="M 2631 2963 
Q 2534 3019 2420 3045 
Q 2306 3072 2169 3072 
Q 1681 3072 1420 2755 
Q 1159 2438 1159 1844 
L 1159 0 
L 581 0 
L 581 3500 
L 1159 3500 
L 1159 2956 
Q 1341 3275 1631 3429 
Q 1922 3584 2338 3584 
Q 2397 3584 2469 3576 
Q 2541 3569 2628 3553 
L 2631 2963 
z
" transform="scale(0.015625)"/>
       <path id="DejaVuSans-69" d="M 603 3500 
L 1178 3500 
L 1178 0 
L 603 0 
L 603 3500 
z
M 603 4863 
L 1178 4863 
L 1178 4134 
L 603 4134 
L 603 4863 
z
" transform="scale(0.015625)"/>
       <path id="DejaVuSans-6f" d="M 1959 3097 
Q 1497 3097 1228 2736 
Q 959 2375 959 1747 
Q 959 1119 1226 758 
Q 1494 397 1959 397 
Q 2419 397 2687 759 
Q 2956 1122 2956 1747 
Q 2956 2369 2687 2733 
Q 2419 3097 1959 3097 
z
M 1959 3584 
Q 2709 3584 3137 3096 
Q 3566 2609 3566 1747 
Q 3566 888 3137 398 
Q 2709 -91 1959 -91 
Q 1206 -91 779 398 
Q 353 888 353 1747 
Q 353 2609 779 3096 
Q 1206 3584 1959 3584 
z
" transform="scale(0.015625)"/>
       <path id="DejaVuSans-64" d="M 2906 2969 
L 2906 4863 
L 3481 4863 
L 3481 0 
L 2906 0 
L 2906 525 
Q 2725 213 2448 61 
Q 2172 -91 1784 -91 
Q 1150 -91 751 415 
Q 353 922 353 1747 
Q 353 2572 751 3078 
Q 1150 3584 1784 3584 
Q 2172 3584 2448 3432 
Q 2725 3281 2906 2969 
z
M 947 1747 
Q 947 1113 1208 752 
Q 1469 391 1925 391 
Q 2381 391 2643 752 
Q 2906 1113 2906 1747 
Q 2906 2381 2643 2742 
Q 2381 3103 1925 3103 
Q 1469 3103 1208 2742 
Q 947 2381 947 1747 
z
" transform="scale(0.015625)"/>
       <path id="DejaVuSans-2c" d="M 750 794 
L 1409 794 
L 1409 256 
L 897 -744 
L 494 -744 
L 750 256 
L 750 794 
z
" transform="scale(0.015625)"/>
       <path id="DejaVuSans-20" transform="scale(0.015625)"/>
       <path id="DejaVuSans-54" d="M -19 4666 
L 3928 4666 
L 3928 4134 
L 2272 4134 
L 2272 0 
L 1638 0 
L 1638 4134 
L -19 4134 
L -19 4666 
z
" transform="scale(0.015625)"/>
       <path id="DejaVuSans-28" d="M 1984 4856 
Q 1566 4138 1362 3434 
Q 1159 2731 1159 2009 
Q 1159 1288 1364 580 
Q 1569 -128 1984 -844 
L 1484 -844 
Q 1016 -109 783 600 
Q 550 1309 550 2009 
Q 550 2706 781 3412 
Q 1013 4119 1484 4856 
L 1984 4856 
z
" transform="scale(0.015625)"/>
       <path id="DejaVuSans-73" d="M 2834 3397 
L 2834 2853 
Q 2591 2978 2328 3040 
Q 2066 3103 1784 3103 
Q 1356 3103 1142 2972 
Q 928 2841 928 2578 
Q 928 2378 1081 2264 
Q 1234 2150 1697 2047 
L 1894 2003 
Q 2506 1872 2764 1633 
Q 3022 1394 3022 966 
Q 3022 478 2636 193 
Q 2250 -91 1575 -91 
Q 1294 -91 989 -36 
Q 684 19 347 128 
L 347 722 
Q 666 556 975 473 
Q 1284 391 1588 391 
Q 1994 391 2212 530 
Q 2431 669 2431 922 
Q 2431 1156 2273 1281 
Q 2116 1406 1581 1522 
L 1381 1569 
Q 847 1681 609 1914 
Q 372 2147 372 2553 
Q 372 3047 722 3315 
Q 1072 3584 1716 3584 
Q 2034 3584 2315 3537 
Q 2597 3491 2834 3397 
z
" transform="scale(0.015625)"/>
       <path id="DejaVuSans-29" d="M 513 4856 
L 1013 4856 
Q 1481 4119 1714 3412 
Q 1947 2706 1947 2009 
Q 1947 1309 1714 600 
Q 1481 -109 1013 -844 
L 513 -844 
Q 928 -128 1133 580 
Q 1338 1288 1338 2009 
Q 1338 2731 1133 3434 
Q 928 4138 513 4856 
z
" transform="scale(0.015625)"/>
      </defs>
      <use xlink:href="#DejaVuSans-50"/>
      <use xlink:href="#DejaVuSans-65" x="56.677734"/>
      <use xlink:href="#DejaVuSans-72" x="118.201172"/>
      <use xlink:href="#DejaVuSans-69" x="159.314453"/>
      <use xlink:href="#DejaVuSans-6f" x="187.097656"/>
      <use xlink:href="#DejaVuSans-64" x="248.279297"/>
      <use xlink:href="#DejaVuSans-2c" x="311.755859"/>
      <use xlink:href="#DejaVuSans-20" x="343.542969"/>
      <use xlink:href="#DejaVuSans-54" x="375.330078"/>
      <use xlink:href="#DejaVuSans-20" x="436.414062"/>
      <use xlink:href="#DejaVuSans-28" x="468.201172"/>
      <use xlink:href="#DejaVuSans-73" x="507.214844"/>
      <use xlink:href="#DejaVuSans-29" x="559.314453"/>
     </g>
    </g>
   </g>
   <g id="matplotlib.axis_2">
    <g id="ytick_1">
     <g id="line2d_33">
      <path d="M 44.7425 112.956258 
L 242.2745 112.956258 
" clip-path="url(#p99616d77ac)" style="fill: none; stroke: #d9d9d9; stroke-width: 0.8; stroke-linecap: square"/>
     </g>
     <g id="line2d_34">
      <defs>
       <path id="m2624146fa5" d="M 0 0 
L -3.5 0 
" style="stroke: #000000; stroke-width: 0.8"/>
      </defs>
      <g>
       <use xlink:href="#m2624146fa5" x="44.7425" y="112.956258" style="stroke: #000000; stroke-width: 0.8"/>
      </g>
     </g>
     <g id="text_4">
      <!-- $\mathdefault{10^{-1}}$ -->
      <g transform="translate(18.9425 115.995633) scale(0.08 -0.08)">
       <use xlink:href="#DejaVuSans-31" transform="translate(0 0.684375)"/>
       <use xlink:href="#DejaVuSans-30" transform="translate(63.623047 0.684375)"/>
       <use xlink:href="#DejaVuSans-2212" transform="translate(128.203125 38.965625) scale(0.7)"/>
       <use xlink:href="#DejaVuSans-31" transform="translate(186.855469 38.965625) scale(0.7)"/>
      </g>
     </g>
    </g>
    <g id="ytick_2">
     <g id="line2d_35">
      <path d="M 44.7425 61.597816 
L 242.2745 61.597816 
" clip-path="url(#p99616d77ac)" style="fill: none; stroke: #d9d9d9; stroke-width: 0.8; stroke-linecap: square"/>
     </g>
     <g id="line2d_36">
      <g>
       <use xlink:href="#m2624146fa5" x="44.7425" y="61.597816" style="stroke: #000000; stroke-width: 0.8"/>
      </g>
     </g>
     <g id="text_5">
      <!-- $\mathdefault{10^{0}}$ -->
      <g transform="translate(23.6625 64.637191) scale(0.08 -0.08)">
       <use xlink:href="#DejaVuSans-31" transform="translate(0 0.765625)"/>
       <use xlink:href="#DejaVuSans-30" transform="translate(63.623047 0.765625)"/>
       <use xlink:href="#DejaVuSans-30" transform="translate(128.203125 39.046875) scale(0.7)"/>
      </g>
     </g>
    </g>
    <g id="ytick_3">
     <g id="line2d_37">
      <path d="M 44.7425 10.239375 
L 242.2745 10.239375 
" clip-path="url(#p99616d77ac)" style="fill: none; stroke: #d9d9d9; stroke-width: 0.8; stroke-linecap: square"/>
     </g>
     <g id="line2d_38">
      <g>
       <use xlink:href="#m2624146fa5" x="44.7425" y="10.239375" style="stroke: #000000; stroke-width: 0.8"/>
      </g>
     </g>
     <g id="text_6">
      <!-- $\mathdefault{10^{1}}$ -->
      <g transform="translate(23.6625 13.27875) scale(0.08 -0.08)">
       <use xlink:href="#DejaVuSans-31" transform="translate(0 0.684375)"/>
       <use xlink:href="#DejaVuSans-30" transform="translate(63.623047 0.684375)"/>
       <use xlink:href="#DejaVuSans-31" transform="translate(128.203125 38.965625) scale(0.7)"/>
      </g>
     </g>
    </g>
    <g id="ytick_4">
     <g id="line2d_39">
      <path d="M 44.7425 139.810495 
L 242.2745 139.810495 
" clip-path="url(#p99616d77ac)" style="fill: none; stroke-dasharray: 2.96,1.28; stroke-dashoffset: 0; stroke: #f2f2f2; stroke-width: 0.8"/>
     </g>
     <g id="line2d_40">
      <defs>
       <path id="m75777f19be" d="M 0 0 
L -2 0 
" style="stroke: #000000; stroke-width: 0.6"/>
      </defs>
      <g>
       <use xlink:href="#m75777f19be" x="44.7425" y="139.810495" style="stroke: #000000; stroke-width: 0.6"/>
      </g>
     </g>
    </g>
    <g id="ytick_5">
     <g id="line2d_41">
      <path d="M 44.7425 133.393836 
L 242.2745 133.393836 
" clip-path="url(#p99616d77ac)" style="fill: none; stroke-dasharray: 2.96,1.28; stroke-dashoffset: 0; stroke: #f2f2f2; stroke-width: 0.8"/>
     </g>
     <g id="line2d_42">
      <g>
       <use xlink:href="#m75777f19be" x="44.7425" y="133.393836" style="stroke: #000000; stroke-width: 0.6"/>
      </g>
     </g>
    </g>
    <g id="ytick_6">
     <g id="line2d_43">
      <path d="M 44.7425 128.416689 
L 242.2745 128.416689 
" clip-path="url(#p99616d77ac)" style="fill: none; stroke-dasharray: 2.96,1.28; stroke-dashoffset: 0; stroke: #f2f2f2; stroke-width: 0.8"/>
     </g>
     <g id="line2d_44">
      <g>
       <use xlink:href="#m75777f19be" x="44.7425" y="128.416689" style="stroke: #000000; stroke-width: 0.6"/>
      </g>
     </g>
    </g>
    <g id="ytick_7">
     <g id="line2d_45">
      <path d="M 44.7425 124.350064 
L 242.2745 124.350064 
" clip-path="url(#p99616d77ac)" style="fill: none; stroke-dasharray: 2.96,1.28; stroke-dashoffset: 0; stroke: #f2f2f2; stroke-width: 0.8"/>
     </g>
     <g id="line2d_46">
      <g>
       <use xlink:href="#m75777f19be" x="44.7425" y="124.350064" style="stroke: #000000; stroke-width: 0.6"/>
      </g>
     </g>
    </g>
    <g id="ytick_8">
     <g id="line2d_47">
      <path d="M 44.7425 120.911781 
L 242.2745 120.911781 
" clip-path="url(#p99616d77ac)" style="fill: none; stroke-dasharray: 2.96,1.28; stroke-dashoffset: 0; stroke: #f2f2f2; stroke-width: 0.8"/>
     </g>
     <g id="line2d_48">
      <g>
       <use xlink:href="#m75777f19be" x="44.7425" y="120.911781" style="stroke: #000000; stroke-width: 0.6"/>
      </g>
     </g>
    </g>
    <g id="ytick_9">
     <g id="line2d_49">
      <path d="M 44.7425 117.933405 
L 242.2745 117.933405 
" clip-path="url(#p99616d77ac)" style="fill: none; stroke-dasharray: 2.96,1.28; stroke-dashoffset: 0; stroke: #f2f2f2; stroke-width: 0.8"/>
     </g>
     <g id="line2d_50">
      <g>
       <use xlink:href="#m75777f19be" x="44.7425" y="117.933405" style="stroke: #000000; stroke-width: 0.6"/>
      </g>
     </g>
    </g>
    <g id="ytick_10">
     <g id="line2d_51">
      <path d="M 44.7425 115.306291 
L 242.2745 115.306291 
" clip-path="url(#p99616d77ac)" style="fill: none; stroke-dasharray: 2.96,1.28; stroke-dashoffset: 0; stroke: #f2f2f2; stroke-width: 0.8"/>
     </g>
     <g id="line2d_52">
      <g>
       <use xlink:href="#m75777f19be" x="44.7425" y="115.306291" style="stroke: #000000; stroke-width: 0.6"/>
      </g>
     </g>
    </g>
    <g id="ytick_11">
     <g id="line2d_53">
      <path d="M 44.7425 97.495826 
L 242.2745 97.495826 
" clip-path="url(#p99616d77ac)" style="fill: none; stroke-dasharray: 2.96,1.28; stroke-dashoffset: 0; stroke: #f2f2f2; stroke-width: 0.8"/>
     </g>
     <g id="line2d_54">
      <g>
       <use xlink:href="#m75777f19be" x="44.7425" y="97.495826" style="stroke: #000000; stroke-width: 0.6"/>
      </g>
     </g>
    </g>
    <g id="ytick_12">
     <g id="line2d_55">
      <path d="M 44.7425 88.452054 
L 242.2745 88.452054 
" clip-path="url(#p99616d77ac)" style="fill: none; stroke-dasharray: 2.96,1.28; stroke-dashoffset: 0; stroke: #f2f2f2; stroke-width: 0.8"/>
     </g>
     <g id="line2d_56">
      <g>
       <use xlink:href="#m75777f19be" x="44.7425" y="88.452054" style="stroke: #000000; stroke-width: 0.6"/>
      </g>
     </g>
    </g>
    <g id="ytick_13">
     <g id="line2d_57">
      <path d="M 44.7425 82.035395 
L 242.2745 82.035395 
" clip-path="url(#p99616d77ac)" style="fill: none; stroke-dasharray: 2.96,1.28; stroke-dashoffset: 0; stroke: #f2f2f2; stroke-width: 0.8"/>
     </g>
     <g id="line2d_58">
      <g>
       <use xlink:href="#m75777f19be" x="44.7425" y="82.035395" style="stroke: #000000; stroke-width: 0.6"/>
      </g>
     </g>
    </g>
    <g id="ytick_14">
     <g id="line2d_59">
      <path d="M 44.7425 77.058248 
L 242.2745 77.058248 
" clip-path="url(#p99616d77ac)" style="fill: none; stroke-dasharray: 2.96,1.28; stroke-dashoffset: 0; stroke: #f2f2f2; stroke-width: 0.8"/>
     </g>
     <g id="line2d_60">
      <g>
       <use xlink:href="#m75777f19be" x="44.7425" y="77.058248" style="stroke: #000000; stroke-width: 0.6"/>
      </g>
     </g>
    </g>
    <g id="ytick_15">
     <g id="line2d_61">
      <path d="M 44.7425 72.991622 
L 242.2745 72.991622 
" clip-path="url(#p99616d77ac)" style="fill: none; stroke-dasharray: 2.96,1.28; stroke-dashoffset: 0; stroke: #f2f2f2; stroke-width: 0.8"/>
     </g>
     <g id="line2d_62">
      <g>
       <use xlink:href="#m75777f19be" x="44.7425" y="72.991622" style="stroke: #000000; stroke-width: 0.6"/>
      </g>
     </g>
    </g>
    <g id="ytick_16">
     <g id="line2d_63">
      <path d="M 44.7425 69.55334 
L 242.2745 69.55334 
" clip-path="url(#p99616d77ac)" style="fill: none; stroke-dasharray: 2.96,1.28; stroke-dashoffset: 0; stroke: #f2f2f2; stroke-width: 0.8"/>
     </g>
     <g id="line2d_64">
      <g>
       <use xlink:href="#m75777f19be" x="44.7425" y="69.55334" style="stroke: #000000; stroke-width: 0.6"/>
      </g>
     </g>
    </g>
    <g id="ytick_17">
     <g id="line2d_65">
      <path d="M 44.7425 66.574964 
L 242.2745 66.574964 
" clip-path="url(#p99616d77ac)" style="fill: none; stroke-dasharray: 2.96,1.28; stroke-dashoffset: 0; stroke: #f2f2f2; stroke-width: 0.8"/>
     </g>
     <g id="line2d_66">
      <g>
       <use xlink:href="#m75777f19be" x="44.7425" y="66.574964" style="stroke: #000000; stroke-width: 0.6"/>
      </g>
     </g>
    </g>
    <g id="ytick_18">
     <g id="line2d_67">
      <path d="M 44.7425 63.94785 
L 242.2745 63.94785 
" clip-path="url(#p99616d77ac)" style="fill: none; stroke-dasharray: 2.96,1.28; stroke-dashoffset: 0; stroke: #f2f2f2; stroke-width: 0.8"/>
     </g>
     <g id="line2d_68">
      <g>
       <use xlink:href="#m75777f19be" x="44.7425" y="63.94785" style="stroke: #000000; stroke-width: 0.6"/>
      </g>
     </g>
    </g>
    <g id="ytick_19">
     <g id="line2d_69">
      <path d="M 44.7425 46.137385 
L 242.2745 46.137385 
" clip-path="url(#p99616d77ac)" style="fill: none; stroke-dasharray: 2.96,1.28; stroke-dashoffset: 0; stroke: #f2f2f2; stroke-width: 0.8"/>
     </g>
     <g id="line2d_70">
      <g>
       <use xlink:href="#m75777f19be" x="44.7425" y="46.137385" style="stroke: #000000; stroke-width: 0.6"/>
      </g>
     </g>
    </g>
    <g id="ytick_20">
     <g id="line2d_71">
      <path d="M 44.7425 37.093612 
L 242.2745 37.093612 
" clip-path="url(#p99616d77ac)" style="fill: none; stroke-dasharray: 2.96,1.28; stroke-dashoffset: 0; stroke: #f2f2f2; stroke-width: 0.8"/>
     </g>
     <g id="line2d_72">
      <g>
       <use xlink:href="#m75777f19be" x="44.7425" y="37.093612" style="stroke: #000000; stroke-width: 0.6"/>
      </g>
     </g>
    </g>
    <g id="ytick_21">
     <g id="line2d_73">
      <path d="M 44.7425 30.676954 
L 242.2745 30.676954 
" clip-path="url(#p99616d77ac)" style="fill: none; stroke-dasharray: 2.96,1.28; stroke-dashoffset: 0; stroke: #f2f2f2; stroke-width: 0.8"/>
     </g>
     <g id="line2d_74">
      <g>
       <use xlink:href="#m75777f19be" x="44.7425" y="30.676954" style="stroke: #000000; stroke-width: 0.6"/>
      </g>
     </g>
    </g>
    <g id="ytick_22">
     <g id="line2d_75">
      <path d="M 44.7425 25.699806 
L 242.2745 25.699806 
" clip-path="url(#p99616d77ac)" style="fill: none; stroke-dasharray: 2.96,1.28; stroke-dashoffset: 0; stroke: #f2f2f2; stroke-width: 0.8"/>
     </g>
     <g id="line2d_76">
      <g>
       <use xlink:href="#m75777f19be" x="44.7425" y="25.699806" style="stroke: #000000; stroke-width: 0.6"/>
      </g>
     </g>
    </g>
    <g id="ytick_23">
     <g id="line2d_77">
      <path d="M 44.7425 21.633181 
L 242.2745 21.633181 
" clip-path="url(#p99616d77ac)" style="fill: none; stroke-dasharray: 2.96,1.28; stroke-dashoffset: 0; stroke: #f2f2f2; stroke-width: 0.8"/>
     </g>
     <g id="line2d_78">
      <g>
       <use xlink:href="#m75777f19be" x="44.7425" y="21.633181" style="stroke: #000000; stroke-width: 0.6"/>
      </g>
     </g>
    </g>
    <g id="ytick_24">
     <g id="line2d_79">
      <path d="M 44.7425 18.194898 
L 242.2745 18.194898 
" clip-path="url(#p99616d77ac)" style="fill: none; stroke-dasharray: 2.96,1.28; stroke-dashoffset: 0; stroke: #f2f2f2; stroke-width: 0.8"/>
     </g>
     <g id="line2d_80">
      <g>
       <use xlink:href="#m75777f19be" x="44.7425" y="18.194898" style="stroke: #000000; stroke-width: 0.6"/>
      </g>
     </g>
    </g>
    <g id="ytick_25">
     <g id="line2d_81">
      <path d="M 44.7425 15.216522 
L 242.2745 15.216522 
" clip-path="url(#p99616d77ac)" style="fill: none; stroke-dasharray: 2.96,1.28; stroke-dashoffset: 0; stroke: #f2f2f2; stroke-width: 0.8"/>
     </g>
     <g id="line2d_82">
      <g>
       <use xlink:href="#m75777f19be" x="44.7425" y="15.216522" style="stroke: #000000; stroke-width: 0.6"/>
      </g>
     </g>
    </g>
    <g id="ytick_26">
     <g id="line2d_83">
      <path d="M 44.7425 12.589408 
L 242.2745 12.589408 
" clip-path="url(#p99616d77ac)" style="fill: none; stroke-dasharray: 2.96,1.28; stroke-dashoffset: 0; stroke: #f2f2f2; stroke-width: 0.8"/>
     </g>
     <g id="line2d_84">
      <g>
       <use xlink:href="#m75777f19be" x="44.7425" y="12.589408" style="stroke: #000000; stroke-width: 0.6"/>
      </g>
     </g>
    </g>
    <g id="text_7">
     <!-- Spectral acceleration, SA (g) -->
     <g transform="translate(13.27875 132.018148) rotate(-90) scale(0.08 -0.08)">
      <defs>
       <path id="DejaVuSans-53" d="M 3425 4513 
L 3425 3897 
Q 3066 4069 2747 4153 
Q 2428 4238 2131 4238 
Q 1616 4238 1336 4038 
Q 1056 3838 1056 3469 
Q 1056 3159 1242 3001 
Q 1428 2844 1947 2747 
L 2328 2669 
Q 3034 2534 3370 2195 
Q 3706 1856 3706 1288 
Q 3706 609 3251 259 
Q 2797 -91 1919 -91 
Q 1588 -91 1214 -16 
Q 841 59 441 206 
L 441 856 
Q 825 641 1194 531 
Q 1563 422 1919 422 
Q 2459 422 2753 634 
Q 3047 847 3047 1241 
Q 3047 1584 2836 1778 
Q 2625 1972 2144 2069 
L 1759 2144 
Q 1053 2284 737 2584 
Q 422 2884 422 3419 
Q 422 4038 858 4394 
Q 1294 4750 2059 4750 
Q 2388 4750 2728 4690 
Q 3069 4631 3425 4513 
z
" transform="scale(0.015625)"/>
       <path id="DejaVuSans-70" d="M 1159 525 
L 1159 -1331 
L 581 -1331 
L 581 3500 
L 1159 3500 
L 1159 2969 
Q 1341 3281 1617 3432 
Q 1894 3584 2278 3584 
Q 2916 3584 3314 3078 
Q 3713 2572 3713 1747 
Q 3713 922 3314 415 
Q 2916 -91 2278 -91 
Q 1894 -91 1617 61 
Q 1341 213 1159 525 
z
M 3116 1747 
Q 3116 2381 2855 2742 
Q 2594 3103 2138 3103 
Q 1681 3103 1420 2742 
Q 1159 2381 1159 1747 
Q 1159 1113 1420 752 
Q 1681 391 2138 391 
Q 2594 391 2855 752 
Q 3116 1113 3116 1747 
z
" transform="scale(0.015625)"/>
       <path id="DejaVuSans-63" d="M 3122 3366 
L 3122 2828 
Q 2878 2963 2633 3030 
Q 2388 3097 2138 3097 
Q 1578 3097 1268 2742 
Q 959 2388 959 1747 
Q 959 1106 1268 751 
Q 1578 397 2138 397 
Q 2388 397 2633 464 
Q 2878 531 3122 666 
L 3122 134 
Q 2881 22 2623 -34 
Q 2366 -91 2075 -91 
Q 1284 -91 818 406 
Q 353 903 353 1747 
Q 353 2603 823 3093 
Q 1294 3584 2113 3584 
Q 2378 3584 2631 3529 
Q 2884 3475 3122 3366 
z
" transform="scale(0.015625)"/>
       <path id="DejaVuSans-74" d="M 1172 4494 
L 1172 3500 
L 2356 3500 
L 2356 3053 
L 1172 3053 
L 1172 1153 
Q 1172 725 1289 603 
Q 1406 481 1766 481 
L 2356 481 
L 2356 0 
L 1766 0 
Q 1100 0 847 248 
Q 594 497 594 1153 
L 594 3053 
L 172 3053 
L 172 3500 
L 594 3500 
L 594 4494 
L 1172 4494 
z
" transform="scale(0.015625)"/>
       <path id="DejaVuSans-61" d="M 2194 1759 
Q 1497 1759 1228 1600 
Q 959 1441 959 1056 
Q 959 750 1161 570 
Q 1363 391 1709 391 
Q 2188 391 2477 730 
Q 2766 1069 2766 1631 
L 2766 1759 
L 2194 1759 
z
M 3341 1997 
L 3341 0 
L 2766 0 
L 2766 531 
Q 2569 213 2275 61 
Q 1981 -91 1556 -91 
Q 1019 -91 701 211 
Q 384 513 384 1019 
Q 384 1609 779 1909 
Q 1175 2209 1959 2209 
L 2766 2209 
L 2766 2266 
Q 2766 2663 2505 2880 
Q 2244 3097 1772 3097 
Q 1472 3097 1187 3025 
Q 903 2953 641 2809 
L 641 3341 
Q 956 3463 1253 3523 
Q 1550 3584 1831 3584 
Q 2591 3584 2966 3190 
Q 3341 2797 3341 1997 
z
" transform="scale(0.015625)"/>
       <path id="DejaVuSans-6c" d="M 603 4863 
L 1178 4863 
L 1178 0 
L 603 0 
L 603 4863 
z
" transform="scale(0.015625)"/>
       <path id="DejaVuSans-6e" d="M 3513 2113 
L 3513 0 
L 2938 0 
L 2938 2094 
Q 2938 2591 2744 2837 
Q 2550 3084 2163 3084 
Q 1697 3084 1428 2787 
Q 1159 2491 1159 1978 
L 1159 0 
L 581 0 
L 581 3500 
L 1159 3500 
L 1159 2956 
Q 1366 3272 1645 3428 
Q 1925 3584 2291 3584 
Q 2894 3584 3203 3211 
Q 3513 2838 3513 2113 
z
" transform="scale(0.015625)"/>
       <path id="DejaVuSans-41" d="M 2188 4044 
L 1331 1722 
L 3047 1722 
L 2188 4044 
z
M 1831 4666 
L 2547 4666 
L 4325 0 
L 3669 0 
L 3244 1197 
L 1141 1197 
L 716 0 
L 50 0 
L 1831 4666 
z
" transform="scale(0.015625)"/>
       <path id="DejaVuSans-67" d="M 2906 1791 
Q 2906 2416 2648 2759 
Q 2391 3103 1925 3103 
Q 1463 3103 1205 2759 
Q 947 2416 947 1791 
Q 947 1169 1205 825 
Q 1463 481 1925 481 
Q 2391 481 2648 825 
Q 2906 1169 2906 1791 
z
M 3481 434 
Q 3481 -459 3084 -895 
Q 2688 -1331 1869 -1331 
Q 1566 -1331 1297 -1286 
Q 1028 -1241 775 -1147 
L 775 -588 
Q 1028 -725 1275 -790 
Q 1522 -856 1778 -856 
Q 2344 -856 2625 -561 
Q 2906 -266 2906 331 
L 2906 616 
Q 2728 306 2450 153 
Q 2172 0 1784 0 
Q 1141 0 747 490 
Q 353 981 353 1791 
Q 353 2603 747 3093 
Q 1141 3584 1784 3584 
Q 2172 3584 2450 3431 
Q 2728 3278 2906 2969 
L 2906 3500 
L 3481 3500 
L 3481 434 
z
" transform="scale(0.015625)"/>
      </defs>
      <use xlink:href="#DejaVuSans-53"/>
      <use xlink:href="#DejaVuSans-70" x="63.476562"/>
      <use xlink:href="#DejaVuSans-65" x="126.953125"/>
      <use xlink:href="#DejaVuSans-63" x="188.476562"/>
      <use xlink:href="#DejaVuSans-74" x="243.457031"/>
      <use xlink:href="#DejaVuSans-72" x="282.666016"/>
      <use xlink:href="#DejaVuSans-61" x="323.779297"/>
      <use xlink:href="#DejaVuSans-6c" x="385.058594"/>
      <use xlink:href="#DejaVuSans-20" x="412.841797"/>
      <use xlink:href="#DejaVuSans-61" x="444.628906"/>
      <use xlink:href="#DejaVuSans-63" x="505.908203"/>
      <use xlink:href="#DejaVuSans-63" x="560.888672"/>
      <use xlink:href="#DejaVuSans-65" x="615.869141"/>
      <use xlink:href="#DejaVuSans-6c" x="677.392578"/>
      <use xlink:href="#DejaVuSans-65" x="705.175781"/>
      <use xlink:href="#DejaVuSans-72" x="766.699219"/>
      <use xlink:href="#DejaVuSans-61" x="807.8125"/>
      <use xlink:href="#DejaVuSans-74" x="869.091797"/>
      <use xlink:href="#DejaVuSans-69" x="908.300781"/>
      <use xlink:href="#DejaVuSans-6f" x="936.083984"/>
      <use xlink:href="#DejaVuSans-6e" x="997.265625"/>
      <use xlink:href="#DejaVuSans-2c" x="1060.644531"/>
      <use xlink:href="#DejaVuSans-20" x="1092.431641"/>
      <use xlink:href="#DejaVuSans-53" x="1124.21875"/>
      <use xlink:href="#DejaVuSans-41" x="1189.570312"/>
      <use xlink:href="#DejaVuSans-20" x="1257.978516"/>
      <use xlink:href="#DejaVuSans-28" x="1289.765625"/>
      <use xlink:href="#DejaVuSans-67" x="1328.779297"/>
      <use xlink:href="#DejaVuSans-29" x="1392.255859"/>
     </g>
    </g>
   </g>
   <g id="line2d_85">
    <path d="M 53.721227 26.608078 
L 72.333391 25.000074 
L 85.538931 19.711708 
L 95.781944 38.950347 
L 104.151095 42.734174 
L 117.356635 49.97801 
L 127.599648 47.293999 
L 146.211812 54.397998 
L 159.417352 59.031008 
L 171.460723 63.390792 
L 178.029516 76.891944 
L 191.235056 74.262764 
L 209.84722 74.603365 
L 223.05276 81.696958 
L 233.295773 87.856327 
" clip-path="url(#p99616d77ac)" style="fill: none; stroke: #b2b2b2; stroke-width: 0.8; stroke-linecap: square"/>
   </g>
   <g id="line2d_86">
    <path d="M 53.721227 40.868349 
L 72.333391 49.914007 
L 85.538931 56.928452 
L 95.781944 52.874519 
L 104.151095 46.367533 
L 117.356635 45.554553 
L 127.599648 40.484099 
L 146.211812 39.1849 
L 159.417352 53.473123 
L 171.460723 47.278206 
L 178.029516 49.066987 
L 191.235056 53.735625 
L 209.84722 78.341933 
L 223.05276 91.450022 
L 233.295773 100.640189 
" clip-path="url(#p99616d77ac)" style="fill: none; stroke: #b2b2b2; stroke-width: 0.8; stroke-linecap: square"/>
   </g>
   <g id="line2d_87">
    <path d="M 53.721227 49.168778 
L 72.333391 34.079473 
L 85.538931 43.025494 
L 95.781944 45.321514 
L 104.151095 49.482438 
L 117.356635 48.366336 
L 127.599648 48.162236 
L 146.211812 43.693388 
L 159.417352 45.977509 
L 171.460723 72.590595 
L 178.029516 79.918933 
L 191.235056 84.305549 
L 209.84722 89.433257 
L 223.05276 93.222999 
L 233.295773 100.552396 
" clip-path="url(#p99616d77ac)" style="fill: none; stroke: #b2b2b2; stroke-width: 0.8; stroke-linecap: square"/>
   </g>
   <g id="line2d_88">
    <path d="M 53.721227 40.845232 
L 72.333391 29.6935 
L 85.538931 30.996228 
L 95.781944 35.295809 
L 104.151095 44.319458 
L 117.356635 53.076045 
L 127.599648 52.502164 
L 146.211812 45.00887 
L 159.417352 41.144762 
L 171.460723 54.176936 
L 178.029516 59.356772 
L 191.235056 74.92356 
L 209.84722 87.498905 
L 223.05276 92.983136 
L 233.295773 105.069765 
" clip-path="url(#p99616d77ac)" style="fill: none; stroke: #b2b2b2; stroke-width: 0.8; stroke-linecap: square"/>
   </g>
   <g id="line2d_89">
    <path d="M 53.721227 57.495572 
L 72.333391 54.544267 
L 85.538931 58.404197 
L 95.781944 51.00684 
L 104.151095 43.923437 
L 117.356635 44.656478 
L 127.599648 46.370395 
L 146.211812 38.068446 
L 159.417352 38.499254 
L 171.460723 44.105567 
L 178.029516 51.179132 
L 191.235056 65.921201 
L 209.84722 87.326501 
L 223.05276 104.732256 
L 233.295773 118.745059 
" clip-path="url(#p99616d77ac)" style="fill: none; stroke: #b2b2b2; stroke-width: 0.8; stroke-linecap: square"/>
   </g>
   <g id="line2d_90">
    <path d="M 53.721227 55.902418 
L 72.333391 58.878662 
L 85.538931 56.457988 
L 95.781944 48.068502 
L 104.151095 41.665696 
L 117.356635 31.293747 
L 127.599648 37.693972 
L 146.211812 40.010825 
L 159.417352 53.58155 
L 171.460723 52.797196 
L 178.029516 55.17211 
L 191.235056 80.444612 
L 209.84722 96.323417 
L 223.05276 103.166103 
L 233.295773 101.347885 
" clip-path="url(#p99616d77ac)" style="fill: none; stroke: #b2b2b2; stroke-width: 0.8; stroke-linecap: square"/>
   </g>
   <g id="line2d_91">
    <path d="M 53.721227 52.690463 
L 72.333391 43.605608 
L 85.538931 41.58132 
L 95.781944 32.787073 
L 104.151095 37.882454 
L 117.356635 30.880293 
L 127.599648 39.403078 
L 146.211812 44.669051 
L 159.417352 51.079991 
L 171.460723 47.226161 
L 178.029516 39.48764 
L 191.235056 55.877207 
L 209.84722 86.221085 
L 223.05276 98.399719 
L 233.295773 91.122698 
" clip-path="url(#p99616d77ac)" style="fill: none; stroke: #b2b2b2; stroke-width: 0.8; stroke-linecap: square"/>
   </g>
   <g id="line2d_92">
    <path d="M 53.721227 64.194515 
L 72.333391 61.552432 
L 85.538931 61.680332 
L 95.781944 54.047865 
L 104.151095 51.150674 
L 117.356635 42.771551 
L 127.599648 37.232442 
L 146.211812 40.335381 
L 159.417352 42.07229 
L 171.460723 51.631186 
L 178.029516 60.435367 
L 191.235056 64.743272 
L 209.84722 84.697852 
L 223.05276 74.05859 
L 233.295773 90.648799 
" clip-path="url(#p99616d77ac)" style="fill: none; stroke: #b2b2b2; stroke-width: 0.8; stroke-linecap: square"/>
   </g>
   <g id="line2d_93">
    <path d="M 53.721227 55.696024 
L 72.333391 49.819528 
L 85.538931 41.321325 
L 95.781944 37.580202 
L 104.151095 45.482844 
L 117.356635 36.059016 
L 127.599648 28.759136 
L 146.211812 44.570055 
L 159.417352 59.992049 
L 171.460723 56.898524 
L 178.029516 64.794781 
L 191.235056 61.416008 
L 209.84722 83.072729 
L 223.05276 95.28234 
L 233.295773 99.519885 
" clip-path="url(#p99616d77ac)" style="fill: none; stroke: #b2b2b2; stroke-width: 0.8; stroke-linecap: square"/>
   </g>
   <g id="line2d_94">
    <path d="M 53.721227 45.2747 
L 72.333391 31.124732 
L 85.538931 33.085127 
L 95.781944 32.733065 
L 104.151095 40.43746 
L 117.356635 45.200215 
L 127.599648 43.581547 
L 146.211812 49.8075 
L 159.417352 47.139508 
L 171.460723 45.855194 
L 178.029516 54.818453 
L 191.235056 75.351705 
L 209.84722 85.271696 
L 223.05276 93.895407 
L 233.295773 96.32876 
" clip-path="url(#p99616d77ac)" style="fill: none; stroke: #b2b2b2; stroke-width: 0.8; stroke-linecap: square"/>
   </g>
   <g id="line2d_95">
    <path d="M 53.721227 47.509365 
L 72.333391 36.887307 
L 85.538931 40.340214 
L 95.781944 44.252919 
L 104.151095 33.521338 
L 117.356635 42.651767 
L 127.599648 33.942913 
L 146.211812 46.122373 
L 159.417352 51.60046 
L 171.460723 56.565326 
L 178.029516 71.72371 
L 191.235056 80.718351 
L 209.84722 84.685829 
L 223.05276 108.836929 
L 233.295773 117.458002 
" clip-path="url(#p99616d77ac)" style="fill: none; stroke: #b2b2b2; stroke-width: 0.8; stroke-linecap: square"/>
   </g>
   <g id="line2d_96">
    <path d="M 53.721227 47.857529 
L 72.333391 38.649402 
L 85.538931 42.539171 
L 95.781944 41.333001 
L 104.151095 40.953058 
L 117.356635 36.99341 
L 127.599648 40.491626 
L 146.211812 42.919578 
L 159.417352 58.920228 
L 171.460723 74.060023 
L 178.029516 78.012632 
L 191.235056 93.247231 
L 209.84722 84.783997 
L 223.05276 115.11078 
L 233.295773 123.482209 
" clip-path="url(#p99616d77ac)" style="fill: none; stroke: #b2b2b2; stroke-width: 0.8; stroke-linecap: square"/>
   </g>
   <g id="line2d_97">
    <path d="M 53.721227 57.441555 
L 72.333391 53.448824 
L 85.538931 46.699498 
L 95.781944 47.423551 
L 104.151095 41.187713 
L 117.356635 34.164877 
L 127.599648 36.668975 
L 146.211812 45.093638 
L 159.417352 49.946403 
L 171.460723 53.213587 
L 178.029516 49.406021 
L 191.235056 67.922483 
L 209.84722 80.031828 
L 223.05276 83.193453 
L 233.295773 87.208742 
" clip-path="url(#p99616d77ac)" style="fill: none; stroke: #b2b2b2; stroke-width: 0.8; stroke-linecap: square"/>
   </g>
   <g id="line2d_98">
    <path d="M 53.721227 57.238652 
L 72.333391 53.727958 
L 85.538931 47.889567 
L 95.781944 41.60459 
L 104.151095 34.384131 
L 117.356635 42.994258 
L 127.599648 43.646684 
L 146.211812 44.321018 
L 159.417352 45.400928 
L 171.460723 51.427152 
L 178.029516 51.129004 
L 191.235056 71.46661 
L 209.84722 87.299206 
L 223.05276 90.328224 
L 233.295773 111.259032 
" clip-path="url(#p99616d77ac)" style="fill: none; stroke: #b2b2b2; stroke-width: 0.8; stroke-linecap: square"/>
   </g>
   <g id="line2d_99">
    <path d="M 53.721227 41.749843 
L 72.333391 37.996841 
L 85.538931 41.05472 
L 95.781944 37.487509 
L 104.151095 33.720121 
L 117.356635 27.287443 
L 127.599648 32.533062 
L 146.211812 50.453223 
L 159.417352 65.031576 
L 171.460723 75.951144 
L 178.029516 77.681634 
L 191.235056 91.389682 
L 209.84722 90.482873 
L 223.05276 108.526123 
L 233.295773 128.954637 
" clip-path="url(#p99616d77ac)" style="fill: none; stroke: #b2b2b2; stroke-width: 0.8; stroke-linecap: square"/>
   </g>
   <g id="line2d_100">
    <path d="M 53.721227 49.12333 
L 72.333391 44.435456 
L 85.538931 40.425905 
L 95.781944 33.21648 
L 104.151095 33.838935 
L 117.356635 46.029382 
L 127.599648 38.259466 
L 146.211812 52.656535 
L 159.417352 46.914991 
L 171.460723 55.730471 
L 178.029516 54.094832 
L 191.235056 63.040364 
L 209.84722 77.740203 
L 223.05276 82.332852 
L 233.295773 95.737662 
" clip-path="url(#p99616d77ac)" style="fill: none; stroke: #b2b2b2; stroke-width: 0.8; stroke-linecap: square"/>
   </g>
   <g id="line2d_101">
    <path d="M 53.721227 43.711275 
L 72.333391 38.733195 
L 85.538931 39.462473 
L 95.781944 35.077431 
L 104.151095 39.447418 
L 117.356635 42.423024 
L 127.599648 47.052235 
L 146.211812 49.037946 
L 159.417352 48.817157 
L 171.460723 57.520663 
L 178.029516 64.826422 
L 191.235056 68.705767 
L 209.84722 82.023044 
L 223.05276 87.676772 
L 233.295773 97.160947 
" clip-path="url(#p99616d77ac)" style="fill: none; stroke: #b2b2b2; stroke-width: 0.8; stroke-linecap: square"/>
   </g>
   <g id="line2d_102">
    <path d="M 53.721227 51.429993 
L 72.333391 40.530735 
L 85.538931 39.460067 
L 95.781944 28.984337 
L 104.151095 45.754653 
L 117.356635 40.7673 
L 127.599648 33.497275 
L 146.211812 46.715395 
L 159.417352 55.578311 
L 171.460723 53.268331 
L 178.029516 53.675596 
L 191.235056 68.113466 
L 209.84722 91.621397 
L 223.05276 104.747896 
L 233.295773 115.272665 
" clip-path="url(#p99616d77ac)" style="fill: none; stroke: #b2b2b2; stroke-width: 0.8; stroke-linecap: square"/>
   </g>
   <g id="line2d_103">
    <path d="M 53.721227 43.783248 
L 72.333391 34.122327 
L 85.538931 32.251444 
L 95.781944 22.512487 
L 104.151095 26.205682 
L 117.356635 34.232763 
L 127.599648 36.948212 
L 146.211812 47.480789 
L 159.417352 64.537381 
L 171.460723 60.504727 
L 178.029516 70.15493 
L 191.235056 78.252671 
L 209.84722 86.327497 
L 223.05276 90.409921 
L 233.295773 93.877126 
" clip-path="url(#p99616d77ac)" style="fill: none; stroke: #b2b2b2; stroke-width: 0.8; stroke-linecap: square"/>
   </g>
   <g id="line2d_104">
    <path d="M 53.721227 39.275272 
L 72.333391 44.196855 
L 85.538931 40.009821 
L 95.781944 43.252137 
L 104.151095 37.862358 
L 117.356635 44.522887 
L 127.599648 52.332743 
L 146.211812 43.260369 
L 159.417352 51.874009 
L 171.460723 65.223227 
L 178.029516 70.285316 
L 191.235056 77.432593 
L 209.84722 86.292404 
L 223.05276 102.155362 
L 233.295773 105.90493 
" clip-path="url(#p99616d77ac)" style="fill: none; stroke: #b2b2b2; stroke-width: 0.8; stroke-linecap: square"/>
   </g>
   <g id="line2d_105">
    <path d="M 53.721227 61.679221 
L 72.333391 51.845517 
L 85.538931 52.873716 
L 95.781944 49.737448 
L 104.151095 46.214083 
L 117.356635 43.97447 
L 127.599648 39.032639 
L 146.211812 40.805511 
L 159.417352 40.751272 
L 171.460723 37.318775 
L 178.029516 45.752699 
L 191.235056 50.483836 
L 209.84722 52.532752 
L 223.05276 74.359563 
L 233.295773 97.070608 
" clip-path="url(#p99616d77ac)" style="fill: none; stroke: #b2b2b2; stroke-width: 0.8; stroke-linecap: square"/>
   </g>
   <g id="line2d_106">
    <path d="M 53.721227 62.467985 
L 72.333391 54.268971 
L 85.538931 46.555857 
L 95.781944 45.343955 
L 104.151095 45.77238 
L 117.356635 35.04239 
L 127.599648 33.215059 
L 146.211812 44.315645 
L 159.417352 57.262472 
L 171.460723 59.181427 
L 178.029516 61.434113 
L 191.235056 66.237283 
L 209.84722 78.831014 
L 223.05276 89.54769 
L 233.295773 101.410205 
" clip-path="url(#p99616d77ac)" style="fill: none; stroke: #b2b2b2; stroke-width: 0.8; stroke-linecap: square"/>
   </g>
   <g id="line2d_107">
    <path d="M 53.721227 47.689535 
L 72.333391 42.904223 
L 85.538931 35.116285 
L 95.781944 41.899153 
L 104.151095 38.73754 
L 117.356635 34.212412 
L 127.599648 37.884046 
L 146.211812 43.243887 
L 159.417352 59.518564 
L 171.460723 69.180092 
L 178.029516 73.870635 
L 191.235056 87.905314 
L 209.84722 83.712613 
L 223.05276 100.364937 
L 233.295773 113.041367 
" clip-path="url(#p99616d77ac)" style="fill: none; stroke: #b2b2b2; stroke-width: 0.8; stroke-linecap: square"/>
   </g>
   <g id="line2d_108">
    <path d="M 53.721227 45.804566 
L 72.333391 38.972683 
L 85.538931 38.763504 
L 95.781944 40.573191 
L 104.151095 41.336046 
L 117.356635 37.350971 
L 127.599648 40.40463 
L 146.211812 52.00064 
L 159.417352 46.177201 
L 171.460723 50.737639 
L 178.029516 52.945195 
L 191.235056 56.135153 
L 209.84722 70.22563 
L 223.05276 80.971609 
L 233.295773 89.484141 
" clip-path="url(#p99616d77ac)" style="fill: none; stroke: #b2b2b2; stroke-width: 0.8; stroke-linecap: square"/>
   </g>
   <g id="line2d_109">
    <path d="M 53.721227 22.774472 
L 72.333391 15.294273 
L 85.538931 17.422541 
L 95.781944 18.640039 
L 104.151095 20.071866 
L 117.356635 31.568018 
L 127.599648 34.679156 
L 146.211812 63.407345 
L 159.417352 73.934736 
L 171.460723 75.000178 
L 178.029516 74.938864 
L 191.235056 86.180576 
L 209.84722 90.496019 
L 223.05276 115.802678 
L 233.295773 124.241334 
" clip-path="url(#p99616d77ac)" style="fill: none; stroke: #b2b2b2; stroke-width: 0.8; stroke-linecap: square"/>
   </g>
   <g id="line2d_110">
    <path d="M 53.721227 58.298529 
L 72.333391 55.972302 
L 85.538931 46.792918 
L 95.781944 49.839152 
L 104.151095 44.12902 
L 117.356635 34.946701 
L 127.599648 35.74189 
L 146.211812 47.163987 
L 159.417352 43.618963 
L 171.460723 45.961165 
L 178.029516 55.250896 
L 191.235056 77.244869 
L 209.84722 101.832004 
L 223.05276 109.001879 
L 233.295773 118.961445 
" clip-path="url(#p99616d77ac)" style="fill: none; stroke: #b2b2b2; stroke-width: 0.8; stroke-linecap: square"/>
   </g>
   <g id="line2d_111">
    <path d="M 53.721227 42.972467 
L 72.333391 40.902513 
L 85.538931 41.366947 
L 95.781944 38.769734 
L 104.151095 42.321412 
L 117.356635 41.000907 
L 127.599648 49.266688 
L 146.211812 49.621864 
L 159.417352 44.34309 
L 171.460723 61.607665 
L 178.029516 64.691857 
L 191.235056 73.261265 
L 209.84722 89.643307 
L 223.05276 95.832342 
L 233.295773 105.243005 
" clip-path="url(#p99616d77ac)" style="fill: none; stroke: #b2b2b2; stroke-width: 0.8; stroke-linecap: square"/>
   </g>
   <g id="line2d_112">
    <path d="M 53.721227 33.254979 
L 72.333391 35.263504 
L 85.538931 33.973968 
L 95.781944 34.583215 
L 104.151095 38.184571 
L 117.356635 39.624589 
L 127.599648 36.999596 
L 146.211812 51.834785 
L 159.417352 57.198834 
L 171.460723 62.031167 
L 178.029516 68.203694 
L 191.235056 69.409788 
L 209.84722 70.196206 
L 223.05276 86.659951 
L 233.295773 92.963253 
" clip-path="url(#p99616d77ac)" style="fill: none; stroke: #b2b2b2; stroke-width: 0.8; stroke-linecap: square"/>
   </g>
   <g id="line2d_113">
    <path d="M 53.721227 42.550818 
L 72.333391 37.036125 
L 85.538931 35.835713 
L 95.781944 30.01697 
L 104.151095 31.898549 
L 117.356635 42.660369 
L 127.599648 42.499048 
L 146.211812 47.330862 
L 159.417352 53.815912 
L 171.460723 64.087173 
L 178.029516 59.517334 
L 191.235056 79.697324 
L 209.84722 86.843794 
L 223.05276 93.453514 
L 233.295773 106.579288 
" clip-path="url(#p99616d77ac)" style="fill: none; stroke: #b2b2b2; stroke-width: 0.8; stroke-linecap: square"/>
   </g>
   <g id="line2d_114">
    <path d="M 53.721227 59.405927 
L 72.333391 51.038679 
L 85.538931 46.410394 
L 95.781944 46.961809 
L 104.151095 40.016522 
L 117.356635 43.591633 
L 127.599648 42.342675 
L 146.211812 39.917966 
L 159.417352 55.54808 
L 171.460723 64.92695 
L 178.029516 70.72704 
L 191.235056 74.932757 
L 209.84722 92.856077 
L 223.05276 111.90488 
L 233.295773 115.193775 
" clip-path="url(#p99616d77ac)" style="fill: none; stroke: #b2b2b2; stroke-width: 0.8; stroke-linecap: square"/>
   </g>
   <g id="line2d_115">
    <path d="M 53.721227 46.848346 
L 72.333391 39.582368 
L 85.538931 33.75457 
L 95.781944 34.562879 
L 104.151095 26.728992 
L 117.356635 28.291036 
L 127.599648 40.13854 
L 146.211812 58.455345 
L 159.417352 53.947787 
L 171.460723 57.936401 
L 178.029516 57.503145 
L 191.235056 53.710456 
L 209.84722 67.693193 
L 223.05276 76.651814 
L 233.295773 89.477555 
" clip-path="url(#p99616d77ac)" style="fill: none; stroke: #b2b2b2; stroke-width: 0.8; stroke-linecap: square"/>
   </g>
   <g id="line2d_116">
    <path d="M 53.721227 25.232403 
L 72.333391 34.464604 
L 85.538931 24.766245 
L 95.781944 27.281473 
L 104.151095 32.156002 
L 117.356635 40.939559 
L 127.599648 40.322966 
L 146.211812 59.289532 
L 159.417352 61.986947 
L 171.460723 67.181569 
L 178.029516 70.327456 
L 191.235056 75.187886 
L 209.84722 94.6116 
L 223.05276 96.640024 
L 233.295773 97.135532 
" clip-path="url(#p99616d77ac)" style="fill: none; stroke: #b2b2b2; stroke-width: 0.8; stroke-linecap: square"/>
   </g>
   <g id="line2d_117">
    <path d="M 53.721227 63.432238 
L 72.333391 61.03512 
L 85.538931 53.752747 
L 95.781944 47.117733 
L 104.151095 41.865322 
L 117.356635 41.710079 
L 127.599648 35.566846 
L 146.211812 41.168483 
L 159.417352 48.419998 
L 171.460723 59.725787 
L 178.029516 58.423106 
L 191.235056 66.656542 
L 209.84722 70.054519 
L 223.05276 85.884306 
L 233.295773 102.279337 
" clip-path="url(#p99616d77ac)" style="fill: none; stroke: #b2b2b2; stroke-width: 0.8; stroke-linecap: square"/>
   </g>
   <g id="line2d_118">
    <path d="M 53.721227 48.155561 
L 72.333391 52.000933 
L 85.538931 44.730911 
L 95.781944 51.205476 
L 104.151095 48.885888 
L 117.356635 42.750106 
L 127.599648 35.707975 
L 146.211812 44.666344 
L 159.417352 58.407499 
L 171.460723 69.330061 
L 178.029516 71.279 
L 191.235056 86.006491 
L 209.84722 97.359222 
L 223.05276 113.626769 
L 233.295773 125.207208 
" clip-path="url(#p99616d77ac)" style="fill: none; stroke: #b2b2b2; stroke-width: 0.8; stroke-linecap: square"/>
   </g>
   <g id="line2d_119">
    <path d="M 53.721227 51.534466 
L 72.333391 41.639063 
L 85.538931 38.388425 
L 95.781944 36.445065 
L 104.151095 31.073567 
L 117.356635 36.435424 
L 127.599648 40.836114 
L 146.211812 49.228075 
L 159.417352 58.158063 
L 171.460723 65.700965 
L 178.029516 68.416081 
L 191.235056 87.754856 
L 209.84722 90.82937 
L 223.05276 90.179915 
L 233.295773 109.873225 
" clip-path="url(#p99616d77ac)" style="fill: none; stroke: #b2b2b2; stroke-width: 0.8; stroke-linecap: square"/>
   </g>
   <g id="line2d_120">
    <path d="M 53.721227 43.851315 
L 72.333391 36.730621 
L 85.538931 27.95187 
L 95.781944 35.384741 
L 104.151095 31.578851 
L 117.356635 40.739729 
L 127.599648 42.718502 
L 146.211812 56.972284 
L 159.417352 53.713279 
L 171.460723 72.709617 
L 178.029516 74.743171 
L 191.235056 82.525701 
L 209.84722 96.585621 
L 223.05276 96.102962 
L 233.295773 103.788493 
" clip-path="url(#p99616d77ac)" style="fill: none; stroke: #b2b2b2; stroke-width: 0.8; stroke-linecap: square"/>
   </g>
   <g id="line2d_121">
    <path d="M 53.721227 45.819717 
L 72.333391 36.252338 
L 85.538931 28.28732 
L 95.781944 36.16691 
L 104.151095 32.013865 
L 117.356635 43.793053 
L 127.599648 48.799806 
L 146.211812 46.361419 
L 159.417352 53.257293 
L 171.460723 59.253698 
L 178.029516 68.19132 
L 191.235056 78.119449 
L 209.84722 81.572066 
L 223.05276 85.275386 
L 233.295773 91.944862 
" clip-path="url(#p99616d77ac)" style="fill: none; stroke: #b2b2b2; stroke-width: 0.8; stroke-linecap: square"/>
   </g>
   <g id="line2d_122">
    <path d="M 53.721227 16.993677 
L 72.333391 15.986904 
L 85.538931 34.146031 
L 95.781944 26.979239 
L 104.151095 29.999679 
L 117.356635 37.581621 
L 127.599648 45.768019 
L 146.211812 54.249827 
L 159.417352 56.572711 
L 171.460723 61.723492 
L 178.029516 63.281362 
L 191.235056 63.1496 
L 209.84722 78.246245 
L 223.05276 95.364782 
L 233.295773 95.311329 
" clip-path="url(#p99616d77ac)" style="fill: none; stroke: #b2b2b2; stroke-width: 0.8; stroke-linecap: square"/>
   </g>
   <g id="line2d_123">
    <path d="M 53.721227 33.336333 
L 72.333391 33.89058 
L 85.538931 29.1378 
L 95.781944 34.208334 
L 104.151095 36.365593 
L 117.356635 48.436671 
L 127.599648 53.521274 
L 146.211812 43.595815 
L 159.417352 50.883886 
L 171.460723 69.877553 
L 178.029516 78.591691 
L 191.235056 78.063633 
L 209.84722 94.749991 
L 223.05276 94.056254 
L 233.295773 98.936935 
" clip-path="url(#p99616d77ac)" style="fill: none; stroke: #b2b2b2; stroke-width: 0.8; stroke-linecap: square"/>
   </g>
   <g id="line2d_124">
    <path d="M 53.721227 51.892635 
L 72.333391 54.034696 
L 85.538931 49.487952 
L 95.781944 40.203442 
L 104.151095 40.934754 
L 117.356635 48.544333 
L 127.599648 39.692988 
L 146.211812 43.681159 
L 159.417352 46.344324 
L 171.460723 47.264033 
L 178.029516 50.376011 
L 191.235056 61.422884 
L 209.84722 72.390633 
L 223.05276 83.555898 
L 233.295773 96.149342 
" clip-path="url(#p99616d77ac)" style="fill: none; stroke: #b2b2b2; stroke-width: 0.8; stroke-linecap: square"/>
   </g>
   <g id="line2d_125">
    <path d="M 53.721227 40.159284 
L 72.333391 28.993677 
L 85.538931 31.237924 
L 95.781944 38.732833 
L 104.151095 33.442325 
L 117.356635 35.071053 
L 127.599648 41.309697 
L 146.211812 50.829791 
L 159.417352 62.776276 
L 171.460723 70.09564 
L 178.029516 70.94174 
L 191.235056 73.32282 
L 209.84722 97.795729 
L 223.05276 108.202363 
L 233.295773 117.381718 
" clip-path="url(#p99616d77ac)" style="fill: none; stroke: #b2b2b2; stroke-width: 0.8; stroke-linecap: square"/>
   </g>
   <g id="line2d_126">
    <path d="M 53.721227 46.354499 
L 72.333391 42.641762 
L 85.538931 39.475232 
L 95.781944 36.33463 
L 104.151095 35.504311 
L 117.356635 35.040127 
L 127.599648 42.736442 
L 146.211812 45.976362 
L 159.417352 59.920736 
L 171.460723 61.482016 
L 178.029516 65.351207 
L 191.235056 72.487924 
L 209.84722 87.125737 
L 223.05276 104.444583 
L 233.295773 116.205532 
" clip-path="url(#p99616d77ac)" style="fill: none; stroke: #b2b2b2; stroke-width: 0.8; stroke-linecap: square"/>
   </g>
   <g id="line2d_127">
    <path d="M 53.721227 49.677273 
L 72.333391 35.588884 
L 85.538931 31.92242 
L 95.781944 31.616363 
L 104.151095 27.575532 
L 117.356635 26.246 
L 127.599648 44.379744 
L 146.211812 46.194796 
L 159.417352 66.569764 
L 171.460723 75.218746 
L 178.029516 79.612149 
L 191.235056 95.712402 
L 209.84722 114.562527 
L 223.05276 108.788787 
L 233.295773 120.278697 
" clip-path="url(#p99616d77ac)" style="fill: none; stroke: #b2b2b2; stroke-width: 0.8; stroke-linecap: square"/>
   </g>
   <g id="line2d_128">
    <path d="M 53.721227 50.196364 
L 72.333391 42.359532 
L 85.538931 36.095893 
L 95.781944 39.843085 
L 104.151095 37.642389 
L 117.356635 38.337148 
L 127.599648 41.174593 
L 146.211812 50.434188 
L 159.417352 58.550714 
L 171.460723 65.139882 
L 178.029516 62.737329 
L 191.235056 72.47821 
L 209.84722 85.393957 
L 223.05276 97.951348 
L 233.295773 99.180164 
" clip-path="url(#p99616d77ac)" style="fill: none; stroke: #b2b2b2; stroke-width: 0.8; stroke-linecap: square"/>
   </g>
   <g id="line2d_129">
    <path d="M 53.721227 62.179728 
L 72.333391 59.5325 
L 85.538931 49.12396 
L 95.781944 45.479868 
L 104.151095 39.308463 
L 117.356635 37.257798 
L 127.599648 35.21841 
L 146.211812 42.757505 
L 159.417352 51.6002 
L 171.460723 55.250745 
L 178.029516 54.805548 
L 191.235056 68.565264 
L 209.84722 68.951141 
L 223.05276 84.451408 
L 233.295773 100.842963 
" clip-path="url(#p99616d77ac)" style="fill: none; stroke: #b2b2b2; stroke-width: 0.8; stroke-linecap: square"/>
   </g>
   <g id="line2d_130">
    <path d="M 53.721227 53.804836 
L 72.333391 48.851723 
L 85.538931 46.161236 
L 95.781944 45.467605 
L 104.151095 44.424058 
L 117.356635 36.451965 
L 127.599648 44.418864 
L 146.211812 42.732645 
L 159.417352 46.516195 
L 171.460723 41.279266 
L 178.029516 52.005971 
L 191.235056 60.031523 
L 209.84722 70.061075 
L 223.05276 85.815287 
L 233.295773 99.243202 
" clip-path="url(#p99616d77ac)" style="fill: none; stroke: #b2b2b2; stroke-width: 0.8; stroke-linecap: square"/>
   </g>
   <g id="line2d_131">
    <path d="M 53.721227 36.532139 
L 72.333391 33.053483 
L 85.538931 26.578151 
L 95.781944 20.190864 
L 104.151095 25.687945 
L 117.356635 35.786287 
L 127.599648 47.58174 
L 146.211812 58.477775 
L 159.417352 60.032174 
L 171.460723 65.596668 
L 178.029516 71.503858 
L 191.235056 86.789963 
L 209.84722 105.103219 
L 223.05276 108.847593 
L 233.295773 122.518298 
" clip-path="url(#p99616d77ac)" style="fill: none; stroke: #b2b2b2; stroke-width: 0.8; stroke-linecap: square"/>
   </g>
   <g id="line2d_132">
    <path d="M 53.721227 57.494755 
L 72.333391 53.955288 
L 85.538931 49.861361 
L 95.781944 51.406716 
L 104.151095 51.487325 
L 117.356635 47.519434 
L 127.599648 42.910538 
L 146.211812 39.44656 
L 159.417352 45.45774 
L 171.460723 60.665912 
L 178.029516 60.424854 
L 191.235056 67.324517 
L 209.84722 93.838199 
L 223.05276 108.587635 
L 233.295773 122.494424 
" clip-path="url(#p99616d77ac)" style="fill: none; stroke: #b2b2b2; stroke-width: 0.8; stroke-linecap: square"/>
   </g>
   <g id="line2d_133">
    <path d="M 53.721227 50.285649 
L 72.333391 51.446073 
L 85.538931 41.977281 
L 95.781944 53.445081 
L 104.151095 52.930564 
L 117.356635 43.33432 
L 127.599648 43.630056 
L 146.211812 42.512299 
L 159.417352 40.039717 
L 171.460723 54.708038 
L 178.029516 65.032231 
L 191.235056 83.523604 
L 209.84722 110.294474 
L 223.05276 122.510869 
L 233.295773 134.238273 
" clip-path="url(#p99616d77ac)" style="fill: none; stroke: #b2b2b2; stroke-width: 0.8; stroke-linecap: square"/>
   </g>
   <g id="line2d_134">
    <path d="M 53.721227 49.940111 
L 72.333391 44.981504 
L 85.538931 44.23877 
L 95.781944 34.99972 
L 104.151095 28.413929 
L 117.356635 35.478529 
L 127.599648 40.821496 
L 146.211812 49.326431 
L 159.417352 55.688341 
L 171.460723 63.564885 
L 178.029516 70.886248 
L 191.235056 78.812805 
L 209.84722 101.59871 
L 223.05276 98.037463 
L 233.295773 98.645704 
" clip-path="url(#p99616d77ac)" style="fill: none; stroke: #b2b2b2; stroke-width: 0.8; stroke-linecap: square"/>
   </g>
   <g id="line2d_135">
    <path d="M 53.721227 47.405632 
L 72.333391 42.512229 
L 85.538931 40.111531 
L 95.781944 39.315158 
L 104.151095 38.534206 
L 117.356635 39.631849 
L 127.599648 40.894841 
L 146.211812 46.799103 
L 159.417352 52.934246 
L 171.460723 59.582877 
L 178.029516 63.661288 
L 191.235056 73.234401 
L 209.84722 85.95582 
L 223.05276 96.247565 
L 233.295773 105.268665 
" clip-path="url(#p99616d77ac)" style="fill: none; stroke: #ff0000; stroke-width: 2; stroke-linecap: square"/>
   </g>
   <g id="line2d_136">
    <path d="M 53.721227 26.445905 
L 72.333391 21.281376 
L 85.538931 20.990704 
L 95.781944 22.264322 
L 104.151095 23.914584 
L 117.356635 27.587009 
L 127.599648 30.24166 
L 146.211812 35.416248 
L 159.417352 37.855457 
L 171.460723 41.071732 
L 178.029516 43.964272 
L 191.235056 52.128931 
L 209.84722 63.255042 
L 223.05276 73.286935 
L 233.295773 81.361475 
" clip-path="url(#p99616d77ac)" style="fill: none; stroke-dasharray: 7.4,3.2; stroke-dashoffset: 0; stroke: #ff0000; stroke-width: 2"/>
   </g>
   <g id="line2d_137">
    <path d="M 53.721227 68.36536 
L 72.333391 63.743081 
L 85.538931 59.232358 
L 95.781944 56.365994 
L 104.151095 53.153828 
L 117.356635 51.67669 
L 127.599648 51.548022 
L 146.211812 58.181958 
L 159.417352 68.013035 
L 171.460723 78.094022 
L 178.029516 83.358304 
L 191.235056 94.33987 
L 209.84722 108.656597 
L 223.05276 119.208195 
L 233.295773 129.175855 
" clip-path="url(#p99616d77ac)" style="fill: none; stroke-dasharray: 7.4,3.2; stroke-dashoffset: 0; stroke: #ff0000; stroke-width: 2"/>
   </g>
   <g id="line2d_138">
    <path d="M 53.721227 47.36968 
L 72.333391 42.629233 
L 85.538931 40.19026 
L 95.781944 39.344938 
L 104.151095 38.540458 
L 117.356635 39.672402 
L 127.599648 41.123526 
L 146.211812 47.076128 
L 159.417352 53.032505 
L 171.460723 59.463044 
L 178.029516 63.47756 
L 191.235056 73.288108 
L 209.84722 86.001313 
L 223.05276 96.101607 
L 233.295773 105.469379 
" clip-path="url(#p99616d77ac)" style="fill: none; stroke: #0000ff; stroke-width: 2; stroke-linecap: square"/>
   </g>
   <g id="line2d_139">
    <path d="M 53.721227 26.486776 
L 72.333391 21.390732 
L 85.538931 21.07314 
L 95.781944 22.293977 
L 104.151095 23.836424 
L 117.356635 27.653279 
L 127.599648 30.25551 
L 146.211812 35.663457 
L 159.417352 37.865346 
L 171.460723 40.824658 
L 178.029516 43.690671 
L 191.235056 51.947517 
L 209.84722 63.134741 
L 223.05276 73.193494 
L 233.295773 81.374645 
" clip-path="url(#p99616d77ac)" style="fill: none; stroke-dasharray: 7.4,3.2; stroke-dashoffset: 0; stroke: #0000ff; stroke-width: 2"/>
   </g>
   <g id="line2d_140">
    <path d="M 53.721227 68.252584 
L 72.333391 63.867733 
L 85.538931 59.307379 
L 95.781944 56.3959 
L 104.151095 53.244493 
L 117.356635 51.691524 
L 127.599648 51.991542 
L 146.211812 58.488799 
L 159.417352 68.199664 
L 171.460723 78.10143 
L 178.029516 83.26445 
L 191.235056 94.6287 
L 209.84722 108.867886 
L 223.05276 119.009719 
L 233.295773 129.564112 
" clip-path="url(#p99616d77ac)" style="fill: none; stroke-dasharray: 7.4,3.2; stroke-dashoffset: 0; stroke: #0000ff; stroke-width: 2"/>
   </g>
   <g id="patch_3">
    <path d="M 44.7425 140.185473 
L 44.7425 9.347073 
" style="fill: none; stroke: #000000; stroke-width: 0.8; stroke-linejoin: miter; stroke-linecap: square"/>
   </g>
   <g id="patch_4">
    <path d="M 242.2745 140.185473 
L 242.2745 9.347073 
" style="fill: none; stroke: #000000; stroke-width: 0.8; stroke-linejoin: miter; stroke-linecap: square"/>
   </g>
   <g id="patch_5">
    <path d="M 44.7425 140.185473 
L 242.2745 140.185473 
" style="fill: none; stroke: #000000; stroke-width: 0.8; stroke-linejoin: miter; stroke-linecap: square"/>
   </g>
   <g id="patch_6">
    <path d="M 44.7425 9.347073 
L 242.2745 9.347073 
" style="fill: none; stroke: #000000; stroke-width: 0.8; stroke-linejoin: miter; stroke-linecap: square"/>
   </g>
   <g id="legend_1">
    <g id="patch_7">
     <path d="M 247.8745 106.620023 
L 432.5945 106.620023 
Q 434.1945 106.620023 434.1945 105.020023 
L 434.1945 44.512523 
Q 434.1945 42.912523 432.5945 42.912523 
L 247.8745 42.912523 
Q 246.2745 42.912523 246.2745 44.512523 
L 246.2745 105.020023 
Q 246.2745 106.620023 247.8745 106.620023 
z
" style="fill: #ffffff; opacity: 0.8; stroke: #cccccc; stroke-linejoin: miter"/>
    </g>
    <g id="line2d_141">
     <path d="M 249.4745 49.391273 
L 257.4745 49.391273 
L 265.4745 49.391273 
" style="fill: none; stroke: #b2b2b2; stroke-width: 0.8; stroke-linecap: square"/>
    </g>
    <g id="text_8">
     <!-- Individual selected GMs -->
     <g transform="translate(271.8745 52.191273) scale(0.08 -0.08)">
      <defs>
       <path id="DejaVuSans-49" d="M 628 4666 
L 1259 4666 
L 1259 0 
L 628 0 
L 628 4666 
z
" transform="scale(0.015625)"/>
       <path id="DejaVuSans-76" d="M 191 3500 
L 800 3500 
L 1894 563 
L 2988 3500 
L 3597 3500 
L 2284 0 
L 1503 0 
L 191 3500 
z
" transform="scale(0.015625)"/>
       <path id="DejaVuSans-75" d="M 544 1381 
L 544 3500 
L 1119 3500 
L 1119 1403 
Q 1119 906 1312 657 
Q 1506 409 1894 409 
Q 2359 409 2629 706 
Q 2900 1003 2900 1516 
L 2900 3500 
L 3475 3500 
L 3475 0 
L 2900 0 
L 2900 538 
Q 2691 219 2414 64 
Q 2138 -91 1772 -91 
Q 1169 -91 856 284 
Q 544 659 544 1381 
z
M 1991 3584 
L 1991 3584 
z
" transform="scale(0.015625)"/>
       <path id="DejaVuSans-47" d="M 3809 666 
L 3809 1919 
L 2778 1919 
L 2778 2438 
L 4434 2438 
L 4434 434 
Q 4069 175 3628 42 
Q 3188 -91 2688 -91 
Q 1594 -91 976 548 
Q 359 1188 359 2328 
Q 359 3472 976 4111 
Q 1594 4750 2688 4750 
Q 3144 4750 3555 4637 
Q 3966 4525 4313 4306 
L 4313 3634 
Q 3963 3931 3569 4081 
Q 3175 4231 2741 4231 
Q 1884 4231 1454 3753 
Q 1025 3275 1025 2328 
Q 1025 1384 1454 906 
Q 1884 428 2741 428 
Q 3075 428 3337 486 
Q 3600 544 3809 666 
z
" transform="scale(0.015625)"/>
       <path id="DejaVuSans-4d" d="M 628 4666 
L 1569 4666 
L 2759 1491 
L 3956 4666 
L 4897 4666 
L 4897 0 
L 4281 0 
L 4281 4097 
L 3078 897 
L 2444 897 
L 1241 4097 
L 1241 0 
L 628 0 
L 628 4666 
z
" transform="scale(0.015625)"/>
      </defs>
      <use xlink:href="#DejaVuSans-49"/>
      <use xlink:href="#DejaVuSans-6e" x="29.492188"/>
      <use xlink:href="#DejaVuSans-64" x="92.871094"/>
      <use xlink:href="#DejaVuSans-69" x="156.347656"/>
      <use xlink:href="#DejaVuSans-76" x="184.130859"/>
      <use xlink:href="#DejaVuSans-69" x="243.310547"/>
      <use xlink:href="#DejaVuSans-64" x="271.09375"/>
      <use xlink:href="#DejaVuSans-75" x="334.570312"/>
      <use xlink:href="#DejaVuSans-61" x="397.949219"/>
      <use xlink:href="#DejaVuSans-6c" x="459.228516"/>
      <use xlink:href="#DejaVuSans-20" x="487.011719"/>
      <use xlink:href="#DejaVuSans-73" x="518.798828"/>
      <use xlink:href="#DejaVuSans-65" x="570.898438"/>
      <use xlink:href="#DejaVuSans-6c" x="632.421875"/>
      <use xlink:href="#DejaVuSans-65" x="660.205078"/>
      <use xlink:href="#DejaVuSans-63" x="721.728516"/>
      <use xlink:href="#DejaVuSans-74" x="776.708984"/>
      <use xlink:href="#DejaVuSans-65" x="815.917969"/>
      <use xlink:href="#DejaVuSans-64" x="877.441406"/>
      <use xlink:href="#DejaVuSans-20" x="940.917969"/>
      <use xlink:href="#DejaVuSans-47" x="972.705078"/>
      <use xlink:href="#DejaVuSans-4d" x="1050.195312"/>
      <use xlink:href="#DejaVuSans-73" x="1136.474609"/>
     </g>
    </g>
    <g id="line2d_142">
     <path d="M 249.4745 61.133773 
L 257.4745 61.133773 
L 265.4745 61.133773 
" style="fill: none; stroke: #ff0000; stroke-width: 2; stroke-linecap: square"/>
    </g>
    <g id="text_9">
     <!-- GCIM median -->
     <g transform="translate(271.8745 63.933773) scale(0.08 -0.08)">
      <defs>
       <path id="DejaVuSans-43" d="M 4122 4306 
L 4122 3641 
Q 3803 3938 3442 4084 
Q 3081 4231 2675 4231 
Q 1875 4231 1450 3742 
Q 1025 3253 1025 2328 
Q 1025 1406 1450 917 
Q 1875 428 2675 428 
Q 3081 428 3442 575 
Q 3803 722 4122 1019 
L 4122 359 
Q 3791 134 3420 21 
Q 3050 -91 2638 -91 
Q 1578 -91 968 557 
Q 359 1206 359 2328 
Q 359 3453 968 4101 
Q 1578 4750 2638 4750 
Q 3056 4750 3426 4639 
Q 3797 4528 4122 4306 
z
" transform="scale(0.015625)"/>
       <path id="DejaVuSans-6d" d="M 3328 2828 
Q 3544 3216 3844 3400 
Q 4144 3584 4550 3584 
Q 5097 3584 5394 3201 
Q 5691 2819 5691 2113 
L 5691 0 
L 5113 0 
L 5113 2094 
Q 5113 2597 4934 2840 
Q 4756 3084 4391 3084 
Q 3944 3084 3684 2787 
Q 3425 2491 3425 1978 
L 3425 0 
L 2847 0 
L 2847 2094 
Q 2847 2600 2669 2842 
Q 2491 3084 2119 3084 
Q 1678 3084 1418 2786 
Q 1159 2488 1159 1978 
L 1159 0 
L 581 0 
L 581 3500 
L 1159 3500 
L 1159 2956 
Q 1356 3278 1631 3431 
Q 1906 3584 2284 3584 
Q 2666 3584 2933 3390 
Q 3200 3197 3328 2828 
z
" transform="scale(0.015625)"/>
      </defs>
      <use xlink:href="#DejaVuSans-47"/>
      <use xlink:href="#DejaVuSans-43" x="77.490234"/>
      <use xlink:href="#DejaVuSans-49" x="147.314453"/>
      <use xlink:href="#DejaVuSans-4d" x="176.806641"/>
      <use xlink:href="#DejaVuSans-20" x="263.085938"/>
      <use xlink:href="#DejaVuSans-6d" x="294.873047"/>
      <use xlink:href="#DejaVuSans-65" x="392.285156"/>
      <use xlink:href="#DejaVuSans-64" x="453.808594"/>
      <use xlink:href="#DejaVuSans-69" x="517.285156"/>
      <use xlink:href="#DejaVuSans-61" x="545.068359"/>
      <use xlink:href="#DejaVuSans-6e" x="606.347656"/>
     </g>
    </g>
    <g id="line2d_143">
     <path d="M 249.4745 74.157523 
L 257.4745 74.157523 
L 265.4745 74.157523 
" style="fill: none; stroke-dasharray: 7.4,3.2; stroke-dashoffset: 0; stroke: #ff0000; stroke-width: 2"/>
    </g>
    <g id="text_10">
     <!-- GCIM $16^{th}$ and $84^{th}$ percentiles -->
     <g transform="translate(271.8745 76.957523) scale(0.08 -0.08)">
      <defs>
       <path id="DejaVuSans-36" d="M 2113 2584 
Q 1688 2584 1439 2293 
Q 1191 2003 1191 1497 
Q 1191 994 1439 701 
Q 1688 409 2113 409 
Q 2538 409 2786 701 
Q 3034 994 3034 1497 
Q 3034 2003 2786 2293 
Q 2538 2584 2113 2584 
z
M 3366 4563 
L 3366 3988 
Q 3128 4100 2886 4159 
Q 2644 4219 2406 4219 
Q 1781 4219 1451 3797 
Q 1122 3375 1075 2522 
Q 1259 2794 1537 2939 
Q 1816 3084 2150 3084 
Q 2853 3084 3261 2657 
Q 3669 2231 3669 1497 
Q 3669 778 3244 343 
Q 2819 -91 2113 -91 
Q 1303 -91 875 529 
Q 447 1150 447 2328 
Q 447 3434 972 4092 
Q 1497 4750 2381 4750 
Q 2619 4750 2861 4703 
Q 3103 4656 3366 4563 
z
" transform="scale(0.015625)"/>
       <path id="DejaVuSans-Oblique-74" d="M 2706 3500 
L 2619 3053 
L 1472 3053 
L 1100 1153 
Q 1081 1047 1072 975 
Q 1063 903 1063 863 
Q 1063 663 1183 572 
Q 1303 481 1569 481 
L 2150 481 
L 2053 0 
L 1503 0 
Q 991 0 739 200 
Q 488 400 488 806 
Q 488 878 497 964 
Q 506 1050 525 1153 
L 897 3053 
L 409 3053 
L 500 3500 
L 978 3500 
L 1172 4494 
L 1747 4494 
L 1556 3500 
L 2706 3500 
z
" transform="scale(0.015625)"/>
       <path id="DejaVuSans-Oblique-68" d="M 3566 2113 
L 3156 0 
L 2578 0 
L 2988 2091 
Q 3016 2238 3031 2350 
Q 3047 2463 3047 2528 
Q 3047 2791 2881 2937 
Q 2716 3084 2419 3084 
Q 1956 3084 1617 2771 
Q 1278 2459 1178 1941 
L 800 0 
L 225 0 
L 1172 4863 
L 1747 4863 
L 1375 2950 
Q 1594 3244 1934 3414 
Q 2275 3584 2650 3584 
Q 3113 3584 3367 3334 
Q 3622 3084 3622 2631 
Q 3622 2519 3608 2391 
Q 3594 2263 3566 2113 
z
" transform="scale(0.015625)"/>
       <path id="DejaVuSans-38" d="M 2034 2216 
Q 1584 2216 1326 1975 
Q 1069 1734 1069 1313 
Q 1069 891 1326 650 
Q 1584 409 2034 409 
Q 2484 409 2743 651 
Q 3003 894 3003 1313 
Q 3003 1734 2745 1975 
Q 2488 2216 2034 2216 
z
M 1403 2484 
Q 997 2584 770 2862 
Q 544 3141 544 3541 
Q 544 4100 942 4425 
Q 1341 4750 2034 4750 
Q 2731 4750 3128 4425 
Q 3525 4100 3525 3541 
Q 3525 3141 3298 2862 
Q 3072 2584 2669 2484 
Q 3125 2378 3379 2068 
Q 3634 1759 3634 1313 
Q 3634 634 3220 271 
Q 2806 -91 2034 -91 
Q 1263 -91 848 271 
Q 434 634 434 1313 
Q 434 1759 690 2068 
Q 947 2378 1403 2484 
z
M 1172 3481 
Q 1172 3119 1398 2916 
Q 1625 2713 2034 2713 
Q 2441 2713 2670 2916 
Q 2900 3119 2900 3481 
Q 2900 3844 2670 4047 
Q 2441 4250 2034 4250 
Q 1625 4250 1398 4047 
Q 1172 3844 1172 3481 
z
" transform="scale(0.015625)"/>
       <path id="DejaVuSans-34" d="M 2419 4116 
L 825 1625 
L 2419 1625 
L 2419 4116 
z
M 2253 4666 
L 3047 4666 
L 3047 1625 
L 3713 1625 
L 3713 1100 
L 3047 1100 
L 3047 0 
L 2419 0 
L 2419 1100 
L 313 1100 
L 313 1709 
L 2253 4666 
z
" transform="scale(0.015625)"/>
      </defs>
      <use xlink:href="#DejaVuSans-47" transform="translate(0 0.529687)"/>
      <use xlink:href="#DejaVuSans-43" transform="translate(77.490234 0.529687)"/>
      <use xlink:href="#DejaVuSans-49" transform="translate(147.314453 0.529687)"/>
      <use xlink:href="#DejaVuSans-4d" transform="translate(176.806641 0.529687)"/>
      <use xlink:href="#DejaVuSans-20" transform="translate(263.085938 0.529687)"/>
      <use xlink:href="#DejaVuSans-31" transform="translate(294.873047 0.529687)"/>
      <use xlink:href="#DejaVuSans-36" transform="translate(358.496094 0.529687)"/>
      <use xlink:href="#DejaVuSans-Oblique-74" transform="translate(423.076172 38.810937) scale(0.7)"/>
      <use xlink:href="#DejaVuSans-Oblique-68" transform="translate(450.522461 38.810937) scale(0.7)"/>
      <use xlink:href="#DejaVuSans-20" transform="translate(497.62207 0.529687)"/>
      <use xlink:href="#DejaVuSans-61" transform="translate(529.40918 0.529687)"/>
      <use xlink:href="#DejaVuSans-6e" transform="translate(590.688477 0.529687)"/>
      <use xlink:href="#DejaVuSans-64" transform="translate(654.067383 0.529687)"/>
      <use xlink:href="#DejaVuSans-20" transform="translate(717.543945 0.529687)"/>
      <use xlink:href="#DejaVuSans-38" transform="translate(749.331055 0.529687)"/>
      <use xlink:href="#DejaVuSans-34" transform="translate(812.954102 0.529687)"/>
      <use xlink:href="#DejaVuSans-Oblique-74" transform="translate(877.53418 38.810937) scale(0.7)"/>
      <use xlink:href="#DejaVuSans-Oblique-68" transform="translate(904.980469 38.810937) scale(0.7)"/>
      <use xlink:href="#DejaVuSans-20" transform="translate(952.080078 0.529687)"/>
      <use xlink:href="#DejaVuSans-70" transform="translate(983.867188 0.529687)"/>
      <use xlink:href="#DejaVuSans-65" transform="translate(1047.34375 0.529687)"/>
      <use xlink:href="#DejaVuSans-72" transform="translate(1108.867188 0.529687)"/>
      <use xlink:href="#DejaVuSans-63" transform="translate(1149.980469 0.529687)"/>
      <use xlink:href="#DejaVuSans-65" transform="translate(1204.960938 0.529687)"/>
      <use xlink:href="#DejaVuSans-6e" transform="translate(1266.484375 0.529687)"/>
      <use xlink:href="#DejaVuSans-74" transform="translate(1329.863281 0.529687)"/>
      <use xlink:href="#DejaVuSans-69" transform="translate(1369.072266 0.529687)"/>
      <use xlink:href="#DejaVuSans-6c" transform="translate(1396.855469 0.529687)"/>
      <use xlink:href="#DejaVuSans-65" transform="translate(1424.638672 0.529687)"/>
      <use xlink:href="#DejaVuSans-73" transform="translate(1486.162109 0.529687)"/>
     </g>
    </g>
    <g id="line2d_144">
     <path d="M 249.4745 85.916273 
L 257.4745 85.916273 
L 265.4745 85.916273 
" style="fill: none; stroke: #0000ff; stroke-width: 2; stroke-linecap: square"/>
    </g>
    <g id="text_11">
     <!-- Selected GMs median -->
     <g transform="translate(271.8745 88.716273) scale(0.08 -0.08)">
      <use xlink:href="#DejaVuSans-53"/>
      <use xlink:href="#DejaVuSans-65" x="63.476562"/>
      <use xlink:href="#DejaVuSans-6c" x="125"/>
      <use xlink:href="#DejaVuSans-65" x="152.783203"/>
      <use xlink:href="#DejaVuSans-63" x="214.306641"/>
      <use xlink:href="#DejaVuSans-74" x="269.287109"/>
      <use xlink:href="#DejaVuSans-65" x="308.496094"/>
      <use xlink:href="#DejaVuSans-64" x="370.019531"/>
      <use xlink:href="#DejaVuSans-20" x="433.496094"/>
      <use xlink:href="#DejaVuSans-47" x="465.283203"/>
      <use xlink:href="#DejaVuSans-4d" x="542.773438"/>
      <use xlink:href="#DejaVuSans-73" x="629.052734"/>
      <use xlink:href="#DejaVuSans-20" x="681.152344"/>
      <use xlink:href="#DejaVuSans-6d" x="712.939453"/>
      <use xlink:href="#DejaVuSans-65" x="810.351562"/>
      <use xlink:href="#DejaVuSans-64" x="871.875"/>
      <use xlink:href="#DejaVuSans-69" x="935.351562"/>
      <use xlink:href="#DejaVuSans-61" x="963.134766"/>
      <use xlink:href="#DejaVuSans-6e" x="1024.414062"/>
     </g>
    </g>
    <g id="line2d_145">
     <path d="M 249.4745 98.940023 
L 257.4745 98.940023 
L 265.4745 98.940023 
" style="fill: none; stroke-dasharray: 7.4,3.2; stroke-dashoffset: 0; stroke: #0000ff; stroke-width: 2"/>
    </g>
    <g id="text_12">
     <!-- Selected GMs, $16^{th}$ and $84^{th}$ percentiles -->
     <g transform="translate(271.8745 101.740023) scale(0.08 -0.08)">
      <use xlink:href="#DejaVuSans-53" transform="translate(0 0.529687)"/>
      <use xlink:href="#DejaVuSans-65" transform="translate(63.476562 0.529687)"/>
      <use xlink:href="#DejaVuSans-6c" transform="translate(125 0.529687)"/>
      <use xlink:href="#DejaVuSans-65" transform="translate(152.783203 0.529687)"/>
      <use xlink:href="#DejaVuSans-63" transform="translate(214.306641 0.529687)"/>
      <use xlink:href="#DejaVuSans-74" transform="translate(269.287109 0.529687)"/>
      <use xlink:href="#DejaVuSans-65" transform="translate(308.496094 0.529687)"/>
      <use xlink:href="#DejaVuSans-64" transform="translate(370.019531 0.529687)"/>
      <use xlink:href="#DejaVuSans-20" transform="translate(433.496094 0.529687)"/>
      <use xlink:href="#DejaVuSans-47" transform="translate(465.283203 0.529687)"/>
      <use xlink:href="#DejaVuSans-4d" transform="translate(542.773438 0.529687)"/>
      <use xlink:href="#DejaVuSans-73" transform="translate(629.052734 0.529687)"/>
      <use xlink:href="#DejaVuSans-2c" transform="translate(681.152344 0.529687)"/>
      <use xlink:href="#DejaVuSans-20" transform="translate(712.939453 0.529687)"/>
      <use xlink:href="#DejaVuSans-31" transform="translate(744.726562 0.529687)"/>
      <use xlink:href="#DejaVuSans-36" transform="translate(808.349609 0.529687)"/>
      <use xlink:href="#DejaVuSans-Oblique-74" transform="translate(872.929688 38.810937) scale(0.7)"/>
      <use xlink:href="#DejaVuSans-Oblique-68" transform="translate(900.375977 38.810937) scale(0.7)"/>
      <use xlink:href="#DejaVuSans-20" transform="translate(947.475586 0.529687)"/>
      <use xlink:href="#DejaVuSans-61" transform="translate(979.262695 0.529687)"/>
      <use xlink:href="#DejaVuSans-6e" transform="translate(1040.541992 0.529687)"/>
      <use xlink:href="#DejaVuSans-64" transform="translate(1103.920898 0.529687)"/>
      <use xlink:href="#DejaVuSans-20" transform="translate(1167.397461 0.529687)"/>
      <use xlink:href="#DejaVuSans-38" transform="translate(1199.18457 0.529687)"/>
      <use xlink:href="#DejaVuSans-34" transform="translate(1262.807617 0.529687)"/>
      <use xlink:href="#DejaVuSans-Oblique-74" transform="translate(1327.387695 38.810937) scale(0.7)"/>
      <use xlink:href="#DejaVuSans-Oblique-68" transform="translate(1354.833984 38.810937) scale(0.7)"/>
      <use xlink:href="#DejaVuSans-20" transform="translate(1401.933594 0.529687)"/>
      <use xlink:href="#DejaVuSans-70" transform="translate(1433.720703 0.529687)"/>
      <use xlink:href="#DejaVuSans-65" transform="translate(1497.197266 0.529687)"/>
      <use xlink:href="#DejaVuSans-72" transform="translate(1558.720703 0.529687)"/>
      <use xlink:href="#DejaVuSans-63" transform="translate(1599.833984 0.529687)"/>
      <use xlink:href="#DejaVuSans-65" transform="translate(1654.814453 0.529687)"/>
      <use xlink:href="#DejaVuSans-6e" transform="translate(1716.337891 0.529687)"/>
      <use xlink:href="#DejaVuSans-74" transform="translate(1779.716797 0.529687)"/>
      <use xlink:href="#DejaVuSans-69" transform="translate(1818.925781 0.529687)"/>
      <use xlink:href="#DejaVuSans-6c" transform="translate(1846.708984 0.529687)"/>
      <use xlink:href="#DejaVuSans-65" transform="translate(1874.492188 0.529687)"/>
      <use xlink:href="#DejaVuSans-73" transform="translate(1936.015625 0.529687)"/>
     </g>
    </g>
   </g>
  </g>
 </g>
 <defs>
  <clipPath id="p99616d77ac">
   <rect x="44.7425" y="9.347073" width="197.532" height="130.8384"/>
  </clipPath>
 </defs>
</svg>
