<?xml version="1.0" encoding="utf-8" standalone="no"?>
<!DOCTYPE svg PUBLIC "-//W3C//DTD SVG 1.1//EN"
  "http://www.w3.org/Graphics/SVG/1.1/DTD/svg11.dtd">
<svg xmlns:xlink="http://www.w3.org/1999/xlink" width="447.024pt" height="174.242874pt" viewBox="0 0 447.024 174.242874" xmlns="http://www.w3.org/2000/svg" version="1.1">
 <metadata>
  <rdf:RDF xmlns:dc="http://purl.org/dc/elements/1.1/" xmlns:cc="http://creativecommons.org/ns#" xmlns:rdf="http://www.w3.org/1999/02/22-rdf-syntax-ns#">
   <cc:Work>
    <dc:type rdf:resource="http://purl.org/dc/dcmitype/StillImage"/>
    <dc:date>2024-12-21T22:18:41.878029</dc:date>
    <dc:format>image/svg+xml</dc:format>
    <dc:creator>
     <cc:Agent>
      <dc:title>Matplotlib v3.8.2, https://matplotlib.org/</dc:title>
     </cc:Agent>
    </dc:creator>
   </cc:Work>
  </rdf:RDF>
 </metadata>
 <defs>
  <style type="text/css">*{stroke-linejoin: round; stroke-linecap: butt}</style>
 </defs>
 <g id="figure_1">
  <g id="patch_1">
   <path d="M 0 174.242874 
L 447.024 174.242874 
L 447.024 0 
L 0 0 
z
" style="fill: #ffffff"/>
  </g>
  <g id="axes_1">
   <g id="patch_2">
    <path d="M 44.76 140.557874 
L 222.716757 140.557874 
L 222.716757 9.719474 
L 44.76 9.719474 
z
" style="fill: #ffffff"/>
   </g>
   <g id="matplotlib.axis_1">
    <g id="xtick_1">
     <g id="line2d_1">
      <path d="M 52.848943 140.557874 
L 52.848943 9.719474 
" clip-path="url(#p5691eba749)" style="fill: none; stroke: #d9d9d9; stroke-width: 0.8; stroke-linecap: square"/>
     </g>
     <g id="line2d_2">
      <defs>
       <path id="m395ccc85d8" d="M 0 0 
L 0 3.5 
" style="stroke: #000000; stroke-width: 0.8"/>
      </defs>
      <g>
       <use xlink:href="#m395ccc85d8" x="52.848943" y="140.557874" style="stroke: #000000; stroke-width: 0.8"/>
      </g>
     </g>
     <g id="text_1">
      <!-- $\mathdefault{10^{-1}}$ -->
      <g transform="translate(43.448943 153.636624) scale(0.08 -0.08)">
       <defs>
        <path id="DejaVuSans-31" d="M 794 531 
L 1825 531 
L 1825 4091 
L 703 3866 
L 703 4441 
L 1819 4666 
L 2450 4666 
L 2450 531 
L 3481 531 
L 3481 0 
L 794 0 
L 794 531 
z
" transform="scale(0.015625)"/>
        <path id="DejaVuSans-30" d="M 2034 4250 
Q 1547 4250 1301 3770 
Q 1056 3291 1056 2328 
Q 1056 1369 1301 889 
Q 1547 409 2034 409 
Q 2525 409 2770 889 
Q 3016 1369 3016 2328 
Q 3016 3291 2770 3770 
Q 2525 4250 2034 4250 
z
M 2034 4750 
Q 2819 4750 3233 4129 
Q 3647 3509 3647 2328 
Q 3647 1150 3233 529 
Q 2819 -91 2034 -91 
Q 1250 -91 836 529 
Q 422 1150 422 2328 
Q 422 3509 836 4129 
Q 1250 4750 2034 4750 
z
" transform="scale(0.015625)"/>
        <path id="DejaVuSans-2212" d="M 678 2272 
L 4684 2272 
L 4684 1741 
L 678 1741 
L 678 2272 
z
" transform="scale(0.015625)"/>
       </defs>
       <use xlink:href="#DejaVuSans-31" transform="translate(0 0.684375)"/>
       <use xlink:href="#DejaVuSans-30" transform="translate(63.623047 0.684375)"/>
       <use xlink:href="#DejaVuSans-2212" transform="translate(128.203125 38.965625) scale(0.7)"/>
       <use xlink:href="#DejaVuSans-31" transform="translate(186.855469 38.965625) scale(0.7)"/>
      </g>
     </g>
    </g>
    <g id="xtick_2">
     <g id="line2d_3">
      <path d="M 148.070677 140.557874 
L 148.070677 9.719474 
" clip-path="url(#p5691eba749)" style="fill: none; stroke: #d9d9d9; stroke-width: 0.8; stroke-linecap: square"/>
     </g>
     <g id="line2d_4">
      <g>
       <use xlink:href="#m395ccc85d8" x="148.070677" y="140.557874" style="stroke: #000000; stroke-width: 0.8"/>
      </g>
     </g>
     <g id="text_2">
      <!-- $\mathdefault{10^{0}}$ -->
      <g transform="translate(141.030677 153.636624) scale(0.08 -0.08)">
       <use xlink:href="#DejaVuSans-31" transform="translate(0 0.765625)"/>
       <use xlink:href="#DejaVuSans-30" transform="translate(63.623047 0.765625)"/>
       <use xlink:href="#DejaVuSans-30" transform="translate(128.203125 39.046875) scale(0.7)"/>
      </g>
     </g>
    </g>
    <g id="xtick_3">
     <g id="line2d_5">
      <path d="M 48.491836 140.557874 
L 48.491836 9.719474 
" clip-path="url(#p5691eba749)" style="fill: none; stroke-dasharray: 2.96,1.28; stroke-dashoffset: 0; stroke: #f2f2f2; stroke-width: 0.8"/>
     </g>
     <g id="line2d_6">
      <defs>
       <path id="m960d258281" d="M 0 0 
L 0 2 
" style="stroke: #000000; stroke-width: 0.6"/>
      </defs>
      <g>
       <use xlink:href="#m960d258281" x="48.491836" y="140.557874" style="stroke: #000000; stroke-width: 0.6"/>
      </g>
     </g>
    </g>
    <g id="xtick_4">
     <g id="line2d_7">
      <path d="M 81.513542 140.557874 
L 81.513542 9.719474 
" clip-path="url(#p5691eba749)" style="fill: none; stroke-dasharray: 2.96,1.28; stroke-dashoffset: 0; stroke: #f2f2f2; stroke-width: 0.8"/>
     </g>
     <g id="line2d_8">
      <g>
       <use xlink:href="#m960d258281" x="81.513542" y="140.557874" style="stroke: #000000; stroke-width: 0.6"/>
      </g>
     </g>
    </g>
    <g id="xtick_5">
     <g id="line2d_9">
      <path d="M 98.281257 140.557874 
L 98.281257 9.719474 
" clip-path="url(#p5691eba749)" style="fill: none; stroke-dasharray: 2.96,1.28; stroke-dashoffset: 0; stroke: #f2f2f2; stroke-width: 0.8"/>
     </g>
     <g id="line2d_10">
      <g>
       <use xlink:href="#m960d258281" x="98.281257" y="140.557874" style="stroke: #000000; stroke-width: 0.6"/>
      </g>
     </g>
    </g>
    <g id="xtick_6">
     <g id="line2d_11">
      <path d="M 110.17814 140.557874 
L 110.17814 9.719474 
" clip-path="url(#p5691eba749)" style="fill: none; stroke-dasharray: 2.96,1.28; stroke-dashoffset: 0; stroke: #f2f2f2; stroke-width: 0.8"/>
     </g>
     <g id="line2d_12">
      <g>
       <use xlink:href="#m960d258281" x="110.17814" y="140.557874" style="stroke: #000000; stroke-width: 0.6"/>
      </g>
     </g>
    </g>
    <g id="xtick_7">
     <g id="line2d_13">
      <path d="M 119.406079 140.557874 
L 119.406079 9.719474 
" clip-path="url(#p5691eba749)" style="fill: none; stroke-dasharray: 2.96,1.28; stroke-dashoffset: 0; stroke: #f2f2f2; stroke-width: 0.8"/>
     </g>
     <g id="line2d_14">
      <g>
       <use xlink:href="#m960d258281" x="119.406079" y="140.557874" style="stroke: #000000; stroke-width: 0.6"/>
      </g>
     </g>
    </g>
    <g id="xtick_8">
     <g id="line2d_15">
      <path d="M 126.945855 140.557874 
L 126.945855 9.719474 
" clip-path="url(#p5691eba749)" style="fill: none; stroke-dasharray: 2.96,1.28; stroke-dashoffset: 0; stroke: #f2f2f2; stroke-width: 0.8"/>
     </g>
     <g id="line2d_16">
      <g>
       <use xlink:href="#m960d258281" x="126.945855" y="140.557874" style="stroke: #000000; stroke-width: 0.6"/>
      </g>
     </g>
    </g>
    <g id="xtick_9">
     <g id="line2d_17">
      <path d="M 133.320644 140.557874 
L 133.320644 9.719474 
" clip-path="url(#p5691eba749)" style="fill: none; stroke-dasharray: 2.96,1.28; stroke-dashoffset: 0; stroke: #f2f2f2; stroke-width: 0.8"/>
     </g>
     <g id="line2d_18">
      <g>
       <use xlink:href="#m960d258281" x="133.320644" y="140.557874" style="stroke: #000000; stroke-width: 0.6"/>
      </g>
     </g>
    </g>
    <g id="xtick_10">
     <g id="line2d_19">
      <path d="M 138.842738 140.557874 
L 138.842738 9.719474 
" clip-path="url(#p5691eba749)" style="fill: none; stroke-dasharray: 2.96,1.28; stroke-dashoffset: 0; stroke: #f2f2f2; stroke-width: 0.8"/>
     </g>
     <g id="line2d_20">
      <g>
       <use xlink:href="#m960d258281" x="138.842738" y="140.557874" style="stroke: #000000; stroke-width: 0.6"/>
      </g>
     </g>
    </g>
    <g id="xtick_11">
     <g id="line2d_21">
      <path d="M 143.71357 140.557874 
L 143.71357 9.719474 
" clip-path="url(#p5691eba749)" style="fill: none; stroke-dasharray: 2.96,1.28; stroke-dashoffset: 0; stroke: #f2f2f2; stroke-width: 0.8"/>
     </g>
     <g id="line2d_22">
      <g>
       <use xlink:href="#m960d258281" x="143.71357" y="140.557874" style="stroke: #000000; stroke-width: 0.6"/>
      </g>
     </g>
    </g>
    <g id="xtick_12">
     <g id="line2d_23">
      <path d="M 176.735276 140.557874 
L 176.735276 9.719474 
" clip-path="url(#p5691eba749)" style="fill: none; stroke-dasharray: 2.96,1.28; stroke-dashoffset: 0; stroke: #f2f2f2; stroke-width: 0.8"/>
     </g>
     <g id="line2d_24">
      <g>
       <use xlink:href="#m960d258281" x="176.735276" y="140.557874" style="stroke: #000000; stroke-width: 0.6"/>
      </g>
     </g>
    </g>
    <g id="xtick_13">
     <g id="line2d_25">
      <path d="M 193.502991 140.557874 
L 193.502991 9.719474 
" clip-path="url(#p5691eba749)" style="fill: none; stroke-dasharray: 2.96,1.28; stroke-dashoffset: 0; stroke: #f2f2f2; stroke-width: 0.8"/>
     </g>
     <g id="line2d_26">
      <g>
       <use xlink:href="#m960d258281" x="193.502991" y="140.557874" style="stroke: #000000; stroke-width: 0.6"/>
      </g>
     </g>
    </g>
    <g id="xtick_14">
     <g id="line2d_27">
      <path d="M 205.399874 140.557874 
L 205.399874 9.719474 
" clip-path="url(#p5691eba749)" style="fill: none; stroke-dasharray: 2.96,1.28; stroke-dashoffset: 0; stroke: #f2f2f2; stroke-width: 0.8"/>
     </g>
     <g id="line2d_28">
      <g>
       <use xlink:href="#m960d258281" x="205.399874" y="140.557874" style="stroke: #000000; stroke-width: 0.6"/>
      </g>
     </g>
    </g>
    <g id="xtick_15">
     <g id="line2d_29">
      <path d="M 214.627813 140.557874 
L 214.627813 9.719474 
" clip-path="url(#p5691eba749)" style="fill: none; stroke-dasharray: 2.96,1.28; stroke-dashoffset: 0; stroke: #f2f2f2; stroke-width: 0.8"/>
     </g>
     <g id="line2d_30">
      <g>
       <use xlink:href="#m960d258281" x="214.627813" y="140.557874" style="stroke: #000000; stroke-width: 0.6"/>
      </g>
     </g>
    </g>
    <g id="xtick_16">
     <g id="line2d_31">
      <path d="M 222.167589 140.557874 
L 222.167589 9.719474 
" clip-path="url(#p5691eba749)" style="fill: none; stroke-dasharray: 2.96,1.28; stroke-dashoffset: 0; stroke: #f2f2f2; stroke-width: 0.8"/>
     </g>
     <g id="line2d_32">
      <g>
       <use xlink:href="#m960d258281" x="222.167589" y="140.557874" style="stroke: #000000; stroke-width: 0.6"/>
      </g>
     </g>
    </g>
    <g id="text_3">
     <!-- Period, $T$ (s) -->
     <g transform="translate(109.658378 165.379124) scale(0.08 -0.08)">
      <defs>
       <path id="DejaVuSans-50" d="M 1259 4147 
L 1259 2394 
L 2053 2394 
Q 2494 2394 2734 2622 
Q 2975 2850 2975 3272 
Q 2975 3691 2734 3919 
Q 2494 4147 2053 4147 
L 1259 4147 
z
M 628 4666 
L 2053 4666 
Q 2838 4666 3239 4311 
Q 3641 3956 3641 3272 
Q 3641 2581 3239 2228 
Q 2838 1875 2053 1875 
L 1259 1875 
L 1259 0 
L 628 0 
L 628 4666 
z
" transform="scale(0.015625)"/>
       <path id="DejaVuSans-65" d="M 3597 1894 
L 3597 1613 
L 953 1613 
Q 991 1019 1311 708 
Q 1631 397 2203 397 
Q 2534 397 2845 478 
Q 3156 559 3463 722 
L 3463 178 
Q 3153 47 2828 -22 
Q 2503 -91 2169 -91 
Q 1331 -91 842 396 
Q 353 884 353 1716 
Q 353 2575 817 3079 
Q 1281 3584 2069 3584 
Q 2775 3584 3186 3129 
Q 3597 2675 3597 1894 
z
M 3022 2063 
Q 3016 2534 2758 2815 
Q 2500 3097 2075 3097 
Q 1594 3097 1305 2825 
Q 1016 2553 972 2059 
L 3022 2063 
z
" transform="scale(0.015625)"/>
       <path id="DejaVuSans-72" d="M 2631 2963 
Q 2534 3019 2420 3045 
Q 2306 3072 2169 3072 
Q 1681 3072 1420 2755 
Q 1159 2438 1159 1844 
L 1159 0 
L 581 0 
L 581 3500 
L 1159 3500 
L 1159 2956 
Q 1341 3275 1631 3429 
Q 1922 3584 2338 3584 
Q 2397 3584 2469 3576 
Q 2541 3569 2628 3553 
L 2631 2963 
z
" transform="scale(0.015625)"/>
       <path id="DejaVuSans-69" d="M 603 3500 
L 1178 3500 
L 1178 0 
L 603 0 
L 603 3500 
z
M 603 4863 
L 1178 4863 
L 1178 4134 
L 603 4134 
L 603 4863 
z
" transform="scale(0.015625)"/>
       <path id="DejaVuSans-6f" d="M 1959 3097 
Q 1497 3097 1228 2736 
Q 959 2375 959 1747 
Q 959 1119 1226 758 
Q 1494 397 1959 397 
Q 2419 397 2687 759 
Q 2956 1122 2956 1747 
Q 2956 2369 2687 2733 
Q 2419 3097 1959 3097 
z
M 1959 3584 
Q 2709 3584 3137 3096 
Q 3566 2609 3566 1747 
Q 3566 888 3137 398 
Q 2709 -91 1959 -91 
Q 1206 -91 779 398 
Q 353 888 353 1747 
Q 353 2609 779 3096 
Q 1206 3584 1959 3584 
z
" transform="scale(0.015625)"/>
       <path id="DejaVuSans-64" d="M 2906 2969 
L 2906 4863 
L 3481 4863 
L 3481 0 
L 2906 0 
L 2906 525 
Q 2725 213 2448 61 
Q 2172 -91 1784 -91 
Q 1150 -91 751 415 
Q 353 922 353 1747 
Q 353 2572 751 3078 
Q 1150 3584 1784 3584 
Q 2172 3584 2448 3432 
Q 2725 3281 2906 2969 
z
M 947 1747 
Q 947 1113 1208 752 
Q 1469 391 1925 391 
Q 2381 391 2643 752 
Q 2906 1113 2906 1747 
Q 2906 2381 2643 2742 
Q 2381 3103 1925 3103 
Q 1469 3103 1208 2742 
Q 947 2381 947 1747 
z
" transform="scale(0.015625)"/>
       <path id="DejaVuSans-2c" d="M 750 794 
L 1409 794 
L 1409 256 
L 897 -744 
L 494 -744 
L 750 256 
L 750 794 
z
" transform="scale(0.015625)"/>
       <path id="DejaVuSans-20" transform="scale(0.015625)"/>
       <path id="DejaVuSans-Oblique-54" d="M 378 4666 
L 4325 4666 
L 4225 4134 
L 2559 4134 
L 1759 0 
L 1125 0 
L 1925 4134 
L 275 4134 
L 378 4666 
z
" transform="scale(0.015625)"/>
       <path id="DejaVuSans-28" d="M 1984 4856 
Q 1566 4138 1362 3434 
Q 1159 2731 1159 2009 
Q 1159 1288 1364 580 
Q 1569 -128 1984 -844 
L 1484 -844 
Q 1016 -109 783 600 
Q 550 1309 550 2009 
Q 550 2706 781 3412 
Q 1013 4119 1484 4856 
L 1984 4856 
z
" transform="scale(0.015625)"/>
       <path id="DejaVuSans-73" d="M 2834 3397 
L 2834 2853 
Q 2591 2978 2328 3040 
Q 2066 3103 1784 3103 
Q 1356 3103 1142 2972 
Q 928 2841 928 2578 
Q 928 2378 1081 2264 
Q 1234 2150 1697 2047 
L 1894 2003 
Q 2506 1872 2764 1633 
Q 3022 1394 3022 966 
Q 3022 478 2636 193 
Q 2250 -91 1575 -91 
Q 1294 -91 989 -36 
Q 684 19 347 128 
L 347 722 
Q 666 556 975 473 
Q 1284 391 1588 391 
Q 1994 391 2212 530 
Q 2431 669 2431 922 
Q 2431 1156 2273 1281 
Q 2116 1406 1581 1522 
L 1381 1569 
Q 847 1681 609 1914 
Q 372 2147 372 2553 
Q 372 3047 722 3315 
Q 1072 3584 1716 3584 
Q 2034 3584 2315 3537 
Q 2597 3491 2834 3397 
z
" transform="scale(0.015625)"/>
       <path id="DejaVuSans-29" d="M 513 4856 
L 1013 4856 
Q 1481 4119 1714 3412 
Q 1947 2706 1947 2009 
Q 1947 1309 1714 600 
Q 1481 -109 1013 -844 
L 513 -844 
Q 928 -128 1133 580 
Q 1338 1288 1338 2009 
Q 1338 2731 1133 3434 
Q 928 4138 513 4856 
z
" transform="scale(0.015625)"/>
      </defs>
      <use xlink:href="#DejaVuSans-50" transform="translate(0 0.015625)"/>
      <use xlink:href="#DejaVuSans-65" transform="translate(60.302734 0.015625)"/>
      <use xlink:href="#DejaVuSans-72" transform="translate(121.826172 0.015625)"/>
      <use xlink:href="#DejaVuSans-69" transform="translate(162.939453 0.015625)"/>
      <use xlink:href="#DejaVuSans-6f" transform="translate(190.722656 0.015625)"/>
      <use xlink:href="#DejaVuSans-64" transform="translate(251.904297 0.015625)"/>
      <use xlink:href="#DejaVuSans-2c" transform="translate(315.380859 0.015625)"/>
      <use xlink:href="#DejaVuSans-20" transform="translate(347.167969 0.015625)"/>
      <use xlink:href="#DejaVuSans-Oblique-54" transform="translate(378.955078 0.015625)"/>
      <use xlink:href="#DejaVuSans-20" transform="translate(440.039062 0.015625)"/>
      <use xlink:href="#DejaVuSans-28" transform="translate(471.826172 0.015625)"/>
      <use xlink:href="#DejaVuSans-73" transform="translate(510.839844 0.015625)"/>
      <use xlink:href="#DejaVuSans-29" transform="translate(562.939453 0.015625)"/>
     </g>
    </g>
   </g>
   <g id="matplotlib.axis_2">
    <g id="ytick_1">
     <g id="line2d_33">
      <path d="M 44.76 97.99812 
L 222.716757 97.99812 
" clip-path="url(#p5691eba749)" style="fill: none; stroke: #d9d9d9; stroke-width: 0.8; stroke-linecap: square"/>
     </g>
     <g id="line2d_34">
      <defs>
       <path id="m97e9c480df" d="M 0 0 
L -3.5 0 
" style="stroke: #000000; stroke-width: 0.8"/>
      </defs>
      <g>
       <use xlink:href="#m97e9c480df" x="44.76" y="97.99812" style="stroke: #000000; stroke-width: 0.8"/>
      </g>
     </g>
     <g id="text_4">
      <!-- $\mathdefault{10^{-2}}$ -->
      <g transform="translate(18.96 101.037495) scale(0.08 -0.08)">
       <defs>
        <path id="DejaVuSans-32" d="M 1228 531 
L 3431 531 
L 3431 0 
L 469 0 
L 469 531 
Q 828 903 1448 1529 
Q 2069 2156 2228 2338 
Q 2531 2678 2651 2914 
Q 2772 3150 2772 3378 
Q 2772 3750 2511 3984 
Q 2250 4219 1831 4219 
Q 1534 4219 1204 4116 
Q 875 4013 500 3803 
L 500 4441 
Q 881 4594 1212 4672 
Q 1544 4750 1819 4750 
Q 2544 4750 2975 4387 
Q 3406 4025 3406 3419 
Q 3406 3131 3298 2873 
Q 3191 2616 2906 2266 
Q 2828 2175 2409 1742 
Q 1991 1309 1228 531 
z
" transform="scale(0.015625)"/>
       </defs>
       <use xlink:href="#DejaVuSans-31" transform="translate(0 0.765625)"/>
       <use xlink:href="#DejaVuSans-30" transform="translate(63.623047 0.765625)"/>
       <use xlink:href="#DejaVuSans-2212" transform="translate(128.203125 39.046875) scale(0.7)"/>
       <use xlink:href="#DejaVuSans-32" transform="translate(186.855469 39.046875) scale(0.7)"/>
      </g>
     </g>
    </g>
    <g id="ytick_2">
     <g id="line2d_35">
      <path d="M 44.76 54.118748 
L 222.716757 54.118748 
" clip-path="url(#p5691eba749)" style="fill: none; stroke: #d9d9d9; stroke-width: 0.8; stroke-linecap: square"/>
     </g>
     <g id="line2d_36">
      <g>
       <use xlink:href="#m97e9c480df" x="44.76" y="54.118748" style="stroke: #000000; stroke-width: 0.8"/>
      </g>
     </g>
     <g id="text_5">
      <!-- $\mathdefault{10^{-1}}$ -->
      <g transform="translate(18.96 57.158123) scale(0.08 -0.08)">
       <use xlink:href="#DejaVuSans-31" transform="translate(0 0.684375)"/>
       <use xlink:href="#DejaVuSans-30" transform="translate(63.623047 0.684375)"/>
       <use xlink:href="#DejaVuSans-2212" transform="translate(128.203125 38.965625) scale(0.7)"/>
       <use xlink:href="#DejaVuSans-31" transform="translate(186.855469 38.965625) scale(0.7)"/>
      </g>
     </g>
    </g>
    <g id="ytick_3">
     <g id="line2d_37">
      <path d="M 44.76 10.239375 
L 222.716757 10.239375 
" clip-path="url(#p5691eba749)" style="fill: none; stroke: #d9d9d9; stroke-width: 0.8; stroke-linecap: square"/>
     </g>
     <g id="line2d_38">
      <g>
       <use xlink:href="#m97e9c480df" x="44.76" y="10.239375" style="stroke: #000000; stroke-width: 0.8"/>
      </g>
     </g>
     <g id="text_6">
      <!-- $\mathdefault{10^{0}}$ -->
      <g transform="translate(23.68 13.27875) scale(0.08 -0.08)">
       <use xlink:href="#DejaVuSans-31" transform="translate(0 0.765625)"/>
       <use xlink:href="#DejaVuSans-30" transform="translate(63.623047 0.765625)"/>
       <use xlink:href="#DejaVuSans-30" transform="translate(128.203125 39.046875) scale(0.7)"/>
      </g>
     </g>
    </g>
    <g id="ytick_4">
     <g id="line2d_39">
      <path d="M 44.76 128.668485 
L 222.716757 128.668485 
" clip-path="url(#p5691eba749)" style="fill: none; stroke-dasharray: 2.96,1.28; stroke-dashoffset: 0; stroke: #f2f2f2; stroke-width: 0.8"/>
     </g>
     <g id="line2d_40">
      <defs>
       <path id="me2070ba9ee" d="M 0 0 
L -2 0 
" style="stroke: #000000; stroke-width: 0.6"/>
      </defs>
      <g>
       <use xlink:href="#me2070ba9ee" x="44.76" y="128.668485" style="stroke: #000000; stroke-width: 0.6"/>
      </g>
     </g>
    </g>
    <g id="ytick_5">
     <g id="line2d_41">
      <path d="M 44.76 120.941711 
L 222.716757 120.941711 
" clip-path="url(#p5691eba749)" style="fill: none; stroke-dasharray: 2.96,1.28; stroke-dashoffset: 0; stroke: #f2f2f2; stroke-width: 0.8"/>
     </g>
     <g id="line2d_42">
      <g>
       <use xlink:href="#me2070ba9ee" x="44.76" y="120.941711" style="stroke: #000000; stroke-width: 0.6"/>
      </g>
     </g>
    </g>
    <g id="ytick_6">
     <g id="line2d_43">
      <path d="M 44.76 115.459478 
L 222.716757 115.459478 
" clip-path="url(#p5691eba749)" style="fill: none; stroke-dasharray: 2.96,1.28; stroke-dashoffset: 0; stroke: #f2f2f2; stroke-width: 0.8"/>
     </g>
     <g id="line2d_44">
      <g>
       <use xlink:href="#me2070ba9ee" x="44.76" y="115.459478" style="stroke: #000000; stroke-width: 0.6"/>
      </g>
     </g>
    </g>
    <g id="ytick_7">
     <g id="line2d_45">
      <path d="M 44.76 111.207127 
L 222.716757 111.207127 
" clip-path="url(#p5691eba749)" style="fill: none; stroke-dasharray: 2.96,1.28; stroke-dashoffset: 0; stroke: #f2f2f2; stroke-width: 0.8"/>
     </g>
     <g id="line2d_46">
      <g>
       <use xlink:href="#me2070ba9ee" x="44.76" y="111.207127" style="stroke: #000000; stroke-width: 0.6"/>
      </g>
     </g>
    </g>
    <g id="ytick_8">
     <g id="line2d_47">
      <path d="M 44.76 107.732704 
L 222.716757 107.732704 
" clip-path="url(#p5691eba749)" style="fill: none; stroke-dasharray: 2.96,1.28; stroke-dashoffset: 0; stroke: #f2f2f2; stroke-width: 0.8"/>
     </g>
     <g id="line2d_48">
      <g>
       <use xlink:href="#me2070ba9ee" x="44.76" y="107.732704" style="stroke: #000000; stroke-width: 0.6"/>
      </g>
     </g>
    </g>
    <g id="ytick_9">
     <g id="line2d_49">
      <path d="M 44.76 104.795121 
L 222.716757 104.795121 
" clip-path="url(#p5691eba749)" style="fill: none; stroke-dasharray: 2.96,1.28; stroke-dashoffset: 0; stroke: #f2f2f2; stroke-width: 0.8"/>
     </g>
     <g id="line2d_50">
      <g>
       <use xlink:href="#me2070ba9ee" x="44.76" y="104.795121" style="stroke: #000000; stroke-width: 0.6"/>
      </g>
     </g>
    </g>
    <g id="ytick_10">
     <g id="line2d_51">
      <path d="M 44.76 102.250471 
L 222.716757 102.250471 
" clip-path="url(#p5691eba749)" style="fill: none; stroke-dasharray: 2.96,1.28; stroke-dashoffset: 0; stroke: #f2f2f2; stroke-width: 0.8"/>
     </g>
     <g id="line2d_52">
      <g>
       <use xlink:href="#me2070ba9ee" x="44.76" y="102.250471" style="stroke: #000000; stroke-width: 0.6"/>
      </g>
     </g>
    </g>
    <g id="ytick_11">
     <g id="line2d_53">
      <path d="M 44.76 100.00593 
L 222.716757 100.00593 
" clip-path="url(#p5691eba749)" style="fill: none; stroke-dasharray: 2.96,1.28; stroke-dashoffset: 0; stroke: #f2f2f2; stroke-width: 0.8"/>
     </g>
     <g id="line2d_54">
      <g>
       <use xlink:href="#me2070ba9ee" x="44.76" y="100.00593" style="stroke: #000000; stroke-width: 0.6"/>
      </g>
     </g>
    </g>
    <g id="ytick_12">
     <g id="line2d_55">
      <path d="M 44.76 84.789113 
L 222.716757 84.789113 
" clip-path="url(#p5691eba749)" style="fill: none; stroke-dasharray: 2.96,1.28; stroke-dashoffset: 0; stroke: #f2f2f2; stroke-width: 0.8"/>
     </g>
     <g id="line2d_56">
      <g>
       <use xlink:href="#me2070ba9ee" x="44.76" y="84.789113" style="stroke: #000000; stroke-width: 0.6"/>
      </g>
     </g>
    </g>
    <g id="ytick_13">
     <g id="line2d_57">
      <path d="M 44.76 77.062339 
L 222.716757 77.062339 
" clip-path="url(#p5691eba749)" style="fill: none; stroke-dasharray: 2.96,1.28; stroke-dashoffset: 0; stroke: #f2f2f2; stroke-width: 0.8"/>
     </g>
     <g id="line2d_58">
      <g>
       <use xlink:href="#me2070ba9ee" x="44.76" y="77.062339" style="stroke: #000000; stroke-width: 0.6"/>
      </g>
     </g>
    </g>
    <g id="ytick_14">
     <g id="line2d_59">
      <path d="M 44.76 71.580105 
L 222.716757 71.580105 
" clip-path="url(#p5691eba749)" style="fill: none; stroke-dasharray: 2.96,1.28; stroke-dashoffset: 0; stroke: #f2f2f2; stroke-width: 0.8"/>
     </g>
     <g id="line2d_60">
      <g>
       <use xlink:href="#me2070ba9ee" x="44.76" y="71.580105" style="stroke: #000000; stroke-width: 0.6"/>
      </g>
     </g>
    </g>
    <g id="ytick_15">
     <g id="line2d_61">
      <path d="M 44.76 67.327755 
L 222.716757 67.327755 
" clip-path="url(#p5691eba749)" style="fill: none; stroke-dasharray: 2.96,1.28; stroke-dashoffset: 0; stroke: #f2f2f2; stroke-width: 0.8"/>
     </g>
     <g id="line2d_62">
      <g>
       <use xlink:href="#me2070ba9ee" x="44.76" y="67.327755" style="stroke: #000000; stroke-width: 0.6"/>
      </g>
     </g>
    </g>
    <g id="ytick_16">
     <g id="line2d_63">
      <path d="M 44.76 63.853332 
L 222.716757 63.853332 
" clip-path="url(#p5691eba749)" style="fill: none; stroke-dasharray: 2.96,1.28; stroke-dashoffset: 0; stroke: #f2f2f2; stroke-width: 0.8"/>
     </g>
     <g id="line2d_64">
      <g>
       <use xlink:href="#me2070ba9ee" x="44.76" y="63.853332" style="stroke: #000000; stroke-width: 0.6"/>
      </g>
     </g>
    </g>
    <g id="ytick_17">
     <g id="line2d_65">
      <path d="M 44.76 60.915748 
L 222.716757 60.915748 
" clip-path="url(#p5691eba749)" style="fill: none; stroke-dasharray: 2.96,1.28; stroke-dashoffset: 0; stroke: #f2f2f2; stroke-width: 0.8"/>
     </g>
     <g id="line2d_66">
      <g>
       <use xlink:href="#me2070ba9ee" x="44.76" y="60.915748" style="stroke: #000000; stroke-width: 0.6"/>
      </g>
     </g>
    </g>
    <g id="ytick_18">
     <g id="line2d_67">
      <path d="M 44.76 58.371098 
L 222.716757 58.371098 
" clip-path="url(#p5691eba749)" style="fill: none; stroke-dasharray: 2.96,1.28; stroke-dashoffset: 0; stroke: #f2f2f2; stroke-width: 0.8"/>
     </g>
     <g id="line2d_68">
      <g>
       <use xlink:href="#me2070ba9ee" x="44.76" y="58.371098" style="stroke: #000000; stroke-width: 0.6"/>
      </g>
     </g>
    </g>
    <g id="ytick_19">
     <g id="line2d_69">
      <path d="M 44.76 56.126558 
L 222.716757 56.126558 
" clip-path="url(#p5691eba749)" style="fill: none; stroke-dasharray: 2.96,1.28; stroke-dashoffset: 0; stroke: #f2f2f2; stroke-width: 0.8"/>
     </g>
     <g id="line2d_70">
      <g>
       <use xlink:href="#me2070ba9ee" x="44.76" y="56.126558" style="stroke: #000000; stroke-width: 0.6"/>
      </g>
     </g>
    </g>
    <g id="ytick_20">
     <g id="line2d_71">
      <path d="M 44.76 40.90974 
L 222.716757 40.90974 
" clip-path="url(#p5691eba749)" style="fill: none; stroke-dasharray: 2.96,1.28; stroke-dashoffset: 0; stroke: #f2f2f2; stroke-width: 0.8"/>
     </g>
     <g id="line2d_72">
      <g>
       <use xlink:href="#me2070ba9ee" x="44.76" y="40.90974" style="stroke: #000000; stroke-width: 0.6"/>
      </g>
     </g>
    </g>
    <g id="ytick_21">
     <g id="line2d_73">
      <path d="M 44.76 33.182966 
L 222.716757 33.182966 
" clip-path="url(#p5691eba749)" style="fill: none; stroke-dasharray: 2.96,1.28; stroke-dashoffset: 0; stroke: #f2f2f2; stroke-width: 0.8"/>
     </g>
     <g id="line2d_74">
      <g>
       <use xlink:href="#me2070ba9ee" x="44.76" y="33.182966" style="stroke: #000000; stroke-width: 0.6"/>
      </g>
     </g>
    </g>
    <g id="ytick_22">
     <g id="line2d_75">
      <path d="M 44.76 27.700733 
L 222.716757 27.700733 
" clip-path="url(#p5691eba749)" style="fill: none; stroke-dasharray: 2.96,1.28; stroke-dashoffset: 0; stroke: #f2f2f2; stroke-width: 0.8"/>
     </g>
     <g id="line2d_76">
      <g>
       <use xlink:href="#me2070ba9ee" x="44.76" y="27.700733" style="stroke: #000000; stroke-width: 0.6"/>
      </g>
     </g>
    </g>
    <g id="ytick_23">
     <g id="line2d_77">
      <path d="M 44.76 23.448382 
L 222.716757 23.448382 
" clip-path="url(#p5691eba749)" style="fill: none; stroke-dasharray: 2.96,1.28; stroke-dashoffset: 0; stroke: #f2f2f2; stroke-width: 0.8"/>
     </g>
     <g id="line2d_78">
      <g>
       <use xlink:href="#me2070ba9ee" x="44.76" y="23.448382" style="stroke: #000000; stroke-width: 0.6"/>
      </g>
     </g>
    </g>
    <g id="ytick_24">
     <g id="line2d_79">
      <path d="M 44.76 19.973959 
L 222.716757 19.973959 
" clip-path="url(#p5691eba749)" style="fill: none; stroke-dasharray: 2.96,1.28; stroke-dashoffset: 0; stroke: #f2f2f2; stroke-width: 0.8"/>
     </g>
     <g id="line2d_80">
      <g>
       <use xlink:href="#me2070ba9ee" x="44.76" y="19.973959" style="stroke: #000000; stroke-width: 0.6"/>
      </g>
     </g>
    </g>
    <g id="ytick_25">
     <g id="line2d_81">
      <path d="M 44.76 17.036376 
L 222.716757 17.036376 
" clip-path="url(#p5691eba749)" style="fill: none; stroke-dasharray: 2.96,1.28; stroke-dashoffset: 0; stroke: #f2f2f2; stroke-width: 0.8"/>
     </g>
     <g id="line2d_82">
      <g>
       <use xlink:href="#me2070ba9ee" x="44.76" y="17.036376" style="stroke: #000000; stroke-width: 0.6"/>
      </g>
     </g>
    </g>
    <g id="ytick_26">
     <g id="line2d_83">
      <path d="M 44.76 14.491726 
L 222.716757 14.491726 
" clip-path="url(#p5691eba749)" style="fill: none; stroke-dasharray: 2.96,1.28; stroke-dashoffset: 0; stroke: #f2f2f2; stroke-width: 0.8"/>
     </g>
     <g id="line2d_84">
      <g>
       <use xlink:href="#me2070ba9ee" x="44.76" y="14.491726" style="stroke: #000000; stroke-width: 0.6"/>
      </g>
     </g>
    </g>
    <g id="ytick_27">
     <g id="line2d_85">
      <path d="M 44.76 12.247185 
L 222.716757 12.247185 
" clip-path="url(#p5691eba749)" style="fill: none; stroke-dasharray: 2.96,1.28; stroke-dashoffset: 0; stroke: #f2f2f2; stroke-width: 0.8"/>
     </g>
     <g id="line2d_86">
      <g>
       <use xlink:href="#me2070ba9ee" x="44.76" y="12.247185" style="stroke: #000000; stroke-width: 0.6"/>
      </g>
     </g>
    </g>
    <g id="text_7">
     <!-- Spectral acceleration, $SA$ (g) -->
     <g transform="translate(13.28 132.338674) rotate(-90) scale(0.08 -0.08)">
      <defs>
       <path id="DejaVuSans-53" d="M 3425 4513 
L 3425 3897 
Q 3066 4069 2747 4153 
Q 2428 4238 2131 4238 
Q 1616 4238 1336 4038 
Q 1056 3838 1056 3469 
Q 1056 3159 1242 3001 
Q 1428 2844 1947 2747 
L 2328 2669 
Q 3034 2534 3370 2195 
Q 3706 1856 3706 1288 
Q 3706 609 3251 259 
Q 2797 -91 1919 -91 
Q 1588 -91 1214 -16 
Q 841 59 441 206 
L 441 856 
Q 825 641 1194 531 
Q 1563 422 1919 422 
Q 2459 422 2753 634 
Q 3047 847 3047 1241 
Q 3047 1584 2836 1778 
Q 2625 1972 2144 2069 
L 1759 2144 
Q 1053 2284 737 2584 
Q 422 2884 422 3419 
Q 422 4038 858 4394 
Q 1294 4750 2059 4750 
Q 2388 4750 2728 4690 
Q 3069 4631 3425 4513 
z
" transform="scale(0.015625)"/>
       <path id="DejaVuSans-70" d="M 1159 525 
L 1159 -1331 
L 581 -1331 
L 581 3500 
L 1159 3500 
L 1159 2969 
Q 1341 3281 1617 3432 
Q 1894 3584 2278 3584 
Q 2916 3584 3314 3078 
Q 3713 2572 3713 1747 
Q 3713 922 3314 415 
Q 2916 -91 2278 -91 
Q 1894 -91 1617 61 
Q 1341 213 1159 525 
z
M 3116 1747 
Q 3116 2381 2855 2742 
Q 2594 3103 2138 3103 
Q 1681 3103 1420 2742 
Q 1159 2381 1159 1747 
Q 1159 1113 1420 752 
Q 1681 391 2138 391 
Q 2594 391 2855 752 
Q 3116 1113 3116 1747 
z
" transform="scale(0.015625)"/>
       <path id="DejaVuSans-63" d="M 3122 3366 
L 3122 2828 
Q 2878 2963 2633 3030 
Q 2388 3097 2138 3097 
Q 1578 3097 1268 2742 
Q 959 2388 959 1747 
Q 959 1106 1268 751 
Q 1578 397 2138 397 
Q 2388 397 2633 464 
Q 2878 531 3122 666 
L 3122 134 
Q 2881 22 2623 -34 
Q 2366 -91 2075 -91 
Q 1284 -91 818 406 
Q 353 903 353 1747 
Q 353 2603 823 3093 
Q 1294 3584 2113 3584 
Q 2378 3584 2631 3529 
Q 2884 3475 3122 3366 
z
" transform="scale(0.015625)"/>
       <path id="DejaVuSans-74" d="M 1172 4494 
L 1172 3500 
L 2356 3500 
L 2356 3053 
L 1172 3053 
L 1172 1153 
Q 1172 725 1289 603 
Q 1406 481 1766 481 
L 2356 481 
L 2356 0 
L 1766 0 
Q 1100 0 847 248 
Q 594 497 594 1153 
L 594 3053 
L 172 3053 
L 172 3500 
L 594 3500 
L 594 4494 
L 1172 4494 
z
" transform="scale(0.015625)"/>
       <path id="DejaVuSans-61" d="M 2194 1759 
Q 1497 1759 1228 1600 
Q 959 1441 959 1056 
Q 959 750 1161 570 
Q 1363 391 1709 391 
Q 2188 391 2477 730 
Q 2766 1069 2766 1631 
L 2766 1759 
L 2194 1759 
z
M 3341 1997 
L 3341 0 
L 2766 0 
L 2766 531 
Q 2569 213 2275 61 
Q 1981 -91 1556 -91 
Q 1019 -91 701 211 
Q 384 513 384 1019 
Q 384 1609 779 1909 
Q 1175 2209 1959 2209 
L 2766 2209 
L 2766 2266 
Q 2766 2663 2505 2880 
Q 2244 3097 1772 3097 
Q 1472 3097 1187 3025 
Q 903 2953 641 2809 
L 641 3341 
Q 956 3463 1253 3523 
Q 1550 3584 1831 3584 
Q 2591 3584 2966 3190 
Q 3341 2797 3341 1997 
z
" transform="scale(0.015625)"/>
       <path id="DejaVuSans-6c" d="M 603 4863 
L 1178 4863 
L 1178 0 
L 603 0 
L 603 4863 
z
" transform="scale(0.015625)"/>
       <path id="DejaVuSans-6e" d="M 3513 2113 
L 3513 0 
L 2938 0 
L 2938 2094 
Q 2938 2591 2744 2837 
Q 2550 3084 2163 3084 
Q 1697 3084 1428 2787 
Q 1159 2491 1159 1978 
L 1159 0 
L 581 0 
L 581 3500 
L 1159 3500 
L 1159 2956 
Q 1366 3272 1645 3428 
Q 1925 3584 2291 3584 
Q 2894 3584 3203 3211 
Q 3513 2838 3513 2113 
z
" transform="scale(0.015625)"/>
       <path id="DejaVuSans-Oblique-53" d="M 3859 4513 
L 3738 3897 
Q 3422 4066 3111 4152 
Q 2800 4238 2509 4238 
Q 1944 4238 1609 3991 
Q 1275 3744 1275 3334 
Q 1275 3109 1398 2989 
Q 1522 2869 2034 2731 
L 2413 2638 
Q 3053 2472 3303 2217 
Q 3553 1963 3553 1503 
Q 3553 797 2998 353 
Q 2444 -91 1538 -91 
Q 1166 -91 791 -17 
Q 416 56 38 206 
L 166 856 
Q 513 641 861 531 
Q 1209 422 1556 422 
Q 2147 422 2503 684 
Q 2859 947 2859 1369 
Q 2859 1650 2717 1795 
Q 2575 1941 2106 2059 
L 1728 2156 
Q 1081 2325 845 2545 
Q 609 2766 609 3163 
Q 609 3859 1145 4304 
Q 1681 4750 2541 4750 
Q 2875 4750 3203 4690 
Q 3531 4631 3859 4513 
z
" transform="scale(0.015625)"/>
       <path id="DejaVuSans-Oblique-41" d="M 2356 4666 
L 3072 4666 
L 3938 0 
L 3278 0 
L 3084 1197 
L 984 1197 
L 325 0 
L -341 0 
L 2356 4666 
z
M 2584 4044 
L 1275 1722 
L 2988 1722 
L 2584 4044 
z
" transform="scale(0.015625)"/>
       <path id="DejaVuSans-67" d="M 2906 1791 
Q 2906 2416 2648 2759 
Q 2391 3103 1925 3103 
Q 1463 3103 1205 2759 
Q 947 2416 947 1791 
Q 947 1169 1205 825 
Q 1463 481 1925 481 
Q 2391 481 2648 825 
Q 2906 1169 2906 1791 
z
M 3481 434 
Q 3481 -459 3084 -895 
Q 2688 -1331 1869 -1331 
Q 1566 -1331 1297 -1286 
Q 1028 -1241 775 -1147 
L 775 -588 
Q 1028 -725 1275 -790 
Q 1522 -856 1778 -856 
Q 2344 -856 2625 -561 
Q 2906 -266 2906 331 
L 2906 616 
Q 2728 306 2450 153 
Q 2172 0 1784 0 
Q 1141 0 747 490 
Q 353 981 353 1791 
Q 353 2603 747 3093 
Q 1141 3584 1784 3584 
Q 2172 3584 2450 3431 
Q 2728 3278 2906 2969 
L 2906 3500 
L 3481 3500 
L 3481 434 
z
" transform="scale(0.015625)"/>
      </defs>
      <use xlink:href="#DejaVuSans-53" transform="translate(0 0.015625)"/>
      <use xlink:href="#DejaVuSans-70" transform="translate(63.476562 0.015625)"/>
      <use xlink:href="#DejaVuSans-65" transform="translate(126.953125 0.015625)"/>
      <use xlink:href="#DejaVuSans-63" transform="translate(188.476562 0.015625)"/>
      <use xlink:href="#DejaVuSans-74" transform="translate(243.457031 0.015625)"/>
      <use xlink:href="#DejaVuSans-72" transform="translate(282.666016 0.015625)"/>
      <use xlink:href="#DejaVuSans-61" transform="translate(323.779297 0.015625)"/>
      <use xlink:href="#DejaVuSans-6c" transform="translate(385.058594 0.015625)"/>
      <use xlink:href="#DejaVuSans-20" transform="translate(412.841797 0.015625)"/>
      <use xlink:href="#DejaVuSans-61" transform="translate(444.628906 0.015625)"/>
      <use xlink:href="#DejaVuSans-63" transform="translate(505.908203 0.015625)"/>
      <use xlink:href="#DejaVuSans-63" transform="translate(560.888672 0.015625)"/>
      <use xlink:href="#DejaVuSans-65" transform="translate(615.869141 0.015625)"/>
      <use xlink:href="#DejaVuSans-6c" transform="translate(677.392578 0.015625)"/>
      <use xlink:href="#DejaVuSans-65" transform="translate(705.175781 0.015625)"/>
      <use xlink:href="#DejaVuSans-72" transform="translate(766.699219 0.015625)"/>
      <use xlink:href="#DejaVuSans-61" transform="translate(807.8125 0.015625)"/>
      <use xlink:href="#DejaVuSans-74" transform="translate(869.091797 0.015625)"/>
      <use xlink:href="#DejaVuSans-69" transform="translate(908.300781 0.015625)"/>
      <use xlink:href="#DejaVuSans-6f" transform="translate(936.083984 0.015625)"/>
      <use xlink:href="#DejaVuSans-6e" transform="translate(997.265625 0.015625)"/>
      <use xlink:href="#DejaVuSans-2c" transform="translate(1060.644531 0.015625)"/>
      <use xlink:href="#DejaVuSans-20" transform="translate(1092.431641 0.015625)"/>
      <use xlink:href="#DejaVuSans-Oblique-53" transform="translate(1124.21875 0.015625)"/>
      <use xlink:href="#DejaVuSans-Oblique-41" transform="translate(1187.695312 0.015625)"/>
      <use xlink:href="#DejaVuSans-20" transform="translate(1256.103516 0.015625)"/>
      <use xlink:href="#DejaVuSans-28" transform="translate(1287.890625 0.015625)"/>
      <use xlink:href="#DejaVuSans-67" transform="translate(1326.904297 0.015625)"/>
      <use xlink:href="#DejaVuSans-29" transform="translate(1390.380859 0.015625)"/>
     </g>
    </g>
   </g>
   <g id="line2d_87">
    <path d="M 52.848943 44.934899 
L 69.616659 38.832621 
L 81.513542 32.669953 
L 90.741481 22.834656 
L 98.281257 19.983727 
L 110.17814 24.892311 
L 119.406079 30.214008 
L 136.173794 57.339544 
L 148.070677 59.725961 
L 158.920561 73.951517 
L 164.838392 85.288564 
L 176.735276 99.523746 
L 193.502991 116.888786 
L 205.399874 127.347727 
L 214.627813 134.610674 
" clip-path="url(#p5691eba749)" style="fill: none; stroke: #b2b2b2; stroke-width: 0.8; stroke-linecap: square"/>
   </g>
   <g id="line2d_88">
    <path d="M 52.848943 34.896594 
L 69.616659 33.41241 
L 81.513542 37.604055 
L 90.741481 45.729867 
L 98.281257 46.818269 
L 110.17814 44.162196 
L 119.406079 49.365841 
L 136.173794 45.960902 
L 148.070677 48.421015 
L 158.920561 47.972784 
L 164.838392 43.931836 
L 176.735276 51.815403 
L 193.502991 53.538322 
L 205.399874 55.449009 
L 214.627813 69.371084 
" clip-path="url(#p5691eba749)" style="fill: none; stroke: #b2b2b2; stroke-width: 0.8; stroke-linecap: square"/>
   </g>
   <g id="line2d_89">
    <path d="M 52.848943 39.419767 
L 69.616659 34.889716 
L 81.513542 33.251318 
L 90.741481 45.048175 
L 98.281257 44.825819 
L 110.17814 50.065256 
L 119.406079 55.233569 
L 136.173794 48.413691 
L 148.070677 48.072722 
L 158.920561 65.678825 
L 164.838392 73.068729 
L 176.735276 87.574347 
L 193.502991 99.492732 
L 205.399874 121.175524 
L 214.627813 127.620246 
" clip-path="url(#p5691eba749)" style="fill: none; stroke: #b2b2b2; stroke-width: 0.8; stroke-linecap: square"/>
   </g>
   <g id="line2d_90">
    <path d="M 52.848943 31.640069 
L 69.616659 35.84322 
L 81.513542 32.885197 
L 90.741481 34.94715 
L 98.281257 40.125478 
L 110.17814 48.670807 
L 119.406079 39.767107 
L 136.173794 41.671812 
L 148.070677 57.824313 
L 158.920561 66.789133 
L 164.838392 69.934475 
L 176.735276 80.49584 
L 193.502991 108.661976 
L 205.399874 120.531915 
L 214.627813 131.424399 
" clip-path="url(#p5691eba749)" style="fill: none; stroke: #b2b2b2; stroke-width: 0.8; stroke-linecap: square"/>
   </g>
   <g id="line2d_91">
    <path d="M 52.848943 41.242148 
L 69.616659 39.172801 
L 81.513542 46.392658 
L 90.741481 47.885491 
L 98.281257 48.404006 
L 110.17814 46.514948 
L 119.406079 45.527552 
L 136.173794 45.73551 
L 148.070677 47.313753 
L 158.920561 38.30686 
L 164.838392 40.864405 
L 176.735276 37.332693 
L 193.502991 56.572382 
L 205.399874 67.308921 
L 214.627813 87.345734 
" clip-path="url(#p5691eba749)" style="fill: none; stroke: #b2b2b2; stroke-width: 0.8; stroke-linecap: square"/>
   </g>
   <g id="line2d_92">
    <path d="M 52.848943 41.510393 
L 69.616659 38.010843 
L 81.513542 26.125952 
L 90.741481 19.655233 
L 98.281257 18.290543 
L 110.17814 33.655185 
L 119.406079 40.460387 
L 136.173794 60.708524 
L 148.070677 63.780027 
L 158.920561 67.197227 
L 164.838392 60.762818 
L 176.735276 68.430184 
L 193.502991 58.0232 
L 205.399874 52.734473 
L 214.627813 65.502365 
" clip-path="url(#p5691eba749)" style="fill: none; stroke: #b2b2b2; stroke-width: 0.8; stroke-linecap: square"/>
   </g>
   <g id="line2d_93">
    <path d="M 52.848943 36.856572 
L 69.616659 36.339561 
L 81.513542 32.950356 
L 90.741481 40.943568 
L 98.281257 42.866842 
L 110.17814 44.884288 
L 119.406079 51.661407 
L 136.173794 49.538503 
L 148.070677 52.466753 
L 158.920561 43.463771 
L 164.838392 43.011691 
L 176.735276 54.490773 
L 193.502991 67.393288 
L 205.399874 69.433081 
L 214.627813 78.928498 
" clip-path="url(#p5691eba749)" style="fill: none; stroke: #b2b2b2; stroke-width: 0.8; stroke-linecap: square"/>
   </g>
   <g id="line2d_94">
    <path d="M 52.848943 39.221092 
L 69.616659 36.779013 
L 81.513542 33.800681 
L 90.741481 47.771603 
L 98.281257 48.854756 
L 110.17814 51.210121 
L 119.406079 47.107344 
L 136.173794 39.922255 
L 148.070677 52.125427 
L 158.920561 54.899837 
L 164.838392 60.198737 
L 176.735276 70.309941 
L 193.502991 84.130998 
L 205.399874 82.357015 
L 214.627813 98.514487 
" clip-path="url(#p5691eba749)" style="fill: none; stroke: #b2b2b2; stroke-width: 0.8; stroke-linecap: square"/>
   </g>
   <g id="line2d_95">
    <path d="M 52.848943 34.623611 
L 69.616659 32.110027 
L 81.513542 19.058339 
L 90.741481 17.869673 
L 98.281257 27.319915 
L 110.17814 39.204531 
L 119.406079 52.8462 
L 136.173794 60.456877 
L 148.070677 58.872836 
L 158.920561 55.273459 
L 164.838392 49.122179 
L 176.735276 63.639086 
L 193.502991 89.1252 
L 205.399874 103.809595 
L 214.627813 114.075005 
" clip-path="url(#p5691eba749)" style="fill: none; stroke: #b2b2b2; stroke-width: 0.8; stroke-linecap: square"/>
   </g>
   <g id="line2d_96">
    <path d="M 52.848943 30.358581 
L 69.616659 32.343395 
L 81.513542 34.061244 
L 90.741481 34.293709 
L 98.281257 37.853395 
L 110.17814 43.548024 
L 119.406079 45.216674 
L 136.173794 54.07419 
L 148.070677 56.60369 
L 158.920561 65.745787 
L 164.838392 64.18315 
L 176.735276 58.738357 
L 193.502991 64.071947 
L 205.399874 92.219406 
L 214.627813 107.634101 
" clip-path="url(#p5691eba749)" style="fill: none; stroke: #b2b2b2; stroke-width: 0.8; stroke-linecap: square"/>
   </g>
   <g id="line2d_97">
    <path d="M 52.848943 39.798079 
L 69.616659 31.695479 
L 81.513542 32.820343 
L 90.741481 39.382923 
L 98.281257 42.500774 
L 110.17814 44.563858 
L 119.406079 39.928676 
L 136.173794 46.092742 
L 148.070677 54.192354 
L 158.920561 52.140694 
L 164.838392 53.31733 
L 176.735276 64.116009 
L 193.502991 82.878328 
L 205.399874 79.901383 
L 214.627813 89.571231 
" clip-path="url(#p5691eba749)" style="fill: none; stroke: #b2b2b2; stroke-width: 0.8; stroke-linecap: square"/>
   </g>
   <g id="line2d_98">
    <path d="M 52.848943 33.70816 
L 69.616659 30.331058 
L 81.513542 32.20256 
L 90.741481 33.901009 
L 98.281257 37.984159 
L 110.17814 48.193749 
L 119.406079 40.877634 
L 136.173794 52.245545 
L 148.070677 57.496089 
L 158.920561 54.45299 
L 164.838392 67.093871 
L 176.735276 74.286985 
L 193.502991 79.621547 
L 205.399874 76.57633 
L 214.627813 86.901068 
" clip-path="url(#p5691eba749)" style="fill: none; stroke: #b2b2b2; stroke-width: 0.8; stroke-linecap: square"/>
   </g>
   <g id="line2d_99">
    <path d="M 52.848943 37.787129 
L 69.616659 39.132787 
L 81.513542 34.57642 
L 90.741481 41.589158 
L 98.281257 43.491856 
L 110.17814 42.862274 
L 119.406079 45.959124 
L 136.173794 52.054748 
L 148.070677 52.236552 
L 158.920561 56.21136 
L 164.838392 50.388178 
L 176.735276 68.877706 
L 193.502991 91.781635 
L 205.399874 89.696525 
L 214.627813 99.368104 
" clip-path="url(#p5691eba749)" style="fill: none; stroke: #b2b2b2; stroke-width: 0.8; stroke-linecap: square"/>
   </g>
   <g id="line2d_100">
    <path d="M 52.848943 36.871215 
L 69.616659 35.315973 
L 81.513542 29.473163 
L 90.741481 42.2958 
L 98.281257 42.437512 
L 110.17814 43.495601 
L 119.406079 44.135471 
L 136.173794 46.889577 
L 148.070677 56.271402 
L 158.920561 66.527478 
L 164.838392 71.737517 
L 176.735276 85.030286 
L 193.502991 102.515167 
L 205.399874 113.566119 
L 214.627813 122.923537 
" clip-path="url(#p5691eba749)" style="fill: none; stroke: #b2b2b2; stroke-width: 0.8; stroke-linecap: square"/>
   </g>
   <g id="line2d_101">
    <path d="M 52.848943 31.911397 
L 69.616659 27.658876 
L 81.513542 40.623637 
L 90.741481 47.735417 
L 98.281257 43.860058 
L 110.17814 44.521086 
L 119.406079 44.875681 
L 136.173794 48.144247 
L 148.070677 52.820957 
L 158.920561 59.896802 
L 164.838392 65.56632 
L 176.735276 78.215044 
L 193.502991 85.1826 
L 205.399874 86.482485 
L 214.627813 94.425761 
" clip-path="url(#p5691eba749)" style="fill: none; stroke: #b2b2b2; stroke-width: 0.8; stroke-linecap: square"/>
   </g>
   <g id="line2d_102">
    <path d="M 52.848943 25.107125 
L 69.616659 28.651735 
L 81.513542 28.312648 
L 90.741481 21.042505 
L 98.281257 38.52793 
L 110.17814 47.807447 
L 119.406079 52.362118 
L 136.173794 51.786789 
L 148.070677 55.557029 
L 158.920561 50.483562 
L 164.838392 48.108779 
L 176.735276 54.997745 
L 193.502991 61.382699 
L 205.399874 66.120376 
L 214.627813 69.574625 
" clip-path="url(#p5691eba749)" style="fill: none; stroke: #b2b2b2; stroke-width: 0.8; stroke-linecap: square"/>
   </g>
   <g id="line2d_103">
    <path d="M 52.848943 45.543348 
L 69.616659 42.469952 
L 81.513542 47.658978 
L 90.741481 50.575441 
L 98.281257 48.58524 
L 110.17814 45.162746 
L 119.406079 44.982934 
L 136.173794 49.094059 
L 148.070677 45.263077 
L 158.920561 43.608605 
L 164.838392 44.711144 
L 176.735276 39.425738 
L 193.502991 48.799433 
L 205.399874 73.735349 
L 214.627813 86.510321 
" clip-path="url(#p5691eba749)" style="fill: none; stroke: #b2b2b2; stroke-width: 0.8; stroke-linecap: square"/>
   </g>
   <g id="line2d_104">
    <path d="M 52.848943 51.704585 
L 69.616659 47.946879 
L 81.513542 45.375817 
L 90.741481 38.096683 
L 98.281257 36.025133 
L 110.17814 40.699286 
L 119.406079 39.11033 
L 136.173794 42.172069 
L 148.070677 50.199292 
L 158.920561 57.697528 
L 164.838392 64.62244 
L 176.735276 56.873055 
L 193.502991 63.580248 
L 205.399874 74.869512 
L 214.627813 77.023553 
" clip-path="url(#p5691eba749)" style="fill: none; stroke: #b2b2b2; stroke-width: 0.8; stroke-linecap: square"/>
   </g>
   <g id="line2d_105">
    <path d="M 52.848943 57.246063 
L 69.616659 43.775228 
L 81.513542 53.129223 
L 90.741481 55.407955 
L 98.281257 48.229695 
L 110.17814 45.271085 
L 119.406079 54.001009 
L 136.173794 42.772909 
L 148.070677 43.102394 
L 158.920561 53.018592 
L 164.838392 59.298466 
L 176.735276 61.678311 
L 193.502991 52.814767 
L 205.399874 55.777259 
L 214.627813 57.548119 
" clip-path="url(#p5691eba749)" style="fill: none; stroke: #b2b2b2; stroke-width: 0.8; stroke-linecap: square"/>
   </g>
   <g id="line2d_106">
    <path d="M 52.848943 37.743874 
L 69.616659 37.26482 
L 81.513542 41.860291 
L 90.741481 42.503725 
L 98.281257 46.180688 
L 110.17814 53.03964 
L 119.406079 39.229174 
L 136.173794 46.442089 
L 148.070677 52.723195 
L 158.920561 57.004463 
L 164.838392 62.008662 
L 176.735276 69.457911 
L 193.502991 83.108908 
L 205.399874 91.41122 
L 214.627813 104.821073 
" clip-path="url(#p5691eba749)" style="fill: none; stroke: #b2b2b2; stroke-width: 0.8; stroke-linecap: square"/>
   </g>
   <g id="line2d_107">
    <path d="M 52.848943 58.469943 
L 69.616659 57.382725 
L 81.513542 52.033837 
L 90.741481 44.210362 
L 98.281257 40.422624 
L 110.17814 37.282636 
L 119.406079 47.666247 
L 136.173794 46.112402 
L 148.070677 48.168918 
L 158.920561 44.222467 
L 164.838392 44.583211 
L 176.735276 45.542662 
L 193.502991 60.782189 
L 205.399874 61.004866 
L 214.627813 80.642057 
" clip-path="url(#p5691eba749)" style="fill: none; stroke: #b2b2b2; stroke-width: 0.8; stroke-linecap: square"/>
   </g>
   <g id="line2d_108">
    <path d="M 52.848943 38.845158 
L 69.616659 31.825092 
L 81.513542 36.922281 
L 90.741481 33.071303 
L 98.281257 32.128422 
L 110.17814 35.368698 
L 119.406079 50.560794 
L 136.173794 53.098894 
L 148.070677 52.382559 
L 158.920561 62.587702 
L 164.838392 73.128275 
L 176.735276 84.226159 
L 193.502991 85.512308 
L 205.399874 100.317249 
L 214.627813 106.932769 
" clip-path="url(#p5691eba749)" style="fill: none; stroke: #b2b2b2; stroke-width: 0.8; stroke-linecap: square"/>
   </g>
   <g id="line2d_109">
    <path d="M 52.848943 35.327391 
L 69.616659 37.477796 
L 81.513542 41.717694 
L 90.741481 35.522542 
L 98.281257 37.044778 
L 110.17814 32.61112 
L 119.406079 46.204245 
L 136.173794 47.501995 
L 148.070677 52.281911 
L 158.920561 61.036864 
L 164.838392 56.757107 
L 176.735276 66.868735 
L 193.502991 77.148344 
L 205.399874 81.933784 
L 214.627813 81.200724 
" clip-path="url(#p5691eba749)" style="fill: none; stroke: #b2b2b2; stroke-width: 0.8; stroke-linecap: square"/>
   </g>
   <g id="line2d_110">
    <path d="M 52.848943 33.611198 
L 69.616659 21.80226 
L 81.513542 27.62531 
L 90.741481 33.554931 
L 98.281257 35.811763 
L 110.17814 37.29197 
L 119.406079 38.738086 
L 136.173794 55.099421 
L 148.070677 63.327547 
L 158.920561 73.7497 
L 164.838392 72.899525 
L 176.735276 84.98484 
L 193.502991 91.171334 
L 205.399874 91.854299 
L 214.627813 98.76959 
" clip-path="url(#p5691eba749)" style="fill: none; stroke: #b2b2b2; stroke-width: 0.8; stroke-linecap: square"/>
   </g>
   <g id="line2d_111">
    <path d="M 52.848943 43.231626 
L 69.616659 39.805436 
L 81.513542 37.413168 
L 90.741481 36.299402 
L 98.281257 40.560504 
L 110.17814 41.334191 
L 119.406079 44.431001 
L 136.173794 48.912953 
L 148.070677 46.29817 
L 158.920561 50.959833 
L 164.838392 57.963074 
L 176.735276 59.737203 
L 193.502991 49.518911 
L 205.399874 73.528692 
L 214.627813 79.709352 
" clip-path="url(#p5691eba749)" style="fill: none; stroke: #b2b2b2; stroke-width: 0.8; stroke-linecap: square"/>
   </g>
   <g id="line2d_112">
    <path d="M 52.848943 56.68914 
L 69.616659 49.909211 
L 81.513542 50.941149 
L 90.741481 45.130911 
L 98.281257 45.620391 
L 110.17814 46.520887 
L 119.406079 47.749461 
L 136.173794 49.613834 
L 148.070677 38.855039 
L 158.920561 37.599081 
L 164.838392 38.688925 
L 176.735276 34.758544 
L 193.502991 36.010379 
L 205.399874 30.839884 
L 214.627813 35.59774 
" clip-path="url(#p5691eba749)" style="fill: none; stroke: #b2b2b2; stroke-width: 0.8; stroke-linecap: square"/>
   </g>
   <g id="line2d_113">
    <path d="M 52.848943 55.08904 
L 69.616659 47.572712 
L 81.513542 43.624327 
L 90.741481 45.860553 
L 98.281257 45.063968 
L 110.17814 47.144822 
L 119.406079 47.710631 
L 136.173794 47.201967 
L 148.070677 39.045853 
L 158.920561 41.112209 
L 164.838392 48.117986 
L 176.735276 53.222111 
L 193.502991 61.6704 
L 205.399874 62.524367 
L 214.627813 77.978937 
" clip-path="url(#p5691eba749)" style="fill: none; stroke: #b2b2b2; stroke-width: 0.8; stroke-linecap: square"/>
   </g>
   <g id="line2d_114">
    <path d="M 52.848943 35.257999 
L 69.616659 28.019707 
L 81.513542 28.509119 
L 90.741481 33.611341 
L 98.281257 44.341763 
L 110.17814 35.251946 
L 119.406079 37.37883 
L 136.173794 46.44416 
L 148.070677 60.121533 
L 158.920561 61.014933 
L 164.838392 74.905686 
L 176.735276 79.970001 
L 193.502991 105.809755 
L 205.399874 115.096258 
L 214.627813 126.615701 
" clip-path="url(#p5691eba749)" style="fill: none; stroke: #b2b2b2; stroke-width: 0.8; stroke-linecap: square"/>
   </g>
   <g id="line2d_115">
    <path d="M 52.848943 22.873402 
L 69.616659 20.60873 
L 81.513542 23.915884 
L 90.741481 29.246532 
L 98.281257 31.72024 
L 110.17814 44.113473 
L 119.406079 43.752882 
L 136.173794 51.336777 
L 148.070677 61.380157 
L 158.920561 59.245614 
L 164.838392 58.664117 
L 176.735276 56.784932 
L 193.502991 62.439767 
L 205.399874 62.794105 
L 214.627813 67.344125 
" clip-path="url(#p5691eba749)" style="fill: none; stroke: #b2b2b2; stroke-width: 0.8; stroke-linecap: square"/>
   </g>
   <g id="line2d_116">
    <path d="M 52.848943 33.335291 
L 69.616659 29.653344 
L 81.513542 33.885331 
L 90.741481 30.343796 
L 98.281257 35.116633 
L 110.17814 25.464339 
L 119.406079 36.366624 
L 136.173794 58.054332 
L 148.070677 59.895392 
L 158.920561 76.534516 
L 164.838392 72.866084 
L 176.735276 81.42116 
L 193.502991 72.307038 
L 205.399874 83.650092 
L 214.627813 93.44586 
" clip-path="url(#p5691eba749)" style="fill: none; stroke: #b2b2b2; stroke-width: 0.8; stroke-linecap: square"/>
   </g>
   <g id="line2d_117">
    <path d="M 52.848943 37.640422 
L 69.616659 33.903831 
L 81.513542 29.815942 
L 90.741481 31.380274 
L 98.281257 33.368103 
L 110.17814 37.623891 
L 119.406079 36.900244 
L 136.173794 54.14848 
L 148.070677 56.595638 
L 158.920561 59.778028 
L 164.838392 60.99959 
L 176.735276 73.025194 
L 193.502991 67.562785 
L 205.399874 79.008912 
L 214.627813 71.315444 
" clip-path="url(#p5691eba749)" style="fill: none; stroke: #b2b2b2; stroke-width: 0.8; stroke-linecap: square"/>
   </g>
   <g id="line2d_118">
    <path d="M 52.848943 34.575718 
L 69.616659 23.883933 
L 81.513542 34.179629 
L 90.741481 41.58451 
L 98.281257 41.161607 
L 110.17814 44.873455 
L 119.406079 42.601636 
L 136.173794 48.867302 
L 148.070677 47.208804 
L 158.920561 57.754461 
L 164.838392 54.956476 
L 176.735276 55.521289 
L 193.502991 76.727556 
L 205.399874 92.418284 
L 214.627813 95.669152 
" clip-path="url(#p5691eba749)" style="fill: none; stroke: #b2b2b2; stroke-width: 0.8; stroke-linecap: square"/>
   </g>
   <g id="line2d_119">
    <path d="M 52.848943 25.071612 
L 69.616659 25.915515 
L 81.513542 25.025062 
L 90.741481 31.329988 
L 98.281257 38.002809 
L 110.17814 41.805948 
L 119.406079 43.902808 
L 136.173794 47.821532 
L 148.070677 64.38438 
L 158.920561 62.666583 
L 164.838392 67.682679 
L 176.735276 70.880017 
L 193.502991 84.774565 
L 205.399874 85.752554 
L 214.627813 93.120718 
" clip-path="url(#p5691eba749)" style="fill: none; stroke: #b2b2b2; stroke-width: 0.8; stroke-linecap: square"/>
   </g>
   <g id="line2d_120">
    <path d="M 52.848943 58.001433 
L 69.616659 57.312203 
L 81.513542 54.868588 
L 90.741481 44.057897 
L 98.281257 49.236107 
L 110.17814 43.22954 
L 119.406079 42.866788 
L 136.173794 47.154385 
L 148.070677 38.493665 
L 158.920561 48.362242 
L 164.838392 45.056332 
L 176.735276 41.961213 
L 193.502991 54.47547 
L 205.399874 72.172069 
L 214.627813 71.673423 
" clip-path="url(#p5691eba749)" style="fill: none; stroke: #b2b2b2; stroke-width: 0.8; stroke-linecap: square"/>
   </g>
   <g id="line2d_121">
    <path d="M 52.848943 31.952986 
L 69.616659 38.512044 
L 81.513542 34.353213 
L 90.741481 36.976665 
L 98.281257 46.626189 
L 110.17814 44.371982 
L 119.406079 44.498262 
L 136.173794 44.393629 
L 148.070677 55.038112 
L 158.920561 71.802609 
L 164.838392 72.385773 
L 176.735276 80.092368 
L 193.502991 93.668618 
L 205.399874 95.895735 
L 214.627813 95.968936 
" clip-path="url(#p5691eba749)" style="fill: none; stroke: #b2b2b2; stroke-width: 0.8; stroke-linecap: square"/>
   </g>
   <g id="line2d_122">
    <path d="M 52.848943 36.032722 
L 69.616659 33.145928 
L 81.513542 33.983786 
L 90.741481 36.41313 
L 98.281257 33.680153 
L 110.17814 37.412928 
L 119.406079 43.423376 
L 136.173794 49.326427 
L 148.070677 63.351845 
L 158.920561 71.471087 
L 164.838392 82.764056 
L 176.735276 79.403478 
L 193.502991 100.506778 
L 205.399874 102.505697 
L 214.627813 113.618459 
" clip-path="url(#p5691eba749)" style="fill: none; stroke: #b2b2b2; stroke-width: 0.8; stroke-linecap: square"/>
   </g>
   <g id="line2d_123">
    <path d="M 52.848943 52.027306 
L 69.616659 48.774107 
L 81.513542 44.465814 
L 90.741481 37.693349 
L 98.281257 41.299675 
L 110.17814 44.199385 
L 119.406079 44.240634 
L 136.173794 50.455391 
L 148.070677 47.946373 
L 158.920561 53.733945 
L 164.838392 60.462034 
L 176.735276 77.90931 
L 193.502991 86.123133 
L 205.399874 82.332681 
L 214.627813 90.156766 
" clip-path="url(#p5691eba749)" style="fill: none; stroke: #b2b2b2; stroke-width: 0.8; stroke-linecap: square"/>
   </g>
   <g id="line2d_124">
    <path d="M 52.848943 31.532807 
L 69.616659 30.910554 
L 81.513542 32.225604 
L 90.741481 39.486103 
L 98.281257 36.857138 
L 110.17814 47.552583 
L 119.406079 49.236546 
L 136.173794 53.265285 
L 148.070677 51.971953 
L 158.920561 56.99822 
L 164.838392 51.971609 
L 176.735276 46.778091 
L 193.502991 63.062069 
L 205.399874 82.132766 
L 214.627813 86.061066 
" clip-path="url(#p5691eba749)" style="fill: none; stroke: #b2b2b2; stroke-width: 0.8; stroke-linecap: square"/>
   </g>
   <g id="line2d_125">
    <path d="M 52.848943 24.779307 
L 69.616659 28.668031 
L 81.513542 27.275014 
L 90.741481 29.263743 
L 98.281257 31.919427 
L 110.17814 42.005296 
L 119.406079 47.054924 
L 136.173794 54.034786 
L 148.070677 63.279086 
L 158.920561 58.397153 
L 164.838392 61.563711 
L 176.735276 65.831259 
L 193.502991 72.492642 
L 205.399874 79.308852 
L 214.627813 81.092547 
" clip-path="url(#p5691eba749)" style="fill: none; stroke: #b2b2b2; stroke-width: 0.8; stroke-linecap: square"/>
   </g>
   <g id="line2d_126">
    <path d="M 52.848943 23.3926 
L 69.616659 22.498426 
L 81.513542 19.827103 
L 90.741481 32.346185 
L 98.281257 37.184412 
L 110.17814 42.463375 
L 119.406079 45.253695 
L 136.173794 53.432618 
L 148.070677 56.447699 
L 158.920561 66.453227 
L 164.838392 67.635986 
L 176.735276 67.775668 
L 193.502991 74.688824 
L 205.399874 87.710793 
L 214.627813 94.473402 
" clip-path="url(#p5691eba749)" style="fill: none; stroke: #b2b2b2; stroke-width: 0.8; stroke-linecap: square"/>
   </g>
   <g id="line2d_127">
    <path d="M 52.848943 31.267035 
L 69.616659 19.254334 
L 81.513542 27.10663 
L 90.741481 31.712145 
L 98.281257 41.726934 
L 110.17814 39.227071 
L 119.406079 47.042713 
L 136.173794 50.253743 
L 148.070677 61.289332 
L 158.920561 49.975289 
L 164.838392 55.788535 
L 176.735276 66.949134 
L 193.502991 84.584373 
L 205.399874 85.382608 
L 214.627813 88.146196 
" clip-path="url(#p5691eba749)" style="fill: none; stroke: #b2b2b2; stroke-width: 0.8; stroke-linecap: square"/>
   </g>
   <g id="line2d_128">
    <path d="M 52.848943 40.797903 
L 69.616659 30.48419 
L 81.513542 24.746237 
L 90.741481 33.835497 
L 98.281257 34.489572 
L 110.17814 42.874469 
L 119.406079 45.893232 
L 136.173794 43.568387 
L 148.070677 60.793727 
L 158.920561 72.957809 
L 164.838392 72.873459 
L 176.735276 72.452303 
L 193.502991 79.864378 
L 205.399874 86.950365 
L 214.627813 91.27408 
" clip-path="url(#p5691eba749)" style="fill: none; stroke: #b2b2b2; stroke-width: 0.8; stroke-linecap: square"/>
   </g>
   <g id="line2d_129">
    <path d="M 52.848943 54.798895 
L 69.616659 52.984496 
L 81.513542 45.632441 
L 90.741481 42.899331 
L 98.281257 42.914499 
L 110.17814 44.139504 
L 119.406079 41.206853 
L 136.173794 44.848135 
L 148.070677 50.343926 
L 158.920561 60.934918 
L 164.838392 66.699503 
L 176.735276 74.722889 
L 193.502991 95.897628 
L 205.399874 102.940576 
L 214.627813 109.504387 
" clip-path="url(#p5691eba749)" style="fill: none; stroke: #b2b2b2; stroke-width: 0.8; stroke-linecap: square"/>
   </g>
   <g id="line2d_130">
    <path d="M 52.848943 32.95479 
L 69.616659 16.646534 
L 81.513542 23.064161 
L 90.741481 24.489503 
L 98.281257 30.813175 
L 110.17814 36.349953 
L 119.406079 43.70776 
L 136.173794 56.392363 
L 148.070677 61.594229 
L 158.920561 61.406837 
L 164.838392 61.483675 
L 176.735276 63.526198 
L 193.502991 63.796055 
L 205.399874 70.627772 
L 214.627813 67.553258 
" clip-path="url(#p5691eba749)" style="fill: none; stroke: #b2b2b2; stroke-width: 0.8; stroke-linecap: square"/>
   </g>
   <g id="line2d_131">
    <path d="M 52.848943 61.059639 
L 69.616659 58.258045 
L 81.513542 53.78933 
L 90.741481 48.374973 
L 98.281257 44.805311 
L 110.17814 40.993427 
L 119.406079 44.790242 
L 136.173794 42.353892 
L 148.070677 43.674601 
L 158.920561 41.56326 
L 164.838392 50.052449 
L 176.735276 52.282014 
L 193.502991 78.458791 
L 205.399874 83.83617 
L 214.627813 91.033921 
" clip-path="url(#p5691eba749)" style="fill: none; stroke: #b2b2b2; stroke-width: 0.8; stroke-linecap: square"/>
   </g>
   <g id="line2d_132">
    <path d="M 52.848943 33.302491 
L 69.616659 35.248174 
L 81.513542 32.600731 
L 90.741481 32.970015 
L 98.281257 34.179629 
L 110.17814 40.644948 
L 119.406079 45.180021 
L 136.173794 53.814326 
L 148.070677 50.866423 
L 158.920561 48.104016 
L 164.838392 44.896306 
L 176.735276 55.810934 
L 193.502991 64.849876 
L 205.399874 68.455755 
L 214.627813 78.066716 
" clip-path="url(#p5691eba749)" style="fill: none; stroke: #b2b2b2; stroke-width: 0.8; stroke-linecap: square"/>
   </g>
   <g id="line2d_133">
    <path d="M 52.848943 35.787208 
L 69.616659 26.184079 
L 81.513542 25.260621 
L 90.741481 39.4728 
L 98.281257 39.336647 
L 110.17814 43.633304 
L 119.406079 39.306081 
L 136.173794 51.623972 
L 148.070677 60.191022 
L 158.920561 70.590967 
L 164.838392 62.799991 
L 176.735276 62.908814 
L 193.502991 58.956814 
L 205.399874 56.931109 
L 214.627813 58.730837 
" clip-path="url(#p5691eba749)" style="fill: none; stroke: #b2b2b2; stroke-width: 0.8; stroke-linecap: square"/>
   </g>
   <g id="line2d_134">
    <path d="M 52.848943 35.416369 
L 69.616659 21.055166 
L 81.513542 27.718656 
L 90.741481 30.594312 
L 98.281257 28.970731 
L 110.17814 44.003625 
L 119.406079 48.131351 
L 136.173794 54.007736 
L 148.070677 61.022962 
L 158.920561 58.578612 
L 164.838392 58.655311 
L 176.735276 64.676424 
L 193.502991 63.315785 
L 205.399874 66.270681 
L 214.627813 61.818226 
" clip-path="url(#p5691eba749)" style="fill: none; stroke: #b2b2b2; stroke-width: 0.8; stroke-linecap: square"/>
   </g>
   <g id="line2d_135">
    <path d="M 52.848943 40.70187 
L 69.616659 33.791821 
L 81.513542 32.510076 
L 90.741481 35.399602 
L 98.281257 26.70986 
L 110.17814 36.665867 
L 119.406079 35.71961 
L 136.173794 53.29654 
L 148.070677 61.583084 
L 158.920561 62.587727 
L 164.838392 61.145499 
L 176.735276 70.675164 
L 193.502991 82.496334 
L 205.399874 93.836452 
L 214.627813 102.787972 
" clip-path="url(#p5691eba749)" style="fill: none; stroke: #b2b2b2; stroke-width: 0.8; stroke-linecap: square"/>
   </g>
   <g id="line2d_136">
    <path d="M 52.848943 47.383645 
L 69.616659 44.845699 
L 81.513542 35.867501 
L 90.741481 32.6881 
L 98.281257 30.619207 
L 110.17814 31.876702 
L 119.406079 40.657556 
L 136.173794 50.144162 
L 148.070677 56.071141 
L 158.920561 61.850996 
L 164.838392 66.041881 
L 176.735276 70.95182 
L 193.502991 76.387856 
L 205.399874 75.171457 
L 214.627813 80.077678 
" clip-path="url(#p5691eba749)" style="fill: none; stroke: #b2b2b2; stroke-width: 0.8; stroke-linecap: square"/>
   </g>
   <g id="line2d_137">
    <path d="M 52.848943 38.995953 
L 69.616659 35.344845 
L 81.513542 35.238119 
L 90.741481 36.965143 
L 98.281257 38.680768 
L 110.17814 41.891588 
L 119.406079 44.220306 
L 136.173794 49.845419 
L 148.070677 53.894731 
L 158.920561 57.938409 
L 164.838392 60.162821 
L 176.735276 65.750705 
L 193.502991 75.263979 
L 205.399874 82.351609 
L 214.627813 89.404636 
" clip-path="url(#p5691eba749)" style="fill: none; stroke: #ff0000; stroke-width: 2; stroke-linecap: square"/>
   </g>
   <g id="line2d_138">
    <path d="M 52.848943 19.552052 
L 69.616659 15.677934 
L 81.513542 17.339337 
L 90.741481 20.868855 
L 98.281257 24.641938 
L 110.17814 30.330797 
L 119.406079 34.29034 
L 136.173794 40.257391 
L 148.070677 40.093841 
L 158.920561 38.678537 
L 164.838392 38.05238 
L 176.735276 38.17973 
L 193.502991 40.622338 
L 205.399874 44.266256 
L 214.627813 48.832145 
" clip-path="url(#p5691eba749)" style="fill: none; stroke-dasharray: 7.4,3.2; stroke-dashoffset: 0; stroke: #ff0000; stroke-width: 2"/>
   </g>
   <g id="line2d_139">
    <path d="M 52.848943 58.439854 
L 69.616659 55.011756 
L 81.513542 53.1369 
L 90.741481 53.061431 
L 98.281257 52.719597 
L 110.17814 53.452379 
L 119.406079 54.150272 
L 136.173794 59.433447 
L 148.070677 67.69562 
L 158.920561 77.19828 
L 164.838392 82.273262 
L 176.735276 93.32168 
L 193.502991 109.905621 
L 205.399874 120.436962 
L 214.627813 129.977126 
" clip-path="url(#p5691eba749)" style="fill: none; stroke-dasharray: 7.4,3.2; stroke-dashoffset: 0; stroke: #ff0000; stroke-width: 2"/>
   </g>
   <g id="line2d_140">
    <path d="M 52.848943 39.066633 
L 69.616659 35.36621 
L 81.513542 35.114741 
L 90.741481 36.986591 
L 98.281257 38.697961 
L 110.17814 41.815115 
L 119.406079 44.300707 
L 136.173794 49.761928 
L 148.070677 53.979478 
L 158.920561 57.887044 
L 164.838392 60.034163 
L 176.735276 65.739182 
L 193.502991 75.492498 
L 205.399874 82.273762 
L 214.627813 89.481481 
" clip-path="url(#p5691eba749)" style="fill: none; stroke: #0000ff; stroke-width: 2; stroke-linecap: square"/>
   </g>
   <g id="line2d_141">
    <path d="M 52.848943 19.839754 
L 69.616659 15.666674 
L 81.513542 17.24295 
L 90.741481 20.818075 
L 98.281257 24.412376 
L 110.17814 30.308301 
L 119.406079 34.40795 
L 136.173794 40.268178 
L 148.070677 40.267538 
L 158.920561 38.511991 
L 164.838392 38.12099 
L 176.735276 38.165827 
L 193.502991 40.918515 
L 205.399874 44.338769 
L 214.627813 49.079073 
" clip-path="url(#p5691eba749)" style="fill: none; stroke-dasharray: 7.4,3.2; stroke-dashoffset: 0; stroke: #0000ff; stroke-width: 2"/>
   </g>
   <g id="line2d_142">
    <path d="M 52.848943 58.293512 
L 69.616659 55.065747 
L 81.513542 52.986533 
L 90.741481 53.155106 
L 98.281257 52.983547 
L 110.17814 53.32193 
L 119.406079 54.193465 
L 136.173794 59.255678 
L 148.070677 67.691419 
L 158.920561 77.262096 
L 164.838392 81.947335 
L 176.735276 93.312536 
L 193.502991 110.066481 
L 205.399874 120.208755 
L 214.627813 129.883888 
" clip-path="url(#p5691eba749)" style="fill: none; stroke-dasharray: 7.4,3.2; stroke-dashoffset: 0; stroke: #0000ff; stroke-width: 2"/>
   </g>
   <g id="line2d_143"/>
   <g id="patch_3">
    <path d="M 44.76 140.557874 
L 44.76 9.719474 
" style="fill: none; stroke: #000000; stroke-width: 0.8; stroke-linejoin: miter; stroke-linecap: square"/>
   </g>
   <g id="patch_4">
    <path d="M 222.716757 140.557874 
L 222.716757 9.719474 
" style="fill: none; stroke: #000000; stroke-width: 0.8; stroke-linejoin: miter; stroke-linecap: square"/>
   </g>
   <g id="patch_5">
    <path d="M 44.76 140.557874 
L 222.716757 140.557874 
" style="fill: none; stroke: #000000; stroke-width: 0.8; stroke-linejoin: miter; stroke-linecap: square"/>
   </g>
   <g id="patch_6">
    <path d="M 44.76 9.719474 
L 222.716757 9.719474 
" style="fill: none; stroke: #000000; stroke-width: 0.8; stroke-linejoin: miter; stroke-linecap: square"/>
   </g>
   <g id="legend_1">
    <g id="line2d_144">
     <path d="M 51.96 92.369124 
L 59.96 92.369124 
L 67.96 92.369124 
" style="fill: none; stroke: #b2b2b2; stroke-width: 0.8; stroke-linecap: square"/>
    </g>
    <g id="text_8">
     <!-- Individual records -->
     <g transform="translate(74.36 95.169124) scale(0.08 -0.08)">
      <defs>
       <path id="DejaVuSans-49" d="M 628 4666 
L 1259 4666 
L 1259 0 
L 628 0 
L 628 4666 
z
" transform="scale(0.015625)"/>
       <path id="DejaVuSans-76" d="M 191 3500 
L 800 3500 
L 1894 563 
L 2988 3500 
L 3597 3500 
L 2284 0 
L 1503 0 
L 191 3500 
z
" transform="scale(0.015625)"/>
       <path id="DejaVuSans-75" d="M 544 1381 
L 544 3500 
L 1119 3500 
L 1119 1403 
Q 1119 906 1312 657 
Q 1506 409 1894 409 
Q 2359 409 2629 706 
Q 2900 1003 2900 1516 
L 2900 3500 
L 3475 3500 
L 3475 0 
L 2900 0 
L 2900 538 
Q 2691 219 2414 64 
Q 2138 -91 1772 -91 
Q 1169 -91 856 284 
Q 544 659 544 1381 
z
M 1991 3584 
L 1991 3584 
z
" transform="scale(0.015625)"/>
      </defs>
      <use xlink:href="#DejaVuSans-49"/>
      <use xlink:href="#DejaVuSans-6e" x="29.492188"/>
      <use xlink:href="#DejaVuSans-64" x="92.871094"/>
      <use xlink:href="#DejaVuSans-69" x="156.347656"/>
      <use xlink:href="#DejaVuSans-76" x="184.130859"/>
      <use xlink:href="#DejaVuSans-69" x="243.310547"/>
      <use xlink:href="#DejaVuSans-64" x="271.09375"/>
      <use xlink:href="#DejaVuSans-75" x="334.570312"/>
      <use xlink:href="#DejaVuSans-61" x="397.949219"/>
      <use xlink:href="#DejaVuSans-6c" x="459.228516"/>
      <use xlink:href="#DejaVuSans-20" x="487.011719"/>
      <use xlink:href="#DejaVuSans-72" x="518.798828"/>
      <use xlink:href="#DejaVuSans-65" x="557.662109"/>
      <use xlink:href="#DejaVuSans-63" x="619.185547"/>
      <use xlink:href="#DejaVuSans-6f" x="674.166016"/>
      <use xlink:href="#DejaVuSans-72" x="735.347656"/>
      <use xlink:href="#DejaVuSans-64" x="774.710938"/>
      <use xlink:href="#DejaVuSans-73" x="838.1875"/>
     </g>
    </g>
    <g id="line2d_145">
     <path d="M 51.96 104.111624 
L 59.96 104.111624 
L 67.96 104.111624 
" style="fill: none; stroke: #ff0000; stroke-width: 2; stroke-linecap: square"/>
    </g>
    <g id="text_9">
     <!-- Target -->
     <g transform="translate(74.36 106.911624) scale(0.08 -0.08)">
      <defs>
       <path id="DejaVuSans-54" d="M -19 4666 
L 3928 4666 
L 3928 4134 
L 2272 4134 
L 2272 0 
L 1638 0 
L 1638 4134 
L -19 4134 
L -19 4666 
z
" transform="scale(0.015625)"/>
      </defs>
      <use xlink:href="#DejaVuSans-54"/>
      <use xlink:href="#DejaVuSans-61" x="44.583984"/>
      <use xlink:href="#DejaVuSans-72" x="105.863281"/>
      <use xlink:href="#DejaVuSans-67" x="145.226562"/>
      <use xlink:href="#DejaVuSans-65" x="208.703125"/>
      <use xlink:href="#DejaVuSans-74" x="270.226562"/>
     </g>
    </g>
    <g id="line2d_146">
     <path d="M 51.96 115.854124 
L 59.96 115.854124 
L 67.96 115.854124 
" style="fill: none; stroke: #0000ff; stroke-width: 2; stroke-linecap: square"/>
    </g>
    <g id="text_10">
     <!-- Selected -->
     <g transform="translate(74.36 118.654124) scale(0.08 -0.08)">
      <use xlink:href="#DejaVuSans-53"/>
      <use xlink:href="#DejaVuSans-65" x="63.476562"/>
      <use xlink:href="#DejaVuSans-6c" x="125"/>
      <use xlink:href="#DejaVuSans-65" x="152.783203"/>
      <use xlink:href="#DejaVuSans-63" x="214.306641"/>
      <use xlink:href="#DejaVuSans-74" x="269.287109"/>
      <use xlink:href="#DejaVuSans-65" x="308.496094"/>
      <use xlink:href="#DejaVuSans-64" x="370.019531"/>
     </g>
    </g>
    <g id="line2d_147">
     <path d="M 51.96 128.877874 
L 59.96 128.877874 
L 67.96 128.877874 
" style="fill: none; stroke-dasharray: 5.55,2.4; stroke-dashoffset: 0; stroke: #000000; stroke-width: 1.5"/>
    </g>
    <g id="text_11">
     <!-- $2^{nd}$ and $98^{th}$ percentiles -->
     <g transform="translate(74.36 131.677874) scale(0.08 -0.08)">
      <defs>
       <path id="DejaVuSans-Oblique-6e" d="M 3566 2113 
L 3156 0 
L 2578 0 
L 2988 2091 
Q 3016 2238 3031 2350 
Q 3047 2463 3047 2528 
Q 3047 2791 2881 2937 
Q 2716 3084 2419 3084 
Q 1956 3084 1622 2776 
Q 1288 2469 1184 1941 
L 800 0 
L 225 0 
L 903 3500 
L 1478 3500 
L 1363 2950 
Q 1603 3253 1940 3418 
Q 2278 3584 2650 3584 
Q 3113 3584 3367 3334 
Q 3622 3084 3622 2631 
Q 3622 2519 3608 2391 
Q 3594 2263 3566 2113 
z
" transform="scale(0.015625)"/>
       <path id="DejaVuSans-Oblique-64" d="M 2675 525 
Q 2444 222 2128 65 
Q 1813 -91 1428 -91 
Q 903 -91 598 267 
Q 294 625 294 1247 
Q 294 1766 478 2236 
Q 663 2706 1013 3078 
Q 1244 3325 1534 3454 
Q 1825 3584 2144 3584 
Q 2481 3584 2739 3421 
Q 2997 3259 3138 2956 
L 3513 4863 
L 4091 4863 
L 3144 0 
L 2566 0 
L 2675 525 
z
M 891 1350 
Q 891 897 1095 644 
Q 1300 391 1663 391 
Q 1931 391 2161 520 
Q 2391 650 2566 903 
Q 2750 1166 2856 1509 
Q 2963 1853 2963 2188 
Q 2963 2622 2758 2865 
Q 2553 3109 2194 3109 
Q 1922 3109 1687 2981 
Q 1453 2853 1288 2613 
Q 1106 2353 998 2009 
Q 891 1666 891 1350 
z
" transform="scale(0.015625)"/>
       <path id="DejaVuSans-39" d="M 703 97 
L 703 672 
Q 941 559 1184 500 
Q 1428 441 1663 441 
Q 2288 441 2617 861 
Q 2947 1281 2994 2138 
Q 2813 1869 2534 1725 
Q 2256 1581 1919 1581 
Q 1219 1581 811 2004 
Q 403 2428 403 3163 
Q 403 3881 828 4315 
Q 1253 4750 1959 4750 
Q 2769 4750 3195 4129 
Q 3622 3509 3622 2328 
Q 3622 1225 3098 567 
Q 2575 -91 1691 -91 
Q 1453 -91 1209 -44 
Q 966 3 703 97 
z
M 1959 2075 
Q 2384 2075 2632 2365 
Q 2881 2656 2881 3163 
Q 2881 3666 2632 3958 
Q 2384 4250 1959 4250 
Q 1534 4250 1286 3958 
Q 1038 3666 1038 3163 
Q 1038 2656 1286 2365 
Q 1534 2075 1959 2075 
z
" transform="scale(0.015625)"/>
       <path id="DejaVuSans-38" d="M 2034 2216 
Q 1584 2216 1326 1975 
Q 1069 1734 1069 1313 
Q 1069 891 1326 650 
Q 1584 409 2034 409 
Q 2484 409 2743 651 
Q 3003 894 3003 1313 
Q 3003 1734 2745 1975 
Q 2488 2216 2034 2216 
z
M 1403 2484 
Q 997 2584 770 2862 
Q 544 3141 544 3541 
Q 544 4100 942 4425 
Q 1341 4750 2034 4750 
Q 2731 4750 3128 4425 
Q 3525 4100 3525 3541 
Q 3525 3141 3298 2862 
Q 3072 2584 2669 2484 
Q 3125 2378 3379 2068 
Q 3634 1759 3634 1313 
Q 3634 634 3220 271 
Q 2806 -91 2034 -91 
Q 1263 -91 848 271 
Q 434 634 434 1313 
Q 434 1759 690 2068 
Q 947 2378 1403 2484 
z
M 1172 3481 
Q 1172 3119 1398 2916 
Q 1625 2713 2034 2713 
Q 2441 2713 2670 2916 
Q 2900 3119 2900 3481 
Q 2900 3844 2670 4047 
Q 2441 4250 2034 4250 
Q 1625 4250 1398 4047 
Q 1172 3844 1172 3481 
z
" transform="scale(0.015625)"/>
       <path id="DejaVuSans-Oblique-74" d="M 2706 3500 
L 2619 3053 
L 1472 3053 
L 1100 1153 
Q 1081 1047 1072 975 
Q 1063 903 1063 863 
Q 1063 663 1183 572 
Q 1303 481 1569 481 
L 2150 481 
L 2053 0 
L 1503 0 
Q 991 0 739 200 
Q 488 400 488 806 
Q 488 878 497 964 
Q 506 1050 525 1153 
L 897 3053 
L 409 3053 
L 500 3500 
L 978 3500 
L 1172 4494 
L 1747 4494 
L 1556 3500 
L 2706 3500 
z
" transform="scale(0.015625)"/>
       <path id="DejaVuSans-Oblique-68" d="M 3566 2113 
L 3156 0 
L 2578 0 
L 2988 2091 
Q 3016 2238 3031 2350 
Q 3047 2463 3047 2528 
Q 3047 2791 2881 2937 
Q 2716 3084 2419 3084 
Q 1956 3084 1617 2771 
Q 1278 2459 1178 1941 
L 800 0 
L 225 0 
L 1172 4863 
L 1747 4863 
L 1375 2950 
Q 1594 3244 1934 3414 
Q 2275 3584 2650 3584 
Q 3113 3584 3367 3334 
Q 3622 3084 3622 2631 
Q 3622 2519 3608 2391 
Q 3594 2263 3566 2113 
z
" transform="scale(0.015625)"/>
      </defs>
      <use xlink:href="#DejaVuSans-32" transform="translate(0 0.529687)"/>
      <use xlink:href="#DejaVuSans-Oblique-6e" transform="translate(64.580078 38.810937) scale(0.7)"/>
      <use xlink:href="#DejaVuSans-Oblique-64" transform="translate(108.945312 38.810937) scale(0.7)"/>
      <use xlink:href="#DejaVuSans-20" transform="translate(156.113281 0.529687)"/>
      <use xlink:href="#DejaVuSans-61" transform="translate(187.900391 0.529687)"/>
      <use xlink:href="#DejaVuSans-6e" transform="translate(249.179688 0.529687)"/>
      <use xlink:href="#DejaVuSans-64" transform="translate(312.558594 0.529687)"/>
      <use xlink:href="#DejaVuSans-20" transform="translate(376.035156 0.529687)"/>
      <use xlink:href="#DejaVuSans-39" transform="translate(407.822266 0.529687)"/>
      <use xlink:href="#DejaVuSans-38" transform="translate(471.445312 0.529687)"/>
      <use xlink:href="#DejaVuSans-Oblique-74" transform="translate(536.025391 38.810937) scale(0.7)"/>
      <use xlink:href="#DejaVuSans-Oblique-68" transform="translate(563.47168 38.810937) scale(0.7)"/>
      <use xlink:href="#DejaVuSans-20" transform="translate(610.571289 0.529687)"/>
      <use xlink:href="#DejaVuSans-70" transform="translate(642.358398 0.529687)"/>
      <use xlink:href="#DejaVuSans-65" transform="translate(705.834961 0.529687)"/>
      <use xlink:href="#DejaVuSans-72" transform="translate(767.358398 0.529687)"/>
      <use xlink:href="#DejaVuSans-63" transform="translate(808.47168 0.529687)"/>
      <use xlink:href="#DejaVuSans-65" transform="translate(863.452148 0.529687)"/>
      <use xlink:href="#DejaVuSans-6e" transform="translate(924.975586 0.529687)"/>
      <use xlink:href="#DejaVuSans-74" transform="translate(988.354492 0.529687)"/>
      <use xlink:href="#DejaVuSans-69" transform="translate(1027.563477 0.529687)"/>
      <use xlink:href="#DejaVuSans-6c" transform="translate(1055.34668 0.529687)"/>
      <use xlink:href="#DejaVuSans-65" transform="translate(1083.129883 0.529687)"/>
      <use xlink:href="#DejaVuSans-73" transform="translate(1144.65332 0.529687)"/>
     </g>
    </g>
   </g>
  </g>
  <g id="axes_2">
   <g id="patch_7">
    <path d="M 261.867243 140.557874 
L 439.824 140.557874 
L 439.824 9.719474 
L 261.867243 9.719474 
z
" style="fill: #ffffff"/>
   </g>
   <g id="matplotlib.axis_3">
    <g id="xtick_17">
     <g id="line2d_148">
      <path d="M 269.956187 140.557874 
L 269.956187 9.719474 
" clip-path="url(#pd7b1237559)" style="fill: none; stroke: #d9d9d9; stroke-width: 0.8; stroke-linecap: square"/>
     </g>
     <g id="line2d_149">
      <g>
       <use xlink:href="#m395ccc85d8" x="269.956187" y="140.557874" style="stroke: #000000; stroke-width: 0.8"/>
      </g>
     </g>
     <g id="text_12">
      <!-- $\mathdefault{10^{-1}}$ -->
      <g transform="translate(260.556187 153.636624) scale(0.08 -0.08)">
       <use xlink:href="#DejaVuSans-31" transform="translate(0 0.684375)"/>
       <use xlink:href="#DejaVuSans-30" transform="translate(63.623047 0.684375)"/>
       <use xlink:href="#DejaVuSans-2212" transform="translate(128.203125 38.965625) scale(0.7)"/>
       <use xlink:href="#DejaVuSans-31" transform="translate(186.855469 38.965625) scale(0.7)"/>
      </g>
     </g>
    </g>
    <g id="xtick_18">
     <g id="line2d_150">
      <path d="M 365.177921 140.557874 
L 365.177921 9.719474 
" clip-path="url(#pd7b1237559)" style="fill: none; stroke: #d9d9d9; stroke-width: 0.8; stroke-linecap: square"/>
     </g>
     <g id="line2d_151">
      <g>
       <use xlink:href="#m395ccc85d8" x="365.177921" y="140.557874" style="stroke: #000000; stroke-width: 0.8"/>
      </g>
     </g>
     <g id="text_13">
      <!-- $\mathdefault{10^{0}}$ -->
      <g transform="translate(358.137921 153.636624) scale(0.08 -0.08)">
       <use xlink:href="#DejaVuSans-31" transform="translate(0 0.765625)"/>
       <use xlink:href="#DejaVuSans-30" transform="translate(63.623047 0.765625)"/>
       <use xlink:href="#DejaVuSans-30" transform="translate(128.203125 39.046875) scale(0.7)"/>
      </g>
     </g>
    </g>
    <g id="xtick_19">
     <g id="line2d_152">
      <path d="M 265.599079 140.557874 
L 265.599079 9.719474 
" clip-path="url(#pd7b1237559)" style="fill: none; stroke-dasharray: 2.96,1.28; stroke-dashoffset: 0; stroke: #f2f2f2; stroke-width: 0.8"/>
     </g>
     <g id="line2d_153">
      <g>
       <use xlink:href="#m960d258281" x="265.599079" y="140.557874" style="stroke: #000000; stroke-width: 0.6"/>
      </g>
     </g>
    </g>
    <g id="xtick_20">
     <g id="line2d_154">
      <path d="M 298.620785 140.557874 
L 298.620785 9.719474 
" clip-path="url(#pd7b1237559)" style="fill: none; stroke-dasharray: 2.96,1.28; stroke-dashoffset: 0; stroke: #f2f2f2; stroke-width: 0.8"/>
     </g>
     <g id="line2d_155">
      <g>
       <use xlink:href="#m960d258281" x="298.620785" y="140.557874" style="stroke: #000000; stroke-width: 0.6"/>
      </g>
     </g>
    </g>
    <g id="xtick_21">
     <g id="line2d_156">
      <path d="M 315.3885 140.557874 
L 315.3885 9.719474 
" clip-path="url(#pd7b1237559)" style="fill: none; stroke-dasharray: 2.96,1.28; stroke-dashoffset: 0; stroke: #f2f2f2; stroke-width: 0.8"/>
     </g>
     <g id="line2d_157">
      <g>
       <use xlink:href="#m960d258281" x="315.3885" y="140.557874" style="stroke: #000000; stroke-width: 0.6"/>
      </g>
     </g>
    </g>
    <g id="xtick_22">
     <g id="line2d_158">
      <path d="M 327.285383 140.557874 
L 327.285383 9.719474 
" clip-path="url(#pd7b1237559)" style="fill: none; stroke-dasharray: 2.96,1.28; stroke-dashoffset: 0; stroke: #f2f2f2; stroke-width: 0.8"/>
     </g>
     <g id="line2d_159">
      <g>
       <use xlink:href="#m960d258281" x="327.285383" y="140.557874" style="stroke: #000000; stroke-width: 0.6"/>
      </g>
     </g>
    </g>
    <g id="xtick_23">
     <g id="line2d_160">
      <path d="M 336.513323 140.557874 
L 336.513323 9.719474 
" clip-path="url(#pd7b1237559)" style="fill: none; stroke-dasharray: 2.96,1.28; stroke-dashoffset: 0; stroke: #f2f2f2; stroke-width: 0.8"/>
     </g>
     <g id="line2d_161">
      <g>
       <use xlink:href="#m960d258281" x="336.513323" y="140.557874" style="stroke: #000000; stroke-width: 0.6"/>
      </g>
     </g>
    </g>
    <g id="xtick_24">
     <g id="line2d_162">
      <path d="M 344.053098 140.557874 
L 344.053098 9.719474 
" clip-path="url(#pd7b1237559)" style="fill: none; stroke-dasharray: 2.96,1.28; stroke-dashoffset: 0; stroke: #f2f2f2; stroke-width: 0.8"/>
     </g>
     <g id="line2d_163">
      <g>
       <use xlink:href="#m960d258281" x="344.053098" y="140.557874" style="stroke: #000000; stroke-width: 0.6"/>
      </g>
     </g>
    </g>
    <g id="xtick_25">
     <g id="line2d_164">
      <path d="M 350.427887 140.557874 
L 350.427887 9.719474 
" clip-path="url(#pd7b1237559)" style="fill: none; stroke-dasharray: 2.96,1.28; stroke-dashoffset: 0; stroke: #f2f2f2; stroke-width: 0.8"/>
     </g>
     <g id="line2d_165">
      <g>
       <use xlink:href="#m960d258281" x="350.427887" y="140.557874" style="stroke: #000000; stroke-width: 0.6"/>
      </g>
     </g>
    </g>
    <g id="xtick_26">
     <g id="line2d_166">
      <path d="M 355.949981 140.557874 
L 355.949981 9.719474 
" clip-path="url(#pd7b1237559)" style="fill: none; stroke-dasharray: 2.96,1.28; stroke-dashoffset: 0; stroke: #f2f2f2; stroke-width: 0.8"/>
     </g>
     <g id="line2d_167">
      <g>
       <use xlink:href="#m960d258281" x="355.949981" y="140.557874" style="stroke: #000000; stroke-width: 0.6"/>
      </g>
     </g>
    </g>
    <g id="xtick_27">
     <g id="line2d_168">
      <path d="M 360.820813 140.557874 
L 360.820813 9.719474 
" clip-path="url(#pd7b1237559)" style="fill: none; stroke-dasharray: 2.96,1.28; stroke-dashoffset: 0; stroke: #f2f2f2; stroke-width: 0.8"/>
     </g>
     <g id="line2d_169">
      <g>
       <use xlink:href="#m960d258281" x="360.820813" y="140.557874" style="stroke: #000000; stroke-width: 0.6"/>
      </g>
     </g>
    </g>
    <g id="xtick_28">
     <g id="line2d_170">
      <path d="M 393.842519 140.557874 
L 393.842519 9.719474 
" clip-path="url(#pd7b1237559)" style="fill: none; stroke-dasharray: 2.96,1.28; stroke-dashoffset: 0; stroke: #f2f2f2; stroke-width: 0.8"/>
     </g>
     <g id="line2d_171">
      <g>
       <use xlink:href="#m960d258281" x="393.842519" y="140.557874" style="stroke: #000000; stroke-width: 0.6"/>
      </g>
     </g>
    </g>
    <g id="xtick_29">
     <g id="line2d_172">
      <path d="M 410.610234 140.557874 
L 410.610234 9.719474 
" clip-path="url(#pd7b1237559)" style="fill: none; stroke-dasharray: 2.96,1.28; stroke-dashoffset: 0; stroke: #f2f2f2; stroke-width: 0.8"/>
     </g>
     <g id="line2d_173">
      <g>
       <use xlink:href="#m960d258281" x="410.610234" y="140.557874" style="stroke: #000000; stroke-width: 0.6"/>
      </g>
     </g>
    </g>
    <g id="xtick_30">
     <g id="line2d_174">
      <path d="M 422.507117 140.557874 
L 422.507117 9.719474 
" clip-path="url(#pd7b1237559)" style="fill: none; stroke-dasharray: 2.96,1.28; stroke-dashoffset: 0; stroke: #f2f2f2; stroke-width: 0.8"/>
     </g>
     <g id="line2d_175">
      <g>
       <use xlink:href="#m960d258281" x="422.507117" y="140.557874" style="stroke: #000000; stroke-width: 0.6"/>
      </g>
     </g>
    </g>
    <g id="xtick_31">
     <g id="line2d_176">
      <path d="M 431.735057 140.557874 
L 431.735057 9.719474 
" clip-path="url(#pd7b1237559)" style="fill: none; stroke-dasharray: 2.96,1.28; stroke-dashoffset: 0; stroke: #f2f2f2; stroke-width: 0.8"/>
     </g>
     <g id="line2d_177">
      <g>
       <use xlink:href="#m960d258281" x="431.735057" y="140.557874" style="stroke: #000000; stroke-width: 0.6"/>
      </g>
     </g>
    </g>
    <g id="xtick_32">
     <g id="line2d_178">
      <path d="M 439.274832 140.557874 
L 439.274832 9.719474 
" clip-path="url(#pd7b1237559)" style="fill: none; stroke-dasharray: 2.96,1.28; stroke-dashoffset: 0; stroke: #f2f2f2; stroke-width: 0.8"/>
     </g>
     <g id="line2d_179">
      <g>
       <use xlink:href="#m960d258281" x="439.274832" y="140.557874" style="stroke: #000000; stroke-width: 0.6"/>
      </g>
     </g>
    </g>
    <g id="text_14">
     <!-- Period, $T$ (s) -->
     <g transform="translate(326.765622 165.379124) scale(0.08 -0.08)">
      <use xlink:href="#DejaVuSans-50" transform="translate(0 0.015625)"/>
      <use xlink:href="#DejaVuSans-65" transform="translate(60.302734 0.015625)"/>
      <use xlink:href="#DejaVuSans-72" transform="translate(121.826172 0.015625)"/>
      <use xlink:href="#DejaVuSans-69" transform="translate(162.939453 0.015625)"/>
      <use xlink:href="#DejaVuSans-6f" transform="translate(190.722656 0.015625)"/>
      <use xlink:href="#DejaVuSans-64" transform="translate(251.904297 0.015625)"/>
      <use xlink:href="#DejaVuSans-2c" transform="translate(315.380859 0.015625)"/>
      <use xlink:href="#DejaVuSans-20" transform="translate(347.167969 0.015625)"/>
      <use xlink:href="#DejaVuSans-Oblique-54" transform="translate(378.955078 0.015625)"/>
      <use xlink:href="#DejaVuSans-20" transform="translate(440.039062 0.015625)"/>
      <use xlink:href="#DejaVuSans-28" transform="translate(471.826172 0.015625)"/>
      <use xlink:href="#DejaVuSans-73" transform="translate(510.839844 0.015625)"/>
      <use xlink:href="#DejaVuSans-29" transform="translate(562.939453 0.015625)"/>
     </g>
    </g>
   </g>
   <g id="matplotlib.axis_4">
    <g id="ytick_28">
     <g id="line2d_180">
      <path d="M 261.867243 112.598615 
L 439.824 112.598615 
" clip-path="url(#pd7b1237559)" style="fill: none; stroke: #d9d9d9; stroke-width: 0.8; stroke-linecap: square"/>
     </g>
     <g id="line2d_181">
      <g>
       <use xlink:href="#m97e9c480df" x="261.867243" y="112.598615" style="stroke: #000000; stroke-width: 0.8"/>
      </g>
     </g>
     <g id="text_15">
      <!-- 0.4 -->
      <g transform="translate(242.144743 115.63799) scale(0.08 -0.08)">
       <defs>
        <path id="DejaVuSans-2e" d="M 684 794 
L 1344 794 
L 1344 0 
L 684 0 
L 684 794 
z
" transform="scale(0.015625)"/>
        <path id="DejaVuSans-34" d="M 2419 4116 
L 825 1625 
L 2419 1625 
L 2419 4116 
z
M 2253 4666 
L 3047 4666 
L 3047 1625 
L 3713 1625 
L 3713 1100 
L 3047 1100 
L 3047 0 
L 2419 0 
L 2419 1100 
L 313 1100 
L 313 1709 
L 2253 4666 
z
" transform="scale(0.015625)"/>
       </defs>
       <use xlink:href="#DejaVuSans-30"/>
       <use xlink:href="#DejaVuSans-2e" x="63.623047"/>
       <use xlink:href="#DejaVuSans-34" x="95.410156"/>
      </g>
     </g>
    </g>
    <g id="ytick_29">
     <g id="line2d_182">
      <path d="M 261.867243 83.42543 
L 439.824 83.42543 
" clip-path="url(#pd7b1237559)" style="fill: none; stroke: #d9d9d9; stroke-width: 0.8; stroke-linecap: square"/>
     </g>
     <g id="line2d_183">
      <g>
       <use xlink:href="#m97e9c480df" x="261.867243" y="83.42543" style="stroke: #000000; stroke-width: 0.8"/>
      </g>
     </g>
     <g id="text_16">
      <!-- 0.6 -->
      <g transform="translate(242.144743 86.464805) scale(0.08 -0.08)">
       <defs>
        <path id="DejaVuSans-36" d="M 2113 2584 
Q 1688 2584 1439 2293 
Q 1191 2003 1191 1497 
Q 1191 994 1439 701 
Q 1688 409 2113 409 
Q 2538 409 2786 701 
Q 3034 994 3034 1497 
Q 3034 2003 2786 2293 
Q 2538 2584 2113 2584 
z
M 3366 4563 
L 3366 3988 
Q 3128 4100 2886 4159 
Q 2644 4219 2406 4219 
Q 1781 4219 1451 3797 
Q 1122 3375 1075 2522 
Q 1259 2794 1537 2939 
Q 1816 3084 2150 3084 
Q 2853 3084 3261 2657 
Q 3669 2231 3669 1497 
Q 3669 778 3244 343 
Q 2819 -91 2113 -91 
Q 1303 -91 875 529 
Q 447 1150 447 2328 
Q 447 3434 972 4092 
Q 1497 4750 2381 4750 
Q 2619 4750 2861 4703 
Q 3103 4656 3366 4563 
z
" transform="scale(0.015625)"/>
       </defs>
       <use xlink:href="#DejaVuSans-30"/>
       <use xlink:href="#DejaVuSans-2e" x="63.623047"/>
       <use xlink:href="#DejaVuSans-36" x="95.410156"/>
      </g>
     </g>
    </g>
    <g id="ytick_30">
     <g id="line2d_184">
      <path d="M 261.867243 54.252246 
L 439.824 54.252246 
" clip-path="url(#pd7b1237559)" style="fill: none; stroke: #d9d9d9; stroke-width: 0.8; stroke-linecap: square"/>
     </g>
     <g id="line2d_185">
      <g>
       <use xlink:href="#m97e9c480df" x="261.867243" y="54.252246" style="stroke: #000000; stroke-width: 0.8"/>
      </g>
     </g>
     <g id="text_17">
      <!-- 0.8 -->
      <g transform="translate(242.144743 57.291621) scale(0.08 -0.08)">
       <use xlink:href="#DejaVuSans-30"/>
       <use xlink:href="#DejaVuSans-2e" x="63.623047"/>
       <use xlink:href="#DejaVuSans-38" x="95.410156"/>
      </g>
     </g>
    </g>
    <g id="ytick_31">
     <g id="line2d_186">
      <path d="M 261.867243 25.079061 
L 439.824 25.079061 
" clip-path="url(#pd7b1237559)" style="fill: none; stroke: #d9d9d9; stroke-width: 0.8; stroke-linecap: square"/>
     </g>
     <g id="line2d_187">
      <g>
       <use xlink:href="#m97e9c480df" x="261.867243" y="25.079061" style="stroke: #000000; stroke-width: 0.8"/>
      </g>
     </g>
     <g id="text_18">
      <!-- 1.0 -->
      <g transform="translate(242.144743 28.118436) scale(0.08 -0.08)">
       <use xlink:href="#DejaVuSans-31"/>
       <use xlink:href="#DejaVuSans-2e" x="63.623047"/>
       <use xlink:href="#DejaVuSans-30" x="95.410156"/>
      </g>
     </g>
    </g>
    <g id="text_19">
     <!-- Logarithmic standard deviation -->
     <g transform="translate(236.480993 137.678674) rotate(-90) scale(0.08 -0.08)">
      <defs>
       <path id="DejaVuSans-4c" d="M 628 4666 
L 1259 4666 
L 1259 531 
L 3531 531 
L 3531 0 
L 628 0 
L 628 4666 
z
" transform="scale(0.015625)"/>
       <path id="DejaVuSans-68" d="M 3513 2113 
L 3513 0 
L 2938 0 
L 2938 2094 
Q 2938 2591 2744 2837 
Q 2550 3084 2163 3084 
Q 1697 3084 1428 2787 
Q 1159 2491 1159 1978 
L 1159 0 
L 581 0 
L 581 4863 
L 1159 4863 
L 1159 2956 
Q 1366 3272 1645 3428 
Q 1925 3584 2291 3584 
Q 2894 3584 3203 3211 
Q 3513 2838 3513 2113 
z
" transform="scale(0.015625)"/>
       <path id="DejaVuSans-6d" d="M 3328 2828 
Q 3544 3216 3844 3400 
Q 4144 3584 4550 3584 
Q 5097 3584 5394 3201 
Q 5691 2819 5691 2113 
L 5691 0 
L 5113 0 
L 5113 2094 
Q 5113 2597 4934 2840 
Q 4756 3084 4391 3084 
Q 3944 3084 3684 2787 
Q 3425 2491 3425 1978 
L 3425 0 
L 2847 0 
L 2847 2094 
Q 2847 2600 2669 2842 
Q 2491 3084 2119 3084 
Q 1678 3084 1418 2786 
Q 1159 2488 1159 1978 
L 1159 0 
L 581 0 
L 581 3500 
L 1159 3500 
L 1159 2956 
Q 1356 3278 1631 3431 
Q 1906 3584 2284 3584 
Q 2666 3584 2933 3390 
Q 3200 3197 3328 2828 
z
" transform="scale(0.015625)"/>
      </defs>
      <use xlink:href="#DejaVuSans-4c"/>
      <use xlink:href="#DejaVuSans-6f" x="53.962891"/>
      <use xlink:href="#DejaVuSans-67" x="115.144531"/>
      <use xlink:href="#DejaVuSans-61" x="178.621094"/>
      <use xlink:href="#DejaVuSans-72" x="239.900391"/>
      <use xlink:href="#DejaVuSans-69" x="281.013672"/>
      <use xlink:href="#DejaVuSans-74" x="308.796875"/>
      <use xlink:href="#DejaVuSans-68" x="348.005859"/>
      <use xlink:href="#DejaVuSans-6d" x="411.384766"/>
      <use xlink:href="#DejaVuSans-69" x="508.796875"/>
      <use xlink:href="#DejaVuSans-63" x="536.580078"/>
      <use xlink:href="#DejaVuSans-20" x="591.560547"/>
      <use xlink:href="#DejaVuSans-73" x="623.347656"/>
      <use xlink:href="#DejaVuSans-74" x="675.447266"/>
      <use xlink:href="#DejaVuSans-61" x="714.65625"/>
      <use xlink:href="#DejaVuSans-6e" x="775.935547"/>
      <use xlink:href="#DejaVuSans-64" x="839.314453"/>
      <use xlink:href="#DejaVuSans-61" x="902.791016"/>
      <use xlink:href="#DejaVuSans-72" x="964.070312"/>
      <use xlink:href="#DejaVuSans-64" x="1003.433594"/>
      <use xlink:href="#DejaVuSans-20" x="1066.910156"/>
      <use xlink:href="#DejaVuSans-64" x="1098.697266"/>
      <use xlink:href="#DejaVuSans-65" x="1162.173828"/>
      <use xlink:href="#DejaVuSans-76" x="1223.697266"/>
      <use xlink:href="#DejaVuSans-69" x="1282.876953"/>
      <use xlink:href="#DejaVuSans-61" x="1310.660156"/>
      <use xlink:href="#DejaVuSans-74" x="1371.939453"/>
      <use xlink:href="#DejaVuSans-69" x="1411.148438"/>
      <use xlink:href="#DejaVuSans-6f" x="1438.931641"/>
      <use xlink:href="#DejaVuSans-6e" x="1500.113281"/>
     </g>
    </g>
   </g>
   <g id="line2d_188">
    <path d="M 269.956187 96.529635 
L 286.723902 95.676134 
L 298.620785 102.443089 
L 307.848724 109.341559 
L 315.3885 117.215827 
L 327.285383 126.699732 
L 336.513323 132.941195 
L 353.281038 134.249854 
L 365.177921 118.126468 
L 376.027804 97.233949 
L 381.945636 86.3243 
L 393.842519 65.425842 
L 410.610234 38.365113 
L 422.507117 25.185402 
L 431.735057 15.666674 
" clip-path="url(#pd7b1237559)" style="fill: none; stroke: #ff0000; stroke-width: 2; stroke-linecap: square"/>
   </g>
   <g id="line2d_189">
    <path d="M 269.956187 97.360218 
L 286.723902 95.551269 
L 298.620785 102.546382 
L 307.848724 109.065131 
L 315.3885 116.271448 
L 327.285383 126.90631 
L 336.513323 133.0836 
L 353.281038 134.610674 
L 365.177921 118.466892 
L 376.027804 96.793129 
L 381.945636 87.079283 
L 393.842519 65.416735 
L 410.610234 38.624054 
L 422.507117 25.760857 
L 431.735057 16.317613 
" clip-path="url(#pd7b1237559)" style="fill: none; stroke: #0000ff; stroke-width: 2; stroke-linecap: square"/>
   </g>
   <g id="patch_8">
    <path d="M 261.867243 140.557874 
L 261.867243 9.719474 
" style="fill: none; stroke: #000000; stroke-width: 0.8; stroke-linejoin: miter; stroke-linecap: square"/>
   </g>
   <g id="patch_9">
    <path d="M 439.824 140.557874 
L 439.824 9.719474 
" style="fill: none; stroke: #000000; stroke-width: 0.8; stroke-linejoin: miter; stroke-linecap: square"/>
   </g>
   <g id="patch_10">
    <path d="M 261.867243 140.557874 
L 439.824 140.557874 
" style="fill: none; stroke: #000000; stroke-width: 0.8; stroke-linejoin: miter; stroke-linecap: square"/>
   </g>
   <g id="patch_11">
    <path d="M 261.867243 9.719474 
L 439.824 9.719474 
" style="fill: none; stroke: #000000; stroke-width: 0.8; stroke-linejoin: miter; stroke-linecap: square"/>
   </g>
  </g>
 </g>
 <defs>
  <clipPath id="p5691eba749">
   <rect x="44.76" y="9.719474" width="177.956757" height="130.8384"/>
  </clipPath>
  <clipPath id="pd7b1237559">
   <rect x="261.867243" y="9.719474" width="177.956757" height="130.8384"/>
  </clipPath>
 </defs>
</svg>
