<?xml version="1.0" encoding="utf-8" standalone="no"?>
<!DOCTYPE svg PUBLIC "-//W3C//DTD SVG 1.1//EN"
  "http://www.w3.org/Graphics/SVG/1.1/DTD/svg11.dtd">
<svg xmlns:xlink="http://www.w3.org/1999/xlink" width="447.024pt" height="171.897969pt" viewBox="0 0 447.024 171.897969" xmlns="http://www.w3.org/2000/svg" version="1.1">
 <metadata>
  <rdf:RDF xmlns:dc="http://purl.org/dc/elements/1.1/" xmlns:cc="http://creativecommons.org/ns#" xmlns:rdf="http://www.w3.org/1999/02/22-rdf-syntax-ns#">
   <cc:Work>
    <dc:type rdf:resource="http://purl.org/dc/dcmitype/StillImage"/>
    <dc:date>2024-12-21T22:18:46.476145</dc:date>
    <dc:format>image/svg+xml</dc:format>
    <dc:creator>
     <cc:Agent>
      <dc:title>Matplotlib v3.8.2, https://matplotlib.org/</dc:title>
     </cc:Agent>
    </dc:creator>
   </cc:Work>
  </rdf:RDF>
 </metadata>
 <defs>
  <style type="text/css">*{stroke-linejoin: round; stroke-linecap: butt}</style>
 </defs>
 <g id="figure_1">
  <g id="patch_1">
   <path d="M 0 171.897969 
L 447.024 171.897969 
L 447.024 0 
L 0 0 
z
" style="fill: #ffffff"/>
  </g>
  <g id="axes_1">
   <g id="patch_2">
    <path d="M 44.76 138.212969 
L 222.716757 138.212969 
L 222.716757 7.374569 
L 44.76 7.374569 
z
" style="fill: #ffffff"/>
   </g>
   <g id="matplotlib.axis_1">
    <g id="xtick_1">
     <g id="line2d_1">
      <path d="M 52.848943 138.212969 
L 52.848943 7.374569 
" clip-path="url(#p0651807540)" style="fill: none; stroke: #d9d9d9; stroke-width: 0.8; stroke-linecap: square"/>
     </g>
     <g id="line2d_2">
      <defs>
       <path id="m0e42489f3f" d="M 0 0 
L 0 3.5 
" style="stroke: #000000; stroke-width: 0.8"/>
      </defs>
      <g>
       <use xlink:href="#m0e42489f3f" x="52.848943" y="138.212969" style="stroke: #000000; stroke-width: 0.8"/>
      </g>
     </g>
     <g id="text_1">
      <!-- $\mathdefault{10^{-1}}$ -->
      <g transform="translate(43.448943 151.291719) scale(0.08 -0.08)">
       <defs>
        <path id="DejaVuSans-31" d="M 794 531 
L 1825 531 
L 1825 4091 
L 703 3866 
L 703 4441 
L 1819 4666 
L 2450 4666 
L 2450 531 
L 3481 531 
L 3481 0 
L 794 0 
L 794 531 
z
" transform="scale(0.015625)"/>
        <path id="DejaVuSans-30" d="M 2034 4250 
Q 1547 4250 1301 3770 
Q 1056 3291 1056 2328 
Q 1056 1369 1301 889 
Q 1547 409 2034 409 
Q 2525 409 2770 889 
Q 3016 1369 3016 2328 
Q 3016 3291 2770 3770 
Q 2525 4250 2034 4250 
z
M 2034 4750 
Q 2819 4750 3233 4129 
Q 3647 3509 3647 2328 
Q 3647 1150 3233 529 
Q 2819 -91 2034 -91 
Q 1250 -91 836 529 
Q 422 1150 422 2328 
Q 422 3509 836 4129 
Q 1250 4750 2034 4750 
z
" transform="scale(0.015625)"/>
        <path id="DejaVuSans-2212" d="M 678 2272 
L 4684 2272 
L 4684 1741 
L 678 1741 
L 678 2272 
z
" transform="scale(0.015625)"/>
       </defs>
       <use xlink:href="#DejaVuSans-31" transform="translate(0 0.684375)"/>
       <use xlink:href="#DejaVuSans-30" transform="translate(63.623047 0.684375)"/>
       <use xlink:href="#DejaVuSans-2212" transform="translate(128.203125 38.965625) scale(0.7)"/>
       <use xlink:href="#DejaVuSans-31" transform="translate(186.855469 38.965625) scale(0.7)"/>
      </g>
     </g>
    </g>
    <g id="xtick_2">
     <g id="line2d_3">
      <path d="M 148.070677 138.212969 
L 148.070677 7.374569 
" clip-path="url(#p0651807540)" style="fill: none; stroke: #d9d9d9; stroke-width: 0.8; stroke-linecap: square"/>
     </g>
     <g id="line2d_4">
      <g>
       <use xlink:href="#m0e42489f3f" x="148.070677" y="138.212969" style="stroke: #000000; stroke-width: 0.8"/>
      </g>
     </g>
     <g id="text_2">
      <!-- $\mathdefault{10^{0}}$ -->
      <g transform="translate(141.030677 151.291719) scale(0.08 -0.08)">
       <use xlink:href="#DejaVuSans-31" transform="translate(0 0.765625)"/>
       <use xlink:href="#DejaVuSans-30" transform="translate(63.623047 0.765625)"/>
       <use xlink:href="#DejaVuSans-30" transform="translate(128.203125 39.046875) scale(0.7)"/>
      </g>
     </g>
    </g>
    <g id="xtick_3">
     <g id="line2d_5">
      <path d="M 48.491836 138.212969 
L 48.491836 7.374569 
" clip-path="url(#p0651807540)" style="fill: none; stroke-dasharray: 2.96,1.28; stroke-dashoffset: 0; stroke: #f2f2f2; stroke-width: 0.8"/>
     </g>
     <g id="line2d_6">
      <defs>
       <path id="m4f2791c040" d="M 0 0 
L 0 2 
" style="stroke: #000000; stroke-width: 0.6"/>
      </defs>
      <g>
       <use xlink:href="#m4f2791c040" x="48.491836" y="138.212969" style="stroke: #000000; stroke-width: 0.6"/>
      </g>
     </g>
    </g>
    <g id="xtick_4">
     <g id="line2d_7">
      <path d="M 81.513542 138.212969 
L 81.513542 7.374569 
" clip-path="url(#p0651807540)" style="fill: none; stroke-dasharray: 2.96,1.28; stroke-dashoffset: 0; stroke: #f2f2f2; stroke-width: 0.8"/>
     </g>
     <g id="line2d_8">
      <g>
       <use xlink:href="#m4f2791c040" x="81.513542" y="138.212969" style="stroke: #000000; stroke-width: 0.6"/>
      </g>
     </g>
    </g>
    <g id="xtick_5">
     <g id="line2d_9">
      <path d="M 98.281257 138.212969 
L 98.281257 7.374569 
" clip-path="url(#p0651807540)" style="fill: none; stroke-dasharray: 2.96,1.28; stroke-dashoffset: 0; stroke: #f2f2f2; stroke-width: 0.8"/>
     </g>
     <g id="line2d_10">
      <g>
       <use xlink:href="#m4f2791c040" x="98.281257" y="138.212969" style="stroke: #000000; stroke-width: 0.6"/>
      </g>
     </g>
    </g>
    <g id="xtick_6">
     <g id="line2d_11">
      <path d="M 110.17814 138.212969 
L 110.17814 7.374569 
" clip-path="url(#p0651807540)" style="fill: none; stroke-dasharray: 2.96,1.28; stroke-dashoffset: 0; stroke: #f2f2f2; stroke-width: 0.8"/>
     </g>
     <g id="line2d_12">
      <g>
       <use xlink:href="#m4f2791c040" x="110.17814" y="138.212969" style="stroke: #000000; stroke-width: 0.6"/>
      </g>
     </g>
    </g>
    <g id="xtick_7">
     <g id="line2d_13">
      <path d="M 119.406079 138.212969 
L 119.406079 7.374569 
" clip-path="url(#p0651807540)" style="fill: none; stroke-dasharray: 2.96,1.28; stroke-dashoffset: 0; stroke: #f2f2f2; stroke-width: 0.8"/>
     </g>
     <g id="line2d_14">
      <g>
       <use xlink:href="#m4f2791c040" x="119.406079" y="138.212969" style="stroke: #000000; stroke-width: 0.6"/>
      </g>
     </g>
    </g>
    <g id="xtick_8">
     <g id="line2d_15">
      <path d="M 126.945855 138.212969 
L 126.945855 7.374569 
" clip-path="url(#p0651807540)" style="fill: none; stroke-dasharray: 2.96,1.28; stroke-dashoffset: 0; stroke: #f2f2f2; stroke-width: 0.8"/>
     </g>
     <g id="line2d_16">
      <g>
       <use xlink:href="#m4f2791c040" x="126.945855" y="138.212969" style="stroke: #000000; stroke-width: 0.6"/>
      </g>
     </g>
    </g>
    <g id="xtick_9">
     <g id="line2d_17">
      <path d="M 133.320644 138.212969 
L 133.320644 7.374569 
" clip-path="url(#p0651807540)" style="fill: none; stroke-dasharray: 2.96,1.28; stroke-dashoffset: 0; stroke: #f2f2f2; stroke-width: 0.8"/>
     </g>
     <g id="line2d_18">
      <g>
       <use xlink:href="#m4f2791c040" x="133.320644" y="138.212969" style="stroke: #000000; stroke-width: 0.6"/>
      </g>
     </g>
    </g>
    <g id="xtick_10">
     <g id="line2d_19">
      <path d="M 138.842738 138.212969 
L 138.842738 7.374569 
" clip-path="url(#p0651807540)" style="fill: none; stroke-dasharray: 2.96,1.28; stroke-dashoffset: 0; stroke: #f2f2f2; stroke-width: 0.8"/>
     </g>
     <g id="line2d_20">
      <g>
       <use xlink:href="#m4f2791c040" x="138.842738" y="138.212969" style="stroke: #000000; stroke-width: 0.6"/>
      </g>
     </g>
    </g>
    <g id="xtick_11">
     <g id="line2d_21">
      <path d="M 143.71357 138.212969 
L 143.71357 7.374569 
" clip-path="url(#p0651807540)" style="fill: none; stroke-dasharray: 2.96,1.28; stroke-dashoffset: 0; stroke: #f2f2f2; stroke-width: 0.8"/>
     </g>
     <g id="line2d_22">
      <g>
       <use xlink:href="#m4f2791c040" x="143.71357" y="138.212969" style="stroke: #000000; stroke-width: 0.6"/>
      </g>
     </g>
    </g>
    <g id="xtick_12">
     <g id="line2d_23">
      <path d="M 176.735276 138.212969 
L 176.735276 7.374569 
" clip-path="url(#p0651807540)" style="fill: none; stroke-dasharray: 2.96,1.28; stroke-dashoffset: 0; stroke: #f2f2f2; stroke-width: 0.8"/>
     </g>
     <g id="line2d_24">
      <g>
       <use xlink:href="#m4f2791c040" x="176.735276" y="138.212969" style="stroke: #000000; stroke-width: 0.6"/>
      </g>
     </g>
    </g>
    <g id="xtick_13">
     <g id="line2d_25">
      <path d="M 193.502991 138.212969 
L 193.502991 7.374569 
" clip-path="url(#p0651807540)" style="fill: none; stroke-dasharray: 2.96,1.28; stroke-dashoffset: 0; stroke: #f2f2f2; stroke-width: 0.8"/>
     </g>
     <g id="line2d_26">
      <g>
       <use xlink:href="#m4f2791c040" x="193.502991" y="138.212969" style="stroke: #000000; stroke-width: 0.6"/>
      </g>
     </g>
    </g>
    <g id="xtick_14">
     <g id="line2d_27">
      <path d="M 205.399874 138.212969 
L 205.399874 7.374569 
" clip-path="url(#p0651807540)" style="fill: none; stroke-dasharray: 2.96,1.28; stroke-dashoffset: 0; stroke: #f2f2f2; stroke-width: 0.8"/>
     </g>
     <g id="line2d_28">
      <g>
       <use xlink:href="#m4f2791c040" x="205.399874" y="138.212969" style="stroke: #000000; stroke-width: 0.6"/>
      </g>
     </g>
    </g>
    <g id="xtick_15">
     <g id="line2d_29">
      <path d="M 214.627813 138.212969 
L 214.627813 7.374569 
" clip-path="url(#p0651807540)" style="fill: none; stroke-dasharray: 2.96,1.28; stroke-dashoffset: 0; stroke: #f2f2f2; stroke-width: 0.8"/>
     </g>
     <g id="line2d_30">
      <g>
       <use xlink:href="#m4f2791c040" x="214.627813" y="138.212969" style="stroke: #000000; stroke-width: 0.6"/>
      </g>
     </g>
    </g>
    <g id="xtick_16">
     <g id="line2d_31">
      <path d="M 222.167589 138.212969 
L 222.167589 7.374569 
" clip-path="url(#p0651807540)" style="fill: none; stroke-dasharray: 2.96,1.28; stroke-dashoffset: 0; stroke: #f2f2f2; stroke-width: 0.8"/>
     </g>
     <g id="line2d_32">
      <g>
       <use xlink:href="#m4f2791c040" x="222.167589" y="138.212969" style="stroke: #000000; stroke-width: 0.6"/>
      </g>
     </g>
    </g>
    <g id="text_3">
     <!-- Period, $T$ (s) -->
     <g transform="translate(109.658378 163.034219) scale(0.08 -0.08)">
      <defs>
       <path id="DejaVuSans-50" d="M 1259 4147 
L 1259 2394 
L 2053 2394 
Q 2494 2394 2734 2622 
Q 2975 2850 2975 3272 
Q 2975 3691 2734 3919 
Q 2494 4147 2053 4147 
L 1259 4147 
z
M 628 4666 
L 2053 4666 
Q 2838 4666 3239 4311 
Q 3641 3956 3641 3272 
Q 3641 2581 3239 2228 
Q 2838 1875 2053 1875 
L 1259 1875 
L 1259 0 
L 628 0 
L 628 4666 
z
" transform="scale(0.015625)"/>
       <path id="DejaVuSans-65" d="M 3597 1894 
L 3597 1613 
L 953 1613 
Q 991 1019 1311 708 
Q 1631 397 2203 397 
Q 2534 397 2845 478 
Q 3156 559 3463 722 
L 3463 178 
Q 3153 47 2828 -22 
Q 2503 -91 2169 -91 
Q 1331 -91 842 396 
Q 353 884 353 1716 
Q 353 2575 817 3079 
Q 1281 3584 2069 3584 
Q 2775 3584 3186 3129 
Q 3597 2675 3597 1894 
z
M 3022 2063 
Q 3016 2534 2758 2815 
Q 2500 3097 2075 3097 
Q 1594 3097 1305 2825 
Q 1016 2553 972 2059 
L 3022 2063 
z
" transform="scale(0.015625)"/>
       <path id="DejaVuSans-72" d="M 2631 2963 
Q 2534 3019 2420 3045 
Q 2306 3072 2169 3072 
Q 1681 3072 1420 2755 
Q 1159 2438 1159 1844 
L 1159 0 
L 581 0 
L 581 3500 
L 1159 3500 
L 1159 2956 
Q 1341 3275 1631 3429 
Q 1922 3584 2338 3584 
Q 2397 3584 2469 3576 
Q 2541 3569 2628 3553 
L 2631 2963 
z
" transform="scale(0.015625)"/>
       <path id="DejaVuSans-69" d="M 603 3500 
L 1178 3500 
L 1178 0 
L 603 0 
L 603 3500 
z
M 603 4863 
L 1178 4863 
L 1178 4134 
L 603 4134 
L 603 4863 
z
" transform="scale(0.015625)"/>
       <path id="DejaVuSans-6f" d="M 1959 3097 
Q 1497 3097 1228 2736 
Q 959 2375 959 1747 
Q 959 1119 1226 758 
Q 1494 397 1959 397 
Q 2419 397 2687 759 
Q 2956 1122 2956 1747 
Q 2956 2369 2687 2733 
Q 2419 3097 1959 3097 
z
M 1959 3584 
Q 2709 3584 3137 3096 
Q 3566 2609 3566 1747 
Q 3566 888 3137 398 
Q 2709 -91 1959 -91 
Q 1206 -91 779 398 
Q 353 888 353 1747 
Q 353 2609 779 3096 
Q 1206 3584 1959 3584 
z
" transform="scale(0.015625)"/>
       <path id="DejaVuSans-64" d="M 2906 2969 
L 2906 4863 
L 3481 4863 
L 3481 0 
L 2906 0 
L 2906 525 
Q 2725 213 2448 61 
Q 2172 -91 1784 -91 
Q 1150 -91 751 415 
Q 353 922 353 1747 
Q 353 2572 751 3078 
Q 1150 3584 1784 3584 
Q 2172 3584 2448 3432 
Q 2725 3281 2906 2969 
z
M 947 1747 
Q 947 1113 1208 752 
Q 1469 391 1925 391 
Q 2381 391 2643 752 
Q 2906 1113 2906 1747 
Q 2906 2381 2643 2742 
Q 2381 3103 1925 3103 
Q 1469 3103 1208 2742 
Q 947 2381 947 1747 
z
" transform="scale(0.015625)"/>
       <path id="DejaVuSans-2c" d="M 750 794 
L 1409 794 
L 1409 256 
L 897 -744 
L 494 -744 
L 750 256 
L 750 794 
z
" transform="scale(0.015625)"/>
       <path id="DejaVuSans-20" transform="scale(0.015625)"/>
       <path id="DejaVuSans-Oblique-54" d="M 378 4666 
L 4325 4666 
L 4225 4134 
L 2559 4134 
L 1759 0 
L 1125 0 
L 1925 4134 
L 275 4134 
L 378 4666 
z
" transform="scale(0.015625)"/>
       <path id="DejaVuSans-28" d="M 1984 4856 
Q 1566 4138 1362 3434 
Q 1159 2731 1159 2009 
Q 1159 1288 1364 580 
Q 1569 -128 1984 -844 
L 1484 -844 
Q 1016 -109 783 600 
Q 550 1309 550 2009 
Q 550 2706 781 3412 
Q 1013 4119 1484 4856 
L 1984 4856 
z
" transform="scale(0.015625)"/>
       <path id="DejaVuSans-73" d="M 2834 3397 
L 2834 2853 
Q 2591 2978 2328 3040 
Q 2066 3103 1784 3103 
Q 1356 3103 1142 2972 
Q 928 2841 928 2578 
Q 928 2378 1081 2264 
Q 1234 2150 1697 2047 
L 1894 2003 
Q 2506 1872 2764 1633 
Q 3022 1394 3022 966 
Q 3022 478 2636 193 
Q 2250 -91 1575 -91 
Q 1294 -91 989 -36 
Q 684 19 347 128 
L 347 722 
Q 666 556 975 473 
Q 1284 391 1588 391 
Q 1994 391 2212 530 
Q 2431 669 2431 922 
Q 2431 1156 2273 1281 
Q 2116 1406 1581 1522 
L 1381 1569 
Q 847 1681 609 1914 
Q 372 2147 372 2553 
Q 372 3047 722 3315 
Q 1072 3584 1716 3584 
Q 2034 3584 2315 3537 
Q 2597 3491 2834 3397 
z
" transform="scale(0.015625)"/>
       <path id="DejaVuSans-29" d="M 513 4856 
L 1013 4856 
Q 1481 4119 1714 3412 
Q 1947 2706 1947 2009 
Q 1947 1309 1714 600 
Q 1481 -109 1013 -844 
L 513 -844 
Q 928 -128 1133 580 
Q 1338 1288 1338 2009 
Q 1338 2731 1133 3434 
Q 928 4138 513 4856 
z
" transform="scale(0.015625)"/>
      </defs>
      <use xlink:href="#DejaVuSans-50" transform="translate(0 0.015625)"/>
      <use xlink:href="#DejaVuSans-65" transform="translate(60.302734 0.015625)"/>
      <use xlink:href="#DejaVuSans-72" transform="translate(121.826172 0.015625)"/>
      <use xlink:href="#DejaVuSans-69" transform="translate(162.939453 0.015625)"/>
      <use xlink:href="#DejaVuSans-6f" transform="translate(190.722656 0.015625)"/>
      <use xlink:href="#DejaVuSans-64" transform="translate(251.904297 0.015625)"/>
      <use xlink:href="#DejaVuSans-2c" transform="translate(315.380859 0.015625)"/>
      <use xlink:href="#DejaVuSans-20" transform="translate(347.167969 0.015625)"/>
      <use xlink:href="#DejaVuSans-Oblique-54" transform="translate(378.955078 0.015625)"/>
      <use xlink:href="#DejaVuSans-20" transform="translate(440.039062 0.015625)"/>
      <use xlink:href="#DejaVuSans-28" transform="translate(471.826172 0.015625)"/>
      <use xlink:href="#DejaVuSans-73" transform="translate(510.839844 0.015625)"/>
      <use xlink:href="#DejaVuSans-29" transform="translate(562.939453 0.015625)"/>
     </g>
    </g>
   </g>
   <g id="matplotlib.axis_2">
    <g id="ytick_1">
     <g id="line2d_33">
      <path d="M 44.76 114.085426 
L 222.716757 114.085426 
" clip-path="url(#p0651807540)" style="fill: none; stroke: #d9d9d9; stroke-width: 0.8; stroke-linecap: square"/>
     </g>
     <g id="line2d_34">
      <defs>
       <path id="mc3bc478355" d="M 0 0 
L -3.5 0 
" style="stroke: #000000; stroke-width: 0.8"/>
      </defs>
      <g>
       <use xlink:href="#mc3bc478355" x="44.76" y="114.085426" style="stroke: #000000; stroke-width: 0.8"/>
      </g>
     </g>
     <g id="text_4">
      <!-- $\mathdefault{10^{-1}}$ -->
      <g transform="translate(18.96 117.124801) scale(0.08 -0.08)">
       <use xlink:href="#DejaVuSans-31" transform="translate(0 0.684375)"/>
       <use xlink:href="#DejaVuSans-30" transform="translate(63.623047 0.684375)"/>
       <use xlink:href="#DejaVuSans-2212" transform="translate(128.203125 38.965625) scale(0.7)"/>
       <use xlink:href="#DejaVuSans-31" transform="translate(186.855469 38.965625) scale(0.7)"/>
      </g>
     </g>
    </g>
    <g id="ytick_2">
     <g id="line2d_35">
      <path d="M 44.76 62.1624 
L 222.716757 62.1624 
" clip-path="url(#p0651807540)" style="fill: none; stroke: #d9d9d9; stroke-width: 0.8; stroke-linecap: square"/>
     </g>
     <g id="line2d_36">
      <g>
       <use xlink:href="#mc3bc478355" x="44.76" y="62.1624" style="stroke: #000000; stroke-width: 0.8"/>
      </g>
     </g>
     <g id="text_5">
      <!-- $\mathdefault{10^{0}}$ -->
      <g transform="translate(23.68 65.201775) scale(0.08 -0.08)">
       <use xlink:href="#DejaVuSans-31" transform="translate(0 0.765625)"/>
       <use xlink:href="#DejaVuSans-30" transform="translate(63.623047 0.765625)"/>
       <use xlink:href="#DejaVuSans-30" transform="translate(128.203125 39.046875) scale(0.7)"/>
      </g>
     </g>
    </g>
    <g id="ytick_3">
     <g id="line2d_37">
      <path d="M 44.76 10.239375 
L 222.716757 10.239375 
" clip-path="url(#p0651807540)" style="fill: none; stroke: #d9d9d9; stroke-width: 0.8; stroke-linecap: square"/>
     </g>
     <g id="line2d_38">
      <g>
       <use xlink:href="#mc3bc478355" x="44.76" y="10.239375" style="stroke: #000000; stroke-width: 0.8"/>
      </g>
     </g>
     <g id="text_6">
      <!-- $\mathdefault{10^{1}}$ -->
      <g transform="translate(23.68 13.27875) scale(0.08 -0.08)">
       <use xlink:href="#DejaVuSans-31" transform="translate(0 0.684375)"/>
       <use xlink:href="#DejaVuSans-30" transform="translate(63.623047 0.684375)"/>
       <use xlink:href="#DejaVuSans-31" transform="translate(128.203125 38.965625) scale(0.7)"/>
      </g>
     </g>
    </g>
    <g id="ytick_4">
     <g id="line2d_39">
      <path d="M 44.76 134.747675 
L 222.716757 134.747675 
" clip-path="url(#p0651807540)" style="fill: none; stroke-dasharray: 2.96,1.28; stroke-dashoffset: 0; stroke: #f2f2f2; stroke-width: 0.8"/>
     </g>
     <g id="line2d_40">
      <defs>
       <path id="med6447b01d" d="M 0 0 
L -2 0 
" style="stroke: #000000; stroke-width: 0.6"/>
      </defs>
      <g>
       <use xlink:href="#med6447b01d" x="44.76" y="134.747675" style="stroke: #000000; stroke-width: 0.6"/>
      </g>
     </g>
    </g>
    <g id="ytick_5">
     <g id="line2d_41">
      <path d="M 44.76 129.715814 
L 222.716757 129.715814 
" clip-path="url(#p0651807540)" style="fill: none; stroke-dasharray: 2.96,1.28; stroke-dashoffset: 0; stroke: #f2f2f2; stroke-width: 0.8"/>
     </g>
     <g id="line2d_42">
      <g>
       <use xlink:href="#med6447b01d" x="44.76" y="129.715814" style="stroke: #000000; stroke-width: 0.6"/>
      </g>
     </g>
    </g>
    <g id="ytick_6">
     <g id="line2d_43">
      <path d="M 44.76 125.604484 
L 222.716757 125.604484 
" clip-path="url(#p0651807540)" style="fill: none; stroke-dasharray: 2.96,1.28; stroke-dashoffset: 0; stroke: #f2f2f2; stroke-width: 0.8"/>
     </g>
     <g id="line2d_44">
      <g>
       <use xlink:href="#med6447b01d" x="44.76" y="125.604484" style="stroke: #000000; stroke-width: 0.6"/>
      </g>
     </g>
    </g>
    <g id="ytick_7">
     <g id="line2d_45">
      <path d="M 44.76 122.128404 
L 222.716757 122.128404 
" clip-path="url(#p0651807540)" style="fill: none; stroke-dasharray: 2.96,1.28; stroke-dashoffset: 0; stroke: #f2f2f2; stroke-width: 0.8"/>
     </g>
     <g id="line2d_46">
      <g>
       <use xlink:href="#med6447b01d" x="44.76" y="122.128404" style="stroke: #000000; stroke-width: 0.6"/>
      </g>
     </g>
    </g>
    <g id="ytick_8">
     <g id="line2d_47">
      <path d="M 44.76 119.117287 
L 222.716757 119.117287 
" clip-path="url(#p0651807540)" style="fill: none; stroke-dasharray: 2.96,1.28; stroke-dashoffset: 0; stroke: #f2f2f2; stroke-width: 0.8"/>
     </g>
     <g id="line2d_48">
      <g>
       <use xlink:href="#med6447b01d" x="44.76" y="119.117287" style="stroke: #000000; stroke-width: 0.6"/>
      </g>
     </g>
    </g>
    <g id="ytick_9">
     <g id="line2d_49">
      <path d="M 44.76 116.461293 
L 222.716757 116.461293 
" clip-path="url(#p0651807540)" style="fill: none; stroke-dasharray: 2.96,1.28; stroke-dashoffset: 0; stroke: #f2f2f2; stroke-width: 0.8"/>
     </g>
     <g id="line2d_50">
      <g>
       <use xlink:href="#med6447b01d" x="44.76" y="116.461293" style="stroke: #000000; stroke-width: 0.6"/>
      </g>
     </g>
    </g>
    <g id="ytick_10">
     <g id="line2d_51">
      <path d="M 44.76 98.455038 
L 222.716757 98.455038 
" clip-path="url(#p0651807540)" style="fill: none; stroke-dasharray: 2.96,1.28; stroke-dashoffset: 0; stroke: #f2f2f2; stroke-width: 0.8"/>
     </g>
     <g id="line2d_52">
      <g>
       <use xlink:href="#med6447b01d" x="44.76" y="98.455038" style="stroke: #000000; stroke-width: 0.6"/>
      </g>
     </g>
    </g>
    <g id="ytick_11">
     <g id="line2d_53">
      <path d="M 44.76 89.311847 
L 222.716757 89.311847 
" clip-path="url(#p0651807540)" style="fill: none; stroke-dasharray: 2.96,1.28; stroke-dashoffset: 0; stroke: #f2f2f2; stroke-width: 0.8"/>
     </g>
     <g id="line2d_54">
      <g>
       <use xlink:href="#med6447b01d" x="44.76" y="89.311847" style="stroke: #000000; stroke-width: 0.6"/>
      </g>
     </g>
    </g>
    <g id="ytick_12">
     <g id="line2d_55">
      <path d="M 44.76 82.82465 
L 222.716757 82.82465 
" clip-path="url(#p0651807540)" style="fill: none; stroke-dasharray: 2.96,1.28; stroke-dashoffset: 0; stroke: #f2f2f2; stroke-width: 0.8"/>
     </g>
     <g id="line2d_56">
      <g>
       <use xlink:href="#med6447b01d" x="44.76" y="82.82465" style="stroke: #000000; stroke-width: 0.6"/>
      </g>
     </g>
    </g>
    <g id="ytick_13">
     <g id="line2d_57">
      <path d="M 44.76 77.792788 
L 222.716757 77.792788 
" clip-path="url(#p0651807540)" style="fill: none; stroke-dasharray: 2.96,1.28; stroke-dashoffset: 0; stroke: #f2f2f2; stroke-width: 0.8"/>
     </g>
     <g id="line2d_58">
      <g>
       <use xlink:href="#med6447b01d" x="44.76" y="77.792788" style="stroke: #000000; stroke-width: 0.6"/>
      </g>
     </g>
    </g>
    <g id="ytick_14">
     <g id="line2d_59">
      <path d="M 44.76 73.681459 
L 222.716757 73.681459 
" clip-path="url(#p0651807540)" style="fill: none; stroke-dasharray: 2.96,1.28; stroke-dashoffset: 0; stroke: #f2f2f2; stroke-width: 0.8"/>
     </g>
     <g id="line2d_60">
      <g>
       <use xlink:href="#med6447b01d" x="44.76" y="73.681459" style="stroke: #000000; stroke-width: 0.6"/>
      </g>
     </g>
    </g>
    <g id="ytick_15">
     <g id="line2d_61">
      <path d="M 44.76 70.205379 
L 222.716757 70.205379 
" clip-path="url(#p0651807540)" style="fill: none; stroke-dasharray: 2.96,1.28; stroke-dashoffset: 0; stroke: #f2f2f2; stroke-width: 0.8"/>
     </g>
     <g id="line2d_62">
      <g>
       <use xlink:href="#med6447b01d" x="44.76" y="70.205379" style="stroke: #000000; stroke-width: 0.6"/>
      </g>
     </g>
    </g>
    <g id="ytick_16">
     <g id="line2d_63">
      <path d="M 44.76 67.194261 
L 222.716757 67.194261 
" clip-path="url(#p0651807540)" style="fill: none; stroke-dasharray: 2.96,1.28; stroke-dashoffset: 0; stroke: #f2f2f2; stroke-width: 0.8"/>
     </g>
     <g id="line2d_64">
      <g>
       <use xlink:href="#med6447b01d" x="44.76" y="67.194261" style="stroke: #000000; stroke-width: 0.6"/>
      </g>
     </g>
    </g>
    <g id="ytick_17">
     <g id="line2d_65">
      <path d="M 44.76 64.538268 
L 222.716757 64.538268 
" clip-path="url(#p0651807540)" style="fill: none; stroke-dasharray: 2.96,1.28; stroke-dashoffset: 0; stroke: #f2f2f2; stroke-width: 0.8"/>
     </g>
     <g id="line2d_66">
      <g>
       <use xlink:href="#med6447b01d" x="44.76" y="64.538268" style="stroke: #000000; stroke-width: 0.6"/>
      </g>
     </g>
    </g>
    <g id="ytick_18">
     <g id="line2d_67">
      <path d="M 44.76 46.532012 
L 222.716757 46.532012 
" clip-path="url(#p0651807540)" style="fill: none; stroke-dasharray: 2.96,1.28; stroke-dashoffset: 0; stroke: #f2f2f2; stroke-width: 0.8"/>
     </g>
     <g id="line2d_68">
      <g>
       <use xlink:href="#med6447b01d" x="44.76" y="46.532012" style="stroke: #000000; stroke-width: 0.6"/>
      </g>
     </g>
    </g>
    <g id="ytick_19">
     <g id="line2d_69">
      <path d="M 44.76 37.388821 
L 222.716757 37.388821 
" clip-path="url(#p0651807540)" style="fill: none; stroke-dasharray: 2.96,1.28; stroke-dashoffset: 0; stroke: #f2f2f2; stroke-width: 0.8"/>
     </g>
     <g id="line2d_70">
      <g>
       <use xlink:href="#med6447b01d" x="44.76" y="37.388821" style="stroke: #000000; stroke-width: 0.6"/>
      </g>
     </g>
    </g>
    <g id="ytick_20">
     <g id="line2d_71">
      <path d="M 44.76 30.901624 
L 222.716757 30.901624 
" clip-path="url(#p0651807540)" style="fill: none; stroke-dasharray: 2.96,1.28; stroke-dashoffset: 0; stroke: #f2f2f2; stroke-width: 0.8"/>
     </g>
     <g id="line2d_72">
      <g>
       <use xlink:href="#med6447b01d" x="44.76" y="30.901624" style="stroke: #000000; stroke-width: 0.6"/>
      </g>
     </g>
    </g>
    <g id="ytick_21">
     <g id="line2d_73">
      <path d="M 44.76 25.869763 
L 222.716757 25.869763 
" clip-path="url(#p0651807540)" style="fill: none; stroke-dasharray: 2.96,1.28; stroke-dashoffset: 0; stroke: #f2f2f2; stroke-width: 0.8"/>
     </g>
     <g id="line2d_74">
      <g>
       <use xlink:href="#med6447b01d" x="44.76" y="25.869763" style="stroke: #000000; stroke-width: 0.6"/>
      </g>
     </g>
    </g>
    <g id="ytick_22">
     <g id="line2d_75">
      <path d="M 44.76 21.758433 
L 222.716757 21.758433 
" clip-path="url(#p0651807540)" style="fill: none; stroke-dasharray: 2.96,1.28; stroke-dashoffset: 0; stroke: #f2f2f2; stroke-width: 0.8"/>
     </g>
     <g id="line2d_76">
      <g>
       <use xlink:href="#med6447b01d" x="44.76" y="21.758433" style="stroke: #000000; stroke-width: 0.6"/>
      </g>
     </g>
    </g>
    <g id="ytick_23">
     <g id="line2d_77">
      <path d="M 44.76 18.282353 
L 222.716757 18.282353 
" clip-path="url(#p0651807540)" style="fill: none; stroke-dasharray: 2.96,1.28; stroke-dashoffset: 0; stroke: #f2f2f2; stroke-width: 0.8"/>
     </g>
     <g id="line2d_78">
      <g>
       <use xlink:href="#med6447b01d" x="44.76" y="18.282353" style="stroke: #000000; stroke-width: 0.6"/>
      </g>
     </g>
    </g>
    <g id="ytick_24">
     <g id="line2d_79">
      <path d="M 44.76 15.271236 
L 222.716757 15.271236 
" clip-path="url(#p0651807540)" style="fill: none; stroke-dasharray: 2.96,1.28; stroke-dashoffset: 0; stroke: #f2f2f2; stroke-width: 0.8"/>
     </g>
     <g id="line2d_80">
      <g>
       <use xlink:href="#med6447b01d" x="44.76" y="15.271236" style="stroke: #000000; stroke-width: 0.6"/>
      </g>
     </g>
    </g>
    <g id="ytick_25">
     <g id="line2d_81">
      <path d="M 44.76 12.615242 
L 222.716757 12.615242 
" clip-path="url(#p0651807540)" style="fill: none; stroke-dasharray: 2.96,1.28; stroke-dashoffset: 0; stroke: #f2f2f2; stroke-width: 0.8"/>
     </g>
     <g id="line2d_82">
      <g>
       <use xlink:href="#med6447b01d" x="44.76" y="12.615242" style="stroke: #000000; stroke-width: 0.6"/>
      </g>
     </g>
    </g>
    <g id="text_7">
     <!-- Spectral acceleration, $SA$ (g) -->
     <g transform="translate(13.28 129.993769) rotate(-90) scale(0.08 -0.08)">
      <defs>
       <path id="DejaVuSans-53" d="M 3425 4513 
L 3425 3897 
Q 3066 4069 2747 4153 
Q 2428 4238 2131 4238 
Q 1616 4238 1336 4038 
Q 1056 3838 1056 3469 
Q 1056 3159 1242 3001 
Q 1428 2844 1947 2747 
L 2328 2669 
Q 3034 2534 3370 2195 
Q 3706 1856 3706 1288 
Q 3706 609 3251 259 
Q 2797 -91 1919 -91 
Q 1588 -91 1214 -16 
Q 841 59 441 206 
L 441 856 
Q 825 641 1194 531 
Q 1563 422 1919 422 
Q 2459 422 2753 634 
Q 3047 847 3047 1241 
Q 3047 1584 2836 1778 
Q 2625 1972 2144 2069 
L 1759 2144 
Q 1053 2284 737 2584 
Q 422 2884 422 3419 
Q 422 4038 858 4394 
Q 1294 4750 2059 4750 
Q 2388 4750 2728 4690 
Q 3069 4631 3425 4513 
z
" transform="scale(0.015625)"/>
       <path id="DejaVuSans-70" d="M 1159 525 
L 1159 -1331 
L 581 -1331 
L 581 3500 
L 1159 3500 
L 1159 2969 
Q 1341 3281 1617 3432 
Q 1894 3584 2278 3584 
Q 2916 3584 3314 3078 
Q 3713 2572 3713 1747 
Q 3713 922 3314 415 
Q 2916 -91 2278 -91 
Q 1894 -91 1617 61 
Q 1341 213 1159 525 
z
M 3116 1747 
Q 3116 2381 2855 2742 
Q 2594 3103 2138 3103 
Q 1681 3103 1420 2742 
Q 1159 2381 1159 1747 
Q 1159 1113 1420 752 
Q 1681 391 2138 391 
Q 2594 391 2855 752 
Q 3116 1113 3116 1747 
z
" transform="scale(0.015625)"/>
       <path id="DejaVuSans-63" d="M 3122 3366 
L 3122 2828 
Q 2878 2963 2633 3030 
Q 2388 3097 2138 3097 
Q 1578 3097 1268 2742 
Q 959 2388 959 1747 
Q 959 1106 1268 751 
Q 1578 397 2138 397 
Q 2388 397 2633 464 
Q 2878 531 3122 666 
L 3122 134 
Q 2881 22 2623 -34 
Q 2366 -91 2075 -91 
Q 1284 -91 818 406 
Q 353 903 353 1747 
Q 353 2603 823 3093 
Q 1294 3584 2113 3584 
Q 2378 3584 2631 3529 
Q 2884 3475 3122 3366 
z
" transform="scale(0.015625)"/>
       <path id="DejaVuSans-74" d="M 1172 4494 
L 1172 3500 
L 2356 3500 
L 2356 3053 
L 1172 3053 
L 1172 1153 
Q 1172 725 1289 603 
Q 1406 481 1766 481 
L 2356 481 
L 2356 0 
L 1766 0 
Q 1100 0 847 248 
Q 594 497 594 1153 
L 594 3053 
L 172 3053 
L 172 3500 
L 594 3500 
L 594 4494 
L 1172 4494 
z
" transform="scale(0.015625)"/>
       <path id="DejaVuSans-61" d="M 2194 1759 
Q 1497 1759 1228 1600 
Q 959 1441 959 1056 
Q 959 750 1161 570 
Q 1363 391 1709 391 
Q 2188 391 2477 730 
Q 2766 1069 2766 1631 
L 2766 1759 
L 2194 1759 
z
M 3341 1997 
L 3341 0 
L 2766 0 
L 2766 531 
Q 2569 213 2275 61 
Q 1981 -91 1556 -91 
Q 1019 -91 701 211 
Q 384 513 384 1019 
Q 384 1609 779 1909 
Q 1175 2209 1959 2209 
L 2766 2209 
L 2766 2266 
Q 2766 2663 2505 2880 
Q 2244 3097 1772 3097 
Q 1472 3097 1187 3025 
Q 903 2953 641 2809 
L 641 3341 
Q 956 3463 1253 3523 
Q 1550 3584 1831 3584 
Q 2591 3584 2966 3190 
Q 3341 2797 3341 1997 
z
" transform="scale(0.015625)"/>
       <path id="DejaVuSans-6c" d="M 603 4863 
L 1178 4863 
L 1178 0 
L 603 0 
L 603 4863 
z
" transform="scale(0.015625)"/>
       <path id="DejaVuSans-6e" d="M 3513 2113 
L 3513 0 
L 2938 0 
L 2938 2094 
Q 2938 2591 2744 2837 
Q 2550 3084 2163 3084 
Q 1697 3084 1428 2787 
Q 1159 2491 1159 1978 
L 1159 0 
L 581 0 
L 581 3500 
L 1159 3500 
L 1159 2956 
Q 1366 3272 1645 3428 
Q 1925 3584 2291 3584 
Q 2894 3584 3203 3211 
Q 3513 2838 3513 2113 
z
" transform="scale(0.015625)"/>
       <path id="DejaVuSans-Oblique-53" d="M 3859 4513 
L 3738 3897 
Q 3422 4066 3111 4152 
Q 2800 4238 2509 4238 
Q 1944 4238 1609 3991 
Q 1275 3744 1275 3334 
Q 1275 3109 1398 2989 
Q 1522 2869 2034 2731 
L 2413 2638 
Q 3053 2472 3303 2217 
Q 3553 1963 3553 1503 
Q 3553 797 2998 353 
Q 2444 -91 1538 -91 
Q 1166 -91 791 -17 
Q 416 56 38 206 
L 166 856 
Q 513 641 861 531 
Q 1209 422 1556 422 
Q 2147 422 2503 684 
Q 2859 947 2859 1369 
Q 2859 1650 2717 1795 
Q 2575 1941 2106 2059 
L 1728 2156 
Q 1081 2325 845 2545 
Q 609 2766 609 3163 
Q 609 3859 1145 4304 
Q 1681 4750 2541 4750 
Q 2875 4750 3203 4690 
Q 3531 4631 3859 4513 
z
" transform="scale(0.015625)"/>
       <path id="DejaVuSans-Oblique-41" d="M 2356 4666 
L 3072 4666 
L 3938 0 
L 3278 0 
L 3084 1197 
L 984 1197 
L 325 0 
L -341 0 
L 2356 4666 
z
M 2584 4044 
L 1275 1722 
L 2988 1722 
L 2584 4044 
z
" transform="scale(0.015625)"/>
       <path id="DejaVuSans-67" d="M 2906 1791 
Q 2906 2416 2648 2759 
Q 2391 3103 1925 3103 
Q 1463 3103 1205 2759 
Q 947 2416 947 1791 
Q 947 1169 1205 825 
Q 1463 481 1925 481 
Q 2391 481 2648 825 
Q 2906 1169 2906 1791 
z
M 3481 434 
Q 3481 -459 3084 -895 
Q 2688 -1331 1869 -1331 
Q 1566 -1331 1297 -1286 
Q 1028 -1241 775 -1147 
L 775 -588 
Q 1028 -725 1275 -790 
Q 1522 -856 1778 -856 
Q 2344 -856 2625 -561 
Q 2906 -266 2906 331 
L 2906 616 
Q 2728 306 2450 153 
Q 2172 0 1784 0 
Q 1141 0 747 490 
Q 353 981 353 1791 
Q 353 2603 747 3093 
Q 1141 3584 1784 3584 
Q 2172 3584 2450 3431 
Q 2728 3278 2906 2969 
L 2906 3500 
L 3481 3500 
L 3481 434 
z
" transform="scale(0.015625)"/>
      </defs>
      <use xlink:href="#DejaVuSans-53" transform="translate(0 0.015625)"/>
      <use xlink:href="#DejaVuSans-70" transform="translate(63.476562 0.015625)"/>
      <use xlink:href="#DejaVuSans-65" transform="translate(126.953125 0.015625)"/>
      <use xlink:href="#DejaVuSans-63" transform="translate(188.476562 0.015625)"/>
      <use xlink:href="#DejaVuSans-74" transform="translate(243.457031 0.015625)"/>
      <use xlink:href="#DejaVuSans-72" transform="translate(282.666016 0.015625)"/>
      <use xlink:href="#DejaVuSans-61" transform="translate(323.779297 0.015625)"/>
      <use xlink:href="#DejaVuSans-6c" transform="translate(385.058594 0.015625)"/>
      <use xlink:href="#DejaVuSans-20" transform="translate(412.841797 0.015625)"/>
      <use xlink:href="#DejaVuSans-61" transform="translate(444.628906 0.015625)"/>
      <use xlink:href="#DejaVuSans-63" transform="translate(505.908203 0.015625)"/>
      <use xlink:href="#DejaVuSans-63" transform="translate(560.888672 0.015625)"/>
      <use xlink:href="#DejaVuSans-65" transform="translate(615.869141 0.015625)"/>
      <use xlink:href="#DejaVuSans-6c" transform="translate(677.392578 0.015625)"/>
      <use xlink:href="#DejaVuSans-65" transform="translate(705.175781 0.015625)"/>
      <use xlink:href="#DejaVuSans-72" transform="translate(766.699219 0.015625)"/>
      <use xlink:href="#DejaVuSans-61" transform="translate(807.8125 0.015625)"/>
      <use xlink:href="#DejaVuSans-74" transform="translate(869.091797 0.015625)"/>
      <use xlink:href="#DejaVuSans-69" transform="translate(908.300781 0.015625)"/>
      <use xlink:href="#DejaVuSans-6f" transform="translate(936.083984 0.015625)"/>
      <use xlink:href="#DejaVuSans-6e" transform="translate(997.265625 0.015625)"/>
      <use xlink:href="#DejaVuSans-2c" transform="translate(1060.644531 0.015625)"/>
      <use xlink:href="#DejaVuSans-20" transform="translate(1092.431641 0.015625)"/>
      <use xlink:href="#DejaVuSans-Oblique-53" transform="translate(1124.21875 0.015625)"/>
      <use xlink:href="#DejaVuSans-Oblique-41" transform="translate(1187.695312 0.015625)"/>
      <use xlink:href="#DejaVuSans-20" transform="translate(1256.103516 0.015625)"/>
      <use xlink:href="#DejaVuSans-28" transform="translate(1287.890625 0.015625)"/>
      <use xlink:href="#DejaVuSans-67" transform="translate(1326.904297 0.015625)"/>
      <use xlink:href="#DejaVuSans-29" transform="translate(1390.380859 0.015625)"/>
     </g>
    </g>
   </g>
   <g id="line2d_83">
    <path d="M 52.848943 50.591939 
L 69.616659 42.870537 
L 81.513542 42.387771 
L 90.741481 25.623227 
L 98.281257 28.444954 
L 110.17814 33.38976 
L 119.406079 42.481351 
L 136.173794 41.288675 
L 148.070677 47.213038 
L 158.920561 52.915036 
L 164.838392 52.704549 
L 176.735276 56.746281 
L 193.502991 63.025284 
L 205.399874 58.243932 
L 214.627813 59.22154 
" clip-path="url(#p0651807540)" style="fill: none; stroke: #b2b2b2; stroke-width: 0.8; stroke-linecap: square"/>
   </g>
   <g id="line2d_84">
    <path d="M 52.848943 21.211535 
L 69.616659 23.5683 
L 81.513542 16.091594 
L 90.741481 26.143288 
L 98.281257 20.07987 
L 110.17814 31.373304 
L 119.406079 42.134942 
L 136.173794 49.71511 
L 148.070677 57.730862 
L 158.920561 66.487622 
L 164.838392 79.209052 
L 176.735276 82.032891 
L 193.502991 98.366347 
L 205.399874 119.816012 
L 214.627813 132.265769 
" clip-path="url(#p0651807540)" style="fill: none; stroke: #b2b2b2; stroke-width: 0.8; stroke-linecap: square"/>
   </g>
   <g id="line2d_85">
    <path d="M 52.848943 57.657177 
L 69.616659 51.89496 
L 81.513542 51.810503 
L 90.741481 50.700154 
L 98.281257 44.824212 
L 110.17814 40.569783 
L 119.406079 22.255794 
L 136.173794 30.997176 
L 148.070677 49.679955 
L 158.920561 68.324931 
L 164.838392 72.789487 
L 176.735276 92.500307 
L 193.502991 102.596341 
L 205.399874 97.254653 
L 214.627813 99.549785 
" clip-path="url(#p0651807540)" style="fill: none; stroke: #b2b2b2; stroke-width: 0.8; stroke-linecap: square"/>
   </g>
   <g id="line2d_86">
    <path d="M 52.848943 58.644841 
L 69.616659 56.633212 
L 81.513542 45.058506 
L 90.741481 44.63751 
L 98.281257 38.434973 
L 110.17814 31.137841 
L 119.406079 35.149335 
L 136.173794 32.254971 
L 148.070677 49.4491 
L 158.920561 58.002272 
L 164.838392 63.488732 
L 176.735276 70.818127 
L 193.502991 93.454363 
L 205.399874 114.489269 
L 214.627813 124.041293 
" clip-path="url(#p0651807540)" style="fill: none; stroke: #b2b2b2; stroke-width: 0.8; stroke-linecap: square"/>
   </g>
   <g id="line2d_87">
    <path d="M 52.848943 42.620065 
L 69.616659 32.138742 
L 81.513542 23.397144 
L 90.741481 27.39288 
L 98.281257 35.53605 
L 110.17814 32.899606 
L 119.406079 31.913715 
L 136.173794 47.005152 
L 148.070677 55.753129 
L 158.920561 61.551937 
L 164.838392 62.151342 
L 176.735276 71.346868 
L 193.502991 86.948059 
L 205.399874 107.497673 
L 214.627813 99.728002 
" clip-path="url(#p0651807540)" style="fill: none; stroke: #b2b2b2; stroke-width: 0.8; stroke-linecap: square"/>
   </g>
   <g id="line2d_88">
    <path d="M 52.848943 54.222134 
L 69.616659 50.89776 
L 81.513542 44.270833 
L 90.741481 37.730525 
L 98.281257 34.171267 
L 110.17814 44.178875 
L 119.406079 35.493975 
L 136.173794 44.335378 
L 148.070677 42.647053 
L 158.920561 59.669262 
L 164.838392 57.192441 
L 176.735276 70.429439 
L 193.502991 94.475965 
L 205.399874 107.615496 
L 214.627813 112.184879 
" clip-path="url(#p0651807540)" style="fill: none; stroke: #b2b2b2; stroke-width: 0.8; stroke-linecap: square"/>
   </g>
   <g id="line2d_89">
    <path d="M 52.848943 44.898453 
L 69.616659 35.343065 
L 81.513542 31.525327 
L 90.741481 33.088978 
L 98.281257 24.765405 
L 110.17814 32.746797 
L 119.406079 26.038179 
L 136.173794 47.873037 
L 148.070677 55.575494 
L 158.920561 54.912125 
L 164.838392 61.286763 
L 176.735276 76.65031 
L 193.502991 82.937772 
L 205.399874 82.233775 
L 214.627813 89.723928 
" clip-path="url(#p0651807540)" style="fill: none; stroke: #b2b2b2; stroke-width: 0.8; stroke-linecap: square"/>
   </g>
   <g id="line2d_90">
    <path d="M 52.848943 57.069427 
L 69.616659 49.958188 
L 81.513542 45.357867 
L 90.741481 40.106697 
L 98.281257 28.817303 
L 110.17814 31.054504 
L 119.406079 38.857064 
L 136.173794 44.66111 
L 148.070677 48.308274 
L 158.920561 52.104168 
L 164.838392 52.60632 
L 176.735276 54.731191 
L 193.502991 67.91729 
L 205.399874 83.69398 
L 214.627813 98.677433 
" clip-path="url(#p0651807540)" style="fill: none; stroke: #b2b2b2; stroke-width: 0.8; stroke-linecap: square"/>
   </g>
   <g id="line2d_91">
    <path d="M 52.848943 55.191252 
L 69.616659 44.64479 
L 81.513542 47.764236 
L 90.741481 35.834136 
L 98.281257 40.33709 
L 110.17814 44.033097 
L 119.406079 35.477104 
L 136.173794 45.030394 
L 148.070677 42.860803 
L 158.920561 56.457402 
L 164.838392 62.045962 
L 176.735276 65.207715 
L 193.502991 71.16524 
L 205.399874 87.947373 
L 214.627813 94.293528 
" clip-path="url(#p0651807540)" style="fill: none; stroke: #b2b2b2; stroke-width: 0.8; stroke-linecap: square"/>
   </g>
   <g id="line2d_92">
    <path d="M 52.848943 55.089479 
L 69.616659 48.992325 
L 81.513542 44.841071 
L 90.741481 28.868164 
L 98.281257 44.687839 
L 110.17814 44.904062 
L 119.406079 37.156487 
L 136.173794 35.177057 
L 148.070677 47.590507 
L 158.920561 54.336928 
L 164.838392 52.602384 
L 176.735276 72.918303 
L 193.502991 98.293815 
L 205.399874 107.213787 
L 214.627813 112.22721 
" clip-path="url(#p0651807540)" style="fill: none; stroke: #b2b2b2; stroke-width: 0.8; stroke-linecap: square"/>
   </g>
   <g id="line2d_93">
    <path d="M 52.848943 35.088114 
L 69.616659 23.219364 
L 81.513542 23.229071 
L 90.741481 21.468307 
L 98.281257 35.7633 
L 110.17814 43.536697 
L 119.406079 50.184827 
L 136.173794 47.034449 
L 148.070677 55.322134 
L 158.920561 58.026923 
L 164.838392 61.284464 
L 176.735276 70.020636 
L 193.502991 85.145755 
L 205.399874 100.587636 
L 214.627813 104.177816 
" clip-path="url(#p0651807540)" style="fill: none; stroke: #b2b2b2; stroke-width: 0.8; stroke-linecap: square"/>
   </g>
   <g id="line2d_94">
    <path d="M 52.848943 55.389909 
L 69.616659 45.204911 
L 81.513542 40.475636 
L 90.741481 43.324509 
L 98.281257 44.08913 
L 110.17814 36.674257 
L 119.406079 35.789265 
L 136.173794 42.225946 
L 148.070677 40.321492 
L 158.920561 52.518406 
L 164.838392 45.716597 
L 176.735276 58.731371 
L 193.502991 76.501853 
L 205.399874 95.752323 
L 214.627813 104.370168 
" clip-path="url(#p0651807540)" style="fill: none; stroke: #b2b2b2; stroke-width: 0.8; stroke-linecap: square"/>
   </g>
   <g id="line2d_95">
    <path d="M 52.848943 33.476893 
L 69.616659 19.05552 
L 81.513542 26.039778 
L 90.741481 30.811387 
L 98.281257 24.501685 
L 110.17814 31.783601 
L 119.406079 42.482148 
L 136.173794 49.295911 
L 148.070677 51.515323 
L 158.920561 55.202317 
L 164.838392 58.876211 
L 176.735276 69.723093 
L 193.502991 92.642269 
L 205.399874 109.752416 
L 214.627813 120.216459 
" clip-path="url(#p0651807540)" style="fill: none; stroke: #b2b2b2; stroke-width: 0.8; stroke-linecap: square"/>
   </g>
   <g id="line2d_96">
    <path d="M 52.848943 53.424236 
L 69.616659 47.867992 
L 81.513542 46.974833 
L 90.741481 43.361106 
L 98.281257 40.48634 
L 110.17814 44.642805 
L 119.406079 38.950458 
L 136.173794 39.785945 
L 148.070677 36.362004 
L 158.920561 39.693817 
L 164.838392 40.950554 
L 176.735276 45.172476 
L 193.502991 56.31472 
L 205.399874 70.989864 
L 214.627813 81.271221 
" clip-path="url(#p0651807540)" style="fill: none; stroke: #b2b2b2; stroke-width: 0.8; stroke-linecap: square"/>
   </g>
   <g id="line2d_97">
    <path d="M 52.848943 55.704267 
L 69.616659 53.156823 
L 81.513542 51.931315 
L 90.741481 41.02022 
L 98.281257 48.618542 
L 110.17814 46.110195 
L 119.406079 40.629165 
L 136.173794 41.142092 
L 148.070677 39.197978 
L 158.920561 45.341129 
L 164.838392 52.767257 
L 176.735276 55.757591 
L 193.502991 80.624796 
L 205.399874 69.4667 
L 214.627813 81.831811 
" clip-path="url(#p0651807540)" style="fill: none; stroke: #b2b2b2; stroke-width: 0.8; stroke-linecap: square"/>
   </g>
   <g id="line2d_98">
    <path d="M 52.848943 54.183184 
L 69.616659 49.936187 
L 81.513542 47.689645 
L 90.741481 45.92311 
L 98.281257 46.206686 
L 110.17814 42.950412 
L 119.406079 45.009979 
L 136.173794 40.083393 
L 148.070677 37.355491 
L 158.920561 46.282832 
L 164.838392 50.573867 
L 176.735276 54.766935 
L 193.502991 84.343384 
L 205.399874 108.713622 
L 214.627813 113.668691 
" clip-path="url(#p0651807540)" style="fill: none; stroke: #b2b2b2; stroke-width: 0.8; stroke-linecap: square"/>
   </g>
   <g id="line2d_99">
    <path d="M 52.848943 50.379334 
L 69.616659 39.108499 
L 81.513542 39.255818 
L 90.741481 44.935299 
L 98.281257 40.208781 
L 110.17814 40.279433 
L 119.406079 35.235858 
L 136.173794 44.992756 
L 148.070677 49.909783 
L 158.920561 48.945639 
L 164.838392 53.45926 
L 176.735276 65.704219 
L 193.502991 81.44419 
L 205.399874 92.283576 
L 214.627813 105.737055 
" clip-path="url(#p0651807540)" style="fill: none; stroke: #b2b2b2; stroke-width: 0.8; stroke-linecap: square"/>
   </g>
   <g id="line2d_100">
    <path d="M 52.848943 54.390698 
L 69.616659 55.386378 
L 81.513542 48.950426 
L 90.741481 48.077096 
L 98.281257 44.081378 
L 110.17814 39.433469 
L 119.406079 36.320295 
L 136.173794 40.513383 
L 148.070677 38.987218 
L 158.920561 39.866669 
L 164.838392 47.43443 
L 176.735276 62.147045 
L 193.502991 82.561854 
L 205.399874 95.014257 
L 214.627813 104.114001 
" clip-path="url(#p0651807540)" style="fill: none; stroke: #b2b2b2; stroke-width: 0.8; stroke-linecap: square"/>
   </g>
   <g id="line2d_101">
    <path d="M 52.848943 34.16399 
L 69.616659 25.421644 
L 81.513542 30.366878 
L 90.741481 24.751934 
L 98.281257 28.017024 
L 110.17814 32.295337 
L 119.406079 34.018984 
L 136.173794 48.082225 
L 148.070677 55.041686 
L 158.920561 57.146752 
L 164.838392 61.364221 
L 176.735276 78.128474 
L 193.502991 90.052073 
L 205.399874 93.190804 
L 214.627813 95.312037 
" clip-path="url(#p0651807540)" style="fill: none; stroke: #b2b2b2; stroke-width: 0.8; stroke-linecap: square"/>
   </g>
   <g id="line2d_102">
    <path d="M 52.848943 33.084234 
L 69.616659 27.198915 
L 81.513542 30.405279 
L 90.741481 26.501252 
L 98.281257 13.321769 
L 110.17814 23.292764 
L 119.406079 24.215312 
L 136.173794 49.19042 
L 148.070677 61.520729 
L 158.920561 74.026071 
L 164.838392 86.50227 
L 176.735276 92.131813 
L 193.502991 97.704515 
L 205.399874 104.008009 
L 214.627813 123.71819 
" clip-path="url(#p0651807540)" style="fill: none; stroke: #b2b2b2; stroke-width: 0.8; stroke-linecap: square"/>
   </g>
   <g id="line2d_103">
    <path d="M 52.848943 41.810263 
L 69.616659 37.126092 
L 81.513542 29.634176 
L 90.741481 21.868385 
L 98.281257 27.431211 
L 110.17814 23.960105 
L 119.406079 38.356441 
L 136.173794 49.572354 
L 148.070677 52.054798 
L 158.920561 60.179208 
L 164.838392 61.206726 
L 176.735276 70.880676 
L 193.502991 91.853847 
L 205.399874 100.718112 
L 214.627813 111.130015 
" clip-path="url(#p0651807540)" style="fill: none; stroke: #b2b2b2; stroke-width: 0.8; stroke-linecap: square"/>
   </g>
   <g id="line2d_104">
    <path d="M 52.848943 26.821837 
L 69.616659 34.45955 
L 81.513542 30.172243 
L 90.741481 35.528974 
L 98.281257 34.240754 
L 110.17814 35.400246 
L 119.406079 38.120461 
L 136.173794 46.56046 
L 148.070677 54.62867 
L 158.920561 43.98374 
L 164.838392 50.199916 
L 176.735276 60.441559 
L 193.502991 76.177115 
L 205.399874 82.791201 
L 214.627813 90.675475 
" clip-path="url(#p0651807540)" style="fill: none; stroke: #b2b2b2; stroke-width: 0.8; stroke-linecap: square"/>
   </g>
   <g id="line2d_105">
    <path d="M 52.848943 58.491844 
L 69.616659 50.202698 
L 81.513542 42.404794 
L 90.741481 41.17957 
L 98.281257 41.612704 
L 110.17814 30.764759 
L 119.406079 28.91734 
L 136.173794 40.139955 
L 148.070677 53.229107 
L 158.920561 55.169157 
L 164.838392 57.446607 
L 176.735276 62.302578 
L 193.502991 75.034753 
L 205.399874 85.869237 
L 214.627813 97.862156 
" clip-path="url(#p0651807540)" style="fill: none; stroke: #b2b2b2; stroke-width: 0.8; stroke-linecap: square"/>
   </g>
   <g id="line2d_106">
    <path d="M 52.848943 44.311188 
L 69.616659 35.84318 
L 81.513542 39.184231 
L 90.741481 27.156907 
L 98.281257 23.750167 
L 110.17814 37.329141 
L 119.406079 39.366471 
L 136.173794 51.246946 
L 148.070677 50.349102 
L 158.920561 50.26811 
L 164.838392 58.201189 
L 176.735276 73.831106 
L 193.502991 85.510015 
L 205.399874 96.068613 
L 214.627813 109.841512 
" clip-path="url(#p0651807540)" style="fill: none; stroke: #b2b2b2; stroke-width: 0.8; stroke-linecap: square"/>
   </g>
   <g id="line2d_107">
    <path d="M 52.848943 58.849158 
L 69.616659 53.715193 
L 81.513542 49.628437 
L 90.741481 48.089091 
L 98.281257 47.232722 
L 110.17814 37.491152 
L 119.406079 32.536551 
L 136.173794 40.782033 
L 148.070677 41.025229 
L 158.920561 52.501778 
L 164.838392 59.552494 
L 176.735276 67.002698 
L 193.502991 63.715186 
L 205.399874 82.53959 
L 214.627813 101.519816 
" clip-path="url(#p0651807540)" style="fill: none; stroke: #b2b2b2; stroke-width: 0.8; stroke-linecap: square"/>
   </g>
   <g id="line2d_108">
    <path d="M 52.848943 48.826009 
L 69.616659 47.078088 
L 81.513542 35.452845 
L 90.741481 35.703078 
L 98.281257 31.354732 
L 110.17814 22.843384 
L 119.406079 38.7208 
L 136.173794 41.303948 
L 148.070677 52.959894 
L 158.920561 65.314239 
L 164.838392 66.965297 
L 176.735276 70.557898 
L 193.502991 81.378792 
L 205.399874 93.957001 
L 214.627813 102.604503 
" clip-path="url(#p0651807540)" style="fill: none; stroke: #b2b2b2; stroke-width: 0.8; stroke-linecap: square"/>
   </g>
   <g id="line2d_109">
    <path d="M 52.848943 48.928122 
L 69.616659 46.409033 
L 81.513542 29.911802 
L 90.741481 30.254224 
L 98.281257 41.892714 
L 110.17814 34.936486 
L 119.406079 44.479858 
L 136.173794 38.461084 
L 148.070677 47.122408 
L 158.920561 46.744056 
L 164.838392 57.165149 
L 176.735276 64.588002 
L 193.502991 93.568401 
L 205.399874 99.388459 
L 214.627813 101.545735 
" clip-path="url(#p0651807540)" style="fill: none; stroke: #b2b2b2; stroke-width: 0.8; stroke-linecap: square"/>
   </g>
   <g id="line2d_110">
    <path d="M 52.848943 32.754013 
L 69.616659 32.147238 
L 81.513542 30.058962 
L 90.741481 34.896499 
L 98.281257 34.845902 
L 110.17814 43.95673 
L 119.406079 44.004977 
L 136.173794 40.601696 
L 148.070677 51.607062 
L 158.920561 65.531251 
L 164.838392 64.833415 
L 176.735276 75.91101 
L 193.502991 89.037357 
L 205.399874 95.665133 
L 214.627813 115.791843 
" clip-path="url(#p0651807540)" style="fill: none; stroke: #b2b2b2; stroke-width: 0.8; stroke-linecap: square"/>
   </g>
   <g id="line2d_111">
    <path d="M 52.848943 52.309437 
L 69.616659 48.171742 
L 81.513542 45.782144 
L 90.741481 41.630156 
L 98.281257 38.939279 
L 110.17814 40.877898 
L 119.406079 40.616978 
L 136.173794 33.17175 
L 148.070677 48.548717 
L 158.920561 53.606158 
L 164.838392 52.816365 
L 176.735276 56.360529 
L 193.502991 64.251595 
L 205.399874 76.598014 
L 214.627813 87.81347 
" clip-path="url(#p0651807540)" style="fill: none; stroke: #b2b2b2; stroke-width: 0.8; stroke-linecap: square"/>
   </g>
   <g id="line2d_112">
    <path d="M 52.848943 29.195078 
L 69.616659 14.515761 
L 81.513542 21.76135 
L 90.741481 21.592512 
L 98.281257 26.357558 
L 110.17814 30.16824 
L 119.406079 47.500613 
L 136.173794 53.043024 
L 148.070677 57.486514 
L 158.920561 54.448897 
L 164.838392 66.802677 
L 176.735276 66.231912 
L 193.502991 80.736866 
L 205.399874 91.388361 
L 214.627813 85.505181 
" clip-path="url(#p0651807540)" style="fill: none; stroke: #b2b2b2; stroke-width: 0.8; stroke-linecap: square"/>
   </g>
   <g id="line2d_113">
    <path d="M 52.848943 49.595574 
L 69.616659 44.848137 
L 81.513542 45.433902 
L 90.741481 37.870529 
L 98.281257 35.568226 
L 110.17814 37.064854 
L 119.406079 42.159529 
L 136.173794 35.834597 
L 148.070677 43.6512 
L 158.920561 53.02566 
L 164.838392 67.526065 
L 176.735276 75.118692 
L 193.502991 75.027394 
L 205.399874 91.021407 
L 214.627813 97.583124 
" clip-path="url(#p0651807540)" style="fill: none; stroke: #b2b2b2; stroke-width: 0.8; stroke-linecap: square"/>
   </g>
   <g id="line2d_114">
    <path d="M 52.848943 24.354484 
L 69.616659 26.938644 
L 81.513542 24.816387 
L 90.741481 32.781142 
L 98.281257 37.387916 
L 110.17814 32.493764 
L 119.406079 43.114137 
L 136.173794 53.30431 
L 148.070677 49.670483 
L 158.920561 53.580376 
L 164.838392 54.740162 
L 176.735276 58.581606 
L 193.502991 65.719221 
L 205.399874 69.882816 
L 214.627813 86.03121 
" clip-path="url(#p0651807540)" style="fill: none; stroke: #b2b2b2; stroke-width: 0.8; stroke-linecap: square"/>
   </g>
   <g id="line2d_115">
    <path d="M 52.848943 31.474565 
L 69.616659 21.855994 
L 81.513542 19.480178 
L 90.741481 23.439075 
L 98.281257 27.461719 
L 110.17814 31.013746 
L 119.406079 36.230605 
L 136.173794 47.961041 
L 148.070677 65.437886 
L 158.920561 72.233882 
L 164.838392 82.087825 
L 176.735276 87.66052 
L 193.502991 80.184683 
L 205.399874 91.655773 
L 214.627813 106.532724 
" clip-path="url(#p0651807540)" style="fill: none; stroke: #b2b2b2; stroke-width: 0.8; stroke-linecap: square"/>
   </g>
   <g id="line2d_116">
    <path d="M 52.848943 37.188439 
L 69.616659 28.592944 
L 81.513542 28.818813 
L 90.741481 24.601273 
L 98.281257 32.487654 
L 110.17814 28.465363 
L 119.406079 31.472438 
L 136.173794 49.559734 
L 148.070677 54.592478 
L 158.920561 46.614208 
L 164.838392 54.590154 
L 176.735276 76.237122 
L 193.502991 86.437259 
L 205.399874 93.243884 
L 214.627813 98.974867 
" clip-path="url(#p0651807540)" style="fill: none; stroke: #b2b2b2; stroke-width: 0.8; stroke-linecap: square"/>
   </g>
   <g id="line2d_117">
    <path d="M 52.848943 56.987335 
L 69.616659 51.645353 
L 81.513542 55.740929 
L 90.741481 53.608801 
L 98.281257 43.386885 
L 110.17814 43.154556 
L 119.406079 34.023617 
L 136.173794 41.839634 
L 148.070677 34.115852 
L 158.920561 60.443954 
L 164.838392 56.087833 
L 176.735276 57.719365 
L 193.502991 73.121091 
L 205.399874 85.988742 
L 214.627813 88.611695 
" clip-path="url(#p0651807540)" style="fill: none; stroke: #b2b2b2; stroke-width: 0.8; stroke-linecap: square"/>
   </g>
   <g id="line2d_118">
    <path d="M 52.848943 53.196017 
L 69.616659 51.516832 
L 81.513542 46.326413 
L 90.741481 49.392301 
L 98.281257 38.542882 
L 110.17814 39.407196 
L 119.406079 36.324688 
L 136.173794 37.914408 
L 148.070677 44.982911 
L 158.920561 52.859688 
L 164.838392 62.107229 
L 176.735276 78.942881 
L 193.502991 95.032193 
L 205.399874 102.694502 
L 214.627813 115.728923 
" clip-path="url(#p0651807540)" style="fill: none; stroke: #b2b2b2; stroke-width: 0.8; stroke-linecap: square"/>
   </g>
   <g id="line2d_119">
    <path d="M 52.848943 60.350668 
L 69.616659 57.927199 
L 81.513542 50.56477 
L 90.741481 43.856817 
L 98.281257 38.546667 
L 110.17814 38.389718 
L 119.406079 32.178951 
L 136.173794 37.842167 
L 148.070677 45.173399 
L 158.920561 56.603472 
L 164.838392 55.286471 
L 176.735276 63.610417 
L 193.502991 67.045748 
L 205.399874 83.049552 
L 214.627813 99.624814 
" clip-path="url(#p0651807540)" style="fill: none; stroke: #b2b2b2; stroke-width: 0.8; stroke-linecap: square"/>
   </g>
   <g id="line2d_120">
    <path d="M 52.848943 26.691911 
L 69.616659 20.444968 
L 81.513542 16.620614 
L 90.741481 21.887478 
L 98.281257 31.085294 
L 110.17814 30.602639 
L 119.406079 31.226351 
L 136.173794 48.729745 
L 148.070677 62.352879 
L 158.920561 78.153635 
L 164.838392 72.294328 
L 176.735276 91.066047 
L 193.502991 96.076238 
L 205.399874 101.950274 
L 214.627813 111.612643 
" clip-path="url(#p0651807540)" style="fill: none; stroke: #b2b2b2; stroke-width: 0.8; stroke-linecap: square"/>
   </g>
   <g id="line2d_121">
    <path d="M 52.848943 52.128226 
L 69.616659 51.774312 
L 81.513542 47.350813 
L 90.741481 40.469004 
L 98.281257 33.120034 
L 110.17814 36.508332 
L 119.406079 33.333831 
L 136.173794 35.794034 
L 148.070677 58.412729 
L 158.920561 54.394248 
L 164.838392 63.307416 
L 176.735276 84.034776 
L 193.502991 104.736238 
L 205.399874 109.475917 
L 214.627813 106.879865 
" clip-path="url(#p0651807540)" style="fill: none; stroke: #b2b2b2; stroke-width: 0.8; stroke-linecap: square"/>
   </g>
   <g id="line2d_122">
    <path d="M 52.848943 50.321024 
L 69.616659 47.073206 
L 81.513542 41.925898 
L 90.741481 45.578795 
L 98.281257 45.346624 
L 110.17814 34.097583 
L 119.406079 33.637682 
L 136.173794 38.023202 
L 148.070677 48.34875 
L 158.920561 57.914675 
L 164.838392 65.462149 
L 176.735276 80.725978 
L 193.502991 97.039749 
L 205.399874 112.10538 
L 214.627813 113.414108 
" clip-path="url(#p0651807540)" style="fill: none; stroke: #b2b2b2; stroke-width: 0.8; stroke-linecap: square"/>
   </g>
   <g id="line2d_123">
    <path d="M 52.848943 43.8533 
L 69.616659 43.12018 
L 81.513542 45.788849 
L 90.741481 51.652458 
L 98.281257 42.976817 
L 110.17814 42.254677 
L 119.406079 37.154804 
L 136.173794 33.82628 
L 148.070677 45.875977 
L 158.920561 59.339673 
L 164.838392 62.118265 
L 176.735276 67.810994 
L 193.502991 80.350079 
L 205.399874 94.405423 
L 214.627813 104.584852 
" clip-path="url(#p0651807540)" style="fill: none; stroke: #b2b2b2; stroke-width: 0.8; stroke-linecap: square"/>
   </g>
   <g id="line2d_124">
    <path d="M 52.848943 41.597979 
L 69.616659 37.517189 
L 81.513542 32.804565 
L 90.741481 37.27889 
L 98.281257 39.641936 
L 110.17814 36.074519 
L 119.406079 40.744822 
L 136.173794 45.286816 
L 148.070677 48.590188 
L 158.920561 69.939998 
L 164.838392 78.435646 
L 176.735276 86.713749 
L 193.502991 101.650863 
L 205.399874 109.479905 
L 214.627813 129.287354 
" clip-path="url(#p0651807540)" style="fill: none; stroke: #b2b2b2; stroke-width: 0.8; stroke-linecap: square"/>
   </g>
   <g id="line2d_125">
    <path d="M 52.848943 32.70211 
L 69.616659 39.355731 
L 81.513542 30.410496 
L 90.741481 26.633412 
L 98.281257 31.83608 
L 110.17814 27.754499 
L 119.406079 30.453875 
L 136.173794 43.880529 
L 148.070677 58.029144 
L 158.920561 67.286084 
L 164.838392 71.358027 
L 176.735276 82.552511 
L 193.502991 85.221938 
L 205.399874 95.895682 
L 214.627813 100.736888 
" clip-path="url(#p0651807540)" style="fill: none; stroke: #b2b2b2; stroke-width: 0.8; stroke-linecap: square"/>
   </g>
   <g id="line2d_126">
    <path d="M 52.848943 57.00471 
L 69.616659 54.137618 
L 81.513542 53.202139 
L 90.741481 52.522574 
L 98.281257 45.61632 
L 110.17814 47.254309 
L 119.406079 45.469547 
L 136.173794 33.874703 
L 148.070677 33.675588 
L 158.920561 37.971666 
L 164.838392 44.343129 
L 176.735276 59.30349 
L 193.502991 78.431664 
L 205.399874 96.586955 
L 214.627813 110.087832 
" clip-path="url(#p0651807540)" style="fill: none; stroke: #b2b2b2; stroke-width: 0.8; stroke-linecap: square"/>
   </g>
   <g id="line2d_127">
    <path d="M 52.848943 47.478886 
L 69.616659 42.465769 
L 81.513542 41.71487 
L 90.741481 32.374256 
L 98.281257 25.716066 
L 110.17814 32.858328 
L 119.406079 38.26003 
L 136.173794 46.85846 
L 148.070677 53.290307 
L 158.920561 61.253438 
L 164.838392 68.655284 
L 176.735276 76.668978 
L 193.502991 99.705368 
L 205.399874 96.104972 
L 214.627813 96.7199 
" clip-path="url(#p0651807540)" style="fill: none; stroke: #b2b2b2; stroke-width: 0.8; stroke-linecap: square"/>
   </g>
   <g id="line2d_128">
    <path d="M 52.848943 54.10218 
L 69.616659 41.28876 
L 81.513542 35.945031 
L 90.741481 36.17279 
L 98.281257 38.700667 
L 110.17814 34.396059 
L 119.406079 36.143057 
L 136.173794 50.99999 
L 148.070677 41.77148 
L 158.920561 54.144367 
L 164.838392 62.560573 
L 176.735276 66.311897 
L 193.502991 83.142687 
L 205.399874 96.834875 
L 214.627813 101.734665 
" clip-path="url(#p0651807540)" style="fill: none; stroke: #b2b2b2; stroke-width: 0.8; stroke-linecap: square"/>
   </g>
   <g id="line2d_129">
    <path d="M 52.848943 53.316596 
L 69.616659 51.51695 
L 81.513542 45.876385 
L 90.741481 47.439826 
L 98.281257 44.329922 
L 110.17814 41.081867 
L 119.406079 38.041182 
L 136.173794 37.568218 
L 148.070677 44.82627 
L 158.920561 35.601836 
L 164.838392 38.777187 
L 176.735276 63.262755 
L 193.502991 61.587469 
L 205.399874 83.563625 
L 214.627813 101.92883 
" clip-path="url(#p0651807540)" style="fill: none; stroke: #b2b2b2; stroke-width: 0.8; stroke-linecap: square"/>
   </g>
   <g id="line2d_130">
    <path d="M 52.848943 39.935409 
L 69.616659 34.55104 
L 81.513542 35.86756 
L 90.741481 32.330877 
L 98.281257 27.765885 
L 110.17814 24.790186 
L 119.406079 36.032784 
L 136.173794 48.840045 
L 148.070677 49.494946 
L 158.920561 72.737018 
L 164.838392 64.442071 
L 176.735276 78.980677 
L 193.502991 87.052321 
L 205.399874 93.664253 
L 214.627813 113.315525 
" clip-path="url(#p0651807540)" style="fill: none; stroke: #b2b2b2; stroke-width: 0.8; stroke-linecap: square"/>
   </g>
   <g id="line2d_131">
    <path d="M 52.848943 51.910846 
L 69.616659 48.939567 
L 81.513542 44.221263 
L 90.741481 45.323353 
L 98.281257 41.201279 
L 110.17814 51.08369 
L 119.406079 44.531939 
L 136.173794 36.483141 
L 148.070677 39.840697 
L 158.920561 48.643904 
L 164.838392 54.013822 
L 176.735276 65.206679 
L 193.502991 68.49837 
L 205.399874 82.235255 
L 214.627813 86.142252 
" clip-path="url(#p0651807540)" style="fill: none; stroke: #b2b2b2; stroke-width: 0.8; stroke-linecap: square"/>
   </g>
   <g id="line2d_132">
    <path d="M 52.848943 19.79238 
L 69.616659 25.140735 
L 81.513542 32.592883 
L 90.741481 40.557642 
L 98.281257 34.749371 
L 110.17814 37.176772 
L 119.406079 38.665609 
L 136.173794 48.30385 
L 148.070677 55.98445 
L 158.920561 57.157633 
L 164.838392 66.050769 
L 176.735276 86.241341 
L 193.502991 103.999931 
L 205.399874 111.428673 
L 214.627813 126.82041 
" clip-path="url(#p0651807540)" style="fill: none; stroke: #b2b2b2; stroke-width: 0.8; stroke-linecap: square"/>
   </g>
   <g id="line2d_133">
    <path d="M 52.848943 45.840221 
L 69.616659 40.843355 
L 81.513542 38.076472 
L 90.741481 36.80552 
L 98.281257 35.554707 
L 110.17814 36.203861 
L 119.406079 37.247511 
L 136.173794 42.877011 
L 148.070677 49.019618 
L 158.920561 55.90956 
L 164.838392 60.257042 
L 176.735276 70.388278 
L 193.502991 83.576833 
L 205.399874 94.234102 
L 214.627813 103.331199 
" clip-path="url(#p0651807540)" style="fill: none; stroke: #ff0000; stroke-width: 2; stroke-linecap: square"/>
   </g>
   <g id="line2d_134">
    <path d="M 52.848943 23.483614 
L 69.616659 18.194737 
L 81.513542 17.555916 
L 90.741481 18.471186 
L 98.281257 19.730279 
L 110.17814 23.187606 
L 119.406079 25.887216 
L 136.173794 31.63817 
L 148.070677 34.463913 
L 158.920561 37.720197 
L 164.838392 40.631494 
L 176.735276 48.654552 
L 193.502991 59.202321 
L 205.399874 69.011848 
L 214.627813 76.666878 
" clip-path="url(#p0651807540)" style="fill: none; stroke-dasharray: 7.4,3.2; stroke-dashoffset: 0; stroke: #ff0000; stroke-width: 2"/>
   </g>
   <g id="line2d_135">
    <path d="M 52.848943 68.196828 
L 69.616659 63.491973 
L 81.513542 58.597029 
L 90.741481 55.139855 
L 98.281257 51.379136 
L 110.17814 49.220115 
L 119.406079 48.607807 
L 136.173794 54.115851 
L 148.070677 63.575324 
L 158.920561 74.098924 
L 164.838392 79.882591 
L 176.735276 92.122004 
L 193.502991 107.951345 
L 205.399874 119.456356 
L 214.627813 129.99552 
" clip-path="url(#p0651807540)" style="fill: none; stroke-dasharray: 7.4,3.2; stroke-dashoffset: 0; stroke: #ff0000; stroke-width: 2"/>
   </g>
   <g id="line2d_136">
    <path d="M 52.848943 45.655215 
L 69.616659 40.856356 
L 81.513542 38.146345 
L 90.741481 36.679409 
L 98.281257 35.770392 
L 110.17814 36.218748 
L 119.406079 37.232284 
L 136.173794 42.965855 
L 148.070677 48.989423 
L 158.920561 55.989165 
L 164.838392 60.288808 
L 176.735276 70.410471 
L 193.502991 83.556806 
L 205.399874 94.240335 
L 214.627813 103.13946 
" clip-path="url(#p0651807540)" style="fill: none; stroke: #0000ff; stroke-width: 2; stroke-linecap: square"/>
   </g>
   <g id="line2d_137">
    <path d="M 52.848943 23.24973 
L 69.616659 18.092879 
L 81.513542 17.678949 
L 90.741481 18.135043 
L 98.281257 20.07728 
L 110.17814 23.175717 
L 119.406079 25.937806 
L 136.173794 31.273297 
L 148.070677 34.355739 
L 158.920561 37.487064 
L 164.838392 40.691772 
L 176.735276 48.600764 
L 193.502991 58.949566 
L 205.399874 69.009144 
L 214.627813 76.043145 
" clip-path="url(#p0651807540)" style="fill: none; stroke-dasharray: 7.4,3.2; stroke-dashoffset: 0; stroke: #0000ff; stroke-width: 2"/>
   </g>
   <g id="line2d_138">
    <path d="M 52.848943 68.060699 
L 69.616659 63.619834 
L 81.513542 58.613742 
L 90.741481 55.223776 
L 98.281257 51.463503 
L 110.17814 49.261779 
L 119.406079 48.526762 
L 136.173794 54.658413 
L 148.070677 63.623107 
L 158.920561 74.491266 
L 164.838392 79.885844 
L 176.735276 92.220177 
L 193.502991 108.164046 
L 205.399874 119.471526 
L 214.627813 130.235775 
" clip-path="url(#p0651807540)" style="fill: none; stroke-dasharray: 7.4,3.2; stroke-dashoffset: 0; stroke: #0000ff; stroke-width: 2"/>
   </g>
   <g id="line2d_139"/>
   <g id="patch_3">
    <path d="M 44.76 138.212969 
L 44.76 7.374569 
" style="fill: none; stroke: #000000; stroke-width: 0.8; stroke-linejoin: miter; stroke-linecap: square"/>
   </g>
   <g id="patch_4">
    <path d="M 222.716757 138.212969 
L 222.716757 7.374569 
" style="fill: none; stroke: #000000; stroke-width: 0.8; stroke-linejoin: miter; stroke-linecap: square"/>
   </g>
   <g id="patch_5">
    <path d="M 44.76 138.212969 
L 222.716757 138.212969 
" style="fill: none; stroke: #000000; stroke-width: 0.8; stroke-linejoin: miter; stroke-linecap: square"/>
   </g>
   <g id="patch_6">
    <path d="M 44.76 7.374569 
L 222.716757 7.374569 
" style="fill: none; stroke: #000000; stroke-width: 0.8; stroke-linejoin: miter; stroke-linecap: square"/>
   </g>
   <g id="legend_1">
    <g id="line2d_140">
     <path d="M 51.96 90.024219 
L 59.96 90.024219 
L 67.96 90.024219 
" style="fill: none; stroke: #b2b2b2; stroke-width: 0.8; stroke-linecap: square"/>
    </g>
    <g id="text_8">
     <!-- Individual records -->
     <g transform="translate(74.36 92.824219) scale(0.08 -0.08)">
      <defs>
       <path id="DejaVuSans-49" d="M 628 4666 
L 1259 4666 
L 1259 0 
L 628 0 
L 628 4666 
z
" transform="scale(0.015625)"/>
       <path id="DejaVuSans-76" d="M 191 3500 
L 800 3500 
L 1894 563 
L 2988 3500 
L 3597 3500 
L 2284 0 
L 1503 0 
L 191 3500 
z
" transform="scale(0.015625)"/>
       <path id="DejaVuSans-75" d="M 544 1381 
L 544 3500 
L 1119 3500 
L 1119 1403 
Q 1119 906 1312 657 
Q 1506 409 1894 409 
Q 2359 409 2629 706 
Q 2900 1003 2900 1516 
L 2900 3500 
L 3475 3500 
L 3475 0 
L 2900 0 
L 2900 538 
Q 2691 219 2414 64 
Q 2138 -91 1772 -91 
Q 1169 -91 856 284 
Q 544 659 544 1381 
z
M 1991 3584 
L 1991 3584 
z
" transform="scale(0.015625)"/>
      </defs>
      <use xlink:href="#DejaVuSans-49"/>
      <use xlink:href="#DejaVuSans-6e" x="29.492188"/>
      <use xlink:href="#DejaVuSans-64" x="92.871094"/>
      <use xlink:href="#DejaVuSans-69" x="156.347656"/>
      <use xlink:href="#DejaVuSans-76" x="184.130859"/>
      <use xlink:href="#DejaVuSans-69" x="243.310547"/>
      <use xlink:href="#DejaVuSans-64" x="271.09375"/>
      <use xlink:href="#DejaVuSans-75" x="334.570312"/>
      <use xlink:href="#DejaVuSans-61" x="397.949219"/>
      <use xlink:href="#DejaVuSans-6c" x="459.228516"/>
      <use xlink:href="#DejaVuSans-20" x="487.011719"/>
      <use xlink:href="#DejaVuSans-72" x="518.798828"/>
      <use xlink:href="#DejaVuSans-65" x="557.662109"/>
      <use xlink:href="#DejaVuSans-63" x="619.185547"/>
      <use xlink:href="#DejaVuSans-6f" x="674.166016"/>
      <use xlink:href="#DejaVuSans-72" x="735.347656"/>
      <use xlink:href="#DejaVuSans-64" x="774.710938"/>
      <use xlink:href="#DejaVuSans-73" x="838.1875"/>
     </g>
    </g>
    <g id="line2d_141">
     <path d="M 51.96 101.766719 
L 59.96 101.766719 
L 67.96 101.766719 
" style="fill: none; stroke: #ff0000; stroke-width: 2; stroke-linecap: square"/>
    </g>
    <g id="text_9">
     <!-- Target -->
     <g transform="translate(74.36 104.566719) scale(0.08 -0.08)">
      <defs>
       <path id="DejaVuSans-54" d="M -19 4666 
L 3928 4666 
L 3928 4134 
L 2272 4134 
L 2272 0 
L 1638 0 
L 1638 4134 
L -19 4134 
L -19 4666 
z
" transform="scale(0.015625)"/>
      </defs>
      <use xlink:href="#DejaVuSans-54"/>
      <use xlink:href="#DejaVuSans-61" x="44.583984"/>
      <use xlink:href="#DejaVuSans-72" x="105.863281"/>
      <use xlink:href="#DejaVuSans-67" x="145.226562"/>
      <use xlink:href="#DejaVuSans-65" x="208.703125"/>
      <use xlink:href="#DejaVuSans-74" x="270.226562"/>
     </g>
    </g>
    <g id="line2d_142">
     <path d="M 51.96 113.509219 
L 59.96 113.509219 
L 67.96 113.509219 
" style="fill: none; stroke: #0000ff; stroke-width: 2; stroke-linecap: square"/>
    </g>
    <g id="text_10">
     <!-- Selected -->
     <g transform="translate(74.36 116.309219) scale(0.08 -0.08)">
      <use xlink:href="#DejaVuSans-53"/>
      <use xlink:href="#DejaVuSans-65" x="63.476562"/>
      <use xlink:href="#DejaVuSans-6c" x="125"/>
      <use xlink:href="#DejaVuSans-65" x="152.783203"/>
      <use xlink:href="#DejaVuSans-63" x="214.306641"/>
      <use xlink:href="#DejaVuSans-74" x="269.287109"/>
      <use xlink:href="#DejaVuSans-65" x="308.496094"/>
      <use xlink:href="#DejaVuSans-64" x="370.019531"/>
     </g>
    </g>
    <g id="line2d_143">
     <path d="M 51.96 126.532969 
L 59.96 126.532969 
L 67.96 126.532969 
" style="fill: none; stroke-dasharray: 5.55,2.4; stroke-dashoffset: 0; stroke: #000000; stroke-width: 1.5"/>
    </g>
    <g id="text_11">
     <!-- $2^{nd}$ and $98^{th}$ percentiles -->
     <g transform="translate(74.36 129.332969) scale(0.08 -0.08)">
      <defs>
       <path id="DejaVuSans-32" d="M 1228 531 
L 3431 531 
L 3431 0 
L 469 0 
L 469 531 
Q 828 903 1448 1529 
Q 2069 2156 2228 2338 
Q 2531 2678 2651 2914 
Q 2772 3150 2772 3378 
Q 2772 3750 2511 3984 
Q 2250 4219 1831 4219 
Q 1534 4219 1204 4116 
Q 875 4013 500 3803 
L 500 4441 
Q 881 4594 1212 4672 
Q 1544 4750 1819 4750 
Q 2544 4750 2975 4387 
Q 3406 4025 3406 3419 
Q 3406 3131 3298 2873 
Q 3191 2616 2906 2266 
Q 2828 2175 2409 1742 
Q 1991 1309 1228 531 
z
" transform="scale(0.015625)"/>
       <path id="DejaVuSans-Oblique-6e" d="M 3566 2113 
L 3156 0 
L 2578 0 
L 2988 2091 
Q 3016 2238 3031 2350 
Q 3047 2463 3047 2528 
Q 3047 2791 2881 2937 
Q 2716 3084 2419 3084 
Q 1956 3084 1622 2776 
Q 1288 2469 1184 1941 
L 800 0 
L 225 0 
L 903 3500 
L 1478 3500 
L 1363 2950 
Q 1603 3253 1940 3418 
Q 2278 3584 2650 3584 
Q 3113 3584 3367 3334 
Q 3622 3084 3622 2631 
Q 3622 2519 3608 2391 
Q 3594 2263 3566 2113 
z
" transform="scale(0.015625)"/>
       <path id="DejaVuSans-Oblique-64" d="M 2675 525 
Q 2444 222 2128 65 
Q 1813 -91 1428 -91 
Q 903 -91 598 267 
Q 294 625 294 1247 
Q 294 1766 478 2236 
Q 663 2706 1013 3078 
Q 1244 3325 1534 3454 
Q 1825 3584 2144 3584 
Q 2481 3584 2739 3421 
Q 2997 3259 3138 2956 
L 3513 4863 
L 4091 4863 
L 3144 0 
L 2566 0 
L 2675 525 
z
M 891 1350 
Q 891 897 1095 644 
Q 1300 391 1663 391 
Q 1931 391 2161 520 
Q 2391 650 2566 903 
Q 2750 1166 2856 1509 
Q 2963 1853 2963 2188 
Q 2963 2622 2758 2865 
Q 2553 3109 2194 3109 
Q 1922 3109 1687 2981 
Q 1453 2853 1288 2613 
Q 1106 2353 998 2009 
Q 891 1666 891 1350 
z
" transform="scale(0.015625)"/>
       <path id="DejaVuSans-39" d="M 703 97 
L 703 672 
Q 941 559 1184 500 
Q 1428 441 1663 441 
Q 2288 441 2617 861 
Q 2947 1281 2994 2138 
Q 2813 1869 2534 1725 
Q 2256 1581 1919 1581 
Q 1219 1581 811 2004 
Q 403 2428 403 3163 
Q 403 3881 828 4315 
Q 1253 4750 1959 4750 
Q 2769 4750 3195 4129 
Q 3622 3509 3622 2328 
Q 3622 1225 3098 567 
Q 2575 -91 1691 -91 
Q 1453 -91 1209 -44 
Q 966 3 703 97 
z
M 1959 2075 
Q 2384 2075 2632 2365 
Q 2881 2656 2881 3163 
Q 2881 3666 2632 3958 
Q 2384 4250 1959 4250 
Q 1534 4250 1286 3958 
Q 1038 3666 1038 3163 
Q 1038 2656 1286 2365 
Q 1534 2075 1959 2075 
z
" transform="scale(0.015625)"/>
       <path id="DejaVuSans-38" d="M 2034 2216 
Q 1584 2216 1326 1975 
Q 1069 1734 1069 1313 
Q 1069 891 1326 650 
Q 1584 409 2034 409 
Q 2484 409 2743 651 
Q 3003 894 3003 1313 
Q 3003 1734 2745 1975 
Q 2488 2216 2034 2216 
z
M 1403 2484 
Q 997 2584 770 2862 
Q 544 3141 544 3541 
Q 544 4100 942 4425 
Q 1341 4750 2034 4750 
Q 2731 4750 3128 4425 
Q 3525 4100 3525 3541 
Q 3525 3141 3298 2862 
Q 3072 2584 2669 2484 
Q 3125 2378 3379 2068 
Q 3634 1759 3634 1313 
Q 3634 634 3220 271 
Q 2806 -91 2034 -91 
Q 1263 -91 848 271 
Q 434 634 434 1313 
Q 434 1759 690 2068 
Q 947 2378 1403 2484 
z
M 1172 3481 
Q 1172 3119 1398 2916 
Q 1625 2713 2034 2713 
Q 2441 2713 2670 2916 
Q 2900 3119 2900 3481 
Q 2900 3844 2670 4047 
Q 2441 4250 2034 4250 
Q 1625 4250 1398 4047 
Q 1172 3844 1172 3481 
z
" transform="scale(0.015625)"/>
       <path id="DejaVuSans-Oblique-74" d="M 2706 3500 
L 2619 3053 
L 1472 3053 
L 1100 1153 
Q 1081 1047 1072 975 
Q 1063 903 1063 863 
Q 1063 663 1183 572 
Q 1303 481 1569 481 
L 2150 481 
L 2053 0 
L 1503 0 
Q 991 0 739 200 
Q 488 400 488 806 
Q 488 878 497 964 
Q 506 1050 525 1153 
L 897 3053 
L 409 3053 
L 500 3500 
L 978 3500 
L 1172 4494 
L 1747 4494 
L 1556 3500 
L 2706 3500 
z
" transform="scale(0.015625)"/>
       <path id="DejaVuSans-Oblique-68" d="M 3566 2113 
L 3156 0 
L 2578 0 
L 2988 2091 
Q 3016 2238 3031 2350 
Q 3047 2463 3047 2528 
Q 3047 2791 2881 2937 
Q 2716 3084 2419 3084 
Q 1956 3084 1617 2771 
Q 1278 2459 1178 1941 
L 800 0 
L 225 0 
L 1172 4863 
L 1747 4863 
L 1375 2950 
Q 1594 3244 1934 3414 
Q 2275 3584 2650 3584 
Q 3113 3584 3367 3334 
Q 3622 3084 3622 2631 
Q 3622 2519 3608 2391 
Q 3594 2263 3566 2113 
z
" transform="scale(0.015625)"/>
      </defs>
      <use xlink:href="#DejaVuSans-32" transform="translate(0 0.529687)"/>
      <use xlink:href="#DejaVuSans-Oblique-6e" transform="translate(64.580078 38.810937) scale(0.7)"/>
      <use xlink:href="#DejaVuSans-Oblique-64" transform="translate(108.945312 38.810937) scale(0.7)"/>
      <use xlink:href="#DejaVuSans-20" transform="translate(156.113281 0.529687)"/>
      <use xlink:href="#DejaVuSans-61" transform="translate(187.900391 0.529687)"/>
      <use xlink:href="#DejaVuSans-6e" transform="translate(249.179688 0.529687)"/>
      <use xlink:href="#DejaVuSans-64" transform="translate(312.558594 0.529687)"/>
      <use xlink:href="#DejaVuSans-20" transform="translate(376.035156 0.529687)"/>
      <use xlink:href="#DejaVuSans-39" transform="translate(407.822266 0.529687)"/>
      <use xlink:href="#DejaVuSans-38" transform="translate(471.445312 0.529687)"/>
      <use xlink:href="#DejaVuSans-Oblique-74" transform="translate(536.025391 38.810937) scale(0.7)"/>
      <use xlink:href="#DejaVuSans-Oblique-68" transform="translate(563.47168 38.810937) scale(0.7)"/>
      <use xlink:href="#DejaVuSans-20" transform="translate(610.571289 0.529687)"/>
      <use xlink:href="#DejaVuSans-70" transform="translate(642.358398 0.529687)"/>
      <use xlink:href="#DejaVuSans-65" transform="translate(705.834961 0.529687)"/>
      <use xlink:href="#DejaVuSans-72" transform="translate(767.358398 0.529687)"/>
      <use xlink:href="#DejaVuSans-63" transform="translate(808.47168 0.529687)"/>
      <use xlink:href="#DejaVuSans-65" transform="translate(863.452148 0.529687)"/>
      <use xlink:href="#DejaVuSans-6e" transform="translate(924.975586 0.529687)"/>
      <use xlink:href="#DejaVuSans-74" transform="translate(988.354492 0.529687)"/>
      <use xlink:href="#DejaVuSans-69" transform="translate(1027.563477 0.529687)"/>
      <use xlink:href="#DejaVuSans-6c" transform="translate(1055.34668 0.529687)"/>
      <use xlink:href="#DejaVuSans-65" transform="translate(1083.129883 0.529687)"/>
      <use xlink:href="#DejaVuSans-73" transform="translate(1144.65332 0.529687)"/>
     </g>
    </g>
   </g>
  </g>
  <g id="axes_2">
   <g id="patch_7">
    <path d="M 261.867243 138.212969 
L 439.824 138.212969 
L 439.824 7.374569 
L 261.867243 7.374569 
z
" style="fill: #ffffff"/>
   </g>
   <g id="matplotlib.axis_3">
    <g id="xtick_17">
     <g id="line2d_144">
      <path d="M 269.956187 138.212969 
L 269.956187 7.374569 
" clip-path="url(#p3ec871d7a4)" style="fill: none; stroke: #d9d9d9; stroke-width: 0.8; stroke-linecap: square"/>
     </g>
     <g id="line2d_145">
      <g>
       <use xlink:href="#m0e42489f3f" x="269.956187" y="138.212969" style="stroke: #000000; stroke-width: 0.8"/>
      </g>
     </g>
     <g id="text_12">
      <!-- $\mathdefault{10^{-1}}$ -->
      <g transform="translate(260.556187 151.291719) scale(0.08 -0.08)">
       <use xlink:href="#DejaVuSans-31" transform="translate(0 0.684375)"/>
       <use xlink:href="#DejaVuSans-30" transform="translate(63.623047 0.684375)"/>
       <use xlink:href="#DejaVuSans-2212" transform="translate(128.203125 38.965625) scale(0.7)"/>
       <use xlink:href="#DejaVuSans-31" transform="translate(186.855469 38.965625) scale(0.7)"/>
      </g>
     </g>
    </g>
    <g id="xtick_18">
     <g id="line2d_146">
      <path d="M 365.177921 138.212969 
L 365.177921 7.374569 
" clip-path="url(#p3ec871d7a4)" style="fill: none; stroke: #d9d9d9; stroke-width: 0.8; stroke-linecap: square"/>
     </g>
     <g id="line2d_147">
      <g>
       <use xlink:href="#m0e42489f3f" x="365.177921" y="138.212969" style="stroke: #000000; stroke-width: 0.8"/>
      </g>
     </g>
     <g id="text_13">
      <!-- $\mathdefault{10^{0}}$ -->
      <g transform="translate(358.137921 151.291719) scale(0.08 -0.08)">
       <use xlink:href="#DejaVuSans-31" transform="translate(0 0.765625)"/>
       <use xlink:href="#DejaVuSans-30" transform="translate(63.623047 0.765625)"/>
       <use xlink:href="#DejaVuSans-30" transform="translate(128.203125 39.046875) scale(0.7)"/>
      </g>
     </g>
    </g>
    <g id="xtick_19">
     <g id="line2d_148">
      <path d="M 265.599079 138.212969 
L 265.599079 7.374569 
" clip-path="url(#p3ec871d7a4)" style="fill: none; stroke-dasharray: 2.96,1.28; stroke-dashoffset: 0; stroke: #f2f2f2; stroke-width: 0.8"/>
     </g>
     <g id="line2d_149">
      <g>
       <use xlink:href="#m4f2791c040" x="265.599079" y="138.212969" style="stroke: #000000; stroke-width: 0.6"/>
      </g>
     </g>
    </g>
    <g id="xtick_20">
     <g id="line2d_150">
      <path d="M 298.620785 138.212969 
L 298.620785 7.374569 
" clip-path="url(#p3ec871d7a4)" style="fill: none; stroke-dasharray: 2.96,1.28; stroke-dashoffset: 0; stroke: #f2f2f2; stroke-width: 0.8"/>
     </g>
     <g id="line2d_151">
      <g>
       <use xlink:href="#m4f2791c040" x="298.620785" y="138.212969" style="stroke: #000000; stroke-width: 0.6"/>
      </g>
     </g>
    </g>
    <g id="xtick_21">
     <g id="line2d_152">
      <path d="M 315.3885 138.212969 
L 315.3885 7.374569 
" clip-path="url(#p3ec871d7a4)" style="fill: none; stroke-dasharray: 2.96,1.28; stroke-dashoffset: 0; stroke: #f2f2f2; stroke-width: 0.8"/>
     </g>
     <g id="line2d_153">
      <g>
       <use xlink:href="#m4f2791c040" x="315.3885" y="138.212969" style="stroke: #000000; stroke-width: 0.6"/>
      </g>
     </g>
    </g>
    <g id="xtick_22">
     <g id="line2d_154">
      <path d="M 327.285383 138.212969 
L 327.285383 7.374569 
" clip-path="url(#p3ec871d7a4)" style="fill: none; stroke-dasharray: 2.96,1.28; stroke-dashoffset: 0; stroke: #f2f2f2; stroke-width: 0.8"/>
     </g>
     <g id="line2d_155">
      <g>
       <use xlink:href="#m4f2791c040" x="327.285383" y="138.212969" style="stroke: #000000; stroke-width: 0.6"/>
      </g>
     </g>
    </g>
    <g id="xtick_23">
     <g id="line2d_156">
      <path d="M 336.513323 138.212969 
L 336.513323 7.374569 
" clip-path="url(#p3ec871d7a4)" style="fill: none; stroke-dasharray: 2.96,1.28; stroke-dashoffset: 0; stroke: #f2f2f2; stroke-width: 0.8"/>
     </g>
     <g id="line2d_157">
      <g>
       <use xlink:href="#m4f2791c040" x="336.513323" y="138.212969" style="stroke: #000000; stroke-width: 0.6"/>
      </g>
     </g>
    </g>
    <g id="xtick_24">
     <g id="line2d_158">
      <path d="M 344.053098 138.212969 
L 344.053098 7.374569 
" clip-path="url(#p3ec871d7a4)" style="fill: none; stroke-dasharray: 2.96,1.28; stroke-dashoffset: 0; stroke: #f2f2f2; stroke-width: 0.8"/>
     </g>
     <g id="line2d_159">
      <g>
       <use xlink:href="#m4f2791c040" x="344.053098" y="138.212969" style="stroke: #000000; stroke-width: 0.6"/>
      </g>
     </g>
    </g>
    <g id="xtick_25">
     <g id="line2d_160">
      <path d="M 350.427887 138.212969 
L 350.427887 7.374569 
" clip-path="url(#p3ec871d7a4)" style="fill: none; stroke-dasharray: 2.96,1.28; stroke-dashoffset: 0; stroke: #f2f2f2; stroke-width: 0.8"/>
     </g>
     <g id="line2d_161">
      <g>
       <use xlink:href="#m4f2791c040" x="350.427887" y="138.212969" style="stroke: #000000; stroke-width: 0.6"/>
      </g>
     </g>
    </g>
    <g id="xtick_26">
     <g id="line2d_162">
      <path d="M 355.949981 138.212969 
L 355.949981 7.374569 
" clip-path="url(#p3ec871d7a4)" style="fill: none; stroke-dasharray: 2.96,1.28; stroke-dashoffset: 0; stroke: #f2f2f2; stroke-width: 0.8"/>
     </g>
     <g id="line2d_163">
      <g>
       <use xlink:href="#m4f2791c040" x="355.949981" y="138.212969" style="stroke: #000000; stroke-width: 0.6"/>
      </g>
     </g>
    </g>
    <g id="xtick_27">
     <g id="line2d_164">
      <path d="M 360.820813 138.212969 
L 360.820813 7.374569 
" clip-path="url(#p3ec871d7a4)" style="fill: none; stroke-dasharray: 2.96,1.28; stroke-dashoffset: 0; stroke: #f2f2f2; stroke-width: 0.8"/>
     </g>
     <g id="line2d_165">
      <g>
       <use xlink:href="#m4f2791c040" x="360.820813" y="138.212969" style="stroke: #000000; stroke-width: 0.6"/>
      </g>
     </g>
    </g>
    <g id="xtick_28">
     <g id="line2d_166">
      <path d="M 393.842519 138.212969 
L 393.842519 7.374569 
" clip-path="url(#p3ec871d7a4)" style="fill: none; stroke-dasharray: 2.96,1.28; stroke-dashoffset: 0; stroke: #f2f2f2; stroke-width: 0.8"/>
     </g>
     <g id="line2d_167">
      <g>
       <use xlink:href="#m4f2791c040" x="393.842519" y="138.212969" style="stroke: #000000; stroke-width: 0.6"/>
      </g>
     </g>
    </g>
    <g id="xtick_29">
     <g id="line2d_168">
      <path d="M 410.610234 138.212969 
L 410.610234 7.374569 
" clip-path="url(#p3ec871d7a4)" style="fill: none; stroke-dasharray: 2.96,1.28; stroke-dashoffset: 0; stroke: #f2f2f2; stroke-width: 0.8"/>
     </g>
     <g id="line2d_169">
      <g>
       <use xlink:href="#m4f2791c040" x="410.610234" y="138.212969" style="stroke: #000000; stroke-width: 0.6"/>
      </g>
     </g>
    </g>
    <g id="xtick_30">
     <g id="line2d_170">
      <path d="M 422.507117 138.212969 
L 422.507117 7.374569 
" clip-path="url(#p3ec871d7a4)" style="fill: none; stroke-dasharray: 2.96,1.28; stroke-dashoffset: 0; stroke: #f2f2f2; stroke-width: 0.8"/>
     </g>
     <g id="line2d_171">
      <g>
       <use xlink:href="#m4f2791c040" x="422.507117" y="138.212969" style="stroke: #000000; stroke-width: 0.6"/>
      </g>
     </g>
    </g>
    <g id="xtick_31">
     <g id="line2d_172">
      <path d="M 431.735057 138.212969 
L 431.735057 7.374569 
" clip-path="url(#p3ec871d7a4)" style="fill: none; stroke-dasharray: 2.96,1.28; stroke-dashoffset: 0; stroke: #f2f2f2; stroke-width: 0.8"/>
     </g>
     <g id="line2d_173">
      <g>
       <use xlink:href="#m4f2791c040" x="431.735057" y="138.212969" style="stroke: #000000; stroke-width: 0.6"/>
      </g>
     </g>
    </g>
    <g id="xtick_32">
     <g id="line2d_174">
      <path d="M 439.274832 138.212969 
L 439.274832 7.374569 
" clip-path="url(#p3ec871d7a4)" style="fill: none; stroke-dasharray: 2.96,1.28; stroke-dashoffset: 0; stroke: #f2f2f2; stroke-width: 0.8"/>
     </g>
     <g id="line2d_175">
      <g>
       <use xlink:href="#m4f2791c040" x="439.274832" y="138.212969" style="stroke: #000000; stroke-width: 0.6"/>
      </g>
     </g>
    </g>
    <g id="text_14">
     <!-- Period, $T$ (s) -->
     <g transform="translate(326.765622 163.034219) scale(0.08 -0.08)">
      <use xlink:href="#DejaVuSans-50" transform="translate(0 0.015625)"/>
      <use xlink:href="#DejaVuSans-65" transform="translate(60.302734 0.015625)"/>
      <use xlink:href="#DejaVuSans-72" transform="translate(121.826172 0.015625)"/>
      <use xlink:href="#DejaVuSans-69" transform="translate(162.939453 0.015625)"/>
      <use xlink:href="#DejaVuSans-6f" transform="translate(190.722656 0.015625)"/>
      <use xlink:href="#DejaVuSans-64" transform="translate(251.904297 0.015625)"/>
      <use xlink:href="#DejaVuSans-2c" transform="translate(315.380859 0.015625)"/>
      <use xlink:href="#DejaVuSans-20" transform="translate(347.167969 0.015625)"/>
      <use xlink:href="#DejaVuSans-Oblique-54" transform="translate(378.955078 0.015625)"/>
      <use xlink:href="#DejaVuSans-20" transform="translate(440.039062 0.015625)"/>
      <use xlink:href="#DejaVuSans-28" transform="translate(471.826172 0.015625)"/>
      <use xlink:href="#DejaVuSans-73" transform="translate(510.839844 0.015625)"/>
      <use xlink:href="#DejaVuSans-29" transform="translate(562.939453 0.015625)"/>
     </g>
    </g>
   </g>
   <g id="matplotlib.axis_4">
    <g id="ytick_26">
     <g id="line2d_176">
      <path d="M 261.867243 131.99498 
L 439.824 131.99498 
" clip-path="url(#p3ec871d7a4)" style="fill: none; stroke: #d9d9d9; stroke-width: 0.8; stroke-linecap: square"/>
     </g>
     <g id="line2d_177">
      <g>
       <use xlink:href="#mc3bc478355" x="261.867243" y="131.99498" style="stroke: #000000; stroke-width: 0.8"/>
      </g>
     </g>
     <g id="text_15">
      <!-- 0.25 -->
      <g transform="translate(237.054743 135.034355) scale(0.08 -0.08)">
       <defs>
        <path id="DejaVuSans-2e" d="M 684 794 
L 1344 794 
L 1344 0 
L 684 0 
L 684 794 
z
" transform="scale(0.015625)"/>
        <path id="DejaVuSans-35" d="M 691 4666 
L 3169 4666 
L 3169 4134 
L 1269 4134 
L 1269 2991 
Q 1406 3038 1543 3061 
Q 1681 3084 1819 3084 
Q 2600 3084 3056 2656 
Q 3513 2228 3513 1497 
Q 3513 744 3044 326 
Q 2575 -91 1722 -91 
Q 1428 -91 1123 -41 
Q 819 9 494 109 
L 494 744 
Q 775 591 1075 516 
Q 1375 441 1709 441 
Q 2250 441 2565 725 
Q 2881 1009 2881 1497 
Q 2881 1984 2565 2268 
Q 2250 2553 1709 2553 
Q 1456 2553 1204 2497 
Q 953 2441 691 2322 
L 691 4666 
z
" transform="scale(0.015625)"/>
       </defs>
       <use xlink:href="#DejaVuSans-30"/>
       <use xlink:href="#DejaVuSans-2e" x="63.623047"/>
       <use xlink:href="#DejaVuSans-32" x="95.410156"/>
       <use xlink:href="#DejaVuSans-35" x="159.033203"/>
      </g>
     </g>
    </g>
    <g id="ytick_27">
     <g id="line2d_178">
      <path d="M 261.867243 115.080727 
L 439.824 115.080727 
" clip-path="url(#p3ec871d7a4)" style="fill: none; stroke: #d9d9d9; stroke-width: 0.8; stroke-linecap: square"/>
     </g>
     <g id="line2d_179">
      <g>
       <use xlink:href="#mc3bc478355" x="261.867243" y="115.080727" style="stroke: #000000; stroke-width: 0.8"/>
      </g>
     </g>
     <g id="text_16">
      <!-- 0.30 -->
      <g transform="translate(237.054743 118.120102) scale(0.08 -0.08)">
       <defs>
        <path id="DejaVuSans-33" d="M 2597 2516 
Q 3050 2419 3304 2112 
Q 3559 1806 3559 1356 
Q 3559 666 3084 287 
Q 2609 -91 1734 -91 
Q 1441 -91 1130 -33 
Q 819 25 488 141 
L 488 750 
Q 750 597 1062 519 
Q 1375 441 1716 441 
Q 2309 441 2620 675 
Q 2931 909 2931 1356 
Q 2931 1769 2642 2001 
Q 2353 2234 1838 2234 
L 1294 2234 
L 1294 2753 
L 1863 2753 
Q 2328 2753 2575 2939 
Q 2822 3125 2822 3475 
Q 2822 3834 2567 4026 
Q 2313 4219 1838 4219 
Q 1578 4219 1281 4162 
Q 984 4106 628 3988 
L 628 4550 
Q 988 4650 1302 4700 
Q 1616 4750 1894 4750 
Q 2613 4750 3031 4423 
Q 3450 4097 3450 3541 
Q 3450 3153 3228 2886 
Q 3006 2619 2597 2516 
z
" transform="scale(0.015625)"/>
       </defs>
       <use xlink:href="#DejaVuSans-30"/>
       <use xlink:href="#DejaVuSans-2e" x="63.623047"/>
       <use xlink:href="#DejaVuSans-33" x="95.410156"/>
       <use xlink:href="#DejaVuSans-30" x="159.033203"/>
      </g>
     </g>
    </g>
    <g id="ytick_28">
     <g id="line2d_180">
      <path d="M 261.867243 98.166474 
L 439.824 98.166474 
" clip-path="url(#p3ec871d7a4)" style="fill: none; stroke: #d9d9d9; stroke-width: 0.8; stroke-linecap: square"/>
     </g>
     <g id="line2d_181">
      <g>
       <use xlink:href="#mc3bc478355" x="261.867243" y="98.166474" style="stroke: #000000; stroke-width: 0.8"/>
      </g>
     </g>
     <g id="text_17">
      <!-- 0.35 -->
      <g transform="translate(237.054743 101.205849) scale(0.08 -0.08)">
       <use xlink:href="#DejaVuSans-30"/>
       <use xlink:href="#DejaVuSans-2e" x="63.623047"/>
       <use xlink:href="#DejaVuSans-33" x="95.410156"/>
       <use xlink:href="#DejaVuSans-35" x="159.033203"/>
      </g>
     </g>
    </g>
    <g id="ytick_29">
     <g id="line2d_182">
      <path d="M 261.867243 81.252221 
L 439.824 81.252221 
" clip-path="url(#p3ec871d7a4)" style="fill: none; stroke: #d9d9d9; stroke-width: 0.8; stroke-linecap: square"/>
     </g>
     <g id="line2d_183">
      <g>
       <use xlink:href="#mc3bc478355" x="261.867243" y="81.252221" style="stroke: #000000; stroke-width: 0.8"/>
      </g>
     </g>
     <g id="text_18">
      <!-- 0.40 -->
      <g transform="translate(237.054743 84.291596) scale(0.08 -0.08)">
       <defs>
        <path id="DejaVuSans-34" d="M 2419 4116 
L 825 1625 
L 2419 1625 
L 2419 4116 
z
M 2253 4666 
L 3047 4666 
L 3047 1625 
L 3713 1625 
L 3713 1100 
L 3047 1100 
L 3047 0 
L 2419 0 
L 2419 1100 
L 313 1100 
L 313 1709 
L 2253 4666 
z
" transform="scale(0.015625)"/>
       </defs>
       <use xlink:href="#DejaVuSans-30"/>
       <use xlink:href="#DejaVuSans-2e" x="63.623047"/>
       <use xlink:href="#DejaVuSans-34" x="95.410156"/>
       <use xlink:href="#DejaVuSans-30" x="159.033203"/>
      </g>
     </g>
    </g>
    <g id="ytick_30">
     <g id="line2d_184">
      <path d="M 261.867243 64.337969 
L 439.824 64.337969 
" clip-path="url(#p3ec871d7a4)" style="fill: none; stroke: #d9d9d9; stroke-width: 0.8; stroke-linecap: square"/>
     </g>
     <g id="line2d_185">
      <g>
       <use xlink:href="#mc3bc478355" x="261.867243" y="64.337969" style="stroke: #000000; stroke-width: 0.8"/>
      </g>
     </g>
     <g id="text_19">
      <!-- 0.45 -->
      <g transform="translate(237.054743 67.377344) scale(0.08 -0.08)">
       <use xlink:href="#DejaVuSans-30"/>
       <use xlink:href="#DejaVuSans-2e" x="63.623047"/>
       <use xlink:href="#DejaVuSans-34" x="95.410156"/>
       <use xlink:href="#DejaVuSans-35" x="159.033203"/>
      </g>
     </g>
    </g>
    <g id="ytick_31">
     <g id="line2d_186">
      <path d="M 261.867243 47.423716 
L 439.824 47.423716 
" clip-path="url(#p3ec871d7a4)" style="fill: none; stroke: #d9d9d9; stroke-width: 0.8; stroke-linecap: square"/>
     </g>
     <g id="line2d_187">
      <g>
       <use xlink:href="#mc3bc478355" x="261.867243" y="47.423716" style="stroke: #000000; stroke-width: 0.8"/>
      </g>
     </g>
     <g id="text_20">
      <!-- 0.50 -->
      <g transform="translate(237.054743 50.463091) scale(0.08 -0.08)">
       <use xlink:href="#DejaVuSans-30"/>
       <use xlink:href="#DejaVuSans-2e" x="63.623047"/>
       <use xlink:href="#DejaVuSans-35" x="95.410156"/>
       <use xlink:href="#DejaVuSans-30" x="159.033203"/>
      </g>
     </g>
    </g>
    <g id="ytick_32">
     <g id="line2d_188">
      <path d="M 261.867243 30.509463 
L 439.824 30.509463 
" clip-path="url(#p3ec871d7a4)" style="fill: none; stroke: #d9d9d9; stroke-width: 0.8; stroke-linecap: square"/>
     </g>
     <g id="line2d_189">
      <g>
       <use xlink:href="#mc3bc478355" x="261.867243" y="30.509463" style="stroke: #000000; stroke-width: 0.8"/>
      </g>
     </g>
     <g id="text_21">
      <!-- 0.55 -->
      <g transform="translate(237.054743 33.548838) scale(0.08 -0.08)">
       <use xlink:href="#DejaVuSans-30"/>
       <use xlink:href="#DejaVuSans-2e" x="63.623047"/>
       <use xlink:href="#DejaVuSans-35" x="95.410156"/>
       <use xlink:href="#DejaVuSans-35" x="159.033203"/>
      </g>
     </g>
    </g>
    <g id="ytick_33">
     <g id="line2d_190">
      <path d="M 261.867243 13.59521 
L 439.824 13.59521 
" clip-path="url(#p3ec871d7a4)" style="fill: none; stroke: #d9d9d9; stroke-width: 0.8; stroke-linecap: square"/>
     </g>
     <g id="line2d_191">
      <g>
       <use xlink:href="#mc3bc478355" x="261.867243" y="13.59521" style="stroke: #000000; stroke-width: 0.8"/>
      </g>
     </g>
     <g id="text_22">
      <!-- 0.60 -->
      <g transform="translate(237.054743 16.634585) scale(0.08 -0.08)">
       <defs>
        <path id="DejaVuSans-36" d="M 2113 2584 
Q 1688 2584 1439 2293 
Q 1191 2003 1191 1497 
Q 1191 994 1439 701 
Q 1688 409 2113 409 
Q 2538 409 2786 701 
Q 3034 994 3034 1497 
Q 3034 2003 2786 2293 
Q 2538 2584 2113 2584 
z
M 3366 4563 
L 3366 3988 
Q 3128 4100 2886 4159 
Q 2644 4219 2406 4219 
Q 1781 4219 1451 3797 
Q 1122 3375 1075 2522 
Q 1259 2794 1537 2939 
Q 1816 3084 2150 3084 
Q 2853 3084 3261 2657 
Q 3669 2231 3669 1497 
Q 3669 778 3244 343 
Q 2819 -91 2113 -91 
Q 1303 -91 875 529 
Q 447 1150 447 2328 
Q 447 3434 972 4092 
Q 1497 4750 2381 4750 
Q 2619 4750 2861 4703 
Q 3103 4656 3366 4563 
z
" transform="scale(0.015625)"/>
       </defs>
       <use xlink:href="#DejaVuSans-30"/>
       <use xlink:href="#DejaVuSans-2e" x="63.623047"/>
       <use xlink:href="#DejaVuSans-36" x="95.410156"/>
       <use xlink:href="#DejaVuSans-30" x="159.033203"/>
      </g>
     </g>
    </g>
    <g id="text_23">
     <!-- Logarithmic standard deviation -->
     <g transform="translate(231.390993 135.333769) rotate(-90) scale(0.08 -0.08)">
      <defs>
       <path id="DejaVuSans-4c" d="M 628 4666 
L 1259 4666 
L 1259 531 
L 3531 531 
L 3531 0 
L 628 0 
L 628 4666 
z
" transform="scale(0.015625)"/>
       <path id="DejaVuSans-68" d="M 3513 2113 
L 3513 0 
L 2938 0 
L 2938 2094 
Q 2938 2591 2744 2837 
Q 2550 3084 2163 3084 
Q 1697 3084 1428 2787 
Q 1159 2491 1159 1978 
L 1159 0 
L 581 0 
L 581 4863 
L 1159 4863 
L 1159 2956 
Q 1366 3272 1645 3428 
Q 1925 3584 2291 3584 
Q 2894 3584 3203 3211 
Q 3513 2838 3513 2113 
z
" transform="scale(0.015625)"/>
       <path id="DejaVuSans-6d" d="M 3328 2828 
Q 3544 3216 3844 3400 
Q 4144 3584 4550 3584 
Q 5097 3584 5394 3201 
Q 5691 2819 5691 2113 
L 5691 0 
L 5113 0 
L 5113 2094 
Q 5113 2597 4934 2840 
Q 4756 3084 4391 3084 
Q 3944 3084 3684 2787 
Q 3425 2491 3425 1978 
L 3425 0 
L 2847 0 
L 2847 2094 
Q 2847 2600 2669 2842 
Q 2491 3084 2119 3084 
Q 1678 3084 1418 2786 
Q 1159 2488 1159 1978 
L 1159 0 
L 581 0 
L 581 3500 
L 1159 3500 
L 1159 2956 
Q 1356 3278 1631 3431 
Q 1906 3584 2284 3584 
Q 2666 3584 2933 3390 
Q 3200 3197 3328 2828 
z
" transform="scale(0.015625)"/>
      </defs>
      <use xlink:href="#DejaVuSans-4c"/>
      <use xlink:href="#DejaVuSans-6f" x="53.962891"/>
      <use xlink:href="#DejaVuSans-67" x="115.144531"/>
      <use xlink:href="#DejaVuSans-61" x="178.621094"/>
      <use xlink:href="#DejaVuSans-72" x="239.900391"/>
      <use xlink:href="#DejaVuSans-69" x="281.013672"/>
      <use xlink:href="#DejaVuSans-74" x="308.796875"/>
      <use xlink:href="#DejaVuSans-68" x="348.005859"/>
      <use xlink:href="#DejaVuSans-6d" x="411.384766"/>
      <use xlink:href="#DejaVuSans-69" x="508.796875"/>
      <use xlink:href="#DejaVuSans-63" x="536.580078"/>
      <use xlink:href="#DejaVuSans-20" x="591.560547"/>
      <use xlink:href="#DejaVuSans-73" x="623.347656"/>
      <use xlink:href="#DejaVuSans-74" x="675.447266"/>
      <use xlink:href="#DejaVuSans-61" x="714.65625"/>
      <use xlink:href="#DejaVuSans-6e" x="775.935547"/>
      <use xlink:href="#DejaVuSans-64" x="839.314453"/>
      <use xlink:href="#DejaVuSans-61" x="902.791016"/>
      <use xlink:href="#DejaVuSans-72" x="964.070312"/>
      <use xlink:href="#DejaVuSans-64" x="1003.433594"/>
      <use xlink:href="#DejaVuSans-20" x="1066.910156"/>
      <use xlink:href="#DejaVuSans-64" x="1098.697266"/>
      <use xlink:href="#DejaVuSans-65" x="1162.173828"/>
      <use xlink:href="#DejaVuSans-76" x="1223.697266"/>
      <use xlink:href="#DejaVuSans-69" x="1282.876953"/>
      <use xlink:href="#DejaVuSans-61" x="1310.660156"/>
      <use xlink:href="#DejaVuSans-74" x="1371.939453"/>
      <use xlink:href="#DejaVuSans-69" x="1411.148438"/>
      <use xlink:href="#DejaVuSans-6f" x="1438.931641"/>
      <use xlink:href="#DejaVuSans-6e" x="1500.113281"/>
     </g>
    </g>
   </g>
   <g id="line2d_192">
    <path d="M 269.956187 48.873444 
L 286.723902 46.683125 
L 298.620785 62.645327 
L 307.848724 79.043772 
L 315.3885 97.870119 
L 327.285383 118.933712 
L 336.513323 131.354755 
L 353.281038 132.265769 
L 365.177921 107.386572 
L 376.027804 80.131176 
L 381.945636 69.358615 
L 393.842519 53.545563 
L 410.610234 33.737515 
L 422.507117 27.378756 
L 431.735057 16.562076 
" clip-path="url(#p3ec871d7a4)" style="fill: none; stroke: #ff0000; stroke-width: 2; stroke-linecap: square"/>
   </g>
   <g id="line2d_193">
    <path d="M 269.956187 48.506825 
L 286.723902 45.821585 
L 298.620785 63.044067 
L 307.848724 77.468363 
L 315.3885 98.855103 
L 327.285383 118.732866 
L 336.513323 131.848443 
L 353.281038 128.862516 
L 365.177921 106.801671 
L 376.027804 77.785384 
L 381.945636 69.572481 
L 393.842519 52.975649 
L 410.610234 31.991862 
L 422.507117 27.31172 
L 431.735057 13.321769 
" clip-path="url(#p3ec871d7a4)" style="fill: none; stroke: #0000ff; stroke-width: 2; stroke-linecap: square"/>
   </g>
   <g id="patch_8">
    <path d="M 261.867243 138.212969 
L 261.867243 7.374569 
" style="fill: none; stroke: #000000; stroke-width: 0.8; stroke-linejoin: miter; stroke-linecap: square"/>
   </g>
   <g id="patch_9">
    <path d="M 439.824 138.212969 
L 439.824 7.374569 
" style="fill: none; stroke: #000000; stroke-width: 0.8; stroke-linejoin: miter; stroke-linecap: square"/>
   </g>
   <g id="patch_10">
    <path d="M 261.867243 138.212969 
L 439.824 138.212969 
" style="fill: none; stroke: #000000; stroke-width: 0.8; stroke-linejoin: miter; stroke-linecap: square"/>
   </g>
   <g id="patch_11">
    <path d="M 261.867243 7.374569 
L 439.824 7.374569 
" style="fill: none; stroke: #000000; stroke-width: 0.8; stroke-linejoin: miter; stroke-linecap: square"/>
   </g>
  </g>
 </g>
 <defs>
  <clipPath id="p0651807540">
   <rect x="44.76" y="7.374569" width="177.956757" height="130.8384"/>
  </clipPath>
  <clipPath id="p3ec871d7a4">
   <rect x="261.867243" y="7.374569" width="177.956757" height="130.8384"/>
  </clipPath>
 </defs>
</svg>
