<?xml version="1.0" encoding="utf-8" standalone="no"?>
<!DOCTYPE svg PUBLIC "-//W3C//DTD SVG 1.1//EN"
  "http://www.w3.org/Graphics/SVG/1.1/DTD/svg11.dtd">
<svg xmlns:xlink="http://www.w3.org/1999/xlink" width="441.3945pt" height="171.7234pt" viewBox="0 0 441.3945 171.7234" xmlns="http://www.w3.org/2000/svg" version="1.1">
 <metadata>
  <rdf:RDF xmlns:dc="http://purl.org/dc/elements/1.1/" xmlns:cc="http://creativecommons.org/ns#" xmlns:rdf="http://www.w3.org/1999/02/22-rdf-syntax-ns#">
   <cc:Work>
    <dc:type rdf:resource="http://purl.org/dc/dcmitype/StillImage"/>
    <dc:date>2024-10-31T11:37:40.744353</dc:date>
    <dc:format>image/svg+xml</dc:format>
    <dc:creator>
     <cc:Agent>
      <dc:title>Matplotlib v3.8.2, https://matplotlib.org/</dc:title>
     </cc:Agent>
    </dc:creator>
   </cc:Work>
  </rdf:RDF>
 </metadata>
 <defs>
  <style type="text/css">*{stroke-linejoin: round; stroke-linecap: butt}</style>
 </defs>
 <g id="figure_1">
  <g id="patch_1">
   <path d="M 0 171.7234 
L 441.3945 171.7234 
L 441.3945 0 
L 0 0 
z
" style="fill: #ffffff"/>
  </g>
  <g id="axes_1">
   <g id="patch_2">
    <path d="M 44.7425 138.0384 
L 242.2745 138.0384 
L 242.2745 7.2 
L 44.7425 7.2 
z
" style="fill: #ffffff"/>
   </g>
   <g id="matplotlib.axis_1">
    <g id="xtick_1">
     <g id="line2d_1">
      <path d="M 53.721227 138.0384 
L 53.721227 7.2 
" clip-path="url(#p8e69536c9f)" style="fill: none; stroke: #d9d9d9; stroke-width: 0.8; stroke-linecap: square"/>
     </g>
     <g id="line2d_2">
      <defs>
       <path id="m834769e86a" d="M 0 0 
L 0 3.5 
" style="stroke: #000000; stroke-width: 0.8"/>
      </defs>
      <g>
       <use xlink:href="#m834769e86a" x="53.721227" y="138.0384" style="stroke: #000000; stroke-width: 0.8"/>
      </g>
     </g>
     <g id="text_1">
      <!-- $\mathdefault{10^{-1}}$ -->
      <g transform="translate(44.321227 151.11715) scale(0.08 -0.08)">
       <defs>
        <path id="DejaVuSans-31" d="M 794 531 
L 1825 531 
L 1825 4091 
L 703 3866 
L 703 4441 
L 1819 4666 
L 2450 4666 
L 2450 531 
L 3481 531 
L 3481 0 
L 794 0 
L 794 531 
z
" transform="scale(0.015625)"/>
        <path id="DejaVuSans-30" d="M 2034 4250 
Q 1547 4250 1301 3770 
Q 1056 3291 1056 2328 
Q 1056 1369 1301 889 
Q 1547 409 2034 409 
Q 2525 409 2770 889 
Q 3016 1369 3016 2328 
Q 3016 3291 2770 3770 
Q 2525 4250 2034 4250 
z
M 2034 4750 
Q 2819 4750 3233 4129 
Q 3647 3509 3647 2328 
Q 3647 1150 3233 529 
Q 2819 -91 2034 -91 
Q 1250 -91 836 529 
Q 422 1150 422 2328 
Q 422 3509 836 4129 
Q 1250 4750 2034 4750 
z
" transform="scale(0.015625)"/>
        <path id="DejaVuSans-2212" d="M 678 2272 
L 4684 2272 
L 4684 1741 
L 678 1741 
L 678 2272 
z
" transform="scale(0.015625)"/>
       </defs>
       <use xlink:href="#DejaVuSans-31" transform="translate(0 0.684375)"/>
       <use xlink:href="#DejaVuSans-30" transform="translate(63.623047 0.684375)"/>
       <use xlink:href="#DejaVuSans-2212" transform="translate(128.203125 38.965625) scale(0.7)"/>
       <use xlink:href="#DejaVuSans-31" transform="translate(186.855469 38.965625) scale(0.7)"/>
      </g>
     </g>
    </g>
    <g id="xtick_2">
     <g id="line2d_3">
      <path d="M 159.417352 138.0384 
L 159.417352 7.2 
" clip-path="url(#p8e69536c9f)" style="fill: none; stroke: #d9d9d9; stroke-width: 0.8; stroke-linecap: square"/>
     </g>
     <g id="line2d_4">
      <g>
       <use xlink:href="#m834769e86a" x="159.417352" y="138.0384" style="stroke: #000000; stroke-width: 0.8"/>
      </g>
     </g>
     <g id="text_2">
      <!-- $\mathdefault{10^{0}}$ -->
      <g transform="translate(152.377352 151.11715) scale(0.08 -0.08)">
       <use xlink:href="#DejaVuSans-31" transform="translate(0 0.765625)"/>
       <use xlink:href="#DejaVuSans-30" transform="translate(63.623047 0.765625)"/>
       <use xlink:href="#DejaVuSans-30" transform="translate(128.203125 39.046875) scale(0.7)"/>
      </g>
     </g>
    </g>
    <g id="xtick_3">
     <g id="line2d_5">
      <path d="M 48.884838 138.0384 
L 48.884838 7.2 
" clip-path="url(#p8e69536c9f)" style="fill: none; stroke-dasharray: 2.96,1.28; stroke-dashoffset: 0; stroke: #f2f2f2; stroke-width: 0.8"/>
     </g>
     <g id="line2d_6">
      <defs>
       <path id="m1da37698d2" d="M 0 0 
L 0 2 
" style="stroke: #000000; stroke-width: 0.6"/>
      </defs>
      <g>
       <use xlink:href="#m1da37698d2" x="48.884838" y="138.0384" style="stroke: #000000; stroke-width: 0.6"/>
      </g>
     </g>
    </g>
    <g id="xtick_4">
     <g id="line2d_7">
      <path d="M 85.538931 138.0384 
L 85.538931 7.2 
" clip-path="url(#p8e69536c9f)" style="fill: none; stroke-dasharray: 2.96,1.28; stroke-dashoffset: 0; stroke: #f2f2f2; stroke-width: 0.8"/>
     </g>
     <g id="line2d_8">
      <g>
       <use xlink:href="#m1da37698d2" x="85.538931" y="138.0384" style="stroke: #000000; stroke-width: 0.6"/>
      </g>
     </g>
    </g>
    <g id="xtick_5">
     <g id="line2d_9">
      <path d="M 104.151095 138.0384 
L 104.151095 7.2 
" clip-path="url(#p8e69536c9f)" style="fill: none; stroke-dasharray: 2.96,1.28; stroke-dashoffset: 0; stroke: #f2f2f2; stroke-width: 0.8"/>
     </g>
     <g id="line2d_10">
      <g>
       <use xlink:href="#m1da37698d2" x="104.151095" y="138.0384" style="stroke: #000000; stroke-width: 0.6"/>
      </g>
     </g>
    </g>
    <g id="xtick_6">
     <g id="line2d_11">
      <path d="M 117.356635 138.0384 
L 117.356635 7.2 
" clip-path="url(#p8e69536c9f)" style="fill: none; stroke-dasharray: 2.96,1.28; stroke-dashoffset: 0; stroke: #f2f2f2; stroke-width: 0.8"/>
     </g>
     <g id="line2d_12">
      <g>
       <use xlink:href="#m1da37698d2" x="117.356635" y="138.0384" style="stroke: #000000; stroke-width: 0.6"/>
      </g>
     </g>
    </g>
    <g id="xtick_7">
     <g id="line2d_13">
      <path d="M 127.599648 138.0384 
L 127.599648 7.2 
" clip-path="url(#p8e69536c9f)" style="fill: none; stroke-dasharray: 2.96,1.28; stroke-dashoffset: 0; stroke: #f2f2f2; stroke-width: 0.8"/>
     </g>
     <g id="line2d_14">
      <g>
       <use xlink:href="#m1da37698d2" x="127.599648" y="138.0384" style="stroke: #000000; stroke-width: 0.6"/>
      </g>
     </g>
    </g>
    <g id="xtick_8">
     <g id="line2d_15">
      <path d="M 135.968799 138.0384 
L 135.968799 7.2 
" clip-path="url(#p8e69536c9f)" style="fill: none; stroke-dasharray: 2.96,1.28; stroke-dashoffset: 0; stroke: #f2f2f2; stroke-width: 0.8"/>
     </g>
     <g id="line2d_16">
      <g>
       <use xlink:href="#m1da37698d2" x="135.968799" y="138.0384" style="stroke: #000000; stroke-width: 0.6"/>
      </g>
     </g>
    </g>
    <g id="xtick_9">
     <g id="line2d_17">
      <path d="M 143.044815 138.0384 
L 143.044815 7.2 
" clip-path="url(#p8e69536c9f)" style="fill: none; stroke-dasharray: 2.96,1.28; stroke-dashoffset: 0; stroke: #f2f2f2; stroke-width: 0.8"/>
     </g>
     <g id="line2d_18">
      <g>
       <use xlink:href="#m1da37698d2" x="143.044815" y="138.0384" style="stroke: #000000; stroke-width: 0.6"/>
      </g>
     </g>
    </g>
    <g id="xtick_10">
     <g id="line2d_19">
      <path d="M 149.174339 138.0384 
L 149.174339 7.2 
" clip-path="url(#p8e69536c9f)" style="fill: none; stroke-dasharray: 2.96,1.28; stroke-dashoffset: 0; stroke: #f2f2f2; stroke-width: 0.8"/>
     </g>
     <g id="line2d_20">
      <g>
       <use xlink:href="#m1da37698d2" x="149.174339" y="138.0384" style="stroke: #000000; stroke-width: 0.6"/>
      </g>
     </g>
    </g>
    <g id="xtick_11">
     <g id="line2d_21">
      <path d="M 154.580963 138.0384 
L 154.580963 7.2 
" clip-path="url(#p8e69536c9f)" style="fill: none; stroke-dasharray: 2.96,1.28; stroke-dashoffset: 0; stroke: #f2f2f2; stroke-width: 0.8"/>
     </g>
     <g id="line2d_22">
      <g>
       <use xlink:href="#m1da37698d2" x="154.580963" y="138.0384" style="stroke: #000000; stroke-width: 0.6"/>
      </g>
     </g>
    </g>
    <g id="xtick_12">
     <g id="line2d_23">
      <path d="M 191.235056 138.0384 
L 191.235056 7.2 
" clip-path="url(#p8e69536c9f)" style="fill: none; stroke-dasharray: 2.96,1.28; stroke-dashoffset: 0; stroke: #f2f2f2; stroke-width: 0.8"/>
     </g>
     <g id="line2d_24">
      <g>
       <use xlink:href="#m1da37698d2" x="191.235056" y="138.0384" style="stroke: #000000; stroke-width: 0.6"/>
      </g>
     </g>
    </g>
    <g id="xtick_13">
     <g id="line2d_25">
      <path d="M 209.84722 138.0384 
L 209.84722 7.2 
" clip-path="url(#p8e69536c9f)" style="fill: none; stroke-dasharray: 2.96,1.28; stroke-dashoffset: 0; stroke: #f2f2f2; stroke-width: 0.8"/>
     </g>
     <g id="line2d_26">
      <g>
       <use xlink:href="#m1da37698d2" x="209.84722" y="138.0384" style="stroke: #000000; stroke-width: 0.6"/>
      </g>
     </g>
    </g>
    <g id="xtick_14">
     <g id="line2d_27">
      <path d="M 223.05276 138.0384 
L 223.05276 7.2 
" clip-path="url(#p8e69536c9f)" style="fill: none; stroke-dasharray: 2.96,1.28; stroke-dashoffset: 0; stroke: #f2f2f2; stroke-width: 0.8"/>
     </g>
     <g id="line2d_28">
      <g>
       <use xlink:href="#m1da37698d2" x="223.05276" y="138.0384" style="stroke: #000000; stroke-width: 0.6"/>
      </g>
     </g>
    </g>
    <g id="xtick_15">
     <g id="line2d_29">
      <path d="M 233.295773 138.0384 
L 233.295773 7.2 
" clip-path="url(#p8e69536c9f)" style="fill: none; stroke-dasharray: 2.96,1.28; stroke-dashoffset: 0; stroke: #f2f2f2; stroke-width: 0.8"/>
     </g>
     <g id="line2d_30">
      <g>
       <use xlink:href="#m1da37698d2" x="233.295773" y="138.0384" style="stroke: #000000; stroke-width: 0.6"/>
      </g>
     </g>
    </g>
    <g id="xtick_16">
     <g id="line2d_31">
      <path d="M 241.664924 138.0384 
L 241.664924 7.2 
" clip-path="url(#p8e69536c9f)" style="fill: none; stroke-dasharray: 2.96,1.28; stroke-dashoffset: 0; stroke: #f2f2f2; stroke-width: 0.8"/>
     </g>
     <g id="line2d_32">
      <g>
       <use xlink:href="#m1da37698d2" x="241.664924" y="138.0384" style="stroke: #000000; stroke-width: 0.6"/>
      </g>
     </g>
    </g>
    <g id="text_3">
     <!-- Period, T (s) -->
     <g transform="translate(119.576 162.85965) scale(0.08 -0.08)">
      <defs>
       <path id="DejaVuSans-50" d="M 1259 4147 
L 1259 2394 
L 2053 2394 
Q 2494 2394 2734 2622 
Q 2975 2850 2975 3272 
Q 2975 3691 2734 3919 
Q 2494 4147 2053 4147 
L 1259 4147 
z
M 628 4666 
L 2053 4666 
Q 2838 4666 3239 4311 
Q 3641 3956 3641 3272 
Q 3641 2581 3239 2228 
Q 2838 1875 2053 1875 
L 1259 1875 
L 1259 0 
L 628 0 
L 628 4666 
z
" transform="scale(0.015625)"/>
       <path id="DejaVuSans-65" d="M 3597 1894 
L 3597 1613 
L 953 1613 
Q 991 1019 1311 708 
Q 1631 397 2203 397 
Q 2534 397 2845 478 
Q 3156 559 3463 722 
L 3463 178 
Q 3153 47 2828 -22 
Q 2503 -91 2169 -91 
Q 1331 -91 842 396 
Q 353 884 353 1716 
Q 353 2575 817 3079 
Q 1281 3584 2069 3584 
Q 2775 3584 3186 3129 
Q 3597 2675 3597 1894 
z
M 3022 2063 
Q 3016 2534 2758 2815 
Q 2500 3097 2075 3097 
Q 1594 3097 1305 2825 
Q 1016 2553 972 2059 
L 3022 2063 
z
" transform="scale(0.015625)"/>
       <path id="DejaVuSans-72" d="M 2631 2963 
Q 2534 3019 2420 3045 
Q 2306 3072 2169 3072 
Q 1681 3072 1420 2755 
Q 1159 2438 1159 1844 
L 1159 0 
L 581 0 
L 581 3500 
L 1159 3500 
L 1159 2956 
Q 1341 3275 1631 3429 
Q 1922 3584 2338 3584 
Q 2397 3584 2469 3576 
Q 2541 3569 2628 3553 
L 2631 2963 
z
" transform="scale(0.015625)"/>
       <path id="DejaVuSans-69" d="M 603 3500 
L 1178 3500 
L 1178 0 
L 603 0 
L 603 3500 
z
M 603 4863 
L 1178 4863 
L 1178 4134 
L 603 4134 
L 603 4863 
z
" transform="scale(0.015625)"/>
       <path id="DejaVuSans-6f" d="M 1959 3097 
Q 1497 3097 1228 2736 
Q 959 2375 959 1747 
Q 959 1119 1226 758 
Q 1494 397 1959 397 
Q 2419 397 2687 759 
Q 2956 1122 2956 1747 
Q 2956 2369 2687 2733 
Q 2419 3097 1959 3097 
z
M 1959 3584 
Q 2709 3584 3137 3096 
Q 3566 2609 3566 1747 
Q 3566 888 3137 398 
Q 2709 -91 1959 -91 
Q 1206 -91 779 398 
Q 353 888 353 1747 
Q 353 2609 779 3096 
Q 1206 3584 1959 3584 
z
" transform="scale(0.015625)"/>
       <path id="DejaVuSans-64" d="M 2906 2969 
L 2906 4863 
L 3481 4863 
L 3481 0 
L 2906 0 
L 2906 525 
Q 2725 213 2448 61 
Q 2172 -91 1784 -91 
Q 1150 -91 751 415 
Q 353 922 353 1747 
Q 353 2572 751 3078 
Q 1150 3584 1784 3584 
Q 2172 3584 2448 3432 
Q 2725 3281 2906 2969 
z
M 947 1747 
Q 947 1113 1208 752 
Q 1469 391 1925 391 
Q 2381 391 2643 752 
Q 2906 1113 2906 1747 
Q 2906 2381 2643 2742 
Q 2381 3103 1925 3103 
Q 1469 3103 1208 2742 
Q 947 2381 947 1747 
z
" transform="scale(0.015625)"/>
       <path id="DejaVuSans-2c" d="M 750 794 
L 1409 794 
L 1409 256 
L 897 -744 
L 494 -744 
L 750 256 
L 750 794 
z
" transform="scale(0.015625)"/>
       <path id="DejaVuSans-20" transform="scale(0.015625)"/>
       <path id="DejaVuSans-54" d="M -19 4666 
L 3928 4666 
L 3928 4134 
L 2272 4134 
L 2272 0 
L 1638 0 
L 1638 4134 
L -19 4134 
L -19 4666 
z
" transform="scale(0.015625)"/>
       <path id="DejaVuSans-28" d="M 1984 4856 
Q 1566 4138 1362 3434 
Q 1159 2731 1159 2009 
Q 1159 1288 1364 580 
Q 1569 -128 1984 -844 
L 1484 -844 
Q 1016 -109 783 600 
Q 550 1309 550 2009 
Q 550 2706 781 3412 
Q 1013 4119 1484 4856 
L 1984 4856 
z
" transform="scale(0.015625)"/>
       <path id="DejaVuSans-73" d="M 2834 3397 
L 2834 2853 
Q 2591 2978 2328 3040 
Q 2066 3103 1784 3103 
Q 1356 3103 1142 2972 
Q 928 2841 928 2578 
Q 928 2378 1081 2264 
Q 1234 2150 1697 2047 
L 1894 2003 
Q 2506 1872 2764 1633 
Q 3022 1394 3022 966 
Q 3022 478 2636 193 
Q 2250 -91 1575 -91 
Q 1294 -91 989 -36 
Q 684 19 347 128 
L 347 722 
Q 666 556 975 473 
Q 1284 391 1588 391 
Q 1994 391 2212 530 
Q 2431 669 2431 922 
Q 2431 1156 2273 1281 
Q 2116 1406 1581 1522 
L 1381 1569 
Q 847 1681 609 1914 
Q 372 2147 372 2553 
Q 372 3047 722 3315 
Q 1072 3584 1716 3584 
Q 2034 3584 2315 3537 
Q 2597 3491 2834 3397 
z
" transform="scale(0.015625)"/>
       <path id="DejaVuSans-29" d="M 513 4856 
L 1013 4856 
Q 1481 4119 1714 3412 
Q 1947 2706 1947 2009 
Q 1947 1309 1714 600 
Q 1481 -109 1013 -844 
L 513 -844 
Q 928 -128 1133 580 
Q 1338 1288 1338 2009 
Q 1338 2731 1133 3434 
Q 928 4138 513 4856 
z
" transform="scale(0.015625)"/>
      </defs>
      <use xlink:href="#DejaVuSans-50"/>
      <use xlink:href="#DejaVuSans-65" x="56.677734"/>
      <use xlink:href="#DejaVuSans-72" x="118.201172"/>
      <use xlink:href="#DejaVuSans-69" x="159.314453"/>
      <use xlink:href="#DejaVuSans-6f" x="187.097656"/>
      <use xlink:href="#DejaVuSans-64" x="248.279297"/>
      <use xlink:href="#DejaVuSans-2c" x="311.755859"/>
      <use xlink:href="#DejaVuSans-20" x="343.542969"/>
      <use xlink:href="#DejaVuSans-54" x="375.330078"/>
      <use xlink:href="#DejaVuSans-20" x="436.414062"/>
      <use xlink:href="#DejaVuSans-28" x="468.201172"/>
      <use xlink:href="#DejaVuSans-73" x="507.214844"/>
      <use xlink:href="#DejaVuSans-29" x="559.314453"/>
     </g>
    </g>
   </g>
   <g id="matplotlib.axis_2">
    <g id="ytick_1">
     <g id="line2d_33">
      <path d="M 44.7425 110.67926 
L 242.2745 110.67926 
" clip-path="url(#p8e69536c9f)" style="fill: none; stroke: #d9d9d9; stroke-width: 0.8; stroke-linecap: square"/>
     </g>
     <g id="line2d_34">
      <defs>
       <path id="m367b258f06" d="M 0 0 
L -3.5 0 
" style="stroke: #000000; stroke-width: 0.8"/>
      </defs>
      <g>
       <use xlink:href="#m367b258f06" x="44.7425" y="110.67926" style="stroke: #000000; stroke-width: 0.8"/>
      </g>
     </g>
     <g id="text_4">
      <!-- $\mathdefault{10^{-1}}$ -->
      <g transform="translate(18.9425 113.718635) scale(0.08 -0.08)">
       <use xlink:href="#DejaVuSans-31" transform="translate(0 0.684375)"/>
       <use xlink:href="#DejaVuSans-30" transform="translate(63.623047 0.684375)"/>
       <use xlink:href="#DejaVuSans-2212" transform="translate(128.203125 38.965625) scale(0.7)"/>
       <use xlink:href="#DejaVuSans-31" transform="translate(186.855469 38.965625) scale(0.7)"/>
      </g>
     </g>
    </g>
    <g id="ytick_2">
     <g id="line2d_35">
      <path d="M 44.7425 64.287601 
L 242.2745 64.287601 
" clip-path="url(#p8e69536c9f)" style="fill: none; stroke: #d9d9d9; stroke-width: 0.8; stroke-linecap: square"/>
     </g>
     <g id="line2d_36">
      <g>
       <use xlink:href="#m367b258f06" x="44.7425" y="64.287601" style="stroke: #000000; stroke-width: 0.8"/>
      </g>
     </g>
     <g id="text_5">
      <!-- $\mathdefault{10^{0}}$ -->
      <g transform="translate(23.6625 67.326976) scale(0.08 -0.08)">
       <use xlink:href="#DejaVuSans-31" transform="translate(0 0.765625)"/>
       <use xlink:href="#DejaVuSans-30" transform="translate(63.623047 0.765625)"/>
       <use xlink:href="#DejaVuSans-30" transform="translate(128.203125 39.046875) scale(0.7)"/>
      </g>
     </g>
    </g>
    <g id="ytick_3">
     <g id="line2d_37">
      <path d="M 44.7425 17.895942 
L 242.2745 17.895942 
" clip-path="url(#p8e69536c9f)" style="fill: none; stroke: #d9d9d9; stroke-width: 0.8; stroke-linecap: square"/>
     </g>
     <g id="line2d_38">
      <g>
       <use xlink:href="#m367b258f06" x="44.7425" y="17.895942" style="stroke: #000000; stroke-width: 0.8"/>
      </g>
     </g>
     <g id="text_6">
      <!-- $\mathdefault{10^{1}}$ -->
      <g transform="translate(23.6625 20.935317) scale(0.08 -0.08)">
       <use xlink:href="#DejaVuSans-31" transform="translate(0 0.684375)"/>
       <use xlink:href="#DejaVuSans-30" transform="translate(63.623047 0.684375)"/>
       <use xlink:href="#DejaVuSans-31" transform="translate(128.203125 38.965625) scale(0.7)"/>
      </g>
     </g>
    </g>
    <g id="ytick_4">
     <g id="line2d_39">
      <path d="M 44.7425 134.936473 
L 242.2745 134.936473 
" clip-path="url(#p8e69536c9f)" style="fill: none; stroke-dasharray: 2.96,1.28; stroke-dashoffset: 0; stroke: #f2f2f2; stroke-width: 0.8"/>
     </g>
     <g id="line2d_40">
      <defs>
       <path id="m39b886d1cd" d="M 0 0 
L -2 0 
" style="stroke: #000000; stroke-width: 0.6"/>
      </defs>
      <g>
       <use xlink:href="#m39b886d1cd" x="44.7425" y="134.936473" style="stroke: #000000; stroke-width: 0.6"/>
      </g>
     </g>
    </g>
    <g id="ytick_5">
     <g id="line2d_41">
      <path d="M 44.7425 129.140357 
L 242.2745 129.140357 
" clip-path="url(#p8e69536c9f)" style="fill: none; stroke-dasharray: 2.96,1.28; stroke-dashoffset: 0; stroke: #f2f2f2; stroke-width: 0.8"/>
     </g>
     <g id="line2d_42">
      <g>
       <use xlink:href="#m39b886d1cd" x="44.7425" y="129.140357" style="stroke: #000000; stroke-width: 0.6"/>
      </g>
     </g>
    </g>
    <g id="ytick_6">
     <g id="line2d_43">
      <path d="M 44.7425 124.644541 
L 242.2745 124.644541 
" clip-path="url(#p8e69536c9f)" style="fill: none; stroke-dasharray: 2.96,1.28; stroke-dashoffset: 0; stroke: #f2f2f2; stroke-width: 0.8"/>
     </g>
     <g id="line2d_44">
      <g>
       <use xlink:href="#m39b886d1cd" x="44.7425" y="124.644541" style="stroke: #000000; stroke-width: 0.6"/>
      </g>
     </g>
    </g>
    <g id="ytick_7">
     <g id="line2d_45">
      <path d="M 44.7425 120.971192 
L 242.2745 120.971192 
" clip-path="url(#p8e69536c9f)" style="fill: none; stroke-dasharray: 2.96,1.28; stroke-dashoffset: 0; stroke: #f2f2f2; stroke-width: 0.8"/>
     </g>
     <g id="line2d_46">
      <g>
       <use xlink:href="#m39b886d1cd" x="44.7425" y="120.971192" style="stroke: #000000; stroke-width: 0.6"/>
      </g>
     </g>
    </g>
    <g id="ytick_8">
     <g id="line2d_47">
      <path d="M 44.7425 117.865419 
L 242.2745 117.865419 
" clip-path="url(#p8e69536c9f)" style="fill: none; stroke-dasharray: 2.96,1.28; stroke-dashoffset: 0; stroke: #f2f2f2; stroke-width: 0.8"/>
     </g>
     <g id="line2d_48">
      <g>
       <use xlink:href="#m39b886d1cd" x="44.7425" y="117.865419" style="stroke: #000000; stroke-width: 0.6"/>
      </g>
     </g>
    </g>
    <g id="ytick_9">
     <g id="line2d_49">
      <path d="M 44.7425 115.175076 
L 242.2745 115.175076 
" clip-path="url(#p8e69536c9f)" style="fill: none; stroke-dasharray: 2.96,1.28; stroke-dashoffset: 0; stroke: #f2f2f2; stroke-width: 0.8"/>
     </g>
     <g id="line2d_50">
      <g>
       <use xlink:href="#m39b886d1cd" x="44.7425" y="115.175076" style="stroke: #000000; stroke-width: 0.6"/>
      </g>
     </g>
    </g>
    <g id="ytick_10">
     <g id="line2d_51">
      <path d="M 44.7425 112.802026 
L 242.2745 112.802026 
" clip-path="url(#p8e69536c9f)" style="fill: none; stroke-dasharray: 2.96,1.28; stroke-dashoffset: 0; stroke: #f2f2f2; stroke-width: 0.8"/>
     </g>
     <g id="line2d_52">
      <g>
       <use xlink:href="#m39b886d1cd" x="44.7425" y="112.802026" style="stroke: #000000; stroke-width: 0.6"/>
      </g>
     </g>
    </g>
    <g id="ytick_11">
     <g id="line2d_53">
      <path d="M 44.7425 96.713979 
L 242.2745 96.713979 
" clip-path="url(#p8e69536c9f)" style="fill: none; stroke-dasharray: 2.96,1.28; stroke-dashoffset: 0; stroke: #f2f2f2; stroke-width: 0.8"/>
     </g>
     <g id="line2d_54">
      <g>
       <use xlink:href="#m39b886d1cd" x="44.7425" y="96.713979" style="stroke: #000000; stroke-width: 0.6"/>
      </g>
     </g>
    </g>
    <g id="ytick_12">
     <g id="line2d_55">
      <path d="M 44.7425 88.544814 
L 242.2745 88.544814 
" clip-path="url(#p8e69536c9f)" style="fill: none; stroke-dasharray: 2.96,1.28; stroke-dashoffset: 0; stroke: #f2f2f2; stroke-width: 0.8"/>
     </g>
     <g id="line2d_56">
      <g>
       <use xlink:href="#m39b886d1cd" x="44.7425" y="88.544814" style="stroke: #000000; stroke-width: 0.6"/>
      </g>
     </g>
    </g>
    <g id="ytick_13">
     <g id="line2d_57">
      <path d="M 44.7425 82.748698 
L 242.2745 82.748698 
" clip-path="url(#p8e69536c9f)" style="fill: none; stroke-dasharray: 2.96,1.28; stroke-dashoffset: 0; stroke: #f2f2f2; stroke-width: 0.8"/>
     </g>
     <g id="line2d_58">
      <g>
       <use xlink:href="#m39b886d1cd" x="44.7425" y="82.748698" style="stroke: #000000; stroke-width: 0.6"/>
      </g>
     </g>
    </g>
    <g id="ytick_14">
     <g id="line2d_59">
      <path d="M 44.7425 78.252882 
L 242.2745 78.252882 
" clip-path="url(#p8e69536c9f)" style="fill: none; stroke-dasharray: 2.96,1.28; stroke-dashoffset: 0; stroke: #f2f2f2; stroke-width: 0.8"/>
     </g>
     <g id="line2d_60">
      <g>
       <use xlink:href="#m39b886d1cd" x="44.7425" y="78.252882" style="stroke: #000000; stroke-width: 0.6"/>
      </g>
     </g>
    </g>
    <g id="ytick_15">
     <g id="line2d_61">
      <path d="M 44.7425 74.579533 
L 242.2745 74.579533 
" clip-path="url(#p8e69536c9f)" style="fill: none; stroke-dasharray: 2.96,1.28; stroke-dashoffset: 0; stroke: #f2f2f2; stroke-width: 0.8"/>
     </g>
     <g id="line2d_62">
      <g>
       <use xlink:href="#m39b886d1cd" x="44.7425" y="74.579533" style="stroke: #000000; stroke-width: 0.6"/>
      </g>
     </g>
    </g>
    <g id="ytick_16">
     <g id="line2d_63">
      <path d="M 44.7425 71.47376 
L 242.2745 71.47376 
" clip-path="url(#p8e69536c9f)" style="fill: none; stroke-dasharray: 2.96,1.28; stroke-dashoffset: 0; stroke: #f2f2f2; stroke-width: 0.8"/>
     </g>
     <g id="line2d_64">
      <g>
       <use xlink:href="#m39b886d1cd" x="44.7425" y="71.47376" style="stroke: #000000; stroke-width: 0.6"/>
      </g>
     </g>
    </g>
    <g id="ytick_17">
     <g id="line2d_65">
      <path d="M 44.7425 68.783417 
L 242.2745 68.783417 
" clip-path="url(#p8e69536c9f)" style="fill: none; stroke-dasharray: 2.96,1.28; stroke-dashoffset: 0; stroke: #f2f2f2; stroke-width: 0.8"/>
     </g>
     <g id="line2d_66">
      <g>
       <use xlink:href="#m39b886d1cd" x="44.7425" y="68.783417" style="stroke: #000000; stroke-width: 0.6"/>
      </g>
     </g>
    </g>
    <g id="ytick_18">
     <g id="line2d_67">
      <path d="M 44.7425 66.410367 
L 242.2745 66.410367 
" clip-path="url(#p8e69536c9f)" style="fill: none; stroke-dasharray: 2.96,1.28; stroke-dashoffset: 0; stroke: #f2f2f2; stroke-width: 0.8"/>
     </g>
     <g id="line2d_68">
      <g>
       <use xlink:href="#m39b886d1cd" x="44.7425" y="66.410367" style="stroke: #000000; stroke-width: 0.6"/>
      </g>
     </g>
    </g>
    <g id="ytick_19">
     <g id="line2d_69">
      <path d="M 44.7425 50.32232 
L 242.2745 50.32232 
" clip-path="url(#p8e69536c9f)" style="fill: none; stroke-dasharray: 2.96,1.28; stroke-dashoffset: 0; stroke: #f2f2f2; stroke-width: 0.8"/>
     </g>
     <g id="line2d_70">
      <g>
       <use xlink:href="#m39b886d1cd" x="44.7425" y="50.32232" style="stroke: #000000; stroke-width: 0.6"/>
      </g>
     </g>
    </g>
    <g id="ytick_20">
     <g id="line2d_71">
      <path d="M 44.7425 42.153155 
L 242.2745 42.153155 
" clip-path="url(#p8e69536c9f)" style="fill: none; stroke-dasharray: 2.96,1.28; stroke-dashoffset: 0; stroke: #f2f2f2; stroke-width: 0.8"/>
     </g>
     <g id="line2d_72">
      <g>
       <use xlink:href="#m39b886d1cd" x="44.7425" y="42.153155" style="stroke: #000000; stroke-width: 0.6"/>
      </g>
     </g>
    </g>
    <g id="ytick_21">
     <g id="line2d_73">
      <path d="M 44.7425 36.357039 
L 242.2745 36.357039 
" clip-path="url(#p8e69536c9f)" style="fill: none; stroke-dasharray: 2.96,1.28; stroke-dashoffset: 0; stroke: #f2f2f2; stroke-width: 0.8"/>
     </g>
     <g id="line2d_74">
      <g>
       <use xlink:href="#m39b886d1cd" x="44.7425" y="36.357039" style="stroke: #000000; stroke-width: 0.6"/>
      </g>
     </g>
    </g>
    <g id="ytick_22">
     <g id="line2d_75">
      <path d="M 44.7425 31.861223 
L 242.2745 31.861223 
" clip-path="url(#p8e69536c9f)" style="fill: none; stroke-dasharray: 2.96,1.28; stroke-dashoffset: 0; stroke: #f2f2f2; stroke-width: 0.8"/>
     </g>
     <g id="line2d_76">
      <g>
       <use xlink:href="#m39b886d1cd" x="44.7425" y="31.861223" style="stroke: #000000; stroke-width: 0.6"/>
      </g>
     </g>
    </g>
    <g id="ytick_23">
     <g id="line2d_77">
      <path d="M 44.7425 28.187874 
L 242.2745 28.187874 
" clip-path="url(#p8e69536c9f)" style="fill: none; stroke-dasharray: 2.96,1.28; stroke-dashoffset: 0; stroke: #f2f2f2; stroke-width: 0.8"/>
     </g>
     <g id="line2d_78">
      <g>
       <use xlink:href="#m39b886d1cd" x="44.7425" y="28.187874" style="stroke: #000000; stroke-width: 0.6"/>
      </g>
     </g>
    </g>
    <g id="ytick_24">
     <g id="line2d_79">
      <path d="M 44.7425 25.082101 
L 242.2745 25.082101 
" clip-path="url(#p8e69536c9f)" style="fill: none; stroke-dasharray: 2.96,1.28; stroke-dashoffset: 0; stroke: #f2f2f2; stroke-width: 0.8"/>
     </g>
     <g id="line2d_80">
      <g>
       <use xlink:href="#m39b886d1cd" x="44.7425" y="25.082101" style="stroke: #000000; stroke-width: 0.6"/>
      </g>
     </g>
    </g>
    <g id="ytick_25">
     <g id="line2d_81">
      <path d="M 44.7425 22.391758 
L 242.2745 22.391758 
" clip-path="url(#p8e69536c9f)" style="fill: none; stroke-dasharray: 2.96,1.28; stroke-dashoffset: 0; stroke: #f2f2f2; stroke-width: 0.8"/>
     </g>
     <g id="line2d_82">
      <g>
       <use xlink:href="#m39b886d1cd" x="44.7425" y="22.391758" style="stroke: #000000; stroke-width: 0.6"/>
      </g>
     </g>
    </g>
    <g id="ytick_26">
     <g id="line2d_83">
      <path d="M 44.7425 20.018708 
L 242.2745 20.018708 
" clip-path="url(#p8e69536c9f)" style="fill: none; stroke-dasharray: 2.96,1.28; stroke-dashoffset: 0; stroke: #f2f2f2; stroke-width: 0.8"/>
     </g>
     <g id="line2d_84">
      <g>
       <use xlink:href="#m39b886d1cd" x="44.7425" y="20.018708" style="stroke: #000000; stroke-width: 0.6"/>
      </g>
     </g>
    </g>
    <g id="text_7">
     <!-- Spectral acceleration, SA (g) -->
     <g transform="translate(13.27875 129.871075) rotate(-90) scale(0.08 -0.08)">
      <defs>
       <path id="DejaVuSans-53" d="M 3425 4513 
L 3425 3897 
Q 3066 4069 2747 4153 
Q 2428 4238 2131 4238 
Q 1616 4238 1336 4038 
Q 1056 3838 1056 3469 
Q 1056 3159 1242 3001 
Q 1428 2844 1947 2747 
L 2328 2669 
Q 3034 2534 3370 2195 
Q 3706 1856 3706 1288 
Q 3706 609 3251 259 
Q 2797 -91 1919 -91 
Q 1588 -91 1214 -16 
Q 841 59 441 206 
L 441 856 
Q 825 641 1194 531 
Q 1563 422 1919 422 
Q 2459 422 2753 634 
Q 3047 847 3047 1241 
Q 3047 1584 2836 1778 
Q 2625 1972 2144 2069 
L 1759 2144 
Q 1053 2284 737 2584 
Q 422 2884 422 3419 
Q 422 4038 858 4394 
Q 1294 4750 2059 4750 
Q 2388 4750 2728 4690 
Q 3069 4631 3425 4513 
z
" transform="scale(0.015625)"/>
       <path id="DejaVuSans-70" d="M 1159 525 
L 1159 -1331 
L 581 -1331 
L 581 3500 
L 1159 3500 
L 1159 2969 
Q 1341 3281 1617 3432 
Q 1894 3584 2278 3584 
Q 2916 3584 3314 3078 
Q 3713 2572 3713 1747 
Q 3713 922 3314 415 
Q 2916 -91 2278 -91 
Q 1894 -91 1617 61 
Q 1341 213 1159 525 
z
M 3116 1747 
Q 3116 2381 2855 2742 
Q 2594 3103 2138 3103 
Q 1681 3103 1420 2742 
Q 1159 2381 1159 1747 
Q 1159 1113 1420 752 
Q 1681 391 2138 391 
Q 2594 391 2855 752 
Q 3116 1113 3116 1747 
z
" transform="scale(0.015625)"/>
       <path id="DejaVuSans-63" d="M 3122 3366 
L 3122 2828 
Q 2878 2963 2633 3030 
Q 2388 3097 2138 3097 
Q 1578 3097 1268 2742 
Q 959 2388 959 1747 
Q 959 1106 1268 751 
Q 1578 397 2138 397 
Q 2388 397 2633 464 
Q 2878 531 3122 666 
L 3122 134 
Q 2881 22 2623 -34 
Q 2366 -91 2075 -91 
Q 1284 -91 818 406 
Q 353 903 353 1747 
Q 353 2603 823 3093 
Q 1294 3584 2113 3584 
Q 2378 3584 2631 3529 
Q 2884 3475 3122 3366 
z
" transform="scale(0.015625)"/>
       <path id="DejaVuSans-74" d="M 1172 4494 
L 1172 3500 
L 2356 3500 
L 2356 3053 
L 1172 3053 
L 1172 1153 
Q 1172 725 1289 603 
Q 1406 481 1766 481 
L 2356 481 
L 2356 0 
L 1766 0 
Q 1100 0 847 248 
Q 594 497 594 1153 
L 594 3053 
L 172 3053 
L 172 3500 
L 594 3500 
L 594 4494 
L 1172 4494 
z
" transform="scale(0.015625)"/>
       <path id="DejaVuSans-61" d="M 2194 1759 
Q 1497 1759 1228 1600 
Q 959 1441 959 1056 
Q 959 750 1161 570 
Q 1363 391 1709 391 
Q 2188 391 2477 730 
Q 2766 1069 2766 1631 
L 2766 1759 
L 2194 1759 
z
M 3341 1997 
L 3341 0 
L 2766 0 
L 2766 531 
Q 2569 213 2275 61 
Q 1981 -91 1556 -91 
Q 1019 -91 701 211 
Q 384 513 384 1019 
Q 384 1609 779 1909 
Q 1175 2209 1959 2209 
L 2766 2209 
L 2766 2266 
Q 2766 2663 2505 2880 
Q 2244 3097 1772 3097 
Q 1472 3097 1187 3025 
Q 903 2953 641 2809 
L 641 3341 
Q 956 3463 1253 3523 
Q 1550 3584 1831 3584 
Q 2591 3584 2966 3190 
Q 3341 2797 3341 1997 
z
" transform="scale(0.015625)"/>
       <path id="DejaVuSans-6c" d="M 603 4863 
L 1178 4863 
L 1178 0 
L 603 0 
L 603 4863 
z
" transform="scale(0.015625)"/>
       <path id="DejaVuSans-6e" d="M 3513 2113 
L 3513 0 
L 2938 0 
L 2938 2094 
Q 2938 2591 2744 2837 
Q 2550 3084 2163 3084 
Q 1697 3084 1428 2787 
Q 1159 2491 1159 1978 
L 1159 0 
L 581 0 
L 581 3500 
L 1159 3500 
L 1159 2956 
Q 1366 3272 1645 3428 
Q 1925 3584 2291 3584 
Q 2894 3584 3203 3211 
Q 3513 2838 3513 2113 
z
" transform="scale(0.015625)"/>
       <path id="DejaVuSans-41" d="M 2188 4044 
L 1331 1722 
L 3047 1722 
L 2188 4044 
z
M 1831 4666 
L 2547 4666 
L 4325 0 
L 3669 0 
L 3244 1197 
L 1141 1197 
L 716 0 
L 50 0 
L 1831 4666 
z
" transform="scale(0.015625)"/>
       <path id="DejaVuSans-67" d="M 2906 1791 
Q 2906 2416 2648 2759 
Q 2391 3103 1925 3103 
Q 1463 3103 1205 2759 
Q 947 2416 947 1791 
Q 947 1169 1205 825 
Q 1463 481 1925 481 
Q 2391 481 2648 825 
Q 2906 1169 2906 1791 
z
M 3481 434 
Q 3481 -459 3084 -895 
Q 2688 -1331 1869 -1331 
Q 1566 -1331 1297 -1286 
Q 1028 -1241 775 -1147 
L 775 -588 
Q 1028 -725 1275 -790 
Q 1522 -856 1778 -856 
Q 2344 -856 2625 -561 
Q 2906 -266 2906 331 
L 2906 616 
Q 2728 306 2450 153 
Q 2172 0 1784 0 
Q 1141 0 747 490 
Q 353 981 353 1791 
Q 353 2603 747 3093 
Q 1141 3584 1784 3584 
Q 2172 3584 2450 3431 
Q 2728 3278 2906 2969 
L 2906 3500 
L 3481 3500 
L 3481 434 
z
" transform="scale(0.015625)"/>
      </defs>
      <use xlink:href="#DejaVuSans-53"/>
      <use xlink:href="#DejaVuSans-70" x="63.476562"/>
      <use xlink:href="#DejaVuSans-65" x="126.953125"/>
      <use xlink:href="#DejaVuSans-63" x="188.476562"/>
      <use xlink:href="#DejaVuSans-74" x="243.457031"/>
      <use xlink:href="#DejaVuSans-72" x="282.666016"/>
      <use xlink:href="#DejaVuSans-61" x="323.779297"/>
      <use xlink:href="#DejaVuSans-6c" x="385.058594"/>
      <use xlink:href="#DejaVuSans-20" x="412.841797"/>
      <use xlink:href="#DejaVuSans-61" x="444.628906"/>
      <use xlink:href="#DejaVuSans-63" x="505.908203"/>
      <use xlink:href="#DejaVuSans-63" x="560.888672"/>
      <use xlink:href="#DejaVuSans-65" x="615.869141"/>
      <use xlink:href="#DejaVuSans-6c" x="677.392578"/>
      <use xlink:href="#DejaVuSans-65" x="705.175781"/>
      <use xlink:href="#DejaVuSans-72" x="766.699219"/>
      <use xlink:href="#DejaVuSans-61" x="807.8125"/>
      <use xlink:href="#DejaVuSans-74" x="869.091797"/>
      <use xlink:href="#DejaVuSans-69" x="908.300781"/>
      <use xlink:href="#DejaVuSans-6f" x="936.083984"/>
      <use xlink:href="#DejaVuSans-6e" x="997.265625"/>
      <use xlink:href="#DejaVuSans-2c" x="1060.644531"/>
      <use xlink:href="#DejaVuSans-20" x="1092.431641"/>
      <use xlink:href="#DejaVuSans-53" x="1124.21875"/>
      <use xlink:href="#DejaVuSans-41" x="1189.570312"/>
      <use xlink:href="#DejaVuSans-20" x="1257.978516"/>
      <use xlink:href="#DejaVuSans-28" x="1289.765625"/>
      <use xlink:href="#DejaVuSans-67" x="1328.779297"/>
      <use xlink:href="#DejaVuSans-29" x="1392.255859"/>
     </g>
    </g>
   </g>
   <g id="line2d_85">
    <path d="M 53.721227 14.088812 
L 72.333391 17.924929 
L 85.538931 13.1472 
L 95.781944 31.32995 
L 104.151095 36.415041 
L 117.356635 38.09571 
L 127.599648 43.110472 
L 132.390111 50.02235 
L 146.211812 53.169994 
L 159.417352 65.409657 
L 171.460723 62.038233 
L 178.029516 71.969453 
L 191.235056 77.358791 
L 209.84722 91.284599 
L 223.05276 102.912439 
L 233.295773 109.190772 
" clip-path="url(#p8e69536c9f)" style="fill: none; stroke: #b2b2b2; stroke-width: 0.8; stroke-linecap: square"/>
   </g>
   <g id="line2d_86">
    <path d="M 53.721227 68.40719 
L 72.333391 64.58996 
L 85.538931 60.763883 
L 95.781944 58.324821 
L 104.151095 59.65694 
L 117.356635 48.209528 
L 127.599648 48.454806 
L 132.390111 50.02235 
L 146.211812 50.369363 
L 159.417352 63.641903 
L 171.460723 83.119883 
L 178.029516 83.438969 
L 191.235056 88.375737 
L 209.84722 96.964635 
L 223.05276 94.104419 
L 233.295773 105.814189 
" clip-path="url(#p8e69536c9f)" style="fill: none; stroke: #b2b2b2; stroke-width: 0.8; stroke-linecap: square"/>
   </g>
   <g id="line2d_87">
    <path d="M 53.721227 60.82082 
L 72.333391 59.396913 
L 85.538931 60.104404 
L 95.781944 57.059061 
L 104.151095 49.725565 
L 117.356635 51.612385 
L 127.599648 50.434304 
L 132.390111 50.02235 
L 146.211812 41.547374 
L 159.417352 48.564562 
L 171.460723 55.32405 
L 178.029516 57.398877 
L 191.235056 62.523714 
L 209.84722 77.009416 
L 223.05276 87.162372 
L 233.295773 97.55003 
" clip-path="url(#p8e69536c9f)" style="fill: none; stroke: #b2b2b2; stroke-width: 0.8; stroke-linecap: square"/>
   </g>
   <g id="line2d_88">
    <path d="M 53.721227 65.325485 
L 72.333391 64.343293 
L 85.538931 55.028558 
L 95.781944 53.010538 
L 104.151095 45.81958 
L 117.356635 54.344845 
L 127.599648 49.754032 
L 132.390111 50.02235 
L 146.211812 54.677394 
L 159.417352 58.904591 
L 171.460723 63.672721 
L 178.029516 71.402918 
L 191.235056 90.101275 
L 209.84722 89.560067 
L 223.05276 89.433842 
L 233.295773 105.463004 
" clip-path="url(#p8e69536c9f)" style="fill: none; stroke: #b2b2b2; stroke-width: 0.8; stroke-linecap: square"/>
   </g>
   <g id="line2d_89">
    <path d="M 53.721227 68.954722 
L 72.333391 63.279517 
L 85.538931 61.022271 
L 95.781944 58.697699 
L 104.151095 44.961354 
L 117.356635 55.20972 
L 127.599648 51.86562 
L 132.390111 50.02235 
L 146.211812 45.754669 
L 159.417352 54.334511 
L 171.460723 60.178 
L 178.029516 57.365914 
L 191.235056 78.513721 
L 209.84722 83.072645 
L 223.05276 86.432845 
L 233.295773 101.270935 
" clip-path="url(#p8e69536c9f)" style="fill: none; stroke: #b2b2b2; stroke-width: 0.8; stroke-linecap: square"/>
   </g>
   <g id="line2d_90">
    <path d="M 53.721227 69.406293 
L 72.333391 67.957018 
L 85.538931 61.232875 
L 95.781944 55.356606 
L 104.151095 60.277359 
L 117.356635 50.817697 
L 127.599648 50.780155 
L 132.390111 50.02235 
L 146.211812 64.203493 
L 159.417352 70.958002 
L 171.460723 77.685482 
L 178.029516 85.437126 
L 191.235056 90.608028 
L 209.84722 89.541386 
L 223.05276 107.651937 
L 233.295773 106.919259 
" clip-path="url(#p8e69536c9f)" style="fill: none; stroke: #b2b2b2; stroke-width: 0.8; stroke-linecap: square"/>
   </g>
   <g id="line2d_91">
    <path d="M 53.721227 62.520555 
L 72.333391 56.638375 
L 85.538931 52.830315 
L 95.781944 49.917662 
L 104.151095 43.359968 
L 117.356635 50.458106 
L 127.599648 45.334773 
L 132.390111 50.02235 
L 146.211812 49.272653 
L 159.417352 69.142508 
L 171.460723 75.396398 
L 178.029516 78.062353 
L 191.235056 82.464941 
L 209.84722 94.077178 
L 223.05276 101.968746 
L 233.295773 104.42158 
" clip-path="url(#p8e69536c9f)" style="fill: none; stroke: #b2b2b2; stroke-width: 0.8; stroke-linecap: square"/>
   </g>
   <g id="line2d_92">
    <path d="M 53.721227 54.799871 
L 72.333391 41.169826 
L 85.538931 49.250694 
L 95.781944 51.324669 
L 104.151095 55.083198 
L 117.356635 54.075032 
L 127.599648 53.89067 
L 132.390111 50.02235 
L 146.211812 49.853997 
L 159.417352 51.917224 
L 171.460723 75.956607 
L 178.029516 82.576235 
L 191.235056 86.538628 
L 209.84722 91.170445 
L 223.05276 94.593688 
L 233.295773 101.214273 
" clip-path="url(#p8e69536c9f)" style="fill: none; stroke: #b2b2b2; stroke-width: 0.8; stroke-linecap: square"/>
   </g>
   <g id="line2d_93">
    <path d="M 53.721227 52.379721 
L 72.333391 42.712446 
L 85.538931 47.893671 
L 95.781944 45.354637 
L 104.151095 41.157573 
L 117.356635 52.787552 
L 127.599648 51.736102 
L 132.390111 50.02235 
L 146.211812 54.53135 
L 159.417352 69.263684 
L 171.460723 69.341948 
L 178.029516 64.81442 
L 191.235056 74.640545 
L 209.84722 93.680243 
L 223.05276 89.118766 
L 233.295773 105.519885 
" clip-path="url(#p8e69536c9f)" style="fill: none; stroke: #b2b2b2; stroke-width: 0.8; stroke-linecap: square"/>
   </g>
   <g id="line2d_94">
    <path d="M 53.721227 55.189561 
L 72.333391 59.671202 
L 85.538931 52.690258 
L 95.781944 53.288922 
L 104.151095 43.535961 
L 117.356635 54.503876 
L 127.599648 48.589987 
L 132.390111 50.02235 
L 146.211812 53.741515 
L 159.417352 55.172142 
L 171.460723 60.552447 
L 178.029516 68.034332 
L 191.235056 77.601176 
L 209.84722 87.755849 
L 223.05276 95.348086 
L 233.295773 98.296377 
" clip-path="url(#p8e69536c9f)" style="fill: none; stroke: #b2b2b2; stroke-width: 0.8; stroke-linecap: square"/>
   </g>
   <g id="line2d_95">
    <path d="M 53.721227 52.077284 
L 72.333391 42.936013 
L 85.538931 46.03926 
L 95.781944 48.289223 
L 104.151095 45.984835 
L 117.356635 46.215094 
L 127.599648 50.930332 
L 132.390111 50.02235 
L 146.211812 42.114884 
L 159.417352 51.174345 
L 171.460723 56.292295 
L 178.029516 59.331735 
L 191.235056 70.129658 
L 209.84722 87.796383 
L 223.05276 100.091109 
L 233.295773 105.123604 
" clip-path="url(#p8e69536c9f)" style="fill: none; stroke: #b2b2b2; stroke-width: 0.8; stroke-linecap: square"/>
   </g>
   <g id="line2d_96">
    <path d="M 53.721227 47.237264 
L 72.333391 39.426242 
L 85.538931 43.844659 
L 95.781944 38.827875 
L 104.151095 41.745135 
L 117.356635 45.567679 
L 127.599648 47.107706 
L 132.390111 50.02235 
L 146.211812 59.672788 
L 159.417352 65.890857 
L 171.460723 67.77167 
L 178.029516 71.539851 
L 191.235056 86.518206 
L 209.84722 97.171583 
L 223.05276 99.975944 
L 233.295773 101.871202 
" clip-path="url(#p8e69536c9f)" style="fill: none; stroke: #b2b2b2; stroke-width: 0.8; stroke-linecap: square"/>
   </g>
   <g id="line2d_97">
    <path d="M 53.721227 58.643529 
L 72.333391 49.278782 
L 85.538931 41.468428 
L 95.781944 45.038498 
L 104.151095 52.314175 
L 117.356635 49.958592 
L 127.599648 49.077728 
L 132.390111 50.02235 
L 146.211812 62.561472 
L 159.417352 70.377526 
L 171.460723 75.558586 
L 178.029516 76.094137 
L 191.235056 84.310062 
L 209.84722 98.249257 
L 223.05276 116.609717 
L 233.295773 109.66775 
" clip-path="url(#p8e69536c9f)" style="fill: none; stroke: #b2b2b2; stroke-width: 0.8; stroke-linecap: square"/>
   </g>
   <g id="line2d_98">
    <path d="M 53.721227 72.94159 
L 72.333391 66.137987 
L 85.538931 65.07934 
L 95.781944 61.657611 
L 104.151095 55.73924 
L 117.356635 53.69972 
L 127.599648 48.630815 
L 132.390111 50.02235 
L 146.211812 55.456811 
L 159.417352 66.558457 
L 171.460723 59.415078 
L 178.029516 69.41491 
L 191.235056 79.794307 
L 209.84722 95.276935 
L 223.05276 99.202591 
L 233.295773 106.221723 
" clip-path="url(#p8e69536c9f)" style="fill: none; stroke: #b2b2b2; stroke-width: 0.8; stroke-linecap: square"/>
   </g>
   <g id="line2d_99">
    <path d="M 53.721227 60.730688 
L 72.333391 56.145313 
L 85.538931 46.263584 
L 95.781944 50.552136 
L 104.151095 49.687932 
L 117.356635 49.040435 
L 127.599648 45.075002 
L 132.390111 50.02235 
L 146.211812 53.418961 
L 159.417352 52.83091 
L 171.460723 61.813547 
L 178.029516 71.629073 
L 191.235056 83.52424 
L 209.84722 87.927954 
L 223.05276 92.25877 
L 233.295773 104.432295 
" clip-path="url(#p8e69536c9f)" style="fill: none; stroke: #b2b2b2; stroke-width: 0.8; stroke-linecap: square"/>
   </g>
   <g id="line2d_100">
    <path d="M 53.721227 44.485736 
L 72.333391 30.662785 
L 85.538931 33.354817 
L 95.781944 44.910692 
L 104.151095 52.84726 
L 117.356635 51.2178 
L 127.599648 49.929671 
L 132.390111 50.02235 
L 146.211812 56.019365 
L 159.417352 61.969919 
L 171.460723 65.762987 
L 178.029516 63.817574 
L 191.235056 69.476676 
L 209.84722 92.074091 
L 223.05276 109.353153 
L 233.295773 116.526977 
" clip-path="url(#p8e69536c9f)" style="fill: none; stroke: #b2b2b2; stroke-width: 0.8; stroke-linecap: square"/>
   </g>
   <g id="line2d_101">
    <path d="M 53.721227 57.120472 
L 72.333391 50.966516 
L 85.538931 51.017892 
L 95.781944 48.265982 
L 104.151095 49.846982 
L 117.356635 49.038004 
L 127.599648 50.846093 
L 132.390111 50.02235 
L 146.211812 49.448092 
L 159.417352 43.480512 
L 171.460723 55.272372 
L 178.029516 60.635515 
L 191.235056 66.707946 
L 209.84722 74.538452 
L 223.05276 88.094717 
L 233.295773 106.111524 
" clip-path="url(#p8e69536c9f)" style="fill: none; stroke: #b2b2b2; stroke-width: 0.8; stroke-linecap: square"/>
   </g>
   <g id="line2d_102">
    <path d="M 53.721227 40.575043 
L 72.333391 37.843552 
L 85.538931 46.670773 
L 95.781944 45.699709 
L 104.151095 50.289945 
L 117.356635 44.357299 
L 127.599648 49.340083 
L 132.390111 50.02235 
L 146.211812 53.372397 
L 159.417352 66.206646 
L 171.460723 69.170289 
L 178.029516 77.495573 
L 191.235056 92.452345 
L 209.84722 99.12555 
L 223.05276 102.856496 
L 233.295773 113.140921 
" clip-path="url(#p8e69536c9f)" style="fill: none; stroke: #b2b2b2; stroke-width: 0.8; stroke-linecap: square"/>
   </g>
   <g id="line2d_103">
    <path d="M 53.721227 56.110213 
L 72.333391 50.652059 
L 85.538931 46.221636 
L 95.781944 43.082936 
L 104.151095 46.820977 
L 117.356635 42.238628 
L 127.599648 45.642557 
L 132.390111 50.02235 
L 146.211812 52.907506 
L 159.417352 49.318964 
L 171.460723 61.806401 
L 178.029516 62.764919 
L 191.235056 66.795199 
L 209.84722 66.752201 
L 223.05276 66.319255 
L 233.295773 85.074744 
" clip-path="url(#p8e69536c9f)" style="fill: none; stroke: #b2b2b2; stroke-width: 0.8; stroke-linecap: square"/>
   </g>
   <g id="line2d_104">
    <path d="M 53.721227 42.682046 
L 72.333391 36.828873 
L 85.538931 28.118535 
L 95.781944 19.992684 
L 104.151095 29.046332 
L 117.356635 38.65776 
L 127.599648 45.281587 
L 132.390111 50.02235 
L 146.211812 53.082824 
L 159.417352 60.7135 
L 171.460723 57.828601 
L 178.029516 55.272233 
L 191.235056 60.463983 
L 209.84722 68.110849 
L 223.05276 83.969584 
L 233.295773 90.500357 
" clip-path="url(#p8e69536c9f)" style="fill: none; stroke: #b2b2b2; stroke-width: 0.8; stroke-linecap: square"/>
   </g>
   <g id="line2d_105">
    <path d="M 53.721227 70.145782 
L 72.333391 68.775846 
L 85.538931 60.909217 
L 95.781944 54.847567 
L 104.151095 57.971796 
L 117.356635 51.153352 
L 127.599648 46.320485 
L 132.390111 50.02235 
L 146.211812 56.623114 
L 159.417352 54.987893 
L 171.460723 55.970508 
L 178.029516 56.454547 
L 191.235056 73.505991 
L 209.84722 93.19432 
L 223.05276 112.287272 
L 233.295773 123.494557 
" clip-path="url(#p8e69536c9f)" style="fill: none; stroke: #b2b2b2; stroke-width: 0.8; stroke-linecap: square"/>
   </g>
   <g id="line2d_106">
    <path d="M 53.721227 62.933634 
L 72.333391 62.162743 
L 85.538931 50.782156 
L 95.781944 46.825348 
L 104.151095 44.44132 
L 117.356635 50.26753 
L 127.599648 50.483234 
L 132.390111 50.02235 
L 146.211812 61.300509 
L 159.417352 65.3241 
L 171.460723 78.536029 
L 178.029516 81.671619 
L 191.235056 85.710975 
L 209.84722 98.50023 
L 223.05276 109.912452 
L 233.295773 112.884236 
" clip-path="url(#p8e69536c9f)" style="fill: none; stroke: #b2b2b2; stroke-width: 0.8; stroke-linecap: square"/>
   </g>
   <g id="line2d_107">
    <path d="M 53.721227 61.833074 
L 72.333391 56.518979 
L 85.538931 51.755698 
L 95.781944 50.671988 
L 104.151095 55.155081 
L 117.356635 49.556129 
L 127.599648 51.54545 
L 132.390111 50.02235 
L 146.211812 55.107388 
L 159.417352 64.024838 
L 171.460723 63.144564 
L 178.029516 71.703633 
L 191.235056 68.088504 
L 209.84722 83.096319 
L 223.05276 94.911016 
L 233.295773 96.013267 
" clip-path="url(#p8e69536c9f)" style="fill: none; stroke: #b2b2b2; stroke-width: 0.8; stroke-linecap: square"/>
   </g>
   <g id="line2d_108">
    <path d="M 53.721227 53.637032 
L 72.333391 46.558087 
L 85.538931 40.900192 
L 95.781944 44.285 
L 104.151095 42.29713 
L 117.356635 42.9247 
L 127.599648 45.487741 
L 132.390111 50.02235 
L 146.211812 53.851857 
L 159.417352 61.183448 
L 171.460723 67.13539 
L 178.029516 64.965184 
L 191.235056 73.764041 
L 209.84722 85.43073 
L 223.05276 96.773718 
L 233.295773 97.883697 
" clip-path="url(#p8e69536c9f)" style="fill: none; stroke: #b2b2b2; stroke-width: 0.8; stroke-linecap: square"/>
   </g>
   <g id="line2d_109">
    <path d="M 53.721227 66.387701 
L 72.333391 60.14484 
L 85.538931 54.001186 
L 95.781944 54.51969 
L 104.151095 49.128708 
L 117.356635 48.632192 
L 127.599648 44.591089 
L 132.390111 50.02235 
L 146.211812 58.638815 
L 159.417352 70.528514 
L 171.460723 78.149453 
L 178.029516 75.92954 
L 191.235056 74.930719 
L 209.84722 86.082453 
L 223.05276 94.835408 
L 233.295773 96.819792 
" clip-path="url(#p8e69536c9f)" style="fill: none; stroke: #b2b2b2; stroke-width: 0.8; stroke-linecap: square"/>
   </g>
   <g id="line2d_110">
    <path d="M 53.721227 55.384304 
L 72.333391 54.704217 
L 85.538931 44.448316 
L 95.781944 48.265044 
L 104.151095 49.122103 
L 117.356635 51.617317 
L 127.599648 49.102625 
L 132.390111 50.02235 
L 146.211812 51.109197 
L 159.417352 60.860766 
L 171.460723 75.935966 
L 178.029516 75.985712 
L 191.235056 90.8537 
L 209.84722 103.222912 
L 223.05276 111.626479 
L 233.295773 120.386403 
" clip-path="url(#p8e69536c9f)" style="fill: none; stroke: #b2b2b2; stroke-width: 0.8; stroke-linecap: square"/>
   </g>
   <g id="line2d_111">
    <path d="M 53.721227 60.281058 
L 72.333391 58.135913 
L 85.538931 67.257073 
L 95.781944 68.10899 
L 104.151095 63.196103 
L 117.356635 56.253699 
L 127.599648 53.81671 
L 132.390111 50.02235 
L 146.211812 53.131185 
L 159.417352 54.528044 
L 171.460723 62.586261 
L 178.029516 70.649505 
L 191.235056 77.909674 
L 209.84722 91.983063 
L 223.05276 88.131488 
L 233.295773 93.319309 
" clip-path="url(#p8e69536c9f)" style="fill: none; stroke: #b2b2b2; stroke-width: 0.8; stroke-linecap: square"/>
   </g>
   <g id="line2d_112">
    <path d="M 53.721227 41.571195 
L 72.333391 36.374241 
L 85.538931 40.102015 
L 95.781944 42.475061 
L 104.151095 38.509517 
L 117.356635 43.800421 
L 127.599648 51.260961 
L 132.390111 50.02235 
L 146.211812 50.724665 
L 159.417352 51.076362 
L 171.460723 59.902779 
L 178.029516 65.428877 
L 191.235056 77.484149 
L 209.84722 97.318455 
L 223.05276 109.470203 
L 233.295773 119.420723 
" clip-path="url(#p8e69536c9f)" style="fill: none; stroke: #b2b2b2; stroke-width: 0.8; stroke-linecap: square"/>
   </g>
   <g id="line2d_113">
    <path d="M 53.721227 50.385161 
L 72.333391 47.679812 
L 85.538931 35.92871 
L 95.781944 33.474202 
L 104.151095 35.027723 
L 117.356635 36.242018 
L 127.599648 50.244311 
L 132.390111 50.02235 
L 146.211812 61.453138 
L 159.417352 78.284158 
L 171.460723 86.322779 
L 178.029516 89.703757 
L 191.235056 91.087928 
L 209.84722 114.04552 
L 223.05276 118.388398 
L 233.295773 128.610276 
" clip-path="url(#p8e69536c9f)" style="fill: none; stroke: #b2b2b2; stroke-width: 0.8; stroke-linecap: square"/>
   </g>
   <g id="line2d_114">
    <path d="M 53.721227 45.462657 
L 72.333391 59.018601 
L 85.538931 55.864226 
L 95.781944 53.081484 
L 104.151095 59.509829 
L 117.356635 52.766281 
L 127.599648 47.720301 
L 132.390111 50.02235 
L 146.211812 55.892013 
L 159.417352 53.262435 
L 171.460723 50.582172 
L 178.029516 54.141813 
L 191.235056 63.956671 
L 209.84722 78.946755 
L 223.05276 88.030474 
L 233.295773 96.3892 
" clip-path="url(#p8e69536c9f)" style="fill: none; stroke: #b2b2b2; stroke-width: 0.8; stroke-linecap: square"/>
   </g>
   <g id="line2d_115">
    <path d="M 53.721227 66.86585 
L 72.333391 59.409653 
L 85.538931 60.991383 
L 95.781944 51.567967 
L 104.151095 55.720364 
L 117.356635 56.645989 
L 127.599648 46.663068 
L 132.390111 50.02235 
L 146.211812 58.970199 
L 159.417352 59.848718 
L 171.460723 63.97682 
L 178.029516 74.47255 
L 191.235056 78.853731 
L 209.84722 83.094557 
L 223.05276 86.565433 
L 233.295773 84.969832 
" clip-path="url(#p8e69536c9f)" style="fill: none; stroke: #b2b2b2; stroke-width: 0.8; stroke-linecap: square"/>
   </g>
   <g id="line2d_116">
    <path d="M 53.721227 52.882449 
L 72.333391 57.577345 
L 85.538931 54.18409 
L 95.781944 48.387867 
L 104.151095 45.031733 
L 117.356635 43.737549 
L 127.599648 45.254637 
L 132.390111 50.02235 
L 146.211812 58.719551 
L 159.417352 61.68205 
L 171.460723 68.218711 
L 178.029516 73.952874 
L 191.235056 78.005335 
L 209.84722 80.788088 
L 223.05276 91.858169 
L 233.295773 95.87098 
" clip-path="url(#p8e69536c9f)" style="fill: none; stroke: #b2b2b2; stroke-width: 0.8; stroke-linecap: square"/>
   </g>
   <g id="line2d_117">
    <path d="M 53.721227 64.815908 
L 72.333391 57.189852 
L 85.538931 55.656884 
L 95.781944 56.286704 
L 104.151095 51.779444 
L 117.356635 45.976829 
L 127.599648 47.343741 
L 132.390111 50.02235 
L 146.211812 54.664722 
L 159.417352 47.063846 
L 171.460723 52.777231 
L 178.029516 56.572384 
L 191.235056 61.420698 
L 209.84722 67.344435 
L 223.05276 83.89126 
L 233.295773 87.978847 
" clip-path="url(#p8e69536c9f)" style="fill: none; stroke: #b2b2b2; stroke-width: 0.8; stroke-linecap: square"/>
   </g>
   <g id="line2d_118">
    <path d="M 53.721227 62.158717 
L 72.333391 58.622632 
L 85.538931 57.369706 
L 95.781944 54.28027 
L 104.151095 56.097338 
L 117.356635 50.832366 
L 127.599648 48.703859 
L 132.390111 50.02235 
L 146.211812 42.740859 
L 159.417352 58.163163 
L 171.460723 62.629838 
L 178.029516 64.31535 
L 191.235056 72.835564 
L 209.84722 84.497971 
L 223.05276 104.223707 
L 233.295773 108.644293 
" clip-path="url(#p8e69536c9f)" style="fill: none; stroke: #b2b2b2; stroke-width: 0.8; stroke-linecap: square"/>
   </g>
   <g id="line2d_119">
    <path d="M 53.721227 60.326698 
L 72.333391 55.192788 
L 85.538931 53.867094 
L 95.781944 52.313683 
L 104.151095 50.908376 
L 117.356635 46.1798 
L 127.599648 44.724593 
L 132.390111 50.02235 
L 146.211812 51.684281 
L 159.417352 66.501868 
L 171.460723 70.906102 
L 178.029516 74.312002 
L 191.235056 86.030578 
L 209.84722 90.398402 
L 223.05276 102.641862 
L 233.295773 106.628094 
" clip-path="url(#p8e69536c9f)" style="fill: none; stroke: #b2b2b2; stroke-width: 0.8; stroke-linecap: square"/>
   </g>
   <g id="line2d_120">
    <path d="M 53.721227 64.2615 
L 72.333391 54.564112 
L 85.538931 49.16679 
L 95.781944 55.766667 
L 104.151095 48.37861 
L 117.356635 56.294917 
L 127.599648 51.115401 
L 132.390111 50.02235 
L 146.211812 50.426807 
L 159.417352 59.262672 
L 171.460723 76.2209 
L 178.029516 78.17588 
L 191.235056 82.596014 
L 209.84722 74.192381 
L 223.05276 88.580124 
L 233.295773 94.397153 
" clip-path="url(#p8e69536c9f)" style="fill: none; stroke: #b2b2b2; stroke-width: 0.8; stroke-linecap: square"/>
   </g>
   <g id="line2d_121">
    <path d="M 53.721227 71.021472 
L 72.333391 67.261703 
L 85.538931 62.210296 
L 95.781944 62.517396 
L 104.151095 61.033569 
L 117.356635 52.062289 
L 127.599648 47.465976 
L 132.390111 50.02235 
L 146.211812 66.199869 
L 159.417352 67.112387 
L 171.460723 68.84105 
L 178.029516 76.194374 
L 191.235056 88.520075 
L 209.84722 105.459215 
L 223.05276 104.08318 
L 233.295773 119.329638 
" clip-path="url(#p8e69536c9f)" style="fill: none; stroke: #b2b2b2; stroke-width: 0.8; stroke-linecap: square"/>
   </g>
   <g id="line2d_122">
    <path d="M 53.721227 55.153082 
L 72.333391 48.981898 
L 85.538931 48.792948 
L 95.781944 50.427624 
L 104.151095 51.116705 
L 117.356635 47.517019 
L 127.599648 50.275364 
L 132.390111 50.02235 
L 146.211812 60.749945 
L 159.417352 55.48968 
L 171.460723 59.609086 
L 178.029516 61.603153 
L 191.235056 64.484616 
L 209.84722 77.212429 
L 223.05276 86.919183 
L 233.295773 94.608484 
" clip-path="url(#p8e69536c9f)" style="fill: none; stroke: #b2b2b2; stroke-width: 0.8; stroke-linecap: square"/>
   </g>
   <g id="line2d_123">
    <path d="M 53.721227 59.00416 
L 72.333391 53.116933 
L 85.538931 55.040727 
L 95.781944 50.059211 
L 104.151095 54.781269 
L 117.356635 46.712608 
L 127.599648 55.710264 
L 132.390111 50.02235 
L 146.211812 61.45213 
L 159.417352 63.792633 
L 171.460723 64.703466 
L 178.029516 64.751522 
L 191.235056 69.037489 
L 209.84722 89.687258 
L 223.05276 102.80048 
L 233.295773 114.029566 
" clip-path="url(#p8e69536c9f)" style="fill: none; stroke: #b2b2b2; stroke-width: 0.8; stroke-linecap: square"/>
   </g>
   <g id="line2d_124">
    <path d="M 53.721227 55.646253 
L 72.333391 54.051978 
L 85.538931 54.024814 
L 95.781944 50.580928 
L 104.151095 53.304363 
L 117.356635 53.746753 
L 127.599648 50.787945 
L 132.390111 50.02235 
L 146.211812 55.137574 
L 159.417352 53.914857 
L 171.460723 64.219626 
L 178.029516 67.625747 
L 191.235056 86.031023 
L 209.84722 95.893294 
L 223.05276 94.734515 
L 233.295773 105.643143 
" clip-path="url(#p8e69536c9f)" style="fill: none; stroke: #b2b2b2; stroke-width: 0.8; stroke-linecap: square"/>
   </g>
   <g id="line2d_125">
    <path d="M 53.721227 48.644811 
L 72.333391 46.036363 
L 85.538931 49.345683 
L 95.781944 46.445859 
L 104.151095 40.696609 
L 117.356635 38.750611 
L 127.599648 45.995581 
L 132.390111 50.02235 
L 146.211812 60.8317 
L 159.417352 67.801205 
L 171.460723 78.226436 
L 178.029516 76.609867 
L 191.235056 80.676235 
L 209.84722 98.653915 
L 223.05276 117.979627 
L 233.295773 122.931122 
" clip-path="url(#p8e69536c9f)" style="fill: none; stroke: #b2b2b2; stroke-width: 0.8; stroke-linecap: square"/>
   </g>
   <g id="line2d_126">
    <path d="M 53.721227 39.931312 
L 72.333391 36.088839 
L 85.538931 36.308663 
L 95.781944 35.864481 
L 104.151095 37.954209 
L 117.356635 41.960378 
L 127.599648 46.78186 
L 132.390111 50.02235 
L 146.211812 58.558268 
L 159.417352 71.852355 
L 171.460723 71.700073 
L 178.029516 82.845813 
L 191.235056 91.151238 
L 209.84722 99.167451 
L 223.05276 113.976664 
L 233.295773 132.0912 
" clip-path="url(#p8e69536c9f)" style="fill: none; stroke: #b2b2b2; stroke-width: 0.8; stroke-linecap: square"/>
   </g>
   <g id="line2d_127">
    <path d="M 53.721227 47.115261 
L 72.333391 44.031381 
L 85.538931 45.188143 
L 95.781944 41.672299 
L 104.151095 35.471401 
L 117.356635 41.193193 
L 127.599648 47.522034 
L 132.390111 50.02235 
L 146.211812 50.303863 
L 159.417352 53.342389 
L 171.460723 53.611364 
L 178.029516 61.585788 
L 191.235056 64.163132 
L 209.84722 75.797814 
L 223.05276 97.025291 
L 233.295773 111.575834 
" clip-path="url(#p8e69536c9f)" style="fill: none; stroke: #b2b2b2; stroke-width: 0.8; stroke-linecap: square"/>
   </g>
   <g id="line2d_128">
    <path d="M 53.721227 53.949576 
L 72.333391 43.419203 
L 85.538931 39.355396 
L 95.781944 36.105054 
L 104.151095 39.052511 
L 117.356635 44.900712 
L 127.599648 50.555509 
L 132.390111 50.02235 
L 146.211812 52.95849 
L 159.417352 51.962407 
L 171.460723 43.595225 
L 178.029516 44.987925 
L 191.235056 54.643402 
L 209.84722 66.307134 
L 223.05276 79.09843 
L 233.295773 89.46605 
" clip-path="url(#p8e69536c9f)" style="fill: none; stroke: #b2b2b2; stroke-width: 0.8; stroke-linecap: square"/>
   </g>
   <g id="line2d_129">
    <path d="M 53.721227 66.225124 
L 72.333391 58.098616 
L 85.538931 57.704611 
L 95.781944 56.484664 
L 104.151095 53.350307 
L 117.356635 53.031748 
L 127.599648 49.851413 
L 132.390111 50.02235 
L 146.211812 63.428212 
L 159.417352 75.310341 
L 171.460723 76.416644 
L 178.029516 71.835924 
L 191.235056 82.020455 
L 209.84722 83.637834 
L 223.05276 104.015711 
L 233.295773 115.765971 
" clip-path="url(#p8e69536c9f)" style="fill: none; stroke: #b2b2b2; stroke-width: 0.8; stroke-linecap: square"/>
   </g>
   <g id="line2d_130">
    <path d="M 53.721227 69.15195 
L 72.333391 60.614499 
L 85.538931 57.203464 
L 95.781944 58.60054 
L 104.151095 51.163679 
L 117.356635 58.294812 
L 127.599648 52.300864 
L 132.390111 50.02235 
L 146.211812 71.809651 
L 159.417352 78.691564 
L 171.460723 78.098865 
L 178.029516 83.794411 
L 191.235056 97.521277 
L 209.84722 103.138935 
L 223.05276 102.509935 
L 233.295773 109.202161 
" clip-path="url(#p8e69536c9f)" style="fill: none; stroke: #b2b2b2; stroke-width: 0.8; stroke-linecap: square"/>
   </g>
   <g id="line2d_131">
    <path d="M 53.721227 79.341682 
L 72.333391 78.172508 
L 85.538931 75.237308 
L 95.781944 76.954347 
L 104.151095 75.804842 
L 117.356635 69.721156 
L 127.599648 61.131921 
L 132.390111 50.02235 
L 146.211812 62.091708 
L 159.417352 68.498316 
L 171.460723 76.041281 
L 178.029516 80.300866 
L 191.235056 82.56722 
L 209.84722 95.831955 
L 223.05276 101.980316 
L 233.295773 115.046349 
" clip-path="url(#p8e69536c9f)" style="fill: none; stroke: #b2b2b2; stroke-width: 0.8; stroke-linecap: square"/>
   </g>
   <g id="line2d_132">
    <path d="M 53.721227 58.821384 
L 72.333391 57.259669 
L 85.538931 46.872864 
L 95.781944 47.09644 
L 104.151095 43.211324 
L 117.356635 35.606691 
L 127.599648 49.792684 
L 132.390111 50.02235 
L 146.211812 52.100649 
L 159.417352 62.514885 
L 171.460723 73.55312 
L 178.029516 75.028291 
L 191.235056 78.238172 
L 209.84722 87.906315 
L 223.05276 99.144565 
L 233.295773 106.870848 
" clip-path="url(#p8e69536c9f)" style="fill: none; stroke: #b2b2b2; stroke-width: 0.8; stroke-linecap: square"/>
   </g>
   <g id="line2d_133">
    <path d="M 53.721227 50.854081 
L 72.333391 40.09455 
L 85.538931 49.719733 
L 95.781944 45.530774 
L 104.151095 47.884457 
L 117.356635 54.195953 
L 127.599648 54.485946 
L 132.390111 50.02235 
L 146.211812 59.461338 
L 159.417352 62.932847 
L 171.460723 75.456754 
L 178.029516 79.867185 
L 191.235056 87.003032 
L 209.84722 103.887927 
L 223.05276 111.726908 
L 233.295773 125.140714 
" clip-path="url(#p8e69536c9f)" style="fill: none; stroke: #b2b2b2; stroke-width: 0.8; stroke-linecap: square"/>
   </g>
   <g id="line2d_134">
    <path d="M 53.721227 46.520783 
L 72.333391 46.532525 
L 85.538931 44.265127 
L 95.781944 39.096426 
L 104.151095 45.637315 
L 117.356635 47.331044 
L 127.599648 53.627421 
L 132.390111 50.02235 
L 146.211812 59.738868 
L 159.417352 60.05523 
L 171.460723 63.520275 
L 178.029516 61.143269 
L 191.235056 64.871556 
L 209.84722 89.551611 
L 223.05276 100.697915 
L 233.295773 103.592662 
" clip-path="url(#p8e69536c9f)" style="fill: none; stroke: #b2b2b2; stroke-width: 0.8; stroke-linecap: square"/>
   </g>
   <g id="line2d_135">
    <path d="M 53.721227 56.92843 
L 72.333391 52.607665 
L 85.538931 50.401048 
L 95.781944 49.644378 
L 104.151095 48.901641 
L 117.356635 48.97421 
L 127.599648 49.17896 
L 132.390111 50.02235 
L 146.211812 55.350569 
L 159.417352 61.104989 
L 171.460723 66.640561 
L 178.029516 70.006302 
L 191.235056 78.040216 
L 209.84722 89.07215 
L 223.05276 98.075869 
L 233.295773 106.053502 
" clip-path="url(#p8e69536c9f)" style="fill: none; stroke: #ff0000; stroke-width: 2; stroke-linecap: square"/>
   </g>
   <g id="line2d_136">
    <path d="M 53.721227 34.983684 
L 72.333391 30.352364 
L 85.538931 29.89389 
L 95.781944 30.882996 
L 104.151095 32.171847 
L 117.356635 36.746177 
L 127.599648 42.440706 
L 132.390111 50.022349 
L 146.211812 43.696871 
L 159.417352 45.265953 
L 171.460723 48.385449 
L 178.029516 50.985838 
L 191.235056 58.176195 
L 209.84722 67.981349 
L 223.05276 76.845005 
L 233.295773 84.048271 
" clip-path="url(#p8e69536c9f)" style="fill: none; stroke-dasharray: 7.4,3.2; stroke-dashoffset: 0; stroke: #ff0000; stroke-width: 2"/>
   </g>
   <g id="line2d_137">
    <path d="M 53.721227 78.873175 
L 72.333391 74.862965 
L 85.538931 70.908205 
L 95.781944 68.405759 
L 104.151095 65.631434 
L 117.356635 61.202243 
L 127.599648 55.917214 
L 132.390111 50.02235 
L 146.211812 67.004267 
L 159.417352 76.944026 
L 171.460723 84.895674 
L 178.029516 89.026766 
L 191.235056 97.904236 
L 209.84722 110.16295 
L 223.05276 119.306733 
L 233.295773 128.058732 
" clip-path="url(#p8e69536c9f)" style="fill: none; stroke-dasharray: 7.4,3.2; stroke-dashoffset: 0; stroke: #ff0000; stroke-width: 2"/>
   </g>
   <g id="line2d_138">
    <path d="M 53.721227 56.904211 
L 72.333391 52.499039 
L 85.538931 50.329951 
L 95.781944 49.45151 
L 104.151095 48.941062 
L 117.356635 48.96023 
L 127.599648 49.32951 
L 132.390111 50.02235 
L 146.211812 55.300749 
L 159.417352 61.113688 
L 171.460723 66.690927 
L 178.029516 70.10211 
L 191.235056 77.937247 
L 209.84722 88.908188 
L 223.05276 98.125573 
L 233.295773 106.066716 
" clip-path="url(#p8e69536c9f)" style="fill: none; stroke: #0000ff; stroke-width: 2; stroke-linecap: square"/>
   </g>
   <g id="line2d_139">
    <path d="M 53.721227 34.96619 
L 72.333391 30.166616 
L 85.538931 29.464632 
L 95.781944 30.764202 
L 104.151095 32.180359 
L 117.356635 36.404208 
L 127.599648 42.715447 
L 132.390111 50.02235 
L 146.211812 43.304826 
L 159.417352 44.966496 
L 171.460723 48.363745 
L 178.029516 50.989979 
L 191.235056 58.014459 
L 209.84722 67.787465 
L 223.05276 76.774058 
L 233.295773 84.095232 
" clip-path="url(#p8e69536c9f)" style="fill: none; stroke-dasharray: 7.4,3.2; stroke-dashoffset: 0; stroke: #0000ff; stroke-width: 2"/>
   </g>
   <g id="line2d_140">
    <path d="M 53.721227 78.842232 
L 72.333391 74.831461 
L 85.538931 71.195271 
L 95.781944 68.138817 
L 104.151095 65.701764 
L 117.356635 61.516252 
L 127.599648 55.943572 
L 132.390111 50.02235 
L 146.211812 67.296672 
L 159.417352 77.260879 
L 171.460723 85.01811 
L 178.029516 89.214241 
L 191.235056 97.860036 
L 209.84722 110.028911 
L 223.05276 119.477089 
L 233.295773 128.0382 
" clip-path="url(#p8e69536c9f)" style="fill: none; stroke-dasharray: 7.4,3.2; stroke-dashoffset: 0; stroke: #0000ff; stroke-width: 2"/>
   </g>
   <g id="patch_3">
    <path d="M 44.7425 138.0384 
L 44.7425 7.2 
" style="fill: none; stroke: #000000; stroke-width: 0.8; stroke-linejoin: miter; stroke-linecap: square"/>
   </g>
   <g id="patch_4">
    <path d="M 242.2745 138.0384 
L 242.2745 7.2 
" style="fill: none; stroke: #000000; stroke-width: 0.8; stroke-linejoin: miter; stroke-linecap: square"/>
   </g>
   <g id="patch_5">
    <path d="M 44.7425 138.0384 
L 242.2745 138.0384 
" style="fill: none; stroke: #000000; stroke-width: 0.8; stroke-linejoin: miter; stroke-linecap: square"/>
   </g>
   <g id="patch_6">
    <path d="M 44.7425 7.2 
L 242.2745 7.2 
" style="fill: none; stroke: #000000; stroke-width: 0.8; stroke-linejoin: miter; stroke-linecap: square"/>
   </g>
   <g id="legend_1">
    <g id="patch_7">
     <path d="M 247.8745 104.47295 
L 432.5945 104.47295 
Q 434.1945 104.47295 434.1945 102.87295 
L 434.1945 42.36545 
Q 434.1945 40.76545 432.5945 40.76545 
L 247.8745 40.76545 
Q 246.2745 40.76545 246.2745 42.36545 
L 246.2745 102.87295 
Q 246.2745 104.47295 247.8745 104.47295 
z
" style="fill: #ffffff; opacity: 0.8; stroke: #cccccc; stroke-linejoin: miter"/>
    </g>
    <g id="line2d_141">
     <path d="M 249.4745 47.2442 
L 257.4745 47.2442 
L 265.4745 47.2442 
" style="fill: none; stroke: #b2b2b2; stroke-width: 0.8; stroke-linecap: square"/>
    </g>
    <g id="text_8">
     <!-- Individual selected GMs -->
     <g transform="translate(271.8745 50.0442) scale(0.08 -0.08)">
      <defs>
       <path id="DejaVuSans-49" d="M 628 4666 
L 1259 4666 
L 1259 0 
L 628 0 
L 628 4666 
z
" transform="scale(0.015625)"/>
       <path id="DejaVuSans-76" d="M 191 3500 
L 800 3500 
L 1894 563 
L 2988 3500 
L 3597 3500 
L 2284 0 
L 1503 0 
L 191 3500 
z
" transform="scale(0.015625)"/>
       <path id="DejaVuSans-75" d="M 544 1381 
L 544 3500 
L 1119 3500 
L 1119 1403 
Q 1119 906 1312 657 
Q 1506 409 1894 409 
Q 2359 409 2629 706 
Q 2900 1003 2900 1516 
L 2900 3500 
L 3475 3500 
L 3475 0 
L 2900 0 
L 2900 538 
Q 2691 219 2414 64 
Q 2138 -91 1772 -91 
Q 1169 -91 856 284 
Q 544 659 544 1381 
z
M 1991 3584 
L 1991 3584 
z
" transform="scale(0.015625)"/>
       <path id="DejaVuSans-47" d="M 3809 666 
L 3809 1919 
L 2778 1919 
L 2778 2438 
L 4434 2438 
L 4434 434 
Q 4069 175 3628 42 
Q 3188 -91 2688 -91 
Q 1594 -91 976 548 
Q 359 1188 359 2328 
Q 359 3472 976 4111 
Q 1594 4750 2688 4750 
Q 3144 4750 3555 4637 
Q 3966 4525 4313 4306 
L 4313 3634 
Q 3963 3931 3569 4081 
Q 3175 4231 2741 4231 
Q 1884 4231 1454 3753 
Q 1025 3275 1025 2328 
Q 1025 1384 1454 906 
Q 1884 428 2741 428 
Q 3075 428 3337 486 
Q 3600 544 3809 666 
z
" transform="scale(0.015625)"/>
       <path id="DejaVuSans-4d" d="M 628 4666 
L 1569 4666 
L 2759 1491 
L 3956 4666 
L 4897 4666 
L 4897 0 
L 4281 0 
L 4281 4097 
L 3078 897 
L 2444 897 
L 1241 4097 
L 1241 0 
L 628 0 
L 628 4666 
z
" transform="scale(0.015625)"/>
      </defs>
      <use xlink:href="#DejaVuSans-49"/>
      <use xlink:href="#DejaVuSans-6e" x="29.492188"/>
      <use xlink:href="#DejaVuSans-64" x="92.871094"/>
      <use xlink:href="#DejaVuSans-69" x="156.347656"/>
      <use xlink:href="#DejaVuSans-76" x="184.130859"/>
      <use xlink:href="#DejaVuSans-69" x="243.310547"/>
      <use xlink:href="#DejaVuSans-64" x="271.09375"/>
      <use xlink:href="#DejaVuSans-75" x="334.570312"/>
      <use xlink:href="#DejaVuSans-61" x="397.949219"/>
      <use xlink:href="#DejaVuSans-6c" x="459.228516"/>
      <use xlink:href="#DejaVuSans-20" x="487.011719"/>
      <use xlink:href="#DejaVuSans-73" x="518.798828"/>
      <use xlink:href="#DejaVuSans-65" x="570.898438"/>
      <use xlink:href="#DejaVuSans-6c" x="632.421875"/>
      <use xlink:href="#DejaVuSans-65" x="660.205078"/>
      <use xlink:href="#DejaVuSans-63" x="721.728516"/>
      <use xlink:href="#DejaVuSans-74" x="776.708984"/>
      <use xlink:href="#DejaVuSans-65" x="815.917969"/>
      <use xlink:href="#DejaVuSans-64" x="877.441406"/>
      <use xlink:href="#DejaVuSans-20" x="940.917969"/>
      <use xlink:href="#DejaVuSans-47" x="972.705078"/>
      <use xlink:href="#DejaVuSans-4d" x="1050.195312"/>
      <use xlink:href="#DejaVuSans-73" x="1136.474609"/>
     </g>
    </g>
    <g id="line2d_142">
     <path d="M 249.4745 58.9867 
L 257.4745 58.9867 
L 265.4745 58.9867 
" style="fill: none; stroke: #ff0000; stroke-width: 2; stroke-linecap: square"/>
    </g>
    <g id="text_9">
     <!-- GCIM median -->
     <g transform="translate(271.8745 61.7867) scale(0.08 -0.08)">
      <defs>
       <path id="DejaVuSans-43" d="M 4122 4306 
L 4122 3641 
Q 3803 3938 3442 4084 
Q 3081 4231 2675 4231 
Q 1875 4231 1450 3742 
Q 1025 3253 1025 2328 
Q 1025 1406 1450 917 
Q 1875 428 2675 428 
Q 3081 428 3442 575 
Q 3803 722 4122 1019 
L 4122 359 
Q 3791 134 3420 21 
Q 3050 -91 2638 -91 
Q 1578 -91 968 557 
Q 359 1206 359 2328 
Q 359 3453 968 4101 
Q 1578 4750 2638 4750 
Q 3056 4750 3426 4639 
Q 3797 4528 4122 4306 
z
" transform="scale(0.015625)"/>
       <path id="DejaVuSans-6d" d="M 3328 2828 
Q 3544 3216 3844 3400 
Q 4144 3584 4550 3584 
Q 5097 3584 5394 3201 
Q 5691 2819 5691 2113 
L 5691 0 
L 5113 0 
L 5113 2094 
Q 5113 2597 4934 2840 
Q 4756 3084 4391 3084 
Q 3944 3084 3684 2787 
Q 3425 2491 3425 1978 
L 3425 0 
L 2847 0 
L 2847 2094 
Q 2847 2600 2669 2842 
Q 2491 3084 2119 3084 
Q 1678 3084 1418 2786 
Q 1159 2488 1159 1978 
L 1159 0 
L 581 0 
L 581 3500 
L 1159 3500 
L 1159 2956 
Q 1356 3278 1631 3431 
Q 1906 3584 2284 3584 
Q 2666 3584 2933 3390 
Q 3200 3197 3328 2828 
z
" transform="scale(0.015625)"/>
      </defs>
      <use xlink:href="#DejaVuSans-47"/>
      <use xlink:href="#DejaVuSans-43" x="77.490234"/>
      <use xlink:href="#DejaVuSans-49" x="147.314453"/>
      <use xlink:href="#DejaVuSans-4d" x="176.806641"/>
      <use xlink:href="#DejaVuSans-20" x="263.085938"/>
      <use xlink:href="#DejaVuSans-6d" x="294.873047"/>
      <use xlink:href="#DejaVuSans-65" x="392.285156"/>
      <use xlink:href="#DejaVuSans-64" x="453.808594"/>
      <use xlink:href="#DejaVuSans-69" x="517.285156"/>
      <use xlink:href="#DejaVuSans-61" x="545.068359"/>
      <use xlink:href="#DejaVuSans-6e" x="606.347656"/>
     </g>
    </g>
    <g id="line2d_143">
     <path d="M 249.4745 72.01045 
L 257.4745 72.01045 
L 265.4745 72.01045 
" style="fill: none; stroke-dasharray: 7.4,3.2; stroke-dashoffset: 0; stroke: #ff0000; stroke-width: 2"/>
    </g>
    <g id="text_10">
     <!-- GCIM $16^{th}$ and $84^{th}$ percentiles -->
     <g transform="translate(271.8745 74.81045) scale(0.08 -0.08)">
      <defs>
       <path id="DejaVuSans-36" d="M 2113 2584 
Q 1688 2584 1439 2293 
Q 1191 2003 1191 1497 
Q 1191 994 1439 701 
Q 1688 409 2113 409 
Q 2538 409 2786 701 
Q 3034 994 3034 1497 
Q 3034 2003 2786 2293 
Q 2538 2584 2113 2584 
z
M 3366 4563 
L 3366 3988 
Q 3128 4100 2886 4159 
Q 2644 4219 2406 4219 
Q 1781 4219 1451 3797 
Q 1122 3375 1075 2522 
Q 1259 2794 1537 2939 
Q 1816 3084 2150 3084 
Q 2853 3084 3261 2657 
Q 3669 2231 3669 1497 
Q 3669 778 3244 343 
Q 2819 -91 2113 -91 
Q 1303 -91 875 529 
Q 447 1150 447 2328 
Q 447 3434 972 4092 
Q 1497 4750 2381 4750 
Q 2619 4750 2861 4703 
Q 3103 4656 3366 4563 
z
" transform="scale(0.015625)"/>
       <path id="DejaVuSans-Oblique-74" d="M 2706 3500 
L 2619 3053 
L 1472 3053 
L 1100 1153 
Q 1081 1047 1072 975 
Q 1063 903 1063 863 
Q 1063 663 1183 572 
Q 1303 481 1569 481 
L 2150 481 
L 2053 0 
L 1503 0 
Q 991 0 739 200 
Q 488 400 488 806 
Q 488 878 497 964 
Q 506 1050 525 1153 
L 897 3053 
L 409 3053 
L 500 3500 
L 978 3500 
L 1172 4494 
L 1747 4494 
L 1556 3500 
L 2706 3500 
z
" transform="scale(0.015625)"/>
       <path id="DejaVuSans-Oblique-68" d="M 3566 2113 
L 3156 0 
L 2578 0 
L 2988 2091 
Q 3016 2238 3031 2350 
Q 3047 2463 3047 2528 
Q 3047 2791 2881 2937 
Q 2716 3084 2419 3084 
Q 1956 3084 1617 2771 
Q 1278 2459 1178 1941 
L 800 0 
L 225 0 
L 1172 4863 
L 1747 4863 
L 1375 2950 
Q 1594 3244 1934 3414 
Q 2275 3584 2650 3584 
Q 3113 3584 3367 3334 
Q 3622 3084 3622 2631 
Q 3622 2519 3608 2391 
Q 3594 2263 3566 2113 
z
" transform="scale(0.015625)"/>
       <path id="DejaVuSans-38" d="M 2034 2216 
Q 1584 2216 1326 1975 
Q 1069 1734 1069 1313 
Q 1069 891 1326 650 
Q 1584 409 2034 409 
Q 2484 409 2743 651 
Q 3003 894 3003 1313 
Q 3003 1734 2745 1975 
Q 2488 2216 2034 2216 
z
M 1403 2484 
Q 997 2584 770 2862 
Q 544 3141 544 3541 
Q 544 4100 942 4425 
Q 1341 4750 2034 4750 
Q 2731 4750 3128 4425 
Q 3525 4100 3525 3541 
Q 3525 3141 3298 2862 
Q 3072 2584 2669 2484 
Q 3125 2378 3379 2068 
Q 3634 1759 3634 1313 
Q 3634 634 3220 271 
Q 2806 -91 2034 -91 
Q 1263 -91 848 271 
Q 434 634 434 1313 
Q 434 1759 690 2068 
Q 947 2378 1403 2484 
z
M 1172 3481 
Q 1172 3119 1398 2916 
Q 1625 2713 2034 2713 
Q 2441 2713 2670 2916 
Q 2900 3119 2900 3481 
Q 2900 3844 2670 4047 
Q 2441 4250 2034 4250 
Q 1625 4250 1398 4047 
Q 1172 3844 1172 3481 
z
" transform="scale(0.015625)"/>
       <path id="DejaVuSans-34" d="M 2419 4116 
L 825 1625 
L 2419 1625 
L 2419 4116 
z
M 2253 4666 
L 3047 4666 
L 3047 1625 
L 3713 1625 
L 3713 1100 
L 3047 1100 
L 3047 0 
L 2419 0 
L 2419 1100 
L 313 1100 
L 313 1709 
L 2253 4666 
z
" transform="scale(0.015625)"/>
      </defs>
      <use xlink:href="#DejaVuSans-47" transform="translate(0 0.529687)"/>
      <use xlink:href="#DejaVuSans-43" transform="translate(77.490234 0.529687)"/>
      <use xlink:href="#DejaVuSans-49" transform="translate(147.314453 0.529687)"/>
      <use xlink:href="#DejaVuSans-4d" transform="translate(176.806641 0.529687)"/>
      <use xlink:href="#DejaVuSans-20" transform="translate(263.085938 0.529687)"/>
      <use xlink:href="#DejaVuSans-31" transform="translate(294.873047 0.529687)"/>
      <use xlink:href="#DejaVuSans-36" transform="translate(358.496094 0.529687)"/>
      <use xlink:href="#DejaVuSans-Oblique-74" transform="translate(423.076172 38.810937) scale(0.7)"/>
      <use xlink:href="#DejaVuSans-Oblique-68" transform="translate(450.522461 38.810937) scale(0.7)"/>
      <use xlink:href="#DejaVuSans-20" transform="translate(497.62207 0.529687)"/>
      <use xlink:href="#DejaVuSans-61" transform="translate(529.40918 0.529687)"/>
      <use xlink:href="#DejaVuSans-6e" transform="translate(590.688477 0.529687)"/>
      <use xlink:href="#DejaVuSans-64" transform="translate(654.067383 0.529687)"/>
      <use xlink:href="#DejaVuSans-20" transform="translate(717.543945 0.529687)"/>
      <use xlink:href="#DejaVuSans-38" transform="translate(749.331055 0.529687)"/>
      <use xlink:href="#DejaVuSans-34" transform="translate(812.954102 0.529687)"/>
      <use xlink:href="#DejaVuSans-Oblique-74" transform="translate(877.53418 38.810937) scale(0.7)"/>
      <use xlink:href="#DejaVuSans-Oblique-68" transform="translate(904.980469 38.810937) scale(0.7)"/>
      <use xlink:href="#DejaVuSans-20" transform="translate(952.080078 0.529687)"/>
      <use xlink:href="#DejaVuSans-70" transform="translate(983.867188 0.529687)"/>
      <use xlink:href="#DejaVuSans-65" transform="translate(1047.34375 0.529687)"/>
      <use xlink:href="#DejaVuSans-72" transform="translate(1108.867188 0.529687)"/>
      <use xlink:href="#DejaVuSans-63" transform="translate(1149.980469 0.529687)"/>
      <use xlink:href="#DejaVuSans-65" transform="translate(1204.960938 0.529687)"/>
      <use xlink:href="#DejaVuSans-6e" transform="translate(1266.484375 0.529687)"/>
      <use xlink:href="#DejaVuSans-74" transform="translate(1329.863281 0.529687)"/>
      <use xlink:href="#DejaVuSans-69" transform="translate(1369.072266 0.529687)"/>
      <use xlink:href="#DejaVuSans-6c" transform="translate(1396.855469 0.529687)"/>
      <use xlink:href="#DejaVuSans-65" transform="translate(1424.638672 0.529687)"/>
      <use xlink:href="#DejaVuSans-73" transform="translate(1486.162109 0.529687)"/>
     </g>
    </g>
    <g id="line2d_144">
     <path d="M 249.4745 83.7692 
L 257.4745 83.7692 
L 265.4745 83.7692 
" style="fill: none; stroke: #0000ff; stroke-width: 2; stroke-linecap: square"/>
    </g>
    <g id="text_11">
     <!-- Selected GMs median -->
     <g transform="translate(271.8745 86.5692) scale(0.08 -0.08)">
      <use xlink:href="#DejaVuSans-53"/>
      <use xlink:href="#DejaVuSans-65" x="63.476562"/>
      <use xlink:href="#DejaVuSans-6c" x="125"/>
      <use xlink:href="#DejaVuSans-65" x="152.783203"/>
      <use xlink:href="#DejaVuSans-63" x="214.306641"/>
      <use xlink:href="#DejaVuSans-74" x="269.287109"/>
      <use xlink:href="#DejaVuSans-65" x="308.496094"/>
      <use xlink:href="#DejaVuSans-64" x="370.019531"/>
      <use xlink:href="#DejaVuSans-20" x="433.496094"/>
      <use xlink:href="#DejaVuSans-47" x="465.283203"/>
      <use xlink:href="#DejaVuSans-4d" x="542.773438"/>
      <use xlink:href="#DejaVuSans-73" x="629.052734"/>
      <use xlink:href="#DejaVuSans-20" x="681.152344"/>
      <use xlink:href="#DejaVuSans-6d" x="712.939453"/>
      <use xlink:href="#DejaVuSans-65" x="810.351562"/>
      <use xlink:href="#DejaVuSans-64" x="871.875"/>
      <use xlink:href="#DejaVuSans-69" x="935.351562"/>
      <use xlink:href="#DejaVuSans-61" x="963.134766"/>
      <use xlink:href="#DejaVuSans-6e" x="1024.414062"/>
     </g>
    </g>
    <g id="line2d_145">
     <path d="M 249.4745 96.79295 
L 257.4745 96.79295 
L 265.4745 96.79295 
" style="fill: none; stroke-dasharray: 7.4,3.2; stroke-dashoffset: 0; stroke: #0000ff; stroke-width: 2"/>
    </g>
    <g id="text_12">
     <!-- Selected GMs, $16^{th}$ and $84^{th}$ percentiles -->
     <g transform="translate(271.8745 99.59295) scale(0.08 -0.08)">
      <use xlink:href="#DejaVuSans-53" transform="translate(0 0.529687)"/>
      <use xlink:href="#DejaVuSans-65" transform="translate(63.476562 0.529687)"/>
      <use xlink:href="#DejaVuSans-6c" transform="translate(125 0.529687)"/>
      <use xlink:href="#DejaVuSans-65" transform="translate(152.783203 0.529687)"/>
      <use xlink:href="#DejaVuSans-63" transform="translate(214.306641 0.529687)"/>
      <use xlink:href="#DejaVuSans-74" transform="translate(269.287109 0.529687)"/>
      <use xlink:href="#DejaVuSans-65" transform="translate(308.496094 0.529687)"/>
      <use xlink:href="#DejaVuSans-64" transform="translate(370.019531 0.529687)"/>
      <use xlink:href="#DejaVuSans-20" transform="translate(433.496094 0.529687)"/>
      <use xlink:href="#DejaVuSans-47" transform="translate(465.283203 0.529687)"/>
      <use xlink:href="#DejaVuSans-4d" transform="translate(542.773438 0.529687)"/>
      <use xlink:href="#DejaVuSans-73" transform="translate(629.052734 0.529687)"/>
      <use xlink:href="#DejaVuSans-2c" transform="translate(681.152344 0.529687)"/>
      <use xlink:href="#DejaVuSans-20" transform="translate(712.939453 0.529687)"/>
      <use xlink:href="#DejaVuSans-31" transform="translate(744.726562 0.529687)"/>
      <use xlink:href="#DejaVuSans-36" transform="translate(808.349609 0.529687)"/>
      <use xlink:href="#DejaVuSans-Oblique-74" transform="translate(872.929688 38.810937) scale(0.7)"/>
      <use xlink:href="#DejaVuSans-Oblique-68" transform="translate(900.375977 38.810937) scale(0.7)"/>
      <use xlink:href="#DejaVuSans-20" transform="translate(947.475586 0.529687)"/>
      <use xlink:href="#DejaVuSans-61" transform="translate(979.262695 0.529687)"/>
      <use xlink:href="#DejaVuSans-6e" transform="translate(1040.541992 0.529687)"/>
      <use xlink:href="#DejaVuSans-64" transform="translate(1103.920898 0.529687)"/>
      <use xlink:href="#DejaVuSans-20" transform="translate(1167.397461 0.529687)"/>
      <use xlink:href="#DejaVuSans-38" transform="translate(1199.18457 0.529687)"/>
      <use xlink:href="#DejaVuSans-34" transform="translate(1262.807617 0.529687)"/>
      <use xlink:href="#DejaVuSans-Oblique-74" transform="translate(1327.387695 38.810937) scale(0.7)"/>
      <use xlink:href="#DejaVuSans-Oblique-68" transform="translate(1354.833984 38.810937) scale(0.7)"/>
      <use xlink:href="#DejaVuSans-20" transform="translate(1401.933594 0.529687)"/>
      <use xlink:href="#DejaVuSans-70" transform="translate(1433.720703 0.529687)"/>
      <use xlink:href="#DejaVuSans-65" transform="translate(1497.197266 0.529687)"/>
      <use xlink:href="#DejaVuSans-72" transform="translate(1558.720703 0.529687)"/>
      <use xlink:href="#DejaVuSans-63" transform="translate(1599.833984 0.529687)"/>
      <use xlink:href="#DejaVuSans-65" transform="translate(1654.814453 0.529687)"/>
      <use xlink:href="#DejaVuSans-6e" transform="translate(1716.337891 0.529687)"/>
      <use xlink:href="#DejaVuSans-74" transform="translate(1779.716797 0.529687)"/>
      <use xlink:href="#DejaVuSans-69" transform="translate(1818.925781 0.529687)"/>
      <use xlink:href="#DejaVuSans-6c" transform="translate(1846.708984 0.529687)"/>
      <use xlink:href="#DejaVuSans-65" transform="translate(1874.492188 0.529687)"/>
      <use xlink:href="#DejaVuSans-73" transform="translate(1936.015625 0.529687)"/>
     </g>
    </g>
   </g>
  </g>
 </g>
 <defs>
  <clipPath id="p8e69536c9f">
   <rect x="44.7425" y="7.2" width="197.532" height="130.8384"/>
  </clipPath>
 </defs>
</svg>
