<?xml version="1.0" encoding="utf-8" standalone="no"?>
<!DOCTYPE svg PUBLIC "-//W3C//DTD SVG 1.1//EN"
  "http://www.w3.org/Graphics/SVG/1.1/DTD/svg11.dtd">
<svg xmlns:xlink="http://www.w3.org/1999/xlink" width="441.3945pt" height="173.987913pt" viewBox="0 0 441.3945 173.987913" xmlns="http://www.w3.org/2000/svg" version="1.1">
 <metadata>
  <rdf:RDF xmlns:dc="http://purl.org/dc/elements/1.1/" xmlns:cc="http://creativecommons.org/ns#" xmlns:rdf="http://www.w3.org/1999/02/22-rdf-syntax-ns#">
   <cc:Work>
    <dc:type rdf:resource="http://purl.org/dc/dcmitype/StillImage"/>
    <dc:date>2024-10-31T11:52:18.816405</dc:date>
    <dc:format>image/svg+xml</dc:format>
    <dc:creator>
     <cc:Agent>
      <dc:title>Matplotlib v3.8.2, https://matplotlib.org/</dc:title>
     </cc:Agent>
    </dc:creator>
   </cc:Work>
  </rdf:RDF>
 </metadata>
 <defs>
  <style type="text/css">*{stroke-linejoin: round; stroke-linecap: butt}</style>
 </defs>
 <g id="figure_1">
  <g id="patch_1">
   <path d="M 0 173.987913 
L 441.3945 173.987913 
L 441.3945 0 
L 0 0 
z
" style="fill: #ffffff"/>
  </g>
  <g id="axes_1">
   <g id="patch_2">
    <path d="M 44.7425 140.302913 
L 242.2745 140.302913 
L 242.2745 9.464513 
L 44.7425 9.464513 
z
" style="fill: #ffffff"/>
   </g>
   <g id="matplotlib.axis_1">
    <g id="xtick_1">
     <g id="line2d_1">
      <path d="M 53.721227 140.302913 
L 53.721227 9.464513 
" clip-path="url(#p6f4476590b)" style="fill: none; stroke: #d9d9d9; stroke-width: 0.8; stroke-linecap: square"/>
     </g>
     <g id="line2d_2">
      <defs>
       <path id="md3d757995f" d="M 0 0 
L 0 3.5 
" style="stroke: #000000; stroke-width: 0.8"/>
      </defs>
      <g>
       <use xlink:href="#md3d757995f" x="53.721227" y="140.302913" style="stroke: #000000; stroke-width: 0.8"/>
      </g>
     </g>
     <g id="text_1">
      <!-- $\mathdefault{10^{-1}}$ -->
      <g transform="translate(44.321227 153.381663) scale(0.08 -0.08)">
       <defs>
        <path id="DejaVuSans-31" d="M 794 531 
L 1825 531 
L 1825 4091 
L 703 3866 
L 703 4441 
L 1819 4666 
L 2450 4666 
L 2450 531 
L 3481 531 
L 3481 0 
L 794 0 
L 794 531 
z
" transform="scale(0.015625)"/>
        <path id="DejaVuSans-30" d="M 2034 4250 
Q 1547 4250 1301 3770 
Q 1056 3291 1056 2328 
Q 1056 1369 1301 889 
Q 1547 409 2034 409 
Q 2525 409 2770 889 
Q 3016 1369 3016 2328 
Q 3016 3291 2770 3770 
Q 2525 4250 2034 4250 
z
M 2034 4750 
Q 2819 4750 3233 4129 
Q 3647 3509 3647 2328 
Q 3647 1150 3233 529 
Q 2819 -91 2034 -91 
Q 1250 -91 836 529 
Q 422 1150 422 2328 
Q 422 3509 836 4129 
Q 1250 4750 2034 4750 
z
" transform="scale(0.015625)"/>
        <path id="DejaVuSans-2212" d="M 678 2272 
L 4684 2272 
L 4684 1741 
L 678 1741 
L 678 2272 
z
" transform="scale(0.015625)"/>
       </defs>
       <use xlink:href="#DejaVuSans-31" transform="translate(0 0.684375)"/>
       <use xlink:href="#DejaVuSans-30" transform="translate(63.623047 0.684375)"/>
       <use xlink:href="#DejaVuSans-2212" transform="translate(128.203125 38.965625) scale(0.7)"/>
       <use xlink:href="#DejaVuSans-31" transform="translate(186.855469 38.965625) scale(0.7)"/>
      </g>
     </g>
    </g>
    <g id="xtick_2">
     <g id="line2d_3">
      <path d="M 159.417352 140.302913 
L 159.417352 9.464513 
" clip-path="url(#p6f4476590b)" style="fill: none; stroke: #d9d9d9; stroke-width: 0.8; stroke-linecap: square"/>
     </g>
     <g id="line2d_4">
      <g>
       <use xlink:href="#md3d757995f" x="159.417352" y="140.302913" style="stroke: #000000; stroke-width: 0.8"/>
      </g>
     </g>
     <g id="text_2">
      <!-- $\mathdefault{10^{0}}$ -->
      <g transform="translate(152.377352 153.381663) scale(0.08 -0.08)">
       <use xlink:href="#DejaVuSans-31" transform="translate(0 0.765625)"/>
       <use xlink:href="#DejaVuSans-30" transform="translate(63.623047 0.765625)"/>
       <use xlink:href="#DejaVuSans-30" transform="translate(128.203125 39.046875) scale(0.7)"/>
      </g>
     </g>
    </g>
    <g id="xtick_3">
     <g id="line2d_5">
      <path d="M 48.884838 140.302913 
L 48.884838 9.464513 
" clip-path="url(#p6f4476590b)" style="fill: none; stroke-dasharray: 2.96,1.28; stroke-dashoffset: 0; stroke: #f2f2f2; stroke-width: 0.8"/>
     </g>
     <g id="line2d_6">
      <defs>
       <path id="m83c95cb05d" d="M 0 0 
L 0 2 
" style="stroke: #000000; stroke-width: 0.6"/>
      </defs>
      <g>
       <use xlink:href="#m83c95cb05d" x="48.884838" y="140.302913" style="stroke: #000000; stroke-width: 0.6"/>
      </g>
     </g>
    </g>
    <g id="xtick_4">
     <g id="line2d_7">
      <path d="M 85.538931 140.302913 
L 85.538931 9.464513 
" clip-path="url(#p6f4476590b)" style="fill: none; stroke-dasharray: 2.96,1.28; stroke-dashoffset: 0; stroke: #f2f2f2; stroke-width: 0.8"/>
     </g>
     <g id="line2d_8">
      <g>
       <use xlink:href="#m83c95cb05d" x="85.538931" y="140.302913" style="stroke: #000000; stroke-width: 0.6"/>
      </g>
     </g>
    </g>
    <g id="xtick_5">
     <g id="line2d_9">
      <path d="M 104.151095 140.302913 
L 104.151095 9.464513 
" clip-path="url(#p6f4476590b)" style="fill: none; stroke-dasharray: 2.96,1.28; stroke-dashoffset: 0; stroke: #f2f2f2; stroke-width: 0.8"/>
     </g>
     <g id="line2d_10">
      <g>
       <use xlink:href="#m83c95cb05d" x="104.151095" y="140.302913" style="stroke: #000000; stroke-width: 0.6"/>
      </g>
     </g>
    </g>
    <g id="xtick_6">
     <g id="line2d_11">
      <path d="M 117.356635 140.302913 
L 117.356635 9.464513 
" clip-path="url(#p6f4476590b)" style="fill: none; stroke-dasharray: 2.96,1.28; stroke-dashoffset: 0; stroke: #f2f2f2; stroke-width: 0.8"/>
     </g>
     <g id="line2d_12">
      <g>
       <use xlink:href="#m83c95cb05d" x="117.356635" y="140.302913" style="stroke: #000000; stroke-width: 0.6"/>
      </g>
     </g>
    </g>
    <g id="xtick_7">
     <g id="line2d_13">
      <path d="M 127.599648 140.302913 
L 127.599648 9.464513 
" clip-path="url(#p6f4476590b)" style="fill: none; stroke-dasharray: 2.96,1.28; stroke-dashoffset: 0; stroke: #f2f2f2; stroke-width: 0.8"/>
     </g>
     <g id="line2d_14">
      <g>
       <use xlink:href="#m83c95cb05d" x="127.599648" y="140.302913" style="stroke: #000000; stroke-width: 0.6"/>
      </g>
     </g>
    </g>
    <g id="xtick_8">
     <g id="line2d_15">
      <path d="M 135.968799 140.302913 
L 135.968799 9.464513 
" clip-path="url(#p6f4476590b)" style="fill: none; stroke-dasharray: 2.96,1.28; stroke-dashoffset: 0; stroke: #f2f2f2; stroke-width: 0.8"/>
     </g>
     <g id="line2d_16">
      <g>
       <use xlink:href="#m83c95cb05d" x="135.968799" y="140.302913" style="stroke: #000000; stroke-width: 0.6"/>
      </g>
     </g>
    </g>
    <g id="xtick_9">
     <g id="line2d_17">
      <path d="M 143.044815 140.302913 
L 143.044815 9.464513 
" clip-path="url(#p6f4476590b)" style="fill: none; stroke-dasharray: 2.96,1.28; stroke-dashoffset: 0; stroke: #f2f2f2; stroke-width: 0.8"/>
     </g>
     <g id="line2d_18">
      <g>
       <use xlink:href="#m83c95cb05d" x="143.044815" y="140.302913" style="stroke: #000000; stroke-width: 0.6"/>
      </g>
     </g>
    </g>
    <g id="xtick_10">
     <g id="line2d_19">
      <path d="M 149.174339 140.302913 
L 149.174339 9.464513 
" clip-path="url(#p6f4476590b)" style="fill: none; stroke-dasharray: 2.96,1.28; stroke-dashoffset: 0; stroke: #f2f2f2; stroke-width: 0.8"/>
     </g>
     <g id="line2d_20">
      <g>
       <use xlink:href="#m83c95cb05d" x="149.174339" y="140.302913" style="stroke: #000000; stroke-width: 0.6"/>
      </g>
     </g>
    </g>
    <g id="xtick_11">
     <g id="line2d_21">
      <path d="M 154.580963 140.302913 
L 154.580963 9.464513 
" clip-path="url(#p6f4476590b)" style="fill: none; stroke-dasharray: 2.96,1.28; stroke-dashoffset: 0; stroke: #f2f2f2; stroke-width: 0.8"/>
     </g>
     <g id="line2d_22">
      <g>
       <use xlink:href="#m83c95cb05d" x="154.580963" y="140.302913" style="stroke: #000000; stroke-width: 0.6"/>
      </g>
     </g>
    </g>
    <g id="xtick_12">
     <g id="line2d_23">
      <path d="M 191.235056 140.302913 
L 191.235056 9.464513 
" clip-path="url(#p6f4476590b)" style="fill: none; stroke-dasharray: 2.96,1.28; stroke-dashoffset: 0; stroke: #f2f2f2; stroke-width: 0.8"/>
     </g>
     <g id="line2d_24">
      <g>
       <use xlink:href="#m83c95cb05d" x="191.235056" y="140.302913" style="stroke: #000000; stroke-width: 0.6"/>
      </g>
     </g>
    </g>
    <g id="xtick_13">
     <g id="line2d_25">
      <path d="M 209.84722 140.302913 
L 209.84722 9.464513 
" clip-path="url(#p6f4476590b)" style="fill: none; stroke-dasharray: 2.96,1.28; stroke-dashoffset: 0; stroke: #f2f2f2; stroke-width: 0.8"/>
     </g>
     <g id="line2d_26">
      <g>
       <use xlink:href="#m83c95cb05d" x="209.84722" y="140.302913" style="stroke: #000000; stroke-width: 0.6"/>
      </g>
     </g>
    </g>
    <g id="xtick_14">
     <g id="line2d_27">
      <path d="M 223.05276 140.302913 
L 223.05276 9.464513 
" clip-path="url(#p6f4476590b)" style="fill: none; stroke-dasharray: 2.96,1.28; stroke-dashoffset: 0; stroke: #f2f2f2; stroke-width: 0.8"/>
     </g>
     <g id="line2d_28">
      <g>
       <use xlink:href="#m83c95cb05d" x="223.05276" y="140.302913" style="stroke: #000000; stroke-width: 0.6"/>
      </g>
     </g>
    </g>
    <g id="xtick_15">
     <g id="line2d_29">
      <path d="M 233.295773 140.302913 
L 233.295773 9.464513 
" clip-path="url(#p6f4476590b)" style="fill: none; stroke-dasharray: 2.96,1.28; stroke-dashoffset: 0; stroke: #f2f2f2; stroke-width: 0.8"/>
     </g>
     <g id="line2d_30">
      <g>
       <use xlink:href="#m83c95cb05d" x="233.295773" y="140.302913" style="stroke: #000000; stroke-width: 0.6"/>
      </g>
     </g>
    </g>
    <g id="xtick_16">
     <g id="line2d_31">
      <path d="M 241.664924 140.302913 
L 241.664924 9.464513 
" clip-path="url(#p6f4476590b)" style="fill: none; stroke-dasharray: 2.96,1.28; stroke-dashoffset: 0; stroke: #f2f2f2; stroke-width: 0.8"/>
     </g>
     <g id="line2d_32">
      <g>
       <use xlink:href="#m83c95cb05d" x="241.664924" y="140.302913" style="stroke: #000000; stroke-width: 0.6"/>
      </g>
     </g>
    </g>
    <g id="text_3">
     <!-- Period, T (s) -->
     <g transform="translate(119.576 165.124163) scale(0.08 -0.08)">
      <defs>
       <path id="DejaVuSans-50" d="M 1259 4147 
L 1259 2394 
L 2053 2394 
Q 2494 2394 2734 2622 
Q 2975 2850 2975 3272 
Q 2975 3691 2734 3919 
Q 2494 4147 2053 4147 
L 1259 4147 
z
M 628 4666 
L 2053 4666 
Q 2838 4666 3239 4311 
Q 3641 3956 3641 3272 
Q 3641 2581 3239 2228 
Q 2838 1875 2053 1875 
L 1259 1875 
L 1259 0 
L 628 0 
L 628 4666 
z
" transform="scale(0.015625)"/>
       <path id="DejaVuSans-65" d="M 3597 1894 
L 3597 1613 
L 953 1613 
Q 991 1019 1311 708 
Q 1631 397 2203 397 
Q 2534 397 2845 478 
Q 3156 559 3463 722 
L 3463 178 
Q 3153 47 2828 -22 
Q 2503 -91 2169 -91 
Q 1331 -91 842 396 
Q 353 884 353 1716 
Q 353 2575 817 3079 
Q 1281 3584 2069 3584 
Q 2775 3584 3186 3129 
Q 3597 2675 3597 1894 
z
M 3022 2063 
Q 3016 2534 2758 2815 
Q 2500 3097 2075 3097 
Q 1594 3097 1305 2825 
Q 1016 2553 972 2059 
L 3022 2063 
z
" transform="scale(0.015625)"/>
       <path id="DejaVuSans-72" d="M 2631 2963 
Q 2534 3019 2420 3045 
Q 2306 3072 2169 3072 
Q 1681 3072 1420 2755 
Q 1159 2438 1159 1844 
L 1159 0 
L 581 0 
L 581 3500 
L 1159 3500 
L 1159 2956 
Q 1341 3275 1631 3429 
Q 1922 3584 2338 3584 
Q 2397 3584 2469 3576 
Q 2541 3569 2628 3553 
L 2631 2963 
z
" transform="scale(0.015625)"/>
       <path id="DejaVuSans-69" d="M 603 3500 
L 1178 3500 
L 1178 0 
L 603 0 
L 603 3500 
z
M 603 4863 
L 1178 4863 
L 1178 4134 
L 603 4134 
L 603 4863 
z
" transform="scale(0.015625)"/>
       <path id="DejaVuSans-6f" d="M 1959 3097 
Q 1497 3097 1228 2736 
Q 959 2375 959 1747 
Q 959 1119 1226 758 
Q 1494 397 1959 397 
Q 2419 397 2687 759 
Q 2956 1122 2956 1747 
Q 2956 2369 2687 2733 
Q 2419 3097 1959 3097 
z
M 1959 3584 
Q 2709 3584 3137 3096 
Q 3566 2609 3566 1747 
Q 3566 888 3137 398 
Q 2709 -91 1959 -91 
Q 1206 -91 779 398 
Q 353 888 353 1747 
Q 353 2609 779 3096 
Q 1206 3584 1959 3584 
z
" transform="scale(0.015625)"/>
       <path id="DejaVuSans-64" d="M 2906 2969 
L 2906 4863 
L 3481 4863 
L 3481 0 
L 2906 0 
L 2906 525 
Q 2725 213 2448 61 
Q 2172 -91 1784 -91 
Q 1150 -91 751 415 
Q 353 922 353 1747 
Q 353 2572 751 3078 
Q 1150 3584 1784 3584 
Q 2172 3584 2448 3432 
Q 2725 3281 2906 2969 
z
M 947 1747 
Q 947 1113 1208 752 
Q 1469 391 1925 391 
Q 2381 391 2643 752 
Q 2906 1113 2906 1747 
Q 2906 2381 2643 2742 
Q 2381 3103 1925 3103 
Q 1469 3103 1208 2742 
Q 947 2381 947 1747 
z
" transform="scale(0.015625)"/>
       <path id="DejaVuSans-2c" d="M 750 794 
L 1409 794 
L 1409 256 
L 897 -744 
L 494 -744 
L 750 256 
L 750 794 
z
" transform="scale(0.015625)"/>
       <path id="DejaVuSans-20" transform="scale(0.015625)"/>
       <path id="DejaVuSans-54" d="M -19 4666 
L 3928 4666 
L 3928 4134 
L 2272 4134 
L 2272 0 
L 1638 0 
L 1638 4134 
L -19 4134 
L -19 4666 
z
" transform="scale(0.015625)"/>
       <path id="DejaVuSans-28" d="M 1984 4856 
Q 1566 4138 1362 3434 
Q 1159 2731 1159 2009 
Q 1159 1288 1364 580 
Q 1569 -128 1984 -844 
L 1484 -844 
Q 1016 -109 783 600 
Q 550 1309 550 2009 
Q 550 2706 781 3412 
Q 1013 4119 1484 4856 
L 1984 4856 
z
" transform="scale(0.015625)"/>
       <path id="DejaVuSans-73" d="M 2834 3397 
L 2834 2853 
Q 2591 2978 2328 3040 
Q 2066 3103 1784 3103 
Q 1356 3103 1142 2972 
Q 928 2841 928 2578 
Q 928 2378 1081 2264 
Q 1234 2150 1697 2047 
L 1894 2003 
Q 2506 1872 2764 1633 
Q 3022 1394 3022 966 
Q 3022 478 2636 193 
Q 2250 -91 1575 -91 
Q 1294 -91 989 -36 
Q 684 19 347 128 
L 347 722 
Q 666 556 975 473 
Q 1284 391 1588 391 
Q 1994 391 2212 530 
Q 2431 669 2431 922 
Q 2431 1156 2273 1281 
Q 2116 1406 1581 1522 
L 1381 1569 
Q 847 1681 609 1914 
Q 372 2147 372 2553 
Q 372 3047 722 3315 
Q 1072 3584 1716 3584 
Q 2034 3584 2315 3537 
Q 2597 3491 2834 3397 
z
" transform="scale(0.015625)"/>
       <path id="DejaVuSans-29" d="M 513 4856 
L 1013 4856 
Q 1481 4119 1714 3412 
Q 1947 2706 1947 2009 
Q 1947 1309 1714 600 
Q 1481 -109 1013 -844 
L 513 -844 
Q 928 -128 1133 580 
Q 1338 1288 1338 2009 
Q 1338 2731 1133 3434 
Q 928 4138 513 4856 
z
" transform="scale(0.015625)"/>
      </defs>
      <use xlink:href="#DejaVuSans-50"/>
      <use xlink:href="#DejaVuSans-65" x="56.677734"/>
      <use xlink:href="#DejaVuSans-72" x="118.201172"/>
      <use xlink:href="#DejaVuSans-69" x="159.314453"/>
      <use xlink:href="#DejaVuSans-6f" x="187.097656"/>
      <use xlink:href="#DejaVuSans-64" x="248.279297"/>
      <use xlink:href="#DejaVuSans-2c" x="311.755859"/>
      <use xlink:href="#DejaVuSans-20" x="343.542969"/>
      <use xlink:href="#DejaVuSans-54" x="375.330078"/>
      <use xlink:href="#DejaVuSans-20" x="436.414062"/>
      <use xlink:href="#DejaVuSans-28" x="468.201172"/>
      <use xlink:href="#DejaVuSans-73" x="507.214844"/>
      <use xlink:href="#DejaVuSans-29" x="559.314453"/>
     </g>
    </g>
   </g>
   <g id="matplotlib.axis_2">
    <g id="ytick_1">
     <g id="line2d_33">
      <path d="M 44.7425 110.685024 
L 242.2745 110.685024 
" clip-path="url(#p6f4476590b)" style="fill: none; stroke: #d9d9d9; stroke-width: 0.8; stroke-linecap: square"/>
     </g>
     <g id="line2d_34">
      <defs>
       <path id="mb2c8fcd5f7" d="M 0 0 
L -3.5 0 
" style="stroke: #000000; stroke-width: 0.8"/>
      </defs>
      <g>
       <use xlink:href="#mb2c8fcd5f7" x="44.7425" y="110.685024" style="stroke: #000000; stroke-width: 0.8"/>
      </g>
     </g>
     <g id="text_4">
      <!-- $\mathdefault{10^{-1}}$ -->
      <g transform="translate(18.9425 113.724399) scale(0.08 -0.08)">
       <use xlink:href="#DejaVuSans-31" transform="translate(0 0.684375)"/>
       <use xlink:href="#DejaVuSans-30" transform="translate(63.623047 0.684375)"/>
       <use xlink:href="#DejaVuSans-2212" transform="translate(128.203125 38.965625) scale(0.7)"/>
       <use xlink:href="#DejaVuSans-31" transform="translate(186.855469 38.965625) scale(0.7)"/>
      </g>
     </g>
    </g>
    <g id="ytick_2">
     <g id="line2d_35">
      <path d="M 44.7425 60.4622 
L 242.2745 60.4622 
" clip-path="url(#p6f4476590b)" style="fill: none; stroke: #d9d9d9; stroke-width: 0.8; stroke-linecap: square"/>
     </g>
     <g id="line2d_36">
      <g>
       <use xlink:href="#mb2c8fcd5f7" x="44.7425" y="60.4622" style="stroke: #000000; stroke-width: 0.8"/>
      </g>
     </g>
     <g id="text_5">
      <!-- $\mathdefault{10^{0}}$ -->
      <g transform="translate(23.6625 63.501575) scale(0.08 -0.08)">
       <use xlink:href="#DejaVuSans-31" transform="translate(0 0.765625)"/>
       <use xlink:href="#DejaVuSans-30" transform="translate(63.623047 0.765625)"/>
       <use xlink:href="#DejaVuSans-30" transform="translate(128.203125 39.046875) scale(0.7)"/>
      </g>
     </g>
    </g>
    <g id="ytick_3">
     <g id="line2d_37">
      <path d="M 44.7425 10.239375 
L 242.2745 10.239375 
" clip-path="url(#p6f4476590b)" style="fill: none; stroke: #d9d9d9; stroke-width: 0.8; stroke-linecap: square"/>
     </g>
     <g id="line2d_38">
      <g>
       <use xlink:href="#mb2c8fcd5f7" x="44.7425" y="10.239375" style="stroke: #000000; stroke-width: 0.8"/>
      </g>
     </g>
     <g id="text_6">
      <!-- $\mathdefault{10^{1}}$ -->
      <g transform="translate(23.6625 13.27875) scale(0.08 -0.08)">
       <use xlink:href="#DejaVuSans-31" transform="translate(0 0.684375)"/>
       <use xlink:href="#DejaVuSans-30" transform="translate(63.623047 0.684375)"/>
       <use xlink:href="#DejaVuSans-31" transform="translate(128.203125 38.965625) scale(0.7)"/>
      </g>
     </g>
    </g>
    <g id="ytick_4">
     <g id="line2d_39">
      <path d="M 44.7425 136.945471 
L 242.2745 136.945471 
" clip-path="url(#p6f4476590b)" style="fill: none; stroke-dasharray: 2.96,1.28; stroke-dashoffset: 0; stroke: #f2f2f2; stroke-width: 0.8"/>
     </g>
     <g id="line2d_40">
      <defs>
       <path id="m416d34f676" d="M 0 0 
L -2 0 
" style="stroke: #000000; stroke-width: 0.6"/>
      </defs>
      <g>
       <use xlink:href="#m416d34f676" x="44.7425" y="136.945471" style="stroke: #000000; stroke-width: 0.6"/>
      </g>
     </g>
    </g>
    <g id="ytick_5">
     <g id="line2d_41">
      <path d="M 44.7425 130.670695 
L 242.2745 130.670695 
" clip-path="url(#p6f4476590b)" style="fill: none; stroke-dasharray: 2.96,1.28; stroke-dashoffset: 0; stroke: #f2f2f2; stroke-width: 0.8"/>
     </g>
     <g id="line2d_42">
      <g>
       <use xlink:href="#m416d34f676" x="44.7425" y="130.670695" style="stroke: #000000; stroke-width: 0.6"/>
      </g>
     </g>
    </g>
    <g id="ytick_6">
     <g id="line2d_43">
      <path d="M 44.7425 125.803601 
L 242.2745 125.803601 
" clip-path="url(#p6f4476590b)" style="fill: none; stroke-dasharray: 2.96,1.28; stroke-dashoffset: 0; stroke: #f2f2f2; stroke-width: 0.8"/>
     </g>
     <g id="line2d_44">
      <g>
       <use xlink:href="#m416d34f676" x="44.7425" y="125.803601" style="stroke: #000000; stroke-width: 0.6"/>
      </g>
     </g>
    </g>
    <g id="ytick_7">
     <g id="line2d_45">
      <path d="M 44.7425 121.826895 
L 242.2745 121.826895 
" clip-path="url(#p6f4476590b)" style="fill: none; stroke-dasharray: 2.96,1.28; stroke-dashoffset: 0; stroke: #f2f2f2; stroke-width: 0.8"/>
     </g>
     <g id="line2d_46">
      <g>
       <use xlink:href="#m416d34f676" x="44.7425" y="121.826895" style="stroke: #000000; stroke-width: 0.6"/>
      </g>
     </g>
    </g>
    <g id="ytick_8">
     <g id="line2d_47">
      <path d="M 44.7425 118.464638 
L 242.2745 118.464638 
" clip-path="url(#p6f4476590b)" style="fill: none; stroke-dasharray: 2.96,1.28; stroke-dashoffset: 0; stroke: #f2f2f2; stroke-width: 0.8"/>
     </g>
     <g id="line2d_48">
      <g>
       <use xlink:href="#m416d34f676" x="44.7425" y="118.464638" style="stroke: #000000; stroke-width: 0.6"/>
      </g>
     </g>
    </g>
    <g id="ytick_9">
     <g id="line2d_49">
      <path d="M 44.7425 115.552119 
L 242.2745 115.552119 
" clip-path="url(#p6f4476590b)" style="fill: none; stroke-dasharray: 2.96,1.28; stroke-dashoffset: 0; stroke: #f2f2f2; stroke-width: 0.8"/>
     </g>
     <g id="line2d_50">
      <g>
       <use xlink:href="#m416d34f676" x="44.7425" y="115.552119" style="stroke: #000000; stroke-width: 0.6"/>
      </g>
     </g>
    </g>
    <g id="ytick_10">
     <g id="line2d_51">
      <path d="M 44.7425 112.983094 
L 242.2745 112.983094 
" clip-path="url(#p6f4476590b)" style="fill: none; stroke-dasharray: 2.96,1.28; stroke-dashoffset: 0; stroke: #f2f2f2; stroke-width: 0.8"/>
     </g>
     <g id="line2d_52">
      <g>
       <use xlink:href="#m416d34f676" x="44.7425" y="112.983094" style="stroke: #000000; stroke-width: 0.6"/>
      </g>
     </g>
    </g>
    <g id="ytick_11">
     <g id="line2d_53">
      <path d="M 44.7425 95.566447 
L 242.2745 95.566447 
" clip-path="url(#p6f4476590b)" style="fill: none; stroke-dasharray: 2.96,1.28; stroke-dashoffset: 0; stroke: #f2f2f2; stroke-width: 0.8"/>
     </g>
     <g id="line2d_54">
      <g>
       <use xlink:href="#m416d34f676" x="44.7425" y="95.566447" style="stroke: #000000; stroke-width: 0.6"/>
      </g>
     </g>
    </g>
    <g id="ytick_12">
     <g id="line2d_55">
      <path d="M 44.7425 86.722647 
L 242.2745 86.722647 
" clip-path="url(#p6f4476590b)" style="fill: none; stroke-dasharray: 2.96,1.28; stroke-dashoffset: 0; stroke: #f2f2f2; stroke-width: 0.8"/>
     </g>
     <g id="line2d_56">
      <g>
       <use xlink:href="#m416d34f676" x="44.7425" y="86.722647" style="stroke: #000000; stroke-width: 0.6"/>
      </g>
     </g>
    </g>
    <g id="ytick_13">
     <g id="line2d_57">
      <path d="M 44.7425 80.447871 
L 242.2745 80.447871 
" clip-path="url(#p6f4476590b)" style="fill: none; stroke-dasharray: 2.96,1.28; stroke-dashoffset: 0; stroke: #f2f2f2; stroke-width: 0.8"/>
     </g>
     <g id="line2d_58">
      <g>
       <use xlink:href="#m416d34f676" x="44.7425" y="80.447871" style="stroke: #000000; stroke-width: 0.6"/>
      </g>
     </g>
    </g>
    <g id="ytick_14">
     <g id="line2d_59">
      <path d="M 44.7425 75.580776 
L 242.2745 75.580776 
" clip-path="url(#p6f4476590b)" style="fill: none; stroke-dasharray: 2.96,1.28; stroke-dashoffset: 0; stroke: #f2f2f2; stroke-width: 0.8"/>
     </g>
     <g id="line2d_60">
      <g>
       <use xlink:href="#m416d34f676" x="44.7425" y="75.580776" style="stroke: #000000; stroke-width: 0.6"/>
      </g>
     </g>
    </g>
    <g id="ytick_15">
     <g id="line2d_61">
      <path d="M 44.7425 71.60407 
L 242.2745 71.60407 
" clip-path="url(#p6f4476590b)" style="fill: none; stroke-dasharray: 2.96,1.28; stroke-dashoffset: 0; stroke: #f2f2f2; stroke-width: 0.8"/>
     </g>
     <g id="line2d_62">
      <g>
       <use xlink:href="#m416d34f676" x="44.7425" y="71.60407" style="stroke: #000000; stroke-width: 0.6"/>
      </g>
     </g>
    </g>
    <g id="ytick_16">
     <g id="line2d_63">
      <path d="M 44.7425 68.241813 
L 242.2745 68.241813 
" clip-path="url(#p6f4476590b)" style="fill: none; stroke-dasharray: 2.96,1.28; stroke-dashoffset: 0; stroke: #f2f2f2; stroke-width: 0.8"/>
     </g>
     <g id="line2d_64">
      <g>
       <use xlink:href="#m416d34f676" x="44.7425" y="68.241813" style="stroke: #000000; stroke-width: 0.6"/>
      </g>
     </g>
    </g>
    <g id="ytick_17">
     <g id="line2d_65">
      <path d="M 44.7425 65.329294 
L 242.2745 65.329294 
" clip-path="url(#p6f4476590b)" style="fill: none; stroke-dasharray: 2.96,1.28; stroke-dashoffset: 0; stroke: #f2f2f2; stroke-width: 0.8"/>
     </g>
     <g id="line2d_66">
      <g>
       <use xlink:href="#m416d34f676" x="44.7425" y="65.329294" style="stroke: #000000; stroke-width: 0.6"/>
      </g>
     </g>
    </g>
    <g id="ytick_18">
     <g id="line2d_67">
      <path d="M 44.7425 62.76027 
L 242.2745 62.76027 
" clip-path="url(#p6f4476590b)" style="fill: none; stroke-dasharray: 2.96,1.28; stroke-dashoffset: 0; stroke: #f2f2f2; stroke-width: 0.8"/>
     </g>
     <g id="line2d_68">
      <g>
       <use xlink:href="#m416d34f676" x="44.7425" y="62.76027" style="stroke: #000000; stroke-width: 0.6"/>
      </g>
     </g>
    </g>
    <g id="ytick_19">
     <g id="line2d_69">
      <path d="M 44.7425 45.343623 
L 242.2745 45.343623 
" clip-path="url(#p6f4476590b)" style="fill: none; stroke-dasharray: 2.96,1.28; stroke-dashoffset: 0; stroke: #f2f2f2; stroke-width: 0.8"/>
     </g>
     <g id="line2d_70">
      <g>
       <use xlink:href="#m416d34f676" x="44.7425" y="45.343623" style="stroke: #000000; stroke-width: 0.6"/>
      </g>
     </g>
    </g>
    <g id="ytick_20">
     <g id="line2d_71">
      <path d="M 44.7425 36.499822 
L 242.2745 36.499822 
" clip-path="url(#p6f4476590b)" style="fill: none; stroke-dasharray: 2.96,1.28; stroke-dashoffset: 0; stroke: #f2f2f2; stroke-width: 0.8"/>
     </g>
     <g id="line2d_72">
      <g>
       <use xlink:href="#m416d34f676" x="44.7425" y="36.499822" style="stroke: #000000; stroke-width: 0.6"/>
      </g>
     </g>
    </g>
    <g id="ytick_21">
     <g id="line2d_73">
      <path d="M 44.7425 30.225046 
L 242.2745 30.225046 
" clip-path="url(#p6f4476590b)" style="fill: none; stroke-dasharray: 2.96,1.28; stroke-dashoffset: 0; stroke: #f2f2f2; stroke-width: 0.8"/>
     </g>
     <g id="line2d_74">
      <g>
       <use xlink:href="#m416d34f676" x="44.7425" y="30.225046" style="stroke: #000000; stroke-width: 0.6"/>
      </g>
     </g>
    </g>
    <g id="ytick_22">
     <g id="line2d_75">
      <path d="M 44.7425 25.357952 
L 242.2745 25.357952 
" clip-path="url(#p6f4476590b)" style="fill: none; stroke-dasharray: 2.96,1.28; stroke-dashoffset: 0; stroke: #f2f2f2; stroke-width: 0.8"/>
     </g>
     <g id="line2d_76">
      <g>
       <use xlink:href="#m416d34f676" x="44.7425" y="25.357952" style="stroke: #000000; stroke-width: 0.6"/>
      </g>
     </g>
    </g>
    <g id="ytick_23">
     <g id="line2d_77">
      <path d="M 44.7425 21.381246 
L 242.2745 21.381246 
" clip-path="url(#p6f4476590b)" style="fill: none; stroke-dasharray: 2.96,1.28; stroke-dashoffset: 0; stroke: #f2f2f2; stroke-width: 0.8"/>
     </g>
     <g id="line2d_78">
      <g>
       <use xlink:href="#m416d34f676" x="44.7425" y="21.381246" style="stroke: #000000; stroke-width: 0.6"/>
      </g>
     </g>
    </g>
    <g id="ytick_24">
     <g id="line2d_79">
      <path d="M 44.7425 18.018989 
L 242.2745 18.018989 
" clip-path="url(#p6f4476590b)" style="fill: none; stroke-dasharray: 2.96,1.28; stroke-dashoffset: 0; stroke: #f2f2f2; stroke-width: 0.8"/>
     </g>
     <g id="line2d_80">
      <g>
       <use xlink:href="#m416d34f676" x="44.7425" y="18.018989" style="stroke: #000000; stroke-width: 0.6"/>
      </g>
     </g>
    </g>
    <g id="ytick_25">
     <g id="line2d_81">
      <path d="M 44.7425 15.10647 
L 242.2745 15.10647 
" clip-path="url(#p6f4476590b)" style="fill: none; stroke-dasharray: 2.96,1.28; stroke-dashoffset: 0; stroke: #f2f2f2; stroke-width: 0.8"/>
     </g>
     <g id="line2d_82">
      <g>
       <use xlink:href="#m416d34f676" x="44.7425" y="15.10647" style="stroke: #000000; stroke-width: 0.6"/>
      </g>
     </g>
    </g>
    <g id="ytick_26">
     <g id="line2d_83">
      <path d="M 44.7425 12.537445 
L 242.2745 12.537445 
" clip-path="url(#p6f4476590b)" style="fill: none; stroke-dasharray: 2.96,1.28; stroke-dashoffset: 0; stroke: #f2f2f2; stroke-width: 0.8"/>
     </g>
     <g id="line2d_84">
      <g>
       <use xlink:href="#m416d34f676" x="44.7425" y="12.537445" style="stroke: #000000; stroke-width: 0.6"/>
      </g>
     </g>
    </g>
    <g id="text_7">
     <!-- Spectral acceleration, SA (g) -->
     <g transform="translate(13.27875 132.135588) rotate(-90) scale(0.08 -0.08)">
      <defs>
       <path id="DejaVuSans-53" d="M 3425 4513 
L 3425 3897 
Q 3066 4069 2747 4153 
Q 2428 4238 2131 4238 
Q 1616 4238 1336 4038 
Q 1056 3838 1056 3469 
Q 1056 3159 1242 3001 
Q 1428 2844 1947 2747 
L 2328 2669 
Q 3034 2534 3370 2195 
Q 3706 1856 3706 1288 
Q 3706 609 3251 259 
Q 2797 -91 1919 -91 
Q 1588 -91 1214 -16 
Q 841 59 441 206 
L 441 856 
Q 825 641 1194 531 
Q 1563 422 1919 422 
Q 2459 422 2753 634 
Q 3047 847 3047 1241 
Q 3047 1584 2836 1778 
Q 2625 1972 2144 2069 
L 1759 2144 
Q 1053 2284 737 2584 
Q 422 2884 422 3419 
Q 422 4038 858 4394 
Q 1294 4750 2059 4750 
Q 2388 4750 2728 4690 
Q 3069 4631 3425 4513 
z
" transform="scale(0.015625)"/>
       <path id="DejaVuSans-70" d="M 1159 525 
L 1159 -1331 
L 581 -1331 
L 581 3500 
L 1159 3500 
L 1159 2969 
Q 1341 3281 1617 3432 
Q 1894 3584 2278 3584 
Q 2916 3584 3314 3078 
Q 3713 2572 3713 1747 
Q 3713 922 3314 415 
Q 2916 -91 2278 -91 
Q 1894 -91 1617 61 
Q 1341 213 1159 525 
z
M 3116 1747 
Q 3116 2381 2855 2742 
Q 2594 3103 2138 3103 
Q 1681 3103 1420 2742 
Q 1159 2381 1159 1747 
Q 1159 1113 1420 752 
Q 1681 391 2138 391 
Q 2594 391 2855 752 
Q 3116 1113 3116 1747 
z
" transform="scale(0.015625)"/>
       <path id="DejaVuSans-63" d="M 3122 3366 
L 3122 2828 
Q 2878 2963 2633 3030 
Q 2388 3097 2138 3097 
Q 1578 3097 1268 2742 
Q 959 2388 959 1747 
Q 959 1106 1268 751 
Q 1578 397 2138 397 
Q 2388 397 2633 464 
Q 2878 531 3122 666 
L 3122 134 
Q 2881 22 2623 -34 
Q 2366 -91 2075 -91 
Q 1284 -91 818 406 
Q 353 903 353 1747 
Q 353 2603 823 3093 
Q 1294 3584 2113 3584 
Q 2378 3584 2631 3529 
Q 2884 3475 3122 3366 
z
" transform="scale(0.015625)"/>
       <path id="DejaVuSans-74" d="M 1172 4494 
L 1172 3500 
L 2356 3500 
L 2356 3053 
L 1172 3053 
L 1172 1153 
Q 1172 725 1289 603 
Q 1406 481 1766 481 
L 2356 481 
L 2356 0 
L 1766 0 
Q 1100 0 847 248 
Q 594 497 594 1153 
L 594 3053 
L 172 3053 
L 172 3500 
L 594 3500 
L 594 4494 
L 1172 4494 
z
" transform="scale(0.015625)"/>
       <path id="DejaVuSans-61" d="M 2194 1759 
Q 1497 1759 1228 1600 
Q 959 1441 959 1056 
Q 959 750 1161 570 
Q 1363 391 1709 391 
Q 2188 391 2477 730 
Q 2766 1069 2766 1631 
L 2766 1759 
L 2194 1759 
z
M 3341 1997 
L 3341 0 
L 2766 0 
L 2766 531 
Q 2569 213 2275 61 
Q 1981 -91 1556 -91 
Q 1019 -91 701 211 
Q 384 513 384 1019 
Q 384 1609 779 1909 
Q 1175 2209 1959 2209 
L 2766 2209 
L 2766 2266 
Q 2766 2663 2505 2880 
Q 2244 3097 1772 3097 
Q 1472 3097 1187 3025 
Q 903 2953 641 2809 
L 641 3341 
Q 956 3463 1253 3523 
Q 1550 3584 1831 3584 
Q 2591 3584 2966 3190 
Q 3341 2797 3341 1997 
z
" transform="scale(0.015625)"/>
       <path id="DejaVuSans-6c" d="M 603 4863 
L 1178 4863 
L 1178 0 
L 603 0 
L 603 4863 
z
" transform="scale(0.015625)"/>
       <path id="DejaVuSans-6e" d="M 3513 2113 
L 3513 0 
L 2938 0 
L 2938 2094 
Q 2938 2591 2744 2837 
Q 2550 3084 2163 3084 
Q 1697 3084 1428 2787 
Q 1159 2491 1159 1978 
L 1159 0 
L 581 0 
L 581 3500 
L 1159 3500 
L 1159 2956 
Q 1366 3272 1645 3428 
Q 1925 3584 2291 3584 
Q 2894 3584 3203 3211 
Q 3513 2838 3513 2113 
z
" transform="scale(0.015625)"/>
       <path id="DejaVuSans-41" d="M 2188 4044 
L 1331 1722 
L 3047 1722 
L 2188 4044 
z
M 1831 4666 
L 2547 4666 
L 4325 0 
L 3669 0 
L 3244 1197 
L 1141 1197 
L 716 0 
L 50 0 
L 1831 4666 
z
" transform="scale(0.015625)"/>
       <path id="DejaVuSans-67" d="M 2906 1791 
Q 2906 2416 2648 2759 
Q 2391 3103 1925 3103 
Q 1463 3103 1205 2759 
Q 947 2416 947 1791 
Q 947 1169 1205 825 
Q 1463 481 1925 481 
Q 2391 481 2648 825 
Q 2906 1169 2906 1791 
z
M 3481 434 
Q 3481 -459 3084 -895 
Q 2688 -1331 1869 -1331 
Q 1566 -1331 1297 -1286 
Q 1028 -1241 775 -1147 
L 775 -588 
Q 1028 -725 1275 -790 
Q 1522 -856 1778 -856 
Q 2344 -856 2625 -561 
Q 2906 -266 2906 331 
L 2906 616 
Q 2728 306 2450 153 
Q 2172 0 1784 0 
Q 1141 0 747 490 
Q 353 981 353 1791 
Q 353 2603 747 3093 
Q 1141 3584 1784 3584 
Q 2172 3584 2450 3431 
Q 2728 3278 2906 2969 
L 2906 3500 
L 3481 3500 
L 3481 434 
z
" transform="scale(0.015625)"/>
      </defs>
      <use xlink:href="#DejaVuSans-53"/>
      <use xlink:href="#DejaVuSans-70" x="63.476562"/>
      <use xlink:href="#DejaVuSans-65" x="126.953125"/>
      <use xlink:href="#DejaVuSans-63" x="188.476562"/>
      <use xlink:href="#DejaVuSans-74" x="243.457031"/>
      <use xlink:href="#DejaVuSans-72" x="282.666016"/>
      <use xlink:href="#DejaVuSans-61" x="323.779297"/>
      <use xlink:href="#DejaVuSans-6c" x="385.058594"/>
      <use xlink:href="#DejaVuSans-20" x="412.841797"/>
      <use xlink:href="#DejaVuSans-61" x="444.628906"/>
      <use xlink:href="#DejaVuSans-63" x="505.908203"/>
      <use xlink:href="#DejaVuSans-63" x="560.888672"/>
      <use xlink:href="#DejaVuSans-65" x="615.869141"/>
      <use xlink:href="#DejaVuSans-6c" x="677.392578"/>
      <use xlink:href="#DejaVuSans-65" x="705.175781"/>
      <use xlink:href="#DejaVuSans-72" x="766.699219"/>
      <use xlink:href="#DejaVuSans-61" x="807.8125"/>
      <use xlink:href="#DejaVuSans-74" x="869.091797"/>
      <use xlink:href="#DejaVuSans-69" x="908.300781"/>
      <use xlink:href="#DejaVuSans-6f" x="936.083984"/>
      <use xlink:href="#DejaVuSans-6e" x="997.265625"/>
      <use xlink:href="#DejaVuSans-2c" x="1060.644531"/>
      <use xlink:href="#DejaVuSans-20" x="1092.431641"/>
      <use xlink:href="#DejaVuSans-53" x="1124.21875"/>
      <use xlink:href="#DejaVuSans-41" x="1189.570312"/>
      <use xlink:href="#DejaVuSans-20" x="1257.978516"/>
      <use xlink:href="#DejaVuSans-28" x="1289.765625"/>
      <use xlink:href="#DejaVuSans-67" x="1328.779297"/>
      <use xlink:href="#DejaVuSans-29" x="1392.255859"/>
     </g>
    </g>
   </g>
   <g id="line2d_85">
    <path d="M 53.721227 64.8471 
L 72.333391 62.05856 
L 85.538931 52.18854 
L 95.781944 49.473711 
L 104.151095 54.485455 
L 117.356635 42.138561 
L 127.599648 35.080817 
L 132.390111 38.636922 
L 146.211812 68.534411 
L 159.417352 80.36806 
L 171.460723 87.118297 
L 178.029516 93.342849 
L 191.235056 102.070513 
L 209.84722 102.666819 
L 223.05276 111.316322 
L 233.295773 118.460796 
" clip-path="url(#p6f4476590b)" style="fill: none; stroke: #b2b2b2; stroke-width: 0.8; stroke-linecap: square"/>
   </g>
   <g id="line2d_86">
    <path d="M 53.721227 63.247414 
L 72.333391 59.901943 
L 85.538931 51.235419 
L 95.781944 55.132914 
L 104.151095 46.367833 
L 117.356635 50.089042 
L 127.599648 37.769694 
L 132.390111 38.636922 
L 146.211812 47.728435 
L 159.417352 44.07293 
L 171.460723 42.88055 
L 178.029516 44.093983 
L 191.235056 73.159646 
L 209.84722 85.095804 
L 223.05276 88.317245 
L 233.295773 106.20061 
" clip-path="url(#p6f4476590b)" style="fill: none; stroke: #b2b2b2; stroke-width: 0.8; stroke-linecap: square"/>
   </g>
   <g id="line2d_87">
    <path d="M 53.721227 38.317681 
L 72.333391 21.516569 
L 85.538931 22.863806 
L 95.781944 26.436064 
L 104.151095 25.484683 
L 117.356635 27.954743 
L 127.599648 30.474266 
L 132.390111 38.636922 
L 146.211812 46.549504 
L 159.417352 43.311008 
L 171.460723 53.477717 
L 178.029516 47.304509 
L 191.235056 49.899325 
L 209.84722 85.338312 
L 223.05276 96.948174 
L 233.295773 102.058122 
" clip-path="url(#p6f4476590b)" style="fill: none; stroke: #b2b2b2; stroke-width: 0.8; stroke-linecap: square"/>
   </g>
   <g id="line2d_88">
    <path d="M 53.721227 52.704118 
L 72.333391 44.585298 
L 85.538931 47.624897 
L 95.781944 43.298542 
L 104.151095 38.249844 
L 117.356635 35.739726 
L 127.599648 42.414616 
L 132.390111 38.636922 
L 146.211812 34.201533 
L 159.417352 38.032457 
L 171.460723 36.262159 
L 178.029516 39.964572 
L 191.235056 60.269408 
L 209.84722 80.186068 
L 223.05276 97.303783 
L 233.295773 108.7357 
" clip-path="url(#p6f4476590b)" style="fill: none; stroke: #b2b2b2; stroke-width: 0.8; stroke-linecap: square"/>
   </g>
   <g id="line2d_89">
    <path d="M 53.721227 63.448904 
L 72.333391 56.083438 
L 85.538931 54.937365 
L 95.781944 51.233059 
L 104.151095 44.82593 
L 117.356635 42.61798 
L 127.599648 37.130469 
L 132.390111 38.636922 
L 146.211812 44.520177 
L 159.417352 56.538631 
L 171.460723 48.80533 
L 178.029516 59.630979 
L 191.235056 70.867539 
L 209.84722 87.628769 
L 223.05276 91.878618 
L 233.295773 99.477412 
" clip-path="url(#p6f4476590b)" style="fill: none; stroke: #b2b2b2; stroke-width: 0.8; stroke-linecap: square"/>
   </g>
   <g id="line2d_90">
    <path d="M 53.721227 61.370216 
L 72.333391 57.299953 
L 85.538931 51.831386 
L 95.781944 52.163847 
L 104.151095 50.557481 
L 117.356635 40.845325 
L 127.599648 35.869435 
L 132.390111 38.636922 
L 146.211812 56.15043 
L 159.417352 57.138307 
L 171.460723 59.009728 
L 178.029516 66.970312 
L 191.235056 80.313907 
L 209.84722 98.651934 
L 223.05276 97.162261 
L 233.295773 113.667819 
" clip-path="url(#p6f4476590b)" style="fill: none; stroke: #b2b2b2; stroke-width: 0.8; stroke-linecap: square"/>
   </g>
   <g id="line2d_91">
    <path d="M 53.721227 25.154277 
L 72.333391 20.168385 
L 85.538931 25.668788 
L 95.781944 25.868028 
L 104.151095 23.540442 
L 117.356635 19.233757 
L 127.599648 30.712828 
L 132.390111 38.636922 
L 146.211812 50.437375 
L 159.417352 52.538761 
L 171.460723 52.802283 
L 178.029516 56.718405 
L 191.235056 70.879408 
L 209.84722 87.972282 
L 223.05276 98.071253 
L 233.295773 104.13319 
" clip-path="url(#p6f4476590b)" style="fill: none; stroke: #b2b2b2; stroke-width: 0.8; stroke-linecap: square"/>
   </g>
   <g id="line2d_92">
    <path d="M 53.721227 28.587921 
L 72.333391 17.107809 
L 85.538931 17.117198 
L 95.781944 15.41409 
L 104.151095 29.240999 
L 117.356635 36.759859 
L 127.599648 43.190298 
L 132.390111 38.636922 
L 146.211812 40.143078 
L 159.417352 48.159386 
L 171.460723 50.775608 
L 178.029516 53.926481 
L 191.235056 62.376591 
L 209.84722 77.006443 
L 223.05276 91.942685 
L 233.295773 95.415306 
" clip-path="url(#p6f4476590b)" style="fill: none; stroke: #b2b2b2; stroke-width: 0.8; stroke-linecap: square"/>
   </g>
   <g id="line2d_93">
    <path d="M 53.721227 50.482867 
L 72.333391 43.393162 
L 85.538931 41.045062 
L 95.781944 40.801282 
L 104.151095 41.103255 
L 117.356635 32.885855 
L 127.599648 34.573397 
L 132.390111 38.636922 
L 146.211812 50.876885 
L 159.417352 64.454789 
L 171.460723 72.197849 
L 178.029516 65.238018 
L 191.235056 68.144246 
L 209.84722 86.964003 
L 223.05276 100.197193 
L 233.295773 110.924498 
" clip-path="url(#p6f4476590b)" style="fill: none; stroke: #b2b2b2; stroke-width: 0.8; stroke-linecap: square"/>
   </g>
   <g id="line2d_94">
    <path d="M 53.721227 49.064237 
L 72.333391 45.049653 
L 85.538931 40.981592 
L 95.781944 30.229442 
L 104.151095 31.134592 
L 117.356635 35.161422 
L 127.599648 40.555064 
L 132.390111 38.636922 
L 146.211812 49.113088 
L 159.417352 50.744556 
L 171.460723 72.103888 
L 178.029516 75.604626 
L 191.235056 91.276634 
L 209.84722 95.636789 
L 223.05276 96.383268 
L 233.295773 112.414961 
" clip-path="url(#p6f4476590b)" style="fill: none; stroke: #b2b2b2; stroke-width: 0.8; stroke-linecap: square"/>
   </g>
   <g id="line2d_95">
    <path d="M 53.721227 66.01818 
L 72.333391 60.815001 
L 85.538931 57.143309 
L 95.781944 52.296646 
L 104.151095 55.129059 
L 117.356635 42.908608 
L 127.599648 38.121307 
L 132.390111 38.636922 
L 146.211812 48.949764 
L 159.417352 54.026566 
L 171.460723 56.003471 
L 178.029516 55.554004 
L 191.235056 68.950436 
L 209.84722 67.090666 
L 223.05276 81.699231 
L 233.295773 99.595188 
" clip-path="url(#p6f4476590b)" style="fill: none; stroke: #b2b2b2; stroke-width: 0.8; stroke-linecap: square"/>
   </g>
   <g id="line2d_96">
    <path d="M 53.721227 52.61446 
L 72.333391 51.779905 
L 85.538931 39.459475 
L 95.781944 35.175901 
L 104.151095 32.594994 
L 117.356635 38.90235 
L 127.599648 39.135867 
L 132.390111 38.636922 
L 146.211812 50.846466 
L 159.417352 55.202338 
L 171.460723 69.505347 
L 178.029516 72.899885 
L 191.235056 77.272823 
L 209.84722 91.118254 
L 223.05276 103.472933 
L 233.295773 106.690136 
" clip-path="url(#p6f4476590b)" style="fill: none; stroke: #b2b2b2; stroke-width: 0.8; stroke-linecap: square"/>
   </g>
   <g id="line2d_97">
    <path d="M 53.721227 70.015424 
L 72.333391 66.39836 
L 85.538931 64.269339 
L 95.781944 57.367129 
L 104.151095 56.12786 
L 117.356635 49.476137 
L 127.599648 34.445642 
L 132.390111 38.636922 
L 146.211812 52.960187 
L 159.417352 62.442317 
L 171.460723 73.370927 
L 178.029516 80.037927 
L 191.235056 80.449124 
L 209.84722 81.007034 
L 223.05276 96.456369 
L 233.295773 110.474783 
" clip-path="url(#p6f4476590b)" style="fill: none; stroke: #b2b2b2; stroke-width: 0.8; stroke-linecap: square"/>
   </g>
   <g id="line2d_98">
    <path d="M 53.721227 29.724577 
L 72.333391 31.017503 
L 85.538931 18.696553 
L 95.781944 29.193445 
L 104.151095 22.963296 
L 117.356635 35.986307 
L 127.599648 42.188246 
L 132.390111 38.636922 
L 146.211812 48.31617 
L 159.417352 54.205704 
L 171.460723 71.402939 
L 178.029516 72.33401 
L 191.235056 85.690226 
L 209.84722 104.033375 
L 223.05276 112.395654 
L 233.295773 117.49491 
" clip-path="url(#p6f4476590b)" style="fill: none; stroke: #b2b2b2; stroke-width: 0.8; stroke-linecap: square"/>
   </g>
   <g id="line2d_99">
    <path d="M 53.721227 26.315502 
L 72.333391 23.145226 
L 85.538931 26.009185 
L 95.781944 15.411713 
L 104.151095 17.4418 
L 117.356635 25.570592 
L 127.599648 36.044212 
L 132.390111 38.636922 
L 146.211812 51.048951 
L 159.417352 70.10471 
L 171.460723 77.595596 
L 178.029516 83.725757 
L 191.235056 95.478811 
L 209.84722 111.493019 
L 223.05276 124.089909 
L 233.295773 134.355713 
" clip-path="url(#p6f4476590b)" style="fill: none; stroke: #b2b2b2; stroke-width: 0.8; stroke-linecap: square"/>
   </g>
   <g id="line2d_100">
    <path d="M 53.721227 49.854786 
L 72.333391 32.266799 
L 85.538931 32.856909 
L 95.781944 33.023777 
L 104.151095 43.569688 
L 117.356635 31.792445 
L 127.599648 27.7616 
L 132.390111 38.636922 
L 146.211812 48.070616 
L 159.417352 51.337168 
L 171.460723 51.130947 
L 178.029516 52.435806 
L 191.235056 66.866066 
L 209.84722 88.72416 
L 223.05276 104.289211 
L 233.295773 117.663761 
" clip-path="url(#p6f4476590b)" style="fill: none; stroke: #b2b2b2; stroke-width: 0.8; stroke-linecap: square"/>
   </g>
   <g id="line2d_101">
    <path d="M 53.721227 60.895211 
L 72.333391 52.17981 
L 85.538931 45.005885 
L 95.781944 43.164222 
L 104.151095 42.805961 
L 117.356635 33.649228 
L 127.599648 40.144657 
L 132.390111 38.636922 
L 146.211812 43.130048 
L 159.417352 49.473056 
L 171.460723 60.822729 
L 178.029516 60.761433 
L 191.235056 53.407962 
L 209.84722 69.959985 
L 223.05276 83.872771 
L 233.295773 101.79599 
" clip-path="url(#p6f4476590b)" style="fill: none; stroke: #b2b2b2; stroke-width: 0.8; stroke-linecap: square"/>
   </g>
   <g id="line2d_102">
    <path d="M 53.721227 57.166452 
L 72.333391 55.74273 
L 85.538931 59.442042 
L 95.781944 47.140663 
L 104.151095 42.138894 
L 117.356635 42.985942 
L 127.599648 38.475146 
L 132.390111 38.636922 
L 146.211812 46.861881 
L 159.417352 47.153027 
L 171.460723 62.73807 
L 178.029516 60.579366 
L 191.235056 68.732005 
L 209.84722 76.86611 
L 223.05276 83.097912 
L 233.295773 98.707484 
" clip-path="url(#p6f4476590b)" style="fill: none; stroke: #b2b2b2; stroke-width: 0.8; stroke-linecap: square"/>
   </g>
   <g id="line2d_103">
    <path d="M 53.721227 47.705148 
L 72.333391 45.727504 
L 85.538931 43.277828 
L 95.781944 46.571309 
L 104.151095 43.448708 
L 117.356635 36.632706 
L 127.599648 39.341585 
L 132.390111 38.636922 
L 146.211812 46.478969 
L 159.417352 65.337 
L 171.460723 81.457462 
L 178.029516 81.299791 
L 191.235056 77.516363 
L 209.84722 94.974101 
L 223.05276 110.755251 
L 233.295773 117.644017 
" clip-path="url(#p6f4476590b)" style="fill: none; stroke: #b2b2b2; stroke-width: 0.8; stroke-linecap: square"/>
   </g>
   <g id="line2d_104">
    <path d="M 53.721227 46.512547 
L 72.333391 37.399448 
L 85.538931 34.053128 
L 95.781944 38.086133 
L 104.151095 36.095398 
L 117.356635 30.948565 
L 127.599648 36.400951 
L 132.390111 38.636922 
L 146.211812 49.752206 
L 159.417352 56.475364 
L 171.460723 51.019483 
L 178.029516 51.500399 
L 191.235056 59.01444 
L 209.84722 61.892501 
L 223.05276 88.614961 
L 233.295773 97.413341 
" clip-path="url(#p6f4476590b)" style="fill: none; stroke: #b2b2b2; stroke-width: 0.8; stroke-linecap: square"/>
   </g>
   <g id="line2d_105">
    <path d="M 53.721227 35.860389 
L 72.333391 31.158891 
L 85.538931 33.67265 
L 95.781944 30.34228 
L 104.151095 24.793767 
L 117.356635 31.210519 
L 127.599648 36.098902 
L 132.390111 38.636922 
L 146.211812 42.828922 
L 159.417352 55.886307 
L 171.460723 54.452501 
L 178.029516 58.267592 
L 191.235056 60.173334 
L 209.84722 74.064795 
L 223.05276 78.615324 
L 233.295773 99.655948 
" clip-path="url(#p6f4476590b)" style="fill: none; stroke: #b2b2b2; stroke-width: 0.8; stroke-linecap: square"/>
   </g>
   <g id="line2d_106">
    <path d="M 53.721227 52.017863 
L 72.333391 51.03044 
L 85.538931 51.914438 
L 95.781944 48.132031 
L 104.151095 45.624081 
L 117.356635 45.126947 
L 127.599648 45.174313 
L 132.390111 38.636922 
L 146.211812 39.999817 
L 159.417352 46.55456 
L 171.460723 53.59331 
L 178.029516 60.625167 
L 191.235056 74.011417 
L 209.84722 98.024751 
L 223.05276 109.316096 
L 233.295773 118.097383 
" clip-path="url(#p6f4476590b)" style="fill: none; stroke: #b2b2b2; stroke-width: 0.8; stroke-linecap: square"/>
   </g>
   <g id="line2d_107">
    <path d="M 53.721227 44.226049 
L 72.333391 38.683143 
L 85.538931 31.669658 
L 95.781944 35.175322 
L 104.151095 34.637196 
L 117.356635 34.926018 
L 127.599648 42.626047 
L 132.390111 38.636922 
L 146.211812 43.051125 
L 159.417352 42.373036 
L 171.460723 53.62612 
L 178.029516 68.393323 
L 191.235056 76.294841 
L 209.84722 95.80948 
L 223.05276 101.478706 
L 233.295773 113.140793 
" clip-path="url(#p6f4476590b)" style="fill: none; stroke: #b2b2b2; stroke-width: 0.8; stroke-linecap: square"/>
   </g>
   <g id="line2d_108">
    <path d="M 53.721227 44.441682 
L 72.333391 43.705431 
L 85.538931 32.602567 
L 95.781944 36.734492 
L 104.151095 37.66233 
L 117.356635 40.363606 
L 127.599648 37.641244 
L 132.390111 38.636922 
L 146.211812 39.813524 
L 159.417352 50.370408 
L 171.460723 66.690564 
L 178.029516 66.744418 
L 191.235056 82.84025 
L 209.84722 96.230949 
L 223.05276 105.328509 
L 233.295773 114.811854 
" clip-path="url(#p6f4476590b)" style="fill: none; stroke: #b2b2b2; stroke-width: 0.8; stroke-linecap: square"/>
   </g>
   <g id="line2d_109">
    <path d="M 53.721227 42.790715 
L 72.333391 41.415503 
L 85.538931 35.097251 
L 95.781944 35.789309 
L 104.151095 36.083444 
L 117.356635 30.138016 
L 127.599648 34.531456 
L 132.390111 38.636922 
L 146.211812 29.410758 
L 159.417352 36.917101 
L 171.460723 53.141216 
L 178.029516 55.737016 
L 191.235056 70.042572 
L 209.84722 80.115257 
L 223.05276 86.776192 
L 233.295773 96.473239 
" clip-path="url(#p6f4476590b)" style="fill: none; stroke: #b2b2b2; stroke-width: 0.8; stroke-linecap: square"/>
   </g>
   <g id="line2d_110">
    <path d="M 53.721227 48.337459 
L 72.333391 50.609253 
L 85.538931 48.222551 
L 95.781944 43.885425 
L 104.151095 45.619657 
L 117.356635 44.237888 
L 127.599648 36.768623 
L 132.390111 38.636922 
L 146.211812 41.979647 
L 159.417352 52.466732 
L 171.460723 62.304957 
L 178.029516 65.05069 
L 191.235056 68.362788 
L 209.84722 77.600823 
L 223.05276 97.517554 
L 233.295773 95.40417 
" clip-path="url(#p6f4476590b)" style="fill: none; stroke: #b2b2b2; stroke-width: 0.8; stroke-linecap: square"/>
   </g>
   <g id="line2d_111">
    <path d="M 53.721227 66.196952 
L 72.333391 58.179231 
L 85.538931 50.636667 
L 95.781944 49.451562 
L 104.151095 49.870514 
L 117.356635 39.377781 
L 127.599648 37.590855 
L 132.390111 38.636922 
L 146.211812 48.445989 
L 159.417352 61.106542 
L 171.460723 62.983065 
L 178.029516 65.185941 
L 191.235056 69.882905 
L 209.84722 82.198169 
L 223.05276 92.677882 
L 233.295773 104.278098 
" clip-path="url(#p6f4476590b)" style="fill: none; stroke: #b2b2b2; stroke-width: 0.8; stroke-linecap: square"/>
   </g>
   <g id="line2d_112">
    <path d="M 53.721227 51.76714 
L 72.333391 49.616379 
L 85.538931 43.855484 
L 95.781944 44.942514 
L 104.151095 35.918066 
L 117.356635 34.774245 
L 127.599648 35.512117 
L 132.390111 38.636922 
L 146.211812 38.873802 
L 159.417352 47.060782 
L 171.460723 57.77781 
L 178.029516 72.043328 
L 191.235056 78.621378 
L 209.84722 91.133881 
L 223.05276 85.819693 
L 233.295773 91.717097 
" clip-path="url(#p6f4476590b)" style="fill: none; stroke: #b2b2b2; stroke-width: 0.8; stroke-linecap: square"/>
   </g>
   <g id="line2d_113">
    <path d="M 53.721227 47.081645 
L 72.333391 42.534753 
L 85.538931 36.656083 
L 95.781944 38.243813 
L 104.151095 37.534951 
L 117.356635 42.531696 
L 127.599648 30.727686 
L 132.390111 38.636922 
L 146.211812 51.316802 
L 159.417352 68.046421 
L 171.460723 69.211635 
L 178.029516 72.902842 
L 191.235056 92.862899 
L 209.84722 102.962164 
L 223.05276 117.573336 
L 233.295773 127.858178 
" clip-path="url(#p6f4476590b)" style="fill: none; stroke: #b2b2b2; stroke-width: 0.8; stroke-linecap: square"/>
   </g>
   <g id="line2d_114">
    <path d="M 53.721227 61.738309 
L 72.333391 54.443647 
L 85.538931 49.318166 
L 95.781944 46.785787 
L 104.151095 44.82535 
L 117.356635 36.678013 
L 127.599648 35.32586 
L 132.390111 38.636922 
L 146.211812 54.334233 
L 159.417352 47.349769 
L 171.460723 51.397327 
L 178.029516 56.611605 
L 191.235056 63.099154 
L 209.84722 71.622677 
L 223.05276 77.763337 
L 233.295773 89.80693 
" clip-path="url(#p6f4476590b)" style="fill: none; stroke: #b2b2b2; stroke-width: 0.8; stroke-linecap: square"/>
   </g>
   <g id="line2d_115">
    <path d="M 53.721227 51.423012 
L 72.333391 45.670063 
L 85.538931 40.513415 
L 95.781944 39.340209 
L 104.151095 44.193529 
L 117.356635 38.132198 
L 127.599648 40.285804 
L 132.390111 38.636922 
L 146.211812 44.141898 
L 159.417352 53.795779 
L 171.460723 52.842808 
L 178.029516 62.108712 
L 191.235056 58.195034 
L 209.84722 74.442241 
L 223.05276 87.232632 
L 233.295773 88.425909 
" clip-path="url(#p6f4476590b)" style="fill: none; stroke: #b2b2b2; stroke-width: 0.8; stroke-linecap: square"/>
   </g>
   <g id="line2d_116">
    <path d="M 53.721227 44.485007 
L 72.333391 36.846731 
L 85.538931 30.922126 
L 95.781944 28.244239 
L 104.151095 32.377738 
L 117.356635 42.259471 
L 127.599648 39.484961 
L 132.390111 38.636922 
L 146.211812 37.01211 
L 159.417352 45.597514 
L 171.460723 53.56247 
L 178.029516 70.790209 
L 191.235056 73.312661 
L 209.84722 92.261281 
L 223.05276 90.36523 
L 233.295773 101.303175 
" clip-path="url(#p6f4476590b)" style="fill: none; stroke: #b2b2b2; stroke-width: 0.8; stroke-linecap: square"/>
   </g>
   <g id="line2d_117">
    <path d="M 53.721227 40.280629 
L 72.333391 46.046041 
L 85.538931 50.767127 
L 95.781944 48.540297 
L 104.151095 45.951122 
L 117.356635 42.633214 
L 127.599648 39.339569 
L 132.390111 38.636922 
L 146.211812 50.49614 
L 159.417352 56.07021 
L 171.460723 51.067751 
L 178.029516 59.009118 
L 191.235056 61.497619 
L 209.84722 80.422054 
L 223.05276 94.741218 
L 233.295773 104.225576 
" clip-path="url(#p6f4476590b)" style="fill: none; stroke: #b2b2b2; stroke-width: 0.8; stroke-linecap: square"/>
   </g>
   <g id="line2d_118">
    <path d="M 53.721227 61.97904 
L 72.333391 54.882444 
L 85.538931 54.004654 
L 95.781944 47.141862 
L 104.151095 45.82876 
L 117.356635 48.301055 
L 127.599648 44.669275 
L 132.390111 38.636922 
L 146.211812 39.57127 
L 159.417352 49.714787 
L 171.460723 57.7233 
L 178.029516 59.798053 
L 191.235056 77.460666 
L 209.84722 89.310765 
L 223.05276 100.490452 
L 233.295773 108.898147 
" clip-path="url(#p6f4476590b)" style="fill: none; stroke: #b2b2b2; stroke-width: 0.8; stroke-linecap: square"/>
   </g>
   <g id="line2d_119">
    <path d="M 53.721227 39.030043 
L 72.333391 28.111325 
L 85.538931 30.305948 
L 95.781944 37.635133 
L 104.151095 32.461607 
L 117.356635 34.054321 
L 127.599648 40.155018 
L 132.390111 38.636922 
L 146.211812 49.464608 
L 159.417352 61.146937 
L 171.460723 68.304459 
L 178.029516 69.131849 
L 191.235056 71.46028 
L 209.84722 95.392055 
L 223.05276 105.568581 
L 233.295773 114.544966 
" clip-path="url(#p6f4476590b)" style="fill: none; stroke: #b2b2b2; stroke-width: 0.8; stroke-linecap: square"/>
   </g>
   <g id="line2d_120">
    <path d="M 53.721227 25.311507 
L 72.333391 23.47388 
L 85.538931 20.56808 
L 95.781944 21.942939 
L 104.151095 22.053812 
L 117.356635 26.589953 
L 127.599648 34.196266 
L 132.390111 38.636922 
L 146.211812 42.139013 
L 159.417352 65.089585 
L 171.460723 69.115126 
L 178.029516 71.697285 
L 191.235056 74.19308 
L 209.84722 86.494058 
L 223.05276 94.755602 
L 233.295773 101.526098 
" clip-path="url(#p6f4476590b)" style="fill: none; stroke: #b2b2b2; stroke-width: 0.8; stroke-linecap: square"/>
   </g>
   <g id="line2d_121">
    <path d="M 53.721227 54.682195 
L 72.333391 44.611476 
L 85.538931 34.5821 
L 95.781944 35.535394 
L 104.151095 39.700843 
L 117.356635 43.216197 
L 127.599648 39.422222 
L 132.390111 38.636922 
L 146.211812 45.854289 
L 159.417352 52.272964 
L 171.460723 55.255802 
L 178.029516 56.631968 
L 191.235056 61.646909 
L 209.84722 72.830732 
L 223.05276 73.53856 
L 233.295773 66.919961 
" clip-path="url(#p6f4476590b)" style="fill: none; stroke: #b2b2b2; stroke-width: 0.8; stroke-linecap: square"/>
   </g>
   <g id="line2d_122">
    <path d="M 53.721227 42.666501 
L 72.333391 33.219198 
L 85.538931 31.389684 
L 95.781944 21.866071 
L 104.151095 25.477603 
L 117.356635 33.327193 
L 127.599648 35.982598 
L 132.390111 38.636922 
L 146.211812 46.282284 
L 159.417352 62.961727 
L 171.460723 59.018242 
L 178.029516 68.455063 
L 191.235056 76.37375 
L 209.84722 84.270029 
L 223.05276 88.262184 
L 233.295773 91.652724 
" clip-path="url(#p6f4476590b)" style="fill: none; stroke: #b2b2b2; stroke-width: 0.8; stroke-linecap: square"/>
   </g>
   <g id="line2d_123">
    <path d="M 53.721227 47.74234 
L 72.333391 40.541014 
L 85.538931 45.848741 
L 95.781944 45.087008 
L 104.151095 44.672426 
L 117.356635 48.408433 
L 127.599648 42.364982 
L 132.390111 38.636922 
L 146.211812 48.682551 
L 159.417352 49.245638 
L 171.460723 58.000606 
L 178.029516 67.902511 
L 191.235056 87.635148 
L 209.84722 92.638361 
L 223.05276 101.887182 
L 233.295773 103.604397 
" clip-path="url(#p6f4476590b)" style="fill: none; stroke: #b2b2b2; stroke-width: 0.8; stroke-linecap: square"/>
   </g>
   <g id="line2d_124">
    <path d="M 53.721227 53.248327 
L 72.333391 51.277338 
L 85.538931 48.44779 
L 95.781944 48.947738 
L 104.151095 47.167627 
L 117.356635 43.00569 
L 127.599648 35.881632 
L 132.390111 38.636922 
L 146.211812 44.988512 
L 159.417352 51.690009 
L 171.460723 59.587011 
L 178.029516 62.293489 
L 191.235056 76.75375 
L 209.84722 78.688115 
L 223.05276 87.953933 
L 233.295773 93.919505 
" clip-path="url(#p6f4476590b)" style="fill: none; stroke: #b2b2b2; stroke-width: 0.8; stroke-linecap: square"/>
   </g>
   <g id="line2d_125">
    <path d="M 53.721227 36.594788 
L 72.333391 43.760626 
L 85.538931 40.865857 
L 95.781944 41.134247 
L 104.151095 38.421197 
L 117.356635 36.463472 
L 127.599648 38.510122 
L 132.390111 38.636922 
L 146.211812 40.795194 
L 159.417352 48.023759 
L 171.460723 54.75267 
L 178.029516 69.382403 
L 191.235056 71.054608 
L 209.84722 94.173515 
L 223.05276 98.271841 
L 233.295773 102.291417 
" clip-path="url(#p6f4476590b)" style="fill: none; stroke: #b2b2b2; stroke-width: 0.8; stroke-linecap: square"/>
   </g>
   <g id="line2d_126">
    <path d="M 53.721227 58.379359 
L 72.333391 54.450007 
L 85.538931 50.312226 
L 95.781944 48.131762 
L 104.151095 45.018215 
L 117.356635 40.144635 
L 127.599648 38.565976 
L 132.390111 38.636922 
L 146.211812 36.661186 
L 159.417352 40.114361 
L 171.460723 45.81358 
L 178.029516 48.71006 
L 191.235056 58.893264 
L 209.84722 69.473154 
L 223.05276 69.204702 
L 233.295773 87.155207 
" clip-path="url(#p6f4476590b)" style="fill: none; stroke: #b2b2b2; stroke-width: 0.8; stroke-linecap: square"/>
   </g>
   <g id="line2d_127">
    <path d="M 53.721227 23.698039 
L 72.333391 26.853017 
L 85.538931 29.118097 
L 95.781944 27.876523 
L 104.151095 25.57555 
L 117.356635 24.177049 
L 127.599648 35.236323 
L 132.390111 38.636922 
L 146.211812 44.111861 
L 159.417352 50.589637 
L 171.460723 50.542105 
L 178.029516 56.809213 
L 191.235056 68.383659 
L 209.84722 81.343642 
L 223.05276 95.56679 
L 233.295773 108.595692 
" clip-path="url(#p6f4476590b)" style="fill: none; stroke: #b2b2b2; stroke-width: 0.8; stroke-linecap: square"/>
   </g>
   <g id="line2d_128">
    <path d="M 53.721227 42.608205 
L 72.333391 41.088602 
L 85.538931 38.536224 
L 95.781944 38.799307 
L 104.151095 41.575994 
L 117.356635 42.432517 
L 127.599648 37.893578 
L 132.390111 38.636922 
L 146.211812 43.939211 
L 159.417352 41.193936 
L 171.460723 51.535764 
L 178.029516 55.411438 
L 191.235056 71.97062 
L 209.84722 89.232802 
L 223.05276 105.475319 
L 233.295773 117.305616 
" clip-path="url(#p6f4476590b)" style="fill: none; stroke: #b2b2b2; stroke-width: 0.8; stroke-linecap: square"/>
   </g>
   <g id="line2d_129">
    <path d="M 53.721227 63.296068 
L 72.333391 53.954617 
L 85.538931 54.678585 
L 95.781944 56.614574 
L 104.151095 49.667546 
L 117.356635 46.889304 
L 127.599648 41.46726 
L 132.390111 38.636922 
L 146.211812 39.057991 
L 159.417352 39.479056 
L 171.460723 43.578385 
L 178.029516 48.63112 
L 191.235056 56.250919 
L 209.84722 71.459234 
L 223.05276 84.218166 
L 233.295773 85.225139 
" clip-path="url(#p6f4476590b)" style="fill: none; stroke: #b2b2b2; stroke-width: 0.8; stroke-linecap: square"/>
   </g>
   <g id="line2d_130">
    <path d="M 53.721227 45.010594 
L 72.333391 41.460922 
L 85.538931 37.487671 
L 95.781944 41.59898 
L 104.151095 30.642872 
L 117.356635 39.054127 
L 127.599648 40.316824 
L 132.390111 38.636922 
L 146.211812 47.10853 
L 159.417352 49.820972 
L 171.460723 54.726214 
L 178.029516 56.348777 
L 191.235056 67.659995 
L 209.84722 74.737517 
L 223.05276 86.014167 
L 233.295773 88.60096 
" clip-path="url(#p6f4476590b)" style="fill: none; stroke: #b2b2b2; stroke-width: 0.8; stroke-linecap: square"/>
   </g>
   <g id="line2d_131">
    <path d="M 53.721227 38.089762 
L 72.333391 35.158157 
L 85.538931 32.503867 
L 95.781944 32.340767 
L 104.151095 31.158239 
L 117.356635 34.09906 
L 127.599648 36.289046 
L 132.390111 38.636922 
L 146.211812 34.007151 
L 159.417352 46.732224 
L 171.460723 54.137002 
L 178.029516 51.351294 
L 191.235056 60.695372 
L 209.84722 64.108144 
L 223.05276 80.010012 
L 233.295773 91.51447 
" clip-path="url(#p6f4476590b)" style="fill: none; stroke: #b2b2b2; stroke-width: 0.8; stroke-linecap: square"/>
   </g>
   <g id="line2d_132">
    <path d="M 53.721227 43.897665 
L 72.333391 41.045807 
L 85.538931 44.492766 
L 95.781944 49.345852 
L 104.151095 40.332865 
L 117.356635 47.43826 
L 127.599648 40.782832 
L 132.390111 38.636922 
L 146.211812 48.070499 
L 159.417352 43.967762 
L 171.460723 54.977673 
L 178.029516 62.451615 
L 191.235056 66.066772 
L 209.84722 64.624571 
L 223.05276 81.37119 
L 233.295773 88.543439 
" clip-path="url(#p6f4476590b)" style="fill: none; stroke: #b2b2b2; stroke-width: 0.8; stroke-linecap: square"/>
   </g>
   <g id="line2d_133">
    <path d="M 53.721227 65.884439 
L 72.333391 63.540326 
L 85.538931 56.418977 
L 95.781944 49.930674 
L 104.151095 44.794403 
L 117.356635 44.642593 
L 127.599648 38.635196 
L 132.390111 38.636922 
L 146.211812 44.112971 
L 159.417352 51.204145 
L 171.460723 62.259944 
L 178.029516 60.986068 
L 191.235056 69.037449 
L 209.84722 72.360292 
L 223.05276 87.840056 
L 233.295773 103.872568 
" clip-path="url(#p6f4476590b)" style="fill: none; stroke: #b2b2b2; stroke-width: 0.8; stroke-linecap: square"/>
   </g>
   <g id="line2d_134">
    <path d="M 53.721227 50.123058 
L 72.333391 48.768184 
L 85.538931 40.52472 
L 95.781944 38.863443 
L 104.151095 38.792092 
L 117.356635 39.969361 
L 127.599648 37.71899 
L 132.390111 38.636922 
L 146.211812 42.025851 
L 159.417352 50.380819 
L 171.460723 57.187153 
L 178.029516 64.66019 
L 191.235056 80.694969 
L 209.84722 89.808222 
L 223.05276 104.603759 
L 233.295773 105.346175 
" clip-path="url(#p6f4476590b)" style="fill: none; stroke: #b2b2b2; stroke-width: 0.8; stroke-linecap: square"/>
   </g>
   <g id="line2d_135">
    <path d="M 53.721227 48.490101 
L 72.333391 43.722654 
L 85.538931 41.010366 
L 95.781944 39.830684 
L 104.151095 38.671365 
L 117.356635 38.145652 
L 127.599648 37.92401 
L 132.390111 38.636922 
L 146.211812 45.179695 
L 159.417352 52.138015 
L 171.460723 58.662446 
L 178.029516 62.61075 
L 191.235056 71.905094 
L 209.84722 84.428841 
L 223.05276 94.565191 
L 233.295773 103.373194 
" clip-path="url(#p6f4476590b)" style="fill: none; stroke: #ff0000; stroke-width: 2; stroke-linecap: square"/>
   </g>
   <g id="line2d_136">
    <path d="M 53.721227 24.733092 
L 72.333391 19.629442 
L 85.538931 18.809664 
L 95.781944 19.519931 
L 104.151095 20.559974 
L 117.356635 24.907791 
L 127.599648 30.62929 
L 132.390111 38.636921 
L 146.211812 32.563598 
L 159.417352 34.990942 
L 171.460723 38.89977 
L 178.029516 42.019518 
L 191.235056 50.400642 
L 209.84722 61.596298 
L 223.05276 71.581017 
L 233.295773 79.550704 
" clip-path="url(#p6f4476590b)" style="fill: none; stroke-dasharray: 7.4,3.2; stroke-dashoffset: 0; stroke: #ff0000; stroke-width: 2"/>
   </g>
   <g id="line2d_137">
    <path d="M 53.721227 72.247111 
L 72.333391 67.815866 
L 85.538931 63.211067 
L 95.781944 60.141438 
L 104.151095 56.782757 
L 117.356635 51.383513 
L 127.599648 45.21873 
L 132.390111 38.636922 
L 146.211812 57.795791 
L 159.417352 69.285088 
L 171.460723 78.425121 
L 178.029516 83.201981 
L 191.235056 93.409546 
L 209.84722 107.261384 
L 223.05276 117.549365 
L 233.295773 127.195684 
" clip-path="url(#p6f4476590b)" style="fill: none; stroke-dasharray: 7.4,3.2; stroke-dashoffset: 0; stroke: #ff0000; stroke-width: 2"/>
   </g>
   <g id="line2d_138">
    <path d="M 53.721227 48.538716 
L 72.333391 43.99547 
L 85.538931 41.032838 
L 95.781944 39.917629 
L 104.151095 38.714791 
L 117.356635 38.13764 
L 127.599648 37.780514 
L 132.390111 38.636922 
L 146.211812 45.464958 
L 159.417352 52.366792 
L 171.460723 58.592939 
L 178.029516 62.760909 
L 191.235056 71.761271 
L 209.84722 84.442803 
L 223.05276 94.570064 
L 233.295773 103.560771 
" clip-path="url(#p6f4476590b)" style="fill: none; stroke: #0000ff; stroke-width: 2; stroke-linecap: square"/>
   </g>
   <g id="line2d_139">
    <path d="M 53.721227 24.706966 
L 72.333391 19.970054 
L 85.538931 18.770474 
L 95.781944 19.482306 
L 104.151095 20.393968 
L 117.356635 24.555189 
L 127.599648 30.675648 
L 132.390111 38.636922 
L 146.211812 32.731895 
L 159.417352 34.998986 
L 171.460723 38.700795 
L 178.029516 42.172184 
L 191.235056 50.222345 
L 209.84722 61.675818 
L 223.05276 71.996489 
L 233.295773 79.694854 
" clip-path="url(#p6f4476590b)" style="fill: none; stroke-dasharray: 7.4,3.2; stroke-dashoffset: 0; stroke: #0000ff; stroke-width: 2"/>
   </g>
   <g id="line2d_140">
    <path d="M 53.721227 72.370466 
L 72.333391 68.020887 
L 85.538931 63.295201 
L 95.781944 60.352953 
L 104.151095 57.035614 
L 117.356635 51.720091 
L 127.599648 44.885379 
L 132.390111 38.636922 
L 146.211812 58.198021 
L 159.417352 69.734599 
L 171.460723 78.485083 
L 178.029516 83.349635 
L 191.235056 93.300196 
L 209.84722 107.209788 
L 223.05276 117.143639 
L 233.295773 127.426688 
" clip-path="url(#p6f4476590b)" style="fill: none; stroke-dasharray: 7.4,3.2; stroke-dashoffset: 0; stroke: #0000ff; stroke-width: 2"/>
   </g>
   <g id="patch_3">
    <path d="M 44.7425 140.302913 
L 44.7425 9.464513 
" style="fill: none; stroke: #000000; stroke-width: 0.8; stroke-linejoin: miter; stroke-linecap: square"/>
   </g>
   <g id="patch_4">
    <path d="M 242.2745 140.302913 
L 242.2745 9.464513 
" style="fill: none; stroke: #000000; stroke-width: 0.8; stroke-linejoin: miter; stroke-linecap: square"/>
   </g>
   <g id="patch_5">
    <path d="M 44.7425 140.302913 
L 242.2745 140.302913 
" style="fill: none; stroke: #000000; stroke-width: 0.8; stroke-linejoin: miter; stroke-linecap: square"/>
   </g>
   <g id="patch_6">
    <path d="M 44.7425 9.464513 
L 242.2745 9.464513 
" style="fill: none; stroke: #000000; stroke-width: 0.8; stroke-linejoin: miter; stroke-linecap: square"/>
   </g>
   <g id="legend_1">
    <g id="patch_7">
     <path d="M 247.8745 106.737463 
L 432.5945 106.737463 
Q 434.1945 106.737463 434.1945 105.137463 
L 434.1945 44.629963 
Q 434.1945 43.029963 432.5945 43.029963 
L 247.8745 43.029963 
Q 246.2745 43.029963 246.2745 44.629963 
L 246.2745 105.137463 
Q 246.2745 106.737463 247.8745 106.737463 
z
" style="fill: #ffffff; opacity: 0.8; stroke: #cccccc; stroke-linejoin: miter"/>
    </g>
    <g id="line2d_141">
     <path d="M 249.4745 49.508713 
L 257.4745 49.508713 
L 265.4745 49.508713 
" style="fill: none; stroke: #b2b2b2; stroke-width: 0.8; stroke-linecap: square"/>
    </g>
    <g id="text_8">
     <!-- Individual selected GMs -->
     <g transform="translate(271.8745 52.308713) scale(0.08 -0.08)">
      <defs>
       <path id="DejaVuSans-49" d="M 628 4666 
L 1259 4666 
L 1259 0 
L 628 0 
L 628 4666 
z
" transform="scale(0.015625)"/>
       <path id="DejaVuSans-76" d="M 191 3500 
L 800 3500 
L 1894 563 
L 2988 3500 
L 3597 3500 
L 2284 0 
L 1503 0 
L 191 3500 
z
" transform="scale(0.015625)"/>
       <path id="DejaVuSans-75" d="M 544 1381 
L 544 3500 
L 1119 3500 
L 1119 1403 
Q 1119 906 1312 657 
Q 1506 409 1894 409 
Q 2359 409 2629 706 
Q 2900 1003 2900 1516 
L 2900 3500 
L 3475 3500 
L 3475 0 
L 2900 0 
L 2900 538 
Q 2691 219 2414 64 
Q 2138 -91 1772 -91 
Q 1169 -91 856 284 
Q 544 659 544 1381 
z
M 1991 3584 
L 1991 3584 
z
" transform="scale(0.015625)"/>
       <path id="DejaVuSans-47" d="M 3809 666 
L 3809 1919 
L 2778 1919 
L 2778 2438 
L 4434 2438 
L 4434 434 
Q 4069 175 3628 42 
Q 3188 -91 2688 -91 
Q 1594 -91 976 548 
Q 359 1188 359 2328 
Q 359 3472 976 4111 
Q 1594 4750 2688 4750 
Q 3144 4750 3555 4637 
Q 3966 4525 4313 4306 
L 4313 3634 
Q 3963 3931 3569 4081 
Q 3175 4231 2741 4231 
Q 1884 4231 1454 3753 
Q 1025 3275 1025 2328 
Q 1025 1384 1454 906 
Q 1884 428 2741 428 
Q 3075 428 3337 486 
Q 3600 544 3809 666 
z
" transform="scale(0.015625)"/>
       <path id="DejaVuSans-4d" d="M 628 4666 
L 1569 4666 
L 2759 1491 
L 3956 4666 
L 4897 4666 
L 4897 0 
L 4281 0 
L 4281 4097 
L 3078 897 
L 2444 897 
L 1241 4097 
L 1241 0 
L 628 0 
L 628 4666 
z
" transform="scale(0.015625)"/>
      </defs>
      <use xlink:href="#DejaVuSans-49"/>
      <use xlink:href="#DejaVuSans-6e" x="29.492188"/>
      <use xlink:href="#DejaVuSans-64" x="92.871094"/>
      <use xlink:href="#DejaVuSans-69" x="156.347656"/>
      <use xlink:href="#DejaVuSans-76" x="184.130859"/>
      <use xlink:href="#DejaVuSans-69" x="243.310547"/>
      <use xlink:href="#DejaVuSans-64" x="271.09375"/>
      <use xlink:href="#DejaVuSans-75" x="334.570312"/>
      <use xlink:href="#DejaVuSans-61" x="397.949219"/>
      <use xlink:href="#DejaVuSans-6c" x="459.228516"/>
      <use xlink:href="#DejaVuSans-20" x="487.011719"/>
      <use xlink:href="#DejaVuSans-73" x="518.798828"/>
      <use xlink:href="#DejaVuSans-65" x="570.898438"/>
      <use xlink:href="#DejaVuSans-6c" x="632.421875"/>
      <use xlink:href="#DejaVuSans-65" x="660.205078"/>
      <use xlink:href="#DejaVuSans-63" x="721.728516"/>
      <use xlink:href="#DejaVuSans-74" x="776.708984"/>
      <use xlink:href="#DejaVuSans-65" x="815.917969"/>
      <use xlink:href="#DejaVuSans-64" x="877.441406"/>
      <use xlink:href="#DejaVuSans-20" x="940.917969"/>
      <use xlink:href="#DejaVuSans-47" x="972.705078"/>
      <use xlink:href="#DejaVuSans-4d" x="1050.195312"/>
      <use xlink:href="#DejaVuSans-73" x="1136.474609"/>
     </g>
    </g>
    <g id="line2d_142">
     <path d="M 249.4745 61.251213 
L 257.4745 61.251213 
L 265.4745 61.251213 
" style="fill: none; stroke: #ff0000; stroke-width: 2; stroke-linecap: square"/>
    </g>
    <g id="text_9">
     <!-- GCIM median -->
     <g transform="translate(271.8745 64.051213) scale(0.08 -0.08)">
      <defs>
       <path id="DejaVuSans-43" d="M 4122 4306 
L 4122 3641 
Q 3803 3938 3442 4084 
Q 3081 4231 2675 4231 
Q 1875 4231 1450 3742 
Q 1025 3253 1025 2328 
Q 1025 1406 1450 917 
Q 1875 428 2675 428 
Q 3081 428 3442 575 
Q 3803 722 4122 1019 
L 4122 359 
Q 3791 134 3420 21 
Q 3050 -91 2638 -91 
Q 1578 -91 968 557 
Q 359 1206 359 2328 
Q 359 3453 968 4101 
Q 1578 4750 2638 4750 
Q 3056 4750 3426 4639 
Q 3797 4528 4122 4306 
z
" transform="scale(0.015625)"/>
       <path id="DejaVuSans-6d" d="M 3328 2828 
Q 3544 3216 3844 3400 
Q 4144 3584 4550 3584 
Q 5097 3584 5394 3201 
Q 5691 2819 5691 2113 
L 5691 0 
L 5113 0 
L 5113 2094 
Q 5113 2597 4934 2840 
Q 4756 3084 4391 3084 
Q 3944 3084 3684 2787 
Q 3425 2491 3425 1978 
L 3425 0 
L 2847 0 
L 2847 2094 
Q 2847 2600 2669 2842 
Q 2491 3084 2119 3084 
Q 1678 3084 1418 2786 
Q 1159 2488 1159 1978 
L 1159 0 
L 581 0 
L 581 3500 
L 1159 3500 
L 1159 2956 
Q 1356 3278 1631 3431 
Q 1906 3584 2284 3584 
Q 2666 3584 2933 3390 
Q 3200 3197 3328 2828 
z
" transform="scale(0.015625)"/>
      </defs>
      <use xlink:href="#DejaVuSans-47"/>
      <use xlink:href="#DejaVuSans-43" x="77.490234"/>
      <use xlink:href="#DejaVuSans-49" x="147.314453"/>
      <use xlink:href="#DejaVuSans-4d" x="176.806641"/>
      <use xlink:href="#DejaVuSans-20" x="263.085938"/>
      <use xlink:href="#DejaVuSans-6d" x="294.873047"/>
      <use xlink:href="#DejaVuSans-65" x="392.285156"/>
      <use xlink:href="#DejaVuSans-64" x="453.808594"/>
      <use xlink:href="#DejaVuSans-69" x="517.285156"/>
      <use xlink:href="#DejaVuSans-61" x="545.068359"/>
      <use xlink:href="#DejaVuSans-6e" x="606.347656"/>
     </g>
    </g>
    <g id="line2d_143">
     <path d="M 249.4745 74.274963 
L 257.4745 74.274963 
L 265.4745 74.274963 
" style="fill: none; stroke-dasharray: 7.4,3.2; stroke-dashoffset: 0; stroke: #ff0000; stroke-width: 2"/>
    </g>
    <g id="text_10">
     <!-- GCIM $16^{th}$ and $84^{th}$ percentiles -->
     <g transform="translate(271.8745 77.074963) scale(0.08 -0.08)">
      <defs>
       <path id="DejaVuSans-36" d="M 2113 2584 
Q 1688 2584 1439 2293 
Q 1191 2003 1191 1497 
Q 1191 994 1439 701 
Q 1688 409 2113 409 
Q 2538 409 2786 701 
Q 3034 994 3034 1497 
Q 3034 2003 2786 2293 
Q 2538 2584 2113 2584 
z
M 3366 4563 
L 3366 3988 
Q 3128 4100 2886 4159 
Q 2644 4219 2406 4219 
Q 1781 4219 1451 3797 
Q 1122 3375 1075 2522 
Q 1259 2794 1537 2939 
Q 1816 3084 2150 3084 
Q 2853 3084 3261 2657 
Q 3669 2231 3669 1497 
Q 3669 778 3244 343 
Q 2819 -91 2113 -91 
Q 1303 -91 875 529 
Q 447 1150 447 2328 
Q 447 3434 972 4092 
Q 1497 4750 2381 4750 
Q 2619 4750 2861 4703 
Q 3103 4656 3366 4563 
z
" transform="scale(0.015625)"/>
       <path id="DejaVuSans-Oblique-74" d="M 2706 3500 
L 2619 3053 
L 1472 3053 
L 1100 1153 
Q 1081 1047 1072 975 
Q 1063 903 1063 863 
Q 1063 663 1183 572 
Q 1303 481 1569 481 
L 2150 481 
L 2053 0 
L 1503 0 
Q 991 0 739 200 
Q 488 400 488 806 
Q 488 878 497 964 
Q 506 1050 525 1153 
L 897 3053 
L 409 3053 
L 500 3500 
L 978 3500 
L 1172 4494 
L 1747 4494 
L 1556 3500 
L 2706 3500 
z
" transform="scale(0.015625)"/>
       <path id="DejaVuSans-Oblique-68" d="M 3566 2113 
L 3156 0 
L 2578 0 
L 2988 2091 
Q 3016 2238 3031 2350 
Q 3047 2463 3047 2528 
Q 3047 2791 2881 2937 
Q 2716 3084 2419 3084 
Q 1956 3084 1617 2771 
Q 1278 2459 1178 1941 
L 800 0 
L 225 0 
L 1172 4863 
L 1747 4863 
L 1375 2950 
Q 1594 3244 1934 3414 
Q 2275 3584 2650 3584 
Q 3113 3584 3367 3334 
Q 3622 3084 3622 2631 
Q 3622 2519 3608 2391 
Q 3594 2263 3566 2113 
z
" transform="scale(0.015625)"/>
       <path id="DejaVuSans-38" d="M 2034 2216 
Q 1584 2216 1326 1975 
Q 1069 1734 1069 1313 
Q 1069 891 1326 650 
Q 1584 409 2034 409 
Q 2484 409 2743 651 
Q 3003 894 3003 1313 
Q 3003 1734 2745 1975 
Q 2488 2216 2034 2216 
z
M 1403 2484 
Q 997 2584 770 2862 
Q 544 3141 544 3541 
Q 544 4100 942 4425 
Q 1341 4750 2034 4750 
Q 2731 4750 3128 4425 
Q 3525 4100 3525 3541 
Q 3525 3141 3298 2862 
Q 3072 2584 2669 2484 
Q 3125 2378 3379 2068 
Q 3634 1759 3634 1313 
Q 3634 634 3220 271 
Q 2806 -91 2034 -91 
Q 1263 -91 848 271 
Q 434 634 434 1313 
Q 434 1759 690 2068 
Q 947 2378 1403 2484 
z
M 1172 3481 
Q 1172 3119 1398 2916 
Q 1625 2713 2034 2713 
Q 2441 2713 2670 2916 
Q 2900 3119 2900 3481 
Q 2900 3844 2670 4047 
Q 2441 4250 2034 4250 
Q 1625 4250 1398 4047 
Q 1172 3844 1172 3481 
z
" transform="scale(0.015625)"/>
       <path id="DejaVuSans-34" d="M 2419 4116 
L 825 1625 
L 2419 1625 
L 2419 4116 
z
M 2253 4666 
L 3047 4666 
L 3047 1625 
L 3713 1625 
L 3713 1100 
L 3047 1100 
L 3047 0 
L 2419 0 
L 2419 1100 
L 313 1100 
L 313 1709 
L 2253 4666 
z
" transform="scale(0.015625)"/>
      </defs>
      <use xlink:href="#DejaVuSans-47" transform="translate(0 0.529687)"/>
      <use xlink:href="#DejaVuSans-43" transform="translate(77.490234 0.529687)"/>
      <use xlink:href="#DejaVuSans-49" transform="translate(147.314453 0.529687)"/>
      <use xlink:href="#DejaVuSans-4d" transform="translate(176.806641 0.529687)"/>
      <use xlink:href="#DejaVuSans-20" transform="translate(263.085938 0.529687)"/>
      <use xlink:href="#DejaVuSans-31" transform="translate(294.873047 0.529687)"/>
      <use xlink:href="#DejaVuSans-36" transform="translate(358.496094 0.529687)"/>
      <use xlink:href="#DejaVuSans-Oblique-74" transform="translate(423.076172 38.810937) scale(0.7)"/>
      <use xlink:href="#DejaVuSans-Oblique-68" transform="translate(450.522461 38.810937) scale(0.7)"/>
      <use xlink:href="#DejaVuSans-20" transform="translate(497.62207 0.529687)"/>
      <use xlink:href="#DejaVuSans-61" transform="translate(529.40918 0.529687)"/>
      <use xlink:href="#DejaVuSans-6e" transform="translate(590.688477 0.529687)"/>
      <use xlink:href="#DejaVuSans-64" transform="translate(654.067383 0.529687)"/>
      <use xlink:href="#DejaVuSans-20" transform="translate(717.543945 0.529687)"/>
      <use xlink:href="#DejaVuSans-38" transform="translate(749.331055 0.529687)"/>
      <use xlink:href="#DejaVuSans-34" transform="translate(812.954102 0.529687)"/>
      <use xlink:href="#DejaVuSans-Oblique-74" transform="translate(877.53418 38.810937) scale(0.7)"/>
      <use xlink:href="#DejaVuSans-Oblique-68" transform="translate(904.980469 38.810937) scale(0.7)"/>
      <use xlink:href="#DejaVuSans-20" transform="translate(952.080078 0.529687)"/>
      <use xlink:href="#DejaVuSans-70" transform="translate(983.867188 0.529687)"/>
      <use xlink:href="#DejaVuSans-65" transform="translate(1047.34375 0.529687)"/>
      <use xlink:href="#DejaVuSans-72" transform="translate(1108.867188 0.529687)"/>
      <use xlink:href="#DejaVuSans-63" transform="translate(1149.980469 0.529687)"/>
      <use xlink:href="#DejaVuSans-65" transform="translate(1204.960938 0.529687)"/>
      <use xlink:href="#DejaVuSans-6e" transform="translate(1266.484375 0.529687)"/>
      <use xlink:href="#DejaVuSans-74" transform="translate(1329.863281 0.529687)"/>
      <use xlink:href="#DejaVuSans-69" transform="translate(1369.072266 0.529687)"/>
      <use xlink:href="#DejaVuSans-6c" transform="translate(1396.855469 0.529687)"/>
      <use xlink:href="#DejaVuSans-65" transform="translate(1424.638672 0.529687)"/>
      <use xlink:href="#DejaVuSans-73" transform="translate(1486.162109 0.529687)"/>
     </g>
    </g>
    <g id="line2d_144">
     <path d="M 249.4745 86.033713 
L 257.4745 86.033713 
L 265.4745 86.033713 
" style="fill: none; stroke: #0000ff; stroke-width: 2; stroke-linecap: square"/>
    </g>
    <g id="text_11">
     <!-- Selected GMs median -->
     <g transform="translate(271.8745 88.833713) scale(0.08 -0.08)">
      <use xlink:href="#DejaVuSans-53"/>
      <use xlink:href="#DejaVuSans-65" x="63.476562"/>
      <use xlink:href="#DejaVuSans-6c" x="125"/>
      <use xlink:href="#DejaVuSans-65" x="152.783203"/>
      <use xlink:href="#DejaVuSans-63" x="214.306641"/>
      <use xlink:href="#DejaVuSans-74" x="269.287109"/>
      <use xlink:href="#DejaVuSans-65" x="308.496094"/>
      <use xlink:href="#DejaVuSans-64" x="370.019531"/>
      <use xlink:href="#DejaVuSans-20" x="433.496094"/>
      <use xlink:href="#DejaVuSans-47" x="465.283203"/>
      <use xlink:href="#DejaVuSans-4d" x="542.773438"/>
      <use xlink:href="#DejaVuSans-73" x="629.052734"/>
      <use xlink:href="#DejaVuSans-20" x="681.152344"/>
      <use xlink:href="#DejaVuSans-6d" x="712.939453"/>
      <use xlink:href="#DejaVuSans-65" x="810.351562"/>
      <use xlink:href="#DejaVuSans-64" x="871.875"/>
      <use xlink:href="#DejaVuSans-69" x="935.351562"/>
      <use xlink:href="#DejaVuSans-61" x="963.134766"/>
      <use xlink:href="#DejaVuSans-6e" x="1024.414062"/>
     </g>
    </g>
    <g id="line2d_145">
     <path d="M 249.4745 99.057463 
L 257.4745 99.057463 
L 265.4745 99.057463 
" style="fill: none; stroke-dasharray: 7.4,3.2; stroke-dashoffset: 0; stroke: #0000ff; stroke-width: 2"/>
    </g>
    <g id="text_12">
     <!-- Selected GMs, $16^{th}$ and $84^{th}$ percentiles -->
     <g transform="translate(271.8745 101.857463) scale(0.08 -0.08)">
      <use xlink:href="#DejaVuSans-53" transform="translate(0 0.529687)"/>
      <use xlink:href="#DejaVuSans-65" transform="translate(63.476562 0.529687)"/>
      <use xlink:href="#DejaVuSans-6c" transform="translate(125 0.529687)"/>
      <use xlink:href="#DejaVuSans-65" transform="translate(152.783203 0.529687)"/>
      <use xlink:href="#DejaVuSans-63" transform="translate(214.306641 0.529687)"/>
      <use xlink:href="#DejaVuSans-74" transform="translate(269.287109 0.529687)"/>
      <use xlink:href="#DejaVuSans-65" transform="translate(308.496094 0.529687)"/>
      <use xlink:href="#DejaVuSans-64" transform="translate(370.019531 0.529687)"/>
      <use xlink:href="#DejaVuSans-20" transform="translate(433.496094 0.529687)"/>
      <use xlink:href="#DejaVuSans-47" transform="translate(465.283203 0.529687)"/>
      <use xlink:href="#DejaVuSans-4d" transform="translate(542.773438 0.529687)"/>
      <use xlink:href="#DejaVuSans-73" transform="translate(629.052734 0.529687)"/>
      <use xlink:href="#DejaVuSans-2c" transform="translate(681.152344 0.529687)"/>
      <use xlink:href="#DejaVuSans-20" transform="translate(712.939453 0.529687)"/>
      <use xlink:href="#DejaVuSans-31" transform="translate(744.726562 0.529687)"/>
      <use xlink:href="#DejaVuSans-36" transform="translate(808.349609 0.529687)"/>
      <use xlink:href="#DejaVuSans-Oblique-74" transform="translate(872.929688 38.810937) scale(0.7)"/>
      <use xlink:href="#DejaVuSans-Oblique-68" transform="translate(900.375977 38.810937) scale(0.7)"/>
      <use xlink:href="#DejaVuSans-20" transform="translate(947.475586 0.529687)"/>
      <use xlink:href="#DejaVuSans-61" transform="translate(979.262695 0.529687)"/>
      <use xlink:href="#DejaVuSans-6e" transform="translate(1040.541992 0.529687)"/>
      <use xlink:href="#DejaVuSans-64" transform="translate(1103.920898 0.529687)"/>
      <use xlink:href="#DejaVuSans-20" transform="translate(1167.397461 0.529687)"/>
      <use xlink:href="#DejaVuSans-38" transform="translate(1199.18457 0.529687)"/>
      <use xlink:href="#DejaVuSans-34" transform="translate(1262.807617 0.529687)"/>
      <use xlink:href="#DejaVuSans-Oblique-74" transform="translate(1327.387695 38.810937) scale(0.7)"/>
      <use xlink:href="#DejaVuSans-Oblique-68" transform="translate(1354.833984 38.810937) scale(0.7)"/>
      <use xlink:href="#DejaVuSans-20" transform="translate(1401.933594 0.529687)"/>
      <use xlink:href="#DejaVuSans-70" transform="translate(1433.720703 0.529687)"/>
      <use xlink:href="#DejaVuSans-65" transform="translate(1497.197266 0.529687)"/>
      <use xlink:href="#DejaVuSans-72" transform="translate(1558.720703 0.529687)"/>
      <use xlink:href="#DejaVuSans-63" transform="translate(1599.833984 0.529687)"/>
      <use xlink:href="#DejaVuSans-65" transform="translate(1654.814453 0.529687)"/>
      <use xlink:href="#DejaVuSans-6e" transform="translate(1716.337891 0.529687)"/>
      <use xlink:href="#DejaVuSans-74" transform="translate(1779.716797 0.529687)"/>
      <use xlink:href="#DejaVuSans-69" transform="translate(1818.925781 0.529687)"/>
      <use xlink:href="#DejaVuSans-6c" transform="translate(1846.708984 0.529687)"/>
      <use xlink:href="#DejaVuSans-65" transform="translate(1874.492188 0.529687)"/>
      <use xlink:href="#DejaVuSans-73" transform="translate(1936.015625 0.529687)"/>
     </g>
    </g>
   </g>
  </g>
 </g>
 <defs>
  <clipPath id="p6f4476590b">
   <rect x="44.7425" y="9.464513" width="197.532" height="130.8384"/>
  </clipPath>
 </defs>
</svg>
