<?xml version="1.0" encoding="utf-8" standalone="no"?>
<!DOCTYPE svg PUBLIC "-//W3C//DTD SVG 1.1//EN"
  "http://www.w3.org/Graphics/SVG/1.1/DTD/svg11.dtd">
<svg xmlns:xlink="http://www.w3.org/1999/xlink" width="441.3945pt" height="171.7234pt" viewBox="0 0 441.3945 171.7234" xmlns="http://www.w3.org/2000/svg" version="1.1">
 <metadata>
  <rdf:RDF xmlns:dc="http://purl.org/dc/elements/1.1/" xmlns:cc="http://creativecommons.org/ns#" xmlns:rdf="http://www.w3.org/1999/02/22-rdf-syntax-ns#">
   <cc:Work>
    <dc:type rdf:resource="http://purl.org/dc/dcmitype/StillImage"/>
    <dc:date>2024-10-31T11:53:19.192867</dc:date>
    <dc:format>image/svg+xml</dc:format>
    <dc:creator>
     <cc:Agent>
      <dc:title>Matplotlib v3.8.2, https://matplotlib.org/</dc:title>
     </cc:Agent>
    </dc:creator>
   </cc:Work>
  </rdf:RDF>
 </metadata>
 <defs>
  <style type="text/css">*{stroke-linejoin: round; stroke-linecap: butt}</style>
 </defs>
 <g id="figure_1">
  <g id="patch_1">
   <path d="M 0 171.7234 
L 441.3945 171.7234 
L 441.3945 0 
L 0 0 
z
" style="fill: #ffffff"/>
  </g>
  <g id="axes_1">
   <g id="patch_2">
    <path d="M 44.7425 138.0384 
L 242.2745 138.0384 
L 242.2745 7.2 
L 44.7425 7.2 
z
" style="fill: #ffffff"/>
   </g>
   <g id="matplotlib.axis_1">
    <g id="xtick_1">
     <g id="line2d_1">
      <path d="M 53.721227 138.0384 
L 53.721227 7.2 
" clip-path="url(#pda81f9c850)" style="fill: none; stroke: #d9d9d9; stroke-width: 0.8; stroke-linecap: square"/>
     </g>
     <g id="line2d_2">
      <defs>
       <path id="med773ae915" d="M 0 0 
L 0 3.5 
" style="stroke: #000000; stroke-width: 0.8"/>
      </defs>
      <g>
       <use xlink:href="#med773ae915" x="53.721227" y="138.0384" style="stroke: #000000; stroke-width: 0.8"/>
      </g>
     </g>
     <g id="text_1">
      <!-- $\mathdefault{10^{-1}}$ -->
      <g transform="translate(44.321227 151.11715) scale(0.08 -0.08)">
       <defs>
        <path id="DejaVuSans-31" d="M 794 531 
L 1825 531 
L 1825 4091 
L 703 3866 
L 703 4441 
L 1819 4666 
L 2450 4666 
L 2450 531 
L 3481 531 
L 3481 0 
L 794 0 
L 794 531 
z
" transform="scale(0.015625)"/>
        <path id="DejaVuSans-30" d="M 2034 4250 
Q 1547 4250 1301 3770 
Q 1056 3291 1056 2328 
Q 1056 1369 1301 889 
Q 1547 409 2034 409 
Q 2525 409 2770 889 
Q 3016 1369 3016 2328 
Q 3016 3291 2770 3770 
Q 2525 4250 2034 4250 
z
M 2034 4750 
Q 2819 4750 3233 4129 
Q 3647 3509 3647 2328 
Q 3647 1150 3233 529 
Q 2819 -91 2034 -91 
Q 1250 -91 836 529 
Q 422 1150 422 2328 
Q 422 3509 836 4129 
Q 1250 4750 2034 4750 
z
" transform="scale(0.015625)"/>
        <path id="DejaVuSans-2212" d="M 678 2272 
L 4684 2272 
L 4684 1741 
L 678 1741 
L 678 2272 
z
" transform="scale(0.015625)"/>
       </defs>
       <use xlink:href="#DejaVuSans-31" transform="translate(0 0.684375)"/>
       <use xlink:href="#DejaVuSans-30" transform="translate(63.623047 0.684375)"/>
       <use xlink:href="#DejaVuSans-2212" transform="translate(128.203125 38.965625) scale(0.7)"/>
       <use xlink:href="#DejaVuSans-31" transform="translate(186.855469 38.965625) scale(0.7)"/>
      </g>
     </g>
    </g>
    <g id="xtick_2">
     <g id="line2d_3">
      <path d="M 159.417352 138.0384 
L 159.417352 7.2 
" clip-path="url(#pda81f9c850)" style="fill: none; stroke: #d9d9d9; stroke-width: 0.8; stroke-linecap: square"/>
     </g>
     <g id="line2d_4">
      <g>
       <use xlink:href="#med773ae915" x="159.417352" y="138.0384" style="stroke: #000000; stroke-width: 0.8"/>
      </g>
     </g>
     <g id="text_2">
      <!-- $\mathdefault{10^{0}}$ -->
      <g transform="translate(152.377352 151.11715) scale(0.08 -0.08)">
       <use xlink:href="#DejaVuSans-31" transform="translate(0 0.765625)"/>
       <use xlink:href="#DejaVuSans-30" transform="translate(63.623047 0.765625)"/>
       <use xlink:href="#DejaVuSans-30" transform="translate(128.203125 39.046875) scale(0.7)"/>
      </g>
     </g>
    </g>
    <g id="xtick_3">
     <g id="line2d_5">
      <path d="M 48.884838 138.0384 
L 48.884838 7.2 
" clip-path="url(#pda81f9c850)" style="fill: none; stroke-dasharray: 2.96,1.28; stroke-dashoffset: 0; stroke: #f2f2f2; stroke-width: 0.8"/>
     </g>
     <g id="line2d_6">
      <defs>
       <path id="m3580c38527" d="M 0 0 
L 0 2 
" style="stroke: #000000; stroke-width: 0.6"/>
      </defs>
      <g>
       <use xlink:href="#m3580c38527" x="48.884838" y="138.0384" style="stroke: #000000; stroke-width: 0.6"/>
      </g>
     </g>
    </g>
    <g id="xtick_4">
     <g id="line2d_7">
      <path d="M 85.538931 138.0384 
L 85.538931 7.2 
" clip-path="url(#pda81f9c850)" style="fill: none; stroke-dasharray: 2.96,1.28; stroke-dashoffset: 0; stroke: #f2f2f2; stroke-width: 0.8"/>
     </g>
     <g id="line2d_8">
      <g>
       <use xlink:href="#m3580c38527" x="85.538931" y="138.0384" style="stroke: #000000; stroke-width: 0.6"/>
      </g>
     </g>
    </g>
    <g id="xtick_5">
     <g id="line2d_9">
      <path d="M 104.151095 138.0384 
L 104.151095 7.2 
" clip-path="url(#pda81f9c850)" style="fill: none; stroke-dasharray: 2.96,1.28; stroke-dashoffset: 0; stroke: #f2f2f2; stroke-width: 0.8"/>
     </g>
     <g id="line2d_10">
      <g>
       <use xlink:href="#m3580c38527" x="104.151095" y="138.0384" style="stroke: #000000; stroke-width: 0.6"/>
      </g>
     </g>
    </g>
    <g id="xtick_6">
     <g id="line2d_11">
      <path d="M 117.356635 138.0384 
L 117.356635 7.2 
" clip-path="url(#pda81f9c850)" style="fill: none; stroke-dasharray: 2.96,1.28; stroke-dashoffset: 0; stroke: #f2f2f2; stroke-width: 0.8"/>
     </g>
     <g id="line2d_12">
      <g>
       <use xlink:href="#m3580c38527" x="117.356635" y="138.0384" style="stroke: #000000; stroke-width: 0.6"/>
      </g>
     </g>
    </g>
    <g id="xtick_7">
     <g id="line2d_13">
      <path d="M 127.599648 138.0384 
L 127.599648 7.2 
" clip-path="url(#pda81f9c850)" style="fill: none; stroke-dasharray: 2.96,1.28; stroke-dashoffset: 0; stroke: #f2f2f2; stroke-width: 0.8"/>
     </g>
     <g id="line2d_14">
      <g>
       <use xlink:href="#m3580c38527" x="127.599648" y="138.0384" style="stroke: #000000; stroke-width: 0.6"/>
      </g>
     </g>
    </g>
    <g id="xtick_8">
     <g id="line2d_15">
      <path d="M 135.968799 138.0384 
L 135.968799 7.2 
" clip-path="url(#pda81f9c850)" style="fill: none; stroke-dasharray: 2.96,1.28; stroke-dashoffset: 0; stroke: #f2f2f2; stroke-width: 0.8"/>
     </g>
     <g id="line2d_16">
      <g>
       <use xlink:href="#m3580c38527" x="135.968799" y="138.0384" style="stroke: #000000; stroke-width: 0.6"/>
      </g>
     </g>
    </g>
    <g id="xtick_9">
     <g id="line2d_17">
      <path d="M 143.044815 138.0384 
L 143.044815 7.2 
" clip-path="url(#pda81f9c850)" style="fill: none; stroke-dasharray: 2.96,1.28; stroke-dashoffset: 0; stroke: #f2f2f2; stroke-width: 0.8"/>
     </g>
     <g id="line2d_18">
      <g>
       <use xlink:href="#m3580c38527" x="143.044815" y="138.0384" style="stroke: #000000; stroke-width: 0.6"/>
      </g>
     </g>
    </g>
    <g id="xtick_10">
     <g id="line2d_19">
      <path d="M 149.174339 138.0384 
L 149.174339 7.2 
" clip-path="url(#pda81f9c850)" style="fill: none; stroke-dasharray: 2.96,1.28; stroke-dashoffset: 0; stroke: #f2f2f2; stroke-width: 0.8"/>
     </g>
     <g id="line2d_20">
      <g>
       <use xlink:href="#m3580c38527" x="149.174339" y="138.0384" style="stroke: #000000; stroke-width: 0.6"/>
      </g>
     </g>
    </g>
    <g id="xtick_11">
     <g id="line2d_21">
      <path d="M 154.580963 138.0384 
L 154.580963 7.2 
" clip-path="url(#pda81f9c850)" style="fill: none; stroke-dasharray: 2.96,1.28; stroke-dashoffset: 0; stroke: #f2f2f2; stroke-width: 0.8"/>
     </g>
     <g id="line2d_22">
      <g>
       <use xlink:href="#m3580c38527" x="154.580963" y="138.0384" style="stroke: #000000; stroke-width: 0.6"/>
      </g>
     </g>
    </g>
    <g id="xtick_12">
     <g id="line2d_23">
      <path d="M 191.235056 138.0384 
L 191.235056 7.2 
" clip-path="url(#pda81f9c850)" style="fill: none; stroke-dasharray: 2.96,1.28; stroke-dashoffset: 0; stroke: #f2f2f2; stroke-width: 0.8"/>
     </g>
     <g id="line2d_24">
      <g>
       <use xlink:href="#m3580c38527" x="191.235056" y="138.0384" style="stroke: #000000; stroke-width: 0.6"/>
      </g>
     </g>
    </g>
    <g id="xtick_13">
     <g id="line2d_25">
      <path d="M 209.84722 138.0384 
L 209.84722 7.2 
" clip-path="url(#pda81f9c850)" style="fill: none; stroke-dasharray: 2.96,1.28; stroke-dashoffset: 0; stroke: #f2f2f2; stroke-width: 0.8"/>
     </g>
     <g id="line2d_26">
      <g>
       <use xlink:href="#m3580c38527" x="209.84722" y="138.0384" style="stroke: #000000; stroke-width: 0.6"/>
      </g>
     </g>
    </g>
    <g id="xtick_14">
     <g id="line2d_27">
      <path d="M 223.05276 138.0384 
L 223.05276 7.2 
" clip-path="url(#pda81f9c850)" style="fill: none; stroke-dasharray: 2.96,1.28; stroke-dashoffset: 0; stroke: #f2f2f2; stroke-width: 0.8"/>
     </g>
     <g id="line2d_28">
      <g>
       <use xlink:href="#m3580c38527" x="223.05276" y="138.0384" style="stroke: #000000; stroke-width: 0.6"/>
      </g>
     </g>
    </g>
    <g id="xtick_15">
     <g id="line2d_29">
      <path d="M 233.295773 138.0384 
L 233.295773 7.2 
" clip-path="url(#pda81f9c850)" style="fill: none; stroke-dasharray: 2.96,1.28; stroke-dashoffset: 0; stroke: #f2f2f2; stroke-width: 0.8"/>
     </g>
     <g id="line2d_30">
      <g>
       <use xlink:href="#m3580c38527" x="233.295773" y="138.0384" style="stroke: #000000; stroke-width: 0.6"/>
      </g>
     </g>
    </g>
    <g id="xtick_16">
     <g id="line2d_31">
      <path d="M 241.664924 138.0384 
L 241.664924 7.2 
" clip-path="url(#pda81f9c850)" style="fill: none; stroke-dasharray: 2.96,1.28; stroke-dashoffset: 0; stroke: #f2f2f2; stroke-width: 0.8"/>
     </g>
     <g id="line2d_32">
      <g>
       <use xlink:href="#m3580c38527" x="241.664924" y="138.0384" style="stroke: #000000; stroke-width: 0.6"/>
      </g>
     </g>
    </g>
    <g id="text_3">
     <!-- Period, T (s) -->
     <g transform="translate(119.576 162.85965) scale(0.08 -0.08)">
      <defs>
       <path id="DejaVuSans-50" d="M 1259 4147 
L 1259 2394 
L 2053 2394 
Q 2494 2394 2734 2622 
Q 2975 2850 2975 3272 
Q 2975 3691 2734 3919 
Q 2494 4147 2053 4147 
L 1259 4147 
z
M 628 4666 
L 2053 4666 
Q 2838 4666 3239 4311 
Q 3641 3956 3641 3272 
Q 3641 2581 3239 2228 
Q 2838 1875 2053 1875 
L 1259 1875 
L 1259 0 
L 628 0 
L 628 4666 
z
" transform="scale(0.015625)"/>
       <path id="DejaVuSans-65" d="M 3597 1894 
L 3597 1613 
L 953 1613 
Q 991 1019 1311 708 
Q 1631 397 2203 397 
Q 2534 397 2845 478 
Q 3156 559 3463 722 
L 3463 178 
Q 3153 47 2828 -22 
Q 2503 -91 2169 -91 
Q 1331 -91 842 396 
Q 353 884 353 1716 
Q 353 2575 817 3079 
Q 1281 3584 2069 3584 
Q 2775 3584 3186 3129 
Q 3597 2675 3597 1894 
z
M 3022 2063 
Q 3016 2534 2758 2815 
Q 2500 3097 2075 3097 
Q 1594 3097 1305 2825 
Q 1016 2553 972 2059 
L 3022 2063 
z
" transform="scale(0.015625)"/>
       <path id="DejaVuSans-72" d="M 2631 2963 
Q 2534 3019 2420 3045 
Q 2306 3072 2169 3072 
Q 1681 3072 1420 2755 
Q 1159 2438 1159 1844 
L 1159 0 
L 581 0 
L 581 3500 
L 1159 3500 
L 1159 2956 
Q 1341 3275 1631 3429 
Q 1922 3584 2338 3584 
Q 2397 3584 2469 3576 
Q 2541 3569 2628 3553 
L 2631 2963 
z
" transform="scale(0.015625)"/>
       <path id="DejaVuSans-69" d="M 603 3500 
L 1178 3500 
L 1178 0 
L 603 0 
L 603 3500 
z
M 603 4863 
L 1178 4863 
L 1178 4134 
L 603 4134 
L 603 4863 
z
" transform="scale(0.015625)"/>
       <path id="DejaVuSans-6f" d="M 1959 3097 
Q 1497 3097 1228 2736 
Q 959 2375 959 1747 
Q 959 1119 1226 758 
Q 1494 397 1959 397 
Q 2419 397 2687 759 
Q 2956 1122 2956 1747 
Q 2956 2369 2687 2733 
Q 2419 3097 1959 3097 
z
M 1959 3584 
Q 2709 3584 3137 3096 
Q 3566 2609 3566 1747 
Q 3566 888 3137 398 
Q 2709 -91 1959 -91 
Q 1206 -91 779 398 
Q 353 888 353 1747 
Q 353 2609 779 3096 
Q 1206 3584 1959 3584 
z
" transform="scale(0.015625)"/>
       <path id="DejaVuSans-64" d="M 2906 2969 
L 2906 4863 
L 3481 4863 
L 3481 0 
L 2906 0 
L 2906 525 
Q 2725 213 2448 61 
Q 2172 -91 1784 -91 
Q 1150 -91 751 415 
Q 353 922 353 1747 
Q 353 2572 751 3078 
Q 1150 3584 1784 3584 
Q 2172 3584 2448 3432 
Q 2725 3281 2906 2969 
z
M 947 1747 
Q 947 1113 1208 752 
Q 1469 391 1925 391 
Q 2381 391 2643 752 
Q 2906 1113 2906 1747 
Q 2906 2381 2643 2742 
Q 2381 3103 1925 3103 
Q 1469 3103 1208 2742 
Q 947 2381 947 1747 
z
" transform="scale(0.015625)"/>
       <path id="DejaVuSans-2c" d="M 750 794 
L 1409 794 
L 1409 256 
L 897 -744 
L 494 -744 
L 750 256 
L 750 794 
z
" transform="scale(0.015625)"/>
       <path id="DejaVuSans-20" transform="scale(0.015625)"/>
       <path id="DejaVuSans-54" d="M -19 4666 
L 3928 4666 
L 3928 4134 
L 2272 4134 
L 2272 0 
L 1638 0 
L 1638 4134 
L -19 4134 
L -19 4666 
z
" transform="scale(0.015625)"/>
       <path id="DejaVuSans-28" d="M 1984 4856 
Q 1566 4138 1362 3434 
Q 1159 2731 1159 2009 
Q 1159 1288 1364 580 
Q 1569 -128 1984 -844 
L 1484 -844 
Q 1016 -109 783 600 
Q 550 1309 550 2009 
Q 550 2706 781 3412 
Q 1013 4119 1484 4856 
L 1984 4856 
z
" transform="scale(0.015625)"/>
       <path id="DejaVuSans-73" d="M 2834 3397 
L 2834 2853 
Q 2591 2978 2328 3040 
Q 2066 3103 1784 3103 
Q 1356 3103 1142 2972 
Q 928 2841 928 2578 
Q 928 2378 1081 2264 
Q 1234 2150 1697 2047 
L 1894 2003 
Q 2506 1872 2764 1633 
Q 3022 1394 3022 966 
Q 3022 478 2636 193 
Q 2250 -91 1575 -91 
Q 1294 -91 989 -36 
Q 684 19 347 128 
L 347 722 
Q 666 556 975 473 
Q 1284 391 1588 391 
Q 1994 391 2212 530 
Q 2431 669 2431 922 
Q 2431 1156 2273 1281 
Q 2116 1406 1581 1522 
L 1381 1569 
Q 847 1681 609 1914 
Q 372 2147 372 2553 
Q 372 3047 722 3315 
Q 1072 3584 1716 3584 
Q 2034 3584 2315 3537 
Q 2597 3491 2834 3397 
z
" transform="scale(0.015625)"/>
       <path id="DejaVuSans-29" d="M 513 4856 
L 1013 4856 
Q 1481 4119 1714 3412 
Q 1947 2706 1947 2009 
Q 1947 1309 1714 600 
Q 1481 -109 1013 -844 
L 513 -844 
Q 928 -128 1133 580 
Q 1338 1288 1338 2009 
Q 1338 2731 1133 3434 
Q 928 4138 513 4856 
z
" transform="scale(0.015625)"/>
      </defs>
      <use xlink:href="#DejaVuSans-50"/>
      <use xlink:href="#DejaVuSans-65" x="56.677734"/>
      <use xlink:href="#DejaVuSans-72" x="118.201172"/>
      <use xlink:href="#DejaVuSans-69" x="159.314453"/>
      <use xlink:href="#DejaVuSans-6f" x="187.097656"/>
      <use xlink:href="#DejaVuSans-64" x="248.279297"/>
      <use xlink:href="#DejaVuSans-2c" x="311.755859"/>
      <use xlink:href="#DejaVuSans-20" x="343.542969"/>
      <use xlink:href="#DejaVuSans-54" x="375.330078"/>
      <use xlink:href="#DejaVuSans-20" x="436.414062"/>
      <use xlink:href="#DejaVuSans-28" x="468.201172"/>
      <use xlink:href="#DejaVuSans-73" x="507.214844"/>
      <use xlink:href="#DejaVuSans-29" x="559.314453"/>
     </g>
    </g>
   </g>
   <g id="matplotlib.axis_2">
    <g id="ytick_1">
     <g id="line2d_33">
      <path d="M 44.7425 90.277719 
L 242.2745 90.277719 
" clip-path="url(#pda81f9c850)" style="fill: none; stroke: #d9d9d9; stroke-width: 0.8; stroke-linecap: square"/>
     </g>
     <g id="line2d_34">
      <defs>
       <path id="mda09672bba" d="M 0 0 
L -3.5 0 
" style="stroke: #000000; stroke-width: 0.8"/>
      </defs>
      <g>
       <use xlink:href="#mda09672bba" x="44.7425" y="90.277719" style="stroke: #000000; stroke-width: 0.8"/>
      </g>
     </g>
     <g id="text_4">
      <!-- $\mathdefault{10^{-1}}$ -->
      <g transform="translate(18.9425 93.317094) scale(0.08 -0.08)">
       <use xlink:href="#DejaVuSans-31" transform="translate(0 0.684375)"/>
       <use xlink:href="#DejaVuSans-30" transform="translate(63.623047 0.684375)"/>
       <use xlink:href="#DejaVuSans-2212" transform="translate(128.203125 38.965625) scale(0.7)"/>
       <use xlink:href="#DejaVuSans-31" transform="translate(186.855469 38.965625) scale(0.7)"/>
      </g>
     </g>
    </g>
    <g id="ytick_2">
     <g id="line2d_35">
      <path d="M 44.7425 34.554291 
L 242.2745 34.554291 
" clip-path="url(#pda81f9c850)" style="fill: none; stroke: #d9d9d9; stroke-width: 0.8; stroke-linecap: square"/>
     </g>
     <g id="line2d_36">
      <g>
       <use xlink:href="#mda09672bba" x="44.7425" y="34.554291" style="stroke: #000000; stroke-width: 0.8"/>
      </g>
     </g>
     <g id="text_5">
      <!-- $\mathdefault{10^{0}}$ -->
      <g transform="translate(23.6625 37.593666) scale(0.08 -0.08)">
       <use xlink:href="#DejaVuSans-31" transform="translate(0 0.765625)"/>
       <use xlink:href="#DejaVuSans-30" transform="translate(63.623047 0.765625)"/>
       <use xlink:href="#DejaVuSans-30" transform="translate(128.203125 39.046875) scale(0.7)"/>
      </g>
     </g>
    </g>
    <g id="ytick_3">
     <g id="line2d_37">
      <path d="M 44.7425 129.226725 
L 242.2745 129.226725 
" clip-path="url(#pda81f9c850)" style="fill: none; stroke-dasharray: 2.96,1.28; stroke-dashoffset: 0; stroke: #f2f2f2; stroke-width: 0.8"/>
     </g>
     <g id="line2d_38">
      <defs>
       <path id="mdc6b0f33e9" d="M 0 0 
L -2 0 
" style="stroke: #000000; stroke-width: 0.6"/>
      </defs>
      <g>
       <use xlink:href="#mdc6b0f33e9" x="44.7425" y="129.226725" style="stroke: #000000; stroke-width: 0.6"/>
      </g>
     </g>
    </g>
    <g id="ytick_4">
     <g id="line2d_39">
      <path d="M 44.7425 119.414316 
L 242.2745 119.414316 
" clip-path="url(#pda81f9c850)" style="fill: none; stroke-dasharray: 2.96,1.28; stroke-dashoffset: 0; stroke: #f2f2f2; stroke-width: 0.8"/>
     </g>
     <g id="line2d_40">
      <g>
       <use xlink:href="#mdc6b0f33e9" x="44.7425" y="119.414316" style="stroke: #000000; stroke-width: 0.6"/>
      </g>
     </g>
    </g>
    <g id="ytick_5">
     <g id="line2d_41">
      <path d="M 44.7425 112.452301 
L 242.2745 112.452301 
" clip-path="url(#pda81f9c850)" style="fill: none; stroke-dasharray: 2.96,1.28; stroke-dashoffset: 0; stroke: #f2f2f2; stroke-width: 0.8"/>
     </g>
     <g id="line2d_42">
      <g>
       <use xlink:href="#mdc6b0f33e9" x="44.7425" y="112.452301" style="stroke: #000000; stroke-width: 0.6"/>
      </g>
     </g>
    </g>
    <g id="ytick_6">
     <g id="line2d_43">
      <path d="M 44.7425 107.052143 
L 242.2745 107.052143 
" clip-path="url(#pda81f9c850)" style="fill: none; stroke-dasharray: 2.96,1.28; stroke-dashoffset: 0; stroke: #f2f2f2; stroke-width: 0.8"/>
     </g>
     <g id="line2d_44">
      <g>
       <use xlink:href="#mdc6b0f33e9" x="44.7425" y="107.052143" style="stroke: #000000; stroke-width: 0.6"/>
      </g>
     </g>
    </g>
    <g id="ytick_7">
     <g id="line2d_45">
      <path d="M 44.7425 102.639892 
L 242.2745 102.639892 
" clip-path="url(#pda81f9c850)" style="fill: none; stroke-dasharray: 2.96,1.28; stroke-dashoffset: 0; stroke: #f2f2f2; stroke-width: 0.8"/>
     </g>
     <g id="line2d_46">
      <g>
       <use xlink:href="#mdc6b0f33e9" x="44.7425" y="102.639892" style="stroke: #000000; stroke-width: 0.6"/>
      </g>
     </g>
    </g>
    <g id="ytick_8">
     <g id="line2d_47">
      <path d="M 44.7425 98.909388 
L 242.2745 98.909388 
" clip-path="url(#pda81f9c850)" style="fill: none; stroke-dasharray: 2.96,1.28; stroke-dashoffset: 0; stroke: #f2f2f2; stroke-width: 0.8"/>
     </g>
     <g id="line2d_48">
      <g>
       <use xlink:href="#mdc6b0f33e9" x="44.7425" y="98.909388" style="stroke: #000000; stroke-width: 0.6"/>
      </g>
     </g>
    </g>
    <g id="ytick_9">
     <g id="line2d_49">
      <path d="M 44.7425 95.677878 
L 242.2745 95.677878 
" clip-path="url(#pda81f9c850)" style="fill: none; stroke-dasharray: 2.96,1.28; stroke-dashoffset: 0; stroke: #f2f2f2; stroke-width: 0.8"/>
     </g>
     <g id="line2d_50">
      <g>
       <use xlink:href="#mdc6b0f33e9" x="44.7425" y="95.677878" style="stroke: #000000; stroke-width: 0.6"/>
      </g>
     </g>
    </g>
    <g id="ytick_10">
     <g id="line2d_51">
      <path d="M 44.7425 92.827484 
L 242.2745 92.827484 
" clip-path="url(#pda81f9c850)" style="fill: none; stroke-dasharray: 2.96,1.28; stroke-dashoffset: 0; stroke: #f2f2f2; stroke-width: 0.8"/>
     </g>
     <g id="line2d_52">
      <g>
       <use xlink:href="#mdc6b0f33e9" x="44.7425" y="92.827484" style="stroke: #000000; stroke-width: 0.6"/>
      </g>
     </g>
    </g>
    <g id="ytick_11">
     <g id="line2d_53">
      <path d="M 44.7425 73.503296 
L 242.2745 73.503296 
" clip-path="url(#pda81f9c850)" style="fill: none; stroke-dasharray: 2.96,1.28; stroke-dashoffset: 0; stroke: #f2f2f2; stroke-width: 0.8"/>
     </g>
     <g id="line2d_54">
      <g>
       <use xlink:href="#mdc6b0f33e9" x="44.7425" y="73.503296" style="stroke: #000000; stroke-width: 0.6"/>
      </g>
     </g>
    </g>
    <g id="ytick_12">
     <g id="line2d_55">
      <path d="M 44.7425 63.690887 
L 242.2745 63.690887 
" clip-path="url(#pda81f9c850)" style="fill: none; stroke-dasharray: 2.96,1.28; stroke-dashoffset: 0; stroke: #f2f2f2; stroke-width: 0.8"/>
     </g>
     <g id="line2d_56">
      <g>
       <use xlink:href="#mdc6b0f33e9" x="44.7425" y="63.690887" style="stroke: #000000; stroke-width: 0.6"/>
      </g>
     </g>
    </g>
    <g id="ytick_13">
     <g id="line2d_57">
      <path d="M 44.7425 56.728872 
L 242.2745 56.728872 
" clip-path="url(#pda81f9c850)" style="fill: none; stroke-dasharray: 2.96,1.28; stroke-dashoffset: 0; stroke: #f2f2f2; stroke-width: 0.8"/>
     </g>
     <g id="line2d_58">
      <g>
       <use xlink:href="#mdc6b0f33e9" x="44.7425" y="56.728872" style="stroke: #000000; stroke-width: 0.6"/>
      </g>
     </g>
    </g>
    <g id="ytick_14">
     <g id="line2d_59">
      <path d="M 44.7425 51.328714 
L 242.2745 51.328714 
" clip-path="url(#pda81f9c850)" style="fill: none; stroke-dasharray: 2.96,1.28; stroke-dashoffset: 0; stroke: #f2f2f2; stroke-width: 0.8"/>
     </g>
     <g id="line2d_60">
      <g>
       <use xlink:href="#mdc6b0f33e9" x="44.7425" y="51.328714" style="stroke: #000000; stroke-width: 0.6"/>
      </g>
     </g>
    </g>
    <g id="ytick_15">
     <g id="line2d_61">
      <path d="M 44.7425 46.916464 
L 242.2745 46.916464 
" clip-path="url(#pda81f9c850)" style="fill: none; stroke-dasharray: 2.96,1.28; stroke-dashoffset: 0; stroke: #f2f2f2; stroke-width: 0.8"/>
     </g>
     <g id="line2d_62">
      <g>
       <use xlink:href="#mdc6b0f33e9" x="44.7425" y="46.916464" style="stroke: #000000; stroke-width: 0.6"/>
      </g>
     </g>
    </g>
    <g id="ytick_16">
     <g id="line2d_63">
      <path d="M 44.7425 43.185959 
L 242.2745 43.185959 
" clip-path="url(#pda81f9c850)" style="fill: none; stroke-dasharray: 2.96,1.28; stroke-dashoffset: 0; stroke: #f2f2f2; stroke-width: 0.8"/>
     </g>
     <g id="line2d_64">
      <g>
       <use xlink:href="#mdc6b0f33e9" x="44.7425" y="43.185959" style="stroke: #000000; stroke-width: 0.6"/>
      </g>
     </g>
    </g>
    <g id="ytick_17">
     <g id="line2d_65">
      <path d="M 44.7425 39.954449 
L 242.2745 39.954449 
" clip-path="url(#pda81f9c850)" style="fill: none; stroke-dasharray: 2.96,1.28; stroke-dashoffset: 0; stroke: #f2f2f2; stroke-width: 0.8"/>
     </g>
     <g id="line2d_66">
      <g>
       <use xlink:href="#mdc6b0f33e9" x="44.7425" y="39.954449" style="stroke: #000000; stroke-width: 0.6"/>
      </g>
     </g>
    </g>
    <g id="ytick_18">
     <g id="line2d_67">
      <path d="M 44.7425 37.104055 
L 242.2745 37.104055 
" clip-path="url(#pda81f9c850)" style="fill: none; stroke-dasharray: 2.96,1.28; stroke-dashoffset: 0; stroke: #f2f2f2; stroke-width: 0.8"/>
     </g>
     <g id="line2d_68">
      <g>
       <use xlink:href="#mdc6b0f33e9" x="44.7425" y="37.104055" style="stroke: #000000; stroke-width: 0.6"/>
      </g>
     </g>
    </g>
    <g id="ytick_19">
     <g id="line2d_69">
      <path d="M 44.7425 17.779867 
L 242.2745 17.779867 
" clip-path="url(#pda81f9c850)" style="fill: none; stroke-dasharray: 2.96,1.28; stroke-dashoffset: 0; stroke: #f2f2f2; stroke-width: 0.8"/>
     </g>
     <g id="line2d_70">
      <g>
       <use xlink:href="#mdc6b0f33e9" x="44.7425" y="17.779867" style="stroke: #000000; stroke-width: 0.6"/>
      </g>
     </g>
    </g>
    <g id="ytick_20">
     <g id="line2d_71">
      <path d="M 44.7425 7.967458 
L 242.2745 7.967458 
" clip-path="url(#pda81f9c850)" style="fill: none; stroke-dasharray: 2.96,1.28; stroke-dashoffset: 0; stroke: #f2f2f2; stroke-width: 0.8"/>
     </g>
     <g id="line2d_72">
      <g>
       <use xlink:href="#mdc6b0f33e9" x="44.7425" y="7.967458" style="stroke: #000000; stroke-width: 0.6"/>
      </g>
     </g>
    </g>
    <g id="text_6">
     <!-- Spectral acceleration, SA (g) -->
     <g transform="translate(13.27875 129.871075) rotate(-90) scale(0.08 -0.08)">
      <defs>
       <path id="DejaVuSans-53" d="M 3425 4513 
L 3425 3897 
Q 3066 4069 2747 4153 
Q 2428 4238 2131 4238 
Q 1616 4238 1336 4038 
Q 1056 3838 1056 3469 
Q 1056 3159 1242 3001 
Q 1428 2844 1947 2747 
L 2328 2669 
Q 3034 2534 3370 2195 
Q 3706 1856 3706 1288 
Q 3706 609 3251 259 
Q 2797 -91 1919 -91 
Q 1588 -91 1214 -16 
Q 841 59 441 206 
L 441 856 
Q 825 641 1194 531 
Q 1563 422 1919 422 
Q 2459 422 2753 634 
Q 3047 847 3047 1241 
Q 3047 1584 2836 1778 
Q 2625 1972 2144 2069 
L 1759 2144 
Q 1053 2284 737 2584 
Q 422 2884 422 3419 
Q 422 4038 858 4394 
Q 1294 4750 2059 4750 
Q 2388 4750 2728 4690 
Q 3069 4631 3425 4513 
z
" transform="scale(0.015625)"/>
       <path id="DejaVuSans-70" d="M 1159 525 
L 1159 -1331 
L 581 -1331 
L 581 3500 
L 1159 3500 
L 1159 2969 
Q 1341 3281 1617 3432 
Q 1894 3584 2278 3584 
Q 2916 3584 3314 3078 
Q 3713 2572 3713 1747 
Q 3713 922 3314 415 
Q 2916 -91 2278 -91 
Q 1894 -91 1617 61 
Q 1341 213 1159 525 
z
M 3116 1747 
Q 3116 2381 2855 2742 
Q 2594 3103 2138 3103 
Q 1681 3103 1420 2742 
Q 1159 2381 1159 1747 
Q 1159 1113 1420 752 
Q 1681 391 2138 391 
Q 2594 391 2855 752 
Q 3116 1113 3116 1747 
z
" transform="scale(0.015625)"/>
       <path id="DejaVuSans-63" d="M 3122 3366 
L 3122 2828 
Q 2878 2963 2633 3030 
Q 2388 3097 2138 3097 
Q 1578 3097 1268 2742 
Q 959 2388 959 1747 
Q 959 1106 1268 751 
Q 1578 397 2138 397 
Q 2388 397 2633 464 
Q 2878 531 3122 666 
L 3122 134 
Q 2881 22 2623 -34 
Q 2366 -91 2075 -91 
Q 1284 -91 818 406 
Q 353 903 353 1747 
Q 353 2603 823 3093 
Q 1294 3584 2113 3584 
Q 2378 3584 2631 3529 
Q 2884 3475 3122 3366 
z
" transform="scale(0.015625)"/>
       <path id="DejaVuSans-74" d="M 1172 4494 
L 1172 3500 
L 2356 3500 
L 2356 3053 
L 1172 3053 
L 1172 1153 
Q 1172 725 1289 603 
Q 1406 481 1766 481 
L 2356 481 
L 2356 0 
L 1766 0 
Q 1100 0 847 248 
Q 594 497 594 1153 
L 594 3053 
L 172 3053 
L 172 3500 
L 594 3500 
L 594 4494 
L 1172 4494 
z
" transform="scale(0.015625)"/>
       <path id="DejaVuSans-61" d="M 2194 1759 
Q 1497 1759 1228 1600 
Q 959 1441 959 1056 
Q 959 750 1161 570 
Q 1363 391 1709 391 
Q 2188 391 2477 730 
Q 2766 1069 2766 1631 
L 2766 1759 
L 2194 1759 
z
M 3341 1997 
L 3341 0 
L 2766 0 
L 2766 531 
Q 2569 213 2275 61 
Q 1981 -91 1556 -91 
Q 1019 -91 701 211 
Q 384 513 384 1019 
Q 384 1609 779 1909 
Q 1175 2209 1959 2209 
L 2766 2209 
L 2766 2266 
Q 2766 2663 2505 2880 
Q 2244 3097 1772 3097 
Q 1472 3097 1187 3025 
Q 903 2953 641 2809 
L 641 3341 
Q 956 3463 1253 3523 
Q 1550 3584 1831 3584 
Q 2591 3584 2966 3190 
Q 3341 2797 3341 1997 
z
" transform="scale(0.015625)"/>
       <path id="DejaVuSans-6c" d="M 603 4863 
L 1178 4863 
L 1178 0 
L 603 0 
L 603 4863 
z
" transform="scale(0.015625)"/>
       <path id="DejaVuSans-6e" d="M 3513 2113 
L 3513 0 
L 2938 0 
L 2938 2094 
Q 2938 2591 2744 2837 
Q 2550 3084 2163 3084 
Q 1697 3084 1428 2787 
Q 1159 2491 1159 1978 
L 1159 0 
L 581 0 
L 581 3500 
L 1159 3500 
L 1159 2956 
Q 1366 3272 1645 3428 
Q 1925 3584 2291 3584 
Q 2894 3584 3203 3211 
Q 3513 2838 3513 2113 
z
" transform="scale(0.015625)"/>
       <path id="DejaVuSans-41" d="M 2188 4044 
L 1331 1722 
L 3047 1722 
L 2188 4044 
z
M 1831 4666 
L 2547 4666 
L 4325 0 
L 3669 0 
L 3244 1197 
L 1141 1197 
L 716 0 
L 50 0 
L 1831 4666 
z
" transform="scale(0.015625)"/>
       <path id="DejaVuSans-67" d="M 2906 1791 
Q 2906 2416 2648 2759 
Q 2391 3103 1925 3103 
Q 1463 3103 1205 2759 
Q 947 2416 947 1791 
Q 947 1169 1205 825 
Q 1463 481 1925 481 
Q 2391 481 2648 825 
Q 2906 1169 2906 1791 
z
M 3481 434 
Q 3481 -459 3084 -895 
Q 2688 -1331 1869 -1331 
Q 1566 -1331 1297 -1286 
Q 1028 -1241 775 -1147 
L 775 -588 
Q 1028 -725 1275 -790 
Q 1522 -856 1778 -856 
Q 2344 -856 2625 -561 
Q 2906 -266 2906 331 
L 2906 616 
Q 2728 306 2450 153 
Q 2172 0 1784 0 
Q 1141 0 747 490 
Q 353 981 353 1791 
Q 353 2603 747 3093 
Q 1141 3584 1784 3584 
Q 2172 3584 2450 3431 
Q 2728 3278 2906 2969 
L 2906 3500 
L 3481 3500 
L 3481 434 
z
" transform="scale(0.015625)"/>
      </defs>
      <use xlink:href="#DejaVuSans-53"/>
      <use xlink:href="#DejaVuSans-70" x="63.476562"/>
      <use xlink:href="#DejaVuSans-65" x="126.953125"/>
      <use xlink:href="#DejaVuSans-63" x="188.476562"/>
      <use xlink:href="#DejaVuSans-74" x="243.457031"/>
      <use xlink:href="#DejaVuSans-72" x="282.666016"/>
      <use xlink:href="#DejaVuSans-61" x="323.779297"/>
      <use xlink:href="#DejaVuSans-6c" x="385.058594"/>
      <use xlink:href="#DejaVuSans-20" x="412.841797"/>
      <use xlink:href="#DejaVuSans-61" x="444.628906"/>
      <use xlink:href="#DejaVuSans-63" x="505.908203"/>
      <use xlink:href="#DejaVuSans-63" x="560.888672"/>
      <use xlink:href="#DejaVuSans-65" x="615.869141"/>
      <use xlink:href="#DejaVuSans-6c" x="677.392578"/>
      <use xlink:href="#DejaVuSans-65" x="705.175781"/>
      <use xlink:href="#DejaVuSans-72" x="766.699219"/>
      <use xlink:href="#DejaVuSans-61" x="807.8125"/>
      <use xlink:href="#DejaVuSans-74" x="869.091797"/>
      <use xlink:href="#DejaVuSans-69" x="908.300781"/>
      <use xlink:href="#DejaVuSans-6f" x="936.083984"/>
      <use xlink:href="#DejaVuSans-6e" x="997.265625"/>
      <use xlink:href="#DejaVuSans-2c" x="1060.644531"/>
      <use xlink:href="#DejaVuSans-20" x="1092.431641"/>
      <use xlink:href="#DejaVuSans-53" x="1124.21875"/>
      <use xlink:href="#DejaVuSans-41" x="1189.570312"/>
      <use xlink:href="#DejaVuSans-20" x="1257.978516"/>
      <use xlink:href="#DejaVuSans-28" x="1289.765625"/>
      <use xlink:href="#DejaVuSans-67" x="1328.779297"/>
      <use xlink:href="#DejaVuSans-29" x="1392.255859"/>
     </g>
    </g>
   </g>
   <g id="line2d_73">
    <path d="M 53.721227 45.266464 
L 72.333391 39.937533 
L 85.538931 35.456455 
L 95.781944 43.990509 
L 104.151095 51.235498 
L 117.356635 49.164977 
L 127.599648 51.637581 
L 132.390111 52.316622 
L 146.211812 72.503764 
L 159.417352 91.129493 
L 171.460723 98.051958 
L 178.029516 99.157049 
L 191.235056 106.193783 
L 209.84722 116.551873 
L 223.05276 126.343805 
L 233.295773 132.0912 
" clip-path="url(#pda81f9c850)" style="fill: none; stroke: #b2b2b2; stroke-width: 0.8; stroke-linecap: square"/>
   </g>
   <g id="line2d_74">
    <path d="M 53.721227 53.065069 
L 72.333391 44.243566 
L 85.538931 42.302574 
L 95.781944 32.147588 
L 104.151095 43.813194 
L 117.356635 45.734058 
L 127.599648 49.341228 
L 132.390111 52.316622 
L 146.211812 44.445579 
L 159.417352 54.257338 
L 171.460723 46.827614 
L 178.029516 50.322791 
L 191.235056 56.366298 
L 209.84722 55.557513 
L 223.05276 69.904178 
L 233.295773 85.235363 
" clip-path="url(#pda81f9c850)" style="fill: none; stroke: #b2b2b2; stroke-width: 0.8; stroke-linecap: square"/>
   </g>
   <g id="line2d_75">
    <path d="M 53.721227 46.347859 
L 72.333391 55.825678 
L 85.538931 52.252581 
L 95.781944 54.141602 
L 104.151095 53.937244 
L 117.356635 39.704171 
L 127.599648 49.377054 
L 132.390111 52.316622 
L 146.211812 42.0076 
L 159.417352 43.50171 
L 171.460723 57.23742 
L 178.029516 46.964244 
L 191.235056 52.056272 
L 209.84722 70.887997 
L 223.05276 66.949401 
L 233.295773 70.673338 
" clip-path="url(#pda81f9c850)" style="fill: none; stroke: #b2b2b2; stroke-width: 0.8; stroke-linecap: square"/>
   </g>
   <g id="line2d_76">
    <path d="M 53.721227 44.692474 
L 72.333391 30.964816 
L 85.538931 31.671657 
L 95.781944 31.266974 
L 104.151095 19.632667 
L 117.356635 26.537171 
L 127.599648 47.544542 
L 132.390111 52.316622 
L 146.211812 59.511324 
L 159.417352 70.422098 
L 171.460723 76.286085 
L 178.029516 78.025774 
L 191.235056 74.067733 
L 209.84722 90.480071 
L 223.05276 87.593108 
L 233.295773 99.834665 
" clip-path="url(#pda81f9c850)" style="fill: none; stroke: #b2b2b2; stroke-width: 0.8; stroke-linecap: square"/>
   </g>
   <g id="line2d_77">
    <path d="M 53.721227 47.303211 
L 72.333391 38.976832 
L 85.538931 35.615328 
L 95.781944 45.541183 
L 104.151095 45.995409 
L 117.356635 41.282246 
L 127.599648 46.285585 
L 132.390111 52.316622 
L 146.211812 50.882428 
L 159.417352 51.997793 
L 171.460723 41.612668 
L 178.029516 52.899579 
L 191.235056 49.096885 
L 209.84722 47.245307 
L 223.05276 63.933923 
L 233.295773 74.03224 
" clip-path="url(#pda81f9c850)" style="fill: none; stroke: #b2b2b2; stroke-width: 0.8; stroke-linecap: square"/>
   </g>
   <g id="line2d_78">
    <path d="M 53.721227 46.839739 
L 72.333391 63.122487 
L 85.538931 59.333602 
L 95.781944 55.991106 
L 104.151095 63.712526 
L 117.356635 55.612499 
L 127.599648 49.551512 
L 132.390111 52.316622 
L 146.211812 59.366979 
L 159.417352 56.208456 
L 171.460723 52.989053 
L 178.029516 57.264723 
L 191.235056 69.053858 
L 209.84722 87.059226 
L 223.05276 97.970152 
L 233.295773 108.010251 
" clip-path="url(#pda81f9c850)" style="fill: none; stroke: #b2b2b2; stroke-width: 0.8; stroke-linecap: square"/>
   </g>
   <g id="line2d_79">
    <path d="M 53.721227 46.591883 
L 72.333391 39.784606 
L 85.538931 39.928778 
L 95.781944 39.874157 
L 104.151095 50.319019 
L 117.356635 46.194278 
L 127.599648 53.606779 
L 132.390111 52.316622 
L 146.211812 53.112832 
L 159.417352 54.047441 
L 171.460723 57.942123 
L 178.029516 49.199253 
L 191.235056 58.212053 
L 209.84722 71.048661 
L 223.05276 78.900886 
L 233.295773 92.299705 
" clip-path="url(#pda81f9c850)" style="fill: none; stroke: #b2b2b2; stroke-width: 0.8; stroke-linecap: square"/>
   </g>
   <g id="line2d_80">
    <path d="M 53.721227 29.509981 
L 72.333391 31.087777 
L 85.538931 14.453429 
L 95.781944 27.347351 
L 104.151095 29.468786 
L 117.356635 39.411959 
L 127.599648 44.696298 
L 132.390111 52.316622 
L 146.211812 64.949564 
L 159.417352 63.383588 
L 171.460723 64.167772 
L 178.029516 62.195573 
L 191.235056 71.794099 
L 209.84722 69.912878 
L 223.05276 85.631573 
L 233.295773 98.401805 
" clip-path="url(#pda81f9c850)" style="fill: none; stroke: #b2b2b2; stroke-width: 0.8; stroke-linecap: square"/>
   </g>
   <g id="line2d_81">
    <path d="M 53.721227 22.961274 
L 72.333391 19.036713 
L 85.538931 28.108875 
L 95.781944 37.057643 
L 104.151095 46.468273 
L 117.356635 54.511756 
L 127.599648 57.969287 
L 132.390111 52.316622 
L 146.211812 62.577205 
L 159.417352 77.439103 
L 171.460723 71.252373 
L 178.029516 59.312805 
L 191.235056 67.76098 
L 209.84722 80.566803 
L 223.05276 97.384124 
L 233.295773 104.83603 
" clip-path="url(#pda81f9c850)" style="fill: none; stroke: #b2b2b2; stroke-width: 0.8; stroke-linecap: square"/>
   </g>
   <g id="line2d_82">
    <path d="M 53.721227 51.930407 
L 72.333391 40.17689 
L 85.538931 35.825116 
L 95.781944 26.689835 
L 104.151095 29.089116 
L 117.356635 56.530285 
L 127.599648 51.687765 
L 132.390111 52.316622 
L 146.211812 56.733388 
L 159.417352 69.919314 
L 171.460723 76.091193 
L 178.029516 77.769762 
L 191.235056 70.584949 
L 209.84722 75.122637 
L 223.05276 88.725784 
L 233.295773 99.660523 
" clip-path="url(#pda81f9c850)" style="fill: none; stroke: #b2b2b2; stroke-width: 0.8; stroke-linecap: square"/>
   </g>
   <g id="line2d_83">
    <path d="M 53.721227 44.654437 
L 72.333391 46.799977 
L 85.538931 42.591888 
L 95.781944 55.397785 
L 104.151095 57.290939 
L 117.356635 52.714771 
L 127.599648 54.268228 
L 132.390111 52.316622 
L 146.211812 51.040162 
L 159.417352 55.190052 
L 171.460723 50.9319 
L 178.029516 61.418426 
L 191.235056 73.346376 
L 209.84722 92.901015 
L 223.05276 104.868752 
L 233.295773 103.530093 
" clip-path="url(#pda81f9c850)" style="fill: none; stroke: #b2b2b2; stroke-width: 0.8; stroke-linecap: square"/>
   </g>
   <g id="line2d_84">
    <path d="M 53.721227 57.062547 
L 72.333391 56.232072 
L 85.538931 56.314567 
L 95.781944 52.751181 
L 104.151095 51.488728 
L 117.356635 45.99316 
L 127.599648 52.505806 
L 132.390111 52.316622 
L 146.211812 56.716724 
L 159.417352 51.855273 
L 171.460723 55.41724 
L 178.029516 56.788867 
L 191.235056 59.045101 
L 209.84722 85.04812 
L 223.05276 83.917908 
L 233.295773 91.335646 
" clip-path="url(#pda81f9c850)" style="fill: none; stroke: #b2b2b2; stroke-width: 0.8; stroke-linecap: square"/>
   </g>
   <g id="line2d_85">
    <path d="M 53.721227 38.150439 
L 72.333391 38.510846 
L 85.538931 28.580759 
L 95.781944 37.20538 
L 104.151095 46.633206 
L 117.356635 39.473049 
L 127.599648 45.605978 
L 132.390111 52.316622 
L 146.211812 45.229939 
L 159.417352 66.163961 
L 171.460723 82.540713 
L 178.029516 79.612738 
L 191.235056 94.063153 
L 209.84722 98.519213 
L 223.05276 108.501386 
L 233.295773 109.24207 
" clip-path="url(#pda81f9c850)" style="fill: none; stroke: #b2b2b2; stroke-width: 0.8; stroke-linecap: square"/>
   </g>
   <g id="line2d_86">
    <path d="M 53.721227 40.002142 
L 72.333391 29.614066 
L 85.538931 38.193419 
L 95.781944 34.828627 
L 104.151095 36.025661 
L 117.356635 45.50638 
L 127.599648 48.027851 
L 132.390111 52.316622 
L 146.211812 50.980162 
L 159.417352 48.051575 
L 171.460723 64.843646 
L 178.029516 58.908918 
L 191.235056 57.681667 
L 209.84722 88.811622 
L 223.05276 98.7722 
L 233.295773 105.387216 
" clip-path="url(#pda81f9c850)" style="fill: none; stroke: #b2b2b2; stroke-width: 0.8; stroke-linecap: square"/>
   </g>
   <g id="line2d_87">
    <path d="M 53.721227 48.6324 
L 72.333391 33.925414 
L 85.538931 34.692762 
L 95.781944 30.281755 
L 104.151095 37.936918 
L 117.356635 44.675625 
L 127.599648 39.452464 
L 132.390111 52.316622 
L 146.211812 51.085229 
L 159.417352 50.204297 
L 171.460723 50.974708 
L 178.029516 53.528055 
L 191.235056 57.413088 
L 209.84722 69.568803 
L 223.05276 67.778025 
L 233.295773 82.154166 
" clip-path="url(#pda81f9c850)" style="fill: none; stroke: #b2b2b2; stroke-width: 0.8; stroke-linecap: square"/>
   </g>
   <g id="line2d_88">
    <path d="M 53.721227 47.310443 
L 72.333391 42.361123 
L 85.538931 40.199218 
L 95.781944 40.480217 
L 104.151095 36.693226 
L 117.356635 46.34499 
L 127.599648 44.078717 
L 132.390111 52.316622 
L 146.211812 55.556648 
L 159.417352 62.638838 
L 171.460723 67.250884 
L 178.029516 66.271164 
L 191.235056 70.311499 
L 209.84722 76.354562 
L 223.05276 85.020968 
L 233.295773 100.8418 
" clip-path="url(#pda81f9c850)" style="fill: none; stroke: #b2b2b2; stroke-width: 0.8; stroke-linecap: square"/>
   </g>
   <g id="line2d_89">
    <path d="M 53.721227 48.641353 
L 72.333391 38.367418 
L 85.538931 42.865628 
L 95.781944 44.518311 
L 104.151095 40.650812 
L 117.356635 38.999362 
L 127.599648 56.965554 
L 132.390111 52.316622 
L 146.211812 62.218836 
L 159.417352 63.175201 
L 171.460723 77.702147 
L 178.029516 77.009669 
L 191.235056 92.582515 
L 209.84722 83.103227 
L 223.05276 92.638756 
L 233.295773 102.357606 
" clip-path="url(#pda81f9c850)" style="fill: none; stroke: #b2b2b2; stroke-width: 0.8; stroke-linecap: square"/>
   </g>
   <g id="line2d_90">
    <path d="M 53.721227 41.549367 
L 72.333391 42.609972 
L 85.538931 40.64724 
L 95.781944 35.582174 
L 104.151095 38.637907 
L 117.356635 42.58578 
L 127.599648 47.798565 
L 132.390111 52.316622 
L 146.211812 49.964629 
L 159.417352 52.815203 
L 171.460723 47.18356 
L 178.029516 54.452324 
L 191.235056 62.551005 
L 209.84722 80.619246 
L 223.05276 99.475776 
L 233.295773 116.807593 
" clip-path="url(#pda81f9c850)" style="fill: none; stroke: #b2b2b2; stroke-width: 0.8; stroke-linecap: square"/>
   </g>
   <g id="line2d_91">
    <path d="M 53.721227 36.788253 
L 72.333391 23.210509 
L 85.538931 36.285251 
L 95.781944 45.68888 
L 104.151095 45.151825 
L 117.356635 49.865586 
L 127.599648 46.980552 
L 132.390111 52.316622 
L 146.211812 54.937466 
L 159.417352 52.8313 
L 171.460723 66.223474 
L 178.029516 62.670248 
L 191.235056 63.387517 
L 209.84722 90.317846 
L 223.05276 110.243863 
L 233.295773 114.372216 
" clip-path="url(#pda81f9c850)" style="fill: none; stroke: #b2b2b2; stroke-width: 0.8; stroke-linecap: square"/>
   </g>
   <g id="line2d_92">
    <path d="M 53.721227 22.220797 
L 72.333391 27.159177 
L 85.538931 25.390153 
L 95.781944 27.915686 
L 104.151095 31.2882 
L 117.356635 44.096478 
L 127.599648 50.509116 
L 132.390111 52.316622 
L 146.211812 59.373005 
L 159.417352 71.112555 
L 171.460723 64.912876 
L 178.029516 68.934161 
L 191.235056 74.353619 
L 209.84722 82.813063 
L 223.05276 91.469126 
L 233.295773 93.734281 
" clip-path="url(#pda81f9c850)" style="fill: none; stroke: #b2b2b2; stroke-width: 0.8; stroke-linecap: square"/>
   </g>
   <g id="line2d_93">
    <path d="M 53.721227 48.159076 
L 72.333391 51.634009 
L 85.538931 47.823556 
L 95.781944 49.386157 
L 104.151095 49.801392 
L 117.356635 48.653675 
L 127.599648 52.365784 
L 132.390111 52.316622 
L 146.211812 43.922752 
L 159.417352 52.993184 
L 171.460723 45.259059 
L 178.029516 44.271391 
L 191.235056 52.535127 
L 209.84722 68.154794 
L 223.05276 68.806547 
L 233.295773 64.886982 
" clip-path="url(#pda81f9c850)" style="fill: none; stroke: #b2b2b2; stroke-width: 0.8; stroke-linecap: square"/>
   </g>
   <g id="line2d_94">
    <path d="M 53.721227 72.856011 
L 72.333391 71.565124 
L 85.538931 74.101229 
L 95.781944 69.541779 
L 104.151095 65.806281 
L 117.356635 63.782556 
L 127.599648 59.722976 
L 132.390111 52.316622 
L 146.211812 61.212718 
L 159.417352 60.508078 
L 171.460723 49.193675 
L 178.029516 65.474627 
L 191.235056 71.254724 
L 209.84722 76.211462 
L 223.05276 82.902917 
L 233.295773 90.395124 
" clip-path="url(#pda81f9c850)" style="fill: none; stroke: #b2b2b2; stroke-width: 0.8; stroke-linecap: square"/>
   </g>
   <g id="line2d_95">
    <path d="M 53.721227 34.835569 
L 72.333391 27.625665 
L 85.538931 40.160178 
L 95.781944 42.952332 
L 104.151095 40.2111 
L 117.356635 42.864811 
L 127.599648 43.542734 
L 132.390111 52.316622 
L 146.211812 51.161981 
L 159.417352 54.870215 
L 171.460723 54.738573 
L 178.029516 48.186574 
L 191.235056 55.685012 
L 209.84722 68.524942 
L 223.05276 82.104669 
L 233.295773 95.123675 
" clip-path="url(#pda81f9c850)" style="fill: none; stroke: #b2b2b2; stroke-width: 0.8; stroke-linecap: square"/>
   </g>
   <g id="line2d_96">
    <path d="M 53.721227 47.856446 
L 72.333391 48.043669 
L 85.538931 51.603231 
L 95.781944 56.938365 
L 104.151095 49.595117 
L 117.356635 56.569018 
L 127.599648 55.117029 
L 132.390111 52.316622 
L 146.211812 47.710346 
L 159.417352 55.858773 
L 171.460723 59.667989 
L 178.029516 54.305349 
L 191.235056 67.717382 
L 209.84722 84.350955 
L 223.05276 97.737307 
L 233.295773 102.390325 
" clip-path="url(#pda81f9c850)" style="fill: none; stroke: #b2b2b2; stroke-width: 0.8; stroke-linecap: square"/>
   </g>
   <g id="line2d_97">
    <path d="M 53.721227 39.460782 
L 72.333391 30.401574 
L 85.538931 25.142506 
L 95.781944 32.990972 
L 104.151095 29.316098 
L 117.356635 39.002391 
L 127.599648 48.562359 
L 132.390111 52.316622 
L 146.211812 59.403719 
L 159.417352 56.271265 
L 171.460723 64.835929 
L 178.029516 64.199513 
L 191.235056 79.301874 
L 209.84722 92.664268 
L 223.05276 93.391891 
L 233.295773 96.219699 
" clip-path="url(#pda81f9c850)" style="fill: none; stroke: #b2b2b2; stroke-width: 0.8; stroke-linecap: square"/>
   </g>
   <g id="line2d_98">
    <path d="M 53.721227 58.098036 
L 72.333391 61.249413 
L 85.538931 52.337099 
L 95.781944 53.070803 
L 104.151095 50.782997 
L 117.356635 46.099309 
L 127.599648 52.100254 
L 132.390111 52.316622 
L 146.211812 45.816712 
L 159.417352 51.139712 
L 171.460723 64.01459 
L 178.029516 64.202087 
L 191.235056 64.802718 
L 209.84722 88.05992 
L 223.05276 97.110435 
L 233.295773 103.081442 
" clip-path="url(#pda81f9c850)" style="fill: none; stroke: #b2b2b2; stroke-width: 0.8; stroke-linecap: square"/>
   </g>
   <g id="line2d_99">
    <path d="M 53.721227 75.19197 
L 72.333391 76.347706 
L 85.538931 72.282083 
L 95.781944 70.695762 
L 104.151095 61.452204 
L 117.356635 63.703135 
L 127.599648 57.123003 
L 132.390111 52.316622 
L 146.211812 55.485438 
L 159.417352 39.567954 
L 171.460723 44.060011 
L 178.029516 45.598266 
L 191.235056 67.932234 
L 209.84722 67.369524 
L 223.05276 82.140811 
L 233.295773 96.584945 
" clip-path="url(#pda81f9c850)" style="fill: none; stroke: #b2b2b2; stroke-width: 0.8; stroke-linecap: square"/>
   </g>
   <g id="line2d_100">
    <path d="M 53.721227 68.72609 
L 72.333391 60.770589 
L 85.538931 56.38227 
L 95.781944 57.613242 
L 104.151095 60.617592 
L 117.356635 54.286912 
L 127.599648 48.984228 
L 132.390111 52.316622 
L 146.211812 50.745257 
L 159.417352 61.737159 
L 171.460723 60.679175 
L 178.029516 74.307557 
L 191.235056 78.028449 
L 209.84722 79.780362 
L 223.05276 92.675916 
L 233.295773 100.535446 
" clip-path="url(#pda81f9c850)" style="fill: none; stroke: #b2b2b2; stroke-width: 0.8; stroke-linecap: square"/>
   </g>
   <g id="line2d_101">
    <path d="M 53.721227 56.135509 
L 72.333391 38.620965 
L 85.538931 44.977869 
L 95.781944 46.934027 
L 104.151095 55.881297 
L 117.356635 54.814433 
L 127.599648 48.314706 
L 132.390111 52.316622 
L 146.211812 65.96424 
L 159.417352 69.245088 
L 171.460723 67.775272 
L 178.029516 70.528635 
L 191.235056 73.572408 
L 209.84722 81.759814 
L 223.05276 82.305708 
L 233.295773 91.659868 
" clip-path="url(#pda81f9c850)" style="fill: none; stroke: #b2b2b2; stroke-width: 0.8; stroke-linecap: square"/>
   </g>
   <g id="line2d_102">
    <path d="M 53.721227 63.954342 
L 72.333391 60.524299 
L 85.538931 58.298109 
L 95.781944 53.080282 
L 104.151095 44.864341 
L 117.356635 42.600822 
L 127.599648 51.93198 
L 132.390111 52.316622 
L 146.211812 49.608033 
L 159.417352 44.06739 
L 171.460723 43.90356 
L 178.029516 54.001379 
L 191.235056 53.010867 
L 209.84722 65.508119 
L 223.05276 80.045441 
L 233.295773 73.341936 
" clip-path="url(#pda81f9c850)" style="fill: none; stroke: #b2b2b2; stroke-width: 0.8; stroke-linecap: square"/>
   </g>
   <g id="line2d_103">
    <path d="M 53.721227 45.701593 
L 72.333391 43.578044 
L 85.538931 41.542178 
L 95.781944 39.27172 
L 104.151095 35.912455 
L 117.356635 44.00352 
L 127.599648 53.872657 
L 132.390111 52.316622 
L 146.211812 38.193584 
L 159.417352 44.219139 
L 171.460723 59.511545 
L 178.029516 68.019972 
L 191.235056 71.468441 
L 209.84722 85.465403 
L 223.05276 88.058005 
L 233.295773 91.592892 
" clip-path="url(#pda81f9c850)" style="fill: none; stroke: #b2b2b2; stroke-width: 0.8; stroke-linecap: square"/>
   </g>
   <g id="line2d_104">
    <path d="M 53.721227 64.015895 
L 72.333391 59.703789 
L 85.538931 55.49625 
L 95.781944 62.11179 
L 104.151095 55.316372 
L 117.356635 64.457151 
L 127.599648 54.23974 
L 132.390111 52.316622 
L 146.211812 52.176184 
L 159.417352 52.311432 
L 171.460723 57.293268 
L 178.029516 60.380604 
L 191.235056 72.669316 
L 209.84722 84.234799 
L 223.05276 99.762428 
L 233.295773 111.663149 
" clip-path="url(#pda81f9c850)" style="fill: none; stroke: #b2b2b2; stroke-width: 0.8; stroke-linecap: square"/>
   </g>
   <g id="line2d_105">
    <path d="M 53.721227 67.147619 
L 72.333391 57.861635 
L 85.538931 56.119859 
L 95.781944 49.155508 
L 104.151095 52.683821 
L 117.356635 53.892454 
L 127.599648 50.852912 
L 132.390111 52.316622 
L 146.211812 48.597527 
L 159.417352 47.371601 
L 171.460723 48.771009 
L 178.029516 43.180522 
L 191.235056 61.755822 
L 209.84722 71.971716 
L 223.05276 85.475348 
L 233.295773 103.068809 
" clip-path="url(#pda81f9c850)" style="fill: none; stroke: #b2b2b2; stroke-width: 0.8; stroke-linecap: square"/>
   </g>
   <g id="line2d_106">
    <path d="M 53.721227 58.075428 
L 72.333391 41.363006 
L 85.538931 52.261293 
L 95.781944 51.591605 
L 104.151095 47.282452 
L 117.356635 51.107769 
L 127.599648 45.656993 
L 132.390111 52.316622 
L 146.211812 50.374404 
L 159.417352 56.384363 
L 171.460723 62.464814 
L 178.029516 62.228378 
L 191.235056 61.755505 
L 209.84722 71.187713 
L 223.05276 84.643431 
L 233.295773 93.332431 
" clip-path="url(#pda81f9c850)" style="fill: none; stroke: #b2b2b2; stroke-width: 0.8; stroke-linecap: square"/>
   </g>
   <g id="line2d_107">
    <path d="M 53.721227 32.664093 
L 72.333391 21.805113 
L 85.538931 26.526017 
L 95.781944 34.818804 
L 104.151095 29.977483 
L 117.356635 44.836778 
L 127.599648 49.393306 
L 132.390111 52.316622 
L 146.211812 52.038116 
L 159.417352 47.319157 
L 171.460723 59.501006 
L 178.029516 64.67685 
L 191.235056 76.952266 
L 209.84722 104.960198 
L 223.05276 99.058975 
L 233.295773 112.824002 
" clip-path="url(#pda81f9c850)" style="fill: none; stroke: #b2b2b2; stroke-width: 0.8; stroke-linecap: square"/>
   </g>
   <g id="line2d_108">
    <path d="M 53.721227 45.599298 
L 72.333391 33.760899 
L 85.538931 39.247919 
L 95.781944 37.113127 
L 104.151095 40.614561 
L 117.356635 49.862573 
L 127.599648 48.631565 
L 132.390111 52.316622 
L 146.211812 50.775315 
L 159.417352 52.033324 
L 171.460723 62.768787 
L 178.029516 60.039354 
L 191.235056 63.087404 
L 209.84722 77.87291 
L 223.05276 83.31816 
L 233.295773 101.433837 
" clip-path="url(#pda81f9c850)" style="fill: none; stroke: #b2b2b2; stroke-width: 0.8; stroke-linecap: square"/>
   </g>
   <g id="line2d_109">
    <path d="M 53.721227 49.988007 
L 72.333391 48.658841 
L 85.538931 39.23562 
L 95.781944 43.747218 
L 104.151095 41.532607 
L 117.356635 50.815385 
L 127.599648 49.137159 
L 132.390111 52.316622 
L 146.211812 48.743878 
L 159.417352 57.000494 
L 171.460723 57.767633 
L 178.029516 60.300859 
L 191.235056 66.778501 
L 209.84722 82.939556 
L 223.05276 80.959584 
L 233.295773 94.102729 
" clip-path="url(#pda81f9c850)" style="fill: none; stroke: #b2b2b2; stroke-width: 0.8; stroke-linecap: square"/>
   </g>
   <g id="line2d_110">
    <path d="M 53.721227 70.601067 
L 72.333391 64.10928 
L 85.538931 60.309692 
L 95.781944 56.914684 
L 104.151095 55.311607 
L 117.356635 55.132152 
L 127.599648 57.988872 
L 132.390111 52.316622 
L 146.211812 57.410932 
L 159.417352 56.226686 
L 171.460723 50.959375 
L 178.029516 61.661318 
L 191.235056 66.57556 
L 209.84722 72.845066 
L 223.05276 86.613841 
L 233.295773 94.246272 
" clip-path="url(#pda81f9c850)" style="fill: none; stroke: #b2b2b2; stroke-width: 0.8; stroke-linecap: square"/>
   </g>
   <g id="line2d_111">
    <path d="M 53.721227 30.588893 
L 72.333391 32.658968 
L 85.538931 33.078881 
L 95.781944 29.074055 
L 104.151095 43.675803 
L 117.356635 47.485985 
L 127.599648 46.554248 
L 132.390111 52.316622 
L 146.211812 59.578121 
L 159.417352 56.851077 
L 171.460723 71.973156 
L 178.029516 70.807551 
L 191.235056 69.949771 
L 209.84722 62.981699 
L 223.05276 74.009624 
L 233.295773 76.978645 
" clip-path="url(#pda81f9c850)" style="fill: none; stroke: #b2b2b2; stroke-width: 0.8; stroke-linecap: square"/>
   </g>
   <g id="line2d_112">
    <path d="M 53.721227 41.097858 
L 72.333391 35.571966 
L 85.538931 24.880143 
L 95.781944 33.53868 
L 104.151095 26.648877 
L 117.356635 40.537461 
L 127.599648 41.520297 
L 132.390111 52.316622 
L 146.211812 49.953302 
L 159.417352 52.882804 
L 171.460723 58.192316 
L 178.029516 57.692236 
L 191.235056 56.473419 
L 209.84722 66.427894 
L 223.05276 71.549888 
L 233.295773 73.132365 
" clip-path="url(#pda81f9c850)" style="fill: none; stroke: #b2b2b2; stroke-width: 0.8; stroke-linecap: square"/>
   </g>
   <g id="line2d_113">
    <path d="M 53.721227 38.462216 
L 72.333391 38.273279 
L 85.538931 40.112805 
L 95.781944 42.533292 
L 104.151095 41.396054 
L 117.356635 48.451466 
L 127.599648 51.348826 
L 132.390111 52.316622 
L 146.211812 52.091855 
L 159.417352 43.730819 
L 171.460723 61.107415 
L 178.029516 62.127658 
L 191.235056 71.273476 
L 209.84722 81.783035 
L 223.05276 91.286833 
L 233.295773 111.477475 
" clip-path="url(#pda81f9c850)" style="fill: none; stroke: #b2b2b2; stroke-width: 0.8; stroke-linecap: square"/>
   </g>
   <g id="line2d_114">
    <path d="M 53.721227 59.990292 
L 72.333391 49.923793 
L 85.538931 52.359667 
L 95.781944 52.34263 
L 104.151095 42.815365 
L 117.356635 51.163145 
L 127.599648 49.229643 
L 132.390111 52.316622 
L 146.211812 60.411417 
L 159.417352 62.408645 
L 171.460723 71.293662 
L 178.029516 78.692021 
L 191.235056 84.009453 
L 209.84722 78.435325 
L 223.05276 81.400473 
L 233.295773 88.414139 
" clip-path="url(#pda81f9c850)" style="fill: none; stroke: #b2b2b2; stroke-width: 0.8; stroke-linecap: square"/>
   </g>
   <g id="line2d_115">
    <path d="M 53.721227 27.431734 
L 72.333391 27.339054 
L 85.538931 21.238323 
L 95.781944 21.473804 
L 104.151095 33.725291 
L 117.356635 37.843291 
L 127.599648 49.788653 
L 132.390111 52.316622 
L 146.211812 62.039464 
L 159.417352 62.700656 
L 171.460723 78.777188 
L 178.029516 82.466936 
L 191.235056 98.681556 
L 209.84722 104.061584 
L 223.05276 112.164938 
L 233.295773 120.884379 
" clip-path="url(#pda81f9c850)" style="fill: none; stroke: #b2b2b2; stroke-width: 0.8; stroke-linecap: square"/>
   </g>
   <g id="line2d_116">
    <path d="M 53.721227 63.819186 
L 72.333391 57.061919 
L 85.538931 54.545195 
L 95.781944 50.504435 
L 104.151095 50.42313 
L 117.356635 44.479489 
L 127.599648 51.35515 
L 132.390111 52.316622 
L 146.211812 55.981298 
L 159.417352 43.564109 
L 171.460723 51.452897 
L 178.029516 58.130306 
L 191.235056 67.982288 
L 209.84722 84.666756 
L 223.05276 75.92213 
L 233.295773 93.424662 
" clip-path="url(#pda81f9c850)" style="fill: none; stroke: #b2b2b2; stroke-width: 0.8; stroke-linecap: square"/>
   </g>
   <g id="line2d_117">
    <path d="M 53.721227 34.877181 
L 72.333391 28.333245 
L 85.538931 35.024345 
L 95.781944 32.127447 
L 104.151095 43.294117 
L 117.356635 37.9042 
L 127.599648 47.055292 
L 132.390111 52.316622 
L 146.211812 72.041386 
L 159.417352 73.351618 
L 171.460723 67.701226 
L 178.029516 72.586486 
L 191.235056 78.906608 
L 209.84722 87.432663 
L 223.05276 107.773221 
L 233.295773 112.304226 
" clip-path="url(#pda81f9c850)" style="fill: none; stroke: #b2b2b2; stroke-width: 0.8; stroke-linecap: square"/>
   </g>
   <g id="line2d_118">
    <path d="M 53.721227 47.124388 
L 72.333391 45.987703 
L 85.538931 44.416779 
L 95.781944 44.336347 
L 104.151095 39.627179 
L 117.356635 45.311279 
L 127.599648 47.376025 
L 132.390111 52.316622 
L 146.211812 55.222652 
L 159.417352 56.660296 
L 171.460723 62.475354 
L 178.029516 76.343616 
L 191.235056 80.090015 
L 209.84722 101.453816 
L 223.05276 101.670515 
L 233.295773 95.995464 
" clip-path="url(#pda81f9c850)" style="fill: none; stroke: #b2b2b2; stroke-width: 0.8; stroke-linecap: square"/>
   </g>
   <g id="line2d_119">
    <path d="M 53.721227 50.783769 
L 72.333391 38.07448 
L 85.538931 34.631723 
L 95.781944 29.695308 
L 104.151095 34.240242 
L 117.356635 37.921187 
L 127.599648 53.903381 
L 132.390111 52.316622 
L 146.211812 61.316619 
L 159.417352 63.389896 
L 171.460723 64.681906 
L 178.029516 81.291075 
L 191.235056 78.070397 
L 209.84722 85.5176 
L 223.05276 84.594213 
L 233.295773 84.36431 
" clip-path="url(#pda81f9c850)" style="fill: none; stroke: #b2b2b2; stroke-width: 0.8; stroke-linecap: square"/>
   </g>
   <g id="line2d_120">
    <path d="M 53.721227 13.1472 
L 72.333391 18.726419 
L 85.538931 29.797706 
L 95.781944 32.42943 
L 104.151095 33.205205 
L 117.356635 48.785499 
L 127.599648 49.220755 
L 132.390111 52.316622 
L 146.211812 54.146465 
L 159.417352 60.220297 
L 171.460723 68.156361 
L 178.029516 77.60712 
L 191.235056 82.386706 
L 209.84722 82.812832 
L 223.05276 88.196962 
L 233.295773 102.880918 
" clip-path="url(#pda81f9c850)" style="fill: none; stroke: #b2b2b2; stroke-width: 0.8; stroke-linecap: square"/>
   </g>
   <g id="line2d_121">
    <path d="M 53.721227 48.131869 
L 72.333391 47.49162 
L 85.538931 37.126225 
L 95.781944 34.992939 
L 104.151095 40.700209 
L 117.356635 47.43416 
L 127.599648 49.722497 
L 132.390111 52.316622 
L 146.211812 55.374362 
L 159.417352 57.85655 
L 171.460723 65.671354 
L 178.029516 66.08271 
L 191.235056 62.468623 
L 209.84722 69.132836 
L 223.05276 89.459358 
L 233.295773 100.121895 
" clip-path="url(#pda81f9c850)" style="fill: none; stroke: #b2b2b2; stroke-width: 0.8; stroke-linecap: square"/>
   </g>
   <g id="line2d_122">
    <path d="M 53.721227 62.059822 
L 72.333391 54.541953 
L 85.538931 38.32903 
L 95.781944 43.27744 
L 104.151095 54.353404 
L 117.356635 54.29833 
L 127.599648 52.191751 
L 132.390111 52.316622 
L 146.211812 55.987584 
L 159.417352 61.840676 
L 171.460723 61.219434 
L 178.029516 61.431662 
L 191.235056 67.739442 
L 209.84722 67.747067 
L 223.05276 78.993745 
L 233.295773 87.54368 
" clip-path="url(#pda81f9c850)" style="fill: none; stroke: #b2b2b2; stroke-width: 0.8; stroke-linecap: square"/>
   </g>
   <g id="line2d_123">
    <path d="M 53.721227 47.615478 
L 72.333391 42.916945 
L 85.538931 42.035069 
L 95.781944 43.097566 
L 104.151095 44.147931 
L 117.356635 47.539328 
L 127.599648 50.209268 
L 132.390111 52.316622 
L 146.211812 54.481411 
L 159.417352 57.408852 
L 171.460723 61.150457 
L 178.029516 63.527592 
L 191.235056 69.913287 
L 209.84722 79.988661 
L 223.05276 88.675996 
L 233.295773 97.320277 
" clip-path="url(#pda81f9c850)" style="fill: none; stroke: #ff0000; stroke-width: 2; stroke-linecap: square"/>
   </g>
   <g id="line2d_124">
    <path d="M 53.721227 21.256506 
L 72.333391 16.184948 
L 85.538931 17.402858 
L 95.781944 20.562297 
L 104.151095 24.052908 
L 117.356635 32.851604 
L 127.599648 42.115602 
L 132.390111 52.316621 
L 146.211812 40.483549 
L 159.417352 38.383763 
L 171.460723 39.223295 
L 178.029516 40.681126 
L 191.235056 46.053581 
L 209.84722 54.655407 
L 223.05276 63.174504 
L 233.295773 70.888654 
" clip-path="url(#pda81f9c850)" style="fill: none; stroke-dasharray: 7.4,3.2; stroke-dashoffset: 0; stroke: #ff0000; stroke-width: 2"/>
   </g>
   <g id="line2d_125">
    <path d="M 53.721227 73.97445 
L 72.333391 69.648942 
L 85.538931 66.66728 
L 95.781944 65.632834 
L 104.151095 64.242955 
L 117.356635 62.227053 
L 127.599648 58.302935 
L 132.390111 52.316622 
L 146.211812 68.479273 
L 159.417352 76.433941 
L 171.460723 83.07762 
L 178.029516 86.374058 
L 191.235056 93.772993 
L 209.84722 105.321916 
L 223.05276 114.177489 
L 233.295773 123.751901 
" clip-path="url(#pda81f9c850)" style="fill: none; stroke-dasharray: 7.4,3.2; stroke-dashoffset: 0; stroke: #ff0000; stroke-width: 2"/>
   </g>
   <g id="line2d_126">
    <path d="M 53.721227 47.522036 
L 72.333391 43.07111 
L 85.538931 42.001941 
L 95.781944 43.059038 
L 104.151095 44.130676 
L 117.356635 47.460778 
L 127.599648 50.093905 
L 132.390111 52.316622 
L 146.211812 54.533582 
L 159.417352 57.218541 
L 171.460723 61.326139 
L 178.029516 63.670575 
L 191.235056 69.656756 
L 209.84722 80.176086 
L 223.05276 88.60314 
L 233.295773 96.976871 
" clip-path="url(#pda81f9c850)" style="fill: none; stroke: #0000ff; stroke-width: 2; stroke-linecap: square"/>
   </g>
   <g id="line2d_127">
    <path d="M 53.721227 20.832267 
L 72.333391 15.955095 
L 85.538931 17.100656 
L 95.781944 20.591119 
L 104.151095 23.775915 
L 117.356635 32.772527 
L 127.599648 41.780593 
L 132.390111 52.316622 
L 146.211812 40.592777 
L 159.417352 37.984775 
L 171.460723 39.401742 
L 178.029516 40.932006 
L 191.235056 46.000157 
L 209.84722 54.885205 
L 223.05276 63.215495 
L 233.295773 70.492155 
" clip-path="url(#pda81f9c850)" style="fill: none; stroke-dasharray: 7.4,3.2; stroke-dashoffset: 0; stroke: #0000ff; stroke-width: 2"/>
   </g>
   <g id="line2d_128">
    <path d="M 53.721227 74.211804 
L 72.333391 70.187125 
L 85.538931 66.903226 
L 95.781944 65.526958 
L 104.151095 64.485437 
L 117.356635 62.14903 
L 127.599648 58.407216 
L 132.390111 52.316622 
L 146.211812 68.474388 
L 159.417352 76.452307 
L 171.460723 83.250535 
L 178.029516 86.409143 
L 191.235056 93.313355 
L 209.84722 105.466967 
L 223.05276 113.990786 
L 233.295773 123.461586 
" clip-path="url(#pda81f9c850)" style="fill: none; stroke-dasharray: 7.4,3.2; stroke-dashoffset: 0; stroke: #0000ff; stroke-width: 2"/>
   </g>
   <g id="patch_3">
    <path d="M 44.7425 138.0384 
L 44.7425 7.2 
" style="fill: none; stroke: #000000; stroke-width: 0.8; stroke-linejoin: miter; stroke-linecap: square"/>
   </g>
   <g id="patch_4">
    <path d="M 242.2745 138.0384 
L 242.2745 7.2 
" style="fill: none; stroke: #000000; stroke-width: 0.8; stroke-linejoin: miter; stroke-linecap: square"/>
   </g>
   <g id="patch_5">
    <path d="M 44.7425 138.0384 
L 242.2745 138.0384 
" style="fill: none; stroke: #000000; stroke-width: 0.8; stroke-linejoin: miter; stroke-linecap: square"/>
   </g>
   <g id="patch_6">
    <path d="M 44.7425 7.2 
L 242.2745 7.2 
" style="fill: none; stroke: #000000; stroke-width: 0.8; stroke-linejoin: miter; stroke-linecap: square"/>
   </g>
   <g id="legend_1">
    <g id="patch_7">
     <path d="M 247.8745 104.47295 
L 432.5945 104.47295 
Q 434.1945 104.47295 434.1945 102.87295 
L 434.1945 42.36545 
Q 434.1945 40.76545 432.5945 40.76545 
L 247.8745 40.76545 
Q 246.2745 40.76545 246.2745 42.36545 
L 246.2745 102.87295 
Q 246.2745 104.47295 247.8745 104.47295 
z
" style="fill: #ffffff; opacity: 0.8; stroke: #cccccc; stroke-linejoin: miter"/>
    </g>
    <g id="line2d_129">
     <path d="M 249.4745 47.2442 
L 257.4745 47.2442 
L 265.4745 47.2442 
" style="fill: none; stroke: #b2b2b2; stroke-width: 0.8; stroke-linecap: square"/>
    </g>
    <g id="text_7">
     <!-- Individual selected GMs -->
     <g transform="translate(271.8745 50.0442) scale(0.08 -0.08)">
      <defs>
       <path id="DejaVuSans-49" d="M 628 4666 
L 1259 4666 
L 1259 0 
L 628 0 
L 628 4666 
z
" transform="scale(0.015625)"/>
       <path id="DejaVuSans-76" d="M 191 3500 
L 800 3500 
L 1894 563 
L 2988 3500 
L 3597 3500 
L 2284 0 
L 1503 0 
L 191 3500 
z
" transform="scale(0.015625)"/>
       <path id="DejaVuSans-75" d="M 544 1381 
L 544 3500 
L 1119 3500 
L 1119 1403 
Q 1119 906 1312 657 
Q 1506 409 1894 409 
Q 2359 409 2629 706 
Q 2900 1003 2900 1516 
L 2900 3500 
L 3475 3500 
L 3475 0 
L 2900 0 
L 2900 538 
Q 2691 219 2414 64 
Q 2138 -91 1772 -91 
Q 1169 -91 856 284 
Q 544 659 544 1381 
z
M 1991 3584 
L 1991 3584 
z
" transform="scale(0.015625)"/>
       <path id="DejaVuSans-47" d="M 3809 666 
L 3809 1919 
L 2778 1919 
L 2778 2438 
L 4434 2438 
L 4434 434 
Q 4069 175 3628 42 
Q 3188 -91 2688 -91 
Q 1594 -91 976 548 
Q 359 1188 359 2328 
Q 359 3472 976 4111 
Q 1594 4750 2688 4750 
Q 3144 4750 3555 4637 
Q 3966 4525 4313 4306 
L 4313 3634 
Q 3963 3931 3569 4081 
Q 3175 4231 2741 4231 
Q 1884 4231 1454 3753 
Q 1025 3275 1025 2328 
Q 1025 1384 1454 906 
Q 1884 428 2741 428 
Q 3075 428 3337 486 
Q 3600 544 3809 666 
z
" transform="scale(0.015625)"/>
       <path id="DejaVuSans-4d" d="M 628 4666 
L 1569 4666 
L 2759 1491 
L 3956 4666 
L 4897 4666 
L 4897 0 
L 4281 0 
L 4281 4097 
L 3078 897 
L 2444 897 
L 1241 4097 
L 1241 0 
L 628 0 
L 628 4666 
z
" transform="scale(0.015625)"/>
      </defs>
      <use xlink:href="#DejaVuSans-49"/>
      <use xlink:href="#DejaVuSans-6e" x="29.492188"/>
      <use xlink:href="#DejaVuSans-64" x="92.871094"/>
      <use xlink:href="#DejaVuSans-69" x="156.347656"/>
      <use xlink:href="#DejaVuSans-76" x="184.130859"/>
      <use xlink:href="#DejaVuSans-69" x="243.310547"/>
      <use xlink:href="#DejaVuSans-64" x="271.09375"/>
      <use xlink:href="#DejaVuSans-75" x="334.570312"/>
      <use xlink:href="#DejaVuSans-61" x="397.949219"/>
      <use xlink:href="#DejaVuSans-6c" x="459.228516"/>
      <use xlink:href="#DejaVuSans-20" x="487.011719"/>
      <use xlink:href="#DejaVuSans-73" x="518.798828"/>
      <use xlink:href="#DejaVuSans-65" x="570.898438"/>
      <use xlink:href="#DejaVuSans-6c" x="632.421875"/>
      <use xlink:href="#DejaVuSans-65" x="660.205078"/>
      <use xlink:href="#DejaVuSans-63" x="721.728516"/>
      <use xlink:href="#DejaVuSans-74" x="776.708984"/>
      <use xlink:href="#DejaVuSans-65" x="815.917969"/>
      <use xlink:href="#DejaVuSans-64" x="877.441406"/>
      <use xlink:href="#DejaVuSans-20" x="940.917969"/>
      <use xlink:href="#DejaVuSans-47" x="972.705078"/>
      <use xlink:href="#DejaVuSans-4d" x="1050.195312"/>
      <use xlink:href="#DejaVuSans-73" x="1136.474609"/>
     </g>
    </g>
    <g id="line2d_130">
     <path d="M 249.4745 58.9867 
L 257.4745 58.9867 
L 265.4745 58.9867 
" style="fill: none; stroke: #ff0000; stroke-width: 2; stroke-linecap: square"/>
    </g>
    <g id="text_8">
     <!-- GCIM median -->
     <g transform="translate(271.8745 61.7867) scale(0.08 -0.08)">
      <defs>
       <path id="DejaVuSans-43" d="M 4122 4306 
L 4122 3641 
Q 3803 3938 3442 4084 
Q 3081 4231 2675 4231 
Q 1875 4231 1450 3742 
Q 1025 3253 1025 2328 
Q 1025 1406 1450 917 
Q 1875 428 2675 428 
Q 3081 428 3442 575 
Q 3803 722 4122 1019 
L 4122 359 
Q 3791 134 3420 21 
Q 3050 -91 2638 -91 
Q 1578 -91 968 557 
Q 359 1206 359 2328 
Q 359 3453 968 4101 
Q 1578 4750 2638 4750 
Q 3056 4750 3426 4639 
Q 3797 4528 4122 4306 
z
" transform="scale(0.015625)"/>
       <path id="DejaVuSans-6d" d="M 3328 2828 
Q 3544 3216 3844 3400 
Q 4144 3584 4550 3584 
Q 5097 3584 5394 3201 
Q 5691 2819 5691 2113 
L 5691 0 
L 5113 0 
L 5113 2094 
Q 5113 2597 4934 2840 
Q 4756 3084 4391 3084 
Q 3944 3084 3684 2787 
Q 3425 2491 3425 1978 
L 3425 0 
L 2847 0 
L 2847 2094 
Q 2847 2600 2669 2842 
Q 2491 3084 2119 3084 
Q 1678 3084 1418 2786 
Q 1159 2488 1159 1978 
L 1159 0 
L 581 0 
L 581 3500 
L 1159 3500 
L 1159 2956 
Q 1356 3278 1631 3431 
Q 1906 3584 2284 3584 
Q 2666 3584 2933 3390 
Q 3200 3197 3328 2828 
z
" transform="scale(0.015625)"/>
      </defs>
      <use xlink:href="#DejaVuSans-47"/>
      <use xlink:href="#DejaVuSans-43" x="77.490234"/>
      <use xlink:href="#DejaVuSans-49" x="147.314453"/>
      <use xlink:href="#DejaVuSans-4d" x="176.806641"/>
      <use xlink:href="#DejaVuSans-20" x="263.085938"/>
      <use xlink:href="#DejaVuSans-6d" x="294.873047"/>
      <use xlink:href="#DejaVuSans-65" x="392.285156"/>
      <use xlink:href="#DejaVuSans-64" x="453.808594"/>
      <use xlink:href="#DejaVuSans-69" x="517.285156"/>
      <use xlink:href="#DejaVuSans-61" x="545.068359"/>
      <use xlink:href="#DejaVuSans-6e" x="606.347656"/>
     </g>
    </g>
    <g id="line2d_131">
     <path d="M 249.4745 72.01045 
L 257.4745 72.01045 
L 265.4745 72.01045 
" style="fill: none; stroke-dasharray: 7.4,3.2; stroke-dashoffset: 0; stroke: #ff0000; stroke-width: 2"/>
    </g>
    <g id="text_9">
     <!-- GCIM $16^{th}$ and $84^{th}$ percentiles -->
     <g transform="translate(271.8745 74.81045) scale(0.08 -0.08)">
      <defs>
       <path id="DejaVuSans-36" d="M 2113 2584 
Q 1688 2584 1439 2293 
Q 1191 2003 1191 1497 
Q 1191 994 1439 701 
Q 1688 409 2113 409 
Q 2538 409 2786 701 
Q 3034 994 3034 1497 
Q 3034 2003 2786 2293 
Q 2538 2584 2113 2584 
z
M 3366 4563 
L 3366 3988 
Q 3128 4100 2886 4159 
Q 2644 4219 2406 4219 
Q 1781 4219 1451 3797 
Q 1122 3375 1075 2522 
Q 1259 2794 1537 2939 
Q 1816 3084 2150 3084 
Q 2853 3084 3261 2657 
Q 3669 2231 3669 1497 
Q 3669 778 3244 343 
Q 2819 -91 2113 -91 
Q 1303 -91 875 529 
Q 447 1150 447 2328 
Q 447 3434 972 4092 
Q 1497 4750 2381 4750 
Q 2619 4750 2861 4703 
Q 3103 4656 3366 4563 
z
" transform="scale(0.015625)"/>
       <path id="DejaVuSans-Oblique-74" d="M 2706 3500 
L 2619 3053 
L 1472 3053 
L 1100 1153 
Q 1081 1047 1072 975 
Q 1063 903 1063 863 
Q 1063 663 1183 572 
Q 1303 481 1569 481 
L 2150 481 
L 2053 0 
L 1503 0 
Q 991 0 739 200 
Q 488 400 488 806 
Q 488 878 497 964 
Q 506 1050 525 1153 
L 897 3053 
L 409 3053 
L 500 3500 
L 978 3500 
L 1172 4494 
L 1747 4494 
L 1556 3500 
L 2706 3500 
z
" transform="scale(0.015625)"/>
       <path id="DejaVuSans-Oblique-68" d="M 3566 2113 
L 3156 0 
L 2578 0 
L 2988 2091 
Q 3016 2238 3031 2350 
Q 3047 2463 3047 2528 
Q 3047 2791 2881 2937 
Q 2716 3084 2419 3084 
Q 1956 3084 1617 2771 
Q 1278 2459 1178 1941 
L 800 0 
L 225 0 
L 1172 4863 
L 1747 4863 
L 1375 2950 
Q 1594 3244 1934 3414 
Q 2275 3584 2650 3584 
Q 3113 3584 3367 3334 
Q 3622 3084 3622 2631 
Q 3622 2519 3608 2391 
Q 3594 2263 3566 2113 
z
" transform="scale(0.015625)"/>
       <path id="DejaVuSans-38" d="M 2034 2216 
Q 1584 2216 1326 1975 
Q 1069 1734 1069 1313 
Q 1069 891 1326 650 
Q 1584 409 2034 409 
Q 2484 409 2743 651 
Q 3003 894 3003 1313 
Q 3003 1734 2745 1975 
Q 2488 2216 2034 2216 
z
M 1403 2484 
Q 997 2584 770 2862 
Q 544 3141 544 3541 
Q 544 4100 942 4425 
Q 1341 4750 2034 4750 
Q 2731 4750 3128 4425 
Q 3525 4100 3525 3541 
Q 3525 3141 3298 2862 
Q 3072 2584 2669 2484 
Q 3125 2378 3379 2068 
Q 3634 1759 3634 1313 
Q 3634 634 3220 271 
Q 2806 -91 2034 -91 
Q 1263 -91 848 271 
Q 434 634 434 1313 
Q 434 1759 690 2068 
Q 947 2378 1403 2484 
z
M 1172 3481 
Q 1172 3119 1398 2916 
Q 1625 2713 2034 2713 
Q 2441 2713 2670 2916 
Q 2900 3119 2900 3481 
Q 2900 3844 2670 4047 
Q 2441 4250 2034 4250 
Q 1625 4250 1398 4047 
Q 1172 3844 1172 3481 
z
" transform="scale(0.015625)"/>
       <path id="DejaVuSans-34" d="M 2419 4116 
L 825 1625 
L 2419 1625 
L 2419 4116 
z
M 2253 4666 
L 3047 4666 
L 3047 1625 
L 3713 1625 
L 3713 1100 
L 3047 1100 
L 3047 0 
L 2419 0 
L 2419 1100 
L 313 1100 
L 313 1709 
L 2253 4666 
z
" transform="scale(0.015625)"/>
      </defs>
      <use xlink:href="#DejaVuSans-47" transform="translate(0 0.529687)"/>
      <use xlink:href="#DejaVuSans-43" transform="translate(77.490234 0.529687)"/>
      <use xlink:href="#DejaVuSans-49" transform="translate(147.314453 0.529687)"/>
      <use xlink:href="#DejaVuSans-4d" transform="translate(176.806641 0.529687)"/>
      <use xlink:href="#DejaVuSans-20" transform="translate(263.085938 0.529687)"/>
      <use xlink:href="#DejaVuSans-31" transform="translate(294.873047 0.529687)"/>
      <use xlink:href="#DejaVuSans-36" transform="translate(358.496094 0.529687)"/>
      <use xlink:href="#DejaVuSans-Oblique-74" transform="translate(423.076172 38.810937) scale(0.7)"/>
      <use xlink:href="#DejaVuSans-Oblique-68" transform="translate(450.522461 38.810937) scale(0.7)"/>
      <use xlink:href="#DejaVuSans-20" transform="translate(497.62207 0.529687)"/>
      <use xlink:href="#DejaVuSans-61" transform="translate(529.40918 0.529687)"/>
      <use xlink:href="#DejaVuSans-6e" transform="translate(590.688477 0.529687)"/>
      <use xlink:href="#DejaVuSans-64" transform="translate(654.067383 0.529687)"/>
      <use xlink:href="#DejaVuSans-20" transform="translate(717.543945 0.529687)"/>
      <use xlink:href="#DejaVuSans-38" transform="translate(749.331055 0.529687)"/>
      <use xlink:href="#DejaVuSans-34" transform="translate(812.954102 0.529687)"/>
      <use xlink:href="#DejaVuSans-Oblique-74" transform="translate(877.53418 38.810937) scale(0.7)"/>
      <use xlink:href="#DejaVuSans-Oblique-68" transform="translate(904.980469 38.810937) scale(0.7)"/>
      <use xlink:href="#DejaVuSans-20" transform="translate(952.080078 0.529687)"/>
      <use xlink:href="#DejaVuSans-70" transform="translate(983.867188 0.529687)"/>
      <use xlink:href="#DejaVuSans-65" transform="translate(1047.34375 0.529687)"/>
      <use xlink:href="#DejaVuSans-72" transform="translate(1108.867188 0.529687)"/>
      <use xlink:href="#DejaVuSans-63" transform="translate(1149.980469 0.529687)"/>
      <use xlink:href="#DejaVuSans-65" transform="translate(1204.960938 0.529687)"/>
      <use xlink:href="#DejaVuSans-6e" transform="translate(1266.484375 0.529687)"/>
      <use xlink:href="#DejaVuSans-74" transform="translate(1329.863281 0.529687)"/>
      <use xlink:href="#DejaVuSans-69" transform="translate(1369.072266 0.529687)"/>
      <use xlink:href="#DejaVuSans-6c" transform="translate(1396.855469 0.529687)"/>
      <use xlink:href="#DejaVuSans-65" transform="translate(1424.638672 0.529687)"/>
      <use xlink:href="#DejaVuSans-73" transform="translate(1486.162109 0.529687)"/>
     </g>
    </g>
    <g id="line2d_132">
     <path d="M 249.4745 83.7692 
L 257.4745 83.7692 
L 265.4745 83.7692 
" style="fill: none; stroke: #0000ff; stroke-width: 2; stroke-linecap: square"/>
    </g>
    <g id="text_10">
     <!-- Selected GMs median -->
     <g transform="translate(271.8745 86.5692) scale(0.08 -0.08)">
      <use xlink:href="#DejaVuSans-53"/>
      <use xlink:href="#DejaVuSans-65" x="63.476562"/>
      <use xlink:href="#DejaVuSans-6c" x="125"/>
      <use xlink:href="#DejaVuSans-65" x="152.783203"/>
      <use xlink:href="#DejaVuSans-63" x="214.306641"/>
      <use xlink:href="#DejaVuSans-74" x="269.287109"/>
      <use xlink:href="#DejaVuSans-65" x="308.496094"/>
      <use xlink:href="#DejaVuSans-64" x="370.019531"/>
      <use xlink:href="#DejaVuSans-20" x="433.496094"/>
      <use xlink:href="#DejaVuSans-47" x="465.283203"/>
      <use xlink:href="#DejaVuSans-4d" x="542.773438"/>
      <use xlink:href="#DejaVuSans-73" x="629.052734"/>
      <use xlink:href="#DejaVuSans-20" x="681.152344"/>
      <use xlink:href="#DejaVuSans-6d" x="712.939453"/>
      <use xlink:href="#DejaVuSans-65" x="810.351562"/>
      <use xlink:href="#DejaVuSans-64" x="871.875"/>
      <use xlink:href="#DejaVuSans-69" x="935.351562"/>
      <use xlink:href="#DejaVuSans-61" x="963.134766"/>
      <use xlink:href="#DejaVuSans-6e" x="1024.414062"/>
     </g>
    </g>
    <g id="line2d_133">
     <path d="M 249.4745 96.79295 
L 257.4745 96.79295 
L 265.4745 96.79295 
" style="fill: none; stroke-dasharray: 7.4,3.2; stroke-dashoffset: 0; stroke: #0000ff; stroke-width: 2"/>
    </g>
    <g id="text_11">
     <!-- Selected GMs, $16^{th}$ and $84^{th}$ percentiles -->
     <g transform="translate(271.8745 99.59295) scale(0.08 -0.08)">
      <use xlink:href="#DejaVuSans-53" transform="translate(0 0.529687)"/>
      <use xlink:href="#DejaVuSans-65" transform="translate(63.476562 0.529687)"/>
      <use xlink:href="#DejaVuSans-6c" transform="translate(125 0.529687)"/>
      <use xlink:href="#DejaVuSans-65" transform="translate(152.783203 0.529687)"/>
      <use xlink:href="#DejaVuSans-63" transform="translate(214.306641 0.529687)"/>
      <use xlink:href="#DejaVuSans-74" transform="translate(269.287109 0.529687)"/>
      <use xlink:href="#DejaVuSans-65" transform="translate(308.496094 0.529687)"/>
      <use xlink:href="#DejaVuSans-64" transform="translate(370.019531 0.529687)"/>
      <use xlink:href="#DejaVuSans-20" transform="translate(433.496094 0.529687)"/>
      <use xlink:href="#DejaVuSans-47" transform="translate(465.283203 0.529687)"/>
      <use xlink:href="#DejaVuSans-4d" transform="translate(542.773438 0.529687)"/>
      <use xlink:href="#DejaVuSans-73" transform="translate(629.052734 0.529687)"/>
      <use xlink:href="#DejaVuSans-2c" transform="translate(681.152344 0.529687)"/>
      <use xlink:href="#DejaVuSans-20" transform="translate(712.939453 0.529687)"/>
      <use xlink:href="#DejaVuSans-31" transform="translate(744.726562 0.529687)"/>
      <use xlink:href="#DejaVuSans-36" transform="translate(808.349609 0.529687)"/>
      <use xlink:href="#DejaVuSans-Oblique-74" transform="translate(872.929688 38.810937) scale(0.7)"/>
      <use xlink:href="#DejaVuSans-Oblique-68" transform="translate(900.375977 38.810937) scale(0.7)"/>
      <use xlink:href="#DejaVuSans-20" transform="translate(947.475586 0.529687)"/>
      <use xlink:href="#DejaVuSans-61" transform="translate(979.262695 0.529687)"/>
      <use xlink:href="#DejaVuSans-6e" transform="translate(1040.541992 0.529687)"/>
      <use xlink:href="#DejaVuSans-64" transform="translate(1103.920898 0.529687)"/>
      <use xlink:href="#DejaVuSans-20" transform="translate(1167.397461 0.529687)"/>
      <use xlink:href="#DejaVuSans-38" transform="translate(1199.18457 0.529687)"/>
      <use xlink:href="#DejaVuSans-34" transform="translate(1262.807617 0.529687)"/>
      <use xlink:href="#DejaVuSans-Oblique-74" transform="translate(1327.387695 38.810937) scale(0.7)"/>
      <use xlink:href="#DejaVuSans-Oblique-68" transform="translate(1354.833984 38.810937) scale(0.7)"/>
      <use xlink:href="#DejaVuSans-20" transform="translate(1401.933594 0.529687)"/>
      <use xlink:href="#DejaVuSans-70" transform="translate(1433.720703 0.529687)"/>
      <use xlink:href="#DejaVuSans-65" transform="translate(1497.197266 0.529687)"/>
      <use xlink:href="#DejaVuSans-72" transform="translate(1558.720703 0.529687)"/>
      <use xlink:href="#DejaVuSans-63" transform="translate(1599.833984 0.529687)"/>
      <use xlink:href="#DejaVuSans-65" transform="translate(1654.814453 0.529687)"/>
      <use xlink:href="#DejaVuSans-6e" transform="translate(1716.337891 0.529687)"/>
      <use xlink:href="#DejaVuSans-74" transform="translate(1779.716797 0.529687)"/>
      <use xlink:href="#DejaVuSans-69" transform="translate(1818.925781 0.529687)"/>
      <use xlink:href="#DejaVuSans-6c" transform="translate(1846.708984 0.529687)"/>
      <use xlink:href="#DejaVuSans-65" transform="translate(1874.492188 0.529687)"/>
      <use xlink:href="#DejaVuSans-73" transform="translate(1936.015625 0.529687)"/>
     </g>
    </g>
   </g>
  </g>
 </g>
 <defs>
  <clipPath id="pda81f9c850">
   <rect x="44.7425" y="7.2" width="197.532" height="130.8384"/>
  </clipPath>
 </defs>
</svg>
