<?xml version="1.0" encoding="utf-8" standalone="no"?>
<!DOCTYPE svg PUBLIC "-//W3C//DTD SVG 1.1//EN"
  "http://www.w3.org/Graphics/SVG/1.1/DTD/svg11.dtd">
<svg xmlns:xlink="http://www.w3.org/1999/xlink" width="441.3945pt" height="171.7234pt" viewBox="0 0 441.3945 171.7234" xmlns="http://www.w3.org/2000/svg" version="1.1">
 <metadata>
  <rdf:RDF xmlns:dc="http://purl.org/dc/elements/1.1/" xmlns:cc="http://creativecommons.org/ns#" xmlns:rdf="http://www.w3.org/1999/02/22-rdf-syntax-ns#">
   <cc:Work>
    <dc:type rdf:resource="http://purl.org/dc/dcmitype/StillImage"/>
    <dc:date>2024-10-31T11:37:38.400815</dc:date>
    <dc:format>image/svg+xml</dc:format>
    <dc:creator>
     <cc:Agent>
      <dc:title>Matplotlib v3.8.2, https://matplotlib.org/</dc:title>
     </cc:Agent>
    </dc:creator>
   </cc:Work>
  </rdf:RDF>
 </metadata>
 <defs>
  <style type="text/css">*{stroke-linejoin: round; stroke-linecap: butt}</style>
 </defs>
 <g id="figure_1">
  <g id="patch_1">
   <path d="M 0 171.7234 
L 441.3945 171.7234 
L 441.3945 0 
L 0 0 
z
" style="fill: #ffffff"/>
  </g>
  <g id="axes_1">
   <g id="patch_2">
    <path d="M 44.7425 138.0384 
L 242.2745 138.0384 
L 242.2745 7.2 
L 44.7425 7.2 
z
" style="fill: #ffffff"/>
   </g>
   <g id="matplotlib.axis_1">
    <g id="xtick_1">
     <g id="line2d_1">
      <path d="M 53.721227 138.0384 
L 53.721227 7.2 
" clip-path="url(#p8b08dd80a6)" style="fill: none; stroke: #d9d9d9; stroke-width: 0.8; stroke-linecap: square"/>
     </g>
     <g id="line2d_2">
      <defs>
       <path id="m2b7f08c80b" d="M 0 0 
L 0 3.5 
" style="stroke: #000000; stroke-width: 0.8"/>
      </defs>
      <g>
       <use xlink:href="#m2b7f08c80b" x="53.721227" y="138.0384" style="stroke: #000000; stroke-width: 0.8"/>
      </g>
     </g>
     <g id="text_1">
      <!-- $\mathdefault{10^{-1}}$ -->
      <g transform="translate(44.321227 151.11715) scale(0.08 -0.08)">
       <defs>
        <path id="DejaVuSans-31" d="M 794 531 
L 1825 531 
L 1825 4091 
L 703 3866 
L 703 4441 
L 1819 4666 
L 2450 4666 
L 2450 531 
L 3481 531 
L 3481 0 
L 794 0 
L 794 531 
z
" transform="scale(0.015625)"/>
        <path id="DejaVuSans-30" d="M 2034 4250 
Q 1547 4250 1301 3770 
Q 1056 3291 1056 2328 
Q 1056 1369 1301 889 
Q 1547 409 2034 409 
Q 2525 409 2770 889 
Q 3016 1369 3016 2328 
Q 3016 3291 2770 3770 
Q 2525 4250 2034 4250 
z
M 2034 4750 
Q 2819 4750 3233 4129 
Q 3647 3509 3647 2328 
Q 3647 1150 3233 529 
Q 2819 -91 2034 -91 
Q 1250 -91 836 529 
Q 422 1150 422 2328 
Q 422 3509 836 4129 
Q 1250 4750 2034 4750 
z
" transform="scale(0.015625)"/>
        <path id="DejaVuSans-2212" d="M 678 2272 
L 4684 2272 
L 4684 1741 
L 678 1741 
L 678 2272 
z
" transform="scale(0.015625)"/>
       </defs>
       <use xlink:href="#DejaVuSans-31" transform="translate(0 0.684375)"/>
       <use xlink:href="#DejaVuSans-30" transform="translate(63.623047 0.684375)"/>
       <use xlink:href="#DejaVuSans-2212" transform="translate(128.203125 38.965625) scale(0.7)"/>
       <use xlink:href="#DejaVuSans-31" transform="translate(186.855469 38.965625) scale(0.7)"/>
      </g>
     </g>
    </g>
    <g id="xtick_2">
     <g id="line2d_3">
      <path d="M 159.417352 138.0384 
L 159.417352 7.2 
" clip-path="url(#p8b08dd80a6)" style="fill: none; stroke: #d9d9d9; stroke-width: 0.8; stroke-linecap: square"/>
     </g>
     <g id="line2d_4">
      <g>
       <use xlink:href="#m2b7f08c80b" x="159.417352" y="138.0384" style="stroke: #000000; stroke-width: 0.8"/>
      </g>
     </g>
     <g id="text_2">
      <!-- $\mathdefault{10^{0}}$ -->
      <g transform="translate(152.377352 151.11715) scale(0.08 -0.08)">
       <use xlink:href="#DejaVuSans-31" transform="translate(0 0.765625)"/>
       <use xlink:href="#DejaVuSans-30" transform="translate(63.623047 0.765625)"/>
       <use xlink:href="#DejaVuSans-30" transform="translate(128.203125 39.046875) scale(0.7)"/>
      </g>
     </g>
    </g>
    <g id="xtick_3">
     <g id="line2d_5">
      <path d="M 48.884838 138.0384 
L 48.884838 7.2 
" clip-path="url(#p8b08dd80a6)" style="fill: none; stroke-dasharray: 2.96,1.28; stroke-dashoffset: 0; stroke: #f2f2f2; stroke-width: 0.8"/>
     </g>
     <g id="line2d_6">
      <defs>
       <path id="m01124cc44b" d="M 0 0 
L 0 2 
" style="stroke: #000000; stroke-width: 0.6"/>
      </defs>
      <g>
       <use xlink:href="#m01124cc44b" x="48.884838" y="138.0384" style="stroke: #000000; stroke-width: 0.6"/>
      </g>
     </g>
    </g>
    <g id="xtick_4">
     <g id="line2d_7">
      <path d="M 85.538931 138.0384 
L 85.538931 7.2 
" clip-path="url(#p8b08dd80a6)" style="fill: none; stroke-dasharray: 2.96,1.28; stroke-dashoffset: 0; stroke: #f2f2f2; stroke-width: 0.8"/>
     </g>
     <g id="line2d_8">
      <g>
       <use xlink:href="#m01124cc44b" x="85.538931" y="138.0384" style="stroke: #000000; stroke-width: 0.6"/>
      </g>
     </g>
    </g>
    <g id="xtick_5">
     <g id="line2d_9">
      <path d="M 104.151095 138.0384 
L 104.151095 7.2 
" clip-path="url(#p8b08dd80a6)" style="fill: none; stroke-dasharray: 2.96,1.28; stroke-dashoffset: 0; stroke: #f2f2f2; stroke-width: 0.8"/>
     </g>
     <g id="line2d_10">
      <g>
       <use xlink:href="#m01124cc44b" x="104.151095" y="138.0384" style="stroke: #000000; stroke-width: 0.6"/>
      </g>
     </g>
    </g>
    <g id="xtick_6">
     <g id="line2d_11">
      <path d="M 117.356635 138.0384 
L 117.356635 7.2 
" clip-path="url(#p8b08dd80a6)" style="fill: none; stroke-dasharray: 2.96,1.28; stroke-dashoffset: 0; stroke: #f2f2f2; stroke-width: 0.8"/>
     </g>
     <g id="line2d_12">
      <g>
       <use xlink:href="#m01124cc44b" x="117.356635" y="138.0384" style="stroke: #000000; stroke-width: 0.6"/>
      </g>
     </g>
    </g>
    <g id="xtick_7">
     <g id="line2d_13">
      <path d="M 127.599648 138.0384 
L 127.599648 7.2 
" clip-path="url(#p8b08dd80a6)" style="fill: none; stroke-dasharray: 2.96,1.28; stroke-dashoffset: 0; stroke: #f2f2f2; stroke-width: 0.8"/>
     </g>
     <g id="line2d_14">
      <g>
       <use xlink:href="#m01124cc44b" x="127.599648" y="138.0384" style="stroke: #000000; stroke-width: 0.6"/>
      </g>
     </g>
    </g>
    <g id="xtick_8">
     <g id="line2d_15">
      <path d="M 135.968799 138.0384 
L 135.968799 7.2 
" clip-path="url(#p8b08dd80a6)" style="fill: none; stroke-dasharray: 2.96,1.28; stroke-dashoffset: 0; stroke: #f2f2f2; stroke-width: 0.8"/>
     </g>
     <g id="line2d_16">
      <g>
       <use xlink:href="#m01124cc44b" x="135.968799" y="138.0384" style="stroke: #000000; stroke-width: 0.6"/>
      </g>
     </g>
    </g>
    <g id="xtick_9">
     <g id="line2d_17">
      <path d="M 143.044815 138.0384 
L 143.044815 7.2 
" clip-path="url(#p8b08dd80a6)" style="fill: none; stroke-dasharray: 2.96,1.28; stroke-dashoffset: 0; stroke: #f2f2f2; stroke-width: 0.8"/>
     </g>
     <g id="line2d_18">
      <g>
       <use xlink:href="#m01124cc44b" x="143.044815" y="138.0384" style="stroke: #000000; stroke-width: 0.6"/>
      </g>
     </g>
    </g>
    <g id="xtick_10">
     <g id="line2d_19">
      <path d="M 149.174339 138.0384 
L 149.174339 7.2 
" clip-path="url(#p8b08dd80a6)" style="fill: none; stroke-dasharray: 2.96,1.28; stroke-dashoffset: 0; stroke: #f2f2f2; stroke-width: 0.8"/>
     </g>
     <g id="line2d_20">
      <g>
       <use xlink:href="#m01124cc44b" x="149.174339" y="138.0384" style="stroke: #000000; stroke-width: 0.6"/>
      </g>
     </g>
    </g>
    <g id="xtick_11">
     <g id="line2d_21">
      <path d="M 154.580963 138.0384 
L 154.580963 7.2 
" clip-path="url(#p8b08dd80a6)" style="fill: none; stroke-dasharray: 2.96,1.28; stroke-dashoffset: 0; stroke: #f2f2f2; stroke-width: 0.8"/>
     </g>
     <g id="line2d_22">
      <g>
       <use xlink:href="#m01124cc44b" x="154.580963" y="138.0384" style="stroke: #000000; stroke-width: 0.6"/>
      </g>
     </g>
    </g>
    <g id="xtick_12">
     <g id="line2d_23">
      <path d="M 191.235056 138.0384 
L 191.235056 7.2 
" clip-path="url(#p8b08dd80a6)" style="fill: none; stroke-dasharray: 2.96,1.28; stroke-dashoffset: 0; stroke: #f2f2f2; stroke-width: 0.8"/>
     </g>
     <g id="line2d_24">
      <g>
       <use xlink:href="#m01124cc44b" x="191.235056" y="138.0384" style="stroke: #000000; stroke-width: 0.6"/>
      </g>
     </g>
    </g>
    <g id="xtick_13">
     <g id="line2d_25">
      <path d="M 209.84722 138.0384 
L 209.84722 7.2 
" clip-path="url(#p8b08dd80a6)" style="fill: none; stroke-dasharray: 2.96,1.28; stroke-dashoffset: 0; stroke: #f2f2f2; stroke-width: 0.8"/>
     </g>
     <g id="line2d_26">
      <g>
       <use xlink:href="#m01124cc44b" x="209.84722" y="138.0384" style="stroke: #000000; stroke-width: 0.6"/>
      </g>
     </g>
    </g>
    <g id="xtick_14">
     <g id="line2d_27">
      <path d="M 223.05276 138.0384 
L 223.05276 7.2 
" clip-path="url(#p8b08dd80a6)" style="fill: none; stroke-dasharray: 2.96,1.28; stroke-dashoffset: 0; stroke: #f2f2f2; stroke-width: 0.8"/>
     </g>
     <g id="line2d_28">
      <g>
       <use xlink:href="#m01124cc44b" x="223.05276" y="138.0384" style="stroke: #000000; stroke-width: 0.6"/>
      </g>
     </g>
    </g>
    <g id="xtick_15">
     <g id="line2d_29">
      <path d="M 233.295773 138.0384 
L 233.295773 7.2 
" clip-path="url(#p8b08dd80a6)" style="fill: none; stroke-dasharray: 2.96,1.28; stroke-dashoffset: 0; stroke: #f2f2f2; stroke-width: 0.8"/>
     </g>
     <g id="line2d_30">
      <g>
       <use xlink:href="#m01124cc44b" x="233.295773" y="138.0384" style="stroke: #000000; stroke-width: 0.6"/>
      </g>
     </g>
    </g>
    <g id="xtick_16">
     <g id="line2d_31">
      <path d="M 241.664924 138.0384 
L 241.664924 7.2 
" clip-path="url(#p8b08dd80a6)" style="fill: none; stroke-dasharray: 2.96,1.28; stroke-dashoffset: 0; stroke: #f2f2f2; stroke-width: 0.8"/>
     </g>
     <g id="line2d_32">
      <g>
       <use xlink:href="#m01124cc44b" x="241.664924" y="138.0384" style="stroke: #000000; stroke-width: 0.6"/>
      </g>
     </g>
    </g>
    <g id="text_3">
     <!-- Period, T (s) -->
     <g transform="translate(119.576 162.85965) scale(0.08 -0.08)">
      <defs>
       <path id="DejaVuSans-50" d="M 1259 4147 
L 1259 2394 
L 2053 2394 
Q 2494 2394 2734 2622 
Q 2975 2850 2975 3272 
Q 2975 3691 2734 3919 
Q 2494 4147 2053 4147 
L 1259 4147 
z
M 628 4666 
L 2053 4666 
Q 2838 4666 3239 4311 
Q 3641 3956 3641 3272 
Q 3641 2581 3239 2228 
Q 2838 1875 2053 1875 
L 1259 1875 
L 1259 0 
L 628 0 
L 628 4666 
z
" transform="scale(0.015625)"/>
       <path id="DejaVuSans-65" d="M 3597 1894 
L 3597 1613 
L 953 1613 
Q 991 1019 1311 708 
Q 1631 397 2203 397 
Q 2534 397 2845 478 
Q 3156 559 3463 722 
L 3463 178 
Q 3153 47 2828 -22 
Q 2503 -91 2169 -91 
Q 1331 -91 842 396 
Q 353 884 353 1716 
Q 353 2575 817 3079 
Q 1281 3584 2069 3584 
Q 2775 3584 3186 3129 
Q 3597 2675 3597 1894 
z
M 3022 2063 
Q 3016 2534 2758 2815 
Q 2500 3097 2075 3097 
Q 1594 3097 1305 2825 
Q 1016 2553 972 2059 
L 3022 2063 
z
" transform="scale(0.015625)"/>
       <path id="DejaVuSans-72" d="M 2631 2963 
Q 2534 3019 2420 3045 
Q 2306 3072 2169 3072 
Q 1681 3072 1420 2755 
Q 1159 2438 1159 1844 
L 1159 0 
L 581 0 
L 581 3500 
L 1159 3500 
L 1159 2956 
Q 1341 3275 1631 3429 
Q 1922 3584 2338 3584 
Q 2397 3584 2469 3576 
Q 2541 3569 2628 3553 
L 2631 2963 
z
" transform="scale(0.015625)"/>
       <path id="DejaVuSans-69" d="M 603 3500 
L 1178 3500 
L 1178 0 
L 603 0 
L 603 3500 
z
M 603 4863 
L 1178 4863 
L 1178 4134 
L 603 4134 
L 603 4863 
z
" transform="scale(0.015625)"/>
       <path id="DejaVuSans-6f" d="M 1959 3097 
Q 1497 3097 1228 2736 
Q 959 2375 959 1747 
Q 959 1119 1226 758 
Q 1494 397 1959 397 
Q 2419 397 2687 759 
Q 2956 1122 2956 1747 
Q 2956 2369 2687 2733 
Q 2419 3097 1959 3097 
z
M 1959 3584 
Q 2709 3584 3137 3096 
Q 3566 2609 3566 1747 
Q 3566 888 3137 398 
Q 2709 -91 1959 -91 
Q 1206 -91 779 398 
Q 353 888 353 1747 
Q 353 2609 779 3096 
Q 1206 3584 1959 3584 
z
" transform="scale(0.015625)"/>
       <path id="DejaVuSans-64" d="M 2906 2969 
L 2906 4863 
L 3481 4863 
L 3481 0 
L 2906 0 
L 2906 525 
Q 2725 213 2448 61 
Q 2172 -91 1784 -91 
Q 1150 -91 751 415 
Q 353 922 353 1747 
Q 353 2572 751 3078 
Q 1150 3584 1784 3584 
Q 2172 3584 2448 3432 
Q 2725 3281 2906 2969 
z
M 947 1747 
Q 947 1113 1208 752 
Q 1469 391 1925 391 
Q 2381 391 2643 752 
Q 2906 1113 2906 1747 
Q 2906 2381 2643 2742 
Q 2381 3103 1925 3103 
Q 1469 3103 1208 2742 
Q 947 2381 947 1747 
z
" transform="scale(0.015625)"/>
       <path id="DejaVuSans-2c" d="M 750 794 
L 1409 794 
L 1409 256 
L 897 -744 
L 494 -744 
L 750 256 
L 750 794 
z
" transform="scale(0.015625)"/>
       <path id="DejaVuSans-20" transform="scale(0.015625)"/>
       <path id="DejaVuSans-54" d="M -19 4666 
L 3928 4666 
L 3928 4134 
L 2272 4134 
L 2272 0 
L 1638 0 
L 1638 4134 
L -19 4134 
L -19 4666 
z
" transform="scale(0.015625)"/>
       <path id="DejaVuSans-28" d="M 1984 4856 
Q 1566 4138 1362 3434 
Q 1159 2731 1159 2009 
Q 1159 1288 1364 580 
Q 1569 -128 1984 -844 
L 1484 -844 
Q 1016 -109 783 600 
Q 550 1309 550 2009 
Q 550 2706 781 3412 
Q 1013 4119 1484 4856 
L 1984 4856 
z
" transform="scale(0.015625)"/>
       <path id="DejaVuSans-73" d="M 2834 3397 
L 2834 2853 
Q 2591 2978 2328 3040 
Q 2066 3103 1784 3103 
Q 1356 3103 1142 2972 
Q 928 2841 928 2578 
Q 928 2378 1081 2264 
Q 1234 2150 1697 2047 
L 1894 2003 
Q 2506 1872 2764 1633 
Q 3022 1394 3022 966 
Q 3022 478 2636 193 
Q 2250 -91 1575 -91 
Q 1294 -91 989 -36 
Q 684 19 347 128 
L 347 722 
Q 666 556 975 473 
Q 1284 391 1588 391 
Q 1994 391 2212 530 
Q 2431 669 2431 922 
Q 2431 1156 2273 1281 
Q 2116 1406 1581 1522 
L 1381 1569 
Q 847 1681 609 1914 
Q 372 2147 372 2553 
Q 372 3047 722 3315 
Q 1072 3584 1716 3584 
Q 2034 3584 2315 3537 
Q 2597 3491 2834 3397 
z
" transform="scale(0.015625)"/>
       <path id="DejaVuSans-29" d="M 513 4856 
L 1013 4856 
Q 1481 4119 1714 3412 
Q 1947 2706 1947 2009 
Q 1947 1309 1714 600 
Q 1481 -109 1013 -844 
L 513 -844 
Q 928 -128 1133 580 
Q 1338 1288 1338 2009 
Q 1338 2731 1133 3434 
Q 928 4138 513 4856 
z
" transform="scale(0.015625)"/>
      </defs>
      <use xlink:href="#DejaVuSans-50"/>
      <use xlink:href="#DejaVuSans-65" x="56.677734"/>
      <use xlink:href="#DejaVuSans-72" x="118.201172"/>
      <use xlink:href="#DejaVuSans-69" x="159.314453"/>
      <use xlink:href="#DejaVuSans-6f" x="187.097656"/>
      <use xlink:href="#DejaVuSans-64" x="248.279297"/>
      <use xlink:href="#DejaVuSans-2c" x="311.755859"/>
      <use xlink:href="#DejaVuSans-20" x="343.542969"/>
      <use xlink:href="#DejaVuSans-54" x="375.330078"/>
      <use xlink:href="#DejaVuSans-20" x="436.414062"/>
      <use xlink:href="#DejaVuSans-28" x="468.201172"/>
      <use xlink:href="#DejaVuSans-73" x="507.214844"/>
      <use xlink:href="#DejaVuSans-29" x="559.314453"/>
     </g>
    </g>
   </g>
   <g id="matplotlib.axis_2">
    <g id="ytick_1">
     <g id="line2d_33">
      <path d="M 44.7425 122.495143 
L 242.2745 122.495143 
" clip-path="url(#p8b08dd80a6)" style="fill: none; stroke: #d9d9d9; stroke-width: 0.8; stroke-linecap: square"/>
     </g>
     <g id="line2d_34">
      <defs>
       <path id="m6531796f79" d="M 0 0 
L -3.5 0 
" style="stroke: #000000; stroke-width: 0.8"/>
      </defs>
      <g>
       <use xlink:href="#m6531796f79" x="44.7425" y="122.495143" style="stroke: #000000; stroke-width: 0.8"/>
      </g>
     </g>
     <g id="text_4">
      <!-- $\mathdefault{10^{-2}}$ -->
      <g transform="translate(18.9425 125.534518) scale(0.08 -0.08)">
       <defs>
        <path id="DejaVuSans-32" d="M 1228 531 
L 3431 531 
L 3431 0 
L 469 0 
L 469 531 
Q 828 903 1448 1529 
Q 2069 2156 2228 2338 
Q 2531 2678 2651 2914 
Q 2772 3150 2772 3378 
Q 2772 3750 2511 3984 
Q 2250 4219 1831 4219 
Q 1534 4219 1204 4116 
Q 875 4013 500 3803 
L 500 4441 
Q 881 4594 1212 4672 
Q 1544 4750 1819 4750 
Q 2544 4750 2975 4387 
Q 3406 4025 3406 3419 
Q 3406 3131 3298 2873 
Q 3191 2616 2906 2266 
Q 2828 2175 2409 1742 
Q 1991 1309 1228 531 
z
" transform="scale(0.015625)"/>
       </defs>
       <use xlink:href="#DejaVuSans-31" transform="translate(0 0.765625)"/>
       <use xlink:href="#DejaVuSans-30" transform="translate(63.623047 0.765625)"/>
       <use xlink:href="#DejaVuSans-2212" transform="translate(128.203125 39.046875) scale(0.7)"/>
       <use xlink:href="#DejaVuSans-32" transform="translate(186.855469 39.046875) scale(0.7)"/>
      </g>
     </g>
    </g>
    <g id="ytick_2">
     <g id="line2d_35">
      <path d="M 44.7425 70.563963 
L 242.2745 70.563963 
" clip-path="url(#p8b08dd80a6)" style="fill: none; stroke: #d9d9d9; stroke-width: 0.8; stroke-linecap: square"/>
     </g>
     <g id="line2d_36">
      <g>
       <use xlink:href="#m6531796f79" x="44.7425" y="70.563963" style="stroke: #000000; stroke-width: 0.8"/>
      </g>
     </g>
     <g id="text_5">
      <!-- $\mathdefault{10^{-1}}$ -->
      <g transform="translate(18.9425 73.603338) scale(0.08 -0.08)">
       <use xlink:href="#DejaVuSans-31" transform="translate(0 0.684375)"/>
       <use xlink:href="#DejaVuSans-30" transform="translate(63.623047 0.684375)"/>
       <use xlink:href="#DejaVuSans-2212" transform="translate(128.203125 38.965625) scale(0.7)"/>
       <use xlink:href="#DejaVuSans-31" transform="translate(186.855469 38.965625) scale(0.7)"/>
      </g>
     </g>
    </g>
    <g id="ytick_3">
     <g id="line2d_37">
      <path d="M 44.7425 18.632782 
L 242.2745 18.632782 
" clip-path="url(#p8b08dd80a6)" style="fill: none; stroke: #d9d9d9; stroke-width: 0.8; stroke-linecap: square"/>
     </g>
     <g id="line2d_38">
      <g>
       <use xlink:href="#m6531796f79" x="44.7425" y="18.632782" style="stroke: #000000; stroke-width: 0.8"/>
      </g>
     </g>
     <g id="text_6">
      <!-- $\mathdefault{10^{0}}$ -->
      <g transform="translate(23.6625 21.672157) scale(0.08 -0.08)">
       <use xlink:href="#DejaVuSans-31" transform="translate(0 0.765625)"/>
       <use xlink:href="#DejaVuSans-30" transform="translate(63.623047 0.765625)"/>
       <use xlink:href="#DejaVuSans-30" transform="translate(128.203125 39.046875) scale(0.7)"/>
      </g>
     </g>
    </g>
    <g id="ytick_4">
     <g id="line2d_39">
      <path d="M 44.7425 134.016011 
L 242.2745 134.016011 
" clip-path="url(#p8b08dd80a6)" style="fill: none; stroke-dasharray: 2.96,1.28; stroke-dashoffset: 0; stroke: #f2f2f2; stroke-width: 0.8"/>
     </g>
     <g id="line2d_40">
      <defs>
       <path id="me08e7ed1e9" d="M 0 0 
L -2 0 
" style="stroke: #000000; stroke-width: 0.6"/>
      </defs>
      <g>
       <use xlink:href="#me08e7ed1e9" x="44.7425" y="134.016011" style="stroke: #000000; stroke-width: 0.6"/>
      </g>
     </g>
    </g>
    <g id="ytick_5">
     <g id="line2d_41">
      <path d="M 44.7425 130.539385 
L 242.2745 130.539385 
" clip-path="url(#p8b08dd80a6)" style="fill: none; stroke-dasharray: 2.96,1.28; stroke-dashoffset: 0; stroke: #f2f2f2; stroke-width: 0.8"/>
     </g>
     <g id="line2d_42">
      <g>
       <use xlink:href="#me08e7ed1e9" x="44.7425" y="130.539385" style="stroke: #000000; stroke-width: 0.6"/>
      </g>
     </g>
    </g>
    <g id="ytick_6">
     <g id="line2d_43">
      <path d="M 44.7425 127.527795 
L 242.2745 127.527795 
" clip-path="url(#p8b08dd80a6)" style="fill: none; stroke-dasharray: 2.96,1.28; stroke-dashoffset: 0; stroke: #f2f2f2; stroke-width: 0.8"/>
     </g>
     <g id="line2d_44">
      <g>
       <use xlink:href="#me08e7ed1e9" x="44.7425" y="127.527795" style="stroke: #000000; stroke-width: 0.6"/>
      </g>
     </g>
    </g>
    <g id="ytick_7">
     <g id="line2d_45">
      <path d="M 44.7425 124.871384 
L 242.2745 124.871384 
" clip-path="url(#p8b08dd80a6)" style="fill: none; stroke-dasharray: 2.96,1.28; stroke-dashoffset: 0; stroke: #f2f2f2; stroke-width: 0.8"/>
     </g>
     <g id="line2d_46">
      <g>
       <use xlink:href="#me08e7ed1e9" x="44.7425" y="124.871384" style="stroke: #000000; stroke-width: 0.6"/>
      </g>
     </g>
    </g>
    <g id="ytick_8">
     <g id="line2d_47">
      <path d="M 44.7425 106.8623 
L 242.2745 106.8623 
" clip-path="url(#p8b08dd80a6)" style="fill: none; stroke-dasharray: 2.96,1.28; stroke-dashoffset: 0; stroke: #f2f2f2; stroke-width: 0.8"/>
     </g>
     <g id="line2d_48">
      <g>
       <use xlink:href="#me08e7ed1e9" x="44.7425" y="106.8623" style="stroke: #000000; stroke-width: 0.6"/>
      </g>
     </g>
    </g>
    <g id="ytick_9">
     <g id="line2d_49">
      <path d="M 44.7425 97.717673 
L 242.2745 97.717673 
" clip-path="url(#p8b08dd80a6)" style="fill: none; stroke-dasharray: 2.96,1.28; stroke-dashoffset: 0; stroke: #f2f2f2; stroke-width: 0.8"/>
     </g>
     <g id="line2d_50">
      <g>
       <use xlink:href="#me08e7ed1e9" x="44.7425" y="97.717673" style="stroke: #000000; stroke-width: 0.6"/>
      </g>
     </g>
    </g>
    <g id="ytick_10">
     <g id="line2d_51">
      <path d="M 44.7425 91.229457 
L 242.2745 91.229457 
" clip-path="url(#p8b08dd80a6)" style="fill: none; stroke-dasharray: 2.96,1.28; stroke-dashoffset: 0; stroke: #f2f2f2; stroke-width: 0.8"/>
     </g>
     <g id="line2d_52">
      <g>
       <use xlink:href="#me08e7ed1e9" x="44.7425" y="91.229457" style="stroke: #000000; stroke-width: 0.6"/>
      </g>
     </g>
    </g>
    <g id="ytick_11">
     <g id="line2d_53">
      <path d="M 44.7425 86.196806 
L 242.2745 86.196806 
" clip-path="url(#p8b08dd80a6)" style="fill: none; stroke-dasharray: 2.96,1.28; stroke-dashoffset: 0; stroke: #f2f2f2; stroke-width: 0.8"/>
     </g>
     <g id="line2d_54">
      <g>
       <use xlink:href="#me08e7ed1e9" x="44.7425" y="86.196806" style="stroke: #000000; stroke-width: 0.6"/>
      </g>
     </g>
    </g>
    <g id="ytick_12">
     <g id="line2d_55">
      <path d="M 44.7425 82.08483 
L 242.2745 82.08483 
" clip-path="url(#p8b08dd80a6)" style="fill: none; stroke-dasharray: 2.96,1.28; stroke-dashoffset: 0; stroke: #f2f2f2; stroke-width: 0.8"/>
     </g>
     <g id="line2d_56">
      <g>
       <use xlink:href="#me08e7ed1e9" x="44.7425" y="82.08483" style="stroke: #000000; stroke-width: 0.6"/>
      </g>
     </g>
    </g>
    <g id="ytick_13">
     <g id="line2d_57">
      <path d="M 44.7425 78.608205 
L 242.2745 78.608205 
" clip-path="url(#p8b08dd80a6)" style="fill: none; stroke-dasharray: 2.96,1.28; stroke-dashoffset: 0; stroke: #f2f2f2; stroke-width: 0.8"/>
     </g>
     <g id="line2d_58">
      <g>
       <use xlink:href="#me08e7ed1e9" x="44.7425" y="78.608205" style="stroke: #000000; stroke-width: 0.6"/>
      </g>
     </g>
    </g>
    <g id="ytick_14">
     <g id="line2d_59">
      <path d="M 44.7425 75.596614 
L 242.2745 75.596614 
" clip-path="url(#p8b08dd80a6)" style="fill: none; stroke-dasharray: 2.96,1.28; stroke-dashoffset: 0; stroke: #f2f2f2; stroke-width: 0.8"/>
     </g>
     <g id="line2d_60">
      <g>
       <use xlink:href="#me08e7ed1e9" x="44.7425" y="75.596614" style="stroke: #000000; stroke-width: 0.6"/>
      </g>
     </g>
    </g>
    <g id="ytick_15">
     <g id="line2d_61">
      <path d="M 44.7425 72.940203 
L 242.2745 72.940203 
" clip-path="url(#p8b08dd80a6)" style="fill: none; stroke-dasharray: 2.96,1.28; stroke-dashoffset: 0; stroke: #f2f2f2; stroke-width: 0.8"/>
     </g>
     <g id="line2d_62">
      <g>
       <use xlink:href="#me08e7ed1e9" x="44.7425" y="72.940203" style="stroke: #000000; stroke-width: 0.6"/>
      </g>
     </g>
    </g>
    <g id="ytick_16">
     <g id="line2d_63">
      <path d="M 44.7425 54.93112 
L 242.2745 54.93112 
" clip-path="url(#p8b08dd80a6)" style="fill: none; stroke-dasharray: 2.96,1.28; stroke-dashoffset: 0; stroke: #f2f2f2; stroke-width: 0.8"/>
     </g>
     <g id="line2d_64">
      <g>
       <use xlink:href="#me08e7ed1e9" x="44.7425" y="54.93112" style="stroke: #000000; stroke-width: 0.6"/>
      </g>
     </g>
    </g>
    <g id="ytick_17">
     <g id="line2d_65">
      <path d="M 44.7425 45.786493 
L 242.2745 45.786493 
" clip-path="url(#p8b08dd80a6)" style="fill: none; stroke-dasharray: 2.96,1.28; stroke-dashoffset: 0; stroke: #f2f2f2; stroke-width: 0.8"/>
     </g>
     <g id="line2d_66">
      <g>
       <use xlink:href="#me08e7ed1e9" x="44.7425" y="45.786493" style="stroke: #000000; stroke-width: 0.6"/>
      </g>
     </g>
    </g>
    <g id="ytick_18">
     <g id="line2d_67">
      <path d="M 44.7425 39.298277 
L 242.2745 39.298277 
" clip-path="url(#p8b08dd80a6)" style="fill: none; stroke-dasharray: 2.96,1.28; stroke-dashoffset: 0; stroke: #f2f2f2; stroke-width: 0.8"/>
     </g>
     <g id="line2d_68">
      <g>
       <use xlink:href="#me08e7ed1e9" x="44.7425" y="39.298277" style="stroke: #000000; stroke-width: 0.6"/>
      </g>
     </g>
    </g>
    <g id="ytick_19">
     <g id="line2d_69">
      <path d="M 44.7425 34.265625 
L 242.2745 34.265625 
" clip-path="url(#p8b08dd80a6)" style="fill: none; stroke-dasharray: 2.96,1.28; stroke-dashoffset: 0; stroke: #f2f2f2; stroke-width: 0.8"/>
     </g>
     <g id="line2d_70">
      <g>
       <use xlink:href="#me08e7ed1e9" x="44.7425" y="34.265625" style="stroke: #000000; stroke-width: 0.6"/>
      </g>
     </g>
    </g>
    <g id="ytick_20">
     <g id="line2d_71">
      <path d="M 44.7425 30.15365 
L 242.2745 30.15365 
" clip-path="url(#p8b08dd80a6)" style="fill: none; stroke-dasharray: 2.96,1.28; stroke-dashoffset: 0; stroke: #f2f2f2; stroke-width: 0.8"/>
     </g>
     <g id="line2d_72">
      <g>
       <use xlink:href="#me08e7ed1e9" x="44.7425" y="30.15365" style="stroke: #000000; stroke-width: 0.6"/>
      </g>
     </g>
    </g>
    <g id="ytick_21">
     <g id="line2d_73">
      <path d="M 44.7425 26.677024 
L 242.2745 26.677024 
" clip-path="url(#p8b08dd80a6)" style="fill: none; stroke-dasharray: 2.96,1.28; stroke-dashoffset: 0; stroke: #f2f2f2; stroke-width: 0.8"/>
     </g>
     <g id="line2d_74">
      <g>
       <use xlink:href="#me08e7ed1e9" x="44.7425" y="26.677024" style="stroke: #000000; stroke-width: 0.6"/>
      </g>
     </g>
    </g>
    <g id="ytick_22">
     <g id="line2d_75">
      <path d="M 44.7425 23.665434 
L 242.2745 23.665434 
" clip-path="url(#p8b08dd80a6)" style="fill: none; stroke-dasharray: 2.96,1.28; stroke-dashoffset: 0; stroke: #f2f2f2; stroke-width: 0.8"/>
     </g>
     <g id="line2d_76">
      <g>
       <use xlink:href="#me08e7ed1e9" x="44.7425" y="23.665434" style="stroke: #000000; stroke-width: 0.6"/>
      </g>
     </g>
    </g>
    <g id="ytick_23">
     <g id="line2d_77">
      <path d="M 44.7425 21.009023 
L 242.2745 21.009023 
" clip-path="url(#p8b08dd80a6)" style="fill: none; stroke-dasharray: 2.96,1.28; stroke-dashoffset: 0; stroke: #f2f2f2; stroke-width: 0.8"/>
     </g>
     <g id="line2d_78">
      <g>
       <use xlink:href="#me08e7ed1e9" x="44.7425" y="21.009023" style="stroke: #000000; stroke-width: 0.6"/>
      </g>
     </g>
    </g>
    <g id="text_7">
     <!-- Spectral acceleration, SA (g) -->
     <g transform="translate(13.27875 129.871075) rotate(-90) scale(0.08 -0.08)">
      <defs>
       <path id="DejaVuSans-53" d="M 3425 4513 
L 3425 3897 
Q 3066 4069 2747 4153 
Q 2428 4238 2131 4238 
Q 1616 4238 1336 4038 
Q 1056 3838 1056 3469 
Q 1056 3159 1242 3001 
Q 1428 2844 1947 2747 
L 2328 2669 
Q 3034 2534 3370 2195 
Q 3706 1856 3706 1288 
Q 3706 609 3251 259 
Q 2797 -91 1919 -91 
Q 1588 -91 1214 -16 
Q 841 59 441 206 
L 441 856 
Q 825 641 1194 531 
Q 1563 422 1919 422 
Q 2459 422 2753 634 
Q 3047 847 3047 1241 
Q 3047 1584 2836 1778 
Q 2625 1972 2144 2069 
L 1759 2144 
Q 1053 2284 737 2584 
Q 422 2884 422 3419 
Q 422 4038 858 4394 
Q 1294 4750 2059 4750 
Q 2388 4750 2728 4690 
Q 3069 4631 3425 4513 
z
" transform="scale(0.015625)"/>
       <path id="DejaVuSans-70" d="M 1159 525 
L 1159 -1331 
L 581 -1331 
L 581 3500 
L 1159 3500 
L 1159 2969 
Q 1341 3281 1617 3432 
Q 1894 3584 2278 3584 
Q 2916 3584 3314 3078 
Q 3713 2572 3713 1747 
Q 3713 922 3314 415 
Q 2916 -91 2278 -91 
Q 1894 -91 1617 61 
Q 1341 213 1159 525 
z
M 3116 1747 
Q 3116 2381 2855 2742 
Q 2594 3103 2138 3103 
Q 1681 3103 1420 2742 
Q 1159 2381 1159 1747 
Q 1159 1113 1420 752 
Q 1681 391 2138 391 
Q 2594 391 2855 752 
Q 3116 1113 3116 1747 
z
" transform="scale(0.015625)"/>
       <path id="DejaVuSans-63" d="M 3122 3366 
L 3122 2828 
Q 2878 2963 2633 3030 
Q 2388 3097 2138 3097 
Q 1578 3097 1268 2742 
Q 959 2388 959 1747 
Q 959 1106 1268 751 
Q 1578 397 2138 397 
Q 2388 397 2633 464 
Q 2878 531 3122 666 
L 3122 134 
Q 2881 22 2623 -34 
Q 2366 -91 2075 -91 
Q 1284 -91 818 406 
Q 353 903 353 1747 
Q 353 2603 823 3093 
Q 1294 3584 2113 3584 
Q 2378 3584 2631 3529 
Q 2884 3475 3122 3366 
z
" transform="scale(0.015625)"/>
       <path id="DejaVuSans-74" d="M 1172 4494 
L 1172 3500 
L 2356 3500 
L 2356 3053 
L 1172 3053 
L 1172 1153 
Q 1172 725 1289 603 
Q 1406 481 1766 481 
L 2356 481 
L 2356 0 
L 1766 0 
Q 1100 0 847 248 
Q 594 497 594 1153 
L 594 3053 
L 172 3053 
L 172 3500 
L 594 3500 
L 594 4494 
L 1172 4494 
z
" transform="scale(0.015625)"/>
       <path id="DejaVuSans-61" d="M 2194 1759 
Q 1497 1759 1228 1600 
Q 959 1441 959 1056 
Q 959 750 1161 570 
Q 1363 391 1709 391 
Q 2188 391 2477 730 
Q 2766 1069 2766 1631 
L 2766 1759 
L 2194 1759 
z
M 3341 1997 
L 3341 0 
L 2766 0 
L 2766 531 
Q 2569 213 2275 61 
Q 1981 -91 1556 -91 
Q 1019 -91 701 211 
Q 384 513 384 1019 
Q 384 1609 779 1909 
Q 1175 2209 1959 2209 
L 2766 2209 
L 2766 2266 
Q 2766 2663 2505 2880 
Q 2244 3097 1772 3097 
Q 1472 3097 1187 3025 
Q 903 2953 641 2809 
L 641 3341 
Q 956 3463 1253 3523 
Q 1550 3584 1831 3584 
Q 2591 3584 2966 3190 
Q 3341 2797 3341 1997 
z
" transform="scale(0.015625)"/>
       <path id="DejaVuSans-6c" d="M 603 4863 
L 1178 4863 
L 1178 0 
L 603 0 
L 603 4863 
z
" transform="scale(0.015625)"/>
       <path id="DejaVuSans-6e" d="M 3513 2113 
L 3513 0 
L 2938 0 
L 2938 2094 
Q 2938 2591 2744 2837 
Q 2550 3084 2163 3084 
Q 1697 3084 1428 2787 
Q 1159 2491 1159 1978 
L 1159 0 
L 581 0 
L 581 3500 
L 1159 3500 
L 1159 2956 
Q 1366 3272 1645 3428 
Q 1925 3584 2291 3584 
Q 2894 3584 3203 3211 
Q 3513 2838 3513 2113 
z
" transform="scale(0.015625)"/>
       <path id="DejaVuSans-41" d="M 2188 4044 
L 1331 1722 
L 3047 1722 
L 2188 4044 
z
M 1831 4666 
L 2547 4666 
L 4325 0 
L 3669 0 
L 3244 1197 
L 1141 1197 
L 716 0 
L 50 0 
L 1831 4666 
z
" transform="scale(0.015625)"/>
       <path id="DejaVuSans-67" d="M 2906 1791 
Q 2906 2416 2648 2759 
Q 2391 3103 1925 3103 
Q 1463 3103 1205 2759 
Q 947 2416 947 1791 
Q 947 1169 1205 825 
Q 1463 481 1925 481 
Q 2391 481 2648 825 
Q 2906 1169 2906 1791 
z
M 3481 434 
Q 3481 -459 3084 -895 
Q 2688 -1331 1869 -1331 
Q 1566 -1331 1297 -1286 
Q 1028 -1241 775 -1147 
L 775 -588 
Q 1028 -725 1275 -790 
Q 1522 -856 1778 -856 
Q 2344 -856 2625 -561 
Q 2906 -266 2906 331 
L 2906 616 
Q 2728 306 2450 153 
Q 2172 0 1784 0 
Q 1141 0 747 490 
Q 353 981 353 1791 
Q 353 2603 747 3093 
Q 1141 3584 1784 3584 
Q 2172 3584 2450 3431 
Q 2728 3278 2906 2969 
L 2906 3500 
L 3481 3500 
L 3481 434 
z
" transform="scale(0.015625)"/>
      </defs>
      <use xlink:href="#DejaVuSans-53"/>
      <use xlink:href="#DejaVuSans-70" x="63.476562"/>
      <use xlink:href="#DejaVuSans-65" x="126.953125"/>
      <use xlink:href="#DejaVuSans-63" x="188.476562"/>
      <use xlink:href="#DejaVuSans-74" x="243.457031"/>
      <use xlink:href="#DejaVuSans-72" x="282.666016"/>
      <use xlink:href="#DejaVuSans-61" x="323.779297"/>
      <use xlink:href="#DejaVuSans-6c" x="385.058594"/>
      <use xlink:href="#DejaVuSans-20" x="412.841797"/>
      <use xlink:href="#DejaVuSans-61" x="444.628906"/>
      <use xlink:href="#DejaVuSans-63" x="505.908203"/>
      <use xlink:href="#DejaVuSans-63" x="560.888672"/>
      <use xlink:href="#DejaVuSans-65" x="615.869141"/>
      <use xlink:href="#DejaVuSans-6c" x="677.392578"/>
      <use xlink:href="#DejaVuSans-65" x="705.175781"/>
      <use xlink:href="#DejaVuSans-72" x="766.699219"/>
      <use xlink:href="#DejaVuSans-61" x="807.8125"/>
      <use xlink:href="#DejaVuSans-74" x="869.091797"/>
      <use xlink:href="#DejaVuSans-69" x="908.300781"/>
      <use xlink:href="#DejaVuSans-6f" x="936.083984"/>
      <use xlink:href="#DejaVuSans-6e" x="997.265625"/>
      <use xlink:href="#DejaVuSans-2c" x="1060.644531"/>
      <use xlink:href="#DejaVuSans-20" x="1092.431641"/>
      <use xlink:href="#DejaVuSans-53" x="1124.21875"/>
      <use xlink:href="#DejaVuSans-41" x="1189.570312"/>
      <use xlink:href="#DejaVuSans-20" x="1257.978516"/>
      <use xlink:href="#DejaVuSans-28" x="1289.765625"/>
      <use xlink:href="#DejaVuSans-67" x="1328.779297"/>
      <use xlink:href="#DejaVuSans-29" x="1392.255859"/>
     </g>
    </g>
   </g>
   <g id="line2d_79">
    <path d="M 53.721227 56.974682 
L 72.333391 55.80918 
L 85.538931 49.351015 
L 95.781944 44.67727 
L 104.151095 49.024519 
L 117.356635 41.695808 
L 127.599648 53.116544 
L 132.390111 54.93112 
L 146.211812 47.231515 
L 159.417352 42.754864 
L 171.460723 40.208959 
L 178.029516 47.689436 
L 191.235056 53.336269 
L 209.84722 55.842195 
L 223.05276 65.649477 
L 233.295773 71.869444 
" clip-path="url(#p8b08dd80a6)" style="fill: none; stroke: #b2b2b2; stroke-width: 0.8; stroke-linecap: square"/>
   </g>
   <g id="line2d_80">
    <path d="M 53.721227 43.3661 
L 72.333391 25.171679 
L 85.538931 23.790402 
L 95.781944 21.796468 
L 104.151095 19.93638 
L 117.356635 40.541174 
L 127.599648 52.82632 
L 132.390111 54.93112 
L 146.211812 72.53107 
L 159.417352 79.405401 
L 171.460723 82.985112 
L 178.029516 84.755455 
L 191.235056 95.692397 
L 209.84722 118.113894 
L 223.05276 108.662119 
L 233.295773 116.420949 
" clip-path="url(#p8b08dd80a6)" style="fill: none; stroke: #b2b2b2; stroke-width: 0.8; stroke-linecap: square"/>
   </g>
   <g id="line2d_81">
    <path d="M 53.721227 35.599647 
L 72.333391 30.461352 
L 85.538931 27.371088 
L 95.781944 41.862707 
L 104.151095 41.237369 
L 117.356635 53.890936 
L 127.599648 55.86968 
L 132.390111 54.93112 
L 146.211812 50.660844 
L 159.417352 49.743055 
L 171.460723 50.044883 
L 178.029516 49.397439 
L 191.235056 61.387008 
L 209.84722 83.032866 
L 223.05276 97.053718 
L 233.295773 109.516273 
" clip-path="url(#p8b08dd80a6)" style="fill: none; stroke: #b2b2b2; stroke-width: 0.8; stroke-linecap: square"/>
   </g>
   <g id="line2d_82">
    <path d="M 53.721227 34.600569 
L 72.333391 36.075164 
L 85.538931 32.91748 
L 95.781944 26.57797 
L 104.151095 36.105536 
L 117.356635 44.820615 
L 127.599648 44.167818 
L 132.390111 54.93112 
L 146.211812 46.484552 
L 159.417352 59.340851 
L 171.460723 62.804376 
L 178.029516 71.839838 
L 191.235056 86.739496 
L 209.84722 96.92263 
L 223.05276 94.942509 
L 233.295773 100.575638 
" clip-path="url(#p8b08dd80a6)" style="fill: none; stroke: #b2b2b2; stroke-width: 0.8; stroke-linecap: square"/>
   </g>
   <g id="line2d_83">
    <path d="M 53.721227 43.018502 
L 72.333391 43.462706 
L 85.538931 37.057745 
L 95.781944 46.468884 
L 104.151095 43.437794 
L 117.356635 58.559137 
L 127.599648 54.437429 
L 132.390111 54.93112 
L 146.211812 52.286208 
L 159.417352 50.409634 
L 171.460723 43.2502 
L 178.029516 52.626509 
L 191.235056 49.288822 
L 209.84722 65.234036 
L 223.05276 70.337962 
L 233.295773 84.266216 
" clip-path="url(#p8b08dd80a6)" style="fill: none; stroke: #b2b2b2; stroke-width: 0.8; stroke-linecap: square"/>
   </g>
   <g id="line2d_84">
    <path d="M 53.721227 42.019573 
L 72.333391 41.843494 
L 85.538931 43.557832 
L 95.781944 45.813593 
L 104.151095 44.75375 
L 117.356635 51.329006 
L 127.599648 54.029188 
L 132.390111 54.93112 
L 146.211812 54.721649 
L 159.417352 46.929623 
L 171.460723 63.123657 
L 178.029516 64.074468 
L 191.235056 72.597868 
L 209.84722 82.392202 
L 223.05276 91.24922 
L 233.295773 110.065791 
" clip-path="url(#p8b08dd80a6)" style="fill: none; stroke: #b2b2b2; stroke-width: 0.8; stroke-linecap: square"/>
   </g>
   <g id="line2d_85">
    <path d="M 53.721227 45.720955 
L 72.333391 42.296636 
L 85.538931 52.472222 
L 95.781944 54.792374 
L 104.151095 59.99002 
L 117.356635 53.016235 
L 127.599648 51.965578 
L 132.390111 54.93112 
L 146.211812 62.543492 
L 159.417352 60.962254 
L 171.460723 68.656879 
L 178.029516 66.834347 
L 191.235056 81.186387 
L 209.84722 69.156594 
L 223.05276 76.777638 
L 233.295773 100.060629 
" clip-path="url(#p8b08dd80a6)" style="fill: none; stroke: #b2b2b2; stroke-width: 0.8; stroke-linecap: square"/>
   </g>
   <g id="line2d_86">
    <path d="M 53.721227 29.719761 
L 72.333391 31.034018 
L 85.538931 27.427911 
L 95.781944 29.555901 
L 104.151095 36.041392 
L 117.356635 50.365261 
L 127.599648 52.192433 
L 132.390111 54.93112 
L 146.211812 40.360607 
L 159.417352 45.781182 
L 171.460723 64.589965 
L 178.029516 78.370377 
L 191.235056 88.820408 
L 209.84722 91.479781 
L 223.05276 108.996344 
L 233.295773 120.815565 
" clip-path="url(#p8b08dd80a6)" style="fill: none; stroke: #b2b2b2; stroke-width: 0.8; stroke-linecap: square"/>
   </g>
   <g id="line2d_87">
    <path d="M 53.721227 47.235262 
L 72.333391 49.05869 
L 85.538931 52.58896 
L 95.781944 55.376922 
L 104.151095 57.435158 
L 117.356635 53.470621 
L 127.599648 48.221442 
L 132.390111 54.93112 
L 146.211812 62.844323 
L 159.417352 63.023592 
L 171.460723 63.041808 
L 178.029516 63.437715 
L 191.235056 73.756751 
L 209.84722 72.627784 
L 223.05276 84.08208 
L 233.295773 100.447077 
" clip-path="url(#p8b08dd80a6)" style="fill: none; stroke: #b2b2b2; stroke-width: 0.8; stroke-linecap: square"/>
   </g>
   <g id="line2d_88">
    <path d="M 53.721227 62.56291 
L 72.333391 65.484904 
L 85.538931 60.717922 
L 95.781944 63.931084 
L 104.151095 66.170947 
L 117.356635 54.471274 
L 127.599648 55.953064 
L 132.390111 54.93112 
L 146.211812 60.841692 
L 159.417352 69.701053 
L 171.460723 66.223932 
L 178.029516 65.425835 
L 191.235056 59.183658 
L 209.84722 82.340268 
L 223.05276 96.02539 
L 233.295773 105.378845 
" clip-path="url(#p8b08dd80a6)" style="fill: none; stroke: #b2b2b2; stroke-width: 0.8; stroke-linecap: square"/>
   </g>
   <g id="line2d_89">
    <path d="M 53.721227 51.935189 
L 72.333391 50.660791 
L 85.538931 50.631103 
L 95.781944 55.201009 
L 104.151095 56.785345 
L 117.356635 49.697046 
L 127.599648 52.879738 
L 132.390111 54.93112 
L 146.211812 45.809775 
L 159.417352 38.927751 
L 171.460723 49.185139 
L 178.029516 51.688665 
L 191.235056 61.876687 
L 209.84722 81.974968 
L 223.05276 96.805397 
L 233.295773 94.265562 
" clip-path="url(#p8b08dd80a6)" style="fill: none; stroke: #b2b2b2; stroke-width: 0.8; stroke-linecap: square"/>
   </g>
   <g id="line2d_90">
    <path d="M 53.721227 43.235508 
L 72.333391 50.87442 
L 85.538931 46.58644 
L 95.781944 51.944013 
L 104.151095 50.65559 
L 117.356635 51.815264 
L 127.599648 54.535907 
L 132.390111 54.93112 
L 146.211812 62.977231 
L 159.417352 71.046708 
L 171.460723 60.400107 
L 178.029516 66.617258 
L 191.235056 76.86051 
L 209.84722 92.598537 
L 223.05276 99.213662 
L 233.295773 107.099175 
" clip-path="url(#p8b08dd80a6)" style="fill: none; stroke: #b2b2b2; stroke-width: 0.8; stroke-linecap: square"/>
   </g>
   <g id="line2d_91">
    <path d="M 53.721227 42.304166 
L 72.333391 48.745336 
L 85.538931 44.338568 
L 95.781944 50.893454 
L 104.151095 53.753868 
L 117.356635 53.488857 
L 127.599648 55.063946 
L 132.390111 54.93112 
L 146.211812 61.169645 
L 159.417352 66.368252 
L 171.460723 76.36509 
L 178.029516 78.424483 
L 191.235056 78.84003 
L 209.84722 97.292464 
L 223.05276 102.391395 
L 233.295773 118.521092 
" clip-path="url(#p8b08dd80a6)" style="fill: none; stroke: #b2b2b2; stroke-width: 0.8; stroke-linecap: square"/>
   </g>
   <g id="line2d_92">
    <path d="M 53.721227 30.661207 
L 72.333391 42.821268 
L 85.538931 41.817662 
L 95.781944 47.502412 
L 104.151095 49.340081 
L 117.356635 55.929686 
L 127.599648 52.582997 
L 132.390111 54.93112 
L 146.211812 53.54123 
L 159.417352 68.305884 
L 171.460723 65.670305 
L 178.029516 68.749532 
L 191.235056 78.049754 
L 209.84722 77.142913 
L 223.05276 96.650383 
L 233.295773 98.860822 
" clip-path="url(#p8b08dd80a6)" style="fill: none; stroke: #b2b2b2; stroke-width: 0.8; stroke-linecap: square"/>
   </g>
   <g id="line2d_93">
    <path d="M 53.721227 30.438556 
L 72.333391 31.437315 
L 85.538931 30.383464 
L 95.781944 37.845336 
L 104.151095 45.742611 
L 117.356635 50.243621 
L 127.599648 52.725251 
L 132.390111 54.93112 
L 146.211812 57.363057 
L 159.417352 76.965166 
L 171.460723 74.932155 
L 178.029516 80.868698 
L 191.235056 84.652744 
L 209.84722 101.096923 
L 223.05276 102.254372 
L 233.295773 110.974584 
" clip-path="url(#p8b08dd80a6)" style="fill: none; stroke: #b2b2b2; stroke-width: 0.8; stroke-linecap: square"/>
   </g>
   <g id="line2d_94">
    <path d="M 53.721227 35.930193 
L 72.333391 31.523688 
L 85.538931 19.435049 
L 95.781944 23.471398 
L 104.151095 36.485717 
L 117.356635 48.144168 
L 127.599648 52.279338 
L 132.390111 54.93112 
L 146.211812 63.214706 
L 159.417352 53.51688 
L 171.460723 62.573111 
L 178.029516 57.74726 
L 191.235056 63.622647 
L 209.84722 75.912839 
L 223.05276 88.076105 
L 233.295773 92.19059 
" clip-path="url(#p8b08dd80a6)" style="fill: none; stroke: #b2b2b2; stroke-width: 0.8; stroke-linecap: square"/>
   </g>
   <g id="line2d_95">
    <path d="M 53.721227 61.427539 
L 72.333391 63.303322 
L 85.538931 58.840182 
L 95.781944 57.276474 
L 104.151095 53.053752 
L 117.356635 56.23247 
L 127.599648 55.36152 
L 132.390111 54.93112 
L 146.211812 50.885164 
L 159.417352 53.064926 
L 171.460723 51.154564 
L 178.029516 60.463674 
L 191.235056 68.605209 
L 209.84722 75.113546 
L 223.05276 85.708999 
L 233.295773 99.306112 
" clip-path="url(#p8b08dd80a6)" style="fill: none; stroke: #b2b2b2; stroke-width: 0.8; stroke-linecap: square"/>
   </g>
   <g id="line2d_96">
    <path d="M 53.721227 45.354077 
L 72.333391 33.473451 
L 85.538931 35.824556 
L 95.781944 35.202099 
L 104.151095 43.164853 
L 117.356635 50.151488 
L 127.599648 49.83909 
L 132.390111 54.93112 
L 146.211812 56.568727 
L 159.417352 57.665498 
L 171.460723 71.814218 
L 178.029516 73.813265 
L 191.235056 77.354308 
L 209.84722 98.568229 
L 223.05276 101.986453 
L 233.295773 99.842353 
" clip-path="url(#p8b08dd80a6)" style="fill: none; stroke: #b2b2b2; stroke-width: 0.8; stroke-linecap: square"/>
   </g>
   <g id="line2d_97">
    <path d="M 53.721227 37.280399 
L 72.333391 24.67539 
L 85.538931 30.045921 
L 95.781944 35.639079 
L 104.151095 37.435799 
L 117.356635 53.115198 
L 127.599648 59.389221 
L 132.390111 54.93112 
L 146.211812 53.339078 
L 159.417352 60.165681 
L 171.460723 66.194851 
L 178.029516 75.809652 
L 191.235056 79.351222 
L 209.84722 73.754568 
L 223.05276 81.032292 
L 233.295773 90.239075 
" clip-path="url(#p8b08dd80a6)" style="fill: none; stroke: #b2b2b2; stroke-width: 0.8; stroke-linecap: square"/>
   </g>
   <g id="line2d_98">
    <path d="M 53.721227 63.31778 
L 72.333391 62.094687 
L 85.538931 59.715175 
L 95.781944 56.726555 
L 104.151095 49.255324 
L 117.356635 54.968759 
L 127.599648 48.196293 
L 132.390111 54.93112 
L 146.211812 56.920553 
L 159.417352 52.064057 
L 171.460723 58.763112 
L 178.029516 56.215622 
L 191.235056 75.114038 
L 209.84722 91.086431 
L 223.05276 99.937557 
L 233.295773 104.631844 
" clip-path="url(#p8b08dd80a6)" style="fill: none; stroke: #b2b2b2; stroke-width: 0.8; stroke-linecap: square"/>
   </g>
   <g id="line2d_99">
    <path d="M 53.721227 17.62168 
L 72.333391 13.1472 
L 85.538931 18.961051 
L 95.781944 28.907754 
L 104.151095 27.677904 
L 117.356635 36.436821 
L 127.599648 48.153186 
L 132.390111 54.93112 
L 146.211812 56.74308 
L 159.417352 58.848159 
L 171.460723 67.345208 
L 178.029516 66.424374 
L 191.235056 72.688564 
L 209.84722 80.594679 
L 223.05276 88.634507 
L 233.295773 87.964598 
" clip-path="url(#p8b08dd80a6)" style="fill: none; stroke: #b2b2b2; stroke-width: 0.8; stroke-linecap: square"/>
   </g>
   <g id="line2d_100">
    <path d="M 53.721227 39.257745 
L 72.333391 36.176288 
L 85.538931 34.211944 
L 95.781944 38.490664 
L 104.151095 45.091941 
L 117.356635 45.88729 
L 127.599648 51.537316 
L 132.390111 54.93112 
L 146.211812 60.831256 
L 159.417352 71.399804 
L 171.460723 78.031218 
L 178.029516 75.58404 
L 191.235056 81.665719 
L 209.84722 81.342371 
L 223.05276 89.699329 
L 233.295773 88.229815 
" clip-path="url(#p8b08dd80a6)" style="fill: none; stroke: #b2b2b2; stroke-width: 0.8; stroke-linecap: square"/>
   </g>
   <g id="line2d_101">
    <path d="M 53.721227 63.513206 
L 72.333391 49.210708 
L 85.538931 60.826654 
L 95.781944 50.962801 
L 104.151095 52.587737 
L 117.356635 55.671254 
L 127.599648 47.614229 
L 132.390111 54.93112 
L 146.211812 59.915973 
L 159.417352 60.192308 
L 171.460723 54.945112 
L 178.029516 54.461608 
L 191.235056 72.031944 
L 209.84722 82.672182 
L 223.05276 102.121514 
L 233.295773 111.861248 
" clip-path="url(#p8b08dd80a6)" style="fill: none; stroke: #b2b2b2; stroke-width: 0.8; stroke-linecap: square"/>
   </g>
   <g id="line2d_102">
    <path d="M 53.721227 48.90068 
L 72.333391 27.670476 
L 85.538931 38.891427 
L 95.781944 44.242794 
L 104.151095 43.235598 
L 117.356635 48.404217 
L 127.599648 57.866427 
L 132.390111 54.93112 
L 146.211812 57.753514 
L 159.417352 63.723043 
L 171.460723 57.137489 
L 178.029516 53.753737 
L 191.235056 57.137596 
L 209.84722 68.538343 
L 223.05276 84.282533 
L 233.295773 94.226767 
" clip-path="url(#p8b08dd80a6)" style="fill: none; stroke: #b2b2b2; stroke-width: 0.8; stroke-linecap: square"/>
   </g>
   <g id="line2d_103">
    <path d="M 53.721227 26.721635 
L 72.333391 38.153502 
L 85.538931 43.452743 
L 95.781944 41.651522 
L 104.151095 42.327362 
L 117.356635 53.332857 
L 127.599648 50.152794 
L 132.390111 54.93112 
L 146.211812 57.644917 
L 159.417352 66.022706 
L 171.460723 74.817671 
L 178.029516 74.087053 
L 191.235056 70.629444 
L 209.84722 82.80367 
L 223.05276 82.895352 
L 233.295773 89.251949 
" clip-path="url(#p8b08dd80a6)" style="fill: none; stroke: #b2b2b2; stroke-width: 0.8; stroke-linecap: square"/>
   </g>
   <g id="line2d_104">
    <path d="M 53.721227 50.774481 
L 72.333391 50.948962 
L 85.538931 54.266278 
L 95.781944 59.238331 
L 104.151095 52.394827 
L 117.356635 58.89412 
L 127.599648 57.540946 
L 132.390111 54.93112 
L 146.211812 50.638324 
L 159.417352 58.232211 
L 171.460723 61.782191 
L 178.029516 56.784505 
L 191.235056 69.283784 
L 209.84722 84.785362 
L 223.05276 97.260708 
L 233.295773 101.597066 
" clip-path="url(#p8b08dd80a6)" style="fill: none; stroke: #b2b2b2; stroke-width: 0.8; stroke-linecap: square"/>
   </g>
   <g id="line2d_105">
    <path d="M 53.721227 41.192797 
L 72.333391 46.539081 
L 85.538931 33.648157 
L 95.781944 24.622358 
L 104.151095 23.26033 
L 117.356635 33.56346 
L 127.599648 49.624522 
L 132.390111 54.93112 
L 146.211812 55.757286 
L 159.417352 63.344893 
L 171.460723 66.930991 
L 178.029516 64.686957 
L 191.235056 68.538356 
L 209.84722 71.980668 
L 223.05276 71.955429 
L 233.295773 88.154615 
" clip-path="url(#p8b08dd80a6)" style="fill: none; stroke: #b2b2b2; stroke-width: 0.8; stroke-linecap: square"/>
   </g>
   <g id="line2d_106">
    <path d="M 53.721227 42.950182 
L 72.333391 34.507497 
L 85.538931 29.606334 
L 95.781944 36.920674 
L 104.151095 33.495893 
L 117.356635 42.522986 
L 127.599648 51.432353 
L 132.390111 54.93112 
L 146.211812 61.535906 
L 159.417352 58.616631 
L 171.460723 66.598428 
L 178.029516 66.005323 
L 191.235056 80.079895 
L 209.84722 92.532914 
L 223.05276 93.211019 
L 233.295773 95.846381 
" clip-path="url(#p8b08dd80a6)" style="fill: none; stroke: #b2b2b2; stroke-width: 0.8; stroke-linecap: square"/>
   </g>
   <g id="line2d_107">
    <path d="M 53.721227 42.797728 
L 72.333391 44.546913 
L 85.538931 46.589224 
L 95.781944 47.944133 
L 104.151095 49.898978 
L 117.356635 55.718101 
L 127.599648 56.472765 
L 132.390111 54.93112 
L 146.211812 66.546772 
L 159.417352 73.016426 
L 171.460723 71.377374 
L 178.029516 70.110706 
L 191.235056 80.197319 
L 209.84722 87.864589 
L 223.05276 84.058385 
L 233.295773 82.467725 
" clip-path="url(#p8b08dd80a6)" style="fill: none; stroke: #b2b2b2; stroke-width: 0.8; stroke-linecap: square"/>
   </g>
   <g id="line2d_108">
    <path d="M 53.721227 53.543436 
L 72.333391 42.818647 
L 85.538931 44.505053 
L 95.781944 44.352686 
L 104.151095 47.333354 
L 117.356635 51.497218 
L 127.599648 52.390375 
L 132.390111 54.93112 
L 146.211812 70.93239 
L 159.417352 76.169054 
L 171.460723 79.937329 
L 178.029516 90.583272 
L 191.235056 95.824526 
L 209.84722 97.39933 
L 223.05276 102.619948 
L 233.295773 103.44159 
" clip-path="url(#p8b08dd80a6)" style="fill: none; stroke: #b2b2b2; stroke-width: 0.8; stroke-linecap: square"/>
   </g>
   <g id="line2d_109">
    <path d="M 53.721227 58.941071 
L 72.333391 44.577044 
L 85.538931 49.387668 
L 95.781944 56.186303 
L 104.151095 52.097157 
L 117.356635 49.968875 
L 127.599648 56.903442 
L 132.390111 54.93112 
L 146.211812 55.984388 
L 159.417352 58.62166 
L 171.460723 66.850921 
L 178.029516 67.24227 
L 191.235056 60.920745 
L 209.84722 82.247729 
L 223.05276 91.12776 
L 233.295773 95.103631 
" clip-path="url(#p8b08dd80a6)" style="fill: none; stroke: #b2b2b2; stroke-width: 0.8; stroke-linecap: square"/>
   </g>
   <g id="line2d_110">
    <path d="M 53.721227 49.830101 
L 72.333391 44.293591 
L 85.538931 33.262977 
L 95.781944 37.63193 
L 104.151095 40.178183 
L 117.356635 44.305356 
L 127.599648 51.39248 
L 132.390111 54.93112 
L 146.211812 66.963037 
L 159.417352 65.171329 
L 171.460723 69.820085 
L 178.029516 71.407039 
L 191.235056 72.593346 
L 209.84722 96.07788 
L 223.05276 108.37623 
L 233.295773 123.737099 
" clip-path="url(#p8b08dd80a6)" style="fill: none; stroke: #b2b2b2; stroke-width: 0.8; stroke-linecap: square"/>
   </g>
   <g id="line2d_111">
    <path d="M 53.721227 46.021394 
L 72.333391 34.124385 
L 85.538931 39.442781 
L 95.781944 26.71185 
L 104.151095 39.029848 
L 117.356635 50.185259 
L 127.599648 50.685468 
L 132.390111 54.93112 
L 146.211812 48.327858 
L 159.417352 55.302578 
L 171.460723 63.918078 
L 178.029516 69.914824 
L 191.235056 69.971883 
L 209.84722 76.88288 
L 223.05276 86.732775 
L 233.295773 99.140236 
" clip-path="url(#p8b08dd80a6)" style="fill: none; stroke: #b2b2b2; stroke-width: 0.8; stroke-linecap: square"/>
   </g>
   <g id="line2d_112">
    <path d="M 53.721227 31.286416 
L 72.333391 24.571879 
L 85.538931 39.234729 
L 95.781944 38.426284 
L 104.151095 44.107399 
L 117.356635 41.214023 
L 127.599648 44.526229 
L 132.390111 54.93112 
L 146.211812 70.659858 
L 159.417352 69.060548 
L 171.460723 74.770254 
L 178.029516 72.415314 
L 191.235056 77.90582 
L 209.84722 85.72009 
L 223.05276 91.859545 
L 233.295773 104.300916 
" clip-path="url(#p8b08dd80a6)" style="fill: none; stroke: #b2b2b2; stroke-width: 0.8; stroke-linecap: square"/>
   </g>
   <g id="line2d_113">
    <path d="M 53.721227 45.165019 
L 72.333391 26.971509 
L 85.538931 32.388448 
L 95.781944 31.372669 
L 104.151095 37.226487 
L 117.356635 35.778523 
L 127.599648 52.14507 
L 132.390111 54.93112 
L 146.211812 53.840709 
L 159.417352 48.265478 
L 171.460723 57.106571 
L 178.029516 60.549506 
L 191.235056 65.331028 
L 209.84722 71.046028 
L 223.05276 83.865164 
L 233.295773 87.938586 
" clip-path="url(#p8b08dd80a6)" style="fill: none; stroke: #b2b2b2; stroke-width: 0.8; stroke-linecap: square"/>
   </g>
   <g id="line2d_114">
    <path d="M 53.721227 47.945713 
L 72.333391 45.040949 
L 85.538931 44.914812 
L 95.781944 45.202608 
L 104.151095 41.253416 
L 117.356635 44.912401 
L 127.599648 53.95181 
L 132.390111 54.93112 
L 146.211812 57.075647 
L 159.417352 59.437629 
L 171.460723 51.646033 
L 178.029516 55.966583 
L 191.235056 69.429387 
L 209.84722 77.67998 
L 223.05276 82.443854 
L 233.295773 97.422601 
" clip-path="url(#p8b08dd80a6)" style="fill: none; stroke: #b2b2b2; stroke-width: 0.8; stroke-linecap: square"/>
   </g>
   <g id="line2d_115">
    <path d="M 53.721227 54.767803 
L 72.333391 40.921836 
L 85.538931 43.868694 
L 95.781944 40.491092 
L 104.151095 49.771145 
L 117.356635 44.003872 
L 127.599648 57.464999 
L 132.390111 54.93112 
L 146.211812 59.311458 
L 159.417352 67.925075 
L 171.460723 80.006177 
L 178.029516 82.908186 
L 191.235056 93.277154 
L 209.84722 109.640408 
L 223.05276 116.077849 
L 233.295773 124.764428 
" clip-path="url(#p8b08dd80a6)" style="fill: none; stroke: #b2b2b2; stroke-width: 0.8; stroke-linecap: square"/>
   </g>
   <g id="line2d_116">
    <path d="M 53.721227 51.416471 
L 72.333391 45.104936 
L 85.538931 47.726207 
L 95.781944 40.753674 
L 104.151095 43.828987 
L 117.356635 43.208066 
L 127.599648 50.963259 
L 132.390111 54.93112 
L 146.211812 48.885906 
L 159.417352 48.336552 
L 171.460723 41.790687 
L 178.029516 43.250684 
L 191.235056 49.367514 
L 209.84722 67.103934 
L 223.05276 81.504041 
L 233.295773 87.434595 
" clip-path="url(#p8b08dd80a6)" style="fill: none; stroke: #b2b2b2; stroke-width: 0.8; stroke-linecap: square"/>
   </g>
   <g id="line2d_117">
    <path d="M 53.721227 54.40433 
L 72.333391 52.802905 
L 85.538931 48.836333 
L 95.781944 49.15548 
L 104.151095 48.728762 
L 117.356635 54.822083 
L 127.599648 55.116827 
L 132.390111 54.93112 
L 146.211812 61.370423 
L 159.417352 67.393024 
L 171.460723 58.176206 
L 178.029516 69.271872 
L 191.235056 68.082819 
L 209.84722 83.538468 
L 223.05276 95.975741 
L 233.295773 109.675911 
" clip-path="url(#p8b08dd80a6)" style="fill: none; stroke: #b2b2b2; stroke-width: 0.8; stroke-linecap: square"/>
   </g>
   <g id="line2d_118">
    <path d="M 53.721227 41.785106 
L 72.333391 38.629785 
L 85.538931 43.035091 
L 95.781944 44.535778 
L 104.151095 50.393152 
L 117.356635 44.860162 
L 127.599648 52.714748 
L 132.390111 54.93112 
L 146.211812 57.78629 
L 159.417352 70.703037 
L 171.460723 68.930773 
L 178.029516 73.919014 
L 191.235056 75.198014 
L 209.84722 87.026941 
L 223.05276 90.880038 
L 233.295773 105.914721 
" clip-path="url(#p8b08dd80a6)" style="fill: none; stroke: #b2b2b2; stroke-width: 0.8; stroke-linecap: square"/>
   </g>
   <g id="line2d_119">
    <path d="M 53.721227 59.688374 
L 72.333391 52.501835 
L 85.538931 47.989971 
L 95.781944 53.162472 
L 104.151095 48.374933 
L 117.356635 50.888379 
L 127.599648 58.759488 
L 132.390111 54.93112 
L 146.211812 59.8093 
L 159.417352 66.1373 
L 171.460723 72.514984 
L 178.029516 76.941973 
L 191.235056 86.829115 
L 209.84722 100.814662 
L 223.05276 121.958704 
L 233.295773 120.792246 
" clip-path="url(#p8b08dd80a6)" style="fill: none; stroke: #b2b2b2; stroke-width: 0.8; stroke-linecap: square"/>
   </g>
   <g id="line2d_120">
    <path d="M 53.721227 17.151131 
L 72.333391 21.890823 
L 85.538931 22.793937 
L 95.781944 31.1026 
L 104.151095 26.526891 
L 117.356635 34.475538 
L 127.599648 47.441528 
L 132.390111 54.93112 
L 146.211812 53.963763 
L 159.417352 62.002712 
L 171.460723 76.170667 
L 178.029516 74.908316 
L 191.235056 85.982618 
L 209.84722 88.006073 
L 223.05276 99.51528 
L 233.295773 101.574051 
" clip-path="url(#p8b08dd80a6)" style="fill: none; stroke: #b2b2b2; stroke-width: 0.8; stroke-linecap: square"/>
   </g>
   <g id="line2d_121">
    <path d="M 53.721227 59.99312 
L 72.333391 45.45883 
L 85.538931 37.806531 
L 95.781944 40.766321 
L 104.151095 37.969551 
L 117.356635 48.097982 
L 127.599648 52.159186 
L 132.390111 54.93112 
L 146.211812 52.311317 
L 159.417352 51.426981 
L 171.460723 58.234692 
L 178.029516 61.276861 
L 191.235056 69.974016 
L 209.84722 91.934317 
L 223.05276 103.496855 
L 233.295773 119.205739 
" clip-path="url(#p8b08dd80a6)" style="fill: none; stroke: #b2b2b2; stroke-width: 0.8; stroke-linecap: square"/>
   </g>
   <g id="line2d_122">
    <path d="M 53.721227 52.760979 
L 72.333391 51.522268 
L 85.538931 42.740343 
L 95.781944 46.944906 
L 104.151095 44.881009 
L 117.356635 53.53205 
L 127.599648 51.968035 
L 132.390111 54.93112 
L 146.211812 51.601519 
L 159.417352 59.296232 
L 171.460723 60.011164 
L 178.029516 62.371991 
L 191.235056 68.408798 
L 209.84722 83.470015 
L 223.05276 81.62479 
L 233.295773 93.873481 
" clip-path="url(#p8b08dd80a6)" style="fill: none; stroke: #b2b2b2; stroke-width: 0.8; stroke-linecap: square"/>
   </g>
   <g id="line2d_123">
    <path d="M 53.721227 60.117365 
L 72.333391 56.177351 
L 85.538931 54.832666 
L 95.781944 57.237466 
L 104.151095 59.179384 
L 117.356635 59.576358 
L 127.599648 53.569227 
L 132.390111 54.93112 
L 146.211812 61.404387 
L 159.417352 74.074697 
L 171.460723 68.262258 
L 178.029516 69.913851 
L 191.235056 80.888045 
L 209.84722 84.546165 
L 223.05276 103.24735 
L 233.295773 108.59064 
" clip-path="url(#p8b08dd80a6)" style="fill: none; stroke: #b2b2b2; stroke-width: 0.8; stroke-linecap: square"/>
   </g>
   <g id="line2d_124">
    <path d="M 53.721227 54.299101 
L 72.333391 47.228517 
L 85.538931 43.310558 
L 95.781944 41.44746 
L 104.151095 45.089117 
L 117.356635 49.480491 
L 127.599648 53.272077 
L 132.390111 54.93112 
L 146.211812 64.667041 
L 159.417352 65.376742 
L 171.460723 77.265211 
L 178.029516 83.450809 
L 191.235056 85.976076 
L 209.84722 84.737185 
L 223.05276 95.325755 
L 233.295773 89.057628 
" clip-path="url(#p8b08dd80a6)" style="fill: none; stroke: #b2b2b2; stroke-width: 0.8; stroke-linecap: square"/>
   </g>
   <g id="line2d_125">
    <path d="M 53.721227 53.245337 
L 72.333391 39.681171 
L 85.538931 36.553918 
L 95.781944 36.741444 
L 104.151095 38.544818 
L 117.356635 44.142573 
L 127.599648 47.823952 
L 132.390111 54.93112 
L 146.211812 52.29177 
L 159.417352 65.923533 
L 171.460723 70.509954 
L 178.029516 77.570924 
L 191.235056 90.422522 
L 209.84722 94.862669 
L 223.05276 88.859376 
L 233.295773 90.218065 
" clip-path="url(#p8b08dd80a6)" style="fill: none; stroke: #b2b2b2; stroke-width: 0.8; stroke-linecap: square"/>
   </g>
   <g id="line2d_126">
    <path d="M 53.721227 26.355249 
L 72.333391 22.916869 
L 85.538931 28.022499 
L 95.781944 36.035665 
L 104.151095 50.53065 
L 117.356635 57.663191 
L 127.599648 60.22054 
L 132.390111 54.93112 
L 146.211812 62.271874 
L 159.417352 60.589511 
L 171.460723 81.292815 
L 178.029516 85.874387 
L 191.235056 83.628306 
L 209.84722 102.874885 
L 223.05276 120.811422 
L 233.295773 132.0912 
" clip-path="url(#p8b08dd80a6)" style="fill: none; stroke: #b2b2b2; stroke-width: 0.8; stroke-linecap: square"/>
   </g>
   <g id="line2d_127">
    <path d="M 53.721227 36.295487 
L 72.333391 22.297433 
L 85.538931 21.832908 
L 95.781944 35.643629 
L 104.151095 36.071809 
L 117.356635 40.926997 
L 127.599648 42.247496 
L 132.390111 54.93112 
L 146.211812 60.952189 
L 159.417352 63.048613 
L 171.460723 76.311886 
L 178.029516 78.370717 
L 191.235056 87.137623 
L 209.84722 99.232346 
L 223.05276 103.780482 
L 233.295773 114.693417 
" clip-path="url(#p8b08dd80a6)" style="fill: none; stroke: #b2b2b2; stroke-width: 0.8; stroke-linecap: square"/>
   </g>
   <g id="line2d_128">
    <path d="M 53.721227 79.011533 
L 72.333391 76.209618 
L 85.538931 66.017044 
L 95.781944 63.069045 
L 104.151095 61.600504 
L 117.356635 63.660643 
L 127.599648 57.248781 
L 132.390111 54.93112 
L 146.211812 58.426769 
L 159.417352 62.254356 
L 171.460723 64.656852 
L 178.029516 71.686242 
L 191.235056 77.963365 
L 209.84722 92.627182 
L 223.05276 95.324636 
L 233.295773 102.866127 
" clip-path="url(#p8b08dd80a6)" style="fill: none; stroke: #b2b2b2; stroke-width: 0.8; stroke-linecap: square"/>
   </g>
   <g id="line2d_129">
    <path d="M 53.721227 45.986582 
L 72.333391 41.528823 
L 85.538931 41.287322 
L 95.781944 43.137673 
L 104.151095 44.973733 
L 117.356635 49.330485 
L 127.599648 52.602277 
L 132.390111 54.93112 
L 146.211812 57.474869 
L 159.417352 61.063788 
L 171.460723 65.456293 
L 178.029516 67.995143 
L 191.235056 74.565686 
L 209.84722 85.496224 
L 223.05276 93.68581 
L 233.295773 101.910008 
" clip-path="url(#p8b08dd80a6)" style="fill: none; stroke: #ff0000; stroke-width: 2; stroke-linecap: square"/>
   </g>
   <g id="line2d_130">
    <path d="M 53.721227 21.421465 
L 72.333391 16.616068 
L 85.538931 18.331452 
L 95.781944 22.136039 
L 104.151095 26.246272 
L 117.356635 35.642331 
L 127.599648 45.059424 
L 132.390111 54.931119 
L 146.211812 44.429629 
L 159.417352 43.333448 
L 171.460723 45.02138 
L 178.029516 46.703489 
L 191.235056 52.329748 
L 209.84722 61.88702 
L 223.05276 69.919817 
L 233.295773 77.277183 
" clip-path="url(#p8b08dd80a6)" style="fill: none; stroke-dasharray: 7.4,3.2; stroke-dashoffset: 0; stroke: #ff0000; stroke-width: 2"/>
   </g>
   <g id="line2d_131">
    <path d="M 53.721227 70.551699 
L 72.333391 66.441579 
L 85.538931 64.243192 
L 95.781944 64.139308 
L 104.151095 63.701193 
L 117.356635 63.018639 
L 127.599648 60.145131 
L 132.390111 54.93112 
L 146.211812 70.520109 
L 159.417352 78.794128 
L 171.460723 85.891207 
L 178.029516 89.286796 
L 191.235056 96.801623 
L 209.84722 109.105429 
L 223.05276 117.451802 
L 233.295773 126.542832 
" clip-path="url(#p8b08dd80a6)" style="fill: none; stroke-dasharray: 7.4,3.2; stroke-dashoffset: 0; stroke: #ff0000; stroke-width: 2"/>
   </g>
   <g id="line2d_132">
    <path d="M 53.721227 45.809145 
L 72.333391 41.539006 
L 85.538931 41.076554 
L 95.781944 43.050148 
L 104.151095 44.849859 
L 117.356635 49.271555 
L 127.599648 52.579847 
L 132.390111 54.93112 
L 146.211812 57.370001 
L 159.417352 61.121103 
L 171.460723 65.182634 
L 178.029516 67.930849 
L 191.235056 74.673631 
L 209.84722 85.445352 
L 223.05276 93.747189 
L 233.295773 101.735694 
" clip-path="url(#p8b08dd80a6)" style="fill: none; stroke: #0000ff; stroke-width: 2; stroke-linecap: square"/>
   </g>
   <g id="line2d_133">
    <path d="M 53.721227 21.170239 
L 72.333391 16.503159 
L 85.538931 18.341254 
L 95.781944 22.022825 
L 104.151095 25.941458 
L 117.356635 35.748771 
L 127.599648 44.895259 
L 132.390111 54.93112 
L 146.211812 44.122806 
L 159.417352 43.081502 
L 171.460723 44.814175 
L 178.029516 46.755248 
L 191.235056 52.469982 
L 209.84722 61.665558 
L 223.05276 70.216138 
L 233.295773 77.022949 
" clip-path="url(#p8b08dd80a6)" style="fill: none; stroke-dasharray: 7.4,3.2; stroke-dashoffset: 0; stroke: #0000ff; stroke-width: 2"/>
   </g>
   <g id="line2d_134">
    <path d="M 53.721227 70.448051 
L 72.333391 66.574853 
L 85.538931 63.811853 
L 95.781944 64.077471 
L 104.151095 63.758259 
L 117.356635 62.79434 
L 127.599648 60.264435 
L 132.390111 54.93112 
L 146.211812 70.617196 
L 159.417352 79.160703 
L 171.460723 85.551093 
L 178.029516 89.106451 
L 191.235056 96.87728 
L 209.84722 109.225147 
L 223.05276 117.27824 
L 233.295773 126.44844 
" clip-path="url(#p8b08dd80a6)" style="fill: none; stroke-dasharray: 7.4,3.2; stroke-dashoffset: 0; stroke: #0000ff; stroke-width: 2"/>
   </g>
   <g id="patch_3">
    <path d="M 44.7425 138.0384 
L 44.7425 7.2 
" style="fill: none; stroke: #000000; stroke-width: 0.8; stroke-linejoin: miter; stroke-linecap: square"/>
   </g>
   <g id="patch_4">
    <path d="M 242.2745 138.0384 
L 242.2745 7.2 
" style="fill: none; stroke: #000000; stroke-width: 0.8; stroke-linejoin: miter; stroke-linecap: square"/>
   </g>
   <g id="patch_5">
    <path d="M 44.7425 138.0384 
L 242.2745 138.0384 
" style="fill: none; stroke: #000000; stroke-width: 0.8; stroke-linejoin: miter; stroke-linecap: square"/>
   </g>
   <g id="patch_6">
    <path d="M 44.7425 7.2 
L 242.2745 7.2 
" style="fill: none; stroke: #000000; stroke-width: 0.8; stroke-linejoin: miter; stroke-linecap: square"/>
   </g>
   <g id="legend_1">
    <g id="patch_7">
     <path d="M 247.8745 104.47295 
L 432.5945 104.47295 
Q 434.1945 104.47295 434.1945 102.87295 
L 434.1945 42.36545 
Q 434.1945 40.76545 432.5945 40.76545 
L 247.8745 40.76545 
Q 246.2745 40.76545 246.2745 42.36545 
L 246.2745 102.87295 
Q 246.2745 104.47295 247.8745 104.47295 
z
" style="fill: #ffffff; opacity: 0.8; stroke: #cccccc; stroke-linejoin: miter"/>
    </g>
    <g id="line2d_135">
     <path d="M 249.4745 47.2442 
L 257.4745 47.2442 
L 265.4745 47.2442 
" style="fill: none; stroke: #b2b2b2; stroke-width: 0.8; stroke-linecap: square"/>
    </g>
    <g id="text_8">
     <!-- Individual selected GMs -->
     <g transform="translate(271.8745 50.0442) scale(0.08 -0.08)">
      <defs>
       <path id="DejaVuSans-49" d="M 628 4666 
L 1259 4666 
L 1259 0 
L 628 0 
L 628 4666 
z
" transform="scale(0.015625)"/>
       <path id="DejaVuSans-76" d="M 191 3500 
L 800 3500 
L 1894 563 
L 2988 3500 
L 3597 3500 
L 2284 0 
L 1503 0 
L 191 3500 
z
" transform="scale(0.015625)"/>
       <path id="DejaVuSans-75" d="M 544 1381 
L 544 3500 
L 1119 3500 
L 1119 1403 
Q 1119 906 1312 657 
Q 1506 409 1894 409 
Q 2359 409 2629 706 
Q 2900 1003 2900 1516 
L 2900 3500 
L 3475 3500 
L 3475 0 
L 2900 0 
L 2900 538 
Q 2691 219 2414 64 
Q 2138 -91 1772 -91 
Q 1169 -91 856 284 
Q 544 659 544 1381 
z
M 1991 3584 
L 1991 3584 
z
" transform="scale(0.015625)"/>
       <path id="DejaVuSans-47" d="M 3809 666 
L 3809 1919 
L 2778 1919 
L 2778 2438 
L 4434 2438 
L 4434 434 
Q 4069 175 3628 42 
Q 3188 -91 2688 -91 
Q 1594 -91 976 548 
Q 359 1188 359 2328 
Q 359 3472 976 4111 
Q 1594 4750 2688 4750 
Q 3144 4750 3555 4637 
Q 3966 4525 4313 4306 
L 4313 3634 
Q 3963 3931 3569 4081 
Q 3175 4231 2741 4231 
Q 1884 4231 1454 3753 
Q 1025 3275 1025 2328 
Q 1025 1384 1454 906 
Q 1884 428 2741 428 
Q 3075 428 3337 486 
Q 3600 544 3809 666 
z
" transform="scale(0.015625)"/>
       <path id="DejaVuSans-4d" d="M 628 4666 
L 1569 4666 
L 2759 1491 
L 3956 4666 
L 4897 4666 
L 4897 0 
L 4281 0 
L 4281 4097 
L 3078 897 
L 2444 897 
L 1241 4097 
L 1241 0 
L 628 0 
L 628 4666 
z
" transform="scale(0.015625)"/>
      </defs>
      <use xlink:href="#DejaVuSans-49"/>
      <use xlink:href="#DejaVuSans-6e" x="29.492188"/>
      <use xlink:href="#DejaVuSans-64" x="92.871094"/>
      <use xlink:href="#DejaVuSans-69" x="156.347656"/>
      <use xlink:href="#DejaVuSans-76" x="184.130859"/>
      <use xlink:href="#DejaVuSans-69" x="243.310547"/>
      <use xlink:href="#DejaVuSans-64" x="271.09375"/>
      <use xlink:href="#DejaVuSans-75" x="334.570312"/>
      <use xlink:href="#DejaVuSans-61" x="397.949219"/>
      <use xlink:href="#DejaVuSans-6c" x="459.228516"/>
      <use xlink:href="#DejaVuSans-20" x="487.011719"/>
      <use xlink:href="#DejaVuSans-73" x="518.798828"/>
      <use xlink:href="#DejaVuSans-65" x="570.898438"/>
      <use xlink:href="#DejaVuSans-6c" x="632.421875"/>
      <use xlink:href="#DejaVuSans-65" x="660.205078"/>
      <use xlink:href="#DejaVuSans-63" x="721.728516"/>
      <use xlink:href="#DejaVuSans-74" x="776.708984"/>
      <use xlink:href="#DejaVuSans-65" x="815.917969"/>
      <use xlink:href="#DejaVuSans-64" x="877.441406"/>
      <use xlink:href="#DejaVuSans-20" x="940.917969"/>
      <use xlink:href="#DejaVuSans-47" x="972.705078"/>
      <use xlink:href="#DejaVuSans-4d" x="1050.195312"/>
      <use xlink:href="#DejaVuSans-73" x="1136.474609"/>
     </g>
    </g>
    <g id="line2d_136">
     <path d="M 249.4745 58.9867 
L 257.4745 58.9867 
L 265.4745 58.9867 
" style="fill: none; stroke: #ff0000; stroke-width: 2; stroke-linecap: square"/>
    </g>
    <g id="text_9">
     <!-- GCIM median -->
     <g transform="translate(271.8745 61.7867) scale(0.08 -0.08)">
      <defs>
       <path id="DejaVuSans-43" d="M 4122 4306 
L 4122 3641 
Q 3803 3938 3442 4084 
Q 3081 4231 2675 4231 
Q 1875 4231 1450 3742 
Q 1025 3253 1025 2328 
Q 1025 1406 1450 917 
Q 1875 428 2675 428 
Q 3081 428 3442 575 
Q 3803 722 4122 1019 
L 4122 359 
Q 3791 134 3420 21 
Q 3050 -91 2638 -91 
Q 1578 -91 968 557 
Q 359 1206 359 2328 
Q 359 3453 968 4101 
Q 1578 4750 2638 4750 
Q 3056 4750 3426 4639 
Q 3797 4528 4122 4306 
z
" transform="scale(0.015625)"/>
       <path id="DejaVuSans-6d" d="M 3328 2828 
Q 3544 3216 3844 3400 
Q 4144 3584 4550 3584 
Q 5097 3584 5394 3201 
Q 5691 2819 5691 2113 
L 5691 0 
L 5113 0 
L 5113 2094 
Q 5113 2597 4934 2840 
Q 4756 3084 4391 3084 
Q 3944 3084 3684 2787 
Q 3425 2491 3425 1978 
L 3425 0 
L 2847 0 
L 2847 2094 
Q 2847 2600 2669 2842 
Q 2491 3084 2119 3084 
Q 1678 3084 1418 2786 
Q 1159 2488 1159 1978 
L 1159 0 
L 581 0 
L 581 3500 
L 1159 3500 
L 1159 2956 
Q 1356 3278 1631 3431 
Q 1906 3584 2284 3584 
Q 2666 3584 2933 3390 
Q 3200 3197 3328 2828 
z
" transform="scale(0.015625)"/>
      </defs>
      <use xlink:href="#DejaVuSans-47"/>
      <use xlink:href="#DejaVuSans-43" x="77.490234"/>
      <use xlink:href="#DejaVuSans-49" x="147.314453"/>
      <use xlink:href="#DejaVuSans-4d" x="176.806641"/>
      <use xlink:href="#DejaVuSans-20" x="263.085938"/>
      <use xlink:href="#DejaVuSans-6d" x="294.873047"/>
      <use xlink:href="#DejaVuSans-65" x="392.285156"/>
      <use xlink:href="#DejaVuSans-64" x="453.808594"/>
      <use xlink:href="#DejaVuSans-69" x="517.285156"/>
      <use xlink:href="#DejaVuSans-61" x="545.068359"/>
      <use xlink:href="#DejaVuSans-6e" x="606.347656"/>
     </g>
    </g>
    <g id="line2d_137">
     <path d="M 249.4745 72.01045 
L 257.4745 72.01045 
L 265.4745 72.01045 
" style="fill: none; stroke-dasharray: 7.4,3.2; stroke-dashoffset: 0; stroke: #ff0000; stroke-width: 2"/>
    </g>
    <g id="text_10">
     <!-- GCIM $16^{th}$ and $84^{th}$ percentiles -->
     <g transform="translate(271.8745 74.81045) scale(0.08 -0.08)">
      <defs>
       <path id="DejaVuSans-36" d="M 2113 2584 
Q 1688 2584 1439 2293 
Q 1191 2003 1191 1497 
Q 1191 994 1439 701 
Q 1688 409 2113 409 
Q 2538 409 2786 701 
Q 3034 994 3034 1497 
Q 3034 2003 2786 2293 
Q 2538 2584 2113 2584 
z
M 3366 4563 
L 3366 3988 
Q 3128 4100 2886 4159 
Q 2644 4219 2406 4219 
Q 1781 4219 1451 3797 
Q 1122 3375 1075 2522 
Q 1259 2794 1537 2939 
Q 1816 3084 2150 3084 
Q 2853 3084 3261 2657 
Q 3669 2231 3669 1497 
Q 3669 778 3244 343 
Q 2819 -91 2113 -91 
Q 1303 -91 875 529 
Q 447 1150 447 2328 
Q 447 3434 972 4092 
Q 1497 4750 2381 4750 
Q 2619 4750 2861 4703 
Q 3103 4656 3366 4563 
z
" transform="scale(0.015625)"/>
       <path id="DejaVuSans-Oblique-74" d="M 2706 3500 
L 2619 3053 
L 1472 3053 
L 1100 1153 
Q 1081 1047 1072 975 
Q 1063 903 1063 863 
Q 1063 663 1183 572 
Q 1303 481 1569 481 
L 2150 481 
L 2053 0 
L 1503 0 
Q 991 0 739 200 
Q 488 400 488 806 
Q 488 878 497 964 
Q 506 1050 525 1153 
L 897 3053 
L 409 3053 
L 500 3500 
L 978 3500 
L 1172 4494 
L 1747 4494 
L 1556 3500 
L 2706 3500 
z
" transform="scale(0.015625)"/>
       <path id="DejaVuSans-Oblique-68" d="M 3566 2113 
L 3156 0 
L 2578 0 
L 2988 2091 
Q 3016 2238 3031 2350 
Q 3047 2463 3047 2528 
Q 3047 2791 2881 2937 
Q 2716 3084 2419 3084 
Q 1956 3084 1617 2771 
Q 1278 2459 1178 1941 
L 800 0 
L 225 0 
L 1172 4863 
L 1747 4863 
L 1375 2950 
Q 1594 3244 1934 3414 
Q 2275 3584 2650 3584 
Q 3113 3584 3367 3334 
Q 3622 3084 3622 2631 
Q 3622 2519 3608 2391 
Q 3594 2263 3566 2113 
z
" transform="scale(0.015625)"/>
       <path id="DejaVuSans-38" d="M 2034 2216 
Q 1584 2216 1326 1975 
Q 1069 1734 1069 1313 
Q 1069 891 1326 650 
Q 1584 409 2034 409 
Q 2484 409 2743 651 
Q 3003 894 3003 1313 
Q 3003 1734 2745 1975 
Q 2488 2216 2034 2216 
z
M 1403 2484 
Q 997 2584 770 2862 
Q 544 3141 544 3541 
Q 544 4100 942 4425 
Q 1341 4750 2034 4750 
Q 2731 4750 3128 4425 
Q 3525 4100 3525 3541 
Q 3525 3141 3298 2862 
Q 3072 2584 2669 2484 
Q 3125 2378 3379 2068 
Q 3634 1759 3634 1313 
Q 3634 634 3220 271 
Q 2806 -91 2034 -91 
Q 1263 -91 848 271 
Q 434 634 434 1313 
Q 434 1759 690 2068 
Q 947 2378 1403 2484 
z
M 1172 3481 
Q 1172 3119 1398 2916 
Q 1625 2713 2034 2713 
Q 2441 2713 2670 2916 
Q 2900 3119 2900 3481 
Q 2900 3844 2670 4047 
Q 2441 4250 2034 4250 
Q 1625 4250 1398 4047 
Q 1172 3844 1172 3481 
z
" transform="scale(0.015625)"/>
       <path id="DejaVuSans-34" d="M 2419 4116 
L 825 1625 
L 2419 1625 
L 2419 4116 
z
M 2253 4666 
L 3047 4666 
L 3047 1625 
L 3713 1625 
L 3713 1100 
L 3047 1100 
L 3047 0 
L 2419 0 
L 2419 1100 
L 313 1100 
L 313 1709 
L 2253 4666 
z
" transform="scale(0.015625)"/>
      </defs>
      <use xlink:href="#DejaVuSans-47" transform="translate(0 0.529687)"/>
      <use xlink:href="#DejaVuSans-43" transform="translate(77.490234 0.529687)"/>
      <use xlink:href="#DejaVuSans-49" transform="translate(147.314453 0.529687)"/>
      <use xlink:href="#DejaVuSans-4d" transform="translate(176.806641 0.529687)"/>
      <use xlink:href="#DejaVuSans-20" transform="translate(263.085938 0.529687)"/>
      <use xlink:href="#DejaVuSans-31" transform="translate(294.873047 0.529687)"/>
      <use xlink:href="#DejaVuSans-36" transform="translate(358.496094 0.529687)"/>
      <use xlink:href="#DejaVuSans-Oblique-74" transform="translate(423.076172 38.810937) scale(0.7)"/>
      <use xlink:href="#DejaVuSans-Oblique-68" transform="translate(450.522461 38.810937) scale(0.7)"/>
      <use xlink:href="#DejaVuSans-20" transform="translate(497.62207 0.529687)"/>
      <use xlink:href="#DejaVuSans-61" transform="translate(529.40918 0.529687)"/>
      <use xlink:href="#DejaVuSans-6e" transform="translate(590.688477 0.529687)"/>
      <use xlink:href="#DejaVuSans-64" transform="translate(654.067383 0.529687)"/>
      <use xlink:href="#DejaVuSans-20" transform="translate(717.543945 0.529687)"/>
      <use xlink:href="#DejaVuSans-38" transform="translate(749.331055 0.529687)"/>
      <use xlink:href="#DejaVuSans-34" transform="translate(812.954102 0.529687)"/>
      <use xlink:href="#DejaVuSans-Oblique-74" transform="translate(877.53418 38.810937) scale(0.7)"/>
      <use xlink:href="#DejaVuSans-Oblique-68" transform="translate(904.980469 38.810937) scale(0.7)"/>
      <use xlink:href="#DejaVuSans-20" transform="translate(952.080078 0.529687)"/>
      <use xlink:href="#DejaVuSans-70" transform="translate(983.867188 0.529687)"/>
      <use xlink:href="#DejaVuSans-65" transform="translate(1047.34375 0.529687)"/>
      <use xlink:href="#DejaVuSans-72" transform="translate(1108.867188 0.529687)"/>
      <use xlink:href="#DejaVuSans-63" transform="translate(1149.980469 0.529687)"/>
      <use xlink:href="#DejaVuSans-65" transform="translate(1204.960938 0.529687)"/>
      <use xlink:href="#DejaVuSans-6e" transform="translate(1266.484375 0.529687)"/>
      <use xlink:href="#DejaVuSans-74" transform="translate(1329.863281 0.529687)"/>
      <use xlink:href="#DejaVuSans-69" transform="translate(1369.072266 0.529687)"/>
      <use xlink:href="#DejaVuSans-6c" transform="translate(1396.855469 0.529687)"/>
      <use xlink:href="#DejaVuSans-65" transform="translate(1424.638672 0.529687)"/>
      <use xlink:href="#DejaVuSans-73" transform="translate(1486.162109 0.529687)"/>
     </g>
    </g>
    <g id="line2d_138">
     <path d="M 249.4745 83.7692 
L 257.4745 83.7692 
L 265.4745 83.7692 
" style="fill: none; stroke: #0000ff; stroke-width: 2; stroke-linecap: square"/>
    </g>
    <g id="text_11">
     <!-- Selected GMs median -->
     <g transform="translate(271.8745 86.5692) scale(0.08 -0.08)">
      <use xlink:href="#DejaVuSans-53"/>
      <use xlink:href="#DejaVuSans-65" x="63.476562"/>
      <use xlink:href="#DejaVuSans-6c" x="125"/>
      <use xlink:href="#DejaVuSans-65" x="152.783203"/>
      <use xlink:href="#DejaVuSans-63" x="214.306641"/>
      <use xlink:href="#DejaVuSans-74" x="269.287109"/>
      <use xlink:href="#DejaVuSans-65" x="308.496094"/>
      <use xlink:href="#DejaVuSans-64" x="370.019531"/>
      <use xlink:href="#DejaVuSans-20" x="433.496094"/>
      <use xlink:href="#DejaVuSans-47" x="465.283203"/>
      <use xlink:href="#DejaVuSans-4d" x="542.773438"/>
      <use xlink:href="#DejaVuSans-73" x="629.052734"/>
      <use xlink:href="#DejaVuSans-20" x="681.152344"/>
      <use xlink:href="#DejaVuSans-6d" x="712.939453"/>
      <use xlink:href="#DejaVuSans-65" x="810.351562"/>
      <use xlink:href="#DejaVuSans-64" x="871.875"/>
      <use xlink:href="#DejaVuSans-69" x="935.351562"/>
      <use xlink:href="#DejaVuSans-61" x="963.134766"/>
      <use xlink:href="#DejaVuSans-6e" x="1024.414062"/>
     </g>
    </g>
    <g id="line2d_139">
     <path d="M 249.4745 96.79295 
L 257.4745 96.79295 
L 265.4745 96.79295 
" style="fill: none; stroke-dasharray: 7.4,3.2; stroke-dashoffset: 0; stroke: #0000ff; stroke-width: 2"/>
    </g>
    <g id="text_12">
     <!-- Selected GMs, $16^{th}$ and $84^{th}$ percentiles -->
     <g transform="translate(271.8745 99.59295) scale(0.08 -0.08)">
      <use xlink:href="#DejaVuSans-53" transform="translate(0 0.529687)"/>
      <use xlink:href="#DejaVuSans-65" transform="translate(63.476562 0.529687)"/>
      <use xlink:href="#DejaVuSans-6c" transform="translate(125 0.529687)"/>
      <use xlink:href="#DejaVuSans-65" transform="translate(152.783203 0.529687)"/>
      <use xlink:href="#DejaVuSans-63" transform="translate(214.306641 0.529687)"/>
      <use xlink:href="#DejaVuSans-74" transform="translate(269.287109 0.529687)"/>
      <use xlink:href="#DejaVuSans-65" transform="translate(308.496094 0.529687)"/>
      <use xlink:href="#DejaVuSans-64" transform="translate(370.019531 0.529687)"/>
      <use xlink:href="#DejaVuSans-20" transform="translate(433.496094 0.529687)"/>
      <use xlink:href="#DejaVuSans-47" transform="translate(465.283203 0.529687)"/>
      <use xlink:href="#DejaVuSans-4d" transform="translate(542.773438 0.529687)"/>
      <use xlink:href="#DejaVuSans-73" transform="translate(629.052734 0.529687)"/>
      <use xlink:href="#DejaVuSans-2c" transform="translate(681.152344 0.529687)"/>
      <use xlink:href="#DejaVuSans-20" transform="translate(712.939453 0.529687)"/>
      <use xlink:href="#DejaVuSans-31" transform="translate(744.726562 0.529687)"/>
      <use xlink:href="#DejaVuSans-36" transform="translate(808.349609 0.529687)"/>
      <use xlink:href="#DejaVuSans-Oblique-74" transform="translate(872.929688 38.810937) scale(0.7)"/>
      <use xlink:href="#DejaVuSans-Oblique-68" transform="translate(900.375977 38.810937) scale(0.7)"/>
      <use xlink:href="#DejaVuSans-20" transform="translate(947.475586 0.529687)"/>
      <use xlink:href="#DejaVuSans-61" transform="translate(979.262695 0.529687)"/>
      <use xlink:href="#DejaVuSans-6e" transform="translate(1040.541992 0.529687)"/>
      <use xlink:href="#DejaVuSans-64" transform="translate(1103.920898 0.529687)"/>
      <use xlink:href="#DejaVuSans-20" transform="translate(1167.397461 0.529687)"/>
      <use xlink:href="#DejaVuSans-38" transform="translate(1199.18457 0.529687)"/>
      <use xlink:href="#DejaVuSans-34" transform="translate(1262.807617 0.529687)"/>
      <use xlink:href="#DejaVuSans-Oblique-74" transform="translate(1327.387695 38.810937) scale(0.7)"/>
      <use xlink:href="#DejaVuSans-Oblique-68" transform="translate(1354.833984 38.810937) scale(0.7)"/>
      <use xlink:href="#DejaVuSans-20" transform="translate(1401.933594 0.529687)"/>
      <use xlink:href="#DejaVuSans-70" transform="translate(1433.720703 0.529687)"/>
      <use xlink:href="#DejaVuSans-65" transform="translate(1497.197266 0.529687)"/>
      <use xlink:href="#DejaVuSans-72" transform="translate(1558.720703 0.529687)"/>
      <use xlink:href="#DejaVuSans-63" transform="translate(1599.833984 0.529687)"/>
      <use xlink:href="#DejaVuSans-65" transform="translate(1654.814453 0.529687)"/>
      <use xlink:href="#DejaVuSans-6e" transform="translate(1716.337891 0.529687)"/>
      <use xlink:href="#DejaVuSans-74" transform="translate(1779.716797 0.529687)"/>
      <use xlink:href="#DejaVuSans-69" transform="translate(1818.925781 0.529687)"/>
      <use xlink:href="#DejaVuSans-6c" transform="translate(1846.708984 0.529687)"/>
      <use xlink:href="#DejaVuSans-65" transform="translate(1874.492188 0.529687)"/>
      <use xlink:href="#DejaVuSans-73" transform="translate(1936.015625 0.529687)"/>
     </g>
    </g>
   </g>
  </g>
 </g>
 <defs>
  <clipPath id="p8b08dd80a6">
   <rect x="44.7425" y="7.2" width="197.532" height="130.8384"/>
  </clipPath>
 </defs>
</svg>
